<?xml version="1.0" encoding="UTF-8" standalone="no"?>
<!DOCTYPE svg PUBLIC "-//W3C//DTD SVG 1.1//EN"
 "http://www.w3.org/Graphics/SVG/1.1/DTD/svg11.dtd">
<!-- Generated by graphviz version 2.38.0 (20140413.2041)
 -->
<!-- Title: NeuralNetwork Pages: 1 -->
<svg width="288pt" height="109pt"
 viewBox="0.00 0.00 288.00 109.26" xmlns="http://www.w3.org/2000/svg" xmlns:xlink="http://www.w3.org/1999/xlink">
<g id="graph0" class="graph" transform="scale(0.1942 0.1942) rotate(0) translate(4 558.593)">
<title>NeuralNetwork</title>
<polygon fill="white" stroke="none" points="-4,4 -4,-558.593 1479.01,-558.593 1479.01,4 -4,4"/>
<!-- node0 -->
<g id="node1" class="node"><title>node0</title>
<ellipse fill="none" stroke="black" cx="42.2463" cy="-90.5933" rx="42.4939" ry="18"/>
<text text-anchor="middle" x="42.2463" y="-86.8933" font-family="Times New Roman,serif" font-size="14.00">(0) Input</text>
</g>
<!-- node7 -->
<g id="node8" class="node"><title>node7</title>
<ellipse fill="none" stroke="black" cx="187.288" cy="-100.593" rx="42.7926" ry="18"/>
<text text-anchor="middle" x="187.288" y="-96.8933" font-family="Times New Roman,serif" font-size="14.00">(7) XOR</text>
</g>
<!-- node0&#45;&gt;node7 -->
<g id="edge1" class="edge"><title>node0&#45;&gt;node7</title>
<path fill="none" stroke="black" d="M73.3177,-78.221C88.1121,-73.6456 106.22,-70.2917 122.493,-73.5933 131.927,-75.5076 141.699,-78.8646 150.675,-82.5749"/>
<polygon fill="black" stroke="black" points="149.485,-85.8748 160.049,-86.6881 152.298,-79.4648 149.485,-85.8748"/>
<text text-anchor="middle" x="112.493" y="-77.3933" font-family="Times New Roman,serif" font-size="14.00"> (0)</text>
</g>
<!-- node11 -->
<g id="node12" class="node"><title>node11</title>
<ellipse fill="none" stroke="black" cx="187.288" cy="-167.593" rx="46.5926" ry="18"/>
<text text-anchor="middle" x="187.288" y="-163.893" font-family="Times New Roman,serif" font-size="14.00">(11) AND</text>
</g>
<!-- node0&#45;&gt;node11 -->
<g id="edge10" class="edge"><title>node0&#45;&gt;node11</title>
<path fill="none" stroke="black" d="M82.6143,-96.3979C95.8325,-99.4027 110.303,-103.902 122.493,-110.593 132.139,-115.888 132.347,-120.195 140.493,-127.593 146.536,-133.083 153.108,-138.907 159.338,-144.361"/>
<polygon fill="black" stroke="black" points="157.141,-147.09 166.98,-151.021 161.74,-141.812 157.141,-147.09"/>
<text text-anchor="middle" x="112.493" y="-114.393" font-family="Times New Roman,serif" font-size="14.00"> (1)</text>
</g>
<!-- node1 -->
<g id="node2" class="node"><title>node1</title>
<ellipse fill="none" stroke="black" cx="42.2463" cy="-232.593" rx="42.4939" ry="18"/>
<text text-anchor="middle" x="42.2463" y="-228.893" font-family="Times New Roman,serif" font-size="14.00">(1) Input</text>
</g>
<!-- node8 -->
<g id="node9" class="node"><title>node8</title>
<ellipse fill="none" stroke="black" cx="187.288" cy="-324.593" rx="42.7926" ry="18"/>
<text text-anchor="middle" x="187.288" y="-320.893" font-family="Times New Roman,serif" font-size="14.00">(8) XOR</text>
</g>
<!-- node1&#45;&gt;node8 -->
<g id="edge3" class="edge"><title>node1&#45;&gt;node8</title>
<path fill="none" stroke="black" d="M66.5468,-247.579C90.4448,-262.95 127.788,-286.968 154.414,-304.093"/>
<polygon fill="black" stroke="black" points="152.694,-307.148 162.998,-309.614 156.48,-301.26 152.694,-307.148"/>
<text text-anchor="middle" x="112.493" y="-284.393" font-family="Times New Roman,serif" font-size="14.00"> (0)</text>
</g>
<!-- node20 -->
<g id="node21" class="node"><title>node20</title>
<ellipse fill="none" stroke="black" cx="852.097" cy="-235.593" rx="47.3916" ry="18"/>
<text text-anchor="middle" x="852.097" y="-231.893" font-family="Times New Roman,serif" font-size="14.00">(20) XOR</text>
</g>
<!-- node1&#45;&gt;node20 -->
<g id="edge27" class="edge"><title>node1&#45;&gt;node20</title>
<path fill="none" stroke="black" d="M81.6677,-225.947C110.392,-221.551 150.68,-216.593 186.288,-216.593 186.288,-216.593 186.288,-216.593 702.206,-216.593 734.698,-216.593 770.86,-221.101 799.409,-225.725"/>
<polygon fill="black" stroke="black" points="799.121,-229.225 809.562,-227.425 800.278,-222.321 799.121,-229.225"/>
<text text-anchor="middle" x="487.867" y="-220.393" font-family="Times New Roman,serif" font-size="14.00"> (0)</text>
</g>
<!-- node2 -->
<g id="node3" class="node"><title>node2</title>
<ellipse fill="none" stroke="black" cx="42.2463" cy="-433.593" rx="42.4939" ry="18"/>
<text text-anchor="middle" x="42.2463" y="-429.893" font-family="Times New Roman,serif" font-size="14.00">(2) Input</text>
</g>
<!-- node10 -->
<g id="node11" class="node"><title>node10</title>
<ellipse fill="none" stroke="black" cx="187.288" cy="-536.593" rx="46.5926" ry="18"/>
<text text-anchor="middle" x="187.288" y="-532.893" font-family="Times New Roman,serif" font-size="14.00">(10) AND</text>
</g>
<!-- node2&#45;&gt;node10 -->
<g id="edge8" class="edge"><title>node2&#45;&gt;node10</title>
<path fill="none" stroke="black" d="M83.264,-438.318C96.5343,-441.236 110.871,-445.957 122.493,-453.593 143.932,-467.681 161.124,-491.467 172.234,-509.973"/>
<polygon fill="black" stroke="black" points="169.311,-511.911 177.336,-518.829 175.377,-508.417 169.311,-511.911"/>
<text text-anchor="middle" x="112.493" y="-457.393" font-family="Times New Roman,serif" font-size="14.00"> (1)</text>
</g>
<!-- node13 -->
<g id="node14" class="node"><title>node13</title>
<ellipse fill="none" stroke="black" cx="299.53" cy="-465.593" rx="47.3916" ry="18"/>
<text text-anchor="middle" x="299.53" y="-461.893" font-family="Times New Roman,serif" font-size="14.00">(13) XOR</text>
</g>
<!-- node2&#45;&gt;node13 -->
<g id="edge13" class="edge"><title>node2&#45;&gt;node13</title>
<path fill="none" stroke="black" d="M81.7125,-426.89C88.6108,-425.933 95.7492,-425.103 102.493,-424.593 156.191,-420.538 216.666,-436.395 256.065,-449.556"/>
<polygon fill="black" stroke="black" points="255.016,-452.897 265.611,-452.83 257.287,-446.275 255.016,-452.897"/>
<text text-anchor="middle" x="112.493" y="-428.393" font-family="Times New Roman,serif" font-size="14.00"> (0)</text>
</g>
<!-- node3 -->
<g id="node4" class="node"><title>node3</title>
<ellipse fill="none" stroke="black" cx="42.2463" cy="-163.593" rx="42.4939" ry="18"/>
<text text-anchor="middle" x="42.2463" y="-159.893" font-family="Times New Roman,serif" font-size="14.00">(3) Input</text>
</g>
<!-- node3&#45;&gt;node7 -->
<g id="edge2" class="edge"><title>node3&#45;&gt;node7</title>
<path fill="none" stroke="black" d="M72.193,-150.844C93.8614,-141.301 123.727,-128.147 147.467,-117.691"/>
<polygon fill="black" stroke="black" points="149.153,-120.773 156.894,-113.54 146.331,-114.367 149.153,-120.773"/>
<text text-anchor="middle" x="112.493" y="-139.393" font-family="Times New Roman,serif" font-size="14.00"> (1)</text>
</g>
<!-- node3&#45;&gt;node11 -->
<g id="edge9" class="edge"><title>node3&#45;&gt;node11</title>
<path fill="none" stroke="black" d="M84.62,-164.75C98.8325,-165.148 114.989,-165.6 130.173,-166.024"/>
<polygon fill="black" stroke="black" points="130.4,-169.532 140.494,-166.313 130.596,-162.534 130.4,-169.532"/>
<text text-anchor="middle" x="112.493" y="-169.393" font-family="Times New Roman,serif" font-size="14.00"> (0)</text>
</g>
<!-- node4 -->
<g id="node5" class="node"><title>node4</title>
<ellipse fill="none" stroke="black" cx="42.2463" cy="-324.593" rx="42.4939" ry="18"/>
<text text-anchor="middle" x="42.2463" y="-320.893" font-family="Times New Roman,serif" font-size="14.00">(4) Input</text>
</g>
<!-- node4&#45;&gt;node8 -->
<g id="edge4" class="edge"><title>node4&#45;&gt;node8</title>
<path fill="none" stroke="black" d="M84.62,-324.593C99.9168,-324.593 117.466,-324.593 133.63,-324.593"/>
<polygon fill="black" stroke="black" points="134.015,-328.093 144.015,-324.593 134.015,-321.093 134.015,-328.093"/>
<text text-anchor="middle" x="112.493" y="-328.393" font-family="Times New Roman,serif" font-size="14.00"> (1)</text>
</g>
<!-- node15 -->
<g id="node16" class="node"><title>node15</title>
<ellipse fill="none" stroke="black" cx="701.206" cy="-266.593" rx="47.3916" ry="18"/>
<text text-anchor="middle" x="701.206" y="-262.893" font-family="Times New Roman,serif" font-size="14.00">(15) XOR</text>
</g>
<!-- node4&#45;&gt;node15 -->
<g id="edge17" class="edge"><title>node4&#45;&gt;node15</title>
<path fill="none" stroke="black" d="M76.6998,-313.957C95.3176,-308.379 119.007,-301.842 140.493,-297.593 209.893,-283.869 227.785,-278.593 298.53,-278.593 298.53,-278.593 298.53,-278.593 557.814,-278.593 586.942,-278.593 619.305,-276.069 645.807,-273.336"/>
<polygon fill="black" stroke="black" points="646.459,-276.786 656.03,-272.242 645.715,-269.826 646.459,-276.786"/>
<text text-anchor="middle" x="412.422" y="-282.393" font-family="Times New Roman,serif" font-size="14.00"> (0)</text>
</g>
<!-- node17 -->
<g id="node18" class="node"><title>node17</title>
<ellipse fill="none" stroke="black" cx="1002.99" cy="-374.593" rx="47.3916" ry="18"/>
<text text-anchor="middle" x="1002.99" y="-370.893" font-family="Times New Roman,serif" font-size="14.00">(17) XOR</text>
</g>
<!-- node4&#45;&gt;node17 -->
<g id="edge21" class="edge"><title>node4&#45;&gt;node17</title>
<path fill="none" stroke="black" d="M67.6259,-339.071C95.3705,-354.149 142.523,-375.593 186.288,-375.593 186.288,-375.593 186.288,-375.593 853.097,-375.593 883.468,-375.593 917.323,-375.383 945.067,-375.155"/>
<polygon fill="black" stroke="black" points="945.411,-378.652 955.381,-375.067 945.352,-371.652 945.411,-378.652"/>
<text text-anchor="middle" x="556.814" y="-379.393" font-family="Times New Roman,serif" font-size="14.00"> (0)</text>
</g>
<!-- node5 -->
<g id="node6" class="node"><title>node5</title>
<ellipse fill="none" stroke="black" cx="42.2463" cy="-511.593" rx="42.4939" ry="18"/>
<text text-anchor="middle" x="42.2463" y="-507.893" font-family="Times New Roman,serif" font-size="14.00">(5) Input</text>
</g>
<!-- node5&#45;&gt;node10 -->
<g id="edge7" class="edge"><title>node5&#45;&gt;node10</title>
<path fill="none" stroke="black" d="M81.5789,-518.293C97.7667,-521.122 116.869,-524.461 134.296,-527.506"/>
<polygon fill="black" stroke="black" points="133.875,-530.986 144.328,-529.26 135.08,-524.09 133.875,-530.986"/>
<text text-anchor="middle" x="112.493" y="-528.393" font-family="Times New Roman,serif" font-size="14.00"> (0)</text>
</g>
<!-- node5&#45;&gt;node13 -->
<g id="edge14" class="edge"><title>node5&#45;&gt;node13</title>
<path fill="none" stroke="black" d="M81.4648,-504.707C125.226,-496.821 197.17,-483.858 246.136,-475.034"/>
<polygon fill="black" stroke="black" points="246.997,-478.436 256.217,-473.218 245.755,-471.547 246.997,-478.436"/>
<text text-anchor="middle" x="112.493" y="-504.393" font-family="Times New Roman,serif" font-size="14.00"> (1)</text>
</g>
<!-- node6 -->
<g id="node7" class="node"><title>node6</title>
<ellipse fill="none" stroke="black" cx="42.2463" cy="-21.5933" rx="42.4939" ry="18"/>
<text text-anchor="middle" x="42.2463" y="-17.8933" font-family="Times New Roman,serif" font-size="14.00">(6) Input</text>
</g>
<!-- node9 -->
<g id="node10" class="node"><title>node9</title>
<ellipse fill="none" stroke="black" cx="412.422" cy="-110.593" rx="42.4939" ry="18"/>
<text text-anchor="middle" x="412.422" y="-106.893" font-family="Times New Roman,serif" font-size="14.00">(9) AND</text>
</g>
<!-- node6&#45;&gt;node9 -->
<g id="edge6" class="edge"><title>node6&#45;&gt;node9</title>
<path fill="none" stroke="black" d="M84.491,-22.8423C156.277,-25.5252 300.932,-33.3306 346.976,-53.5933 363.574,-60.8977 378.923,-74.0936 390.475,-85.9503"/>
<polygon fill="black" stroke="black" points="388.112,-88.5483 397.493,-93.473 393.231,-83.7733 388.112,-88.5483"/>
<text text-anchor="middle" x="187.288" y="-35.3933" font-family="Times New Roman,serif" font-size="14.00"> (1)</text>
</g>
<!-- node14 -->
<g id="node15" class="node"><title>node14</title>
<ellipse fill="none" stroke="black" cx="412.422" cy="-22.5933" rx="47.3916" ry="18"/>
<text text-anchor="middle" x="412.422" y="-18.8933" font-family="Times New Roman,serif" font-size="14.00">(14) XOR</text>
</g>
<!-- node6&#45;&gt;node14 -->
<g id="edge15" class="edge"><title>node6&#45;&gt;node14</title>
<path fill="none" stroke="black" d="M79.483,-12.7872C97.6714,-8.8093 120.117,-4.56514 140.493,-2.5933 216.349,4.74772 304.385,-5.14663 359.004,-13.4433"/>
<polygon fill="black" stroke="black" points="358.716,-16.9406 369.135,-15.0225 359.794,-10.0241 358.716,-16.9406"/>
<text text-anchor="middle" x="187.288" y="-6.3933" font-family="Times New Roman,serif" font-size="14.00"> (0)</text>
</g>
<!-- node7&#45;&gt;node9 -->
<g id="edge5" class="edge"><title>node7&#45;&gt;node9</title>
<path fill="none" stroke="black" d="M229.996,-102.462C266.818,-104.113 320.627,-106.524 360.084,-108.293"/>
<polygon fill="black" stroke="black" points="360.149,-111.799 370.295,-108.75 360.462,-104.806 360.149,-111.799"/>
<text text-anchor="middle" x="299.53" y="-111.393" font-family="Times New Roman,serif" font-size="14.00"> (0)</text>
</g>
<!-- node7&#45;&gt;node14 -->
<g id="edge16" class="edge"><title>node7&#45;&gt;node14</title>
<path fill="none" stroke="black" d="M220.734,-89.2514C259.308,-75.767 323.882,-53.1942 367.056,-38.1021"/>
<polygon fill="black" stroke="black" points="368.448,-41.3231 376.733,-34.7193 366.138,-34.7152 368.448,-41.3231"/>
<text text-anchor="middle" x="299.53" y="-80.3933" font-family="Times New Roman,serif" font-size="14.00"> (1)</text>
</g>
<!-- node16 -->
<g id="node17" class="node"><title>node16</title>
<ellipse fill="none" stroke="black" cx="852.097" cy="-324.593" rx="46.5926" ry="18"/>
<text text-anchor="middle" x="852.097" y="-320.893" font-family="Times New Roman,serif" font-size="14.00">(16) AND</text>
</g>
<!-- node8&#45;&gt;node16 -->
<g id="edge20" class="edge"><title>node8&#45;&gt;node16</title>
<path fill="none" stroke="black" d="M230.236,-324.593C275.083,-324.593 348.278,-324.593 411.422,-324.593 411.422,-324.593 411.422,-324.593 702.206,-324.593 732.805,-324.593 766.942,-324.593 794.802,-324.593"/>
<polygon fill="black" stroke="black" points="795.152,-328.093 805.152,-324.593 795.152,-321.093 795.152,-328.093"/>
<text text-anchor="middle" x="556.814" y="-328.393" font-family="Times New Roman,serif" font-size="14.00"> (1)</text>
</g>
<!-- node12 -->
<g id="node13" class="node"><title>node12</title>
<ellipse fill="none" stroke="black" cx="556.814" cy="-167.593" rx="40.8928" ry="18"/>
<text text-anchor="middle" x="556.814" y="-163.893" font-family="Times New Roman,serif" font-size="14.00">(12) OR</text>
</g>
<!-- node9&#45;&gt;node12 -->
<g id="edge12" class="edge"><title>node9&#45;&gt;node12</title>
<path fill="none" stroke="black" d="M447.525,-120.67C463.07,-125.576 481.596,-131.865 497.867,-138.593 505.554,-141.772 513.634,-145.533 521.239,-149.276"/>
<polygon fill="black" stroke="black" points="519.715,-152.427 530.222,-153.791 522.859,-146.173 519.715,-152.427"/>
<text text-anchor="middle" x="487.867" y="-142.393" font-family="Times New Roman,serif" font-size="14.00"> (1)</text>
</g>
<!-- node21 -->
<g id="node22" class="node"><title>node21</title>
<ellipse fill="none" stroke="black" cx="1304.77" cy="-521.593" rx="47.3916" ry="18"/>
<text text-anchor="middle" x="1304.77" y="-517.893" font-family="Times New Roman,serif" font-size="14.00">(21) XOR</text>
</g>
<!-- node10&#45;&gt;node21 -->
<g id="edge30" class="edge"><title>node10&#45;&gt;node21</title>
<path fill="none" stroke="black" d="M234.442,-536.593C279.564,-536.593 350.215,-536.593 411.422,-536.593 411.422,-536.593 411.422,-536.593 1154.88,-536.593 1186.7,-536.593 1222.14,-533.161 1250.47,-529.58"/>
<polygon fill="black" stroke="black" points="1251.1,-533.027 1260.56,-528.26 1250.19,-526.086 1251.1,-533.027"/>
<text text-anchor="middle" x="776.652" y="-540.393" font-family="Times New Roman,serif" font-size="14.00"> (1)</text>
</g>
<!-- node11&#45;&gt;node12 -->
<g id="edge11" class="edge"><title>node11&#45;&gt;node12</title>
<path fill="none" stroke="black" d="M234.093,-167.593C303.236,-167.593 433.789,-167.593 505.499,-167.593"/>
<polygon fill="black" stroke="black" points="505.638,-171.093 515.638,-167.593 505.638,-164.093 505.638,-171.093"/>
<text text-anchor="middle" x="412.422" y="-171.393" font-family="Times New Roman,serif" font-size="14.00"> (0)</text>
</g>
<!-- node12&#45;&gt;node15 -->
<g id="edge18" class="edge"><title>node12&#45;&gt;node15</title>
<path fill="none" stroke="black" d="M579.44,-182.629C603.309,-199.224 641.934,-226.079 669.062,-244.94"/>
<polygon fill="black" stroke="black" points="667.223,-247.924 677.432,-250.759 671.219,-242.177 667.223,-247.924"/>
<text text-anchor="middle" x="625.76" y="-223.393" font-family="Times New Roman,serif" font-size="14.00"> (1)</text>
</g>
<!-- node18 -->
<g id="node19" class="node"><title>node18</title>
<ellipse fill="none" stroke="black" cx="1153.88" cy="-405.593" rx="47.3916" ry="18"/>
<text text-anchor="middle" x="1153.88" y="-401.893" font-family="Times New Roman,serif" font-size="14.00">(18) XOR</text>
</g>
<!-- node13&#45;&gt;node18 -->
<g id="edge23" class="edge"><title>node13&#45;&gt;node18</title>
<path fill="none" stroke="black" d="M341.779,-457.199C379.408,-450.278 436.636,-441.593 486.867,-441.593 486.867,-441.593 486.867,-441.593 1003.99,-441.593 1040.66,-441.593 1081.04,-431.146 1110.48,-421.507"/>
<polygon fill="black" stroke="black" points="1111.66,-424.8 1120.02,-418.286 1109.43,-418.168 1111.66,-424.8"/>
<text text-anchor="middle" x="701.206" y="-445.393" font-family="Times New Roman,serif" font-size="14.00"> (0)</text>
</g>
<!-- node19 -->
<g id="node20" class="node"><title>node19</title>
<ellipse fill="none" stroke="black" cx="1153.88" cy="-490.593" rx="46.5926" ry="18"/>
<text text-anchor="middle" x="1153.88" y="-486.893" font-family="Times New Roman,serif" font-size="14.00">(19) AND</text>
</g>
<!-- node13&#45;&gt;node19 -->
<g id="edge25" class="edge"><title>node13&#45;&gt;node19</title>
<path fill="none" stroke="black" d="M340.634,-474.81C378.207,-482.631 436.037,-492.593 486.867,-492.593 486.867,-492.593 486.867,-492.593 1003.99,-492.593 1034.59,-492.593 1068.73,-492.166 1096.59,-491.706"/>
<polygon fill="black" stroke="black" points="1097,-495.199 1106.94,-491.529 1096.88,-488.2 1097,-495.199"/>
<text text-anchor="middle" x="701.206" y="-496.393" font-family="Times New Roman,serif" font-size="14.00"> (0)</text>
</g>
<!-- node22 -->
<g id="node23" class="node"><title>node22</title>
<ellipse fill="none" stroke="black" cx="1432.11" cy="-22.5933" rx="42.7926" ry="18"/>
<text text-anchor="middle" x="1432.11" y="-18.8933" font-family="Times New Roman,serif" font-size="14.00">Output 0</text>
</g>
<!-- node14&#45;&gt;node22 -->
<g id="edge31" class="edge"><title>node14&#45;&gt;node22</title>
<path fill="none" stroke="black" d="M459.916,-22.5933C487.738,-22.5933 523.8,-22.5933 555.814,-22.5933 555.814,-22.5933 555.814,-22.5933 1305.77,-22.5933 1329.83,-22.5933 1356.49,-22.5933 1379.01,-22.5933"/>
<polygon fill="black" stroke="black" points="1379.05,-26.0934 1389.05,-22.5933 1379.05,-19.0934 1379.05,-26.0934"/>
</g>
<!-- node15&#45;&gt;node16 -->
<g id="edge19" class="edge"><title>node15&#45;&gt;node16</title>
<path fill="none" stroke="black" d="M738.22,-278.148C753.3,-283.196 770.941,-289.376 786.652,-295.593 795.106,-298.939 804.067,-302.778 812.532,-306.544"/>
<polygon fill="black" stroke="black" points="811.27,-309.815 821.825,-310.735 814.148,-303.434 811.27,-309.815"/>
<text text-anchor="middle" x="776.652" y="-299.393" font-family="Times New Roman,serif" font-size="14.00"> (0)</text>
</g>
<!-- node15&#45;&gt;node20 -->
<g id="edge28" class="edge"><title>node15&#45;&gt;node20</title>
<path fill="none" stroke="black" d="M743.285,-258.04C760.861,-254.381 781.565,-250.07 800.107,-246.21"/>
<polygon fill="black" stroke="black" points="801.075,-249.583 810.152,-244.118 799.649,-242.73 801.075,-249.583"/>
<text text-anchor="middle" x="776.652" y="-256.393" font-family="Times New Roman,serif" font-size="14.00"> (1)</text>
</g>
<!-- node16&#45;&gt;node17 -->
<g id="edge22" class="edge"><title>node16&#45;&gt;node17</title>
<path fill="none" stroke="black" d="M893,-333.638C907.204,-337.212 923.222,-341.65 937.543,-346.593 946.005,-349.514 954.911,-353.061 963.312,-356.635"/>
<polygon fill="black" stroke="black" points="961.965,-359.866 972.531,-360.65 964.76,-353.448 961.965,-359.866"/>
<text text-anchor="middle" x="927.543" y="-350.393" font-family="Times New Roman,serif" font-size="14.00"> (1)</text>
</g>
<!-- node17&#45;&gt;node18 -->
<g id="edge24" class="edge"><title>node17&#45;&gt;node18</title>
<path fill="none" stroke="black" d="M1049.55,-370.886C1062.26,-370.85 1076,-371.758 1088.43,-374.593 1098.78,-376.953 1109.41,-381.195 1118.97,-385.798"/>
<polygon fill="black" stroke="black" points="1117.63,-389.042 1128.13,-390.465 1120.81,-382.806 1117.63,-389.042"/>
<text text-anchor="middle" x="1078.43" y="-378.393" font-family="Times New Roman,serif" font-size="14.00"> (1)</text>
</g>
<!-- node17&#45;&gt;node19 -->
<g id="edge26" class="edge"><title>node17&#45;&gt;node19</title>
<path fill="none" stroke="black" d="M1024.69,-390.723C1050.58,-410.894 1095.04,-445.532 1124.2,-468.248"/>
<polygon fill="black" stroke="black" points="1122.31,-471.216 1132.35,-474.601 1126.62,-465.694 1122.31,-471.216"/>
<text text-anchor="middle" x="1078.43" y="-442.393" font-family="Times New Roman,serif" font-size="14.00"> (1)</text>
</g>
<!-- node24 -->
<g id="node25" class="node"><title>node24</title>
<ellipse fill="none" stroke="black" cx="1432.11" cy="-405.593" rx="42.7926" ry="18"/>
<text text-anchor="middle" x="1432.11" y="-401.893" font-family="Times New Roman,serif" font-size="14.00">Output 2</text>
</g>
<!-- node18&#45;&gt;node24 -->
<g id="edge33" class="edge"><title>node18&#45;&gt;node24</title>
<path fill="none" stroke="black" d="M1201.43,-405.593C1250.48,-405.593 1327.58,-405.593 1378.73,-405.593"/>
<polygon fill="black" stroke="black" points="1378.91,-409.093 1388.91,-405.593 1378.91,-402.093 1378.91,-409.093"/>
</g>
<!-- node19&#45;&gt;node21 -->
<g id="edge29" class="edge"><title>node19&#45;&gt;node21</title>
<path fill="none" stroke="black" d="M1195.71,-498.682C1209.57,-501.462 1225.13,-504.622 1239.33,-507.593 1243.8,-508.529 1248.44,-509.513 1253.09,-510.507"/>
<polygon fill="black" stroke="black" points="1252.71,-514.006 1263.23,-512.686 1254.19,-507.162 1252.71,-514.006"/>
<text text-anchor="middle" x="1229.33" y="-511.393" font-family="Times New Roman,serif" font-size="14.00"> (0)</text>
</g>
<!-- node23 -->
<g id="node24" class="node"><title>node23</title>
<ellipse fill="none" stroke="black" cx="1432.11" cy="-235.593" rx="42.7926" ry="18"/>
<text text-anchor="middle" x="1432.11" y="-231.893" font-family="Times New Roman,serif" font-size="14.00">Output 1</text>
</g>
<!-- node20&#45;&gt;node23 -->
<g id="edge32" class="edge"><title>node20&#45;&gt;node23</title>
<path fill="none" stroke="black" d="M899.706,-235.593C929.057,-235.593 967.739,-235.593 1001.99,-235.593 1001.99,-235.593 1001.99,-235.593 1305.77,-235.593 1329.83,-235.593 1356.49,-235.593 1379.01,-235.593"/>
<polygon fill="black" stroke="black" points="1379.05,-239.093 1389.05,-235.593 1379.05,-232.093 1379.05,-239.093"/>
</g>
<!-- node25 -->
<g id="node26" class="node"><title>node25</title>
<ellipse fill="none" stroke="black" cx="1432.11" cy="-521.593" rx="42.7926" ry="18"/>
<text text-anchor="middle" x="1432.11" y="-517.893" font-family="Times New Roman,serif" font-size="14.00">Output 3</text>
</g>
<!-- node21&#45;&gt;node25 -->
<g id="edge34" class="edge"><title>node21&#45;&gt;node25</title>
<path fill="none" stroke="black" d="M1352.44,-521.593C1361.05,-521.593 1370.09,-521.593 1378.84,-521.593"/>
<polygon fill="black" stroke="black" points="1378.95,-525.093 1388.95,-521.593 1378.95,-518.093 1378.95,-525.093"/>
</g>
</g>
</svg>
