<?xml version="1.0" encoding="UTF-8" standalone="no"?>
<!DOCTYPE svg PUBLIC "-//W3C//DTD SVG 1.1//EN"
 "http://www.w3.org/Graphics/SVG/1.1/DTD/svg11.dtd">
<!-- Generated by graphviz version 2.38.0 (20140413.2041)
 -->
<!-- Title: NeuralNetwork Pages: 1 -->
<svg width="288pt" height="109pt"
 viewBox="0.00 0.00 288.00 109.04" xmlns="http://www.w3.org/2000/svg" xmlns:xlink="http://www.w3.org/1999/xlink">
<g id="graph0" class="graph" transform="scale(0.202657 0.202657) rotate(0) translate(4 534.046)">
<title>NeuralNetwork</title>
<polygon fill="white" stroke="none" points="-4,4 -4,-534.046 1417.12,-534.046 1417.12,4 -4,4"/>
<!-- node0 -->
<g id="node1" class="node"><title>node0</title>
<ellipse fill="none" stroke="black" cx="42.2463" cy="-171.046" rx="42.4939" ry="18"/>
<text text-anchor="middle" x="42.2463" y="-167.346" font-family="Times New Roman,serif" font-size="14.00">(0) Input</text>
</g>
<!-- node7 -->
<g id="node8" class="node"><title>node7</title>
<ellipse fill="none" stroke="black" cx="187.938" cy="-101.046" rx="42.7926" ry="18"/>
<text text-anchor="middle" x="187.938" y="-97.346" font-family="Times New Roman,serif" font-size="14.00">(7) XOR</text>
</g>
<!-- node0&#45;&gt;node7 -->
<g id="edge1" class="edge"><title>node0&#45;&gt;node7</title>
<path fill="none" stroke="black" d="M70.9515,-157.549C93.5137,-146.558 125.558,-130.948 150.25,-118.919"/>
<polygon fill="black" stroke="black" points="151.861,-122.027 159.318,-114.501 148.795,-115.734 151.861,-122.027"/>
<text text-anchor="middle" x="112.493" y="-143.846" font-family="Times New Roman,serif" font-size="14.00"> (0)</text>
</g>
<!-- node9 -->
<g id="node10" class="node"><title>node9</title>
<ellipse fill="none" stroke="black" cx="187.938" cy="-168.046" rx="42.4939" ry="18"/>
<text text-anchor="middle" x="187.938" y="-164.346" font-family="Times New Roman,serif" font-size="14.00">(9) AND</text>
</g>
<!-- node0&#45;&gt;node9 -->
<g id="edge5" class="edge"><title>node0&#45;&gt;node9</title>
<path fill="none" stroke="black" d="M84.8079,-170.178C100.595,-169.849 118.77,-169.469 135.372,-169.123"/>
<polygon fill="black" stroke="black" points="135.545,-172.62 145.47,-168.912 135.399,-165.621 135.545,-172.62"/>
<text text-anchor="middle" x="112.493" y="-172.846" font-family="Times New Roman,serif" font-size="14.00"> (0)</text>
</g>
<!-- node1 -->
<g id="node2" class="node"><title>node1</title>
<ellipse fill="none" stroke="black" cx="42.2463" cy="-232.046" rx="42.4939" ry="18"/>
<text text-anchor="middle" x="42.2463" y="-228.346" font-family="Times New Roman,serif" font-size="14.00">(1) Input</text>
</g>
<!-- node11 -->
<g id="node12" class="node"><title>node11</title>
<ellipse fill="none" stroke="black" cx="187.938" cy="-314.046" rx="47.3916" ry="18"/>
<text text-anchor="middle" x="187.938" y="-310.346" font-family="Times New Roman,serif" font-size="14.00">(11) XOR</text>
</g>
<!-- node1&#45;&gt;node11 -->
<g id="edge10" class="edge"><title>node1&#45;&gt;node11</title>
<path fill="none" stroke="black" d="M68.2755,-246.329C91.436,-259.546 126.093,-279.324 151.982,-294.097"/>
<polygon fill="black" stroke="black" points="150.32,-297.179 160.74,-299.095 153.789,-291.099 150.32,-297.179"/>
<text text-anchor="middle" x="112.493" y="-278.846" font-family="Times New Roman,serif" font-size="14.00"> (1)</text>
</g>
<!-- node21 -->
<g id="node22" class="node"><title>node21</title>
<ellipse fill="none" stroke="black" cx="640.613" cy="-191.046" rx="47.3916" ry="18"/>
<text text-anchor="middle" x="640.613" y="-187.346" font-family="Times New Roman,serif" font-size="14.00">(21) XOR</text>
</g>
<!-- node1&#45;&gt;node21 -->
<g id="edge30" class="edge"><title>node1&#45;&gt;node21</title>
<path fill="none" stroke="black" d="M84.7984,-231.031C201.603,-228.088 527.462,-219.244 575.167,-211.046 581.994,-209.873 589.104,-208.175 596.004,-206.257"/>
<polygon fill="black" stroke="black" points="597.31,-209.521 605.904,-203.325 595.322,-202.809 597.31,-209.521"/>
<text text-anchor="middle" x="338.83" y="-228.846" font-family="Times New Roman,serif" font-size="14.00"> (1)</text>
</g>
<!-- node2 -->
<g id="node3" class="node"><title>node2</title>
<ellipse fill="none" stroke="black" cx="42.2463" cy="-416.046" rx="42.4939" ry="18"/>
<text text-anchor="middle" x="42.2463" y="-412.346" font-family="Times New Roman,serif" font-size="14.00">(2) Input</text>
</g>
<!-- node10 -->
<g id="node11" class="node"><title>node10</title>
<ellipse fill="none" stroke="black" cx="187.938" cy="-419.046" rx="47.3916" ry="18"/>
<text text-anchor="middle" x="187.938" y="-415.346" font-family="Times New Roman,serif" font-size="14.00">(10) XOR</text>
</g>
<!-- node2&#45;&gt;node10 -->
<g id="edge7" class="edge"><title>node2&#45;&gt;node10</title>
<path fill="none" stroke="black" d="M78.0946,-406.394C86.0511,-404.588 94.514,-402.976 102.493,-402.046 115.503,-400.53 129.495,-402.041 142.275,-404.685"/>
<polygon fill="black" stroke="black" points="141.688,-408.143 152.222,-407.013 143.283,-401.327 141.688,-408.143"/>
<text text-anchor="middle" x="112.493" y="-405.846" font-family="Times New Roman,serif" font-size="14.00"> (0)</text>
</g>
<!-- node18 -->
<g id="node19" class="node"><title>node18</title>
<ellipse fill="none" stroke="black" cx="942.396" cy="-460.046" rx="47.3916" ry="18"/>
<text text-anchor="middle" x="942.396" y="-456.346" font-family="Times New Roman,serif" font-size="14.00">(18) XOR</text>
</g>
<!-- node2&#45;&gt;node18 -->
<g id="edge24" class="edge"><title>node2&#45;&gt;node18</title>
<path fill="none" stroke="black" d="M62.651,-431.822C73.698,-440.004 88.1594,-449.433 102.493,-455.046 137.917,-468.918 148.895,-469.046 186.938,-469.046 186.938,-469.046 186.938,-469.046 792.505,-469.046 823.526,-469.046 858.116,-467.075 886.143,-464.978"/>
<polygon fill="black" stroke="black" points="886.453,-468.465 896.153,-464.204 885.913,-461.486 886.453,-468.465"/>
<text text-anchor="middle" x="489.721" y="-472.846" font-family="Times New Roman,serif" font-size="14.00"> (1)</text>
</g>
<!-- node3 -->
<g id="node4" class="node"><title>node3</title>
<ellipse fill="none" stroke="black" cx="42.2463" cy="-22.046" rx="42.4939" ry="18"/>
<text text-anchor="middle" x="42.2463" y="-18.346" font-family="Times New Roman,serif" font-size="14.00">(3) Input</text>
</g>
<!-- node8 -->
<g id="node9" class="node"><title>node8</title>
<ellipse fill="none" stroke="black" cx="338.83" cy="-111.046" rx="42.4939" ry="18"/>
<text text-anchor="middle" x="338.83" y="-107.346" font-family="Times New Roman,serif" font-size="14.00">(8) AND</text>
</g>
<!-- node3&#45;&gt;node8 -->
<g id="edge4" class="edge"><title>node3&#45;&gt;node8</title>
<path fill="none" stroke="black" d="M84.2808,-24.8944C141.137,-29.3243 240.585,-38.9575 273.384,-54.046 289.859,-61.6249 305.202,-74.8349 316.781,-86.6306"/>
<polygon fill="black" stroke="black" points="314.417,-89.225 323.821,-94.1044 319.512,-84.4253 314.417,-89.225"/>
<text text-anchor="middle" x="187.938" y="-45.846" font-family="Times New Roman,serif" font-size="14.00"> (1)</text>
</g>
<!-- node17 -->
<g id="node18" class="node"><title>node17</title>
<ellipse fill="none" stroke="black" cx="338.83" cy="-23.046" rx="47.3916" ry="18"/>
<text text-anchor="middle" x="338.83" y="-19.346" font-family="Times New Roman,serif" font-size="14.00">(17) XOR</text>
</g>
<!-- node3&#45;&gt;node17 -->
<g id="edge21" class="edge"><title>node3&#45;&gt;node17</title>
<path fill="none" stroke="black" d="M79.483,-13.2399C97.6714,-9.26204 120.117,-5.01788 140.493,-3.04603 182.47,1.01639 193.406,1.01325 235.384,-3.04603 252.711,-4.72156 271.46,-7.95579 288.123,-11.343"/>
<polygon fill="black" stroke="black" points="287.692,-14.8287 298.198,-13.4592 289.131,-7.97819 287.692,-14.8287"/>
<text text-anchor="middle" x="187.938" y="-6.84603" font-family="Times New Roman,serif" font-size="14.00"> (0)</text>
</g>
<!-- node4 -->
<g id="node5" class="node"><title>node4</title>
<ellipse fill="none" stroke="black" cx="42.2463" cy="-334.046" rx="42.4939" ry="18"/>
<text text-anchor="middle" x="42.2463" y="-330.346" font-family="Times New Roman,serif" font-size="14.00">(4) Input</text>
</g>
<!-- node4&#45;&gt;node11 -->
<g id="edge9" class="edge"><title>node4&#45;&gt;node11</title>
<path fill="none" stroke="black" d="M82.5107,-328.581C98.0625,-326.416 116.198,-323.892 132.951,-321.56"/>
<polygon fill="black" stroke="black" points="133.745,-324.984 143.167,-320.138 132.78,-318.05 133.745,-324.984"/>
<text text-anchor="middle" x="112.493" y="-328.846" font-family="Times New Roman,serif" font-size="14.00"> (0)</text>
</g>
<!-- node12 -->
<g id="node13" class="node"><title>node12</title>
<ellipse fill="none" stroke="black" cx="338.83" cy="-168.046" rx="47.3916" ry="18"/>
<text text-anchor="middle" x="338.83" y="-164.346" font-family="Times New Roman,serif" font-size="14.00">(12) XOR</text>
</g>
<!-- node4&#45;&gt;node12 -->
<g id="edge12" class="edge"><title>node4&#45;&gt;node12</title>
<path fill="none" stroke="black" d="M57.8388,-317.268C69.1336,-305.004 85.6458,-288.569 102.493,-277.046 163.988,-234.983 244.307,-201.757 293.424,-183.518"/>
<polygon fill="black" stroke="black" points="294.634,-186.802 302.817,-180.072 292.223,-180.231 294.634,-186.802"/>
<text text-anchor="middle" x="187.938" y="-255.846" font-family="Times New Roman,serif" font-size="14.00"> (1)</text>
</g>
<!-- node13 -->
<g id="node14" class="node"><title>node13</title>
<ellipse fill="none" stroke="black" cx="338.83" cy="-389.046" rx="47.3916" ry="18"/>
<text text-anchor="middle" x="338.83" y="-385.346" font-family="Times New Roman,serif" font-size="14.00">(13) XOR</text>
</g>
<!-- node4&#45;&gt;node13 -->
<g id="edge14" class="edge"><title>node4&#45;&gt;node13</title>
<path fill="none" stroke="black" d="M81.1548,-341.124C133.196,-350.84 226.971,-368.348 285.621,-379.298"/>
<polygon fill="black" stroke="black" points="285.316,-382.802 295.788,-381.197 286.601,-375.921 285.316,-382.802"/>
<text text-anchor="middle" x="187.938" y="-372.846" font-family="Times New Roman,serif" font-size="14.00"> (1)</text>
</g>
<!-- node5 -->
<g id="node6" class="node"><title>node5</title>
<ellipse fill="none" stroke="black" cx="42.2463" cy="-500.046" rx="42.4939" ry="18"/>
<text text-anchor="middle" x="42.2463" y="-496.346" font-family="Times New Roman,serif" font-size="14.00">(5) Input</text>
</g>
<!-- node5&#45;&gt;node10 -->
<g id="edge8" class="edge"><title>node5&#45;&gt;node10</title>
<path fill="none" stroke="black" d="M68.6047,-485.751C91.6675,-472.751 125.93,-453.437 151.661,-438.932"/>
<polygon fill="black" stroke="black" points="153.381,-441.98 160.374,-434.021 149.944,-435.882 153.381,-441.98"/>
<text text-anchor="middle" x="112.493" y="-467.846" font-family="Times New Roman,serif" font-size="14.00"> (1)</text>
</g>
<!-- node20 -->
<g id="node21" class="node"><title>node20</title>
<ellipse fill="none" stroke="black" cx="1242.88" cy="-499.046" rx="47.3916" ry="18"/>
<text text-anchor="middle" x="1242.88" y="-495.346" font-family="Times New Roman,serif" font-size="14.00">(20) XOR</text>
</g>
<!-- node5&#45;&gt;node20 -->
<g id="edge27" class="edge"><title>node5&#45;&gt;node20</title>
<path fill="none" stroke="black" d="M82.1634,-506.32C111.006,-510.431 151.322,-515.046 186.938,-515.046 186.938,-515.046 186.938,-515.046 1093.64,-515.046 1125.45,-515.046 1160.89,-511.358 1189.13,-507.523"/>
<polygon fill="black" stroke="black" points="1189.78,-510.967 1199.2,-506.11 1188.81,-504.035 1189.78,-510.967"/>
<text text-anchor="middle" x="640.613" y="-518.846" font-family="Times New Roman,serif" font-size="14.00"> (0)</text>
</g>
<!-- node6 -->
<g id="node7" class="node"><title>node6</title>
<ellipse fill="none" stroke="black" cx="42.2463" cy="-91.046" rx="42.4939" ry="18"/>
<text text-anchor="middle" x="42.2463" y="-87.346" font-family="Times New Roman,serif" font-size="14.00">(6) Input</text>
</g>
<!-- node6&#45;&gt;node7 -->
<g id="edge2" class="edge"><title>node6&#45;&gt;node7</title>
<path fill="none" stroke="black" d="M73.3125,-78.6994C88.1056,-74.1301 106.214,-70.7739 122.493,-74.046 132.114,-75.98 142.09,-79.388 151.236,-83.1452"/>
<polygon fill="black" stroke="black" points="149.85,-86.3593 160.416,-87.1398 152.643,-79.9406 149.85,-86.3593"/>
<text text-anchor="middle" x="112.493" y="-77.846" font-family="Times New Roman,serif" font-size="14.00"> (1)</text>
</g>
<!-- node6&#45;&gt;node9 -->
<g id="edge6" class="edge"><title>node6&#45;&gt;node9</title>
<path fill="none" stroke="black" d="M80.7787,-98.5366C94.3998,-102.122 109.599,-107.17 122.493,-114.046 124.72,-115.234 143.365,-130.912 160.03,-145.069"/>
<polygon fill="black" stroke="black" points="158.087,-148.012 167.971,-151.827 162.624,-142.681 158.087,-148.012"/>
<text text-anchor="middle" x="112.493" y="-117.846" font-family="Times New Roman,serif" font-size="14.00"> (1)</text>
</g>
<!-- node7&#45;&gt;node8 -->
<g id="edge3" class="edge"><title>node7&#45;&gt;node8</title>
<path fill="none" stroke="black" d="M230.413,-103.832C247.829,-105.001 268.262,-106.374 286.605,-107.606"/>
<polygon fill="black" stroke="black" points="286.623,-111.115 296.835,-108.293 287.092,-104.13 286.623,-111.115"/>
<text text-anchor="middle" x="263.384" y="-109.846" font-family="Times New Roman,serif" font-size="14.00"> (0)</text>
</g>
<!-- node7&#45;&gt;node17 -->
<g id="edge22" class="edge"><title>node7&#45;&gt;node17</title>
<path fill="none" stroke="black" d="M215.557,-87.1012C239.426,-74.5971 274.669,-56.134 301.195,-42.2382"/>
<polygon fill="black" stroke="black" points="302.946,-45.2718 310.18,-37.5309 299.698,-39.0711 302.946,-45.2718"/>
<text text-anchor="middle" x="263.384" y="-69.846" font-family="Times New Roman,serif" font-size="14.00"> (1)</text>
</g>
<!-- node14 -->
<g id="node15" class="node"><title>node14</title>
<ellipse fill="none" stroke="black" cx="489.721" cy="-163.046" rx="47.3916" ry="18"/>
<text text-anchor="middle" x="489.721" y="-159.346" font-family="Times New Roman,serif" font-size="14.00">(14) XOR</text>
</g>
<!-- node8&#45;&gt;node14 -->
<g id="edge15" class="edge"><title>node8&#45;&gt;node14</title>
<path fill="none" stroke="black" d="M372.137,-122.329C393.316,-129.726 421.279,-139.492 444.51,-147.605"/>
<polygon fill="black" stroke="black" points="443.548,-150.977 454.143,-150.97 445.856,-144.368 443.548,-150.977"/>
<text text-anchor="middle" x="414.276" y="-143.846" font-family="Times New Roman,serif" font-size="14.00"> (0)</text>
</g>
<!-- node9&#45;&gt;node12 -->
<g id="edge11" class="edge"><title>node9&#45;&gt;node12</title>
<path fill="none" stroke="black" d="M230.413,-168.046C246.089,-168.046 264.211,-168.046 281.051,-168.046"/>
<polygon fill="black" stroke="black" points="281.338,-171.546 291.338,-168.046 281.338,-164.546 281.338,-171.546"/>
<text text-anchor="middle" x="263.384" y="-171.846" font-family="Times New Roman,serif" font-size="14.00"> (0)</text>
</g>
<!-- node10&#45;&gt;node13 -->
<g id="edge13" class="edge"><title>node10&#45;&gt;node13</title>
<path fill="none" stroke="black" d="M230.413,-410.689C247.837,-407.179 268.282,-403.059 286.631,-399.362"/>
<polygon fill="black" stroke="black" points="287.466,-402.764 296.578,-397.358 286.083,-395.902 287.466,-402.764"/>
<text text-anchor="middle" x="263.384" y="-408.846" font-family="Times New Roman,serif" font-size="14.00"> (0)</text>
</g>
<!-- node19 -->
<g id="node20" class="node"><title>node19</title>
<ellipse fill="none" stroke="black" cx="1092.64" cy="-460.046" rx="46.5926" ry="18"/>
<text text-anchor="middle" x="1092.64" y="-456.346" font-family="Times New Roman,serif" font-size="14.00">(19) AND</text>
</g>
<!-- node10&#45;&gt;node19 -->
<g id="edge25" class="edge"><title>node10&#45;&gt;node19</title>
<path fill="none" stroke="black" d="M213.318,-403.594C238.186,-388.181 275.328,-366.212 291.384,-362.046 332.206,-351.454 344.225,-358.828 386.276,-362.046 533.274,-373.295 567.63,-406.046 715.059,-406.046 715.059,-406.046 715.059,-406.046 943.396,-406.046 984.672,-406.046 1028.72,-424.757 1057.97,-440.151"/>
<polygon fill="black" stroke="black" points="1056.47,-443.317 1066.93,-445.004 1059.81,-437.162 1056.47,-443.317"/>
<text text-anchor="middle" x="640.613" y="-408.846" font-family="Times New Roman,serif" font-size="14.00"> (0)</text>
</g>
<!-- node15 -->
<g id="node16" class="node"><title>node15</title>
<ellipse fill="none" stroke="black" cx="640.613" cy="-305.046" rx="46.5926" ry="18"/>
<text text-anchor="middle" x="640.613" y="-301.346" font-family="Times New Roman,serif" font-size="14.00">(15) AND</text>
</g>
<!-- node11&#45;&gt;node15 -->
<g id="edge18" class="edge"><title>node11&#45;&gt;node15</title>
<path fill="none" stroke="black" d="M235.471,-313.117C318.951,-311.45 493.808,-307.958 583.669,-306.163"/>
<polygon fill="black" stroke="black" points="583.742,-309.663 593.67,-305.964 583.602,-302.664 583.742,-309.663"/>
<text text-anchor="middle" x="414.276" y="-312.846" font-family="Times New Roman,serif" font-size="14.00"> (1)</text>
</g>
<!-- node12&#45;&gt;node14 -->
<g id="edge16" class="edge"><title>node12&#45;&gt;node14</title>
<path fill="none" stroke="black" d="M386.124,-166.491C400.62,-166.005 416.787,-165.462 431.921,-164.953"/>
<polygon fill="black" stroke="black" points="432.323,-168.442 442.2,-164.608 432.088,-161.446 432.323,-168.442"/>
<text text-anchor="middle" x="414.276" y="-168.846" font-family="Times New Roman,serif" font-size="14.00"> (1)</text>
</g>
<!-- node16 -->
<g id="node17" class="node"><title>node16</title>
<ellipse fill="none" stroke="black" cx="791.505" cy="-360.046" rx="47.3916" ry="18"/>
<text text-anchor="middle" x="791.505" y="-356.346" font-family="Times New Roman,serif" font-size="14.00">(16) XOR</text>
</g>
<!-- node13&#45;&gt;node16 -->
<g id="edge19" class="edge"><title>node13&#45;&gt;node16</title>
<path fill="none" stroke="black" d="M385.942,-386.079C469.216,-380.72 644.386,-369.448 734.436,-363.654"/>
<polygon fill="black" stroke="black" points="734.703,-367.144 744.458,-363.009 734.253,-360.159 734.703,-367.144"/>
<text text-anchor="middle" x="565.167" y="-377.846" font-family="Times New Roman,serif" font-size="14.00"> (0)</text>
</g>
<!-- node14&#45;&gt;node15 -->
<g id="edge17" class="edge"><title>node14&#45;&gt;node15</title>
<path fill="none" stroke="black" d="M508.386,-179.893C534.691,-204.98 584.282,-252.276 614.396,-280.996"/>
<polygon fill="black" stroke="black" points="612.319,-283.852 621.972,-288.221 617.151,-278.787 612.319,-283.852"/>
<text text-anchor="middle" x="565.167" y="-245.846" font-family="Times New Roman,serif" font-size="14.00"> (0)</text>
</g>
<!-- node14&#45;&gt;node21 -->
<g id="edge29" class="edge"><title>node14&#45;&gt;node21</title>
<path fill="none" stroke="black" d="M533.249,-155.685C546.796,-154.624 561.747,-154.81 575.167,-158.046 586.002,-160.659 597.062,-165.42 606.892,-170.528"/>
<polygon fill="black" stroke="black" points="605.442,-173.725 615.892,-175.474 608.813,-167.59 605.442,-173.725"/>
<text text-anchor="middle" x="565.167" y="-161.846" font-family="Times New Roman,serif" font-size="14.00"> (0)</text>
</g>
<!-- node15&#45;&gt;node16 -->
<g id="edge20" class="edge"><title>node15&#45;&gt;node16</title>
<path fill="none" stroke="black" d="M678.945,-315.453C693.752,-319.862 710.845,-325.306 726.059,-331.046 734.566,-334.256 743.549,-338.037 752.018,-341.791"/>
<polygon fill="black" stroke="black" points="750.756,-345.061 761.31,-345.985 753.636,-338.681 750.756,-345.061"/>
<text text-anchor="middle" x="716.059" y="-334.846" font-family="Times New Roman,serif" font-size="14.00"> (1)</text>
</g>
<!-- node16&#45;&gt;node18 -->
<g id="edge23" class="edge"><title>node16&#45;&gt;node18</title>
<path fill="none" stroke="black" d="M815.769,-375.671C841.118,-392.696 881.813,-420.028 909.985,-438.949"/>
<polygon fill="black" stroke="black" points="908.042,-441.861 918.295,-444.531 911.945,-436.05 908.042,-441.861"/>
<text text-anchor="middle" x="866.95" y="-418.846" font-family="Times New Roman,serif" font-size="14.00"> (0)</text>
</g>
<!-- node24 -->
<g id="node25" class="node"><title>node24</title>
<ellipse fill="none" stroke="black" cx="1370.22" cy="-360.046" rx="42.7926" ry="18"/>
<text text-anchor="middle" x="1370.22" y="-356.346" font-family="Times New Roman,serif" font-size="14.00">Output 2</text>
</g>
<!-- node16&#45;&gt;node24 -->
<g id="edge33" class="edge"><title>node16&#45;&gt;node24</title>
<path fill="none" stroke="black" d="M839.113,-360.046C868.464,-360.046 907.146,-360.046 941.396,-360.046 941.396,-360.046 941.396,-360.046 1243.88,-360.046 1267.94,-360.046 1294.6,-360.046 1317.12,-360.046"/>
<polygon fill="black" stroke="black" points="1317.15,-363.546 1327.15,-360.046 1317.15,-356.546 1317.15,-363.546"/>
</g>
<!-- node22 -->
<g id="node23" class="node"><title>node22</title>
<ellipse fill="none" stroke="black" cx="1370.22" cy="-23.046" rx="42.7926" ry="18"/>
<text text-anchor="middle" x="1370.22" y="-19.346" font-family="Times New Roman,serif" font-size="14.00">Output 0</text>
</g>
<!-- node17&#45;&gt;node22 -->
<g id="edge31" class="edge"><title>node17&#45;&gt;node22</title>
<path fill="none" stroke="black" d="M386.438,-23.046C415.789,-23.046 454.471,-23.046 488.721,-23.046 488.721,-23.046 488.721,-23.046 1243.88,-23.046 1267.94,-23.046 1294.6,-23.046 1317.12,-23.046"/>
<polygon fill="black" stroke="black" points="1317.15,-26.5461 1327.15,-23.046 1317.15,-19.5461 1317.15,-26.5461"/>
</g>
<!-- node18&#45;&gt;node19 -->
<g id="edge26" class="edge"><title>node18&#45;&gt;node19</title>
<path fill="none" stroke="black" d="M989.894,-460.046C1004.38,-460.046 1020.51,-460.046 1035.58,-460.046"/>
<polygon fill="black" stroke="black" points="1035.81,-463.546 1045.81,-460.046 1035.81,-456.546 1035.81,-463.546"/>
<text text-anchor="middle" x="1017.84" y="-463.846" font-family="Times New Roman,serif" font-size="14.00"> (1)</text>
</g>
<!-- node19&#45;&gt;node20 -->
<g id="edge28" class="edge"><title>node19&#45;&gt;node20</title>
<path fill="none" stroke="black" d="M1131.81,-470.09C1150.6,-475.032 1173.45,-481.044 1193.46,-486.307"/>
<polygon fill="black" stroke="black" points="1192.76,-489.742 1203.32,-488.901 1194.54,-482.972 1192.76,-489.742"/>
<text text-anchor="middle" x="1167.43" y="-484.846" font-family="Times New Roman,serif" font-size="14.00"> (1)</text>
</g>
<!-- node25 -->
<g id="node26" class="node"><title>node25</title>
<ellipse fill="none" stroke="black" cx="1370.22" cy="-499.046" rx="42.7926" ry="18"/>
<text text-anchor="middle" x="1370.22" y="-495.346" font-family="Times New Roman,serif" font-size="14.00">Output 3</text>
</g>
<!-- node20&#45;&gt;node25 -->
<g id="edge34" class="edge"><title>node20&#45;&gt;node25</title>
<path fill="none" stroke="black" d="M1290.55,-499.046C1299.16,-499.046 1308.19,-499.046 1316.95,-499.046"/>
<polygon fill="black" stroke="black" points="1317.06,-502.546 1327.06,-499.046 1317.06,-495.546 1317.06,-502.546"/>
</g>
<!-- node23 -->
<g id="node24" class="node"><title>node23</title>
<ellipse fill="none" stroke="black" cx="1370.22" cy="-191.046" rx="42.7926" ry="18"/>
<text text-anchor="middle" x="1370.22" y="-187.346" font-family="Times New Roman,serif" font-size="14.00">Output 1</text>
</g>
<!-- node21&#45;&gt;node23 -->
<g id="edge32" class="edge"><title>node21&#45;&gt;node23</title>
<path fill="none" stroke="black" d="M688.221,-191.046C717.572,-191.046 756.254,-191.046 790.505,-191.046 790.505,-191.046 790.505,-191.046 1243.88,-191.046 1267.94,-191.046 1294.6,-191.046 1317.12,-191.046"/>
<polygon fill="black" stroke="black" points="1317.15,-194.546 1327.15,-191.046 1317.15,-187.546 1317.15,-194.546"/>
</g>
</g>
</svg>
