<?xml version="1.0" encoding="UTF-8" standalone="no"?>
<!DOCTYPE svg PUBLIC "-//W3C//DTD SVG 1.1//EN"
 "http://www.w3.org/Graphics/SVG/1.1/DTD/svg11.dtd">
<!-- Generated by graphviz version 2.38.0 (20140413.2041)
 -->
<!-- Title: NeuralNetwork Pages: 1 -->
<svg width="288pt" height="107pt"
 viewBox="0.00 0.00 288.00 106.97" xmlns="http://www.w3.org/2000/svg" xmlns:xlink="http://www.w3.org/1999/xlink">
<g id="graph0" class="graph" transform="scale(0.138025 0.138025) rotate(0) translate(4 771)">
<title>NeuralNetwork</title>
<polygon fill="white" stroke="none" points="-4,4 -4,-771 2082.58,-771 2082.58,4 -4,4"/>
<!-- node0 -->
<g id="node1" class="node"><title>node0</title>
<ellipse fill="none" stroke="black" cx="42.2463" cy="-89" rx="42.4939" ry="18"/>
<text text-anchor="middle" x="42.2463" y="-85.3" font-family="Times New Roman,serif" font-size="14.00">(0) Input</text>
</g>
<!-- node10 -->
<g id="node11" class="node"><title>node10</title>
<ellipse fill="none" stroke="black" cx="187.938" cy="-163" rx="40.8928" ry="18"/>
<text text-anchor="middle" x="187.938" y="-159.3" font-family="Times New Roman,serif" font-size="14.00">(10) OR</text>
</g>
<!-- node0&#45;&gt;node10 -->
<g id="edge3" class="edge"><title>node0&#45;&gt;node10</title>
<path fill="none" stroke="black" d="M69.9369,-102.745C92.8225,-114.531 125.988,-131.611 151.169,-144.579"/>
<polygon fill="black" stroke="black" points="149.898,-147.861 160.391,-149.328 153.103,-141.638 149.898,-147.861"/>
<text text-anchor="middle" x="112.493" y="-131.8" font-family="Times New Roman,serif" font-size="14.00"> (0)</text>
</g>
<!-- node12 -->
<g id="node13" class="node"><title>node12</title>
<ellipse fill="none" stroke="black" cx="187.938" cy="-79" rx="47.3916" ry="18"/>
<text text-anchor="middle" x="187.938" y="-75.3" font-family="Times New Roman,serif" font-size="14.00">(12) XOR</text>
</g>
<!-- node0&#45;&gt;node12 -->
<g id="edge7" class="edge"><title>node0&#45;&gt;node12</title>
<path fill="none" stroke="black" d="M62.4634,-73.1306C73.4537,-65.0958 87.9206,-56.1764 102.493,-52 119.524,-47.1186 138.313,-52.0859 153.835,-59.032"/>
<polygon fill="black" stroke="black" points="152.513,-62.2818 163.033,-63.5422 155.595,-55.9968 152.513,-62.2818"/>
<text text-anchor="middle" x="112.493" y="-55.8" font-family="Times New Roman,serif" font-size="14.00"> (0)</text>
</g>
<!-- node1 -->
<g id="node2" class="node"><title>node1</title>
<ellipse fill="none" stroke="black" cx="42.2463" cy="-214" rx="42.4939" ry="18"/>
<text text-anchor="middle" x="42.2463" y="-210.3" font-family="Times New Roman,serif" font-size="14.00">(1) Input</text>
</g>
<!-- node13 -->
<g id="node14" class="node"><title>node13</title>
<ellipse fill="none" stroke="black" cx="187.938" cy="-217" rx="47.3916" ry="18"/>
<text text-anchor="middle" x="187.938" y="-213.3" font-family="Times New Roman,serif" font-size="14.00">(13) XOR</text>
</g>
<!-- node1&#45;&gt;node13 -->
<g id="edge10" class="edge"><title>node1&#45;&gt;node13</title>
<path fill="none" stroke="black" d="M81.0539,-206.651C88.1507,-205.547 95.5279,-204.584 102.493,-204 114.039,-203.032 126.403,-203.866 138.008,-205.491"/>
<polygon fill="black" stroke="black" points="137.543,-208.961 147.973,-207.098 138.658,-202.05 137.543,-208.961"/>
<text text-anchor="middle" x="112.493" y="-207.8" font-family="Times New Roman,serif" font-size="14.00"> (1)</text>
</g>
<!-- node15 -->
<g id="node16" class="node"><title>node15</title>
<ellipse fill="none" stroke="black" cx="338.83" cy="-254" rx="40.8928" ry="18"/>
<text text-anchor="middle" x="338.83" y="-250.3" font-family="Times New Roman,serif" font-size="14.00">(15) OR</text>
</g>
<!-- node1&#45;&gt;node15 -->
<g id="edge13" class="edge"><title>node1&#45;&gt;node15</title>
<path fill="none" stroke="black" d="M59.7515,-230.406C70.8208,-240.206 86.2942,-251.741 102.493,-257 165.443,-277.437 242.949,-270.811 291.389,-263.187"/>
<polygon fill="black" stroke="black" points="291.973,-266.638 301.268,-261.554 290.831,-259.731 291.973,-266.638"/>
<text text-anchor="middle" x="187.938" y="-273.8" font-family="Times New Roman,serif" font-size="14.00"> (0)</text>
</g>
<!-- node2 -->
<g id="node3" class="node"><title>node2</title>
<ellipse fill="none" stroke="black" cx="42.2463" cy="-512" rx="42.4939" ry="18"/>
<text text-anchor="middle" x="42.2463" y="-508.3" font-family="Times New Roman,serif" font-size="14.00">(2) Input</text>
</g>
<!-- node16 -->
<g id="node17" class="node"><title>node16</title>
<ellipse fill="none" stroke="black" cx="187.938" cy="-489" rx="47.3916" ry="18"/>
<text text-anchor="middle" x="187.938" y="-485.3" font-family="Times New Roman,serif" font-size="14.00">(16) XOR</text>
</g>
<!-- node2&#45;&gt;node16 -->
<g id="edge15" class="edge"><title>node2&#45;&gt;node16</title>
<path fill="none" stroke="black" d="M82.1314,-505.776C98.1116,-503.218 116.869,-500.216 134.065,-497.463"/>
<polygon fill="black" stroke="black" points="134.655,-500.913 143.977,-495.877 133.549,-494.001 134.655,-500.913"/>
<text text-anchor="middle" x="112.493" y="-504.8" font-family="Times New Roman,serif" font-size="14.00"> (0)</text>
</g>
<!-- node22 -->
<g id="node23" class="node"><title>node22</title>
<ellipse fill="none" stroke="black" cx="1153.88" cy="-436" rx="47.3916" ry="18"/>
<text text-anchor="middle" x="1153.88" y="-432.3" font-family="Times New Roman,serif" font-size="14.00">(22) XOR</text>
</g>
<!-- node2&#45;&gt;node22 -->
<g id="edge28" class="edge"><title>node2&#45;&gt;node22</title>
<path fill="none" stroke="black" d="M56.1233,-494.918C66.9888,-481.809 83.7404,-464.412 102.493,-455 136.494,-437.934 148.895,-441 186.938,-441 186.938,-441 186.938,-441 1003.99,-441 1034.49,-441 1068.49,-439.939 1096.29,-438.794"/>
<polygon fill="black" stroke="black" points="1096.78,-442.277 1106.62,-438.354 1096.48,-435.283 1096.78,-442.277"/>
<text text-anchor="middle" x="638.759" y="-444.8" font-family="Times New Roman,serif" font-size="14.00"> (1)</text>
</g>
<!-- node25 -->
<g id="node26" class="node"><title>node25</title>
<ellipse fill="none" stroke="black" cx="1606.56" cy="-529" rx="47.3916" ry="18"/>
<text text-anchor="middle" x="1606.56" y="-525.3" font-family="Times New Roman,serif" font-size="14.00">(25) XOR</text>
</g>
<!-- node2&#45;&gt;node25 -->
<g id="edge33" class="edge"><title>node2&#45;&gt;node25</title>
<path fill="none" stroke="black" d="M76.2287,-522.916C105.093,-531.493 148.329,-542 186.938,-542 186.938,-542 186.938,-542 1456.66,-542 1488.21,-542 1523.37,-539.068 1551.6,-535.989"/>
<polygon fill="black" stroke="black" points="1552.12,-539.453 1561.67,-534.853 1551.34,-532.497 1552.12,-539.453"/>
<text text-anchor="middle" x="858.597" y="-545.8" font-family="Times New Roman,serif" font-size="14.00"> (0)</text>
</g>
<!-- node3 -->
<g id="node4" class="node"><title>node3</title>
<ellipse fill="none" stroke="black" cx="42.2463" cy="-619" rx="42.4939" ry="18"/>
<text text-anchor="middle" x="42.2463" y="-615.3" font-family="Times New Roman,serif" font-size="14.00">(3) Input</text>
</g>
<!-- node9 -->
<g id="node10" class="node"><title>node9</title>
<ellipse fill="none" stroke="black" cx="187.938" cy="-749" rx="42.4939" ry="18"/>
<text text-anchor="middle" x="187.938" y="-745.3" font-family="Times New Roman,serif" font-size="14.00">(9) AND</text>
</g>
<!-- node3&#45;&gt;node9 -->
<g id="edge1" class="edge"><title>node3&#45;&gt;node9</title>
<path fill="none" stroke="black" d="M65.4818,-634.369C82.6222,-647.03 106.091,-666.226 122.493,-687 133.332,-700.729 128.447,-709.316 140.493,-722 143.383,-725.043 146.692,-727.851 150.184,-730.412"/>
<polygon fill="black" stroke="black" points="148.277,-733.347 158.551,-735.934 152.133,-727.504 148.277,-733.347"/>
<text text-anchor="middle" x="112.493" y="-690.8" font-family="Times New Roman,serif" font-size="14.00"> (0)</text>
</g>
<!-- node11 -->
<g id="node12" class="node"><title>node11</title>
<ellipse fill="none" stroke="black" cx="187.938" cy="-695" rx="40.8928" ry="18"/>
<text text-anchor="middle" x="187.938" y="-691.3" font-family="Times New Roman,serif" font-size="14.00">(11) OR</text>
</g>
<!-- node3&#45;&gt;node11 -->
<g id="edge6" class="edge"><title>node3&#45;&gt;node11</title>
<path fill="none" stroke="black" d="M79.0243,-627.901C93.0227,-632.102 108.939,-637.798 122.493,-645 136.379,-652.379 150.345,-662.764 161.708,-672.16"/>
<polygon fill="black" stroke="black" points="159.597,-674.959 169.483,-678.769 164.13,-669.625 159.597,-674.959"/>
<text text-anchor="middle" x="112.493" y="-648.8" font-family="Times New Roman,serif" font-size="14.00"> (1)</text>
</g>
<!-- node28 -->
<g id="node29" class="node"><title>node28</title>
<ellipse fill="none" stroke="black" cx="1757.45" cy="-586" rx="47.3916" ry="18"/>
<text text-anchor="middle" x="1757.45" y="-582.3" font-family="Times New Roman,serif" font-size="14.00">(28) XOR</text>
</g>
<!-- node3&#45;&gt;node28 -->
<g id="edge39" class="edge"><title>node3&#45;&gt;node28</title>
<path fill="none" stroke="black" d="M74.7298,-607.458C103.528,-597.942 147.521,-586 186.938,-586 186.938,-586 186.938,-586 1607.56,-586 1637.93,-586 1671.78,-586 1699.52,-586"/>
<polygon fill="black" stroke="black" points="1699.84,-589.5 1709.84,-586 1699.84,-582.5 1699.84,-589.5"/>
<text text-anchor="middle" x="927.543" y="-589.8" font-family="Times New Roman,serif" font-size="14.00"> (0)</text>
</g>
<!-- node4 -->
<g id="node5" class="node"><title>node4</title>
<ellipse fill="none" stroke="black" cx="42.2463" cy="-154" rx="42.4939" ry="18"/>
<text text-anchor="middle" x="42.2463" y="-150.3" font-family="Times New Roman,serif" font-size="14.00">(4) Input</text>
</g>
<!-- node4&#45;&gt;node10 -->
<g id="edge4" class="edge"><title>node4&#45;&gt;node10</title>
<path fill="none" stroke="black" d="M84.4226,-156.579C100.768,-157.603 119.72,-158.79 136.85,-159.863"/>
<polygon fill="black" stroke="black" points="137.042,-163.382 147.241,-160.514 137.48,-156.395 137.042,-163.382"/>
<text text-anchor="middle" x="112.493" y="-161.8" font-family="Times New Roman,serif" font-size="14.00"> (1)</text>
</g>
<!-- node4&#45;&gt;node12 -->
<g id="edge8" class="edge"><title>node4&#45;&gt;node12</title>
<path fill="none" stroke="black" d="M60.8515,-137.826C76.5495,-123.525 97.7609,-104.543 102.493,-102 112.432,-96.658 123.712,-92.4799 134.718,-89.2398"/>
<polygon fill="black" stroke="black" points="135.972,-92.5257 144.701,-86.5215 134.133,-85.7716 135.972,-92.5257"/>
<text text-anchor="middle" x="112.493" y="-105.8" font-family="Times New Roman,serif" font-size="14.00"> (1)</text>
</g>
<!-- node5 -->
<g id="node6" class="node"><title>node5</title>
<ellipse fill="none" stroke="black" cx="42.2463" cy="-314" rx="42.4939" ry="18"/>
<text text-anchor="middle" x="42.2463" y="-310.3" font-family="Times New Roman,serif" font-size="14.00">(5) Input</text>
</g>
<!-- node5&#45;&gt;node13 -->
<g id="edge9" class="edge"><title>node5&#45;&gt;node13</title>
<path fill="none" stroke="black" d="M65.6981,-298.844C89.7719,-282.593 128.186,-256.661 155.313,-238.348"/>
<polygon fill="black" stroke="black" points="157.362,-241.189 163.692,-232.693 153.445,-235.387 157.362,-241.189"/>
<text text-anchor="middle" x="112.493" y="-274.8" font-family="Times New Roman,serif" font-size="14.00"> (0)</text>
</g>
<!-- node19 -->
<g id="node20" class="node"><title>node19</title>
<ellipse fill="none" stroke="black" cx="714.205" cy="-279" rx="47.3916" ry="18"/>
<text text-anchor="middle" x="714.205" y="-275.3" font-family="Times New Roman,serif" font-size="14.00">(19) XOR</text>
</g>
<!-- node5&#45;&gt;node19 -->
<g id="edge22" class="edge"><title>node5&#45;&gt;node19</title>
<path fill="none" stroke="black" d="M84.747,-314C113.446,-314 152.512,-314 186.938,-314 186.938,-314 186.938,-314 564.963,-314 601.037,-314 640.759,-304.062 669.998,-294.777"/>
<polygon fill="black" stroke="black" points="671.468,-297.978 679.88,-291.537 669.287,-291.326 671.468,-297.978"/>
<text text-anchor="middle" x="338.83" y="-317.8" font-family="Times New Roman,serif" font-size="14.00"> (1)</text>
</g>
<!-- node21 -->
<g id="node22" class="node"><title>node21</title>
<ellipse fill="none" stroke="black" cx="1002.99" cy="-357" rx="47.3916" ry="18"/>
<text text-anchor="middle" x="1002.99" y="-353.3" font-family="Times New Roman,serif" font-size="14.00">(21) XOR</text>
</g>
<!-- node5&#45;&gt;node21 -->
<g id="edge25" class="edge"><title>node5&#45;&gt;node21</title>
<path fill="none" stroke="black" d="M69.4545,-327.802C97.6629,-341.351 144.243,-360 186.938,-360 186.938,-360 186.938,-360 452.721,-360 632.549,-360 845.488,-358.372 945.179,-357.515"/>
<polygon fill="black" stroke="black" points="945.362,-361.013 955.331,-357.427 945.301,-354.014 945.362,-361.013"/>
<text text-anchor="middle" x="563.963" y="-362.8" font-family="Times New Roman,serif" font-size="14.00"> (0)</text>
</g>
<!-- node6 -->
<g id="node7" class="node"><title>node6</title>
<ellipse fill="none" stroke="black" cx="42.2463" cy="-430" rx="42.4939" ry="18"/>
<text text-anchor="middle" x="42.2463" y="-426.3" font-family="Times New Roman,serif" font-size="14.00">(6) Input</text>
</g>
<!-- node6&#45;&gt;node16 -->
<g id="edge16" class="edge"><title>node6&#45;&gt;node16</title>
<path fill="none" stroke="black" d="M73.3688,-442.368C94.3232,-450.972 122.524,-462.551 145.581,-472.019"/>
<polygon fill="black" stroke="black" points="144.532,-475.371 155.112,-475.932 147.191,-468.896 144.532,-475.371"/>
<text text-anchor="middle" x="112.493" y="-464.8" font-family="Times New Roman,serif" font-size="14.00"> (1)</text>
</g>
<!-- node29 -->
<g id="node30" class="node"><title>node29</title>
<ellipse fill="none" stroke="black" cx="1455.66" cy="-396" rx="47.3916" ry="18"/>
<text text-anchor="middle" x="1455.66" y="-392.3" font-family="Times New Roman,serif" font-size="14.00">(29) XOR</text>
</g>
<!-- node6&#45;&gt;node29 -->
<g id="edge41" class="edge"><title>node6&#45;&gt;node29</title>
<path fill="none" stroke="black" d="M77.4579,-419.869C106.36,-412.208 148.991,-403 186.938,-403 186.938,-403 186.938,-403 928.543,-403 990.909,-403 1006.12,-394.446 1068.43,-392 1185.55,-387.403 1322.78,-390.947 1398.07,-393.659"/>
<polygon fill="black" stroke="black" points="1398.15,-397.165 1408.27,-394.036 1398.41,-390.169 1398.15,-397.165"/>
<text text-anchor="middle" x="789.651" y="-406.8" font-family="Times New Roman,serif" font-size="14.00"> (0)</text>
</g>
<!-- node7 -->
<g id="node8" class="node"><title>node7</title>
<ellipse fill="none" stroke="black" cx="42.2463" cy="-720" rx="42.4939" ry="18"/>
<text text-anchor="middle" x="42.2463" y="-716.3" font-family="Times New Roman,serif" font-size="14.00">(7) Input</text>
</g>
<!-- node7&#45;&gt;node9 -->
<g id="edge2" class="edge"><title>node7&#45;&gt;node9</title>
<path fill="none" stroke="black" d="M80.6245,-727.544C98.5987,-731.171 120.345,-735.56 139.474,-739.421"/>
<polygon fill="black" stroke="black" points="139.003,-742.896 149.498,-741.444 140.388,-736.035 139.003,-742.896"/>
<text text-anchor="middle" x="112.493" y="-738.8" font-family="Times New Roman,serif" font-size="14.00"> (1)</text>
</g>
<!-- node7&#45;&gt;node11 -->
<g id="edge5" class="edge"><title>node7&#45;&gt;node11</title>
<path fill="none" stroke="black" d="M81.7531,-713.3C99.4289,-710.225 120.564,-706.548 139.237,-703.299"/>
<polygon fill="black" stroke="black" points="140.068,-706.707 149.32,-701.545 138.868,-699.811 140.068,-706.707"/>
<text text-anchor="middle" x="112.493" y="-711.8" font-family="Times New Roman,serif" font-size="14.00"> (0)</text>
</g>
<!-- node30 -->
<g id="node31" class="node"><title>node30</title>
<ellipse fill="none" stroke="black" cx="1908.34" cy="-621" rx="47.3916" ry="18"/>
<text text-anchor="middle" x="1908.34" y="-617.3" font-family="Times New Roman,serif" font-size="14.00">(30) XOR</text>
</g>
<!-- node7&#45;&gt;node30 -->
<g id="edge43" class="edge"><title>node7&#45;&gt;node30</title>
<path fill="none" stroke="black" d="M56.1233,-702.918C66.9888,-689.809 83.7404,-672.412 102.493,-663 136.494,-645.934 148.895,-649 186.938,-649 186.938,-649 186.938,-649 1758.45,-649 1793.03,-649 1831.37,-641.612 1860.48,-634.427"/>
<polygon fill="black" stroke="black" points="1861.55,-637.767 1870.38,-631.906 1859.82,-630.984 1861.55,-637.767"/>
<text text-anchor="middle" x="1002.99" y="-652.8" font-family="Times New Roman,serif" font-size="14.00"> (0)</text>
</g>
<!-- node8 -->
<g id="node9" class="node"><title>node8</title>
<ellipse fill="none" stroke="black" cx="42.2463" cy="-18" rx="42.4939" ry="18"/>
<text text-anchor="middle" x="42.2463" y="-14.3" font-family="Times New Roman,serif" font-size="14.00">(8) Input</text>
</g>
<!-- node17 -->
<g id="node18" class="node"><title>node17</title>
<ellipse fill="none" stroke="black" cx="338.83" cy="-47" rx="47.3916" ry="18"/>
<text text-anchor="middle" x="338.83" y="-43.3" font-family="Times New Roman,serif" font-size="14.00">(17) XOR</text>
</g>
<!-- node8&#45;&gt;node17 -->
<g id="edge17" class="edge"><title>node8&#45;&gt;node17</title>
<path fill="none" stroke="black" d="M83.5892,-21.9715C135.171,-27.0495 224.72,-35.865 282.603,-41.5633"/>
<polygon fill="black" stroke="black" points="282.377,-45.0578 292.672,-42.5544 283.063,-38.0915 282.377,-45.0578"/>
<text text-anchor="middle" x="187.938" y="-40.8" font-family="Times New Roman,serif" font-size="14.00"> (0)</text>
</g>
<!-- node27 -->
<g id="node28" class="node"><title>node27</title>
<ellipse fill="none" stroke="black" cx="1757.45" cy="-741" rx="40.8928" ry="18"/>
<text text-anchor="middle" x="1757.45" y="-737.3" font-family="Times New Roman,serif" font-size="14.00">(27) OR</text>
</g>
<!-- node9&#45;&gt;node27 -->
<g id="edge37" class="edge"><title>node9&#45;&gt;node27</title>
<path fill="none" stroke="black" d="M230.009,-747.304C259.905,-746.213 301.369,-745 337.83,-745 337.83,-745 337.83,-745 1607.56,-745 1640.49,-745 1677.5,-744.01 1706.39,-743.015"/>
<polygon fill="black" stroke="black" points="1706.77,-746.504 1716.64,-742.65 1706.52,-739.508 1706.77,-746.504"/>
<text text-anchor="middle" x="1002.99" y="-748.8" font-family="Times New Roman,serif" font-size="14.00"> (0)</text>
</g>
<!-- node14 -->
<g id="node15" class="node"><title>node14</title>
<ellipse fill="none" stroke="black" cx="451.721" cy="-190" rx="47.3916" ry="18"/>
<text text-anchor="middle" x="451.721" y="-186.3" font-family="Times New Roman,serif" font-size="14.00">(14) XOR</text>
</g>
<!-- node10&#45;&gt;node14 -->
<g id="edge12" class="edge"><title>node10&#45;&gt;node14</title>
<path fill="none" stroke="black" d="M228.13,-167.042C272.566,-171.625 345.337,-179.131 395.51,-184.306"/>
<polygon fill="black" stroke="black" points="395.235,-187.796 405.541,-185.34 395.953,-180.833 395.235,-187.796"/>
<text text-anchor="middle" x="263.384" y="-174.8" font-family="Times New Roman,serif" font-size="14.00"> (1)</text>
</g>
<!-- node10&#45;&gt;node15 -->
<g id="edge14" class="edge"><title>node10&#45;&gt;node15</title>
<path fill="none" stroke="black" d="M216.538,-176.078C223.162,-179.985 229.898,-184.671 235.384,-190 246.265,-200.57 241.822,-209.18 253.384,-219 264.981,-228.85 279.736,-236.231 293.657,-241.611"/>
<polygon fill="black" stroke="black" points="292.518,-244.921 303.112,-245.022 294.893,-238.336 292.518,-244.921"/>
<text text-anchor="middle" x="263.384" y="-234.8" font-family="Times New Roman,serif" font-size="14.00"> (1)</text>
</g>
<!-- node31 -->
<g id="node32" class="node"><title>node31</title>
<ellipse fill="none" stroke="black" cx="1908.34" cy="-711" rx="46.5926" ry="18"/>
<text text-anchor="middle" x="1908.34" y="-707.3" font-family="Times New Roman,serif" font-size="14.00">(31) AND</text>
</g>
<!-- node11&#45;&gt;node31 -->
<g id="edge45" class="edge"><title>node11&#45;&gt;node31</title>
<path fill="none" stroke="black" d="M229.066,-695C259.034,-695 300.995,-695 337.83,-695 337.83,-695 337.83,-695 1758.45,-695 1790.63,-695 1826.51,-698.742 1854.98,-702.606"/>
<polygon fill="black" stroke="black" points="1854.72,-706.104 1865.11,-704.029 1855.69,-699.172 1854.72,-706.104"/>
<text text-anchor="middle" x="1078.43" y="-698.8" font-family="Times New Roman,serif" font-size="14.00"> (0)</text>
</g>
<!-- node12&#45;&gt;node17 -->
<g id="edge18" class="edge"><title>node12&#45;&gt;node17</title>
<path fill="none" stroke="black" d="M229.624,-70.2559C247.432,-66.4285 268.51,-61.8983 287.31,-57.8578"/>
<polygon fill="black" stroke="black" points="288.152,-61.2567 297.194,-55.7336 286.682,-54.413 288.152,-61.2567"/>
<text text-anchor="middle" x="263.384" y="-68.8" font-family="Times New Roman,serif" font-size="14.00"> (1)</text>
</g>
<!-- node18 -->
<g id="node19" class="node"><title>node18</title>
<ellipse fill="none" stroke="black" cx="563.963" cy="-105" rx="46.5926" ry="18"/>
<text text-anchor="middle" x="563.963" y="-101.3" font-family="Times New Roman,serif" font-size="14.00">(18) AND</text>
</g>
<!-- node12&#45;&gt;node18 -->
<g id="edge19" class="edge"><title>node12&#45;&gt;node18</title>
<path fill="none" stroke="black" d="M234.702,-82.6056C240.978,-83.084 247.34,-83.5606 253.384,-84 342.139,-90.4532 445.256,-97.3223 507.243,-101.384"/>
<polygon fill="black" stroke="black" points="507.37,-104.899 517.578,-102.06 507.827,-97.9142 507.37,-104.899"/>
<text text-anchor="middle" x="338.83" y="-96.8" font-family="Times New Roman,serif" font-size="14.00"> (0)</text>
</g>
<!-- node13&#45;&gt;node14 -->
<g id="edge11" class="edge"><title>node13&#45;&gt;node14</title>
<path fill="none" stroke="black" d="M225.467,-205.96C234.513,-203.616 244.237,-201.422 253.384,-200 300.469,-192.678 354.558,-190.358 394.186,-189.767"/>
<polygon fill="black" stroke="black" points="394.234,-193.267 404.192,-189.65 394.152,-186.267 394.234,-193.267"/>
<text text-anchor="middle" x="263.384" y="-203.8" font-family="Times New Roman,serif" font-size="14.00"> (0)</text>
</g>
<!-- node20 -->
<g id="node21" class="node"><title>node20</title>
<ellipse fill="none" stroke="black" cx="858.597" cy="-317" rx="40.8928" ry="18"/>
<text text-anchor="middle" x="858.597" y="-313.3" font-family="Times New Roman,serif" font-size="14.00">(20) OR</text>
</g>
<!-- node14&#45;&gt;node20 -->
<g id="edge23" class="edge"><title>node14&#45;&gt;node20</title>
<path fill="none" stroke="black" d="M474.419,-206.026C511.572,-232.448 590.737,-284.377 666.759,-306 713.349,-319.252 768.848,-320.968 807.952,-319.996"/>
<polygon fill="black" stroke="black" points="808.14,-323.491 818.024,-319.677 807.918,-316.495 808.14,-323.491"/>
<text text-anchor="middle" x="638.759" y="-302.8" font-family="Times New Roman,serif" font-size="14.00"> (0)</text>
</g>
<!-- node26 -->
<g id="node27" class="node"><title>node26</title>
<ellipse fill="none" stroke="black" cx="714.205" cy="-139" rx="47.3916" ry="18"/>
<text text-anchor="middle" x="714.205" y="-135.3" font-family="Times New Roman,serif" font-size="14.00">(26) XOR</text>
</g>
<!-- node14&#45;&gt;node26 -->
<g id="edge35" class="edge"><title>node14&#45;&gt;node26</title>
<path fill="none" stroke="black" d="M497.454,-184.792C537.419,-179.698 597.414,-170.961 648.759,-159 655.275,-157.482 662.091,-155.646 668.749,-153.709"/>
<polygon fill="black" stroke="black" points="669.769,-157.058 678.337,-150.825 667.752,-150.354 669.769,-157.058"/>
<text text-anchor="middle" x="563.963" y="-185.8" font-family="Times New Roman,serif" font-size="14.00"> (0)</text>
</g>
<!-- node23 -->
<g id="node24" class="node"><title>node23</title>
<ellipse fill="none" stroke="black" cx="1304.77" cy="-430" rx="47.3916" ry="18"/>
<text text-anchor="middle" x="1304.77" y="-426.3" font-family="Times New Roman,serif" font-size="14.00">(23) XOR</text>
</g>
<!-- node15&#45;&gt;node23 -->
<g id="edge29" class="edge"><title>node15&#45;&gt;node23</title>
<path fill="none" stroke="black" d="M379.84,-253.676C441.463,-253.196 563.315,-252.316 666.759,-252 708.933,-251.871 719.62,-248.519 761.651,-252 894.145,-262.974 926.138,-282.825 1050.43,-330 1125.24,-358.392 1211.84,-392.943 1261.96,-413.105"/>
<polygon fill="black" stroke="black" points="1260.9,-416.451 1271.49,-416.939 1263.52,-409.957 1260.9,-416.451"/>
<text text-anchor="middle" x="858.597" y="-277.8" font-family="Times New Roman,serif" font-size="14.00"> (0)</text>
</g>
<!-- node24 -->
<g id="node25" class="node"><title>node24</title>
<ellipse fill="none" stroke="black" cx="1455.66" cy="-489" rx="46.5926" ry="18"/>
<text text-anchor="middle" x="1455.66" y="-485.3" font-family="Times New Roman,serif" font-size="14.00">(24) AND</text>
</g>
<!-- node16&#45;&gt;node24 -->
<g id="edge31" class="edge"><title>node16&#45;&gt;node24</title>
<path fill="none" stroke="black" d="M235.547,-489C264.898,-489 303.58,-489 337.83,-489 337.83,-489 337.83,-489 1305.77,-489 1336.37,-489 1370.51,-489 1398.37,-489"/>
<polygon fill="black" stroke="black" points="1398.72,-492.5 1408.72,-489 1398.72,-485.5 1398.72,-492.5"/>
<text text-anchor="middle" x="858.597" y="-492.8" font-family="Times New Roman,serif" font-size="14.00"> (0)</text>
</g>
<!-- node17&#45;&gt;node18 -->
<g id="edge20" class="edge"><title>node17&#45;&gt;node18</title>
<path fill="none" stroke="black" d="M384.498,-52.1293C416.838,-56.5628 461.332,-64.1575 499.167,-76 508.12,-78.8023 517.468,-82.5475 526.16,-86.4134"/>
<polygon fill="black" stroke="black" points="524.738,-89.6118 535.285,-90.6167 527.667,-83.2539 524.738,-89.6118"/>
<text text-anchor="middle" x="451.721" y="-79.8" font-family="Times New Roman,serif" font-size="14.00"> (1)</text>
</g>
<!-- node32 -->
<g id="node33" class="node"><title>node32</title>
<ellipse fill="none" stroke="black" cx="2035.68" cy="-42" rx="42.7926" ry="18"/>
<text text-anchor="middle" x="2035.68" y="-38.3" font-family="Times New Roman,serif" font-size="14.00">Output 0</text>
</g>
<!-- node17&#45;&gt;node32 -->
<g id="edge47" class="edge"><title>node17&#45;&gt;node32</title>
<path fill="none" stroke="black" d="M386.406,-45.349C431.541,-43.8926 501.935,-42 562.963,-42 562.963,-42 562.963,-42 1909.34,-42 1933.4,-42 1960.06,-42 1982.58,-42"/>
<polygon fill="black" stroke="black" points="1982.61,-45.5001 1992.61,-42 1982.61,-38.5001 1982.61,-45.5001"/>
</g>
<!-- node18&#45;&gt;node19 -->
<g id="edge21" class="edge"><title>node18&#45;&gt;node19</title>
<path fill="none" stroke="black" d="M585.604,-121.209C603.445,-135.78 629.347,-158.32 648.759,-181 668.05,-203.538 686.256,-232.162 698.364,-252.647"/>
<polygon fill="black" stroke="black" points="695.424,-254.553 703.48,-261.434 701.474,-251.031 695.424,-254.553"/>
<text text-anchor="middle" x="638.759" y="-184.8" font-family="Times New Roman,serif" font-size="14.00"> (0)</text>
</g>
<!-- node18&#45;&gt;node26 -->
<g id="edge36" class="edge"><title>node18&#45;&gt;node26</title>
<path fill="none" stroke="black" d="M610.239,-101.757C622.858,-101.87 636.472,-102.959 648.759,-106 659.578,-108.677 670.633,-113.458 680.463,-118.565"/>
<polygon fill="black" stroke="black" points="679.014,-121.762 689.465,-123.503 682.381,-115.625 679.014,-121.762"/>
<text text-anchor="middle" x="638.759" y="-109.8" font-family="Times New Roman,serif" font-size="14.00"> (1)</text>
</g>
<!-- node19&#45;&gt;node20 -->
<g id="edge24" class="edge"><title>node19&#45;&gt;node20</title>
<path fill="none" stroke="black" d="M758.026,-286.336C771.452,-288.978 786.258,-292.248 799.651,-296 805.525,-297.646 811.657,-299.6 817.641,-301.644"/>
<polygon fill="black" stroke="black" points="816.904,-305.096 827.499,-305.13 819.238,-298.496 816.904,-305.096"/>
<text text-anchor="middle" x="789.651" y="-299.8" font-family="Times New Roman,serif" font-size="14.00"> (1)</text>
</g>
<!-- node20&#45;&gt;node21 -->
<g id="edge26" class="edge"><title>node20&#45;&gt;node21</title>
<path fill="none" stroke="black" d="M896.714,-324.082C909.717,-326.83 924.361,-330.227 937.543,-334 944.689,-336.045 952.19,-338.464 959.448,-340.953"/>
<polygon fill="black" stroke="black" points="958.541,-344.344 969.136,-344.36 960.864,-337.74 958.541,-344.344"/>
<text text-anchor="middle" x="927.543" y="-337.8" font-family="Times New Roman,serif" font-size="14.00"> (1)</text>
</g>
<!-- node21&#45;&gt;node22 -->
<g id="edge27" class="edge"><title>node21&#45;&gt;node22</title>
<path fill="none" stroke="black" d="M1031.3,-371.49C1055.25,-384.201 1090.27,-402.781 1116.58,-416.741"/>
<polygon fill="black" stroke="black" points="1115.02,-419.873 1125.49,-421.468 1118.3,-413.69 1115.02,-419.873"/>
<text text-anchor="middle" x="1078.43" y="-404.8" font-family="Times New Roman,serif" font-size="14.00"> (0)</text>
</g>
<!-- node22&#45;&gt;node23 -->
<g id="edge30" class="edge"><title>node22&#45;&gt;node23</title>
<path fill="none" stroke="black" d="M1201.17,-434.134C1215.74,-433.547 1231.99,-432.893 1247.19,-432.28"/>
<polygon fill="black" stroke="black" points="1247.66,-435.764 1257.51,-431.864 1247.37,-428.77 1247.66,-435.764"/>
<text text-anchor="middle" x="1229.33" y="-436.8" font-family="Times New Roman,serif" font-size="14.00"> (1)</text>
</g>
<!-- node23&#45;&gt;node24 -->
<g id="edge32" class="edge"><title>node23&#45;&gt;node24</title>
<path fill="none" stroke="black" d="M1340.93,-441.773C1356.19,-447.065 1374.19,-453.561 1390.22,-460 1398.65,-463.39 1407.61,-467.248 1416.07,-471.018"/>
<polygon fill="black" stroke="black" points="1414.81,-474.289 1425.36,-475.209 1417.69,-467.908 1414.81,-474.289"/>
<text text-anchor="middle" x="1380.22" y="-463.8" font-family="Times New Roman,serif" font-size="14.00"> (1)</text>
</g>
<!-- node23&#45;&gt;node29 -->
<g id="edge42" class="edge"><title>node23&#45;&gt;node29</title>
<path fill="none" stroke="black" d="M1346.06,-420.799C1364.1,-416.682 1385.54,-411.785 1404.59,-407.434"/>
<polygon fill="black" stroke="black" points="1405.63,-410.788 1414.6,-405.149 1404.07,-403.963 1405.63,-410.788"/>
<text text-anchor="middle" x="1380.22" y="-418.8" font-family="Times New Roman,serif" font-size="14.00"> (1)</text>
</g>
<!-- node24&#45;&gt;node25 -->
<g id="edge34" class="edge"><title>node24&#45;&gt;node25</title>
<path fill="none" stroke="black" d="M1494.62,-499.197C1513.8,-504.349 1537.27,-510.654 1557.67,-516.136"/>
<polygon fill="black" stroke="black" points="1556.84,-519.538 1567.41,-518.752 1558.66,-512.777 1556.84,-519.538"/>
<text text-anchor="middle" x="1531.11" y="-514.8" font-family="Times New Roman,serif" font-size="14.00"> (1)</text>
</g>
<!-- node25&#45;&gt;node27 -->
<g id="edge38" class="edge"><title>node25&#45;&gt;node27</title>
<path fill="none" stroke="black" d="M1619.74,-546.349C1645.93,-583.633 1707.68,-671.557 1738.41,-715.323"/>
<polygon fill="black" stroke="black" points="1735.69,-717.537 1744.3,-723.709 1741.42,-713.514 1735.69,-717.537"/>
<text text-anchor="middle" x="1682" y="-650.8" font-family="Times New Roman,serif" font-size="14.00"> (1)</text>
</g>
<!-- node25&#45;&gt;node28 -->
<g id="edge40" class="edge"><title>node25&#45;&gt;node28</title>
<path fill="none" stroke="black" d="M1642.38,-517.099C1658.08,-513.671 1676.52,-512.409 1692,-519 1711.62,-527.349 1728.14,-544.917 1739.55,-559.969"/>
<polygon fill="black" stroke="black" points="1736.98,-562.383 1745.66,-568.452 1742.66,-558.292 1736.98,-562.383"/>
<text text-anchor="middle" x="1682" y="-522.8" font-family="Times New Roman,serif" font-size="14.00"> (1)</text>
</g>
<!-- node33 -->
<g id="node34" class="node"><title>node33</title>
<ellipse fill="none" stroke="black" cx="2035.68" cy="-139" rx="42.7926" ry="18"/>
<text text-anchor="middle" x="2035.68" y="-135.3" font-family="Times New Roman,serif" font-size="14.00">Output 1</text>
</g>
<!-- node26&#45;&gt;node33 -->
<g id="edge48" class="edge"><title>node26&#45;&gt;node33</title>
<path fill="none" stroke="black" d="M761.699,-139C789.521,-139 825.583,-139 857.597,-139 857.597,-139 857.597,-139 1909.34,-139 1933.4,-139 1960.06,-139 1982.58,-139"/>
<polygon fill="black" stroke="black" points="1982.61,-142.5 1992.61,-139 1982.61,-135.5 1982.61,-142.5"/>
</g>
<!-- node27&#45;&gt;node31 -->
<g id="edge46" class="edge"><title>node27&#45;&gt;node31</title>
<path fill="none" stroke="black" d="M1794.87,-733.661C1813.43,-729.922 1836.3,-725.314 1856.56,-721.232"/>
<polygon fill="black" stroke="black" points="1857.46,-724.621 1866.57,-719.214 1856.08,-717.759 1857.46,-724.621"/>
<text text-anchor="middle" x="1832.89" y="-730.8" font-family="Times New Roman,serif" font-size="14.00"> (1)</text>
</g>
<!-- node28&#45;&gt;node30 -->
<g id="edge44" class="edge"><title>node28&#45;&gt;node30</title>
<path fill="none" stroke="black" d="M1798.35,-595.379C1816.61,-599.673 1838.44,-604.804 1857.75,-609.343"/>
<polygon fill="black" stroke="black" points="1857.05,-612.774 1867.59,-611.655 1858.65,-605.96 1857.05,-612.774"/>
<text text-anchor="middle" x="1832.89" y="-608.8" font-family="Times New Roman,serif" font-size="14.00"> (1)</text>
</g>
<!-- node34 -->
<g id="node35" class="node"><title>node34</title>
<ellipse fill="none" stroke="black" cx="2035.68" cy="-396" rx="42.7926" ry="18"/>
<text text-anchor="middle" x="2035.68" y="-392.3" font-family="Times New Roman,serif" font-size="14.00">Output 2</text>
</g>
<!-- node29&#45;&gt;node34 -->
<g id="edge49" class="edge"><title>node29&#45;&gt;node34</title>
<path fill="none" stroke="black" d="M1503.27,-396C1532.62,-396 1571.31,-396 1605.56,-396 1605.56,-396 1605.56,-396 1909.34,-396 1933.4,-396 1960.06,-396 1982.58,-396"/>
<polygon fill="black" stroke="black" points="1982.61,-399.5 1992.61,-396 1982.61,-392.5 1982.61,-399.5"/>
</g>
<!-- node35 -->
<g id="node36" class="node"><title>node35</title>
<ellipse fill="none" stroke="black" cx="2035.68" cy="-621" rx="42.7926" ry="18"/>
<text text-anchor="middle" x="2035.68" y="-617.3" font-family="Times New Roman,serif" font-size="14.00">Output 3</text>
</g>
<!-- node30&#45;&gt;node35 -->
<g id="edge50" class="edge"><title>node30&#45;&gt;node35</title>
<path fill="none" stroke="black" d="M1956.01,-621C1964.62,-621 1973.65,-621 1982.41,-621"/>
<polygon fill="black" stroke="black" points="1982.52,-624.5 1992.52,-621 1982.52,-617.5 1982.52,-624.5"/>
</g>
<!-- node36 -->
<g id="node37" class="node"><title>node36</title>
<ellipse fill="none" stroke="black" cx="2035.68" cy="-711" rx="42.7926" ry="18"/>
<text text-anchor="middle" x="2035.68" y="-707.3" font-family="Times New Roman,serif" font-size="14.00">Output 4</text>
</g>
<!-- node31&#45;&gt;node36 -->
<g id="edge51" class="edge"><title>node31&#45;&gt;node36</title>
<path fill="none" stroke="black" d="M1955.3,-711C1964.13,-711 1973.44,-711 1982.46,-711"/>
<polygon fill="black" stroke="black" points="1982.47,-714.5 1992.47,-711 1982.47,-707.5 1982.47,-714.5"/>
</g>
</g>
</svg>
