<?xml version="1.0" encoding="UTF-8" standalone="no"?>
<!DOCTYPE svg PUBLIC "-//W3C//DTD SVG 1.1//EN"
 "http://www.w3.org/Graphics/SVG/1.1/DTD/svg11.dtd">
<!-- Generated by graphviz version 2.38.0 (20140413.2041)
 -->
<!-- Title: NeuralNetwork Pages: 1 -->
<svg width="288pt" height="120pt"
 viewBox="0.00 0.00 288.00 119.93" xmlns="http://www.w3.org/2000/svg" xmlns:xlink="http://www.w3.org/1999/xlink">
<g id="graph0" class="graph" transform="scale(0.155955 0.155955) rotate(0) translate(4 765)">
<title>NeuralNetwork</title>
<polygon fill="white" stroke="none" points="-4,4 -4,-765 1842.69,-765 1842.69,4 -4,4"/>
<!-- node0 -->
<g id="node1" class="node"><title>node0</title>
<ellipse fill="none" stroke="black" cx="42.2463" cy="-720" rx="42.4939" ry="18"/>
<text text-anchor="middle" x="42.2463" y="-716.3" font-family="Times New Roman,serif" font-size="14.00">(0) Input</text>
</g>
<!-- node14 -->
<g id="node15" class="node"><title>node14</title>
<ellipse fill="none" stroke="black" cx="633.005" cy="-621" rx="40.8928" ry="18"/>
<text text-anchor="middle" x="633.005" y="-617.3" font-family="Times New Roman,serif" font-size="14.00">(14) OR</text>
</g>
<!-- node0&#45;&gt;node14 -->
<g id="edge10" class="edge"><title>node0&#45;&gt;node14</title>
<path fill="none" stroke="black" d="M83.6513,-716.299C172.997,-707.596 393.711,-683.24 574.059,-640 579.528,-638.689 585.223,-637.103 590.814,-635.414"/>
<polygon fill="black" stroke="black" points="592.211,-638.644 600.695,-632.299 590.105,-631.968 592.211,-638.644"/>
<text text-anchor="middle" x="300.83" y="-699.8" font-family="Times New Roman,serif" font-size="14.00"> (0)</text>
</g>
<!-- node27 -->
<g id="node28" class="node"><title>node27</title>
<ellipse fill="none" stroke="black" cx="413.721" cy="-743" rx="47.3916" ry="18"/>
<text text-anchor="middle" x="413.721" y="-739.3" font-family="Times New Roman,serif" font-size="14.00">(27) XOR</text>
</g>
<!-- node0&#45;&gt;node27 -->
<g id="edge36" class="edge"><title>node0&#45;&gt;node27</title>
<path fill="none" stroke="black" d="M84.1983,-722.549C150.503,-726.677 281.48,-734.83 356.477,-739.499"/>
<polygon fill="black" stroke="black" points="356.478,-743.005 366.676,-740.134 356.912,-736.019 356.478,-743.005"/>
<text text-anchor="middle" x="187.938" y="-734.8" font-family="Times New Roman,serif" font-size="14.00"> (0)</text>
</g>
<!-- node1 -->
<g id="node2" class="node"><title>node1</title>
<ellipse fill="none" stroke="black" cx="42.2463" cy="-419" rx="42.4939" ry="18"/>
<text text-anchor="middle" x="42.2463" y="-415.3" font-family="Times New Roman,serif" font-size="14.00">(1) Input</text>
</g>
<!-- node11 -->
<g id="node12" class="node"><title>node11</title>
<ellipse fill="none" stroke="black" cx="187.938" cy="-352" rx="40.8928" ry="18"/>
<text text-anchor="middle" x="187.938" y="-348.3" font-family="Times New Roman,serif" font-size="14.00">(11) OR</text>
</g>
<!-- node1&#45;&gt;node11 -->
<g id="edge6" class="edge"><title>node1&#45;&gt;node11</title>
<path fill="none" stroke="black" d="M52.8122,-401.493C62.7995,-385.238 80.1253,-362.079 102.493,-352 113.77,-346.918 126.787,-345.186 139.172,-345.148"/>
<polygon fill="black" stroke="black" points="139.266,-348.652 149.374,-345.478 139.493,-341.656 139.266,-348.652"/>
<text text-anchor="middle" x="112.493" y="-355.8" font-family="Times New Roman,serif" font-size="14.00"> (1)</text>
</g>
<!-- node16 -->
<g id="node17" class="node"><title>node16</title>
<ellipse fill="none" stroke="black" cx="187.938" cy="-465" rx="46.5926" ry="18"/>
<text text-anchor="middle" x="187.938" y="-461.3" font-family="Times New Roman,serif" font-size="14.00">(16) AND</text>
</g>
<!-- node1&#45;&gt;node16 -->
<g id="edge15" class="edge"><title>node1&#45;&gt;node16</title>
<path fill="none" stroke="black" d="M76.5733,-429.669C95.9692,-435.878 120.683,-443.79 141.804,-450.551"/>
<polygon fill="black" stroke="black" points="140.943,-453.951 151.534,-453.666 143.077,-447.284 140.943,-453.951"/>
<text text-anchor="middle" x="112.493" y="-446.8" font-family="Times New Roman,serif" font-size="14.00"> (1)</text>
</g>
<!-- node18 -->
<g id="node19" class="node"><title>node18</title>
<ellipse fill="none" stroke="black" cx="926.989" cy="-474" rx="47.3916" ry="18"/>
<text text-anchor="middle" x="926.989" y="-470.3" font-family="Times New Roman,serif" font-size="14.00">(18) XOR</text>
</g>
<!-- node1&#45;&gt;node18 -->
<g id="edge18" class="edge"><title>node1&#45;&gt;node18</title>
<path fill="none" stroke="black" d="M84.747,-419C113.446,-419 152.512,-419 186.938,-419 186.938,-419 186.938,-419 527.613,-419 548.256,-419 553.448,-417.847 574.059,-419 685.463,-425.232 713.864,-426.505 823.543,-447 841.982,-450.445 861.988,-455.431 879.387,-460.182"/>
<polygon fill="black" stroke="black" points="878.726,-463.631 889.298,-462.939 880.602,-456.887 878.726,-463.631"/>
<text text-anchor="middle" x="526.613" y="-422.8" font-family="Times New Roman,serif" font-size="14.00"> (0)</text>
</g>
<!-- node2 -->
<g id="node3" class="node"><title>node2</title>
<ellipse fill="none" stroke="black" cx="42.2463" cy="-286" rx="42.4939" ry="18"/>
<text text-anchor="middle" x="42.2463" y="-282.3" font-family="Times New Roman,serif" font-size="14.00">(2) Input</text>
</g>
<!-- node15 -->
<g id="node16" class="node"><title>node15</title>
<ellipse fill="none" stroke="black" cx="526.613" cy="-240" rx="47.3916" ry="18"/>
<text text-anchor="middle" x="526.613" y="-236.3" font-family="Times New Roman,serif" font-size="14.00">(15) XOR</text>
</g>
<!-- node2&#45;&gt;node15 -->
<g id="edge13" class="edge"><title>node2&#45;&gt;node15</title>
<path fill="none" stroke="black" d="M83.9522,-283.082C158.766,-277.566 323.12,-264.74 461.167,-249 464.64,-248.604 468.214,-248.172 471.815,-247.719"/>
<polygon fill="black" stroke="black" points="472.506,-251.159 481.971,-246.398 471.603,-244.218 472.506,-251.159"/>
<text text-anchor="middle" x="187.938" y="-281.8" font-family="Times New Roman,serif" font-size="14.00"> (1)</text>
</g>
<!-- node21 -->
<g id="node22" class="node"><title>node21</title>
<ellipse fill="none" stroke="black" cx="187.938" cy="-186" rx="46.5926" ry="18"/>
<text text-anchor="middle" x="187.938" y="-182.3" font-family="Times New Roman,serif" font-size="14.00">(21) AND</text>
</g>
<!-- node2&#45;&gt;node21 -->
<g id="edge24" class="edge"><title>node2&#45;&gt;node21</title>
<path fill="none" stroke="black" d="M65.2305,-270.563C84.9206,-256.752 114.599,-235.973 140.493,-218 145.44,-214.566 150.69,-210.935 155.813,-207.4"/>
<polygon fill="black" stroke="black" points="157.991,-210.151 164.238,-201.594 154.018,-204.387 157.991,-210.151"/>
<text text-anchor="middle" x="112.493" y="-247.8" font-family="Times New Roman,serif" font-size="14.00"> (0)</text>
</g>
<!-- node3 -->
<g id="node4" class="node"><title>node3</title>
<ellipse fill="none" stroke="black" cx="42.2463" cy="-116" rx="42.4939" ry="18"/>
<text text-anchor="middle" x="42.2463" y="-112.3" font-family="Times New Roman,serif" font-size="14.00">(3) Input</text>
</g>
<!-- node10 -->
<g id="node11" class="node"><title>node10</title>
<ellipse fill="none" stroke="black" cx="187.938" cy="-18" rx="46.5926" ry="18"/>
<text text-anchor="middle" x="187.938" y="-14.3" font-family="Times New Roman,serif" font-size="14.00">(10) AND</text>
</g>
<!-- node3&#45;&gt;node10 -->
<g id="edge3" class="edge"><title>node3&#45;&gt;node10</title>
<path fill="none" stroke="black" d="M75.0255,-104.466C90.0531,-98.3006 107.863,-89.9278 122.493,-80 138.131,-69.3871 153.47,-54.8479 165.257,-42.5164"/>
<polygon fill="black" stroke="black" points="167.842,-44.8763 172.108,-35.1784 162.725,-40.0991 167.842,-44.8763"/>
<text text-anchor="middle" x="112.493" y="-93.8" font-family="Times New Roman,serif" font-size="14.00"> (0)</text>
</g>
<!-- node23 -->
<g id="node24" class="node"><title>node23</title>
<ellipse fill="none" stroke="black" cx="300.83" cy="-89" rx="47.3916" ry="18"/>
<text text-anchor="middle" x="300.83" y="-85.3" font-family="Times New Roman,serif" font-size="14.00">(23) XOR</text>
</g>
<!-- node3&#45;&gt;node23 -->
<g id="edge29" class="edge"><title>node3&#45;&gt;node23</title>
<path fill="none" stroke="black" d="M83.9861,-112.592C96.3587,-111.505 109.987,-110.257 122.493,-109 163.738,-104.853 210.309,-99.578 245.374,-95.4866"/>
<polygon fill="black" stroke="black" points="245.88,-98.9513 255.405,-94.3118 245.066,-91.9988 245.88,-98.9513"/>
<text text-anchor="middle" x="112.493" y="-113.8" font-family="Times New Roman,serif" font-size="14.00"> (1)</text>
</g>
<!-- node4 -->
<g id="node5" class="node"><title>node4</title>
<ellipse fill="none" stroke="black" cx="42.2463" cy="-647" rx="42.4939" ry="18"/>
<text text-anchor="middle" x="42.2463" y="-643.3" font-family="Times New Roman,serif" font-size="14.00">(4) Input</text>
</g>
<!-- node9 -->
<g id="node10" class="node"><title>node9</title>
<ellipse fill="none" stroke="black" cx="187.938" cy="-566" rx="36.2938" ry="18"/>
<text text-anchor="middle" x="187.938" y="-562.3" font-family="Times New Roman,serif" font-size="14.00">(9) OR</text>
</g>
<!-- node4&#45;&gt;node9 -->
<g id="edge1" class="edge"><title>node4&#45;&gt;node9</title>
<path fill="none" stroke="black" d="M71.1069,-633.777C86.4601,-626.282 105.746,-616.522 122.493,-607 133.93,-600.496 146.182,-592.875 156.9,-585.98"/>
<polygon fill="black" stroke="black" points="159.011,-588.782 165.49,-580.399 155.198,-582.912 159.011,-588.782"/>
<text text-anchor="middle" x="112.493" y="-620.8" font-family="Times New Roman,serif" font-size="14.00"> (0)</text>
</g>
<!-- node12 -->
<g id="node13" class="node"><title>node12</title>
<ellipse fill="none" stroke="black" cx="187.938" cy="-636" rx="47.3916" ry="18"/>
<text text-anchor="middle" x="187.938" y="-632.3" font-family="Times New Roman,serif" font-size="14.00">(12) XOR</text>
</g>
<!-- node4&#45;&gt;node12 -->
<g id="edge8" class="edge"><title>node4&#45;&gt;node12</title>
<path fill="none" stroke="black" d="M84.8333,-646.838C96.9876,-646.551 110.285,-646.003 122.493,-645 126.141,-644.7 129.899,-644.332 133.679,-643.918"/>
<polygon fill="black" stroke="black" points="134.164,-647.385 143.681,-642.728 133.337,-640.434 134.164,-647.385"/>
<text text-anchor="middle" x="112.493" y="-649.8" font-family="Times New Roman,serif" font-size="14.00"> (1)</text>
</g>
<!-- node5 -->
<g id="node6" class="node"><title>node5</title>
<ellipse fill="none" stroke="black" cx="42.2463" cy="-490" rx="42.4939" ry="18"/>
<text text-anchor="middle" x="42.2463" y="-486.3" font-family="Times New Roman,serif" font-size="14.00">(5) Input</text>
</g>
<!-- node5&#45;&gt;node11 -->
<g id="edge5" class="edge"><title>node5&#45;&gt;node11</title>
<path fill="none" stroke="black" d="M59.9146,-473.393C67.6776,-465.369 76.8618,-455.449 84.4925,-446 93.3225,-435.066 92.9206,-430.291 102.493,-420 118.758,-402.512 139.645,-385.655 156.576,-373.099"/>
<polygon fill="black" stroke="black" points="159.002,-375.662 165.024,-366.945 154.88,-370.004 159.002,-375.662"/>
<text text-anchor="middle" x="112.493" y="-423.8" font-family="Times New Roman,serif" font-size="14.00"> (0)</text>
</g>
<!-- node5&#45;&gt;node16 -->
<g id="edge14" class="edge"><title>node5&#45;&gt;node16</title>
<path fill="none" stroke="black" d="M81.7531,-483.3C98.0839,-480.459 117.368,-477.104 134.934,-474.048"/>
<polygon fill="black" stroke="black" points="135.791,-477.451 145.043,-472.289 134.591,-470.555 135.791,-477.451"/>
<text text-anchor="middle" x="112.493" y="-481.8" font-family="Times New Roman,serif" font-size="14.00"> (0)</text>
</g>
<!-- node25 -->
<g id="node26" class="node"><title>node25</title>
<ellipse fill="none" stroke="black" cx="1077.88" cy="-505" rx="47.3916" ry="18"/>
<text text-anchor="middle" x="1077.88" y="-501.3" font-family="Times New Roman,serif" font-size="14.00">(25) XOR</text>
</g>
<!-- node5&#45;&gt;node25 -->
<g id="edge32" class="edge"><title>node5&#45;&gt;node25</title>
<path fill="none" stroke="black" d="M76.2287,-500.916C105.093,-509.493 148.329,-520 186.938,-520 186.938,-520 186.938,-520 927.989,-520 959.804,-520 995.252,-516.568 1023.58,-512.987"/>
<polygon fill="black" stroke="black" points="1024.21,-516.434 1033.67,-511.667 1023.3,-509.493 1024.21,-516.434"/>
<text text-anchor="middle" x="633.005" y="-523.8" font-family="Times New Roman,serif" font-size="14.00"> (0)</text>
</g>
<!-- node6 -->
<g id="node7" class="node"><title>node6</title>
<ellipse fill="none" stroke="black" cx="42.2463" cy="-222" rx="42.4939" ry="18"/>
<text text-anchor="middle" x="42.2463" y="-218.3" font-family="Times New Roman,serif" font-size="14.00">(6) Input</text>
</g>
<!-- node6&#45;&gt;node15 -->
<g id="edge12" class="edge"><title>node6&#45;&gt;node15</title>
<path fill="none" stroke="black" d="M84.3726,-223.535C170.74,-226.758 371.099,-234.234 469.305,-237.899"/>
<polygon fill="black" stroke="black" points="469.214,-241.398 479.338,-238.273 469.475,-234.403 469.214,-241.398"/>
<text text-anchor="middle" x="187.938" y="-232.8" font-family="Times New Roman,serif" font-size="14.00"> (0)</text>
</g>
<!-- node6&#45;&gt;node21 -->
<g id="edge25" class="edge"><title>node6&#45;&gt;node21</title>
<path fill="none" stroke="black" d="M79.1352,-213.009C97.0443,-208.522 118.97,-203.029 138.36,-198.171"/>
<polygon fill="black" stroke="black" points="139.385,-201.522 148.234,-195.697 137.683,-194.732 139.385,-201.522"/>
<text text-anchor="middle" x="112.493" y="-209.8" font-family="Times New Roman,serif" font-size="14.00"> (1)</text>
</g>
<!-- node7 -->
<g id="node8" class="node"><title>node7</title>
<ellipse fill="none" stroke="black" cx="42.2463" cy="-49" rx="42.4939" ry="18"/>
<text text-anchor="middle" x="42.2463" y="-45.3" font-family="Times New Roman,serif" font-size="14.00">(7) Input</text>
</g>
<!-- node7&#45;&gt;node10 -->
<g id="edge4" class="edge"><title>node7&#45;&gt;node10</title>
<path fill="none" stroke="black" d="M72.6355,-36.4405C82.0242,-32.8767 92.5592,-29.3349 102.493,-27 111.76,-24.8216 121.725,-23.1696 131.446,-21.9169"/>
<polygon fill="black" stroke="black" points="131.92,-25.3854 141.448,-20.7508 131.11,-18.4325 131.92,-25.3854"/>
<text text-anchor="middle" x="112.493" y="-30.8" font-family="Times New Roman,serif" font-size="14.00"> (1)</text>
</g>
<!-- node7&#45;&gt;node23 -->
<g id="edge28" class="edge"><title>node7&#45;&gt;node23</title>
<path fill="none" stroke="black" d="M82.3518,-54.8715C95.1476,-56.8062 109.429,-58.9796 122.493,-61 164.265,-67.4605 211.546,-74.9337 246.776,-80.5337"/>
<polygon fill="black" stroke="black" points="246.415,-84.0201 256.84,-82.1345 247.514,-77.107 246.415,-84.0201"/>
<text text-anchor="middle" x="112.493" y="-64.8" font-family="Times New Roman,serif" font-size="14.00"> (0)</text>
</g>
<!-- node8 -->
<g id="node9" class="node"><title>node8</title>
<ellipse fill="none" stroke="black" cx="42.2463" cy="-572" rx="42.4939" ry="18"/>
<text text-anchor="middle" x="42.2463" y="-568.3" font-family="Times New Roman,serif" font-size="14.00">(8) Input</text>
</g>
<!-- node8&#45;&gt;node9 -->
<g id="edge2" class="edge"><title>node8&#45;&gt;node9</title>
<path fill="none" stroke="black" d="M74.8284,-560.526C83.661,-557.836 93.3478,-555.358 102.493,-554 116.616,-551.902 132.08,-553.087 145.871,-555.379"/>
<polygon fill="black" stroke="black" points="145.564,-558.883 156.041,-557.312 146.871,-552.006 145.564,-558.883"/>
<text text-anchor="middle" x="112.493" y="-557.8" font-family="Times New Roman,serif" font-size="14.00"> (1)</text>
</g>
<!-- node8&#45;&gt;node12 -->
<g id="edge7" class="edge"><title>node8&#45;&gt;node12</title>
<path fill="none" stroke="black" d="M81.6521,-578.832C94.9305,-581.934 109.684,-586.232 122.493,-592 135.164,-597.706 148.028,-605.904 158.895,-613.681"/>
<polygon fill="black" stroke="black" points="157.018,-616.645 167.141,-619.771 161.177,-611.015 157.018,-616.645"/>
<text text-anchor="middle" x="112.493" y="-595.8" font-family="Times New Roman,serif" font-size="14.00"> (0)</text>
</g>
<!-- node17 -->
<g id="node18" class="node"><title>node17</title>
<ellipse fill="none" stroke="black" cx="776.747" cy="-474" rx="46.5926" ry="18"/>
<text text-anchor="middle" x="776.747" y="-470.3" font-family="Times New Roman,serif" font-size="14.00">(17) AND</text>
</g>
<!-- node9&#45;&gt;node17 -->
<g id="edge17" class="edge"><title>node9&#45;&gt;node17</title>
<path fill="none" stroke="black" d="M223.534,-569.941C304.603,-577.934 512.219,-591.154 673.952,-539 701.592,-530.087 729.121,-511.792 748.568,-496.876"/>
<polygon fill="black" stroke="black" points="750.953,-499.453 756.645,-490.517 746.623,-493.953 750.953,-499.453"/>
<text text-anchor="middle" x="526.613" y="-576.8" font-family="Times New Roman,serif" font-size="14.00"> (1)</text>
</g>
<!-- node28 -->
<g id="node29" class="node"><title>node28</title>
<ellipse fill="none" stroke="black" cx="1668.45" cy="-38" rx="47.3916" ry="18"/>
<text text-anchor="middle" x="1668.45" y="-34.3" font-family="Times New Roman,serif" font-size="14.00">(28) XOR</text>
</g>
<!-- node10&#45;&gt;node28 -->
<g id="edge39" class="edge"><title>node10&#45;&gt;node28</title>
<path fill="none" stroke="black" d="M234.797,-18C280.031,-18 351.142,-18 412.721,-18 412.721,-18 412.721,-18 1518.56,-18 1551.31,-18 1587.76,-22.8126 1616.39,-27.7162"/>
<polygon fill="black" stroke="black" points="1616.11,-31.2207 1626.57,-29.5182 1617.33,-24.328 1616.11,-31.2207"/>
<text text-anchor="middle" x="1002.43" y="-21.8" font-family="Times New Roman,serif" font-size="14.00"> (1)</text>
</g>
<!-- node20 -->
<g id="node21" class="node"><title>node20</title>
<ellipse fill="none" stroke="black" cx="1077.88" cy="-345" rx="46.5926" ry="18"/>
<text text-anchor="middle" x="1077.88" y="-341.3" font-family="Times New Roman,serif" font-size="14.00">(20) AND</text>
</g>
<!-- node11&#45;&gt;node20 -->
<g id="edge23" class="edge"><title>node11&#45;&gt;node20</title>
<path fill="none" stroke="black" d="M228.947,-349.994C273.71,-347.926 348.391,-345 412.721,-345 412.721,-345 412.721,-345 927.989,-345 958.589,-345 992.725,-345 1020.59,-345"/>
<polygon fill="black" stroke="black" points="1020.94,-348.5 1030.94,-345 1020.94,-341.5 1020.94,-348.5"/>
<text text-anchor="middle" x="701.952" y="-348.8" font-family="Times New Roman,serif" font-size="14.00"> (1)</text>
</g>
<!-- node13 -->
<g id="node14" class="node"><title>node13</title>
<ellipse fill="none" stroke="black" cx="413.721" cy="-621" rx="46.2923" ry="18"/>
<text text-anchor="middle" x="413.721" y="-617.3" font-family="Times New Roman,serif" font-size="14.00">(13) NEG</text>
</g>
<!-- node12&#45;&gt;node13 -->
<g id="edge9" class="edge"><title>node12&#45;&gt;node13</title>
<path fill="none" stroke="black" d="M227.916,-626.174C236.267,-624.451 245.077,-622.918 253.384,-622 287.845,-618.191 326.754,-617.872 357.497,-618.538"/>
<polygon fill="black" stroke="black" points="357.504,-622.04 367.591,-618.799 357.685,-615.042 357.504,-622.04"/>
<text text-anchor="middle" x="300.83" y="-625.8" font-family="Times New Roman,serif" font-size="14.00"> (0)</text>
</g>
<!-- node12&#45;&gt;node27 -->
<g id="edge37" class="edge"><title>node12&#45;&gt;node27</title>
<path fill="none" stroke="black" d="M235.038,-639.141C275.104,-642.553 329.57,-649.039 348.276,-660 370.73,-673.158 388.171,-697.425 399.214,-716.334"/>
<polygon fill="black" stroke="black" points="396.184,-718.088 404.114,-725.115 402.297,-714.677 396.184,-718.088"/>
<text text-anchor="middle" x="300.83" y="-663.8" font-family="Times New Roman,serif" font-size="14.00"> (1)</text>
</g>
<!-- node13&#45;&gt;node14 -->
<g id="edge11" class="edge"><title>node13&#45;&gt;node14</title>
<path fill="none" stroke="black" d="M460.007,-621C495.59,-621 545.113,-621 581.885,-621"/>
<polygon fill="black" stroke="black" points="581.896,-624.5 591.896,-621 581.896,-617.5 581.896,-624.5"/>
<text text-anchor="middle" x="526.613" y="-624.8" font-family="Times New Roman,serif" font-size="14.00"> (1)</text>
</g>
<!-- node14&#45;&gt;node17 -->
<g id="edge16" class="edge"><title>node14&#45;&gt;node17</title>
<path fill="none" stroke="black" d="M664.159,-609.312C679.711,-602.223 698.241,-592.019 711.952,-579 735.366,-556.767 753.396,-524.114 764.223,-501.138"/>
<polygon fill="black" stroke="black" points="767.451,-502.493 768.416,-491.942 761.082,-499.588 767.451,-502.493"/>
<text text-anchor="middle" x="701.952" y="-596.8" font-family="Times New Roman,serif" font-size="14.00"> (0)</text>
</g>
<!-- node22 -->
<g id="node23" class="node"><title>node22</title>
<ellipse fill="none" stroke="black" cx="1228.77" cy="-236" rx="46.5926" ry="18"/>
<text text-anchor="middle" x="1228.77" y="-232.3" font-family="Times New Roman,serif" font-size="14.00">(22) AND</text>
</g>
<!-- node15&#45;&gt;node22 -->
<g id="edge27" class="edge"><title>node15&#45;&gt;node22</title>
<path fill="none" stroke="black" d="M573.957,-238.35C608.864,-237.248 657.906,-236 700.952,-236 700.952,-236 700.952,-236 1078.88,-236 1109.48,-236 1143.62,-236 1171.48,-236"/>
<polygon fill="black" stroke="black" points="1171.83,-239.5 1181.83,-236 1171.83,-232.5 1171.83,-239.5"/>
<text text-anchor="middle" x="851.543" y="-239.8" font-family="Times New Roman,serif" font-size="14.00"> (1)</text>
</g>
<!-- node30 -->
<g id="node31" class="node"><title>node30</title>
<ellipse fill="none" stroke="black" cx="1228.77" cy="-318" rx="47.3916" ry="18"/>
<text text-anchor="middle" x="1228.77" y="-314.3" font-family="Times New Roman,serif" font-size="14.00">(30) XOR</text>
</g>
<!-- node15&#45;&gt;node30 -->
<g id="edge42" class="edge"><title>node15&#45;&gt;node30</title>
<path fill="none" stroke="black" d="M563.731,-251.322C598.518,-261.212 652.804,-274 700.952,-274 700.952,-274 700.952,-274 1078.88,-274 1116.92,-274 1126.98,-276.758 1163.33,-288 1172.69,-290.896 1182.45,-294.882 1191.45,-299.004"/>
<polygon fill="black" stroke="black" points="1189.98,-302.179 1200.51,-303.307 1192.98,-295.856 1189.98,-302.179"/>
<text text-anchor="middle" x="851.543" y="-277.8" font-family="Times New Roman,serif" font-size="14.00"> (0)</text>
</g>
<!-- node19 -->
<g id="node20" class="node"><title>node19</title>
<ellipse fill="none" stroke="black" cx="926.989" cy="-391" rx="40.8928" ry="18"/>
<text text-anchor="middle" x="926.989" y="-387.3" font-family="Times New Roman,serif" font-size="14.00">(19) OR</text>
</g>
<!-- node16&#45;&gt;node19 -->
<g id="edge21" class="edge"><title>node16&#45;&gt;node19</title>
<path fill="none" stroke="black" d="M234.372,-462.741C306.485,-458.946 451.532,-450.464 574.059,-438 683.137,-426.904 810.534,-408.538 878.136,-398.361"/>
<polygon fill="black" stroke="black" points="878.699,-401.815 888.064,-396.86 877.653,-394.894 878.699,-401.815"/>
<text text-anchor="middle" x="633.005" y="-438.8" font-family="Times New Roman,serif" font-size="14.00"> (1)</text>
</g>
<!-- node17&#45;&gt;node18 -->
<g id="edge19" class="edge"><title>node17&#45;&gt;node18</title>
<path fill="none" stroke="black" d="M823.839,-474C838.203,-474 854.214,-474 869.22,-474"/>
<polygon fill="black" stroke="black" points="869.415,-477.5 879.415,-474 869.415,-470.5 869.415,-477.5"/>
<text text-anchor="middle" x="851.543" y="-477.8" font-family="Times New Roman,serif" font-size="14.00"> (1)</text>
</g>
<!-- node17&#45;&gt;node19 -->
<g id="edge20" class="edge"><title>node17&#45;&gt;node19</title>
<path fill="none" stroke="black" d="M804.25,-459.161C828.685,-445.48 865.093,-425.095 891.728,-410.183"/>
<polygon fill="black" stroke="black" points="893.69,-413.096 900.705,-405.156 890.27,-406.988 893.69,-413.096"/>
<text text-anchor="middle" x="851.543" y="-440.8" font-family="Times New Roman,serif" font-size="14.00"> (0)</text>
</g>
<!-- node18&#45;&gt;node25 -->
<g id="edge33" class="edge"><title>node18&#45;&gt;node25</title>
<path fill="none" stroke="black" d="M969.678,-482.261C983.315,-484.999 998.529,-488.09 1012.43,-491 1016.91,-491.935 1021.55,-492.919 1026.2,-493.914"/>
<polygon fill="black" stroke="black" points="1025.82,-497.413 1036.33,-496.093 1027.29,-490.569 1025.82,-497.413"/>
<text text-anchor="middle" x="1002.43" y="-494.8" font-family="Times New Roman,serif" font-size="14.00"> (1)</text>
</g>
<!-- node19&#45;&gt;node20 -->
<g id="edge22" class="edge"><title>node19&#45;&gt;node20</title>
<path fill="none" stroke="black" d="M961.033,-380.791C981.631,-374.427 1008.43,-366.148 1031.06,-359.156"/>
<polygon fill="black" stroke="black" points="1032.28,-362.442 1040.8,-356.146 1030.21,-355.754 1032.28,-362.442"/>
<text text-anchor="middle" x="1002.43" y="-373.8" font-family="Times New Roman,serif" font-size="14.00"> (0)</text>
</g>
<!-- node20&#45;&gt;node22 -->
<g id="edge26" class="edge"><title>node20&#45;&gt;node22</title>
<path fill="none" stroke="black" d="M1100.53,-329.15C1126.22,-310.341 1169.2,-278.879 1198.01,-257.789"/>
<polygon fill="black" stroke="black" points="1200.09,-260.6 1206.1,-251.869 1195.96,-254.952 1200.09,-260.6"/>
<text text-anchor="middle" x="1153.33" y="-300.8" font-family="Times New Roman,serif" font-size="14.00"> (0)</text>
</g>
<!-- node20&#45;&gt;node30 -->
<g id="edge43" class="edge"><title>node20&#45;&gt;node30</title>
<path fill="none" stroke="black" d="M1120.75,-337.407C1137.8,-334.316 1157.69,-330.709 1175.66,-327.45"/>
<polygon fill="black" stroke="black" points="1176.48,-330.858 1185.7,-325.629 1175.24,-323.97 1176.48,-330.858"/>
<text text-anchor="middle" x="1153.33" y="-336.8" font-family="Times New Roman,serif" font-size="14.00"> (1)</text>
</g>
<!-- node24 -->
<g id="node25" class="node"><title>node24</title>
<ellipse fill="none" stroke="black" cx="1373.16" cy="-186" rx="40.8928" ry="18"/>
<text text-anchor="middle" x="1373.16" y="-182.3" font-family="Times New Roman,serif" font-size="14.00">(24) OR</text>
</g>
<!-- node21&#45;&gt;node24 -->
<g id="edge31" class="edge"><title>node21&#45;&gt;node24</title>
<path fill="none" stroke="black" d="M234.797,-186C280.031,-186 351.142,-186 412.721,-186 412.721,-186 412.721,-186 1229.77,-186 1260.35,-186 1294.62,-186 1321.88,-186"/>
<polygon fill="black" stroke="black" points="1321.96,-189.5 1331.96,-186 1321.96,-182.5 1321.96,-189.5"/>
<text text-anchor="middle" x="851.543" y="-189.8" font-family="Times New Roman,serif" font-size="14.00"> (1)</text>
</g>
<!-- node22&#45;&gt;node24 -->
<g id="edge30" class="edge"><title>node22&#45;&gt;node24</title>
<path fill="none" stroke="black" d="M1263.88,-224.024C1284.14,-216.909 1309.97,-207.841 1331.31,-200.345"/>
<polygon fill="black" stroke="black" points="1332.49,-203.639 1340.77,-197.024 1330.18,-197.035 1332.49,-203.639"/>
<text text-anchor="middle" x="1304.22" y="-215.8" font-family="Times New Roman,serif" font-size="14.00"> (0)</text>
</g>
<!-- node26 -->
<g id="node27" class="node"><title>node26</title>
<ellipse fill="none" stroke="black" cx="1517.56" cy="-64" rx="46.5926" ry="18"/>
<text text-anchor="middle" x="1517.56" y="-60.3" font-family="Times New Roman,serif" font-size="14.00">(26) AND</text>
</g>
<!-- node23&#45;&gt;node26 -->
<g id="edge34" class="edge"><title>node23&#45;&gt;node26</title>
<path fill="none" stroke="black" d="M344.157,-81.4313C389.041,-74.0732 462.087,-64 525.613,-64 525.613,-64 525.613,-64 1374.16,-64 1402.64,-64 1434.33,-64 1460.57,-64"/>
<polygon fill="black" stroke="black" points="1460.71,-67.5001 1470.71,-64 1460.71,-60.5001 1460.71,-67.5001"/>
<text text-anchor="middle" x="926.989" y="-67.8" font-family="Times New Roman,serif" font-size="14.00"> (0)</text>
</g>
<!-- node29 -->
<g id="node30" class="node"><title>node29</title>
<ellipse fill="none" stroke="black" cx="1517.56" cy="-152" rx="47.3916" ry="18"/>
<text text-anchor="middle" x="1517.56" y="-148.3" font-family="Times New Roman,serif" font-size="14.00">(29) XOR</text>
</g>
<!-- node23&#45;&gt;node29 -->
<g id="edge41" class="edge"><title>node23&#45;&gt;node29</title>
<path fill="none" stroke="black" d="M343.731,-96.8009C388.568,-104.459 461.86,-115 525.613,-115 525.613,-115 525.613,-115 1374.16,-115 1409.12,-115 1447.4,-125.575 1475.46,-135.418"/>
<polygon fill="black" stroke="black" points="1474.34,-138.736 1484.93,-138.851 1476.72,-132.154 1474.34,-138.736"/>
<text text-anchor="middle" x="926.989" y="-118.8" font-family="Times New Roman,serif" font-size="14.00"> (1)</text>
</g>
<!-- node24&#45;&gt;node26 -->
<g id="edge35" class="edge"><title>node24&#45;&gt;node26</title>
<path fill="none" stroke="black" d="M1392.78,-170.051C1417.48,-148.888 1461.26,-111.379 1489.58,-87.1132"/>
<polygon fill="black" stroke="black" points="1492.17,-89.5069 1497.48,-80.3427 1487.61,-84.1912 1492.17,-89.5069"/>
<text text-anchor="middle" x="1442.11" y="-138.8" font-family="Times New Roman,serif" font-size="14.00"> (1)</text>
</g>
<!-- node24&#45;&gt;node29 -->
<g id="edge40" class="edge"><title>node24&#45;&gt;node29</title>
<path fill="none" stroke="black" d="M1409.73,-177.508C1427.05,-173.373 1448.15,-168.334 1467.02,-163.829"/>
<polygon fill="black" stroke="black" points="1468.02,-167.188 1476.93,-161.461 1466.39,-160.379 1468.02,-167.188"/>
<text text-anchor="middle" x="1442.11" y="-175.8" font-family="Times New Roman,serif" font-size="14.00"> (0)</text>
</g>
<!-- node32 -->
<g id="node33" class="node"><title>node32</title>
<ellipse fill="none" stroke="black" cx="1795.79" cy="-505" rx="42.7926" ry="18"/>
<text text-anchor="middle" x="1795.79" y="-501.3" font-family="Times New Roman,serif" font-size="14.00">Output 1</text>
</g>
<!-- node25&#45;&gt;node32 -->
<g id="edge45" class="edge"><title>node25&#45;&gt;node32</title>
<path fill="none" stroke="black" d="M1125.49,-505C1154.84,-505 1193.52,-505 1227.77,-505 1227.77,-505 1227.77,-505 1669.45,-505 1693.51,-505 1720.17,-505 1742.69,-505"/>
<polygon fill="black" stroke="black" points="1742.72,-508.5 1752.72,-505 1742.72,-501.5 1742.72,-508.5"/>
</g>
<!-- node26&#45;&gt;node28 -->
<g id="edge38" class="edge"><title>node26&#45;&gt;node28</title>
<path fill="none" stroke="black" d="M1560.43,-56.6884C1577.4,-53.724 1597.19,-50.2681 1615.11,-47.1401"/>
<polygon fill="black" stroke="black" points="1615.87,-50.5601 1625.12,-45.392 1614.66,-43.6645 1615.87,-50.5601"/>
<text text-anchor="middle" x="1593" y="-56.8" font-family="Times New Roman,serif" font-size="14.00"> (0)</text>
</g>
<!-- node31 -->
<g id="node32" class="node"><title>node31</title>
<ellipse fill="none" stroke="black" cx="1795.79" cy="-743" rx="42.7926" ry="18"/>
<text text-anchor="middle" x="1795.79" y="-739.3" font-family="Times New Roman,serif" font-size="14.00">Output 0</text>
</g>
<!-- node27&#45;&gt;node31 -->
<g id="edge44" class="edge"><title>node27&#45;&gt;node31</title>
<path fill="none" stroke="black" d="M461.345,-743C505.345,-743 573.158,-743 632.005,-743 632.005,-743 632.005,-743 1669.45,-743 1693.51,-743 1720.17,-743 1742.69,-743"/>
<polygon fill="black" stroke="black" points="1742.72,-746.5 1752.72,-743 1742.72,-739.5 1742.72,-746.5"/>
</g>
<!-- node35 -->
<g id="node36" class="node"><title>node35</title>
<ellipse fill="none" stroke="black" cx="1795.79" cy="-38" rx="42.7926" ry="18"/>
<text text-anchor="middle" x="1795.79" y="-34.3" font-family="Times New Roman,serif" font-size="14.00">Output 4</text>
</g>
<!-- node28&#45;&gt;node35 -->
<g id="edge48" class="edge"><title>node28&#45;&gt;node35</title>
<path fill="none" stroke="black" d="M1716.12,-38C1724.73,-38 1733.76,-38 1742.52,-38"/>
<polygon fill="black" stroke="black" points="1742.63,-41.5001 1752.63,-38 1742.63,-34.5001 1742.63,-41.5001"/>
</g>
<!-- node34 -->
<g id="node35" class="node"><title>node34</title>
<ellipse fill="none" stroke="black" cx="1795.79" cy="-152" rx="42.7926" ry="18"/>
<text text-anchor="middle" x="1795.79" y="-148.3" font-family="Times New Roman,serif" font-size="14.00">Output 3</text>
</g>
<!-- node29&#45;&gt;node34 -->
<g id="edge47" class="edge"><title>node29&#45;&gt;node34</title>
<path fill="none" stroke="black" d="M1565.1,-152C1614.16,-152 1691.25,-152 1742.4,-152"/>
<polygon fill="black" stroke="black" points="1742.59,-155.5 1752.59,-152 1742.59,-148.5 1742.59,-155.5"/>
</g>
<!-- node33 -->
<g id="node34" class="node"><title>node33</title>
<ellipse fill="none" stroke="black" cx="1795.79" cy="-318" rx="42.7926" ry="18"/>
<text text-anchor="middle" x="1795.79" y="-314.3" font-family="Times New Roman,serif" font-size="14.00">Output 2</text>
</g>
<!-- node30&#45;&gt;node33 -->
<g id="edge46" class="edge"><title>node30&#45;&gt;node33</title>
<path fill="none" stroke="black" d="M1276.27,-318C1304.09,-318 1340.15,-318 1372.16,-318 1372.16,-318 1372.16,-318 1669.45,-318 1693.51,-318 1720.17,-318 1742.69,-318"/>
<polygon fill="black" stroke="black" points="1742.72,-321.5 1752.72,-318 1742.72,-314.5 1742.72,-321.5"/>
</g>
</g>
</svg>
