<?xml version="1.0" encoding="UTF-8" standalone="no"?>
<!DOCTYPE svg PUBLIC "-//W3C//DTD SVG 1.1//EN"
 "http://www.w3.org/Graphics/SVG/1.1/DTD/svg11.dtd">
<!-- Generated by graphviz version 2.38.0 (20140413.2041)
 -->
<!-- Title: NeuralNetwork Pages: 1 -->
<svg width="288pt" height="203pt"
 viewBox="0.00 0.00 288.00 202.88" xmlns="http://www.w3.org/2000/svg" xmlns:xlink="http://www.w3.org/1999/xlink">
<g id="graph0" class="graph" transform="scale(0.236177 0.236177) rotate(0) translate(4 855)">
<title>NeuralNetwork</title>
<polygon fill="white" stroke="none" points="-4,4 -4,-855 1215.43,-855 1215.43,4 -4,4"/>
<!-- node0 -->
<g id="node1" class="node"><title>node0</title>
<ellipse fill="none" stroke="black" cx="42.2463" cy="-18" rx="42.4939" ry="18"/>
<text text-anchor="middle" x="42.2463" y="-14.3" font-family="Times New Roman,serif" font-size="14.00">(0) Input</text>
</g>
<!-- node9 -->
<g id="node10" class="node"><title>node9</title>
<ellipse fill="none" stroke="black" cx="193.138" cy="-94" rx="52.7911" ry="18"/>
<text text-anchor="middle" x="193.138" y="-90.3" font-family="Times New Roman,serif" font-size="14.00">(9) MAJ!02</text>
</g>
<!-- node0&#45;&gt;node9 -->
<g id="edge2" class="edge"><title>node0&#45;&gt;node9</title>
<path fill="none" stroke="black" d="M82.459,-12.4245C95.6648,-12.1045 110.167,-13.5325 122.493,-19 145.038,-29.001 163.61,-50.2058 175.889,-67.5248"/>
<polygon fill="black" stroke="black" points="173.221,-69.8272 181.724,-76.1473 179.018,-65.9039 173.221,-69.8272"/>
<text text-anchor="middle" x="112.493" y="-22.8" font-family="Times New Roman,serif" font-size="14.00"> (1)</text>
</g>
<!-- node10 -->
<g id="node11" class="node"><title>node10</title>
<ellipse fill="none" stroke="black" cx="193.138" cy="-177" rx="45.4919" ry="18"/>
<text text-anchor="middle" x="193.138" y="-173.3" font-family="Times New Roman,serif" font-size="14.00">(10) MAJ</text>
</g>
<!-- node0&#45;&gt;node10 -->
<g id="edge6" class="edge"><title>node0&#45;&gt;node10</title>
<path fill="none" stroke="black" d="M70.2687,-31.6703C87.2618,-41.4518 108.536,-56.0429 122.493,-74 136.219,-91.6615 128.699,-101.993 140.493,-121 147.645,-132.528 157.358,-143.808 166.431,-153.189"/>
<polygon fill="black" stroke="black" points="163.964,-155.673 173.508,-160.273 168.917,-150.725 163.964,-155.673"/>
<text text-anchor="middle" x="112.493" y="-78.8" font-family="Times New Roman,serif" font-size="14.00"> (2)</text>
</g>
<!-- node19 -->
<g id="node20" class="node"><title>node19</title>
<ellipse fill="none" stroke="black" cx="363.528" cy="-94" rx="57.3905" ry="18"/>
<text text-anchor="middle" x="363.528" y="-90.3" font-family="Times New Roman,serif" font-size="14.00">(19) MAJ!12</text>
</g>
<!-- node0&#45;&gt;node19 -->
<g id="edge31" class="edge"><title>node0&#45;&gt;node19</title>
<path fill="none" stroke="black" d="M80.4659,-10.1909C93.7742,-8.46648 108.85,-7.74013 122.493,-10 195.231,-22.0495 275.213,-54.1229 322.036,-74.9687"/>
<polygon fill="black" stroke="black" points="320.672,-78.1932 331.228,-79.107 323.546,-71.8103 320.672,-78.1932"/>
<text text-anchor="middle" x="193.138" y="-46.8" font-family="Times New Roman,serif" font-size="14.00"> (0)</text>
</g>
<!-- node1 -->
<g id="node2" class="node"><title>node1</title>
<ellipse fill="none" stroke="black" cx="42.2463" cy="-299" rx="42.4939" ry="18"/>
<text text-anchor="middle" x="42.2463" y="-295.3" font-family="Times New Roman,serif" font-size="14.00">(1) Input</text>
</g>
<!-- node11 -->
<g id="node12" class="node"><title>node11</title>
<ellipse fill="none" stroke="black" cx="363.528" cy="-412" rx="61.99" ry="18"/>
<text text-anchor="middle" x="363.528" y="-408.3" font-family="Times New Roman,serif" font-size="14.00">(11) MAJ!012</text>
</g>
<!-- node1&#45;&gt;node11 -->
<g id="edge9" class="edge"><title>node1&#45;&gt;node11</title>
<path fill="none" stroke="black" d="M79.2256,-308.047C120.107,-318.696 188.574,-337.657 245.783,-359 271.695,-368.667 299.956,-381.435 322.181,-392.017"/>
<polygon fill="black" stroke="black" points="320.782,-395.228 331.312,-396.403 323.813,-388.918 320.782,-395.228"/>
<text text-anchor="middle" x="193.138" y="-362.8" font-family="Times New Roman,serif" font-size="14.00"> (2)</text>
</g>
<!-- node15 -->
<g id="node16" class="node"><title>node15</title>
<ellipse fill="none" stroke="black" cx="363.528" cy="-251" rx="52.7911" ry="18"/>
<text text-anchor="middle" x="363.528" y="-247.3" font-family="Times New Roman,serif" font-size="14.00">(15) MAJ!0</text>
</g>
<!-- node1&#45;&gt;node15 -->
<g id="edge19" class="edge"><title>node1&#45;&gt;node15</title>
<path fill="none" stroke="black" d="M75.7962,-288.006C94.5407,-282.001 118.645,-274.826 140.493,-270 194.566,-258.056 208.573,-256.29 263.783,-252 275.668,-251.077 288.381,-250.581 300.596,-250.349"/>
<polygon fill="black" stroke="black" points="300.758,-253.847 310.71,-250.212 300.664,-246.848 300.758,-253.847"/>
<text text-anchor="middle" x="193.138" y="-273.8" font-family="Times New Roman,serif" font-size="14.00"> (0)</text>
</g>
<!-- node20 -->
<g id="node21" class="node"><title>node20</title>
<ellipse fill="none" stroke="black" cx="533.918" cy="-334" rx="45.4919" ry="18"/>
<text text-anchor="middle" x="533.918" y="-330.3" font-family="Times New Roman,serif" font-size="14.00">(20) MAJ</text>
</g>
<!-- node1&#45;&gt;node20 -->
<g id="edge36" class="edge"><title>node1&#45;&gt;node20</title>
<path fill="none" stroke="black" d="M84.1531,-301.924C172.288,-308.223 380.099,-323.077 478.908,-330.14"/>
<polygon fill="black" stroke="black" points="478.755,-333.637 488.979,-330.859 479.254,-326.655 478.755,-333.637"/>
<text text-anchor="middle" x="273.783" y="-319.8" font-family="Times New Roman,serif" font-size="14.00"> (2)</text>
</g>
<!-- node2 -->
<g id="node3" class="node"><title>node2</title>
<ellipse fill="none" stroke="black" cx="42.2463" cy="-519" rx="42.4939" ry="18"/>
<text text-anchor="middle" x="42.2463" y="-515.3" font-family="Times New Roman,serif" font-size="14.00">(2) Input</text>
</g>
<!-- node12 -->
<g id="node13" class="node"><title>node12</title>
<ellipse fill="none" stroke="black" cx="533.918" cy="-587" rx="52.7911" ry="18"/>
<text text-anchor="middle" x="533.918" y="-583.3" font-family="Times New Roman,serif" font-size="14.00">(12) MAJ!0</text>
</g>
<!-- node2&#45;&gt;node12 -->
<g id="edge12" class="edge"><title>node2&#45;&gt;node12</title>
<path fill="none" stroke="black" d="M82.9033,-524.507C169.082,-536.475 373.779,-564.901 474.665,-578.911"/>
<polygon fill="black" stroke="black" points="474.297,-582.393 484.683,-580.302 475.26,-575.459 474.297,-582.393"/>
<text text-anchor="middle" x="273.783" y="-555.8" font-family="Times New Roman,serif" font-size="14.00"> (2)</text>
</g>
<!-- node14 -->
<g id="node15" class="node"><title>node14</title>
<ellipse fill="none" stroke="black" cx="861.048" cy="-536" rx="57.3905" ry="18"/>
<text text-anchor="middle" x="861.048" y="-532.3" font-family="Times New Roman,serif" font-size="14.00">(14) MAJ!12</text>
</g>
<!-- node2&#45;&gt;node14 -->
<g id="edge16" class="edge"><title>node2&#45;&gt;node14</title>
<path fill="none" stroke="black" d="M76.8854,-508.612C106.828,-500.291 151.977,-490 192.138,-490 192.138,-490 192.138,-490 696.208,-490 738.914,-490 785.628,-504.665 818.208,-517.435"/>
<polygon fill="black" stroke="black" points="817.262,-520.827 827.846,-521.319 819.879,-514.335 817.262,-520.827"/>
<text text-anchor="middle" x="453.272" y="-493.8" font-family="Times New Roman,serif" font-size="14.00"> (0)</text>
</g>
<!-- node3 -->
<g id="node4" class="node"><title>node3</title>
<ellipse fill="none" stroke="black" cx="42.2463" cy="-690" rx="42.4939" ry="18"/>
<text text-anchor="middle" x="42.2463" y="-686.3" font-family="Times New Roman,serif" font-size="14.00">(3) Input</text>
</g>
<!-- node16 -->
<g id="node17" class="node"><title>node16</title>
<ellipse fill="none" stroke="black" cx="861.048" cy="-730" rx="45.4919" ry="18"/>
<text text-anchor="middle" x="861.048" y="-726.3" font-family="Times New Roman,serif" font-size="14.00">(16) MAJ</text>
</g>
<!-- node3&#45;&gt;node16 -->
<g id="edge23" class="edge"><title>node3&#45;&gt;node16</title>
<path fill="none" stroke="black" d="M79.0896,-699.073C109.087,-705.87 153.125,-714 192.138,-714 192.138,-714 192.138,-714 615.563,-714 681.484,-714 757.19,-719.864 806.675,-724.492"/>
<polygon fill="black" stroke="black" points="806.537,-727.994 816.824,-725.458 807.201,-721.026 806.537,-727.994"/>
<text text-anchor="middle" x="453.272" y="-717.8" font-family="Times New Roman,serif" font-size="14.00"> (1)</text>
</g>
<!-- node17 -->
<g id="node18" class="node"><title>node17</title>
<ellipse fill="none" stroke="black" cx="861.048" cy="-676" rx="57.3905" ry="18"/>
<text text-anchor="middle" x="861.048" y="-672.3" font-family="Times New Roman,serif" font-size="14.00">(17) MAJ!12</text>
</g>
<!-- node3&#45;&gt;node17 -->
<g id="edge27" class="edge"><title>node3&#45;&gt;node17</title>
<path fill="none" stroke="black" d="M82.3378,-684.306C112.314,-680.43 154.751,-676 192.138,-676 192.138,-676 192.138,-676 696.208,-676 728.141,-676 763.575,-676 793.298,-676"/>
<polygon fill="black" stroke="black" points="793.558,-679.5 803.558,-676 793.558,-672.5 793.558,-679.5"/>
<text text-anchor="middle" x="453.272" y="-679.8" font-family="Times New Roman,serif" font-size="14.00"> (2)</text>
</g>
<!-- node4 -->
<g id="node5" class="node"><title>node4</title>
<ellipse fill="none" stroke="black" cx="42.2463" cy="-109" rx="42.4939" ry="18"/>
<text text-anchor="middle" x="42.2463" y="-105.3" font-family="Times New Roman,serif" font-size="14.00">(4) Input</text>
</g>
<!-- node4&#45;&gt;node9 -->
<g id="edge1" class="edge"><title>node4&#45;&gt;node9</title>
<path fill="none" stroke="black" d="M78.1024,-99.4141C86.0586,-97.6041 94.5193,-95.9743 102.493,-95 111.456,-93.9047 120.96,-93.2545 130.301,-92.9038"/>
<polygon fill="black" stroke="black" points="130.436,-96.4016 140.338,-92.6341 130.248,-89.4041 130.436,-96.4016"/>
<text text-anchor="middle" x="112.493" y="-98.8" font-family="Times New Roman,serif" font-size="14.00"> (0)</text>
</g>
<!-- node4&#45;&gt;node10 -->
<g id="edge5" class="edge"><title>node4&#45;&gt;node10</title>
<path fill="none" stroke="black" d="M63.8181,-124.526C74.8581,-132.337 88.9485,-141.499 102.493,-148 115.783,-154.379 130.826,-159.861 144.741,-164.287"/>
<polygon fill="black" stroke="black" points="144.046,-167.735 154.632,-167.321 146.098,-161.042 144.046,-167.735"/>
<text text-anchor="middle" x="112.493" y="-159.8" font-family="Times New Roman,serif" font-size="14.00"> (1)</text>
</g>
<!-- node5 -->
<g id="node6" class="node"><title>node5</title>
<ellipse fill="none" stroke="black" cx="42.2463" cy="-421" rx="42.4939" ry="18"/>
<text text-anchor="middle" x="42.2463" y="-417.3" font-family="Times New Roman,serif" font-size="14.00">(5) Input</text>
</g>
<!-- node5&#45;&gt;node11 -->
<g id="edge7" class="edge"><title>node5&#45;&gt;node11</title>
<path fill="none" stroke="black" d="M84.6594,-419.833C137.004,-418.357 227.931,-415.794 291.467,-414.003"/>
<polygon fill="black" stroke="black" points="291.915,-417.492 301.813,-413.711 291.718,-410.495 291.915,-417.492"/>
<text text-anchor="middle" x="193.138" y="-421.8" font-family="Times New Roman,serif" font-size="14.00"> (0)</text>
</g>
<!-- node5&#45;&gt;node15 -->
<g id="edge21" class="edge"><title>node5&#45;&gt;node15</title>
<path fill="none" stroke="black" d="M78.2606,-411.587C96.723,-406.728 119.78,-400.824 140.493,-396 187.053,-385.157 212.361,-408.182 245.783,-374 276.437,-342.649 233.946,-309.13 263.783,-277 273.731,-266.287 287.517,-259.778 301.636,-255.876"/>
<polygon fill="black" stroke="black" points="302.49,-259.271 311.421,-253.572 300.885,-252.458 302.49,-259.271"/>
<text text-anchor="middle" x="193.138" y="-399.8" font-family="Times New Roman,serif" font-size="14.00"> (2)</text>
</g>
<!-- node6 -->
<g id="node7" class="node"><title>node6</title>
<ellipse fill="none" stroke="black" cx="42.2463" cy="-619" rx="42.4939" ry="18"/>
<text text-anchor="middle" x="42.2463" y="-615.3" font-family="Times New Roman,serif" font-size="14.00">(6) Input</text>
</g>
<!-- node6&#45;&gt;node12 -->
<g id="edge10" class="edge"><title>node6&#45;&gt;node12</title>
<path fill="none" stroke="black" d="M84.2946,-616.149C128.58,-613.086 201.173,-608.107 263.783,-604 335.103,-599.322 417.069,-594.178 471.623,-590.787"/>
<polygon fill="black" stroke="black" points="472.055,-594.267 481.819,-590.154 471.621,-587.281 472.055,-594.267"/>
<text text-anchor="middle" x="273.783" y="-607.8" font-family="Times New Roman,serif" font-size="14.00"> (0)</text>
</g>
<!-- node13 -->
<g id="node14" class="node"><title>node13</title>
<ellipse fill="none" stroke="black" cx="695.208" cy="-604" rx="52.7911" ry="18"/>
<text text-anchor="middle" x="695.208" y="-600.3" font-family="Times New Roman,serif" font-size="14.00">(13) MAJ!2</text>
</g>
<!-- node6&#45;&gt;node13 -->
<g id="edge14" class="edge"><title>node6&#45;&gt;node13</title>
<path fill="none" stroke="black" d="M82.3378,-624.694C112.314,-628.57 154.751,-633 192.138,-633 192.138,-633 192.138,-633 534.918,-633 572.076,-633 613.333,-625.267 644.548,-617.788"/>
<polygon fill="black" stroke="black" points="645.442,-621.172 654.312,-615.378 643.765,-614.376 645.442,-621.172"/>
<text text-anchor="middle" x="363.528" y="-636.8" font-family="Times New Roman,serif" font-size="14.00"> (1)</text>
</g>
<!-- node7 -->
<g id="node8" class="node"><title>node7</title>
<ellipse fill="none" stroke="black" cx="42.2463" cy="-790" rx="42.4939" ry="18"/>
<text text-anchor="middle" x="42.2463" y="-786.3" font-family="Times New Roman,serif" font-size="14.00">(7) Input</text>
</g>
<!-- node7&#45;&gt;node16 -->
<g id="edge24" class="edge"><title>node7&#45;&gt;node16</title>
<path fill="none" stroke="black" d="M84.6432,-790C114.518,-790 155.82,-790 192.138,-790 192.138,-790 192.138,-790 696.208,-790 743.767,-790 794.615,-767.433 826.83,-749.978"/>
<polygon fill="black" stroke="black" points="828.768,-752.906 835.805,-744.986 825.364,-746.789 828.768,-752.906"/>
<text text-anchor="middle" x="453.272" y="-793.8" font-family="Times New Roman,serif" font-size="14.00"> (2)</text>
</g>
<!-- node7&#45;&gt;node17 -->
<g id="edge25" class="edge"><title>node7&#45;&gt;node17</title>
<path fill="none" stroke="black" d="M73.1866,-777.662C102.854,-766.567 149.853,-752 192.138,-752 192.138,-752 192.138,-752 615.563,-752 654.72,-752 755.787,-716 814.997,-693.554"/>
<polygon fill="black" stroke="black" points="816.381,-696.772 824.478,-689.94 813.887,-690.231 816.381,-696.772"/>
<text text-anchor="middle" x="453.272" y="-755.8" font-family="Times New Roman,serif" font-size="14.00"> (0)</text>
</g>
<!-- node18 -->
<g id="node19" class="node"><title>node18</title>
<ellipse fill="none" stroke="black" cx="1031.44" cy="-765" rx="57.3905" ry="18"/>
<text text-anchor="middle" x="1031.44" y="-761.3" font-family="Times New Roman,serif" font-size="14.00">(18) MAJ!12</text>
</g>
<!-- node7&#45;&gt;node18 -->
<g id="edge28" class="edge"><title>node7&#45;&gt;node18</title>
<path fill="none" stroke="black" d="M70.19,-803.677C99.4383,-817.237 147.903,-836 192.138,-836 192.138,-836 192.138,-836 862.048,-836 913.089,-836 966.479,-807.961 999.109,-787.124"/>
<polygon fill="black" stroke="black" points="1001.3,-789.875 1007.74,-781.467 997.459,-784.02 1001.3,-789.875"/>
<text text-anchor="middle" x="533.918" y="-839.8" font-family="Times New Roman,serif" font-size="14.00"> (0)</text>
</g>
<!-- node8 -->
<g id="node9" class="node"><title>node8</title>
<ellipse fill="none" stroke="black" cx="42.2463" cy="-178" rx="42.4939" ry="18"/>
<text text-anchor="middle" x="42.2463" y="-174.3" font-family="Times New Roman,serif" font-size="14.00">(8) Input</text>
</g>
<!-- node8&#45;&gt;node9 -->
<g id="edge3" class="edge"><title>node8&#45;&gt;node9</title>
<path fill="none" stroke="black" d="M60.0316,-161.63C71.3334,-151.262 86.9599,-138.135 102.493,-129 115.364,-121.43 130.175,-114.88 144.001,-109.56"/>
<polygon fill="black" stroke="black" points="145.225,-112.839 153.381,-106.076 142.788,-106.277 145.225,-112.839"/>
<text text-anchor="middle" x="112.493" y="-132.8" font-family="Times New Roman,serif" font-size="14.00"> (2)</text>
</g>
<!-- node8&#45;&gt;node10 -->
<g id="edge4" class="edge"><title>node8&#45;&gt;node10</title>
<path fill="none" stroke="black" d="M82.3698,-184.037C89.0672,-184.854 95.9684,-185.562 102.493,-186 114.929,-186.836 128.309,-186.279 140.84,-185.116"/>
<polygon fill="black" stroke="black" points="141.558,-188.559 151.128,-184.014 140.812,-181.599 141.558,-188.559"/>
<text text-anchor="middle" x="112.493" y="-189.8" font-family="Times New Roman,serif" font-size="14.00"> (0)</text>
</g>
<!-- node9&#45;&gt;node19 -->
<g id="edge33" class="edge"><title>node9&#45;&gt;node19</title>
<path fill="none" stroke="black" d="M246.034,-94C261.799,-94 279.345,-94 295.936,-94"/>
<polygon fill="black" stroke="black" points="296.119,-97.5001 306.119,-94 296.119,-90.5001 296.119,-97.5001"/>
<text text-anchor="middle" x="273.783" y="-97.8" font-family="Times New Roman,serif" font-size="14.00"> (2)</text>
</g>
<!-- node10&#45;&gt;node11 -->
<g id="edge8" class="edge"><title>node10&#45;&gt;node11</title>
<path fill="none" stroke="black" d="M218.105,-192.156C227.422,-198.764 237.761,-207.046 245.783,-216 293.519,-269.276 332.007,-344.935 350.536,-384.877"/>
<polygon fill="black" stroke="black" points="347.364,-386.358 354.706,-393.996 353.73,-383.446 347.364,-386.358"/>
<text text-anchor="middle" x="273.783" y="-268.8" font-family="Times New Roman,serif" font-size="14.00"> (1)</text>
</g>
<!-- node10&#45;&gt;node15 -->
<g id="edge20" class="edge"><title>node10&#45;&gt;node15</title>
<path fill="none" stroke="black" d="M229.085,-188.14C245.856,-193.823 266.101,-201.179 283.783,-209 298.29,-215.416 313.787,-223.417 327.162,-230.71"/>
<polygon fill="black" stroke="black" points="325.599,-233.845 336.045,-235.617 328.984,-227.718 325.599,-233.845"/>
<text text-anchor="middle" x="273.783" y="-212.8" font-family="Times New Roman,serif" font-size="14.00"> (1)</text>
</g>
<!-- node10&#45;&gt;node19 -->
<g id="edge32" class="edge"><title>node10&#45;&gt;node19</title>
<path fill="none" stroke="black" d="M222.323,-163.108C249.813,-149.557 291.885,-128.82 322.771,-113.596"/>
<polygon fill="black" stroke="black" points="324.547,-116.623 331.969,-109.062 321.452,-110.344 324.547,-116.623"/>
<text text-anchor="middle" x="273.783" y="-143.8" font-family="Times New Roman,serif" font-size="14.00"> (1)</text>
</g>
<!-- node11&#45;&gt;node12 -->
<g id="edge11" class="edge"><title>node11&#45;&gt;node12</title>
<path fill="none" stroke="black" d="M379.234,-429.753C394.98,-448.714 420.744,-479.606 443.272,-506 452.067,-516.304 454.96,-518.304 463.272,-529 471.896,-540.097 471.085,-545.318 481.272,-555 485.582,-559.096 490.499,-562.941 495.545,-566.445"/>
<polygon fill="black" stroke="black" points="493.788,-569.477 504.077,-572.006 497.611,-563.613 493.788,-569.477"/>
<text text-anchor="middle" x="453.272" y="-532.8" font-family="Times New Roman,serif" font-size="14.00"> (1)</text>
</g>
<!-- node11&#45;&gt;node13 -->
<g id="edge15" class="edge"><title>node11&#45;&gt;node13</title>
<path fill="none" stroke="black" d="M391.78,-428.263C411.613,-440.104 439.115,-456.533 463.272,-471 518.101,-503.834 532.279,-511.272 586.563,-545 611.695,-560.615 616.528,-566.941 642.563,-581 645.591,-582.635 648.758,-584.254 651.97,-585.83"/>
<polygon fill="black" stroke="black" points="650.525,-589.018 661.06,-590.137 653.522,-582.692 650.525,-589.018"/>
<text text-anchor="middle" x="533.918" y="-548.8" font-family="Times New Roman,serif" font-size="14.00"> (2)</text>
</g>
<!-- node11&#45;&gt;node20 -->
<g id="edge35" class="edge"><title>node11&#45;&gt;node20</title>
<path fill="none" stroke="black" d="M397.395,-396.776C425.291,-383.854 465.343,-365.301 494.672,-351.716"/>
<polygon fill="black" stroke="black" points="496.186,-354.872 503.788,-347.493 493.243,-348.52 496.186,-354.872"/>
<text text-anchor="middle" x="453.272" y="-378.8" font-family="Times New Roman,serif" font-size="14.00"> (1)</text>
</g>
<!-- node12&#45;&gt;node13 -->
<g id="edge13" class="edge"><title>node12&#45;&gt;node13</title>
<path fill="none" stroke="black" d="M584.445,-592.286C600.328,-593.981 618.084,-595.876 634.609,-597.639"/>
<polygon fill="black" stroke="black" points="634.396,-601.136 644.711,-598.718 635.139,-594.176 634.396,-601.136"/>
<text text-anchor="middle" x="614.563" y="-599.8" font-family="Times New Roman,serif" font-size="14.00"> (0)</text>
</g>
<!-- node12&#45;&gt;node14 -->
<g id="edge18" class="edge"><title>node12&#45;&gt;node14</title>
<path fill="none" stroke="black" d="M576.362,-576.259C596.276,-571.385 620.547,-565.861 642.563,-562 693.709,-553.031 752.172,-546.233 795.593,-541.841"/>
<polygon fill="black" stroke="black" points="796.131,-545.305 805.735,-540.832 795.437,-538.34 796.131,-545.305"/>
<text text-anchor="middle" x="695.208" y="-565.8" font-family="Times New Roman,serif" font-size="14.00"> (2)</text>
</g>
<!-- node13&#45;&gt;node14 -->
<g id="edge17" class="edge"><title>node13&#45;&gt;node14</title>
<path fill="none" stroke="black" d="M725.776,-589.295C738.063,-583.366 752.539,-576.616 765.854,-571 780.886,-564.66 797.505,-558.281 812.546,-552.739"/>
<polygon fill="black" stroke="black" points="813.976,-555.943 822.169,-549.226 811.575,-549.367 813.976,-555.943"/>
<text text-anchor="middle" x="775.854" y="-574.8" font-family="Times New Roman,serif" font-size="14.00"> (1)</text>
</g>
<!-- node13&#45;&gt;node16 -->
<g id="edge22" class="edge"><title>node13&#45;&gt;node16</title>
<path fill="none" stroke="black" d="M712.044,-621.437C731.959,-642.65 767.916,-678.637 803.854,-703 808.847,-706.385 814.33,-709.576 819.852,-712.497"/>
<polygon fill="black" stroke="black" points="818.596,-715.783 829.103,-717.144 821.738,-709.528 818.596,-715.783"/>
<text text-anchor="middle" x="775.854" y="-691.8" font-family="Times New Roman,serif" font-size="14.00"> (0)</text>
</g>
<!-- node13&#45;&gt;node17 -->
<g id="edge26" class="edge"><title>node13&#45;&gt;node17</title>
<path fill="none" stroke="black" d="M747.334,-600.942C760.291,-601.744 773.913,-604.02 785.854,-609 807.073,-617.849 826.199,-635.48 839.716,-650.435"/>
<polygon fill="black" stroke="black" points="837.427,-653.138 846.626,-658.395 842.714,-648.549 837.427,-653.138"/>
<text text-anchor="middle" x="775.854" y="-612.8" font-family="Times New Roman,serif" font-size="14.00"> (1)</text>
</g>
<!-- node23 -->
<g id="node24" class="node"><title>node23</title>
<ellipse fill="none" stroke="black" cx="1168.53" cy="-536" rx="42.7926" ry="18"/>
<text text-anchor="middle" x="1168.53" y="-532.3" font-family="Times New Roman,serif" font-size="14.00">Output 2</text>
</g>
<!-- node14&#45;&gt;node23 -->
<g id="edge39" class="edge"><title>node14&#45;&gt;node23</title>
<path fill="none" stroke="black" d="M918.434,-536C974.634,-536 1060.25,-536 1115.04,-536"/>
<polygon fill="black" stroke="black" points="1115.23,-539.5 1125.23,-536 1115.23,-532.5 1115.23,-539.5"/>
</g>
<!-- node15&#45;&gt;node20 -->
<g id="edge34" class="edge"><title>node15&#45;&gt;node20</title>
<path fill="none" stroke="black" d="M394.245,-265.648C422.481,-279.566 465.044,-300.545 495.563,-315.588"/>
<polygon fill="black" stroke="black" points="494.102,-318.77 504.619,-320.051 497.196,-312.491 494.102,-318.77"/>
<text text-anchor="middle" x="453.272" y="-300.8" font-family="Times New Roman,serif" font-size="14.00"> (0)</text>
</g>
<!-- node16&#45;&gt;node18 -->
<g id="edge30" class="edge"><title>node16&#45;&gt;node18</title>
<path fill="none" stroke="black" d="M901.954,-738.295C923.314,-742.734 949.991,-748.279 973.492,-753.164"/>
<polygon fill="black" stroke="black" points="972.842,-756.603 983.345,-755.212 974.267,-749.75 972.842,-756.603"/>
<text text-anchor="middle" x="946.243" y="-752.8" font-family="Times New Roman,serif" font-size="14.00"> (2)</text>
</g>
<!-- node25 -->
<g id="node26" class="node"><title>node25</title>
<ellipse fill="none" stroke="black" cx="1168.53" cy="-694" rx="42.7926" ry="18"/>
<text text-anchor="middle" x="1168.53" y="-690.3" font-family="Times New Roman,serif" font-size="14.00">Output 4</text>
</g>
<!-- node16&#45;&gt;node25 -->
<g id="edge41" class="edge"><title>node16&#45;&gt;node25</title>
<path fill="none" stroke="black" d="M895.642,-718.275C908.227,-714.353 922.747,-710.377 936.243,-708 997.016,-697.295 1068,-694.392 1115.14,-693.785"/>
<polygon fill="black" stroke="black" points="1115.45,-697.283 1125.41,-693.685 1115.38,-690.283 1115.45,-697.283"/>
</g>
<!-- node17&#45;&gt;node18 -->
<g id="edge29" class="edge"><title>node17&#45;&gt;node18</title>
<path fill="none" stroke="black" d="M893.709,-690.823C901.756,-694.697 910.356,-698.93 918.243,-703 943.854,-716.216 972.264,-731.926 994.088,-744.226"/>
<polygon fill="black" stroke="black" points="992.582,-747.395 1003.01,-749.271 996.028,-741.302 992.582,-747.395"/>
<text text-anchor="middle" x="946.243" y="-725.8" font-family="Times New Roman,serif" font-size="14.00"> (1)</text>
</g>
<!-- node24 -->
<g id="node25" class="node"><title>node24</title>
<ellipse fill="none" stroke="black" cx="1168.53" cy="-765" rx="42.7926" ry="18"/>
<text text-anchor="middle" x="1168.53" y="-761.3" font-family="Times New Roman,serif" font-size="14.00">Output 3</text>
</g>
<!-- node18&#45;&gt;node24 -->
<g id="edge40" class="edge"><title>node18&#45;&gt;node24</title>
<path fill="none" stroke="black" d="M1088.95,-765C1097.58,-765 1106.46,-765 1115.01,-765"/>
<polygon fill="black" stroke="black" points="1115.23,-768.5 1125.23,-765 1115.23,-761.5 1115.23,-768.5"/>
</g>
<!-- node21 -->
<g id="node22" class="node"><title>node21</title>
<ellipse fill="none" stroke="black" cx="1168.53" cy="-94" rx="42.7926" ry="18"/>
<text text-anchor="middle" x="1168.53" y="-90.3" font-family="Times New Roman,serif" font-size="14.00">Output 0</text>
</g>
<!-- node19&#45;&gt;node21 -->
<g id="edge37" class="edge"><title>node19&#45;&gt;node21</title>
<path fill="none" stroke="black" d="M421.042,-94C453.729,-94 495.644,-94 532.918,-94 532.918,-94 532.918,-94 1032.44,-94 1059.85,-94 1090.4,-94 1115.5,-94"/>
<polygon fill="black" stroke="black" points="1115.54,-97.5001 1125.54,-94 1115.54,-90.5001 1115.54,-97.5001"/>
</g>
<!-- node22 -->
<g id="node23" class="node"><title>node22</title>
<ellipse fill="none" stroke="black" cx="1168.53" cy="-334" rx="42.7926" ry="18"/>
<text text-anchor="middle" x="1168.53" y="-330.3" font-family="Times New Roman,serif" font-size="14.00">Output 1</text>
</g>
<!-- node20&#45;&gt;node22 -->
<g id="edge38" class="edge"><title>node20&#45;&gt;node22</title>
<path fill="none" stroke="black" d="M579.547,-334C611.482,-334 655.492,-334 694.208,-334 694.208,-334 694.208,-334 1032.44,-334 1059.85,-334 1090.4,-334 1115.5,-334"/>
<polygon fill="black" stroke="black" points="1115.54,-337.5 1125.54,-334 1115.54,-330.5 1115.54,-337.5"/>
</g>
</g>
</svg>
