<?xml version="1.0" encoding="UTF-8" standalone="no"?>
<!DOCTYPE svg PUBLIC "-//W3C//DTD SVG 1.1//EN"
 "http://www.w3.org/Graphics/SVG/1.1/DTD/svg11.dtd">
<!-- Generated by graphviz version 2.38.0 (20140413.2041)
 -->
<!-- Title: NeuralNetwork Pages: 1 -->
<svg width="288pt" height="170pt"
 viewBox="0.00 0.00 288.00 169.67" xmlns="http://www.w3.org/2000/svg" xmlns:xlink="http://www.w3.org/1999/xlink">
<g id="graph0" class="graph" transform="scale(0.21077 0.21077) rotate(0) translate(4 801)">
<title>NeuralNetwork</title>
<polygon fill="white" stroke="none" points="-4,4 -4,-801 1362.42,-801 1362.42,4 -4,4"/>
<!-- node0 -->
<g id="node1" class="node"><title>node0</title>
<ellipse fill="none" stroke="black" cx="42.2463" cy="-152" rx="42.4939" ry="18"/>
<text text-anchor="middle" x="42.2463" y="-148.3" font-family="Times New Roman,serif" font-size="14.00">(0) Input</text>
</g>
<!-- node9 -->
<g id="node10" class="node"><title>node9</title>
<ellipse fill="none" stroke="black" cx="181.439" cy="-122" rx="40.8928" ry="18"/>
<text text-anchor="middle" x="181.439" y="-118.3" font-family="Times New Roman,serif" font-size="14.00">(9) MAJ</text>
</g>
<!-- node0&#45;&gt;node9 -->
<g id="edge2" class="edge"><title>node0&#45;&gt;node9</title>
<path fill="none" stroke="black" d="M80.2217,-143.879C87.5987,-142.261 95.2914,-140.575 102.493,-139 112.849,-136.734 123.98,-134.304 134.497,-132.01"/>
<polygon fill="black" stroke="black" points="135.322,-135.412 144.347,-129.862 133.83,-128.573 135.322,-135.412"/>
<text text-anchor="middle" x="112.493" y="-142.8" font-family="Times New Roman,serif" font-size="14.00"> (1)</text>
</g>
<!-- node20 -->
<g id="node21" class="node"><title>node20</title>
<ellipse fill="none" stroke="black" cx="510.52" cy="-125" rx="57.3905" ry="18"/>
<text text-anchor="middle" x="510.52" y="-121.3" font-family="Times New Roman,serif" font-size="14.00">(20) MAJ!02</text>
</g>
<!-- node0&#45;&gt;node20 -->
<g id="edge35" class="edge"><title>node0&#45;&gt;node20</title>
<path fill="none" stroke="black" d="M84.3754,-153.779C96.6386,-154.109 110.109,-154.275 122.493,-154 242.707,-151.333 272.866,-150.965 392.775,-142 411.56,-140.596 431.915,-138.006 450.288,-135.265"/>
<polygon fill="black" stroke="black" points="450.915,-138.709 460.268,-133.732 449.853,-131.79 450.915,-138.709"/>
<text text-anchor="middle" x="250.385" y="-153.8" font-family="Times New Roman,serif" font-size="14.00"> (1)</text>
</g>
<!-- node1 -->
<g id="node2" class="node"><title>node1</title>
<ellipse fill="none" stroke="black" cx="42.2463" cy="-370" rx="42.4939" ry="18"/>
<text text-anchor="middle" x="42.2463" y="-366.3" font-family="Times New Roman,serif" font-size="14.00">(1) Input</text>
</g>
<!-- node10 -->
<g id="node11" class="node"><title>node10</title>
<ellipse fill="none" stroke="black" cx="335.58" cy="-355" rx="57.3905" ry="18"/>
<text text-anchor="middle" x="335.58" y="-351.3" font-family="Times New Roman,serif" font-size="14.00">(10) MAJ!02</text>
</g>
<!-- node1&#45;&gt;node10 -->
<g id="edge6" class="edge"><title>node1&#45;&gt;node10</title>
<path fill="none" stroke="black" d="M84.3694,-367.883C132.284,-365.416 212.096,-361.306 268.684,-358.393"/>
<polygon fill="black" stroke="black" points="269.16,-361.873 278.967,-357.863 268.8,-354.882 269.16,-361.873"/>
<text text-anchor="middle" x="181.439" y="-367.8" font-family="Times New Roman,serif" font-size="14.00"> (2)</text>
</g>
<!-- node12 -->
<g id="node13" class="node"><title>node12</title>
<ellipse fill="none" stroke="black" cx="510.52" cy="-389" rx="61.99" ry="18"/>
<text text-anchor="middle" x="510.52" y="-385.3" font-family="Times New Roman,serif" font-size="14.00">(12) MAJ!012</text>
</g>
<!-- node1&#45;&gt;node12 -->
<g id="edge10" class="edge"><title>node1&#45;&gt;node12</title>
<path fill="none" stroke="black" d="M81.4181,-376.953C88.4124,-378.082 95.6599,-379.155 102.493,-380 119.306,-382.079 123.57,-382.195 140.493,-383 244.105,-387.927 364.244,-389.022 438.575,-389.161"/>
<polygon fill="black" stroke="black" points="438.749,-392.662 448.753,-389.175 438.758,-385.662 438.749,-392.662"/>
<text text-anchor="middle" x="250.385" y="-390.8" font-family="Times New Roman,serif" font-size="14.00"> (0)</text>
</g>
<!-- node2 -->
<g id="node3" class="node"><title>node2</title>
<ellipse fill="none" stroke="black" cx="42.2463" cy="-562" rx="42.4939" ry="18"/>
<text text-anchor="middle" x="42.2463" y="-558.3" font-family="Times New Roman,serif" font-size="14.00">(2) Input</text>
</g>
<!-- node14 -->
<g id="node15" class="node"><title>node14</title>
<ellipse fill="none" stroke="black" cx="685.459" cy="-502" rx="57.3905" ry="18"/>
<text text-anchor="middle" x="685.459" y="-498.3" font-family="Times New Roman,serif" font-size="14.00">(14) MAJ!12</text>
</g>
<!-- node2&#45;&gt;node14 -->
<g id="edge17" class="edge"><title>node2&#45;&gt;node14</title>
<path fill="none" stroke="black" d="M83.8538,-558.783C177.001,-551.307 413.19,-531.811 610.264,-511 613.966,-510.609 617.77,-510.193 621.606,-509.762"/>
<polygon fill="black" stroke="black" points="622.255,-513.21 631.791,-508.593 621.457,-506.256 622.255,-513.21"/>
<text text-anchor="middle" x="335.58" y="-545.8" font-family="Times New Roman,serif" font-size="14.00"> (1)</text>
</g>
<!-- node18 -->
<g id="node19" class="node"><title>node18</title>
<ellipse fill="none" stroke="black" cx="1012.59" cy="-500" rx="45.4919" ry="18"/>
<text text-anchor="middle" x="1012.59" y="-496.3" font-family="Times New Roman,serif" font-size="14.00">(18) MAJ</text>
</g>
<!-- node2&#45;&gt;node18 -->
<g id="edge30" class="edge"><title>node2&#45;&gt;node18</title>
<path fill="none" stroke="black" d="M79.1015,-570.948C106.636,-577.039 145.703,-584 180.439,-584 180.439,-584 180.439,-584 852.299,-584 892.625,-584 906.018,-588.314 941.945,-570 962.306,-559.621 980.347,-541.069 992.963,-525.671"/>
<polygon fill="black" stroke="black" points="995.952,-527.533 999.395,-517.512 990.455,-523.199 995.952,-527.533"/>
<text text-anchor="middle" x="510.52" y="-587.8" font-family="Times New Roman,serif" font-size="14.00"> (2)</text>
</g>
<!-- node3 -->
<g id="node4" class="node"><title>node3</title>
<ellipse fill="none" stroke="black" cx="42.2463" cy="-670" rx="42.4939" ry="18"/>
<text text-anchor="middle" x="42.2463" y="-666.3" font-family="Times New Roman,serif" font-size="14.00">(3) Input</text>
</g>
<!-- node15 -->
<g id="node16" class="node"><title>node15</title>
<ellipse fill="none" stroke="black" cx="851.299" cy="-651" rx="52.7911" ry="18"/>
<text text-anchor="middle" x="851.299" y="-647.3" font-family="Times New Roman,serif" font-size="14.00">(15) MAJ!2</text>
</g>
<!-- node3&#45;&gt;node15 -->
<g id="edge20" class="edge"><title>node3&#45;&gt;node15</title>
<path fill="none" stroke="black" d="M78.792,-660.711C106.329,-654.328 145.541,-647 180.439,-647 180.439,-647 180.439,-647 686.459,-647 720.202,-647 757.843,-647.858 788.529,-648.78"/>
<polygon fill="black" stroke="black" points="788.55,-652.282 798.653,-649.094 788.767,-645.286 788.55,-652.282"/>
<text text-anchor="middle" x="420.775" y="-650.8" font-family="Times New Roman,serif" font-size="14.00"> (1)</text>
</g>
<!-- node17 -->
<g id="node18" class="node"><title>node17</title>
<ellipse fill="none" stroke="black" cx="1012.59" cy="-711" rx="52.7911" ry="18"/>
<text text-anchor="middle" x="1012.59" y="-707.3" font-family="Times New Roman,serif" font-size="14.00">(17) MAJ!1</text>
</g>
<!-- node3&#45;&gt;node17 -->
<g id="edge25" class="edge"><title>node3&#45;&gt;node17</title>
<path fill="none" stroke="black" d="M78.792,-679.289C106.329,-685.672 145.541,-693 180.439,-693 180.439,-693 180.439,-693 421.775,-693 614.611,-693 842.746,-702.731 950.016,-707.884"/>
<polygon fill="black" stroke="black" points="950.167,-711.395 960.325,-708.383 950.506,-704.403 950.167,-711.395"/>
<text text-anchor="middle" x="510.52" y="-697.8" font-family="Times New Roman,serif" font-size="14.00"> (0)</text>
</g>
<!-- node4 -->
<g id="node5" class="node"><title>node4</title>
<ellipse fill="none" stroke="black" cx="42.2463" cy="-18" rx="42.4939" ry="18"/>
<text text-anchor="middle" x="42.2463" y="-14.3" font-family="Times New Roman,serif" font-size="14.00">(4) Input</text>
</g>
<!-- node4&#45;&gt;node9 -->
<g id="edge3" class="edge"><title>node4&#45;&gt;node9</title>
<path fill="none" stroke="black" d="M64.1892,-33.4127C80.2154,-45.2504 102.832,-62.0495 122.493,-77 132.295,-84.4539 142.958,-92.6959 152.433,-100.068"/>
<polygon fill="black" stroke="black" points="150.365,-102.893 160.403,-106.28 154.668,-97.3717 150.365,-102.893"/>
<text text-anchor="middle" x="112.493" y="-80.8" font-family="Times New Roman,serif" font-size="14.00"> (2)</text>
</g>
<!-- node11 -->
<g id="node12" class="node"><title>node11</title>
<ellipse fill="none" stroke="black" cx="335.58" cy="-67" rx="57.3905" ry="18"/>
<text text-anchor="middle" x="335.58" y="-63.3" font-family="Times New Roman,serif" font-size="14.00">(11) MAJ!01</text>
</g>
<!-- node4&#45;&gt;node11 -->
<g id="edge7" class="edge"><title>node4&#45;&gt;node11</title>
<path fill="none" stroke="black" d="M81.9331,-24.5068C131.213,-32.7953 216.9,-47.2072 274.659,-56.9218"/>
<polygon fill="black" stroke="black" points="274.305,-60.4113 284.747,-58.6185 275.466,-53.5083 274.305,-60.4113"/>
<text text-anchor="middle" x="181.439" y="-50.8" font-family="Times New Roman,serif" font-size="14.00"> (0)</text>
</g>
<!-- node5 -->
<g id="node6" class="node"><title>node5</title>
<ellipse fill="none" stroke="black" cx="42.2463" cy="-295" rx="42.4939" ry="18"/>
<text text-anchor="middle" x="42.2463" y="-291.3" font-family="Times New Roman,serif" font-size="14.00">(5) Input</text>
</g>
<!-- node5&#45;&gt;node10 -->
<g id="edge5" class="edge"><title>node5&#45;&gt;node10</title>
<path fill="none" stroke="black" d="M80.7366,-302.721C130.536,-312.977 218.979,-331.192 277.203,-343.183"/>
<polygon fill="black" stroke="black" points="276.849,-346.684 287.349,-345.273 278.261,-339.828 276.849,-346.684"/>
<text text-anchor="middle" x="181.439" y="-333.8" font-family="Times New Roman,serif" font-size="14.00"> (1)</text>
</g>
<!-- node13 -->
<g id="node14" class="node"><title>node13</title>
<ellipse fill="none" stroke="black" cx="685.459" cy="-333" rx="52.7911" ry="18"/>
<text text-anchor="middle" x="685.459" y="-329.3" font-family="Times New Roman,serif" font-size="14.00">(13) MAJ!1</text>
</g>
<!-- node5&#45;&gt;node13 -->
<g id="edge15" class="edge"><title>node5&#45;&gt;node13</title>
<path fill="none" stroke="black" d="M79.6334,-286.435C125.614,-276.091 207.337,-259.295 278.385,-253 329.027,-248.513 342.39,-246.216 392.775,-253 481.878,-264.998 582.271,-296.733 638.993,-316.437"/>
<polygon fill="black" stroke="black" points="638.131,-319.843 648.726,-319.849 640.447,-313.238 638.131,-319.843"/>
<text text-anchor="middle" x="335.58" y="-256.8" font-family="Times New Roman,serif" font-size="14.00"> (2)</text>
</g>
<!-- node6 -->
<g id="node7" class="node"><title>node6</title>
<ellipse fill="none" stroke="black" cx="42.2463" cy="-464" rx="42.4939" ry="18"/>
<text text-anchor="middle" x="42.2463" y="-460.3" font-family="Times New Roman,serif" font-size="14.00">(6) Input</text>
</g>
<!-- node6&#45;&gt;node14 -->
<g id="edge18" class="edge"><title>node6&#45;&gt;node14</title>
<path fill="none" stroke="black" d="M84.3324,-466.435C192.654,-472.854 486.737,-490.282 618.756,-498.106"/>
<polygon fill="black" stroke="black" points="618.929,-501.623 629.118,-498.72 619.343,-494.635 618.929,-501.623"/>
<text text-anchor="middle" x="335.58" y="-487.8" font-family="Times New Roman,serif" font-size="14.00"> (2)</text>
</g>
<!-- node16 -->
<g id="node17" class="node"><title>node16</title>
<ellipse fill="none" stroke="black" cx="851.299" cy="-443" rx="52.7911" ry="18"/>
<text text-anchor="middle" x="851.299" y="-439.3" font-family="Times New Roman,serif" font-size="14.00">(16) MAJ!0</text>
</g>
<!-- node6&#45;&gt;node16 -->
<g id="edge24" class="edge"><title>node6&#45;&gt;node16</title>
<path fill="none" stroke="black" d="M77.8898,-454.119C105.44,-447.131 145.092,-439 180.439,-439 180.439,-439 180.439,-439 686.459,-439 720.202,-439 757.843,-439.858 788.529,-440.78"/>
<polygon fill="black" stroke="black" points="788.55,-444.282 798.653,-441.094 788.767,-437.286 788.55,-444.282"/>
<text text-anchor="middle" x="420.775" y="-442.8" font-family="Times New Roman,serif" font-size="14.00"> (2)</text>
</g>
<!-- node7 -->
<g id="node8" class="node"><title>node7</title>
<ellipse fill="none" stroke="black" cx="42.2463" cy="-759" rx="42.4939" ry="18"/>
<text text-anchor="middle" x="42.2463" y="-755.3" font-family="Times New Roman,serif" font-size="14.00">(7) Input</text>
</g>
<!-- node7&#45;&gt;node15 -->
<g id="edge19" class="edge"><title>node7&#45;&gt;node15</title>
<path fill="none" stroke="black" d="M78.792,-749.711C106.329,-743.328 145.541,-736 180.439,-736 180.439,-736 180.439,-736 421.775,-736 563.063,-736 725.633,-690.993 803.701,-666.479"/>
<polygon fill="black" stroke="black" points="804.772,-669.811 813.246,-663.451 802.655,-663.138 804.772,-669.811"/>
<text text-anchor="middle" x="420.775" y="-739.8" font-family="Times New Roman,serif" font-size="14.00"> (0)</text>
</g>
<!-- node7&#45;&gt;node17 -->
<g id="edge27" class="edge"><title>node7&#45;&gt;node17</title>
<path fill="none" stroke="black" d="M78.792,-768.289C106.329,-774.672 145.541,-782 180.439,-782 180.439,-782 180.439,-782 852.299,-782 900.8,-782 950.973,-754.201 981.735,-733.392"/>
<polygon fill="black" stroke="black" points="984.044,-736.049 990.257,-727.467 980.048,-730.302 984.044,-736.049"/>
<text text-anchor="middle" x="510.52" y="-785.8" font-family="Times New Roman,serif" font-size="14.00"> (2)</text>
</g>
<!-- node8 -->
<g id="node9" class="node"><title>node8</title>
<ellipse fill="none" stroke="black" cx="42.2463" cy="-76" rx="42.4939" ry="18"/>
<text text-anchor="middle" x="42.2463" y="-72.3" font-family="Times New Roman,serif" font-size="14.00">(8) Input</text>
</g>
<!-- node8&#45;&gt;node9 -->
<g id="edge1" class="edge"><title>node8&#45;&gt;node9</title>
<path fill="none" stroke="black" d="M76.1073,-87.0181C94.9096,-93.3225 118.682,-101.293 138.784,-108.033"/>
<polygon fill="black" stroke="black" points="137.725,-111.37 148.319,-111.23 139.951,-104.733 137.725,-111.37"/>
<text text-anchor="middle" x="112.493" y="-104.8" font-family="Times New Roman,serif" font-size="14.00"> (0)</text>
</g>
<!-- node8&#45;&gt;node11 -->
<g id="edge8" class="edge"><title>node8&#45;&gt;node11</title>
<path fill="none" stroke="black" d="M84.6779,-74.7201C132.52,-73.2421 211.864,-70.791 268.308,-69.0473"/>
<polygon fill="black" stroke="black" points="268.681,-72.5376 278.568,-68.7303 268.465,-65.5409 268.681,-72.5376"/>
<text text-anchor="middle" x="181.439" y="-75.8" font-family="Times New Roman,serif" font-size="14.00"> (1)</text>
</g>
<!-- node9&#45;&gt;node10 -->
<g id="edge4" class="edge"><title>node9&#45;&gt;node10</title>
<path fill="none" stroke="black" d="M191.807,-139.551C206.956,-168.188 237.447,-226.902 260.385,-278 269.207,-297.651 264.233,-306.761 278.385,-323 282.307,-327.5 287.024,-331.512 292.037,-335.043"/>
<polygon fill="black" stroke="black" points="290.348,-338.117 300.664,-340.535 294.107,-332.212 290.348,-338.117"/>
<text text-anchor="middle" x="250.385" y="-281.8" font-family="Times New Roman,serif" font-size="14.00"> (0)</text>
</g>
<!-- node9&#45;&gt;node11 -->
<g id="edge9" class="edge"><title>node9&#45;&gt;node11</title>
<path fill="none" stroke="black" d="M209.855,-108.866C219.411,-104.512 230.273,-99.8088 240.385,-96 253.786,-90.9527 268.491,-86.1063 282.216,-81.8687"/>
<polygon fill="black" stroke="black" points="283.453,-85.1512 292.004,-78.8966 281.419,-78.4531 283.453,-85.1512"/>
<text text-anchor="middle" x="250.385" y="-99.8" font-family="Times New Roman,serif" font-size="14.00"> (2)</text>
</g>
<!-- node9&#45;&gt;node12 -->
<g id="edge11" class="edge"><title>node9&#45;&gt;node12</title>
<path fill="none" stroke="black" d="M195.795,-139.25C212.119,-160.752 240.075,-198.95 260.385,-234 269.755,-250.169 264.538,-259.45 278.385,-272 318.402,-308.268 346.762,-284.724 392.775,-313 421.971,-330.941 419.74,-347.799 448.775,-366 451.922,-367.973 455.265,-369.818 458.701,-371.537"/>
<polygon fill="black" stroke="black" points="457.397,-374.79 467.944,-375.791 460.323,-368.431 457.397,-374.79"/>
<text text-anchor="middle" x="335.58" y="-316.8" font-family="Times New Roman,serif" font-size="14.00"> (1)</text>
</g>
<!-- node9&#45;&gt;node20 -->
<g id="edge36" class="edge"><title>node9&#45;&gt;node20</title>
<path fill="none" stroke="black" d="M222.545,-122.368C277.437,-122.871 376.685,-123.782 442.853,-124.389"/>
<polygon fill="black" stroke="black" points="443.144,-127.891 453.176,-124.483 443.209,-120.892 443.144,-127.891"/>
<text text-anchor="middle" x="335.58" y="-126.8" font-family="Times New Roman,serif" font-size="14.00"> (2)</text>
</g>
<!-- node10&#45;&gt;node12 -->
<g id="edge12" class="edge"><title>node10&#45;&gt;node12</title>
<path fill="none" stroke="black" d="M386.015,-363.595C400.462,-366.195 416.268,-369.126 430.775,-372 437.32,-373.297 444.159,-374.7 450.957,-376.126"/>
<polygon fill="black" stroke="black" points="450.339,-379.573 460.847,-378.221 451.789,-372.725 450.339,-379.573"/>
<text text-anchor="middle" x="420.775" y="-375.8" font-family="Times New Roman,serif" font-size="14.00"> (2)</text>
</g>
<!-- node10&#45;&gt;node13 -->
<g id="edge14" class="edge"><title>node10&#45;&gt;node13</title>
<path fill="none" stroke="black" d="M391.354,-350.964C409.614,-349.653 430.068,-348.222 448.775,-347 508.03,-343.128 575.696,-339.155 623.278,-336.435"/>
<polygon fill="black" stroke="black" points="623.632,-339.921 633.416,-335.857 623.233,-332.932 623.632,-339.921"/>
<text text-anchor="middle" x="510.52" y="-350.8" font-family="Times New Roman,serif" font-size="14.00"> (1)</text>
</g>
<!-- node11&#45;&gt;node20 -->
<g id="edge34" class="edge"><title>node11&#45;&gt;node20</title>
<path fill="none" stroke="black" d="M378.002,-79.2229C394.489,-84.2258 413.592,-90.1954 430.775,-96 441.448,-99.6054 452.858,-103.679 463.586,-107.608"/>
<polygon fill="black" stroke="black" points="462.612,-110.98 473.206,-111.159 465.036,-104.413 462.612,-110.98"/>
<text text-anchor="middle" x="420.775" y="-99.8" font-family="Times New Roman,serif" font-size="14.00"> (0)</text>
</g>
<!-- node12&#45;&gt;node13 -->
<g id="edge13" class="edge"><title>node12&#45;&gt;node13</title>
<path fill="none" stroke="black" d="M552.504,-375.729C577.835,-367.526 610.445,-356.967 636.91,-348.397"/>
<polygon fill="black" stroke="black" points="638.288,-351.63 646.724,-345.219 636.132,-344.97 638.288,-351.63"/>
<text text-anchor="middle" x="600.264" y="-365.8" font-family="Times New Roman,serif" font-size="14.00"> (0)</text>
</g>
<!-- node12&#45;&gt;node14 -->
<g id="edge16" class="edge"><title>node12&#45;&gt;node14</title>
<path fill="none" stroke="black" d="M536.666,-405.431C566.851,-425.154 617.575,-458.298 651.033,-480.159"/>
<polygon fill="black" stroke="black" points="649.277,-483.192 659.562,-485.732 653.105,-477.332 649.277,-483.192"/>
<text text-anchor="middle" x="600.264" y="-455.8" font-family="Times New Roman,serif" font-size="14.00"> (0)</text>
</g>
<!-- node12&#45;&gt;node16 -->
<g id="edge22" class="edge"><title>node12&#45;&gt;node16</title>
<path fill="none" stroke="black" d="M571.865,-391.067C618.788,-393.494 685.326,-398.734 742.654,-410 763.397,-414.076 785.825,-420.598 804.813,-426.771"/>
<polygon fill="black" stroke="black" points="803.808,-430.125 814.401,-429.953 806.013,-423.482 803.808,-430.125"/>
<text text-anchor="middle" x="685.459" y="-413.8" font-family="Times New Roman,serif" font-size="14.00"> (0)</text>
</g>
<!-- node22 -->
<g id="node23" class="node"><title>node22</title>
<ellipse fill="none" stroke="black" cx="1315.52" cy="-333" rx="42.7926" ry="18"/>
<text text-anchor="middle" x="1315.52" y="-329.3" font-family="Times New Roman,serif" font-size="14.00">Output 1</text>
</g>
<!-- node13&#45;&gt;node22 -->
<g id="edge38" class="edge"><title>node13&#45;&gt;node22</title>
<path fill="none" stroke="black" d="M738.113,-333C770.366,-333 812.753,-333 850.299,-333 850.299,-333 850.299,-333 1179.43,-333 1206.85,-333 1237.39,-333 1262.49,-333"/>
<polygon fill="black" stroke="black" points="1262.53,-336.5 1272.53,-333 1262.53,-329.5 1262.53,-336.5"/>
</g>
<!-- node14&#45;&gt;node15 -->
<g id="edge21" class="edge"><title>node14&#45;&gt;node15</title>
<path fill="none" stroke="black" d="M705.254,-519.092C734.512,-545.701 791.03,-597.099 824.218,-627.281"/>
<polygon fill="black" stroke="black" points="821.971,-629.968 831.724,-634.107 826.681,-624.79 821.971,-629.968"/>
<text text-anchor="middle" x="770.654" y="-588.8" font-family="Times New Roman,serif" font-size="14.00"> (2)</text>
</g>
<!-- node14&#45;&gt;node16 -->
<g id="edge23" class="edge"><title>node14&#45;&gt;node16</title>
<path fill="none" stroke="black" d="M721.424,-487.922C733.77,-483.06 747.782,-477.666 760.654,-473 774.187,-468.094 788.97,-463.028 802.558,-458.488"/>
<polygon fill="black" stroke="black" points="803.818,-461.758 812.206,-455.285 801.612,-455.114 803.818,-461.758"/>
<text text-anchor="middle" x="770.654" y="-476.8" font-family="Times New Roman,serif" font-size="14.00"> (1)</text>
</g>
<!-- node14&#45;&gt;node18 -->
<g id="edge29" class="edge"><title>node14&#45;&gt;node18</title>
<path fill="none" stroke="black" d="M742.721,-501.654C802.731,-501.285 897.156,-500.704 956.653,-500.338"/>
<polygon fill="black" stroke="black" points="956.999,-503.836 966.977,-500.274 956.956,-496.836 956.999,-503.836"/>
<text text-anchor="middle" x="851.299" y="-504.8" font-family="Times New Roman,serif" font-size="14.00"> (1)</text>
</g>
<!-- node19 -->
<g id="node20" class="node"><title>node19</title>
<ellipse fill="none" stroke="black" cx="1178.43" cy="-604" rx="57.3905" ry="18"/>
<text text-anchor="middle" x="1178.43" y="-600.3" font-family="Times New Roman,serif" font-size="14.00">(19) MAJ!02</text>
</g>
<!-- node14&#45;&gt;node19 -->
<g id="edge33" class="edge"><title>node14&#45;&gt;node19</title>
<path fill="none" stroke="black" d="M733.535,-511.78C824.057,-530.586 1022.08,-571.726 1120.11,-592.092"/>
<polygon fill="black" stroke="black" points="1119.63,-595.567 1130.14,-594.175 1121.06,-588.714 1119.63,-595.567"/>
<text text-anchor="middle" x="931.945" y="-557.8" font-family="Times New Roman,serif" font-size="14.00"> (2)</text>
</g>
<!-- node15&#45;&gt;node17 -->
<g id="edge26" class="edge"><title>node15&#45;&gt;node17</title>
<path fill="none" stroke="black" d="M887.256,-664.167C910.622,-672.968 941.574,-684.627 966.75,-694.11"/>
<polygon fill="black" stroke="black" points="965.848,-697.51 976.44,-697.76 968.315,-690.96 965.848,-697.51"/>
<text text-anchor="middle" x="931.945" y="-687.8" font-family="Times New Roman,serif" font-size="14.00"> (1)</text>
</g>
<!-- node15&#45;&gt;node19 -->
<g id="edge31" class="edge"><title>node15&#45;&gt;node19</title>
<path fill="none" stroke="black" d="M892.659,-639.826C912.745,-634.63 937.478,-628.779 959.945,-625 1010.51,-616.496 1068.31,-611.118 1111.6,-607.935"/>
<polygon fill="black" stroke="black" points="1112,-611.416 1121.73,-607.212 1111.5,-604.434 1112,-611.416"/>
<text text-anchor="middle" x="1012.59" y="-628.8" font-family="Times New Roman,serif" font-size="14.00"> (0)</text>
</g>
<!-- node25 -->
<g id="node26" class="node"><title>node25</title>
<ellipse fill="none" stroke="black" cx="1315.52" cy="-654" rx="42.7926" ry="18"/>
<text text-anchor="middle" x="1315.52" y="-650.3" font-family="Times New Roman,serif" font-size="14.00">Output 4</text>
</g>
<!-- node15&#45;&gt;node25 -->
<g id="edge41" class="edge"><title>node15&#45;&gt;node25</title>
<path fill="none" stroke="black" d="M903.977,-651.335C992.692,-651.911 1173.01,-653.082 1262.18,-653.66"/>
<polygon fill="black" stroke="black" points="1262.31,-657.161 1272.33,-653.726 1262.35,-650.161 1262.31,-657.161"/>
</g>
<!-- node16&#45;&gt;node18 -->
<g id="edge28" class="edge"><title>node16&#45;&gt;node18</title>
<path fill="none" stroke="black" d="M890.384,-455.308C906.369,-460.586 925.118,-466.927 941.945,-473 951.179,-476.333 961.042,-480.056 970.354,-483.646"/>
<polygon fill="black" stroke="black" points="969.222,-486.961 979.81,-487.319 971.756,-480.436 969.222,-486.961"/>
<text text-anchor="middle" x="931.945" y="-476.8" font-family="Times New Roman,serif" font-size="14.00"> (0)</text>
</g>
<!-- node17&#45;&gt;node19 -->
<g id="edge32" class="edge"><title>node17&#45;&gt;node19</title>
<path fill="none" stroke="black" d="M1038.12,-694.981C1066.35,-676.543 1112.86,-646.169 1144.3,-625.64"/>
<polygon fill="black" stroke="black" points="1146.28,-628.527 1152.73,-620.128 1142.45,-622.666 1146.28,-628.527"/>
<text text-anchor="middle" x="1093.24" y="-666.8" font-family="Times New Roman,serif" font-size="14.00"> (1)</text>
</g>
<!-- node23 -->
<g id="node24" class="node"><title>node23</title>
<ellipse fill="none" stroke="black" cx="1315.52" cy="-500" rx="42.7926" ry="18"/>
<text text-anchor="middle" x="1315.52" y="-496.3" font-family="Times New Roman,serif" font-size="14.00">Output 2</text>
</g>
<!-- node18&#45;&gt;node23 -->
<g id="edge39" class="edge"><title>node18&#45;&gt;node23</title>
<path fill="none" stroke="black" d="M1058.32,-500C1112.73,-500 1204.44,-500 1262.11,-500"/>
<polygon fill="black" stroke="black" points="1262.46,-503.5 1272.46,-500 1262.46,-496.5 1262.46,-503.5"/>
</g>
<!-- node24 -->
<g id="node25" class="node"><title>node24</title>
<ellipse fill="none" stroke="black" cx="1315.52" cy="-600" rx="42.7926" ry="18"/>
<text text-anchor="middle" x="1315.52" y="-596.3" font-family="Times New Roman,serif" font-size="14.00">Output 3</text>
</g>
<!-- node19&#45;&gt;node24 -->
<g id="edge40" class="edge"><title>node19&#45;&gt;node24</title>
<path fill="none" stroke="black" d="M1235.55,-602.338C1244.41,-602.076 1253.53,-601.806 1262.3,-601.546"/>
<polygon fill="black" stroke="black" points="1262.49,-605.042 1272.38,-601.248 1262.28,-598.045 1262.49,-605.042"/>
</g>
<!-- node21 -->
<g id="node22" class="node"><title>node21</title>
<ellipse fill="none" stroke="black" cx="1315.52" cy="-125" rx="42.7926" ry="18"/>
<text text-anchor="middle" x="1315.52" y="-121.3" font-family="Times New Roman,serif" font-size="14.00">Output 0</text>
</g>
<!-- node20&#45;&gt;node21 -->
<g id="edge37" class="edge"><title>node20&#45;&gt;node21</title>
<path fill="none" stroke="black" d="M567.988,-125C601.779,-125 645.578,-125 684.459,-125 684.459,-125 684.459,-125 1179.43,-125 1206.85,-125 1237.39,-125 1262.49,-125"/>
<polygon fill="black" stroke="black" points="1262.53,-128.5 1272.53,-125 1262.53,-121.5 1262.53,-128.5"/>
</g>
</g>
</svg>
