<?xml version="1.0" encoding="UTF-8" standalone="no"?>
<!DOCTYPE svg PUBLIC "-//W3C//DTD SVG 1.1//EN"
 "http://www.w3.org/Graphics/SVG/1.1/DTD/svg11.dtd">
<!-- Generated by graphviz version 2.38.0 (20140413.2041)
 -->
<!-- Title: NeuralNetwork Pages: 1 -->
<svg width="288pt" height="127pt"
 viewBox="0.00 0.00 288.00 126.74" xmlns="http://www.w3.org/2000/svg" xmlns:xlink="http://www.w3.org/1999/xlink">
<g id="graph0" class="graph" transform="scale(0.261857 0.261857) rotate(0) translate(4 480)">
<title>NeuralNetwork</title>
<polygon fill="white" stroke="none" points="-4,4 -4,-480 1095.84,-480 1095.84,4 -4,4"/>
<!-- node0 -->
<g id="node1" class="node"><title>node0</title>
<ellipse fill="none" stroke="black" cx="42.2463" cy="-112" rx="42.4939" ry="18"/>
<text text-anchor="middle" x="42.2463" y="-108.3" font-family="Times New Roman,serif" font-size="14.00">(0) Input</text>
</g>
<!-- node5 -->
<g id="node6" class="node"><title>node5</title>
<ellipse fill="none" stroke="black" cx="183.389" cy="-181" rx="42.4939" ry="18"/>
<text text-anchor="middle" x="183.389" y="-177.3" font-family="Times New Roman,serif" font-size="14.00">(5) AND</text>
</g>
<!-- node0&#45;&gt;node5 -->
<g id="edge1" class="edge"><title>node0&#45;&gt;node5</title>
<path fill="none" stroke="black" d="M64.2178,-127.461C75.2504,-135.161 89.2125,-144.243 102.493,-151 114.163,-156.938 127.297,-162.352 139.494,-166.895"/>
<polygon fill="black" stroke="black" points="138.434,-170.234 149.028,-170.345 140.816,-163.651 138.434,-170.234"/>
<text text-anchor="middle" x="112.493" y="-162.8" font-family="Times New Roman,serif" font-size="14.00"> (0)</text>
</g>
<!-- node6 -->
<g id="node7" class="node"><title>node6</title>
<ellipse fill="none" stroke="black" cx="183.389" cy="-115" rx="42.7926" ry="18"/>
<text text-anchor="middle" x="183.389" y="-111.3" font-family="Times New Roman,serif" font-size="14.00">(6) XOR</text>
</g>
<!-- node0&#45;&gt;node6 -->
<g id="edge3" class="edge"><title>node0&#45;&gt;node6</title>
<path fill="none" stroke="black" d="M76.707,-101.377C90.804,-98.1275 107.409,-95.901 122.493,-98 128.046,-98.7729 133.809,-99.9306 139.467,-101.285"/>
<polygon fill="black" stroke="black" points="138.913,-104.758 149.473,-103.896 140.681,-97.9848 138.913,-104.758"/>
<text text-anchor="middle" x="112.493" y="-101.8" font-family="Times New Roman,serif" font-size="14.00"> (0)</text>
</g>
<!-- node1 -->
<g id="node2" class="node"><title>node1</title>
<ellipse fill="none" stroke="black" cx="42.2463" cy="-292" rx="42.4939" ry="18"/>
<text text-anchor="middle" x="42.2463" y="-288.3" font-family="Times New Roman,serif" font-size="14.00">(1) Input</text>
</g>
<!-- node9 -->
<g id="node10" class="node"><title>node9</title>
<ellipse fill="none" stroke="black" cx="621.765" cy="-352" rx="42.7926" ry="18"/>
<text text-anchor="middle" x="621.765" y="-348.3" font-family="Times New Roman,serif" font-size="14.00">(9) XOR</text>
</g>
<!-- node1&#45;&gt;node9 -->
<g id="edge9" class="edge"><title>node1&#45;&gt;node9</title>
<path fill="none" stroke="black" d="M63.6258,-307.898C89.646,-326.561 136.779,-355 182.389,-355 182.389,-355 182.389,-355 477.073,-355 507.495,-355 541.533,-354.32 568.841,-353.607"/>
<polygon fill="black" stroke="black" points="569.055,-357.102 578.956,-353.333 568.865,-350.105 569.055,-357.102"/>
<text text-anchor="middle" x="329.731" y="-358.8" font-family="Times New Roman,serif" font-size="14.00"> (0)</text>
</g>
<!-- node10 -->
<g id="node11" class="node"><title>node10</title>
<ellipse fill="none" stroke="black" cx="621.765" cy="-292" rx="46.5926" ry="18"/>
<text text-anchor="middle" x="621.765" y="-288.3" font-family="Times New Roman,serif" font-size="14.00">(10) AND</text>
</g>
<!-- node1&#45;&gt;node10 -->
<g id="edge12" class="edge"><title>node1&#45;&gt;node10</title>
<path fill="none" stroke="black" d="M84.6476,-292C112.319,-292 149.536,-292 182.389,-292 182.389,-292 182.389,-292 477.073,-292 505.923,-292 538.032,-292 564.567,-292"/>
<polygon fill="black" stroke="black" points="564.819,-295.5 574.819,-292 564.819,-288.5 564.819,-295.5"/>
<text text-anchor="middle" x="329.731" y="-295.8" font-family="Times New Roman,serif" font-size="14.00"> (1)</text>
</g>
<!-- node13 -->
<g id="node14" class="node"><title>node13</title>
<ellipse fill="none" stroke="black" cx="621.765" cy="-238" rx="40.8928" ry="18"/>
<text text-anchor="middle" x="621.765" y="-234.3" font-family="Times New Roman,serif" font-size="14.00">(13) OR</text>
</g>
<!-- node1&#45;&gt;node13 -->
<g id="edge17" class="edge"><title>node1&#45;&gt;node13</title>
<path fill="none" stroke="black" d="M67.3997,-277.249C94.4057,-262.186 139.937,-241 182.389,-241 182.389,-241 182.389,-241 477.073,-241 508.159,-241 543.02,-240.289 570.619,-239.56"/>
<polygon fill="black" stroke="black" points="570.918,-243.053 580.818,-239.281 570.726,-236.056 570.918,-243.053"/>
<text text-anchor="middle" x="329.731" y="-244.8" font-family="Times New Roman,serif" font-size="14.00"> (0)</text>
</g>
<!-- node2 -->
<g id="node3" class="node"><title>node2</title>
<ellipse fill="none" stroke="black" cx="42.2463" cy="-181" rx="42.4939" ry="18"/>
<text text-anchor="middle" x="42.2463" y="-177.3" font-family="Times New Roman,serif" font-size="14.00">(2) Input</text>
</g>
<!-- node2&#45;&gt;node5 -->
<g id="edge2" class="edge"><title>node2&#45;&gt;node5</title>
<path fill="none" stroke="black" d="M82.3698,-187.037C89.0672,-187.854 95.9684,-188.562 102.493,-189 112.611,-189.68 123.431,-189.328 133.736,-188.474"/>
<polygon fill="black" stroke="black" points="134.22,-191.944 143.825,-187.474 133.529,-184.978 134.22,-191.944"/>
<text text-anchor="middle" x="112.493" y="-192.8" font-family="Times New Roman,serif" font-size="14.00"> (1)</text>
</g>
<!-- node2&#45;&gt;node6 -->
<g id="edge4" class="edge"><title>node2&#45;&gt;node6</title>
<path fill="none" stroke="black" d="M60.948,-164.591C72.1234,-155.02 87.2809,-143.41 102.493,-136 112.166,-131.288 123.031,-127.534 133.559,-124.582"/>
<polygon fill="black" stroke="black" points="134.705,-127.9 143.5,-121.991 132.94,-121.126 134.705,-127.9"/>
<text text-anchor="middle" x="112.493" y="-139.8" font-family="Times New Roman,serif" font-size="14.00"> (1)</text>
</g>
<!-- node3 -->
<g id="node4" class="node"><title>node3</title>
<ellipse fill="none" stroke="black" cx="42.2463" cy="-429" rx="42.4939" ry="18"/>
<text text-anchor="middle" x="42.2463" y="-425.3" font-family="Times New Roman,serif" font-size="14.00">(3) Input</text>
</g>
<!-- node12 -->
<g id="node13" class="node"><title>node12</title>
<ellipse fill="none" stroke="black" cx="772.006" cy="-292" rx="40.8928" ry="18"/>
<text text-anchor="middle" x="772.006" y="-288.3" font-family="Times New Roman,serif" font-size="14.00">(12) OR</text>
</g>
<!-- node3&#45;&gt;node12 -->
<g id="edge16" class="edge"><title>node3&#45;&gt;node12</title>
<path fill="none" stroke="black" d="M75.4072,-417.633C103.323,-408.785 145.018,-398 182.389,-398 182.389,-398 182.389,-398 622.765,-398 677.948,-398 726.748,-348.797 752.248,-317.436"/>
<polygon fill="black" stroke="black" points="755.062,-319.52 758.514,-309.504 749.569,-315.181 755.062,-319.52"/>
<text text-anchor="middle" x="405.176" y="-401.8" font-family="Times New Roman,serif" font-size="14.00"> (1)</text>
</g>
<!-- node14 -->
<g id="node15" class="node"><title>node14</title>
<ellipse fill="none" stroke="black" cx="772.006" cy="-446" rx="47.3916" ry="18"/>
<text text-anchor="middle" x="772.006" y="-442.3" font-family="Times New Roman,serif" font-size="14.00">(14) XOR</text>
</g>
<!-- node3&#45;&gt;node14 -->
<g id="edge20" class="edge"><title>node3&#45;&gt;node14</title>
<path fill="none" stroke="black" d="M74.8255,-440.553C102.723,-449.719 144.712,-461 182.389,-461 182.389,-461 182.389,-461 622.765,-461 654.327,-461 689.479,-457.592 717.629,-454.026"/>
<polygon fill="black" stroke="black" points="718.203,-457.48 727.663,-452.71 717.293,-450.54 718.203,-457.48"/>
<text text-anchor="middle" x="405.176" y="-464.8" font-family="Times New Roman,serif" font-size="14.00"> (1)</text>
</g>
<!-- node4 -->
<g id="node5" class="node"><title>node4</title>
<ellipse fill="none" stroke="black" cx="42.2463" cy="-37" rx="42.4939" ry="18"/>
<text text-anchor="middle" x="42.2463" y="-33.3" font-family="Times New Roman,serif" font-size="14.00">(4) Input</text>
</g>
<!-- node7 -->
<g id="node8" class="node"><title>node7</title>
<ellipse fill="none" stroke="black" cx="329.731" cy="-115" rx="42.4939" ry="18"/>
<text text-anchor="middle" x="329.731" y="-111.3" font-family="Times New Roman,serif" font-size="14.00">(7) AND</text>
</g>
<!-- node4&#45;&gt;node7 -->
<g id="edge5" class="edge"><title>node4&#45;&gt;node7</title>
<path fill="none" stroke="black" d="M82.7045,-42.4832C120.144,-48.2179 177.74,-58.4271 226.285,-73 248.335,-79.6193 272.175,-89.2376 291.305,-97.6001"/>
<polygon fill="black" stroke="black" points="290.006,-100.853 300.566,-101.711 292.846,-94.4547 290.006,-100.853"/>
<text text-anchor="middle" x="183.389" y="-76.8" font-family="Times New Roman,serif" font-size="14.00"> (0)</text>
</g>
<!-- node11 -->
<g id="node12" class="node"><title>node11</title>
<ellipse fill="none" stroke="black" cx="329.731" cy="-18" rx="47.3916" ry="18"/>
<text text-anchor="middle" x="329.731" y="-14.3" font-family="Times New Roman,serif" font-size="14.00">(11) XOR</text>
</g>
<!-- node4&#45;&gt;node11 -->
<g id="edge14" class="edge"><title>node4&#45;&gt;node11</title>
<path fill="none" stroke="black" d="M83.4187,-32.3706C100.929,-30.4817 121.707,-28.4139 140.493,-27 184.628,-23.6781 234.684,-21.3538 272.077,-19.9004"/>
<polygon fill="black" stroke="black" points="272.413,-23.3903 282.273,-19.5135 272.147,-16.3953 272.413,-23.3903"/>
<text text-anchor="middle" x="183.389" y="-30.8" font-family="Times New Roman,serif" font-size="14.00"> (1)</text>
</g>
<!-- node8 -->
<g id="node9" class="node"><title>node8</title>
<ellipse fill="none" stroke="black" cx="476.073" cy="-181" rx="42.7926" ry="18"/>
<text text-anchor="middle" x="476.073" y="-177.3" font-family="Times New Roman,serif" font-size="14.00">(8) XOR</text>
</g>
<!-- node5&#45;&gt;node8 -->
<g id="edge8" class="edge"><title>node5&#45;&gt;node8</title>
<path fill="none" stroke="black" d="M225.728,-181C277.521,-181 366.317,-181 422.782,-181"/>
<polygon fill="black" stroke="black" points="422.933,-184.5 432.933,-181 422.933,-177.5 422.933,-184.5"/>
<text text-anchor="middle" x="329.731" y="-184.8" font-family="Times New Roman,serif" font-size="14.00"> (1)</text>
</g>
<!-- node6&#45;&gt;node7 -->
<g id="edge6" class="edge"><title>node6&#45;&gt;node7</title>
<path fill="none" stroke="black" d="M226.526,-115C242.376,-115 260.577,-115 277.187,-115"/>
<polygon fill="black" stroke="black" points="277.288,-118.5 287.288,-115 277.288,-111.5 277.288,-118.5"/>
<text text-anchor="middle" x="254.285" y="-118.8" font-family="Times New Roman,serif" font-size="14.00"> (1)</text>
</g>
<!-- node6&#45;&gt;node11 -->
<g id="edge13" class="edge"><title>node6&#45;&gt;node11</title>
<path fill="none" stroke="black" d="M206.942,-99.8438C231.125,-83.5926 269.713,-57.6609 296.963,-39.3485"/>
<polygon fill="black" stroke="black" points="299.031,-42.1753 305.379,-33.6925 295.127,-36.3653 299.031,-42.1753"/>
<text text-anchor="middle" x="254.285" y="-75.8" font-family="Times New Roman,serif" font-size="14.00"> (0)</text>
</g>
<!-- node7&#45;&gt;node8 -->
<g id="edge7" class="edge"><title>node7&#45;&gt;node8</title>
<path fill="none" stroke="black" d="M360.164,-127.571C376.447,-134.606 397.006,-143.624 415.176,-152 422.71,-155.473 430.73,-159.279 438.371,-162.958"/>
<polygon fill="black" stroke="black" points="436.918,-166.144 447.444,-167.352 439.969,-159.844 436.918,-166.144"/>
<text text-anchor="middle" x="405.176" y="-155.8" font-family="Times New Roman,serif" font-size="14.00"> (0)</text>
</g>
<!-- node8&#45;&gt;node9 -->
<g id="edge10" class="edge"><title>node8&#45;&gt;node9</title>
<path fill="none" stroke="black" d="M486.764,-198.655C502.626,-226.486 536.267,-281.271 574.969,-319 579.284,-323.207 584.169,-327.297 589.101,-331.084"/>
<polygon fill="black" stroke="black" points="587.22,-334.045 597.353,-337.137 591.36,-328.4 587.22,-334.045"/>
<text text-anchor="middle" x="546.969" y="-301.8" font-family="Times New Roman,serif" font-size="14.00"> (1)</text>
</g>
<!-- node8&#45;&gt;node10 -->
<g id="edge11" class="edge"><title>node8&#45;&gt;node10</title>
<path fill="none" stroke="black" d="M494.341,-197.469C513.322,-215.168 545.097,-243.632 574.969,-265 578.253,-267.349 581.752,-269.684 585.297,-271.941"/>
<polygon fill="black" stroke="black" points="583.753,-275.1 594.106,-277.354 587.418,-269.136 583.753,-275.1"/>
<text text-anchor="middle" x="546.969" y="-253.8" font-family="Times New Roman,serif" font-size="14.00"> (0)</text>
</g>
<!-- node8&#45;&gt;node13 -->
<g id="edge18" class="edge"><title>node8&#45;&gt;node13</title>
<path fill="none" stroke="black" d="M511.985,-170.97C526.387,-168.586 542.952,-168.181 556.969,-174 575.864,-181.844 592.063,-198.304 603.41,-212.566"/>
<polygon fill="black" stroke="black" points="600.687,-214.768 609.513,-220.628 606.268,-210.543 600.687,-214.768"/>
<text text-anchor="middle" x="546.969" y="-177.8" font-family="Times New Roman,serif" font-size="14.00"> (1)</text>
</g>
<!-- node9&#45;&gt;node14 -->
<g id="edge19" class="edge"><title>node9&#45;&gt;node14</title>
<path fill="none" stroke="black" d="M646.254,-366.895C671.007,-382.59 710.189,-407.436 738.033,-425.091"/>
<polygon fill="black" stroke="black" points="736.322,-428.151 746.641,-430.55 740.07,-422.239 736.322,-428.151"/>
<text text-anchor="middle" x="696.561" y="-407.8" font-family="Times New Roman,serif" font-size="14.00"> (0)</text>
</g>
<!-- node10&#45;&gt;node12 -->
<g id="edge15" class="edge"><title>node10&#45;&gt;node12</title>
<path fill="none" stroke="black" d="M668.857,-292C685.327,-292 703.962,-292 720.765,-292"/>
<polygon fill="black" stroke="black" points="720.954,-295.5 730.954,-292 720.954,-288.5 720.954,-295.5"/>
<text text-anchor="middle" x="696.561" y="-295.8" font-family="Times New Roman,serif" font-size="14.00"> (0)</text>
</g>
<!-- node16 -->
<g id="node17" class="node"><title>node16</title>
<ellipse fill="none" stroke="black" cx="1048.94" cy="-18" rx="42.7926" ry="18"/>
<text text-anchor="middle" x="1048.94" y="-14.3" font-family="Times New Roman,serif" font-size="14.00">Output 0</text>
</g>
<!-- node11&#45;&gt;node16 -->
<g id="edge23" class="edge"><title>node11&#45;&gt;node16</title>
<path fill="none" stroke="black" d="M377.209,-18C405.5,-18 442.37,-18 475.073,-18 475.073,-18 475.073,-18 923.248,-18 946.982,-18 973.257,-18 995.544,-18"/>
<polygon fill="black" stroke="black" points="995.807,-21.5001 1005.81,-18 995.806,-14.5001 995.807,-21.5001"/>
</g>
<!-- node15 -->
<g id="node16" class="node"><title>node15</title>
<ellipse fill="none" stroke="black" cx="922.248" cy="-262" rx="46.5926" ry="18"/>
<text text-anchor="middle" x="922.248" y="-258.3" font-family="Times New Roman,serif" font-size="14.00">(15) AND</text>
</g>
<!-- node12&#45;&gt;node15 -->
<g id="edge21" class="edge"><title>node12&#45;&gt;node15</title>
<path fill="none" stroke="black" d="M809.65,-284.584C828.061,-280.859 850.657,-276.286 870.69,-272.232"/>
<polygon fill="black" stroke="black" points="871.485,-275.642 880.592,-270.228 870.096,-268.781 871.485,-275.642"/>
<text text-anchor="middle" x="847.452" y="-281.8" font-family="Times New Roman,serif" font-size="14.00"> (0)</text>
</g>
<!-- node13&#45;&gt;node15 -->
<g id="edge22" class="edge"><title>node13&#45;&gt;node15</title>
<path fill="none" stroke="black" d="M662.745,-239.777C702.521,-241.701 765.273,-245.158 819.452,-250 835.155,-251.403 852.181,-253.273 867.733,-255.117"/>
<polygon fill="black" stroke="black" points="867.365,-258.598 877.712,-256.321 868.203,-251.648 867.365,-258.598"/>
<text text-anchor="middle" x="772.006" y="-253.8" font-family="Times New Roman,serif" font-size="14.00"> (1)</text>
</g>
<!-- node17 -->
<g id="node18" class="node"><title>node17</title>
<ellipse fill="none" stroke="black" cx="1048.94" cy="-446" rx="42.7926" ry="18"/>
<text text-anchor="middle" x="1048.94" y="-442.3" font-family="Times New Roman,serif" font-size="14.00">Output 1</text>
</g>
<!-- node14&#45;&gt;node17 -->
<g id="edge24" class="edge"><title>node14&#45;&gt;node17</title>
<path fill="none" stroke="black" d="M819.645,-446C868.52,-446 945.121,-446 995.922,-446"/>
<polygon fill="black" stroke="black" points="996.036,-449.5 1006.04,-446 996.036,-442.5 996.036,-449.5"/>
</g>
<!-- node18 -->
<g id="node19" class="node"><title>node18</title>
<ellipse fill="none" stroke="black" cx="1048.94" cy="-262" rx="42.7926" ry="18"/>
<text text-anchor="middle" x="1048.94" y="-258.3" font-family="Times New Roman,serif" font-size="14.00">Output 2</text>
</g>
<!-- node15&#45;&gt;node18 -->
<g id="edge25" class="edge"><title>node15&#45;&gt;node18</title>
<path fill="none" stroke="black" d="M969.324,-262C977.901,-262 986.919,-262 995.666,-262"/>
<polygon fill="black" stroke="black" points="995.766,-265.5 1005.77,-262 995.766,-258.5 995.766,-265.5"/>
</g>
</g>
</svg>
