<?xml version="1.0" encoding="UTF-8" standalone="no"?>
<!DOCTYPE svg PUBLIC "-//W3C//DTD SVG 1.1//EN"
 "http://www.w3.org/Graphics/SVG/1.1/DTD/svg11.dtd">
<!-- Generated by graphviz version 2.38.0 (20140413.2041)
 -->
<!-- Title: NeuralNetwork Pages: 1 -->
<svg width="288pt" height="116pt"
 viewBox="0.00 0.00 288.00 115.75" xmlns="http://www.w3.org/2000/svg" xmlns:xlink="http://www.w3.org/1999/xlink">
<g id="graph0" class="graph" transform="scale(0.280938 0.280938) rotate(0) translate(4 408)">
<title>NeuralNetwork</title>
<polygon fill="white" stroke="none" points="-4,4 -4,-408 1021.14,-408 1021.14,4 -4,4"/>
<!-- node0 -->
<g id="node1" class="node"><title>node0</title>
<ellipse fill="none" stroke="black" cx="42.2463" cy="-272" rx="42.4939" ry="18"/>
<text text-anchor="middle" x="42.2463" y="-268.3" font-family="Times New Roman,serif" font-size="14.00">(0) Input</text>
</g>
<!-- node5 -->
<g id="node6" class="node"><title>node5</title>
<ellipse fill="none" stroke="black" cx="187.938" cy="-280" rx="42.4939" ry="18"/>
<text text-anchor="middle" x="187.938" y="-276.3" font-family="Times New Roman,serif" font-size="14.00">(5) AND</text>
</g>
<!-- node0&#45;&gt;node5 -->
<g id="edge1" class="edge"><title>node0&#45;&gt;node5</title>
<path fill="none" stroke="black" d="M84.8131,-271.778C96.9668,-271.915 110.269,-272.261 122.493,-273 127.228,-273.286 132.152,-273.668 137.073,-274.107"/>
<polygon fill="black" stroke="black" points="136.821,-277.598 147.11,-275.072 137.491,-270.631 136.821,-277.598"/>
<text text-anchor="middle" x="112.493" y="-276.8" font-family="Times New Roman,serif" font-size="14.00"> (0)</text>
</g>
<!-- node8 -->
<g id="node9" class="node"><title>node8</title>
<ellipse fill="none" stroke="black" cx="187.938" cy="-348" rx="36.2938" ry="18"/>
<text text-anchor="middle" x="187.938" y="-344.3" font-family="Times New Roman,serif" font-size="14.00">(8) OR</text>
</g>
<!-- node0&#45;&gt;node8 -->
<g id="edge7" class="edge"><title>node0&#45;&gt;node8</title>
<path fill="none" stroke="black" d="M57.6941,-288.983C68.7921,-300.994 85.1208,-316.578 102.493,-326 114.803,-332.677 129.233,-337.4 142.647,-340.711"/>
<polygon fill="black" stroke="black" points="142.13,-344.182 152.655,-342.975 143.675,-337.354 142.13,-344.182"/>
<text text-anchor="middle" x="112.493" y="-337.8" font-family="Times New Roman,serif" font-size="14.00"> (0)</text>
</g>
<!-- node13 -->
<g id="node14" class="node"><title>node13</title>
<ellipse fill="none" stroke="black" cx="187.938" cy="-226" rx="47.3916" ry="18"/>
<text text-anchor="middle" x="187.938" y="-222.3" font-family="Times New Roman,serif" font-size="14.00">(13) XOR</text>
</g>
<!-- node0&#45;&gt;node13 -->
<g id="edge18" class="edge"><title>node0&#45;&gt;node13</title>
<path fill="none" stroke="black" d="M76.4596,-261.343C84.9468,-258.621 94.057,-255.701 102.493,-253 115.1,-248.963 128.768,-244.591 141.361,-240.565"/>
<polygon fill="black" stroke="black" points="142.729,-243.802 151.188,-237.423 140.597,-237.134 142.729,-243.802"/>
<text text-anchor="middle" x="112.493" y="-256.8" font-family="Times New Roman,serif" font-size="14.00"> (1)</text>
</g>
<!-- node1 -->
<g id="node2" class="node"><title>node1</title>
<ellipse fill="none" stroke="black" cx="42.2463" cy="-26" rx="42.4939" ry="18"/>
<text text-anchor="middle" x="42.2463" y="-22.3" font-family="Times New Roman,serif" font-size="14.00">(1) Input</text>
</g>
<!-- node6 -->
<g id="node7" class="node"><title>node6</title>
<ellipse fill="none" stroke="black" cx="296.28" cy="-107" rx="42.7926" ry="18"/>
<text text-anchor="middle" x="296.28" y="-103.3" font-family="Times New Roman,serif" font-size="14.00">(6) XOR</text>
</g>
<!-- node1&#45;&gt;node6 -->
<g id="edge4" class="edge"><title>node1&#45;&gt;node6</title>
<path fill="none" stroke="black" d="M67.7377,-40.424C78.1924,-46.1534 90.6857,-52.4489 102.493,-57 150.277,-75.4193 207.299,-89.2615 246.876,-97.6576"/>
<polygon fill="black" stroke="black" points="246.294,-101.111 256.798,-99.7258 247.722,-94.2586 246.294,-101.111"/>
<text text-anchor="middle" x="112.493" y="-67.8" font-family="Times New Roman,serif" font-size="14.00"> (1)</text>
</g>
<!-- node11 -->
<g id="node12" class="node"><title>node11</title>
<ellipse fill="none" stroke="black" cx="187.938" cy="-33" rx="46.5926" ry="18"/>
<text text-anchor="middle" x="187.938" y="-29.3" font-family="Times New Roman,serif" font-size="14.00">(11) AND</text>
</g>
<!-- node1&#45;&gt;node11 -->
<g id="edge14" class="edge"><title>node1&#45;&gt;node11</title>
<path fill="none" stroke="black" d="M69.4674,-12.1235C84.8116,-5.66469 104.623,-0.164691 122.493,-4 132.286,-6.10199 142.387,-9.81268 151.604,-13.8922"/>
<polygon fill="black" stroke="black" points="150.299,-17.146 160.839,-18.2251 153.273,-10.8088 150.299,-17.146"/>
<text text-anchor="middle" x="112.493" y="-7.8" font-family="Times New Roman,serif" font-size="14.00"> (1)</text>
</g>
<!-- node2 -->
<g id="node3" class="node"><title>node2</title>
<ellipse fill="none" stroke="black" cx="42.2463" cy="-173" rx="42.4939" ry="18"/>
<text text-anchor="middle" x="42.2463" y="-169.3" font-family="Times New Roman,serif" font-size="14.00">(2) Input</text>
</g>
<!-- node7 -->
<g id="node8" class="node"><title>node7</title>
<ellipse fill="none" stroke="black" cx="404.622" cy="-196" rx="36.2938" ry="18"/>
<text text-anchor="middle" x="404.622" y="-192.3" font-family="Times New Roman,serif" font-size="14.00">(7) OR</text>
</g>
<!-- node2&#45;&gt;node7 -->
<g id="edge5" class="edge"><title>node2&#45;&gt;node7</title>
<path fill="none" stroke="black" d="M84.4847,-175.193C123.399,-177.303 183.369,-180.656 235.384,-184 277.094,-186.681 324.592,-190.103 358.459,-192.606"/>
<polygon fill="black" stroke="black" points="358.278,-196.102 368.51,-193.352 358.796,-189.121 358.278,-196.102"/>
<text text-anchor="middle" x="187.938" y="-187.8" font-family="Times New Roman,serif" font-size="14.00"> (0)</text>
</g>
<!-- node2&#45;&gt;node13 -->
<g id="edge17" class="edge"><title>node2&#45;&gt;node13</title>
<path fill="none" stroke="black" d="M74.7801,-184.631C95.002,-192.09 121.524,-201.872 143.699,-210.052"/>
<polygon fill="black" stroke="black" points="142.631,-213.388 153.224,-213.565 145.053,-206.82 142.631,-213.388"/>
<text text-anchor="middle" x="112.493" y="-204.8" font-family="Times New Roman,serif" font-size="14.00"> (0)</text>
</g>
<!-- node3 -->
<g id="node4" class="node"><title>node3</title>
<ellipse fill="none" stroke="black" cx="42.2463" cy="-106" rx="42.4939" ry="18"/>
<text text-anchor="middle" x="42.2463" y="-102.3" font-family="Times New Roman,serif" font-size="14.00">(3) Input</text>
</g>
<!-- node3&#45;&gt;node6 -->
<g id="edge3" class="edge"><title>node3&#45;&gt;node6</title>
<path fill="none" stroke="black" d="M84.5823,-106.164C127.816,-106.336 195.801,-106.605 242.797,-106.792"/>
<polygon fill="black" stroke="black" points="243.067,-110.293 253.08,-106.833 243.094,-103.293 243.067,-110.293"/>
<text text-anchor="middle" x="112.493" y="-109.8" font-family="Times New Roman,serif" font-size="14.00"> (0)</text>
</g>
<!-- node3&#45;&gt;node11 -->
<g id="edge13" class="edge"><title>node3&#45;&gt;node11</title>
<path fill="none" stroke="black" d="M54.0421,-88.5963C64.445,-73.4934 81.6516,-52.4574 102.493,-42 111.197,-37.6323 121.032,-34.9193 130.834,-33.298"/>
<polygon fill="black" stroke="black" points="131.522,-36.7381 140.988,-31.98 130.621,-29.7964 131.522,-36.7381"/>
<text text-anchor="middle" x="112.493" y="-45.8" font-family="Times New Roman,serif" font-size="14.00"> (0)</text>
</g>
<!-- node4 -->
<g id="node5" class="node"><title>node4</title>
<ellipse fill="none" stroke="black" cx="42.2463" cy="-386" rx="42.4939" ry="18"/>
<text text-anchor="middle" x="42.2463" y="-382.3" font-family="Times New Roman,serif" font-size="14.00">(4) Input</text>
</g>
<!-- node4&#45;&gt;node5 -->
<g id="edge2" class="edge"><title>node4&#45;&gt;node5</title>
<path fill="none" stroke="black" d="M52.1908,-368.381C62.1486,-350.46 79.8629,-323.101 102.493,-307 113.18,-299.396 126.11,-293.862 138.605,-289.864"/>
<polygon fill="black" stroke="black" points="139.865,-293.142 148.481,-286.976 137.901,-286.423 139.865,-293.142"/>
<text text-anchor="middle" x="112.493" y="-310.8" font-family="Times New Roman,serif" font-size="14.00"> (1)</text>
</g>
<!-- node4&#45;&gt;node8 -->
<g id="edge8" class="edge"><title>node4&#45;&gt;node8</title>
<path fill="none" stroke="black" d="M78.7656,-376.607C98.9979,-371.256 124.446,-364.526 145.575,-358.939"/>
<polygon fill="black" stroke="black" points="146.479,-362.32 155.252,-356.38 144.689,-355.553 146.479,-362.32"/>
<text text-anchor="middle" x="112.493" y="-372.8" font-family="Times New Roman,serif" font-size="14.00"> (1)</text>
</g>
<!-- node14 -->
<g id="node15" class="node"><title>node14</title>
<ellipse fill="none" stroke="black" cx="404.622" cy="-360" rx="47.3916" ry="18"/>
<text text-anchor="middle" x="404.622" y="-356.3" font-family="Times New Roman,serif" font-size="14.00">(14) XOR</text>
</g>
<!-- node4&#45;&gt;node14 -->
<g id="edge19" class="edge"><title>node4&#45;&gt;node14</title>
<path fill="none" stroke="black" d="M84.3908,-388.207C96.6544,-388.55 110.122,-388.615 122.493,-388 201.585,-384.071 292.732,-373.961 349.271,-367.029"/>
<polygon fill="black" stroke="black" points="349.92,-370.476 359.415,-365.774 349.06,-363.528 349.92,-370.476"/>
<text text-anchor="middle" x="187.938" y="-389.8" font-family="Times New Roman,serif" font-size="14.00"> (0)</text>
</g>
<!-- node5&#45;&gt;node7 -->
<g id="edge6" class="edge"><title>node5&#45;&gt;node7</title>
<path fill="none" stroke="black" d="M219.697,-267.965C258.338,-252.846 324.607,-226.917 366.162,-210.657"/>
<polygon fill="black" stroke="black" points="367.615,-213.847 375.652,-206.944 365.065,-207.328 367.615,-213.847"/>
<text text-anchor="middle" x="296.28" y="-255.8" font-family="Times New Roman,serif" font-size="14.00"> (1)</text>
</g>
<!-- node10 -->
<g id="node11" class="node"><title>node10</title>
<ellipse fill="none" stroke="black" cx="696.006" cy="-150" rx="46.5926" ry="18"/>
<text text-anchor="middle" x="696.006" y="-146.3" font-family="Times New Roman,serif" font-size="14.00">(10) AND</text>
</g>
<!-- node6&#45;&gt;node10 -->
<g id="edge11" class="edge"><title>node6&#45;&gt;node10</title>
<path fill="none" stroke="black" d="M336.871,-113.228C343.638,-114.212 350.603,-115.176 357.176,-116 456.556,-128.46 572.835,-139.358 639.803,-145.278"/>
<polygon fill="black" stroke="black" points="639.849,-148.796 650.118,-146.185 640.463,-141.823 639.849,-148.796"/>
<text text-anchor="middle" x="480.068" y="-133.8" font-family="Times New Roman,serif" font-size="14.00"> (0)</text>
</g>
<!-- node12 -->
<g id="node13" class="node"><title>node12</title>
<ellipse fill="none" stroke="black" cx="696.006" cy="-89" rx="47.3916" ry="18"/>
<text text-anchor="middle" x="696.006" y="-85.3" font-family="Times New Roman,serif" font-size="14.00">(12) XOR</text>
</g>
<!-- node6&#45;&gt;node12 -->
<g id="edge15" class="edge"><title>node6&#45;&gt;node12</title>
<path fill="none" stroke="black" d="M339.092,-105.108C410.911,-101.857 557.762,-95.2113 638.577,-91.5539"/>
<polygon fill="black" stroke="black" points="638.741,-95.0501 648.572,-91.1015 638.424,-88.0573 638.741,-95.0501"/>
<text text-anchor="middle" x="480.068" y="-101.8" font-family="Times New Roman,serif" font-size="14.00"> (0)</text>
</g>
<!-- node9 -->
<g id="node10" class="node"><title>node9</title>
<ellipse fill="none" stroke="black" cx="550.314" cy="-196" rx="42.4939" ry="18"/>
<text text-anchor="middle" x="550.314" y="-192.3" font-family="Times New Roman,serif" font-size="14.00">(9) AND</text>
</g>
<!-- node7&#45;&gt;node9 -->
<g id="edge10" class="edge"><title>node7&#45;&gt;node9</title>
<path fill="none" stroke="black" d="M441.142,-196C458.181,-196 478.921,-196 497.664,-196"/>
<polygon fill="black" stroke="black" points="497.836,-199.5 507.835,-196 497.835,-192.5 497.836,-199.5"/>
<text text-anchor="middle" x="480.068" y="-199.8" font-family="Times New Roman,serif" font-size="14.00"> (1)</text>
</g>
<!-- node8&#45;&gt;node9 -->
<g id="edge9" class="edge"><title>node8&#45;&gt;node9</title>
<path fill="none" stroke="black" d="M206.174,-332.334C218.568,-321.736 236.08,-308.07 253.384,-299 288.909,-280.38 301.22,-283.965 339.176,-271 398.056,-250.889 465.775,-226.489 508.062,-211.099"/>
<polygon fill="black" stroke="black" points="509.527,-214.291 517.724,-207.579 507.13,-207.714 509.527,-214.291"/>
<text text-anchor="middle" x="404.622" y="-267.8" font-family="Times New Roman,serif" font-size="14.00"> (0)</text>
</g>
<!-- node9&#45;&gt;node10 -->
<g id="edge12" class="edge"><title>node9&#45;&gt;node10</title>
<path fill="none" stroke="black" d="M584.641,-185.331C604.037,-179.122 628.751,-171.21 649.873,-164.449"/>
<polygon fill="black" stroke="black" points="651.145,-167.716 659.602,-161.334 649.011,-161.049 651.145,-167.716"/>
<text text-anchor="middle" x="620.561" y="-178.8" font-family="Times New Roman,serif" font-size="14.00"> (1)</text>
</g>
<!-- node9&#45;&gt;node12 -->
<g id="edge16" class="edge"><title>node9&#45;&gt;node12</title>
<path fill="none" stroke="black" d="M572.127,-180.263C591.781,-165.43 622.105,-142.612 648.561,-123 653.829,-119.095 659.448,-114.957 664.893,-110.963"/>
<polygon fill="black" stroke="black" points="667.228,-113.591 673.228,-104.859 663.092,-107.944 667.228,-113.591"/>
<text text-anchor="middle" x="620.561" y="-153.8" font-family="Times New Roman,serif" font-size="14.00"> (1)</text>
</g>
<!-- node15 -->
<g id="node16" class="node"><title>node15</title>
<ellipse fill="none" stroke="black" cx="846.898" cy="-92" rx="47.3916" ry="18"/>
<text text-anchor="middle" x="846.898" y="-88.3" font-family="Times New Roman,serif" font-size="14.00">(15) XOR</text>
</g>
<!-- node10&#45;&gt;node15 -->
<g id="edge21" class="edge"><title>node10&#45;&gt;node15</title>
<path fill="none" stroke="black" d="M729.681,-137.272C751.425,-128.802 780.197,-117.593 803.673,-108.449"/>
<polygon fill="black" stroke="black" points="804.995,-111.69 813.042,-104.799 802.454,-105.167 804.995,-111.69"/>
<text text-anchor="middle" x="771.452" y="-127.8" font-family="Times New Roman,serif" font-size="14.00"> (0)</text>
</g>
<!-- node11&#45;&gt;node15 -->
<g id="edge22" class="edge"><title>node11&#45;&gt;node15</title>
<path fill="none" stroke="black" d="M234.143,-36.3299C277.569,-39.2389 345.043,-43 403.622,-43 403.622,-43 403.622,-43 697.006,-43 737.032,-43 780.213,-59.1747 809.712,-72.938"/>
<polygon fill="black" stroke="black" points="808.258,-76.1224 818.787,-77.2984 811.29,-69.8129 808.258,-76.1224"/>
<text text-anchor="middle" x="550.314" y="-46.8" font-family="Times New Roman,serif" font-size="14.00"> (1)</text>
</g>
<!-- node17 -->
<g id="node18" class="node"><title>node17</title>
<ellipse fill="none" stroke="black" cx="974.24" cy="-18" rx="42.7926" ry="18"/>
<text text-anchor="middle" x="974.24" y="-14.3" font-family="Times New Roman,serif" font-size="14.00">Output 1</text>
</g>
<!-- node12&#45;&gt;node17 -->
<g id="edge24" class="edge"><title>node12&#45;&gt;node17</title>
<path fill="none" stroke="black" d="M735.706,-79.053C785.924,-66.1457 873.442,-43.651 927.071,-29.8668"/>
<polygon fill="black" stroke="black" points="928.185,-33.1943 936.999,-27.3151 926.442,-26.4147 928.185,-33.1943"/>
</g>
<!-- node13&#45;&gt;node14 -->
<g id="edge20" class="edge"><title>node13&#45;&gt;node14</title>
<path fill="none" stroke="black" d="M216.715,-240.572C223.055,-244.323 229.619,-248.563 235.384,-253 244.35,-259.901 244.447,-264.062 253.384,-271 289.348,-298.917 334.818,-324.708 366.266,-341.26"/>
<polygon fill="black" stroke="black" points="364.66,-344.37 375.146,-345.885 367.893,-338.162 364.66,-344.37"/>
<text text-anchor="middle" x="296.28" y="-328.8" font-family="Times New Roman,serif" font-size="14.00"> (1)</text>
</g>
<!-- node16 -->
<g id="node17" class="node"><title>node16</title>
<ellipse fill="none" stroke="black" cx="974.24" cy="-360" rx="42.7926" ry="18"/>
<text text-anchor="middle" x="974.24" y="-356.3" font-family="Times New Roman,serif" font-size="14.00">Output 0</text>
</g>
<!-- node14&#45;&gt;node16 -->
<g id="edge23" class="edge"><title>node14&#45;&gt;node16</title>
<path fill="none" stroke="black" d="M452.216,-360C480.336,-360 516.884,-360 549.314,-360 549.314,-360 549.314,-360 847.898,-360 871.958,-360 898.616,-360 921.14,-360"/>
<polygon fill="black" stroke="black" points="921.173,-363.5 931.173,-360 921.173,-356.5 921.173,-363.5"/>
</g>
<!-- node18 -->
<g id="node19" class="node"><title>node18</title>
<ellipse fill="none" stroke="black" cx="974.24" cy="-92" rx="42.7926" ry="18"/>
<text text-anchor="middle" x="974.24" y="-88.3" font-family="Times New Roman,serif" font-size="14.00">Output 2</text>
</g>
<!-- node15&#45;&gt;node18 -->
<g id="edge25" class="edge"><title>node15&#45;&gt;node18</title>
<path fill="none" stroke="black" d="M894.571,-92C903.175,-92 912.211,-92 920.968,-92"/>
<polygon fill="black" stroke="black" points="921.078,-95.5001 931.078,-92 921.078,-88.5001 921.078,-95.5001"/>
</g>
</g>
</svg>
