<?xml version="1.0" encoding="UTF-8" standalone="no"?>
<!DOCTYPE svg PUBLIC "-//W3C//DTD SVG 1.1//EN"
 "http://www.w3.org/Graphics/SVG/1.1/DTD/svg11.dtd">
<!-- Generated by graphviz version 2.38.0 (20140413.2041)
 -->
<!-- Title: NeuralNetwork Pages: 1 -->
<svg width="288pt" height="178pt"
 viewBox="0.00 0.00 288.00 178.23" xmlns="http://www.w3.org/2000/svg" xmlns:xlink="http://www.w3.org/1999/xlink">
<g id="graph0" class="graph" transform="scale(0.19268 0.19268) rotate(0) translate(4 921)">
<title>NeuralNetwork</title>
<polygon fill="white" stroke="none" points="-4,4 -4,-921 1490.71,-921 1490.71,4 -4,4"/>
<!-- node0 -->
<g id="node1" class="node"><title>node0</title>
<ellipse fill="none" stroke="black" cx="42.2463" cy="-242" rx="42.4939" ry="18"/>
<text text-anchor="middle" x="42.2463" y="-238.3" font-family="Times New Roman,serif" font-size="14.00">(0) Input</text>
</g>
<!-- node7 -->
<g id="node8" class="node"><title>node7</title>
<ellipse fill="none" stroke="black" cx="187.288" cy="-260" rx="42.4939" ry="18"/>
<text text-anchor="middle" x="187.288" y="-256.3" font-family="Times New Roman,serif" font-size="14.00">(7) AND</text>
</g>
<!-- node0&#45;&gt;node7 -->
<g id="edge4" class="edge"><title>node0&#45;&gt;node7</title>
<path fill="none" stroke="black" d="M84.5207,-240.59C96.7879,-240.691 110.225,-241.315 122.493,-243 129.206,-243.922 136.222,-245.325 143.042,-246.938"/>
<polygon fill="black" stroke="black" points="142.282,-250.356 152.836,-249.419 144.001,-243.57 142.282,-250.356"/>
<text text-anchor="middle" x="112.493" y="-246.8" font-family="Times New Roman,serif" font-size="14.00"> (1)</text>
</g>
<!-- node9 -->
<g id="node10" class="node"><title>node9</title>
<ellipse fill="none" stroke="black" cx="187.288" cy="-314" rx="42.4939" ry="18"/>
<text text-anchor="middle" x="187.288" y="-310.3" font-family="Times New Roman,serif" font-size="14.00">(9) AND</text>
</g>
<!-- node0&#45;&gt;node9 -->
<g id="edge8" class="edge"><title>node0&#45;&gt;node9</title>
<path fill="none" stroke="black" d="M57.3429,-258.952C68.3846,-271.11 84.7973,-286.892 102.493,-296 112.827,-301.32 124.658,-305.069 136.108,-307.71"/>
<polygon fill="black" stroke="black" points="135.525,-311.164 146.026,-309.759 136.94,-304.308 135.525,-311.164"/>
<text text-anchor="middle" x="112.493" y="-306.8" font-family="Times New Roman,serif" font-size="14.00"> (1)</text>
</g>
<!-- node11 -->
<g id="node12" class="node"><title>node11</title>
<ellipse fill="none" stroke="black" cx="337.53" cy="-249" rx="46.5926" ry="18"/>
<text text-anchor="middle" x="337.53" y="-245.3" font-family="Times New Roman,serif" font-size="14.00">(11) AND</text>
</g>
<!-- node0&#45;&gt;node11 -->
<g id="edge12" class="edge"><title>node0&#45;&gt;node11</title>
<path fill="none" stroke="black" d="M77.0747,-231.513C95.6023,-226.315 119.087,-220.602 140.493,-218 181.785,-212.98 192.936,-211.911 234.084,-218 254.34,-220.998 276.14,-227.159 294.401,-233.204"/>
<polygon fill="black" stroke="black" points="293.28,-236.52 303.874,-236.433 295.538,-229.894 293.28,-236.52"/>
<text text-anchor="middle" x="187.288" y="-221.8" font-family="Times New Roman,serif" font-size="14.00"> (1)</text>
</g>
<!-- node17 -->
<g id="node18" class="node"><title>node17</title>
<ellipse fill="none" stroke="black" cx="337.53" cy="-650" rx="46.5926" ry="18"/>
<text text-anchor="middle" x="337.53" y="-646.3" font-family="Times New Roman,serif" font-size="14.00">(17) AND</text>
</g>
<!-- node0&#45;&gt;node17 -->
<g id="edge23" class="edge"><title>node0&#45;&gt;node17</title>
<path fill="none" stroke="black" d="M51.855,-259.88C60.9919,-279.43 75.3472,-311.866 84.4925,-341 95.7972,-377.014 77.393,-395.808 102.493,-424 143.593,-470.165 190.897,-424.78 234.084,-469 252.646,-488.006 243.234,-500.951 252.084,-526 254.012,-531.457 286.317,-618.606 290.084,-623 292.401,-625.702 295.059,-628.198 297.904,-630.49"/>
<polygon fill="black" stroke="black" points="296.106,-633.504 306.295,-636.409 300.141,-627.784 296.106,-633.504"/>
<text text-anchor="middle" x="187.288" y="-472.8" font-family="Times New Roman,serif" font-size="14.00"> (0)</text>
</g>
<!-- node30 -->
<g id="node31" class="node"><title>node30</title>
<ellipse fill="none" stroke="black" cx="714.205" cy="-253" rx="46.5926" ry="18"/>
<text text-anchor="middle" x="714.205" y="-249.3" font-family="Times New Roman,serif" font-size="14.00">(30) AND</text>
</g>
<!-- node0&#45;&gt;node30 -->
<g id="edge49" class="edge"><title>node0&#45;&gt;node30</title>
<path fill="none" stroke="black" d="M54.8296,-224.799C82.9529,-184.787 159.391,-86.1343 252.084,-50 260.366,-46.7715 263.21,-49.497 272.084,-50 389.888,-56.6774 451.551,2.54111 535.867,-80 578.493,-121.728 514.103,-168.538 553.867,-213 579.565,-241.734 622.542,-251.276 657.39,-253.883"/>
<polygon fill="black" stroke="black" points="657.262,-257.382 667.448,-254.464 657.666,-250.393 657.262,-257.382"/>
<text text-anchor="middle" x="337.53" y="-53.8" font-family="Times New Roman,serif" font-size="14.00"> (0)</text>
</g>
<!-- node1 -->
<g id="node2" class="node"><title>node1</title>
<ellipse fill="none" stroke="black" cx="42.2463" cy="-781" rx="42.4939" ry="18"/>
<text text-anchor="middle" x="42.2463" y="-777.3" font-family="Times New Roman,serif" font-size="14.00">(1) Input</text>
</g>
<!-- node6 -->
<g id="node7" class="node"><title>node6</title>
<ellipse fill="none" stroke="black" cx="187.288" cy="-368" rx="42.4939" ry="18"/>
<text text-anchor="middle" x="187.288" y="-364.3" font-family="Times New Roman,serif" font-size="14.00">(6) AND</text>
</g>
<!-- node1&#45;&gt;node6 -->
<g id="edge2" class="edge"><title>node1&#45;&gt;node6</title>
<path fill="none" stroke="black" d="M58.1997,-764.174C67.2873,-752.995 78.2978,-737.559 84.4925,-722 104.604,-671.487 92.312,-654.408 102.493,-601 116.421,-527.929 111.238,-506.393 140.493,-438 147.221,-422.269 157.456,-406.192 166.544,-393.419"/>
<polygon fill="black" stroke="black" points="169.515,-395.286 172.596,-385.149 163.866,-391.152 169.515,-395.286"/>
<text text-anchor="middle" x="112.493" y="-604.8" font-family="Times New Roman,serif" font-size="14.00"> (1)</text>
</g>
<!-- node15 -->
<g id="node16" class="node"><title>node15</title>
<ellipse fill="none" stroke="black" cx="187.288" cy="-856" rx="46.5926" ry="18"/>
<text text-anchor="middle" x="187.288" y="-852.3" font-family="Times New Roman,serif" font-size="14.00">(15) AND</text>
</g>
<!-- node1&#45;&gt;node15 -->
<g id="edge19" class="edge"><title>node1&#45;&gt;node15</title>
<path fill="none" stroke="black" d="M69.8161,-794.931C92.3117,-806.726 124.785,-823.752 149.731,-836.832"/>
<polygon fill="black" stroke="black" points="148.405,-840.089 158.887,-841.633 151.656,-833.889 148.405,-840.089"/>
<text text-anchor="middle" x="112.493" y="-823.8" font-family="Times New Roman,serif" font-size="14.00"> (0)</text>
</g>
<!-- node16 -->
<g id="node17" class="node"><title>node16</title>
<ellipse fill="none" stroke="black" cx="187.288" cy="-616" rx="46.5926" ry="18"/>
<text text-anchor="middle" x="187.288" y="-612.3" font-family="Times New Roman,serif" font-size="14.00">(16) AND</text>
</g>
<!-- node1&#45;&gt;node16 -->
<g id="edge21" class="edge"><title>node1&#45;&gt;node16</title>
<path fill="none" stroke="black" d="M76.2865,-770.31C91.7836,-764.001 109.626,-754.722 122.493,-742 150.599,-714.21 168.605,-671.457 178.086,-643.605"/>
<polygon fill="black" stroke="black" points="181.421,-644.665 181.196,-634.073 174.767,-642.494 181.421,-644.665"/>
<text text-anchor="middle" x="112.493" y="-759.8" font-family="Times New Roman,serif" font-size="14.00"> (0)</text>
</g>
<!-- node22 -->
<g id="node23" class="node"><title>node22</title>
<ellipse fill="none" stroke="black" cx="601.313" cy="-581" rx="47.3916" ry="18"/>
<text text-anchor="middle" x="601.313" y="-577.3" font-family="Times New Roman,serif" font-size="14.00">(22) XOR</text>
</g>
<!-- node1&#45;&gt;node22 -->
<g id="edge34" class="edge"><title>node1&#45;&gt;node22</title>
<path fill="none" stroke="black" d="M84.3516,-783.053C150.248,-784.887 282.524,-782.512 384.976,-742 457.591,-713.286 477.279,-703.622 535.867,-652 545.607,-643.419 545.342,-638.789 553.867,-629 560.836,-620.999 568.756,-612.585 576.058,-605.076"/>
<polygon fill="black" stroke="black" points="578.581,-607.502 583.095,-597.917 573.589,-602.595 578.581,-607.502"/>
<text text-anchor="middle" x="262.084" y="-777.8" font-family="Times New Roman,serif" font-size="14.00"> (1)</text>
</g>
<!-- node2 -->
<g id="node3" class="node"><title>node2</title>
<ellipse fill="none" stroke="black" cx="42.2463" cy="-886" rx="42.4939" ry="18"/>
<text text-anchor="middle" x="42.2463" y="-882.3" font-family="Times New Roman,serif" font-size="14.00">(2) Input</text>
</g>
<!-- node8 -->
<g id="node9" class="node"><title>node8</title>
<ellipse fill="none" stroke="black" cx="187.288" cy="-511" rx="42.4939" ry="18"/>
<text text-anchor="middle" x="187.288" y="-507.3" font-family="Times New Roman,serif" font-size="14.00">(8) AND</text>
</g>
<!-- node2&#45;&gt;node8 -->
<g id="edge5" class="edge"><title>node2&#45;&gt;node8</title>
<path fill="none" stroke="black" d="M54.4556,-868.765C63.9101,-853.426 77.0568,-830.065 84.4925,-808 100.173,-761.47 90.1859,-746.533 102.493,-699 109.117,-673.415 115.684,-668.537 122.493,-643 134.126,-599.366 116.142,-581.031 140.493,-543 143.361,-538.52 147.102,-534.491 151.21,-530.925"/>
<polygon fill="black" stroke="black" points="153.611,-533.496 159.431,-524.642 149.36,-527.934 153.611,-533.496"/>
<text text-anchor="middle" x="112.493" y="-702.8" font-family="Times New Roman,serif" font-size="14.00"> (0)</text>
</g>
<!-- node13 -->
<g id="node14" class="node"><title>node13</title>
<ellipse fill="none" stroke="black" cx="187.288" cy="-748" rx="46.5926" ry="18"/>
<text text-anchor="middle" x="187.288" y="-744.3" font-family="Times New Roman,serif" font-size="14.00">(13) AND</text>
</g>
<!-- node2&#45;&gt;node13 -->
<g id="edge15" class="edge"><title>node2&#45;&gt;node13</title>
<path fill="none" stroke="black" d="M71.6058,-872.937C87.6629,-864.666 107.474,-852.916 122.493,-839 142.773,-820.207 160.339,-793.938 171.875,-774.453"/>
<polygon fill="black" stroke="black" points="174.923,-776.173 176.889,-765.762 168.86,-772.675 174.923,-776.173"/>
<text text-anchor="middle" x="112.493" y="-857.8" font-family="Times New Roman,serif" font-size="14.00"> (0)</text>
</g>
<!-- node2&#45;&gt;node15 -->
<g id="edge20" class="edge"><title>node2&#45;&gt;node15</title>
<path fill="none" stroke="black" d="M84.7391,-887.249C97.0124,-886.864 110.398,-885.693 122.493,-883 131.363,-881.025 140.555,-877.863 149.106,-874.388"/>
<polygon fill="black" stroke="black" points="150.632,-877.542 158.437,-870.377 147.867,-871.111 150.632,-877.542"/>
<text text-anchor="middle" x="112.493" y="-889.8" font-family="Times New Roman,serif" font-size="14.00"> (1)</text>
</g>
<!-- node31 -->
<g id="node32" class="node"><title>node31</title>
<ellipse fill="none" stroke="black" cx="488.422" cy="-894" rx="40.8928" ry="18"/>
<text text-anchor="middle" x="488.422" y="-890.3" font-family="Times New Roman,serif" font-size="14.00">(31) OR</text>
</g>
<!-- node2&#45;&gt;node31 -->
<g id="edge51" class="edge"><title>node2&#45;&gt;node31</title>
<path fill="none" stroke="black" d="M74.1696,-897.91C83.1655,-900.827 93.1011,-903.531 102.493,-905 111.275,-906.374 113.605,-905.134 122.493,-905 234.92,-903.306 366.764,-898.678 437.131,-895.995"/>
<polygon fill="black" stroke="black" points="437.612,-899.479 447.471,-895.598 437.344,-892.485 437.612,-899.479"/>
<text text-anchor="middle" x="262.084" y="-905.8" font-family="Times New Roman,serif" font-size="14.00"> (0)</text>
</g>
<!-- node3 -->
<g id="node4" class="node"><title>node3</title>
<ellipse fill="none" stroke="black" cx="42.2463" cy="-368" rx="42.4939" ry="18"/>
<text text-anchor="middle" x="42.2463" y="-364.3" font-family="Times New Roman,serif" font-size="14.00">(3) Input</text>
</g>
<!-- node3&#45;&gt;node6 -->
<g id="edge1" class="edge"><title>node3&#45;&gt;node6</title>
<path fill="none" stroke="black" d="M84.62,-368C100.336,-368 118.429,-368 134.955,-368"/>
<polygon fill="black" stroke="black" points="135.008,-371.5 145.008,-368 135.008,-364.5 135.008,-371.5"/>
<text text-anchor="middle" x="112.493" y="-371.8" font-family="Times New Roman,serif" font-size="14.00"> (0)</text>
</g>
<!-- node3&#45;&gt;node7 -->
<g id="edge3" class="edge"><title>node3&#45;&gt;node7</title>
<path fill="none" stroke="black" d="M49.8385,-350.19C58.5573,-329.232 75.9863,-295.014 102.493,-277 112.083,-270.482 123.623,-266.359 135.03,-263.776"/>
<polygon fill="black" stroke="black" points="135.8,-267.192 144.968,-261.881 134.489,-260.316 135.8,-267.192"/>
<text text-anchor="middle" x="112.493" y="-280.8" font-family="Times New Roman,serif" font-size="14.00"> (0)</text>
</g>
<!-- node3&#45;&gt;node8 -->
<g id="edge6" class="edge"><title>node3&#45;&gt;node8</title>
<path fill="none" stroke="black" d="M54.0379,-385.484C65.069,-402.639 83.2676,-429.055 102.493,-449 117.425,-464.493 123.222,-466.165 140.493,-479 145.28,-482.558 150.411,-486.253 155.443,-489.815"/>
<polygon fill="black" stroke="black" points="153.544,-492.758 163.741,-495.633 157.563,-487.026 153.544,-492.758"/>
<text text-anchor="middle" x="112.493" y="-469.8" font-family="Times New Roman,serif" font-size="14.00"> (1)</text>
</g>
<!-- node4 -->
<g id="node5" class="node"><title>node4</title>
<ellipse fill="none" stroke="black" cx="42.2463" cy="-695" rx="42.4939" ry="18"/>
<text text-anchor="middle" x="42.2463" y="-691.3" font-family="Times New Roman,serif" font-size="14.00">(4) Input</text>
</g>
<!-- node4&#45;&gt;node13 -->
<g id="edge16" class="edge"><title>node4&#45;&gt;node13</title>
<path fill="none" stroke="black" d="M74.6374,-706.631C94.8395,-714.116 121.357,-723.942 143.48,-732.139"/>
<polygon fill="black" stroke="black" points="142.385,-735.465 152.978,-735.658 144.817,-728.902 142.385,-735.465"/>
<text text-anchor="middle" x="112.493" y="-726.8" font-family="Times New Roman,serif" font-size="14.00"> (1)</text>
</g>
<!-- node14 -->
<g id="node15" class="node"><title>node14</title>
<ellipse fill="none" stroke="black" cx="488.422" cy="-437" rx="47.3916" ry="18"/>
<text text-anchor="middle" x="488.422" y="-433.3" font-family="Times New Roman,serif" font-size="14.00">(14) XOR</text>
</g>
<!-- node4&#45;&gt;node14 -->
<g id="edge17" class="edge"><title>node4&#45;&gt;node14</title>
<path fill="none" stroke="black" d="M84.5336,-695.242C170.112,-695.397 360.902,-693.825 384.976,-677 421.594,-651.407 462.595,-522.801 479.491,-465.097"/>
<polygon fill="black" stroke="black" points="482.941,-465.767 482.359,-455.188 476.217,-463.82 482.941,-465.767"/>
<text text-anchor="middle" x="262.084" y="-695.8" font-family="Times New Roman,serif" font-size="14.00"> (0)</text>
</g>
<!-- node4&#45;&gt;node16 -->
<g id="edge22" class="edge"><title>node4&#45;&gt;node16</title>
<path fill="none" stroke="black" d="M53.5443,-677.579C63.835,-661.861 81.1714,-639.496 102.493,-628 110.941,-623.445 120.533,-620.433 130.135,-618.473"/>
<polygon fill="black" stroke="black" points="130.82,-621.907 140.098,-616.791 129.654,-615.005 130.82,-621.907"/>
<text text-anchor="middle" x="112.493" y="-631.8" font-family="Times New Roman,serif" font-size="14.00"> (1)</text>
</g>
<!-- node5 -->
<g id="node6" class="node"><title>node5</title>
<ellipse fill="none" stroke="black" cx="42.2463" cy="-533" rx="42.4939" ry="18"/>
<text text-anchor="middle" x="42.2463" y="-529.3" font-family="Times New Roman,serif" font-size="14.00">(5) Input</text>
</g>
<!-- node5&#45;&gt;node9 -->
<g id="edge7" class="edge"><title>node5&#45;&gt;node9</title>
<path fill="none" stroke="black" d="M53.3613,-515.532C69.0421,-488.15 99.776,-433.258 122.493,-385 131.491,-365.883 126.669,-356.979 140.493,-341 143.068,-338.023 146.057,-335.288 149.25,-332.797"/>
<polygon fill="black" stroke="black" points="151.246,-335.672 157.487,-327.111 147.269,-329.912 151.246,-335.672"/>
<text text-anchor="middle" x="112.493" y="-425.8" font-family="Times New Roman,serif" font-size="14.00"> (0)</text>
</g>
<!-- node10 -->
<g id="node11" class="node"><title>node10</title>
<ellipse fill="none" stroke="black" cx="337.53" cy="-596" rx="40.8928" ry="18"/>
<text text-anchor="middle" x="337.53" y="-592.3" font-family="Times New Roman,serif" font-size="14.00">(10) OR</text>
</g>
<!-- node5&#45;&gt;node10 -->
<g id="edge10" class="edge"><title>node5&#45;&gt;node10</title>
<path fill="none" stroke="black" d="M76.2666,-543.81C84.7575,-546.375 93.9177,-548.956 102.493,-551 160.246,-564.766 180.214,-549.04 234.084,-574 243.533,-578.378 242.447,-585.053 252.084,-589 262.824,-593.399 274.964,-595.751 286.621,-596.901"/>
<polygon fill="black" stroke="black" points="286.469,-600.399 296.694,-597.622 286.97,-593.416 286.469,-600.399"/>
<text text-anchor="middle" x="187.288" y="-577.8" font-family="Times New Roman,serif" font-size="14.00"> (1)</text>
</g>
<!-- node19 -->
<g id="node20" class="node"><title>node19</title>
<ellipse fill="none" stroke="black" cx="714.205" cy="-446" rx="47.3916" ry="18"/>
<text text-anchor="middle" x="714.205" y="-442.3" font-family="Times New Roman,serif" font-size="14.00">(19) XOR</text>
</g>
<!-- node5&#45;&gt;node19 -->
<g id="edge27" class="edge"><title>node5&#45;&gt;node19</title>
<path fill="none" stroke="black" d="M73.2227,-520.548C89.6125,-512.463 109.219,-500.528 122.493,-485 136.221,-468.939 123.602,-453.694 140.493,-441 193.943,-400.827 223.315,-428.561 290.084,-425 349.078,-421.854 373.983,-394.986 422.976,-428 437.811,-437.997 425.759,-454.595 440.976,-464 476.851,-486.172 493.695,-464.374 535.867,-464 586.047,-463.556 599.004,-468.532 648.759,-462 654.331,-461.268 660.118,-460.235 665.836,-459.042"/>
<polygon fill="black" stroke="black" points="667.007,-462.366 675.992,-456.752 665.467,-455.537 667.007,-462.366"/>
<text text-anchor="middle" x="337.53" y="-428.8" font-family="Times New Roman,serif" font-size="14.00"> (0)</text>
</g>
<!-- node23 -->
<g id="node24" class="node"><title>node23</title>
<ellipse fill="none" stroke="black" cx="488.422" cy="-625" rx="46.5926" ry="18"/>
<text text-anchor="middle" x="488.422" y="-621.3" font-family="Times New Roman,serif" font-size="14.00">(23) AND</text>
</g>
<!-- node5&#45;&gt;node23 -->
<g id="edge36" class="edge"><title>node5&#45;&gt;node23</title>
<path fill="none" stroke="black" d="M52.8985,-550.743C63.4336,-569.034 81.6127,-597.673 102.493,-618 128.475,-643.295 206.357,-699.005 252.084,-712 297.845,-725.005 267.371,-777.049 422.976,-698 443.451,-687.599 460.342,-667.681 471.689,-651.275"/>
<polygon fill="black" stroke="black" points="474.823,-652.879 477.409,-642.605 468.98,-649.024 474.823,-652.879"/>
<text text-anchor="middle" x="262.084" y="-726.8" font-family="Times New Roman,serif" font-size="14.00"> (1)</text>
</g>
<!-- node6&#45;&gt;node10 -->
<g id="edge9" class="edge"><title>node6&#45;&gt;node10</title>
<path fill="none" stroke="black" d="M201.149,-385.155C211.06,-398.925 224.625,-419.024 234.084,-438 244.621,-459.138 240.131,-467.63 252.084,-488 258.94,-499.684 265.491,-499.166 272.084,-511 285.221,-534.578 273.269,-547.887 290.084,-569 292.626,-572.192 295.656,-575.081 298.933,-577.679"/>
<polygon fill="black" stroke="black" points="297.226,-580.753 307.448,-583.538 301.194,-574.986 297.226,-580.753"/>
<text text-anchor="middle" x="262.084" y="-514.8" font-family="Times New Roman,serif" font-size="14.00"> (0)</text>
</g>
<!-- node6&#45;&gt;node11 -->
<g id="edge11" class="edge"><title>node6&#45;&gt;node11</title>
<path fill="none" stroke="black" d="M217.333,-355.093C223.516,-351.274 229.542,-346.585 234.084,-341 249.78,-321.699 235.443,-306.492 252.084,-288 261.907,-277.085 275.405,-269.004 288.73,-263.12"/>
<polygon fill="black" stroke="black" points="290.397,-266.22 298.346,-259.215 287.763,-259.735 290.397,-266.22"/>
<text text-anchor="middle" x="262.084" y="-291.8" font-family="Times New Roman,serif" font-size="14.00"> (0)</text>
</g>
<!-- node12 -->
<g id="node13" class="node"><title>node12</title>
<ellipse fill="none" stroke="black" cx="488.422" cy="-202" rx="47.3916" ry="18"/>
<text text-anchor="middle" x="488.422" y="-198.3" font-family="Times New Roman,serif" font-size="14.00">(12) XOR</text>
</g>
<!-- node6&#45;&gt;node12 -->
<g id="edge13" class="edge"><title>node6&#45;&gt;node12</title>
<path fill="none" stroke="black" d="M217.963,-355.567C224.12,-351.728 229.976,-346.912 234.084,-341 260.101,-303.555 229.585,-279.659 252.084,-240 263.122,-220.544 269.231,-215.093 290.084,-207 336.473,-188.996 393.721,-189.806 434.587,-193.881"/>
<polygon fill="black" stroke="black" points="434.286,-197.369 444.608,-194.977 435.048,-190.41 434.286,-197.369"/>
<text text-anchor="middle" x="337.53" y="-210.8" font-family="Times New Roman,serif" font-size="14.00"> (0)</text>
</g>
<!-- node28 -->
<g id="node29" class="node"><title>node28</title>
<ellipse fill="none" stroke="black" cx="865.096" cy="-407" rx="46.5926" ry="18"/>
<text text-anchor="middle" x="865.096" y="-403.3" font-family="Times New Roman,serif" font-size="14.00">(28) AND</text>
</g>
<!-- node6&#45;&gt;node28 -->
<g id="edge46" class="edge"><title>node6&#45;&gt;node28</title>
<path fill="none" stroke="black" d="M222.415,-357.908C237.733,-353.148 255.95,-347.164 272.084,-341 280.262,-337.875 281.698,-335.514 290.084,-333 355.199,-313.483 373.228,-313.574 440.976,-308 483.008,-304.542 494.145,-301.845 535.867,-308 642.063,-323.667 761.535,-366.395 822.871,-390.279"/>
<polygon fill="black" stroke="black" points="821.617,-393.547 832.204,-393.943 824.175,-387.031 821.617,-393.547"/>
<text text-anchor="middle" x="488.422" y="-311.8" font-family="Times New Roman,serif" font-size="14.00"> (1)</text>
</g>
<!-- node18 -->
<g id="node19" class="node"><title>node18</title>
<ellipse fill="none" stroke="black" cx="337.53" cy="-360" rx="40.8928" ry="18"/>
<text text-anchor="middle" x="337.53" y="-356.3" font-family="Times New Roman,serif" font-size="14.00">(18) OR</text>
</g>
<!-- node7&#45;&gt;node18 -->
<g id="edge25" class="edge"><title>node7&#45;&gt;node18</title>
<path fill="none" stroke="black" d="M218.777,-247.782C235.518,-243.1 256.068,-240.821 272.084,-250 276.235,-252.379 304.185,-301.738 321.888,-333.521"/>
<polygon fill="black" stroke="black" points="318.881,-335.316 326.798,-342.357 325,-331.916 318.881,-335.316"/>
<text text-anchor="middle" x="262.084" y="-253.8" font-family="Times New Roman,serif" font-size="14.00"> (0)</text>
</g>
<!-- node20 -->
<g id="node21" class="node"><title>node20</title>
<ellipse fill="none" stroke="black" cx="337.53" cy="-542" rx="47.3916" ry="18"/>
<text text-anchor="middle" x="337.53" y="-538.3" font-family="Times New Roman,serif" font-size="14.00">(20) XOR</text>
</g>
<!-- node7&#45;&gt;node20 -->
<g id="edge29" class="edge"><title>node7&#45;&gt;node20</title>
<path fill="none" stroke="black" d="M217.3,-272.933C223.485,-276.752 229.52,-281.433 234.084,-287 266.613,-326.673 258.78,-346.451 272.084,-396 283.115,-437.082 271.234,-451.868 290.084,-490 295.125,-500.197 302.723,-509.914 310.322,-518.13"/>
<polygon fill="black" stroke="black" points="308.036,-520.799 317.524,-525.514 313.047,-515.911 308.036,-520.799"/>
<text text-anchor="middle" x="262.084" y="-399.8" font-family="Times New Roman,serif" font-size="14.00"> (0)</text>
</g>
<!-- node33 -->
<g id="node34" class="node"><title>node33</title>
<ellipse fill="none" stroke="black" cx="865.096" cy="-148" rx="47.3916" ry="18"/>
<text text-anchor="middle" x="865.096" y="-144.3" font-family="Times New Roman,serif" font-size="14.00">(33) XOR</text>
</g>
<!-- node7&#45;&gt;node33 -->
<g id="edge55" class="edge"><title>node7&#45;&gt;node33</title>
<path fill="none" stroke="black" d="M219.564,-248.287C224.914,-245.232 230.04,-241.5 234.084,-237 249.313,-220.053 239.892,-208.248 252.084,-189 280.919,-143.478 282.644,-102 336.53,-102 336.53,-102 336.53,-102 715.205,-102 754.339,-102 796.784,-116.686 826.305,-129.462"/>
<polygon fill="black" stroke="black" points="825.239,-132.819 835.798,-133.697 828.092,-126.426 825.239,-132.819"/>
<text text-anchor="middle" x="488.422" y="-105.8" font-family="Times New Roman,serif" font-size="14.00"> (0)</text>
</g>
<!-- node39 -->
<g id="node40" class="node"><title>node39</title>
<ellipse fill="none" stroke="black" cx="1443.81" cy="-18" rx="42.7926" ry="18"/>
<text text-anchor="middle" x="1443.81" y="-14.3" font-family="Times New Roman,serif" font-size="14.00">Output 0</text>
</g>
<!-- node7&#45;&gt;node39 -->
<g id="edge67" class="edge"><title>node7&#45;&gt;node39</title>
<path fill="none" stroke="black" d="M220.63,-248.508C225.748,-245.455 230.519,-241.666 234.084,-237 258.586,-204.933 235.455,-184.771 252.084,-148 263.585,-122.568 266.839,-113.451 290.084,-98 349.375,-58.5882 529.118,-18 600.313,-18 600.313,-18 600.313,-18 1317.47,-18 1341.53,-18 1368.19,-18 1390.71,-18"/>
<polygon fill="black" stroke="black" points="1390.75,-21.5001 1400.75,-18 1390.75,-14.5001 1390.75,-21.5001"/>
</g>
<!-- node21 -->
<g id="node22" class="node"><title>node21</title>
<ellipse fill="none" stroke="black" cx="488.422" cy="-383" rx="47.3916" ry="18"/>
<text text-anchor="middle" x="488.422" y="-379.3" font-family="Times New Roman,serif" font-size="14.00">(21) XOR</text>
</g>
<!-- node8&#45;&gt;node21 -->
<g id="edge32" class="edge"><title>node8&#45;&gt;node21</title>
<path fill="none" stroke="black" d="M212.84,-496.213C220.103,-491.235 227.788,-485.323 234.084,-479 244.001,-469.04 239.635,-459.523 252.084,-453 319.476,-417.69 361.13,-507.311 422.976,-463 443.198,-448.511 425.221,-429.252 440.976,-410 443.102,-407.401 445.549,-405 448.184,-402.791"/>
<polygon fill="black" stroke="black" points="450.485,-405.446 456.522,-396.74 446.373,-399.781 450.485,-405.446"/>
<text text-anchor="middle" x="337.53" y="-478.8" font-family="Times New Roman,serif" font-size="14.00"> (1)</text>
</g>
<!-- node27 -->
<g id="node28" class="node"><title>node27</title>
<ellipse fill="none" stroke="black" cx="714.205" cy="-148" rx="47.3916" ry="18"/>
<text text-anchor="middle" x="714.205" y="-144.3" font-family="Times New Roman,serif" font-size="14.00">(27) XOR</text>
</g>
<!-- node9&#45;&gt;node27 -->
<g id="edge44" class="edge"><title>node9&#45;&gt;node27</title>
<path fill="none" stroke="black" d="M217.724,-301.396C223.892,-297.564 229.812,-292.794 234.084,-287 254.684,-259.061 231.915,-239.251 252.084,-211 263.691,-194.743 271.304,-193.806 290.084,-187 415.29,-141.621 574.323,-140.849 657.21,-144.338"/>
<polygon fill="black" stroke="black" points="657.269,-147.845 667.419,-144.806 657.59,-140.852 657.269,-147.845"/>
<text text-anchor="middle" x="412.976" y="-160.8" font-family="Times New Roman,serif" font-size="14.00"> (1)</text>
</g>
<!-- node26 -->
<g id="node27" class="node"><title>node26</title>
<ellipse fill="none" stroke="black" cx="1015.99" cy="-709" rx="46.5926" ry="18"/>
<text text-anchor="middle" x="1015.99" y="-705.3" font-family="Times New Roman,serif" font-size="14.00">(26) AND</text>
</g>
<!-- node10&#45;&gt;node26 -->
<g id="edge41" class="edge"><title>node10&#45;&gt;node26</title>
<path fill="none" stroke="black" d="M364.09,-609.806C371.017,-613.829 378.413,-618.389 384.976,-623 433.618,-657.176 427.974,-709 487.422,-709 487.422,-709 487.422,-709 866.096,-709 896.696,-709 930.833,-709 958.693,-709"/>
<polygon fill="black" stroke="black" points="959.043,-712.5 969.043,-709 959.043,-705.5 959.043,-712.5"/>
<text text-anchor="middle" x="714.205" y="-712.8" font-family="Times New Roman,serif" font-size="14.00"> (0)</text>
</g>
<!-- node11&#45;&gt;node12 -->
<g id="edge14" class="edge"><title>node11&#45;&gt;node12</title>
<path fill="none" stroke="black" d="M374.193,-237.742C394.486,-231.337 420.113,-223.247 441.852,-216.385"/>
<polygon fill="black" stroke="black" points="443.051,-219.677 451.533,-213.329 440.944,-213.001 443.051,-219.677"/>
<text text-anchor="middle" x="412.976" y="-231.8" font-family="Times New Roman,serif" font-size="14.00"> (1)</text>
</g>
<!-- node11&#45;&gt;node14 -->
<g id="edge18" class="edge"><title>node11&#45;&gt;node14</title>
<path fill="none" stroke="black" d="M356.14,-265.841C375.113,-284.881 404.996,-317.599 422.976,-351 435.97,-375.14 423.948,-388.514 440.976,-410 443.061,-412.631 445.479,-415.057 448.094,-417.282"/>
<polygon fill="black" stroke="black" points="446.26,-420.277 456.395,-423.362 450.396,-414.63 446.26,-420.277"/>
<text text-anchor="middle" x="412.976" y="-354.8" font-family="Times New Roman,serif" font-size="14.00"> (1)</text>
</g>
<!-- node35 -->
<g id="node36" class="node"><title>node35</title>
<ellipse fill="none" stroke="black" cx="865.096" cy="-237" rx="47.3916" ry="18"/>
<text text-anchor="middle" x="865.096" y="-233.3" font-family="Times New Roman,serif" font-size="14.00">(35) XOR</text>
</g>
<!-- node12&#45;&gt;node35 -->
<g id="edge59" class="edge"><title>node12&#45;&gt;node35</title>
<path fill="none" stroke="black" d="M535.306,-199.053C596.452,-196.258 707.636,-195.142 799.651,-216 806.436,-217.538 813.525,-219.486 820.415,-221.572"/>
<polygon fill="black" stroke="black" points="819.719,-225.023 830.309,-224.696 821.827,-218.348 819.719,-225.023"/>
<text text-anchor="middle" x="714.205" y="-211.8" font-family="Times New Roman,serif" font-size="14.00"> (0)</text>
</g>
<!-- node13&#45;&gt;node20 -->
<g id="edge30" class="edge"><title>node13&#45;&gt;node20</title>
<path fill="none" stroke="black" d="M195.753,-730.279C209.389,-698.211 238.199,-631.936 252.084,-611 265.998,-590.022 270.526,-584.847 290.084,-569 293.175,-566.495 296.526,-564.076 299.964,-561.782"/>
<polygon fill="black" stroke="black" points="301.983,-564.647 308.59,-556.365 298.26,-558.719 301.983,-564.647"/>
<text text-anchor="middle" x="262.084" y="-614.8" font-family="Times New Roman,serif" font-size="14.00"> (1)</text>
</g>
<!-- node24 -->
<g id="node25" class="node"><title>node24</title>
<ellipse fill="none" stroke="black" cx="337.53" cy="-843" rx="40.8928" ry="18"/>
<text text-anchor="middle" x="337.53" y="-839.3" font-family="Times New Roman,serif" font-size="14.00">(24) OR</text>
</g>
<!-- node13&#45;&gt;node24 -->
<g id="edge38" class="edge"><title>node13&#45;&gt;node24</title>
<path fill="none" stroke="black" d="M208.46,-764.3C220.762,-773.954 236.977,-786.179 252.084,-796 267.694,-806.148 285.638,-816.33 300.96,-824.609"/>
<polygon fill="black" stroke="black" points="299.647,-827.876 310.117,-829.501 302.946,-821.701 299.647,-827.876"/>
<text text-anchor="middle" x="262.084" y="-811.8" font-family="Times New Roman,serif" font-size="14.00"> (1)</text>
</g>
<!-- node14&#45;&gt;node19 -->
<g id="edge28" class="edge"><title>node14&#45;&gt;node19</title>
<path fill="none" stroke="black" d="M535.79,-438.865C570.896,-440.277 619.289,-442.223 656.666,-443.726"/>
<polygon fill="black" stroke="black" points="656.764,-447.233 666.896,-444.138 657.045,-440.238 656.764,-447.233"/>
<text text-anchor="middle" x="601.313" y="-446.8" font-family="Times New Roman,serif" font-size="14.00"> (1)</text>
</g>
<!-- node14&#45;&gt;node30 -->
<g id="edge50" class="edge"><title>node14&#45;&gt;node30</title>
<path fill="none" stroke="black" d="M516.519,-422.458C523.015,-418.645 529.819,-414.369 535.867,-410 594.498,-367.645 656.281,-309.373 689.204,-277.054"/>
<polygon fill="black" stroke="black" points="691.892,-279.319 696.549,-269.803 686.974,-274.337 691.892,-279.319"/>
<text text-anchor="middle" x="601.313" y="-397.8" font-family="Times New Roman,serif" font-size="14.00"> (1)</text>
</g>
<!-- node15&#45;&gt;node24 -->
<g id="edge37" class="edge"><title>node15&#45;&gt;node24</title>
<path fill="none" stroke="black" d="M233.168,-852.064C250.265,-850.565 269.833,-848.849 287.312,-847.316"/>
<polygon fill="black" stroke="black" points="287.671,-850.798 297.327,-846.438 287.059,-843.825 287.671,-850.798"/>
<text text-anchor="middle" x="262.084" y="-853.8" font-family="Times New Roman,serif" font-size="14.00"> (0)</text>
</g>
<!-- node16&#45;&gt;node17 -->
<g id="edge24" class="edge"><title>node16&#45;&gt;node17</title>
<path fill="none" stroke="black" d="M228.014,-625.111C246.2,-629.282 267.934,-634.267 287.159,-638.676"/>
<polygon fill="black" stroke="black" points="286.422,-642.098 296.952,-640.922 287.987,-635.275 286.422,-642.098"/>
<text text-anchor="middle" x="262.084" y="-638.8" font-family="Times New Roman,serif" font-size="14.00"> (1)</text>
</g>
<!-- node16&#45;&gt;node18 -->
<g id="edge26" class="edge"><title>node16&#45;&gt;node18</title>
<path fill="none" stroke="black" d="M216.208,-601.768C223.049,-597.009 229.667,-591.076 234.084,-584 261.48,-540.116 236.458,-518.317 252.084,-469 263.612,-432.62 265.122,-420.867 290.084,-392 293.767,-387.741 298.139,-383.781 302.704,-380.2"/>
<polygon fill="black" stroke="black" points="304.972,-382.879 311.023,-374.182 300.869,-377.207 304.972,-382.879"/>
<text text-anchor="middle" x="262.084" y="-472.8" font-family="Times New Roman,serif" font-size="14.00"> (1)</text>
</g>
<!-- node17&#45;&gt;node31 -->
<g id="edge52" class="edge"><title>node17&#45;&gt;node31</title>
<path fill="none" stroke="black" d="M343.719,-667.959C355.655,-706.869 388.157,-800.403 440.976,-862 444.641,-866.274 449.003,-870.243 453.563,-873.827"/>
<polygon fill="black" stroke="black" points="451.727,-876.819 461.88,-879.848 455.832,-871.149 451.727,-876.819"/>
<text text-anchor="middle" x="412.976" y="-839.8" font-family="Times New Roman,serif" font-size="14.00"> (1)</text>
</g>
<!-- node18&#45;&gt;node21 -->
<g id="edge31" class="edge"><title>node18&#45;&gt;node21</title>
<path fill="none" stroke="black" d="M376.487,-365.863C394.015,-368.571 415.128,-371.832 434.21,-374.78"/>
<polygon fill="black" stroke="black" points="433.851,-378.266 444.268,-376.334 434.92,-371.348 433.851,-378.266"/>
<text text-anchor="middle" x="412.976" y="-375.8" font-family="Times New Roman,serif" font-size="14.00"> (0)</text>
</g>
<!-- node18&#45;&gt;node23 -->
<g id="edge35" class="edge"><title>node18&#45;&gt;node23</title>
<path fill="none" stroke="black" d="M364.224,-374.024C371.622,-378.972 379.235,-385.057 384.976,-392 437.593,-455.639 467.98,-550.52 480.555,-597.124"/>
<polygon fill="black" stroke="black" points="477.18,-598.052 483.105,-606.836 483.951,-596.275 477.18,-598.052"/>
<text text-anchor="middle" x="412.976" y="-452.8" font-family="Times New Roman,serif" font-size="14.00"> (0)</text>
</g>
<!-- node37 -->
<g id="node38" class="node"><title>node37</title>
<ellipse fill="none" stroke="black" cx="1316.47" cy="-344" rx="47.3916" ry="18"/>
<text text-anchor="middle" x="1316.47" y="-340.3" font-family="Times New Roman,serif" font-size="14.00">(37) XOR</text>
</g>
<!-- node18&#45;&gt;node37 -->
<g id="edge63" class="edge"><title>node18&#45;&gt;node37</title>
<path fill="none" stroke="black" d="M376.59,-354.549C427.457,-347.748 520.472,-337 600.313,-337 600.313,-337 600.313,-337 1167.23,-337 1197.73,-337 1231.72,-338.497 1259.45,-340.106"/>
<polygon fill="black" stroke="black" points="1259.56,-343.619 1269.75,-340.725 1259.98,-336.631 1259.56,-343.619"/>
<text text-anchor="middle" x="865.096" y="-340.8" font-family="Times New Roman,serif" font-size="14.00"> (0)</text>
</g>
<!-- node25 -->
<g id="node26" class="node"><title>node25</title>
<ellipse fill="none" stroke="black" cx="865.096" cy="-562" rx="40.8928" ry="18"/>
<text text-anchor="middle" x="865.096" y="-558.3" font-family="Times New Roman,serif" font-size="14.00">(25) OR</text>
</g>
<!-- node19&#45;&gt;node25 -->
<g id="edge39" class="edge"><title>node19&#45;&gt;node25</title>
<path fill="none" stroke="black" d="M735.907,-462.129C761.943,-482.414 806.758,-517.328 835.905,-540.036"/>
<polygon fill="black" stroke="black" points="834.006,-542.993 844.045,-546.378 838.308,-537.471 834.006,-542.993"/>
<text text-anchor="middle" x="789.651" y="-513.8" font-family="Times New Roman,serif" font-size="14.00"> (0)</text>
</g>
<!-- node19&#45;&gt;node28 -->
<g id="edge45" class="edge"><title>node19&#45;&gt;node28</title>
<path fill="none" stroke="black" d="M753.936,-435.855C772.953,-430.874 796.045,-424.825 816.165,-419.555"/>
<polygon fill="black" stroke="black" points="817.288,-422.879 826.075,-416.959 815.514,-416.107 817.288,-422.879"/>
<text text-anchor="middle" x="789.651" y="-431.8" font-family="Times New Roman,serif" font-size="14.00"> (0)</text>
</g>
<!-- node20&#45;&gt;node22 -->
<g id="edge33" class="edge"><title>node20&#45;&gt;node22</title>
<path fill="none" stroke="black" d="M382.052,-548.484C427.252,-555.218 498.032,-565.762 546.663,-573.007"/>
<polygon fill="black" stroke="black" points="546.28,-576.489 556.687,-574.501 547.312,-569.565 546.28,-576.489"/>
<text text-anchor="middle" x="412.976" y="-557.8" font-family="Times New Roman,serif" font-size="14.00"> (0)</text>
</g>
<!-- node21&#45;&gt;node27 -->
<g id="edge43" class="edge"><title>node21&#45;&gt;node27</title>
<path fill="none" stroke="black" d="M501.648,-365.378C514.179,-347.641 534.515,-319.73 553.867,-297 600.711,-241.981 611.645,-226.732 666.759,-180 671.053,-176.359 675.762,-172.739 680.482,-169.314"/>
<polygon fill="black" stroke="black" points="682.732,-172.011 688.903,-163.399 678.708,-166.283 682.732,-172.011"/>
<text text-anchor="middle" x="601.313" y="-300.8" font-family="Times New Roman,serif" font-size="14.00"> (0)</text>
</g>
<!-- node22&#45;&gt;node25 -->
<g id="edge40" class="edge"><title>node22&#45;&gt;node25</title>
<path fill="none" stroke="black" d="M648.212,-577.669C694.66,-574.298 766.266,-569.1 814.123,-565.627"/>
<polygon fill="black" stroke="black" points="814.534,-569.106 824.255,-564.892 814.028,-562.125 814.534,-569.106"/>
<text text-anchor="middle" x="714.205" y="-579.8" font-family="Times New Roman,serif" font-size="14.00"> (1)</text>
</g>
<!-- node32 -->
<g id="node33" class="node"><title>node32</title>
<ellipse fill="none" stroke="black" cx="1015.99" cy="-489" rx="47.3916" ry="18"/>
<text text-anchor="middle" x="1015.99" y="-485.3" font-family="Times New Roman,serif" font-size="14.00">(32) XOR</text>
</g>
<!-- node22&#45;&gt;node32 -->
<g id="edge53" class="edge"><title>node22&#45;&gt;node32</title>
<path fill="none" stroke="black" d="M639.998,-591.651C700.332,-606.632 821.111,-628.004 912.542,-589 948.58,-573.626 979.082,-539.267 997.199,-515.134"/>
<polygon fill="black" stroke="black" points="1000.24,-516.903 1003.3,-506.76 994.584,-512.781 1000.24,-516.903"/>
<text text-anchor="middle" x="789.651" y="-614.8" font-family="Times New Roman,serif" font-size="14.00"> (0)</text>
</g>
<!-- node29 -->
<g id="node30" class="node"><title>node29</title>
<ellipse fill="none" stroke="black" cx="865.096" cy="-489" rx="46.5926" ry="18"/>
<text text-anchor="middle" x="865.096" y="-485.3" font-family="Times New Roman,serif" font-size="14.00">(29) AND</text>
</g>
<!-- node23&#45;&gt;node29 -->
<g id="edge47" class="edge"><title>node23&#45;&gt;node29</title>
<path fill="none" stroke="black" d="M500.489,-607.499C511.844,-591.054 531.044,-567.072 553.867,-554 634.208,-507.985 742.946,-494.378 808.052,-490.456"/>
<polygon fill="black" stroke="black" points="808.322,-493.947 818.116,-489.906 807.94,-486.957 808.322,-493.947"/>
<text text-anchor="middle" x="714.205" y="-513.8" font-family="Times New Roman,serif" font-size="14.00"> (0)</text>
</g>
<!-- node34 -->
<g id="node35" class="node"><title>node34</title>
<ellipse fill="none" stroke="black" cx="714.205" cy="-654" rx="46.5926" ry="18"/>
<text text-anchor="middle" x="714.205" y="-650.3" font-family="Times New Roman,serif" font-size="14.00">(34) AND</text>
</g>
<!-- node23&#45;&gt;node34 -->
<g id="edge57" class="edge"><title>node23&#45;&gt;node34</title>
<path fill="none" stroke="black" d="M533.1,-630.66C569.297,-635.351 620.894,-642.038 659.591,-647.052"/>
<polygon fill="black" stroke="black" points="659.269,-650.54 669.636,-648.354 660.169,-643.598 659.269,-650.54"/>
<text text-anchor="middle" x="601.313" y="-648.8" font-family="Times New Roman,serif" font-size="14.00"> (0)</text>
</g>
<!-- node24&#45;&gt;node34 -->
<g id="edge58" class="edge"><title>node24&#45;&gt;node34</title>
<path fill="none" stroke="black" d="M377.004,-837.754C391.502,-835.481 408.081,-832.526 422.976,-829 474.093,-816.898 489.592,-818.86 535.867,-794 602.059,-758.441 607.012,-732.564 666.759,-687 671.596,-683.311 676.79,-679.49 681.889,-675.813"/>
<polygon fill="black" stroke="black" points="684.195,-678.468 690.303,-669.811 680.13,-672.769 684.195,-678.468"/>
<text text-anchor="middle" x="488.422" y="-827.8" font-family="Times New Roman,serif" font-size="14.00"> (1)</text>
</g>
<!-- node25&#45;&gt;node26 -->
<g id="edge42" class="edge"><title>node25&#45;&gt;node26</title>
<path fill="none" stroke="black" d="M882.599,-578.293C908.844,-604.204 960.231,-654.939 990.689,-685.01"/>
<polygon fill="black" stroke="black" points="988.378,-687.647 997.953,-692.182 993.296,-682.666 988.378,-687.647"/>
<text text-anchor="middle" x="940.542" y="-647.8" font-family="Times New Roman,serif" font-size="14.00"> (1)</text>
</g>
<!-- node38 -->
<g id="node39" class="node"><title>node38</title>
<ellipse fill="none" stroke="black" cx="1166.23" cy="-814" rx="46.5926" ry="18"/>
<text text-anchor="middle" x="1166.23" y="-810.3" font-family="Times New Roman,serif" font-size="14.00">(38) AND</text>
</g>
<!-- node26&#45;&gt;node38 -->
<g id="edge66" class="edge"><title>node26&#45;&gt;node38</title>
<path fill="none" stroke="black" d="M1039.18,-724.72C1064.51,-742.658 1106.09,-772.111 1134.52,-792.246"/>
<polygon fill="black" stroke="black" points="1132.7,-795.249 1142.88,-798.173 1136.75,-789.537 1132.7,-795.249"/>
<text text-anchor="middle" x="1091.43" y="-770.8" font-family="Times New Roman,serif" font-size="14.00"> (1)</text>
</g>
<!-- node27&#45;&gt;node29 -->
<g id="edge48" class="edge"><title>node27&#45;&gt;node29</title>
<path fill="none" stroke="black" d="M740.496,-163.165C747.717,-168.076 755.333,-173.856 761.651,-180 782.17,-199.957 789.567,-205.21 799.651,-232 831.4,-316.356 782.96,-350.81 817.651,-434 822.413,-445.42 830.437,-456.232 838.489,-465.2"/>
<polygon fill="black" stroke="black" points="836.067,-467.732 845.491,-472.574 841.144,-462.912 836.067,-467.732"/>
<text text-anchor="middle" x="789.651" y="-235.8" font-family="Times New Roman,serif" font-size="14.00"> (1)</text>
</g>
<!-- node27&#45;&gt;node33 -->
<g id="edge56" class="edge"><title>node27&#45;&gt;node33</title>
<path fill="none" stroke="black" d="M761.906,-148C776.319,-148 792.351,-148 807.363,-148"/>
<polygon fill="black" stroke="black" points="807.56,-151.5 817.56,-148 807.56,-144.5 807.56,-151.5"/>
<text text-anchor="middle" x="789.651" y="-151.8" font-family="Times New Roman,serif" font-size="14.00"> (1)</text>
</g>
<!-- node36 -->
<g id="node37" class="node"><title>node36</title>
<ellipse fill="none" stroke="black" cx="1166.23" cy="-407" rx="40.8928" ry="18"/>
<text text-anchor="middle" x="1166.23" y="-403.3" font-family="Times New Roman,serif" font-size="14.00">(36) OR</text>
</g>
<!-- node28&#45;&gt;node36 -->
<g id="edge62" class="edge"><title>node28&#45;&gt;node36</title>
<path fill="none" stroke="black" d="M912.18,-407C966.951,-407 1058.03,-407 1114.69,-407"/>
<polygon fill="black" stroke="black" points="1114.85,-410.5 1124.85,-407 1114.85,-403.5 1114.85,-410.5"/>
<text text-anchor="middle" x="1015.99" y="-410.8" font-family="Times New Roman,serif" font-size="14.00"> (1)</text>
</g>
<!-- node29&#45;&gt;node32 -->
<g id="edge54" class="edge"><title>node29&#45;&gt;node32</title>
<path fill="none" stroke="black" d="M911.984,-489C926.563,-489 942.864,-489 958.121,-489"/>
<polygon fill="black" stroke="black" points="958.482,-492.5 968.482,-489 958.482,-485.5 958.482,-492.5"/>
<text text-anchor="middle" x="940.542" y="-492.8" font-family="Times New Roman,serif" font-size="14.00"> (1)</text>
</g>
<!-- node30&#45;&gt;node35 -->
<g id="edge60" class="edge"><title>node30&#45;&gt;node35</title>
<path fill="none" stroke="black" d="M761.336,-253.493C773.806,-253.194 787.273,-252.477 799.651,-251 804.708,-250.396 809.954,-249.58 815.169,-248.642"/>
<polygon fill="black" stroke="black" points="815.955,-252.055 825.106,-246.715 814.622,-245.183 815.955,-252.055"/>
<text text-anchor="middle" x="789.651" y="-255.8" font-family="Times New Roman,serif" font-size="14.00"> (1)</text>
</g>
<!-- node31&#45;&gt;node38 -->
<g id="edge65" class="edge"><title>node31&#45;&gt;node38</title>
<path fill="none" stroke="black" d="M528.594,-890.344C573.236,-886.499 648.408,-881 713.205,-881 713.205,-881 713.205,-881 1016.99,-881 1061.52,-881 1107.44,-855.579 1136.14,-836.054"/>
<polygon fill="black" stroke="black" points="1138.29,-838.822 1144.47,-830.219 1134.27,-833.088 1138.29,-838.822"/>
<text text-anchor="middle" x="865.096" y="-884.8" font-family="Times New Roman,serif" font-size="14.00"> (0)</text>
</g>
<!-- node32&#45;&gt;node36 -->
<g id="edge61" class="edge"><title>node32&#45;&gt;node36</title>
<path fill="none" stroke="black" d="M1043.83,-474.15C1068.31,-460.609 1104.6,-440.536 1131.13,-425.864"/>
<polygon fill="black" stroke="black" points="1133.01,-428.822 1140.07,-420.919 1129.62,-422.697 1133.01,-428.822"/>
<text text-anchor="middle" x="1091.43" y="-455.8" font-family="Times New Roman,serif" font-size="14.00"> (0)</text>
</g>
<!-- node41 -->
<g id="node42" class="node"><title>node41</title>
<ellipse fill="none" stroke="black" cx="1443.81" cy="-148" rx="42.7926" ry="18"/>
<text text-anchor="middle" x="1443.81" y="-144.3" font-family="Times New Roman,serif" font-size="14.00">Output 2</text>
</g>
<!-- node33&#45;&gt;node41 -->
<g id="edge69" class="edge"><title>node33&#45;&gt;node41</title>
<path fill="none" stroke="black" d="M912.705,-148C942.056,-148 980.738,-148 1014.99,-148 1014.99,-148 1014.99,-148 1317.47,-148 1341.53,-148 1368.19,-148 1390.71,-148"/>
<polygon fill="black" stroke="black" points="1390.75,-151.5 1400.75,-148 1390.75,-144.5 1390.75,-151.5"/>
</g>
<!-- node44 -->
<g id="node45" class="node"><title>node44</title>
<ellipse fill="none" stroke="black" cx="1443.81" cy="-646" rx="42.7926" ry="18"/>
<text text-anchor="middle" x="1443.81" y="-642.3" font-family="Times New Roman,serif" font-size="14.00">Output 5</text>
</g>
<!-- node34&#45;&gt;node44 -->
<g id="edge72" class="edge"><title>node34&#45;&gt;node44</title>
<path fill="none" stroke="black" d="M760.128,-650.328C789.655,-648.225 829.15,-646 864.096,-646 864.096,-646 864.096,-646 1317.47,-646 1341.53,-646 1368.19,-646 1390.71,-646"/>
<polygon fill="black" stroke="black" points="1390.75,-649.5 1400.75,-646 1390.75,-642.5 1390.75,-649.5"/>
</g>
<!-- node40 -->
<g id="node41" class="node"><title>node40</title>
<ellipse fill="none" stroke="black" cx="1443.81" cy="-237" rx="42.7926" ry="18"/>
<text text-anchor="middle" x="1443.81" y="-233.3" font-family="Times New Roman,serif" font-size="14.00">Output 1</text>
</g>
<!-- node35&#45;&gt;node40 -->
<g id="edge68" class="edge"><title>node35&#45;&gt;node40</title>
<path fill="none" stroke="black" d="M912.705,-237C942.056,-237 980.738,-237 1014.99,-237 1014.99,-237 1014.99,-237 1317.47,-237 1341.53,-237 1368.19,-237 1390.71,-237"/>
<polygon fill="black" stroke="black" points="1390.75,-240.5 1400.75,-237 1390.75,-233.5 1390.75,-240.5"/>
</g>
<!-- node36&#45;&gt;node37 -->
<g id="edge64" class="edge"><title>node36&#45;&gt;node37</title>
<path fill="none" stroke="black" d="M1196.16,-394.703C1218.65,-385.146 1250.12,-371.774 1275.09,-361.163"/>
<polygon fill="black" stroke="black" points="1276.47,-364.377 1284.31,-357.244 1273.73,-357.935 1276.47,-364.377"/>
<text text-anchor="middle" x="1241.03" y="-382.8" font-family="Times New Roman,serif" font-size="14.00"> (1)</text>
</g>
<!-- node42 -->
<g id="node43" class="node"><title>node42</title>
<ellipse fill="none" stroke="black" cx="1443.81" cy="-344" rx="42.7926" ry="18"/>
<text text-anchor="middle" x="1443.81" y="-340.3" font-family="Times New Roman,serif" font-size="14.00">Output 3</text>
</g>
<!-- node37&#45;&gt;node42 -->
<g id="edge70" class="edge"><title>node37&#45;&gt;node42</title>
<path fill="none" stroke="black" d="M1364.14,-344C1372.75,-344 1381.78,-344 1390.54,-344"/>
<polygon fill="black" stroke="black" points="1390.65,-347.5 1400.65,-344 1390.65,-340.5 1390.65,-347.5"/>
</g>
<!-- node43 -->
<g id="node44" class="node"><title>node43</title>
<ellipse fill="none" stroke="black" cx="1443.81" cy="-814" rx="42.7926" ry="18"/>
<text text-anchor="middle" x="1443.81" y="-810.3" font-family="Times New Roman,serif" font-size="14.00">Output 4</text>
</g>
<!-- node38&#45;&gt;node43 -->
<g id="edge71" class="edge"><title>node38&#45;&gt;node43</title>
<path fill="none" stroke="black" d="M1213.05,-814C1261.87,-814 1339.06,-814 1390.3,-814"/>
<polygon fill="black" stroke="black" points="1390.51,-817.5 1400.51,-814 1390.51,-810.5 1390.51,-817.5"/>
</g>
</g>
</svg>
