<?xml version="1.0" encoding="UTF-8" standalone="no"?>
<!DOCTYPE svg PUBLIC "-//W3C//DTD SVG 1.1//EN"
 "http://www.w3.org/Graphics/SVG/1.1/DTD/svg11.dtd">
<!-- Generated by graphviz version 2.38.0 (20140413.2041)
 -->
<!-- Title: NeuralNetwork Pages: 1 -->
<svg width="288pt" height="81pt"
 viewBox="0.00 0.00 288.00 80.87" xmlns="http://www.w3.org/2000/svg" xmlns:xlink="http://www.w3.org/1999/xlink">
<g id="graph0" class="graph" transform="scale(0.208965 0.208965) rotate(0) translate(4 383)">
<title>NeuralNetwork</title>
<polygon fill="white" stroke="none" points="-4,4 -4,-383 1374.22,-383 1374.22,4 -4,4"/>
<!-- node0 -->
<g id="node1" class="node"><title>node0</title>
<ellipse fill="none" stroke="black" cx="42.2463" cy="-274" rx="42.4939" ry="18"/>
<text text-anchor="middle" x="42.2463" y="-270.3" font-family="Times New Roman,serif" font-size="14.00">(0) Input</text>
</g>
<!-- node5 -->
<g id="node6" class="node"><title>node5</title>
<ellipse fill="none" stroke="black" cx="183.389" cy="-279" rx="42.7926" ry="18"/>
<text text-anchor="middle" x="183.389" y="-275.3" font-family="Times New Roman,serif" font-size="14.00">(5) XOR</text>
</g>
<!-- node0&#45;&gt;node5 -->
<g id="edge1" class="edge"><title>node0&#45;&gt;node5</title>
<path fill="none" stroke="black" d="M81.7125,-280.704C88.6108,-281.66 95.7492,-282.491 102.493,-283 111.747,-283.699 121.615,-283.76 131.145,-283.47"/>
<polygon fill="black" stroke="black" points="131.469,-286.959 141.308,-283.029 131.166,-279.965 131.469,-286.959"/>
<text text-anchor="middle" x="112.493" y="-286.8" font-family="Times New Roman,serif" font-size="14.00"> (0)</text>
</g>
<!-- node6 -->
<g id="node7" class="node"><title>node6</title>
<ellipse fill="none" stroke="black" cx="183.389" cy="-218" rx="42.4939" ry="18"/>
<text text-anchor="middle" x="183.389" y="-214.3" font-family="Times New Roman,serif" font-size="14.00">(6) AND</text>
</g>
<!-- node0&#45;&gt;node6 -->
<g id="edge4" class="edge"><title>node0&#45;&gt;node6</title>
<path fill="none" stroke="black" d="M75.4528,-262.814C89.9262,-257.633 107.163,-251.25 122.493,-245 129.845,-242.002 137.627,-238.638 145.062,-235.329"/>
<polygon fill="black" stroke="black" points="146.554,-238.496 154.236,-231.199 143.68,-232.113 146.554,-238.496"/>
<text text-anchor="middle" x="112.493" y="-255.8" font-family="Times New Roman,serif" font-size="14.00"> (1)</text>
</g>
<!-- node1 -->
<g id="node2" class="node"><title>node1</title>
<ellipse fill="none" stroke="black" cx="42.2463" cy="-156" rx="42.4939" ry="18"/>
<text text-anchor="middle" x="42.2463" y="-152.3" font-family="Times New Roman,serif" font-size="14.00">(1) Input</text>
</g>
<!-- node10 -->
<g id="node11" class="node"><title>node10</title>
<ellipse fill="none" stroke="black" cx="613.315" cy="-161" rx="47.3916" ry="18"/>
<text text-anchor="middle" x="613.315" y="-157.3" font-family="Times New Roman,serif" font-size="14.00">(10) XOR</text>
</g>
<!-- node1&#45;&gt;node10 -->
<g id="edge11" class="edge"><title>node1&#45;&gt;node10</title>
<path fill="none" stroke="black" d="M84.6476,-156C112.319,-156 149.536,-156 182.389,-156 182.389,-156 182.389,-156 467.973,-156 496.972,-156 529.227,-157.02 555.879,-158.139"/>
<polygon fill="black" stroke="black" points="556.033,-161.649 566.176,-158.588 556.337,-154.656 556.033,-161.649"/>
<text text-anchor="middle" x="325.181" y="-159.8" font-family="Times New Roman,serif" font-size="14.00"> (0)</text>
</g>
<!-- node2 -->
<g id="node3" class="node"><title>node2</title>
<ellipse fill="none" stroke="black" cx="42.2463" cy="-361" rx="42.4939" ry="18"/>
<text text-anchor="middle" x="42.2463" y="-357.3" font-family="Times New Roman,serif" font-size="14.00">(2) Input</text>
</g>
<!-- node7 -->
<g id="node8" class="node"><title>node7</title>
<ellipse fill="none" stroke="black" cx="325.181" cy="-269" rx="42.4939" ry="18"/>
<text text-anchor="middle" x="325.181" y="-265.3" font-family="Times New Roman,serif" font-size="14.00">(7) AND</text>
</g>
<!-- node2&#45;&gt;node7 -->
<g id="edge5" class="edge"><title>node2&#45;&gt;node7</title>
<path fill="none" stroke="black" d="M78.6251,-351.7C96.9865,-347.111 119.841,-341.766 140.493,-338 195.069,-328.047 213.777,-344.948 264.285,-322 278.832,-315.391 292.403,-304.015 302.936,-293.493"/>
<polygon fill="black" stroke="black" points="305.659,-295.709 310.04,-286.062 300.6,-290.872 305.659,-295.709"/>
<text text-anchor="middle" x="183.389" y="-341.8" font-family="Times New Roman,serif" font-size="14.00"> (0)</text>
</g>
<!-- node8 -->
<g id="node9" class="node"><title>node8</title>
<ellipse fill="none" stroke="black" cx="325.181" cy="-355" rx="42.7926" ry="18"/>
<text text-anchor="middle" x="325.181" y="-351.3" font-family="Times New Roman,serif" font-size="14.00">(8) XOR</text>
</g>
<!-- node2&#45;&gt;node8 -->
<g id="edge7" class="edge"><title>node2&#45;&gt;node8</title>
<path fill="none" stroke="black" d="M84.6992,-360.115C134.455,-359.052 217.935,-357.269 272.024,-356.114"/>
<polygon fill="black" stroke="black" points="272.176,-359.612 282.099,-355.899 272.026,-352.613 272.176,-359.612"/>
<text text-anchor="middle" x="183.389" y="-361.8" font-family="Times New Roman,serif" font-size="14.00"> (0)</text>
</g>
<!-- node3 -->
<g id="node4" class="node"><title>node3</title>
<ellipse fill="none" stroke="black" cx="42.2463" cy="-83" rx="42.4939" ry="18"/>
<text text-anchor="middle" x="42.2463" y="-79.3" font-family="Times New Roman,serif" font-size="14.00">(3) Input</text>
</g>
<!-- node12 -->
<g id="node13" class="node"><title>node12</title>
<ellipse fill="none" stroke="black" cx="764.207" cy="-64" rx="47.3916" ry="18"/>
<text text-anchor="middle" x="764.207" y="-60.3" font-family="Times New Roman,serif" font-size="14.00">(12) XOR</text>
</g>
<!-- node3&#45;&gt;node12 -->
<g id="edge16" class="edge"><title>node3&#45;&gt;node12</title>
<path fill="none" stroke="black" d="M81.8125,-76.5951C109.674,-72.5182 148.252,-68 182.389,-68 182.389,-68 182.389,-68 614.315,-68 644.811,-68 678.808,-67.1511 706.608,-66.2354"/>
<polygon fill="black" stroke="black" points="707.064,-69.722 716.939,-65.8829 706.826,-62.7261 707.064,-69.722"/>
<text text-anchor="middle" x="396.077" y="-71.8" font-family="Times New Roman,serif" font-size="14.00"> (1)</text>
</g>
<!-- node14 -->
<g id="node15" class="node"><title>node14</title>
<ellipse fill="none" stroke="black" cx="1056.89" cy="-110" rx="40.8928" ry="18"/>
<text text-anchor="middle" x="1056.89" y="-106.3" font-family="Times New Roman,serif" font-size="14.00">(14) OR</text>
</g>
<!-- node3&#45;&gt;node14 -->
<g id="edge19" class="edge"><title>node3&#45;&gt;node14</title>
<path fill="none" stroke="black" d="M77.1991,-93.3617C105.155,-100.976 145.97,-110 182.389,-110 182.389,-110 182.389,-110 914.799,-110 944.857,-110 978.517,-110 1005.42,-110"/>
<polygon fill="black" stroke="black" points="1005.75,-113.5 1015.75,-110 1005.75,-106.5 1005.75,-113.5"/>
<text text-anchor="middle" x="537.87" y="-113.8" font-family="Times New Roman,serif" font-size="14.00"> (1)</text>
</g>
<!-- node4 -->
<g id="node5" class="node"><title>node4</title>
<ellipse fill="none" stroke="black" cx="42.2463" cy="-215" rx="42.4939" ry="18"/>
<text text-anchor="middle" x="42.2463" y="-211.3" font-family="Times New Roman,serif" font-size="14.00">(4) Input</text>
</g>
<!-- node4&#45;&gt;node5 -->
<g id="edge2" class="edge"><title>node4&#45;&gt;node5</title>
<path fill="none" stroke="black" d="M84.7457,-215.512C97.4067,-217.023 111.006,-220.09 122.493,-226 132.836,-231.322 131.958,-237.096 140.493,-245 144.702,-248.899 149.296,-252.878 153.848,-256.676"/>
<polygon fill="black" stroke="black" points="151.949,-259.644 161.908,-263.261 156.378,-254.224 151.949,-259.644"/>
<text text-anchor="middle" x="112.493" y="-229.8" font-family="Times New Roman,serif" font-size="14.00"> (1)</text>
</g>
<!-- node4&#45;&gt;node6 -->
<g id="edge3" class="edge"><title>node4&#45;&gt;node6</title>
<path fill="none" stroke="black" d="M69.0456,-200.86C84.4174,-194.112 104.398,-188.242 122.493,-192 130.778,-193.721 139.324,-196.649 147.275,-199.933"/>
<polygon fill="black" stroke="black" points="146.058,-203.222 156.62,-204.06 148.886,-196.819 146.058,-203.222"/>
<text text-anchor="middle" x="112.493" y="-195.8" font-family="Times New Roman,serif" font-size="14.00"> (0)</text>
</g>
<!-- node5&#45;&gt;node7 -->
<g id="edge6" class="edge"><title>node5&#45;&gt;node7</title>
<path fill="none" stroke="black" d="M222.614,-271.651C229.788,-270.547 237.246,-269.584 244.285,-269 253.421,-268.243 263.166,-267.876 272.595,-267.75"/>
<polygon fill="black" stroke="black" points="272.677,-271.249 282.66,-267.699 272.642,-264.249 272.677,-271.249"/>
<text text-anchor="middle" x="254.285" y="-272.8" font-family="Times New Roman,serif" font-size="14.00"> (1)</text>
</g>
<!-- node5&#45;&gt;node8 -->
<g id="edge8" class="edge"><title>node5&#45;&gt;node8</title>
<path fill="none" stroke="black" d="M210.355,-293.117C232.479,-305.145 264.479,-322.542 288.919,-335.829"/>
<polygon fill="black" stroke="black" points="287.422,-338.999 297.88,-340.701 290.766,-332.849 287.422,-338.999"/>
<text text-anchor="middle" x="254.285" y="-324.8" font-family="Times New Roman,serif" font-size="14.00"> (1)</text>
</g>
<!-- node9 -->
<g id="node10" class="node"><title>node9</title>
<ellipse fill="none" stroke="black" cx="466.973" cy="-218" rx="42.7926" ry="18"/>
<text text-anchor="middle" x="466.973" y="-214.3" font-family="Times New Roman,serif" font-size="14.00">(9) XOR</text>
</g>
<!-- node6&#45;&gt;node9 -->
<g id="edge10" class="edge"><title>node6&#45;&gt;node9</title>
<path fill="none" stroke="black" d="M225.635,-218C275.433,-218 359.248,-218 413.576,-218"/>
<polygon fill="black" stroke="black" points="413.695,-221.5 423.695,-218 413.695,-214.5 413.695,-221.5"/>
<text text-anchor="middle" x="325.181" y="-221.8" font-family="Times New Roman,serif" font-size="14.00"> (1)</text>
</g>
<!-- node7&#45;&gt;node9 -->
<g id="edge9" class="edge"><title>node7&#45;&gt;node9</title>
<path fill="none" stroke="black" d="M357.902,-257.427C377.602,-250.24 403.138,-240.924 424.44,-233.152"/>
<polygon fill="black" stroke="black" points="425.699,-236.419 433.894,-229.703 423.3,-229.843 425.699,-236.419"/>
<text text-anchor="middle" x="396.077" y="-249.8" font-family="Times New Roman,serif" font-size="14.00"> (0)</text>
</g>
<!-- node16 -->
<g id="node17" class="node"><title>node16</title>
<ellipse fill="none" stroke="black" cx="1327.33" cy="-355" rx="42.7926" ry="18"/>
<text text-anchor="middle" x="1327.33" y="-351.3" font-family="Times New Roman,serif" font-size="14.00">Output 0</text>
</g>
<!-- node8&#45;&gt;node16 -->
<g id="edge22" class="edge"><title>node8&#45;&gt;node16</title>
<path fill="none" stroke="black" d="M368.083,-355C395.852,-355 433.088,-355 465.973,-355 465.973,-355 465.973,-355 1201.63,-355 1225.37,-355 1251.64,-355 1273.93,-355"/>
<polygon fill="black" stroke="black" points="1274.19,-358.5 1284.19,-355 1274.19,-351.5 1274.19,-358.5"/>
</g>
<!-- node9&#45;&gt;node10 -->
<g id="edge12" class="edge"><title>node9&#45;&gt;node10</title>
<path fill="none" stroke="black" d="M495.435,-204.413C505.53,-199.618 517.121,-194.344 527.87,-190 540.231,-185.005 553.818,-180.093 566.412,-175.772"/>
<polygon fill="black" stroke="black" points="567.904,-178.962 576.256,-172.443 565.662,-172.33 567.904,-178.962"/>
<text text-anchor="middle" x="537.87" y="-193.8" font-family="Times New Roman,serif" font-size="14.00"> (1)</text>
</g>
<!-- node11 -->
<g id="node12" class="node"><title>node11</title>
<ellipse fill="none" stroke="black" cx="764.207" cy="-181" rx="40.8928" ry="18"/>
<text text-anchor="middle" x="764.207" y="-177.3" font-family="Times New Roman,serif" font-size="14.00">(11) OR</text>
</g>
<!-- node9&#45;&gt;node11 -->
<g id="edge14" class="edge"><title>node9&#45;&gt;node11</title>
<path fill="none" stroke="black" d="M508.887,-213.682C555.066,-208.699 632.407,-200.026 698.761,-191 704.16,-190.266 709.807,-189.454 715.417,-188.62"/>
<polygon fill="black" stroke="black" points="716.052,-192.064 725.416,-187.107 715.004,-185.143 716.052,-192.064"/>
<text text-anchor="middle" x="613.315" y="-210.8" font-family="Times New Roman,serif" font-size="14.00"> (1)</text>
</g>
<!-- node10&#45;&gt;node11 -->
<g id="edge13" class="edge"><title>node10&#45;&gt;node11</title>
<path fill="none" stroke="black" d="M658.183,-166.892C675.905,-169.273 696.425,-172.029 714.6,-174.471"/>
<polygon fill="black" stroke="black" points="714.329,-177.966 724.706,-175.828 715.261,-171.028 714.329,-177.966"/>
<text text-anchor="middle" x="688.761" y="-175.8" font-family="Times New Roman,serif" font-size="14.00"> (0)</text>
</g>
<!-- node10&#45;&gt;node12 -->
<g id="edge15" class="edge"><title>node10&#45;&gt;node12</title>
<path fill="none" stroke="black" d="M638.237,-145.415C663.309,-129.082 702.856,-103.318 730.736,-85.1546"/>
<polygon fill="black" stroke="black" points="732.876,-87.9373 739.344,-79.5461 729.055,-82.0721 732.876,-87.9373"/>
<text text-anchor="middle" x="688.761" y="-122.8" font-family="Times New Roman,serif" font-size="14.00"> (0)</text>
</g>
<!-- node15 -->
<g id="node16" class="node"><title>node15</title>
<ellipse fill="none" stroke="black" cx="1200.63" cy="-145" rx="46.5926" ry="18"/>
<text text-anchor="middle" x="1200.63" y="-141.3" font-family="Times New Roman,serif" font-size="14.00">(15) AND</text>
</g>
<!-- node11&#45;&gt;node15 -->
<g id="edge21" class="edge"><title>node11&#45;&gt;node15</title>
<path fill="none" stroke="black" d="M804.526,-177.742C882.177,-171.307 1055.39,-156.954 1144.43,-149.574"/>
<polygon fill="black" stroke="black" points="1144.93,-153.045 1154.6,-148.731 1144.35,-146.069 1144.93,-153.045"/>
<text text-anchor="middle" x="987.945" y="-166.8" font-family="Times New Roman,serif" font-size="14.00"> (1)</text>
</g>
<!-- node13 -->
<g id="node14" class="node"><title>node13</title>
<ellipse fill="none" stroke="black" cx="913.799" cy="-64" rx="46.2923" ry="18"/>
<text text-anchor="middle" x="913.799" y="-60.3" font-family="Times New Roman,serif" font-size="14.00">(13) NEG</text>
</g>
<!-- node12&#45;&gt;node13 -->
<g id="edge17" class="edge"><title>node12&#45;&gt;node13</title>
<path fill="none" stroke="black" d="M811.906,-64C826.316,-64 842.326,-64 857.27,-64"/>
<polygon fill="black" stroke="black" points="857.413,-67.5001 867.413,-64 857.413,-60.5001 857.413,-67.5001"/>
<text text-anchor="middle" x="839.653" y="-67.8" font-family="Times New Roman,serif" font-size="14.00"> (0)</text>
</g>
<!-- node17 -->
<g id="node18" class="node"><title>node17</title>
<ellipse fill="none" stroke="black" cx="1327.33" cy="-18" rx="42.7926" ry="18"/>
<text text-anchor="middle" x="1327.33" y="-14.3" font-family="Times New Roman,serif" font-size="14.00">Output 1</text>
</g>
<!-- node12&#45;&gt;node17 -->
<g id="edge23" class="edge"><title>node12&#45;&gt;node17</title>
<path fill="none" stroke="black" d="M793.245,-49.6975C822.352,-36.1941 869.588,-18 912.799,-18 912.799,-18 912.799,-18 1201.63,-18 1225.37,-18 1251.64,-18 1273.93,-18"/>
<polygon fill="black" stroke="black" points="1274.19,-21.5001 1284.19,-18 1274.19,-14.5001 1274.19,-21.5001"/>
</g>
<!-- node13&#45;&gt;node14 -->
<g id="edge18" class="edge"><title>node13&#45;&gt;node14</title>
<path fill="none" stroke="black" d="M957.248,-70.4543C970.48,-73.0552 984.994,-76.5229 997.945,-81 1005.96,-83.77 1014.27,-87.4221 1022.02,-91.1971"/>
<polygon fill="black" stroke="black" points="1020.63,-94.4146 1031.13,-95.8115 1023.79,-88.1702 1020.63,-94.4146"/>
<text text-anchor="middle" x="987.945" y="-84.8" font-family="Times New Roman,serif" font-size="14.00"> (0)</text>
</g>
<!-- node14&#45;&gt;node15 -->
<g id="edge20" class="edge"><title>node14&#45;&gt;node15</title>
<path fill="none" stroke="black" d="M1092.93,-118.652C1110.45,-122.979 1131.94,-128.285 1151.03,-132.998"/>
<polygon fill="black" stroke="black" points="1150.21,-136.402 1160.76,-135.401 1151.89,-129.606 1150.21,-136.402"/>
<text text-anchor="middle" x="1125.84" y="-132.8" font-family="Times New Roman,serif" font-size="14.00"> (0)</text>
</g>
<!-- node18 -->
<g id="node19" class="node"><title>node18</title>
<ellipse fill="none" stroke="black" cx="1327.33" cy="-145" rx="42.7926" ry="18"/>
<text text-anchor="middle" x="1327.33" y="-141.3" font-family="Times New Roman,serif" font-size="14.00">Output 2</text>
</g>
<!-- node15&#45;&gt;node18 -->
<g id="edge24" class="edge"><title>node15&#45;&gt;node18</title>
<path fill="none" stroke="black" d="M1247.71,-145C1256.29,-145 1265.3,-145 1274.05,-145"/>
<polygon fill="black" stroke="black" points="1274.15,-148.5 1284.15,-145 1274.15,-141.5 1274.15,-148.5"/>
</g>
</g>
</svg>
