<?xml version="1.0" encoding="UTF-8" standalone="no"?>
<!DOCTYPE svg PUBLIC "-//W3C//DTD SVG 1.1//EN"
 "http://www.w3.org/Graphics/SVG/1.1/DTD/svg11.dtd">
<!-- Generated by graphviz version 2.38.0 (20140413.2041)
 -->
<!-- Title: NeuralNetwork Pages: 1 -->
<svg width="288pt" height="126pt"
 viewBox="0.00 0.00 288.00 126.42" xmlns="http://www.w3.org/2000/svg" xmlns:xlink="http://www.w3.org/1999/xlink">
<g id="graph0" class="graph" transform="scale(0.280938 0.280938) rotate(0) translate(4 446)">
<title>NeuralNetwork</title>
<polygon fill="white" stroke="none" points="-4,4 -4,-446 1021.14,-446 1021.14,4 -4,4"/>
<!-- node0 -->
<g id="node1" class="node"><title>node0</title>
<ellipse fill="none" stroke="black" cx="42.2463" cy="-135" rx="42.4939" ry="18"/>
<text text-anchor="middle" x="42.2463" y="-131.3" font-family="Times New Roman,serif" font-size="14.00">(0) Input</text>
</g>
<!-- node7 -->
<g id="node8" class="node"><title>node7</title>
<ellipse fill="none" stroke="black" cx="183.389" cy="-115" rx="42.7926" ry="18"/>
<text text-anchor="middle" x="183.389" y="-111.3" font-family="Times New Roman,serif" font-size="14.00">(7) XOR</text>
</g>
<!-- node0&#45;&gt;node7 -->
<g id="edge6" class="edge"><title>node0&#45;&gt;node7</title>
<path fill="none" stroke="black" d="M62.4634,-119.131C73.4537,-111.096 87.9206,-102.176 102.493,-98 115.746,-94.2015 130.456,-95.7398 143.604,-99.1092"/>
<polygon fill="black" stroke="black" points="142.722,-102.498 153.304,-101.985 144.712,-95.7869 142.722,-102.498"/>
<text text-anchor="middle" x="112.493" y="-101.8" font-family="Times New Roman,serif" font-size="14.00"> (1)</text>
</g>
<!-- node8 -->
<g id="node9" class="node"><title>node8</title>
<ellipse fill="none" stroke="black" cx="183.389" cy="-183" rx="42.4939" ry="18"/>
<text text-anchor="middle" x="183.389" y="-179.3" font-family="Times New Roman,serif" font-size="14.00">(8) AND</text>
</g>
<!-- node0&#45;&gt;node8 -->
<g id="edge8" class="edge"><title>node0&#45;&gt;node8</title>
<path fill="none" stroke="black" d="M83.2256,-130.532C96.074,-130.395 110.165,-131.654 122.493,-136 136.201,-140.833 149.184,-150.187 159.536,-159.286"/>
<polygon fill="black" stroke="black" points="157.193,-161.886 166.908,-166.114 161.95,-156.751 157.193,-161.886"/>
<text text-anchor="middle" x="112.493" y="-139.8" font-family="Times New Roman,serif" font-size="14.00"> (1)</text>
</g>
<!-- node10 -->
<g id="node11" class="node"><title>node10</title>
<ellipse fill="none" stroke="black" cx="183.389" cy="-250" rx="40.8928" ry="18"/>
<text text-anchor="middle" x="183.389" y="-246.3" font-family="Times New Roman,serif" font-size="14.00">(10) OR</text>
</g>
<!-- node0&#45;&gt;node10 -->
<g id="edge12" class="edge"><title>node0&#45;&gt;node10</title>
<path fill="none" stroke="black" d="M59.0267,-152.015C67.1117,-161.146 76.838,-172.8 84.4925,-184 93.9191,-197.793 90.0607,-205.839 102.493,-217 112.548,-226.028 125.415,-232.787 137.871,-237.758"/>
<polygon fill="black" stroke="black" points="136.67,-241.045 147.263,-241.218 139.09,-234.477 136.67,-241.045"/>
<text text-anchor="middle" x="112.493" y="-233.8" font-family="Times New Roman,serif" font-size="14.00"> (1)</text>
</g>
<!-- node1 -->
<g id="node2" class="node"><title>node1</title>
<ellipse fill="none" stroke="black" cx="42.2463" cy="-340" rx="42.4939" ry="18"/>
<text text-anchor="middle" x="42.2463" y="-336.3" font-family="Times New Roman,serif" font-size="14.00">(1) Input</text>
</g>
<!-- node5 -->
<g id="node6" class="node"><title>node5</title>
<ellipse fill="none" stroke="black" cx="183.389" cy="-409" rx="42.4939" ry="18"/>
<text text-anchor="middle" x="183.389" y="-405.3" font-family="Times New Roman,serif" font-size="14.00">(5) AND</text>
</g>
<!-- node1&#45;&gt;node5 -->
<g id="edge1" class="edge"><title>node1&#45;&gt;node5</title>
<path fill="none" stroke="black" d="M64.2178,-355.461C75.2504,-363.161 89.2125,-372.243 102.493,-379 114.163,-384.938 127.297,-390.352 139.494,-394.895"/>
<polygon fill="black" stroke="black" points="138.434,-398.234 149.028,-398.345 140.816,-391.651 138.434,-398.234"/>
<text text-anchor="middle" x="112.493" y="-390.8" font-family="Times New Roman,serif" font-size="14.00"> (0)</text>
</g>
<!-- node6 -->
<g id="node7" class="node"><title>node6</title>
<ellipse fill="none" stroke="black" cx="287.181" cy="-341" rx="42.7926" ry="18"/>
<text text-anchor="middle" x="287.181" y="-337.3" font-family="Times New Roman,serif" font-size="14.00">(6) XOR</text>
</g>
<!-- node1&#45;&gt;node6 -->
<g id="edge4" class="edge"><title>node1&#45;&gt;node6</title>
<path fill="none" stroke="black" d="M78.0946,-330.348C86.0511,-328.542 94.514,-326.93 102.493,-326 148.392,-320.651 200.964,-326.111 238.073,-331.887"/>
<polygon fill="black" stroke="black" points="237.679,-335.369 248.111,-333.516 238.8,-328.459 237.679,-335.369"/>
<text text-anchor="middle" x="112.493" y="-329.8" font-family="Times New Roman,serif" font-size="14.00"> (1)</text>
</g>
<!-- node2 -->
<g id="node3" class="node"><title>node2</title>
<ellipse fill="none" stroke="black" cx="42.2463" cy="-211" rx="42.4939" ry="18"/>
<text text-anchor="middle" x="42.2463" y="-207.3" font-family="Times New Roman,serif" font-size="14.00">(2) Input</text>
</g>
<!-- node2&#45;&gt;node7 -->
<g id="edge5" class="edge"><title>node2&#45;&gt;node7</title>
<path fill="none" stroke="black" d="M65.2938,-195.789C88.5641,-179.733 125.422,-154.304 151.564,-136.267"/>
<polygon fill="black" stroke="black" points="153.74,-139.018 159.984,-130.458 149.765,-133.256 153.74,-139.018"/>
<text text-anchor="middle" x="112.493" y="-171.8" font-family="Times New Roman,serif" font-size="14.00"> (0)</text>
</g>
<!-- node2&#45;&gt;node8 -->
<g id="edge7" class="edge"><title>node2&#45;&gt;node8</title>
<path fill="none" stroke="black" d="M80.9002,-203.423C97.4509,-200.092 117.078,-196.143 134.641,-192.608"/>
<polygon fill="black" stroke="black" points="135.592,-195.987 144.705,-190.583 134.211,-189.125 135.592,-195.987"/>
<text text-anchor="middle" x="112.493" y="-201.8" font-family="Times New Roman,serif" font-size="14.00"> (0)</text>
</g>
<!-- node2&#45;&gt;node10 -->
<g id="edge11" class="edge"><title>node2&#45;&gt;node10</title>
<path fill="none" stroke="black" d="M56.1671,-228.277C66.9394,-241.129 83.5452,-257.661 102.493,-265 115.602,-270.078 130.605,-268.933 144.045,-265.639"/>
<polygon fill="black" stroke="black" points="145.327,-268.912 153.959,-262.769 143.381,-262.188 145.327,-268.912"/>
<text text-anchor="middle" x="112.493" y="-271.8" font-family="Times New Roman,serif" font-size="14.00"> (0)</text>
</g>
<!-- node3 -->
<g id="node4" class="node"><title>node3</title>
<ellipse fill="none" stroke="black" cx="42.2463" cy="-424" rx="42.4939" ry="18"/>
<text text-anchor="middle" x="42.2463" y="-420.3" font-family="Times New Roman,serif" font-size="14.00">(3) Input</text>
</g>
<!-- node3&#45;&gt;node5 -->
<g id="edge2" class="edge"><title>node3&#45;&gt;node5</title>
<path fill="none" stroke="black" d="M84.0029,-420.751C96.3762,-419.67 110.001,-418.385 122.493,-417 125.933,-416.618 129.483,-416.202 133.055,-415.767"/>
<polygon fill="black" stroke="black" points="133.628,-419.222 143.113,-414.501 132.754,-412.277 133.628,-419.222"/>
<text text-anchor="middle" x="112.493" y="-422.8" font-family="Times New Roman,serif" font-size="14.00"> (1)</text>
</g>
<!-- node3&#45;&gt;node6 -->
<g id="edge3" class="edge"><title>node3&#45;&gt;node6</title>
<path fill="none" stroke="black" d="M54.0344,-406.581C64.4321,-391.468 81.6354,-370.425 102.493,-360 124.821,-348.839 187.954,-344.226 233.986,-342.325"/>
<polygon fill="black" stroke="black" points="234.253,-345.817 244.112,-341.938 233.986,-338.822 234.253,-345.817"/>
<text text-anchor="middle" x="112.493" y="-363.8" font-family="Times New Roman,serif" font-size="14.00"> (0)</text>
</g>
<!-- node4 -->
<g id="node5" class="node"><title>node4</title>
<ellipse fill="none" stroke="black" cx="42.2463" cy="-33" rx="42.4939" ry="18"/>
<text text-anchor="middle" x="42.2463" y="-29.3" font-family="Times New Roman,serif" font-size="14.00">(4) Input</text>
</g>
<!-- node9 -->
<g id="node10" class="node"><title>node9</title>
<ellipse fill="none" stroke="black" cx="395.523" cy="-183" rx="36.2938" ry="18"/>
<text text-anchor="middle" x="395.523" y="-179.3" font-family="Times New Roman,serif" font-size="14.00">(9) OR</text>
</g>
<!-- node4&#45;&gt;node9 -->
<g id="edge10" class="edge"><title>node4&#45;&gt;node9</title>
<path fill="none" stroke="black" d="M81.5009,-39.6713C127.158,-47.9268 200.563,-62.2125 226.285,-73 280.642,-95.7966 336.508,-136.397 368.23,-161.383"/>
<polygon fill="black" stroke="black" points="366.135,-164.19 376.137,-167.684 370.497,-158.715 366.135,-164.19"/>
<text text-anchor="middle" x="183.389" y="-76.8" font-family="Times New Roman,serif" font-size="14.00"> (1)</text>
</g>
<!-- node11 -->
<g id="node12" class="node"><title>node11</title>
<ellipse fill="none" stroke="black" cx="395.523" cy="-18" rx="47.3916" ry="18"/>
<text text-anchor="middle" x="395.523" y="-14.3" font-family="Times New Roman,serif" font-size="14.00">(11) XOR</text>
</g>
<!-- node4&#45;&gt;node11 -->
<g id="edge13" class="edge"><title>node4&#45;&gt;node11</title>
<path fill="none" stroke="black" d="M84.3995,-30.2215C101.713,-29.1147 122.077,-27.8942 140.493,-27 208.328,-23.7062 286.409,-21.1201 337.901,-19.5811"/>
<polygon fill="black" stroke="black" points="338.261,-23.0721 348.153,-19.2781 338.054,-16.0752 338.261,-23.0721"/>
<text text-anchor="middle" x="183.389" y="-30.8" font-family="Times New Roman,serif" font-size="14.00"> (0)</text>
</g>
<!-- node14 -->
<g id="node15" class="node"><title>node14</title>
<ellipse fill="none" stroke="black" cx="846.898" cy="-392" rx="47.3916" ry="18"/>
<text text-anchor="middle" x="846.898" y="-388.3" font-family="Times New Roman,serif" font-size="14.00">(14) XOR</text>
</g>
<!-- node5&#45;&gt;node14 -->
<g id="edge19" class="edge"><title>node5&#45;&gt;node14</title>
<path fill="none" stroke="black" d="M225.853,-408.373C268.237,-407.786 335.967,-407 394.523,-407 394.523,-407 394.523,-407 697.006,-407 728.822,-407 764.27,-403.568 792.594,-399.987"/>
<polygon fill="black" stroke="black" points="793.226,-403.434 802.687,-398.667 792.318,-396.493 793.226,-403.434"/>
<text text-anchor="middle" x="545.765" y="-410.8" font-family="Times New Roman,serif" font-size="14.00"> (0)</text>
</g>
<!-- node13 -->
<g id="node14" class="node"><title>node13</title>
<ellipse fill="none" stroke="black" cx="696.006" cy="-359" rx="46.5926" ry="18"/>
<text text-anchor="middle" x="696.006" y="-355.3" font-family="Times New Roman,serif" font-size="14.00">(13) AND</text>
</g>
<!-- node6&#45;&gt;node13 -->
<g id="edge18" class="edge"><title>node6&#45;&gt;node13</title>
<path fill="none" stroke="black" d="M330.186,-342.859C403.875,-346.119 556.438,-352.869 639.006,-356.522"/>
<polygon fill="black" stroke="black" points="639.06,-360.028 649.205,-356.973 639.369,-353.035 639.06,-360.028"/>
<text text-anchor="middle" x="470.969" y="-352.8" font-family="Times New Roman,serif" font-size="14.00"> (1)</text>
</g>
<!-- node15 -->
<g id="node16" class="node"><title>node15</title>
<ellipse fill="none" stroke="black" cx="696.006" cy="-273" rx="47.3916" ry="18"/>
<text text-anchor="middle" x="696.006" y="-269.3" font-family="Times New Roman,serif" font-size="14.00">(15) XOR</text>
</g>
<!-- node6&#45;&gt;node15 -->
<g id="edge22" class="edge"><title>node6&#45;&gt;node15</title>
<path fill="none" stroke="black" d="M327.189,-334.48C400.596,-322.21 559.321,-295.679 642.201,-281.826"/>
<polygon fill="black" stroke="black" points="642.878,-285.262 652.164,-280.161 641.724,-278.358 642.878,-285.262"/>
<text text-anchor="middle" x="470.969" y="-314.8" font-family="Times New Roman,serif" font-size="14.00"> (1)</text>
</g>
<!-- node7&#45;&gt;node11 -->
<g id="edge14" class="edge"><title>node7&#45;&gt;node11</title>
<path fill="none" stroke="black" d="M213.166,-101.716C250.082,-84.6755 314.258,-55.0513 355.533,-35.998"/>
<polygon fill="black" stroke="black" points="357.126,-39.1179 364.738,-31.7489 354.192,-32.7623 357.126,-39.1179"/>
<text text-anchor="middle" x="287.181" y="-89.8" font-family="Times New Roman,serif" font-size="14.00"> (1)</text>
</g>
<!-- node8&#45;&gt;node9 -->
<g id="edge9" class="edge"><title>node8&#45;&gt;node9</title>
<path fill="none" stroke="black" d="M225.654,-183C261.009,-183 311.878,-183 348.533,-183"/>
<polygon fill="black" stroke="black" points="348.944,-186.5 358.944,-183 348.944,-179.5 348.944,-186.5"/>
<text text-anchor="middle" x="287.181" y="-186.8" font-family="Times New Roman,serif" font-size="14.00"> (0)</text>
</g>
<!-- node12 -->
<g id="node13" class="node"><title>node12</title>
<ellipse fill="none" stroke="black" cx="545.765" cy="-250" rx="46.5926" ry="18"/>
<text text-anchor="middle" x="545.765" y="-246.3" font-family="Times New Roman,serif" font-size="14.00">(12) AND</text>
</g>
<!-- node9&#45;&gt;node12 -->
<g id="edge15" class="edge"><title>node9&#45;&gt;node12</title>
<path fill="none" stroke="black" d="M423.158,-194.954C439.786,-202.425 461.633,-212.255 480.969,-221 488.936,-224.604 497.459,-228.47 505.596,-232.167"/>
<polygon fill="black" stroke="black" points="504.364,-235.451 514.916,-236.403 507.261,-229.079 504.364,-235.451"/>
<text text-anchor="middle" x="470.969" y="-224.8" font-family="Times New Roman,serif" font-size="14.00"> (0)</text>
</g>
<!-- node10&#45;&gt;node12 -->
<g id="edge16" class="edge"><title>node10&#45;&gt;node12</title>
<path fill="none" stroke="black" d="M224.679,-250C289.014,-250 415.132,-250 488.388,-250"/>
<polygon fill="black" stroke="black" points="488.799,-253.5 498.799,-250 488.799,-246.5 488.799,-253.5"/>
<text text-anchor="middle" x="395.523" y="-253.8" font-family="Times New Roman,serif" font-size="14.00"> (1)</text>
</g>
<!-- node16 -->
<g id="node17" class="node"><title>node16</title>
<ellipse fill="none" stroke="black" cx="974.24" cy="-18" rx="42.7926" ry="18"/>
<text text-anchor="middle" x="974.24" y="-14.3" font-family="Times New Roman,serif" font-size="14.00">Output 0</text>
</g>
<!-- node11&#45;&gt;node16 -->
<g id="edge23" class="edge"><title>node11&#45;&gt;node16</title>
<path fill="none" stroke="black" d="M443.259,-18C472.441,-18 510.793,-18 544.765,-18 544.765,-18 544.765,-18 847.898,-18 871.958,-18 898.616,-18 921.14,-18"/>
<polygon fill="black" stroke="black" points="921.173,-21.5001 931.173,-18 921.173,-14.5001 921.173,-21.5001"/>
</g>
<!-- node12&#45;&gt;node13 -->
<g id="edge17" class="edge"><title>node12&#45;&gt;node13</title>
<path fill="none" stroke="black" d="M568.32,-265.85C593.791,-284.578 636.324,-315.852 665.003,-336.939"/>
<polygon fill="black" stroke="black" points="663.295,-340.027 673.425,-343.131 667.442,-334.388 663.295,-340.027"/>
<text text-anchor="middle" x="620.561" y="-314.8" font-family="Times New Roman,serif" font-size="14.00"> (0)</text>
</g>
<!-- node12&#45;&gt;node15 -->
<g id="edge21" class="edge"><title>node12&#45;&gt;node15</title>
<path fill="none" stroke="black" d="M589.642,-256.653C605.788,-259.158 624.354,-262.038 641.36,-264.677"/>
<polygon fill="black" stroke="black" points="641.293,-268.208 651.712,-266.283 642.366,-261.291 641.293,-268.208"/>
<text text-anchor="middle" x="620.561" y="-265.8" font-family="Times New Roman,serif" font-size="14.00"> (0)</text>
</g>
<!-- node13&#45;&gt;node14 -->
<g id="edge20" class="edge"><title>node13&#45;&gt;node14</title>
<path fill="none" stroke="black" d="M736.907,-367.843C755.025,-371.859 776.651,-376.652 795.845,-380.906"/>
<polygon fill="black" stroke="black" points="795.108,-384.328 805.629,-383.075 796.623,-377.494 795.108,-384.328"/>
<text text-anchor="middle" x="771.452" y="-380.8" font-family="Times New Roman,serif" font-size="14.00"> (1)</text>
</g>
<!-- node18 -->
<g id="node19" class="node"><title>node18</title>
<ellipse fill="none" stroke="black" cx="974.24" cy="-392" rx="42.7926" ry="18"/>
<text text-anchor="middle" x="974.24" y="-388.3" font-family="Times New Roman,serif" font-size="14.00">Output 2</text>
</g>
<!-- node14&#45;&gt;node18 -->
<g id="edge25" class="edge"><title>node14&#45;&gt;node18</title>
<path fill="none" stroke="black" d="M894.571,-392C903.175,-392 912.211,-392 920.968,-392"/>
<polygon fill="black" stroke="black" points="921.078,-395.5 931.078,-392 921.078,-388.5 921.078,-395.5"/>
</g>
<!-- node17 -->
<g id="node18" class="node"><title>node17</title>
<ellipse fill="none" stroke="black" cx="974.24" cy="-273" rx="42.7926" ry="18"/>
<text text-anchor="middle" x="974.24" y="-269.3" font-family="Times New Roman,serif" font-size="14.00">Output 1</text>
</g>
<!-- node15&#45;&gt;node17 -->
<g id="edge24" class="edge"><title>node15&#45;&gt;node17</title>
<path fill="none" stroke="black" d="M743.553,-273C792.606,-273 869.703,-273 920.853,-273"/>
<polygon fill="black" stroke="black" points="921.038,-276.5 931.038,-273 921.038,-269.5 921.038,-276.5"/>
</g>
</g>
</svg>
