<?xml version="1.0" encoding="UTF-8" standalone="no"?>
<!DOCTYPE svg PUBLIC "-//W3C//DTD SVG 1.1//EN"
 "http://www.w3.org/Graphics/SVG/1.1/DTD/svg11.dtd">
<!-- Generated by graphviz version 2.38.0 (20140413.2041)
 -->
<!-- Title: NeuralNetwork Pages: 1 -->
<svg width="288pt" height="118pt"
 viewBox="0.00 0.00 288.00 118.33" xmlns="http://www.w3.org/2000/svg" xmlns:xlink="http://www.w3.org/1999/xlink">
<g id="graph0" class="graph" transform="scale(0.308138 0.308138) rotate(0) translate(4 380)">
<title>NeuralNetwork</title>
<polygon fill="white" stroke="none" points="-4,4 -4,-380 930.646,-380 930.646,4 -4,4"/>
<!-- node0 -->
<g id="node1" class="node"><title>node0</title>
<ellipse fill="none" stroke="black" cx="42.2463" cy="-18" rx="42.4939" ry="18"/>
<text text-anchor="middle" x="42.2463" y="-14.3" font-family="Times New Roman,serif" font-size="14.00">(0) Input</text>
</g>
<!-- node11 -->
<g id="node12" class="node"><title>node11</title>
<ellipse fill="none" stroke="black" cx="329.731" cy="-112" rx="46.5926" ry="18"/>
<text text-anchor="middle" x="329.731" y="-108.3" font-family="Times New Roman,serif" font-size="14.00">(11) AND</text>
</g>
<!-- node0&#45;&gt;node11 -->
<g id="edge13" class="edge"><title>node0&#45;&gt;node11</title>
<path fill="none" stroke="black" d="M83.597,-22.06C138.375,-28.0283 233.029,-40.0935 264.285,-55 280.542,-62.7535 295.783,-75.8496 307.358,-87.5348"/>
<polygon fill="black" stroke="black" points="304.978,-90.111 314.409,-94.9397 310.047,-85.284 304.978,-90.111"/>
<text text-anchor="middle" x="183.389" y="-45.8" font-family="Times New Roman,serif" font-size="14.00"> (0)</text>
</g>
<!-- node14 -->
<g id="node15" class="node"><title>node14</title>
<ellipse fill="none" stroke="black" cx="329.731" cy="-24" rx="47.3916" ry="18"/>
<text text-anchor="middle" x="329.731" y="-20.3" font-family="Times New Roman,serif" font-size="14.00">(14) XOR</text>
</g>
<!-- node0&#45;&gt;node14 -->
<g id="edge20" class="edge"><title>node0&#45;&gt;node14</title>
<path fill="none" stroke="black" d="M81.4451,-11.2124C99.3158,-8.36862 120.927,-5.40115 140.493,-4 178.525,-1.27637 188.332,-0.329959 226.285,-4 243.612,-5.67553 262.361,-8.90976 279.024,-12.297"/>
<polygon fill="black" stroke="black" points="278.592,-15.7827 289.098,-14.4132 280.032,-8.93216 278.592,-15.7827"/>
<text text-anchor="middle" x="183.389" y="-7.8" font-family="Times New Roman,serif" font-size="14.00"> (1)</text>
</g>
<!-- node1 -->
<g id="node2" class="node"><title>node1</title>
<ellipse fill="none" stroke="black" cx="42.2463" cy="-345" rx="42.4939" ry="18"/>
<text text-anchor="middle" x="42.2463" y="-341.3" font-family="Times New Roman,serif" font-size="14.00">(1) Input</text>
</g>
<!-- node5 -->
<g id="node6" class="node"><title>node5</title>
<ellipse fill="none" stroke="black" cx="183.389" cy="-256" rx="42.7926" ry="18"/>
<text text-anchor="middle" x="183.389" y="-252.3" font-family="Times New Roman,serif" font-size="14.00">(5) XOR</text>
</g>
<!-- node1&#45;&gt;node5 -->
<g id="edge1" class="edge"><title>node1&#45;&gt;node5</title>
<path fill="none" stroke="black" d="M71.882,-331.891C87.2933,-324.417 106.389,-314.47 122.493,-304 134.129,-296.434 146.211,-287.079 156.451,-278.643"/>
<polygon fill="black" stroke="black" points="158.809,-281.233 164.224,-272.126 154.312,-275.869 158.809,-281.233"/>
<text text-anchor="middle" x="112.493" y="-318.8" font-family="Times New Roman,serif" font-size="14.00"> (0)</text>
</g>
<!-- node9 -->
<g id="node10" class="node"><title>node9</title>
<ellipse fill="none" stroke="black" cx="183.389" cy="-358" rx="42.4939" ry="18"/>
<text text-anchor="middle" x="183.389" y="-354.3" font-family="Times New Roman,serif" font-size="14.00">(9) AND</text>
</g>
<!-- node1&#45;&gt;node9 -->
<g id="edge10" class="edge"><title>node1&#45;&gt;node9</title>
<path fill="none" stroke="black" d="M83.8661,-348.795C98.8687,-350.197 116.057,-351.803 131.833,-353.277"/>
<polygon fill="black" stroke="black" points="131.677,-356.777 141.959,-354.223 132.328,-349.808 131.677,-356.777"/>
<text text-anchor="middle" x="112.493" y="-355.8" font-family="Times New Roman,serif" font-size="14.00"> (1)</text>
</g>
<!-- node2 -->
<g id="node3" class="node"><title>node2</title>
<ellipse fill="none" stroke="black" cx="42.2463" cy="-178" rx="42.4939" ry="18"/>
<text text-anchor="middle" x="42.2463" y="-174.3" font-family="Times New Roman,serif" font-size="14.00">(2) Input</text>
</g>
<!-- node6 -->
<g id="node7" class="node"><title>node6</title>
<ellipse fill="none" stroke="black" cx="183.389" cy="-169" rx="42.4939" ry="18"/>
<text text-anchor="middle" x="183.389" y="-165.3" font-family="Times New Roman,serif" font-size="14.00">(6) AND</text>
</g>
<!-- node2&#45;&gt;node6 -->
<g id="edge4" class="edge"><title>node2&#45;&gt;node6</title>
<path fill="none" stroke="black" d="M84.8116,-176.912C96.9654,-176.462 110.268,-175.843 122.493,-175 125.573,-174.788 128.74,-174.544 131.933,-174.28"/>
<polygon fill="black" stroke="black" points="132.492,-177.744 142.144,-173.377 131.875,-170.772 132.492,-177.744"/>
<text text-anchor="middle" x="112.493" y="-179.8" font-family="Times New Roman,serif" font-size="14.00"> (1)</text>
</g>
<!-- node8 -->
<g id="node9" class="node"><title>node8</title>
<ellipse fill="none" stroke="black" cx="183.389" cy="-92" rx="42.7926" ry="18"/>
<text text-anchor="middle" x="183.389" y="-88.3" font-family="Times New Roman,serif" font-size="14.00">(8) XOR</text>
</g>
<!-- node2&#45;&gt;node8 -->
<g id="edge7" class="edge"><title>node2&#45;&gt;node8</title>
<path fill="none" stroke="black" d="M71.3818,-164.871C86.8183,-157.316 106.096,-147.3 122.493,-137 133.506,-130.081 145.055,-121.701 155.04,-114.058"/>
<polygon fill="black" stroke="black" points="157.267,-116.759 163.014,-107.858 152.971,-111.233 157.267,-116.759"/>
<text text-anchor="middle" x="112.493" y="-151.8" font-family="Times New Roman,serif" font-size="14.00"> (0)</text>
</g>
<!-- node3 -->
<g id="node4" class="node"><title>node3</title>
<ellipse fill="none" stroke="black" cx="42.2463" cy="-269" rx="42.4939" ry="18"/>
<text text-anchor="middle" x="42.2463" y="-265.3" font-family="Times New Roman,serif" font-size="14.00">(3) Input</text>
</g>
<!-- node3&#45;&gt;node5 -->
<g id="edge2" class="edge"><title>node3&#45;&gt;node5</title>
<path fill="none" stroke="black" d="M74.8284,-257.526C83.661,-254.836 93.3478,-252.358 102.493,-251 112.083,-249.575 122.38,-249.298 132.287,-249.65"/>
<polygon fill="black" stroke="black" points="132.241,-253.152 142.422,-250.221 132.635,-246.164 132.241,-253.152"/>
<text text-anchor="middle" x="112.493" y="-254.8" font-family="Times New Roman,serif" font-size="14.00"> (1)</text>
</g>
<!-- node3&#45;&gt;node9 -->
<g id="edge9" class="edge"><title>node3&#45;&gt;node9</title>
<path fill="none" stroke="black" d="M84.2944,-271.871C97.2069,-274.153 111.066,-278.128 122.493,-285 141.165,-296.23 156.594,-315.477 167.114,-331.389"/>
<polygon fill="black" stroke="black" points="164.432,-333.697 172.728,-340.287 170.352,-329.962 164.432,-333.697"/>
<text text-anchor="middle" x="112.493" y="-288.8" font-family="Times New Roman,serif" font-size="14.00"> (0)</text>
</g>
<!-- node4 -->
<g id="node5" class="node"><title>node4</title>
<ellipse fill="none" stroke="black" cx="42.2463" cy="-96" rx="42.4939" ry="18"/>
<text text-anchor="middle" x="42.2463" y="-92.3" font-family="Times New Roman,serif" font-size="14.00">(4) Input</text>
</g>
<!-- node4&#45;&gt;node6 -->
<g id="edge3" class="edge"><title>node4&#45;&gt;node6</title>
<path fill="none" stroke="black" d="M79.0447,-104.862C93.046,-109.059 108.959,-114.761 122.493,-122 134.724,-128.543 146.993,-137.62 157.213,-146.054"/>
<polygon fill="black" stroke="black" points="155.045,-148.805 164.93,-152.619 159.581,-143.473 155.045,-148.805"/>
<text text-anchor="middle" x="112.493" y="-125.8" font-family="Times New Roman,serif" font-size="14.00"> (0)</text>
</g>
<!-- node4&#45;&gt;node8 -->
<g id="edge8" class="edge"><title>node4&#45;&gt;node8</title>
<path fill="none" stroke="black" d="M79.7332,-87.4216C87.2197,-85.9973 95.0785,-84.7433 102.493,-84 112.583,-82.9883 123.391,-83.1977 133.694,-84.0159"/>
<polygon fill="black" stroke="black" points="133.486,-87.5124 143.783,-85.0143 134.176,-80.5464 133.486,-87.5124"/>
<text text-anchor="middle" x="112.493" y="-87.8" font-family="Times New Roman,serif" font-size="14.00"> (1)</text>
</g>
<!-- node7 -->
<g id="node8" class="node"><title>node7</title>
<ellipse fill="none" stroke="black" cx="329.731" cy="-188" rx="42.7926" ry="18"/>
<text text-anchor="middle" x="329.731" y="-184.3" font-family="Times New Roman,serif" font-size="14.00">(7) XOR</text>
</g>
<!-- node5&#45;&gt;node7 -->
<g id="edge6" class="edge"><title>node5&#45;&gt;node7</title>
<path fill="none" stroke="black" d="M212.071,-242.467C222.188,-237.555 233.736,-231.989 244.285,-227 259.493,-219.807 276.309,-212.01 290.904,-205.291"/>
<polygon fill="black" stroke="black" points="292.511,-208.405 300.136,-201.049 289.588,-202.044 292.511,-208.405"/>
<text text-anchor="middle" x="254.285" y="-230.8" font-family="Times New Roman,serif" font-size="14.00"> (1)</text>
</g>
<!-- node10 -->
<g id="node11" class="node"><title>node10</title>
<ellipse fill="none" stroke="black" cx="329.731" cy="-307" rx="46.5926" ry="18"/>
<text text-anchor="middle" x="329.731" y="-303.3" font-family="Times New Roman,serif" font-size="14.00">(10) AND</text>
</g>
<!-- node5&#45;&gt;node10 -->
<g id="edge11" class="edge"><title>node5&#45;&gt;node10</title>
<path fill="none" stroke="black" d="M216.782,-267.445C236.983,-274.583 263.23,-283.857 285.232,-291.631"/>
<polygon fill="black" stroke="black" points="284.092,-294.94 294.687,-294.971 286.424,-288.34 284.092,-294.94"/>
<text text-anchor="middle" x="254.285" y="-286.8" font-family="Times New Roman,serif" font-size="14.00"> (0)</text>
</g>
<!-- node12 -->
<g id="node13" class="node"><title>node12</title>
<ellipse fill="none" stroke="black" cx="480.622" cy="-253" rx="46.5926" ry="18"/>
<text text-anchor="middle" x="480.622" y="-249.3" font-family="Times New Roman,serif" font-size="14.00">(12) AND</text>
</g>
<!-- node5&#45;&gt;node12 -->
<g id="edge16" class="edge"><title>node5&#45;&gt;node12</title>
<path fill="none" stroke="black" d="M226.375,-255.573C278.037,-255.048 365.946,-254.155 423.401,-253.571"/>
<polygon fill="black" stroke="black" points="423.442,-257.071 433.406,-253.47 423.371,-250.072 423.442,-257.071"/>
<text text-anchor="middle" x="329.731" y="-257.8" font-family="Times New Roman,serif" font-size="14.00"> (1)</text>
</g>
<!-- node6&#45;&gt;node7 -->
<g id="edge5" class="edge"><title>node6&#45;&gt;node7</title>
<path fill="none" stroke="black" d="M212.621,-155.955C227.972,-150.539 247.249,-146.457 264.285,-151 276.433,-154.239 288.671,-160.374 299.171,-166.731"/>
<polygon fill="black" stroke="black" points="297.592,-169.875 307.904,-172.307 301.359,-163.975 297.592,-169.875"/>
<text text-anchor="middle" x="254.285" y="-154.8" font-family="Times New Roman,serif" font-size="14.00"> (0)</text>
</g>
<!-- node6&#45;&gt;node10 -->
<g id="edge12" class="edge"><title>node6&#45;&gt;node10</title>
<path fill="none" stroke="black" d="M223.019,-175.446C237.836,-179.776 253.709,-186.992 264.285,-199 287.228,-225.049 262.684,-246.351 282.285,-275 285.183,-279.235 288.84,-283.077 292.825,-286.51"/>
<polygon fill="black" stroke="black" points="290.712,-289.3 300.779,-292.602 294.968,-283.743 290.712,-289.3"/>
<text text-anchor="middle" x="254.285" y="-202.8" font-family="Times New Roman,serif" font-size="14.00"> (1)</text>
</g>
<!-- node15 -->
<g id="node16" class="node"><title>node15</title>
<ellipse fill="none" stroke="black" cx="480.622" cy="-150" rx="47.3916" ry="18"/>
<text text-anchor="middle" x="480.622" y="-146.3" font-family="Times New Roman,serif" font-size="14.00">(15) XOR</text>
</g>
<!-- node7&#45;&gt;node15 -->
<g id="edge22" class="edge"><title>node7&#45;&gt;node15</title>
<path fill="none" stroke="black" d="M366.773,-178.801C386.003,-173.893 409.941,-167.784 430.815,-162.457"/>
<polygon fill="black" stroke="black" points="431.958,-165.777 440.782,-159.913 430.227,-158.994 431.958,-165.777"/>
<text text-anchor="middle" x="405.176" y="-174.8" font-family="Times New Roman,serif" font-size="14.00"> (1)</text>
</g>
<!-- node8&#45;&gt;node11 -->
<g id="edge14" class="edge"><title>node8&#45;&gt;node11</title>
<path fill="none" stroke="black" d="M224.596,-97.5711C240.277,-99.7439 258.481,-102.266 275.242,-104.589"/>
<polygon fill="black" stroke="black" points="275.07,-108.098 285.455,-106.004 276.03,-101.164 275.07,-108.098"/>
<text text-anchor="middle" x="254.285" y="-105.8" font-family="Times New Roman,serif" font-size="14.00"> (1)</text>
</g>
<!-- node8&#45;&gt;node14 -->
<g id="edge19" class="edge"><title>node8&#45;&gt;node14</title>
<path fill="none" stroke="black" d="M212.562,-78.7275C234.58,-68.3546 265.434,-53.8194 289.811,-42.3354"/>
<polygon fill="black" stroke="black" points="291.585,-45.3684 299.14,-37.9403 288.602,-39.0359 291.585,-45.3684"/>
<text text-anchor="middle" x="254.285" y="-65.8" font-family="Times New Roman,serif" font-size="14.00"> (0)</text>
</g>
<!-- node16 -->
<g id="node17" class="node"><title>node16</title>
<ellipse fill="none" stroke="black" cx="762.907" cy="-342" rx="40.8928" ry="18"/>
<text text-anchor="middle" x="762.907" y="-338.3" font-family="Times New Roman,serif" font-size="14.00">(16) OR</text>
</g>
<!-- node9&#45;&gt;node16 -->
<g id="edge23" class="edge"><title>node9&#45;&gt;node16</title>
<path fill="none" stroke="black" d="M225.764,-358C254.622,-358 294.023,-358 328.731,-358 328.731,-358 328.731,-358 626.014,-358 655.689,-358 688.761,-354.19 714.848,-350.289"/>
<polygon fill="black" stroke="black" points="715.498,-353.73 724.843,-348.739 714.425,-346.813 715.498,-353.73"/>
<text text-anchor="middle" x="480.622" y="-361.8" font-family="Times New Roman,serif" font-size="14.00"> (0)</text>
</g>
<!-- node13 -->
<g id="node14" class="node"><title>node13</title>
<ellipse fill="none" stroke="black" cx="625.014" cy="-307" rx="40.8928" ry="18"/>
<text text-anchor="middle" x="625.014" y="-303.3" font-family="Times New Roman,serif" font-size="14.00">(13) OR</text>
</g>
<!-- node10&#45;&gt;node13 -->
<g id="edge17" class="edge"><title>node10&#45;&gt;node13</title>
<path fill="none" stroke="black" d="M376.556,-307C429.983,-307 518.015,-307 573.41,-307"/>
<polygon fill="black" stroke="black" points="573.696,-310.5 583.696,-307 573.696,-303.5 573.696,-310.5"/>
<text text-anchor="middle" x="480.622" y="-310.8" font-family="Times New Roman,serif" font-size="14.00"> (0)</text>
</g>
<!-- node11&#45;&gt;node12 -->
<g id="edge15" class="edge"><title>node11&#45;&gt;node12</title>
<path fill="none" stroke="black" d="M368.902,-122.042C384.506,-127.534 401.956,-135.599 415.176,-147 426.952,-157.155 425.122,-163.699 433.176,-177 443.259,-193.65 454.655,-212.3 463.636,-226.959"/>
<polygon fill="black" stroke="black" points="460.672,-228.821 468.882,-235.517 466.64,-225.162 460.672,-228.821"/>
<text text-anchor="middle" x="405.176" y="-150.8" font-family="Times New Roman,serif" font-size="14.00"> (0)</text>
</g>
<!-- node11&#45;&gt;node15 -->
<g id="edge21" class="edge"><title>node11&#45;&gt;node15</title>
<path fill="none" stroke="black" d="M375.583,-108.334C388.546,-108.395 402.588,-109.563 415.176,-113 427.113,-116.259 439.151,-122.269 449.539,-128.511"/>
<polygon fill="black" stroke="black" points="447.877,-131.602 458.199,-133.994 451.622,-125.687 447.877,-131.602"/>
<text text-anchor="middle" x="405.176" y="-116.8" font-family="Times New Roman,serif" font-size="14.00"> (0)</text>
</g>
<!-- node12&#45;&gt;node13 -->
<g id="edge18" class="edge"><title>node12&#45;&gt;node13</title>
<path fill="none" stroke="black" d="M519.938,-262.8C534.567,-266.942 551.277,-272.162 566.068,-278 573.879,-281.083 582.062,-284.834 589.736,-288.601"/>
<polygon fill="black" stroke="black" points="588.279,-291.786 598.784,-293.16 591.429,-285.535 588.279,-291.786"/>
<text text-anchor="middle" x="556.068" y="-281.8" font-family="Times New Roman,serif" font-size="14.00"> (1)</text>
</g>
<!-- node13&#45;&gt;node16 -->
<g id="edge24" class="edge"><title>node13&#45;&gt;node16</title>
<path fill="none" stroke="black" d="M660.658,-315.923C677.776,-320.331 698.64,-325.705 716.971,-330.427"/>
<polygon fill="black" stroke="black" points="716.298,-333.867 726.855,-332.972 718.044,-327.088 716.298,-333.867"/>
<text text-anchor="middle" x="693.961" y="-329.8" font-family="Times New Roman,serif" font-size="14.00"> (1)</text>
</g>
<!-- node17 -->
<g id="node18" class="node"><title>node17</title>
<ellipse fill="none" stroke="black" cx="883.75" cy="-24" rx="42.7926" ry="18"/>
<text text-anchor="middle" x="883.75" y="-20.3" font-family="Times New Roman,serif" font-size="14.00">Output 0</text>
</g>
<!-- node14&#45;&gt;node17 -->
<g id="edge25" class="edge"><title>node14&#45;&gt;node17</title>
<path fill="none" stroke="black" d="M377.339,-24C406.69,-24 445.372,-24 479.622,-24 479.622,-24 479.622,-24 763.907,-24 785.705,-24 809.753,-24 830.48,-24"/>
<polygon fill="black" stroke="black" points="830.674,-27.5001 840.674,-24 830.674,-20.5001 830.674,-27.5001"/>
</g>
<!-- node18 -->
<g id="node19" class="node"><title>node18</title>
<ellipse fill="none" stroke="black" cx="883.75" cy="-150" rx="42.7926" ry="18"/>
<text text-anchor="middle" x="883.75" y="-146.3" font-family="Times New Roman,serif" font-size="14.00">Output 1</text>
</g>
<!-- node15&#45;&gt;node18 -->
<g id="edge26" class="edge"><title>node15&#45;&gt;node18</title>
<path fill="none" stroke="black" d="M528.422,-150C603.877,-150 751.898,-150 830.622,-150"/>
<polygon fill="black" stroke="black" points="830.793,-153.5 840.793,-150 830.793,-146.5 830.793,-153.5"/>
</g>
<!-- node19 -->
<g id="node20" class="node"><title>node19</title>
<ellipse fill="none" stroke="black" cx="883.75" cy="-342" rx="42.7926" ry="18"/>
<text text-anchor="middle" x="883.75" y="-338.3" font-family="Times New Roman,serif" font-size="14.00">Output 2</text>
</g>
<!-- node16&#45;&gt;node19 -->
<g id="edge27" class="edge"><title>node16&#45;&gt;node19</title>
<path fill="none" stroke="black" d="M804.142,-342C812.563,-342 821.561,-342 830.35,-342"/>
<polygon fill="black" stroke="black" points="830.526,-345.5 840.526,-342 830.526,-338.5 830.526,-345.5"/>
</g>
</g>
</svg>
