<?xml version="1.0" encoding="UTF-8" standalone="no"?>
<!DOCTYPE svg PUBLIC "-//W3C//DTD SVG 1.1//EN"
 "http://www.w3.org/Graphics/SVG/1.1/DTD/svg11.dtd">
<!-- Generated by graphviz version 2.38.0 (20140413.2041)
 -->
<!-- Title: NeuralNetwork Pages: 1 -->
<svg width="288pt" height="100pt"
 viewBox="0.00 0.00 288.00 99.95" xmlns="http://www.w3.org/2000/svg" xmlns:xlink="http://www.w3.org/1999/xlink">
<g id="graph0" class="graph" transform="scale(0.263727 0.263727) rotate(0) translate(4 375)">
<title>NeuralNetwork</title>
<polygon fill="white" stroke="none" points="-4,4 -4,-375 1088.04,-375 1088.04,4 -4,4"/>
<!-- node0 -->
<g id="node1" class="node"><title>node0</title>
<ellipse fill="none" stroke="black" cx="42.2463" cy="-106" rx="42.4939" ry="18"/>
<text text-anchor="middle" x="42.2463" y="-102.3" font-family="Times New Roman,serif" font-size="14.00">(0) Input</text>
</g>
<!-- node5 -->
<g id="node6" class="node"><title>node5</title>
<ellipse fill="none" stroke="black" cx="183.389" cy="-107" rx="42.7926" ry="18"/>
<text text-anchor="middle" x="183.389" y="-103.3" font-family="Times New Roman,serif" font-size="14.00">(5) XOR</text>
</g>
<!-- node0&#45;&gt;node5 -->
<g id="edge2" class="edge"><title>node0&#45;&gt;node5</title>
<path fill="none" stroke="black" d="M65.7256,-90.7681C81.371,-81.9867 102.866,-73.4986 122.493,-78 131.492,-80.0642 140.711,-83.666 149.134,-87.6442"/>
<polygon fill="black" stroke="black" points="147.746,-90.8639 158.252,-92.2337 150.893,-84.6113 147.746,-90.8639"/>
<text text-anchor="middle" x="112.493" y="-81.8" font-family="Times New Roman,serif" font-size="14.00"> (1)</text>
</g>
<!-- node6 -->
<g id="node7" class="node"><title>node6</title>
<ellipse fill="none" stroke="black" cx="183.389" cy="-167" rx="42.4939" ry="18"/>
<text text-anchor="middle" x="183.389" y="-163.3" font-family="Times New Roman,serif" font-size="14.00">(6) AND</text>
</g>
<!-- node0&#45;&gt;node6 -->
<g id="edge3" class="edge"><title>node0&#45;&gt;node6</title>
<path fill="none" stroke="black" d="M84.0597,-102.948C96.9581,-103.556 110.868,-105.944 122.493,-112 133.696,-117.837 131.477,-125.15 140.493,-134 144.277,-137.715 148.466,-141.42 152.688,-144.933"/>
<polygon fill="black" stroke="black" points="150.763,-147.875 160.752,-151.405 155.144,-142.416 150.763,-147.875"/>
<text text-anchor="middle" x="112.493" y="-115.8" font-family="Times New Roman,serif" font-size="14.00"> (0)</text>
</g>
<!-- node1 -->
<g id="node2" class="node"><title>node1</title>
<ellipse fill="none" stroke="black" cx="42.2463" cy="-337" rx="42.4939" ry="18"/>
<text text-anchor="middle" x="42.2463" y="-333.3" font-family="Times New Roman,serif" font-size="14.00">(1) Input</text>
</g>
<!-- node12 -->
<g id="node13" class="node"><title>node12</title>
<ellipse fill="none" stroke="black" cx="763.557" cy="-317" rx="40.8928" ry="18"/>
<text text-anchor="middle" x="763.557" y="-313.3" font-family="Times New Roman,serif" font-size="14.00">(12) OR</text>
</g>
<!-- node1&#45;&gt;node12 -->
<g id="edge16" class="edge"><title>node1&#45;&gt;node12</title>
<path fill="none" stroke="black" d="M80.5585,-344.893C108.469,-350.113 147.646,-356 182.389,-356 182.389,-356 182.389,-356 614.315,-356 652.57,-356 694.605,-343.703 724.113,-332.919"/>
<polygon fill="black" stroke="black" points="725.491,-336.14 733.616,-329.34 723.024,-329.589 725.491,-336.14"/>
<text text-anchor="middle" x="396.077" y="-359.8" font-family="Times New Roman,serif" font-size="14.00"> (1)</text>
</g>
<!-- node13 -->
<g id="node14" class="node"><title>node13</title>
<ellipse fill="none" stroke="black" cx="763.557" cy="-261" rx="46.5926" ry="18"/>
<text text-anchor="middle" x="763.557" y="-257.3" font-family="Times New Roman,serif" font-size="14.00">(13) AND</text>
</g>
<!-- node1&#45;&gt;node13 -->
<g id="edge18" class="edge"><title>node1&#45;&gt;node13</title>
<path fill="none" stroke="black" d="M80.5585,-329.107C108.469,-323.887 147.646,-318 182.389,-318 182.389,-318 182.389,-318 614.315,-318 652.359,-318 663.911,-319.258 698.761,-304 708.045,-299.935 708.47,-295.829 716.761,-290 720.692,-287.236 724.877,-284.421 729.058,-281.685"/>
<polygon fill="black" stroke="black" points="731.035,-284.576 737.552,-276.223 727.248,-278.688 731.035,-284.576"/>
<text text-anchor="middle" x="396.077" y="-321.8" font-family="Times New Roman,serif" font-size="14.00"> (1)</text>
</g>
<!-- node2 -->
<g id="node3" class="node"><title>node2</title>
<ellipse fill="none" stroke="black" cx="42.2463" cy="-161" rx="42.4939" ry="18"/>
<text text-anchor="middle" x="42.2463" y="-157.3" font-family="Times New Roman,serif" font-size="14.00">(2) Input</text>
</g>
<!-- node2&#45;&gt;node5 -->
<g id="edge1" class="edge"><title>node2&#45;&gt;node5</title>
<path fill="none" stroke="black" d="M74.5389,-149.312C89.1364,-143.819 106.729,-137.141 122.493,-131 128.945,-128.486 135.773,-125.787 142.42,-123.139"/>
<polygon fill="black" stroke="black" points="143.977,-126.286 151.963,-119.323 141.378,-119.786 143.977,-126.286"/>
<text text-anchor="middle" x="112.493" y="-141.8" font-family="Times New Roman,serif" font-size="14.00"> (0)</text>
</g>
<!-- node2&#45;&gt;node6 -->
<g id="edge4" class="edge"><title>node2&#45;&gt;node6</title>
<path fill="none" stroke="black" d="M82.3698,-167.037C89.0672,-167.854 95.9684,-168.562 102.493,-169 111.744,-169.622 121.61,-169.783 131.139,-169.681"/>
<polygon fill="black" stroke="black" points="131.375,-173.177 141.302,-169.477 131.234,-166.178 131.375,-173.177"/>
<text text-anchor="middle" x="112.493" y="-172.8" font-family="Times New Roman,serif" font-size="14.00"> (1)</text>
</g>
<!-- node3 -->
<g id="node4" class="node"><title>node3</title>
<ellipse fill="none" stroke="black" cx="42.2463" cy="-248" rx="42.4939" ry="18"/>
<text text-anchor="middle" x="42.2463" y="-244.3" font-family="Times New Roman,serif" font-size="14.00">(3) Input</text>
</g>
<!-- node10 -->
<g id="node11" class="node"><title>node10</title>
<ellipse fill="none" stroke="black" cx="613.315" cy="-266" rx="47.3916" ry="18"/>
<text text-anchor="middle" x="613.315" y="-262.3" font-family="Times New Roman,serif" font-size="14.00">(10) XOR</text>
</g>
<!-- node3&#45;&gt;node10 -->
<g id="edge11" class="edge"><title>node3&#45;&gt;node10</title>
<path fill="none" stroke="black" d="M77.5087,-258.052C105.471,-265.369 146.141,-274 182.389,-274 182.389,-274 182.389,-274 467.973,-274 497.35,-274 530.037,-272.328 556.868,-270.512"/>
<polygon fill="black" stroke="black" points="557.114,-274.004 566.845,-269.813 556.624,-267.021 557.114,-274.004"/>
<text text-anchor="middle" x="325.181" y="-277.8" font-family="Times New Roman,serif" font-size="14.00"> (0)</text>
</g>
<!-- node11 -->
<g id="node12" class="node"><title>node11</title>
<ellipse fill="none" stroke="black" cx="613.315" cy="-208" rx="46.5926" ry="18"/>
<text text-anchor="middle" x="613.315" y="-204.3" font-family="Times New Roman,serif" font-size="14.00">(11) AND</text>
</g>
<!-- node3&#45;&gt;node11 -->
<g id="edge14" class="edge"><title>node3&#45;&gt;node11</title>
<path fill="none" stroke="black" d="M77.8186,-238.263C105.786,-231.243 146.31,-223 182.389,-223 182.389,-223 182.389,-223 467.973,-223 498.468,-223 532.393,-219.647 559.688,-216.111"/>
<polygon fill="black" stroke="black" points="560.358,-219.553 569.804,-214.754 559.427,-212.615 560.358,-219.553"/>
<text text-anchor="middle" x="325.181" y="-226.8" font-family="Times New Roman,serif" font-size="14.00"> (1)</text>
</g>
<!-- node4 -->
<g id="node5" class="node"><title>node4</title>
<ellipse fill="none" stroke="black" cx="42.2463" cy="-18" rx="42.4939" ry="18"/>
<text text-anchor="middle" x="42.2463" y="-14.3" font-family="Times New Roman,serif" font-size="14.00">(4) Input</text>
</g>
<!-- node7 -->
<g id="node8" class="node"><title>node7</title>
<ellipse fill="none" stroke="black" cx="325.181" cy="-113" rx="42.4939" ry="18"/>
<text text-anchor="middle" x="325.181" y="-109.3" font-family="Times New Roman,serif" font-size="14.00">(7) AND</text>
</g>
<!-- node4&#45;&gt;node7 -->
<g id="edge5" class="edge"><title>node4&#45;&gt;node7</title>
<path fill="none" stroke="black" d="M84.3657,-19.6639C130.327,-22.9268 205.95,-32.5655 264.285,-61 278.23,-67.7973 291.501,-78.6822 301.99,-88.7408"/>
<polygon fill="black" stroke="black" points="299.558,-91.2581 309.107,-95.8487 304.505,-86.3054 299.558,-91.2581"/>
<text text-anchor="middle" x="183.389" y="-48.8" font-family="Times New Roman,serif" font-size="14.00"> (0)</text>
</g>
<!-- node9 -->
<g id="node10" class="node"><title>node9</title>
<ellipse fill="none" stroke="black" cx="325.181" cy="-33" rx="42.7926" ry="18"/>
<text text-anchor="middle" x="325.181" y="-29.3" font-family="Times New Roman,serif" font-size="14.00">(9) XOR</text>
</g>
<!-- node4&#45;&gt;node9 -->
<g id="edge10" class="edge"><title>node4&#45;&gt;node9</title>
<path fill="none" stroke="black" d="M81.6121,-11.0491C118.754,-5.3643 176.581,0.728588 226.285,-6 244.833,-8.51092 264.833,-13.5827 281.891,-18.6595"/>
<polygon fill="black" stroke="black" points="280.975,-22.0393 291.562,-21.6299 283.03,-15.3479 280.975,-22.0393"/>
<text text-anchor="middle" x="183.389" y="-9.8" font-family="Times New Roman,serif" font-size="14.00"> (1)</text>
</g>
<!-- node5&#45;&gt;node7 -->
<g id="edge6" class="edge"><title>node5&#45;&gt;node7</title>
<path fill="none" stroke="black" d="M226.331,-108.8C240.837,-109.423 257.267,-110.128 272.464,-110.78"/>
<polygon fill="black" stroke="black" points="272.609,-114.29 282.75,-111.222 272.909,-107.296 272.609,-114.29"/>
<text text-anchor="middle" x="254.285" y="-113.8" font-family="Times New Roman,serif" font-size="14.00"> (1)</text>
</g>
<!-- node5&#45;&gt;node9 -->
<g id="edge9" class="edge"><title>node5&#45;&gt;node9</title>
<path fill="none" stroke="black" d="M210.683,-93.0812C232.704,-81.4241 264.339,-64.6778 288.62,-51.8247"/>
<polygon fill="black" stroke="black" points="290.329,-54.8799 297.53,-47.108 287.054,-48.6932 290.329,-54.8799"/>
<text text-anchor="middle" x="254.285" y="-77.8" font-family="Times New Roman,serif" font-size="14.00"> (0)</text>
</g>
<!-- node8 -->
<g id="node9" class="node"><title>node8</title>
<ellipse fill="none" stroke="black" cx="466.973" cy="-163" rx="42.7926" ry="18"/>
<text text-anchor="middle" x="466.973" y="-159.3" font-family="Times New Roman,serif" font-size="14.00">(8) XOR</text>
</g>
<!-- node6&#45;&gt;node8 -->
<g id="edge7" class="edge"><title>node6&#45;&gt;node8</title>
<path fill="none" stroke="black" d="M225.635,-166.414C275.433,-165.707 359.248,-164.516 413.576,-163.744"/>
<polygon fill="black" stroke="black" points="413.746,-167.242 423.695,-163.601 413.647,-160.243 413.746,-167.242"/>
<text text-anchor="middle" x="325.181" y="-168.8" font-family="Times New Roman,serif" font-size="14.00"> (0)</text>
</g>
<!-- node7&#45;&gt;node8 -->
<g id="edge8" class="edge"><title>node7&#45;&gt;node8</title>
<path fill="none" stroke="black" d="M360.627,-123.019C374.804,-127.339 391.329,-132.627 406.077,-138 412.992,-140.519 420.277,-143.38 427.294,-146.244"/>
<polygon fill="black" stroke="black" points="426.057,-149.52 436.635,-150.121 428.74,-143.055 426.057,-149.52"/>
<text text-anchor="middle" x="396.077" y="-141.8" font-family="Times New Roman,serif" font-size="14.00"> (1)</text>
</g>
<!-- node8&#45;&gt;node10 -->
<g id="edge12" class="edge"><title>node8&#45;&gt;node10</title>
<path fill="none" stroke="black" d="M488.779,-178.729C508.461,-193.505 538.918,-216.109 565.87,-235 570.434,-238.2 575.292,-241.526 580.08,-244.76"/>
<polygon fill="black" stroke="black" points="578.291,-247.774 588.546,-250.436 582.189,-241.96 578.291,-247.774"/>
<text text-anchor="middle" x="537.87" y="-224.8" font-family="Times New Roman,serif" font-size="14.00"> (1)</text>
</g>
<!-- node8&#45;&gt;node11 -->
<g id="edge13" class="edge"><title>node8&#45;&gt;node11</title>
<path fill="none" stroke="black" d="M503.785,-153.545C517.862,-151.441 533.952,-151.085 547.87,-156 563.73,-161.601 578.555,-172.944 589.977,-183.61"/>
<polygon fill="black" stroke="black" points="587.723,-186.302 597.312,-190.808 592.626,-181.306 587.723,-186.302"/>
<text text-anchor="middle" x="537.87" y="-159.8" font-family="Times New Roman,serif" font-size="14.00"> (0)</text>
</g>
<!-- node16 -->
<g id="node17" class="node"><title>node16</title>
<ellipse fill="none" stroke="black" cx="1041.14" cy="-33" rx="42.7926" ry="18"/>
<text text-anchor="middle" x="1041.14" y="-29.3" font-family="Times New Roman,serif" font-size="14.00">Output 0</text>
</g>
<!-- node9&#45;&gt;node16 -->
<g id="edge23" class="edge"><title>node9&#45;&gt;node16</title>
<path fill="none" stroke="black" d="M368.083,-33C395.852,-33 433.088,-33 465.973,-33 465.973,-33 465.973,-33 914.799,-33 938.859,-33 965.517,-33 988.041,-33"/>
<polygon fill="black" stroke="black" points="988.074,-36.5001 998.074,-33 988.074,-29.5001 988.074,-36.5001"/>
</g>
<!-- node10&#45;&gt;node12 -->
<g id="edge15" class="edge"><title>node10&#45;&gt;node12</title>
<path fill="none" stroke="black" d="M649.072,-277.957C670.541,-285.343 698.217,-294.865 720.864,-302.656"/>
<polygon fill="black" stroke="black" points="719.956,-306.045 730.551,-305.989 722.233,-299.426 719.956,-306.045"/>
<text text-anchor="middle" x="688.761" y="-297.8" font-family="Times New Roman,serif" font-size="14.00"> (0)</text>
</g>
<!-- node10&#45;&gt;node13 -->
<g id="edge17" class="edge"><title>node10&#45;&gt;node13</title>
<path fill="none" stroke="black" d="M652.23,-255.658C660.884,-253.723 670.088,-251.996 678.761,-251 689.461,-249.771 700.924,-250.073 711.832,-251.127"/>
<polygon fill="black" stroke="black" points="711.732,-254.639 722.075,-252.343 712.558,-247.688 711.732,-254.639"/>
<text text-anchor="middle" x="688.761" y="-254.8" font-family="Times New Roman,serif" font-size="14.00"> (0)</text>
</g>
<!-- node15 -->
<g id="node16" class="node"><title>node15</title>
<ellipse fill="none" stroke="black" cx="913.799" cy="-221" rx="47.3916" ry="18"/>
<text text-anchor="middle" x="913.799" y="-217.3" font-family="Times New Roman,serif" font-size="14.00">(15) XOR</text>
</g>
<!-- node11&#45;&gt;node15 -->
<g id="edge21" class="edge"><title>node11&#45;&gt;node15</title>
<path fill="none" stroke="black" d="M659.974,-209.989C712.553,-212.279 798.979,-216.043 855.893,-218.522"/>
<polygon fill="black" stroke="black" points="856.019,-222.03 866.162,-218.969 856.324,-215.037 856.019,-222.03"/>
<text text-anchor="middle" x="763.557" y="-219.8" font-family="Times New Roman,serif" font-size="14.00"> (0)</text>
</g>
<!-- node14 -->
<g id="node15" class="node"><title>node14</title>
<ellipse fill="none" stroke="black" cx="913.799" cy="-287" rx="47.3916" ry="18"/>
<text text-anchor="middle" x="913.799" y="-283.3" font-family="Times New Roman,serif" font-size="14.00">(14) XOR</text>
</g>
<!-- node12&#45;&gt;node14 -->
<g id="edge19" class="edge"><title>node12&#45;&gt;node14</title>
<path fill="none" stroke="black" d="M801.201,-309.584C819.465,-305.888 841.848,-301.359 861.761,-297.329"/>
<polygon fill="black" stroke="black" points="862.504,-300.749 871.611,-295.335 861.116,-293.888 862.504,-300.749"/>
<text text-anchor="middle" x="838.353" y="-306.8" font-family="Times New Roman,serif" font-size="14.00"> (0)</text>
</g>
<!-- node13&#45;&gt;node14 -->
<g id="edge20" class="edge"><title>node13&#45;&gt;node14</title>
<path fill="none" stroke="black" d="M806.641,-268.381C823.313,-271.305 842.663,-274.699 860.241,-277.782"/>
<polygon fill="black" stroke="black" points="859.898,-281.275 870.353,-279.555 861.108,-274.38 859.898,-281.275"/>
<text text-anchor="middle" x="838.353" y="-278.8" font-family="Times New Roman,serif" font-size="14.00"> (1)</text>
</g>
<!-- node13&#45;&gt;node15 -->
<g id="edge22" class="edge"><title>node13&#45;&gt;node15</title>
<path fill="none" stroke="black" d="M802.348,-250.803C821.368,-245.671 844.627,-239.395 864.888,-233.928"/>
<polygon fill="black" stroke="black" points="865.818,-237.302 874.561,-231.318 863.995,-230.544 865.818,-237.302"/>
<text text-anchor="middle" x="838.353" y="-246.8" font-family="Times New Roman,serif" font-size="14.00"> (1)</text>
</g>
<!-- node17 -->
<g id="node18" class="node"><title>node17</title>
<ellipse fill="none" stroke="black" cx="1041.14" cy="-287" rx="42.7926" ry="18"/>
<text text-anchor="middle" x="1041.14" y="-283.3" font-family="Times New Roman,serif" font-size="14.00">Output 1</text>
</g>
<!-- node14&#45;&gt;node17 -->
<g id="edge24" class="edge"><title>node14&#45;&gt;node17</title>
<path fill="none" stroke="black" d="M961.471,-287C970.076,-287 979.112,-287 987.869,-287"/>
<polygon fill="black" stroke="black" points="987.979,-290.5 997.979,-287 987.979,-283.5 987.979,-290.5"/>
</g>
<!-- node18 -->
<g id="node19" class="node"><title>node18</title>
<ellipse fill="none" stroke="black" cx="1041.14" cy="-221" rx="42.7926" ry="18"/>
<text text-anchor="middle" x="1041.14" y="-217.3" font-family="Times New Roman,serif" font-size="14.00">Output 2</text>
</g>
<!-- node15&#45;&gt;node18 -->
<g id="edge25" class="edge"><title>node15&#45;&gt;node18</title>
<path fill="none" stroke="black" d="M961.471,-221C970.076,-221 979.112,-221 987.869,-221"/>
<polygon fill="black" stroke="black" points="987.979,-224.5 997.979,-221 987.979,-217.5 987.979,-224.5"/>
</g>
</g>
</svg>
