<?xml version="1.0" encoding="UTF-8" standalone="no"?>
<!DOCTYPE svg PUBLIC "-//W3C//DTD SVG 1.1//EN"
 "http://www.w3.org/Graphics/SVG/1.1/DTD/svg11.dtd">
<!-- Generated by graphviz version 2.38.0 (20140413.2041)
 -->
<!-- Title: NeuralNetwork Pages: 1 -->
<svg width="288pt" height="111pt"
 viewBox="0.00 0.00 288.00 111.35" xmlns="http://www.w3.org/2000/svg" xmlns:xlink="http://www.w3.org/1999/xlink">
<g id="graph0" class="graph" transform="scale(0.228603 0.228603) rotate(0) translate(4 483.084)">
<title>NeuralNetwork</title>
<polygon fill="white" stroke="none" points="-4,4 -4,-483.084 1255.83,-483.084 1255.83,4 -4,4"/>
<!-- node0 -->
<g id="node1" class="node"><title>node0</title>
<ellipse fill="none" stroke="black" cx="42.2463" cy="-22.0838" rx="42.4939" ry="18"/>
<text text-anchor="middle" x="42.2463" y="-18.3838" font-family="Times New Roman,serif" font-size="14.00">(0) Input</text>
</g>
<!-- node8 -->
<g id="node9" class="node"><title>node8</title>
<ellipse fill="none" stroke="black" cx="329.731" cy="-146.084" rx="36.2938" ry="18"/>
<text text-anchor="middle" x="329.731" y="-142.384" font-family="Times New Roman,serif" font-size="14.00">(8) OR</text>
</g>
<!-- node0&#45;&gt;node8 -->
<g id="edge8" class="edge"><title>node0&#45;&gt;node8</title>
<path fill="none" stroke="black" d="M84.2502,-24.9866C139.804,-29.5803 235.374,-40.0226 264.285,-59.0838 286.941,-74.0216 304.54,-99.7816 315.58,-119.406"/>
<polygon fill="black" stroke="black" points="312.641,-121.33 320.466,-128.473 318.803,-118.009 312.641,-121.33"/>
<text text-anchor="middle" x="183.389" y="-48.8838" font-family="Times New Roman,serif" font-size="14.00"> (1)</text>
</g>
<!-- node10 -->
<g id="node11" class="node"><title>node10</title>
<ellipse fill="none" stroke="black" cx="329.731" cy="-36.0838" rx="47.3916" ry="18"/>
<text text-anchor="middle" x="329.731" y="-32.3838" font-family="Times New Roman,serif" font-size="14.00">(10) XOR</text>
</g>
<!-- node0&#45;&gt;node10 -->
<g id="edge12" class="edge"><title>node0&#45;&gt;node10</title>
<path fill="none" stroke="black" d="M78.8206,-12.9549C115.807,-4.73409 175.313,4.92316 226.285,-3.08376 246.783,-6.30369 268.773,-12.9392 287.105,-19.4213"/>
<polygon fill="black" stroke="black" points="286.01,-22.7475 296.604,-22.8807 288.406,-16.1701 286.01,-22.7475"/>
<text text-anchor="middle" x="183.389" y="-6.88376" font-family="Times New Roman,serif" font-size="14.00"> (1)</text>
</g>
<!-- node1 -->
<g id="node2" class="node"><title>node1</title>
<ellipse fill="none" stroke="black" cx="42.2463" cy="-401.084" rx="42.4939" ry="18"/>
<text text-anchor="middle" x="42.2463" y="-397.384" font-family="Times New Roman,serif" font-size="14.00">(1) Input</text>
</g>
<!-- node9 -->
<g id="node10" class="node"><title>node9</title>
<ellipse fill="none" stroke="black" cx="480.622" cy="-302.084" rx="36.2938" ry="18"/>
<text text-anchor="middle" x="480.622" y="-298.384" font-family="Times New Roman,serif" font-size="14.00">(9) OR</text>
</g>
<!-- node1&#45;&gt;node9 -->
<g id="edge10" class="edge"><title>node1&#45;&gt;node9</title>
<path fill="none" stroke="black" d="M83.4168,-405.457C168.732,-413.863 364.357,-428.184 415.176,-389.084 437.242,-372.107 415.935,-350.943 433.176,-329.084 436.048,-325.443 439.557,-322.198 443.346,-319.332"/>
<polygon fill="black" stroke="black" points="445.529,-322.085 451.951,-313.658 441.676,-316.241 445.529,-322.085"/>
<text text-anchor="middle" x="254.285" y="-418.884" font-family="Times New Roman,serif" font-size="14.00"> (1)</text>
</g>
<!-- node11 -->
<g id="node12" class="node"><title>node11</title>
<ellipse fill="none" stroke="black" cx="480.622" cy="-356.084" rx="47.3916" ry="18"/>
<text text-anchor="middle" x="480.622" y="-352.384" font-family="Times New Roman,serif" font-size="14.00">(11) XOR</text>
</g>
<!-- node1&#45;&gt;node11 -->
<g id="edge14" class="edge"><title>node1&#45;&gt;node11</title>
<path fill="none" stroke="black" d="M73.1639,-413.464C140.356,-439.134 305.892,-490.242 415.176,-421.084 430.968,-411.09 420.53,-396.842 433.176,-383.084 435.585,-380.464 438.307,-378.025 441.196,-375.771"/>
<polygon fill="black" stroke="black" points="443.427,-378.484 449.658,-369.915 439.443,-372.728 443.427,-378.484"/>
<text text-anchor="middle" x="254.285" y="-458.884" font-family="Times New Roman,serif" font-size="14.00"> (1)</text>
</g>
<!-- node12 -->
<g id="node13" class="node"><title>node12</title>
<ellipse fill="none" stroke="black" cx="480.622" cy="-146.084" rx="46.5926" ry="18"/>
<text text-anchor="middle" x="480.622" y="-142.384" font-family="Times New Roman,serif" font-size="14.00">(12) AND</text>
</g>
<!-- node1&#45;&gt;node12 -->
<g id="edge16" class="edge"><title>node1&#45;&gt;node12</title>
<path fill="none" stroke="black" d="M67.958,-386.643C141.717,-343.542 360.422,-215.74 445.356,-166.107"/>
<polygon fill="black" stroke="black" points="447.226,-169.068 454.095,-161.001 443.695,-163.025 447.226,-169.068"/>
<text text-anchor="middle" x="254.285" y="-285.884" font-family="Times New Roman,serif" font-size="14.00"> (1)</text>
</g>
<!-- node2 -->
<g id="node3" class="node"><title>node2</title>
<ellipse fill="none" stroke="black" cx="42.2463" cy="-187.084" rx="42.4939" ry="18"/>
<text text-anchor="middle" x="42.2463" y="-183.384" font-family="Times New Roman,serif" font-size="14.00">(2) Input</text>
</g>
<!-- node5 -->
<g id="node6" class="node"><title>node5</title>
<ellipse fill="none" stroke="black" cx="183.389" cy="-92.0838" rx="42.7926" ry="18"/>
<text text-anchor="middle" x="183.389" y="-88.3838" font-family="Times New Roman,serif" font-size="14.00">(5) XOR</text>
</g>
<!-- node2&#45;&gt;node5 -->
<g id="edge2" class="edge"><title>node2&#45;&gt;node5</title>
<path fill="none" stroke="black" d="M64.7144,-171.724C84.3128,-157.785 114.154,-136.77 140.493,-119.084 143.622,-116.982 146.9,-114.814 150.184,-112.663"/>
<polygon fill="black" stroke="black" points="152.32,-115.449 158.799,-107.066 148.506,-109.579 152.32,-115.449"/>
<text text-anchor="middle" x="112.493" y="-148.884" font-family="Times New Roman,serif" font-size="14.00"> (1)</text>
</g>
<!-- node6 -->
<g id="node7" class="node"><title>node6</title>
<ellipse fill="none" stroke="black" cx="183.389" cy="-146.084" rx="42.4939" ry="18"/>
<text text-anchor="middle" x="183.389" y="-142.384" font-family="Times New Roman,serif" font-size="14.00">(6) AND</text>
</g>
<!-- node2&#45;&gt;node6 -->
<g id="edge4" class="edge"><title>node2&#45;&gt;node6</title>
<path fill="none" stroke="black" d="M78.4348,-177.61C92.2082,-173.825 108.122,-169.356 122.493,-165.084 128.053,-163.431 133.887,-161.645 139.642,-159.852"/>
<polygon fill="black" stroke="black" points="140.699,-163.189 149.189,-156.852 138.6,-156.511 140.699,-163.189"/>
<text text-anchor="middle" x="112.493" y="-173.884" font-family="Times New Roman,serif" font-size="14.00"> (1)</text>
</g>
<!-- node7 -->
<g id="node8" class="node"><title>node7</title>
<ellipse fill="none" stroke="black" cx="329.731" cy="-302.084" rx="36.2938" ry="18"/>
<text text-anchor="middle" x="329.731" y="-298.384" font-family="Times New Roman,serif" font-size="14.00">(7) OR</text>
</g>
<!-- node2&#45;&gt;node7 -->
<g id="edge6" class="edge"><title>node2&#45;&gt;node7</title>
<path fill="none" stroke="black" d="M82.9372,-191.949C137.885,-199.194 233.81,-213.832 264.285,-231.084 283.72,-242.086 300.484,-261.055 312.038,-276.62"/>
<polygon fill="black" stroke="black" points="309.249,-278.736 317.906,-284.844 314.947,-274.671 309.249,-278.736"/>
<text text-anchor="middle" x="183.389" y="-219.884" font-family="Times New Roman,serif" font-size="14.00"> (1)</text>
</g>
<!-- node3 -->
<g id="node4" class="node"><title>node3</title>
<ellipse fill="none" stroke="black" cx="42.2463" cy="-301.084" rx="42.4939" ry="18"/>
<text text-anchor="middle" x="42.2463" y="-297.384" font-family="Times New Roman,serif" font-size="14.00">(3) Input</text>
</g>
<!-- node16 -->
<g id="node17" class="node"><title>node16</title>
<ellipse fill="none" stroke="black" cx="930.697" cy="-405.084" rx="47.3916" ry="18"/>
<text text-anchor="middle" x="930.697" y="-401.384" font-family="Times New Roman,serif" font-size="14.00">(16) XOR</text>
</g>
<!-- node3&#45;&gt;node16 -->
<g id="edge22" class="edge"><title>node3&#45;&gt;node16</title>
<path fill="none" stroke="black" d="M71.0478,-314.423C153.181,-353.352 394.302,-464.084 479.622,-464.084 479.622,-464.084 479.622,-464.084 781.456,-464.084 823.822,-464.084 868.479,-443.024 897.567,-426.069"/>
<polygon fill="black" stroke="black" points="899.67,-428.888 906.442,-420.74 896.067,-422.887 899.67,-428.888"/>
<text text-anchor="middle" x="480.622" y="-467.884" font-family="Times New Roman,serif" font-size="14.00"> (0)</text>
</g>
<!-- node18 -->
<g id="node19" class="node"><title>node18</title>
<ellipse fill="none" stroke="black" cx="930.697" cy="-251.084" rx="46.5926" ry="18"/>
<text text-anchor="middle" x="930.697" y="-247.384" font-family="Times New Roman,serif" font-size="14.00">(18) AND</text>
</g>
<!-- node3&#45;&gt;node18 -->
<g id="edge27" class="edge"><title>node3&#45;&gt;node18</title>
<path fill="none" stroke="black" d="M81.9656,-294.7C167.204,-281.221 377.622,-251.084 555.068,-251.084 555.068,-251.084 555.068,-251.084 781.456,-251.084 811.807,-251.084 845.655,-251.084 873.336,-251.084"/>
<polygon fill="black" stroke="black" points="873.623,-254.584 883.623,-251.084 873.623,-247.584 873.623,-254.584"/>
<text text-anchor="middle" x="480.622" y="-257.884" font-family="Times New Roman,serif" font-size="14.00"> (1)</text>
</g>
<!-- node4 -->
<g id="node5" class="node"><title>node4</title>
<ellipse fill="none" stroke="black" cx="42.2463" cy="-91.0838" rx="42.4939" ry="18"/>
<text text-anchor="middle" x="42.2463" y="-87.3838" font-family="Times New Roman,serif" font-size="14.00">(4) Input</text>
</g>
<!-- node4&#45;&gt;node5 -->
<g id="edge1" class="edge"><title>node4&#45;&gt;node5</title>
<path fill="none" stroke="black" d="M74.3149,-79.1513C88.8652,-74.9217 106.483,-71.7301 122.493,-74.0838 128.342,-74.9437 134.413,-76.2523 140.347,-77.7796"/>
<polygon fill="black" stroke="black" points="139.567,-81.1956 150.14,-80.5161 141.451,-74.4539 139.567,-81.1956"/>
<text text-anchor="middle" x="112.493" y="-77.8838" font-family="Times New Roman,serif" font-size="14.00"> (0)</text>
</g>
<!-- node4&#45;&gt;node6 -->
<g id="edge3" class="edge"><title>node4&#45;&gt;node6</title>
<path fill="none" stroke="black" d="M80.5841,-98.8803C94.0417,-102.234 109.184,-106.649 122.493,-112.084 131.941,-115.942 141.747,-121.007 150.622,-126.045"/>
<polygon fill="black" stroke="black" points="149.082,-129.199 159.48,-131.234 152.62,-123.159 149.082,-129.199"/>
<text text-anchor="middle" x="112.493" y="-115.884" font-family="Times New Roman,serif" font-size="14.00"> (0)</text>
</g>
<!-- node5&#45;&gt;node7 -->
<g id="edge5" class="edge"><title>node5&#45;&gt;node7</title>
<path fill="none" stroke="black" d="M211.166,-105.856C216.682,-109.591 222.082,-114.026 226.285,-119.084 239.788,-135.334 233.576,-144.87 244.285,-163.084 251.497,-175.35 256.314,-176.297 264.285,-188.084 283.763,-216.885 302.968,-251.958 315.275,-275.532"/>
<polygon fill="black" stroke="black" points="312.249,-277.3 319.951,-284.574 318.466,-274.084 312.249,-277.3"/>
<text text-anchor="middle" x="254.285" y="-191.884" font-family="Times New Roman,serif" font-size="14.00"> (0)</text>
</g>
<!-- node5&#45;&gt;node10 -->
<g id="edge11" class="edge"><title>node5&#45;&gt;node10</title>
<path fill="none" stroke="black" d="M215.354,-80.0704C236.084,-72.0278 263.634,-61.339 286.386,-52.512"/>
<polygon fill="black" stroke="black" points="287.752,-55.7363 295.809,-48.8562 285.22,-49.2102 287.752,-55.7363"/>
<text text-anchor="middle" x="254.285" y="-71.8838" font-family="Times New Roman,serif" font-size="14.00"> (0)</text>
</g>
<!-- node6&#45;&gt;node8 -->
<g id="edge7" class="edge"><title>node6&#45;&gt;node8</title>
<path fill="none" stroke="black" d="M225.751,-146.084C243.662,-146.084 264.689,-146.084 283.058,-146.084"/>
<polygon fill="black" stroke="black" points="283.236,-149.584 293.236,-146.084 283.236,-142.584 283.236,-149.584"/>
<text text-anchor="middle" x="254.285" y="-149.884" font-family="Times New Roman,serif" font-size="14.00"> (0)</text>
</g>
<!-- node7&#45;&gt;node9 -->
<g id="edge9" class="edge"><title>node7&#45;&gt;node9</title>
<path fill="none" stroke="black" d="M361.619,-310.784C372.173,-313.351 384.106,-315.812 395.176,-317.084 409.818,-318.765 425.761,-316.904 439.81,-313.989"/>
<polygon fill="black" stroke="black" points="440.704,-317.375 449.66,-311.715 439.129,-310.554 440.704,-317.375"/>
<text text-anchor="middle" x="405.176" y="-320.884" font-family="Times New Roman,serif" font-size="14.00"> (0)</text>
</g>
<!-- node13 -->
<g id="node14" class="node"><title>node13</title>
<ellipse fill="none" stroke="black" cx="480.622" cy="-410.084" rx="46.2923" ry="18"/>
<text text-anchor="middle" x="480.622" y="-406.384" font-family="Times New Roman,serif" font-size="14.00">(13) NEG</text>
</g>
<!-- node7&#45;&gt;node13 -->
<g id="edge17" class="edge"><title>node7&#45;&gt;node13</title>
<path fill="none" stroke="black" d="M348.64,-317.531C368.634,-334.465 402.253,-362.028 433.176,-383.084 436.732,-385.505 440.515,-387.93 444.327,-390.28"/>
<polygon fill="black" stroke="black" points="442.804,-393.448 453.181,-395.585 446.402,-387.443 442.804,-393.448"/>
<text text-anchor="middle" x="405.176" y="-373.884" font-family="Times New Roman,serif" font-size="14.00"> (0)</text>
</g>
<!-- node17 -->
<g id="node18" class="node"><title>node17</title>
<ellipse fill="none" stroke="black" cx="630.864" cy="-200.084" rx="46.5926" ry="18"/>
<text text-anchor="middle" x="630.864" y="-196.384" font-family="Times New Roman,serif" font-size="14.00">(17) AND</text>
</g>
<!-- node7&#45;&gt;node17 -->
<g id="edge25" class="edge"><title>node7&#45;&gt;node17</title>
<path fill="none" stroke="black" d="M349.94,-287.006C367.341,-273.151 393.496,-251.831 415.176,-232.084 423.541,-224.465 422.884,-218.782 433.176,-214.084 478.107,-193.574 534.864,-191.735 575.848,-194.036"/>
<polygon fill="black" stroke="black" points="575.701,-197.534 585.91,-194.702 576.163,-190.55 575.701,-197.534"/>
<text text-anchor="middle" x="480.622" y="-217.884" font-family="Times New Roman,serif" font-size="14.00"> (1)</text>
</g>
<!-- node8&#45;&gt;node11 -->
<g id="edge13" class="edge"><title>node8&#45;&gt;node11</title>
<path fill="none" stroke="black" d="M340.372,-163.446C365.563,-208.791 431.525,-327.405 433.176,-329.084 435.672,-331.621 438.456,-334.001 441.386,-336.215"/>
<polygon fill="black" stroke="black" points="439.676,-339.285 449.915,-342.008 443.609,-333.494 439.676,-339.285"/>
<text text-anchor="middle" x="405.176" y="-300.884" font-family="Times New Roman,serif" font-size="14.00"> (0)</text>
</g>
<!-- node8&#45;&gt;node12 -->
<g id="edge15" class="edge"><title>node8&#45;&gt;node12</title>
<path fill="none" stroke="black" d="M366.394,-146.084C383.531,-146.084 404.473,-146.084 423.665,-146.084"/>
<polygon fill="black" stroke="black" points="423.81,-149.584 433.81,-146.084 423.81,-142.584 423.81,-149.584"/>
<text text-anchor="middle" x="405.176" y="-149.884" font-family="Times New Roman,serif" font-size="14.00"> (0)</text>
</g>
<!-- node15 -->
<g id="node16" class="node"><title>node15</title>
<ellipse fill="none" stroke="black" cx="780.456" cy="-324.084" rx="46.5926" ry="18"/>
<text text-anchor="middle" x="780.456" y="-320.384" font-family="Times New Roman,serif" font-size="14.00">(15) AND</text>
</g>
<!-- node9&#45;&gt;node15 -->
<g id="edge21" class="edge"><title>node9&#45;&gt;node15</title>
<path fill="none" stroke="black" d="M517.064,-303.86C556.35,-305.921 621.576,-309.614 677.66,-314.084 692.977,-315.305 709.57,-316.843 724.826,-318.344"/>
<polygon fill="black" stroke="black" points="724.844,-321.863 735.143,-319.373 725.539,-314.898 724.844,-321.863"/>
<text text-anchor="middle" x="630.864" y="-317.884" font-family="Times New Roman,serif" font-size="14.00"> (1)</text>
</g>
<!-- node20 -->
<g id="node21" class="node"><title>node20</title>
<ellipse fill="none" stroke="black" cx="1208.93" cy="-36.0838" rx="42.7926" ry="18"/>
<text text-anchor="middle" x="1208.93" y="-32.3838" font-family="Times New Roman,serif" font-size="14.00">Output 0</text>
</g>
<!-- node10&#45;&gt;node20 -->
<g id="edge30" class="edge"><title>node10&#45;&gt;node20</title>
<path fill="none" stroke="black" d="M377.339,-36.0838C406.69,-36.0838 445.372,-36.0838 479.622,-36.0838 479.622,-36.0838 479.622,-36.0838 1082.59,-36.0838 1106.65,-36.0838 1133.31,-36.0838 1155.83,-36.0838"/>
<polygon fill="black" stroke="black" points="1155.86,-39.5839 1165.86,-36.0838 1155.86,-32.5839 1155.86,-39.5839"/>
</g>
<!-- node14 -->
<g id="node15" class="node"><title>node14</title>
<ellipse fill="none" stroke="black" cx="630.864" cy="-356.084" rx="40.8928" ry="18"/>
<text text-anchor="middle" x="630.864" y="-352.384" font-family="Times New Roman,serif" font-size="14.00">(14) OR</text>
</g>
<!-- node11&#45;&gt;node14 -->
<g id="edge19" class="edge"><title>node11&#45;&gt;node14</title>
<path fill="none" stroke="black" d="M528.12,-356.084C544.434,-356.084 562.83,-356.084 579.45,-356.084"/>
<polygon fill="black" stroke="black" points="579.534,-359.584 589.534,-356.084 579.534,-352.584 579.534,-359.584"/>
<text text-anchor="middle" x="556.068" y="-359.884" font-family="Times New Roman,serif" font-size="14.00"> (1)</text>
</g>
<!-- node12&#45;&gt;node17 -->
<g id="edge24" class="edge"><title>node12&#45;&gt;node17</title>
<path fill="none" stroke="black" d="M519.825,-156.177C534.441,-160.355 551.171,-165.523 566.068,-171.084 574.598,-174.268 583.593,-178.068 592.051,-181.853"/>
<polygon fill="black" stroke="black" points="590.77,-185.115 601.32,-186.085 593.678,-178.748 590.77,-185.115"/>
<text text-anchor="middle" x="556.068" y="-174.884" font-family="Times New Roman,serif" font-size="14.00"> (0)</text>
</g>
<!-- node13&#45;&gt;node14 -->
<g id="edge18" class="edge"><title>node13&#45;&gt;node14</title>
<path fill="none" stroke="black" d="M514.891,-397.965C536.851,-389.966 565.768,-379.432 589.108,-370.93"/>
<polygon fill="black" stroke="black" points="590.534,-374.135 598.733,-367.424 588.139,-367.558 590.534,-374.135"/>
<text text-anchor="middle" x="556.068" y="-389.884" font-family="Times New Roman,serif" font-size="14.00"> (0)</text>
</g>
<!-- node14&#45;&gt;node15 -->
<g id="edge20" class="edge"><title>node14&#45;&gt;node15</title>
<path fill="none" stroke="black" d="M667.969,-348.256C686.439,-344.251 709.216,-339.313 729.358,-334.946"/>
<polygon fill="black" stroke="black" points="730.276,-338.328 739.308,-332.788 728.793,-331.487 730.276,-338.328"/>
<text text-anchor="middle" x="705.66" y="-344.884" font-family="Times New Roman,serif" font-size="14.00"> (0)</text>
</g>
<!-- node15&#45;&gt;node16 -->
<g id="edge23" class="edge"><title>node15&#45;&gt;node16</title>
<path fill="none" stroke="black" d="M808.301,-338.752C832.185,-351.802 867.308,-370.994 893.637,-385.38"/>
<polygon fill="black" stroke="black" points="892.097,-388.527 902.551,-390.251 895.453,-382.384 892.097,-388.527"/>
<text text-anchor="middle" x="855.251" y="-372.884" font-family="Times New Roman,serif" font-size="14.00"> (1)</text>
</g>
<!-- node15&#45;&gt;node18 -->
<g id="edge26" class="edge"><title>node15&#45;&gt;node18</title>
<path fill="none" stroke="black" d="M810.038,-310.009C833.417,-298.496 866.665,-282.123 892.183,-269.557"/>
<polygon fill="black" stroke="black" points="893.777,-272.673 901.203,-265.116 890.685,-266.394 893.777,-272.673"/>
<text text-anchor="middle" x="855.251" y="-294.884" font-family="Times New Roman,serif" font-size="14.00"> (0)</text>
</g>
<!-- node21 -->
<g id="node22" class="node"><title>node21</title>
<ellipse fill="none" stroke="black" cx="1208.93" cy="-405.084" rx="42.7926" ry="18"/>
<text text-anchor="middle" x="1208.93" y="-401.384" font-family="Times New Roman,serif" font-size="14.00">Output 1</text>
</g>
<!-- node16&#45;&gt;node21 -->
<g id="edge31" class="edge"><title>node16&#45;&gt;node21</title>
<path fill="none" stroke="black" d="M978.244,-405.084C1027.3,-405.084 1104.39,-405.084 1155.54,-405.084"/>
<polygon fill="black" stroke="black" points="1155.73,-408.584 1165.73,-405.084 1155.73,-401.584 1155.73,-408.584"/>
</g>
<!-- node19 -->
<g id="node20" class="node"><title>node19</title>
<ellipse fill="none" stroke="black" cx="1081.59" cy="-223.084" rx="47.3916" ry="18"/>
<text text-anchor="middle" x="1081.59" y="-219.384" font-family="Times New Roman,serif" font-size="14.00">(19) XOR</text>
</g>
<!-- node17&#45;&gt;node19 -->
<g id="edge28" class="edge"><title>node17&#45;&gt;node19</title>
<path fill="none" stroke="black" d="M677.359,-202.416C759.958,-206.649 934.337,-215.587 1024.29,-220.198"/>
<polygon fill="black" stroke="black" points="1024.14,-223.695 1034.3,-220.711 1024.49,-216.704 1024.14,-223.695"/>
<text text-anchor="middle" x="855.251" y="-214.884" font-family="Times New Roman,serif" font-size="14.00"> (0)</text>
</g>
<!-- node18&#45;&gt;node19 -->
<g id="edge29" class="edge"><title>node18&#45;&gt;node19</title>
<path fill="none" stroke="black" d="M973.172,-243.284C990.451,-240.035 1010.7,-236.227 1028.93,-232.798"/>
<polygon fill="black" stroke="black" points="1029.64,-236.227 1038.82,-230.939 1028.35,-229.347 1029.64,-236.227"/>
<text text-anchor="middle" x="1006.14" y="-241.884" font-family="Times New Roman,serif" font-size="14.00"> (1)</text>
</g>
<!-- node22 -->
<g id="node23" class="node"><title>node22</title>
<ellipse fill="none" stroke="black" cx="1208.93" cy="-223.084" rx="42.7926" ry="18"/>
<text text-anchor="middle" x="1208.93" y="-219.384" font-family="Times New Roman,serif" font-size="14.00">Output 2</text>
</g>
<!-- node19&#45;&gt;node22 -->
<g id="edge32" class="edge"><title>node19&#45;&gt;node22</title>
<path fill="none" stroke="black" d="M1129.26,-223.084C1137.87,-223.084 1146.9,-223.084 1155.66,-223.084"/>
<polygon fill="black" stroke="black" points="1155.77,-226.584 1165.77,-223.084 1155.77,-219.584 1155.77,-226.584"/>
</g>
</g>
</svg>
