<?xml version="1.0" encoding="UTF-8" standalone="no"?>
<!DOCTYPE svg PUBLIC "-//W3C//DTD SVG 1.1//EN"
 "http://www.w3.org/Graphics/SVG/1.1/DTD/svg11.dtd">
<!-- Generated by graphviz version 2.38.0 (20140413.2041)
 -->
<!-- Title: NeuralNetwork Pages: 1 -->
<svg width="288pt" height="132pt"
 viewBox="0.00 0.00 288.00 132.49" xmlns="http://www.w3.org/2000/svg" xmlns:xlink="http://www.w3.org/1999/xlink">
<g id="graph0" class="graph" transform="scale(0.183509 0.183509) rotate(0) translate(4 718)">
<title>NeuralNetwork</title>
<polygon fill="white" stroke="none" points="-4,4 -4,-718 1565.41,-718 1565.41,4 -4,4"/>
<!-- node0 -->
<g id="node1" class="node"><title>node0</title>
<ellipse fill="none" stroke="black" cx="42.2463" cy="-519" rx="42.4939" ry="18"/>
<text text-anchor="middle" x="42.2463" y="-515.3" font-family="Times New Roman,serif" font-size="14.00">(0) Input</text>
</g>
<!-- node7 -->
<g id="node8" class="node"><title>node7</title>
<ellipse fill="none" stroke="black" cx="187.288" cy="-282" rx="42.4939" ry="18"/>
<text text-anchor="middle" x="187.288" y="-278.3" font-family="Times New Roman,serif" font-size="14.00">(7) AND</text>
</g>
<!-- node0&#45;&gt;node7 -->
<g id="edge4" class="edge"><title>node0&#45;&gt;node7</title>
<path fill="none" stroke="black" d="M64.2208,-503.135C71.8309,-496.257 79.7223,-487.581 84.4925,-478 110.882,-424.997 73.5353,-397.646 102.493,-346 113.242,-326.828 132.342,-311.562 149.594,-300.754"/>
<polygon fill="black" stroke="black" points="151.594,-303.637 158.393,-295.512 148.011,-297.623 151.594,-303.637"/>
<text text-anchor="middle" x="112.493" y="-349.8" font-family="Times New Roman,serif" font-size="14.00"> (1)</text>
</g>
<!-- node10 -->
<g id="node11" class="node"><title>node10</title>
<ellipse fill="none" stroke="black" cx="187.288" cy="-511" rx="46.5926" ry="18"/>
<text text-anchor="middle" x="187.288" y="-507.3" font-family="Times New Roman,serif" font-size="14.00">(10) AND</text>
</g>
<!-- node0&#45;&gt;node10 -->
<g id="edge9" class="edge"><title>node0&#45;&gt;node10</title>
<path fill="none" stroke="black" d="M84.2364,-516.708C98.7288,-515.897 115.28,-514.971 130.775,-514.105"/>
<polygon fill="black" stroke="black" points="130.984,-517.599 140.772,-513.546 130.593,-510.61 130.984,-517.599"/>
<text text-anchor="middle" x="112.493" y="-518.8" font-family="Times New Roman,serif" font-size="14.00"> (0)</text>
</g>
<!-- node15 -->
<g id="node16" class="node"><title>node15</title>
<ellipse fill="none" stroke="black" cx="187.288" cy="-696" rx="46.5926" ry="18"/>
<text text-anchor="middle" x="187.288" y="-692.3" font-family="Times New Roman,serif" font-size="14.00">(15) AND</text>
</g>
<!-- node0&#45;&gt;node15 -->
<g id="edge19" class="edge"><title>node0&#45;&gt;node15</title>
<path fill="none" stroke="black" d="M63.2493,-534.759C80.2029,-548.707 104.55,-570.185 122.493,-592 142.418,-616.226 160.639,-647.224 172.459,-669.054"/>
<polygon fill="black" stroke="black" points="169.482,-670.909 177.271,-678.091 175.66,-667.619 169.482,-670.909"/>
<text text-anchor="middle" x="112.493" y="-595.8" font-family="Times New Roman,serif" font-size="14.00"> (0)</text>
</g>
<!-- node1 -->
<g id="node2" class="node"><title>node1</title>
<ellipse fill="none" stroke="black" cx="42.2463" cy="-397" rx="42.4939" ry="18"/>
<text text-anchor="middle" x="42.2463" y="-393.3" font-family="Times New Roman,serif" font-size="14.00">(1) Input</text>
</g>
<!-- node8 -->
<g id="node9" class="node"><title>node8</title>
<ellipse fill="none" stroke="black" cx="187.288" cy="-228" rx="42.4939" ry="18"/>
<text text-anchor="middle" x="187.288" y="-224.3" font-family="Times New Roman,serif" font-size="14.00">(8) AND</text>
</g>
<!-- node1&#45;&gt;node8 -->
<g id="edge5" class="edge"><title>node1&#45;&gt;node8</title>
<path fill="none" stroke="black" d="M42.6855,-378.876C42.6099,-340.505 48.5533,-251.364 102.493,-212 116.462,-201.805 135.121,-204.239 151.286,-209.902"/>
<polygon fill="black" stroke="black" points="150.378,-213.309 160.964,-213.762 152.971,-206.807 150.378,-213.309"/>
<text text-anchor="middle" x="112.493" y="-215.8" font-family="Times New Roman,serif" font-size="14.00"> (0)</text>
</g>
<!-- node11 -->
<g id="node12" class="node"><title>node11</title>
<ellipse fill="none" stroke="black" cx="187.288" cy="-405" rx="46.5926" ry="18"/>
<text text-anchor="middle" x="187.288" y="-401.3" font-family="Times New Roman,serif" font-size="14.00">(11) AND</text>
</g>
<!-- node1&#45;&gt;node11 -->
<g id="edge12" class="edge"><title>node1&#45;&gt;node11</title>
<path fill="none" stroke="black" d="M84.2364,-399.292C98.7288,-400.103 115.28,-401.029 130.775,-401.895"/>
<polygon fill="black" stroke="black" points="130.593,-405.39 140.772,-402.454 130.984,-398.401 130.593,-405.39"/>
<text text-anchor="middle" x="112.493" y="-404.8" font-family="Times New Roman,serif" font-size="14.00"> (1)</text>
</g>
<!-- node25 -->
<g id="node26" class="node"><title>node25</title>
<ellipse fill="none" stroke="black" cx="187.288" cy="-566" rx="46.5926" ry="18"/>
<text text-anchor="middle" x="187.288" y="-562.3" font-family="Times New Roman,serif" font-size="14.00">(25) AND</text>
</g>
<!-- node1&#45;&gt;node25 -->
<g id="edge38" class="edge"><title>node1&#45;&gt;node25</title>
<path fill="none" stroke="black" d="M70.9095,-410.486C76.1359,-414.195 81.0392,-418.691 84.4925,-424 111.504,-465.527 71.1849,-495.608 102.493,-534 110.646,-543.999 122.299,-550.878 134.333,-555.608"/>
<polygon fill="black" stroke="black" points="133.41,-558.993 144.005,-558.96 135.702,-552.379 133.41,-558.993"/>
<text text-anchor="middle" x="112.493" y="-553.8" font-family="Times New Roman,serif" font-size="14.00"> (0)</text>
</g>
<!-- node2 -->
<g id="node3" class="node"><title>node2</title>
<ellipse fill="none" stroke="black" cx="42.2463" cy="-182" rx="42.4939" ry="18"/>
<text text-anchor="middle" x="42.2463" y="-178.3" font-family="Times New Roman,serif" font-size="14.00">(2) Input</text>
</g>
<!-- node6 -->
<g id="node7" class="node"><title>node6</title>
<ellipse fill="none" stroke="black" cx="187.288" cy="-342" rx="42.4939" ry="18"/>
<text text-anchor="middle" x="187.288" y="-338.3" font-family="Times New Roman,serif" font-size="14.00">(6) AND</text>
</g>
<!-- node2&#45;&gt;node6 -->
<g id="edge2" class="edge"><title>node2&#45;&gt;node6</title>
<path fill="none" stroke="black" d="M53.3816,-199.368C69.33,-225.593 102.419,-275.76 140.493,-309 145.127,-313.046 150.243,-317.093 155.325,-320.896"/>
<polygon fill="black" stroke="black" points="153.608,-323.975 163.755,-327.023 157.724,-318.313 153.608,-323.975"/>
<text text-anchor="middle" x="112.493" y="-293.8" font-family="Times New Roman,serif" font-size="14.00"> (1)</text>
</g>
<!-- node12 -->
<g id="node13" class="node"><title>node12</title>
<ellipse fill="none" stroke="black" cx="488.422" cy="-332" rx="46.5926" ry="18"/>
<text text-anchor="middle" x="488.422" y="-328.3" font-family="Times New Roman,serif" font-size="14.00">(12) AND</text>
</g>
<!-- node2&#45;&gt;node12 -->
<g id="edge13" class="edge"><title>node2&#45;&gt;node12</title>
<path fill="none" stroke="black" d="M84.11,-178.838C151.988,-175.588 289.907,-177.656 384.976,-237 418.188,-257.732 411.138,-279.652 440.976,-305 444.008,-307.576 447.319,-310.043 450.732,-312.366"/>
<polygon fill="black" stroke="black" points="449.007,-315.417 459.325,-317.824 452.76,-309.508 449.007,-315.417"/>
<text text-anchor="middle" x="262.084" y="-196.8" font-family="Times New Roman,serif" font-size="14.00"> (0)</text>
</g>
<!-- node13 -->
<g id="node14" class="node"><title>node13</title>
<ellipse fill="none" stroke="black" cx="187.288" cy="-136" rx="46.5926" ry="18"/>
<text text-anchor="middle" x="187.288" y="-132.3" font-family="Times New Roman,serif" font-size="14.00">(13) AND</text>
</g>
<!-- node2&#45;&gt;node13 -->
<g id="edge15" class="edge"><title>node2&#45;&gt;node13</title>
<path fill="none" stroke="black" d="M68.5938,-167.823C78.8663,-162.55 90.9994,-156.907 102.493,-153 112.398,-149.633 123.2,-146.831 133.654,-144.539"/>
<polygon fill="black" stroke="black" points="134.448,-147.949 143.531,-142.496 133.029,-141.094 134.448,-147.949"/>
<text text-anchor="middle" x="112.493" y="-156.8" font-family="Times New Roman,serif" font-size="14.00"> (0)</text>
</g>
<!-- node3 -->
<g id="node4" class="node"><title>node3</title>
<ellipse fill="none" stroke="black" cx="42.2463" cy="-451" rx="42.4939" ry="18"/>
<text text-anchor="middle" x="42.2463" y="-447.3" font-family="Times New Roman,serif" font-size="14.00">(3) Input</text>
</g>
<!-- node3&#45;&gt;node6 -->
<g id="edge1" class="edge"><title>node3&#45;&gt;node6</title>
<path fill="none" stroke="black" d="M69.5761,-437.143C75.008,-433.412 80.333,-429.001 84.4925,-424 97.7411,-408.072 88.1323,-395.934 102.493,-381 113.246,-369.817 127.83,-361.518 141.817,-355.52"/>
<polygon fill="black" stroke="black" points="143.352,-358.676 151.35,-351.727 140.765,-352.171 143.352,-358.676"/>
<text text-anchor="middle" x="112.493" y="-384.8" font-family="Times New Roman,serif" font-size="14.00"> (0)</text>
</g>
<!-- node3&#45;&gt;node10 -->
<g id="edge10" class="edge"><title>node3&#45;&gt;node10</title>
<path fill="none" stroke="black" d="M72.8847,-463.432C93.958,-472.271 122.521,-484.252 145.709,-493.979"/>
<polygon fill="black" stroke="black" points="144.378,-497.216 154.954,-497.857 147.086,-490.761 144.378,-497.216"/>
<text text-anchor="middle" x="112.493" y="-487.8" font-family="Times New Roman,serif" font-size="14.00"> (1)</text>
</g>
<!-- node3&#45;&gt;node11 -->
<g id="edge11" class="edge"><title>node3&#45;&gt;node11</title>
<path fill="none" stroke="black" d="M76.4225,-440.331C95.6594,-434.145 120.151,-426.269 141.126,-419.524"/>
<polygon fill="black" stroke="black" points="142.343,-422.809 150.792,-416.415 140.2,-416.145 142.343,-422.809"/>
<text text-anchor="middle" x="112.493" y="-433.8" font-family="Times New Roman,serif" font-size="14.00"> (0)</text>
</g>
<!-- node4 -->
<g id="node5" class="node"><title>node4</title>
<ellipse fill="none" stroke="black" cx="42.2463" cy="-114" rx="42.4939" ry="18"/>
<text text-anchor="middle" x="42.2463" y="-110.3" font-family="Times New Roman,serif" font-size="14.00">(4) Input</text>
</g>
<!-- node4&#45;&gt;node7 -->
<g id="edge3" class="edge"><title>node4&#45;&gt;node7</title>
<path fill="none" stroke="black" d="M63.3215,-129.726C70.9913,-136.702 79.1647,-145.486 84.4925,-155 101.453,-185.287 82.323,-202.749 102.493,-231 113.246,-246.063 129.97,-257.527 145.658,-265.734"/>
<polygon fill="black" stroke="black" points="144.203,-268.919 154.721,-270.193 147.293,-262.638 144.203,-268.919"/>
<text text-anchor="middle" x="112.493" y="-254.8" font-family="Times New Roman,serif" font-size="14.00"> (0)</text>
</g>
<!-- node4&#45;&gt;node8 -->
<g id="edge6" class="edge"><title>node4&#45;&gt;node8</title>
<path fill="none" stroke="black" d="M84.741,-114.904C97.8259,-116.917 111.674,-121.021 122.493,-129 136.253,-139.149 131.551,-148.426 140.493,-163 148.742,-176.445 158.751,-190.837 167.305,-202.653"/>
<polygon fill="black" stroke="black" points="164.501,-204.747 173.231,-210.75 170.15,-200.613 164.501,-204.747"/>
<text text-anchor="middle" x="112.493" y="-133.8" font-family="Times New Roman,serif" font-size="14.00"> (1)</text>
</g>
<!-- node4&#45;&gt;node13 -->
<g id="edge16" class="edge"><title>node4&#45;&gt;node13</title>
<path fill="none" stroke="black" d="M59.9788,-97.5204C75.8338,-83.9929 100.436,-68.3643 122.493,-77 140.059,-83.8777 155.686,-98.1136 167.076,-110.878"/>
<polygon fill="black" stroke="black" points="164.459,-113.203 173.601,-118.557 169.793,-108.67 164.459,-113.203"/>
<text text-anchor="middle" x="112.493" y="-80.8" font-family="Times New Roman,serif" font-size="14.00"> (1)</text>
</g>
<!-- node5 -->
<g id="node6" class="node"><title>node5</title>
<ellipse fill="none" stroke="black" cx="42.2463" cy="-663" rx="42.4939" ry="18"/>
<text text-anchor="middle" x="42.2463" y="-659.3" font-family="Times New Roman,serif" font-size="14.00">(5) Input</text>
</g>
<!-- node5&#45;&gt;node12 -->
<g id="edge14" class="edge"><title>node5&#45;&gt;node12</title>
<path fill="none" stroke="black" d="M84.1745,-660.496C165.922,-654.595 345,-636.866 384.976,-593 409.671,-565.901 388.267,-462.583 402.976,-429 415.73,-399.88 440.419,-373.146 459.822,-355.152"/>
<polygon fill="black" stroke="black" points="462.415,-357.526 467.496,-348.229 457.726,-352.329 462.415,-357.526"/>
<text text-anchor="middle" x="262.084" y="-643.8" font-family="Times New Roman,serif" font-size="14.00"> (1)</text>
</g>
<!-- node5&#45;&gt;node15 -->
<g id="edge20" class="edge"><title>node5&#45;&gt;node15</title>
<path fill="none" stroke="black" d="M79.7119,-671.413C97.1124,-675.427 118.191,-680.29 136.993,-684.628"/>
<polygon fill="black" stroke="black" points="136.345,-688.07 146.876,-686.908 137.919,-681.249 136.345,-688.07"/>
<text text-anchor="middle" x="112.493" y="-684.8" font-family="Times New Roman,serif" font-size="14.00"> (1)</text>
</g>
<!-- node5&#45;&gt;node25 -->
<g id="edge39" class="edge"><title>node5&#45;&gt;node25</title>
<path fill="none" stroke="black" d="M66.2691,-648.184C82.1572,-637.888 103.718,-623.776 122.493,-611 133.435,-603.553 145.313,-595.24 155.82,-587.804"/>
<polygon fill="black" stroke="black" points="158.145,-590.446 164.272,-581.803 154.092,-584.738 158.145,-590.446"/>
<text text-anchor="middle" x="112.493" y="-627.8" font-family="Times New Roman,serif" font-size="14.00"> (1)</text>
</g>
<!-- node9 -->
<g id="node10" class="node"><title>node9</title>
<ellipse fill="none" stroke="black" cx="337.53" cy="-318" rx="42.7926" ry="18"/>
<text text-anchor="middle" x="337.53" y="-314.3" font-family="Times New Roman,serif" font-size="14.00">(9) XOR</text>
</g>
<!-- node6&#45;&gt;node9 -->
<g id="edge8" class="edge"><title>node6&#45;&gt;node9</title>
<path fill="none" stroke="black" d="M227.237,-335.694C245.646,-332.714 267.823,-329.124 287.375,-325.958"/>
<polygon fill="black" stroke="black" points="288.015,-329.4 297.327,-324.347 286.896,-322.49 288.015,-329.4"/>
<text text-anchor="middle" x="262.084" y="-334.8" font-family="Times New Roman,serif" font-size="14.00"> (1)</text>
</g>
<!-- node17 -->
<g id="node18" class="node"><title>node17</title>
<ellipse fill="none" stroke="black" cx="337.53" cy="-264" rx="47.3916" ry="18"/>
<text text-anchor="middle" x="337.53" y="-260.3" font-family="Times New Roman,serif" font-size="14.00">(17) XOR</text>
</g>
<!-- node7&#45;&gt;node17 -->
<g id="edge23" class="edge"><title>node7&#45;&gt;node17</title>
<path fill="none" stroke="black" d="M223.491,-272.426C232.728,-270.272 242.724,-268.254 252.084,-267 261.054,-265.798 270.604,-265.001 279.934,-264.484"/>
<polygon fill="black" stroke="black" points="280.104,-267.98 289.934,-264.026 279.784,-260.987 280.104,-267.98"/>
<text text-anchor="middle" x="262.084" y="-270.8" font-family="Times New Roman,serif" font-size="14.00"> (0)</text>
</g>
<!-- node8&#45;&gt;node9 -->
<g id="edge7" class="edge"><title>node8&#45;&gt;node9</title>
<path fill="none" stroke="black" d="M229.754,-229.011C244.519,-231.271 260.371,-236.116 272.084,-246 288.546,-259.892 276.005,-274.698 290.084,-291 292.685,-294.011 295.708,-296.768 298.941,-299.273"/>
<polygon fill="black" stroke="black" points="297.058,-302.225 307.289,-304.978 301.008,-296.446 297.058,-302.225"/>
<text text-anchor="middle" x="262.084" y="-249.8" font-family="Times New Roman,serif" font-size="14.00"> (0)</text>
</g>
<!-- node14 -->
<g id="node15" class="node"><title>node14</title>
<ellipse fill="none" stroke="black" cx="337.53" cy="-432" rx="46.5926" ry="18"/>
<text text-anchor="middle" x="337.53" y="-428.3" font-family="Times New Roman,serif" font-size="14.00">(14) AND</text>
</g>
<!-- node8&#45;&gt;node14 -->
<g id="edge17" class="edge"><title>node8&#45;&gt;node14</title>
<path fill="none" stroke="black" d="M217.916,-240.466C224.076,-244.303 229.944,-249.11 234.084,-255 258.796,-290.157 232.724,-311.635 252.084,-350 264.354,-374.315 286.737,-395.538 305.376,-410.298"/>
<polygon fill="black" stroke="black" points="303.294,-413.111 313.361,-416.415 307.551,-407.555 303.294,-413.111"/>
<text text-anchor="middle" x="262.084" y="-381.8" font-family="Times New Roman,serif" font-size="14.00"> (0)</text>
</g>
<!-- node24 -->
<g id="node25" class="node"><title>node24</title>
<ellipse fill="none" stroke="black" cx="639.313" cy="-119" rx="47.3916" ry="18"/>
<text text-anchor="middle" x="639.313" y="-115.3" font-family="Times New Roman,serif" font-size="14.00">(24) XOR</text>
</g>
<!-- node8&#45;&gt;node24 -->
<g id="edge36" class="edge"><title>node8&#45;&gt;node24</title>
<path fill="none" stroke="black" d="M202.413,-211.062C214.393,-197.674 232.684,-179.402 252.084,-168 356.648,-106.542 504.39,-107.167 583.404,-113.037"/>
<polygon fill="black" stroke="black" points="583.373,-116.545 593.62,-113.854 583.931,-109.568 583.373,-116.545"/>
<text text-anchor="middle" x="412.976" y="-122.8" font-family="Times New Roman,serif" font-size="14.00"> (0)</text>
</g>
<!-- node29 -->
<g id="node30" class="node"><title>node29</title>
<ellipse fill="none" stroke="black" cx="941.096" cy="-136" rx="40.8928" ry="18"/>
<text text-anchor="middle" x="941.096" y="-132.3" font-family="Times New Roman,serif" font-size="14.00">(29) OR</text>
</g>
<!-- node8&#45;&gt;node29 -->
<g id="edge46" class="edge"><title>node8&#45;&gt;node29</title>
<path fill="none" stroke="black" d="M201.321,-211.013C223.392,-182.779 267.886,-128.269 290.084,-118 500.016,-20.8862 790.284,-90.7535 897.819,-122.522"/>
<polygon fill="black" stroke="black" points="897.062,-125.949 907.646,-125.47 899.073,-119.244 897.062,-125.949"/>
<text text-anchor="middle" x="563.867" y="-72.8" font-family="Times New Roman,serif" font-size="14.00"> (0)</text>
</g>
<!-- node16 -->
<g id="node17" class="node"><title>node16</title>
<ellipse fill="none" stroke="black" cx="488.422" cy="-529" rx="47.3916" ry="18"/>
<text text-anchor="middle" x="488.422" y="-525.3" font-family="Times New Roman,serif" font-size="14.00">(16) XOR</text>
</g>
<!-- node9&#45;&gt;node16 -->
<g id="edge21" class="edge"><title>node9&#45;&gt;node16</title>
<path fill="none" stroke="black" d="M363.969,-332.241C371.357,-337.198 379.028,-343.233 384.976,-350 389.47,-355.114 437.533,-453.127 440.976,-459 449.725,-473.926 460.339,-490.049 469.21,-503.056"/>
<polygon fill="black" stroke="black" points="466.476,-505.257 475.029,-511.509 472.242,-501.288 466.476,-505.257"/>
<text text-anchor="middle" x="412.976" y="-425.8" font-family="Times New Roman,serif" font-size="14.00"> (0)</text>
</g>
<!-- node32 -->
<g id="node33" class="node"><title>node32</title>
<ellipse fill="none" stroke="black" cx="941.096" cy="-324" rx="47.3916" ry="18"/>
<text text-anchor="middle" x="941.096" y="-320.3" font-family="Times New Roman,serif" font-size="14.00">(32) XOR</text>
</g>
<!-- node9&#45;&gt;node32 -->
<g id="edge52" class="edge"><title>node9&#45;&gt;node32</title>
<path fill="none" stroke="black" d="M364.342,-303.569C371.131,-299.618 378.394,-295.25 384.976,-291 410.67,-274.407 412.347,-261.765 440.976,-251 559.175,-206.554 598.603,-231.431 724.759,-237 792.983,-240.012 827.331,-217.742 875.651,-266 886.923,-277.258 882.388,-285.732 893.651,-297 896.166,-299.517 898.964,-301.884 901.904,-304.089"/>
<polygon fill="black" stroke="black" points="900.203,-307.164 910.448,-309.866 904.124,-301.365 900.203,-307.164"/>
<text text-anchor="middle" x="639.313" y="-237.8" font-family="Times New Roman,serif" font-size="14.00"> (0)</text>
</g>
<!-- node10&#45;&gt;node14 -->
<g id="edge18" class="edge"><title>node10&#45;&gt;node14</title>
<path fill="none" stroke="black" d="M199.69,-493.568C210.991,-477.841 229.808,-455.471 252.084,-444 260.78,-439.522 270.611,-436.556 280.412,-434.62"/>
<polygon fill="black" stroke="black" points="281.264,-438.027 290.566,-432.955 280.131,-431.119 281.264,-438.027"/>
<text text-anchor="middle" x="262.084" y="-447.8" font-family="Times New Roman,serif" font-size="14.00"> (1)</text>
</g>
<!-- node21 -->
<g id="node22" class="node"><title>node21</title>
<ellipse fill="none" stroke="black" cx="639.313" cy="-332" rx="46.5926" ry="18"/>
<text text-anchor="middle" x="639.313" y="-328.3" font-family="Times New Roman,serif" font-size="14.00">(21) AND</text>
</g>
<!-- node10&#45;&gt;node21 -->
<g id="edge31" class="edge"><title>node10&#45;&gt;node21</title>
<path fill="none" stroke="black" d="M234.279,-510.695C317.335,-509.304 488.167,-502.344 535.867,-469 580.831,-437.569 554.171,-398.856 591.867,-359 594.313,-356.414 597.061,-354 599.968,-351.763"/>
<polygon fill="black" stroke="black" points="602.195,-354.479 608.458,-345.933 598.233,-348.708 602.195,-354.479"/>
<text text-anchor="middle" x="412.976" y="-504.8" font-family="Times New Roman,serif" font-size="14.00"> (0)</text>
</g>
<!-- node37 -->
<g id="node38" class="node"><title>node37</title>
<ellipse fill="none" stroke="black" cx="1518.51" cy="-618" rx="42.7926" ry="18"/>
<text text-anchor="middle" x="1518.51" y="-614.3" font-family="Times New Roman,serif" font-size="14.00">Output 0</text>
</g>
<!-- node10&#45;&gt;node37 -->
<g id="edge62" class="edge"><title>node10&#45;&gt;node37</title>
<path fill="none" stroke="black" d="M217.625,-525.011C223.651,-528.899 229.535,-533.572 234.084,-539 248.185,-555.826 235.33,-570.812 252.084,-585 265.255,-596.154 272.961,-590.84 290.084,-593 543.679,-624.992 609.046,-618 864.651,-618 864.651,-618 864.651,-618 1392.17,-618 1416.23,-618 1442.89,-618 1465.41,-618"/>
<polygon fill="black" stroke="black" points="1465.45,-621.5 1475.45,-618 1465.45,-614.5 1465.45,-621.5"/>
</g>
<!-- node11&#45;&gt;node17 -->
<g id="edge24" class="edge"><title>node11&#45;&gt;node17</title>
<path fill="none" stroke="black" d="M213.189,-389.793C220.812,-384.092 228.618,-377.024 234.084,-369 249.759,-345.991 234.442,-330.537 252.084,-309 262.447,-296.35 277.326,-286.775 291.716,-279.78"/>
<polygon fill="black" stroke="black" points="293.386,-282.866 301.05,-275.55 290.497,-276.49 293.386,-282.866"/>
<text text-anchor="middle" x="262.084" y="-312.8" font-family="Times New Roman,serif" font-size="14.00"> (1)</text>
</g>
<!-- node18 -->
<g id="node19" class="node"><title>node18</title>
<ellipse fill="none" stroke="black" cx="488.422" cy="-278" rx="47.3916" ry="18"/>
<text text-anchor="middle" x="488.422" y="-274.3" font-family="Times New Roman,serif" font-size="14.00">(18) XOR</text>
</g>
<!-- node11&#45;&gt;node18 -->
<g id="edge25" class="edge"><title>node11&#45;&gt;node18</title>
<path fill="none" stroke="black" d="M224.891,-393.984C281.315,-376.982 383.274,-346.168 384.976,-345 395.679,-337.655 392.994,-330.298 402.976,-322 415.698,-311.424 431.379,-302.392 445.761,-295.314"/>
<polygon fill="black" stroke="black" points="447.44,-298.391 454.98,-290.948 444.444,-292.065 447.44,-298.391"/>
<text text-anchor="middle" x="337.53" y="-376.8" font-family="Times New Roman,serif" font-size="14.00"> (0)</text>
</g>
<!-- node34 -->
<g id="node35" class="node"><title>node34</title>
<ellipse fill="none" stroke="black" cx="337.53" cy="-566" rx="47.3916" ry="18"/>
<text text-anchor="middle" x="337.53" y="-562.3" font-family="Times New Roman,serif" font-size="14.00">(34) XOR</text>
</g>
<!-- node11&#45;&gt;node34 -->
<g id="edge57" class="edge"><title>node11&#45;&gt;node34</title>
<path fill="none" stroke="black" d="M203.873,-421.926C230.162,-450.477 283.424,-508.323 313.855,-541.374"/>
<polygon fill="black" stroke="black" points="311.36,-543.831 320.708,-548.817 316.51,-539.089 311.36,-543.831"/>
<text text-anchor="middle" x="262.084" y="-498.8" font-family="Times New Roman,serif" font-size="14.00"> (1)</text>
</g>
<!-- node12&#45;&gt;node21 -->
<g id="edge32" class="edge"><title>node12&#45;&gt;node21</title>
<path fill="none" stroke="black" d="M535.309,-332C550.027,-332 566.5,-332 581.882,-332"/>
<polygon fill="black" stroke="black" points="582.321,-335.5 592.321,-332 582.321,-328.5 582.321,-335.5"/>
<text text-anchor="middle" x="563.867" y="-335.8" font-family="Times New Roman,serif" font-size="14.00"> (1)</text>
</g>
<!-- node12&#45;&gt;node24 -->
<g id="edge37" class="edge"><title>node12&#45;&gt;node24</title>
<path fill="none" stroke="black" d="M520.955,-318.74C526.668,-315.051 532.023,-310.506 535.867,-305 562.218,-267.254 532.554,-243.803 553.867,-203 566.711,-178.412 589.282,-156.527 607.859,-141.264"/>
<polygon fill="black" stroke="black" points="610.161,-143.906 615.8,-134.936 605.798,-138.431 610.161,-143.906"/>
<text text-anchor="middle" x="563.867" y="-206.8" font-family="Times New Roman,serif" font-size="14.00"> (1)</text>
</g>
<!-- node27 -->
<g id="node28" class="node"><title>node27</title>
<ellipse fill="none" stroke="black" cx="790.205" cy="-421" rx="40.8928" ry="18"/>
<text text-anchor="middle" x="790.205" y="-417.3" font-family="Times New Roman,serif" font-size="14.00">(27) OR</text>
</g>
<!-- node12&#45;&gt;node27 -->
<g id="edge43" class="edge"><title>node12&#45;&gt;node27</title>
<path fill="none" stroke="black" d="M525.881,-342.824C581.344,-359.29 686.705,-390.57 745.955,-408.16"/>
<polygon fill="black" stroke="black" points="745.174,-411.579 755.756,-411.07 747.166,-404.868 745.174,-411.579"/>
<text text-anchor="middle" x="639.313" y="-392.8" font-family="Times New Roman,serif" font-size="14.00"> (1)</text>
</g>
<!-- node31 -->
<g id="node32" class="node"><title>node31</title>
<ellipse fill="none" stroke="black" cx="1091.34" cy="-167" rx="46.5926" ry="18"/>
<text text-anchor="middle" x="1091.34" y="-163.3" font-family="Times New Roman,serif" font-size="14.00">(31) AND</text>
</g>
<!-- node12&#45;&gt;node31 -->
<g id="edge51" class="edge"><title>node12&#45;&gt;node31</title>
<path fill="none" stroke="black" d="M518.585,-318.162C524.727,-314.43 530.856,-310.014 535.867,-305 547.13,-293.732 542.705,-285.368 553.867,-274 567.699,-259.914 573.361,-257.873 591.867,-251 745.505,-193.939 940.252,-175.428 1034.37,-169.588"/>
<polygon fill="black" stroke="black" points="1034.75,-173.072 1044.52,-168.984 1034.33,-166.084 1034.75,-173.072"/>
<text text-anchor="middle" x="790.205" y="-210.8" font-family="Times New Roman,serif" font-size="14.00"> (1)</text>
</g>
<!-- node19 -->
<g id="node20" class="node"><title>node19</title>
<ellipse fill="none" stroke="black" cx="639.313" cy="-278" rx="40.8928" ry="18"/>
<text text-anchor="middle" x="639.313" y="-274.3" font-family="Times New Roman,serif" font-size="14.00">(19) OR</text>
</g>
<!-- node13&#45;&gt;node19 -->
<g id="edge28" class="edge"><title>node13&#45;&gt;node19</title>
<path fill="none" stroke="black" d="M234.291,-137.123C282.359,-139.388 359.472,-146.121 422.976,-166 492.89,-187.886 567.157,-231.699 607.62,-257.564"/>
<polygon fill="black" stroke="black" points="605.905,-260.623 616.205,-263.107 609.703,-254.742 605.905,-260.623"/>
<text text-anchor="middle" x="412.976" y="-169.8" font-family="Times New Roman,serif" font-size="14.00"> (1)</text>
</g>
<!-- node14&#45;&gt;node18 -->
<g id="edge26" class="edge"><title>node14&#45;&gt;node18</title>
<path fill="none" stroke="black" d="M359.073,-415.941C367.579,-408.783 377.242,-399.954 384.976,-391 414.789,-356.481 407.918,-336.426 440.976,-305 443.705,-302.405 446.729,-299.958 449.886,-297.675"/>
<polygon fill="black" stroke="black" points="452.024,-300.458 458.446,-292.03 448.17,-294.614 452.024,-300.458"/>
<text text-anchor="middle" x="412.976" y="-367.8" font-family="Times New Roman,serif" font-size="14.00"> (1)</text>
</g>
<!-- node20 -->
<g id="node21" class="node"><title>node20</title>
<ellipse fill="none" stroke="black" cx="639.313" cy="-491" rx="47.3916" ry="18"/>
<text text-anchor="middle" x="639.313" y="-487.3" font-family="Times New Roman,serif" font-size="14.00">(20) XOR</text>
</g>
<!-- node14&#45;&gt;node20 -->
<g id="edge29" class="edge"><title>node14&#45;&gt;node20</title>
<path fill="none" stroke="black" d="M379.585,-440.08C433.439,-450.679 527.96,-469.282 586.629,-480.828"/>
<polygon fill="black" stroke="black" points="586.304,-484.331 596.792,-482.828 587.656,-477.463 586.304,-484.331"/>
<text text-anchor="middle" x="488.422" y="-473.8" font-family="Times New Roman,serif" font-size="14.00"> (0)</text>
</g>
<!-- node15&#45;&gt;node16 -->
<g id="edge22" class="edge"><title>node15&#45;&gt;node16</title>
<path fill="none" stroke="black" d="M234.112,-697.896C276.209,-697.576 338.874,-691.727 384.976,-664 427.704,-638.302 458.756,-587.467 474.866,-556.037"/>
<polygon fill="black" stroke="black" points="478.063,-557.468 479.382,-546.955 471.795,-554.351 478.063,-557.468"/>
<text text-anchor="middle" x="337.53" y="-696.8" font-family="Times New Roman,serif" font-size="14.00"> (1)</text>
</g>
<!-- node16&#45;&gt;node20 -->
<g id="edge30" class="edge"><title>node16&#45;&gt;node20</title>
<path fill="none" stroke="black" d="M523.986,-516.918C533.595,-513.784 544.079,-510.571 553.867,-508 564.171,-505.294 575.279,-502.778 585.946,-500.555"/>
<polygon fill="black" stroke="black" points="586.892,-503.934 595.997,-498.517 585.501,-497.074 586.892,-503.934"/>
<text text-anchor="middle" x="563.867" y="-511.8" font-family="Times New Roman,serif" font-size="14.00"> (1)</text>
</g>
<!-- node23 -->
<g id="node24" class="node"><title>node23</title>
<ellipse fill="none" stroke="black" cx="639.313" cy="-437" rx="46.2923" ry="18"/>
<text text-anchor="middle" x="639.313" y="-433.3" font-family="Times New Roman,serif" font-size="14.00">(23) NEG</text>
</g>
<!-- node16&#45;&gt;node23 -->
<g id="edge35" class="edge"><title>node16&#45;&gt;node23</title>
<path fill="none" stroke="black" d="M512.644,-513.149C520.086,-508.03 528.346,-502.306 535.867,-497 543.931,-491.311 545.542,-489.298 553.867,-484 569.224,-474.229 586.73,-464.299 601.806,-456.099"/>
<polygon fill="black" stroke="black" points="603.694,-459.058 610.838,-451.234 600.374,-452.895 603.694,-459.058"/>
<text text-anchor="middle" x="563.867" y="-487.8" font-family="Times New Roman,serif" font-size="14.00"> (0)</text>
</g>
<!-- node33 -->
<g id="node34" class="node"><title>node33</title>
<ellipse fill="none" stroke="black" cx="1091.34" cy="-449" rx="40.8928" ry="18"/>
<text text-anchor="middle" x="1091.34" y="-445.3" font-family="Times New Roman,serif" font-size="14.00">(33) OR</text>
</g>
<!-- node16&#45;&gt;node33 -->
<g id="edge55" class="edge"><title>node16&#45;&gt;node33</title>
<path fill="none" stroke="black" d="M535.798,-527.902C575.868,-526.599 635.274,-523.817 686.759,-518 817.126,-503.27 969.291,-473.914 1044.06,-458.678"/>
<polygon fill="black" stroke="black" points="1044.99,-462.06 1054.08,-456.625 1043.59,-455.202 1044.99,-462.06"/>
<text text-anchor="middle" x="790.205" y="-513.8" font-family="Times New Roman,serif" font-size="14.00"> (1)</text>
</g>
<!-- node38 -->
<g id="node39" class="node"><title>node38</title>
<ellipse fill="none" stroke="black" cx="1518.51" cy="-18" rx="42.7926" ry="18"/>
<text text-anchor="middle" x="1518.51" y="-14.3" font-family="Times New Roman,serif" font-size="14.00">Output 1</text>
</g>
<!-- node17&#45;&gt;node38 -->
<g id="edge63" class="edge"><title>node17&#45;&gt;node38</title>
<path fill="none" stroke="black" d="M346.117,-245.939C356.39,-223.113 376.52,-183.6 402.976,-157 488.639,-70.8708 516.837,-18 638.313,-18 638.313,-18 638.313,-18 1392.17,-18 1416.23,-18 1442.89,-18 1465.41,-18"/>
<polygon fill="black" stroke="black" points="1465.45,-21.5001 1475.45,-18 1465.45,-14.5001 1465.45,-21.5001"/>
</g>
<!-- node18&#45;&gt;node19 -->
<g id="edge27" class="edge"><title>node18&#45;&gt;node19</title>
<path fill="none" stroke="black" d="M536.123,-278C552.65,-278 571.304,-278 588.109,-278"/>
<polygon fill="black" stroke="black" points="588.298,-281.5 598.298,-278 588.298,-274.5 588.298,-281.5"/>
<text text-anchor="middle" x="563.867" y="-281.8" font-family="Times New Roman,serif" font-size="14.00"> (0)</text>
</g>
<!-- node22 -->
<g id="node23" class="node"><title>node22</title>
<ellipse fill="none" stroke="black" cx="790.205" cy="-271" rx="46.5926" ry="18"/>
<text text-anchor="middle" x="790.205" y="-267.3" font-family="Times New Roman,serif" font-size="14.00">(22) AND</text>
</g>
<!-- node19&#45;&gt;node22 -->
<g id="edge34" class="edge"><title>node19&#45;&gt;node22</title>
<path fill="none" stroke="black" d="M661.841,-262.78C673.859,-255.22 689.457,-246.887 704.759,-243 721.991,-238.623 740.8,-243.843 756.283,-250.915"/>
<polygon fill="black" stroke="black" points="754.94,-254.156 765.451,-255.488 758.065,-247.892 754.94,-254.156"/>
<text text-anchor="middle" x="714.759" y="-246.8" font-family="Times New Roman,serif" font-size="14.00"> (1)</text>
</g>
<!-- node30 -->
<g id="node31" class="node"><title>node30</title>
<ellipse fill="none" stroke="black" cx="790.205" cy="-356" rx="47.3916" ry="18"/>
<text text-anchor="middle" x="790.205" y="-352.3" font-family="Times New Roman,serif" font-size="14.00">(30) XOR</text>
</g>
<!-- node19&#45;&gt;node30 -->
<g id="edge49" class="edge"><title>node19&#45;&gt;node30</title>
<path fill="none" stroke="black" d="M666.248,-291.587C690.098,-304.081 725.712,-322.738 752.482,-336.762"/>
<polygon fill="black" stroke="black" points="751.066,-339.971 761.548,-341.512 754.314,-333.771 751.066,-339.971"/>
<text text-anchor="middle" x="714.759" y="-324.8" font-family="Times New Roman,serif" font-size="14.00"> (1)</text>
</g>
<!-- node39 -->
<g id="node40" class="node"><title>node39</title>
<ellipse fill="none" stroke="black" cx="1518.51" cy="-562" rx="42.7926" ry="18"/>
<text text-anchor="middle" x="1518.51" y="-558.3" font-family="Times New Roman,serif" font-size="14.00">Output 2</text>
</g>
<!-- node20&#45;&gt;node39 -->
<g id="edge64" class="edge"><title>node20&#45;&gt;node39</title>
<path fill="none" stroke="black" d="M676.109,-502.407C742.363,-522.477 888.909,-562 1015.54,-562 1015.54,-562 1015.54,-562 1392.17,-562 1416.23,-562 1442.89,-562 1465.41,-562"/>
<polygon fill="black" stroke="black" points="1465.45,-565.5 1475.45,-562 1465.45,-558.5 1465.45,-565.5"/>
</g>
<!-- node21&#45;&gt;node22 -->
<g id="edge33" class="edge"><title>node21&#45;&gt;node22</title>
<path fill="none" stroke="black" d="M669.053,-317.713C675.217,-314.004 681.462,-309.711 686.759,-305 696.722,-296.139 693.205,-287.655 704.759,-281 713.394,-276.026 723.346,-272.98 733.321,-271.191"/>
<polygon fill="black" stroke="black" points="733.839,-274.653 743.255,-269.796 732.866,-267.721 733.839,-274.653"/>
<text text-anchor="middle" x="714.759" y="-284.8" font-family="Times New Roman,serif" font-size="14.00"> (0)</text>
</g>
<!-- node21&#45;&gt;node30 -->
<g id="edge48" class="edge"><title>node21&#45;&gt;node30</title>
<path fill="none" stroke="black" d="M682.98,-338.877C699.573,-341.552 718.76,-344.645 736.224,-347.46"/>
<polygon fill="black" stroke="black" points="735.845,-350.944 746.274,-349.08 736.959,-344.033 735.845,-350.944"/>
<text text-anchor="middle" x="714.759" y="-348.8" font-family="Times New Roman,serif" font-size="14.00"> (0)</text>
</g>
<!-- node26 -->
<g id="node27" class="node"><title>node26</title>
<ellipse fill="none" stroke="black" cx="941.096" cy="-270" rx="47.3916" ry="18"/>
<text text-anchor="middle" x="941.096" y="-266.3" font-family="Times New Roman,serif" font-size="14.00">(26) XOR</text>
</g>
<!-- node22&#45;&gt;node26 -->
<g id="edge40" class="edge"><title>node22&#45;&gt;node26</title>
<path fill="none" stroke="black" d="M837.092,-270.692C851.671,-270.594 867.972,-270.484 883.229,-270.382"/>
<polygon fill="black" stroke="black" points="883.614,-273.88 893.591,-270.312 883.567,-266.88 883.614,-273.88"/>
<text text-anchor="middle" x="865.651" y="-273.8" font-family="Times New Roman,serif" font-size="14.00"> (0)</text>
</g>
<!-- node22&#45;&gt;node29 -->
<g id="edge47" class="edge"><title>node22&#45;&gt;node29</title>
<path fill="none" stroke="black" d="M809.462,-254.446C835.836,-230.532 884.707,-186.222 914.62,-159.1"/>
<polygon fill="black" stroke="black" points="917.098,-161.577 922.155,-152.267 912.396,-156.392 917.098,-161.577"/>
<text text-anchor="middle" x="865.651" y="-214.8" font-family="Times New Roman,serif" font-size="14.00"> (1)</text>
</g>
<!-- node23&#45;&gt;node27 -->
<g id="edge42" class="edge"><title>node23&#45;&gt;node27</title>
<path fill="none" stroke="black" d="M684.18,-432.286C701.758,-430.397 722.09,-428.212 740.154,-426.271"/>
<polygon fill="black" stroke="black" points="740.638,-429.739 750.207,-425.191 739.89,-422.779 740.638,-429.739"/>
<text text-anchor="middle" x="714.759" y="-432.8" font-family="Times New Roman,serif" font-size="14.00"> (0)</text>
</g>
<!-- node24&#45;&gt;node26 -->
<g id="edge41" class="edge"><title>node24&#45;&gt;node26</title>
<path fill="none" stroke="black" d="M686.344,-115.832C728.334,-114.996 790.792,-119.055 837.651,-145 878.628,-167.689 909.725,-213.939 926.404,-243.376"/>
<polygon fill="black" stroke="black" points="923.421,-245.215 931.306,-252.291 929.554,-241.842 923.421,-245.215"/>
<text text-anchor="middle" x="790.205" y="-148.8" font-family="Times New Roman,serif" font-size="14.00"> (1)</text>
</g>
<!-- node25&#45;&gt;node34 -->
<g id="edge56" class="edge"><title>node25&#45;&gt;node34</title>
<path fill="none" stroke="black" d="M234.38,-566C248.744,-566 264.755,-566 279.761,-566"/>
<polygon fill="black" stroke="black" points="279.956,-569.5 289.956,-566 279.956,-562.5 279.956,-569.5"/>
<text text-anchor="middle" x="262.084" y="-569.8" font-family="Times New Roman,serif" font-size="14.00"> (0)</text>
</g>
<!-- node28 -->
<g id="node29" class="node"><title>node28</title>
<ellipse fill="none" stroke="black" cx="1091.34" cy="-304" rx="46.5926" ry="18"/>
<text text-anchor="middle" x="1091.34" y="-300.3" font-family="Times New Roman,serif" font-size="14.00">(28) AND</text>
</g>
<!-- node26&#45;&gt;node28 -->
<g id="edge44" class="edge"><title>node26&#45;&gt;node28</title>
<path fill="none" stroke="black" d="M982.213,-279.201C1000.24,-283.335 1021.69,-288.255 1040.71,-292.619"/>
<polygon fill="black" stroke="black" points="1040.17,-296.085 1050.7,-294.91 1041.74,-289.263 1040.17,-296.085"/>
<text text-anchor="middle" x="1016.54" y="-292.8" font-family="Times New Roman,serif" font-size="14.00"> (0)</text>
</g>
<!-- node27&#45;&gt;node28 -->
<g id="edge45" class="edge"><title>node27&#45;&gt;node28</title>
<path fill="none" stroke="black" d="M824.588,-430.827C874.324,-443.259 968.256,-457.934 1026.54,-412 1049.75,-393.711 1029.36,-373.347 1044.54,-348 1049.1,-340.386 1055.32,-333.21 1061.71,-326.949"/>
<polygon fill="black" stroke="black" points="1064.22,-329.401 1069.19,-320.048 1059.47,-324.255 1064.22,-329.401"/>
<text text-anchor="middle" x="941.096" y="-446.8" font-family="Times New Roman,serif" font-size="14.00"> (1)</text>
</g>
<!-- node27&#45;&gt;node32 -->
<g id="edge53" class="edge"><title>node27&#45;&gt;node32</title>
<path fill="none" stroke="black" d="M813.818,-406.268C838.885,-389.937 879.515,-363.468 907.898,-344.977"/>
<polygon fill="black" stroke="black" points="909.814,-347.905 916.283,-339.514 905.993,-342.04 909.814,-347.905"/>
<text text-anchor="middle" x="865.651" y="-381.8" font-family="Times New Roman,serif" font-size="14.00"> (1)</text>
</g>
<!-- node41 -->
<g id="node42" class="node"><title>node41</title>
<ellipse fill="none" stroke="black" cx="1518.51" cy="-304" rx="42.7926" ry="18"/>
<text text-anchor="middle" x="1518.51" y="-300.3" font-family="Times New Roman,serif" font-size="14.00">Output 4</text>
</g>
<!-- node28&#45;&gt;node41 -->
<g id="edge66" class="edge"><title>node28&#45;&gt;node41</title>
<path fill="none" stroke="black" d="M1138.24,-304C1218.02,-304 1381.7,-304 1465.53,-304"/>
<polygon fill="black" stroke="black" points="1465.59,-307.5 1475.59,-304 1465.59,-300.5 1465.59,-307.5"/>
</g>
<!-- node29&#45;&gt;node31 -->
<g id="edge50" class="edge"><title>node29&#45;&gt;node31</title>
<path fill="none" stroke="black" d="M978.703,-143.225C993.562,-146.196 1010.88,-149.706 1026.54,-153 1031.15,-153.97 1035.95,-154.994 1040.75,-156.029"/>
<polygon fill="black" stroke="black" points="1040.03,-159.455 1050.54,-158.156 1041.51,-152.614 1040.03,-159.455"/>
<text text-anchor="middle" x="1016.54" y="-156.8" font-family="Times New Roman,serif" font-size="14.00"> (0)</text>
</g>
<!-- node36 -->
<g id="node37" class="node"><title>node36</title>
<ellipse fill="none" stroke="black" cx="1391.17" cy="-390" rx="47.3916" ry="18"/>
<text text-anchor="middle" x="1391.17" y="-386.3" font-family="Times New Roman,serif" font-size="14.00">(36) XOR</text>
</g>
<!-- node30&#45;&gt;node36 -->
<g id="edge61" class="edge"><title>node30&#45;&gt;node36</title>
<path fill="none" stroke="black" d="M834.754,-362.263C864.386,-365.991 904.527,-370 940.096,-370 940.096,-370 940.096,-370 1241.93,-370 1274.43,-370 1310.57,-374.779 1339.04,-379.664"/>
<polygon fill="black" stroke="black" points="1338.7,-383.158 1349.16,-381.46 1339.92,-376.266 1338.7,-383.158"/>
<text text-anchor="middle" x="1091.34" y="-373.8" font-family="Times New Roman,serif" font-size="14.00"> (1)</text>
</g>
<!-- node42 -->
<g id="node43" class="node"><title>node42</title>
<ellipse fill="none" stroke="black" cx="1518.51" cy="-167" rx="42.7926" ry="18"/>
<text text-anchor="middle" x="1518.51" y="-163.3" font-family="Times New Roman,serif" font-size="14.00">Output 5</text>
</g>
<!-- node31&#45;&gt;node42 -->
<g id="edge67" class="edge"><title>node31&#45;&gt;node42</title>
<path fill="none" stroke="black" d="M1138.24,-167C1218.02,-167 1381.7,-167 1465.53,-167"/>
<polygon fill="black" stroke="black" points="1465.59,-170.5 1475.59,-167 1465.59,-163.5 1465.59,-170.5"/>
</g>
<!-- node32&#45;&gt;node33 -->
<g id="edge54" class="edge"><title>node32&#45;&gt;node33</title>
<path fill="none" stroke="black" d="M961.476,-340.342C987.589,-362.36 1034.18,-401.647 1063.61,-426.461"/>
<polygon fill="black" stroke="black" points="1061.52,-429.279 1071.42,-433.05 1066.03,-423.928 1061.52,-429.279"/>
<text text-anchor="middle" x="1016.54" y="-396.8" font-family="Times New Roman,serif" font-size="14.00"> (0)</text>
</g>
<!-- node35 -->
<g id="node36" class="node"><title>node35</title>
<ellipse fill="none" stroke="black" cx="1240.93" cy="-449" rx="46.5926" ry="18"/>
<text text-anchor="middle" x="1240.93" y="-445.3" font-family="Times New Roman,serif" font-size="14.00">(35) AND</text>
</g>
<!-- node33&#45;&gt;node35 -->
<g id="edge58" class="edge"><title>node33&#45;&gt;node35</title>
<path fill="none" stroke="black" d="M1132.67,-449C1148.36,-449 1166.61,-449 1183.56,-449"/>
<polygon fill="black" stroke="black" points="1183.91,-452.5 1193.91,-449 1183.91,-445.5 1183.91,-452.5"/>
<text text-anchor="middle" x="1166.13" y="-452.8" font-family="Times New Roman,serif" font-size="14.00"> (0)</text>
</g>
<!-- node34&#45;&gt;node35 -->
<g id="edge59" class="edge"><title>node34&#45;&gt;node35</title>
<path fill="none" stroke="black" d="M383.773,-570.158C413.26,-572.516 452.591,-575 487.422,-575 487.422,-575 487.422,-575 715.759,-575 900.281,-575 1111.47,-500.27 1198.82,-465.913"/>
<polygon fill="black" stroke="black" points="1200.36,-469.07 1208.36,-462.128 1197.77,-462.564 1200.36,-469.07"/>
<text text-anchor="middle" x="790.205" y="-577.8" font-family="Times New Roman,serif" font-size="14.00"> (1)</text>
</g>
<!-- node35&#45;&gt;node36 -->
<g id="edge60" class="edge"><title>node35&#45;&gt;node36</title>
<path fill="none" stroke="black" d="M1274.1,-436.198C1295.88,-427.53 1324.86,-415.994 1348.42,-406.618"/>
<polygon fill="black" stroke="black" points="1349.82,-409.829 1357.81,-402.879 1347.23,-403.325 1349.82,-409.829"/>
<text text-anchor="middle" x="1315.73" y="-426.8" font-family="Times New Roman,serif" font-size="14.00"> (0)</text>
</g>
<!-- node40 -->
<g id="node41" class="node"><title>node40</title>
<ellipse fill="none" stroke="black" cx="1518.51" cy="-390" rx="42.7926" ry="18"/>
<text text-anchor="middle" x="1518.51" y="-386.3" font-family="Times New Roman,serif" font-size="14.00">Output 3</text>
</g>
<!-- node36&#45;&gt;node40 -->
<g id="edge65" class="edge"><title>node36&#45;&gt;node40</title>
<path fill="none" stroke="black" d="M1438.84,-390C1447.45,-390 1456.48,-390 1465.24,-390"/>
<polygon fill="black" stroke="black" points="1465.35,-393.5 1475.35,-390 1465.35,-386.5 1465.35,-393.5"/>
</g>
</g>
</svg>
