<?xml version="1.0" encoding="UTF-8" standalone="no"?>
<!DOCTYPE svg PUBLIC "-//W3C//DTD SVG 1.1//EN"
 "http://www.w3.org/Graphics/SVG/1.1/DTD/svg11.dtd">
<!-- Generated by graphviz version 2.38.0 (20140413.2041)
 -->
<!-- Title: NeuralNetwork Pages: 1 -->
<svg width="288pt" height="161pt"
 viewBox="0.00 0.00 288.00 161.04" xmlns="http://www.w3.org/2000/svg" xmlns:xlink="http://www.w3.org/1999/xlink">
<g id="graph0" class="graph" transform="scale(0.296986 0.296986) rotate(0) translate(4 538.247)">
<title>NeuralNetwork</title>
<polygon fill="white" stroke="none" points="-4,4 -4,-538.247 965.743,-538.247 965.743,4 -4,4"/>
<!-- node0 -->
<g id="node1" class="node"><title>node0</title>
<ellipse fill="none" stroke="black" cx="42.2463" cy="-47.2474" rx="42.4939" ry="18"/>
<text text-anchor="middle" x="42.2463" y="-43.5474" font-family="Times New Roman,serif" font-size="14.00">(0) Input</text>
</g>
<!-- node7 -->
<g id="node8" class="node"><title>node7</title>
<ellipse fill="none" stroke="black" cx="338.83" cy="-295.247" rx="42.4939" ry="18"/>
<text text-anchor="middle" x="338.83" y="-291.547" font-family="Times New Roman,serif" font-size="14.00">(7) AND</text>
</g>
<!-- node0&#45;&gt;node7 -->
<g id="edge5" class="edge"><title>node0&#45;&gt;node7</title>
<path fill="none" stroke="black" d="M49.9996,-65.1917C58.877,-86.3939 76.4622,-121.301 102.493,-141.247 151.555,-178.842 183.24,-149.059 235.384,-182.247 271.154,-205.014 302.256,-243.508 320.536,-269.149"/>
<polygon fill="black" stroke="black" points="317.863,-271.435 326.454,-277.636 323.605,-267.431 317.863,-271.435"/>
<text text-anchor="middle" x="187.938" y="-186.047" font-family="Times New Roman,serif" font-size="14.00"> (0)</text>
</g>
<!-- node9 -->
<g id="node10" class="node"><title>node9</title>
<ellipse fill="none" stroke="black" cx="187.938" cy="-47.2474" rx="42.4939" ry="18"/>
<text text-anchor="middle" x="187.938" y="-43.5474" font-family="Times New Roman,serif" font-size="14.00">(9) NEG</text>
</g>
<!-- node0&#45;&gt;node9 -->
<g id="edge9" class="edge"><title>node0&#45;&gt;node9</title>
<path fill="none" stroke="black" d="M84.8079,-47.2474C100.595,-47.2474 118.77,-47.2474 135.372,-47.2474"/>
<polygon fill="black" stroke="black" points="135.47,-50.7475 145.47,-47.2474 135.47,-43.7475 135.47,-50.7475"/>
<text text-anchor="middle" x="112.493" y="-51.0474" font-family="Times New Roman,serif" font-size="14.00"> (0)</text>
</g>
<!-- node17 -->
<g id="node18" class="node"><title>node17</title>
<ellipse fill="none" stroke="black" cx="338.83" cy="-23.2474" rx="47.3916" ry="18"/>
<text text-anchor="middle" x="338.83" y="-19.5474" font-family="Times New Roman,serif" font-size="14.00">(17) XOR</text>
</g>
<!-- node0&#45;&gt;node17 -->
<g id="edge25" class="edge"><title>node0&#45;&gt;node17</title>
<path fill="none" stroke="black" d="M68.308,-33.0337C87.4134,-23.0524 114.739,-10.5712 140.493,-5.24738 190.651,5.12131 249.213,-2.65841 289.439,-10.9843"/>
<polygon fill="black" stroke="black" points="288.741,-14.4142 299.254,-13.102 290.217,-7.57164 288.741,-14.4142"/>
<text text-anchor="middle" x="187.938" y="-9.04738" font-family="Times New Roman,serif" font-size="14.00"> (1)</text>
</g>
<!-- node1 -->
<g id="node2" class="node"><title>node1</title>
<ellipse fill="none" stroke="black" cx="42.2463" cy="-393.247" rx="42.4939" ry="18"/>
<text text-anchor="middle" x="42.2463" y="-389.547" font-family="Times New Roman,serif" font-size="14.00">(1) Input</text>
</g>
<!-- node8 -->
<g id="node9" class="node"><title>node8</title>
<ellipse fill="none" stroke="black" cx="489.721" cy="-403.247" rx="42.4939" ry="18"/>
<text text-anchor="middle" x="489.721" y="-399.547" font-family="Times New Roman,serif" font-size="14.00">(8) AND</text>
</g>
<!-- node1&#45;&gt;node8 -->
<g id="edge7" class="edge"><title>node1&#45;&gt;node8</title>
<path fill="none" stroke="black" d="M84.1483,-390.714C130.29,-388.484 207.496,-386.648 273.384,-394.247 332.674,-401.085 344.972,-417.538 404.276,-424.247 413.108,-425.247 415.497,-425.642 424.276,-424.247 432.202,-422.989 440.479,-420.91 448.358,-418.538"/>
<polygon fill="black" stroke="black" points="449.619,-421.809 458.068,-415.415 447.476,-415.145 449.619,-421.809"/>
<text text-anchor="middle" x="263.384" y="-398.047" font-family="Times New Roman,serif" font-size="14.00"> (0)</text>
</g>
<!-- node11 -->
<g id="node12" class="node"><title>node11</title>
<ellipse fill="none" stroke="black" cx="489.721" cy="-461.247" rx="40.8928" ry="18"/>
<text text-anchor="middle" x="489.721" y="-457.547" font-family="Times New Roman,serif" font-size="14.00">(11) OR</text>
</g>
<!-- node1&#45;&gt;node11 -->
<g id="edge12" class="edge"><title>node1&#45;&gt;node11</title>
<path fill="none" stroke="black" d="M76.6767,-403.966C117.79,-416.651 189.936,-437.302 253.384,-447.247 316.672,-457.167 390.541,-460.19 438.396,-461.042"/>
<polygon fill="black" stroke="black" points="438.444,-464.543 448.496,-461.196 438.551,-457.544 438.444,-464.543"/>
<text text-anchor="middle" x="263.384" y="-453.047" font-family="Times New Roman,serif" font-size="14.00"> (0)</text>
</g>
<!-- node19 -->
<g id="node20" class="node"><title>node19</title>
<ellipse fill="none" stroke="black" cx="640.613" cy="-291.247" rx="47.3916" ry="18"/>
<text text-anchor="middle" x="640.613" y="-287.547" font-family="Times New Roman,serif" font-size="14.00">(19) XOR</text>
</g>
<!-- node1&#45;&gt;node19 -->
<g id="edge28" class="edge"><title>node1&#45;&gt;node19</title>
<path fill="none" stroke="black" d="M70.6036,-379.878C98.9895,-367.255 145.015,-350.247 186.938,-350.247 186.938,-350.247 186.938,-350.247 490.721,-350.247 528.765,-350.247 539.936,-350.603 575.167,-336.247 588.561,-330.79 601.91,-322.138 612.957,-313.873"/>
<polygon fill="black" stroke="black" points="615.169,-316.586 620.917,-307.687 610.874,-311.059 615.169,-316.586"/>
<text text-anchor="middle" x="338.83" y="-354.047" font-family="Times New Roman,serif" font-size="14.00"> (0)</text>
</g>
<!-- node2 -->
<g id="node3" class="node"><title>node2</title>
<ellipse fill="none" stroke="black" cx="42.2463" cy="-222.247" rx="42.4939" ry="18"/>
<text text-anchor="middle" x="42.2463" y="-218.547" font-family="Times New Roman,serif" font-size="14.00">(2) Input</text>
</g>
<!-- node6 -->
<g id="node7" class="node"><title>node6</title>
<ellipse fill="none" stroke="black" cx="187.938" cy="-295.247" rx="36.2938" ry="18"/>
<text text-anchor="middle" x="187.938" y="-291.547" font-family="Times New Roman,serif" font-size="14.00">(6) OR</text>
</g>
<!-- node2&#45;&gt;node6 -->
<g id="edge4" class="edge"><title>node2&#45;&gt;node6</title>
<path fill="none" stroke="black" d="M63.3059,-237.954C74.4325,-246.188 88.7619,-256.033 102.493,-263.247 116.588,-270.654 132.791,-277.22 147.21,-282.447"/>
<polygon fill="black" stroke="black" points="146.265,-285.825 156.86,-285.846 148.59,-279.223 146.265,-285.825"/>
<text text-anchor="middle" x="112.493" y="-276.047" font-family="Times New Roman,serif" font-size="14.00"> (1)</text>
</g>
<!-- node10 -->
<g id="node11" class="node"><title>node10</title>
<ellipse fill="none" stroke="black" cx="338.83" cy="-191.247" rx="46.5926" ry="18"/>
<text text-anchor="middle" x="338.83" y="-187.547" font-family="Times New Roman,serif" font-size="14.00">(10) AND</text>
</g>
<!-- node2&#45;&gt;node10 -->
<g id="edge10" class="edge"><title>node2&#45;&gt;node10</title>
<path fill="none" stroke="black" d="M83.5892,-218.002C135.32,-212.558 225.237,-203.096 283.103,-197.006"/>
<polygon fill="black" stroke="black" points="283.585,-200.475 293.164,-195.948 282.853,-193.514 283.585,-200.475"/>
<text text-anchor="middle" x="187.938" y="-215.047" font-family="Times New Roman,serif" font-size="14.00"> (0)</text>
</g>
<!-- node16 -->
<g id="node17" class="node"><title>node16</title>
<ellipse fill="none" stroke="black" cx="187.938" cy="-101.247" rx="47.3916" ry="18"/>
<text text-anchor="middle" x="187.938" y="-97.5474" font-family="Times New Roman,serif" font-size="14.00">(16) XOR</text>
</g>
<!-- node2&#45;&gt;node16 -->
<g id="edge23" class="edge"><title>node2&#45;&gt;node16</title>
<path fill="none" stroke="black" d="M67.5502,-207.823C73.3121,-204.006 79.2907,-199.7 84.4925,-195.247 112.702,-171.103 112.57,-157.724 140.493,-133.247 144.726,-129.536 149.402,-125.877 154.106,-122.435"/>
<polygon fill="black" stroke="black" points="156.359,-125.129 162.517,-116.508 152.327,-119.407 156.359,-125.129"/>
<text text-anchor="middle" x="112.493" y="-181.047" font-family="Times New Roman,serif" font-size="14.00"> (1)</text>
</g>
<!-- node3 -->
<g id="node4" class="node"><title>node3</title>
<ellipse fill="none" stroke="black" cx="42.2463" cy="-502.247" rx="42.4939" ry="18"/>
<text text-anchor="middle" x="42.2463" y="-498.547" font-family="Times New Roman,serif" font-size="14.00">(3) Input</text>
</g>
<!-- node5 -->
<g id="node6" class="node"><title>node5</title>
<ellipse fill="none" stroke="black" cx="187.938" cy="-515.247" rx="42.4939" ry="18"/>
<text text-anchor="middle" x="187.938" y="-511.547" font-family="Times New Roman,serif" font-size="14.00">(5) AND</text>
</g>
<!-- node3&#45;&gt;node5 -->
<g id="edge1" class="edge"><title>node3&#45;&gt;node5</title>
<path fill="none" stroke="black" d="M76.4587,-512.865C84.8649,-515.094 93.9375,-517.113 102.493,-518.247 113.404,-519.695 125.173,-520.036 136.361,-519.795"/>
<polygon fill="black" stroke="black" points="136.565,-523.29 146.43,-519.426 136.308,-516.295 136.565,-523.29"/>
<text text-anchor="middle" x="112.493" y="-523.047" font-family="Times New Roman,serif" font-size="14.00"> (0)</text>
</g>
<!-- node3&#45;&gt;node5 -->
<g id="edge2" class="edge"><title>node3&#45;&gt;node5</title>
<path fill="none" stroke="black" d="M83.665,-498.238C96.1489,-497.665 109.92,-497.71 122.493,-499.247 129.181,-500.065 136.175,-501.344 142.987,-502.83"/>
<polygon fill="black" stroke="black" points="142.244,-506.251 152.779,-505.127 143.842,-499.436 142.244,-506.251"/>
<text text-anchor="middle" x="112.493" y="-503.047" font-family="Times New Roman,serif" font-size="14.00"> (1)</text>
</g>
<!-- node18 -->
<g id="node19" class="node"><title>node18</title>
<ellipse fill="none" stroke="black" cx="489.721" cy="-294.247" rx="47.3916" ry="18"/>
<text text-anchor="middle" x="489.721" y="-290.547" font-family="Times New Roman,serif" font-size="14.00">(18) XOR</text>
</g>
<!-- node3&#45;&gt;node18 -->
<g id="edge27" class="edge"><title>node3&#45;&gt;node18</title>
<path fill="none" stroke="black" d="M75.1818,-490.869C164.067,-459.142 408.84,-371.352 424.276,-361.247 441.546,-349.941 457.646,-333.209 469.434,-319.294"/>
<polygon fill="black" stroke="black" points="472.204,-321.436 475.852,-311.489 466.797,-316.99 472.204,-321.436"/>
<text text-anchor="middle" x="263.384" y="-429.047" font-family="Times New Roman,serif" font-size="14.00"> (1)</text>
</g>
<!-- node4 -->
<g id="node5" class="node"><title>node4</title>
<ellipse fill="none" stroke="black" cx="42.2463" cy="-168.247" rx="42.4939" ry="18"/>
<text text-anchor="middle" x="42.2463" y="-164.547" font-family="Times New Roman,serif" font-size="14.00">(4) Input</text>
</g>
<!-- node4&#45;&gt;node6 -->
<g id="edge3" class="edge"><title>node4&#45;&gt;node6</title>
<path fill="none" stroke="black" d="M68.1284,-182.793C73.7502,-186.545 79.5212,-190.792 84.4925,-195.247 113.648,-221.378 111.649,-236.773 140.493,-263.247 145.227,-267.593 150.586,-271.813 155.938,-275.687"/>
<polygon fill="black" stroke="black" points="154.043,-278.631 164.253,-281.457 158.034,-272.88 154.043,-278.631"/>
<text text-anchor="middle" x="112.493" y="-246.047" font-family="Times New Roman,serif" font-size="14.00"> (0)</text>
</g>
<!-- node13 -->
<g id="node14" class="node"><title>node13</title>
<ellipse fill="none" stroke="black" cx="489.721" cy="-240.247" rx="46.5926" ry="18"/>
<text text-anchor="middle" x="489.721" y="-236.547" font-family="Times New Roman,serif" font-size="14.00">(13) AND</text>
</g>
<!-- node4&#45;&gt;node13 -->
<g id="edge16" class="edge"><title>node4&#45;&gt;node13</title>
<path fill="none" stroke="black" d="M72.9639,-180.936C88.51,-188.309 107.394,-198.465 122.493,-210.247 131.92,-217.605 129.639,-225.226 140.493,-230.247 238.196,-275.452 368.381,-262.63 438.645,-250.619"/>
<polygon fill="black" stroke="black" points="439.331,-254.052 448.566,-248.86 438.108,-247.159 439.331,-254.052"/>
<text text-anchor="middle" x="263.384" y="-264.047" font-family="Times New Roman,serif" font-size="14.00"> (0)</text>
</g>
<!-- node4&#45;&gt;node16 -->
<g id="edge22" class="edge"><title>node4&#45;&gt;node16</title>
<path fill="none" stroke="black" d="M50.5651,-150.323C59.5658,-130.961 76.8707,-101.155 102.493,-88.2474 115.839,-81.5235 131.76,-82.1055 146.162,-85.2844"/>
<polygon fill="black" stroke="black" points="145.276,-88.6706 155.839,-87.8421 147.065,-81.903 145.276,-88.6706"/>
<text text-anchor="middle" x="112.493" y="-92.0474" font-family="Times New Roman,serif" font-size="14.00"> (0)</text>
</g>
<!-- node12 -->
<g id="node13" class="node"><title>node12</title>
<ellipse fill="none" stroke="black" cx="640.613" cy="-461.247" rx="46.5926" ry="18"/>
<text text-anchor="middle" x="640.613" y="-457.547" font-family="Times New Roman,serif" font-size="14.00">(12) AND</text>
</g>
<!-- node5&#45;&gt;node12 -->
<g id="edge15" class="edge"><title>node5&#45;&gt;node12</title>
<path fill="none" stroke="black" d="M230.138,-513.789C295.505,-511.086 426.874,-504.065 537.167,-488.247 556.04,-485.541 576.425,-480.6 594.004,-475.677"/>
<polygon fill="black" stroke="black" points="595.357,-478.929 603.997,-472.798 593.419,-472.203 595.357,-478.929"/>
<text text-anchor="middle" x="414.276" y="-506.047" font-family="Times New Roman,serif" font-size="14.00"> (1)</text>
</g>
<!-- node6&#45;&gt;node7 -->
<g id="edge6" class="edge"><title>node6&#45;&gt;node7</title>
<path fill="none" stroke="black" d="M224.602,-295.247C243.075,-295.247 265.968,-295.247 286.324,-295.247"/>
<polygon fill="black" stroke="black" points="286.392,-298.747 296.392,-295.247 286.392,-291.747 286.392,-298.747"/>
<text text-anchor="middle" x="263.384" y="-299.047" font-family="Times New Roman,serif" font-size="14.00"> (1)</text>
</g>
<!-- node7&#45;&gt;node8 -->
<g id="edge8" class="edge"><title>node7&#45;&gt;node8</title>
<path fill="none" stroke="black" d="M361.614,-310.629C369.411,-316.16 378.253,-322.461 386.276,-328.247 410.992,-346.074 438.89,-366.519 459.325,-381.556"/>
<polygon fill="black" stroke="black" points="457.467,-384.535 467.595,-387.646 461.618,-378.898 457.467,-384.535"/>
<text text-anchor="middle" x="414.276" y="-358.047" font-family="Times New Roman,serif" font-size="14.00"> (1)</text>
</g>
<!-- node7&#45;&gt;node11 -->
<g id="edge13" class="edge"><title>node7&#45;&gt;node11</title>
<path fill="none" stroke="black" d="M365.18,-309.389C372.736,-314.551 380.525,-320.941 386.276,-328.247 399.598,-345.174 394.247,-354.183 404.276,-373.247 418.45,-400.194 420.752,-408.712 442.276,-430.247 446.216,-434.19 450.73,-437.926 455.36,-441.348"/>
<polygon fill="black" stroke="black" points="453.511,-444.325 463.722,-447.148 457.5,-438.573 453.511,-444.325"/>
<text text-anchor="middle" x="414.276" y="-413.047" font-family="Times New Roman,serif" font-size="14.00"> (1)</text>
</g>
<!-- node7&#45;&gt;node18 -->
<g id="edge26" class="edge"><title>node7&#45;&gt;node18</title>
<path fill="none" stroke="black" d="M376.812,-287.156C385.758,-285.533 395.323,-284.074 404.276,-283.247 415.322,-282.228 427.147,-282.751 438.346,-284"/>
<polygon fill="black" stroke="black" points="438.042,-287.49 448.414,-285.327 438.957,-280.55 438.042,-287.49"/>
<text text-anchor="middle" x="414.276" y="-287.047" font-family="Times New Roman,serif" font-size="14.00"> (0)</text>
</g>
<!-- node14 -->
<g id="node15" class="node"><title>node14</title>
<ellipse fill="none" stroke="black" cx="640.613" cy="-403.247" rx="47.3916" ry="18"/>
<text text-anchor="middle" x="640.613" y="-399.547" font-family="Times New Roman,serif" font-size="14.00">(14) XOR</text>
</g>
<!-- node8&#45;&gt;node14 -->
<g id="edge19" class="edge"><title>node8&#45;&gt;node14</title>
<path fill="none" stroke="black" d="M532.196,-403.247C547.873,-403.247 565.994,-403.247 582.835,-403.247"/>
<polygon fill="black" stroke="black" points="583.122,-406.747 593.122,-403.247 583.122,-399.747 583.122,-406.747"/>
<text text-anchor="middle" x="565.167" y="-407.047" font-family="Times New Roman,serif" font-size="14.00"> (1)</text>
</g>
<!-- node9&#45;&gt;node10 -->
<g id="edge11" class="edge"><title>node9&#45;&gt;node10</title>
<path fill="none" stroke="black" d="M215.96,-60.9717C222.594,-64.8665 229.481,-69.3844 235.384,-74.2474 268.564,-101.582 300.101,-140.176 319.204,-165.448"/>
<polygon fill="black" stroke="black" points="316.641,-167.866 325.424,-173.792 322.253,-163.682 316.641,-167.866"/>
<text text-anchor="middle" x="263.384" y="-114.047" font-family="Times New Roman,serif" font-size="14.00"> (1)</text>
</g>
<!-- node10&#45;&gt;node13 -->
<g id="edge17" class="edge"><title>node10&#45;&gt;node13</title>
<path fill="none" stroke="black" d="M375.115,-202.86C395.79,-209.664 422.098,-218.322 444.191,-225.592"/>
<polygon fill="black" stroke="black" points="443.097,-228.917 453.69,-228.718 445.285,-222.268 443.097,-228.917"/>
<text text-anchor="middle" x="414.276" y="-222.047" font-family="Times New Roman,serif" font-size="14.00"> (1)</text>
</g>
<!-- node11&#45;&gt;node12 -->
<g id="edge14" class="edge"><title>node11&#45;&gt;node12</title>
<path fill="none" stroke="black" d="M531.014,-461.247C547.212,-461.247 566.165,-461.247 583.662,-461.247"/>
<polygon fill="black" stroke="black" points="583.765,-464.747 593.765,-461.247 583.765,-457.747 583.765,-464.747"/>
<text text-anchor="middle" x="565.167" y="-465.047" font-family="Times New Roman,serif" font-size="14.00"> (0)</text>
</g>
<!-- node15 -->
<g id="node16" class="node"><title>node15</title>
<ellipse fill="none" stroke="black" cx="791.505" cy="-427.247" rx="40.8928" ry="18"/>
<text text-anchor="middle" x="791.505" y="-423.547" font-family="Times New Roman,serif" font-size="14.00">(15) OR</text>
</g>
<!-- node12&#45;&gt;node15 -->
<g id="edge20" class="edge"><title>node12&#45;&gt;node15</title>
<path fill="none" stroke="black" d="M681.122,-452.225C700.727,-447.749 724.511,-442.317 744.888,-437.664"/>
<polygon fill="black" stroke="black" points="745.917,-441.019 754.887,-435.381 744.359,-434.195 745.917,-441.019"/>
<text text-anchor="middle" x="716.059" y="-450.047" font-family="Times New Roman,serif" font-size="14.00"> (0)</text>
</g>
<!-- node13&#45;&gt;node14 -->
<g id="edge18" class="edge"><title>node13&#45;&gt;node14</title>
<path fill="none" stroke="black" d="M519.885,-254.085C526.027,-257.817 532.156,-262.234 537.167,-267.247 548.43,-278.516 546.149,-285.113 555.167,-298.247 574.806,-326.849 600.033,-357.553 617.782,-378.323"/>
<polygon fill="black" stroke="black" points="615.248,-380.744 624.424,-386.041 620.554,-376.178 615.248,-380.744"/>
<text text-anchor="middle" x="565.167" y="-328.047" font-family="Times New Roman,serif" font-size="14.00"> (0)</text>
</g>
<!-- node20 -->
<g id="node21" class="node"><title>node20</title>
<ellipse fill="none" stroke="black" cx="791.505" cy="-257.247" rx="47.3916" ry="18"/>
<text text-anchor="middle" x="791.505" y="-253.547" font-family="Times New Roman,serif" font-size="14.00">(20) XOR</text>
</g>
<!-- node13&#45;&gt;node20 -->
<g id="edge31" class="edge"><title>node13&#45;&gt;node20</title>
<path fill="none" stroke="black" d="M536.599,-241.919C576.609,-243.478 636.2,-246.041 688.059,-249.247 703.249,-250.187 719.693,-251.388 734.867,-252.573"/>
<polygon fill="black" stroke="black" points="734.893,-256.086 745.138,-253.387 735.446,-249.108 734.893,-256.086"/>
<text text-anchor="middle" x="640.613" y="-253.047" font-family="Times New Roman,serif" font-size="14.00"> (1)</text>
</g>
<!-- node14&#45;&gt;node15 -->
<g id="edge21" class="edge"><title>node14&#45;&gt;node15</title>
<path fill="none" stroke="black" d="M684.679,-410.189C702.795,-413.109 723.946,-416.519 742.557,-419.519"/>
<polygon fill="black" stroke="black" points="742.169,-423.001 752.599,-421.137 743.283,-416.09 742.169,-423.001"/>
<text text-anchor="middle" x="716.059" y="-420.047" font-family="Times New Roman,serif" font-size="14.00"> (1)</text>
</g>
<!-- node23 -->
<g id="node24" class="node"><title>node23</title>
<ellipse fill="none" stroke="black" cx="918.847" cy="-427.247" rx="42.7926" ry="18"/>
<text text-anchor="middle" x="918.847" y="-423.547" font-family="Times New Roman,serif" font-size="14.00">Output 2</text>
</g>
<!-- node15&#45;&gt;node23 -->
<g id="edge34" class="edge"><title>node15&#45;&gt;node23</title>
<path fill="none" stroke="black" d="M832.508,-427.247C843.04,-427.247 854.559,-427.247 865.63,-427.247"/>
<polygon fill="black" stroke="black" points="865.63,-430.747 875.63,-427.247 865.63,-423.747 865.63,-430.747"/>
</g>
<!-- node16&#45;&gt;node17 -->
<g id="edge24" class="edge"><title>node16&#45;&gt;node17</title>
<path fill="none" stroke="black" d="M216.595,-86.759C240.517,-74.2266 275.28,-56.0153 301.454,-42.3038"/>
<polygon fill="black" stroke="black" points="303.088,-45.3991 310.322,-37.6582 299.839,-39.1984 303.088,-45.3991"/>
<text text-anchor="middle" x="263.384" y="-71.0474" font-family="Times New Roman,serif" font-size="14.00"> (0)</text>
</g>
<!-- node21 -->
<g id="node22" class="node"><title>node21</title>
<ellipse fill="none" stroke="black" cx="918.847" cy="-23.2474" rx="42.7926" ry="18"/>
<text text-anchor="middle" x="918.847" y="-19.5474" font-family="Times New Roman,serif" font-size="14.00">Output 0</text>
</g>
<!-- node17&#45;&gt;node21 -->
<g id="edge32" class="edge"><title>node17&#45;&gt;node21</title>
<path fill="none" stroke="black" d="M386.438,-23.2474C415.789,-23.2474 454.471,-23.2474 488.721,-23.2474 488.721,-23.2474 488.721,-23.2474 792.505,-23.2474 816.565,-23.2474 843.223,-23.2474 865.746,-23.2474"/>
<polygon fill="black" stroke="black" points="865.78,-26.7475 875.78,-23.2474 865.78,-19.7475 865.78,-26.7475"/>
</g>
<!-- node18&#45;&gt;node19 -->
<g id="edge29" class="edge"><title>node18&#45;&gt;node19</title>
<path fill="none" stroke="black" d="M532.19,-286.109C539.804,-284.917 547.703,-283.88 555.167,-283.247 565.292,-282.389 576.094,-282.575 586.472,-283.304"/>
<polygon fill="black" stroke="black" points="586.401,-286.811 596.668,-284.196 587.011,-279.838 586.401,-286.811"/>
<text text-anchor="middle" x="565.167" y="-287.047" font-family="Times New Roman,serif" font-size="14.00"> (1)</text>
</g>
<!-- node19&#45;&gt;node20 -->
<g id="edge30" class="edge"><title>node19&#45;&gt;node20</title>
<path fill="none" stroke="black" d="M681.905,-282.046C699.937,-277.929 721.381,-273.032 740.432,-268.682"/>
<polygon fill="black" stroke="black" points="741.469,-272.035 750.438,-266.397 739.91,-265.211 741.469,-272.035"/>
<text text-anchor="middle" x="716.059" y="-280.047" font-family="Times New Roman,serif" font-size="14.00"> (0)</text>
</g>
<!-- node22 -->
<g id="node23" class="node"><title>node22</title>
<ellipse fill="none" stroke="black" cx="918.847" cy="-257.247" rx="42.7926" ry="18"/>
<text text-anchor="middle" x="918.847" y="-253.547" font-family="Times New Roman,serif" font-size="14.00">Output 1</text>
</g>
<!-- node20&#45;&gt;node22 -->
<g id="edge33" class="edge"><title>node20&#45;&gt;node22</title>
<path fill="none" stroke="black" d="M839.177,-257.247C847.782,-257.247 856.818,-257.247 865.575,-257.247"/>
<polygon fill="black" stroke="black" points="865.685,-260.747 875.684,-257.247 865.684,-253.747 865.685,-260.747"/>
</g>
</g>
</svg>
