<?xml version="1.0" encoding="UTF-8" standalone="no"?>
<!DOCTYPE svg PUBLIC "-//W3C//DTD SVG 1.1//EN"
 "http://www.w3.org/Graphics/SVG/1.1/DTD/svg11.dtd">
<!-- Generated by graphviz version 2.38.0 (20140413.2041)
 -->
<!-- Title: NeuralNetwork Pages: 1 -->
<svg width="288pt" height="131pt"
 viewBox="0.00 0.00 288.00 130.74" xmlns="http://www.w3.org/2000/svg" xmlns:xlink="http://www.w3.org/1999/xlink">
<g id="graph0" class="graph" transform="scale(0.259404 0.259404) rotate(0) translate(4 500)">
<title>NeuralNetwork</title>
<polygon fill="white" stroke="none" points="-4,4 -4,-500 1106.24,-500 1106.24,4 -4,4"/>
<!-- node0 -->
<g id="node1" class="node"><title>node0</title>
<ellipse fill="none" stroke="black" cx="42.2463" cy="-135" rx="42.4939" ry="18"/>
<text text-anchor="middle" x="42.2463" y="-131.3" font-family="Times New Roman,serif" font-size="14.00">(0) Input</text>
</g>
<!-- node5 -->
<g id="node6" class="node"><title>node5</title>
<ellipse fill="none" stroke="black" cx="187.938" cy="-190" rx="42.4939" ry="18"/>
<text text-anchor="middle" x="187.938" y="-186.3" font-family="Times New Roman,serif" font-size="14.00">(5) AND</text>
</g>
<!-- node0&#45;&gt;node5 -->
<g id="edge1" class="edge"><title>node0&#45;&gt;node5</title>
<path fill="none" stroke="black" d="M83.3103,-130.298C96.1637,-130.147 110.236,-131.456 122.493,-136 138.997,-142.119 154.252,-154.455 165.773,-165.793"/>
<polygon fill="black" stroke="black" points="163.307,-168.278 172.78,-173.024 168.334,-163.407 163.307,-168.278"/>
<text text-anchor="middle" x="112.493" y="-139.8" font-family="Times New Roman,serif" font-size="14.00"> (0)</text>
</g>
<!-- node7 -->
<g id="node8" class="node"><title>node7</title>
<ellipse fill="none" stroke="black" cx="187.938" cy="-260" rx="36.2938" ry="18"/>
<text text-anchor="middle" x="187.938" y="-256.3" font-family="Times New Roman,serif" font-size="14.00">(7) OR</text>
</g>
<!-- node0&#45;&gt;node7 -->
<g id="edge6" class="edge"><title>node0&#45;&gt;node7</title>
<path fill="none" stroke="black" d="M59.192,-151.905C67.3222,-161.005 77.0391,-172.665 84.4925,-184 94.3208,-198.947 89.7095,-207.486 102.493,-220 114.759,-232.009 131.314,-240.924 146.516,-247.252"/>
<polygon fill="black" stroke="black" points="145.663,-250.676 156.251,-251.043 148.203,-244.153 145.663,-250.676"/>
<text text-anchor="middle" x="112.493" y="-238.8" font-family="Times New Roman,serif" font-size="14.00"> (1)</text>
</g>
<!-- node8 -->
<g id="node9" class="node"><title>node8</title>
<ellipse fill="none" stroke="black" cx="187.938" cy="-115" rx="42.7926" ry="18"/>
<text text-anchor="middle" x="187.938" y="-111.3" font-family="Times New Roman,serif" font-size="14.00">(8) XOR</text>
</g>
<!-- node0&#45;&gt;node8 -->
<g id="edge7" class="edge"><title>node0&#45;&gt;node8</title>
<path fill="none" stroke="black" d="M62.4634,-119.131C73.4537,-111.096 87.9206,-102.176 102.493,-98 116.953,-93.8556 133.087,-95.5925 147.347,-99.2287"/>
<polygon fill="black" stroke="black" points="146.767,-102.706 157.348,-102.155 148.733,-95.9877 146.767,-102.706"/>
<text text-anchor="middle" x="112.493" y="-101.8" font-family="Times New Roman,serif" font-size="14.00"> (0)</text>
</g>
<!-- node1 -->
<g id="node2" class="node"><title>node1</title>
<ellipse fill="none" stroke="black" cx="42.2463" cy="-451" rx="42.4939" ry="18"/>
<text text-anchor="middle" x="42.2463" y="-447.3" font-family="Times New Roman,serif" font-size="14.00">(1) Input</text>
</g>
<!-- node10 -->
<g id="node11" class="node"><title>node10</title>
<ellipse fill="none" stroke="black" cx="187.938" cy="-428" rx="47.3916" ry="18"/>
<text text-anchor="middle" x="187.938" y="-424.3" font-family="Times New Roman,serif" font-size="14.00">(10) XOR</text>
</g>
<!-- node1&#45;&gt;node10 -->
<g id="edge12" class="edge"><title>node1&#45;&gt;node10</title>
<path fill="none" stroke="black" d="M82.1314,-444.776C98.1116,-442.218 116.869,-439.216 134.065,-436.463"/>
<polygon fill="black" stroke="black" points="134.655,-439.913 143.977,-434.877 133.549,-433.001 134.655,-439.913"/>
<text text-anchor="middle" x="112.493" y="-443.8" font-family="Times New Roman,serif" font-size="14.00"> (1)</text>
</g>
<!-- node12 -->
<g id="node13" class="node"><title>node12</title>
<ellipse fill="none" stroke="black" cx="630.214" cy="-372" rx="47.3916" ry="18"/>
<text text-anchor="middle" x="630.214" y="-368.3" font-family="Times New Roman,serif" font-size="14.00">(12) XOR</text>
</g>
<!-- node1&#45;&gt;node12 -->
<g id="edge15" class="edge"><title>node1&#45;&gt;node12</title>
<path fill="none" stroke="black" d="M56.1233,-433.918C66.9888,-420.809 83.7404,-403.412 102.493,-394 136.494,-376.934 148.895,-380 186.938,-380 186.938,-380 186.938,-380 480.972,-380 511.483,-380 545.474,-378.289 573.203,-376.45"/>
<polygon fill="black" stroke="black" points="573.767,-379.92 583.504,-375.742 573.287,-372.936 573.767,-379.92"/>
<text text-anchor="middle" x="334.28" y="-383.8" font-family="Times New Roman,serif" font-size="14.00"> (0)</text>
</g>
<!-- node14 -->
<g id="node15" class="node"><title>node14</title>
<ellipse fill="none" stroke="black" cx="931.997" cy="-465" rx="47.3916" ry="18"/>
<text text-anchor="middle" x="931.997" y="-461.3" font-family="Times New Roman,serif" font-size="14.00">(14) XOR</text>
</g>
<!-- node1&#45;&gt;node14 -->
<g id="edge19" class="edge"><title>node1&#45;&gt;node14</title>
<path fill="none" stroke="black" d="M76.2287,-461.916C105.093,-470.493 148.329,-481 186.938,-481 186.938,-481 186.938,-481 782.106,-481 814.059,-481 849.65,-477.312 878.02,-473.477"/>
<polygon fill="black" stroke="black" points="878.707,-476.915 888.126,-472.064 877.737,-469.983 878.707,-476.915"/>
<text text-anchor="middle" x="479.972" y="-484.8" font-family="Times New Roman,serif" font-size="14.00"> (0)</text>
</g>
<!-- node2 -->
<g id="node3" class="node"><title>node2</title>
<ellipse fill="none" stroke="black" cx="42.2463" cy="-33" rx="42.4939" ry="18"/>
<text text-anchor="middle" x="42.2463" y="-29.3" font-family="Times New Roman,serif" font-size="14.00">(2) Input</text>
</g>
<!-- node6 -->
<g id="node7" class="node"><title>node6</title>
<ellipse fill="none" stroke="black" cx="334.28" cy="-190" rx="36.2938" ry="18"/>
<text text-anchor="middle" x="334.28" y="-186.3" font-family="Times New Roman,serif" font-size="14.00">(6) OR</text>
</g>
<!-- node2&#45;&gt;node6 -->
<g id="edge4" class="edge"><title>node2&#45;&gt;node6</title>
<path fill="none" stroke="black" d="M81.8253,-39.6301C134.073,-48.8224 222.34,-65.1871 235.384,-73 272.375,-95.1563 301.91,-136.451 318.512,-163.581"/>
<polygon fill="black" stroke="black" points="315.715,-165.727 323.835,-172.532 321.732,-162.148 315.715,-165.727"/>
<text text-anchor="middle" x="187.938" y="-76.8" font-family="Times New Roman,serif" font-size="14.00"> (1)</text>
</g>
<!-- node9 -->
<g id="node10" class="node"><title>node9</title>
<ellipse fill="none" stroke="black" cx="334.28" cy="-18" rx="42.7926" ry="18"/>
<text text-anchor="middle" x="334.28" y="-14.3" font-family="Times New Roman,serif" font-size="14.00">(9) XOR</text>
</g>
<!-- node2&#45;&gt;node9 -->
<g id="edge10" class="edge"><title>node2&#45;&gt;node9</title>
<path fill="none" stroke="black" d="M84.4048,-30.3238C101.719,-29.2335 122.082,-27.9976 140.493,-27 188.251,-24.412 242.69,-21.9119 281.51,-20.2064"/>
<polygon fill="black" stroke="black" points="281.69,-23.7019 291.527,-19.7686 281.384,-16.7086 281.69,-23.7019"/>
<text text-anchor="middle" x="187.938" y="-30.8" font-family="Times New Roman,serif" font-size="14.00"> (1)</text>
</g>
<!-- node3 -->
<g id="node4" class="node"><title>node3</title>
<ellipse fill="none" stroke="black" cx="42.2463" cy="-357" rx="42.4939" ry="18"/>
<text text-anchor="middle" x="42.2463" y="-353.3" font-family="Times New Roman,serif" font-size="14.00">(3) Input</text>
</g>
<!-- node3&#45;&gt;node10 -->
<g id="edge11" class="edge"><title>node3&#45;&gt;node10</title>
<path fill="none" stroke="black" d="M70.6118,-370.522C92.8505,-381.51 124.463,-397.13 149.121,-409.314"/>
<polygon fill="black" stroke="black" points="147.682,-412.507 158.197,-413.799 150.783,-406.231 147.682,-412.507"/>
<text text-anchor="middle" x="112.493" y="-397.8" font-family="Times New Roman,serif" font-size="14.00"> (0)</text>
</g>
<!-- node15 -->
<g id="node16" class="node"><title>node15</title>
<ellipse fill="none" stroke="black" cx="781.106" cy="-335" rx="47.3916" ry="18"/>
<text text-anchor="middle" x="781.106" y="-331.3" font-family="Times New Roman,serif" font-size="14.00">(15) XOR</text>
</g>
<!-- node3&#45;&gt;node15 -->
<g id="edge21" class="edge"><title>node3&#45;&gt;node15</title>
<path fill="none" stroke="black" d="M71.7686,-344.124C100.306,-332.43 145.765,-317 186.938,-317 186.938,-317 186.938,-317 631.214,-317 663.563,-317 699.583,-321.24 728.09,-325.604"/>
<polygon fill="black" stroke="black" points="727.808,-329.103 738.232,-327.21 728.902,-322.189 727.808,-329.103"/>
<text text-anchor="middle" x="405.176" y="-320.8" font-family="Times New Roman,serif" font-size="14.00"> (0)</text>
</g>
<!-- node4 -->
<g id="node5" class="node"><title>node4</title>
<ellipse fill="none" stroke="black" cx="42.2463" cy="-211" rx="42.4939" ry="18"/>
<text text-anchor="middle" x="42.2463" y="-207.3" font-family="Times New Roman,serif" font-size="14.00">(4) Input</text>
</g>
<!-- node4&#45;&gt;node5 -->
<g id="edge2" class="edge"><title>node4&#45;&gt;node5</title>
<path fill="none" stroke="black" d="M82.5107,-205.262C99.5387,-202.773 119.664,-199.832 137.681,-197.199"/>
<polygon fill="black" stroke="black" points="138.333,-200.641 147.721,-195.731 137.32,-193.714 138.333,-200.641"/>
<text text-anchor="middle" x="112.493" y="-204.8" font-family="Times New Roman,serif" font-size="14.00"> (1)</text>
</g>
<!-- node4&#45;&gt;node7 -->
<g id="edge5" class="edge"><title>node4&#45;&gt;node7</title>
<path fill="none" stroke="black" d="M56.1671,-228.277C66.9394,-241.129 83.5452,-257.661 102.493,-265 115.697,-270.115 130.935,-270.667 144.801,-269.369"/>
<polygon fill="black" stroke="black" points="145.602,-272.795 155.08,-268.06 144.718,-265.851 145.602,-272.795"/>
<text text-anchor="middle" x="112.493" y="-272.8" font-family="Times New Roman,serif" font-size="14.00"> (0)</text>
</g>
<!-- node4&#45;&gt;node8 -->
<g id="edge8" class="edge"><title>node4&#45;&gt;node8</title>
<path fill="none" stroke="black" d="M65.6981,-196C89.9143,-179.821 128.641,-153.948 155.794,-135.807"/>
<polygon fill="black" stroke="black" points="157.799,-138.677 164.17,-130.211 153.91,-132.856 157.799,-138.677"/>
<text text-anchor="middle" x="112.493" y="-171.8" font-family="Times New Roman,serif" font-size="14.00"> (1)</text>
</g>
<!-- node5&#45;&gt;node6 -->
<g id="edge3" class="edge"><title>node5&#45;&gt;node6</title>
<path fill="none" stroke="black" d="M230.301,-190C248.212,-190 269.239,-190 287.607,-190"/>
<polygon fill="black" stroke="black" points="287.785,-193.5 297.785,-190 287.785,-186.5 287.785,-193.5"/>
<text text-anchor="middle" x="263.384" y="-193.8" font-family="Times New Roman,serif" font-size="14.00"> (0)</text>
</g>
<!-- node11 -->
<g id="node12" class="node"><title>node11</title>
<ellipse fill="none" stroke="black" cx="479.972" cy="-260" rx="46.5926" ry="18"/>
<text text-anchor="middle" x="479.972" y="-256.3" font-family="Times New Roman,serif" font-size="14.00">(11) AND</text>
</g>
<!-- node6&#45;&gt;node11 -->
<g id="edge13" class="edge"><title>node6&#45;&gt;node11</title>
<path fill="none" stroke="black" d="M360.97,-202.515C383.231,-213.359 415.745,-229.199 441.009,-241.506"/>
<polygon fill="black" stroke="black" points="439.777,-244.799 450.3,-246.032 442.843,-238.506 439.777,-244.799"/>
<text text-anchor="middle" x="405.176" y="-230.8" font-family="Times New Roman,serif" font-size="14.00"> (0)</text>
</g>
<!-- node7&#45;&gt;node11 -->
<g id="edge14" class="edge"><title>node7&#45;&gt;node11</title>
<path fill="none" stroke="black" d="M224.502,-260C274.018,-260 364.237,-260 422.871,-260"/>
<polygon fill="black" stroke="black" points="423.076,-263.5 433.076,-260 423.076,-256.5 423.076,-263.5"/>
<text text-anchor="middle" x="334.28" y="-263.8" font-family="Times New Roman,serif" font-size="14.00"> (1)</text>
</g>
<!-- node8&#45;&gt;node9 -->
<g id="edge9" class="edge"><title>node8&#45;&gt;node9</title>
<path fill="none" stroke="black" d="M211.492,-99.8438C235.817,-83.4965 274.72,-57.3537 301.995,-39.0242"/>
<polygon fill="black" stroke="black" points="304.061,-41.8527 310.409,-33.3699 300.157,-36.0427 304.061,-41.8527"/>
<text text-anchor="middle" x="263.384" y="-72.8" font-family="Times New Roman,serif" font-size="14.00"> (0)</text>
</g>
<!-- node16 -->
<g id="node17" class="node"><title>node16</title>
<ellipse fill="none" stroke="black" cx="1059.34" cy="-18" rx="42.7926" ry="18"/>
<text text-anchor="middle" x="1059.34" y="-14.3" font-family="Times New Roman,serif" font-size="14.00">Output 0</text>
</g>
<!-- node9&#45;&gt;node16 -->
<g id="edge23" class="edge"><title>node9&#45;&gt;node16</title>
<path fill="none" stroke="black" d="M377.407,-18C406.046,-18 444.796,-18 478.972,-18 478.972,-18 478.972,-18 932.997,-18 957.057,-18 983.715,-18 1006.24,-18"/>
<polygon fill="black" stroke="black" points="1006.27,-21.5001 1016.27,-18 1006.27,-14.5001 1006.27,-21.5001"/>
</g>
<!-- node13 -->
<g id="node14" class="node"><title>node13</title>
<ellipse fill="none" stroke="black" cx="781.106" cy="-428" rx="46.5926" ry="18"/>
<text text-anchor="middle" x="781.106" y="-424.3" font-family="Times New Roman,serif" font-size="14.00">(13) AND</text>
</g>
<!-- node10&#45;&gt;node13 -->
<g id="edge17" class="edge"><title>node10&#45;&gt;node13</title>
<path fill="none" stroke="black" d="M235.417,-428C263.708,-428 300.578,-428 333.28,-428 333.28,-428 333.28,-428 631.214,-428 661.813,-428 695.95,-428 723.81,-428"/>
<polygon fill="black" stroke="black" points="724.16,-431.5 734.16,-428 724.16,-424.5 724.16,-431.5"/>
<text text-anchor="middle" x="479.972" y="-431.8" font-family="Times New Roman,serif" font-size="14.00"> (0)</text>
</g>
<!-- node11&#45;&gt;node12 -->
<g id="edge16" class="edge"><title>node11&#45;&gt;node12</title>
<path fill="none" stroke="black" d="M502.212,-276.047C527.861,-295.425 571.137,-328.122 599.939,-349.882"/>
<polygon fill="black" stroke="black" points="597.925,-352.747 608.014,-355.983 602.145,-347.162 597.925,-352.747"/>
<text text-anchor="middle" x="554.768" y="-325.8" font-family="Times New Roman,serif" font-size="14.00"> (1)</text>
</g>
<!-- node12&#45;&gt;node13 -->
<g id="edge18" class="edge"><title>node12&#45;&gt;node13</title>
<path fill="none" stroke="black" d="M668.525,-382.93C683.33,-387.526 700.426,-393.159 715.66,-399 724.15,-402.255 733.125,-406.056 741.593,-409.814"/>
<polygon fill="black" stroke="black" points="740.331,-413.084 750.885,-414.007 743.21,-406.704 740.331,-413.084"/>
<text text-anchor="middle" x="705.66" y="-402.8" font-family="Times New Roman,serif" font-size="14.00"> (1)</text>
</g>
<!-- node12&#45;&gt;node15 -->
<g id="edge22" class="edge"><title>node12&#45;&gt;node15</title>
<path fill="none" stroke="black" d="M670.333,-362.279C688.981,-357.645 711.479,-352.054 731.24,-347.143"/>
<polygon fill="black" stroke="black" points="732.128,-350.529 740.989,-344.721 730.44,-343.736 732.128,-350.529"/>
<text text-anchor="middle" x="705.66" y="-358.8" font-family="Times New Roman,serif" font-size="14.00"> (1)</text>
</g>
<!-- node13&#45;&gt;node14 -->
<g id="edge20" class="edge"><title>node13&#45;&gt;node14</title>
<path fill="none" stroke="black" d="M820.836,-437.625C839.559,-442.277 862.231,-447.911 882.128,-452.856"/>
<polygon fill="black" stroke="black" points="881.394,-456.28 891.943,-455.295 883.082,-449.486 881.394,-456.28"/>
<text text-anchor="middle" x="856.551" y="-451.8" font-family="Times New Roman,serif" font-size="14.00"> (1)</text>
</g>
<!-- node18 -->
<g id="node19" class="node"><title>node18</title>
<ellipse fill="none" stroke="black" cx="1059.34" cy="-465" rx="42.7926" ry="18"/>
<text text-anchor="middle" x="1059.34" y="-461.3" font-family="Times New Roman,serif" font-size="14.00">Output 2</text>
</g>
<!-- node14&#45;&gt;node18 -->
<g id="edge25" class="edge"><title>node14&#45;&gt;node18</title>
<path fill="none" stroke="black" d="M979.67,-465C988.274,-465 997.31,-465 1006.07,-465"/>
<polygon fill="black" stroke="black" points="1006.18,-468.5 1016.18,-465 1006.18,-461.5 1006.18,-468.5"/>
</g>
<!-- node17 -->
<g id="node18" class="node"><title>node17</title>
<ellipse fill="none" stroke="black" cx="1059.34" cy="-335" rx="42.7926" ry="18"/>
<text text-anchor="middle" x="1059.34" y="-331.3" font-family="Times New Roman,serif" font-size="14.00">Output 1</text>
</g>
<!-- node15&#45;&gt;node17 -->
<g id="edge24" class="edge"><title>node15&#45;&gt;node17</title>
<path fill="none" stroke="black" d="M828.652,-335C877.705,-335 954.803,-335 1005.95,-335"/>
<polygon fill="black" stroke="black" points="1006.14,-338.5 1016.14,-335 1006.14,-331.5 1006.14,-338.5"/>
</g>
</g>
</svg>
