<?xml version="1.0" encoding="UTF-8" standalone="no"?>
<!DOCTYPE svg PUBLIC "-//W3C//DTD SVG 1.1//EN"
 "http://www.w3.org/Graphics/SVG/1.1/DTD/svg11.dtd">
<!-- Generated by graphviz version 2.38.0 (20140413.2041)
 -->
<!-- Title: NeuralNetwork Pages: 1 -->
<svg width="288pt" height="163pt"
 viewBox="0.00 0.00 288.00 163.00" xmlns="http://www.w3.org/2000/svg" xmlns:xlink="http://www.w3.org/1999/xlink">
<g id="graph0" class="graph" transform="scale(0.183357 0.183357) rotate(0) translate(4 885)">
<title>NeuralNetwork</title>
<polygon fill="white" stroke="none" points="-4,4 -4,-885 1566.71,-885 1566.71,4 -4,4"/>
<!-- node0 -->
<g id="node1" class="node"><title>node0</title>
<ellipse fill="none" stroke="black" cx="42.2463" cy="-636" rx="42.4939" ry="18"/>
<text text-anchor="middle" x="42.2463" y="-632.3" font-family="Times New Roman,serif" font-size="14.00">(0) Input</text>
</g>
<!-- node11 -->
<g id="node12" class="node"><title>node11</title>
<ellipse fill="none" stroke="black" cx="187.288" cy="-636" rx="46.5926" ry="18"/>
<text text-anchor="middle" x="187.288" y="-632.3" font-family="Times New Roman,serif" font-size="14.00">(11) AND</text>
</g>
<!-- node0&#45;&gt;node11 -->
<g id="edge12" class="edge"><title>node0&#45;&gt;node11</title>
<path fill="none" stroke="black" d="M84.62,-636C98.7655,-636 114.837,-636 129.958,-636"/>
<polygon fill="black" stroke="black" points="130.24,-639.5 140.24,-636 130.24,-632.5 130.24,-639.5"/>
<text text-anchor="middle" x="112.493" y="-639.8" font-family="Times New Roman,serif" font-size="14.00"> (1)</text>
</g>
<!-- node16 -->
<g id="node17" class="node"><title>node16</title>
<ellipse fill="none" stroke="black" cx="638.663" cy="-499" rx="46.5926" ry="18"/>
<text text-anchor="middle" x="638.663" y="-495.3" font-family="Times New Roman,serif" font-size="14.00">(16) AND</text>
</g>
<!-- node0&#45;&gt;node16 -->
<g id="edge22" class="edge"><title>node0&#45;&gt;node16</title>
<path fill="none" stroke="black" d="M70.8022,-622.42C87.5791,-613.002 108.419,-599.095 122.493,-582 135.4,-566.321 124.012,-551.868 140.493,-540 209.754,-490.125 467.069,-492.745 581.813,-496.592"/>
<polygon fill="black" stroke="black" points="582.016,-500.101 592.133,-496.954 582.262,-493.105 582.016,-500.101"/>
<text text-anchor="middle" x="337.53" y="-506.8" font-family="Times New Roman,serif" font-size="14.00"> (1)</text>
</g>
<!-- node18 -->
<g id="node19" class="node"><title>node18</title>
<ellipse fill="none" stroke="black" cx="187.288" cy="-712" rx="46.5926" ry="18"/>
<text text-anchor="middle" x="187.288" y="-708.3" font-family="Times New Roman,serif" font-size="14.00">(18) AND</text>
</g>
<!-- node0&#45;&gt;node18 -->
<g id="edge25" class="edge"><title>node0&#45;&gt;node18</title>
<path fill="none" stroke="black" d="M57.6994,-652.973C68.8,-664.979 85.1297,-680.561 102.493,-690 112.205,-695.28 123.248,-699.342 134.057,-702.449"/>
<polygon fill="black" stroke="black" points="133.31,-705.872 143.872,-705.043 135.098,-699.104 133.31,-705.872"/>
<text text-anchor="middle" x="112.493" y="-702.8" font-family="Times New Roman,serif" font-size="14.00"> (0)</text>
</g>
<!-- node1 -->
<g id="node2" class="node"><title>node1</title>
<ellipse fill="none" stroke="black" cx="42.2463" cy="-333" rx="42.4939" ry="18"/>
<text text-anchor="middle" x="42.2463" y="-329.3" font-family="Times New Roman,serif" font-size="14.00">(1) Input</text>
</g>
<!-- node6 -->
<g id="node7" class="node"><title>node6</title>
<ellipse fill="none" stroke="black" cx="187.288" cy="-426" rx="42.4939" ry="18"/>
<text text-anchor="middle" x="187.288" y="-422.3" font-family="Times New Roman,serif" font-size="14.00">(6) AND</text>
</g>
<!-- node1&#45;&gt;node6 -->
<g id="edge1" class="edge"><title>node1&#45;&gt;node6</title>
<path fill="none" stroke="black" d="M64.0496,-348.437C71.1109,-354.345 78.6768,-361.482 84.4925,-369 95.4381,-383.149 88.5419,-393.803 102.493,-405 111.996,-412.628 123.907,-417.529 135.742,-420.666"/>
<polygon fill="black" stroke="black" points="135.083,-424.105 145.61,-422.907 136.633,-417.279 135.083,-424.105"/>
<text text-anchor="middle" x="112.493" y="-420.8" font-family="Times New Roman,serif" font-size="14.00"> (0)</text>
</g>
<!-- node10 -->
<g id="node11" class="node"><title>node10</title>
<ellipse fill="none" stroke="black" cx="638.663" cy="-284" rx="46.5926" ry="18"/>
<text text-anchor="middle" x="638.663" y="-280.3" font-family="Times New Roman,serif" font-size="14.00">(10) AND</text>
</g>
<!-- node1&#45;&gt;node10 -->
<g id="edge10" class="edge"><title>node1&#45;&gt;node10</title>
<path fill="none" stroke="black" d="M56.0312,-315.845C67.2167,-301.608 84.4575,-281.429 102.493,-267 177.099,-207.31 197.631,-186.114 290.084,-162 412.527,-130.064 479.026,-101.23 573.867,-185 598.589,-206.836 572.129,-230.573 591.867,-257 593.856,-259.662 596.19,-262.109 598.735,-264.35"/>
<polygon fill="black" stroke="black" points="596.764,-267.246 606.86,-270.457 600.97,-261.651 596.764,-267.246"/>
<text text-anchor="middle" x="337.53" y="-165.8" font-family="Times New Roman,serif" font-size="14.00"> (1)</text>
</g>
<!-- node21 -->
<g id="node22" class="node"><title>node21</title>
<ellipse fill="none" stroke="black" cx="187.288" cy="-372" rx="46.5926" ry="18"/>
<text text-anchor="middle" x="187.288" y="-368.3" font-family="Times New Roman,serif" font-size="14.00">(21) AND</text>
</g>
<!-- node1&#45;&gt;node21 -->
<g id="edge32" class="edge"><title>node1&#45;&gt;node21</title>
<path fill="none" stroke="black" d="M78.2383,-342.54C96.4932,-347.518 119.088,-353.678 138.889,-359.077"/>
<polygon fill="black" stroke="black" points="138.083,-362.485 148.652,-361.738 139.925,-355.731 138.083,-362.485"/>
<text text-anchor="middle" x="112.493" y="-357.8" font-family="Times New Roman,serif" font-size="14.00"> (1)</text>
</g>
<!-- node2 -->
<g id="node3" class="node"><title>node2</title>
<ellipse fill="none" stroke="black" cx="42.2463" cy="-71" rx="42.4939" ry="18"/>
<text text-anchor="middle" x="42.2463" y="-67.3" font-family="Times New Roman,serif" font-size="14.00">(2) Input</text>
</g>
<!-- node7 -->
<g id="node8" class="node"><title>node7</title>
<ellipse fill="none" stroke="black" cx="187.288" cy="-480" rx="42.4939" ry="18"/>
<text text-anchor="middle" x="187.288" y="-476.3" font-family="Times New Roman,serif" font-size="14.00">(7) AND</text>
</g>
<!-- node2&#45;&gt;node7 -->
<g id="edge3" class="edge"><title>node2&#45;&gt;node7</title>
<path fill="none" stroke="black" d="M60.1345,-87.8367C68.7369,-97.377 78.5983,-109.984 84.4925,-123 103.966,-166.002 114.796,-285.426 122.493,-332 131.357,-385.642 110.113,-407.909 140.493,-453 142.629,-456.172 145.274,-459.024 148.207,-461.578"/>
<polygon fill="black" stroke="black" points="146.356,-464.561 156.49,-467.652 150.496,-458.916 146.356,-464.561"/>
<text text-anchor="middle" x="112.493" y="-335.8" font-family="Times New Roman,serif" font-size="14.00"> (0)</text>
</g>
<!-- node13 -->
<g id="node14" class="node"><title>node13</title>
<ellipse fill="none" stroke="black" cx="638.663" cy="-338" rx="46.5926" ry="18"/>
<text text-anchor="middle" x="638.663" y="-334.3" font-family="Times New Roman,serif" font-size="14.00">(13) AND</text>
</g>
<!-- node2&#45;&gt;node13 -->
<g id="edge16" class="edge"><title>node2&#45;&gt;node13</title>
<path fill="none" stroke="black" d="M70.4142,-84.4901C115.255,-106.336 207.973,-149.753 290.084,-177 413.18,-217.848 480.745,-154.726 573.867,-245 595.698,-266.163 573.414,-286.835 591.867,-311 593.884,-313.641 596.239,-316.073 598.797,-318.302"/>
<polygon fill="black" stroke="black" points="596.842,-321.21 606.948,-324.391 601.031,-315.602 596.842,-321.21"/>
<text text-anchor="middle" x="337.53" y="-196.8" font-family="Times New Roman,serif" font-size="14.00"> (1)</text>
</g>
<!-- node14 -->
<g id="node15" class="node"><title>node14</title>
<ellipse fill="none" stroke="black" cx="638.663" cy="-230" rx="46.5926" ry="18"/>
<text text-anchor="middle" x="638.663" y="-226.3" font-family="Times New Roman,serif" font-size="14.00">(14) AND</text>
</g>
<!-- node2&#45;&gt;node14 -->
<g id="edge18" class="edge"><title>node2&#45;&gt;node14</title>
<path fill="none" stroke="black" d="M78.2193,-61.4058C106.998,-54.3557 148.977,-46 186.288,-46 186.288,-46 186.288,-46 489.422,-46 568.672,-46 612.733,-150.787 629.583,-202.207"/>
<polygon fill="black" stroke="black" points="626.333,-203.539 632.681,-212.022 633.009,-201.433 626.333,-203.539"/>
<text text-anchor="middle" x="337.53" y="-49.8" font-family="Times New Roman,serif" font-size="14.00"> (1)</text>
</g>
<!-- node22 -->
<g id="node23" class="node"><title>node22</title>
<ellipse fill="none" stroke="black" cx="1090.69" cy="-149" rx="46.5926" ry="18"/>
<text text-anchor="middle" x="1090.69" y="-145.3" font-family="Times New Roman,serif" font-size="14.00">(22) AND</text>
</g>
<!-- node2&#45;&gt;node22 -->
<g id="edge34" class="edge"><title>node2&#45;&gt;node22</title>
<path fill="none" stroke="black" d="M61.6852,-54.889C87.6212,-33.941 137.216,-0 186.288,-0 186.288,-0 186.288,-0 940.796,-0 1008.96,-0 1056.8,-78.9967 1077.77,-121.95"/>
<polygon fill="black" stroke="black" points="1074.63,-123.485 1082.07,-131.027 1080.95,-120.491 1074.63,-123.485"/>
<text text-anchor="middle" x="563.867" y="-3.8" font-family="Times New Roman,serif" font-size="14.00"> (1)</text>
</g>
<!-- node3 -->
<g id="node4" class="node"><title>node3</title>
<ellipse fill="none" stroke="black" cx="42.2463" cy="-573" rx="42.4939" ry="18"/>
<text text-anchor="middle" x="42.2463" y="-569.3" font-family="Times New Roman,serif" font-size="14.00">(3) Input</text>
</g>
<!-- node3&#45;&gt;node6 -->
<g id="edge2" class="edge"><title>node3&#45;&gt;node6</title>
<path fill="none" stroke="black" d="M54.3928,-555.366C70.8845,-530.295 103.815,-483.963 140.493,-453 143.745,-450.254 147.313,-447.621 150.976,-445.149"/>
<polygon fill="black" stroke="black" points="153.013,-448.002 159.593,-439.698 149.271,-442.086 153.013,-448.002"/>
<text text-anchor="middle" x="112.493" y="-492.8" font-family="Times New Roman,serif" font-size="14.00"> (1)</text>
</g>
<!-- node3&#45;&gt;node7 -->
<g id="edge4" class="edge"><title>node3&#45;&gt;node7</title>
<path fill="none" stroke="black" d="M83.5447,-568.751C97.1425,-565.628 111.614,-560.248 122.493,-551 137.037,-538.635 128.243,-526.642 140.493,-512 144.071,-507.722 148.353,-503.752 152.84,-500.167"/>
<polygon fill="black" stroke="black" points="155.049,-502.887 161.035,-494.145 150.904,-497.246 155.049,-502.887"/>
<text text-anchor="middle" x="112.493" y="-566.8" font-family="Times New Roman,serif" font-size="14.00"> (1)</text>
</g>
<!-- node3&#45;&gt;node18 -->
<g id="edge26" class="edge"><title>node3&#45;&gt;node18</title>
<path fill="none" stroke="black" d="M64.7604,-588.579C71.7224,-594.399 79.0439,-601.445 84.4925,-609 96.6116,-625.804 89.5796,-635.798 102.493,-652 110.07,-661.507 133.214,-677.827 153.264,-691.049"/>
<polygon fill="black" stroke="black" points="151.613,-694.151 161.901,-696.683 155.437,-688.288 151.613,-694.151"/>
<text text-anchor="middle" x="112.493" y="-673.8" font-family="Times New Roman,serif" font-size="14.00"> (1)</text>
</g>
<!-- node4 -->
<g id="node5" class="node"><title>node4</title>
<ellipse fill="none" stroke="black" cx="42.2463" cy="-396" rx="42.4939" ry="18"/>
<text text-anchor="middle" x="42.2463" y="-392.3" font-family="Times New Roman,serif" font-size="14.00">(4) Input</text>
</g>
<!-- node8 -->
<g id="node9" class="node"><title>node8</title>
<ellipse fill="none" stroke="black" cx="337.53" cy="-333" rx="42.4939" ry="18"/>
<text text-anchor="middle" x="337.53" y="-329.3" font-family="Times New Roman,serif" font-size="14.00">(8) AND</text>
</g>
<!-- node4&#45;&gt;node8 -->
<g id="edge6" class="edge"><title>node4&#45;&gt;node8</title>
<path fill="none" stroke="black" d="M70.5002,-382.282C86.3721,-373.71 106.368,-361.876 122.493,-349 131.582,-341.741 129.807,-334.596 140.493,-330 188.631,-309.294 249.769,-314.577 290.861,-322.08"/>
<polygon fill="black" stroke="black" points="290.373,-325.55 300.857,-324.02 291.707,-318.678 290.373,-325.55"/>
<text text-anchor="middle" x="187.288" y="-333.8" font-family="Times New Roman,serif" font-size="14.00"> (1)</text>
</g>
<!-- node4&#45;&gt;node11 -->
<g id="edge11" class="edge"><title>node4&#45;&gt;node11</title>
<path fill="none" stroke="black" d="M49.9775,-413.719C59.5349,-437.609 78.5652,-480.856 102.493,-513 109.813,-522.835 116.047,-521.571 122.493,-532 136.906,-555.321 126.277,-567.558 140.493,-591 145.228,-598.809 151.624,-606.23 158.132,-612.71"/>
<polygon fill="black" stroke="black" points="156.047,-615.554 165.731,-619.852 160.841,-610.453 156.047,-615.554"/>
<text text-anchor="middle" x="112.493" y="-535.8" font-family="Times New Roman,serif" font-size="14.00"> (0)</text>
</g>
<!-- node12 -->
<g id="node13" class="node"><title>node12</title>
<ellipse fill="none" stroke="black" cx="488.422" cy="-338" rx="47.3916" ry="18"/>
<text text-anchor="middle" x="488.422" y="-334.3" font-family="Times New Roman,serif" font-size="14.00">(12) XOR</text>
</g>
<!-- node4&#45;&gt;node12 -->
<g id="edge14" class="edge"><title>node4&#45;&gt;node12</title>
<path fill="none" stroke="black" d="M65.5861,-380.96C72.6142,-375.183 79.7664,-368.027 84.4925,-360 103.865,-327.099 72.8005,-300.003 102.493,-276 107.59,-271.879 248.913,-236.201 422.976,-295 436.248,-299.484 449.389,-307.437 460.308,-315.294"/>
<polygon fill="black" stroke="black" points="458.456,-318.281 468.548,-321.507 462.67,-312.692 458.456,-318.281"/>
<text text-anchor="middle" x="262.084" y="-267.8" font-family="Times New Roman,serif" font-size="14.00"> (1)</text>
</g>
<!-- node4&#45;&gt;node21 -->
<g id="edge31" class="edge"><title>node4&#45;&gt;node21</title>
<path fill="none" stroke="black" d="M81.9555,-389.505C98.0018,-386.813 116.861,-383.649 134.101,-380.756"/>
<polygon fill="black" stroke="black" points="134.747,-384.197 144.03,-379.09 133.589,-377.293 134.747,-384.197"/>
<text text-anchor="middle" x="112.493" y="-389.8" font-family="Times New Roman,serif" font-size="14.00"> (0)</text>
</g>
<!-- node23 -->
<g id="node24" class="node"><title>node23</title>
<ellipse fill="none" stroke="black" cx="337.53" cy="-571" rx="47.3916" ry="18"/>
<text text-anchor="middle" x="337.53" y="-567.3" font-family="Times New Roman,serif" font-size="14.00">(23) XOR</text>
</g>
<!-- node4&#45;&gt;node23 -->
<g id="edge35" class="edge"><title>node4&#45;&gt;node23</title>
<path fill="none" stroke="black" d="M51.1863,-413.946C60.859,-434.119 78.8755,-466.816 102.493,-488 153.188,-533.474 230.433,-554.431 282.159,-563.813"/>
<polygon fill="black" stroke="black" points="281.698,-567.285 292.148,-565.539 282.89,-560.387 281.698,-567.285"/>
<text text-anchor="middle" x="187.288" y="-556.8" font-family="Times New Roman,serif" font-size="14.00"> (0)</text>
</g>
<!-- node5 -->
<g id="node6" class="node"><title>node5</title>
<ellipse fill="none" stroke="black" cx="42.2463" cy="-150" rx="42.4939" ry="18"/>
<text text-anchor="middle" x="42.2463" y="-146.3" font-family="Times New Roman,serif" font-size="14.00">(5) Input</text>
</g>
<!-- node9 -->
<g id="node10" class="node"><title>node9</title>
<ellipse fill="none" stroke="black" cx="488.422" cy="-272" rx="42.7926" ry="18"/>
<text text-anchor="middle" x="488.422" y="-268.3" font-family="Times New Roman,serif" font-size="14.00">(9) XOR</text>
</g>
<!-- node5&#45;&gt;node9 -->
<g id="edge8" class="edge"><title>node5&#45;&gt;node9</title>
<path fill="none" stroke="black" d="M71.5366,-162.973C81.2307,-167.14 92.2236,-171.562 102.493,-175 221.551,-214.862 366.098,-247.113 439.56,-262.398"/>
<polygon fill="black" stroke="black" points="438.942,-265.845 449.444,-264.442 440.359,-258.99 438.942,-265.845"/>
<text text-anchor="middle" x="262.084" y="-227.8" font-family="Times New Roman,serif" font-size="14.00"> (1)</text>
</g>
<!-- node5&#45;&gt;node10 -->
<g id="edge9" class="edge"><title>node5&#45;&gt;node10</title>
<path fill="none" stroke="black" d="M67.0548,-135.237C94.6645,-119.554 142.061,-97 186.288,-97 186.288,-97 186.288,-97 489.422,-97 537.609,-97 551.219,-122.467 573.867,-165 593.45,-201.775 567.807,-222.985 591.867,-257 593.786,-259.713 596.071,-262.196 598.581,-264.462"/>
<polygon fill="black" stroke="black" points="596.571,-267.331 606.645,-270.614 600.817,-261.766 596.571,-267.331"/>
<text text-anchor="middle" x="337.53" y="-100.8" font-family="Times New Roman,serif" font-size="14.00"> (0)</text>
</g>
<!-- node6&#45;&gt;node8 -->
<g id="edge5" class="edge"><title>node6&#45;&gt;node8</title>
<path fill="none" stroke="black" d="M213.114,-411.605C219.943,-407.58 227.328,-403.166 234.084,-399 258.243,-384.104 285.214,-366.697 305.415,-353.5"/>
<polygon fill="black" stroke="black" points="307.459,-356.345 313.908,-347.94 303.624,-350.489 307.459,-356.345"/>
<text text-anchor="middle" x="262.084" y="-390.8" font-family="Times New Roman,serif" font-size="14.00"> (0)</text>
</g>
<!-- node19 -->
<g id="node20" class="node"><title>node19</title>
<ellipse fill="none" stroke="black" cx="337.53" cy="-631" rx="47.3916" ry="18"/>
<text text-anchor="middle" x="337.53" y="-627.3" font-family="Times New Roman,serif" font-size="14.00">(19) XOR</text>
</g>
<!-- node6&#45;&gt;node19 -->
<g id="edge28" class="edge"><title>node6&#45;&gt;node19</title>
<path fill="none" stroke="black" d="M217.168,-439.044C223.358,-442.858 229.428,-447.509 234.084,-453 278.764,-505.69 247.684,-543.459 290.084,-598 293.499,-602.393 297.656,-606.448 302.063,-610.103"/>
<polygon fill="black" stroke="black" points="300.076,-612.988 310.162,-616.234 304.301,-607.407 300.076,-612.988"/>
<text text-anchor="middle" x="262.084" y="-571.8" font-family="Times New Roman,serif" font-size="14.00"> (1)</text>
</g>
<!-- node24 -->
<g id="node25" class="node"><title>node24</title>
<ellipse fill="none" stroke="black" cx="788.905" cy="-453" rx="47.3916" ry="18"/>
<text text-anchor="middle" x="788.905" y="-449.3" font-family="Times New Roman,serif" font-size="14.00">(24) XOR</text>
</g>
<!-- node7&#45;&gt;node24 -->
<g id="edge38" class="edge"><title>node7&#45;&gt;node24</title>
<path fill="none" stroke="black" d="M222.711,-470.1C252.551,-462.394 297.029,-453 336.53,-453 336.53,-453 336.53,-453 639.663,-453 669.787,-453 703.354,-453 730.918,-453"/>
<polygon fill="black" stroke="black" points="731.169,-456.5 741.169,-453 731.169,-449.5 731.169,-456.5"/>
<text text-anchor="middle" x="488.422" y="-456.8" font-family="Times New Roman,serif" font-size="14.00"> (1)</text>
</g>
<!-- node8&#45;&gt;node9 -->
<g id="edge7" class="edge"><title>node8&#45;&gt;node9</title>
<path fill="none" stroke="black" d="M368.66,-320.656C391.39,-311.343 422.786,-298.481 447.588,-288.32"/>
<polygon fill="black" stroke="black" points="449.154,-291.46 457.081,-284.43 446.5,-284.983 449.154,-291.46"/>
<text text-anchor="middle" x="412.976" y="-310.8" font-family="Times New Roman,serif" font-size="14.00"> (0)</text>
</g>
<!-- node8&#45;&gt;node12 -->
<g id="edge13" class="edge"><title>node8&#45;&gt;node12</title>
<path fill="none" stroke="black" d="M380.005,-334.393C395.681,-334.919 413.802,-335.528 430.643,-336.093"/>
<polygon fill="black" stroke="black" points="430.818,-339.601 440.93,-336.439 431.053,-332.605 430.818,-339.601"/>
<text text-anchor="middle" x="412.976" y="-339.8" font-family="Times New Roman,serif" font-size="14.00"> (0)</text>
</g>
<!-- node9&#45;&gt;node14 -->
<g id="edge17" class="edge"><title>node9&#45;&gt;node14</title>
<path fill="none" stroke="black" d="M524.553,-262.047C544.288,-256.455 569.178,-249.403 590.582,-243.339"/>
<polygon fill="black" stroke="black" points="591.787,-246.635 600.454,-240.542 589.879,-239.901 591.787,-246.635"/>
<text text-anchor="middle" x="563.867" y="-257.8" font-family="Times New Roman,serif" font-size="14.00"> (0)</text>
</g>
<!-- node9&#45;&gt;node16 -->
<g id="edge21" class="edge"><title>node9&#45;&gt;node16</title>
<path fill="none" stroke="black" d="M513.196,-286.956C521.574,-293.376 530.286,-301.579 535.867,-311 556.66,-346.095 536.036,-364.312 553.867,-401 567.886,-429.844 592.457,-457.095 611.38,-475.504"/>
<polygon fill="black" stroke="black" points="609.177,-478.239 618.837,-482.59 613.999,-473.164 609.177,-478.239"/>
<text text-anchor="middle" x="563.867" y="-437.8" font-family="Times New Roman,serif" font-size="14.00"> (0)</text>
</g>
<!-- node15 -->
<g id="node16" class="node"><title>node15</title>
<ellipse fill="none" stroke="black" cx="788.905" cy="-337" rx="47.3916" ry="18"/>
<text text-anchor="middle" x="788.905" y="-333.3" font-family="Times New Roman,serif" font-size="14.00">(15) XOR</text>
</g>
<!-- node10&#45;&gt;node15 -->
<g id="edge20" class="edge"><title>node10&#45;&gt;node15</title>
<path fill="none" stroke="black" d="M673.673,-296.159C694.597,-303.64 721.623,-313.303 744.134,-321.351"/>
<polygon fill="black" stroke="black" points="743.202,-324.735 753.797,-324.806 745.559,-318.143 743.202,-324.735"/>
<text text-anchor="middle" x="713.459" y="-317.8" font-family="Times New Roman,serif" font-size="14.00"> (1)</text>
</g>
<!-- node17 -->
<g id="node18" class="node"><title>node17</title>
<ellipse fill="none" stroke="black" cx="939.796" cy="-324" rx="46.5926" ry="18"/>
<text text-anchor="middle" x="939.796" y="-320.3" font-family="Times New Roman,serif" font-size="14.00">(17) AND</text>
</g>
<!-- node10&#45;&gt;node17 -->
<g id="edge24" class="edge"><title>node10&#45;&gt;node17</title>
<path fill="none" stroke="black" d="M685.683,-283.726C725.746,-284.163 785.248,-286.445 836.351,-295 855.732,-298.245 876.684,-303.796 894.559,-309.178"/>
<polygon fill="black" stroke="black" points="893.556,-312.531 904.144,-312.135 895.62,-305.842 893.556,-312.531"/>
<text text-anchor="middle" x="788.905" y="-298.8" font-family="Times New Roman,serif" font-size="14.00"> (1)</text>
</g>
<!-- node28 -->
<g id="node29" class="node"><title>node28</title>
<ellipse fill="none" stroke="black" cx="788.905" cy="-610" rx="40.8928" ry="18"/>
<text text-anchor="middle" x="788.905" y="-606.3" font-family="Times New Roman,serif" font-size="14.00">(28) OR</text>
</g>
<!-- node10&#45;&gt;node28 -->
<g id="edge45" class="edge"><title>node10&#45;&gt;node28</title>
<path fill="none" stroke="black" d="M671.097,-297.107C676.706,-300.807 681.89,-305.395 685.459,-311 730.306,-381.429 673.188,-420.185 703.459,-498 716.826,-532.362 743.92,-565.255 763.828,-586.397"/>
<polygon fill="black" stroke="black" points="761.342,-588.86 770.799,-593.636 766.384,-584.005 761.342,-588.86"/>
<text text-anchor="middle" x="713.459" y="-539.8" font-family="Times New Roman,serif" font-size="14.00"> (1)</text>
</g>
<!-- node11&#45;&gt;node19 -->
<g id="edge27" class="edge"><title>node11&#45;&gt;node19</title>
<path fill="none" stroke="black" d="M233.975,-634.459C248.491,-633.969 264.721,-633.422 279.911,-632.91"/>
<polygon fill="black" stroke="black" points="280.351,-636.397 290.227,-632.562 280.115,-629.401 280.351,-636.397"/>
<text text-anchor="middle" x="262.084" y="-637.8" font-family="Times New Roman,serif" font-size="14.00"> (0)</text>
</g>
<!-- node26 -->
<g id="node27" class="node"><title>node26</title>
<ellipse fill="none" stroke="black" cx="1090.69" cy="-458" rx="46.5926" ry="18"/>
<text text-anchor="middle" x="1090.69" y="-454.3" font-family="Times New Roman,serif" font-size="14.00">(26) AND</text>
</g>
<!-- node11&#45;&gt;node26 -->
<g id="edge42" class="edge"><title>node11&#45;&gt;node26</title>
<path fill="none" stroke="black" d="M203.105,-653.189C214.937,-665.51 232.699,-681.101 252.084,-688 260.458,-690.981 263.204,-688.4 272.084,-688 523.636,-676.655 590.927,-693.342 836.351,-637 906.221,-620.96 928.761,-621.463 987.242,-580 1023.93,-553.987 1055.35,-511.794 1073.38,-484.473"/>
<polygon fill="black" stroke="black" points="1076.49,-486.121 1078.98,-475.823 1070.61,-482.321 1076.49,-486.121"/>
<text text-anchor="middle" x="638.663" y="-680.8" font-family="Times New Roman,serif" font-size="14.00"> (1)</text>
</g>
<!-- node30 -->
<g id="node31" class="node"><title>node30</title>
<ellipse fill="none" stroke="black" cx="939.796" cy="-749" rx="46.5926" ry="18"/>
<text text-anchor="middle" x="939.796" y="-745.3" font-family="Times New Roman,serif" font-size="14.00">(30) AND</text>
</g>
<!-- node11&#45;&gt;node30 -->
<g id="edge48" class="edge"><title>node11&#45;&gt;node30</title>
<path fill="none" stroke="black" d="M205.833,-652.848C214.816,-661.933 225.614,-673.596 234.084,-685 243.584,-697.79 238.603,-707.51 252.084,-716 458.179,-845.782 772.02,-789.637 890.902,-761.507"/>
<polygon fill="black" stroke="black" points="891.891,-764.869 900.793,-759.124 890.251,-758.064 891.891,-764.869"/>
<text text-anchor="middle" x="563.867" y="-800.8" font-family="Times New Roman,serif" font-size="14.00"> (0)</text>
</g>
<!-- node12&#45;&gt;node13 -->
<g id="edge15" class="edge"><title>node12&#45;&gt;node13</title>
<path fill="none" stroke="black" d="M535.919,-338C550.407,-338 566.538,-338 581.608,-338"/>
<polygon fill="black" stroke="black" points="581.839,-341.5 591.839,-338 581.839,-334.5 581.839,-341.5"/>
<text text-anchor="middle" x="563.867" y="-341.8" font-family="Times New Roman,serif" font-size="14.00"> (0)</text>
</g>
<!-- node13&#45;&gt;node15 -->
<g id="edge19" class="edge"><title>node13&#45;&gt;node15</title>
<path fill="none" stroke="black" d="M685.755,-337.689C700.119,-337.592 716.13,-337.484 731.136,-337.383"/>
<polygon fill="black" stroke="black" points="731.355,-340.882 741.331,-337.314 731.307,-333.882 731.355,-340.882"/>
<text text-anchor="middle" x="713.459" y="-341.8" font-family="Times New Roman,serif" font-size="14.00"> (0)</text>
</g>
<!-- node20 -->
<g id="node21" class="node"><title>node20</title>
<ellipse fill="none" stroke="black" cx="788.905" cy="-703" rx="46.5926" ry="18"/>
<text text-anchor="middle" x="788.905" y="-699.3" font-family="Times New Roman,serif" font-size="14.00">(20) AND</text>
</g>
<!-- node14&#45;&gt;node20 -->
<g id="edge29" class="edge"><title>node14&#45;&gt;node20</title>
<path fill="none" stroke="black" d="M670.745,-243.341C676.379,-247.024 681.663,-251.546 685.459,-257 711.258,-294.064 694.944,-312.651 703.459,-357 711.842,-400.656 716.818,-411.045 723.459,-455 735.602,-535.371 713.137,-560.81 741.459,-637 746.959,-651.795 756.613,-666.35 765.699,-678.011"/>
<polygon fill="black" stroke="black" points="763.127,-680.396 772.148,-685.952 768.561,-675.983 763.127,-680.396"/>
<text text-anchor="middle" x="713.459" y="-458.8" font-family="Times New Roman,serif" font-size="14.00"> (0)</text>
</g>
<!-- node32 -->
<g id="node33" class="node"><title>node32</title>
<ellipse fill="none" stroke="black" cx="1090.69" cy="-404" rx="46.5926" ry="18"/>
<text text-anchor="middle" x="1090.69" y="-400.3" font-family="Times New Roman,serif" font-size="14.00">(32) AND</text>
</g>
<!-- node14&#45;&gt;node32 -->
<g id="edge52" class="edge"><title>node14&#45;&gt;node32</title>
<path fill="none" stroke="black" d="M685.666,-230.155C755.15,-232.236 889.157,-243.571 987.242,-297 1023.2,-316.589 1054.06,-353.204 1072.25,-378.087"/>
<polygon fill="black" stroke="black" points="1069.49,-380.242 1078.15,-386.352 1075.19,-376.178 1069.49,-380.242"/>
<text text-anchor="middle" x="864.351" y="-258.8" font-family="Times New Roman,serif" font-size="14.00"> (0)</text>
</g>
<!-- node33 -->
<g id="node34" class="node"><title>node33</title>
<ellipse fill="none" stroke="black" cx="1241.58" cy="-195" rx="40.8928" ry="18"/>
<text text-anchor="middle" x="1241.58" y="-191.3" font-family="Times New Roman,serif" font-size="14.00">(33) OR</text>
</g>
<!-- node14&#45;&gt;node33 -->
<g id="edge54" class="edge"><title>node14&#45;&gt;node33</title>
<path fill="none" stroke="black" d="M672.696,-217.562C702.397,-207.502 747.446,-195 787.905,-195 787.905,-195 787.905,-195 1091.69,-195 1124.49,-195 1161.37,-195 1190.21,-195"/>
<polygon fill="black" stroke="black" points="1190.45,-198.5 1200.45,-195 1190.45,-191.5 1190.45,-198.5"/>
<text text-anchor="middle" x="939.796" y="-198.8" font-family="Times New Roman,serif" font-size="14.00"> (0)</text>
</g>
<!-- node15&#45;&gt;node17 -->
<g id="edge23" class="edge"><title>node15&#45;&gt;node17</title>
<path fill="none" stroke="black" d="M835.386,-333.029C850.68,-331.694 867.905,-330.19 883.847,-328.798"/>
<polygon fill="black" stroke="black" points="884.447,-332.259 894.105,-327.902 883.839,-325.285 884.447,-332.259"/>
<text text-anchor="middle" x="864.351" y="-335.8" font-family="Times New Roman,serif" font-size="14.00"> (0)</text>
</g>
<!-- node31 -->
<g id="node32" class="node"><title>node31</title>
<ellipse fill="none" stroke="black" cx="939.796" cy="-695" rx="47.3916" ry="18"/>
<text text-anchor="middle" x="939.796" y="-691.3" font-family="Times New Roman,serif" font-size="14.00">(31) XOR</text>
</g>
<!-- node15&#45;&gt;node31 -->
<g id="edge50" class="edge"><title>node15&#45;&gt;node31</title>
<path fill="none" stroke="black" d="M801.641,-354.544C812.612,-371.9 828.453,-399.619 836.351,-426 859.155,-502.174 821.607,-531.54 854.351,-604 866.621,-631.153 890.266,-655.518 909.422,-672.188"/>
<polygon fill="black" stroke="black" points="907.411,-675.071 917.311,-678.846 911.927,-669.721 907.411,-675.071"/>
<text text-anchor="middle" x="864.351" y="-639.8" font-family="Times New Roman,serif" font-size="14.00"> (0)</text>
</g>
<!-- node16&#45;&gt;node24 -->
<g id="edge37" class="edge"><title>node16&#45;&gt;node24</title>
<path fill="none" stroke="black" d="M675.548,-487.865C695.447,-481.69 720.409,-473.944 741.748,-467.323"/>
<polygon fill="black" stroke="black" points="743.065,-470.579 751.579,-464.272 740.991,-463.893 743.065,-470.579"/>
<text text-anchor="middle" x="713.459" y="-482.8" font-family="Times New Roman,serif" font-size="14.00"> (0)</text>
</g>
<!-- node17&#45;&gt;node22 -->
<g id="edge33" class="edge"><title>node17&#45;&gt;node22</title>
<path fill="none" stroke="black" d="M955.344,-306.902C981.807,-275.798 1037.91,-209.853 1068.58,-173.806"/>
<polygon fill="black" stroke="black" points="1071.27,-176.052 1075.08,-166.168 1065.94,-171.516 1071.27,-176.052"/>
<text text-anchor="middle" x="1015.24" y="-250.8" font-family="Times New Roman,serif" font-size="14.00"> (0)</text>
</g>
<!-- node17&#45;&gt;node26 -->
<g id="edge41" class="edge"><title>node17&#45;&gt;node26</title>
<path fill="none" stroke="black" d="M964.508,-339.382C972.137,-344.835 980.383,-351.293 987.242,-358 1016.48,-386.588 1012.54,-403.991 1043.24,-431 1046.07,-433.487 1049.16,-435.862 1052.36,-438.097"/>
<polygon fill="black" stroke="black" points="1050.69,-441.182 1060.99,-443.67 1054.49,-435.303 1050.69,-441.182"/>
<text text-anchor="middle" x="1015.24" y="-415.8" font-family="Times New Roman,serif" font-size="14.00"> (0)</text>
</g>
<!-- node18&#45;&gt;node20 -->
<g id="edge30" class="edge"><title>node18&#45;&gt;node20</title>
<path fill="none" stroke="black" d="M233.578,-715.191C239.793,-715.526 246.095,-715.812 252.084,-716 260.969,-716.278 263.196,-716.112 272.084,-716 439.362,-713.892 637.081,-707.942 731.811,-704.877"/>
<polygon fill="black" stroke="black" points="732.143,-708.368 742.023,-704.544 731.915,-701.371 732.143,-708.368"/>
<text text-anchor="middle" x="488.422" y="-715.8" font-family="Times New Roman,serif" font-size="14.00"> (1)</text>
</g>
<!-- node18&#45;&gt;node23 -->
<g id="edge36" class="edge"><title>node18&#45;&gt;node23</title>
<path fill="none" stroke="black" d="M215.217,-697.502C233.403,-686.536 256.793,-669.974 272.084,-650 285.43,-632.568 276.572,-621.303 290.084,-604 293.509,-599.615 297.671,-595.563 302.081,-591.911"/>
<polygon fill="black" stroke="black" points="304.319,-594.607 310.181,-585.781 300.095,-589.025 304.319,-594.607"/>
<text text-anchor="middle" x="262.084" y="-674.8" font-family="Times New Roman,serif" font-size="14.00"> (1)</text>
</g>
<!-- node38 -->
<g id="node39" class="node"><title>node38</title>
<ellipse fill="none" stroke="black" cx="1519.81" cy="-863" rx="42.7926" ry="18"/>
<text text-anchor="middle" x="1519.81" y="-859.3" font-family="Times New Roman,serif" font-size="14.00">Output 0</text>
</g>
<!-- node18&#45;&gt;node38 -->
<g id="edge64" class="edge"><title>node18&#45;&gt;node38</title>
<path fill="none" stroke="black" d="M195.651,-729.915C213.415,-769.913 262.689,-863 336.53,-863 336.53,-863 336.53,-863 1393.47,-863 1417.53,-863 1444.19,-863 1466.71,-863"/>
<polygon fill="black" stroke="black" points="1466.75,-866.5 1476.75,-863 1466.75,-859.5 1466.75,-866.5"/>
</g>
<!-- node25 -->
<g id="node26" class="node"><title>node25</title>
<ellipse fill="none" stroke="black" cx="488.422" cy="-608" rx="40.8928" ry="18"/>
<text text-anchor="middle" x="488.422" y="-604.3" font-family="Times New Roman,serif" font-size="14.00">(25) OR</text>
</g>
<!-- node19&#45;&gt;node25 -->
<g id="edge40" class="edge"><title>node19&#45;&gt;node25</title>
<path fill="none" stroke="black" d="M381.996,-624.286C399.957,-621.511 420.846,-618.284 439.27,-615.438"/>
<polygon fill="black" stroke="black" points="439.869,-618.887 449.217,-613.902 438.8,-611.969 439.869,-618.887"/>
<text text-anchor="middle" x="412.976" y="-624.8" font-family="Times New Roman,serif" font-size="14.00"> (1)</text>
</g>
<!-- node39 -->
<g id="node40" class="node"><title>node39</title>
<ellipse fill="none" stroke="black" cx="1519.81" cy="-809" rx="42.7926" ry="18"/>
<text text-anchor="middle" x="1519.81" y="-805.3" font-family="Times New Roman,serif" font-size="14.00">Output 1</text>
</g>
<!-- node19&#45;&gt;node39 -->
<g id="edge65" class="edge"><title>node19&#45;&gt;node39</title>
<path fill="none" stroke="black" d="M374.195,-642.568C414.292,-656.027 480.968,-679.777 535.867,-706 617.855,-745.162 621.599,-809 712.459,-809 712.459,-809 712.459,-809 1393.47,-809 1417.53,-809 1444.19,-809 1466.71,-809"/>
<polygon fill="black" stroke="black" points="1466.75,-812.5 1476.75,-809 1466.75,-805.5 1466.75,-812.5"/>
</g>
<!-- node20&#45;&gt;node31 -->
<g id="edge51" class="edge"><title>node20&#45;&gt;node31</title>
<path fill="none" stroke="black" d="M835.386,-700.556C850.259,-699.757 866.958,-698.86 882.528,-698.023"/>
<polygon fill="black" stroke="black" points="882.768,-701.516 892.566,-697.484 882.393,-694.526 882.768,-701.516"/>
<text text-anchor="middle" x="864.351" y="-703.8" font-family="Times New Roman,serif" font-size="14.00"> (1)</text>
</g>
<!-- node34 -->
<g id="node35" class="node"><title>node34</title>
<ellipse fill="none" stroke="black" cx="939.796" cy="-385" rx="47.3916" ry="18"/>
<text text-anchor="middle" x="939.796" y="-381.3" font-family="Times New Roman,serif" font-size="14.00">(34) XOR</text>
</g>
<!-- node21&#45;&gt;node34 -->
<g id="edge57" class="edge"><title>node21&#45;&gt;node34</title>
<path fill="none" stroke="black" d="M231.661,-377.816C261.169,-381.277 301.136,-385 336.53,-385 336.53,-385 336.53,-385 789.905,-385 820.275,-385 854.13,-385 881.874,-385"/>
<polygon fill="black" stroke="black" points="882.188,-388.5 892.188,-385 882.188,-381.5 882.188,-388.5"/>
<text text-anchor="middle" x="563.867" y="-388.8" font-family="Times New Roman,serif" font-size="14.00"> (1)</text>
</g>
<!-- node22&#45;&gt;node33 -->
<g id="edge55" class="edge"><title>node22&#45;&gt;node33</title>
<path fill="none" stroke="black" d="M1134.26,-155.643C1147.81,-158.268 1162.75,-161.702 1176.13,-166 1185.67,-169.063 1195.68,-173.121 1204.89,-177.229"/>
<polygon fill="black" stroke="black" points="1203.6,-180.487 1214.14,-181.488 1206.52,-174.128 1203.6,-180.487"/>
<text text-anchor="middle" x="1166.13" y="-169.8" font-family="Times New Roman,serif" font-size="14.00"> (1)</text>
</g>
<!-- node23&#45;&gt;node25 -->
<g id="edge39" class="edge"><title>node23&#45;&gt;node25</title>
<path fill="none" stroke="black" d="M377.649,-580.721C397.567,-585.671 421.877,-591.712 442.552,-596.85"/>
<polygon fill="black" stroke="black" points="441.826,-600.276 452.375,-599.291 443.514,-593.482 441.826,-600.276"/>
<text text-anchor="middle" x="412.976" y="-595.8" font-family="Times New Roman,serif" font-size="14.00"> (0)</text>
</g>
<!-- node29 -->
<g id="node30" class="node"><title>node29</title>
<ellipse fill="none" stroke="black" cx="939.796" cy="-553" rx="47.3916" ry="18"/>
<text text-anchor="middle" x="939.796" y="-549.3" font-family="Times New Roman,serif" font-size="14.00">(29) XOR</text>
</g>
<!-- node23&#45;&gt;node29 -->
<g id="edge46" class="edge"><title>node23&#45;&gt;node29</title>
<path fill="none" stroke="black" d="M380.403,-563.21C410.151,-558.345 451.099,-553 487.422,-553 487.422,-553 487.422,-553 789.905,-553 820.275,-553 854.13,-553 881.874,-553"/>
<polygon fill="black" stroke="black" points="882.188,-556.5 892.188,-553 882.188,-549.5 882.188,-556.5"/>
<text text-anchor="middle" x="638.663" y="-556.8" font-family="Times New Roman,serif" font-size="14.00"> (0)</text>
</g>
<!-- node24&#45;&gt;node34 -->
<g id="edge56" class="edge"><title>node24&#45;&gt;node34</title>
<path fill="none" stroke="black" d="M820.035,-439.239C842.941,-428.778 874.647,-414.298 899.538,-402.93"/>
<polygon fill="black" stroke="black" points="901.069,-406.078 908.711,-398.74 898.161,-399.711 901.069,-406.078"/>
<text text-anchor="middle" x="864.351" y="-427.8" font-family="Times New Roman,serif" font-size="14.00"> (0)</text>
</g>
<!-- node27 -->
<g id="node28" class="node"><title>node27</title>
<ellipse fill="none" stroke="black" cx="638.663" cy="-620" rx="46.2923" ry="18"/>
<text text-anchor="middle" x="638.663" y="-616.3" font-family="Times New Roman,serif" font-size="14.00">(27) NEG</text>
</g>
<!-- node25&#45;&gt;node27 -->
<g id="edge43" class="edge"><title>node25&#45;&gt;node27</title>
<path fill="none" stroke="black" d="M528.758,-611.184C545.471,-612.537 565.236,-614.137 583.309,-615.6"/>
<polygon fill="black" stroke="black" points="583.181,-619.101 593.431,-616.419 583.746,-612.124 583.181,-619.101"/>
<text text-anchor="middle" x="563.867" y="-618.8" font-family="Times New Roman,serif" font-size="14.00"> (0)</text>
</g>
<!-- node36 -->
<g id="node37" class="node"><title>node36</title>
<ellipse fill="none" stroke="black" cx="1241.58" cy="-435" rx="47.3916" ry="18"/>
<text text-anchor="middle" x="1241.58" y="-431.3" font-family="Times New Roman,serif" font-size="14.00">(36) XOR</text>
</g>
<!-- node26&#45;&gt;node36 -->
<g id="edge60" class="edge"><title>node26&#45;&gt;node36</title>
<path fill="none" stroke="black" d="M1134.35,-451.409C1150.88,-448.857 1169.97,-445.908 1187.37,-443.219"/>
<polygon fill="black" stroke="black" points="1188.04,-446.657 1197.39,-441.672 1186.97,-439.739 1188.04,-446.657"/>
<text text-anchor="middle" x="1166.13" y="-451.8" font-family="Times New Roman,serif" font-size="14.00"> (0)</text>
</g>
<!-- node27&#45;&gt;node28 -->
<g id="edge44" class="edge"><title>node27&#45;&gt;node28</title>
<path fill="none" stroke="black" d="M684.543,-616.973C701.339,-615.84 720.52,-614.546 737.762,-613.383"/>
<polygon fill="black" stroke="black" points="738.466,-616.843 748.208,-612.678 737.995,-609.859 738.466,-616.843"/>
<text text-anchor="middle" x="713.459" y="-619.8" font-family="Times New Roman,serif" font-size="14.00"> (0)</text>
</g>
<!-- node28&#45;&gt;node29 -->
<g id="edge47" class="edge"><title>node28&#45;&gt;node29</title>
<path fill="none" stroke="black" d="M820.395,-598.328C842.229,-589.969 871.923,-578.601 896.112,-569.341"/>
<polygon fill="black" stroke="black" points="897.674,-572.491 905.761,-565.647 895.171,-565.953 897.674,-572.491"/>
<text text-anchor="middle" x="864.351" y="-588.8" font-family="Times New Roman,serif" font-size="14.00"> (1)</text>
</g>
<!-- node28&#45;&gt;node30 -->
<g id="edge49" class="edge"><title>node28&#45;&gt;node30</title>
<path fill="none" stroke="black" d="M803.4,-626.975C813.303,-639.925 826.66,-658.463 836.351,-676 846.371,-694.134 839.303,-704.759 854.351,-719 863.535,-727.692 875.399,-733.888 887.315,-738.298"/>
<polygon fill="black" stroke="black" points="886.24,-741.629 896.833,-741.465 888.45,-734.987 886.24,-741.629"/>
<text text-anchor="middle" x="864.351" y="-735.8" font-family="Times New Roman,serif" font-size="14.00"> (1)</text>
</g>
<!-- node29&#45;&gt;node32 -->
<g id="edge53" class="edge"><title>node29&#45;&gt;node32</title>
<path fill="none" stroke="black" d="M952.45,-535.601C969.976,-510.345 1005.15,-463.05 1043.24,-431 1046.29,-428.439 1049.61,-425.981 1053.02,-423.664"/>
<polygon fill="black" stroke="black" points="1055.05,-426.524 1061.62,-418.215 1051.3,-420.611 1055.05,-426.524"/>
<text text-anchor="middle" x="1015.24" y="-471.8" font-family="Times New Roman,serif" font-size="14.00"> (1)</text>
</g>
<!-- node35 -->
<g id="node36" class="node"><title>node35</title>
<ellipse fill="none" stroke="black" cx="1090.69" cy="-726" rx="47.3916" ry="18"/>
<text text-anchor="middle" x="1090.69" y="-722.3" font-family="Times New Roman,serif" font-size="14.00">(35) XOR</text>
</g>
<!-- node30&#45;&gt;node35 -->
<g id="edge59" class="edge"><title>node30&#45;&gt;node35</title>
<path fill="none" stroke="black" d="M983.463,-742.409C999.985,-739.857 1019.08,-736.908 1036.48,-734.219"/>
<polygon fill="black" stroke="black" points="1037.15,-737.657 1046.5,-732.672 1036.08,-730.739 1037.15,-737.657"/>
<text text-anchor="middle" x="1015.24" y="-741.8" font-family="Times New Roman,serif" font-size="14.00"> (1)</text>
</g>
<!-- node31&#45;&gt;node35 -->
<g id="edge58" class="edge"><title>node31&#45;&gt;node35</title>
<path fill="none" stroke="black" d="M981.876,-703.553C999.452,-707.212 1020.16,-711.523 1038.7,-715.384"/>
<polygon fill="black" stroke="black" points="1038.24,-718.863 1048.74,-717.475 1039.67,-712.01 1038.24,-718.863"/>
<text text-anchor="middle" x="1015.24" y="-715.8" font-family="Times New Roman,serif" font-size="14.00"> (0)</text>
</g>
<!-- node32&#45;&gt;node36 -->
<g id="edge61" class="edge"><title>node32&#45;&gt;node36</title>
<path fill="none" stroke="black" d="M1132.37,-412.471C1150.11,-416.163 1171.09,-420.531 1189.83,-424.433"/>
<polygon fill="black" stroke="black" points="1189.18,-427.874 1199.69,-426.486 1190.61,-421.021 1189.18,-427.874"/>
<text text-anchor="middle" x="1166.13" y="-425.8" font-family="Times New Roman,serif" font-size="14.00"> (1)</text>
</g>
<!-- node37 -->
<g id="node38" class="node"><title>node37</title>
<ellipse fill="none" stroke="black" cx="1392.47" cy="-279" rx="47.3916" ry="18"/>
<text text-anchor="middle" x="1392.47" y="-275.3" font-family="Times New Roman,serif" font-size="14.00">(37) XOR</text>
</g>
<!-- node32&#45;&gt;node37 -->
<g id="edge63" class="edge"><title>node32&#45;&gt;node37</title>
<path fill="none" stroke="black" d="M1123.2,-390.859C1177.86,-368.071 1290.15,-321.247 1350.68,-296.01"/>
<polygon fill="black" stroke="black" points="1352.05,-299.231 1359.93,-292.152 1349.35,-292.771 1352.05,-299.231"/>
<text text-anchor="middle" x="1241.58" y="-363.8" font-family="Times New Roman,serif" font-size="14.00"> (1)</text>
</g>
<!-- node33&#45;&gt;node37 -->
<g id="edge62" class="edge"><title>node33&#45;&gt;node37</title>
<path fill="none" stroke="black" d="M1267.5,-209.06C1291.82,-222.781 1329.05,-243.784 1356.36,-259.194"/>
<polygon fill="black" stroke="black" points="1354.79,-262.321 1365.21,-264.187 1358.22,-256.225 1354.79,-262.321"/>
<text text-anchor="middle" x="1317.03" y="-246.8" font-family="Times New Roman,serif" font-size="14.00"> (0)</text>
</g>
<!-- node40 -->
<g id="node41" class="node"><title>node40</title>
<ellipse fill="none" stroke="black" cx="1519.81" cy="-358" rx="42.7926" ry="18"/>
<text text-anchor="middle" x="1519.81" y="-354.3" font-family="Times New Roman,serif" font-size="14.00">Output 2</text>
</g>
<!-- node34&#45;&gt;node40 -->
<g id="edge66" class="edge"><title>node34&#45;&gt;node40</title>
<path fill="none" stroke="black" d="M978.398,-374.329C1008.3,-366.782 1051.33,-358 1089.69,-358 1089.69,-358 1089.69,-358 1393.47,-358 1417.53,-358 1444.19,-358 1466.71,-358"/>
<polygon fill="black" stroke="black" points="1466.75,-361.5 1476.75,-358 1466.75,-354.5 1466.75,-361.5"/>
</g>
<!-- node41 -->
<g id="node42" class="node"><title>node41</title>
<ellipse fill="none" stroke="black" cx="1519.81" cy="-726" rx="42.7926" ry="18"/>
<text text-anchor="middle" x="1519.81" y="-722.3" font-family="Times New Roman,serif" font-size="14.00">Output 3</text>
</g>
<!-- node35&#45;&gt;node41 -->
<g id="edge67" class="edge"><title>node35&#45;&gt;node41</title>
<path fill="none" stroke="black" d="M1138.21,-726C1218.54,-726 1382.68,-726 1466.71,-726"/>
<polygon fill="black" stroke="black" points="1466.8,-729.5 1476.8,-726 1466.8,-722.5 1466.8,-729.5"/>
</g>
<!-- node42 -->
<g id="node43" class="node"><title>node42</title>
<ellipse fill="none" stroke="black" cx="1519.81" cy="-435" rx="42.7926" ry="18"/>
<text text-anchor="middle" x="1519.81" y="-431.3" font-family="Times New Roman,serif" font-size="14.00">Output 4</text>
</g>
<!-- node36&#45;&gt;node42 -->
<g id="edge68" class="edge"><title>node36&#45;&gt;node42</title>
<path fill="none" stroke="black" d="M1289.13,-435C1338.18,-435 1415.28,-435 1466.43,-435"/>
<polygon fill="black" stroke="black" points="1466.61,-438.5 1476.61,-435 1466.61,-431.5 1466.61,-438.5"/>
</g>
<!-- node43 -->
<g id="node44" class="node"><title>node43</title>
<ellipse fill="none" stroke="black" cx="1519.81" cy="-279" rx="42.7926" ry="18"/>
<text text-anchor="middle" x="1519.81" y="-275.3" font-family="Times New Roman,serif" font-size="14.00">Output 5</text>
</g>
<!-- node37&#45;&gt;node43 -->
<g id="edge69" class="edge"><title>node37&#45;&gt;node43</title>
<path fill="none" stroke="black" d="M1440.14,-279C1448.75,-279 1457.78,-279 1466.54,-279"/>
<polygon fill="black" stroke="black" points="1466.65,-282.5 1476.65,-279 1466.65,-275.5 1466.65,-282.5"/>
</g>
</g>
</svg>
