<?xml version="1.0" encoding="UTF-8" standalone="no"?>
<!DOCTYPE svg PUBLIC "-//W3C//DTD SVG 1.1//EN"
 "http://www.w3.org/Graphics/SVG/1.1/DTD/svg11.dtd">
<!-- Generated by graphviz version 2.38.0 (20140413.2041)
 -->
<!-- Title: NeuralNetwork Pages: 1 -->
<svg width="288pt" height="89pt"
 viewBox="0.00 0.00 288.00 88.78" xmlns="http://www.w3.org/2000/svg" xmlns:xlink="http://www.w3.org/1999/xlink">
<g id="graph0" class="graph" transform="scale(0.238663 0.238663) rotate(0) translate(4 368)">
<title>NeuralNetwork</title>
<polygon fill="white" stroke="none" points="-4,4 -4,-368 1202.72,-368 1202.72,4 -4,4"/>
<!-- node0 -->
<g id="node1" class="node"><title>node0</title>
<ellipse fill="none" stroke="black" cx="42.2463" cy="-104" rx="42.4939" ry="18"/>
<text text-anchor="middle" x="42.2463" y="-100.3" font-family="Times New Roman,serif" font-size="14.00">(0) Input</text>
</g>
<!-- node6 -->
<g id="node7" class="node"><title>node6</title>
<ellipse fill="none" stroke="black" cx="182.739" cy="-129" rx="42.4939" ry="18"/>
<text text-anchor="middle" x="182.739" y="-125.3" font-family="Times New Roman,serif" font-size="14.00">(6) AND</text>
</g>
<!-- node0&#45;&gt;node6 -->
<g id="edge4" class="edge"><title>node0&#45;&gt;node6</title>
<path fill="none" stroke="black" d="M81.4565,-110.898C97.5019,-113.794 116.35,-117.196 133.349,-120.265"/>
<polygon fill="black" stroke="black" points="133.19,-123.793 143.653,-122.125 134.434,-116.904 133.19,-123.793"/>
<text text-anchor="middle" x="112.493" y="-120.8" font-family="Times New Roman,serif" font-size="14.00"> (1)</text>
</g>
<!-- node8 -->
<g id="node9" class="node"><title>node8</title>
<ellipse fill="none" stroke="black" cx="279.382" cy="-30" rx="36.2938" ry="18"/>
<text text-anchor="middle" x="279.382" y="-26.3" font-family="Times New Roman,serif" font-size="14.00">(8) OR</text>
</g>
<!-- node0&#45;&gt;node8 -->
<g id="edge8" class="edge"><title>node0&#45;&gt;node8</title>
<path fill="none" stroke="black" d="M76.9354,-93.3976C119.554,-79.9849 192.858,-56.9154 238.306,-42.6125"/>
<polygon fill="black" stroke="black" points="239.626,-45.8663 248.114,-39.5257 237.524,-39.1891 239.626,-45.8663"/>
<text text-anchor="middle" x="112.493" y="-88.8" font-family="Times New Roman,serif" font-size="14.00"> (1)</text>
</g>
<!-- node1 -->
<g id="node2" class="node"><title>node1</title>
<ellipse fill="none" stroke="black" cx="42.2463" cy="-257" rx="42.4939" ry="18"/>
<text text-anchor="middle" x="42.2463" y="-253.3" font-family="Times New Roman,serif" font-size="14.00">(1) Input</text>
</g>
<!-- node5 -->
<g id="node6" class="node"><title>node5</title>
<ellipse fill="none" stroke="black" cx="182.739" cy="-346" rx="42.4939" ry="18"/>
<text text-anchor="middle" x="182.739" y="-342.3" font-family="Times New Roman,serif" font-size="14.00">(5) AND</text>
</g>
<!-- node1&#45;&gt;node5 -->
<g id="edge1" class="edge"><title>node1&#45;&gt;node5</title>
<path fill="none" stroke="black" d="M66.4268,-271.897C89.2954,-286.593 124.432,-309.172 149.909,-325.545"/>
<polygon fill="black" stroke="black" points="148.178,-328.593 158.483,-331.055 151.962,-322.704 148.178,-328.593"/>
<text text-anchor="middle" x="112.493" y="-309.8" font-family="Times New Roman,serif" font-size="14.00"> (0)</text>
</g>
<!-- node9 -->
<g id="node10" class="node"><title>node9</title>
<ellipse fill="none" stroke="black" cx="480.467" cy="-253" rx="42.7926" ry="18"/>
<text text-anchor="middle" x="480.467" y="-249.3" font-family="Times New Roman,serif" font-size="14.00">(9) XOR</text>
</g>
<!-- node1&#45;&gt;node9 -->
<g id="edge10" class="edge"><title>node1&#45;&gt;node9</title>
<path fill="none" stroke="black" d="M84.6781,-256.62C164.482,-255.888 339.369,-254.285 427.099,-253.48"/>
<polygon fill="black" stroke="black" points="427.386,-256.978 437.353,-253.386 427.321,-249.978 427.386,-256.978"/>
<text text-anchor="middle" x="182.739" y="-259.8" font-family="Times New Roman,serif" font-size="14.00"> (1)</text>
</g>
<!-- node2 -->
<g id="node3" class="node"><title>node2</title>
<ellipse fill="none" stroke="black" cx="42.2463" cy="-187" rx="42.4939" ry="18"/>
<text text-anchor="middle" x="42.2463" y="-183.3" font-family="Times New Roman,serif" font-size="14.00">(2) Input</text>
</g>
<!-- node7 -->
<g id="node8" class="node"><title>node7</title>
<ellipse fill="none" stroke="black" cx="376.675" cy="-116" rx="42.7926" ry="18"/>
<text text-anchor="middle" x="376.675" y="-112.3" font-family="Times New Roman,serif" font-size="14.00">(7) XOR</text>
</g>
<!-- node2&#45;&gt;node7 -->
<g id="edge6" class="edge"><title>node2&#45;&gt;node7</title>
<path fill="none" stroke="black" d="M84.17,-183.776C138.151,-178.762 235.68,-167.058 315.779,-143 323.7,-140.621 331.94,-137.423 339.682,-134.061"/>
<polygon fill="black" stroke="black" points="341.157,-137.235 348.824,-129.923 338.271,-130.858 341.157,-137.235"/>
<text text-anchor="middle" x="182.739" y="-180.8" font-family="Times New Roman,serif" font-size="14.00"> (1)</text>
</g>
<!-- node3 -->
<g id="node4" class="node"><title>node3</title>
<ellipse fill="none" stroke="black" cx="42.2463" cy="-314" rx="42.4939" ry="18"/>
<text text-anchor="middle" x="42.2463" y="-310.3" font-family="Times New Roman,serif" font-size="14.00">(3) Input</text>
</g>
<!-- node3&#45;&gt;node5 -->
<g id="edge2" class="edge"><title>node3&#45;&gt;node5</title>
<path fill="none" stroke="black" d="M79.6335,-322.408C96.6738,-326.345 117.17,-331.081 135.313,-335.273"/>
<polygon fill="black" stroke="black" points="134.582,-338.696 145.114,-337.537 136.158,-331.876 134.582,-338.696"/>
<text text-anchor="middle" x="112.493" y="-334.8" font-family="Times New Roman,serif" font-size="14.00"> (1)</text>
</g>
<!-- node3&#45;&gt;node9 -->
<g id="edge9" class="edge"><title>node3&#45;&gt;node9</title>
<path fill="none" stroke="black" d="M83.1926,-309.552C166.335,-300.204 355.567,-278.444 419.571,-267 424.007,-266.207 428.609,-265.295 433.201,-264.324"/>
<polygon fill="black" stroke="black" points="434.155,-267.698 443.169,-262.131 432.65,-260.862 434.155,-267.698"/>
<text text-anchor="middle" x="182.739" y="-305.8" font-family="Times New Roman,serif" font-size="14.00"> (0)</text>
</g>
<!-- node4 -->
<g id="node5" class="node"><title>node4</title>
<ellipse fill="none" stroke="black" cx="42.2463" cy="-18" rx="42.4939" ry="18"/>
<text text-anchor="middle" x="42.2463" y="-14.3" font-family="Times New Roman,serif" font-size="14.00">(4) Input</text>
</g>
<!-- node4&#45;&gt;node6 -->
<g id="edge3" class="edge"><title>node4&#45;&gt;node6</title>
<path fill="none" stroke="black" d="M80.2564,-25.9932C94.4246,-30.2988 110.135,-36.6981 122.493,-46 142.247,-60.8696 158.08,-84.2167 168.391,-102.367"/>
<polygon fill="black" stroke="black" points="165.409,-104.21 173.271,-111.312 171.554,-100.857 165.409,-104.21"/>
<text text-anchor="middle" x="112.493" y="-49.8" font-family="Times New Roman,serif" font-size="14.00"> (0)</text>
</g>
<!-- node4&#45;&gt;node8 -->
<g id="edge7" class="edge"><title>node4&#45;&gt;node8</title>
<path fill="none" stroke="black" d="M84.3562,-16.4327C90.4364,-16.253 96.6271,-16.099 102.493,-16 147.374,-15.2427 198.504,-19.9394 234.024,-24.0944"/>
<polygon fill="black" stroke="black" points="233.719,-27.5829 244.066,-25.3033 234.556,-20.6331 233.719,-27.5829"/>
<text text-anchor="middle" x="112.493" y="-19.8" font-family="Times New Roman,serif" font-size="14.00"> (0)</text>
</g>
<!-- node15 -->
<g id="node16" class="node"><title>node15</title>
<ellipse fill="none" stroke="black" cx="1028.49" cy="-268" rx="47.3916" ry="18"/>
<text text-anchor="middle" x="1028.49" y="-264.3" font-family="Times New Roman,serif" font-size="14.00">(15) XOR</text>
</g>
<!-- node5&#45;&gt;node15 -->
<g id="edge21" class="edge"><title>node5&#45;&gt;node15</title>
<path fill="none" stroke="black" d="M224.908,-343.63C263.763,-341.599 323.658,-339 375.675,-339 375.675,-339 375.675,-339 878.593,-339 924.271,-339 970.828,-311.439 999.437,-290.66"/>
<polygon fill="black" stroke="black" points="1001.81,-293.259 1007.72,-284.467 997.614,-287.653 1001.81,-293.259"/>
<text text-anchor="middle" x="664.255" y="-342.8" font-family="Times New Roman,serif" font-size="14.00"> (0)</text>
</g>
<!-- node6&#45;&gt;node7 -->
<g id="edge5" class="edge"><title>node6&#45;&gt;node7</title>
<path fill="none" stroke="black" d="M224.914,-126.211C253.91,-124.247 292.943,-121.604 324.026,-119.498"/>
<polygon fill="black" stroke="black" points="324.496,-122.974 334.237,-118.807 324.023,-115.99 324.496,-122.974"/>
<text text-anchor="middle" x="279.382" y="-127.8" font-family="Times New Roman,serif" font-size="14.00"> (0)</text>
</g>
<!-- node12 -->
<g id="node13" class="node"><title>node12</title>
<ellipse fill="none" stroke="black" cx="733.201" cy="-162" rx="40.8928" ry="18"/>
<text text-anchor="middle" x="733.201" y="-158.3" font-family="Times New Roman,serif" font-size="14.00">(12) OR</text>
</g>
<!-- node6&#45;&gt;node12 -->
<g id="edge15" class="edge"><title>node6&#45;&gt;node12</title>
<path fill="none" stroke="black" d="M218.93,-138.494C226.793,-140.285 235.131,-141.93 242.985,-143 402.173,-164.692 592.987,-164.709 681.944,-163.234"/>
<polygon fill="black" stroke="black" points="682.087,-166.732 692.023,-163.053 681.962,-159.733 682.087,-166.732"/>
<text text-anchor="middle" x="480.467" y="-165.8" font-family="Times New Roman,serif" font-size="14.00"> (0)</text>
</g>
<!-- node10 -->
<g id="node11" class="node"><title>node10</title>
<ellipse fill="none" stroke="black" cx="588.809" cy="-116" rx="46.5926" ry="18"/>
<text text-anchor="middle" x="588.809" y="-112.3" font-family="Times New Roman,serif" font-size="14.00">(10) AND</text>
</g>
<!-- node7&#45;&gt;node10 -->
<g id="edge11" class="edge"><title>node7&#45;&gt;node10</title>
<path fill="none" stroke="black" d="M419.694,-116C451.851,-116 496.514,-116 531.722,-116"/>
<polygon fill="black" stroke="black" points="531.852,-119.5 541.852,-116 531.851,-112.5 531.852,-119.5"/>
<text text-anchor="middle" x="480.467" y="-119.8" font-family="Times New Roman,serif" font-size="14.00"> (0)</text>
</g>
<!-- node11 -->
<g id="node12" class="node"><title>node11</title>
<ellipse fill="none" stroke="black" cx="588.809" cy="-30" rx="47.3916" ry="18"/>
<text text-anchor="middle" x="588.809" y="-26.3" font-family="Times New Roman,serif" font-size="14.00">(11) XOR</text>
</g>
<!-- node7&#45;&gt;node11 -->
<g id="edge13" class="edge"><title>node7&#45;&gt;node11</title>
<path fill="none" stroke="black" d="M408.23,-103.495C444.692,-88.5725 505.819,-63.5553 546.478,-46.9152"/>
<polygon fill="black" stroke="black" points="547.91,-50.1112 555.839,-43.0842 545.258,-43.6327 547.91,-50.1112"/>
<text text-anchor="middle" x="480.467" y="-93.8" font-family="Times New Roman,serif" font-size="14.00"> (0)</text>
</g>
<!-- node8&#45;&gt;node10 -->
<g id="edge12" class="edge"><title>node8&#45;&gt;node10</title>
<path fill="none" stroke="black" d="M315.789,-28.8753C364.586,-28.6178 454.305,-32.8523 523.363,-63 538.789,-69.734 553.487,-81.2727 564.941,-91.8678"/>
<polygon fill="black" stroke="black" points="562.693,-94.5616 572.322,-98.9814 567.55,-89.5216 562.693,-94.5616"/>
<text text-anchor="middle" x="376.675" y="-39.8" font-family="Times New Roman,serif" font-size="14.00"> (1)</text>
</g>
<!-- node8&#45;&gt;node11 -->
<g id="edge14" class="edge"><title>node8&#45;&gt;node11</title>
<path fill="none" stroke="black" d="M307.936,-18.8131C316.115,-16.0141 325.187,-13.4092 333.779,-12 403.723,-0.528013 485.685,-10.4828 537.184,-19.5273"/>
<polygon fill="black" stroke="black" points="536.601,-22.9786 547.065,-21.3174 537.849,-16.0907 536.601,-22.9786"/>
<text text-anchor="middle" x="376.675" y="-15.8" font-family="Times New Roman,serif" font-size="14.00"> (1)</text>
</g>
<!-- node13 -->
<g id="node14" class="node"><title>node13</title>
<ellipse fill="none" stroke="black" cx="877.593" cy="-268" rx="46.5926" ry="18"/>
<text text-anchor="middle" x="877.593" y="-264.3" font-family="Times New Roman,serif" font-size="14.00">(13) AND</text>
</g>
<!-- node9&#45;&gt;node13 -->
<g id="edge18" class="edge"><title>node9&#45;&gt;node13</title>
<path fill="none" stroke="black" d="M523.378,-254.591C594.849,-257.304 740.33,-262.827 820.486,-265.87"/>
<polygon fill="black" stroke="black" points="820.75,-269.382 830.875,-266.264 821.015,-262.388 820.75,-269.382"/>
<text text-anchor="middle" x="664.255" y="-263.8" font-family="Times New Roman,serif" font-size="14.00"> (1)</text>
</g>
<!-- node14 -->
<g id="node15" class="node"><title>node14</title>
<ellipse fill="none" stroke="black" cx="877.593" cy="-188" rx="47.3916" ry="18"/>
<text text-anchor="middle" x="877.593" y="-184.3" font-family="Times New Roman,serif" font-size="14.00">(14) XOR</text>
</g>
<!-- node9&#45;&gt;node14 -->
<g id="edge19" class="edge"><title>node9&#45;&gt;node14</title>
<path fill="none" stroke="black" d="M522.791,-249.922C598.933,-243.994 758.494,-230.31 812.148,-216 821.236,-213.576 830.697,-210.072 839.481,-206.358"/>
<polygon fill="black" stroke="black" points="840.963,-209.53 848.697,-202.288 838.135,-203.126 840.963,-209.53"/>
<text text-anchor="middle" x="664.255" y="-241.8" font-family="Times New Roman,serif" font-size="14.00"> (0)</text>
</g>
<!-- node10&#45;&gt;node12 -->
<g id="edge16" class="edge"><title>node10&#45;&gt;node12</title>
<path fill="none" stroke="black" d="M632.923,-122.397C646.363,-124.995 661.103,-128.476 674.255,-133 682.271,-135.758 690.59,-139.405 698.337,-143.179"/>
<polygon fill="black" stroke="black" points="696.944,-146.396 707.446,-147.794 700.107,-140.152 696.944,-146.396"/>
<text text-anchor="middle" x="664.255" y="-136.8" font-family="Times New Roman,serif" font-size="14.00"> (1)</text>
</g>
<!-- node16 -->
<g id="node17" class="node"><title>node16</title>
<ellipse fill="none" stroke="black" cx="1155.83" cy="-30" rx="42.7926" ry="18"/>
<text text-anchor="middle" x="1155.83" y="-26.3" font-family="Times New Roman,serif" font-size="14.00">Output 0</text>
</g>
<!-- node11&#45;&gt;node16 -->
<g id="edge23" class="edge"><title>node11&#45;&gt;node16</title>
<path fill="none" stroke="black" d="M636.303,-30C664.126,-30 700.188,-30 732.201,-30 732.201,-30 732.201,-30 1029.49,-30 1053.55,-30 1080.2,-30 1102.73,-30"/>
<polygon fill="black" stroke="black" points="1102.76,-33.5001 1112.76,-30 1102.76,-26.5001 1102.76,-33.5001"/>
</g>
<!-- node12&#45;&gt;node13 -->
<g id="edge17" class="edge"><title>node12&#45;&gt;node13</title>
<path fill="none" stroke="black" d="M754.906,-177.413C779.092,-195.418 819.295,-225.346 846.825,-245.839"/>
<polygon fill="black" stroke="black" points="844.818,-248.709 854.93,-251.873 848.998,-243.094 844.818,-248.709"/>
<text text-anchor="middle" x="802.148" y="-221.8" font-family="Times New Roman,serif" font-size="14.00"> (0)</text>
</g>
<!-- node12&#45;&gt;node14 -->
<g id="edge20" class="edge"><title>node12&#45;&gt;node14</title>
<path fill="none" stroke="black" d="M774.133,-159.789C786.42,-159.836 799.924,-160.631 812.148,-163 820.616,-164.641 829.409,-167.332 837.677,-170.352"/>
<polygon fill="black" stroke="black" points="836.502,-173.651 847.091,-174.008 839.036,-167.125 836.502,-173.651"/>
<text text-anchor="middle" x="802.148" y="-166.8" font-family="Times New Roman,serif" font-size="14.00"> (1)</text>
</g>
<!-- node13&#45;&gt;node15 -->
<g id="edge22" class="edge"><title>node13&#45;&gt;node15</title>
<path fill="none" stroke="black" d="M924.481,-268C939.06,-268 955.361,-268 970.618,-268"/>
<polygon fill="black" stroke="black" points="970.979,-271.5 980.979,-268 970.979,-264.5 970.979,-271.5"/>
<text text-anchor="middle" x="953.039" y="-271.8" font-family="Times New Roman,serif" font-size="14.00"> (1)</text>
</g>
<!-- node17 -->
<g id="node18" class="node"><title>node17</title>
<ellipse fill="none" stroke="black" cx="1155.83" cy="-188" rx="42.7926" ry="18"/>
<text text-anchor="middle" x="1155.83" y="-184.3" font-family="Times New Roman,serif" font-size="14.00">Output 1</text>
</g>
<!-- node14&#45;&gt;node17 -->
<g id="edge24" class="edge"><title>node14&#45;&gt;node17</title>
<path fill="none" stroke="black" d="M925.14,-188C974.193,-188 1051.29,-188 1102.44,-188"/>
<polygon fill="black" stroke="black" points="1102.62,-191.5 1112.62,-188 1102.62,-184.5 1102.62,-191.5"/>
</g>
<!-- node18 -->
<g id="node19" class="node"><title>node18</title>
<ellipse fill="none" stroke="black" cx="1155.83" cy="-268" rx="42.7926" ry="18"/>
<text text-anchor="middle" x="1155.83" y="-264.3" font-family="Times New Roman,serif" font-size="14.00">Output 2</text>
</g>
<!-- node15&#45;&gt;node18 -->
<g id="edge25" class="edge"><title>node15&#45;&gt;node18</title>
<path fill="none" stroke="black" d="M1076.16,-268C1084.76,-268 1093.8,-268 1102.56,-268"/>
<polygon fill="black" stroke="black" points="1102.66,-271.5 1112.66,-268 1102.66,-264.5 1102.66,-271.5"/>
</g>
</g>
</svg>
