<?xml version="1.0" encoding="UTF-8" standalone="no"?>
<!DOCTYPE svg PUBLIC "-//W3C//DTD SVG 1.1//EN"
 "http://www.w3.org/Graphics/SVG/1.1/DTD/svg11.dtd">
<!-- Generated by graphviz version 2.38.0 (20140413.2041)
 -->
<!-- Title: NeuralNetwork Pages: 1 -->
<svg width="288pt" height="102pt"
 viewBox="0.00 0.00 288.00 101.63" xmlns="http://www.w3.org/2000/svg" xmlns:xlink="http://www.w3.org/1999/xlink">
<g id="graph0" class="graph" transform="scale(0.264672 0.264672) rotate(0) translate(4 380)">
<title>NeuralNetwork</title>
<polygon fill="white" stroke="none" points="-4,4 -4,-380 1084.14,-380 1084.14,4 -4,4"/>
<!-- node0 -->
<g id="node1" class="node"><title>node0</title>
<ellipse fill="none" stroke="black" cx="42.2463" cy="-18" rx="42.4939" ry="18"/>
<text text-anchor="middle" x="42.2463" y="-14.3" font-family="Times New Roman,serif" font-size="14.00">(0) Input</text>
</g>
<!-- node8 -->
<g id="node9" class="node"><title>node8</title>
<ellipse fill="none" stroke="black" cx="329.731" cy="-114" rx="36.2938" ry="18"/>
<text text-anchor="middle" x="329.731" y="-110.3" font-family="Times New Roman,serif" font-size="14.00">(8) OR</text>
</g>
<!-- node0&#45;&gt;node8 -->
<g id="edge8" class="edge"><title>node0&#45;&gt;node8</title>
<path fill="none" stroke="black" d="M83.6021,-22.4593C138.386,-28.964 233.047,-41.9335 264.285,-57 280.729,-64.9313 296.161,-78.2825 307.8,-90.0702"/>
<polygon fill="black" stroke="black" points="305.448,-92.6768 314.873,-97.518 310.524,-87.8565 305.448,-92.6768"/>
<text text-anchor="middle" x="183.389" y="-48.8" font-family="Times New Roman,serif" font-size="14.00"> (1)</text>
</g>
<!-- node15 -->
<g id="node16" class="node"><title>node15</title>
<ellipse fill="none" stroke="black" cx="329.731" cy="-23" rx="47.3916" ry="18"/>
<text text-anchor="middle" x="329.731" y="-19.3" font-family="Times New Roman,serif" font-size="14.00">(15) XOR</text>
</g>
<!-- node0&#45;&gt;node15 -->
<g id="edge22" class="edge"><title>node0&#45;&gt;node15</title>
<path fill="none" stroke="black" d="M82.4173,-12.0541C100.11,-9.65558 121.306,-7.1793 140.493,-6 178.551,-3.66072 188.284,-2.86843 226.285,-6 243.099,-7.38561 261.309,-10.0298 277.649,-12.8272"/>
<polygon fill="black" stroke="black" points="277.094,-16.2834 287.551,-14.5789 278.314,-9.39041 277.094,-16.2834"/>
<text text-anchor="middle" x="183.389" y="-9.8" font-family="Times New Roman,serif" font-size="14.00"> (1)</text>
</g>
<!-- node1 -->
<g id="node2" class="node"><title>node1</title>
<ellipse fill="none" stroke="black" cx="42.2463" cy="-254" rx="42.4939" ry="18"/>
<text text-anchor="middle" x="42.2463" y="-250.3" font-family="Times New Roman,serif" font-size="14.00">(1) Input</text>
</g>
<!-- node10 -->
<g id="node11" class="node"><title>node10</title>
<ellipse fill="none" stroke="black" cx="621.115" cy="-234" rx="47.3916" ry="18"/>
<text text-anchor="middle" x="621.115" y="-230.3" font-family="Times New Roman,serif" font-size="14.00">(10) XOR</text>
</g>
<!-- node1&#45;&gt;node10 -->
<g id="edge12" class="edge"><title>node1&#45;&gt;node10</title>
<path fill="none" stroke="black" d="M77.8186,-244.263C105.786,-237.243 146.31,-229 182.389,-229 182.389,-229 182.389,-229 476.423,-229 505.18,-229 537.156,-230.013 563.628,-231.126"/>
<polygon fill="black" stroke="black" points="563.716,-234.634 573.86,-231.573 564.022,-227.64 563.716,-234.634"/>
<text text-anchor="middle" x="329.731" y="-232.8" font-family="Times New Roman,serif" font-size="14.00"> (1)</text>
</g>
<!-- node12 -->
<g id="node13" class="node"><title>node12</title>
<ellipse fill="none" stroke="black" cx="621.115" cy="-180" rx="46.5926" ry="18"/>
<text text-anchor="middle" x="621.115" y="-176.3" font-family="Times New Roman,serif" font-size="14.00">(12) AND</text>
</g>
<!-- node1&#45;&gt;node12 -->
<g id="edge16" class="edge"><title>node1&#45;&gt;node12</title>
<path fill="none" stroke="black" d="M77.5087,-264.052C105.471,-271.369 146.141,-280 182.389,-280 182.389,-280 182.389,-280 476.423,-280 530.466,-280 528.62,-236.854 573.669,-207 577.255,-204.623 581.057,-202.227 584.88,-199.894"/>
<polygon fill="black" stroke="black" points="586.95,-202.735 593.748,-194.609 583.366,-196.722 586.95,-202.735"/>
<text text-anchor="middle" x="329.731" y="-283.8" font-family="Times New Roman,serif" font-size="14.00"> (1)</text>
</g>
<!-- node2 -->
<g id="node3" class="node"><title>node2</title>
<ellipse fill="none" stroke="black" cx="42.2463" cy="-171" rx="42.4939" ry="18"/>
<text text-anchor="middle" x="42.2463" y="-167.3" font-family="Times New Roman,serif" font-size="14.00">(2) Input</text>
</g>
<!-- node5 -->
<g id="node6" class="node"><title>node5</title>
<ellipse fill="none" stroke="black" cx="183.389" cy="-167" rx="42.4939" ry="18"/>
<text text-anchor="middle" x="183.389" y="-163.3" font-family="Times New Roman,serif" font-size="14.00">(5) AND</text>
</g>
<!-- node2&#45;&gt;node5 -->
<g id="edge1" class="edge"><title>node2&#45;&gt;node5</title>
<path fill="none" stroke="black" d="M82.7576,-176.455C95.4495,-177.547 109.567,-178.072 122.493,-177 126.4,-176.676 130.436,-176.235 134.48,-175.718"/>
<polygon fill="black" stroke="black" points="135.075,-179.169 144.485,-174.3 134.092,-172.238 135.075,-179.169"/>
<text text-anchor="middle" x="112.493" y="-180.8" font-family="Times New Roman,serif" font-size="14.00"> (0)</text>
</g>
<!-- node6 -->
<g id="node7" class="node"><title>node6</title>
<ellipse fill="none" stroke="black" cx="183.389" cy="-96" rx="42.7926" ry="18"/>
<text text-anchor="middle" x="183.389" y="-92.3" font-family="Times New Roman,serif" font-size="14.00">(6) XOR</text>
</g>
<!-- node2&#45;&gt;node6 -->
<g id="edge3" class="edge"><title>node2&#45;&gt;node6</title>
<path fill="none" stroke="black" d="M75.6668,-159.915C90.3392,-154.395 107.675,-147.157 122.493,-139 133.421,-132.984 144.709,-125.317 154.499,-118.128"/>
<polygon fill="black" stroke="black" points="156.779,-120.793 162.67,-111.987 152.573,-115.197 156.779,-120.793"/>
<text text-anchor="middle" x="112.493" y="-151.8" font-family="Times New Roman,serif" font-size="14.00"> (0)</text>
</g>
<!-- node3 -->
<g id="node4" class="node"><title>node3</title>
<ellipse fill="none" stroke="black" cx="42.2463" cy="-342" rx="42.4939" ry="18"/>
<text text-anchor="middle" x="42.2463" y="-338.3" font-family="Times New Roman,serif" font-size="14.00">(3) Input</text>
</g>
<!-- node11 -->
<g id="node12" class="node"><title>node11</title>
<ellipse fill="none" stroke="black" cx="772.006" cy="-294" rx="47.3916" ry="18"/>
<text text-anchor="middle" x="772.006" y="-290.3" font-family="Times New Roman,serif" font-size="14.00">(11) XOR</text>
</g>
<!-- node3&#45;&gt;node11 -->
<g id="edge14" class="edge"><title>node3&#45;&gt;node11</title>
<path fill="none" stroke="black" d="M80.5585,-349.893C108.469,-355.113 147.646,-361 182.389,-361 182.389,-361 182.389,-361 622.115,-361 666.813,-361 712.937,-335.579 741.772,-316.054"/>
<polygon fill="black" stroke="black" points="743.942,-318.808 750.145,-310.219 739.94,-313.065 743.942,-318.808"/>
<text text-anchor="middle" x="405.176" y="-364.8" font-family="Times New Roman,serif" font-size="14.00"> (1)</text>
</g>
<!-- node13 -->
<g id="node14" class="node"><title>node13</title>
<ellipse fill="none" stroke="black" cx="772.006" cy="-234" rx="46.5926" ry="18"/>
<text text-anchor="middle" x="772.006" y="-230.3" font-family="Times New Roman,serif" font-size="14.00">(13) AND</text>
</g>
<!-- node3&#45;&gt;node13 -->
<g id="edge17" class="edge"><title>node3&#45;&gt;node13</title>
<path fill="none" stroke="black" d="M80.5585,-334.107C108.469,-328.887 147.646,-323 182.389,-323 182.389,-323 182.389,-323 622.115,-323 663.091,-323 673.038,-309.564 706.561,-286 716.077,-279.311 715.778,-274.627 724.561,-267 729.058,-263.094 734.01,-259.2 738.953,-255.528"/>
<polygon fill="black" stroke="black" points="741.117,-258.283 747.182,-249.595 737.024,-252.604 741.117,-258.283"/>
<text text-anchor="middle" x="405.176" y="-326.8" font-family="Times New Roman,serif" font-size="14.00"> (0)</text>
</g>
<!-- node4 -->
<g id="node5" class="node"><title>node4</title>
<ellipse fill="none" stroke="black" cx="42.2463" cy="-112" rx="42.4939" ry="18"/>
<text text-anchor="middle" x="42.2463" y="-108.3" font-family="Times New Roman,serif" font-size="14.00">(4) Input</text>
</g>
<!-- node4&#45;&gt;node5 -->
<g id="edge2" class="edge"><title>node4&#45;&gt;node5</title>
<path fill="none" stroke="black" d="M84.1378,-114.467C96.7702,-116.205 110.506,-119.122 122.493,-124 134.627,-128.938 146.632,-136.8 156.672,-144.459"/>
<polygon fill="black" stroke="black" points="154.6,-147.284 164.603,-150.777 158.962,-141.808 154.6,-147.284"/>
<text text-anchor="middle" x="112.493" y="-127.8" font-family="Times New Roman,serif" font-size="14.00"> (1)</text>
</g>
<!-- node4&#45;&gt;node6 -->
<g id="edge4" class="edge"><title>node4&#45;&gt;node6</title>
<path fill="none" stroke="black" d="M69.0114,-97.9231C79.1377,-93.139 91.0594,-88.3983 102.493,-86 113.491,-83.6929 125.461,-83.8209 136.707,-85.0821"/>
<polygon fill="black" stroke="black" points="136.389,-88.5721 146.783,-86.5216 137.379,-81.6424 136.389,-88.5721"/>
<text text-anchor="middle" x="112.493" y="-89.8" font-family="Times New Roman,serif" font-size="14.00"> (1)</text>
</g>
<!-- node7 -->
<g id="node8" class="node"><title>node7</title>
<ellipse fill="none" stroke="black" cx="329.731" cy="-168" rx="42.7926" ry="18"/>
<text text-anchor="middle" x="329.731" y="-164.3" font-family="Times New Roman,serif" font-size="14.00">(7) XOR</text>
</g>
<!-- node5&#45;&gt;node7 -->
<g id="edge6" class="edge"><title>node5&#45;&gt;node7</title>
<path fill="none" stroke="black" d="M225.63,-167.779C231.88,-167.871 238.253,-167.95 244.285,-168 254.728,-168.087 265.898,-168.126 276.581,-168.136"/>
<polygon fill="black" stroke="black" points="276.635,-171.636 286.636,-168.138 276.636,-164.636 276.635,-171.636"/>
<text text-anchor="middle" x="254.285" y="-171.8" font-family="Times New Roman,serif" font-size="14.00"> (1)</text>
</g>
<!-- node5&#45;&gt;node8 -->
<g id="edge7" class="edge"><title>node5&#45;&gt;node8</title>
<path fill="none" stroke="black" d="M216.065,-155.369C237.995,-147.317 267.299,-136.557 290.524,-128.029"/>
<polygon fill="black" stroke="black" points="291.886,-131.257 300.066,-124.525 289.473,-124.686 291.886,-131.257"/>
<text text-anchor="middle" x="254.285" y="-146.8" font-family="Times New Roman,serif" font-size="14.00"> (0)</text>
</g>
<!-- node6&#45;&gt;node7 -->
<g id="edge5" class="edge"><title>node6&#45;&gt;node7</title>
<path fill="none" stroke="black" d="M223.809,-102.365C237.405,-105.81 252.232,-111.057 264.285,-119 274.834,-125.952 272.67,-132.805 282.285,-141 285.559,-143.791 289.161,-146.452 292.867,-148.94"/>
<polygon fill="black" stroke="black" points="291.263,-152.066 301.595,-154.412 294.981,-146.135 291.263,-152.066"/>
<text text-anchor="middle" x="254.285" y="-122.8" font-family="Times New Roman,serif" font-size="14.00"> (0)</text>
</g>
<!-- node6&#45;&gt;node15 -->
<g id="edge21" class="edge"><title>node6&#45;&gt;node15</title>
<path fill="none" stroke="black" d="M211.538,-82.2693C233.987,-70.9162 266.11,-54.6698 291.05,-42.0568"/>
<polygon fill="black" stroke="black" points="292.877,-45.0548 300.221,-37.4184 289.718,-38.8082 292.877,-45.0548"/>
<text text-anchor="middle" x="254.285" y="-66.8" font-family="Times New Roman,serif" font-size="14.00"> (0)</text>
</g>
<!-- node9 -->
<g id="node10" class="node"><title>node9</title>
<ellipse fill="none" stroke="black" cx="475.423" cy="-163" rx="42.4939" ry="18"/>
<text text-anchor="middle" x="475.423" y="-159.3" font-family="Times New Roman,serif" font-size="14.00">(9) AND</text>
</g>
<!-- node7&#45;&gt;node9 -->
<g id="edge10" class="edge"><title>node7&#45;&gt;node9</title>
<path fill="none" stroke="black" d="M372.679,-166.54C388.457,-165.991 406.576,-165.361 423.111,-164.785"/>
<polygon fill="black" stroke="black" points="423.294,-168.281 433.167,-164.436 423.051,-161.286 423.294,-168.281"/>
<text text-anchor="middle" x="405.176" y="-168.8" font-family="Times New Roman,serif" font-size="14.00"> (1)</text>
</g>
<!-- node8&#45;&gt;node9 -->
<g id="edge9" class="edge"><title>node8&#45;&gt;node9</title>
<path fill="none" stroke="black" d="M360.156,-124.034C380.99,-131.139 409.24,-140.772 432.438,-148.683"/>
<polygon fill="black" stroke="black" points="431.44,-152.04 442.034,-151.955 433.699,-145.415 431.44,-152.04"/>
<text text-anchor="middle" x="405.176" y="-145.8" font-family="Times New Roman,serif" font-size="14.00"> (0)</text>
</g>
<!-- node9&#45;&gt;node10 -->
<g id="edge11" class="edge"><title>node9&#45;&gt;node10</title>
<path fill="none" stroke="black" d="M505.194,-176.025C520.304,-182.968 539.08,-191.757 555.669,-200 564.93,-204.602 574.848,-209.732 584.06,-214.583"/>
<polygon fill="black" stroke="black" points="582.51,-217.723 592.985,-219.312 585.787,-211.537 582.51,-217.723"/>
<text text-anchor="middle" x="545.669" y="-203.8" font-family="Times New Roman,serif" font-size="14.00"> (0)</text>
</g>
<!-- node9&#45;&gt;node12 -->
<g id="edge15" class="edge"><title>node9&#45;&gt;node12</title>
<path fill="none" stroke="black" d="M517.288,-160.171C529.665,-159.935 543.264,-160.3 555.669,-162 562.013,-162.869 568.614,-164.199 575.066,-165.75"/>
<polygon fill="black" stroke="black" points="574.465,-169.21 585.024,-168.336 576.225,-162.435 574.465,-169.21"/>
<text text-anchor="middle" x="545.669" y="-165.8" font-family="Times New Roman,serif" font-size="14.00"> (0)</text>
</g>
<!-- node10&#45;&gt;node11 -->
<g id="edge13" class="edge"><title>node10&#45;&gt;node11</title>
<path fill="none" stroke="black" d="M654.422,-247.019C676.372,-255.864 705.609,-267.646 729.313,-277.199"/>
<polygon fill="black" stroke="black" points="728.179,-280.515 738.762,-281.006 730.795,-274.022 728.179,-280.515"/>
<text text-anchor="middle" x="696.561" y="-270.8" font-family="Times New Roman,serif" font-size="14.00"> (0)</text>
</g>
<!-- node10&#45;&gt;node13 -->
<g id="edge18" class="edge"><title>node10&#45;&gt;node13</title>
<path fill="none" stroke="black" d="M668.816,-234C683.368,-234 699.57,-234 714.706,-234"/>
<polygon fill="black" stroke="black" points="714.981,-237.5 724.981,-234 714.981,-230.5 714.981,-237.5"/>
<text text-anchor="middle" x="696.561" y="-237.8" font-family="Times New Roman,serif" font-size="14.00"> (1)</text>
</g>
<!-- node17 -->
<g id="node18" class="node"><title>node17</title>
<ellipse fill="none" stroke="black" cx="1037.24" cy="-294" rx="42.7926" ry="18"/>
<text text-anchor="middle" x="1037.24" y="-290.3" font-family="Times New Roman,serif" font-size="14.00">Output 1</text>
</g>
<!-- node11&#45;&gt;node17 -->
<g id="edge24" class="edge"><title>node11&#45;&gt;node17</title>
<path fill="none" stroke="black" d="M819.461,-294C865.526,-294 935.982,-294 983.975,-294"/>
<polygon fill="black" stroke="black" points="984.159,-297.5 994.159,-294 984.159,-290.5 984.159,-297.5"/>
</g>
<!-- node14 -->
<g id="node15" class="node"><title>node14</title>
<ellipse fill="none" stroke="black" cx="916.399" cy="-207" rx="40.8928" ry="18"/>
<text text-anchor="middle" x="916.399" y="-203.3" font-family="Times New Roman,serif" font-size="14.00">(14) OR</text>
</g>
<!-- node12&#45;&gt;node14 -->
<g id="edge19" class="edge"><title>node12&#45;&gt;node14</title>
<path fill="none" stroke="black" d="M668.073,-181.567C708.134,-183.225 767.755,-186.4 819.452,-192 835.402,-193.728 852.751,-196.244 868.255,-198.723"/>
<polygon fill="black" stroke="black" points="867.71,-202.18 878.144,-200.338 868.839,-195.272 867.71,-202.18"/>
<text text-anchor="middle" x="772.006" y="-195.8" font-family="Times New Roman,serif" font-size="14.00"> (0)</text>
</g>
<!-- node13&#45;&gt;node14 -->
<g id="edge20" class="edge"><title>node13&#45;&gt;node14</title>
<path fill="none" stroke="black" d="M814.192,-226.19C831.083,-222.988 850.732,-219.262 868.198,-215.95"/>
<polygon fill="black" stroke="black" points="869.02,-219.357 878.193,-214.055 867.716,-212.479 869.02,-219.357"/>
<text text-anchor="middle" x="847.452" y="-224.8" font-family="Times New Roman,serif" font-size="14.00"> (1)</text>
</g>
<!-- node18 -->
<g id="node19" class="node"><title>node18</title>
<ellipse fill="none" stroke="black" cx="1037.24" cy="-207" rx="42.7926" ry="18"/>
<text text-anchor="middle" x="1037.24" y="-203.3" font-family="Times New Roman,serif" font-size="14.00">Output 2</text>
</g>
<!-- node14&#45;&gt;node18 -->
<g id="edge25" class="edge"><title>node14&#45;&gt;node18</title>
<path fill="none" stroke="black" d="M957.633,-207C966.055,-207 975.052,-207 983.842,-207"/>
<polygon fill="black" stroke="black" points="984.017,-210.5 994.017,-207 984.017,-203.5 984.017,-210.5"/>
</g>
<!-- node16 -->
<g id="node17" class="node"><title>node16</title>
<ellipse fill="none" stroke="black" cx="1037.24" cy="-23" rx="42.7926" ry="18"/>
<text text-anchor="middle" x="1037.24" y="-19.3" font-family="Times New Roman,serif" font-size="14.00">Output 0</text>
</g>
<!-- node15&#45;&gt;node16 -->
<g id="edge23" class="edge"><title>node15&#45;&gt;node16</title>
<path fill="none" stroke="black" d="M377.324,-23C405.445,-23 441.992,-23 474.423,-23 474.423,-23 474.423,-23 917.399,-23 939.197,-23 963.244,-23 983.971,-23"/>
<polygon fill="black" stroke="black" points="984.166,-26.5001 994.166,-23 984.166,-19.5001 984.166,-26.5001"/>
</g>
</g>
</svg>
