<?xml version="1.0" encoding="UTF-8" standalone="no"?>
<!DOCTYPE svg PUBLIC "-//W3C//DTD SVG 1.1//EN"
 "http://www.w3.org/Graphics/SVG/1.1/DTD/svg11.dtd">
<!-- Generated by graphviz version 2.38.0 (20140413.2041)
 -->
<!-- Title: NeuralNetwork Pages: 1 -->
<svg width="288pt" height="107pt"
 viewBox="0.00 0.00 288.00 106.76" xmlns="http://www.w3.org/2000/svg" xmlns:xlink="http://www.w3.org/1999/xlink">
<g id="graph0" class="graph" transform="scale(0.280938 0.280938) rotate(0) translate(4 376)">
<title>NeuralNetwork</title>
<polygon fill="white" stroke="none" points="-4,4 -4,-376 1021.14,-376 1021.14,4 -4,4"/>
<!-- node0 -->
<g id="node1" class="node"><title>node0</title>
<ellipse fill="none" stroke="black" cx="42.2463" cy="-173" rx="42.4939" ry="18"/>
<text text-anchor="middle" x="42.2463" y="-169.3" font-family="Times New Roman,serif" font-size="14.00">(0) Input</text>
</g>
<!-- node5 -->
<g id="node6" class="node"><title>node5</title>
<ellipse fill="none" stroke="black" cx="187.288" cy="-157" rx="42.7926" ry="18"/>
<text text-anchor="middle" x="187.288" y="-153.3" font-family="Times New Roman,serif" font-size="14.00">(5) XOR</text>
</g>
<!-- node0&#45;&gt;node5 -->
<g id="edge2" class="edge"><title>node0&#45;&gt;node5</title>
<path fill="none" stroke="black" d="M83.4721,-168.501C99.4849,-166.709 118.105,-164.627 135.064,-162.73"/>
<polygon fill="black" stroke="black" points="135.823,-166.167 145.372,-161.577 135.044,-159.21 135.823,-166.167"/>
<text text-anchor="middle" x="112.493" y="-168.8" font-family="Times New Roman,serif" font-size="14.00"> (1)</text>
</g>
<!-- node6 -->
<g id="node7" class="node"><title>node6</title>
<ellipse fill="none" stroke="black" cx="187.288" cy="-99" rx="42.7926" ry="18"/>
<text text-anchor="middle" x="187.288" y="-95.3" font-family="Times New Roman,serif" font-size="14.00">(6) XOR</text>
</g>
<!-- node0&#45;&gt;node6 -->
<g id="edge4" class="edge"><title>node0&#45;&gt;node6</title>
<path fill="none" stroke="black" d="M57.4045,-155.937C74.4347,-135.461 100.948,-103.761 102.493,-103 112.494,-98.069 124.008,-95.7297 135.236,-94.8729"/>
<polygon fill="black" stroke="black" points="135.56,-98.3629 145.414,-94.471 135.284,-91.3684 135.56,-98.3629"/>
<text text-anchor="middle" x="112.493" y="-106.8" font-family="Times New Roman,serif" font-size="14.00"> (1)</text>
</g>
<!-- node9 -->
<g id="node10" class="node"><title>node9</title>
<ellipse fill="none" stroke="black" cx="549.664" cy="-188" rx="42.7926" ry="18"/>
<text text-anchor="middle" x="549.664" y="-184.3" font-family="Times New Roman,serif" font-size="14.00">(9) XOR</text>
</g>
<!-- node0&#45;&gt;node9 -->
<g id="edge9" class="edge"><title>node0&#45;&gt;node9</title>
<path fill="none" stroke="black" d="M80.4016,-180.896C87.6939,-182.163 95.3091,-183.289 102.493,-184 264.506,-200.029 305.968,-187.889 468.768,-189 477.738,-189.061 487.274,-189.028 496.518,-188.943"/>
<polygon fill="black" stroke="black" points="496.825,-192.44 506.785,-188.829 496.747,-185.441 496.825,-192.44"/>
<text text-anchor="middle" x="294.98" y="-195.8" font-family="Times New Roman,serif" font-size="14.00"> (0)</text>
</g>
<!-- node1 -->
<g id="node2" class="node"><title>node1</title>
<ellipse fill="none" stroke="black" cx="42.2463" cy="-344" rx="42.4939" ry="18"/>
<text text-anchor="middle" x="42.2463" y="-340.3" font-family="Times New Roman,serif" font-size="14.00">(1) Input</text>
</g>
<!-- node7 -->
<g id="node8" class="node"><title>node7</title>
<ellipse fill="none" stroke="black" cx="294.98" cy="-264" rx="42.7926" ry="18"/>
<text text-anchor="middle" x="294.98" y="-260.3" font-family="Times New Roman,serif" font-size="14.00">(7) XOR</text>
</g>
<!-- node1&#45;&gt;node7 -->
<g id="edge6" class="edge"><title>node1&#45;&gt;node7</title>
<path fill="none" stroke="black" d="M53.9859,-326.483C64.351,-311.303 81.5337,-290.219 102.493,-280 126.168,-268.456 193.497,-265.066 241.615,-264.163"/>
<polygon fill="black" stroke="black" points="241.928,-267.658 251.872,-264.002 241.818,-260.659 241.928,-267.658"/>
<text text-anchor="middle" x="112.493" y="-283.8" font-family="Times New Roman,serif" font-size="14.00"> (1)</text>
</g>
<!-- node11 -->
<g id="node12" class="node"><title>node11</title>
<ellipse fill="none" stroke="black" cx="187.288" cy="-329" rx="46.5926" ry="18"/>
<text text-anchor="middle" x="187.288" y="-325.3" font-family="Times New Roman,serif" font-size="14.00">(11) AND</text>
</g>
<!-- node1&#45;&gt;node11 -->
<g id="edge13" class="edge"><title>node1&#45;&gt;node11</title>
<path fill="none" stroke="black" d="M83.9961,-340.689C96.3691,-339.606 109.995,-338.335 122.493,-337 125.767,-336.65 129.134,-336.275 132.528,-335.884"/>
<polygon fill="black" stroke="black" points="133.21,-339.328 142.73,-334.678 132.388,-332.377 133.21,-339.328"/>
<text text-anchor="middle" x="112.493" y="-341.8" font-family="Times New Roman,serif" font-size="14.00"> (0)</text>
</g>
<!-- node2 -->
<g id="node3" class="node"><title>node2</title>
<ellipse fill="none" stroke="black" cx="42.2463" cy="-96" rx="42.4939" ry="18"/>
<text text-anchor="middle" x="42.2463" y="-92.3" font-family="Times New Roman,serif" font-size="14.00">(2) Input</text>
</g>
<!-- node2&#45;&gt;node5 -->
<g id="edge1" class="edge"><title>node2&#45;&gt;node5</title>
<path fill="none" stroke="black" d="M72.8847,-108.639C94.4614,-117.841 123.89,-130.391 147.362,-140.4"/>
<polygon fill="black" stroke="black" points="146.116,-143.674 156.688,-144.377 148.862,-137.235 146.116,-143.674"/>
<text text-anchor="middle" x="112.493" y="-131.8" font-family="Times New Roman,serif" font-size="14.00"> (0)</text>
</g>
<!-- node12 -->
<g id="node13" class="node"><title>node12</title>
<ellipse fill="none" stroke="black" cx="403.322" cy="-65" rx="47.3916" ry="18"/>
<text text-anchor="middle" x="403.322" y="-61.3" font-family="Times New Roman,serif" font-size="14.00">(12) XOR</text>
</g>
<!-- node2&#45;&gt;node12 -->
<g id="edge15" class="edge"><title>node2&#45;&gt;node12</title>
<path fill="none" stroke="black" d="M69.6498,-82.2075C88.7485,-73.0384 115.488,-61.8271 140.493,-57 211.659,-43.2614 295.694,-49.7296 348.993,-56.5696"/>
<polygon fill="black" stroke="black" points="348.855,-60.0821 359.23,-57.9366 349.781,-53.1437 348.855,-60.0821"/>
<text text-anchor="middle" x="187.288" y="-60.8" font-family="Times New Roman,serif" font-size="14.00"> (0)</text>
</g>
<!-- node3 -->
<g id="node4" class="node"><title>node3</title>
<ellipse fill="none" stroke="black" cx="42.2463" cy="-260" rx="42.4939" ry="18"/>
<text text-anchor="middle" x="42.2463" y="-256.3" font-family="Times New Roman,serif" font-size="14.00">(3) Input</text>
</g>
<!-- node3&#45;&gt;node7 -->
<g id="edge5" class="edge"><title>node3&#45;&gt;node7</title>
<path fill="none" stroke="black" d="M78.0946,-250.348C86.0511,-248.542 94.514,-246.93 102.493,-246 151.51,-240.287 207.752,-247.17 246.54,-254.009"/>
<polygon fill="black" stroke="black" points="246.036,-257.475 256.503,-255.832 247.296,-250.589 246.036,-257.475"/>
<text text-anchor="middle" x="112.493" y="-249.8" font-family="Times New Roman,serif" font-size="14.00"> (0)</text>
</g>
<!-- node3&#45;&gt;node11 -->
<g id="edge14" class="edge"><title>node3&#45;&gt;node11</title>
<path fill="none" stroke="black" d="M64.1747,-275.546C75.1959,-283.269 89.1608,-292.345 102.493,-299 114.274,-304.881 127.498,-310.171 139.898,-314.612"/>
<polygon fill="black" stroke="black" points="139.027,-318.015 149.622,-317.986 141.322,-311.401 139.027,-318.015"/>
<text text-anchor="middle" x="112.493" y="-310.8" font-family="Times New Roman,serif" font-size="14.00"> (1)</text>
</g>
<!-- node4 -->
<g id="node5" class="node"><title>node4</title>
<ellipse fill="none" stroke="black" cx="42.2463" cy="-18" rx="42.4939" ry="18"/>
<text text-anchor="middle" x="42.2463" y="-14.3" font-family="Times New Roman,serif" font-size="14.00">(4) Input</text>
</g>
<!-- node4&#45;&gt;node6 -->
<g id="edge3" class="edge"><title>node4&#45;&gt;node6</title>
<path fill="none" stroke="black" d="M68.49,-32.2947C91.634,-45.4004 126.108,-64.9218 151.789,-79.4643"/>
<polygon fill="black" stroke="black" points="150.389,-82.6938 160.816,-84.5757 153.839,-76.6026 150.389,-82.6938"/>
<text text-anchor="middle" x="112.493" y="-63.8" font-family="Times New Roman,serif" font-size="14.00"> (0)</text>
</g>
<!-- node8 -->
<g id="node9" class="node"><title>node8</title>
<ellipse fill="none" stroke="black" cx="403.322" cy="-157" rx="42.4939" ry="18"/>
<text text-anchor="middle" x="403.322" y="-153.3" font-family="Times New Roman,serif" font-size="14.00">(8) AND</text>
</g>
<!-- node5&#45;&gt;node8 -->
<g id="edge8" class="edge"><title>node5&#45;&gt;node8</title>
<path fill="none" stroke="black" d="M230.319,-157C264.816,-157 313.813,-157 350.693,-157"/>
<polygon fill="black" stroke="black" points="350.752,-160.5 360.752,-157 350.752,-153.5 350.752,-160.5"/>
<text text-anchor="middle" x="294.98" y="-160.8" font-family="Times New Roman,serif" font-size="14.00"> (1)</text>
</g>
<!-- node6&#45;&gt;node8 -->
<g id="edge7" class="edge"><title>node6&#45;&gt;node8</title>
<path fill="none" stroke="black" d="M224.647,-108.137C254.992,-115.844 299.346,-127.3 337.877,-138 344.522,-139.845 351.535,-141.852 358.392,-143.846"/>
<polygon fill="black" stroke="black" points="357.684,-147.286 368.265,-146.74 359.653,-140.569 357.684,-147.286"/>
<text text-anchor="middle" x="294.98" y="-141.8" font-family="Times New Roman,serif" font-size="14.00"> (0)</text>
</g>
<!-- node6&#45;&gt;node12 -->
<g id="edge16" class="edge"><title>node6&#45;&gt;node12</title>
<path fill="none" stroke="black" d="M222.84,-88.7967C232.261,-86.2882 242.51,-83.807 252.084,-82 283.098,-76.1464 318.119,-72.0414 346.543,-69.3336"/>
<polygon fill="black" stroke="black" points="347.06,-72.8009 356.697,-68.3985 346.418,-65.8303 347.06,-72.8009"/>
<text text-anchor="middle" x="294.98" y="-85.8" font-family="Times New Roman,serif" font-size="14.00"> (1)</text>
</g>
<!-- node10 -->
<g id="node11" class="node"><title>node10</title>
<ellipse fill="none" stroke="black" cx="696.006" cy="-229" rx="46.5926" ry="18"/>
<text text-anchor="middle" x="696.006" y="-225.3" font-family="Times New Roman,serif" font-size="14.00">(10) AND</text>
</g>
<!-- node7&#45;&gt;node10 -->
<g id="edge12" class="edge"><title>node7&#45;&gt;node10</title>
<path fill="none" stroke="black" d="M337.18,-260.386C409.457,-254.047 559.095,-240.921 640.08,-233.818"/>
<polygon fill="black" stroke="black" points="640.427,-237.301 650.083,-232.94 639.815,-230.328 640.427,-237.301"/>
<text text-anchor="middle" x="478.768" y="-251.8" font-family="Times New Roman,serif" font-size="14.00"> (1)</text>
</g>
<!-- node14 -->
<g id="node15" class="node"><title>node14</title>
<ellipse fill="none" stroke="black" cx="696.006" cy="-283" rx="47.3916" ry="18"/>
<text text-anchor="middle" x="696.006" y="-279.3" font-family="Times New Roman,serif" font-size="14.00">(14) XOR</text>
</g>
<!-- node7&#45;&gt;node14 -->
<g id="edge20" class="edge"><title>node7&#45;&gt;node14</title>
<path fill="none" stroke="black" d="M337.929,-265.997C410.079,-269.433 557.706,-276.462 638.716,-280.32"/>
<polygon fill="black" stroke="black" points="638.578,-283.817 648.733,-280.797 638.911,-276.825 638.578,-283.817"/>
<text text-anchor="middle" x="478.768" y="-275.8" font-family="Times New Roman,serif" font-size="14.00"> (1)</text>
</g>
<!-- node8&#45;&gt;node9 -->
<g id="edge10" class="edge"><title>node8&#45;&gt;node9</title>
<path fill="none" stroke="black" d="M442.208,-164.367C456.784,-167.27 473.57,-170.695 488.768,-174 493.112,-174.945 497.626,-175.952 502.142,-176.977"/>
<polygon fill="black" stroke="black" points="501.431,-180.405 511.961,-179.232 502.998,-173.583 501.431,-180.405"/>
<text text-anchor="middle" x="478.768" y="-177.8" font-family="Times New Roman,serif" font-size="14.00"> (1)</text>
</g>
<!-- node9&#45;&gt;node10 -->
<g id="edge11" class="edge"><title>node9&#45;&gt;node10</title>
<path fill="none" stroke="black" d="M584.027,-177.185C598.632,-174.128 615.773,-172.857 630.561,-178 646.218,-183.446 660.938,-194.454 672.346,-204.853"/>
<polygon fill="black" stroke="black" points="670.042,-207.493 679.686,-211.88 674.883,-202.436 670.042,-207.493"/>
<text text-anchor="middle" x="620.561" y="-181.8" font-family="Times New Roman,serif" font-size="14.00"> (0)</text>
</g>
<!-- node9&#45;&gt;node14 -->
<g id="edge19" class="edge"><title>node9&#45;&gt;node14</title>
<path fill="none" stroke="black" d="M572.1,-203.633C591.711,-217.756 621.676,-238.888 648.561,-256 652.19,-258.31 656.019,-260.664 659.858,-262.972"/>
<polygon fill="black" stroke="black" points="658.357,-266.15 668.746,-268.228 661.92,-260.125 658.357,-266.15"/>
<text text-anchor="middle" x="620.561" y="-246.8" font-family="Times New Roman,serif" font-size="14.00"> (0)</text>
</g>
<!-- node13 -->
<g id="node14" class="node"><title>node13</title>
<ellipse fill="none" stroke="black" cx="846.898" cy="-282" rx="47.3916" ry="18"/>
<text text-anchor="middle" x="846.898" y="-278.3" font-family="Times New Roman,serif" font-size="14.00">(13) XOR</text>
</g>
<!-- node10&#45;&gt;node13 -->
<g id="edge18" class="edge"><title>node10&#45;&gt;node13</title>
<path fill="none" stroke="black" d="M731.165,-241.159C752.18,-248.64 779.325,-258.303 801.935,-266.351"/>
<polygon fill="black" stroke="black" points="801.046,-269.749 811.641,-269.806 803.393,-263.155 801.046,-269.749"/>
<text text-anchor="middle" x="771.452" y="-261.8" font-family="Times New Roman,serif" font-size="14.00"> (1)</text>
</g>
<!-- node11&#45;&gt;node13 -->
<g id="edge17" class="edge"><title>node11&#45;&gt;node13</title>
<path fill="none" stroke="black" d="M234.215,-329C277.556,-329 344.355,-329 402.322,-329 402.322,-329 402.322,-329 697.006,-329 736.631,-329 779.55,-313.675 809.082,-300.527"/>
<polygon fill="black" stroke="black" points="810.547,-303.706 818.178,-296.357 807.629,-297.343 810.547,-303.706"/>
<text text-anchor="middle" x="549.664" y="-332.8" font-family="Times New Roman,serif" font-size="14.00"> (0)</text>
</g>
<!-- node15 -->
<g id="node16" class="node"><title>node15</title>
<ellipse fill="none" stroke="black" cx="974.24" cy="-65" rx="42.7926" ry="18"/>
<text text-anchor="middle" x="974.24" y="-61.3" font-family="Times New Roman,serif" font-size="14.00">Output 0</text>
</g>
<!-- node12&#45;&gt;node15 -->
<g id="edge21" class="edge"><title>node12&#45;&gt;node15</title>
<path fill="none" stroke="black" d="M450.801,-65C479.092,-65 515.962,-65 548.664,-65 548.664,-65 548.664,-65 847.898,-65 871.958,-65 898.616,-65 921.14,-65"/>
<polygon fill="black" stroke="black" points="921.173,-68.5001 931.173,-65 921.173,-61.5001 921.173,-68.5001"/>
</g>
<!-- node17 -->
<g id="node18" class="node"><title>node17</title>
<ellipse fill="none" stroke="black" cx="974.24" cy="-282" rx="42.7926" ry="18"/>
<text text-anchor="middle" x="974.24" y="-278.3" font-family="Times New Roman,serif" font-size="14.00">Output 2</text>
</g>
<!-- node13&#45;&gt;node17 -->
<g id="edge23" class="edge"><title>node13&#45;&gt;node17</title>
<path fill="none" stroke="black" d="M894.571,-282C903.175,-282 912.211,-282 920.968,-282"/>
<polygon fill="black" stroke="black" points="921.078,-285.5 931.078,-282 921.078,-278.5 921.078,-285.5"/>
</g>
<!-- node16 -->
<g id="node17" class="node"><title>node16</title>
<ellipse fill="none" stroke="black" cx="974.24" cy="-354" rx="42.7926" ry="18"/>
<text text-anchor="middle" x="974.24" y="-350.3" font-family="Times New Roman,serif" font-size="14.00">Output 1</text>
</g>
<!-- node14&#45;&gt;node16 -->
<g id="edge22" class="edge"><title>node14&#45;&gt;node16</title>
<path fill="none" stroke="black" d="M735.706,-292.947C785.924,-305.854 873.442,-328.349 927.071,-342.133"/>
<polygon fill="black" stroke="black" points="926.442,-345.585 936.999,-344.685 928.185,-338.806 926.442,-345.585"/>
</g>
</g>
</svg>
