<?xml version="1.0" encoding="UTF-8" standalone="no"?>
<!DOCTYPE svg PUBLIC "-//W3C//DTD SVG 1.1//EN"
 "http://www.w3.org/Graphics/SVG/1.1/DTD/svg11.dtd">
<!-- Generated by graphviz version 2.38.0 (20140413.2041)
 -->
<!-- Title: NeuralNetwork Pages: 1 -->
<svg width="288pt" height="112pt"
 viewBox="0.00 0.00 288.00 111.80" xmlns="http://www.w3.org/2000/svg" xmlns:xlink="http://www.w3.org/1999/xlink">
<g id="graph0" class="graph" transform="scale(0.262432 0.262432) rotate(0) translate(4 422)">
<title>NeuralNetwork</title>
<polygon fill="white" stroke="none" points="-4,4 -4,-422 1093.43,-422 1093.43,4 -4,4"/>
<!-- node0 -->
<g id="node1" class="node"><title>node0</title>
<ellipse fill="none" stroke="black" cx="42.2463" cy="-110" rx="42.4939" ry="18"/>
<text text-anchor="middle" x="42.2463" y="-106.3" font-family="Times New Roman,serif" font-size="14.00">(0) Input</text>
</g>
<!-- node5 -->
<g id="node6" class="node"><title>node5</title>
<ellipse fill="none" stroke="black" cx="187.938" cy="-129" rx="42.4939" ry="18"/>
<text text-anchor="middle" x="187.938" y="-125.3" font-family="Times New Roman,serif" font-size="14.00">(5) AND</text>
</g>
<!-- node0&#45;&gt;node5 -->
<g id="edge1" class="edge"><title>node0&#45;&gt;node5</title>
<path fill="none" stroke="black" d="M84.5336,-108.498C96.8012,-108.596 110.235,-109.241 122.493,-111 129.687,-112.032 137.213,-113.635 144.481,-115.467"/>
<polygon fill="black" stroke="black" points="143.608,-118.857 154.174,-118.077 145.428,-112.098 143.608,-118.857"/>
<text text-anchor="middle" x="112.493" y="-114.8" font-family="Times New Roman,serif" font-size="14.00"> (0)</text>
</g>
<!-- node8 -->
<g id="node9" class="node"><title>node8</title>
<ellipse fill="none" stroke="black" cx="187.938" cy="-186" rx="36.2938" ry="18"/>
<text text-anchor="middle" x="187.938" y="-182.3" font-family="Times New Roman,serif" font-size="14.00">(8) OR</text>
</g>
<!-- node0&#45;&gt;node8 -->
<g id="edge7" class="edge"><title>node0&#45;&gt;node8</title>
<path fill="none" stroke="black" d="M57.6941,-126.983C68.7921,-138.994 85.1208,-154.578 102.493,-164 114.803,-170.677 129.233,-175.4 142.647,-178.711"/>
<polygon fill="black" stroke="black" points="142.13,-182.182 152.655,-180.975 143.675,-175.354 142.13,-182.182"/>
<text text-anchor="middle" x="112.493" y="-175.8" font-family="Times New Roman,serif" font-size="14.00"> (0)</text>
</g>
<!-- node11 -->
<g id="node12" class="node"><title>node11</title>
<ellipse fill="none" stroke="black" cx="187.938" cy="-72" rx="47.3916" ry="18"/>
<text text-anchor="middle" x="187.938" y="-68.3" font-family="Times New Roman,serif" font-size="14.00">(11) XOR</text>
</g>
<!-- node0&#45;&gt;node11 -->
<g id="edge12" class="edge"><title>node0&#45;&gt;node11</title>
<path fill="none" stroke="black" d="M75.0152,-98.5229C83.8486,-95.538 93.489,-92.4703 102.493,-90 113.007,-87.1151 124.363,-84.4165 135.235,-82.0312"/>
<polygon fill="black" stroke="black" points="135.998,-85.4472 145.044,-79.9323 134.533,-78.6022 135.998,-85.4472"/>
<text text-anchor="middle" x="112.493" y="-93.8" font-family="Times New Roman,serif" font-size="14.00"> (0)</text>
</g>
<!-- node1 -->
<g id="node2" class="node"><title>node1</title>
<ellipse fill="none" stroke="black" cx="42.2463" cy="-400" rx="42.4939" ry="18"/>
<text text-anchor="middle" x="42.2463" y="-396.3" font-family="Times New Roman,serif" font-size="14.00">(1) Input</text>
</g>
<!-- node6 -->
<g id="node7" class="node"><title>node6</title>
<ellipse fill="none" stroke="black" cx="296.28" cy="-317" rx="42.7926" ry="18"/>
<text text-anchor="middle" x="296.28" y="-313.3" font-family="Times New Roman,serif" font-size="14.00">(6) XOR</text>
</g>
<!-- node1&#45;&gt;node6 -->
<g id="edge3" class="edge"><title>node1&#45;&gt;node6</title>
<path fill="none" stroke="black" d="M54.0224,-382.557C64.4121,-367.427 81.6102,-346.375 102.493,-336 126.394,-324.125 194.759,-319.672 243.268,-318.002"/>
<polygon fill="black" stroke="black" points="243.411,-321.499 253.295,-317.686 243.19,-314.502 243.411,-321.499"/>
<text text-anchor="middle" x="112.493" y="-339.8" font-family="Times New Roman,serif" font-size="14.00"> (0)</text>
</g>
<!-- node14 -->
<g id="node15" class="node"><title>node14</title>
<ellipse fill="none" stroke="black" cx="187.938" cy="-387" rx="40.8928" ry="18"/>
<text text-anchor="middle" x="187.938" y="-383.3" font-family="Times New Roman,serif" font-size="14.00">(14) OR</text>
</g>
<!-- node1&#45;&gt;node14 -->
<g id="edge19" class="edge"><title>node1&#45;&gt;node14</title>
<path fill="none" stroke="black" d="M83.9716,-396.44C96.3437,-395.348 109.975,-394.136 122.493,-393 127.343,-392.56 132.399,-392.097 137.451,-391.631"/>
<polygon fill="black" stroke="black" points="138.114,-395.085 147.749,-390.678 137.469,-388.115 138.114,-395.085"/>
<text text-anchor="middle" x="112.493" y="-397.8" font-family="Times New Roman,serif" font-size="14.00"> (1)</text>
</g>
<!-- node2 -->
<g id="node3" class="node"><title>node2</title>
<ellipse fill="none" stroke="black" cx="42.2463" cy="-18" rx="42.4939" ry="18"/>
<text text-anchor="middle" x="42.2463" y="-14.3" font-family="Times New Roman,serif" font-size="14.00">(2) Input</text>
</g>
<!-- node7 -->
<g id="node8" class="node"><title>node7</title>
<ellipse fill="none" stroke="black" cx="404.622" cy="-129" rx="36.2938" ry="18"/>
<text text-anchor="middle" x="404.622" y="-125.3" font-family="Times New Roman,serif" font-size="14.00">(7) OR</text>
</g>
<!-- node2&#45;&gt;node7 -->
<g id="edge5" class="edge"><title>node2&#45;&gt;node7</title>
<path fill="none" stroke="black" d="M83.9607,-15.1322C123.536,-13.5919 184.891,-14.5393 235.384,-30 289.589,-46.5971 344.786,-83.7725 376.537,-107.548"/>
<polygon fill="black" stroke="black" points="374.771,-110.603 384.85,-113.87 379.009,-105.031 374.771,-110.603"/>
<text text-anchor="middle" x="187.938" y="-33.8" font-family="Times New Roman,serif" font-size="14.00"> (0)</text>
</g>
<!-- node2&#45;&gt;node11 -->
<g id="edge13" class="edge"><title>node2&#45;&gt;node11</title>
<path fill="none" stroke="black" d="M74.4253,-29.7172C94.7732,-37.364 121.61,-47.4495 143.97,-55.8525"/>
<polygon fill="black" stroke="black" points="142.975,-59.2175 153.567,-59.4591 145.438,-52.6649 142.975,-59.2175"/>
<text text-anchor="middle" x="112.493" y="-49.8" font-family="Times New Roman,serif" font-size="14.00"> (1)</text>
</g>
<!-- node3 -->
<g id="node4" class="node"><title>node3</title>
<ellipse fill="none" stroke="black" cx="42.2463" cy="-316" rx="42.4939" ry="18"/>
<text text-anchor="middle" x="42.2463" y="-312.3" font-family="Times New Roman,serif" font-size="14.00">(3) Input</text>
</g>
<!-- node3&#45;&gt;node6 -->
<g id="edge4" class="edge"><title>node3&#45;&gt;node6</title>
<path fill="none" stroke="black" d="M78.0946,-306.348C86.0511,-304.542 94.514,-302.93 102.493,-302 151.469,-296.292 207.706,-302.071 246.751,-308.035"/>
<polygon fill="black" stroke="black" points="246.364,-311.518 256.789,-309.631 247.463,-304.604 246.364,-311.518"/>
<text text-anchor="middle" x="112.493" y="-305.8" font-family="Times New Roman,serif" font-size="14.00"> (1)</text>
</g>
<!-- node3&#45;&gt;node14 -->
<g id="edge18" class="edge"><title>node3&#45;&gt;node14</title>
<path fill="none" stroke="black" d="M64.2263,-331.444C75.2612,-339.139 89.2227,-348.223 102.493,-355 115.75,-361.771 130.791,-367.922 144.468,-372.98"/>
<polygon fill="black" stroke="black" points="143.546,-376.369 154.14,-376.464 145.918,-369.783 143.546,-376.369"/>
<text text-anchor="middle" x="112.493" y="-367.8" font-family="Times New Roman,serif" font-size="14.00"> (0)</text>
</g>
<!-- node4 -->
<g id="node5" class="node"><title>node4</title>
<ellipse fill="none" stroke="black" cx="42.2463" cy="-224" rx="42.4939" ry="18"/>
<text text-anchor="middle" x="42.2463" y="-220.3" font-family="Times New Roman,serif" font-size="14.00">(4) Input</text>
</g>
<!-- node4&#45;&gt;node5 -->
<g id="edge2" class="edge"><title>node4&#45;&gt;node5</title>
<path fill="none" stroke="black" d="M51.6324,-206.149C61.2422,-187.766 78.7764,-159.779 102.493,-145 112.385,-138.835 124.103,-134.943 135.612,-132.51"/>
<polygon fill="black" stroke="black" points="136.389,-135.927 145.621,-130.728 135.162,-129.035 136.389,-135.927"/>
<text text-anchor="middle" x="112.493" y="-148.8" font-family="Times New Roman,serif" font-size="14.00"> (1)</text>
</g>
<!-- node4&#45;&gt;node8 -->
<g id="edge8" class="edge"><title>node4&#45;&gt;node8</title>
<path fill="none" stroke="black" d="M78.7656,-214.607C98.9979,-209.256 124.446,-202.526 145.575,-196.939"/>
<polygon fill="black" stroke="black" points="146.479,-200.32 155.252,-194.38 144.689,-193.553 146.479,-200.32"/>
<text text-anchor="middle" x="112.493" y="-210.8" font-family="Times New Roman,serif" font-size="14.00"> (1)</text>
</g>
<!-- node13 -->
<g id="node14" class="node"><title>node13</title>
<ellipse fill="none" stroke="black" cx="404.622" cy="-244" rx="47.3916" ry="18"/>
<text text-anchor="middle" x="404.622" y="-240.3" font-family="Times New Roman,serif" font-size="14.00">(13) XOR</text>
</g>
<!-- node4&#45;&gt;node13 -->
<g id="edge17" class="edge"><title>node4&#45;&gt;node13</title>
<path fill="none" stroke="black" d="M84.2351,-226.275C148.766,-229.856 274.199,-236.817 347.197,-240.869"/>
<polygon fill="black" stroke="black" points="347.395,-244.385 357.574,-241.444 347.783,-237.396 347.395,-244.385"/>
<text text-anchor="middle" x="187.938" y="-237.8" font-family="Times New Roman,serif" font-size="14.00"> (1)</text>
</g>
<!-- node5&#45;&gt;node7 -->
<g id="edge6" class="edge"><title>node5&#45;&gt;node7</title>
<path fill="none" stroke="black" d="M230.332,-129C266.862,-129 320.031,-129 357.825,-129"/>
<polygon fill="black" stroke="black" points="358.051,-132.5 368.051,-129 358.051,-125.5 358.051,-132.5"/>
<text text-anchor="middle" x="296.28" y="-132.8" font-family="Times New Roman,serif" font-size="14.00"> (1)</text>
</g>
<!-- node9 -->
<g id="node10" class="node"><title>node9</title>
<ellipse fill="none" stroke="black" cx="512.314" cy="-336" rx="42.4939" ry="18"/>
<text text-anchor="middle" x="512.314" y="-332.3" font-family="Times New Roman,serif" font-size="14.00">(9) NEG</text>
</g>
<!-- node6&#45;&gt;node9 -->
<g id="edge9" class="edge"><title>node6&#45;&gt;node9</title>
<path fill="none" stroke="black" d="M338.295,-320.641C373.134,-323.734 423.284,-328.185 460.631,-331.501"/>
<polygon fill="black" stroke="black" points="460.531,-335.006 470.802,-332.404 461.15,-328.033 460.531,-335.006"/>
<text text-anchor="middle" x="404.622" y="-333.8" font-family="Times New Roman,serif" font-size="14.00"> (0)</text>
</g>
<!-- node12 -->
<g id="node13" class="node"><title>node12</title>
<ellipse fill="none" stroke="black" cx="769.598" cy="-210" rx="47.3916" ry="18"/>
<text text-anchor="middle" x="769.598" y="-206.3" font-family="Times New Roman,serif" font-size="14.00">(12) XOR</text>
</g>
<!-- node6&#45;&gt;node12 -->
<g id="edge15" class="edge"><title>node6&#45;&gt;node12</title>
<path fill="none" stroke="black" d="M337.845,-312.108C411.854,-302.53 573.23,-278.617 704.152,-238 712.871,-235.295 722,-231.779 730.554,-228.157"/>
<polygon fill="black" stroke="black" points="732.157,-231.276 739.914,-224.06 729.35,-224.863 732.157,-231.276"/>
<text text-anchor="middle" x="512.314" y="-294.8" font-family="Times New Roman,serif" font-size="14.00"> (1)</text>
</g>
<!-- node10 -->
<g id="node11" class="node"><title>node10</title>
<ellipse fill="none" stroke="black" cx="619.356" cy="-184" rx="46.5926" ry="18"/>
<text text-anchor="middle" x="619.356" y="-180.3" font-family="Times New Roman,serif" font-size="14.00">(10) AND</text>
</g>
<!-- node7&#45;&gt;node10 -->
<g id="edge10" class="edge"><title>node7&#45;&gt;node10</title>
<path fill="none" stroke="black" d="M440.177,-132.93C470.717,-136.952 516.234,-144.293 554.561,-156 563.217,-158.644 572.265,-162.135 580.734,-165.752"/>
<polygon fill="black" stroke="black" points="579.439,-169.006 590,-169.851 582.271,-162.604 579.439,-169.006"/>
<text text-anchor="middle" x="512.314" y="-159.8" font-family="Times New Roman,serif" font-size="14.00"> (0)</text>
</g>
<!-- node8&#45;&gt;node10 -->
<g id="edge11" class="edge"><title>node8&#45;&gt;node10</title>
<path fill="none" stroke="black" d="M224.445,-185.835C298.958,-185.488 472.162,-184.681 562.017,-184.262"/>
<polygon fill="black" stroke="black" points="562.303,-187.761 572.287,-184.215 562.271,-180.761 562.303,-187.761"/>
<text text-anchor="middle" x="404.622" y="-188.8" font-family="Times New Roman,serif" font-size="14.00"> (1)</text>
</g>
<!-- node15 -->
<g id="node16" class="node"><title>node15</title>
<ellipse fill="none" stroke="black" cx="769.598" cy="-336" rx="40.8928" ry="18"/>
<text text-anchor="middle" x="769.598" y="-332.3" font-family="Times New Roman,serif" font-size="14.00">(15) OR</text>
</g>
<!-- node9&#45;&gt;node15 -->
<g id="edge20" class="edge"><title>node9&#45;&gt;node15</title>
<path fill="none" stroke="black" d="M554.614,-336C599.313,-336 670.607,-336 718.48,-336"/>
<polygon fill="black" stroke="black" points="718.62,-339.5 728.62,-336 718.62,-332.5 718.62,-339.5"/>
<text text-anchor="middle" x="619.356" y="-339.8" font-family="Times New Roman,serif" font-size="14.00"> (0)</text>
</g>
<!-- node10&#45;&gt;node12 -->
<g id="edge14" class="edge"><title>node10&#45;&gt;node12</title>
<path fill="none" stroke="black" d="M665.884,-181.595C678.38,-181.733 691.868,-182.625 704.152,-185 712.621,-186.637 721.414,-189.326 729.683,-192.347"/>
<polygon fill="black" stroke="black" points="728.508,-195.645 739.097,-196.002 731.042,-189.12 728.508,-195.645"/>
<text text-anchor="middle" x="694.152" y="-188.8" font-family="Times New Roman,serif" font-size="14.00"> (0)</text>
</g>
<!-- node10&#45;&gt;node15 -->
<g id="edge21" class="edge"><title>node10&#45;&gt;node15</title>
<path fill="none" stroke="black" d="M636.787,-200.847C663.195,-227.925 715.172,-281.219 745.366,-312.179"/>
<polygon fill="black" stroke="black" points="743.057,-314.824 752.544,-319.539 748.068,-309.936 743.057,-314.824"/>
<text text-anchor="middle" x="694.152" y="-272.8" font-family="Times New Roman,serif" font-size="14.00"> (1)</text>
</g>
<!-- node11&#45;&gt;node13 -->
<g id="edge16" class="edge"><title>node11&#45;&gt;node13</title>
<path fill="none" stroke="black" d="M217.238,-86.2905C223.848,-90.6365 230.403,-95.9049 235.384,-102 249.276,-119 239.45,-131.035 253.384,-148 282.834,-183.857 329.309,-210.638 362.773,-226.678"/>
<polygon fill="black" stroke="black" points="361.3,-229.853 371.842,-230.915 364.264,-223.511 361.3,-229.853"/>
<text text-anchor="middle" x="296.28" y="-215.8" font-family="Times New Roman,serif" font-size="14.00"> (0)</text>
</g>
<!-- node18 -->
<g id="node19" class="node"><title>node18</title>
<ellipse fill="none" stroke="black" cx="1046.53" cy="-210" rx="42.7926" ry="18"/>
<text text-anchor="middle" x="1046.53" y="-206.3" font-family="Times New Roman,serif" font-size="14.00">Output 1</text>
</g>
<!-- node12&#45;&gt;node18 -->
<g id="edge25" class="edge"><title>node12&#45;&gt;node18</title>
<path fill="none" stroke="black" d="M817.237,-210C866.112,-210 942.713,-210 993.513,-210"/>
<polygon fill="black" stroke="black" points="993.628,-213.5 1003.63,-210 993.628,-206.5 993.628,-213.5"/>
</g>
<!-- node17 -->
<g id="node18" class="node"><title>node17</title>
<ellipse fill="none" stroke="black" cx="1046.53" cy="-290" rx="42.7926" ry="18"/>
<text text-anchor="middle" x="1046.53" y="-286.3" font-family="Times New Roman,serif" font-size="14.00">Output 0</text>
</g>
<!-- node13&#45;&gt;node17 -->
<g id="edge24" class="edge"><title>node13&#45;&gt;node17</title>
<path fill="none" stroke="black" d="M448.022,-251.544C522.001,-264.595 669.108,-290 693.152,-290 693.152,-290 693.152,-290 920.84,-290 944.574,-290 970.849,-290 993.136,-290"/>
<polygon fill="black" stroke="black" points="993.398,-293.5 1003.4,-290 993.398,-286.5 993.398,-293.5"/>
</g>
<!-- node16 -->
<g id="node17" class="node"><title>node16</title>
<ellipse fill="none" stroke="black" cx="919.84" cy="-365" rx="46.5926" ry="18"/>
<text text-anchor="middle" x="919.84" y="-361.3" font-family="Times New Roman,serif" font-size="14.00">(16) AND</text>
</g>
<!-- node14&#45;&gt;node16 -->
<g id="edge23" class="edge"><title>node14&#45;&gt;node16</title>
<path fill="none" stroke="black" d="M228.901,-387C272.014,-387 342.683,-387 403.622,-387 403.622,-387 403.622,-387 770.598,-387 803.619,-387 840.333,-381.593 868.963,-376.14"/>
<polygon fill="black" stroke="black" points="869.988,-379.505 879.124,-374.139 868.636,-372.637 869.988,-379.505"/>
<text text-anchor="middle" x="619.356" y="-390.8" font-family="Times New Roman,serif" font-size="14.00"> (1)</text>
</g>
<!-- node15&#45;&gt;node16 -->
<g id="edge22" class="edge"><title>node15&#45;&gt;node16</title>
<path fill="none" stroke="black" d="M807.242,-343.169C825.579,-346.756 848.068,-351.155 868.042,-355.063"/>
<polygon fill="black" stroke="black" points="867.432,-358.51 877.918,-356.995 868.776,-351.64 867.432,-358.51"/>
<text text-anchor="middle" x="845.044" y="-355.8" font-family="Times New Roman,serif" font-size="14.00"> (0)</text>
</g>
<!-- node19 -->
<g id="node20" class="node"><title>node19</title>
<ellipse fill="none" stroke="black" cx="1046.53" cy="-365" rx="42.7926" ry="18"/>
<text text-anchor="middle" x="1046.53" y="-361.3" font-family="Times New Roman,serif" font-size="14.00">Output 2</text>
</g>
<!-- node16&#45;&gt;node19 -->
<g id="edge26" class="edge"><title>node16&#45;&gt;node19</title>
<path fill="none" stroke="black" d="M966.916,-365C975.493,-365 984.511,-365 993.257,-365"/>
<polygon fill="black" stroke="black" points="993.357,-368.5 1003.36,-365 993.357,-361.5 993.357,-368.5"/>
</g>
</g>
</svg>
