<?xml version="1.0" encoding="UTF-8" standalone="no"?>
<!DOCTYPE svg PUBLIC "-//W3C//DTD SVG 1.1//EN"
 "http://www.w3.org/Graphics/SVG/1.1/DTD/svg11.dtd">
<!-- Generated by graphviz version 2.38.0 (20140413.2041)
 -->
<!-- Title: NeuralNetwork Pages: 1 -->
<svg width="288pt" height="86pt"
 viewBox="0.00 0.00 288.00 86.22" xmlns="http://www.w3.org/2000/svg" xmlns:xlink="http://www.w3.org/1999/xlink">
<g id="graph0" class="graph" transform="scale(0.230027 0.230027) rotate(0) translate(4 370.833)">
<title>NeuralNetwork</title>
<polygon fill="white" stroke="none" points="-4,4 -4,-370.833 1248.03,-370.833 1248.03,4 -4,4"/>
<!-- node0 -->
<g id="node1" class="node"><title>node0</title>
<ellipse fill="none" stroke="black" cx="42.2463" cy="-98.833" rx="42.4939" ry="18"/>
<text text-anchor="middle" x="42.2463" y="-95.133" font-family="Times New Roman,serif" font-size="14.00">(0) Input</text>
</g>
<!-- node5 -->
<g id="node6" class="node"><title>node5</title>
<ellipse fill="none" stroke="black" cx="183.389" cy="-91.833" rx="42.7926" ry="18"/>
<text text-anchor="middle" x="183.389" y="-88.133" font-family="Times New Roman,serif" font-size="14.00">(5) XOR</text>
</g>
<!-- node0&#45;&gt;node5 -->
<g id="edge2" class="edge"><title>node0&#45;&gt;node5</title>
<path fill="none" stroke="black" d="M84.241,-96.7706C98.7004,-96.0432 115.153,-95.2155 130.4,-94.4484"/>
<polygon fill="black" stroke="black" points="130.912,-97.9272 140.724,-93.9291 130.561,-90.936 130.912,-97.9272"/>
<text text-anchor="middle" x="112.493" y="-98.633" font-family="Times New Roman,serif" font-size="14.00"> (1)</text>
</g>
<!-- node8 -->
<g id="node9" class="node"><title>node8</title>
<ellipse fill="none" stroke="black" cx="183.389" cy="-37.833" rx="42.4939" ry="18"/>
<text text-anchor="middle" x="183.389" y="-34.133" font-family="Times New Roman,serif" font-size="14.00">(8) AND</text>
</g>
<!-- node0&#45;&gt;node8 -->
<g id="edge7" class="edge"><title>node0&#45;&gt;node8</title>
<path fill="none" stroke="black" d="M58.8688,-82.052C74.5219,-65.4424 97.0538,-42.1592 102.493,-39.833 111.773,-35.8634 122.232,-33.9884 132.449,-33.3381"/>
<polygon fill="black" stroke="black" points="132.632,-36.8346 142.533,-33.0639 132.441,-29.8371 132.632,-36.8346"/>
<text text-anchor="middle" x="112.493" y="-43.633" font-family="Times New Roman,serif" font-size="14.00"> (0)</text>
</g>
<!-- node1 -->
<g id="node2" class="node"><title>node1</title>
<ellipse fill="none" stroke="black" cx="42.2463" cy="-258.833" rx="42.4939" ry="18"/>
<text text-anchor="middle" x="42.2463" y="-255.133" font-family="Times New Roman,serif" font-size="14.00">(1) Input</text>
</g>
<!-- node7 -->
<g id="node8" class="node"><title>node7</title>
<ellipse fill="none" stroke="black" cx="476.073" cy="-212.833" rx="42.7926" ry="18"/>
<text text-anchor="middle" x="476.073" y="-209.133" font-family="Times New Roman,serif" font-size="14.00">(7) XOR</text>
</g>
<!-- node1&#45;&gt;node7 -->
<g id="edge6" class="edge"><title>node1&#45;&gt;node7</title>
<path fill="none" stroke="black" d="M84.4493,-256.866C153.267,-253.204 295.816,-244.008 415.176,-225.833 419.555,-225.166 424.094,-224.373 428.624,-223.511"/>
<polygon fill="black" stroke="black" points="429.346,-226.936 438.463,-221.539 427.971,-220.072 429.346,-226.936"/>
<text text-anchor="middle" x="254.285" y="-248.633" font-family="Times New Roman,serif" font-size="14.00"> (1)</text>
</g>
<!-- node9 -->
<g id="node10" class="node"><title>node9</title>
<ellipse fill="none" stroke="black" cx="183.389" cy="-348.833" rx="36.2938" ry="18"/>
<text text-anchor="middle" x="183.389" y="-345.133" font-family="Times New Roman,serif" font-size="14.00">(9) OR</text>
</g>
<!-- node1&#45;&gt;node9 -->
<g id="edge9" class="edge"><title>node1&#45;&gt;node9</title>
<path fill="none" stroke="black" d="M66.2228,-273.695C89.5608,-288.79 125.845,-312.26 151.647,-328.949"/>
<polygon fill="black" stroke="black" points="150,-332.052 160.298,-334.544 153.802,-326.174 150,-332.052"/>
<text text-anchor="middle" x="112.493" y="-312.633" font-family="Times New Roman,serif" font-size="14.00"> (0)</text>
</g>
<!-- node2 -->
<g id="node3" class="node"><title>node2</title>
<ellipse fill="none" stroke="black" cx="42.2463" cy="-26.833" rx="42.4939" ry="18"/>
<text text-anchor="middle" x="42.2463" y="-23.133" font-family="Times New Roman,serif" font-size="14.00">(2) Input</text>
</g>
<!-- node2&#45;&gt;node5 -->
<g id="edge1" class="edge"><title>node2&#45;&gt;node5</title>
<path fill="none" stroke="black" d="M71.2534,-40.1241C81.1192,-44.7914 92.2909,-50.0602 102.493,-54.833 116.197,-61.2443 131.247,-68.2288 144.554,-74.385"/>
<polygon fill="black" stroke="black" points="143.345,-77.6822 153.891,-78.7011 146.283,-71.3282 143.345,-77.6822"/>
<text text-anchor="middle" x="112.493" y="-68.633" font-family="Times New Roman,serif" font-size="14.00"> (0)</text>
</g>
<!-- node2&#45;&gt;node8 -->
<g id="edge8" class="edge"><title>node2&#45;&gt;node8</title>
<path fill="none" stroke="black" d="M66.6971,-12.0463C82.4027,-3.97198 103.586,3.41146 122.493,-1.83298 133.39,-4.85581 144.292,-10.45 153.751,-16.3423"/>
<polygon fill="black" stroke="black" points="152.057,-19.4181 162.331,-22.0088 155.915,-13.5771 152.057,-19.4181"/>
<text text-anchor="middle" x="112.493" y="-5.63298" font-family="Times New Roman,serif" font-size="14.00"> (1)</text>
</g>
<!-- node3 -->
<g id="node4" class="node"><title>node3</title>
<ellipse fill="none" stroke="black" cx="42.2463" cy="-326.833" rx="42.4939" ry="18"/>
<text text-anchor="middle" x="42.2463" y="-323.133" font-family="Times New Roman,serif" font-size="14.00">(3) Input</text>
</g>
<!-- node3&#45;&gt;node9 -->
<g id="edge10" class="edge"><title>node3&#45;&gt;node9</title>
<path fill="none" stroke="black" d="M82.0052,-332.961C99.564,-335.737 120.404,-339.033 138.533,-341.899"/>
<polygon fill="black" stroke="black" points="138.144,-345.381 148.567,-343.485 139.237,-338.467 138.144,-345.381"/>
<text text-anchor="middle" x="112.493" y="-342.633" font-family="Times New Roman,serif" font-size="14.00"> (1)</text>
</g>
<!-- node10 -->
<g id="node11" class="node"><title>node10</title>
<ellipse fill="none" stroke="black" cx="622.415" cy="-239.833" rx="47.3916" ry="18"/>
<text text-anchor="middle" x="622.415" y="-236.133" font-family="Times New Roman,serif" font-size="14.00">(10) XOR</text>
</g>
<!-- node3&#45;&gt;node10 -->
<g id="edge11" class="edge"><title>node3&#45;&gt;node10</title>
<path fill="none" stroke="black" d="M82.5316,-320.922C183.561,-305.719 452.532,-265.246 567.778,-247.904"/>
<polygon fill="black" stroke="black" points="568.416,-251.347 577.784,-246.398 567.374,-244.425 568.416,-251.347"/>
<text text-anchor="middle" x="329.731" y="-293.633" font-family="Times New Roman,serif" font-size="14.00"> (0)</text>
</g>
<!-- node4 -->
<g id="node5" class="node"><title>node4</title>
<ellipse fill="none" stroke="black" cx="42.2463" cy="-161.833" rx="42.4939" ry="18"/>
<text text-anchor="middle" x="42.2463" y="-158.133" font-family="Times New Roman,serif" font-size="14.00">(4) Input</text>
</g>
<!-- node6 -->
<g id="node7" class="node"><title>node6</title>
<ellipse fill="none" stroke="black" cx="329.731" cy="-199.833" rx="42.4939" ry="18"/>
<text text-anchor="middle" x="329.731" y="-196.133" font-family="Times New Roman,serif" font-size="14.00">(6) AND</text>
</g>
<!-- node4&#45;&gt;node6 -->
<g id="edge3" class="edge"><title>node4&#45;&gt;node6</title>
<path fill="none" stroke="black" d="M82.9416,-167.117C134.144,-173.932 223.224,-185.789 278.919,-193.203"/>
<polygon fill="black" stroke="black" points="278.539,-196.683 288.913,-194.533 279.463,-189.744 278.539,-196.683"/>
<text text-anchor="middle" x="183.389" y="-189.633" font-family="Times New Roman,serif" font-size="14.00"> (0)</text>
</g>
<!-- node12 -->
<g id="node13" class="node"><title>node12</title>
<ellipse fill="none" stroke="black" cx="329.731" cy="-110.833" rx="47.3916" ry="18"/>
<text text-anchor="middle" x="329.731" y="-107.133" font-family="Times New Roman,serif" font-size="14.00">(12) XOR</text>
</g>
<!-- node4&#45;&gt;node12 -->
<g id="edge16" class="edge"><title>node4&#45;&gt;node12</title>
<path fill="none" stroke="black" d="M81.4517,-155.008C131.657,-146.039 220.054,-130.247 276.436,-120.175"/>
<polygon fill="black" stroke="black" points="277.346,-123.568 286.575,-118.364 276.115,-116.677 277.346,-123.568"/>
<text text-anchor="middle" x="183.389" y="-147.633" font-family="Times New Roman,serif" font-size="14.00"> (1)</text>
</g>
<!-- node5&#45;&gt;node6 -->
<g id="edge4" class="edge"><title>node5&#45;&gt;node6</title>
<path fill="none" stroke="black" d="M205.377,-107.537C230.178,-126.094 271.592,-157.08 299.517,-177.974"/>
<polygon fill="black" stroke="black" points="297.613,-180.921 307.717,-184.11 301.807,-175.317 297.613,-180.921"/>
<text text-anchor="middle" x="254.285" y="-152.633" font-family="Times New Roman,serif" font-size="14.00"> (1)</text>
</g>
<!-- node5&#45;&gt;node12 -->
<g id="edge15" class="edge"><title>node5&#45;&gt;node12</title>
<path fill="none" stroke="black" d="M224.596,-97.1255C240.07,-99.1624 258,-101.523 274.576,-103.705"/>
<polygon fill="black" stroke="black" points="274.317,-107.2 284.688,-105.036 275.23,-100.26 274.317,-107.2"/>
<text text-anchor="middle" x="254.285" y="-105.633" font-family="Times New Roman,serif" font-size="14.00"> (0)</text>
</g>
<!-- node6&#45;&gt;node7 -->
<g id="edge5" class="edge"><title>node6&#45;&gt;node7</title>
<path fill="none" stroke="black" d="M371.322,-203.489C387.549,-204.95 406.43,-206.651 423.603,-208.197"/>
<polygon fill="black" stroke="black" points="423.761,-211.726 434.035,-209.137 424.389,-204.754 423.761,-211.726"/>
<text text-anchor="middle" x="405.176" y="-210.633" font-family="Times New Roman,serif" font-size="14.00"> (0)</text>
</g>
<!-- node11 -->
<g id="node12" class="node"><title>node11</title>
<ellipse fill="none" stroke="black" cx="773.306" cy="-296.833" rx="47.3916" ry="18"/>
<text text-anchor="middle" x="773.306" y="-293.133" font-family="Times New Roman,serif" font-size="14.00">(11) XOR</text>
</g>
<!-- node6&#45;&gt;node11 -->
<g id="edge13" class="edge"><title>node6&#45;&gt;node11</title>
<path fill="none" stroke="black" d="M359.341,-212.816C379.597,-221.556 407.602,-232.739 433.176,-239.833 531.401,-267.079 649.453,-283.336 717.194,-291.143"/>
<polygon fill="black" stroke="black" points="716.889,-294.631 727.219,-292.279 717.677,-287.675 716.889,-294.631"/>
<text text-anchor="middle" x="546.969" y="-270.633" font-family="Times New Roman,serif" font-size="14.00"> (0)</text>
</g>
<!-- node7&#45;&gt;node10 -->
<g id="edge12" class="edge"><title>node7&#45;&gt;node10</title>
<path fill="none" stroke="black" d="M515.754,-220.068C532.228,-223.15 551.694,-226.791 569.4,-230.103"/>
<polygon fill="black" stroke="black" points="569.113,-233.61 579.586,-232.009 570.4,-226.73 569.113,-233.61"/>
<text text-anchor="middle" x="546.969" y="-230.633" font-family="Times New Roman,serif" font-size="14.00"> (1)</text>
</g>
<!-- node13 -->
<g id="node14" class="node"><title>node13</title>
<ellipse fill="none" stroke="black" cx="773.306" cy="-225.833" rx="47.3916" ry="18"/>
<text text-anchor="middle" x="773.306" y="-222.133" font-family="Times New Roman,serif" font-size="14.00">(13) XOR</text>
</g>
<!-- node8&#45;&gt;node13 -->
<g id="edge17" class="edge"><title>node8&#45;&gt;node13</title>
<path fill="none" stroke="black" d="M225.724,-37.6198C290.096,-38.4458 417.442,-44.7533 518.969,-78.833 606.828,-108.325 697.99,-170.33 743.222,-203.607"/>
<polygon fill="black" stroke="black" points="741.267,-206.515 751.382,-209.667 745.44,-200.895 741.267,-206.515"/>
<text text-anchor="middle" x="476.073" y="-82.633" font-family="Times New Roman,serif" font-size="14.00"> (0)</text>
</g>
<!-- node15 -->
<g id="node16" class="node"><title>node15</title>
<ellipse fill="none" stroke="black" cx="1073.79" cy="-329.833" rx="47.3916" ry="18"/>
<text text-anchor="middle" x="1073.79" y="-326.133" font-family="Times New Roman,serif" font-size="14.00">(15) XOR</text>
</g>
<!-- node9&#45;&gt;node15 -->
<g id="edge22" class="edge"><title>node9&#45;&gt;node15</title>
<path fill="none" stroke="black" d="M219.978,-348.065C249.192,-347.501 291.639,-346.833 328.731,-346.833 328.731,-346.833 328.731,-346.833 924.548,-346.833 956.502,-346.833 992.08,-342.886 1020.37,-338.796"/>
<polygon fill="black" stroke="black" points="1021.07,-342.23 1030.44,-337.289 1020.04,-335.307 1021.07,-342.23"/>
<text text-anchor="middle" x="622.415" y="-350.633" font-family="Times New Roman,serif" font-size="14.00"> (1)</text>
</g>
<!-- node10&#45;&gt;node11 -->
<g id="edge14" class="edge"><title>node10&#45;&gt;node11</title>
<path fill="none" stroke="black" d="M659.868,-251.016C674.859,-255.848 692.317,-261.777 707.86,-267.833 716.333,-271.134 725.301,-274.954 733.767,-278.716"/>
<polygon fill="black" stroke="black" points="732.505,-281.986 743.06,-282.908 735.384,-275.605 732.505,-281.986"/>
<text text-anchor="middle" x="697.86" y="-271.633" font-family="Times New Roman,serif" font-size="14.00"> (1)</text>
</g>
<!-- node10&#45;&gt;node13 -->
<g id="edge18" class="edge"><title>node10&#45;&gt;node13</title>
<path fill="none" stroke="black" d="M665.25,-231.858C672.754,-230.666 680.521,-229.586 687.86,-228.833 696.863,-227.909 706.43,-227.256 715.767,-226.797"/>
<polygon fill="black" stroke="black" points="715.928,-230.294 725.771,-226.372 715.631,-223.3 715.928,-230.294"/>
<text text-anchor="middle" x="697.86" y="-232.633" font-family="Times New Roman,serif" font-size="14.00"> (1)</text>
</g>
<!-- node14 -->
<g id="node15" class="node"><title>node14</title>
<ellipse fill="none" stroke="black" cx="923.548" cy="-296.833" rx="46.5926" ry="18"/>
<text text-anchor="middle" x="923.548" y="-293.133" font-family="Times New Roman,serif" font-size="14.00">(14) AND</text>
</g>
<!-- node11&#45;&gt;node14 -->
<g id="edge19" class="edge"><title>node11&#45;&gt;node14</title>
<path fill="none" stroke="black" d="M820.804,-296.833C835.292,-296.833 851.423,-296.833 866.493,-296.833"/>
<polygon fill="black" stroke="black" points="866.723,-300.333 876.723,-296.833 866.723,-293.333 866.723,-300.333"/>
<text text-anchor="middle" x="848.752" y="-300.633" font-family="Times New Roman,serif" font-size="14.00"> (0)</text>
</g>
<!-- node16 -->
<g id="node17" class="node"><title>node16</title>
<ellipse fill="none" stroke="black" cx="1201.13" cy="-107.833" rx="42.7926" ry="18"/>
<text text-anchor="middle" x="1201.13" y="-104.133" font-family="Times New Roman,serif" font-size="14.00">Output 0</text>
</g>
<!-- node12&#45;&gt;node16 -->
<g id="edge23" class="edge"><title>node12&#45;&gt;node16</title>
<path fill="none" stroke="black" d="M377.204,-109.377C405.493,-108.613 442.363,-107.833 475.073,-107.833 475.073,-107.833 475.073,-107.833 1074.79,-107.833 1098.85,-107.833 1125.51,-107.833 1148.03,-107.833"/>
<polygon fill="black" stroke="black" points="1148.06,-111.333 1158.06,-107.833 1148.06,-104.333 1148.06,-111.333"/>
</g>
<!-- node13&#45;&gt;node14 -->
<g id="edge20" class="edge"><title>node13&#45;&gt;node14</title>
<path fill="none" stroke="black" d="M803.594,-239.86C826.714,-250.933 859.155,-266.471 884.32,-278.524"/>
<polygon fill="black" stroke="black" points="883.043,-281.793 893.574,-282.956 886.066,-275.479 883.043,-281.793"/>
<text text-anchor="middle" x="848.752" y="-268.633" font-family="Times New Roman,serif" font-size="14.00"> (1)</text>
</g>
<!-- node17 -->
<g id="node18" class="node"><title>node17</title>
<ellipse fill="none" stroke="black" cx="1201.13" cy="-225.833" rx="42.7926" ry="18"/>
<text text-anchor="middle" x="1201.13" y="-222.133" font-family="Times New Roman,serif" font-size="14.00">Output 1</text>
</g>
<!-- node13&#45;&gt;node17 -->
<g id="edge24" class="edge"><title>node13&#45;&gt;node17</title>
<path fill="none" stroke="black" d="M821.095,-225.833C901.255,-225.833 1064.28,-225.833 1147.98,-225.833"/>
<polygon fill="black" stroke="black" points="1148.03,-229.333 1158.03,-225.833 1148.03,-222.333 1148.03,-229.333"/>
</g>
<!-- node14&#45;&gt;node15 -->
<g id="edge21" class="edge"><title>node14&#45;&gt;node15</title>
<path fill="none" stroke="black" d="M964.664,-305.763C982.472,-309.727 1003.62,-314.436 1022.47,-318.632"/>
<polygon fill="black" stroke="black" points="1021.86,-322.082 1032.38,-320.838 1023.38,-315.249 1021.86,-322.082"/>
<text text-anchor="middle" x="998.344" y="-318.633" font-family="Times New Roman,serif" font-size="14.00"> (0)</text>
</g>
<!-- node18 -->
<g id="node19" class="node"><title>node18</title>
<ellipse fill="none" stroke="black" cx="1201.13" cy="-329.833" rx="42.7926" ry="18"/>
<text text-anchor="middle" x="1201.13" y="-326.133" font-family="Times New Roman,serif" font-size="14.00">Output 2</text>
</g>
<!-- node15&#45;&gt;node18 -->
<g id="edge25" class="edge"><title>node15&#45;&gt;node18</title>
<path fill="none" stroke="black" d="M1121.46,-329.833C1130.07,-329.833 1139.1,-329.833 1147.86,-329.833"/>
<polygon fill="black" stroke="black" points="1147.97,-333.333 1157.97,-329.833 1147.97,-326.333 1147.97,-333.333"/>
</g>
</g>
</svg>
