<?xml version="1.0" encoding="UTF-8" standalone="no"?>
<!DOCTYPE svg PUBLIC "-//W3C//DTD SVG 1.1//EN"
 "http://www.w3.org/Graphics/SVG/1.1/DTD/svg11.dtd">
<!-- Generated by graphviz version 2.38.0 (20140413.2041)
 -->
<!-- Title: NeuralNetwork Pages: 1 -->
<svg width="288pt" height="105pt"
 viewBox="0.00 0.00 288.00 104.72" xmlns="http://www.w3.org/2000/svg" xmlns:xlink="http://www.w3.org/1999/xlink">
<g id="graph0" class="graph" transform="scale(0.299799 0.299799) rotate(0) translate(4 345.312)">
<title>NeuralNetwork</title>
<polygon fill="white" stroke="none" points="-4,4 -4,-345.312 956.644,-345.312 956.644,4 -4,4"/>
<!-- node0 -->
<g id="node1" class="node"><title>node0</title>
<ellipse fill="none" stroke="black" cx="42.2463" cy="-323.312" rx="42.4939" ry="18"/>
<text text-anchor="middle" x="42.2463" y="-319.612" font-family="Times New Roman,serif" font-size="14.00">(0) Input</text>
</g>
<!-- node7 -->
<g id="node8" class="node"><title>node7</title>
<ellipse fill="none" stroke="black" cx="329.731" cy="-230.312" rx="42.4939" ry="18"/>
<text text-anchor="middle" x="329.731" y="-226.612" font-family="Times New Roman,serif" font-size="14.00">(7) AND</text>
</g>
<!-- node0&#45;&gt;node7 -->
<g id="edge6" class="edge"><title>node0&#45;&gt;node7</title>
<path fill="none" stroke="black" d="M78.1333,-313.612C96.5609,-308.766 119.625,-303.136 140.493,-299.312 195.006,-289.32 213.435,-306.353 264.285,-284.312 280.064,-277.472 294.968,-265.491 306.462,-254.55"/>
<polygon fill="black" stroke="black" points="309.215,-256.748 313.842,-247.217 304.282,-251.782 309.215,-256.748"/>
<text text-anchor="middle" x="183.389" y="-303.112" font-family="Times New Roman,serif" font-size="14.00"> (1)</text>
</g>
<!-- node10 -->
<g id="node11" class="node"><title>node10</title>
<ellipse fill="none" stroke="black" cx="329.731" cy="-316.312" rx="47.3916" ry="18"/>
<text text-anchor="middle" x="329.731" y="-312.612" font-family="Times New Roman,serif" font-size="14.00">(10) XOR</text>
</g>
<!-- node0&#45;&gt;node10 -->
<g id="edge12" class="edge"><title>node0&#45;&gt;node10</title>
<path fill="none" stroke="black" d="M84.4532,-322.301C133.877,-321.089 216.974,-319.052 272.326,-317.695"/>
<polygon fill="black" stroke="black" points="272.413,-321.194 282.324,-317.45 272.241,-314.196 272.413,-321.194"/>
<text text-anchor="middle" x="183.389" y="-324.112" font-family="Times New Roman,serif" font-size="14.00"> (1)</text>
</g>
<!-- node1 -->
<g id="node2" class="node"><title>node1</title>
<ellipse fill="none" stroke="black" cx="42.2463" cy="-26.3117" rx="42.4939" ry="18"/>
<text text-anchor="middle" x="42.2463" y="-22.6117" font-family="Times New Roman,serif" font-size="14.00">(1) Input</text>
</g>
<!-- node8 -->
<g id="node9" class="node"><title>node8</title>
<ellipse fill="none" stroke="black" cx="183.389" cy="-116.312" rx="42.7926" ry="18"/>
<text text-anchor="middle" x="183.389" y="-112.612" font-family="Times New Roman,serif" font-size="14.00">(8) XOR</text>
</g>
<!-- node1&#45;&gt;node8 -->
<g id="edge8" class="edge"><title>node1&#45;&gt;node8</title>
<path fill="none" stroke="black" d="M80.069,-34.3343C94.5373,-38.9053 110.513,-45.8754 122.493,-56.3117 135.089,-67.2859 129.119,-77.0744 140.493,-89.3117 142.731,-91.7203 145.228,-94.0087 147.858,-96.1596"/>
<polygon fill="black" stroke="black" points="145.894,-99.0599 156.018,-102.182 150.05,-93.4278 145.894,-99.0599"/>
<text text-anchor="middle" x="112.493" y="-60.1117" font-family="Times New Roman,serif" font-size="14.00"> (1)</text>
</g>
<!-- node9 -->
<g id="node10" class="node"><title>node9</title>
<ellipse fill="none" stroke="black" cx="183.389" cy="-62.3117" rx="42.4939" ry="18"/>
<text text-anchor="middle" x="183.389" y="-58.6117" font-family="Times New Roman,serif" font-size="14.00">(9) AND</text>
</g>
<!-- node1&#45;&gt;node9 -->
<g id="edge9" class="edge"><title>node1&#45;&gt;node9</title>
<path fill="none" stroke="black" d="M66.5757,-11.3783C82.6005,-3.0843 104.199,4.18491 122.493,-3.31169 139.222,-10.1676 153.785,-24.2019 164.361,-36.8628"/>
<polygon fill="black" stroke="black" points="161.768,-39.2259 170.718,-44.8953 167.257,-34.8818 161.768,-39.2259"/>
<text text-anchor="middle" x="112.493" y="-7.11169" font-family="Times New Roman,serif" font-size="14.00"> (0)</text>
</g>
<!-- node2 -->
<g id="node3" class="node"><title>node2</title>
<ellipse fill="none" stroke="black" cx="42.2463" cy="-173.312" rx="42.4939" ry="18"/>
<text text-anchor="middle" x="42.2463" y="-169.612" font-family="Times New Roman,serif" font-size="14.00">(2) Input</text>
</g>
<!-- node5 -->
<g id="node6" class="node"><title>node5</title>
<ellipse fill="none" stroke="black" cx="183.389" cy="-174.312" rx="42.4939" ry="18"/>
<text text-anchor="middle" x="183.389" y="-170.612" font-family="Times New Roman,serif" font-size="14.00">(5) AND</text>
</g>
<!-- node2&#45;&gt;node5 -->
<g id="edge2" class="edge"><title>node2&#45;&gt;node5</title>
<path fill="none" stroke="black" d="M73.161,-161.039C87.9182,-156.39 106.04,-152.765 122.493,-155.312 128.789,-156.286 135.33,-157.805 141.677,-159.57"/>
<polygon fill="black" stroke="black" points="140.842,-162.973 151.426,-162.501 142.858,-156.27 140.842,-162.973"/>
<text text-anchor="middle" x="112.493" y="-159.112" font-family="Times New Roman,serif" font-size="14.00"> (1)</text>
</g>
<!-- node6 -->
<g id="node7" class="node"><title>node6</title>
<ellipse fill="none" stroke="black" cx="183.389" cy="-237.312" rx="42.7926" ry="18"/>
<text text-anchor="middle" x="183.389" y="-233.612" font-family="Times New Roman,serif" font-size="14.00">(6) XOR</text>
</g>
<!-- node2&#45;&gt;node6 -->
<g id="edge3" class="edge"><title>node2&#45;&gt;node6</title>
<path fill="none" stroke="black" d="M81.7666,-179.895C95.055,-182.975 109.785,-187.323 122.493,-193.312 134.347,-198.898 146.222,-206.977 156.237,-214.692"/>
<polygon fill="black" stroke="black" points="154.171,-217.521 164.17,-221.024 158.537,-212.05 154.171,-217.521"/>
<text text-anchor="middle" x="112.493" y="-197.112" font-family="Times New Roman,serif" font-size="14.00"> (0)</text>
</g>
<!-- node3 -->
<g id="node4" class="node"><title>node3</title>
<ellipse fill="none" stroke="black" cx="42.2463" cy="-91.3117" rx="42.4939" ry="18"/>
<text text-anchor="middle" x="42.2463" y="-87.6117" font-family="Times New Roman,serif" font-size="14.00">(3) Input</text>
</g>
<!-- node3&#45;&gt;node8 -->
<g id="edge7" class="edge"><title>node3&#45;&gt;node8</title>
<path fill="none" stroke="black" d="M81.6359,-98.2092C97.6233,-101.082 116.381,-104.452 133.349,-107.501"/>
<polygon fill="black" stroke="black" points="133.18,-111.026 143.641,-109.35 134.418,-104.137 133.18,-111.026"/>
<text text-anchor="middle" x="112.493" y="-109.112" font-family="Times New Roman,serif" font-size="14.00"> (0)</text>
</g>
<!-- node3&#45;&gt;node9 -->
<g id="edge10" class="edge"><title>node3&#45;&gt;node9</title>
<path fill="none" stroke="black" d="M80.5339,-83.5402C97.2224,-80.062 117.095,-75.9201 134.838,-72.2222"/>
<polygon fill="black" stroke="black" points="135.923,-75.5714 144.998,-70.1046 134.494,-68.7187 135.923,-75.5714"/>
<text text-anchor="middle" x="112.493" y="-83.1117" font-family="Times New Roman,serif" font-size="14.00"> (1)</text>
</g>
<!-- node4 -->
<g id="node5" class="node"><title>node4</title>
<ellipse fill="none" stroke="black" cx="42.2463" cy="-249.312" rx="42.4939" ry="18"/>
<text text-anchor="middle" x="42.2463" y="-245.612" font-family="Times New Roman,serif" font-size="14.00">(4) Input</text>
</g>
<!-- node4&#45;&gt;node5 -->
<g id="edge1" class="edge"><title>node4&#45;&gt;node5</title>
<path fill="none" stroke="black" d="M70.1599,-235.715C85.5603,-227.853 105.199,-217.689 122.493,-208.312 130.984,-203.707 140.08,-198.623 148.554,-193.821"/>
<polygon fill="black" stroke="black" points="150.49,-196.746 157.447,-188.756 147.026,-190.664 150.49,-196.746"/>
<text text-anchor="middle" x="112.493" y="-222.112" font-family="Times New Roman,serif" font-size="14.00"> (0)</text>
</g>
<!-- node4&#45;&gt;node6 -->
<g id="edge4" class="edge"><title>node4&#45;&gt;node6</title>
<path fill="none" stroke="black" d="M84.8429,-248.608C96.9974,-248.167 110.293,-247.456 122.493,-246.312 125.947,-245.988 129.507,-245.598 133.087,-245.164"/>
<polygon fill="black" stroke="black" points="133.697,-248.614 143.158,-243.845 132.788,-241.673 133.697,-248.614"/>
<text text-anchor="middle" x="112.493" y="-251.112" font-family="Times New Roman,serif" font-size="14.00"> (1)</text>
</g>
<!-- node11 -->
<g id="node12" class="node"><title>node11</title>
<ellipse fill="none" stroke="black" cx="329.731" cy="-174.312" rx="47.3916" ry="18"/>
<text text-anchor="middle" x="329.731" y="-170.612" font-family="Times New Roman,serif" font-size="14.00">(11) XOR</text>
</g>
<!-- node5&#45;&gt;node11 -->
<g id="edge13" class="edge"><title>node5&#45;&gt;node11</title>
<path fill="none" stroke="black" d="M225.751,-174.312C240.033,-174.312 256.296,-174.312 271.613,-174.312"/>
<polygon fill="black" stroke="black" points="272.03,-177.812 282.03,-174.312 272.03,-170.812 272.03,-177.812"/>
<text text-anchor="middle" x="254.285" y="-178.112" font-family="Times New Roman,serif" font-size="14.00"> (0)</text>
</g>
<!-- node6&#45;&gt;node7 -->
<g id="edge5" class="edge"><title>node6&#45;&gt;node7</title>
<path fill="none" stroke="black" d="M224.947,-232.761C231.408,-232.177 238.024,-231.662 244.285,-231.312 254.935,-230.716 266.351,-230.379 277.239,-230.2"/>
<polygon fill="black" stroke="black" points="277.517,-233.697 287.473,-230.075 277.431,-226.698 277.517,-233.697"/>
<text text-anchor="middle" x="254.285" y="-235.112" font-family="Times New Roman,serif" font-size="14.00"> (0)</text>
</g>
<!-- node6&#45;&gt;node10 -->
<g id="edge11" class="edge"><title>node6&#45;&gt;node10</title>
<path fill="none" stroke="black" d="M210.194,-251.435C233.16,-264.005 266.989,-282.52 292.636,-296.557"/>
<polygon fill="black" stroke="black" points="291.226,-299.775 301.679,-301.506 294.587,-293.635 291.226,-299.775"/>
<text text-anchor="middle" x="254.285" y="-282.112" font-family="Times New Roman,serif" font-size="14.00"> (0)</text>
</g>
<!-- node12 -->
<g id="node13" class="node"><title>node12</title>
<ellipse fill="none" stroke="black" cx="480.622" cy="-174.312" rx="47.3916" ry="18"/>
<text text-anchor="middle" x="480.622" y="-170.612" font-family="Times New Roman,serif" font-size="14.00">(12) XOR</text>
</g>
<!-- node7&#45;&gt;node12 -->
<g id="edge15" class="edge"><title>node7&#45;&gt;node12</title>
<path fill="none" stroke="black" d="M361.943,-218.572C383.678,-210.398 412.936,-199.393 436.841,-190.402"/>
<polygon fill="black" stroke="black" points="438.256,-193.61 446.383,-186.813 435.791,-187.058 438.256,-193.61"/>
<text text-anchor="middle" x="405.176" y="-209.112" font-family="Times New Roman,serif" font-size="14.00"> (0)</text>
</g>
<!-- node8&#45;&gt;node11 -->
<g id="edge14" class="edge"><title>node8&#45;&gt;node11</title>
<path fill="none" stroke="black" d="M215,-128.612C235.926,-137.021 263.925,-148.271 286.905,-157.505"/>
<polygon fill="black" stroke="black" points="285.827,-160.844 296.411,-161.325 288.437,-154.349 285.827,-160.844"/>
<text text-anchor="middle" x="254.285" y="-151.112" font-family="Times New Roman,serif" font-size="14.00"> (1)</text>
</g>
<!-- node13 -->
<g id="node14" class="node"><title>node13</title>
<ellipse fill="none" stroke="black" cx="631.514" cy="-137.312" rx="40.8928" ry="18"/>
<text text-anchor="middle" x="631.514" y="-133.612" font-family="Times New Roman,serif" font-size="14.00">(13) OR</text>
</g>
<!-- node8&#45;&gt;node13 -->
<g id="edge17" class="edge"><title>node8&#45;&gt;node13</title>
<path fill="none" stroke="black" d="M225.601,-113.095C295.872,-108.399 443.201,-101.983 566.068,-119.312 573.423,-120.349 581.124,-121.991 588.539,-123.871"/>
<polygon fill="black" stroke="black" points="587.847,-127.31 598.415,-126.547 589.679,-120.553 587.847,-127.31"/>
<text text-anchor="middle" x="405.176" y="-112.112" font-family="Times New Roman,serif" font-size="14.00"> (0)</text>
</g>
<!-- node14 -->
<g id="node15" class="node"><title>node14</title>
<ellipse fill="none" stroke="black" cx="631.514" cy="-83.3117" rx="47.3916" ry="18"/>
<text text-anchor="middle" x="631.514" y="-79.6117" font-family="Times New Roman,serif" font-size="14.00">(14) XOR</text>
</g>
<!-- node9&#45;&gt;node14 -->
<g id="edge20" class="edge"><title>node9&#45;&gt;node14</title>
<path fill="none" stroke="black" d="M225.559,-64.2497C305.733,-68.0236 482.906,-76.3635 574,-80.6515"/>
<polygon fill="black" stroke="black" points="573.984,-84.1545 584.138,-81.1287 574.313,-77.1623 573.984,-84.1545"/>
<text text-anchor="middle" x="405.176" y="-77.1117" font-family="Times New Roman,serif" font-size="14.00"> (1)</text>
</g>
<!-- node16 -->
<g id="node17" class="node"><title>node16</title>
<ellipse fill="none" stroke="black" cx="909.747" cy="-316.312" rx="42.7926" ry="18"/>
<text text-anchor="middle" x="909.747" y="-312.612" font-family="Times New Roman,serif" font-size="14.00">Output 0</text>
</g>
<!-- node10&#45;&gt;node16 -->
<g id="edge23" class="edge"><title>node10&#45;&gt;node16</title>
<path fill="none" stroke="black" d="M377.339,-316.312C406.69,-316.312 445.372,-316.312 479.622,-316.312 479.622,-316.312 479.622,-316.312 783.405,-316.312 807.466,-316.312 834.123,-316.312 856.647,-316.312"/>
<polygon fill="black" stroke="black" points="856.681,-319.812 866.681,-316.312 856.681,-312.812 856.681,-319.812"/>
</g>
<!-- node11&#45;&gt;node12 -->
<g id="edge16" class="edge"><title>node11&#45;&gt;node12</title>
<path fill="none" stroke="black" d="M377.432,-174.312C391.845,-174.312 407.877,-174.312 422.889,-174.312"/>
<polygon fill="black" stroke="black" points="423.086,-177.812 433.086,-174.312 423.086,-170.812 423.086,-177.812"/>
<text text-anchor="middle" x="405.176" y="-178.112" font-family="Times New Roman,serif" font-size="14.00"> (1)</text>
</g>
<!-- node12&#45;&gt;node13 -->
<g id="edge18" class="edge"><title>node12&#45;&gt;node13</title>
<path fill="none" stroke="black" d="M520.742,-164.59C540.66,-159.641 564.969,-153.6 585.645,-148.462"/>
<polygon fill="black" stroke="black" points="586.606,-151.829 595.467,-146.021 584.918,-145.036 586.606,-151.829"/>
<text text-anchor="middle" x="556.068" y="-162.112" font-family="Times New Roman,serif" font-size="14.00"> (1)</text>
</g>
<!-- node12&#45;&gt;node14 -->
<g id="edge19" class="edge"><title>node12&#45;&gt;node14</title>
<path fill="none" stroke="black" d="M505.913,-158.833C526.586,-145.733 557.128,-126.552 584.068,-110.312 587.752,-108.091 591.617,-105.793 595.477,-103.52"/>
<polygon fill="black" stroke="black" points="597.527,-106.376 604.389,-98.3035 593.991,-100.334 597.527,-106.376"/>
<text text-anchor="middle" x="556.068" y="-137.112" font-family="Times New Roman,serif" font-size="14.00"> (0)</text>
</g>
<!-- node17 -->
<g id="node18" class="node"><title>node17</title>
<ellipse fill="none" stroke="black" cx="909.747" cy="-204.312" rx="42.7926" ry="18"/>
<text text-anchor="middle" x="909.747" y="-200.612" font-family="Times New Roman,serif" font-size="14.00">Output 1</text>
</g>
<!-- node12&#45;&gt;node17 -->
<g id="edge24" class="edge"><title>node12&#45;&gt;node17</title>
<path fill="none" stroke="black" d="M527.332,-177.522C607.49,-183.152 772.873,-194.768 857.063,-200.682"/>
<polygon fill="black" stroke="black" points="856.941,-204.181 867.161,-201.391 857.431,-197.199 856.941,-204.181"/>
</g>
<!-- node15 -->
<g id="node16" class="node"><title>node15</title>
<ellipse fill="none" stroke="black" cx="782.405" cy="-131.312" rx="47.3916" ry="18"/>
<text text-anchor="middle" x="782.405" y="-127.612" font-family="Times New Roman,serif" font-size="14.00">(15) XOR</text>
</g>
<!-- node13&#45;&gt;node15 -->
<g id="edge22" class="edge"><title>node13&#45;&gt;node15</title>
<path fill="none" stroke="black" d="M672.414,-135.704C688.544,-135.054 707.453,-134.292 724.952,-133.587"/>
<polygon fill="black" stroke="black" points="725.21,-137.079 735.06,-133.179 724.928,-130.085 725.21,-137.079"/>
<text text-anchor="middle" x="706.96" y="-139.112" font-family="Times New Roman,serif" font-size="14.00"> (1)</text>
</g>
<!-- node14&#45;&gt;node15 -->
<g id="edge21" class="edge"><title>node14&#45;&gt;node15</title>
<path fill="none" stroke="black" d="M668.177,-94.8089C688.544,-101.375 714.285,-109.673 736.075,-116.698"/>
<polygon fill="black" stroke="black" points="735.184,-120.088 745.775,-119.825 737.332,-113.426 735.184,-120.088"/>
<text text-anchor="middle" x="706.96" y="-114.112" font-family="Times New Roman,serif" font-size="14.00"> (0)</text>
</g>
<!-- node18 -->
<g id="node19" class="node"><title>node18</title>
<ellipse fill="none" stroke="black" cx="909.747" cy="-131.312" rx="42.7926" ry="18"/>
<text text-anchor="middle" x="909.747" y="-127.612" font-family="Times New Roman,serif" font-size="14.00">Output 2</text>
</g>
<!-- node15&#45;&gt;node18 -->
<g id="edge25" class="edge"><title>node15&#45;&gt;node18</title>
<path fill="none" stroke="black" d="M830.078,-131.312C838.683,-131.312 847.719,-131.312 856.476,-131.312"/>
<polygon fill="black" stroke="black" points="856.585,-134.812 866.585,-131.312 856.585,-127.812 856.585,-134.812"/>
</g>
</g>
</svg>
