<?xml version="1.0" encoding="UTF-8" standalone="no"?>
<!DOCTYPE svg PUBLIC "-//W3C//DTD SVG 1.1//EN"
 "http://www.w3.org/Graphics/SVG/1.1/DTD/svg11.dtd">
<!-- Generated by graphviz version 2.38.0 (20140413.2041)
 -->
<!-- Title: NeuralNetwork Pages: 1 -->
<svg width="288pt" height="99pt"
 viewBox="0.00 0.00 288.00 99.23" xmlns="http://www.w3.org/2000/svg" xmlns:xlink="http://www.w3.org/1999/xlink">
<g id="graph0" class="graph" transform="scale(0.281295 0.281295) rotate(0) translate(4 348.758)">
<title>NeuralNetwork</title>
<polygon fill="white" stroke="none" points="-4,4 -4,-348.758 1019.84,-348.758 1019.84,4 -4,4"/>
<!-- node0 -->
<g id="node1" class="node"><title>node0</title>
<ellipse fill="none" stroke="black" cx="42.2463" cy="-171.758" rx="42.4939" ry="18"/>
<text text-anchor="middle" x="42.2463" y="-168.058" font-family="Times New Roman,serif" font-size="14.00">(0) Input</text>
</g>
<!-- node8 -->
<g id="node9" class="node"><title>node8</title>
<ellipse fill="none" stroke="black" cx="183.389" cy="-159.758" rx="42.4939" ry="18"/>
<text text-anchor="middle" x="183.389" y="-156.058" font-family="Times New Roman,serif" font-size="14.00">(8) AND</text>
</g>
<!-- node0&#45;&gt;node8 -->
<g id="edge7" class="edge"><title>node0&#45;&gt;node8</title>
<path fill="none" stroke="black" d="M84.8429,-171.054C96.9974,-170.613 110.293,-169.902 122.493,-168.758 126.163,-168.414 129.952,-167.995 133.758,-167.529"/>
<polygon fill="black" stroke="black" points="134.347,-170.982 143.802,-166.201 133.429,-164.042 134.347,-170.982"/>
<text text-anchor="middle" x="112.493" y="-173.558" font-family="Times New Roman,serif" font-size="14.00"> (1)</text>
</g>
<!-- node9 -->
<g id="node10" class="node"><title>node9</title>
<ellipse fill="none" stroke="black" cx="183.389" cy="-95.7581" rx="42.7926" ry="18"/>
<text text-anchor="middle" x="183.389" y="-92.0581" font-family="Times New Roman,serif" font-size="14.00">(9) XOR</text>
</g>
<!-- node0&#45;&gt;node9 -->
<g id="edge9" class="edge"><title>node0&#45;&gt;node9</title>
<path fill="none" stroke="black" d="M70.2049,-158.244C85.6199,-150.408 105.258,-140.244 122.493,-130.758 131.263,-125.931 140.653,-120.548 149.336,-115.48"/>
<polygon fill="black" stroke="black" points="151.222,-118.431 158.072,-110.348 147.677,-112.395 151.222,-118.431"/>
<text text-anchor="middle" x="112.493" y="-144.558" font-family="Times New Roman,serif" font-size="14.00"> (1)</text>
</g>
<!-- node1 -->
<g id="node2" class="node"><title>node1</title>
<ellipse fill="none" stroke="black" cx="42.2463" cy="-250.758" rx="42.4939" ry="18"/>
<text text-anchor="middle" x="42.2463" y="-247.058" font-family="Times New Roman,serif" font-size="14.00">(1) Input</text>
</g>
<!-- node5 -->
<g id="node6" class="node"><title>node5</title>
<ellipse fill="none" stroke="black" cx="183.389" cy="-240.758" rx="42.7926" ry="18"/>
<text text-anchor="middle" x="183.389" y="-237.058" font-family="Times New Roman,serif" font-size="14.00">(5) XOR</text>
</g>
<!-- node1&#45;&gt;node5 -->
<g id="edge2" class="edge"><title>node1&#45;&gt;node5</title>
<path fill="none" stroke="black" d="M74.8284,-239.285C83.661,-236.594 93.3478,-234.117 102.493,-232.758 112.731,-231.237 123.751,-231.271 134.239,-232.087"/>
<polygon fill="black" stroke="black" points="134.196,-235.601 144.5,-233.134 134.907,-228.637 134.196,-235.601"/>
<text text-anchor="middle" x="112.493" y="-236.558" font-family="Times New Roman,serif" font-size="14.00"> (1)</text>
</g>
<!-- node7 -->
<g id="node8" class="node"><title>node7</title>
<ellipse fill="none" stroke="black" cx="183.389" cy="-300.758" rx="36.2938" ry="18"/>
<text text-anchor="middle" x="183.389" y="-297.058" font-family="Times New Roman,serif" font-size="14.00">(7) OR</text>
</g>
<!-- node1&#45;&gt;node7 -->
<g id="edge4" class="edge"><title>node1&#45;&gt;node7</title>
<path fill="none" stroke="black" d="M80.846,-258.481C94.1901,-261.683 109.192,-265.816 122.493,-270.758 131.539,-274.12 141.015,-278.454 149.69,-282.778"/>
<polygon fill="black" stroke="black" points="148.237,-285.966 158.732,-287.419 151.433,-279.739 148.237,-285.966"/>
<text text-anchor="middle" x="112.493" y="-274.558" font-family="Times New Roman,serif" font-size="14.00"> (0)</text>
</g>
<!-- node2 -->
<g id="node3" class="node"><title>node2</title>
<ellipse fill="none" stroke="black" cx="42.2463" cy="-93.7581" rx="42.4939" ry="18"/>
<text text-anchor="middle" x="42.2463" y="-90.0581" font-family="Times New Roman,serif" font-size="14.00">(2) Input</text>
</g>
<!-- node2&#45;&gt;node8 -->
<g id="edge6" class="edge"><title>node2&#45;&gt;node8</title>
<path fill="none" stroke="black" d="M80.9544,-101.257C94.4495,-104.704 109.521,-109.457 122.493,-115.758 134.28,-121.484 146.142,-129.592 156.164,-137.291"/>
<polygon fill="black" stroke="black" points="154.1,-140.121 164.108,-143.6 158.454,-134.64 154.1,-140.121"/>
<text text-anchor="middle" x="112.493" y="-119.558" font-family="Times New Roman,serif" font-size="14.00"> (0)</text>
</g>
<!-- node2&#45;&gt;node9 -->
<g id="edge8" class="edge"><title>node2&#45;&gt;node9</title>
<path fill="none" stroke="black" d="M75.1139,-82.1989C89.5217,-78.2984 106.801,-75.4513 122.493,-77.7581 128.342,-78.6181 134.413,-79.9267 140.347,-81.454"/>
<polygon fill="black" stroke="black" points="139.567,-84.87 150.14,-84.1905 141.451,-78.1283 139.567,-84.87"/>
<text text-anchor="middle" x="112.493" y="-81.5581" font-family="Times New Roman,serif" font-size="14.00"> (0)</text>
</g>
<!-- node3 -->
<g id="node4" class="node"><title>node3</title>
<ellipse fill="none" stroke="black" cx="42.2463" cy="-326.758" rx="42.4939" ry="18"/>
<text text-anchor="middle" x="42.2463" y="-323.058" font-family="Times New Roman,serif" font-size="14.00">(3) Input</text>
</g>
<!-- node3&#45;&gt;node5 -->
<g id="edge1" class="edge"><title>node3&#45;&gt;node5</title>
<path fill="none" stroke="black" d="M71.3818,-313.629C86.8183,-306.075 106.096,-296.058 122.493,-285.758 133.506,-278.839 145.055,-270.46 155.04,-262.816"/>
<polygon fill="black" stroke="black" points="157.267,-265.517 163.014,-256.616 152.971,-259.991 157.267,-265.517"/>
<text text-anchor="middle" x="112.493" y="-300.558" font-family="Times New Roman,serif" font-size="14.00"> (0)</text>
</g>
<!-- node3&#45;&gt;node7 -->
<g id="edge5" class="edge"><title>node3&#45;&gt;node7</title>
<path fill="none" stroke="black" d="M84.6839,-327.749C96.9558,-327.357 110.354,-326.247 122.493,-323.758 130.638,-322.088 139.126,-319.436 147.064,-316.517"/>
<polygon fill="black" stroke="black" points="148.368,-319.765 156.414,-312.872 145.826,-313.243 148.368,-319.765"/>
<text text-anchor="middle" x="112.493" y="-329.558" font-family="Times New Roman,serif" font-size="14.00"> (1)</text>
</g>
<!-- node4 -->
<g id="node5" class="node"><title>node4</title>
<ellipse fill="none" stroke="black" cx="42.2463" cy="-22.7581" rx="42.4939" ry="18"/>
<text text-anchor="middle" x="42.2463" y="-19.0581" font-family="Times New Roman,serif" font-size="14.00">(4) Input</text>
</g>
<!-- node10 -->
<g id="node11" class="node"><title>node10</title>
<ellipse fill="none" stroke="black" cx="329.731" cy="-20.7581" rx="47.3916" ry="18"/>
<text text-anchor="middle" x="329.731" y="-17.0581" font-family="Times New Roman,serif" font-size="14.00">(10) XOR</text>
</g>
<!-- node4&#45;&gt;node10 -->
<g id="edge10" class="edge"><title>node4&#45;&gt;node10</title>
<path fill="none" stroke="black" d="M78.9994,-13.5949C97.2614,-9.37765 119.915,-4.85224 140.493,-2.75815 178.427,1.10228 188.299,0.553596 226.285,-2.75815 243.269,-4.23884 261.658,-7.07535 278.107,-10.0663"/>
<polygon fill="black" stroke="black" points="277.593,-13.531 288.068,-11.9379 278.886,-6.65141 277.593,-13.531"/>
<text text-anchor="middle" x="183.389" y="-6.55815" font-family="Times New Roman,serif" font-size="14.00"> (0)</text>
</g>
<!-- node11 -->
<g id="node12" class="node"><title>node11</title>
<ellipse fill="none" stroke="black" cx="329.731" cy="-105.758" rx="46.5926" ry="18"/>
<text text-anchor="middle" x="329.731" y="-102.058" font-family="Times New Roman,serif" font-size="14.00">(11) AND</text>
</g>
<!-- node4&#45;&gt;node11 -->
<g id="edge12" class="edge"><title>node4&#45;&gt;node11</title>
<path fill="none" stroke="black" d="M84.5272,-22.0764C130.303,-22.7639 205.446,-28.2458 264.285,-53.7581 279.503,-60.3566 294.094,-71.5694 305.532,-81.8972"/>
<polygon fill="black" stroke="black" points="303.232,-84.5391 312.916,-88.8381 308.027,-79.4388 303.232,-84.5391"/>
<text text-anchor="middle" x="183.389" y="-43.5581" font-family="Times New Roman,serif" font-size="14.00"> (0)</text>
</g>
<!-- node6 -->
<g id="node7" class="node"><title>node6</title>
<ellipse fill="none" stroke="black" cx="437.423" cy="-245.758" rx="42.4939" ry="18"/>
<text text-anchor="middle" x="437.423" y="-242.058" font-family="Times New Roman,serif" font-size="14.00">(6) NEG</text>
</g>
<!-- node5&#45;&gt;node6 -->
<g id="edge3" class="edge"><title>node5&#45;&gt;node6</title>
<path fill="none" stroke="black" d="M226.29,-241.589C269.754,-242.452 337.788,-243.801 384.603,-244.73"/>
<polygon fill="black" stroke="black" points="384.773,-248.234 394.841,-244.933 384.912,-241.235 384.773,-248.234"/>
<text text-anchor="middle" x="254.285" y="-245.558" font-family="Times New Roman,serif" font-size="14.00"> (0)</text>
</g>
<!-- node14 -->
<g id="node15" class="node"><title>node14</title>
<ellipse fill="none" stroke="black" cx="696.006" cy="-165.758" rx="47.3916" ry="18"/>
<text text-anchor="middle" x="696.006" y="-162.058" font-family="Times New Roman,serif" font-size="14.00">(14) XOR</text>
</g>
<!-- node5&#45;&gt;node14 -->
<g id="edge19" class="edge"><title>node5&#45;&gt;node14</title>
<path fill="none" stroke="black" d="M222.276,-232.759C264.323,-224.198 334.288,-210.889 395.176,-203.758 499.265,-191.568 528.018,-211.395 630.561,-189.758 638.617,-188.058 647.009,-185.533 654.972,-182.75"/>
<polygon fill="black" stroke="black" points="656.249,-186.009 664.42,-179.265 653.827,-179.442 656.249,-186.009"/>
<text text-anchor="middle" x="437.423" y="-207.558" font-family="Times New Roman,serif" font-size="14.00"> (1)</text>
</g>
<!-- node13 -->
<g id="node14" class="node"><title>node13</title>
<ellipse fill="none" stroke="black" cx="696.006" cy="-249.758" rx="40.8928" ry="18"/>
<text text-anchor="middle" x="696.006" y="-246.058" font-family="Times New Roman,serif" font-size="14.00">(13) OR</text>
</g>
<!-- node6&#45;&gt;node13 -->
<g id="edge17" class="edge"><title>node6&#45;&gt;node13</title>
<path fill="none" stroke="black" d="M479.647,-246.401C524.519,-247.1 596.298,-248.219 644.516,-248.971"/>
<polygon fill="black" stroke="black" points="644.677,-252.474 654.73,-249.13 644.786,-245.475 644.677,-252.474"/>
<text text-anchor="middle" x="545.115" y="-251.558" font-family="Times New Roman,serif" font-size="14.00"> (1)</text>
</g>
<!-- node15 -->
<g id="node16" class="node"><title>node15</title>
<ellipse fill="none" stroke="black" cx="846.248" cy="-249.758" rx="46.5926" ry="18"/>
<text text-anchor="middle" x="846.248" y="-246.058" font-family="Times New Roman,serif" font-size="14.00">(15) AND</text>
</g>
<!-- node7&#45;&gt;node15 -->
<g id="edge20" class="edge"><title>node7&#45;&gt;node15</title>
<path fill="none" stroke="black" d="M219.98,-300.758C249.195,-300.758 291.643,-300.758 328.731,-300.758 328.731,-300.758 328.731,-300.758 697.006,-300.758 737.529,-300.758 781.058,-283.508 810.391,-269.072"/>
<polygon fill="black" stroke="black" points="812.056,-272.152 819.394,-264.509 808.892,-265.908 812.056,-272.152"/>
<text text-anchor="middle" x="545.115" y="-304.558" font-family="Times New Roman,serif" font-size="14.00"> (0)</text>
</g>
<!-- node12 -->
<g id="node13" class="node"><title>node12</title>
<ellipse fill="none" stroke="black" cx="545.115" cy="-146.758" rx="47.3916" ry="18"/>
<text text-anchor="middle" x="545.115" y="-143.058" font-family="Times New Roman,serif" font-size="14.00">(12) XOR</text>
</g>
<!-- node8&#45;&gt;node12 -->
<g id="edge14" class="edge"><title>node8&#45;&gt;node12</title>
<path fill="none" stroke="black" d="M225.654,-158.267C290.032,-155.94 414.519,-151.442 487.321,-148.811"/>
<polygon fill="black" stroke="black" points="487.807,-152.295 497.674,-148.436 487.554,-145.3 487.807,-152.295"/>
<text text-anchor="middle" x="329.731" y="-159.558" font-family="Times New Roman,serif" font-size="14.00"> (0)</text>
</g>
<!-- node9&#45;&gt;node10 -->
<g id="edge11" class="edge"><title>node9&#45;&gt;node10</title>
<path fill="none" stroke="black" d="M211.2,-81.827C234,-69.9801 266.957,-52.8557 292.173,-39.7533"/>
<polygon fill="black" stroke="black" points="293.82,-42.8419 301.08,-35.1253 290.593,-36.6303 293.82,-42.8419"/>
<text text-anchor="middle" x="254.285" y="-65.5581" font-family="Times New Roman,serif" font-size="14.00"> (1)</text>
</g>
<!-- node9&#45;&gt;node11 -->
<g id="edge13" class="edge"><title>node9&#45;&gt;node11</title>
<path fill="none" stroke="black" d="M225.751,-98.6237C240.58,-99.6511 257.546,-100.826 273.37,-101.923"/>
<polygon fill="black" stroke="black" points="273.352,-105.43 283.57,-102.629 273.835,-98.4465 273.352,-105.43"/>
<text text-anchor="middle" x="254.285" y="-104.558" font-family="Times New Roman,serif" font-size="14.00"> (1)</text>
</g>
<!-- node16 -->
<g id="node17" class="node"><title>node16</title>
<ellipse fill="none" stroke="black" cx="972.94" cy="-20.7581" rx="42.7926" ry="18"/>
<text text-anchor="middle" x="972.94" y="-17.0581" font-family="Times New Roman,serif" font-size="14.00">Output 0</text>
</g>
<!-- node10&#45;&gt;node16 -->
<g id="edge22" class="edge"><title>node10&#45;&gt;node16</title>
<path fill="none" stroke="black" d="M377.352,-20.7581C420.581,-20.7581 486.694,-20.7581 544.115,-20.7581 544.115,-20.7581 544.115,-20.7581 847.248,-20.7581 870.982,-20.7581 897.257,-20.7581 919.544,-20.7581"/>
<polygon fill="black" stroke="black" points="919.807,-24.2582 929.806,-20.7581 919.806,-17.2582 919.807,-24.2582"/>
</g>
<!-- node11&#45;&gt;node12 -->
<g id="edge15" class="edge"><title>node11&#45;&gt;node12</title>
<path fill="none" stroke="black" d="M373.587,-112.056C403.437,-116.661 444.115,-123.372 479.669,-130.758 484.96,-131.857 490.474,-133.09 495.952,-134.371"/>
<polygon fill="black" stroke="black" points="495.177,-137.785 505.718,-136.711 496.808,-130.977 495.177,-137.785"/>
<text text-anchor="middle" x="437.423" y="-134.558" font-family="Times New Roman,serif" font-size="14.00"> (1)</text>
</g>
<!-- node12&#45;&gt;node13 -->
<g id="edge16" class="edge"><title>node12&#45;&gt;node13</title>
<path fill="none" stroke="black" d="M568.728,-162.402C594.384,-180.15 636.346,-209.178 664.791,-228.856"/>
<polygon fill="black" stroke="black" points="662.937,-231.829 673.152,-234.64 666.919,-226.072 662.937,-231.829"/>
<text text-anchor="middle" x="620.561" y="-207.558" font-family="Times New Roman,serif" font-size="14.00"> (0)</text>
</g>
<!-- node12&#45;&gt;node14 -->
<g id="edge18" class="edge"><title>node12&#45;&gt;node14</title>
<path fill="none" stroke="black" d="M585.042,-136.825C599.441,-134.544 615.837,-133.598 630.561,-136.758 640.265,-138.841 650.272,-142.503 659.421,-146.539"/>
<polygon fill="black" stroke="black" points="658.054,-149.764 668.596,-150.829 661.02,-143.423 658.054,-149.764"/>
<text text-anchor="middle" x="620.561" y="-140.558" font-family="Times New Roman,serif" font-size="14.00"> (0)</text>
</g>
<!-- node13&#45;&gt;node15 -->
<g id="edge21" class="edge"><title>node13&#45;&gt;node15</title>
<path fill="none" stroke="black" d="M737.123,-249.758C753.179,-249.758 771.953,-249.758 789.309,-249.758"/>
<polygon fill="black" stroke="black" points="789.333,-253.258 799.333,-249.758 789.333,-246.258 789.333,-253.258"/>
<text text-anchor="middle" x="771.452" y="-253.558" font-family="Times New Roman,serif" font-size="14.00"> (1)</text>
</g>
<!-- node17 -->
<g id="node18" class="node"><title>node17</title>
<ellipse fill="none" stroke="black" cx="972.94" cy="-165.758" rx="42.7926" ry="18"/>
<text text-anchor="middle" x="972.94" y="-162.058" font-family="Times New Roman,serif" font-size="14.00">Output 1</text>
</g>
<!-- node14&#45;&gt;node17 -->
<g id="edge23" class="edge"><title>node14&#45;&gt;node17</title>
<path fill="none" stroke="black" d="M743.645,-165.758C792.52,-165.758 869.121,-165.758 919.922,-165.758"/>
<polygon fill="black" stroke="black" points="920.036,-169.258 930.036,-165.758 920.036,-162.258 920.036,-169.258"/>
</g>
<!-- node18 -->
<g id="node19" class="node"><title>node18</title>
<ellipse fill="none" stroke="black" cx="972.94" cy="-249.758" rx="42.7926" ry="18"/>
<text text-anchor="middle" x="972.94" y="-246.058" font-family="Times New Roman,serif" font-size="14.00">Output 2</text>
</g>
<!-- node15&#45;&gt;node18 -->
<g id="edge24" class="edge"><title>node15&#45;&gt;node18</title>
<path fill="none" stroke="black" d="M893.324,-249.758C901.901,-249.758 910.919,-249.758 919.666,-249.758"/>
<polygon fill="black" stroke="black" points="919.766,-253.258 929.766,-249.758 919.766,-246.258 919.766,-253.258"/>
</g>
</g>
</svg>
