<?xml version="1.0" encoding="UTF-8" standalone="no"?>
<!DOCTYPE svg PUBLIC "-//W3C//DTD SVG 1.1//EN"
 "http://www.w3.org/Graphics/SVG/1.1/DTD/svg11.dtd">
<!-- Generated by graphviz version 2.38.0 (20140413.2041)
 -->
<!-- Title: NeuralNetwork Pages: 1 -->
<svg width="288pt" height="140pt"
 viewBox="0.00 0.00 288.00 140.28" xmlns="http://www.w3.org/2000/svg" xmlns:xlink="http://www.w3.org/1999/xlink">
<g id="graph0" class="graph" transform="scale(0.301021 0.301021) rotate(0) translate(4 462)">
<title>NeuralNetwork</title>
<polygon fill="white" stroke="none" points="-4,4 -4,-462 952.744,-462 952.744,4 -4,4"/>
<!-- node0 -->
<g id="node1" class="node"><title>node0</title>
<ellipse fill="none" stroke="black" cx="42.2463" cy="-178" rx="42.4939" ry="18"/>
<text text-anchor="middle" x="42.2463" y="-174.3" font-family="Times New Roman,serif" font-size="14.00">(0) Input</text>
</g>
<!-- node5 -->
<g id="node6" class="node"><title>node5</title>
<ellipse fill="none" stroke="black" cx="183.389" cy="-301" rx="36.2938" ry="18"/>
<text text-anchor="middle" x="183.389" y="-297.3" font-family="Times New Roman,serif" font-size="14.00">(5) OR</text>
</g>
<!-- node0&#45;&gt;node5 -->
<g id="edge2" class="edge"><title>node0&#45;&gt;node5</title>
<path fill="none" stroke="black" d="M84.2458,-180.888C97.9095,-183.759 112.244,-189.124 122.493,-199 142.234,-218.023 126.533,-234.405 140.493,-258 144.747,-265.19 150.444,-272.094 156.264,-278.185"/>
<polygon fill="black" stroke="black" points="154.026,-280.893 163.602,-285.426 158.943,-275.911 154.026,-280.893"/>
<text text-anchor="middle" x="112.493" y="-202.8" font-family="Times New Roman,serif" font-size="14.00"> (1)</text>
</g>
<!-- node6 -->
<g id="node7" class="node"><title>node6</title>
<ellipse fill="none" stroke="black" cx="183.389" cy="-180" rx="42.4939" ry="18"/>
<text text-anchor="middle" x="183.389" y="-176.3" font-family="Times New Roman,serif" font-size="14.00">(6) AND</text>
</g>
<!-- node0&#45;&gt;node6 -->
<g id="edge3" class="edge"><title>node0&#45;&gt;node6</title>
<path fill="none" stroke="black" d="M73.1781,-165.619C87.9395,-160.945 106.06,-157.329 122.493,-160 128.955,-161.05 135.661,-162.699 142.147,-164.61"/>
<polygon fill="black" stroke="black" points="141.498,-168.077 152.089,-167.78 143.625,-161.407 141.498,-168.077"/>
<text text-anchor="middle" x="112.493" y="-163.8" font-family="Times New Roman,serif" font-size="14.00"> (0)</text>
</g>
<!-- node1 -->
<g id="node2" class="node"><title>node1</title>
<ellipse fill="none" stroke="black" cx="42.2463" cy="-18" rx="42.4939" ry="18"/>
<text text-anchor="middle" x="42.2463" y="-14.3" font-family="Times New Roman,serif" font-size="14.00">(1) Input</text>
</g>
<!-- node9 -->
<g id="node10" class="node"><title>node9</title>
<ellipse fill="none" stroke="black" cx="183.389" cy="-121" rx="42.7926" ry="18"/>
<text text-anchor="middle" x="183.389" y="-117.3" font-family="Times New Roman,serif" font-size="14.00">(9) XOR</text>
</g>
<!-- node1&#45;&gt;node9 -->
<g id="edge9" class="edge"><title>node1&#45;&gt;node9</title>
<path fill="none" stroke="black" d="M78.3121,-27.4715C92.8282,-32.4327 109.313,-39.4932 122.493,-49 127.425,-52.5582 147.053,-76.5528 162.513,-95.8793"/>
<polygon fill="black" stroke="black" points="159.859,-98.1646 168.828,-103.803 165.333,-93.8016 159.859,-98.1646"/>
<text text-anchor="middle" x="112.493" y="-52.8" font-family="Times New Roman,serif" font-size="14.00"> (0)</text>
</g>
<!-- node15 -->
<g id="node16" class="node"><title>node15</title>
<ellipse fill="none" stroke="black" cx="183.389" cy="-41" rx="40.8928" ry="18"/>
<text text-anchor="middle" x="183.389" y="-37.3" font-family="Times New Roman,serif" font-size="14.00">(15) OR</text>
</g>
<!-- node1&#45;&gt;node15 -->
<g id="edge21" class="edge"><title>node1&#45;&gt;node15</title>
<path fill="none" stroke="black" d="M77.5372,-8.09646C91.6178,-5.46561 107.988,-4.26882 122.493,-8 132.755,-10.6399 143.141,-15.45 152.319,-20.5964"/>
<polygon fill="black" stroke="black" points="150.659,-23.6819 161.043,-25.7868 154.238,-17.666 150.659,-23.6819"/>
<text text-anchor="middle" x="112.493" y="-11.8" font-family="Times New Roman,serif" font-size="14.00"> (1)</text>
</g>
<!-- node2 -->
<g id="node3" class="node"><title>node2</title>
<ellipse fill="none" stroke="black" cx="42.2463" cy="-267" rx="42.4939" ry="18"/>
<text text-anchor="middle" x="42.2463" y="-263.3" font-family="Times New Roman,serif" font-size="14.00">(2) Input</text>
</g>
<!-- node2&#45;&gt;node5 -->
<g id="edge1" class="edge"><title>node2&#45;&gt;node5</title>
<path fill="none" stroke="black" d="M79.4411,-275.844C98.092,-280.402 120.937,-285.984 140.364,-290.731"/>
<polygon fill="black" stroke="black" points="139.627,-294.154 150.172,-293.128 141.288,-287.354 139.627,-294.154"/>
<text text-anchor="middle" x="112.493" y="-289.8" font-family="Times New Roman,serif" font-size="14.00"> (0)</text>
</g>
<!-- node2&#45;&gt;node6 -->
<g id="edge4" class="edge"><title>node2&#45;&gt;node6</title>
<path fill="none" stroke="black" d="M66.8499,-252.242C89.7379,-237.931 124.64,-216.108 150.095,-200.192"/>
<polygon fill="black" stroke="black" points="152.046,-203.1 158.669,-194.831 148.335,-197.165 152.046,-203.1"/>
<text text-anchor="middle" x="112.493" y="-231.8" font-family="Times New Roman,serif" font-size="14.00"> (1)</text>
</g>
<!-- node3 -->
<g id="node4" class="node"><title>node3</title>
<ellipse fill="none" stroke="black" cx="42.2463" cy="-102" rx="42.4939" ry="18"/>
<text text-anchor="middle" x="42.2463" y="-98.3" font-family="Times New Roman,serif" font-size="14.00">(3) Input</text>
</g>
<!-- node3&#45;&gt;node9 -->
<g id="edge10" class="edge"><title>node3&#45;&gt;node9</title>
<path fill="none" stroke="black" d="M82.7467,-107.394C98.183,-109.502 116.065,-111.943 132.384,-114.172"/>
<polygon fill="black" stroke="black" points="131.925,-117.641 142.306,-115.527 132.872,-110.706 131.925,-117.641"/>
<text text-anchor="middle" x="112.493" y="-115.8" font-family="Times New Roman,serif" font-size="14.00"> (1)</text>
</g>
<!-- node3&#45;&gt;node15 -->
<g id="edge20" class="edge"><title>node3&#45;&gt;node15</title>
<path fill="none" stroke="black" d="M72.4151,-89.2124C93.3336,-80.0417 121.71,-67.6016 144.398,-57.6551"/>
<polygon fill="black" stroke="black" points="145.982,-60.7825 153.735,-53.5618 143.171,-54.3715 145.982,-60.7825"/>
<text text-anchor="middle" x="112.493" y="-79.8" font-family="Times New Roman,serif" font-size="14.00"> (0)</text>
</g>
<!-- node4 -->
<g id="node5" class="node"><title>node4</title>
<ellipse fill="none" stroke="black" cx="42.2463" cy="-391" rx="42.4939" ry="18"/>
<text text-anchor="middle" x="42.2463" y="-387.3" font-family="Times New Roman,serif" font-size="14.00">(4) Input</text>
</g>
<!-- node7 -->
<g id="node8" class="node"><title>node7</title>
<ellipse fill="none" stroke="black" cx="328.431" cy="-440" rx="42.7926" ry="18"/>
<text text-anchor="middle" x="328.431" y="-436.3" font-family="Times New Roman,serif" font-size="14.00">(7) XOR</text>
</g>
<!-- node4&#45;&gt;node7 -->
<g id="edge5" class="edge"><title>node4&#45;&gt;node7</title>
<path fill="none" stroke="black" d="M81.5726,-397.608C132.491,-406.388 222.496,-421.907 278.335,-431.535"/>
<polygon fill="black" stroke="black" points="277.898,-435.011 288.347,-433.261 279.087,-428.113 277.898,-435.011"/>
<text text-anchor="middle" x="183.389" y="-424.8" font-family="Times New Roman,serif" font-size="14.00"> (0)</text>
</g>
<!-- node8 -->
<g id="node9" class="node"><title>node8</title>
<ellipse fill="none" stroke="black" cx="328.431" cy="-181" rx="36.2938" ry="18"/>
<text text-anchor="middle" x="328.431" y="-177.3" font-family="Times New Roman,serif" font-size="14.00">(8) OR</text>
</g>
<!-- node4&#45;&gt;node8 -->
<g id="edge7" class="edge"><title>node4&#45;&gt;node8</title>
<path fill="none" stroke="black" d="M48.9891,-373.066C57.4262,-349.094 75.1915,-306.451 102.493,-279 152.913,-228.304 177.762,-229.212 244.285,-203 257.127,-197.94 271.535,-193.666 284.705,-190.27"/>
<polygon fill="black" stroke="black" points="285.623,-193.648 294.487,-187.845 283.939,-186.854 285.623,-193.648"/>
<text text-anchor="middle" x="183.389" y="-249.8" font-family="Times New Roman,serif" font-size="14.00"> (0)</text>
</g>
<!-- node5&#45;&gt;node7 -->
<g id="edge6" class="edge"><title>node5&#45;&gt;node7</title>
<path fill="none" stroke="black" d="M197.668,-317.6C215.635,-339.546 249.252,-378.84 282.285,-408 286.516,-411.735 291.183,-415.441 295.863,-418.935"/>
<polygon fill="black" stroke="black" points="294.051,-421.944 304.209,-424.955 298.146,-416.266 294.051,-421.944"/>
<text text-anchor="middle" x="254.285" y="-392.8" font-family="Times New Roman,serif" font-size="14.00"> (1)</text>
</g>
<!-- node12 -->
<g id="node13" class="node"><title>node12</title>
<ellipse fill="none" stroke="black" cx="478.022" cy="-150" rx="40.8928" ry="18"/>
<text text-anchor="middle" x="478.022" y="-146.3" font-family="Times New Roman,serif" font-size="14.00">(12) OR</text>
</g>
<!-- node5&#45;&gt;node12 -->
<g id="edge15" class="edge"><title>node5&#45;&gt;node12</title>
<path fill="none" stroke="black" d="M211.926,-289.418C270.612,-264.702 403.416,-208.578 412.577,-203 426.651,-194.43 440.941,-183.012 452.478,-172.969"/>
<polygon fill="black" stroke="black" points="454.843,-175.549 459.987,-166.287 450.19,-170.319 454.843,-175.549"/>
<text text-anchor="middle" x="328.431" y="-262.8" font-family="Times New Roman,serif" font-size="14.00"> (1)</text>
</g>
<!-- node18 -->
<g id="node19" class="node"><title>node18</title>
<ellipse fill="none" stroke="black" cx="628.264" cy="-289" rx="46.5926" ry="18"/>
<text text-anchor="middle" x="628.264" y="-285.3" font-family="Times New Roman,serif" font-size="14.00">(18) AND</text>
</g>
<!-- node5&#45;&gt;node18 -->
<g id="edge26" class="edge"><title>node5&#45;&gt;node18</title>
<path fill="none" stroke="black" d="M219.882,-300.038C296.744,-297.956 479.087,-293.015 571.506,-290.511"/>
<polygon fill="black" stroke="black" points="571.609,-294.009 581.51,-290.24 571.419,-287.012 571.609,-294.009"/>
<text text-anchor="middle" x="402.577" y="-298.8" font-family="Times New Roman,serif" font-size="14.00"> (0)</text>
</g>
<!-- node19 -->
<g id="node20" class="node"><title>node19</title>
<ellipse fill="none" stroke="black" cx="328.431" cy="-335" rx="40.8928" ry="18"/>
<text text-anchor="middle" x="328.431" y="-331.3" font-family="Times New Roman,serif" font-size="14.00">(19) OR</text>
</g>
<!-- node5&#45;&gt;node19 -->
<g id="edge28" class="edge"><title>node5&#45;&gt;node19</title>
<path fill="none" stroke="black" d="M216.49,-308.63C235.903,-313.245 260.95,-319.198 282.332,-324.28"/>
<polygon fill="black" stroke="black" points="281.639,-327.713 292.177,-326.621 283.258,-320.903 281.639,-327.713"/>
<text text-anchor="middle" x="254.285" y="-323.8" font-family="Times New Roman,serif" font-size="14.00"> (0)</text>
</g>
<!-- node6&#45;&gt;node8 -->
<g id="edge8" class="edge"><title>node6&#45;&gt;node8</title>
<path fill="none" stroke="black" d="M214.688,-167.78C224.023,-164.59 234.438,-161.601 244.285,-160 260.046,-157.438 277.194,-160.709 291.801,-165.374"/>
<polygon fill="black" stroke="black" points="290.865,-168.755 301.459,-168.773 293.188,-162.152 290.865,-168.755"/>
<text text-anchor="middle" x="254.285" y="-163.8" font-family="Times New Roman,serif" font-size="14.00"> (1)</text>
</g>
<!-- node16 -->
<g id="node17" class="node"><title>node16</title>
<ellipse fill="none" stroke="black" cx="478.022" cy="-410" rx="47.3916" ry="18"/>
<text text-anchor="middle" x="478.022" y="-406.3" font-family="Times New Roman,serif" font-size="14.00">(16) XOR</text>
</g>
<!-- node6&#45;&gt;node16 -->
<g id="edge23" class="edge"><title>node6&#45;&gt;node16</title>
<path fill="none" stroke="black" d="M212.191,-193.567C217.391,-197.061 222.403,-201.213 226.285,-206 241.913,-225.275 255.933,-287.633 264.285,-311 272.375,-333.635 264.479,-345.853 282.285,-362 302.736,-380.546 372.572,-394.534 422.764,-402.494"/>
<polygon fill="black" stroke="black" points="422.417,-405.982 432.835,-404.053 423.488,-399.064 422.417,-405.982"/>
<text text-anchor="middle" x="328.431" y="-396.8" font-family="Times New Roman,serif" font-size="14.00"> (1)</text>
</g>
<!-- node7&#45;&gt;node16 -->
<g id="edge22" class="edge"><title>node7&#45;&gt;node16</title>
<path fill="none" stroke="black" d="M367.439,-432.274C385.259,-428.652 406.752,-424.283 425.965,-420.378"/>
<polygon fill="black" stroke="black" points="426.671,-423.806 435.774,-418.384 425.277,-416.947 426.671,-423.806"/>
<text text-anchor="middle" x="402.577" y="-429.8" font-family="Times New Roman,serif" font-size="14.00"> (0)</text>
</g>
<!-- node11 -->
<g id="node12" class="node"><title>node11</title>
<ellipse fill="none" stroke="black" cx="478.022" cy="-94" rx="40.8928" ry="18"/>
<text text-anchor="middle" x="478.022" y="-90.3" font-family="Times New Roman,serif" font-size="14.00">(11) OR</text>
</g>
<!-- node8&#45;&gt;node11 -->
<g id="edge13" class="edge"><title>node8&#45;&gt;node11</title>
<path fill="none" stroke="black" d="M353.69,-167.527C361.014,-162.668 368.67,-156.707 374.577,-150 386.138,-136.873 378.863,-125.859 392.577,-115 402.576,-107.082 415.165,-102.102 427.548,-98.9843"/>
<polygon fill="black" stroke="black" points="428.344,-102.393 437.381,-96.8624 426.868,-95.5506 428.344,-102.393"/>
<text text-anchor="middle" x="402.577" y="-118.8" font-family="Times New Roman,serif" font-size="14.00"> (1)</text>
</g>
<!-- node13 -->
<g id="node14" class="node"><title>node13</title>
<ellipse fill="none" stroke="black" cx="478.022" cy="-243" rx="47.3916" ry="18"/>
<text text-anchor="middle" x="478.022" y="-239.3" font-family="Times New Roman,serif" font-size="14.00">(13) XOR</text>
</g>
<!-- node8&#45;&gt;node13 -->
<g id="edge17" class="edge"><title>node8&#45;&gt;node13</title>
<path fill="none" stroke="black" d="M356.846,-192.516C379.17,-201.894 411.017,-215.272 436.318,-225.901"/>
<polygon fill="black" stroke="black" points="435.086,-229.18 445.661,-229.826 437.797,-222.726 435.086,-229.18"/>
<text text-anchor="middle" x="402.577" y="-218.8" font-family="Times New Roman,serif" font-size="14.00"> (1)</text>
</g>
<!-- node10 -->
<g id="node11" class="node"><title>node10</title>
<ellipse fill="none" stroke="black" cx="328.431" cy="-123" rx="46.2923" ry="18"/>
<text text-anchor="middle" x="328.431" y="-119.3" font-family="Times New Roman,serif" font-size="14.00">(10) NEG</text>
</g>
<!-- node9&#45;&gt;node10 -->
<g id="edge11" class="edge"><title>node9&#45;&gt;node10</title>
<path fill="none" stroke="black" d="M226.532,-121.589C240.727,-121.788 256.791,-122.012 271.86,-122.223"/>
<polygon fill="black" stroke="black" points="272.05,-125.726 282.098,-122.366 272.148,-118.727 272.05,-125.726"/>
<text text-anchor="middle" x="254.285" y="-125.8" font-family="Times New Roman,serif" font-size="14.00"> (0)</text>
</g>
<!-- node9&#45;&gt;node19 -->
<g id="edge29" class="edge"><title>node9&#45;&gt;node19</title>
<path fill="none" stroke="black" d="M207.725,-135.945C214.253,-140.851 221,-146.682 226.285,-153 243.756,-173.888 268.89,-238.29 282.285,-262 291.243,-277.858 301.939,-295.214 310.67,-309.023"/>
<polygon fill="black" stroke="black" points="307.765,-310.976 316.087,-317.533 313.67,-307.218 307.765,-310.976"/>
<text text-anchor="middle" x="254.285" y="-227.8" font-family="Times New Roman,serif" font-size="14.00"> (1)</text>
</g>
<!-- node10&#45;&gt;node11 -->
<g id="edge12" class="edge"><title>node10&#45;&gt;node11</title>
<path fill="none" stroke="black" d="M345.323,-106.157C357.135,-94.9339 374.307,-81.1555 392.577,-75 408.113,-69.7652 425.745,-72.4433 440.864,-77.2404"/>
<polygon fill="black" stroke="black" points="439.795,-80.5749 450.389,-80.6369 442.146,-73.9815 439.795,-80.5749"/>
<text text-anchor="middle" x="402.577" y="-78.8" font-family="Times New Roman,serif" font-size="14.00"> (0)</text>
</g>
<!-- node10&#45;&gt;node12 -->
<g id="edge14" class="edge"><title>node10&#45;&gt;node12</title>
<path fill="none" stroke="black" d="M370.543,-130.521C388.908,-133.881 410.656,-137.859 429.695,-141.342"/>
<polygon fill="black" stroke="black" points="429.196,-144.809 439.663,-143.165 430.456,-137.923 429.196,-144.809"/>
<text text-anchor="middle" x="402.577" y="-141.8" font-family="Times New Roman,serif" font-size="14.00"> (0)</text>
</g>
<!-- node10&#45;&gt;node13 -->
<g id="edge16" class="edge"><title>node10&#45;&gt;node13</title>
<path fill="none" stroke="black" d="M353.223,-138.594C360.22,-143.378 367.809,-148.764 374.577,-154 401.72,-175.001 431.142,-200.917 451.462,-219.356"/>
<polygon fill="black" stroke="black" points="449.299,-222.121 459.046,-226.275 454.017,-216.95 449.299,-222.121"/>
<text text-anchor="middle" x="402.577" y="-187.8" font-family="Times New Roman,serif" font-size="14.00"> (0)</text>
</g>
<!-- node14 -->
<g id="node15" class="node"><title>node14</title>
<ellipse fill="none" stroke="black" cx="628.264" cy="-94" rx="46.5926" ry="18"/>
<text text-anchor="middle" x="628.264" y="-90.3" font-family="Times New Roman,serif" font-size="14.00">(14) AND</text>
</g>
<!-- node11&#45;&gt;node14 -->
<g id="edge19" class="edge"><title>node11&#45;&gt;node14</title>
<path fill="none" stroke="black" d="M519.139,-94C535.195,-94 553.969,-94 571.325,-94"/>
<polygon fill="black" stroke="black" points="571.349,-97.5001 581.349,-94 571.349,-90.5001 571.349,-97.5001"/>
<text text-anchor="middle" x="553.468" y="-97.8" font-family="Times New Roman,serif" font-size="14.00"> (1)</text>
</g>
<!-- node12&#45;&gt;node14 -->
<g id="edge18" class="edge"><title>node12&#45;&gt;node14</title>
<path fill="none" stroke="black" d="M509.738,-138.397C531.428,-130.203 560.775,-119.117 584.717,-110.073"/>
<polygon fill="black" stroke="black" points="586.153,-113.272 594.271,-106.464 583.679,-106.723 586.153,-113.272"/>
<text text-anchor="middle" x="553.468" y="-128.8" font-family="Times New Roman,serif" font-size="14.00"> (0)</text>
</g>
<!-- node13&#45;&gt;node18 -->
<g id="edge27" class="edge"><title>node13&#45;&gt;node18</title>
<path fill="none" stroke="black" d="M522.47,-249.781C535.789,-252.382 550.377,-255.768 563.468,-260 572.395,-262.886 581.732,-266.664 590.422,-270.535"/>
<polygon fill="black" stroke="black" points="589.001,-273.734 599.548,-274.735 591.927,-267.375 589.001,-273.734"/>
<text text-anchor="middle" x="553.468" y="-263.8" font-family="Times New Roman,serif" font-size="14.00"> (1)</text>
</g>
<!-- node17 -->
<g id="node18" class="node"><title>node17</title>
<ellipse fill="none" stroke="black" cx="778.506" cy="-68" rx="46.5926" ry="18"/>
<text text-anchor="middle" x="778.506" y="-64.3" font-family="Times New Roman,serif" font-size="14.00">(17) AND</text>
</g>
<!-- node14&#45;&gt;node17 -->
<g id="edge25" class="edge"><title>node14&#45;&gt;node17</title>
<path fill="none" stroke="black" d="M671.348,-86.619C688.163,-83.6697 707.703,-80.2427 725.401,-77.1387"/>
<polygon fill="black" stroke="black" points="726.329,-80.5294 735.574,-75.3544 725.119,-73.6347 726.329,-80.5294"/>
<text text-anchor="middle" x="703.06" y="-86.8" font-family="Times New Roman,serif" font-size="14.00"> (1)</text>
</g>
<!-- node15&#45;&gt;node17 -->
<g id="edge24" class="edge"><title>node15&#45;&gt;node17</title>
<path fill="none" stroke="black" d="M224.466,-41C253.143,-41 292.664,-41 327.431,-41 327.431,-41 327.431,-41 629.264,-41 663.546,-41 701.577,-48.0754 730.534,-54.9822"/>
<polygon fill="black" stroke="black" points="729.83,-58.4135 740.377,-57.4064 731.504,-51.6165 729.83,-58.4135"/>
<text text-anchor="middle" x="478.022" y="-44.8" font-family="Times New Roman,serif" font-size="14.00"> (0)</text>
</g>
<!-- node21 -->
<g id="node22" class="node"><title>node21</title>
<ellipse fill="none" stroke="black" cx="905.848" cy="-410" rx="42.7926" ry="18"/>
<text text-anchor="middle" x="905.848" y="-406.3" font-family="Times New Roman,serif" font-size="14.00">Output 0</text>
</g>
<!-- node16&#45;&gt;node21 -->
<g id="edge32" class="edge"><title>node16&#45;&gt;node21</title>
<path fill="none" stroke="black" d="M525.811,-410C605.971,-410 768.997,-410 852.696,-410"/>
<polygon fill="black" stroke="black" points="852.743,-413.5 862.743,-410 852.743,-406.5 852.743,-413.5"/>
</g>
<!-- node23 -->
<g id="node24" class="node"><title>node23</title>
<ellipse fill="none" stroke="black" cx="905.848" cy="-68" rx="42.7926" ry="18"/>
<text text-anchor="middle" x="905.848" y="-64.3" font-family="Times New Roman,serif" font-size="14.00">Output 2</text>
</g>
<!-- node17&#45;&gt;node23 -->
<g id="edge34" class="edge"><title>node17&#45;&gt;node23</title>
<path fill="none" stroke="black" d="M825.467,-68C834.3,-68 843.61,-68 852.624,-68"/>
<polygon fill="black" stroke="black" points="852.634,-71.5001 862.634,-68 852.634,-64.5001 852.634,-71.5001"/>
</g>
<!-- node20 -->
<g id="node21" class="node"><title>node20</title>
<ellipse fill="none" stroke="black" cx="778.506" cy="-320" rx="47.3916" ry="18"/>
<text text-anchor="middle" x="778.506" y="-316.3" font-family="Times New Roman,serif" font-size="14.00">(20) XOR</text>
</g>
<!-- node18&#45;&gt;node20 -->
<g id="edge30" class="edge"><title>node18&#45;&gt;node20</title>
<path fill="none" stroke="black" d="M670.203,-297.188C683.843,-299.948 699.114,-303.071 713.06,-306 717.53,-306.939 722.171,-307.925 726.823,-308.921"/>
<polygon fill="black" stroke="black" points="726.445,-312.42 736.958,-311.102 727.918,-305.577 726.445,-312.42"/>
<text text-anchor="middle" x="703.06" y="-309.8" font-family="Times New Roman,serif" font-size="14.00"> (0)</text>
</g>
<!-- node19&#45;&gt;node20 -->
<g id="edge31" class="edge"><title>node19&#45;&gt;node20</title>
<path fill="none" stroke="black" d="M369.589,-333.656C449.53,-330.979 628.776,-324.979 720.728,-321.901"/>
<polygon fill="black" stroke="black" points="721.082,-325.391 730.959,-321.558 720.848,-318.395 721.082,-325.391"/>
<text text-anchor="middle" x="553.468" y="-330.8" font-family="Times New Roman,serif" font-size="14.00"> (1)</text>
</g>
<!-- node22 -->
<g id="node23" class="node"><title>node22</title>
<ellipse fill="none" stroke="black" cx="905.848" cy="-320" rx="42.7926" ry="18"/>
<text text-anchor="middle" x="905.848" y="-316.3" font-family="Times New Roman,serif" font-size="14.00">Output 1</text>
</g>
<!-- node20&#45;&gt;node22 -->
<g id="edge33" class="edge"><title>node20&#45;&gt;node22</title>
<path fill="none" stroke="black" d="M826.178,-320C834.783,-320 843.819,-320 852.576,-320"/>
<polygon fill="black" stroke="black" points="852.686,-323.5 862.686,-320 852.686,-316.5 852.686,-323.5"/>
</g>
</g>
</svg>
