<?xml version="1.0" encoding="UTF-8" standalone="no"?>
<!DOCTYPE svg PUBLIC "-//W3C//DTD SVG 1.1//EN"
 "http://www.w3.org/Graphics/SVG/1.1/DTD/svg11.dtd">
<!-- Generated by graphviz version 2.38.0 (20140413.2041)
 -->
<!-- Title: NeuralNetwork Pages: 1 -->
<svg width="288pt" height="104pt"
 viewBox="0.00 0.00 288.00 103.73" xmlns="http://www.w3.org/2000/svg" xmlns:xlink="http://www.w3.org/1999/xlink">
<g id="graph0" class="graph" transform="scale(0.23416 0.23416) rotate(0) translate(4 439)">
<title>NeuralNetwork</title>
<polygon fill="white" stroke="none" points="-4,4 -4,-439 1225.93,-439 1225.93,4 -4,4"/>
<!-- node0 -->
<g id="node1" class="node"><title>node0</title>
<ellipse fill="none" stroke="black" cx="42.2463" cy="-18" rx="42.4939" ry="18"/>
<text text-anchor="middle" x="42.2463" y="-14.3" font-family="Times New Roman,serif" font-size="14.00">(0) Input</text>
</g>
<!-- node5 -->
<g id="node6" class="node"><title>node5</title>
<ellipse fill="none" stroke="black" cx="183.389" cy="-101" rx="42.7926" ry="18"/>
<text text-anchor="middle" x="183.389" y="-97.3" font-family="Times New Roman,serif" font-size="14.00">(5) XOR</text>
</g>
<!-- node0&#45;&gt;node5 -->
<g id="edge1" class="edge"><title>node0&#45;&gt;node5</title>
<path fill="none" stroke="black" d="M67.483,-32.4575C90.0897,-45.9426 124.008,-66.1752 149.139,-81.1661"/>
<polygon fill="black" stroke="black" points="147.582,-84.3126 157.963,-86.4297 151.168,-78.3009 147.582,-84.3126"/>
<text text-anchor="middle" x="112.493" y="-67.8" font-family="Times New Roman,serif" font-size="14.00"> (0)</text>
</g>
<!-- node1 -->
<g id="node2" class="node"><title>node1</title>
<ellipse fill="none" stroke="black" cx="42.2463" cy="-279" rx="42.4939" ry="18"/>
<text text-anchor="middle" x="42.2463" y="-275.3" font-family="Times New Roman,serif" font-size="14.00">(1) Input</text>
</g>
<!-- node9 -->
<g id="node10" class="node"><title>node9</title>
<ellipse fill="none" stroke="black" cx="617.865" cy="-311" rx="42.7926" ry="18"/>
<text text-anchor="middle" x="617.865" y="-307.3" font-family="Times New Roman,serif" font-size="14.00">(9) XOR</text>
</g>
<!-- node1&#45;&gt;node9 -->
<g id="edge10" class="edge"><title>node1&#45;&gt;node9</title>
<path fill="none" stroke="black" d="M74.8255,-290.553C102.723,-299.719 144.712,-311 182.389,-311 182.389,-311 182.389,-311 477.073,-311 506.104,-311 538.527,-311 564.833,-311"/>
<polygon fill="black" stroke="black" points="564.963,-314.5 574.963,-311 564.963,-307.5 564.963,-314.5"/>
<text text-anchor="middle" x="329.731" y="-314.8" font-family="Times New Roman,serif" font-size="14.00"> (1)</text>
</g>
<!-- node10 -->
<g id="node11" class="node"><title>node10</title>
<ellipse fill="none" stroke="black" cx="617.865" cy="-244" rx="40.8928" ry="18"/>
<text text-anchor="middle" x="617.865" y="-240.3" font-family="Times New Roman,serif" font-size="14.00">(10) OR</text>
</g>
<!-- node1&#45;&gt;node10 -->
<g id="edge11" class="edge"><title>node1&#45;&gt;node10</title>
<path fill="none" stroke="black" d="M75.4072,-267.633C103.323,-258.785 145.018,-248 182.389,-248 182.389,-248 182.389,-248 477.073,-248 506.866,-248 540.217,-247.081 566.869,-246.124"/>
<polygon fill="black" stroke="black" points="567.242,-249.613 577.105,-245.743 566.981,-242.617 567.242,-249.613"/>
<text text-anchor="middle" x="329.731" y="-251.8" font-family="Times New Roman,serif" font-size="14.00"> (0)</text>
</g>
<!-- node2 -->
<g id="node3" class="node"><title>node2</title>
<ellipse fill="none" stroke="black" cx="42.2463" cy="-77" rx="42.4939" ry="18"/>
<text text-anchor="middle" x="42.2463" y="-73.3" font-family="Times New Roman,serif" font-size="14.00">(2) Input</text>
</g>
<!-- node6 -->
<g id="node7" class="node"><title>node6</title>
<ellipse fill="none" stroke="black" cx="183.389" cy="-156" rx="42.7926" ry="18"/>
<text text-anchor="middle" x="183.389" y="-152.3" font-family="Times New Roman,serif" font-size="14.00">(6) XOR</text>
</g>
<!-- node2&#45;&gt;node6 -->
<g id="edge4" class="edge"><title>node2&#45;&gt;node6</title>
<path fill="none" stroke="black" d="M79.5479,-85.8066C93.7752,-90.3619 109.716,-96.9181 122.493,-106 132.79,-113.319 131.138,-119.508 140.493,-128 143.397,-130.637 146.57,-133.209 149.828,-135.659"/>
<polygon fill="black" stroke="black" points="147.816,-138.523 157.996,-141.461 151.87,-132.816 147.816,-138.523"/>
<text text-anchor="middle" x="112.493" y="-109.8" font-family="Times New Roman,serif" font-size="14.00"> (1)</text>
</g>
<!-- node15 -->
<g id="node16" class="node"><title>node15</title>
<ellipse fill="none" stroke="black" cx="329.731" cy="-65" rx="47.3916" ry="18"/>
<text text-anchor="middle" x="329.731" y="-61.3" font-family="Times New Roman,serif" font-size="14.00">(15) XOR</text>
</g>
<!-- node2&#45;&gt;node15 -->
<g id="edge22" class="edge"><title>node2&#45;&gt;node15</title>
<path fill="none" stroke="black" d="M79.9674,-68.5615C98.0794,-64.8205 120.317,-60.8515 140.493,-59 185.135,-54.9032 235.954,-56.9158 273.528,-59.6689"/>
<polygon fill="black" stroke="black" points="273.518,-63.1785 283.758,-60.4605 274.058,-56.1993 273.518,-63.1785"/>
<text text-anchor="middle" x="183.389" y="-62.8" font-family="Times New Roman,serif" font-size="14.00"> (1)</text>
</g>
<!-- node3 -->
<g id="node4" class="node"><title>node3</title>
<ellipse fill="none" stroke="black" cx="42.2463" cy="-388" rx="42.4939" ry="18"/>
<text text-anchor="middle" x="42.2463" y="-384.3" font-family="Times New Roman,serif" font-size="14.00">(3) Input</text>
</g>
<!-- node12 -->
<g id="node13" class="node"><title>node12</title>
<ellipse fill="none" stroke="black" cx="908.599" cy="-300" rx="40.8928" ry="18"/>
<text text-anchor="middle" x="908.599" y="-296.3" font-family="Times New Roman,serif" font-size="14.00">(12) OR</text>
</g>
<!-- node3&#45;&gt;node12 -->
<g id="edge16" class="edge"><title>node3&#45;&gt;node12</title>
<path fill="none" stroke="black" d="M75.4072,-376.633C103.323,-367.785 145.018,-357 182.389,-357 182.389,-357 182.389,-357 765.207,-357 805.877,-357 848.703,-336.711 876.636,-320.342"/>
<polygon fill="black" stroke="black" points="878.766,-323.144 885.513,-314.976 875.145,-317.154 878.766,-323.144"/>
<text text-anchor="middle" x="476.073" y="-360.8" font-family="Times New Roman,serif" font-size="14.00"> (1)</text>
</g>
<!-- node14 -->
<g id="node15" class="node"><title>node14</title>
<ellipse fill="none" stroke="black" cx="764.207" cy="-411" rx="47.3916" ry="18"/>
<text text-anchor="middle" x="764.207" y="-407.3" font-family="Times New Roman,serif" font-size="14.00">(14) XOR</text>
</g>
<!-- node3&#45;&gt;node14 -->
<g id="edge19" class="edge"><title>node3&#45;&gt;node14</title>
<path fill="none" stroke="black" d="M74.8255,-399.553C102.723,-408.719 144.712,-420 182.389,-420 182.389,-420 182.389,-420 618.865,-420 648.365,-420 681.19,-418.104 708.074,-416.053"/>
<polygon fill="black" stroke="black" points="708.375,-419.54 718.068,-415.263 707.823,-412.562 708.375,-419.54"/>
<text text-anchor="middle" x="405.176" y="-423.8" font-family="Times New Roman,serif" font-size="14.00"> (0)</text>
</g>
<!-- node4 -->
<g id="node5" class="node"><title>node4</title>
<ellipse fill="none" stroke="black" cx="42.2463" cy="-157" rx="42.4939" ry="18"/>
<text text-anchor="middle" x="42.2463" y="-153.3" font-family="Times New Roman,serif" font-size="14.00">(4) Input</text>
</g>
<!-- node4&#45;&gt;node5 -->
<g id="edge2" class="edge"><title>node4&#45;&gt;node5</title>
<path fill="none" stroke="black" d="M73.4381,-144.849C93.6292,-136.723 120.419,-125.941 142.38,-117.102"/>
<polygon fill="black" stroke="black" points="143.805,-120.301 151.775,-113.321 141.192,-113.808 143.805,-120.301"/>
<text text-anchor="middle" x="112.493" y="-135.8" font-family="Times New Roman,serif" font-size="14.00"> (1)</text>
</g>
<!-- node4&#45;&gt;node6 -->
<g id="edge3" class="edge"><title>node4&#45;&gt;node6</title>
<path fill="none" stroke="black" d="M84.6168,-156.703C98.9362,-156.6 115.174,-156.483 130.246,-156.375"/>
<polygon fill="black" stroke="black" points="130.481,-159.873 140.456,-156.301 130.431,-152.873 130.481,-159.873"/>
<text text-anchor="middle" x="112.493" y="-159.8" font-family="Times New Roman,serif" font-size="14.00"> (0)</text>
</g>
<!-- node8 -->
<g id="node9" class="node"><title>node8</title>
<ellipse fill="none" stroke="black" cx="476.073" cy="-202" rx="42.7926" ry="18"/>
<text text-anchor="middle" x="476.073" y="-198.3" font-family="Times New Roman,serif" font-size="14.00">(8) XOR</text>
</g>
<!-- node4&#45;&gt;node8 -->
<g id="edge8" class="edge"><title>node4&#45;&gt;node8</title>
<path fill="none" stroke="black" d="M76.1224,-168.061C94.7658,-173.756 118.665,-180.099 140.493,-183 239.854,-196.204 357.011,-200.241 423.011,-201.469"/>
<polygon fill="black" stroke="black" points="423.095,-204.971 433.153,-201.643 423.215,-197.972 423.095,-204.971"/>
<text text-anchor="middle" x="254.285" y="-197.8" font-family="Times New Roman,serif" font-size="14.00"> (1)</text>
</g>
<!-- node7 -->
<g id="node8" class="node"><title>node7</title>
<ellipse fill="none" stroke="black" cx="329.731" cy="-156" rx="42.4939" ry="18"/>
<text text-anchor="middle" x="329.731" y="-152.3" font-family="Times New Roman,serif" font-size="14.00">(7) AND</text>
</g>
<!-- node5&#45;&gt;node7 -->
<g id="edge5" class="edge"><title>node5&#45;&gt;node7</title>
<path fill="none" stroke="black" d="M215.709,-112.934C236.893,-121.006 265.08,-131.747 288.005,-140.482"/>
<polygon fill="black" stroke="black" points="286.881,-143.799 297.472,-144.089 289.373,-137.258 286.881,-143.799"/>
<text text-anchor="middle" x="254.285" y="-133.8" font-family="Times New Roman,serif" font-size="14.00"> (0)</text>
</g>
<!-- node5&#45;&gt;node15 -->
<g id="edge21" class="edge"><title>node5&#45;&gt;node15</title>
<path fill="none" stroke="black" d="M217.468,-89.8008C226.14,-87.0595 235.518,-84.2657 244.285,-82 254.599,-79.3343 265.712,-76.8359 276.38,-74.618"/>
<polygon fill="black" stroke="black" points="277.325,-77.9975 286.431,-72.5812 275.935,-71.137 277.325,-77.9975"/>
<text text-anchor="middle" x="254.285" y="-85.8" font-family="Times New Roman,serif" font-size="14.00"> (0)</text>
</g>
<!-- node6&#45;&gt;node7 -->
<g id="edge6" class="edge"><title>node6&#45;&gt;node7</title>
<path fill="none" stroke="black" d="M226.526,-156C242.376,-156 260.577,-156 277.187,-156"/>
<polygon fill="black" stroke="black" points="277.288,-159.5 287.288,-156 277.288,-152.5 277.288,-159.5"/>
<text text-anchor="middle" x="254.285" y="-159.8" font-family="Times New Roman,serif" font-size="14.00"> (1)</text>
</g>
<!-- node7&#45;&gt;node8 -->
<g id="edge7" class="edge"><title>node7&#45;&gt;node8</title>
<path fill="none" stroke="black" d="M369.947,-161.77C384.378,-164.445 400.72,-168.132 415.176,-173 423.519,-175.809 432.2,-179.514 440.281,-183.334"/>
<polygon fill="black" stroke="black" points="438.914,-186.562 449.434,-187.824 441.997,-180.277 438.914,-186.562"/>
<text text-anchor="middle" x="405.176" y="-176.8" font-family="Times New Roman,serif" font-size="14.00"> (0)</text>
</g>
<!-- node8&#45;&gt;node9 -->
<g id="edge9" class="edge"><title>node8&#45;&gt;node9</title>
<path fill="none" stroke="black" d="M497.4,-217.85C521.419,-236.578 561.527,-267.852 588.572,-288.939"/>
<polygon fill="black" stroke="black" points="586.475,-291.742 596.514,-295.131 590.78,-286.222 586.475,-291.742"/>
<text text-anchor="middle" x="546.969" y="-266.8" font-family="Times New Roman,serif" font-size="14.00"> (0)</text>
</g>
<!-- node8&#45;&gt;node10 -->
<g id="edge12" class="edge"><title>node8&#45;&gt;node10</title>
<path fill="none" stroke="black" d="M516.053,-208.785C529.187,-211.468 543.838,-214.902 556.969,-219 564.29,-221.285 571.952,-224.122 579.256,-227.056"/>
<polygon fill="black" stroke="black" points="578.351,-230.47 588.929,-231.075 581.037,-224.006 578.351,-230.47"/>
<text text-anchor="middle" x="546.969" y="-222.8" font-family="Times New Roman,serif" font-size="14.00"> (1)</text>
</g>
<!-- node11 -->
<g id="node12" class="node"><title>node11</title>
<ellipse fill="none" stroke="black" cx="764.207" cy="-300" rx="47.3916" ry="18"/>
<text text-anchor="middle" x="764.207" y="-296.3" font-family="Times New Roman,serif" font-size="14.00">(11) XOR</text>
</g>
<!-- node9&#45;&gt;node11 -->
<g id="edge14" class="edge"><title>node9&#45;&gt;node11</title>
<path fill="none" stroke="black" d="M660.228,-307.848C674.92,-306.728 691.71,-305.449 707.408,-304.252"/>
<polygon fill="black" stroke="black" points="707.829,-307.73 717.534,-303.481 707.297,-300.751 707.829,-307.73"/>
<text text-anchor="middle" x="688.761" y="-309.8" font-family="Times New Roman,serif" font-size="14.00"> (1)</text>
</g>
<!-- node9&#45;&gt;node14 -->
<g id="edge20" class="edge"><title>node9&#45;&gt;node14</title>
<path fill="none" stroke="black" d="M641.102,-326.406C665.364,-343.214 704.392,-370.253 731.779,-389.227"/>
<polygon fill="black" stroke="black" points="730.015,-392.263 740.228,-395.08 734.002,-386.509 730.015,-392.263"/>
<text text-anchor="middle" x="688.761" y="-366.8" font-family="Times New Roman,serif" font-size="14.00"> (1)</text>
</g>
<!-- node10&#45;&gt;node11 -->
<g id="edge13" class="edge"><title>node10&#45;&gt;node11</title>
<path fill="none" stroke="black" d="M649.124,-255.739C669.956,-263.822 697.918,-274.67 720.945,-283.604"/>
<polygon fill="black" stroke="black" points="719.887,-286.947 730.476,-287.301 722.419,-280.421 719.887,-286.947"/>
<text text-anchor="middle" x="688.761" y="-276.8" font-family="Times New Roman,serif" font-size="14.00"> (0)</text>
</g>
<!-- node13 -->
<g id="node14" class="node"><title>node13</title>
<ellipse fill="none" stroke="black" cx="1052.34" cy="-259" rx="46.5926" ry="18"/>
<text text-anchor="middle" x="1052.34" y="-255.3" font-family="Times New Roman,serif" font-size="14.00">(13) AND</text>
</g>
<!-- node10&#45;&gt;node13 -->
<g id="edge17" class="edge"><title>node10&#45;&gt;node13</title>
<path fill="none" stroke="black" d="M658.776,-245.384C736.217,-248.07 907.013,-253.994 995.599,-257.067"/>
<polygon fill="black" stroke="black" points="995.608,-260.569 1005.72,-257.418 995.851,-253.573 995.608,-260.569"/>
<text text-anchor="middle" x="839.653" y="-254.8" font-family="Times New Roman,serif" font-size="14.00"> (0)</text>
</g>
<!-- node11&#45;&gt;node12 -->
<g id="edge15" class="edge"><title>node11&#45;&gt;node12</title>
<path fill="none" stroke="black" d="M811.832,-300C826.462,-300 842.669,-300 857.527,-300"/>
<polygon fill="black" stroke="black" points="857.562,-303.5 867.562,-300 857.562,-296.5 857.562,-303.5"/>
<text text-anchor="middle" x="839.653" y="-303.8" font-family="Times New Roman,serif" font-size="14.00"> (0)</text>
</g>
<!-- node12&#45;&gt;node13 -->
<g id="edge18" class="edge"><title>node12&#45;&gt;node13</title>
<path fill="none" stroke="black" d="M943.19,-290.284C961.623,-284.952 984.759,-278.26 1004.9,-272.435"/>
<polygon fill="black" stroke="black" points="1005.87,-275.795 1014.51,-269.654 1003.93,-269.071 1005.87,-275.795"/>
<text text-anchor="middle" x="977.546" y="-286.8" font-family="Times New Roman,serif" font-size="14.00"> (1)</text>
</g>
<!-- node18 -->
<g id="node19" class="node"><title>node18</title>
<ellipse fill="none" stroke="black" cx="1179.03" cy="-259" rx="42.7926" ry="18"/>
<text text-anchor="middle" x="1179.03" y="-255.3" font-family="Times New Roman,serif" font-size="14.00">Output 2</text>
</g>
<!-- node13&#45;&gt;node18 -->
<g id="edge25" class="edge"><title>node13&#45;&gt;node18</title>
<path fill="none" stroke="black" d="M1099.42,-259C1107.99,-259 1117.01,-259 1125.76,-259"/>
<polygon fill="black" stroke="black" points="1125.86,-262.5 1135.86,-259 1125.86,-255.5 1125.86,-262.5"/>
</g>
<!-- node17 -->
<g id="node18" class="node"><title>node17</title>
<ellipse fill="none" stroke="black" cx="1179.03" cy="-411" rx="42.7926" ry="18"/>
<text text-anchor="middle" x="1179.03" y="-407.3" font-family="Times New Roman,serif" font-size="14.00">Output 1</text>
</g>
<!-- node14&#45;&gt;node17 -->
<g id="edge24" class="edge"><title>node14&#45;&gt;node17</title>
<path fill="none" stroke="black" d="M811.761,-411C889.255,-411 1044.21,-411 1125.5,-411"/>
<polygon fill="black" stroke="black" points="1125.99,-414.5 1135.99,-411 1125.99,-407.5 1125.99,-414.5"/>
</g>
<!-- node16 -->
<g id="node17" class="node"><title>node16</title>
<ellipse fill="none" stroke="black" cx="1179.03" cy="-65" rx="42.7926" ry="18"/>
<text text-anchor="middle" x="1179.03" y="-61.3" font-family="Times New Roman,serif" font-size="14.00">Output 0</text>
</g>
<!-- node15&#45;&gt;node16 -->
<g id="edge23" class="edge"><title>node15&#45;&gt;node16</title>
<path fill="none" stroke="black" d="M377.209,-65C405.5,-65 442.37,-65 475.073,-65 475.073,-65 475.073,-65 1053.34,-65 1077.08,-65 1103.35,-65 1125.64,-65"/>
<polygon fill="black" stroke="black" points="1125.9,-68.5001 1135.9,-65 1125.9,-61.5001 1125.9,-68.5001"/>
</g>
</g>
</svg>
