<?xml version="1.0" encoding="UTF-8" standalone="no"?>
<!DOCTYPE svg PUBLIC "-//W3C//DTD SVG 1.1//EN"
 "http://www.w3.org/Graphics/SVG/1.1/DTD/svg11.dtd">
<!-- Generated by graphviz version 2.38.0 (20140413.2041)
 -->
<!-- Title: NeuralNetwork Pages: 1 -->
<svg width="288pt" height="95pt"
 viewBox="0.00 0.00 288.00 95.09" xmlns="http://www.w3.org/2000/svg" xmlns:xlink="http://www.w3.org/1999/xlink">
<g id="graph0" class="graph" transform="scale(0.247629 0.247629) rotate(0) translate(4 380)">
<title>NeuralNetwork</title>
<polygon fill="white" stroke="none" points="-4,4 -4,-380 1159.03,-380 1159.03,4 -4,4"/>
<!-- node0 -->
<g id="node1" class="node"><title>node0</title>
<ellipse fill="none" stroke="black" cx="42.2463" cy="-255" rx="42.4939" ry="18"/>
<text text-anchor="middle" x="42.2463" y="-251.3" font-family="Times New Roman,serif" font-size="14.00">(0) Input</text>
</g>
<!-- node5 -->
<g id="node6" class="node"><title>node5</title>
<ellipse fill="none" stroke="black" cx="183.389" cy="-255" rx="42.7926" ry="18"/>
<text text-anchor="middle" x="183.389" y="-251.3" font-family="Times New Roman,serif" font-size="14.00">(5) XOR</text>
</g>
<!-- node0&#45;&gt;node5 -->
<g id="edge2" class="edge"><title>node0&#45;&gt;node5</title>
<path fill="none" stroke="black" d="M84.6168,-255C98.9362,-255 115.174,-255 130.246,-255"/>
<polygon fill="black" stroke="black" points="130.456,-258.5 140.456,-255 130.456,-251.5 130.456,-258.5"/>
<text text-anchor="middle" x="112.493" y="-258.8" font-family="Times New Roman,serif" font-size="14.00"> (1)</text>
</g>
<!-- node1 -->
<g id="node2" class="node"><title>node1</title>
<ellipse fill="none" stroke="black" cx="42.2463" cy="-98" rx="42.4939" ry="18"/>
<text text-anchor="middle" x="42.2463" y="-94.3" font-family="Times New Roman,serif" font-size="14.00">(1) Input</text>
</g>
<!-- node9 -->
<g id="node10" class="node"><title>node9</title>
<ellipse fill="none" stroke="black" cx="183.389" cy="-43" rx="42.4939" ry="18"/>
<text text-anchor="middle" x="183.389" y="-39.3" font-family="Times New Roman,serif" font-size="14.00">(9) AND</text>
</g>
<!-- node1&#45;&gt;node9 -->
<g id="edge9" class="edge"><title>node1&#45;&gt;node9</title>
<path fill="none" stroke="black" d="M59.8678,-81.532C70.9835,-71.5562 86.4649,-59.533 102.493,-53 111.428,-49.358 121.353,-46.9529 131.084,-45.3826"/>
<polygon fill="black" stroke="black" points="131.663,-48.8363 141.106,-44.0315 130.728,-41.8991 131.663,-48.8363"/>
<text text-anchor="middle" x="112.493" y="-56.8" font-family="Times New Roman,serif" font-size="14.00"> (1)</text>
</g>
<!-- node11 -->
<g id="node12" class="node"><title>node11</title>
<ellipse fill="none" stroke="black" cx="291.731" cy="-109" rx="47.3916" ry="18"/>
<text text-anchor="middle" x="291.731" y="-105.3" font-family="Times New Roman,serif" font-size="14.00">(11) XOR</text>
</g>
<!-- node1&#45;&gt;node11 -->
<g id="edge12" class="edge"><title>node1&#45;&gt;node11</title>
<path fill="none" stroke="black" d="M82.3761,-103.949C89.0728,-104.776 95.9721,-105.51 102.493,-106 146.584,-109.316 196.641,-109.966 234.047,-109.84"/>
<polygon fill="black" stroke="black" points="234.265,-113.339 244.246,-109.786 234.228,-106.339 234.265,-113.339"/>
<text text-anchor="middle" x="112.493" y="-110.8" font-family="Times New Roman,serif" font-size="14.00"> (0)</text>
</g>
<!-- node2 -->
<g id="node3" class="node"><title>node2</title>
<ellipse fill="none" stroke="black" cx="42.2463" cy="-339" rx="42.4939" ry="18"/>
<text text-anchor="middle" x="42.2463" y="-335.3" font-family="Times New Roman,serif" font-size="14.00">(2) Input</text>
</g>
<!-- node7 -->
<g id="node8" class="node"><title>node7</title>
<ellipse fill="none" stroke="black" cx="400.073" cy="-358" rx="42.7926" ry="18"/>
<text text-anchor="middle" x="400.073" y="-354.3" font-family="Times New Roman,serif" font-size="14.00">(7) XOR</text>
</g>
<!-- node2&#45;&gt;node7 -->
<g id="edge5" class="edge"><title>node2&#45;&gt;node7</title>
<path fill="none" stroke="black" d="M83.632,-342.931C124.193,-346.71 188.507,-352.242 244.285,-355 278.385,-356.686 316.753,-357.437 346.76,-357.767"/>
<polygon fill="black" stroke="black" points="346.97,-361.269 357.004,-357.866 347.038,-354.269 346.97,-361.269"/>
<text text-anchor="middle" x="183.389" y="-357.8" font-family="Times New Roman,serif" font-size="14.00"> (1)</text>
</g>
<!-- node10 -->
<g id="node11" class="node"><title>node10</title>
<ellipse fill="none" stroke="black" cx="539.915" cy="-255" rx="40.8928" ry="18"/>
<text text-anchor="middle" x="539.915" y="-251.3" font-family="Times New Roman,serif" font-size="14.00">(10) OR</text>
</g>
<!-- node2&#45;&gt;node10 -->
<g id="edge11" class="edge"><title>node2&#45;&gt;node10</title>
<path fill="none" stroke="black" d="M79.3354,-330.267C119.398,-320.895 186.092,-306.246 244.285,-298 331.998,-285.57 355.295,-294.706 442.969,-282 460.05,-279.525 464.3,-278.473 480.969,-274 486.337,-272.559 491.941,-270.911 497.457,-269.2"/>
<polygon fill="black" stroke="black" points="498.76,-272.458 507.223,-266.084 496.632,-265.789 498.76,-272.458"/>
<text text-anchor="middle" x="291.731" y="-301.8" font-family="Times New Roman,serif" font-size="14.00"> (1)</text>
</g>
<!-- node3 -->
<g id="node4" class="node"><title>node3</title>
<ellipse fill="none" stroke="black" cx="42.2463" cy="-29" rx="42.4939" ry="18"/>
<text text-anchor="middle" x="42.2463" y="-25.3" font-family="Times New Roman,serif" font-size="14.00">(3) Input</text>
</g>
<!-- node3&#45;&gt;node9 -->
<g id="edge8" class="edge"><title>node3&#45;&gt;node9</title>
<path fill="none" stroke="black" d="M75.3761,-17.5697C89.8347,-13.9021 107.081,-11.5756 122.493,-15 131.367,-16.9718 140.483,-20.4033 148.841,-24.2026"/>
<polygon fill="black" stroke="black" points="147.377,-27.3826 157.903,-28.5903 150.428,-21.0822 147.377,-27.3826"/>
<text text-anchor="middle" x="112.493" y="-18.8" font-family="Times New Roman,serif" font-size="14.00"> (0)</text>
</g>
<!-- node3&#45;&gt;node11 -->
<g id="edge13" class="edge"><title>node3&#45;&gt;node11</title>
<path fill="none" stroke="black" d="M63.0317,-44.6899C74.078,-52.7422 88.4181,-62.0774 102.493,-68 145.507,-86.1009 197.553,-96.6502 236.006,-102.503"/>
<polygon fill="black" stroke="black" points="235.572,-105.976 245.973,-103.961 236.585,-99.05 235.572,-105.976"/>
<text text-anchor="middle" x="112.493" y="-78.8" font-family="Times New Roman,serif" font-size="14.00"> (1)</text>
</g>
<!-- node4 -->
<g id="node5" class="node"><title>node4</title>
<ellipse fill="none" stroke="black" cx="42.2463" cy="-192" rx="42.4939" ry="18"/>
<text text-anchor="middle" x="42.2463" y="-188.3" font-family="Times New Roman,serif" font-size="14.00">(4) Input</text>
</g>
<!-- node4&#45;&gt;node5 -->
<g id="edge1" class="edge"><title>node4&#45;&gt;node5</title>
<path fill="none" stroke="black" d="M71.7396,-204.901C92.7035,-214.393 121.42,-227.395 144.345,-237.775"/>
<polygon fill="black" stroke="black" points="142.902,-240.963 153.455,-241.9 145.789,-234.587 142.902,-240.963"/>
<text text-anchor="middle" x="112.493" y="-230.8" font-family="Times New Roman,serif" font-size="14.00"> (0)</text>
</g>
<!-- node8 -->
<g id="node9" class="node"><title>node8</title>
<ellipse fill="none" stroke="black" cx="400.073" cy="-201" rx="36.2938" ry="18"/>
<text text-anchor="middle" x="400.073" y="-197.3" font-family="Times New Roman,serif" font-size="14.00">(8) OR</text>
</g>
<!-- node4&#45;&gt;node8 -->
<g id="edge6" class="edge"><title>node4&#45;&gt;node8</title>
<path fill="none" stroke="black" d="M84.7605,-193.05C151.895,-194.748 283.786,-198.084 353.457,-199.846"/>
<polygon fill="black" stroke="black" points="353.593,-203.351 363.678,-200.105 353.77,-196.353 353.593,-203.351"/>
<text text-anchor="middle" x="183.389" y="-199.8" font-family="Times New Roman,serif" font-size="14.00"> (0)</text>
</g>
<!-- node6 -->
<g id="node7" class="node"><title>node6</title>
<ellipse fill="none" stroke="black" cx="400.073" cy="-255" rx="42.4939" ry="18"/>
<text text-anchor="middle" x="400.073" y="-251.3" font-family="Times New Roman,serif" font-size="14.00">(6) NEG</text>
</g>
<!-- node5&#45;&gt;node6 -->
<g id="edge3" class="edge"><title>node5&#45;&gt;node6</title>
<path fill="none" stroke="black" d="M226.292,-255C260.98,-255 310.412,-255 347.523,-255"/>
<polygon fill="black" stroke="black" points="347.641,-258.5 357.641,-255 347.641,-251.5 347.641,-258.5"/>
<text text-anchor="middle" x="291.731" y="-258.8" font-family="Times New Roman,serif" font-size="14.00"> (0)</text>
</g>
<!-- node5&#45;&gt;node7 -->
<g id="edge4" class="edge"><title>node5&#45;&gt;node7</title>
<path fill="none" stroke="black" d="M196.673,-272.347C207.59,-286.473 224.805,-305.841 244.285,-317 281.939,-338.571 297.295,-328.64 339.176,-340 344.416,-341.421 349.894,-342.974 355.317,-344.552"/>
<polygon fill="black" stroke="black" points="354.374,-347.923 364.956,-347.399 356.357,-341.21 354.374,-347.923"/>
<text text-anchor="middle" x="291.731" y="-343.8" font-family="Times New Roman,serif" font-size="14.00"> (0)</text>
</g>
<!-- node5&#45;&gt;node8 -->
<g id="edge7" class="edge"><title>node5&#45;&gt;node8</title>
<path fill="none" stroke="black" d="M217.506,-243.943C226.177,-241.2 235.546,-238.37 244.285,-236 281.674,-225.862 324.685,-216.302 355.865,-209.744"/>
<polygon fill="black" stroke="black" points="356.885,-213.106 365.96,-207.638 355.456,-206.254 356.885,-213.106"/>
<text text-anchor="middle" x="291.731" y="-239.8" font-family="Times New Roman,serif" font-size="14.00"> (1)</text>
</g>
<!-- node6&#45;&gt;node10 -->
<g id="edge10" class="edge"><title>node6&#45;&gt;node10</title>
<path fill="none" stroke="black" d="M442.43,-255C456.863,-255 473.227,-255 488.325,-255"/>
<polygon fill="black" stroke="black" points="488.536,-258.5 498.536,-255 488.536,-251.5 488.536,-258.5"/>
<text text-anchor="middle" x="470.969" y="-258.8" font-family="Times New Roman,serif" font-size="14.00"> (0)</text>
</g>
<!-- node16 -->
<g id="node17" class="node"><title>node16</title>
<ellipse fill="none" stroke="black" cx="1112.13" cy="-358" rx="42.7926" ry="18"/>
<text text-anchor="middle" x="1112.13" y="-354.3" font-family="Times New Roman,serif" font-size="14.00">Output 0</text>
</g>
<!-- node7&#45;&gt;node16 -->
<g id="edge22" class="edge"><title>node7&#45;&gt;node16</title>
<path fill="none" stroke="black" d="M442.998,-358C470.313,-358 506.728,-358 538.915,-358 538.915,-358 538.915,-358 985.791,-358 1009.85,-358 1036.51,-358 1059.03,-358"/>
<polygon fill="black" stroke="black" points="1059.07,-361.5 1069.07,-358 1059.07,-354.5 1059.07,-361.5"/>
</g>
<!-- node12 -->
<g id="node13" class="node"><title>node12</title>
<ellipse fill="none" stroke="black" cx="683.657" cy="-200" rx="46.5926" ry="18"/>
<text text-anchor="middle" x="683.657" y="-196.3" font-family="Times New Roman,serif" font-size="14.00">(12) AND</text>
</g>
<!-- node8&#45;&gt;node12 -->
<g id="edge15" class="edge"><title>node8&#45;&gt;node12</title>
<path fill="none" stroke="black" d="M436.736,-200.873C484.522,-200.704 569.847,-200.401 626.355,-200.2"/>
<polygon fill="black" stroke="black" points="626.568,-203.699 636.556,-200.164 626.544,-196.699 626.568,-203.699"/>
<text text-anchor="middle" x="539.915" y="-203.8" font-family="Times New Roman,serif" font-size="14.00"> (1)</text>
</g>
<!-- node15 -->
<g id="node16" class="node"><title>node15</title>
<ellipse fill="none" stroke="black" cx="984.791" cy="-92" rx="47.3916" ry="18"/>
<text text-anchor="middle" x="984.791" y="-88.3" font-family="Times New Roman,serif" font-size="14.00">(15) XOR</text>
</g>
<!-- node9&#45;&gt;node15 -->
<g id="edge21" class="edge"><title>node9&#45;&gt;node15</title>
<path fill="none" stroke="black" d="M225.946,-43C269.192,-43 338.879,-43 399.073,-43 399.073,-43 399.073,-43 834.899,-43 874.925,-43 918.106,-59.1747 947.605,-72.938"/>
<polygon fill="black" stroke="black" points="946.151,-76.1224 956.68,-77.2984 949.182,-69.8129 946.151,-76.1224"/>
<text text-anchor="middle" x="608.862" y="-46.8" font-family="Times New Roman,serif" font-size="14.00"> (1)</text>
</g>
<!-- node10&#45;&gt;node12 -->
<g id="edge14" class="edge"><title>node10&#45;&gt;node12</title>
<path fill="none" stroke="black" d="M571.322,-243.201C591.446,-235.392 618.116,-225.044 640.308,-216.433"/>
<polygon fill="black" stroke="black" points="641.773,-219.618 649.83,-212.738 639.241,-213.093 641.773,-219.618"/>
<text text-anchor="middle" x="608.862" y="-235.8" font-family="Times New Roman,serif" font-size="14.00"> (0)</text>
</g>
<!-- node13 -->
<g id="node14" class="node"><title>node13</title>
<ellipse fill="none" stroke="black" cx="833.899" cy="-152" rx="46.5926" ry="18"/>
<text text-anchor="middle" x="833.899" y="-148.3" font-family="Times New Roman,serif" font-size="14.00">(13) AND</text>
</g>
<!-- node11&#45;&gt;node13 -->
<g id="edge17" class="edge"><title>node11&#45;&gt;node13</title>
<path fill="none" stroke="black" d="M325.151,-121.785C360.262,-134.46 418.2,-152 469.969,-152 469.969,-152 469.969,-152 684.657,-152 715.009,-152 748.857,-152 776.538,-152"/>
<polygon fill="black" stroke="black" points="776.825,-155.5 786.825,-152 776.825,-148.5 776.825,-155.5"/>
<text text-anchor="middle" x="539.915" y="-155.8" font-family="Times New Roman,serif" font-size="14.00"> (1)</text>
</g>
<!-- node14 -->
<g id="node15" class="node"><title>node14</title>
<ellipse fill="none" stroke="black" cx="833.899" cy="-89" rx="47.3916" ry="18"/>
<text text-anchor="middle" x="833.899" y="-85.3" font-family="Times New Roman,serif" font-size="14.00">(14) XOR</text>
</g>
<!-- node11&#45;&gt;node14 -->
<g id="edge19" class="edge"><title>node11&#45;&gt;node14</title>
<path fill="none" stroke="black" d="M335.196,-101.496C371.006,-95.8208 423.675,-89 469.969,-89 469.969,-89 469.969,-89 684.657,-89 714.781,-89 748.348,-89 775.912,-89"/>
<polygon fill="black" stroke="black" points="776.163,-92.5001 786.163,-89 776.163,-85.5001 776.163,-92.5001"/>
<text text-anchor="middle" x="539.915" y="-92.8" font-family="Times New Roman,serif" font-size="14.00"> (1)</text>
</g>
<!-- node12&#45;&gt;node13 -->
<g id="edge16" class="edge"><title>node12&#45;&gt;node13</title>
<path fill="none" stroke="black" d="M720.165,-188.503C740.518,-181.913 766.259,-173.578 788.005,-166.537"/>
<polygon fill="black" stroke="black" points="789.246,-169.814 797.681,-163.403 787.089,-163.154 789.246,-169.814"/>
<text text-anchor="middle" x="758.453" y="-181.8" font-family="Times New Roman,serif" font-size="14.00"> (0)</text>
</g>
<!-- node12&#45;&gt;node14 -->
<g id="edge18" class="edge"><title>node12&#45;&gt;node14</title>
<path fill="none" stroke="black" d="M705.897,-184.096C731.4,-165 774.331,-132.854 803.132,-111.289"/>
<polygon fill="black" stroke="black" points="805.31,-114.03 811.217,-105.235 801.114,-108.427 805.31,-114.03"/>
<text text-anchor="middle" x="758.453" y="-154.8" font-family="Times New Roman,serif" font-size="14.00"> (0)</text>
</g>
<!-- node13&#45;&gt;node15 -->
<g id="edge20" class="edge"><title>node13&#45;&gt;node15</title>
<path fill="none" stroke="black" d="M866.84,-139.128C888.845,-130.261 918.3,-118.391 942.144,-108.783"/>
<polygon fill="black" stroke="black" points="943.679,-111.938 951.646,-104.954 941.063,-105.445 943.679,-111.938"/>
<text text-anchor="middle" x="909.345" y="-128.8" font-family="Times New Roman,serif" font-size="14.00"> (0)</text>
</g>
<!-- node17 -->
<g id="node18" class="node"><title>node17</title>
<ellipse fill="none" stroke="black" cx="1112.13" cy="-18" rx="42.7926" ry="18"/>
<text text-anchor="middle" x="1112.13" y="-14.3" font-family="Times New Roman,serif" font-size="14.00">Output 1</text>
</g>
<!-- node14&#45;&gt;node17 -->
<g id="edge23" class="edge"><title>node14&#45;&gt;node17</title>
<path fill="none" stroke="black" d="M873.599,-79.053C923.816,-66.1457 1011.33,-43.651 1064.96,-29.8668"/>
<polygon fill="black" stroke="black" points="1066.08,-33.1943 1074.89,-27.3151 1064.33,-26.4147 1066.08,-33.1943"/>
</g>
<!-- node18 -->
<g id="node19" class="node"><title>node18</title>
<ellipse fill="none" stroke="black" cx="1112.13" cy="-92" rx="42.7926" ry="18"/>
<text text-anchor="middle" x="1112.13" y="-88.3" font-family="Times New Roman,serif" font-size="14.00">Output 2</text>
</g>
<!-- node15&#45;&gt;node18 -->
<g id="edge24" class="edge"><title>node15&#45;&gt;node18</title>
<path fill="none" stroke="black" d="M1032.46,-92C1041.07,-92 1050.1,-92 1058.86,-92"/>
<polygon fill="black" stroke="black" points="1058.97,-95.5001 1068.97,-92 1058.97,-88.5001 1058.97,-95.5001"/>
</g>
</g>
</svg>
