<?xml version="1.0" encoding="UTF-8" standalone="no"?>
<!DOCTYPE svg PUBLIC "-//W3C//DTD SVG 1.1//EN"
 "http://www.w3.org/Graphics/SVG/1.1/DTD/svg11.dtd">
<!-- Generated by graphviz version 2.38.0 (20140413.2041)
 -->
<!-- Title: NeuralNetwork Pages: 1 -->
<svg width="288pt" height="163pt"
 viewBox="0.00 0.00 288.00 162.70" xmlns="http://www.w3.org/2000/svg" xmlns:xlink="http://www.w3.org/1999/xlink">
<g id="graph0" class="graph" transform="scale(0.185041 0.185041) rotate(0) translate(4 875.243)">
<title>NeuralNetwork</title>
<polygon fill="white" stroke="none" points="-4,4 -4,-875.243 1552.41,-875.243 1552.41,4 -4,4"/>
<!-- node0 -->
<g id="node1" class="node"><title>node0</title>
<ellipse fill="none" stroke="black" cx="42.2463" cy="-650.243" rx="42.4939" ry="18"/>
<text text-anchor="middle" x="42.2463" y="-646.543" font-family="Times New Roman,serif" font-size="14.00">(0) Input</text>
</g>
<!-- node7 -->
<g id="node8" class="node"><title>node7</title>
<ellipse fill="none" stroke="black" cx="187.288" cy="-815.243" rx="42.4939" ry="18"/>
<text text-anchor="middle" x="187.288" y="-811.543" font-family="Times New Roman,serif" font-size="14.00">(7) AND</text>
</g>
<!-- node0&#45;&gt;node7 -->
<g id="edge3" class="edge"><title>node0&#45;&gt;node7</title>
<path fill="none" stroke="black" d="M61.1937,-666.376C69.2369,-674.396 78.2874,-684.631 84.4925,-695.243 97.4748,-717.447 87.681,-729.216 102.493,-750.243 106.441,-755.849 134.169,-776.941 156.664,-793.598"/>
<polygon fill="black" stroke="black" points="154.844,-796.604 164.969,-799.723 158.999,-790.97 154.844,-796.604"/>
<text text-anchor="middle" x="112.493" y="-770.043" font-family="Times New Roman,serif" font-size="14.00"> (0)</text>
</g>
<!-- node9 -->
<g id="node10" class="node"><title>node9</title>
<ellipse fill="none" stroke="black" cx="187.288" cy="-266.243" rx="36.2938" ry="18"/>
<text text-anchor="middle" x="187.288" y="-262.543" font-family="Times New Roman,serif" font-size="14.00">(9) OR</text>
</g>
<!-- node0&#45;&gt;node9 -->
<g id="edge8" class="edge"><title>node0&#45;&gt;node9</title>
<path fill="none" stroke="black" d="M56.8715,-633.12C66.2414,-620.391 78.1051,-602.192 84.4925,-584.243 105.969,-523.894 74.3242,-498.775 102.493,-441.243 108.02,-429.953 116.883,-432.493 122.493,-421.243 148.128,-369.832 108.583,-341.015 140.493,-293.243 143.041,-289.427 146.328,-286.075 149.968,-283.151"/>
<polygon fill="black" stroke="black" points="152.076,-285.95 158.357,-277.417 148.126,-280.17 152.076,-285.95"/>
<text text-anchor="middle" x="112.493" y="-445.043" font-family="Times New Roman,serif" font-size="14.00"> (1)</text>
</g>
<!-- node12 -->
<g id="node13" class="node"><title>node12</title>
<ellipse fill="none" stroke="black" cx="187.288" cy="-374.243" rx="46.5926" ry="18"/>
<text text-anchor="middle" x="187.288" y="-370.543" font-family="Times New Roman,serif" font-size="14.00">(12) AND</text>
</g>
<!-- node0&#45;&gt;node12 -->
<g id="edge13" class="edge"><title>node0&#45;&gt;node12</title>
<path fill="none" stroke="black" d="M55.6915,-632.988C64.6042,-620.049 76.4108,-601.645 84.4925,-584.243 95.5042,-560.533 91.3103,-551.874 102.493,-528.243 109.506,-513.423 115.4,-512.026 122.493,-497.243 133.436,-474.435 129.401,-465.981 140.493,-443.243 147.868,-428.125 158.067,-412.413 166.969,-399.808"/>
<polygon fill="black" stroke="black" points="169.861,-401.781 172.874,-391.623 164.184,-397.685 169.861,-401.781"/>
<text text-anchor="middle" x="112.493" y="-532.043" font-family="Times New Roman,serif" font-size="14.00"> (0)</text>
</g>
<!-- node23 -->
<g id="node24" class="node"><title>node23</title>
<ellipse fill="none" stroke="black" cx="187.288" cy="-655.243" rx="46.5926" ry="18"/>
<text text-anchor="middle" x="187.288" y="-651.543" font-family="Times New Roman,serif" font-size="14.00">(23) AND</text>
</g>
<!-- node0&#45;&gt;node23 -->
<g id="edge36" class="edge"><title>node0&#45;&gt;node23</title>
<path fill="none" stroke="black" d="M84.62,-651.69C98.8325,-652.186 114.989,-652.751 130.173,-653.282"/>
<polygon fill="black" stroke="black" points="130.378,-656.791 140.494,-653.643 130.623,-649.795 130.378,-656.791"/>
<text text-anchor="middle" x="112.493" y="-657.043" font-family="Times New Roman,serif" font-size="14.00"> (1)</text>
</g>
<!-- node1 -->
<g id="node2" class="node"><title>node1</title>
<ellipse fill="none" stroke="black" cx="42.2463" cy="-253.243" rx="42.4939" ry="18"/>
<text text-anchor="middle" x="42.2463" y="-249.543" font-family="Times New Roman,serif" font-size="14.00">(1) Input</text>
</g>
<!-- node8 -->
<g id="node9" class="node"><title>node8</title>
<ellipse fill="none" stroke="black" cx="187.288" cy="-539.243" rx="42.4939" ry="18"/>
<text text-anchor="middle" x="187.288" y="-535.543" font-family="Times New Roman,serif" font-size="14.00">(8) AND</text>
</g>
<!-- node1&#45;&gt;node8 -->
<g id="edge5" class="edge"><title>node1&#45;&gt;node8</title>
<path fill="none" stroke="black" d="M62.9591,-268.965C81.7226,-285.165 109.033,-312.228 122.493,-342.243 150.87,-405.524 108.954,-435.478 140.493,-497.243 144.287,-504.675 149.969,-511.449 156.051,-517.286"/>
<polygon fill="black" stroke="black" points="154.039,-520.177 163.858,-524.156 158.663,-514.922 154.039,-520.177"/>
<text text-anchor="middle" x="112.493" y="-346.043" font-family="Times New Roman,serif" font-size="14.00"> (0)</text>
</g>
<!-- node10 -->
<g id="node11" class="node"><title>node10</title>
<ellipse fill="none" stroke="black" cx="187.288" cy="-470.243" rx="46.5926" ry="18"/>
<text text-anchor="middle" x="187.288" y="-466.543" font-family="Times New Roman,serif" font-size="14.00">(10) AND</text>
</g>
<!-- node1&#45;&gt;node10 -->
<g id="edge10" class="edge"><title>node1&#45;&gt;node10</title>
<path fill="none" stroke="black" d="M84.6244,-253.503C98.4904,-255.728 112.858,-260.745 122.493,-271.243 161.931,-314.218 119.848,-346.69 140.493,-401.243 146.405,-416.867 156.384,-432.522 165.52,-444.961"/>
<polygon fill="black" stroke="black" points="162.81,-447.18 171.65,-453.02 168.381,-442.942 162.81,-447.18"/>
<text text-anchor="middle" x="112.493" y="-275.043" font-family="Times New Roman,serif" font-size="14.00"> (1)</text>
</g>
<!-- node11 -->
<g id="node12" class="node"><title>node11</title>
<ellipse fill="none" stroke="black" cx="187.288" cy="-114.243" rx="46.5926" ry="18"/>
<text text-anchor="middle" x="187.288" y="-110.543" font-family="Times New Roman,serif" font-size="14.00">(11) AND</text>
</g>
<!-- node1&#45;&gt;node11 -->
<g id="edge12" class="edge"><title>node1&#45;&gt;node11</title>
<path fill="none" stroke="black" d="M54.1155,-235.736C62.9848,-221.01 75.4786,-199.219 84.4925,-179.243 94.3792,-157.334 84.0851,-143.701 102.493,-128.243 110.371,-121.627 120.177,-117.577 130.275,-115.186"/>
<polygon fill="black" stroke="black" points="131.212,-118.572 140.41,-113.314 129.94,-111.689 131.212,-118.572"/>
<text text-anchor="middle" x="112.493" y="-132.043" font-family="Times New Roman,serif" font-size="14.00"> (1)</text>
</g>
<!-- node2 -->
<g id="node3" class="node"><title>node2</title>
<ellipse fill="none" stroke="black" cx="42.2463" cy="-394.243" rx="42.4939" ry="18"/>
<text text-anchor="middle" x="42.2463" y="-390.543" font-family="Times New Roman,serif" font-size="14.00">(2) Input</text>
</g>
<!-- node6 -->
<g id="node7" class="node"><title>node6</title>
<ellipse fill="none" stroke="black" cx="187.288" cy="-752.243" rx="42.4939" ry="18"/>
<text text-anchor="middle" x="187.288" y="-748.543" font-family="Times New Roman,serif" font-size="14.00">(6) AND</text>
</g>
<!-- node2&#45;&gt;node6 -->
<g id="edge1" class="edge"><title>node2&#45;&gt;node6</title>
<path fill="none" stroke="black" d="M49.6941,-412.031C58.7814,-437.769 75.274,-487.051 84.4925,-530.243 97.7711,-592.458 73.8333,-615.448 102.493,-672.243 114.515,-696.068 136.584,-716.686 155.056,-731.022"/>
<polygon fill="black" stroke="black" points="153.14,-733.96 163.242,-737.155 157.338,-728.358 153.14,-733.96"/>
<text text-anchor="middle" x="112.493" y="-705.043" font-family="Times New Roman,serif" font-size="14.00"> (0)</text>
</g>
<!-- node16 -->
<g id="node17" class="node"><title>node16</title>
<ellipse fill="none" stroke="black" cx="187.288" cy="-320.243" rx="46.5926" ry="18"/>
<text text-anchor="middle" x="187.288" y="-316.543" font-family="Times New Roman,serif" font-size="14.00">(16) AND</text>
</g>
<!-- node2&#45;&gt;node16 -->
<g id="edge22" class="edge"><title>node2&#45;&gt;node16</title>
<path fill="none" stroke="black" d="M47.7152,-376.264C54.7813,-352.164 71.0775,-310.326 102.493,-292.243 110.196,-287.809 113.793,-290.418 122.493,-292.243 131.794,-294.195 141.397,-297.586 150.238,-301.35"/>
<polygon fill="black" stroke="black" points="148.93,-304.599 159.484,-305.53 151.813,-298.221 148.93,-304.599"/>
<text text-anchor="middle" x="112.493" y="-296.043" font-family="Times New Roman,serif" font-size="14.00"> (1)</text>
</g>
<!-- node18 -->
<g id="node19" class="node"><title>node18</title>
<ellipse fill="none" stroke="black" cx="187.288" cy="-593.243" rx="46.5926" ry="18"/>
<text text-anchor="middle" x="187.288" y="-589.543" font-family="Times New Roman,serif" font-size="14.00">(18) AND</text>
</g>
<!-- node2&#45;&gt;node18 -->
<g id="edge26" class="edge"><title>node2&#45;&gt;node18</title>
<path fill="none" stroke="black" d="M58.6419,-411.118C81.3877,-436.081 121.423,-480.149 122.493,-482.243 139.856,-516.248 118.166,-535.271 140.493,-566.243 142.435,-568.939 144.738,-571.41 147.259,-573.667"/>
<polygon fill="black" stroke="black" points="145.263,-576.546 155.345,-579.804 149.496,-570.97 145.263,-576.546"/>
<text text-anchor="middle" x="112.493" y="-486.043" font-family="Times New Roman,serif" font-size="14.00"> (1)</text>
</g>
<!-- node25 -->
<g id="node26" class="node"><title>node25</title>
<ellipse fill="none" stroke="black" cx="790.205" cy="-210.243" rx="47.3916" ry="18"/>
<text text-anchor="middle" x="790.205" y="-206.543" font-family="Times New Roman,serif" font-size="14.00">(25) XOR</text>
</g>
<!-- node2&#45;&gt;node25 -->
<g id="edge40" class="edge"><title>node2&#45;&gt;node25</title>
<path fill="none" stroke="black" d="M48.9852,-376.377C59.9889,-343.038 84.5532,-273.104 102.493,-255.243 203.015,-155.161 270.126,-177.243 411.976,-177.243 411.976,-177.243 411.976,-177.243 640.313,-177.243 676.076,-177.243 715.551,-186.43 744.864,-195.11"/>
<polygon fill="black" stroke="black" points="744.199,-198.567 754.786,-198.143 746.245,-191.872 744.199,-198.567"/>
<text text-anchor="middle" x="412.976" y="-181.043" font-family="Times New Roman,serif" font-size="14.00"> (1)</text>
</g>
<!-- node3 -->
<g id="node4" class="node"><title>node3</title>
<ellipse fill="none" stroke="black" cx="42.2463" cy="-722.243" rx="42.4939" ry="18"/>
<text text-anchor="middle" x="42.2463" y="-718.543" font-family="Times New Roman,serif" font-size="14.00">(3) Input</text>
</g>
<!-- node3&#45;&gt;node6 -->
<g id="edge2" class="edge"><title>node3&#45;&gt;node6</title>
<path fill="none" stroke="black" d="M53.0694,-739.801C63.1339,-755.802 80.4154,-778.394 102.493,-788.243 121.948,-796.923 144.099,-786.535 160.739,-774.724"/>
<polygon fill="black" stroke="black" points="163.06,-777.356 168.895,-768.512 158.819,-771.787 163.06,-777.356"/>
<text text-anchor="middle" x="112.493" y="-795.043" font-family="Times New Roman,serif" font-size="14.00"> (1)</text>
</g>
<!-- node3&#45;&gt;node7 -->
<g id="edge4" class="edge"><title>node3&#45;&gt;node7</title>
<path fill="none" stroke="black" d="M49.6076,-740.107C58.0991,-761.004 75.3044,-794.715 102.493,-810.243 112.574,-816.001 124.496,-818.66 136.136,-819.59"/>
<polygon fill="black" stroke="black" points="136.107,-823.092 146.24,-819.998 136.389,-816.098 136.107,-823.092"/>
<text text-anchor="middle" x="112.493" y="-821.043" font-family="Times New Roman,serif" font-size="14.00"> (1)</text>
</g>
<!-- node3&#45;&gt;node10 -->
<g id="edge9" class="edge"><title>node3&#45;&gt;node10</title>
<path fill="none" stroke="black" d="M60.8166,-705.88C68.7773,-697.809 77.8672,-687.599 84.4925,-677.243 95.6581,-659.792 93.5557,-652.935 102.493,-634.243 110.556,-617.379 116.046,-614.79 122.493,-597.243 135.81,-560.997 121.351,-545.781 140.493,-512.243 144.553,-505.129 150.235,-498.539 156.218,-492.789"/>
<polygon fill="black" stroke="black" points="158.722,-495.246 163.858,-485.979 154.064,-490.02 158.722,-495.246"/>
<text text-anchor="middle" x="112.493" y="-638.043" font-family="Times New Roman,serif" font-size="14.00"> (0)</text>
</g>
<!-- node24 -->
<g id="node25" class="node"><title>node24</title>
<ellipse fill="none" stroke="black" cx="639.313" cy="-436.243" rx="46.5926" ry="18"/>
<text text-anchor="middle" x="639.313" y="-432.543" font-family="Times New Roman,serif" font-size="14.00">(24) AND</text>
</g>
<!-- node3&#45;&gt;node24 -->
<g id="edge38" class="edge"><title>node3&#45;&gt;node24</title>
<path fill="none" stroke="black" d="M82.1436,-716.209C121.078,-709.677 182.452,-698.037 234.084,-682.243 320.778,-655.725 344.583,-650.78 422.976,-605.243 497.403,-562.01 574.303,-495.359 612.922,-460.067"/>
<polygon fill="black" stroke="black" points="615.579,-462.378 620.568,-453.031 610.839,-457.227 615.579,-462.378"/>
<text text-anchor="middle" x="337.53" y="-669.043" font-family="Times New Roman,serif" font-size="14.00"> (1)</text>
</g>
<!-- node4 -->
<g id="node5" class="node"><title>node4</title>
<ellipse fill="none" stroke="black" cx="42.2463" cy="-557.243" rx="42.4939" ry="18"/>
<text text-anchor="middle" x="42.2463" y="-553.543" font-family="Times New Roman,serif" font-size="14.00">(4) Input</text>
</g>
<!-- node4&#45;&gt;node8 -->
<g id="edge6" class="edge"><title>node4&#45;&gt;node8</title>
<path fill="none" stroke="black" d="M83.0915,-552.229C99.6763,-550.142 119.109,-547.697 136.611,-545.495"/>
<polygon fill="black" stroke="black" points="137.172,-548.952 146.657,-544.23 136.298,-542.006 137.172,-548.952"/>
<text text-anchor="middle" x="112.493" y="-554.043" font-family="Times New Roman,serif" font-size="14.00"> (1)</text>
</g>
<!-- node4&#45;&gt;node12 -->
<g id="edge14" class="edge"><title>node4&#45;&gt;node12</title>
<path fill="none" stroke="black" d="M48.73,-539.266C63.0696,-492.32 100.7,-369.56 102.493,-368.243 113.843,-359.906 128.553,-358.712 142.474,-360.459"/>
<polygon fill="black" stroke="black" points="141.958,-363.922 152.411,-362.19 143.16,-357.025 141.958,-363.922"/>
<text text-anchor="middle" x="112.493" y="-372.043" font-family="Times New Roman,serif" font-size="14.00"> (1)</text>
</g>
<!-- node4&#45;&gt;node18 -->
<g id="edge25" class="edge"><title>node4&#45;&gt;node18</title>
<path fill="none" stroke="black" d="M78.9728,-566.235C96.801,-570.722 118.627,-576.215 137.93,-581.073"/>
<polygon fill="black" stroke="black" points="137.208,-584.5 147.759,-583.547 138.916,-577.712 137.208,-584.5"/>
<text text-anchor="middle" x="112.493" y="-582.043" font-family="Times New Roman,serif" font-size="14.00"> (0)</text>
</g>
<!-- node5 -->
<g id="node6" class="node"><title>node5</title>
<ellipse fill="none" stroke="black" cx="42.2463" cy="-152.243" rx="42.4939" ry="18"/>
<text text-anchor="middle" x="42.2463" y="-148.543" font-family="Times New Roman,serif" font-size="14.00">(5) Input</text>
</g>
<!-- node5&#45;&gt;node9 -->
<g id="edge7" class="edge"><title>node5&#45;&gt;node9</title>
<path fill="none" stroke="black" d="M81.2637,-145.149C95.0889,-144.449 110.299,-146.021 122.493,-153.243 153.603,-171.67 170.78,-211.406 179.266,-238.49"/>
<polygon fill="black" stroke="black" points="175.934,-239.567 182.104,-248.18 182.652,-237.6 175.934,-239.567"/>
<text text-anchor="middle" x="112.493" y="-157.043" font-family="Times New Roman,serif" font-size="14.00"> (0)</text>
</g>
<!-- node5&#45;&gt;node11 -->
<g id="edge11" class="edge"><title>node5&#45;&gt;node11</title>
<path fill="none" stroke="black" d="M51.3848,-134.409C60.7878,-116.216 78.151,-89.0349 102.493,-77.2434 121.871,-67.8561 144.191,-78.7489 160.921,-91.0954"/>
<polygon fill="black" stroke="black" points="159.103,-94.1199 169.115,-97.5847 163.449,-88.6324 159.103,-94.1199"/>
<text text-anchor="middle" x="112.493" y="-81.0434" font-family="Times New Roman,serif" font-size="14.00"> (0)</text>
</g>
<!-- node5&#45;&gt;node16 -->
<g id="edge21" class="edge"><title>node5&#45;&gt;node16</title>
<path fill="none" stroke="black" d="M68.8284,-166.6C86.5422,-177.854 109.236,-195.124 122.493,-216.243 141.177,-246.01 119.678,-264.926 140.493,-293.243 142.46,-295.921 144.78,-298.379 147.315,-300.627"/>
<polygon fill="black" stroke="black" points="145.332,-303.515 155.422,-306.748 149.55,-297.929 145.332,-303.515"/>
<text text-anchor="middle" x="112.493" y="-220.043" font-family="Times New Roman,serif" font-size="14.00"> (0)</text>
</g>
<!-- node5&#45;&gt;node23 -->
<g id="edge35" class="edge"><title>node5&#45;&gt;node23</title>
<path fill="none" stroke="black" d="M55.5149,-169.578C65.0808,-184.027 77.8246,-205.522 84.4925,-226.243 106.007,-293.102 71.1488,-320.39 102.493,-383.243 107.964,-394.215 117.196,-391.186 122.493,-402.243 164.491,-489.922 93.8573,-534.94 140.493,-620.243 143.322,-625.418 147.275,-630.065 151.686,-634.154"/>
<polygon fill="black" stroke="black" points="149.471,-636.864 159.422,-640.501 153.911,-631.452 149.471,-636.864"/>
<text text-anchor="middle" x="112.493" y="-406.043" font-family="Times New Roman,serif" font-size="14.00"> (0)</text>
</g>
<!-- node33 -->
<g id="node34" class="node"><title>node33</title>
<ellipse fill="none" stroke="black" cx="790.205" cy="-147.243" rx="47.3916" ry="18"/>
<text text-anchor="middle" x="790.205" y="-143.543" font-family="Times New Roman,serif" font-size="14.00">(33) XOR</text>
</g>
<!-- node5&#45;&gt;node33 -->
<g id="edge55" class="edge"><title>node5&#45;&gt;node33</title>
<path fill="none" stroke="black" d="M51.6736,-134.645C61.4302,-116.066 79.1915,-87.1759 102.493,-70.2434 134.146,-47.2414 147.16,-43.2434 186.288,-43.2434 186.288,-43.2434 186.288,-43.2434 640.313,-43.2434 695.018,-43.2434 743.96,-91.0109 769.824,-121.8"/>
<polygon fill="black" stroke="black" points="767.158,-124.068 776.193,-129.601 772.58,-119.641 767.158,-124.068"/>
<text text-anchor="middle" x="412.976" y="-47.0434" font-family="Times New Roman,serif" font-size="14.00"> (0)</text>
</g>
<!-- node14 -->
<g id="node15" class="node"><title>node14</title>
<ellipse fill="none" stroke="black" cx="488.422" cy="-738.243" rx="47.3916" ry="18"/>
<text text-anchor="middle" x="488.422" y="-734.543" font-family="Times New Roman,serif" font-size="14.00">(14) XOR</text>
</g>
<!-- node6&#45;&gt;node14 -->
<g id="edge17" class="edge"><title>node6&#45;&gt;node14</title>
<path fill="none" stroke="black" d="M229.567,-750.311C281.881,-747.863 372.289,-743.632 430.96,-740.886"/>
<polygon fill="black" stroke="black" points="431.345,-744.372 441.17,-740.408 431.017,-737.379 431.345,-744.372"/>
<text text-anchor="middle" x="337.53" y="-751.043" font-family="Times New Roman,serif" font-size="14.00"> (0)</text>
</g>
<!-- node13 -->
<g id="node14" class="node"><title>node13</title>
<ellipse fill="none" stroke="black" cx="337.53" cy="-544.243" rx="40.8928" ry="18"/>
<text text-anchor="middle" x="337.53" y="-540.543" font-family="Times New Roman,serif" font-size="14.00">(13) OR</text>
</g>
<!-- node7&#45;&gt;node13 -->
<g id="edge16" class="edge"><title>node7&#45;&gt;node13</title>
<path fill="none" stroke="black" d="M211.692,-800.346C219.56,-794.49 227.901,-787.246 234.084,-779.243 260.671,-744.834 306.359,-626.035 326.497,-571.725"/>
<polygon fill="black" stroke="black" points="329.882,-572.661 330.061,-562.067 323.315,-570.237 329.882,-572.661"/>
<text text-anchor="middle" x="262.084" y="-751.043" font-family="Times New Roman,serif" font-size="14.00"> (1)</text>
</g>
<!-- node27 -->
<g id="node28" class="node"><title>node27</title>
<ellipse fill="none" stroke="black" cx="639.313" cy="-738.243" rx="47.3916" ry="18"/>
<text text-anchor="middle" x="639.313" y="-734.543" font-family="Times New Roman,serif" font-size="14.00">(27) XOR</text>
</g>
<!-- node7&#45;&gt;node27 -->
<g id="edge43" class="edge"><title>node7&#45;&gt;node27</title>
<path fill="none" stroke="black" d="M228.038,-810.375C292.748,-802.259 424.809,-784.901 535.867,-765.243 552.862,-762.235 557.132,-761.465 573.867,-757.243 579.88,-755.727 586.173,-754.021 592.373,-752.27"/>
<polygon fill="black" stroke="black" points="593.343,-755.632 601.983,-749.501 591.405,-748.906 593.343,-755.632"/>
<text text-anchor="middle" x="412.976" y="-790.043" font-family="Times New Roman,serif" font-size="14.00"> (0)</text>
</g>
<!-- node36 -->
<g id="node37" class="node"><title>node36</title>
<ellipse fill="none" stroke="black" cx="1505.51" cy="-853.243" rx="42.7926" ry="18"/>
<text text-anchor="middle" x="1505.51" y="-849.543" font-family="Times New Roman,serif" font-size="14.00">Output 0</text>
</g>
<!-- node7&#45;&gt;node36 -->
<g id="edge61" class="edge"><title>node7&#45;&gt;node36</title>
<path fill="none" stroke="black" d="M218.093,-827.581C247.627,-838.677 294.419,-853.243 336.53,-853.243 336.53,-853.243 336.53,-853.243 1379.82,-853.243 1403.56,-853.243 1429.83,-853.243 1452.12,-853.243"/>
<polygon fill="black" stroke="black" points="1452.38,-856.743 1462.38,-853.243 1452.38,-849.743 1452.38,-856.743"/>
</g>
<!-- node8&#45;&gt;node13 -->
<g id="edge15" class="edge"><title>node8&#45;&gt;node13</title>
<path fill="none" stroke="black" d="M229.582,-540.636C247.219,-541.231 267.965,-541.931 286.467,-542.555"/>
<polygon fill="black" stroke="black" points="286.368,-546.053 296.481,-542.893 286.605,-539.057 286.368,-546.053"/>
<text text-anchor="middle" x="262.084" y="-546.043" font-family="Times New Roman,serif" font-size="14.00"> (0)</text>
</g>
<!-- node26 -->
<g id="node27" class="node"><title>node26</title>
<ellipse fill="none" stroke="black" cx="934.597" cy="-237.243" rx="40.8928" ry="18"/>
<text text-anchor="middle" x="934.597" y="-233.543" font-family="Times New Roman,serif" font-size="14.00">(26) OR</text>
</g>
<!-- node9&#45;&gt;node26 -->
<g id="edge42" class="edge"><title>node9&#45;&gt;node26</title>
<path fill="none" stroke="black" d="M223.933,-266.243C253.961,-266.243 298.054,-266.243 336.53,-266.243 336.53,-266.243 336.53,-266.243 791.205,-266.243 825.358,-266.243 863.208,-258.134 891.295,-250.492"/>
<polygon fill="black" stroke="black" points="892.497,-253.789 901.176,-247.713 890.602,-247.051 892.497,-253.789"/>
<text text-anchor="middle" x="563.867" y="-270.043" font-family="Times New Roman,serif" font-size="14.00"> (1)</text>
</g>
<!-- node15 -->
<g id="node16" class="node"><title>node15</title>
<ellipse fill="none" stroke="black" cx="337.53" cy="-470.243" rx="47.3916" ry="18"/>
<text text-anchor="middle" x="337.53" y="-466.543" font-family="Times New Roman,serif" font-size="14.00">(15) XOR</text>
</g>
<!-- node10&#45;&gt;node15 -->
<g id="edge19" class="edge"><title>node10&#45;&gt;node15</title>
<path fill="none" stroke="black" d="M234.38,-470.243C248.744,-470.243 264.755,-470.243 279.761,-470.243"/>
<polygon fill="black" stroke="black" points="279.956,-473.743 289.956,-470.243 279.956,-466.743 279.956,-473.743"/>
<text text-anchor="middle" x="262.084" y="-474.043" font-family="Times New Roman,serif" font-size="14.00"> (0)</text>
</g>
<!-- node17 -->
<g id="node18" class="node"><title>node17</title>
<ellipse fill="none" stroke="black" cx="337.53" cy="-114.243" rx="46.5926" ry="18"/>
<text text-anchor="middle" x="337.53" y="-110.543" font-family="Times New Roman,serif" font-size="14.00">(17) AND</text>
</g>
<!-- node11&#45;&gt;node17 -->
<g id="edge23" class="edge"><title>node11&#45;&gt;node17</title>
<path fill="none" stroke="black" d="M234.38,-114.243C248.951,-114.243 265.217,-114.243 280.409,-114.243"/>
<polygon fill="black" stroke="black" points="280.721,-117.743 290.721,-114.243 280.721,-110.743 280.721,-117.743"/>
<text text-anchor="middle" x="262.084" y="-118.043" font-family="Times New Roman,serif" font-size="14.00"> (0)</text>
</g>
<!-- node19 -->
<g id="node20" class="node"><title>node19</title>
<ellipse fill="none" stroke="black" cx="488.422" cy="-320.243" rx="40.8928" ry="18"/>
<text text-anchor="middle" x="488.422" y="-316.543" font-family="Times New Roman,serif" font-size="14.00">(19) OR</text>
</g>
<!-- node11&#45;&gt;node19 -->
<g id="edge28" class="edge"><title>node11&#45;&gt;node19</title>
<path fill="none" stroke="black" d="M211.264,-130.066C264.726,-166.883 397.452,-258.286 457.303,-299.502"/>
<polygon fill="black" stroke="black" points="455.365,-302.417 465.586,-305.206 459.336,-296.652 455.365,-302.417"/>
<text text-anchor="middle" x="337.53" y="-252.043" font-family="Times New Roman,serif" font-size="14.00"> (1)</text>
</g>
<!-- node12&#45;&gt;node15 -->
<g id="edge20" class="edge"><title>node12&#45;&gt;node15</title>
<path fill="none" stroke="black" d="M212.106,-389.667C237.068,-405.833 276.442,-431.331 304.2,-449.307"/>
<polygon fill="black" stroke="black" points="302.475,-452.36 312.772,-454.858 306.28,-446.484 302.475,-452.36"/>
<text text-anchor="middle" x="262.084" y="-432.043" font-family="Times New Roman,serif" font-size="14.00"> (1)</text>
</g>
<!-- node12&#45;&gt;node17 -->
<g id="edge24" class="edge"><title>node12&#45;&gt;node17</title>
<path fill="none" stroke="black" d="M218.128,-360.614C223.985,-356.913 229.673,-352.458 234.084,-347.243 278.971,-294.185 261.219,-264.464 290.084,-201.243 299.564,-180.48 311.766,-157.749 321.284,-140.73"/>
<polygon fill="black" stroke="black" points="324.394,-142.34 326.262,-131.912 318.298,-138.9 324.394,-142.34"/>
<text text-anchor="middle" x="262.084" y="-325.043" font-family="Times New Roman,serif" font-size="14.00"> (1)</text>
</g>
<!-- node21 -->
<g id="node22" class="node"><title>node21</title>
<ellipse fill="none" stroke="black" cx="639.313" cy="-373.243" rx="47.3916" ry="18"/>
<text text-anchor="middle" x="639.313" y="-369.543" font-family="Times New Roman,serif" font-size="14.00">(21) XOR</text>
</g>
<!-- node12&#45;&gt;node21 -->
<g id="edge32" class="edge"><title>node12&#45;&gt;node21</title>
<path fill="none" stroke="black" d="M234.334,-374.141C317.272,-373.957 491.498,-373.57 581.624,-373.369"/>
<polygon fill="black" stroke="black" points="581.667,-376.869 591.659,-373.347 581.651,-369.869 581.667,-376.869"/>
<text text-anchor="middle" x="412.976" y="-378.043" font-family="Times New Roman,serif" font-size="14.00"> (1)</text>
</g>
<!-- node13&#45;&gt;node14 -->
<g id="edge18" class="edge"><title>node13&#45;&gt;node14</title>
<path fill="none" stroke="black" d="M348.786,-561.742C366.088,-590.646 402.928,-649.601 440.976,-694.243 446.879,-701.17 453.762,-708.17 460.392,-714.487"/>
<polygon fill="black" stroke="black" points="458.277,-717.3 467.985,-721.544 463.043,-712.172 458.277,-717.3"/>
<text text-anchor="middle" x="412.976" y="-675.043" font-family="Times New Roman,serif" font-size="14.00"> (1)</text>
</g>
<!-- node20 -->
<g id="node21" class="node"><title>node20</title>
<ellipse fill="none" stroke="black" cx="488.422" cy="-432.243" rx="46.5926" ry="18"/>
<text text-anchor="middle" x="488.422" y="-428.543" font-family="Times New Roman,serif" font-size="14.00">(20) AND</text>
</g>
<!-- node13&#45;&gt;node20 -->
<g id="edge30" class="edge"><title>node13&#45;&gt;node20</title>
<path fill="none" stroke="black" d="M359.233,-528.67C384.832,-509.414 428.586,-476.501 457.751,-454.562"/>
<polygon fill="black" stroke="black" points="460.043,-457.218 465.93,-448.41 455.835,-451.624 460.043,-457.218"/>
<text text-anchor="middle" x="412.976" y="-499.043" font-family="Times New Roman,serif" font-size="14.00"> (1)</text>
</g>
<!-- node14&#45;&gt;node27 -->
<g id="edge44" class="edge"><title>node14&#45;&gt;node27</title>
<path fill="none" stroke="black" d="M536.123,-738.243C550.536,-738.243 566.568,-738.243 581.58,-738.243"/>
<polygon fill="black" stroke="black" points="581.777,-741.743 591.777,-738.243 581.777,-734.743 581.777,-741.743"/>
<text text-anchor="middle" x="563.867" y="-742.043" font-family="Times New Roman,serif" font-size="14.00"> (1)</text>
</g>
<!-- node15&#45;&gt;node19 -->
<g id="edge27" class="edge"><title>node15&#45;&gt;node19</title>
<path fill="none" stroke="black" d="M363.503,-454.737C370.715,-449.816 378.406,-444.118 384.976,-438.243 417.319,-409.325 449.231,-370.488 468.63,-345.41"/>
<polygon fill="black" stroke="black" points="471.411,-347.535 474.711,-337.467 465.853,-343.279 471.411,-347.535"/>
<text text-anchor="middle" x="412.976" y="-425.043" font-family="Times New Roman,serif" font-size="14.00"> (0)</text>
</g>
<!-- node37 -->
<g id="node38" class="node"><title>node37</title>
<ellipse fill="none" stroke="black" cx="1505.51" cy="-520.243" rx="42.7926" ry="18"/>
<text text-anchor="middle" x="1505.51" y="-516.543" font-family="Times New Roman,serif" font-size="14.00">Output 1</text>
</g>
<!-- node15&#45;&gt;node37 -->
<g id="edge62" class="edge"><title>node15&#45;&gt;node37</title>
<path fill="none" stroke="black" d="M372.215,-482.603C415.654,-497.409 493.835,-520.243 562.867,-520.243 562.867,-520.243 562.867,-520.243 1379.82,-520.243 1403.56,-520.243 1429.83,-520.243 1452.12,-520.243"/>
<polygon fill="black" stroke="black" points="1452.38,-523.743 1462.38,-520.243 1452.38,-516.743 1452.38,-523.743"/>
</g>
<!-- node16&#45;&gt;node20 -->
<g id="edge29" class="edge"><title>node16&#45;&gt;node20</title>
<path fill="none" stroke="black" d="M221.444,-332.657C275.911,-353.051 384.282,-393.626 444.522,-416.181"/>
<polygon fill="black" stroke="black" points="443.525,-419.545 454.118,-419.774 445.98,-412.99 443.525,-419.545"/>
<text text-anchor="middle" x="337.53" y="-397.043" font-family="Times New Roman,serif" font-size="14.00"> (0)</text>
</g>
<!-- node28 -->
<g id="node29" class="node"><title>node28</title>
<ellipse fill="none" stroke="black" cx="934.597" cy="-104.243" rx="40.8928" ry="18"/>
<text text-anchor="middle" x="934.597" y="-100.543" font-family="Times New Roman,serif" font-size="14.00">(28) OR</text>
</g>
<!-- node17&#45;&gt;node28 -->
<g id="edge46" class="edge"><title>node17&#45;&gt;node28</title>
<path fill="none" stroke="black" d="M346.158,-96.2323C356.093,-75.0021 375.495,-40.2167 402.976,-21.2434 434.802,0.730087 448.747,-0.243362 487.422,-0.243362 487.422,-0.243362 487.422,-0.243362 791.205,-0.243362 844.37,-0.243362 890.934,-48.1077 915.385,-78.8936"/>
<polygon fill="black" stroke="black" points="912.807,-81.2828 921.682,-87.0699 918.353,-77.0116 912.807,-81.2828"/>
<text text-anchor="middle" x="639.313" y="-4.04336" font-family="Times New Roman,serif" font-size="14.00"> (1)</text>
</g>
<!-- node31 -->
<g id="node32" class="node"><title>node31</title>
<ellipse fill="none" stroke="black" cx="1228.58" cy="-277.243" rx="47.3916" ry="18"/>
<text text-anchor="middle" x="1228.58" y="-273.543" font-family="Times New Roman,serif" font-size="14.00">(31) XOR</text>
</g>
<!-- node18&#45;&gt;node31 -->
<g id="edge52" class="edge"><title>node18&#45;&gt;node31</title>
<path fill="none" stroke="black" d="M233.345,-597.018C281.633,-599.511 359.857,-599.026 422.976,-577.243 494.019,-552.725 487.712,-482.243 562.867,-482.243 562.867,-482.243 562.867,-482.243 1079.34,-482.243 1165.58,-482.243 1206.73,-361.652 1221.23,-305.45"/>
<polygon fill="black" stroke="black" points="1224.7,-305.984 1223.71,-295.436 1217.91,-304.303 1224.7,-305.984"/>
<text text-anchor="middle" x="714.759" y="-486.043" font-family="Times New Roman,serif" font-size="14.00"> (1)</text>
</g>
<!-- node19&#45;&gt;node21 -->
<g id="edge31" class="edge"><title>node19&#45;&gt;node21</title>
<path fill="none" stroke="black" d="M524.298,-328.927C539.663,-333.067 557.831,-338.392 573.867,-344.243 582.493,-347.391 591.583,-351.176 600.128,-354.958"/>
<polygon fill="black" stroke="black" points="598.937,-358.26 609.491,-359.191 601.821,-351.882 598.937,-358.26"/>
<text text-anchor="middle" x="563.867" y="-348.043" font-family="Times New Roman,serif" font-size="14.00"> (0)</text>
</g>
<!-- node22 -->
<g id="node23" class="node"><title>node22</title>
<ellipse fill="none" stroke="black" cx="639.313" cy="-312.243" rx="46.5926" ry="18"/>
<text text-anchor="middle" x="639.313" y="-308.543" font-family="Times New Roman,serif" font-size="14.00">(22) AND</text>
</g>
<!-- node19&#45;&gt;node22 -->
<g id="edge34" class="edge"><title>node19&#45;&gt;node22</title>
<path fill="none" stroke="black" d="M523.983,-311.312C533.592,-309.219 544.077,-307.295 553.867,-306.243 563.841,-305.173 574.499,-305.099 584.767,-305.567"/>
<polygon fill="black" stroke="black" points="584.667,-309.068 594.866,-306.199 585.104,-302.082 584.667,-309.068"/>
<text text-anchor="middle" x="563.867" y="-310.043" font-family="Times New Roman,serif" font-size="14.00"> (1)</text>
</g>
<!-- node20&#45;&gt;node22 -->
<g id="edge33" class="edge"><title>node20&#45;&gt;node22</title>
<path fill="none" stroke="black" d="M509.894,-416.192C527.209,-402.457 552.535,-381.989 573.867,-363.243 582.133,-355.98 583.411,-353.285 591.867,-346.243 596.806,-342.131 602.195,-337.939 607.495,-333.967"/>
<polygon fill="black" stroke="black" points="609.694,-336.694 615.676,-327.949 605.546,-331.056 609.694,-336.694"/>
<text text-anchor="middle" x="563.867" y="-383.043" font-family="Times New Roman,serif" font-size="14.00"> (0)</text>
</g>
<!-- node20&#45;&gt;node24 -->
<g id="edge37" class="edge"><title>node20&#45;&gt;node24</title>
<path fill="none" stroke="black" d="M535.309,-433.476C550.238,-433.877 566.974,-434.327 582.544,-434.745"/>
<polygon fill="black" stroke="black" points="582.487,-438.245 592.577,-435.015 582.675,-431.247 582.487,-438.245"/>
<text text-anchor="middle" x="563.867" y="-439.043" font-family="Times New Roman,serif" font-size="14.00"> (0)</text>
</g>
<!-- node29 -->
<g id="node30" class="node"><title>node29</title>
<ellipse fill="none" stroke="black" cx="790.205" cy="-380.243" rx="47.3916" ry="18"/>
<text text-anchor="middle" x="790.205" y="-376.543" font-family="Times New Roman,serif" font-size="14.00">(29) XOR</text>
</g>
<!-- node21&#45;&gt;node29 -->
<g id="edge48" class="edge"><title>node21&#45;&gt;node29</title>
<path fill="none" stroke="black" d="M686.607,-375.42C701.173,-376.105 717.425,-376.869 732.621,-377.583"/>
<polygon fill="black" stroke="black" points="732.786,-381.095 742.939,-378.068 733.115,-374.102 732.786,-381.095"/>
<text text-anchor="middle" x="714.759" y="-381.043" font-family="Times New Roman,serif" font-size="14.00"> (1)</text>
</g>
<!-- node22&#45;&gt;node25 -->
<g id="edge39" class="edge"><title>node22&#45;&gt;node25</title>
<path fill="none" stroke="black" d="M663.251,-296.529C688.534,-279.209 729.362,-251.24 757.65,-231.86"/>
<polygon fill="black" stroke="black" points="759.724,-234.682 765.995,-226.143 755.767,-228.907 759.724,-234.682"/>
<text text-anchor="middle" x="714.759" y="-272.043" font-family="Times New Roman,serif" font-size="14.00"> (0)</text>
</g>
<!-- node22&#45;&gt;node33 -->
<g id="edge56" class="edge"><title>node22&#45;&gt;node33</title>
<path fill="none" stroke="black" d="M652.06,-294.884C669.974,-269.05 705.941,-219.63 742.759,-183.243 747.634,-178.425 753.15,-173.656 758.634,-169.243"/>
<polygon fill="black" stroke="black" points="760.826,-171.971 766.567,-163.066 756.526,-166.448 760.826,-171.971"/>
<text text-anchor="middle" x="714.759" y="-228.043" font-family="Times New Roman,serif" font-size="14.00"> (1)</text>
</g>
<!-- node41 -->
<g id="node42" class="node"><title>node41</title>
<ellipse fill="none" stroke="black" cx="1505.51" cy="-334.243" rx="42.7926" ry="18"/>
<text text-anchor="middle" x="1505.51" y="-330.543" font-family="Times New Roman,serif" font-size="14.00">Output 5</text>
</g>
<!-- node22&#45;&gt;node41 -->
<g id="edge66" class="edge"><title>node22&#45;&gt;node41</title>
<path fill="none" stroke="black" d="M679.892,-321.319C709.76,-327.379 751.839,-334.243 789.205,-334.243 789.205,-334.243 789.205,-334.243 1379.82,-334.243 1403.56,-334.243 1429.83,-334.243 1452.12,-334.243"/>
<polygon fill="black" stroke="black" points="1452.38,-337.743 1462.38,-334.243 1452.38,-330.743 1452.38,-337.743"/>
</g>
<!-- node32 -->
<g id="node33" class="node"><title>node32</title>
<ellipse fill="none" stroke="black" cx="790.205" cy="-700.243" rx="47.3916" ry="18"/>
<text text-anchor="middle" x="790.205" y="-696.543" font-family="Times New Roman,serif" font-size="14.00">(32) XOR</text>
</g>
<!-- node23&#45;&gt;node32 -->
<g id="edge54" class="edge"><title>node23&#45;&gt;node32</title>
<path fill="none" stroke="black" d="M233.455,-658.626C341.555,-666.721 614.95,-687.194 733.237,-696.052"/>
<polygon fill="black" stroke="black" points="733.281,-699.565 743.514,-696.822 733.804,-692.585 733.281,-699.565"/>
<text text-anchor="middle" x="488.422" y="-686.043" font-family="Times New Roman,serif" font-size="14.00"> (1)</text>
</g>
<!-- node24&#45;&gt;node29 -->
<g id="edge47" class="edge"><title>node24&#45;&gt;node29</title>
<path fill="none" stroke="black" d="M673.357,-423.815C694.872,-415.723 723.151,-405.087 746.383,-396.349"/>
<polygon fill="black" stroke="black" points="747.868,-399.53 755.996,-392.734 745.404,-392.978 747.868,-399.53"/>
<text text-anchor="middle" x="714.759" y="-416.043" font-family="Times New Roman,serif" font-size="14.00"> (0)</text>
</g>
<!-- node25&#45;&gt;node26 -->
<g id="edge41" class="edge"><title>node25&#45;&gt;node26</title>
<path fill="none" stroke="black" d="M833.157,-218.198C850.027,-221.397 869.548,-225.099 886.869,-228.383"/>
<polygon fill="black" stroke="black" points="886.3,-231.837 896.777,-230.262 887.604,-224.96 886.3,-231.837"/>
<text text-anchor="middle" x="865.651" y="-230.043" font-family="Times New Roman,serif" font-size="14.00"> (0)</text>
</g>
<!-- node25&#45;&gt;node28 -->
<g id="edge45" class="edge"><title>node25&#45;&gt;node28</title>
<path fill="none" stroke="black" d="M812.831,-194.144C837.262,-175.958 877.151,-146.263 904.348,-126.017"/>
<polygon fill="black" stroke="black" points="906.765,-128.581 912.696,-119.802 902.585,-122.966 906.765,-128.581"/>
<text text-anchor="middle" x="865.651" y="-165.043" font-family="Times New Roman,serif" font-size="14.00"> (0)</text>
</g>
<!-- node30 -->
<g id="node31" class="node"><title>node30</title>
<ellipse fill="none" stroke="black" cx="1078.34" cy="-263.243" rx="46.5926" ry="18"/>
<text text-anchor="middle" x="1078.34" y="-259.543" font-family="Times New Roman,serif" font-size="14.00">(30) AND</text>
</g>
<!-- node26&#45;&gt;node30 -->
<g id="edge50" class="edge"><title>node26&#45;&gt;node30</title>
<path fill="none" stroke="black" d="M972.838,-244.075C989.02,-247.043 1008.25,-250.57 1025.77,-253.784"/>
<polygon fill="black" stroke="black" points="1025.39,-257.272 1035.85,-255.634 1026.65,-250.387 1025.39,-257.272"/>
<text text-anchor="middle" x="1003.54" y="-255.043" font-family="Times New Roman,serif" font-size="14.00"> (1)</text>
</g>
<!-- node27&#45;&gt;node32 -->
<g id="edge53" class="edge"><title>node27&#45;&gt;node32</title>
<path fill="none" stroke="black" d="M679.044,-728.359C697.84,-723.561 720.617,-717.748 740.571,-712.656"/>
<polygon fill="black" stroke="black" points="741.586,-716.009 750.409,-710.145 739.854,-709.226 741.586,-716.009"/>
<text text-anchor="middle" x="714.759" y="-725.043" font-family="Times New Roman,serif" font-size="14.00"> (0)</text>
</g>
<!-- node35 -->
<g id="node36" class="node"><title>node35</title>
<ellipse fill="none" stroke="black" cx="1378.82" cy="-127.243" rx="46.5926" ry="18"/>
<text text-anchor="middle" x="1378.82" y="-123.543" font-family="Times New Roman,serif" font-size="14.00">(35) AND</text>
</g>
<!-- node28&#45;&gt;node35 -->
<g id="edge59" class="edge"><title>node28&#45;&gt;node35</title>
<path fill="none" stroke="black" d="M975.621,-106.325C1054.85,-110.446 1231.8,-119.649 1322.26,-124.354"/>
<polygon fill="black" stroke="black" points="1322.15,-127.853 1332.32,-124.877 1322.52,-120.862 1322.15,-127.853"/>
<text text-anchor="middle" x="1153.13" y="-120.043" font-family="Times New Roman,serif" font-size="14.00"> (0)</text>
</g>
<!-- node29&#45;&gt;node30 -->
<g id="edge49" class="edge"><title>node29&#45;&gt;node30</title>
<path fill="none" stroke="black" d="M823.195,-367.163C875.305,-345.855 978.466,-303.672 1036.04,-280.131"/>
<polygon fill="black" stroke="black" points="1037.62,-283.265 1045.55,-276.24 1034.97,-276.785 1037.62,-283.265"/>
<text text-anchor="middle" x="934.597" y="-341.043" font-family="Times New Roman,serif" font-size="14.00"> (0)</text>
</g>
<!-- node30&#45;&gt;node31 -->
<g id="edge51" class="edge"><title>node30&#45;&gt;node31</title>
<path fill="none" stroke="black" d="M1124.22,-267.482C1139.32,-268.908 1156.35,-270.516 1172.16,-272.009"/>
<polygon fill="black" stroke="black" points="1172.06,-275.515 1182.34,-272.971 1172.72,-268.546 1172.06,-275.515"/>
<text text-anchor="middle" x="1153.13" y="-275.043" font-family="Times New Roman,serif" font-size="14.00"> (0)</text>
</g>
<!-- node34 -->
<g id="node35" class="node"><title>node34</title>
<ellipse fill="none" stroke="black" cx="1228.58" cy="-150.243" rx="40.8928" ry="18"/>
<text text-anchor="middle" x="1228.58" y="-146.543" font-family="Times New Roman,serif" font-size="14.00">(34) OR</text>
</g>
<!-- node30&#45;&gt;node34 -->
<g id="edge57" class="edge"><title>node30&#45;&gt;node34</title>
<path fill="none" stroke="black" d="M1100.26,-247.293C1126.12,-227.581 1170.24,-193.951 1199.15,-171.913"/>
<polygon fill="black" stroke="black" points="1201.41,-174.596 1207.24,-165.75 1197.16,-169.029 1201.41,-174.596"/>
<text text-anchor="middle" x="1153.13" y="-218.043" font-family="Times New Roman,serif" font-size="14.00"> (0)</text>
</g>
<!-- node39 -->
<g id="node40" class="node"><title>node39</title>
<ellipse fill="none" stroke="black" cx="1505.51" cy="-277.243" rx="42.7926" ry="18"/>
<text text-anchor="middle" x="1505.51" y="-273.543" font-family="Times New Roman,serif" font-size="14.00">Output 3</text>
</g>
<!-- node31&#45;&gt;node39 -->
<g id="edge64" class="edge"><title>node31&#45;&gt;node39</title>
<path fill="none" stroke="black" d="M1276.22,-277.243C1325.09,-277.243 1401.7,-277.243 1452.5,-277.243"/>
<polygon fill="black" stroke="black" points="1452.61,-280.743 1462.61,-277.243 1452.61,-273.743 1452.61,-280.743"/>
</g>
<!-- node38 -->
<g id="node39" class="node"><title>node38</title>
<ellipse fill="none" stroke="black" cx="1505.51" cy="-700.243" rx="42.7926" ry="18"/>
<text text-anchor="middle" x="1505.51" y="-696.543" font-family="Times New Roman,serif" font-size="14.00">Output 2</text>
</g>
<!-- node32&#45;&gt;node38 -->
<g id="edge63" class="edge"><title>node32&#45;&gt;node38</title>
<path fill="none" stroke="black" d="M837.699,-700.243C865.521,-700.243 901.583,-700.243 933.597,-700.243 933.597,-700.243 933.597,-700.243 1379.82,-700.243 1403.56,-700.243 1429.83,-700.243 1452.12,-700.243"/>
<polygon fill="black" stroke="black" points="1452.38,-703.743 1462.38,-700.243 1452.38,-696.743 1452.38,-703.743"/>
</g>
<!-- node33&#45;&gt;node34 -->
<g id="edge58" class="edge"><title>node33&#45;&gt;node34</title>
<path fill="none" stroke="black" d="M837.905,-147.564C920.642,-148.133 1092.26,-149.313 1177.41,-149.898"/>
<polygon fill="black" stroke="black" points="1177.58,-153.4 1187.6,-149.969 1177.63,-146.4 1177.58,-153.4"/>
<text text-anchor="middle" x="1003.54" y="-153.043" font-family="Times New Roman,serif" font-size="14.00"> (1)</text>
</g>
<!-- node34&#45;&gt;node35 -->
<g id="edge60" class="edge"><title>node34&#45;&gt;node35</title>
<path fill="none" stroke="black" d="M1267.37,-144.38C1284.9,-141.661 1306.02,-138.384 1325.08,-135.426"/>
<polygon fill="black" stroke="black" points="1325.78,-138.86 1335.12,-133.868 1324.71,-131.943 1325.78,-138.86"/>
<text text-anchor="middle" x="1304.03" y="-144.043" font-family="Times New Roman,serif" font-size="14.00"> (1)</text>
</g>
<!-- node40 -->
<g id="node41" class="node"><title>node40</title>
<ellipse fill="none" stroke="black" cx="1505.51" cy="-127.243" rx="42.7926" ry="18"/>
<text text-anchor="middle" x="1505.51" y="-123.543" font-family="Times New Roman,serif" font-size="14.00">Output 4</text>
</g>
<!-- node35&#45;&gt;node40 -->
<g id="edge65" class="edge"><title>node35&#45;&gt;node40</title>
<path fill="none" stroke="black" d="M1425.9,-127.243C1434.48,-127.243 1443.49,-127.243 1452.24,-127.243"/>
<polygon fill="black" stroke="black" points="1452.34,-130.743 1462.34,-127.243 1452.34,-123.743 1452.34,-130.743"/>
</g>
</g>
</svg>
