<?xml version="1.0" encoding="UTF-8" standalone="no"?>
<!DOCTYPE svg PUBLIC "-//W3C//DTD SVG 1.1//EN"
 "http://www.w3.org/Graphics/SVG/1.1/DTD/svg11.dtd">
<!-- Generated by graphviz version 2.38.0 (20140413.2041)
 -->
<!-- Title: NeuralNetwork Pages: 1 -->
<svg width="288pt" height="107pt"
 viewBox="0.00 0.00 288.00 106.80" xmlns="http://www.w3.org/2000/svg" xmlns:xlink="http://www.w3.org/1999/xlink">
<g id="graph0" class="graph" transform="scale(0.287874 0.287874) rotate(0) translate(4 367)">
<title>NeuralNetwork</title>
<polygon fill="white" stroke="none" points="-4,4 -4,-367 996.438,-367 996.438,4 -4,4"/>
<!-- node0 -->
<g id="node1" class="node"><title>node0</title>
<ellipse fill="none" stroke="black" cx="42.2463" cy="-345" rx="42.4939" ry="18"/>
<text text-anchor="middle" x="42.2463" y="-341.3" font-family="Times New Roman,serif" font-size="14.00">(0) Input</text>
</g>
<!-- node7 -->
<g id="node8" class="node"><title>node7</title>
<ellipse fill="none" stroke="black" cx="400.073" cy="-338" rx="42.7926" ry="18"/>
<text text-anchor="middle" x="400.073" y="-334.3" font-family="Times New Roman,serif" font-size="14.00">(7) XOR</text>
</g>
<!-- node0&#45;&gt;node7 -->
<g id="edge6" class="edge"><title>node0&#45;&gt;node7</title>
<path fill="none" stroke="black" d="M84.7605,-344.183C149.848,-342.903 275.806,-340.425 346.917,-339.026"/>
<polygon fill="black" stroke="black" points="347.068,-342.524 356.997,-338.828 346.93,-335.525 347.068,-342.524"/>
<text text-anchor="middle" x="183.389" y="-346.8" font-family="Times New Roman,serif" font-size="14.00"> (1)</text>
</g>
<!-- node9 -->
<g id="node10" class="node"><title>node9</title>
<ellipse fill="none" stroke="black" cx="400.073" cy="-252" rx="42.4939" ry="18"/>
<text text-anchor="middle" x="400.073" y="-248.3" font-family="Times New Roman,serif" font-size="14.00">(9) AND</text>
</g>
<!-- node0&#45;&gt;node9 -->
<g id="edge10" class="edge"><title>node0&#45;&gt;node9</title>
<path fill="none" stroke="black" d="M78.1005,-335.4C96.5192,-330.673 119.585,-325.295 140.493,-322 228.002,-308.21 257.824,-341.07 339.176,-306 354.324,-299.47 368.215,-287.514 378.797,-276.509"/>
<polygon fill="black" stroke="black" points="381.393,-278.857 385.57,-269.12 376.233,-274.127 381.393,-278.857"/>
<text text-anchor="middle" x="183.389" y="-325.8" font-family="Times New Roman,serif" font-size="14.00"> (1)</text>
</g>
<!-- node1 -->
<g id="node2" class="node"><title>node1</title>
<ellipse fill="none" stroke="black" cx="42.2463" cy="-48" rx="42.4939" ry="18"/>
<text text-anchor="middle" x="42.2463" y="-44.3" font-family="Times New Roman,serif" font-size="14.00">(1) Input</text>
</g>
<!-- node8 -->
<g id="node9" class="node"><title>node8</title>
<ellipse fill="none" stroke="black" cx="183.389" cy="-18" rx="42.4939" ry="18"/>
<text text-anchor="middle" x="183.389" y="-14.3" font-family="Times New Roman,serif" font-size="14.00">(8) AND</text>
</g>
<!-- node1&#45;&gt;node8 -->
<g id="edge8" class="edge"><title>node1&#45;&gt;node8</title>
<path fill="none" stroke="black" d="M71.958,-34.9728C81.493,-31.1583 92.2838,-27.3779 102.493,-25 111.555,-22.8891 121.331,-21.4033 130.83,-20.36"/>
<polygon fill="black" stroke="black" points="131.358,-23.8256 140.981,-19.393 130.694,-16.8571 131.358,-23.8256"/>
<text text-anchor="middle" x="112.493" y="-28.8" font-family="Times New Roman,serif" font-size="14.00"> (1)</text>
</g>
<!-- node11 -->
<g id="node12" class="node"><title>node11</title>
<ellipse fill="none" stroke="black" cx="291.731" cy="-107" rx="47.3916" ry="18"/>
<text text-anchor="middle" x="291.731" y="-103.3" font-family="Times New Roman,serif" font-size="14.00">(11) XOR</text>
</g>
<!-- node1&#45;&gt;node11 -->
<g id="edge13" class="edge"><title>node1&#45;&gt;node11</title>
<path fill="none" stroke="black" d="M83.3436,-52.4564C95.9386,-54.1525 109.853,-56.3334 122.493,-59 164.825,-67.931 212.133,-81.7836 245.775,-92.3161"/>
<polygon fill="black" stroke="black" points="244.731,-95.6566 255.32,-95.3302 246.838,-88.9814 244.731,-95.6566"/>
<text text-anchor="middle" x="112.493" y="-62.8" font-family="Times New Roman,serif" font-size="14.00"> (0)</text>
</g>
<!-- node2 -->
<g id="node3" class="node"><title>node2</title>
<ellipse fill="none" stroke="black" cx="42.2463" cy="-195" rx="42.4939" ry="18"/>
<text text-anchor="middle" x="42.2463" y="-191.3" font-family="Times New Roman,serif" font-size="14.00">(2) Input</text>
</g>
<!-- node5 -->
<g id="node6" class="node"><title>node5</title>
<ellipse fill="none" stroke="black" cx="183.389" cy="-256" rx="42.7926" ry="18"/>
<text text-anchor="middle" x="183.389" y="-252.3" font-family="Times New Roman,serif" font-size="14.00">(5) XOR</text>
</g>
<!-- node2&#45;&gt;node5 -->
<g id="edge2" class="edge"><title>node2&#45;&gt;node5</title>
<path fill="none" stroke="black" d="M81.6561,-201.823C94.9348,-204.924 109.687,-209.224 122.493,-215 133.687,-220.049 145.038,-227.196 154.805,-234.111"/>
<polygon fill="black" stroke="black" points="152.801,-236.982 162.936,-240.07 156.939,-231.336 152.801,-236.982"/>
<text text-anchor="middle" x="112.493" y="-218.8" font-family="Times New Roman,serif" font-size="14.00"> (1)</text>
</g>
<!-- node6 -->
<g id="node7" class="node"><title>node6</title>
<ellipse fill="none" stroke="black" cx="183.389" cy="-197" rx="42.4939" ry="18"/>
<text text-anchor="middle" x="183.389" y="-193.3" font-family="Times New Roman,serif" font-size="14.00">(6) AND</text>
</g>
<!-- node2&#45;&gt;node6 -->
<g id="edge3" class="edge"><title>node2&#45;&gt;node6</title>
<path fill="none" stroke="black" d="M73.1781,-182.619C87.9395,-177.945 106.06,-174.329 122.493,-177 128.955,-178.05 135.661,-179.699 142.147,-181.61"/>
<polygon fill="black" stroke="black" points="141.498,-185.077 152.089,-184.78 143.625,-178.407 141.498,-185.077"/>
<text text-anchor="middle" x="112.493" y="-180.8" font-family="Times New Roman,serif" font-size="14.00"> (0)</text>
</g>
<!-- node3 -->
<g id="node4" class="node"><title>node3</title>
<ellipse fill="none" stroke="black" cx="42.2463" cy="-114" rx="42.4939" ry="18"/>
<text text-anchor="middle" x="42.2463" y="-110.3" font-family="Times New Roman,serif" font-size="14.00">(3) Input</text>
</g>
<!-- node3&#45;&gt;node8 -->
<g id="edge7" class="edge"><title>node3&#45;&gt;node8</title>
<path fill="none" stroke="black" d="M75.1149,-102.596C90.1628,-96.4606 107.964,-88.0751 122.493,-78 136.84,-68.0502 150.752,-54.4383 161.551,-42.6945"/>
<polygon fill="black" stroke="black" points="164.438,-44.717 168.497,-34.9307 159.221,-40.0496 164.438,-44.717"/>
<text text-anchor="middle" x="112.493" y="-92.8" font-family="Times New Roman,serif" font-size="14.00"> (0)</text>
</g>
<!-- node3&#45;&gt;node11 -->
<g id="edge14" class="edge"><title>node3&#45;&gt;node11</title>
<path fill="none" stroke="black" d="M84.6696,-112.828C125.606,-111.67 188.542,-109.89 234.089,-108.602"/>
<polygon fill="black" stroke="black" points="234.211,-112.1 244.108,-108.319 234.013,-105.103 234.211,-112.1"/>
<text text-anchor="middle" x="112.493" y="-115.8" font-family="Times New Roman,serif" font-size="14.00"> (1)</text>
</g>
<!-- node4 -->
<g id="node5" class="node"><title>node4</title>
<ellipse fill="none" stroke="black" cx="42.2463" cy="-271" rx="42.4939" ry="18"/>
<text text-anchor="middle" x="42.2463" y="-267.3" font-family="Times New Roman,serif" font-size="14.00">(4) Input</text>
</g>
<!-- node4&#45;&gt;node5 -->
<g id="edge1" class="edge"><title>node4&#45;&gt;node5</title>
<path fill="none" stroke="black" d="M84.883,-270.674C97.0383,-270.241 110.324,-269.44 122.493,-268 126.639,-267.509 130.928,-266.886 135.216,-266.182"/>
<polygon fill="black" stroke="black" points="135.919,-269.611 145.154,-264.417 134.696,-262.719 135.919,-269.611"/>
<text text-anchor="middle" x="112.493" y="-272.8" font-family="Times New Roman,serif" font-size="14.00"> (0)</text>
</g>
<!-- node4&#45;&gt;node6 -->
<g id="edge4" class="edge"><title>node4&#45;&gt;node6</title>
<path fill="none" stroke="black" d="M70.1147,-257.319C85.5006,-249.43 105.139,-239.267 122.493,-230 130.875,-225.523 139.872,-220.619 148.279,-215.994"/>
<polygon fill="black" stroke="black" points="150.05,-219.014 157.113,-211.117 146.667,-212.886 150.05,-219.014"/>
<text text-anchor="middle" x="112.493" y="-243.8" font-family="Times New Roman,serif" font-size="14.00"> (1)</text>
</g>
<!-- node5&#45;&gt;node7 -->
<g id="edge5" class="edge"><title>node5&#45;&gt;node7</title>
<path fill="none" stroke="black" d="M215.606,-267.924C253.287,-282.316 316.755,-306.558 358.279,-322.419"/>
<polygon fill="black" stroke="black" points="357.227,-325.764 367.818,-326.062 359.725,-319.224 357.227,-325.764"/>
<text text-anchor="middle" x="291.731" y="-316.8" font-family="Times New Roman,serif" font-size="14.00"> (0)</text>
</g>
<!-- node5&#45;&gt;node9 -->
<g id="edge9" class="edge"><title>node5&#45;&gt;node9</title>
<path fill="none" stroke="black" d="M225.945,-253.684C232.093,-253.409 238.353,-253.168 244.285,-253 278.647,-252.029 317.317,-251.779 347.409,-251.771"/>
<polygon fill="black" stroke="black" points="347.672,-255.271 357.674,-251.778 347.677,-248.271 347.672,-255.271"/>
<text text-anchor="middle" x="291.731" y="-256.8" font-family="Times New Roman,serif" font-size="14.00"> (0)</text>
</g>
<!-- node10 -->
<g id="node11" class="node"><title>node10</title>
<ellipse fill="none" stroke="black" cx="539.915" cy="-197" rx="40.8928" ry="18"/>
<text text-anchor="middle" x="539.915" y="-193.3" font-family="Times New Roman,serif" font-size="14.00">(10) OR</text>
</g>
<!-- node6&#45;&gt;node10 -->
<g id="edge11" class="edge"><title>node6&#45;&gt;node10</title>
<path fill="none" stroke="black" d="M225.751,-197C291.077,-197 417.941,-197 488.498,-197"/>
<polygon fill="black" stroke="black" points="488.904,-200.5 498.903,-197 488.903,-193.5 488.904,-200.5"/>
<text text-anchor="middle" x="400.073" y="-200.8" font-family="Times New Roman,serif" font-size="14.00"> (0)</text>
</g>
<!-- node15 -->
<g id="node16" class="node"><title>node15</title>
<ellipse fill="none" stroke="black" cx="949.542" cy="-338" rx="42.7926" ry="18"/>
<text text-anchor="middle" x="949.542" y="-334.3" font-family="Times New Roman,serif" font-size="14.00">Output 0</text>
</g>
<!-- node7&#45;&gt;node15 -->
<g id="edge21" class="edge"><title>node7&#45;&gt;node15</title>
<path fill="none" stroke="black" d="M442.998,-338C470.313,-338 506.728,-338 538.915,-338 538.915,-338 538.915,-338 829.7,-338 851.498,-338 875.545,-338 896.272,-338"/>
<polygon fill="black" stroke="black" points="896.467,-341.5 906.467,-338 896.467,-334.5 896.467,-341.5"/>
</g>
<!-- node14 -->
<g id="node15" class="node"><title>node14</title>
<ellipse fill="none" stroke="black" cx="828.7" cy="-50" rx="40.8928" ry="18"/>
<text text-anchor="middle" x="828.7" y="-46.3" font-family="Times New Roman,serif" font-size="14.00">(14) OR</text>
</g>
<!-- node8&#45;&gt;node14 -->
<g id="edge20" class="edge"><title>node8&#45;&gt;node14</title>
<path fill="none" stroke="black" d="M224.689,-22.5005C267.789,-26.9188 338.172,-33 399.073,-33 399.073,-33 399.073,-33 685.307,-33 717.207,-33 752.846,-37.2587 780.489,-41.513"/>
<polygon fill="black" stroke="black" points="780.241,-45.0177 790.667,-43.1345 781.342,-38.1048 780.241,-45.0177"/>
<text text-anchor="middle" x="539.915" y="-36.8" font-family="Times New Roman,serif" font-size="14.00"> (1)</text>
</g>
<!-- node9&#45;&gt;node10 -->
<g id="edge12" class="edge"><title>node9&#45;&gt;node10</title>
<path fill="none" stroke="black" d="M431.664,-239.794C451.611,-231.835 477.838,-221.37 499.363,-212.781"/>
<polygon fill="black" stroke="black" points="500.892,-215.94 508.883,-208.983 498.298,-209.438 500.892,-215.94"/>
<text text-anchor="middle" x="470.969" y="-230.8" font-family="Times New Roman,serif" font-size="14.00"> (1)</text>
</g>
<!-- node12 -->
<g id="node13" class="node"><title>node12</title>
<ellipse fill="none" stroke="black" cx="684.307" cy="-170" rx="47.3916" ry="18"/>
<text text-anchor="middle" x="684.307" y="-166.3" font-family="Times New Roman,serif" font-size="14.00">(12) XOR</text>
</g>
<!-- node10&#45;&gt;node12 -->
<g id="edge15" class="edge"><title>node10&#45;&gt;node12</title>
<path fill="none" stroke="black" d="M577.955,-189.977C594.212,-186.894 613.582,-183.221 631.253,-179.87"/>
<polygon fill="black" stroke="black" points="632.251,-183.244 641.424,-177.942 630.947,-176.366 632.251,-183.244"/>
<text text-anchor="middle" x="608.862" y="-188.8" font-family="Times New Roman,serif" font-size="14.00"> (0)</text>
</g>
<!-- node13 -->
<g id="node14" class="node"><title>node13</title>
<ellipse fill="none" stroke="black" cx="684.307" cy="-88" rx="46.5926" ry="18"/>
<text text-anchor="middle" x="684.307" y="-84.3" font-family="Times New Roman,serif" font-size="14.00">(13) AND</text>
</g>
<!-- node10&#45;&gt;node13 -->
<g id="edge18" class="edge"><title>node10&#45;&gt;node13</title>
<path fill="none" stroke="black" d="M561.317,-181.383C585.708,-162.711 626.697,-131.335 654.358,-110.161"/>
<polygon fill="black" stroke="black" points="656.668,-112.8 662.481,-103.943 652.413,-107.242 656.668,-112.8"/>
<text text-anchor="middle" x="608.862" y="-155.8" font-family="Times New Roman,serif" font-size="14.00"> (1)</text>
</g>
<!-- node11&#45;&gt;node12 -->
<g id="edge16" class="edge"><title>node11&#45;&gt;node12</title>
<path fill="none" stroke="black" d="M338.928,-109.767C415.978,-114.7 567.349,-125.84 618.862,-140 628.488,-142.646 638.467,-146.616 647.613,-150.808"/>
<polygon fill="black" stroke="black" points="646.263,-154.043 656.793,-155.212 649.29,-147.731 646.263,-154.043"/>
<text text-anchor="middle" x="470.969" y="-123.8" font-family="Times New Roman,serif" font-size="14.00"> (1)</text>
</g>
<!-- node11&#45;&gt;node13 -->
<g id="edge17" class="edge"><title>node11&#45;&gt;node13</title>
<path fill="none" stroke="black" d="M336.555,-101.072C370.449,-96.7875 418.588,-91.3563 460.969,-89 517.463,-85.859 582.157,-85.9871 627.138,-86.6704"/>
<polygon fill="black" stroke="black" points="627.22,-90.1722 637.277,-86.839 627.337,-83.1732 627.22,-90.1722"/>
<text text-anchor="middle" x="470.969" y="-92.8" font-family="Times New Roman,serif" font-size="14.00"> (0)</text>
</g>
<!-- node16 -->
<g id="node17" class="node"><title>node16</title>
<ellipse fill="none" stroke="black" cx="949.542" cy="-170" rx="42.7926" ry="18"/>
<text text-anchor="middle" x="949.542" y="-166.3" font-family="Times New Roman,serif" font-size="14.00">Output 1</text>
</g>
<!-- node12&#45;&gt;node16 -->
<g id="edge22" class="edge"><title>node12&#45;&gt;node16</title>
<path fill="none" stroke="black" d="M731.763,-170C777.827,-170 848.283,-170 896.276,-170"/>
<polygon fill="black" stroke="black" points="896.46,-173.5 906.46,-170 896.46,-166.5 896.46,-173.5"/>
</g>
<!-- node13&#45;&gt;node14 -->
<g id="edge19" class="edge"><title>node13&#45;&gt;node14</title>
<path fill="none" stroke="black" d="M723.092,-77.9165C741.615,-72.9734 764.039,-66.9889 783.368,-61.8307"/>
<polygon fill="black" stroke="black" points="784.397,-65.1786 793.157,-59.2184 782.592,-58.4153 784.397,-65.1786"/>
<text text-anchor="middle" x="759.753" y="-74.8" font-family="Times New Roman,serif" font-size="14.00"> (0)</text>
</g>
<!-- node17 -->
<g id="node18" class="node"><title>node17</title>
<ellipse fill="none" stroke="black" cx="949.542" cy="-50" rx="42.7926" ry="18"/>
<text text-anchor="middle" x="949.542" y="-46.3" font-family="Times New Roman,serif" font-size="14.00">Output 2</text>
</g>
<!-- node14&#45;&gt;node17 -->
<g id="edge23" class="edge"><title>node14&#45;&gt;node17</title>
<path fill="none" stroke="black" d="M869.934,-50C878.356,-50 887.353,-50 896.143,-50"/>
<polygon fill="black" stroke="black" points="896.319,-53.5001 906.319,-50 896.318,-46.5001 896.319,-53.5001"/>
</g>
</g>
</svg>
