<?xml version="1.0" encoding="UTF-8" standalone="no"?>
<!DOCTYPE svg PUBLIC "-//W3C//DTD SVG 1.1//EN"
 "http://www.w3.org/Graphics/SVG/1.1/DTD/svg11.dtd">
<!-- Generated by graphviz version 2.38.0 (20140413.2041)
 -->
<!-- Title: NeuralNetwork Pages: 1 -->
<svg width="288pt" height="84pt"
 viewBox="0.00 0.00 288.00 84.34" xmlns="http://www.w3.org/2000/svg" xmlns:xlink="http://www.w3.org/1999/xlink">
<g id="graph0" class="graph" transform="scale(0.23363 0.23363) rotate(0) translate(4 357)">
<title>NeuralNetwork</title>
<polygon fill="white" stroke="none" points="-4,4 -4,-357 1228.72,-357 1228.72,4 -4,4"/>
<!-- node0 -->
<g id="node1" class="node"><title>node0</title>
<ellipse fill="none" stroke="black" cx="42.2463" cy="-172" rx="42.4939" ry="18"/>
<text text-anchor="middle" x="42.2463" y="-168.3" font-family="Times New Roman,serif" font-size="14.00">(0) Input</text>
</g>
<!-- node6 -->
<g id="node7" class="node"><title>node6</title>
<ellipse fill="none" stroke="black" cx="183.389" cy="-232" rx="42.7926" ry="18"/>
<text text-anchor="middle" x="183.389" y="-228.3" font-family="Times New Roman,serif" font-size="14.00">(6) XOR</text>
</g>
<!-- node0&#45;&gt;node6 -->
<g id="edge4" class="edge"><title>node0&#45;&gt;node6</title>
<path fill="none" stroke="black" d="M72.7548,-184.724C93.4161,-193.634 121.229,-205.627 143.67,-215.304"/>
<polygon fill="black" stroke="black" points="142.354,-218.548 152.923,-219.294 145.126,-212.12 142.354,-218.548"/>
<text text-anchor="middle" x="112.493" y="-208.8" font-family="Times New Roman,serif" font-size="14.00"> (1)</text>
</g>
<!-- node8 -->
<g id="node9" class="node"><title>node8</title>
<ellipse fill="none" stroke="black" cx="394.223" cy="-177" rx="36.2938" ry="18"/>
<text text-anchor="middle" x="394.223" y="-173.3" font-family="Times New Roman,serif" font-size="14.00">(8) OR</text>
</g>
<!-- node0&#45;&gt;node8 -->
<g id="edge7" class="edge"><title>node0&#45;&gt;node8</title>
<path fill="none" stroke="black" d="M84.7675,-172.593C150.815,-173.537 279.319,-175.373 347.76,-176.35"/>
<polygon fill="black" stroke="black" points="347.76,-179.851 357.809,-176.494 347.86,-172.851 347.76,-179.851"/>
<text text-anchor="middle" x="183.389" y="-177.8" font-family="Times New Roman,serif" font-size="14.00"> (0)</text>
</g>
<!-- node1 -->
<g id="node2" class="node"><title>node1</title>
<ellipse fill="none" stroke="black" cx="42.2463" cy="-18" rx="42.4939" ry="18"/>
<text text-anchor="middle" x="42.2463" y="-14.3" font-family="Times New Roman,serif" font-size="14.00">(1) Input</text>
</g>
<!-- node5 -->
<g id="node6" class="node"><title>node5</title>
<ellipse fill="none" stroke="black" cx="287.181" cy="-81" rx="42.7926" ry="18"/>
<text text-anchor="middle" x="287.181" y="-77.3" font-family="Times New Roman,serif" font-size="14.00">(5) XOR</text>
</g>
<!-- node1&#45;&gt;node5 -->
<g id="edge2" class="edge"><title>node1&#45;&gt;node5</title>
<path fill="none" stroke="black" d="M62.5768,-33.9705C73.6015,-42.2105 88.065,-51.6345 102.493,-57 144.925,-72.7805 196.232,-78.4631 233.824,-80.3816"/>
<polygon fill="black" stroke="black" points="233.901,-83.8882 244.045,-80.8281 234.207,-76.8949 233.901,-83.8882"/>
<text text-anchor="middle" x="112.493" y="-66.8" font-family="Times New Roman,serif" font-size="14.00"> (1)</text>
</g>
<!-- node9 -->
<g id="node10" class="node"><title>node9</title>
<ellipse fill="none" stroke="black" cx="183.389" cy="-33" rx="42.4939" ry="18"/>
<text text-anchor="middle" x="183.389" y="-29.3" font-family="Times New Roman,serif" font-size="14.00">(9) AND</text>
</g>
<!-- node1&#45;&gt;node9 -->
<g id="edge10" class="edge"><title>node1&#45;&gt;node9</title>
<path fill="none" stroke="black" d="M75.015,-6.56973C89.5558,-2.82638 106.969,-0.439558 122.493,-4 131.574,-6.08292 140.878,-9.7316 149.363,-13.7528"/>
<polygon fill="black" stroke="black" points="148.036,-17.0032 158.54,-18.3875 151.192,-10.755 148.036,-17.0032"/>
<text text-anchor="middle" x="112.493" y="-7.8" font-family="Times New Roman,serif" font-size="14.00"> (1)</text>
</g>
<!-- node2 -->
<g id="node3" class="node"><title>node2</title>
<ellipse fill="none" stroke="black" cx="42.2463" cy="-234" rx="42.4939" ry="18"/>
<text text-anchor="middle" x="42.2463" y="-230.3" font-family="Times New Roman,serif" font-size="14.00">(2) Input</text>
</g>
<!-- node2&#45;&gt;node6 -->
<g id="edge3" class="edge"><title>node2&#45;&gt;node6</title>
<path fill="none" stroke="black" d="M84.6168,-233.405C98.9362,-233.2 115.174,-232.966 130.246,-232.749"/>
<polygon fill="black" stroke="black" points="130.507,-236.246 140.456,-232.603 130.406,-229.247 130.507,-236.246"/>
<text text-anchor="middle" x="112.493" y="-236.8" font-family="Times New Roman,serif" font-size="14.00"> (0)</text>
</g>
<!-- node3 -->
<g id="node4" class="node"><title>node3</title>
<ellipse fill="none" stroke="black" cx="42.2463" cy="-102" rx="42.4939" ry="18"/>
<text text-anchor="middle" x="42.2463" y="-98.3" font-family="Times New Roman,serif" font-size="14.00">(3) Input</text>
</g>
<!-- node3&#45;&gt;node5 -->
<g id="edge1" class="edge"><title>node3&#45;&gt;node5</title>
<path fill="none" stroke="black" d="M84.8338,-101.712C122.032,-101.037 177.977,-98.9931 226.285,-93 230.429,-92.4859 234.715,-91.846 239.002,-91.1313"/>
<polygon fill="black" stroke="black" points="239.712,-94.5599 248.938,-89.3516 238.478,-87.6696 239.712,-94.5599"/>
<text text-anchor="middle" x="112.493" y="-104.8" font-family="Times New Roman,serif" font-size="14.00"> (0)</text>
</g>
<!-- node3&#45;&gt;node9 -->
<g id="edge9" class="edge"><title>node3&#45;&gt;node9</title>
<path fill="none" stroke="black" d="M55.147,-84.5906C65.7931,-70.5409 82.7385,-51.5898 102.493,-42 111.253,-37.7471 121.172,-35.1438 130.969,-33.6069"/>
<polygon fill="black" stroke="black" points="131.579,-37.0583 141.079,-32.3668 130.727,-30.1104 131.579,-37.0583"/>
<text text-anchor="middle" x="112.493" y="-45.8" font-family="Times New Roman,serif" font-size="14.00"> (0)</text>
</g>
<!-- node4 -->
<g id="node5" class="node"><title>node4</title>
<ellipse fill="none" stroke="black" cx="42.2463" cy="-316" rx="42.4939" ry="18"/>
<text text-anchor="middle" x="42.2463" y="-312.3" font-family="Times New Roman,serif" font-size="14.00">(4) Input</text>
</g>
<!-- node7 -->
<g id="node8" class="node"><title>node7</title>
<ellipse fill="none" stroke="black" cx="394.223" cy="-335" rx="42.7926" ry="18"/>
<text text-anchor="middle" x="394.223" y="-331.3" font-family="Times New Roman,serif" font-size="14.00">(7) XOR</text>
</g>
<!-- node4&#45;&gt;node7 -->
<g id="edge5" class="edge"><title>node4&#45;&gt;node7</title>
<path fill="none" stroke="black" d="M83.6325,-319.922C124.194,-323.694 188.508,-329.221 244.285,-332 276.377,-333.599 312.4,-334.352 340.979,-334.705"/>
<polygon fill="black" stroke="black" points="341.112,-338.206 351.15,-334.817 341.189,-331.207 341.112,-338.206"/>
<text text-anchor="middle" x="183.389" y="-334.8" font-family="Times New Roman,serif" font-size="14.00"> (0)</text>
</g>
<!-- node12 -->
<g id="node13" class="node"><title>node12</title>
<ellipse fill="none" stroke="black" cx="543.815" cy="-232" rx="40.8928" ry="18"/>
<text text-anchor="middle" x="543.815" y="-228.3" font-family="Times New Roman,serif" font-size="14.00">(12) OR</text>
</g>
<!-- node4&#45;&gt;node12 -->
<g id="edge14" class="edge"><title>node4&#45;&gt;node12</title>
<path fill="none" stroke="black" d="M79.3371,-307.279C119.401,-297.917 186.096,-283.277 244.285,-275 330.852,-262.686 353.842,-271.587 440.369,-259 460.487,-256.073 482.331,-250.641 500.659,-245.411"/>
<polygon fill="black" stroke="black" points="501.834,-248.715 510.447,-242.545 499.866,-241.997 501.834,-248.715"/>
<text text-anchor="middle" x="287.181" y="-278.8" font-family="Times New Roman,serif" font-size="14.00"> (0)</text>
</g>
<!-- node11 -->
<g id="node12" class="node"><title>node11</title>
<ellipse fill="none" stroke="black" cx="543.815" cy="-158" rx="47.3916" ry="18"/>
<text text-anchor="middle" x="543.815" y="-154.3" font-family="Times New Roman,serif" font-size="14.00">(11) XOR</text>
</g>
<!-- node5&#45;&gt;node11 -->
<g id="edge12" class="edge"><title>node5&#45;&gt;node11</title>
<path fill="none" stroke="black" d="M322.522,-91.3846C367.447,-104.97 446.331,-128.824 496.506,-143.996"/>
<polygon fill="black" stroke="black" points="495.554,-147.365 506.139,-146.91 497.581,-140.665 495.554,-147.365"/>
<text text-anchor="middle" x="394.223" y="-129.8" font-family="Times New Roman,serif" font-size="14.00"> (0)</text>
</g>
<!-- node15 -->
<g id="node16" class="node"><title>node15</title>
<ellipse fill="none" stroke="black" cx="844.948" cy="-80" rx="46.5926" ry="18"/>
<text text-anchor="middle" x="844.948" y="-76.3" font-family="Times New Roman,serif" font-size="14.00">(15) AND</text>
</g>
<!-- node5&#45;&gt;node15 -->
<g id="edge19" class="edge"><title>node5&#45;&gt;node15</title>
<path fill="none" stroke="black" d="M330.179,-80.6333C366.492,-80.3479 420.394,-80 467.369,-80 467.369,-80 467.369,-80 695.706,-80 726.058,-80 759.906,-80 787.587,-80"/>
<polygon fill="black" stroke="black" points="787.874,-83.5001 797.874,-80 787.874,-76.5001 787.874,-83.5001"/>
<text text-anchor="middle" x="543.815" y="-83.8" font-family="Times New Roman,serif" font-size="14.00"> (0)</text>
</g>
<!-- node6&#45;&gt;node7 -->
<g id="edge6" class="edge"><title>node6&#45;&gt;node7</title>
<path fill="none" stroke="black" d="M196.743,-249.226C207.702,-263.279 224.941,-282.607 244.285,-294 278.3,-314.035 292.029,-306.478 330.077,-317 336.134,-318.675 342.51,-320.463 348.787,-322.238"/>
<polygon fill="black" stroke="black" points="347.935,-325.634 358.51,-324.999 349.846,-318.901 347.935,-325.634"/>
<text text-anchor="middle" x="287.181" y="-320.8" font-family="Times New Roman,serif" font-size="14.00"> (1)</text>
</g>
<!-- node6&#45;&gt;node8 -->
<g id="edge8" class="edge"><title>node6&#45;&gt;node8</title>
<path fill="none" stroke="black" d="M217.53,-221.031C226.201,-218.287 235.563,-215.434 244.285,-213 279.926,-203.053 320.808,-193.287 350.712,-186.442"/>
<polygon fill="black" stroke="black" points="351.83,-189.777 360.805,-184.147 350.278,-182.951 351.83,-189.777"/>
<text text-anchor="middle" x="287.181" y="-216.8" font-family="Times New Roman,serif" font-size="14.00"> (1)</text>
</g>
<!-- node10 -->
<g id="node11" class="node"><title>node10</title>
<ellipse fill="none" stroke="black" cx="394.223" cy="-232" rx="46.2923" ry="18"/>
<text text-anchor="middle" x="394.223" y="-228.3" font-family="Times New Roman,serif" font-size="14.00">(10) NEG</text>
</g>
<!-- node6&#45;&gt;node10 -->
<g id="edge11" class="edge"><title>node6&#45;&gt;node10</title>
<path fill="none" stroke="black" d="M226.649,-232C258.65,-232 302.896,-232 337.744,-232"/>
<polygon fill="black" stroke="black" points="337.768,-235.5 347.768,-232 337.768,-228.5 337.768,-235.5"/>
<text text-anchor="middle" x="287.181" y="-235.8" font-family="Times New Roman,serif" font-size="14.00"> (0)</text>
</g>
<!-- node17 -->
<g id="node18" class="node"><title>node17</title>
<ellipse fill="none" stroke="black" cx="1181.82" cy="-335" rx="42.7926" ry="18"/>
<text text-anchor="middle" x="1181.82" y="-331.3" font-family="Times New Roman,serif" font-size="14.00">Output 0</text>
</g>
<!-- node7&#45;&gt;node17 -->
<g id="edge23" class="edge"><title>node7&#45;&gt;node17</title>
<path fill="none" stroke="black" d="M437.211,-335C466.747,-335 507.198,-335 542.815,-335 542.815,-335 542.815,-335 1061.98,-335 1083.78,-335 1107.83,-335 1128.55,-335"/>
<polygon fill="black" stroke="black" points="1128.75,-338.5 1138.75,-335 1128.75,-331.5 1128.75,-338.5"/>
</g>
<!-- node8&#45;&gt;node11 -->
<g id="edge13" class="edge"><title>node8&#45;&gt;node11</title>
<path fill="none" stroke="black" d="M429.827,-172.545C447.313,-170.294 468.934,-167.511 488.567,-164.984"/>
<polygon fill="black" stroke="black" points="489.148,-168.438 498.619,-163.689 488.254,-161.495 489.148,-168.438"/>
<text text-anchor="middle" x="468.369" y="-171.8" font-family="Times New Roman,serif" font-size="14.00"> (1)</text>
</g>
<!-- node16 -->
<g id="node17" class="node"><title>node16</title>
<ellipse fill="none" stroke="black" cx="1060.98" cy="-50" rx="40.8928" ry="18"/>
<text text-anchor="middle" x="1060.98" y="-46.3" font-family="Times New Roman,serif" font-size="14.00">(16) OR</text>
</g>
<!-- node9&#45;&gt;node16 -->
<g id="edge21" class="edge"><title>node9&#45;&gt;node16</title>
<path fill="none" stroke="black" d="M225.992,-33C268.14,-33 335.214,-33 393.223,-33 393.223,-33 393.223,-33 845.948,-33 902.888,-33 968.082,-39.0528 1011.41,-43.935"/>
<polygon fill="black" stroke="black" points="1011.06,-47.4175 1021.39,-45.0829 1011.85,-40.4633 1011.06,-47.4175"/>
<text text-anchor="middle" x="619.261" y="-36.8" font-family="Times New Roman,serif" font-size="14.00"> (0)</text>
</g>
<!-- node10&#45;&gt;node12 -->
<g id="edge15" class="edge"><title>node10&#45;&gt;node12</title>
<path fill="none" stroke="black" d="M440.71,-232C457.123,-232 475.738,-232 492.538,-232"/>
<polygon fill="black" stroke="black" points="492.727,-235.5 502.727,-232 492.727,-228.5 492.727,-235.5"/>
<text text-anchor="middle" x="468.369" y="-235.8" font-family="Times New Roman,serif" font-size="14.00"> (1)</text>
</g>
<!-- node13 -->
<g id="node14" class="node"><title>node13</title>
<ellipse fill="none" stroke="black" cx="694.706" cy="-158" rx="47.3916" ry="18"/>
<text text-anchor="middle" x="694.706" y="-154.3" font-family="Times New Roman,serif" font-size="14.00">(13) XOR</text>
</g>
<!-- node11&#45;&gt;node13 -->
<g id="edge16" class="edge"><title>node11&#45;&gt;node13</title>
<path fill="none" stroke="black" d="M591.517,-158C605.929,-158 621.961,-158 636.973,-158"/>
<polygon fill="black" stroke="black" points="637.17,-161.5 647.17,-158 637.17,-154.5 637.17,-161.5"/>
<text text-anchor="middle" x="619.261" y="-161.8" font-family="Times New Roman,serif" font-size="14.00"> (0)</text>
</g>
<!-- node12&#45;&gt;node13 -->
<g id="edge17" class="edge"><title>node12&#45;&gt;node13</title>
<path fill="none" stroke="black" d="M571.778,-218.599C595.288,-206.914 629.642,-189.84 655.897,-176.791"/>
<polygon fill="black" stroke="black" points="657.771,-179.768 665.169,-172.183 654.656,-173.5 657.771,-179.768"/>
<text text-anchor="middle" x="619.261" y="-202.8" font-family="Times New Roman,serif" font-size="14.00"> (1)</text>
</g>
<!-- node14 -->
<g id="node15" class="node"><title>node14</title>
<ellipse fill="none" stroke="black" cx="955.89" cy="-158" rx="46.2923" ry="18"/>
<text text-anchor="middle" x="955.89" y="-154.3" font-family="Times New Roman,serif" font-size="14.00">(14) NEG</text>
</g>
<!-- node13&#45;&gt;node14 -->
<g id="edge18" class="edge"><title>node13&#45;&gt;node14</title>
<path fill="none" stroke="black" d="M742.343,-158C786.379,-158 852.462,-158 899.234,-158"/>
<polygon fill="black" stroke="black" points="899.497,-161.5 909.497,-158 899.497,-154.5 899.497,-161.5"/>
<text text-anchor="middle" x="770.152" y="-161.8" font-family="Times New Roman,serif" font-size="14.00"> (0)</text>
</g>
<!-- node13&#45;&gt;node15 -->
<g id="edge20" class="edge"><title>node13&#45;&gt;node15</title>
<path fill="none" stroke="black" d="M721.205,-142.843C732.962,-135.989 747.162,-127.897 760.152,-121 774.82,-113.212 791.181,-105.085 805.526,-98.1401"/>
<polygon fill="black" stroke="black" points="807.131,-101.252 814.624,-93.7624 804.095,-94.9447 807.131,-101.252"/>
<text text-anchor="middle" x="770.152" y="-124.8" font-family="Times New Roman,serif" font-size="14.00"> (1)</text>
</g>
<!-- node18 -->
<g id="node19" class="node"><title>node18</title>
<ellipse fill="none" stroke="black" cx="1181.82" cy="-158" rx="42.7926" ry="18"/>
<text text-anchor="middle" x="1181.82" y="-154.3" font-family="Times New Roman,serif" font-size="14.00">Output 1</text>
</g>
<!-- node14&#45;&gt;node18 -->
<g id="edge24" class="edge"><title>node14&#45;&gt;node18</title>
<path fill="none" stroke="black" d="M1002.21,-158C1038.65,-158 1089.92,-158 1128.18,-158"/>
<polygon fill="black" stroke="black" points="1128.61,-161.5 1138.61,-158 1128.61,-154.5 1128.61,-161.5"/>
</g>
<!-- node15&#45;&gt;node16 -->
<g id="edge22" class="edge"><title>node15&#45;&gt;node16</title>
<path fill="none" stroke="black" d="M889.261,-73.9291C924.767,-68.9524 974.982,-61.914 1011.76,-56.7588"/>
<polygon fill="black" stroke="black" points="1012.34,-60.2123 1021.76,-55.358 1011.37,-53.28 1012.34,-60.2123"/>
<text text-anchor="middle" x="955.89" y="-74.8" font-family="Times New Roman,serif" font-size="14.00"> (1)</text>
</g>
<!-- node19 -->
<g id="node20" class="node"><title>node19</title>
<ellipse fill="none" stroke="black" cx="1181.82" cy="-50" rx="42.7926" ry="18"/>
<text text-anchor="middle" x="1181.82" y="-46.3" font-family="Times New Roman,serif" font-size="14.00">Output 2</text>
</g>
<!-- node16&#45;&gt;node19 -->
<g id="edge25" class="edge"><title>node16&#45;&gt;node19</title>
<path fill="none" stroke="black" d="M1102.22,-50C1110.64,-50 1119.64,-50 1128.43,-50"/>
<polygon fill="black" stroke="black" points="1128.6,-53.5001 1138.6,-50 1128.6,-46.5001 1128.6,-53.5001"/>
</g>
</g>
</svg>
