<?xml version="1.0" encoding="UTF-8" standalone="no"?>
<!DOCTYPE svg PUBLIC "-//W3C//DTD SVG 1.1//EN"
 "http://www.w3.org/Graphics/SVG/1.1/DTD/svg11.dtd">
<!-- Generated by graphviz version 2.38.0 (20140413.2041)
 -->
<!-- Title: NeuralNetwork Pages: 1 -->
<svg width="288pt" height="137pt"
 viewBox="0.00 0.00 288.00 136.93" xmlns="http://www.w3.org/2000/svg" xmlns:xlink="http://www.w3.org/1999/xlink">
<g id="graph0" class="graph" transform="scale(0.355664 0.355664) rotate(0) translate(4 381)">
<title>NeuralNetwork</title>
<polygon fill="white" stroke="none" points="-4,4 -4,-381 805.752,-381 805.752,4 -4,4"/>
<!-- node0 -->
<g id="node1" class="node"><title>node0</title>
<ellipse fill="none" stroke="black" cx="42.2463" cy="-194" rx="42.4939" ry="18"/>
<text text-anchor="middle" x="42.2463" y="-190.3" font-family="Times New Roman,serif" font-size="14.00">(0) Input</text>
</g>
<!-- node7 -->
<g id="node8" class="node"><title>node7</title>
<ellipse fill="none" stroke="black" cx="183.389" cy="-192" rx="42.4939" ry="18"/>
<text text-anchor="middle" x="183.389" y="-188.3" font-family="Times New Roman,serif" font-size="14.00">(7) AND</text>
</g>
<!-- node0&#45;&gt;node7 -->
<g id="edge5" class="edge"><title>node0&#45;&gt;node7</title>
<path fill="none" stroke="black" d="M84.6168,-193.405C99.0664,-193.198 115.47,-192.962 130.656,-192.744"/>
<polygon fill="black" stroke="black" points="130.989,-196.239 140.937,-192.596 130.888,-189.24 130.989,-196.239"/>
<text text-anchor="middle" x="112.493" y="-196.8" font-family="Times New Roman,serif" font-size="14.00"> (0)</text>
</g>
<!-- node8 -->
<g id="node9" class="node"><title>node8</title>
<ellipse fill="none" stroke="black" cx="183.389" cy="-116" rx="42.7926" ry="18"/>
<text text-anchor="middle" x="183.389" y="-112.3" font-family="Times New Roman,serif" font-size="14.00">(8) XOR</text>
</g>
<!-- node0&#45;&gt;node8 -->
<g id="edge8" class="edge"><title>node0&#45;&gt;node8</title>
<path fill="none" stroke="black" d="M70.6601,-180.462C86.0475,-172.703 105.51,-162.62 122.493,-153 131.665,-147.804 141.456,-141.909 150.407,-136.376"/>
<polygon fill="black" stroke="black" points="152.39,-139.264 159.024,-131.004 148.687,-133.324 152.39,-139.264"/>
<text text-anchor="middle" x="112.493" y="-166.8" font-family="Times New Roman,serif" font-size="14.00"> (1)</text>
</g>
<!-- node1 -->
<g id="node2" class="node"><title>node1</title>
<ellipse fill="none" stroke="black" cx="42.2463" cy="-348" rx="42.4939" ry="18"/>
<text text-anchor="middle" x="42.2463" y="-344.3" font-family="Times New Roman,serif" font-size="14.00">(1) Input</text>
</g>
<!-- node5 -->
<g id="node6" class="node"><title>node5</title>
<ellipse fill="none" stroke="black" cx="183.389" cy="-359" rx="42.4939" ry="18"/>
<text text-anchor="middle" x="183.389" y="-355.3" font-family="Times New Roman,serif" font-size="14.00">(5) AND</text>
</g>
<!-- node1&#45;&gt;node5 -->
<g id="edge1" class="edge"><title>node1&#45;&gt;node5</title>
<path fill="none" stroke="black" d="M83.8661,-351.211C98.7371,-352.387 115.756,-353.732 131.418,-354.97"/>
<polygon fill="black" stroke="black" points="131.233,-358.467 141.478,-355.766 131.784,-351.488 131.233,-358.467"/>
<text text-anchor="middle" x="112.493" y="-357.8" font-family="Times New Roman,serif" font-size="14.00"> (0)</text>
</g>
<!-- node6 -->
<g id="node7" class="node"><title>node6</title>
<ellipse fill="none" stroke="black" cx="183.389" cy="-253" rx="42.7926" ry="18"/>
<text text-anchor="middle" x="183.389" y="-249.3" font-family="Times New Roman,serif" font-size="14.00">(6) XOR</text>
</g>
<!-- node1&#45;&gt;node6 -->
<g id="edge4" class="edge"><title>node1&#45;&gt;node6</title>
<path fill="none" stroke="black" d="M72.1299,-335.26C87.6138,-327.895 106.7,-317.934 122.493,-307 135.275,-298.15 148.239,-286.817 158.82,-276.821"/>
<polygon fill="black" stroke="black" points="161.299,-279.293 166.068,-269.832 156.44,-274.254 161.299,-279.293"/>
<text text-anchor="middle" x="112.493" y="-321.8" font-family="Times New Roman,serif" font-size="14.00"> (1)</text>
</g>
<!-- node2 -->
<g id="node3" class="node"><title>node2</title>
<ellipse fill="none" stroke="black" cx="42.2463" cy="-118" rx="42.4939" ry="18"/>
<text text-anchor="middle" x="42.2463" y="-114.3" font-family="Times New Roman,serif" font-size="14.00">(2) Input</text>
</g>
<!-- node2&#45;&gt;node7 -->
<g id="edge6" class="edge"><title>node2&#45;&gt;node7</title>
<path fill="none" stroke="black" d="M82.5267,-123.966C95.7379,-126.984 110.226,-131.45 122.493,-138 136.605,-145.535 150.052,-157.102 160.616,-167.6"/>
<polygon fill="black" stroke="black" points="158.296,-170.235 167.768,-174.983 163.324,-165.365 158.296,-170.235"/>
<text text-anchor="middle" x="112.493" y="-141.8" font-family="Times New Roman,serif" font-size="14.00"> (1)</text>
</g>
<!-- node2&#45;&gt;node8 -->
<g id="edge7" class="edge"><title>node2&#45;&gt;node8</title>
<path fill="none" stroke="black" d="M74.8284,-106.526C83.661,-103.836 93.3478,-101.358 102.493,-100 114.845,-98.1649 128.18,-99.4982 140.35,-102.033"/>
<polygon fill="black" stroke="black" points="139.712,-105.479 150.252,-104.401 141.34,-98.671 139.712,-105.479"/>
<text text-anchor="middle" x="112.493" y="-103.8" font-family="Times New Roman,serif" font-size="14.00"> (0)</text>
</g>
<!-- node3 -->
<g id="node4" class="node"><title>node3</title>
<ellipse fill="none" stroke="black" cx="42.2463" cy="-272" rx="42.4939" ry="18"/>
<text text-anchor="middle" x="42.2463" y="-268.3" font-family="Times New Roman,serif" font-size="14.00">(3) Input</text>
</g>
<!-- node3&#45;&gt;node5 -->
<g id="edge2" class="edge"><title>node3&#45;&gt;node5</title>
<path fill="none" stroke="black" d="M82.9496,-277.223C96.1948,-280.181 110.596,-284.8 122.493,-292 139.515,-302.303 154.442,-318.968 165.137,-333.1"/>
<polygon fill="black" stroke="black" points="162.522,-335.456 171.23,-341.492 168.187,-331.343 162.522,-335.456"/>
<text text-anchor="middle" x="112.493" y="-295.8" font-family="Times New Roman,serif" font-size="14.00"> (1)</text>
</g>
<!-- node3&#45;&gt;node6 -->
<g id="edge3" class="edge"><title>node3&#45;&gt;node6</title>
<path fill="none" stroke="black" d="M75.1484,-260.508C83.8977,-257.854 93.4627,-255.399 102.493,-254 111.357,-252.626 120.841,-251.883 130.066,-251.539"/>
<polygon fill="black" stroke="black" points="130.405,-255.032 140.324,-251.308 130.248,-248.034 130.405,-255.032"/>
<text text-anchor="middle" x="112.493" y="-257.8" font-family="Times New Roman,serif" font-size="14.00"> (0)</text>
</g>
<!-- node4 -->
<g id="node5" class="node"><title>node4</title>
<ellipse fill="none" stroke="black" cx="42.2463" cy="-43" rx="42.4939" ry="18"/>
<text text-anchor="middle" x="42.2463" y="-39.3" font-family="Times New Roman,serif" font-size="14.00">(4) Input</text>
</g>
<!-- node9 -->
<g id="node10" class="node"><title>node9</title>
<ellipse fill="none" stroke="black" cx="329.731" cy="-88" rx="42.4939" ry="18"/>
<text text-anchor="middle" x="329.731" y="-84.3" font-family="Times New Roman,serif" font-size="14.00">(9) AND</text>
</g>
<!-- node4&#45;&gt;node9 -->
<g id="edge9" class="edge"><title>node4&#45;&gt;node9</title>
<path fill="none" stroke="black" d="M82.0451,-49.1157C133.282,-57.1921 223.545,-71.4199 279.523,-80.2435"/>
<polygon fill="black" stroke="black" points="279.136,-83.7256 289.559,-81.8254 280.226,-76.811 279.136,-83.7256"/>
<text text-anchor="middle" x="183.389" y="-74.8" font-family="Times New Roman,serif" font-size="14.00"> (0)</text>
</g>
<!-- node14 -->
<g id="node15" class="node"><title>node14</title>
<ellipse fill="none" stroke="black" cx="329.731" cy="-18" rx="47.3916" ry="18"/>
<text text-anchor="middle" x="329.731" y="-14.3" font-family="Times New Roman,serif" font-size="14.00">(14) XOR</text>
</g>
<!-- node4&#45;&gt;node14 -->
<g id="edge20" class="edge"><title>node4&#45;&gt;node14</title>
<path fill="none" stroke="black" d="M81.4676,-36.2006C99.343,-33.2532 120.952,-30.021 140.493,-28 184.53,-23.4454 234.591,-20.912 272.011,-19.5355"/>
<polygon fill="black" stroke="black" points="272.344,-23.026 282.215,-19.1772 272.098,-16.0304 272.344,-23.026"/>
<text text-anchor="middle" x="183.389" y="-31.8" font-family="Times New Roman,serif" font-size="14.00"> (1)</text>
</g>
<!-- node13 -->
<g id="node14" class="node"><title>node13</title>
<ellipse fill="none" stroke="black" cx="480.622" cy="-306" rx="40.8928" ry="18"/>
<text text-anchor="middle" x="480.622" y="-302.3" font-family="Times New Roman,serif" font-size="14.00">(13) OR</text>
</g>
<!-- node5&#45;&gt;node13 -->
<g id="edge18" class="edge"><title>node5&#45;&gt;node13</title>
<path fill="none" stroke="black" d="M224.839,-355.082C271.255,-350.077 349.438,-340.083 415.176,-324 421.924,-322.349 429.035,-320.488 435.973,-318.604"/>
<polygon fill="black" stroke="black" points="437.241,-321.884 445.949,-315.849 435.378,-315.137 437.241,-321.884"/>
<text text-anchor="middle" x="329.731" y="-350.8" font-family="Times New Roman,serif" font-size="14.00"> (1)</text>
</g>
<!-- node10 -->
<g id="node11" class="node"><title>node10</title>
<ellipse fill="none" stroke="black" cx="329.731" cy="-305" rx="46.5926" ry="18"/>
<text text-anchor="middle" x="329.731" y="-301.3" font-family="Times New Roman,serif" font-size="14.00">(10) AND</text>
</g>
<!-- node6&#45;&gt;node10 -->
<g id="edge11" class="edge"><title>node6&#45;&gt;node10</title>
<path fill="none" stroke="black" d="M199.297,-269.977C210.422,-281.331 226.685,-295.364 244.285,-302 253.454,-305.457 263.587,-307.315 273.557,-308.172"/>
<polygon fill="black" stroke="black" points="273.667,-311.683 283.841,-308.728 274.045,-304.693 273.667,-311.683"/>
<text text-anchor="middle" x="254.285" y="-310.8" font-family="Times New Roman,serif" font-size="14.00"> (0)</text>
</g>
<!-- node11 -->
<g id="node12" class="node"><title>node11</title>
<ellipse fill="none" stroke="black" cx="480.622" cy="-252" rx="46.5926" ry="18"/>
<text text-anchor="middle" x="480.622" y="-248.3" font-family="Times New Roman,serif" font-size="14.00">(11) AND</text>
</g>
<!-- node6&#45;&gt;node11 -->
<g id="edge14" class="edge"><title>node6&#45;&gt;node11</title>
<path fill="none" stroke="black" d="M226.375,-252.858C278.037,-252.683 365.946,-252.385 423.401,-252.19"/>
<polygon fill="black" stroke="black" points="423.418,-255.69 433.406,-252.157 423.394,-248.691 423.418,-255.69"/>
<text text-anchor="middle" x="329.731" y="-255.8" font-family="Times New Roman,serif" font-size="14.00"> (1)</text>
</g>
<!-- node12 -->
<g id="node13" class="node"><title>node12</title>
<ellipse fill="none" stroke="black" cx="480.622" cy="-139" rx="47.3916" ry="18"/>
<text text-anchor="middle" x="480.622" y="-135.3" font-family="Times New Roman,serif" font-size="14.00">(12) XOR</text>
</g>
<!-- node6&#45;&gt;node12 -->
<g id="edge16" class="edge"><title>node6&#45;&gt;node12</title>
<path fill="none" stroke="black" d="M212.574,-239.609C252.582,-220.914 328.408,-186.635 395.176,-163 406.626,-158.947 419.13,-155.092 430.922,-151.704"/>
<polygon fill="black" stroke="black" points="431.944,-155.053 440.622,-148.974 430.047,-148.314 431.944,-155.053"/>
<text text-anchor="middle" x="329.731" y="-211.8" font-family="Times New Roman,serif" font-size="14.00"> (1)</text>
</g>
<!-- node7&#45;&gt;node10 -->
<g id="edge12" class="edge"><title>node7&#45;&gt;node10</title>
<path fill="none" stroke="black" d="M204.017,-207.889C211.049,-213.592 219.029,-220.076 226.285,-226 251.234,-246.37 256.697,-252.438 282.285,-272 287.118,-275.695 292.309,-279.519 297.408,-283.197"/>
<polygon fill="black" stroke="black" points="295.648,-286.241 305.821,-289.2 299.714,-280.542 295.648,-286.241"/>
<text text-anchor="middle" x="254.285" y="-261.8" font-family="Times New Roman,serif" font-size="14.00"> (1)</text>
</g>
<!-- node16 -->
<g id="node17" class="node"><title>node16</title>
<ellipse fill="none" stroke="black" cx="631.514" cy="-170" rx="47.3916" ry="18"/>
<text text-anchor="middle" x="631.514" y="-166.3" font-family="Times New Roman,serif" font-size="14.00">(16) XOR</text>
</g>
<!-- node7&#45;&gt;node16 -->
<g id="edge24" class="edge"><title>node7&#45;&gt;node16</title>
<path fill="none" stroke="black" d="M225.559,-189.97C305.733,-186.016 482.906,-177.279 574,-172.787"/>
<polygon fill="black" stroke="black" points="574.322,-176.275 584.138,-172.287 573.977,-169.284 574.322,-176.275"/>
<text text-anchor="middle" x="405.176" y="-184.8" font-family="Times New Roman,serif" font-size="14.00"> (1)</text>
</g>
<!-- node8&#45;&gt;node9 -->
<g id="edge10" class="edge"><title>node8&#45;&gt;node9</title>
<path fill="none" stroke="black" d="M222.691,-108.57C240.531,-105.109 261.943,-100.956 280.84,-97.2899"/>
<polygon fill="black" stroke="black" points="281.6,-100.708 290.75,-95.3675 280.267,-93.836 281.6,-100.708"/>
<text text-anchor="middle" x="254.285" y="-106.8" font-family="Times New Roman,serif" font-size="14.00"> (1)</text>
</g>
<!-- node8&#45;&gt;node14 -->
<g id="edge19" class="edge"><title>node8&#45;&gt;node14</title>
<path fill="none" stroke="black" d="M206.942,-100.688C231.125,-84.2689 269.713,-58.0698 296.963,-39.5686"/>
<polygon fill="black" stroke="black" points="299.072,-42.3671 305.379,-33.8543 295.14,-36.5758 299.072,-42.3671"/>
<text text-anchor="middle" x="254.285" y="-75.8" font-family="Times New Roman,serif" font-size="14.00"> (0)</text>
</g>
<!-- node9&#45;&gt;node11 -->
<g id="edge13" class="edge"><title>node9&#45;&gt;node11</title>
<path fill="none" stroke="black" d="M357.778,-101.698C365.048,-106.568 372.251,-112.692 377.176,-120 397.789,-150.58 373.657,-171.052 395.176,-201 405.605,-215.513 421.561,-226.668 436.807,-234.791"/>
<polygon fill="black" stroke="black" points="435.642,-238.121 446.152,-239.46 438.771,-231.859 435.642,-238.121"/>
<text text-anchor="middle" x="405.176" y="-222.8" font-family="Times New Roman,serif" font-size="14.00"> (0)</text>
</g>
<!-- node9&#45;&gt;node12 -->
<g id="edge15" class="edge"><title>node9&#45;&gt;node12</title>
<path fill="none" stroke="black" d="M365.893,-97.5954C381.148,-101.967 399.152,-107.41 415.176,-113 422.951,-115.712 431.161,-118.826 439.021,-121.935"/>
<polygon fill="black" stroke="black" points="437.799,-125.216 448.383,-125.697 440.409,-118.721 437.799,-125.216"/>
<text text-anchor="middle" x="405.176" y="-116.8" font-family="Times New Roman,serif" font-size="14.00"> (0)</text>
</g>
<!-- node10&#45;&gt;node13 -->
<g id="edge17" class="edge"><title>node10&#45;&gt;node13</title>
<path fill="none" stroke="black" d="M376.618,-305.308C393.317,-305.42 412.276,-305.548 429.336,-305.662"/>
<polygon fill="black" stroke="black" points="429.653,-309.164 439.676,-305.732 429.7,-302.165 429.653,-309.164"/>
<text text-anchor="middle" x="405.176" y="-308.8" font-family="Times New Roman,serif" font-size="14.00"> (0)</text>
</g>
<!-- node15 -->
<g id="node16" class="node"><title>node15</title>
<ellipse fill="none" stroke="black" cx="631.514" cy="-275" rx="47.3916" ry="18"/>
<text text-anchor="middle" x="631.514" y="-271.3" font-family="Times New Roman,serif" font-size="14.00">(15) XOR</text>
</g>
<!-- node11&#45;&gt;node15 -->
<g id="edge22" class="edge"><title>node11&#45;&gt;node15</title>
<path fill="none" stroke="black" d="M524.584,-258.604C537.882,-260.65 552.581,-262.916 566.068,-265 569.694,-265.56 573.435,-266.139 577.203,-266.723"/>
<polygon fill="black" stroke="black" points="576.765,-270.196 587.183,-268.269 577.836,-263.279 576.765,-270.196"/>
<text text-anchor="middle" x="556.068" y="-268.8" font-family="Times New Roman,serif" font-size="14.00"> (1)</text>
</g>
<!-- node12&#45;&gt;node16 -->
<g id="edge23" class="edge"><title>node12&#45;&gt;node16</title>
<path fill="none" stroke="black" d="M523.311,-147.261C536.948,-149.999 552.162,-153.09 566.068,-156 570.538,-156.935 575.181,-157.919 579.832,-158.914"/>
<polygon fill="black" stroke="black" points="579.455,-162.413 589.968,-161.093 580.927,-155.569 579.455,-162.413"/>
<text text-anchor="middle" x="556.068" y="-159.8" font-family="Times New Roman,serif" font-size="14.00"> (0)</text>
</g>
<!-- node13&#45;&gt;node15 -->
<g id="edge21" class="edge"><title>node13&#45;&gt;node15</title>
<path fill="none" stroke="black" d="M518.045,-298.417C536.531,-294.568 559.293,-289.829 579.492,-285.623"/>
<polygon fill="black" stroke="black" points="580.402,-289.009 589.478,-283.544 578.975,-282.156 580.402,-289.009"/>
<text text-anchor="middle" x="556.068" y="-295.8" font-family="Times New Roman,serif" font-size="14.00"> (0)</text>
</g>
<!-- node17 -->
<g id="node18" class="node"><title>node17</title>
<ellipse fill="none" stroke="black" cx="758.856" cy="-18" rx="42.7926" ry="18"/>
<text text-anchor="middle" x="758.856" y="-14.3" font-family="Times New Roman,serif" font-size="14.00">Output 0</text>
</g>
<!-- node14&#45;&gt;node17 -->
<g id="edge25" class="edge"><title>node14&#45;&gt;node17</title>
<path fill="none" stroke="black" d="M377.254,-18C457.578,-18 621.719,-18 705.753,-18"/>
<polygon fill="black" stroke="black" points="705.838,-21.5001 715.838,-18 705.838,-14.5001 705.838,-21.5001"/>
</g>
<!-- node19 -->
<g id="node20" class="node"><title>node19</title>
<ellipse fill="none" stroke="black" cx="758.856" cy="-275" rx="42.7926" ry="18"/>
<text text-anchor="middle" x="758.856" y="-271.3" font-family="Times New Roman,serif" font-size="14.00">Output 2</text>
</g>
<!-- node15&#45;&gt;node19 -->
<g id="edge27" class="edge"><title>node15&#45;&gt;node19</title>
<path fill="none" stroke="black" d="M679.187,-275C687.791,-275 696.827,-275 705.584,-275"/>
<polygon fill="black" stroke="black" points="705.694,-278.5 715.694,-275 705.694,-271.5 705.694,-278.5"/>
</g>
<!-- node18 -->
<g id="node19" class="node"><title>node18</title>
<ellipse fill="none" stroke="black" cx="758.856" cy="-170" rx="42.7926" ry="18"/>
<text text-anchor="middle" x="758.856" y="-166.3" font-family="Times New Roman,serif" font-size="14.00">Output 1</text>
</g>
<!-- node16&#45;&gt;node18 -->
<g id="edge26" class="edge"><title>node16&#45;&gt;node18</title>
<path fill="none" stroke="black" d="M679.187,-170C687.791,-170 696.827,-170 705.584,-170"/>
<polygon fill="black" stroke="black" points="705.694,-173.5 715.694,-170 705.694,-166.5 705.694,-173.5"/>
</g>
</g>
</svg>
