<?xml version="1.0" encoding="UTF-8" standalone="no"?>
<!DOCTYPE svg PUBLIC "-//W3C//DTD SVG 1.1//EN"
 "http://www.w3.org/Graphics/SVG/1.1/DTD/svg11.dtd">
<!-- Generated by graphviz version 2.38.0 (20140413.2041)
 -->
<!-- Title: NeuralNetwork Pages: 1 -->
<svg width="288pt" height="177pt"
 viewBox="0.00 0.00 288.00 176.51" xmlns="http://www.w3.org/2000/svg" xmlns:xlink="http://www.w3.org/1999/xlink">
<g id="graph0" class="graph" transform="scale(0.202657 0.202657) rotate(0) translate(4 867)">
<title>NeuralNetwork</title>
<polygon fill="white" stroke="none" points="-4,4 -4,-867 1417.12,-867 1417.12,4 -4,4"/>
<!-- node0 -->
<g id="node1" class="node"><title>node0</title>
<ellipse fill="none" stroke="black" cx="42.2463" cy="-786" rx="42.4939" ry="18"/>
<text text-anchor="middle" x="42.2463" y="-782.3" font-family="Times New Roman,serif" font-size="14.00">(0) Input</text>
</g>
<!-- node9 -->
<g id="node10" class="node"><title>node9</title>
<ellipse fill="none" stroke="black" cx="187.938" cy="-704" rx="42.7926" ry="18"/>
<text text-anchor="middle" x="187.938" y="-700.3" font-family="Times New Roman,serif" font-size="14.00">(9) XOR</text>
</g>
<!-- node0&#45;&gt;node9 -->
<g id="edge1" class="edge"><title>node0&#45;&gt;node9</title>
<path fill="none" stroke="black" d="M76.1376,-775.078C91.0713,-769.241 108.486,-761.147 122.493,-751 132.177,-743.984 131.211,-738.541 140.493,-731 143.832,-728.287 147.475,-725.676 151.205,-723.217"/>
<polygon fill="black" stroke="black" points="153.312,-726.028 159.963,-717.78 149.621,-720.081 153.312,-726.028"/>
<text text-anchor="middle" x="112.493" y="-765.8" font-family="Times New Roman,serif" font-size="14.00"> (0)</text>
</g>
<!-- node26 -->
<g id="node27" class="node"><title>node26</title>
<ellipse fill="none" stroke="black" cx="338.83" cy="-797" rx="47.3916" ry="18"/>
<text text-anchor="middle" x="338.83" y="-793.3" font-family="Times New Roman,serif" font-size="14.00">(26) XOR</text>
</g>
<!-- node0&#45;&gt;node26 -->
<g id="edge34" class="edge"><title>node0&#45;&gt;node26</title>
<path fill="none" stroke="black" d="M84.2877,-789.038C126.623,-792.009 194.576,-796.322 253.384,-798 262.269,-798.253 264.495,-798.069 273.384,-798 275.93,-797.98 278.532,-797.956 281.16,-797.929"/>
<polygon fill="black" stroke="black" points="281.408,-801.426 291.365,-797.807 281.324,-794.426 281.408,-801.426"/>
<text text-anchor="middle" x="187.938" y="-800.8" font-family="Times New Roman,serif" font-size="14.00"> (0)</text>
</g>
<!-- node1 -->
<g id="node2" class="node"><title>node1</title>
<ellipse fill="none" stroke="black" cx="42.2463" cy="-561" rx="42.4939" ry="18"/>
<text text-anchor="middle" x="42.2463" y="-557.3" font-family="Times New Roman,serif" font-size="14.00">(1) Input</text>
</g>
<!-- node11 -->
<g id="node12" class="node"><title>node11</title>
<ellipse fill="none" stroke="black" cx="187.938" cy="-510" rx="47.3916" ry="18"/>
<text text-anchor="middle" x="187.938" y="-506.3" font-family="Times New Roman,serif" font-size="14.00">(11) XOR</text>
</g>
<!-- node1&#45;&gt;node11 -->
<g id="edge5" class="edge"><title>node1&#45;&gt;node11</title>
<path fill="none" stroke="black" d="M74.5559,-549.209C83.5579,-545.864 93.4001,-542.249 102.493,-539 115.404,-534.386 129.475,-529.499 142.362,-525.078"/>
<polygon fill="black" stroke="black" points="143.618,-528.347 151.948,-521.8 141.353,-521.724 143.618,-528.347"/>
<text text-anchor="middle" x="112.493" y="-542.8" font-family="Times New Roman,serif" font-size="14.00"> (0)</text>
</g>
<!-- node17 -->
<g id="node18" class="node"><title>node17</title>
<ellipse fill="none" stroke="black" cx="338.83" cy="-528" rx="40.8928" ry="18"/>
<text text-anchor="middle" x="338.83" y="-524.3" font-family="Times New Roman,serif" font-size="14.00">(17) OR</text>
</g>
<!-- node1&#45;&gt;node17 -->
<g id="edge17" class="edge"><title>node1&#45;&gt;node17</title>
<path fill="none" stroke="black" d="M84.072,-557.669C130.145,-553.737 207.29,-546.627 273.384,-538 278.787,-537.295 284.436,-536.501 290.048,-535.678"/>
<polygon fill="black" stroke="black" points="290.679,-539.122 300.048,-534.175 289.638,-532.2 290.679,-539.122"/>
<text text-anchor="middle" x="187.938" y="-555.8" font-family="Times New Roman,serif" font-size="14.00"> (1)</text>
</g>
<!-- node2 -->
<g id="node3" class="node"><title>node2</title>
<ellipse fill="none" stroke="black" cx="42.2463" cy="-298" rx="42.4939" ry="18"/>
<text text-anchor="middle" x="42.2463" y="-294.3" font-family="Times New Roman,serif" font-size="14.00">(2) Input</text>
</g>
<!-- node13 -->
<g id="node14" class="node"><title>node13</title>
<ellipse fill="none" stroke="black" cx="187.938" cy="-113" rx="46.5926" ry="18"/>
<text text-anchor="middle" x="187.938" y="-109.3" font-family="Times New Roman,serif" font-size="14.00">(13) AND</text>
</g>
<!-- node2&#45;&gt;node13 -->
<g id="edge9" class="edge"><title>node2&#45;&gt;node13</title>
<path fill="none" stroke="black" d="M53.9308,-280.579C79.0412,-239.646 139.761,-140.713 140.493,-140 143.189,-137.371 146.19,-134.899 149.332,-132.601"/>
<polygon fill="black" stroke="black" points="151.474,-135.381 157.869,-126.934 147.602,-129.549 151.474,-135.381"/>
<text text-anchor="middle" x="112.493" y="-204.8" font-family="Times New Roman,serif" font-size="14.00"> (0)</text>
</g>
<!-- node16 -->
<g id="node17" class="node"><title>node16</title>
<ellipse fill="none" stroke="black" cx="187.938" cy="-311" rx="46.2923" ry="18"/>
<text text-anchor="middle" x="187.938" y="-307.3" font-family="Times New Roman,serif" font-size="14.00">(16) NEG</text>
</g>
<!-- node2&#45;&gt;node16 -->
<g id="edge15" class="edge"><title>node2&#45;&gt;node16</title>
<path fill="none" stroke="black" d="M84.4508,-297.182C96.7161,-297.299 110.169,-297.784 122.493,-299 127.267,-299.471 132.217,-300.112 137.154,-300.855"/>
<polygon fill="black" stroke="black" points="136.779,-304.34 147.213,-302.5 137.909,-297.432 136.779,-304.34"/>
<text text-anchor="middle" x="112.493" y="-302.8" font-family="Times New Roman,serif" font-size="14.00"> (0)</text>
</g>
<!-- node21 -->
<g id="node22" class="node"><title>node21</title>
<ellipse fill="none" stroke="black" cx="187.938" cy="-385" rx="47.3916" ry="18"/>
<text text-anchor="middle" x="187.938" y="-381.3" font-family="Times New Roman,serif" font-size="14.00">(21) XOR</text>
</g>
<!-- node2&#45;&gt;node21 -->
<g id="edge24" class="edge"><title>node2&#45;&gt;node21</title>
<path fill="none" stroke="black" d="M58.5209,-314.882C69.7742,-326.533 85.9414,-341.719 102.493,-352 114.213,-359.28 127.808,-365.444 140.619,-370.402"/>
<polygon fill="black" stroke="black" points="139.626,-373.766 150.219,-373.957 142.057,-367.202 139.626,-373.766"/>
<text text-anchor="middle" x="112.493" y="-366.8" font-family="Times New Roman,serif" font-size="14.00"> (0)</text>
</g>
<!-- node3 -->
<g id="node4" class="node"><title>node3</title>
<ellipse fill="none" stroke="black" cx="42.2463" cy="-153" rx="42.4939" ry="18"/>
<text text-anchor="middle" x="42.2463" y="-149.3" font-family="Times New Roman,serif" font-size="14.00">(3) Input</text>
</g>
<!-- node10 -->
<g id="node11" class="node"><title>node10</title>
<ellipse fill="none" stroke="black" cx="187.938" cy="-59" rx="47.3916" ry="18"/>
<text text-anchor="middle" x="187.938" y="-55.3" font-family="Times New Roman,serif" font-size="14.00">(10) XOR</text>
</g>
<!-- node3&#45;&gt;node10 -->
<g id="edge3" class="edge"><title>node3&#45;&gt;node10</title>
<path fill="none" stroke="black" d="M64.1253,-137.342C75.3689,-129.039 89.5514,-118.77 102.493,-110 119.029,-98.7943 123.411,-96.3546 140.493,-86 144.171,-83.7699 148.032,-81.467 151.891,-79.1898"/>
<polygon fill="black" stroke="black" points="153.941,-82.0447 160.8,-73.9695 150.403,-76.005 153.941,-82.0447"/>
<text text-anchor="middle" x="112.493" y="-113.8" font-family="Times New Roman,serif" font-size="14.00"> (0)</text>
</g>
<!-- node12 -->
<g id="node13" class="node"><title>node12</title>
<ellipse fill="none" stroke="black" cx="187.938" cy="-167" rx="40.8928" ry="18"/>
<text text-anchor="middle" x="187.938" y="-163.3" font-family="Times New Roman,serif" font-size="14.00">(12) OR</text>
</g>
<!-- node3&#45;&gt;node12 -->
<g id="edge8" class="edge"><title>node3&#45;&gt;node12</title>
<path fill="none" stroke="black" d="M84.4627,-152.066C96.7283,-152.18 110.179,-152.692 122.493,-154 128.675,-154.657 135.144,-155.623 141.497,-156.736"/>
<polygon fill="black" stroke="black" points="140.855,-160.177 151.329,-158.585 142.148,-153.297 140.855,-160.177"/>
<text text-anchor="middle" x="112.493" y="-157.8" font-family="Times New Roman,serif" font-size="14.00"> (1)</text>
</g>
<!-- node3&#45;&gt;node13 -->
<g id="edge10" class="edge"><title>node3&#45;&gt;node13</title>
<path fill="none" stroke="black" d="M76.0326,-142.056C84.6093,-139.311 93.8689,-136.452 102.493,-134 113.731,-130.804 125.887,-127.623 137.38,-124.738"/>
<polygon fill="black" stroke="black" points="138.406,-128.09 147.27,-122.287 136.722,-121.296 138.406,-128.09"/>
<text text-anchor="middle" x="112.493" y="-137.8" font-family="Times New Roman,serif" font-size="14.00"> (1)</text>
</g>
<!-- node29 -->
<g id="node30" class="node"><title>node29</title>
<ellipse fill="none" stroke="black" cx="338.83" cy="-222" rx="47.3916" ry="18"/>
<text text-anchor="middle" x="338.83" y="-218.3" font-family="Times New Roman,serif" font-size="14.00">(29) XOR</text>
</g>
<!-- node3&#45;&gt;node29 -->
<g id="edge41" class="edge"><title>node3&#45;&gt;node29</title>
<path fill="none" stroke="black" d="M56.5255,-170.206C67.3764,-182.839 83.9164,-199.116 102.493,-207 160.546,-231.639 233.945,-232.057 283.202,-228.482"/>
<polygon fill="black" stroke="black" points="283.646,-231.958 293.332,-227.666 283.083,-224.98 283.646,-231.958"/>
<text text-anchor="middle" x="187.938" y="-234.8" font-family="Times New Roman,serif" font-size="14.00"> (1)</text>
</g>
<!-- node30 -->
<g id="node31" class="node"><title>node30</title>
<ellipse fill="none" stroke="black" cx="790.205" cy="-287" rx="47.3916" ry="18"/>
<text text-anchor="middle" x="790.205" y="-283.3" font-family="Times New Roman,serif" font-size="14.00">(30) XOR</text>
</g>
<!-- node3&#45;&gt;node30 -->
<g id="edge42" class="edge"><title>node3&#45;&gt;node30</title>
<path fill="none" stroke="black" d="M54.1087,-170.554C69.7998,-194.001 101.274,-234.398 140.493,-250 223.187,-282.897 248.832,-284 337.83,-284 337.83,-284 337.83,-284 566.167,-284 622.752,-284 687.404,-284.977 732.48,-285.816"/>
<polygon fill="black" stroke="black" points="732.58,-289.319 742.645,-286.009 732.713,-282.32 732.58,-289.319"/>
<text text-anchor="middle" x="414.276" y="-287.8" font-family="Times New Roman,serif" font-size="14.00"> (0)</text>
</g>
<!-- node4 -->
<g id="node5" class="node"><title>node4</title>
<ellipse fill="none" stroke="black" cx="42.2463" cy="-845" rx="42.4939" ry="18"/>
<text text-anchor="middle" x="42.2463" y="-841.3" font-family="Times New Roman,serif" font-size="14.00">(4) Input</text>
</g>
<!-- node18 -->
<g id="node19" class="node"><title>node18</title>
<ellipse fill="none" stroke="black" cx="187.938" cy="-758" rx="47.3916" ry="18"/>
<text text-anchor="middle" x="187.938" y="-754.3" font-family="Times New Roman,serif" font-size="14.00">(18) XOR</text>
</g>
<!-- node4&#45;&gt;node18 -->
<g id="edge19" class="edge"><title>node4&#45;&gt;node18</title>
<path fill="none" stroke="black" d="M67.2971,-830.438C90.7384,-816.245 126.603,-794.531 152.954,-778.576"/>
<polygon fill="black" stroke="black" points="155.101,-781.368 161.842,-773.195 151.475,-775.38 155.101,-781.368"/>
<text text-anchor="middle" x="112.493" y="-809.8" font-family="Times New Roman,serif" font-size="14.00"> (1)</text>
</g>
<!-- node5 -->
<g id="node6" class="node"><title>node5</title>
<ellipse fill="none" stroke="black" cx="42.2463" cy="-500" rx="42.4939" ry="18"/>
<text text-anchor="middle" x="42.2463" y="-496.3" font-family="Times New Roman,serif" font-size="14.00">(5) Input</text>
</g>
<!-- node5&#45;&gt;node11 -->
<g id="edge6" class="edge"><title>node5&#45;&gt;node11</title>
<path fill="none" stroke="black" d="M84.8293,-499.539C96.9834,-499.671 110.282,-500.074 122.493,-501 126.143,-501.277 129.902,-501.628 133.683,-502.03"/>
<polygon fill="black" stroke="black" points="133.349,-505.514 143.687,-503.196 134.16,-498.561 133.349,-505.514"/>
<text text-anchor="middle" x="112.493" y="-504.8" font-family="Times New Roman,serif" font-size="14.00"> (1)</text>
</g>
<!-- node6 -->
<g id="node7" class="node"><title>node6</title>
<ellipse fill="none" stroke="black" cx="42.2463" cy="-427" rx="42.4939" ry="18"/>
<text text-anchor="middle" x="42.2463" y="-423.3" font-family="Times New Roman,serif" font-size="14.00">(6) Input</text>
</g>
<!-- node6&#45;&gt;node12 -->
<g id="edge7" class="edge"><title>node6&#45;&gt;node12</title>
<path fill="none" stroke="black" d="M52.5376,-409.497C63.3064,-389.936 82.1906,-357.764 102.493,-333 110.266,-323.518 116.797,-324.857 122.493,-314 146.526,-268.188 112.952,-242.793 140.493,-199 143.425,-194.337 147.311,-190.179 151.59,-186.528"/>
<polygon fill="black" stroke="black" points="153.709,-189.314 159.596,-180.505 149.5,-183.72 153.709,-189.314"/>
<text text-anchor="middle" x="112.493" y="-336.8" font-family="Times New Roman,serif" font-size="14.00"> (0)</text>
</g>
<!-- node6&#45;&gt;node21 -->
<g id="edge25" class="edge"><title>node6&#45;&gt;node21</title>
<path fill="none" stroke="black" d="M77.6641,-416.94C96.3582,-411.476 119.743,-404.641 140.077,-398.697"/>
<polygon fill="black" stroke="black" points="141.164,-402.026 149.781,-395.861 139.2,-395.307 141.164,-402.026"/>
<text text-anchor="middle" x="112.493" y="-412.8" font-family="Times New Roman,serif" font-size="14.00"> (1)</text>
</g>
<!-- node23 -->
<g id="node24" class="node"><title>node23</title>
<ellipse fill="none" stroke="black" cx="489.721" cy="-385" rx="47.3916" ry="18"/>
<text text-anchor="middle" x="489.721" y="-381.3" font-family="Times New Roman,serif" font-size="14.00">(23) XOR</text>
</g>
<!-- node6&#45;&gt;node23 -->
<g id="edge29" class="edge"><title>node6&#45;&gt;node23</title>
<path fill="none" stroke="black" d="M84.402,-428.628C96.6659,-428.814 110.13,-428.723 122.493,-428 234.268,-421.461 364.255,-403.786 435.396,-393.244"/>
<polygon fill="black" stroke="black" points="436.083,-396.68 445.457,-391.742 435.05,-389.757 436.083,-396.68"/>
<text text-anchor="middle" x="263.384" y="-420.8" font-family="Times New Roman,serif" font-size="14.00"> (1)</text>
</g>
<!-- node33 -->
<g id="node34" class="node"><title>node33</title>
<ellipse fill="none" stroke="black" cx="489.721" cy="-609" rx="40.8928" ry="18"/>
<text text-anchor="middle" x="489.721" y="-605.3" font-family="Times New Roman,serif" font-size="14.00">(33) OR</text>
</g>
<!-- node6&#45;&gt;node33 -->
<g id="edge49" class="edge"><title>node6&#45;&gt;node33</title>
<path fill="none" stroke="black" d="M67.3095,-441.604C85.2106,-453.716 108.818,-472.55 122.493,-495 140.55,-524.646 116.122,-546.282 140.493,-571 220.318,-651.964 369.274,-634.939 443.815,-619.866"/>
<polygon fill="black" stroke="black" points="444.757,-623.245 453.824,-617.763 443.318,-616.394 444.757,-623.245"/>
<text text-anchor="middle" x="263.384" y="-632.8" font-family="Times New Roman,serif" font-size="14.00"> (1)</text>
</g>
<!-- node7 -->
<g id="node8" class="node"><title>node7</title>
<ellipse fill="none" stroke="black" cx="42.2463" cy="-18" rx="42.4939" ry="18"/>
<text text-anchor="middle" x="42.2463" y="-14.3" font-family="Times New Roman,serif" font-size="14.00">(7) Input</text>
</g>
<!-- node7&#45;&gt;node10 -->
<g id="edge4" class="edge"><title>node7&#45;&gt;node10</title>
<path fill="none" stroke="black" d="M78.8373,-27.0925C92.5206,-30.6769 108.267,-34.9096 122.493,-39 128.551,-40.742 134.91,-42.6354 141.176,-44.5396"/>
<polygon fill="black" stroke="black" points="140.301,-47.9322 150.888,-47.5204 142.355,-41.2403 140.301,-47.9322"/>
<text text-anchor="middle" x="112.493" y="-42.8" font-family="Times New Roman,serif" font-size="14.00"> (1)</text>
</g>
<!-- node15 -->
<g id="node16" class="node"><title>node15</title>
<ellipse fill="none" stroke="black" cx="338.83" cy="-76" rx="46.5926" ry="18"/>
<text text-anchor="middle" x="338.83" y="-72.3" font-family="Times New Roman,serif" font-size="14.00">(15) AND</text>
</g>
<!-- node7&#45;&gt;node15 -->
<g id="edge14" class="edge"><title>node7&#45;&gt;node15</title>
<path fill="none" stroke="black" d="M81.6982,-11.4366C121.145,-6.16305 183.855,-1.86572 235.384,-17 263.773,-25.3379 265.642,-38.4122 291.384,-53 294.038,-54.5042 296.804,-56.0134 299.606,-57.4999"/>
<polygon fill="black" stroke="black" points="298.09,-60.6564 308.581,-62.1365 301.303,-54.4372 298.09,-60.6564"/>
<text text-anchor="middle" x="187.938" y="-20.8" font-family="Times New Roman,serif" font-size="14.00"> (1)</text>
</g>
<!-- node8 -->
<g id="node9" class="node"><title>node8</title>
<ellipse fill="none" stroke="black" cx="42.2463" cy="-704" rx="42.4939" ry="18"/>
<text text-anchor="middle" x="42.2463" y="-700.3" font-family="Times New Roman,serif" font-size="14.00">(8) Input</text>
</g>
<!-- node8&#45;&gt;node9 -->
<g id="edge2" class="edge"><title>node8&#45;&gt;node9</title>
<path fill="none" stroke="black" d="M84.8079,-704C100.458,-704 118.454,-704 134.938,-704"/>
<polygon fill="black" stroke="black" points="134.972,-707.5 144.972,-704 134.972,-700.5 134.972,-707.5"/>
<text text-anchor="middle" x="112.493" y="-707.8" font-family="Times New Roman,serif" font-size="14.00"> (1)</text>
</g>
<!-- node14 -->
<g id="node15" class="node"><title>node14</title>
<ellipse fill="none" stroke="black" cx="338.83" cy="-582" rx="47.3916" ry="18"/>
<text text-anchor="middle" x="338.83" y="-578.3" font-family="Times New Roman,serif" font-size="14.00">(14) XOR</text>
</g>
<!-- node8&#45;&gt;node14 -->
<g id="edge11" class="edge"><title>node8&#45;&gt;node14</title>
<path fill="none" stroke="black" d="M70.2654,-690.274C89.4296,-681.053 115.994,-669.298 140.493,-662 197.939,-644.886 219.352,-664.952 273.384,-639 289.51,-631.255 304.652,-618.281 316.202,-606.666"/>
<polygon fill="black" stroke="black" points="318.866,-608.945 323.248,-599.298 313.807,-604.107 318.866,-608.945"/>
<text text-anchor="middle" x="187.938" y="-665.8" font-family="Times New Roman,serif" font-size="14.00"> (0)</text>
</g>
<!-- node8&#45;&gt;node18 -->
<g id="edge18" class="edge"><title>node8&#45;&gt;node18</title>
<path fill="none" stroke="black" d="M74.4253,-715.717C94.7732,-723.364 121.61,-733.449 143.97,-741.853"/>
<polygon fill="black" stroke="black" points="142.975,-745.218 153.567,-745.459 145.438,-738.665 142.975,-745.218"/>
<text text-anchor="middle" x="112.493" y="-735.8" font-family="Times New Roman,serif" font-size="14.00"> (0)</text>
</g>
<!-- node20 -->
<g id="node21" class="node"><title>node20</title>
<ellipse fill="none" stroke="black" cx="338.83" cy="-704" rx="46.5926" ry="18"/>
<text text-anchor="middle" x="338.83" y="-700.3" font-family="Times New Roman,serif" font-size="14.00">(20) AND</text>
</g>
<!-- node9&#45;&gt;node20 -->
<g id="edge23" class="edge"><title>node9&#45;&gt;node20</title>
<path fill="none" stroke="black" d="M231.206,-704C246.87,-704 264.887,-704 281.599,-704"/>
<polygon fill="black" stroke="black" points="281.803,-707.5 291.803,-704 281.803,-700.5 281.803,-707.5"/>
<text text-anchor="middle" x="263.384" y="-707.8" font-family="Times New Roman,serif" font-size="14.00"> (1)</text>
</g>
<!-- node22 -->
<g id="node23" class="node"><title>node22</title>
<ellipse fill="none" stroke="black" cx="338.83" cy="-130" rx="46.5926" ry="18"/>
<text text-anchor="middle" x="338.83" y="-126.3" font-family="Times New Roman,serif" font-size="14.00">(22) AND</text>
</g>
<!-- node10&#45;&gt;node22 -->
<g id="edge27" class="edge"><title>node10&#45;&gt;node22</title>
<path fill="none" stroke="black" d="M215.145,-73.858C221.795,-77.7311 228.893,-81.955 235.384,-86 243.544,-91.0851 244.834,-93.6018 253.384,-98 265.716,-104.344 279.607,-110.124 292.509,-114.973"/>
<polygon fill="black" stroke="black" points="291.545,-118.347 302.139,-118.493 293.948,-111.772 291.545,-118.347"/>
<text text-anchor="middle" x="263.384" y="-111.8" font-family="Times New Roman,serif" font-size="14.00"> (1)</text>
</g>
<!-- node35 -->
<g id="node36" class="node"><title>node35</title>
<ellipse fill="none" stroke="black" cx="1091.99" cy="-403" rx="47.3916" ry="18"/>
<text text-anchor="middle" x="1091.99" y="-399.3" font-family="Times New Roman,serif" font-size="14.00">(35) XOR</text>
</g>
<!-- node10&#45;&gt;node35 -->
<g id="edge53" class="edge"><title>node10&#45;&gt;node35</title>
<path fill="none" stroke="black" d="M219.014,-72.7303C224.966,-76.4242 230.787,-80.852 235.384,-86 248.64,-100.844 241.212,-111.255 253.384,-127 266.545,-144.024 271.801,-148.082 291.384,-157 347.596,-182.598 789.948,-220.764 837.651,-260 854.287,-273.684 840.527,-289.662 855.651,-305 883.099,-332.838 984.739,-368.925 1045.1,-388.618"/>
<polygon fill="black" stroke="black" points="1044.19,-392.001 1054.78,-391.751 1046.34,-385.341 1044.19,-392.001"/>
<text text-anchor="middle" x="639.963" y="-225.8" font-family="Times New Roman,serif" font-size="14.00"> (1)</text>
</g>
<!-- node11&#45;&gt;node14 -->
<g id="edge12" class="edge"><title>node11&#45;&gt;node14</title>
<path fill="none" stroke="black" d="M218,-524.053C241.365,-535.352 274.376,-551.315 299.836,-563.627"/>
<polygon fill="black" stroke="black" points="298.316,-566.78 308.842,-567.982 301.363,-560.478 298.316,-566.78"/>
<text text-anchor="middle" x="263.384" y="-553.8" font-family="Times New Roman,serif" font-size="14.00"> (1)</text>
</g>
<!-- node11&#45;&gt;node17 -->
<g id="edge16" class="edge"><title>node11&#45;&gt;node17</title>
<path fill="none" stroke="black" d="M233.611,-515.401C251.164,-517.523 271.361,-519.964 289.274,-522.13"/>
<polygon fill="black" stroke="black" points="288.891,-525.609 299.238,-523.335 289.731,-518.66 288.891,-525.609"/>
<text text-anchor="middle" x="263.384" y="-523.8" font-family="Times New Roman,serif" font-size="14.00"> (0)</text>
</g>
<!-- node27 -->
<g id="node28" class="node"><title>node27</title>
<ellipse fill="none" stroke="black" cx="639.963" cy="-485" rx="46.5926" ry="18"/>
<text text-anchor="middle" x="639.963" y="-481.3" font-family="Times New Roman,serif" font-size="14.00">(27) AND</text>
</g>
<!-- node11&#45;&gt;node27 -->
<g id="edge36" class="edge"><title>node11&#45;&gt;node27</title>
<path fill="none" stroke="black" d="M231.249,-502.339C274.541,-494.918 343.838,-484.19 404.276,-480 465.636,-475.746 536.217,-478.246 583.819,-481.015"/>
<polygon fill="black" stroke="black" points="583.721,-484.515 593.914,-481.626 584.144,-477.528 583.721,-484.515"/>
<text text-anchor="middle" x="414.276" y="-483.8" font-family="Times New Roman,serif" font-size="14.00"> (0)</text>
</g>
<!-- node12&#45;&gt;node15 -->
<g id="edge13" class="edge"><title>node12&#45;&gt;node15</title>
<path fill="none" stroke="black" d="M218.078,-154.584C224.513,-150.707 230.776,-145.869 235.384,-140 252.839,-117.767 231.048,-96.3238 253.384,-79 262.708,-71.7681 274.51,-68.7846 286.312,-68.0938"/>
<polygon fill="black" stroke="black" points="286.644,-71.5919 296.621,-68.0278 286.599,-64.592 286.644,-71.5919"/>
<text text-anchor="middle" x="263.384" y="-82.8" font-family="Times New Roman,serif" font-size="14.00"> (0)</text>
</g>
<!-- node19 -->
<g id="node20" class="node"><title>node19</title>
<ellipse fill="none" stroke="black" cx="489.721" cy="-76" rx="40.8928" ry="18"/>
<text text-anchor="middle" x="489.721" y="-72.3" font-family="Times New Roman,serif" font-size="14.00">(19) OR</text>
</g>
<!-- node13&#45;&gt;node19 -->
<g id="edge20" class="edge"><title>node13&#45;&gt;node19</title>
<path fill="none" stroke="black" d="M216.887,-98.6456C223.22,-94.8858 229.738,-90.5874 235.384,-86 244.666,-78.4592 244.79,-74.3158 253.384,-66 269.252,-50.6465 270.643,-41.5699 291.384,-34 346.825,-13.7657 414.772,-38.3608 454.745,-57.5396"/>
<polygon fill="black" stroke="black" points="453.284,-60.7217 463.799,-62.0219 456.39,-54.4484 453.284,-60.7217"/>
<text text-anchor="middle" x="338.83" y="-37.8" font-family="Times New Roman,serif" font-size="14.00"> (0)</text>
</g>
<!-- node25 -->
<g id="node26" class="node"><title>node25</title>
<ellipse fill="none" stroke="black" cx="489.721" cy="-555" rx="47.3916" ry="18"/>
<text text-anchor="middle" x="489.721" y="-551.3" font-family="Times New Roman,serif" font-size="14.00">(25) XOR</text>
</g>
<!-- node14&#45;&gt;node25 -->
<g id="edge32" class="edge"><title>node14&#45;&gt;node25</title>
<path fill="none" stroke="black" d="M373.202,-569.414C383.076,-566.159 393.997,-563.008 404.276,-561 413.174,-559.261 422.687,-558.012 432.002,-557.118"/>
<polygon fill="black" stroke="black" points="432.322,-560.603 441.994,-556.28 431.737,-553.628 432.322,-560.603"/>
<text text-anchor="middle" x="414.276" y="-564.8" font-family="Times New Roman,serif" font-size="14.00"> (0)</text>
</g>
<!-- node15&#45;&gt;node19 -->
<g id="edge21" class="edge"><title>node15&#45;&gt;node19</title>
<path fill="none" stroke="black" d="M385.717,-76C402.275,-76 421.054,-76 438.001,-76"/>
<polygon fill="black" stroke="black" points="438.28,-79.5001 448.28,-76 438.28,-72.5001 438.28,-79.5001"/>
<text text-anchor="middle" x="414.276" y="-79.8" font-family="Times New Roman,serif" font-size="14.00"> (1)</text>
</g>
<!-- node24 -->
<g id="node25" class="node"><title>node24</title>
<ellipse fill="none" stroke="black" cx="639.963" cy="-393" rx="46.5926" ry="18"/>
<text text-anchor="middle" x="639.963" y="-389.3" font-family="Times New Roman,serif" font-size="14.00">(24) AND</text>
</g>
<!-- node16&#45;&gt;node24 -->
<g id="edge31" class="edge"><title>node16&#45;&gt;node24</title>
<path fill="none" stroke="black" d="M233.426,-314.183C300.135,-319.588 429.724,-332.541 537.167,-358 557.36,-362.785 579.188,-370.004 597.433,-376.645"/>
<polygon fill="black" stroke="black" points="596.3,-379.958 606.893,-380.153 598.734,-373.394 596.3,-379.958"/>
<text text-anchor="middle" x="414.276" y="-340.8" font-family="Times New Roman,serif" font-size="14.00"> (1)</text>
</g>
<!-- node16&#45;&gt;node29 -->
<g id="edge40" class="edge"><title>node16&#45;&gt;node29</title>
<path fill="none" stroke="black" d="M213.859,-296.103C238.404,-281.432 276.092,-258.904 303.472,-242.537"/>
<polygon fill="black" stroke="black" points="305.541,-245.379 312.328,-237.244 301.949,-239.37 305.541,-245.379"/>
<text text-anchor="middle" x="263.384" y="-275.8" font-family="Times New Roman,serif" font-size="14.00"> (0)</text>
</g>
<!-- node17&#45;&gt;node23 -->
<g id="edge28" class="edge"><title>node17&#45;&gt;node23</title>
<path fill="none" stroke="black" d="M378.53,-523.203C394.801,-519.258 412.62,-512.076 424.276,-499 449.104,-471.147 421.461,-447.967 442.276,-417 445.138,-412.741 448.775,-408.885 452.75,-405.445"/>
<polygon fill="black" stroke="black" points="454.893,-408.212 460.694,-399.346 450.63,-402.66 454.893,-408.212"/>
<text text-anchor="middle" x="414.276" y="-516.8" font-family="Times New Roman,serif" font-size="14.00"> (0)</text>
</g>
<!-- node17&#45;&gt;node33 -->
<g id="edge48" class="edge"><title>node17&#45;&gt;node33</title>
<path fill="none" stroke="black" d="M366.402,-541.397C373.185,-545.356 380.255,-549.987 386.276,-555 395.722,-562.866 394.252,-568.884 404.276,-576 416.36,-584.579 430.977,-591.311 444.63,-596.394"/>
<polygon fill="black" stroke="black" points="443.756,-599.797 454.351,-599.807 446.075,-593.192 443.756,-599.797"/>
<text text-anchor="middle" x="414.276" y="-590.8" font-family="Times New Roman,serif" font-size="14.00"> (0)</text>
</g>
<!-- node18&#45;&gt;node20 -->
<g id="edge22" class="edge"><title>node18&#45;&gt;node20</title>
<path fill="none" stroke="black" d="M222.724,-745.747C244.045,-738.014 271.785,-727.953 294.69,-719.646"/>
<polygon fill="black" stroke="black" points="295.97,-722.905 304.178,-716.205 293.584,-716.324 295.97,-722.905"/>
<text text-anchor="middle" x="263.384" y="-737.8" font-family="Times New Roman,serif" font-size="14.00"> (0)</text>
</g>
<!-- node18&#45;&gt;node26 -->
<g id="edge35" class="edge"><title>node18&#45;&gt;node26</title>
<path fill="none" stroke="black" d="M227.669,-768.145C246.539,-773.088 269.421,-779.081 289.43,-784.322"/>
<polygon fill="black" stroke="black" points="288.732,-787.758 299.293,-786.906 290.506,-780.986 288.732,-787.758"/>
<text text-anchor="middle" x="263.384" y="-782.8" font-family="Times New Roman,serif" font-size="14.00"> (1)</text>
</g>
<!-- node39 -->
<g id="node40" class="node"><title>node39</title>
<ellipse fill="none" stroke="black" cx="1242.88" cy="-107" rx="47.3916" ry="18"/>
<text text-anchor="middle" x="1242.88" y="-103.3" font-family="Times New Roman,serif" font-size="14.00">(39) XOR</text>
</g>
<!-- node19&#45;&gt;node39 -->
<g id="edge59" class="edge"><title>node19&#45;&gt;node39</title>
<path fill="none" stroke="black" d="M530.667,-77.6616C560.499,-78.7606 602.275,-80 638.963,-80 638.963,-80 638.963,-80 1092.99,-80 1127.3,-80 1165.35,-87.0272 1194.4,-93.9115"/>
<polygon fill="black" stroke="black" points="1193.73,-97.3515 1204.28,-96.3289 1195.4,-90.5521 1193.73,-97.3515"/>
<text text-anchor="middle" x="865.651" y="-83.8" font-family="Times New Roman,serif" font-size="14.00"> (0)</text>
</g>
<!-- node20&#45;&gt;node25 -->
<g id="edge33" class="edge"><title>node20&#45;&gt;node25</title>
<path fill="none" stroke="black" d="M355.139,-686.951C372.339,-667.633 400.909,-635.051 424.276,-606 432.632,-595.61 432.313,-590.861 442.276,-582 445.09,-579.497 448.171,-577.112 451.366,-574.871"/>
<polygon fill="black" stroke="black" points="453.493,-577.663 459.981,-569.287 449.686,-571.789 453.493,-577.663"/>
<text text-anchor="middle" x="414.276" y="-630.8" font-family="Times New Roman,serif" font-size="14.00"> (1)</text>
</g>
<!-- node21&#45;&gt;node22 -->
<g id="edge26" class="edge"><title>node21&#45;&gt;node22</title>
<path fill="none" stroke="black" d="M209.868,-368.777C219.083,-360.538 229.199,-349.783 235.384,-338 255.356,-299.95 236.077,-282.334 253.384,-243 268.318,-209.06 295.126,-175.74 314.538,-154.178"/>
<polygon fill="black" stroke="black" points="317.138,-156.522 321.32,-146.787 311.98,-151.789 317.138,-156.522"/>
<text text-anchor="middle" x="263.384" y="-246.8" font-family="Times New Roman,serif" font-size="14.00"> (0)</text>
</g>
<!-- node28 -->
<g id="node29" class="node"><title>node28</title>
<ellipse fill="none" stroke="black" cx="790.205" cy="-444" rx="46.5926" ry="18"/>
<text text-anchor="middle" x="790.205" y="-440.3" font-family="Times New Roman,serif" font-size="14.00">(28) AND</text>
</g>
<!-- node21&#45;&gt;node28 -->
<g id="edge38" class="edge"><title>node21&#45;&gt;node28</title>
<path fill="none" stroke="black" d="M233.766,-389.972C284.382,-395.541 369.212,-404.737 442.276,-412 545.327,-422.244 665.714,-433.099 734.156,-439.165"/>
<polygon fill="black" stroke="black" points="734.006,-442.666 744.276,-440.061 734.624,-435.693 734.006,-442.666"/>
<text text-anchor="middle" x="489.721" y="-425.8" font-family="Times New Roman,serif" font-size="14.00"> (0)</text>
</g>
<!-- node36 -->
<g id="node37" class="node"><title>node36</title>
<ellipse fill="none" stroke="black" cx="1091.99" cy="-130" rx="46.5926" ry="18"/>
<text text-anchor="middle" x="1091.99" y="-126.3" font-family="Times New Roman,serif" font-size="14.00">(36) AND</text>
</g>
<!-- node22&#45;&gt;node36 -->
<g id="edge54" class="edge"><title>node22&#45;&gt;node36</title>
<path fill="none" stroke="black" d="M385.775,-130C415.205,-130 454.213,-130 488.721,-130 488.721,-130 488.721,-130 942.096,-130 972.696,-130 1006.83,-130 1034.69,-130"/>
<polygon fill="black" stroke="black" points="1035.04,-133.5 1045.04,-130 1035.04,-126.5 1035.04,-133.5"/>
<text text-anchor="middle" x="714.759" y="-133.8" font-family="Times New Roman,serif" font-size="14.00"> (0)</text>
</g>
<!-- node23&#45;&gt;node24 -->
<g id="edge30" class="edge"><title>node23&#45;&gt;node24</title>
<path fill="none" stroke="black" d="M536.813,-387.487C551.454,-388.277 567.805,-389.16 583.058,-389.983"/>
<polygon fill="black" stroke="black" points="583.235,-393.498 593.409,-390.542 583.612,-386.508 583.235,-393.498"/>
<text text-anchor="middle" x="565.167" y="-393.8" font-family="Times New Roman,serif" font-size="14.00"> (0)</text>
</g>
<!-- node32 -->
<g id="node33" class="node"><title>node32</title>
<ellipse fill="none" stroke="black" cx="941.096" cy="-283" rx="47.3916" ry="18"/>
<text text-anchor="middle" x="941.096" y="-279.3" font-family="Times New Roman,serif" font-size="14.00">(32) XOR</text>
</g>
<!-- node23&#45;&gt;node32 -->
<g id="edge46" class="edge"><title>node23&#45;&gt;node32</title>
<path fill="none" stroke="black" d="M532.196,-376.94C597.357,-364.18 727.637,-338.279 837.651,-314 854.599,-310.26 858.974,-309.809 875.651,-305 882.367,-303.063 889.418,-300.847 896.292,-298.585"/>
<polygon fill="black" stroke="black" points="897.812,-301.767 906.176,-295.264 895.582,-295.131 897.812,-301.767"/>
<text text-anchor="middle" x="714.759" y="-346.8" font-family="Times New Roman,serif" font-size="14.00"> (0)</text>
</g>
<!-- node31 -->
<g id="node32" class="node"><title>node31</title>
<ellipse fill="none" stroke="black" cx="941.096" cy="-403" rx="40.8928" ry="18"/>
<text text-anchor="middle" x="941.096" y="-399.3" font-family="Times New Roman,serif" font-size="14.00">(31) OR</text>
</g>
<!-- node24&#45;&gt;node31 -->
<g id="edge44" class="edge"><title>node24&#45;&gt;node31</title>
<path fill="none" stroke="black" d="M686.721,-394.53C741.571,-396.363 833.177,-399.426 889.918,-401.323"/>
<polygon fill="black" stroke="black" points="889.98,-404.826 900.091,-401.663 890.213,-397.83 889.98,-404.826"/>
<text text-anchor="middle" x="790.205" y="-403.8" font-family="Times New Roman,serif" font-size="14.00"> (0)</text>
</g>
<!-- node25&#45;&gt;node27 -->
<g id="edge37" class="edge"><title>node25&#45;&gt;node27</title>
<path fill="none" stroke="black" d="M520.364,-541.003C543.365,-530.142 575.434,-514.998 600.426,-503.197"/>
<polygon fill="black" stroke="black" points="602.077,-506.288 609.625,-498.854 599.088,-499.959 602.077,-506.288"/>
<text text-anchor="middle" x="565.167" y="-527.8" font-family="Times New Roman,serif" font-size="14.00"> (1)</text>
</g>
<!-- node41 -->
<g id="node42" class="node"><title>node41</title>
<ellipse fill="none" stroke="black" cx="1370.22" cy="-555" rx="42.7926" ry="18"/>
<text text-anchor="middle" x="1370.22" y="-551.3" font-family="Times New Roman,serif" font-size="14.00">Output 1</text>
</g>
<!-- node25&#45;&gt;node41 -->
<g id="edge62" class="edge"><title>node25&#45;&gt;node41</title>
<path fill="none" stroke="black" d="M537.458,-555C566.64,-555 604.991,-555 638.963,-555 638.963,-555 638.963,-555 1243.88,-555 1267.94,-555 1294.6,-555 1317.12,-555"/>
<polygon fill="black" stroke="black" points="1317.15,-558.5 1327.15,-555 1317.15,-551.5 1317.15,-558.5"/>
</g>
<!-- node40 -->
<g id="node41" class="node"><title>node40</title>
<ellipse fill="none" stroke="black" cx="1370.22" cy="-797" rx="42.7926" ry="18"/>
<text text-anchor="middle" x="1370.22" y="-793.3" font-family="Times New Roman,serif" font-size="14.00">Output 0</text>
</g>
<!-- node26&#45;&gt;node40 -->
<g id="edge61" class="edge"><title>node26&#45;&gt;node40</title>
<path fill="none" stroke="black" d="M386.438,-797C415.789,-797 454.471,-797 488.721,-797 488.721,-797 488.721,-797 1243.88,-797 1267.94,-797 1294.6,-797 1317.12,-797"/>
<polygon fill="black" stroke="black" points="1317.15,-800.5 1327.15,-797 1317.15,-793.5 1317.15,-800.5"/>
</g>
<!-- node27&#45;&gt;node28 -->
<g id="edge39" class="edge"><title>node27&#45;&gt;node28</title>
<path fill="none" stroke="black" d="M678.371,-474.654C697.683,-469.313 721.444,-462.741 742.005,-457.054"/>
<polygon fill="black" stroke="black" points="743.104,-460.382 751.809,-454.343 741.238,-453.635 743.104,-460.382"/>
<text text-anchor="middle" x="714.759" y="-470.8" font-family="Times New Roman,serif" font-size="14.00"> (1)</text>
</g>
<!-- node27&#45;&gt;node30 -->
<g id="edge43" class="edge"><title>node27&#45;&gt;node30</title>
<path fill="none" stroke="black" d="M656.147,-468.076C666.437,-455.652 679.447,-437.89 686.759,-420 705.501,-374.143 671.592,-346.798 704.759,-310 712.391,-301.532 722.802,-296.052 733.709,-292.536"/>
<polygon fill="black" stroke="black" points="734.623,-295.915 743.363,-289.926 732.796,-289.157 734.623,-295.915"/>
<text text-anchor="middle" x="714.759" y="-313.8" font-family="Times New Roman,serif" font-size="14.00"> (1)</text>
</g>
<!-- node28&#45;&gt;node31 -->
<g id="edge45" class="edge"><title>node28&#45;&gt;node31</title>
<path fill="none" stroke="black" d="M828.776,-433.654C849.303,-428.002 874.832,-420.972 896.263,-415.07"/>
<polygon fill="black" stroke="black" points="897.389,-418.391 906.101,-412.361 895.531,-411.642 897.389,-418.391"/>
<text text-anchor="middle" x="865.651" y="-429.8" font-family="Times New Roman,serif" font-size="14.00"> (1)</text>
</g>
<!-- node34 -->
<g id="node35" class="node"><title>node34</title>
<ellipse fill="none" stroke="black" cx="1091.99" cy="-232" rx="47.3916" ry="18"/>
<text text-anchor="middle" x="1091.99" y="-228.3" font-family="Times New Roman,serif" font-size="14.00">(34) XOR</text>
</g>
<!-- node29&#45;&gt;node34 -->
<g id="edge50" class="edge"><title>node29&#45;&gt;node34</title>
<path fill="none" stroke="black" d="M384.363,-216.698C454.369,-208.835 594.487,-195 713.759,-195 713.759,-195 713.759,-195 942.096,-195 978.949,-195 1019.46,-205.808 1048.91,-215.741"/>
<polygon fill="black" stroke="black" points="1047.85,-219.08 1058.45,-219.059 1050.15,-212.469 1047.85,-219.08"/>
<text text-anchor="middle" x="714.759" y="-199.8" font-family="Times New Roman,serif" font-size="14.00"> (0)</text>
</g>
<!-- node30&#45;&gt;node32 -->
<g id="edge47" class="edge"><title>node30&#45;&gt;node32</title>
<path fill="none" stroke="black" d="M837.906,-285.745C852.319,-285.358 868.351,-284.927 883.363,-284.524"/>
<polygon fill="black" stroke="black" points="883.658,-288.018 893.56,-284.25 883.47,-281.02 883.658,-288.018"/>
<text text-anchor="middle" x="865.651" y="-289.8" font-family="Times New Roman,serif" font-size="14.00"> (1)</text>
</g>
<!-- node31&#45;&gt;node35 -->
<g id="edge52" class="edge"><title>node31&#45;&gt;node35</title>
<path fill="none" stroke="black" d="M982.389,-403C998.222,-403 1016.69,-403 1033.85,-403"/>
<polygon fill="black" stroke="black" points="1034.34,-406.5 1044.34,-403 1034.34,-399.5 1034.34,-406.5"/>
<text text-anchor="middle" x="1016.54" y="-406.8" font-family="Times New Roman,serif" font-size="14.00"> (0)</text>
</g>
<!-- node32&#45;&gt;node34 -->
<g id="edge51" class="edge"><title>node32&#45;&gt;node34</title>
<path fill="none" stroke="black" d="M977.005,-271.043C997.819,-263.913 1024.44,-254.794 1046.72,-247.162"/>
<polygon fill="black" stroke="black" points="1047.97,-250.434 1056.3,-243.882 1045.7,-243.812 1047.97,-250.434"/>
<text text-anchor="middle" x="1016.54" y="-264.8" font-family="Times New Roman,serif" font-size="14.00"> (1)</text>
</g>
<!-- node32&#45;&gt;node36 -->
<g id="edge55" class="edge"><title>node32&#45;&gt;node36</title>
<path fill="none" stroke="black" d="M958.599,-266.042C984.983,-238.93 1036.78,-185.705 1067.17,-154.472"/>
<polygon fill="black" stroke="black" points="1069.95,-156.642 1074.41,-147.034 1064.93,-151.76 1069.95,-156.642"/>
<text text-anchor="middle" x="1016.54" y="-219.8" font-family="Times New Roman,serif" font-size="14.00"> (1)</text>
</g>
<!-- node37 -->
<g id="node38" class="node"><title>node37</title>
<ellipse fill="none" stroke="black" cx="1242.88" cy="-476" rx="47.3916" ry="18"/>
<text text-anchor="middle" x="1242.88" y="-472.3" font-family="Times New Roman,serif" font-size="14.00">(37) XOR</text>
</g>
<!-- node33&#45;&gt;node37 -->
<g id="edge57" class="edge"><title>node33&#45;&gt;node37</title>
<path fill="none" stroke="black" d="M520.165,-596.592C582.511,-571.48 732.948,-517 864.651,-517 864.651,-517 864.651,-517 1092.99,-517 1130.93,-517 1172.42,-504.473 1201.94,-493.268"/>
<polygon fill="black" stroke="black" points="1203.43,-496.442 1211.47,-489.539 1200.88,-489.923 1203.43,-496.442"/>
<text text-anchor="middle" x="865.651" y="-520.8" font-family="Times New Roman,serif" font-size="14.00"> (1)</text>
</g>
<!-- node38 -->
<g id="node39" class="node"><title>node38</title>
<ellipse fill="none" stroke="black" cx="1242.88" cy="-232" rx="46.2923" ry="18"/>
<text text-anchor="middle" x="1242.88" y="-228.3" font-family="Times New Roman,serif" font-size="14.00">(38) NEG</text>
</g>
<!-- node34&#45;&gt;node38 -->
<g id="edge58" class="edge"><title>node34&#45;&gt;node38</title>
<path fill="none" stroke="black" d="M1139.69,-232C1154.45,-232 1170.91,-232 1186.23,-232"/>
<polygon fill="black" stroke="black" points="1186.62,-235.5 1196.62,-232 1186.62,-228.5 1186.62,-235.5"/>
<text text-anchor="middle" x="1167.43" y="-235.8" font-family="Times New Roman,serif" font-size="14.00"> (0)</text>
</g>
<!-- node35&#45;&gt;node37 -->
<g id="edge56" class="edge"><title>node35&#45;&gt;node37</title>
<path fill="none" stroke="black" d="M1121.7,-417.075C1145.1,-428.551 1178.36,-444.856 1203.95,-457.406"/>
<polygon fill="black" stroke="black" points="1202.49,-460.584 1213.01,-461.844 1205.57,-454.299 1202.49,-460.584"/>
<text text-anchor="middle" x="1167.43" y="-447.8" font-family="Times New Roman,serif" font-size="14.00"> (0)</text>
</g>
<!-- node36&#45;&gt;node39 -->
<g id="edge60" class="edge"><title>node36&#45;&gt;node39</title>
<path fill="none" stroke="black" d="M1135.65,-123.409C1152.18,-120.857 1171.27,-117.908 1188.67,-115.219"/>
<polygon fill="black" stroke="black" points="1189.34,-118.657 1198.69,-113.672 1188.27,-111.739 1189.34,-118.657"/>
<text text-anchor="middle" x="1167.43" y="-123.8" font-family="Times New Roman,serif" font-size="14.00"> (1)</text>
</g>
<!-- node43 -->
<g id="node44" class="node"><title>node43</title>
<ellipse fill="none" stroke="black" cx="1370.22" cy="-476" rx="42.7926" ry="18"/>
<text text-anchor="middle" x="1370.22" y="-472.3" font-family="Times New Roman,serif" font-size="14.00">Output 3</text>
</g>
<!-- node37&#45;&gt;node43 -->
<g id="edge64" class="edge"><title>node37&#45;&gt;node43</title>
<path fill="none" stroke="black" d="M1290.55,-476C1299.16,-476 1308.19,-476 1316.95,-476"/>
<polygon fill="black" stroke="black" points="1317.06,-479.5 1327.06,-476 1317.06,-472.5 1317.06,-479.5"/>
</g>
<!-- node42 -->
<g id="node43" class="node"><title>node42</title>
<ellipse fill="none" stroke="black" cx="1370.22" cy="-232" rx="42.7926" ry="18"/>
<text text-anchor="middle" x="1370.22" y="-228.3" font-family="Times New Roman,serif" font-size="14.00">Output 2</text>
</g>
<!-- node38&#45;&gt;node42 -->
<g id="edge63" class="edge"><title>node38&#45;&gt;node42</title>
<path fill="none" stroke="black" d="M1289.13,-232C1298.1,-232 1307.58,-232 1316.76,-232"/>
<polygon fill="black" stroke="black" points="1316.96,-235.5 1326.96,-232 1316.96,-228.5 1316.96,-235.5"/>
</g>
<!-- node44 -->
<g id="node45" class="node"><title>node44</title>
<ellipse fill="none" stroke="black" cx="1370.22" cy="-107" rx="42.7926" ry="18"/>
<text text-anchor="middle" x="1370.22" y="-103.3" font-family="Times New Roman,serif" font-size="14.00">Output 4</text>
</g>
<!-- node39&#45;&gt;node44 -->
<g id="edge65" class="edge"><title>node39&#45;&gt;node44</title>
<path fill="none" stroke="black" d="M1290.55,-107C1299.16,-107 1308.19,-107 1316.95,-107"/>
<polygon fill="black" stroke="black" points="1317.06,-110.5 1327.06,-107 1317.06,-103.5 1317.06,-110.5"/>
</g>
</g>
</svg>
