<?xml version="1.0" encoding="UTF-8" standalone="no"?>
<!DOCTYPE svg PUBLIC "-//W3C//DTD SVG 1.1//EN"
 "http://www.w3.org/Graphics/SVG/1.1/DTD/svg11.dtd">
<!-- Generated by graphviz version 2.38.0 (20140413.2041)
 -->
<!-- Title: NeuralNetwork Pages: 1 -->
<svg width="288pt" height="106pt"
 viewBox="0.00 0.00 288.00 106.28" xmlns="http://www.w3.org/2000/svg" xmlns:xlink="http://www.w3.org/1999/xlink">
<g id="graph0" class="graph" transform="scale(0.284181 0.284181) rotate(0) translate(4 370)">
<title>NeuralNetwork</title>
<polygon fill="white" stroke="none" points="-4,4 -4,-370 1009.44,-370 1009.44,4 -4,4"/>
<!-- node0 -->
<g id="node1" class="node"><title>node0</title>
<ellipse fill="none" stroke="black" cx="42.2463" cy="-188" rx="42.4939" ry="18"/>
<text text-anchor="middle" x="42.2463" y="-184.3" font-family="Times New Roman,serif" font-size="14.00">(0) Input</text>
</g>
<!-- node5 -->
<g id="node6" class="node"><title>node5</title>
<ellipse fill="none" stroke="black" cx="183.389" cy="-115" rx="42.7926" ry="18"/>
<text text-anchor="middle" x="183.389" y="-111.3" font-family="Times New Roman,serif" font-size="14.00">(5) XOR</text>
</g>
<!-- node0&#45;&gt;node5 -->
<g id="edge2" class="edge"><title>node0&#45;&gt;node5</title>
<path fill="none" stroke="black" d="M56.7542,-170.926C67.7281,-158.238 84.3219,-141.539 102.493,-132 111.439,-127.303 121.594,-123.904 131.593,-121.444"/>
<polygon fill="black" stroke="black" points="132.465,-124.836 141.488,-119.284 130.972,-117.997 132.465,-124.836"/>
<text text-anchor="middle" x="112.493" y="-135.8" font-family="Times New Roman,serif" font-size="14.00"> (1)</text>
</g>
<!-- node7 -->
<g id="node8" class="node"><title>node7</title>
<ellipse fill="none" stroke="black" cx="183.389" cy="-175" rx="42.4939" ry="18"/>
<text text-anchor="middle" x="183.389" y="-171.3" font-family="Times New Roman,serif" font-size="14.00">(7) AND</text>
</g>
<!-- node0&#45;&gt;node7 -->
<g id="edge5" class="edge"><title>node0&#45;&gt;node7</title>
<path fill="none" stroke="black" d="M84.4782,-190.506C96.7442,-190.716 110.191,-190.419 122.493,-189 127.343,-188.441 132.371,-187.635 137.359,-186.688"/>
<polygon fill="black" stroke="black" points="138.395,-190.047 147.47,-184.581 136.966,-183.194 138.395,-190.047"/>
<text text-anchor="middle" x="112.493" y="-193.8" font-family="Times New Roman,serif" font-size="14.00"> (0)</text>
</g>
<!-- node1 -->
<g id="node2" class="node"><title>node1</title>
<ellipse fill="none" stroke="black" cx="42.2463" cy="-264" rx="42.4939" ry="18"/>
<text text-anchor="middle" x="42.2463" y="-260.3" font-family="Times New Roman,serif" font-size="14.00">(1) Input</text>
</g>
<!-- node6 -->
<g id="node7" class="node"><title>node6</title>
<ellipse fill="none" stroke="black" cx="183.389" cy="-333" rx="42.4939" ry="18"/>
<text text-anchor="middle" x="183.389" y="-329.3" font-family="Times New Roman,serif" font-size="14.00">(6) AND</text>
</g>
<!-- node1&#45;&gt;node6 -->
<g id="edge3" class="edge"><title>node1&#45;&gt;node6</title>
<path fill="none" stroke="black" d="M64.2178,-279.461C75.2504,-287.161 89.2125,-296.243 102.493,-303 114.163,-308.938 127.297,-314.352 139.494,-318.895"/>
<polygon fill="black" stroke="black" points="138.434,-322.234 149.028,-322.345 140.816,-315.651 138.434,-322.234"/>
<text text-anchor="middle" x="112.493" y="-314.8" font-family="Times New Roman,serif" font-size="14.00"> (0)</text>
</g>
<!-- node9 -->
<g id="node10" class="node"><title>node9</title>
<ellipse fill="none" stroke="black" cx="287.181" cy="-265" rx="42.7926" ry="18"/>
<text text-anchor="middle" x="287.181" y="-261.3" font-family="Times New Roman,serif" font-size="14.00">(9) XOR</text>
</g>
<!-- node1&#45;&gt;node9 -->
<g id="edge9" class="edge"><title>node1&#45;&gt;node9</title>
<path fill="none" stroke="black" d="M78.0946,-254.348C86.0511,-252.542 94.514,-250.93 102.493,-250 148.392,-244.651 200.964,-250.111 238.073,-255.887"/>
<polygon fill="black" stroke="black" points="237.679,-259.369 248.111,-257.516 238.8,-252.459 237.679,-259.369"/>
<text text-anchor="middle" x="112.493" y="-253.8" font-family="Times New Roman,serif" font-size="14.00"> (0)</text>
</g>
<!-- node2 -->
<g id="node3" class="node"><title>node2</title>
<ellipse fill="none" stroke="black" cx="42.2463" cy="-40" rx="42.4939" ry="18"/>
<text text-anchor="middle" x="42.2463" y="-36.3" font-family="Times New Roman,serif" font-size="14.00">(2) Input</text>
</g>
<!-- node8 -->
<g id="node9" class="node"><title>node8</title>
<ellipse fill="none" stroke="black" cx="395.523" cy="-115" rx="42.4939" ry="18"/>
<text text-anchor="middle" x="395.523" y="-111.3" font-family="Times New Roman,serif" font-size="14.00">(8) AND</text>
</g>
<!-- node2&#45;&gt;node8 -->
<g id="edge8" class="edge"><title>node2&#45;&gt;node8</title>
<path fill="none" stroke="black" d="M81.9578,-46.2136C119.106,-52.3568 176.72,-62.3573 226.285,-73 268.297,-82.0208 315.761,-94.0389 349.537,-102.908"/>
<polygon fill="black" stroke="black" points="348.996,-106.385 359.558,-105.552 350.782,-99.6165 348.996,-106.385"/>
<text text-anchor="middle" x="183.389" y="-76.8" font-family="Times New Roman,serif" font-size="14.00"> (1)</text>
</g>
<!-- node13 -->
<g id="node14" class="node"><title>node13</title>
<ellipse fill="none" stroke="black" cx="395.523" cy="-18" rx="47.3916" ry="18"/>
<text text-anchor="middle" x="395.523" y="-14.3" font-family="Times New Roman,serif" font-size="14.00">(13) XOR</text>
</g>
<!-- node2&#45;&gt;node13 -->
<g id="edge17" class="edge"><title>node2&#45;&gt;node13</title>
<path fill="none" stroke="black" d="M82.4238,-33.8771C100.118,-31.3403 121.313,-28.6178 140.493,-27 207.962,-21.3088 285.806,-19.2066 337.354,-18.4357"/>
<polygon fill="black" stroke="black" points="337.671,-21.9318 347.621,-18.2946 337.574,-14.9325 337.671,-21.9318"/>
<text text-anchor="middle" x="183.389" y="-30.8" font-family="Times New Roman,serif" font-size="14.00"> (0)</text>
</g>
<!-- node3 -->
<g id="node4" class="node"><title>node3</title>
<ellipse fill="none" stroke="black" cx="42.2463" cy="-348" rx="42.4939" ry="18"/>
<text text-anchor="middle" x="42.2463" y="-344.3" font-family="Times New Roman,serif" font-size="14.00">(3) Input</text>
</g>
<!-- node3&#45;&gt;node6 -->
<g id="edge4" class="edge"><title>node3&#45;&gt;node6</title>
<path fill="none" stroke="black" d="M84.0029,-344.751C96.3762,-343.67 110.001,-342.385 122.493,-341 125.933,-340.618 129.483,-340.202 133.055,-339.767"/>
<polygon fill="black" stroke="black" points="133.628,-343.222 143.113,-338.501 132.754,-336.277 133.628,-343.222"/>
<text text-anchor="middle" x="112.493" y="-346.8" font-family="Times New Roman,serif" font-size="14.00"> (1)</text>
</g>
<!-- node3&#45;&gt;node9 -->
<g id="edge10" class="edge"><title>node3&#45;&gt;node9</title>
<path fill="none" stroke="black" d="M54.0344,-330.581C64.4321,-315.468 81.6354,-294.425 102.493,-284 124.821,-272.839 187.954,-268.226 233.986,-266.325"/>
<polygon fill="black" stroke="black" points="234.253,-269.817 244.112,-265.938 233.986,-262.822 234.253,-269.817"/>
<text text-anchor="middle" x="112.493" y="-287.8" font-family="Times New Roman,serif" font-size="14.00"> (1)</text>
</g>
<!-- node4 -->
<g id="node5" class="node"><title>node4</title>
<ellipse fill="none" stroke="black" cx="42.2463" cy="-115" rx="42.4939" ry="18"/>
<text text-anchor="middle" x="42.2463" y="-111.3" font-family="Times New Roman,serif" font-size="14.00">(4) Input</text>
</g>
<!-- node4&#45;&gt;node5 -->
<g id="edge1" class="edge"><title>node4&#45;&gt;node5</title>
<path fill="none" stroke="black" d="M75.7976,-103.897C84.3774,-101.459 93.6973,-99.2369 102.493,-98 115.109,-96.2257 128.711,-97.7906 141.052,-100.569"/>
<polygon fill="black" stroke="black" points="140.517,-104.045 151.073,-103.143 142.258,-97.2654 140.517,-104.045"/>
<text text-anchor="middle" x="112.493" y="-101.8" font-family="Times New Roman,serif" font-size="14.00"> (0)</text>
</g>
<!-- node4&#45;&gt;node7 -->
<g id="edge6" class="edge"><title>node4&#45;&gt;node7</title>
<path fill="none" stroke="black" d="M65.3009,-130.248C76.1475,-137.26 89.6283,-145.272 102.493,-151 113.237,-155.784 125.205,-159.948 136.539,-163.404"/>
<polygon fill="black" stroke="black" points="135.709,-166.808 146.289,-166.257 137.674,-160.09 135.709,-166.808"/>
<text text-anchor="middle" x="112.493" y="-161.8" font-family="Times New Roman,serif" font-size="14.00"> (1)</text>
</g>
<!-- node5&#45;&gt;node8 -->
<g id="edge7" class="edge"><title>node5&#45;&gt;node8</title>
<path fill="none" stroke="black" d="M226.407,-115C259.874,-115 306.882,-115 342.685,-115"/>
<polygon fill="black" stroke="black" points="342.936,-118.5 352.936,-115 342.936,-111.5 342.936,-118.5"/>
<text text-anchor="middle" x="287.181" y="-118.8" font-family="Times New Roman,serif" font-size="14.00"> (0)</text>
</g>
<!-- node5&#45;&gt;node13 -->
<g id="edge18" class="edge"><title>node5&#45;&gt;node13</title>
<path fill="none" stroke="black" d="M213.166,-101.716C250.082,-84.6755 314.258,-55.0513 355.533,-35.998"/>
<polygon fill="black" stroke="black" points="357.126,-39.1179 364.738,-31.7489 354.192,-32.7623 357.126,-39.1179"/>
<text text-anchor="middle" x="287.181" y="-89.8" font-family="Times New Roman,serif" font-size="14.00"> (1)</text>
</g>
<!-- node12 -->
<g id="node13" class="node"><title>node12</title>
<ellipse fill="none" stroke="black" cx="841.698" cy="-315" rx="40.8928" ry="18"/>
<text text-anchor="middle" x="841.698" y="-311.3" font-family="Times New Roman,serif" font-size="14.00">(12) OR</text>
</g>
<!-- node6&#45;&gt;node12 -->
<g id="edge15" class="edge"><title>node6&#45;&gt;node12</title>
<path fill="none" stroke="black" d="M225.853,-332.373C268.237,-331.786 335.967,-331 394.523,-331 394.523,-331 394.523,-331 698.306,-331 730.07,-331 765.572,-327.02 793.181,-323.029"/>
<polygon fill="black" stroke="black" points="793.98,-326.449 803.352,-321.508 792.944,-319.526 793.98,-326.449"/>
<text text-anchor="middle" x="546.415" y="-334.8" font-family="Times New Roman,serif" font-size="14.00"> (0)</text>
</g>
<!-- node10 -->
<g id="node11" class="node"><title>node10</title>
<ellipse fill="none" stroke="black" cx="546.415" cy="-175" rx="47.3916" ry="18"/>
<text text-anchor="middle" x="546.415" y="-171.3" font-family="Times New Roman,serif" font-size="14.00">(10) XOR</text>
</g>
<!-- node7&#45;&gt;node10 -->
<g id="edge11" class="edge"><title>node7&#45;&gt;node10</title>
<path fill="none" stroke="black" d="M225.803,-175C290.414,-175 415.351,-175 488.416,-175"/>
<polygon fill="black" stroke="black" points="488.806,-178.5 498.806,-175 488.806,-171.5 488.806,-178.5"/>
<text text-anchor="middle" x="395.523" y="-178.8" font-family="Times New Roman,serif" font-size="14.00"> (0)</text>
</g>
<!-- node8&#45;&gt;node10 -->
<g id="edge12" class="edge"><title>node8&#45;&gt;node10</title>
<path fill="none" stroke="black" d="M428.809,-126.244C444.631,-131.909 463.906,-139.039 480.969,-146 489.305,-149.401 498.158,-153.235 506.546,-156.974"/>
<polygon fill="black" stroke="black" points="505.211,-160.212 515.766,-161.128 508.086,-153.829 505.211,-160.212"/>
<text text-anchor="middle" x="470.969" y="-149.8" font-family="Times New Roman,serif" font-size="14.00"> (1)</text>
</g>
<!-- node11 -->
<g id="node12" class="node"><title>node11</title>
<ellipse fill="none" stroke="black" cx="697.306" cy="-284" rx="46.5926" ry="18"/>
<text text-anchor="middle" x="697.306" y="-280.3" font-family="Times New Roman,serif" font-size="14.00">(11) AND</text>
</g>
<!-- node9&#45;&gt;node11 -->
<g id="edge14" class="edge"><title>node9&#45;&gt;node11</title>
<path fill="none" stroke="black" d="M329.94,-266.944C403.779,-270.382 557.405,-277.534 640.331,-281.394"/>
<polygon fill="black" stroke="black" points="640.42,-284.902 650.572,-281.871 640.745,-277.91 640.42,-284.902"/>
<text text-anchor="middle" x="470.969" y="-276.8" font-family="Times New Roman,serif" font-size="14.00"> (1)</text>
</g>
<!-- node14 -->
<g id="node15" class="node"><title>node14</title>
<ellipse fill="none" stroke="black" cx="697.306" cy="-202" rx="47.3916" ry="18"/>
<text text-anchor="middle" x="697.306" y="-198.3" font-family="Times New Roman,serif" font-size="14.00">(14) XOR</text>
</g>
<!-- node9&#45;&gt;node14 -->
<g id="edge20" class="edge"><title>node9&#45;&gt;node14</title>
<path fill="none" stroke="black" d="M327.685,-258.902C401.427,-247.519 560.062,-223.031 643.125,-210.209"/>
<polygon fill="black" stroke="black" points="643.763,-213.652 653.112,-208.668 642.696,-206.734 643.763,-213.652"/>
<text text-anchor="middle" x="470.969" y="-240.8" font-family="Times New Roman,serif" font-size="14.00"> (1)</text>
</g>
<!-- node10&#45;&gt;node11 -->
<g id="edge13" class="edge"><title>node10&#45;&gt;node11</title>
<path fill="none" stroke="black" d="M569.065,-190.85C594.757,-209.659 637.735,-241.121 666.543,-262.211"/>
<polygon fill="black" stroke="black" points="664.494,-265.048 674.63,-268.131 668.629,-259.4 664.494,-265.048"/>
<text text-anchor="middle" x="621.86" y="-239.8" font-family="Times New Roman,serif" font-size="14.00"> (0)</text>
</g>
<!-- node10&#45;&gt;node14 -->
<g id="edge19" class="edge"><title>node10&#45;&gt;node14</title>
<path fill="none" stroke="black" d="M589.683,-182.665C606.572,-185.728 626.197,-189.286 643.973,-192.51"/>
<polygon fill="black" stroke="black" points="643.726,-196.022 654.19,-194.363 644.975,-189.134 643.726,-196.022"/>
<text text-anchor="middle" x="621.86" y="-193.8" font-family="Times New Roman,serif" font-size="14.00"> (0)</text>
</g>
<!-- node11&#45;&gt;node12 -->
<g id="edge16" class="edge"><title>node11&#45;&gt;node12</title>
<path fill="none" stroke="black" d="M738.702,-292.519C752.662,-295.487 768.401,-298.861 782.752,-302 786.663,-302.855 790.72,-303.75 794.79,-304.653"/>
<polygon fill="black" stroke="black" points="794.333,-308.137 804.855,-306.896 795.856,-301.305 794.333,-308.137"/>
<text text-anchor="middle" x="772.752" y="-305.8" font-family="Times New Roman,serif" font-size="14.00"> (1)</text>
</g>
<!-- node17 -->
<g id="node18" class="node"><title>node17</title>
<ellipse fill="none" stroke="black" cx="962.541" cy="-315" rx="42.7926" ry="18"/>
<text text-anchor="middle" x="962.541" y="-311.3" font-family="Times New Roman,serif" font-size="14.00">Output 2</text>
</g>
<!-- node12&#45;&gt;node17 -->
<g id="edge23" class="edge"><title>node12&#45;&gt;node17</title>
<path fill="none" stroke="black" d="M882.933,-315C891.355,-315 900.352,-315 909.142,-315"/>
<polygon fill="black" stroke="black" points="909.317,-318.5 919.317,-315 909.317,-311.5 909.317,-318.5"/>
</g>
<!-- node15 -->
<g id="node16" class="node"><title>node15</title>
<ellipse fill="none" stroke="black" cx="962.541" cy="-18" rx="42.7926" ry="18"/>
<text text-anchor="middle" x="962.541" y="-14.3" font-family="Times New Roman,serif" font-size="14.00">Output 0</text>
</g>
<!-- node13&#45;&gt;node15 -->
<g id="edge21" class="edge"><title>node13&#45;&gt;node15</title>
<path fill="none" stroke="black" d="M443.131,-18C472.482,-18 511.164,-18 545.415,-18 545.415,-18 545.415,-18 842.698,-18 864.497,-18 888.544,-18 909.271,-18"/>
<polygon fill="black" stroke="black" points="909.466,-21.5001 919.466,-18 909.465,-14.5001 909.466,-21.5001"/>
</g>
<!-- node16 -->
<g id="node17" class="node"><title>node16</title>
<ellipse fill="none" stroke="black" cx="962.541" cy="-202" rx="42.7926" ry="18"/>
<text text-anchor="middle" x="962.541" y="-198.3" font-family="Times New Roman,serif" font-size="14.00">Output 1</text>
</g>
<!-- node14&#45;&gt;node16 -->
<g id="edge22" class="edge"><title>node14&#45;&gt;node16</title>
<path fill="none" stroke="black" d="M744.761,-202C790.826,-202 861.281,-202 909.275,-202"/>
<polygon fill="black" stroke="black" points="909.459,-205.5 919.459,-202 909.459,-198.5 909.459,-205.5"/>
</g>
</g>
</svg>
