<?xml version="1.0" encoding="UTF-8" standalone="no"?>
<!DOCTYPE svg PUBLIC "-//W3C//DTD SVG 1.1//EN"
 "http://www.w3.org/Graphics/SVG/1.1/DTD/svg11.dtd">
<!-- Generated by graphviz version 2.38.0 (20140413.2041)
 -->
<!-- Title: NeuralNetwork Pages: 1 -->
<svg width="288pt" height="100pt"
 viewBox="0.00 0.00 288.00 99.61" xmlns="http://www.w3.org/2000/svg" xmlns:xlink="http://www.w3.org/1999/xlink">
<g id="graph0" class="graph" transform="scale(0.259404 0.259404) rotate(0) translate(4 380)">
<title>NeuralNetwork</title>
<polygon fill="white" stroke="none" points="-4,4 -4,-380 1106.24,-380 1106.24,4 -4,4"/>
<!-- node0 -->
<g id="node1" class="node"><title>node0</title>
<ellipse fill="none" stroke="black" cx="42.2463" cy="-124" rx="42.4939" ry="18"/>
<text text-anchor="middle" x="42.2463" y="-120.3" font-family="Times New Roman,serif" font-size="14.00">(0) Input</text>
</g>
<!-- node6 -->
<g id="node7" class="node"><title>node6</title>
<ellipse fill="none" stroke="black" cx="183.389" cy="-194" rx="36.2938" ry="18"/>
<text text-anchor="middle" x="183.389" y="-190.3" font-family="Times New Roman,serif" font-size="14.00">(6) OR</text>
</g>
<!-- node0&#45;&gt;node6 -->
<g id="edge4" class="edge"><title>node0&#45;&gt;node6</title>
<path fill="none" stroke="black" d="M64.2487,-139.4C75.2895,-147.084 89.2496,-156.17 102.493,-163 115.243,-169.576 129.723,-175.596 142.821,-180.546"/>
<polygon fill="black" stroke="black" points="141.922,-183.944 152.516,-184.114 144.34,-177.375 141.922,-183.944"/>
<text text-anchor="middle" x="112.493" y="-174.8" font-family="Times New Roman,serif" font-size="14.00"> (1)</text>
</g>
<!-- node7 -->
<g id="node8" class="node"><title>node7</title>
<ellipse fill="none" stroke="black" cx="183.389" cy="-122" rx="42.7926" ry="18"/>
<text text-anchor="middle" x="183.389" y="-118.3" font-family="Times New Roman,serif" font-size="14.00">(7) XOR</text>
</g>
<!-- node0&#45;&gt;node7 -->
<g id="edge6" class="edge"><title>node0&#45;&gt;node7</title>
<path fill="none" stroke="black" d="M78.0946,-114.348C86.0511,-112.542 94.514,-110.93 102.493,-110 113.586,-108.707 125.508,-109.379 136.67,-110.919"/>
<polygon fill="black" stroke="black" points="136.229,-114.394 146.661,-112.546 137.354,-107.485 136.229,-114.394"/>
<text text-anchor="middle" x="112.493" y="-113.8" font-family="Times New Roman,serif" font-size="14.00"> (1)</text>
</g>
<!-- node1 -->
<g id="node2" class="node"><title>node1</title>
<ellipse fill="none" stroke="black" cx="42.2463" cy="-334" rx="42.4939" ry="18"/>
<text text-anchor="middle" x="42.2463" y="-330.3" font-family="Times New Roman,serif" font-size="14.00">(1) Input</text>
</g>
<!-- node5 -->
<g id="node6" class="node"><title>node5</title>
<ellipse fill="none" stroke="black" cx="183.389" cy="-358" rx="42.4939" ry="18"/>
<text text-anchor="middle" x="183.389" y="-354.3" font-family="Times New Roman,serif" font-size="14.00">(5) AND</text>
</g>
<!-- node1&#45;&gt;node5 -->
<g id="edge1" class="edge"><title>node1&#45;&gt;node5</title>
<path fill="none" stroke="black" d="M81.6359,-340.622C97.6233,-343.379 116.381,-346.615 133.349,-349.541"/>
<polygon fill="black" stroke="black" points="133.192,-353.066 143.641,-351.317 134.382,-346.168 133.192,-353.066"/>
<text text-anchor="middle" x="112.493" y="-350.8" font-family="Times New Roman,serif" font-size="14.00"> (0)</text>
</g>
<!-- node12 -->
<g id="node13" class="node"><title>node12</title>
<ellipse fill="none" stroke="black" cx="480.622" cy="-249" rx="47.3916" ry="18"/>
<text text-anchor="middle" x="480.622" y="-245.3" font-family="Times New Roman,serif" font-size="14.00">(12) XOR</text>
</g>
<!-- node1&#45;&gt;node12 -->
<g id="edge14" class="edge"><title>node1&#45;&gt;node12</title>
<path fill="none" stroke="black" d="M81.8919,-327.746C144.174,-317.563 270.561,-296.475 377.176,-276 394.126,-272.745 398.442,-272.221 415.176,-268 421.189,-266.483 427.483,-264.777 433.682,-263.026"/>
<polygon fill="black" stroke="black" points="434.652,-266.389 443.293,-260.258 432.714,-259.663 434.652,-266.389"/>
<text text-anchor="middle" x="254.285" y="-302.8" font-family="Times New Roman,serif" font-size="14.00"> (0)</text>
</g>
<!-- node2 -->
<g id="node3" class="node"><title>node2</title>
<ellipse fill="none" stroke="black" cx="42.2463" cy="-194" rx="42.4939" ry="18"/>
<text text-anchor="middle" x="42.2463" y="-190.3" font-family="Times New Roman,serif" font-size="14.00">(2) Input</text>
</g>
<!-- node2&#45;&gt;node6 -->
<g id="edge3" class="edge"><title>node2&#45;&gt;node6</title>
<path fill="none" stroke="black" d="M82.7063,-199.317C89.3016,-200.017 96.082,-200.623 102.493,-201 113.986,-201.677 126.39,-201.186 137.918,-200.211"/>
<polygon fill="black" stroke="black" points="138.597,-203.661 148.206,-199.2 137.912,-196.695 138.597,-203.661"/>
<text text-anchor="middle" x="112.493" y="-204.8" font-family="Times New Roman,serif" font-size="14.00"> (0)</text>
</g>
<!-- node2&#45;&gt;node7 -->
<g id="edge5" class="edge"><title>node2&#45;&gt;node7</title>
<path fill="none" stroke="black" d="M58.9307,-177.441C70.1269,-166.51 86.0594,-152.656 102.493,-144 112.238,-138.866 123.301,-134.836 134.021,-131.707"/>
<polygon fill="black" stroke="black" points="134.983,-135.073 143.722,-129.082 133.155,-128.316 134.983,-135.073"/>
<text text-anchor="middle" x="112.493" y="-147.8" font-family="Times New Roman,serif" font-size="14.00"> (0)</text>
</g>
<!-- node3 -->
<g id="node4" class="node"><title>node3</title>
<ellipse fill="none" stroke="black" cx="42.2463" cy="-266" rx="42.4939" ry="18"/>
<text text-anchor="middle" x="42.2463" y="-262.3" font-family="Times New Roman,serif" font-size="14.00">(3) Input</text>
</g>
<!-- node3&#45;&gt;node5 -->
<g id="edge2" class="edge"><title>node3&#45;&gt;node5</title>
<path fill="none" stroke="black" d="M65.9116,-280.986C89.1581,-296.357 125.483,-320.374 151.383,-337.499"/>
<polygon fill="black" stroke="black" points="149.461,-340.424 159.733,-343.02 153.322,-334.585 149.461,-340.424"/>
<text text-anchor="middle" x="112.493" y="-320.8" font-family="Times New Roman,serif" font-size="14.00"> (1)</text>
</g>
<!-- node10 -->
<g id="node11" class="node"><title>node10</title>
<ellipse fill="none" stroke="black" cx="329.731" cy="-249" rx="47.3916" ry="18"/>
<text text-anchor="middle" x="329.731" y="-245.3" font-family="Times New Roman,serif" font-size="14.00">(10) XOR</text>
</g>
<!-- node3&#45;&gt;node10 -->
<g id="edge11" class="edge"><title>node3&#45;&gt;node10</title>
<path fill="none" stroke="black" d="M84.1492,-263.564C133.643,-260.617 217.222,-255.64 272.687,-252.337"/>
<polygon fill="black" stroke="black" points="272.927,-255.829 282.702,-251.741 272.511,-248.842 272.927,-255.829"/>
<text text-anchor="middle" x="183.389" y="-263.8" font-family="Times New Roman,serif" font-size="14.00"> (1)</text>
</g>
<!-- node4 -->
<g id="node5" class="node"><title>node4</title>
<ellipse fill="none" stroke="black" cx="42.2463" cy="-45" rx="42.4939" ry="18"/>
<text text-anchor="middle" x="42.2463" y="-41.3" font-family="Times New Roman,serif" font-size="14.00">(4) Input</text>
</g>
<!-- node9 -->
<g id="node10" class="node"><title>node9</title>
<ellipse fill="none" stroke="black" cx="480.622" cy="-126" rx="36.2938" ry="18"/>
<text text-anchor="middle" x="480.622" y="-122.3" font-family="Times New Roman,serif" font-size="14.00">(9) OR</text>
</g>
<!-- node4&#45;&gt;node9 -->
<g id="edge9" class="edge"><title>node4&#45;&gt;node9</title>
<path fill="none" stroke="black" d="M82.7352,-50.5345C158.476,-61.2515 321.576,-84.8484 377.176,-97 397.994,-101.55 420.837,-107.883 439.66,-113.47"/>
<polygon fill="black" stroke="black" points="438.8,-116.866 449.384,-116.396 440.817,-110.163 438.8,-116.866"/>
<text text-anchor="middle" x="254.285" y="-80.8" font-family="Times New Roman,serif" font-size="14.00"> (1)</text>
</g>
<!-- node17 -->
<g id="node18" class="node"><title>node17</title>
<ellipse fill="none" stroke="black" cx="329.731" cy="-18" rx="47.3916" ry="18"/>
<text text-anchor="middle" x="329.731" y="-14.3" font-family="Times New Roman,serif" font-size="14.00">(17) XOR</text>
</g>
<!-- node4&#45;&gt;node17 -->
<g id="edge24" class="edge"><title>node4&#45;&gt;node17</title>
<path fill="none" stroke="black" d="M83.5437,-41.1888C133.174,-36.495 217.725,-28.4985 273.41,-23.232"/>
<polygon fill="black" stroke="black" points="273.831,-26.7079 283.457,-22.2818 273.171,-19.739 273.831,-26.7079"/>
<text text-anchor="middle" x="183.389" y="-39.8" font-family="Times New Roman,serif" font-size="14.00"> (1)</text>
</g>
<!-- node16 -->
<g id="node17" class="node"><title>node16</title>
<ellipse fill="none" stroke="black" cx="931.997" cy="-326" rx="47.3916" ry="18"/>
<text text-anchor="middle" x="931.997" y="-322.3" font-family="Times New Roman,serif" font-size="14.00">(16) XOR</text>
</g>
<!-- node5&#45;&gt;node16 -->
<g id="edge22" class="edge"><title>node5&#45;&gt;node16</title>
<path fill="none" stroke="black" d="M225.444,-356.257C254.325,-355.179 293.885,-354 328.731,-354 328.731,-354 328.731,-354 782.106,-354 816.692,-354 855.031,-346.612 884.143,-339.427"/>
<polygon fill="black" stroke="black" points="885.208,-342.767 894.034,-336.906 883.479,-335.984 885.208,-342.767"/>
<text text-anchor="middle" x="556.068" y="-357.8" font-family="Times New Roman,serif" font-size="14.00"> (1)</text>
</g>
<!-- node6&#45;&gt;node10 -->
<g id="edge10" class="edge"><title>node6&#45;&gt;node10</title>
<path fill="none" stroke="black" d="M212.89,-204.616C228.15,-210.322 247.259,-217.501 264.285,-224 271.376,-226.707 278.898,-229.602 286.204,-232.428"/>
<polygon fill="black" stroke="black" points="285.383,-235.863 295.972,-236.213 287.912,-229.336 285.383,-235.863"/>
<text text-anchor="middle" x="254.285" y="-227.8" font-family="Times New Roman,serif" font-size="14.00"> (0)</text>
</g>
<!-- node11 -->
<g id="node12" class="node"><title>node11</title>
<ellipse fill="none" stroke="black" cx="630.864" cy="-190" rx="46.5926" ry="18"/>
<text text-anchor="middle" x="630.864" y="-186.3" font-family="Times New Roman,serif" font-size="14.00">(11) AND</text>
</g>
<!-- node6&#45;&gt;node11 -->
<g id="edge13" class="edge"><title>node6&#45;&gt;node11</title>
<path fill="none" stroke="black" d="M220.091,-193.679C297.404,-192.985 480.817,-191.338 573.778,-190.504"/>
<polygon fill="black" stroke="black" points="573.873,-194.003 583.841,-190.413 573.81,-187.003 573.873,-194.003"/>
<text text-anchor="middle" x="405.176" y="-195.8" font-family="Times New Roman,serif" font-size="14.00"> (1)</text>
</g>
<!-- node8 -->
<g id="node9" class="node"><title>node8</title>
<ellipse fill="none" stroke="black" cx="329.731" cy="-124" rx="42.4939" ry="18"/>
<text text-anchor="middle" x="329.731" y="-120.3" font-family="Times New Roman,serif" font-size="14.00">(8) NEG</text>
</g>
<!-- node7&#45;&gt;node8 -->
<g id="edge7" class="edge"><title>node7&#45;&gt;node8</title>
<path fill="none" stroke="black" d="M226.526,-122.584C242.376,-122.803 260.577,-123.056 277.187,-123.286"/>
<polygon fill="black" stroke="black" points="277.24,-126.787 287.288,-123.426 277.337,-119.787 277.24,-126.787"/>
<text text-anchor="middle" x="254.285" y="-126.8" font-family="Times New Roman,serif" font-size="14.00"> (0)</text>
</g>
<!-- node7&#45;&gt;node17 -->
<g id="edge23" class="edge"><title>node7&#45;&gt;node17</title>
<path fill="none" stroke="black" d="M192.507,-104.22C202.137,-85.1588 219.999,-55.4274 244.285,-39 253.104,-33.0347 263.467,-28.7624 273.856,-25.7029"/>
<polygon fill="black" stroke="black" points="274.977,-29.028 283.775,-23.1255 273.216,-22.253 274.977,-29.028"/>
<text text-anchor="middle" x="254.285" y="-42.8" font-family="Times New Roman,serif" font-size="14.00"> (0)</text>
</g>
<!-- node8&#45;&gt;node9 -->
<g id="edge8" class="edge"><title>node8&#45;&gt;node9</title>
<path fill="none" stroke="black" d="M372.205,-124.557C391.315,-124.814 414.057,-125.119 433.685,-125.383"/>
<polygon fill="black" stroke="black" points="433.88,-128.886 443.926,-125.521 433.974,-121.886 433.88,-128.886"/>
<text text-anchor="middle" x="405.176" y="-128.8" font-family="Times New Roman,serif" font-size="14.00"> (0)</text>
</g>
<!-- node9&#45;&gt;node11 -->
<g id="edge12" class="edge"><title>node9&#45;&gt;node11</title>
<path fill="none" stroke="black" d="M509.486,-137.273C525.995,-144.02 547.291,-152.844 566.068,-161 574.089,-164.484 582.634,-168.298 590.778,-171.981"/>
<polygon fill="black" stroke="black" points="589.546,-175.266 600.098,-176.218 592.443,-168.893 589.546,-175.266"/>
<text text-anchor="middle" x="556.068" y="-164.8" font-family="Times New Roman,serif" font-size="14.00"> (0)</text>
</g>
<!-- node15 -->
<g id="node16" class="node"><title>node15</title>
<ellipse fill="none" stroke="black" cx="781.106" cy="-144" rx="47.3916" ry="18"/>
<text text-anchor="middle" x="781.106" y="-140.3" font-family="Times New Roman,serif" font-size="14.00">(15) XOR</text>
</g>
<!-- node9&#45;&gt;node15 -->
<g id="edge19" class="edge"><title>node9&#45;&gt;node15</title>
<path fill="none" stroke="black" d="M517.034,-128.136C568.127,-131.217 663.042,-136.94 723.806,-140.605"/>
<polygon fill="black" stroke="black" points="723.802,-144.111 733.994,-141.219 724.223,-137.124 723.802,-144.111"/>
<text text-anchor="middle" x="630.864" y="-140.8" font-family="Times New Roman,serif" font-size="14.00"> (0)</text>
</g>
<!-- node10&#45;&gt;node12 -->
<g id="edge15" class="edge"><title>node10&#45;&gt;node12</title>
<path fill="none" stroke="black" d="M377.432,-249C391.845,-249 407.877,-249 422.889,-249"/>
<polygon fill="black" stroke="black" points="423.086,-252.5 433.086,-249 423.086,-245.5 423.086,-252.5"/>
<text text-anchor="middle" x="405.176" y="-252.8" font-family="Times New Roman,serif" font-size="14.00"> (1)</text>
</g>
<!-- node14 -->
<g id="node15" class="node"><title>node14</title>
<ellipse fill="none" stroke="black" cx="781.106" cy="-245" rx="46.5926" ry="18"/>
<text text-anchor="middle" x="781.106" y="-241.3" font-family="Times New Roman,serif" font-size="14.00">(14) AND</text>
</g>
<!-- node11&#45;&gt;node14 -->
<g id="edge18" class="edge"><title>node11&#45;&gt;node14</title>
<path fill="none" stroke="black" d="M665.132,-202.343C686.42,-210.241 714.246,-220.565 737.191,-229.078"/>
<polygon fill="black" stroke="black" points="736.099,-232.406 746.692,-232.603 738.534,-225.843 736.099,-232.406"/>
<text text-anchor="middle" x="705.66" y="-223.8" font-family="Times New Roman,serif" font-size="14.00"> (1)</text>
</g>
<!-- node13 -->
<g id="node14" class="node"><title>node13</title>
<ellipse fill="none" stroke="black" cx="630.864" cy="-245" rx="46.2923" ry="18"/>
<text text-anchor="middle" x="630.864" y="-241.3" font-family="Times New Roman,serif" font-size="14.00">(13) NEG</text>
</g>
<!-- node12&#45;&gt;node13 -->
<g id="edge16" class="edge"><title>node12&#45;&gt;node13</title>
<path fill="none" stroke="black" d="M528.12,-247.745C542.815,-247.349 559.2,-246.907 574.454,-246.495"/>
<polygon fill="black" stroke="black" points="574.897,-249.985 584.799,-246.216 574.708,-242.987 574.897,-249.985"/>
<text text-anchor="middle" x="556.068" y="-250.8" font-family="Times New Roman,serif" font-size="14.00"> (0)</text>
</g>
<!-- node13&#45;&gt;node14 -->
<g id="edge17" class="edge"><title>node13&#45;&gt;node14</title>
<path fill="none" stroke="black" d="M677.147,-245C691.813,-245 708.265,-245 723.64,-245"/>
<polygon fill="black" stroke="black" points="724.077,-248.5 734.077,-245 724.077,-241.5 724.077,-248.5"/>
<text text-anchor="middle" x="705.66" y="-248.8" font-family="Times New Roman,serif" font-size="14.00"> (0)</text>
</g>
<!-- node13&#45;&gt;node15 -->
<g id="edge20" class="edge"><title>node13&#45;&gt;node15</title>
<path fill="none" stroke="black" d="M659.069,-230.44C665.46,-226.47 672.04,-221.899 677.66,-217 687.183,-208.699 686.114,-203.275 695.66,-195 709.832,-182.715 727.331,-171.608 742.718,-162.919"/>
<polygon fill="black" stroke="black" points="744.418,-165.979 751.493,-158.092 741.044,-159.846 744.418,-165.979"/>
<text text-anchor="middle" x="705.66" y="-198.8" font-family="Times New Roman,serif" font-size="14.00"> (1)</text>
</g>
<!-- node14&#45;&gt;node16 -->
<g id="edge21" class="edge"><title>node14&#45;&gt;node16</title>
<path fill="none" stroke="black" d="M809.069,-259.668C833.057,-272.719 868.334,-291.91 894.779,-306.297"/>
<polygon fill="black" stroke="black" points="893.275,-309.463 903.731,-311.167 896.62,-303.314 893.275,-309.463"/>
<text text-anchor="middle" x="856.551" y="-293.8" font-family="Times New Roman,serif" font-size="14.00"> (0)</text>
</g>
<!-- node19 -->
<g id="node20" class="node"><title>node19</title>
<ellipse fill="none" stroke="black" cx="1059.34" cy="-144" rx="42.7926" ry="18"/>
<text text-anchor="middle" x="1059.34" y="-140.3" font-family="Times New Roman,serif" font-size="14.00">Output 1</text>
</g>
<!-- node15&#45;&gt;node19 -->
<g id="edge26" class="edge"><title>node15&#45;&gt;node19</title>
<path fill="none" stroke="black" d="M828.652,-144C877.705,-144 954.803,-144 1005.95,-144"/>
<polygon fill="black" stroke="black" points="1006.14,-147.5 1016.14,-144 1006.14,-140.5 1006.14,-147.5"/>
</g>
<!-- node20 -->
<g id="node21" class="node"><title>node20</title>
<ellipse fill="none" stroke="black" cx="1059.34" cy="-326" rx="42.7926" ry="18"/>
<text text-anchor="middle" x="1059.34" y="-322.3" font-family="Times New Roman,serif" font-size="14.00">Output 2</text>
</g>
<!-- node16&#45;&gt;node20 -->
<g id="edge27" class="edge"><title>node16&#45;&gt;node20</title>
<path fill="none" stroke="black" d="M979.67,-326C988.274,-326 997.31,-326 1006.07,-326"/>
<polygon fill="black" stroke="black" points="1006.18,-329.5 1016.18,-326 1006.18,-322.5 1006.18,-329.5"/>
</g>
<!-- node18 -->
<g id="node19" class="node"><title>node18</title>
<ellipse fill="none" stroke="black" cx="1059.34" cy="-18" rx="42.7926" ry="18"/>
<text text-anchor="middle" x="1059.34" y="-14.3" font-family="Times New Roman,serif" font-size="14.00">Output 0</text>
</g>
<!-- node17&#45;&gt;node18 -->
<g id="edge25" class="edge"><title>node17&#45;&gt;node18</title>
<path fill="none" stroke="black" d="M377.339,-18C406.69,-18 445.372,-18 479.622,-18 479.622,-18 479.622,-18 932.997,-18 957.057,-18 983.715,-18 1006.24,-18"/>
<polygon fill="black" stroke="black" points="1006.27,-21.5001 1016.27,-18 1006.27,-14.5001 1006.27,-21.5001"/>
</g>
</g>
</svg>
