<?xml version="1.0" encoding="UTF-8" standalone="no"?>
<!DOCTYPE svg PUBLIC "-//W3C//DTD SVG 1.1//EN"
 "http://www.w3.org/Graphics/SVG/1.1/DTD/svg11.dtd">
<!-- Generated by graphviz version 2.38.0 (20140413.2041)
 -->
<!-- Title: NeuralNetwork Pages: 1 -->
<svg width="288pt" height="107pt"
 viewBox="0.00 0.00 288.00 106.60" xmlns="http://www.w3.org/2000/svg" xmlns:xlink="http://www.w3.org/1999/xlink">
<g id="graph0" class="graph" transform="scale(0.217044 0.217044) rotate(0) translate(4 487.132)">
<title>NeuralNetwork</title>
<polygon fill="white" stroke="none" points="-4,4 -4,-487.132 1322.92,-487.132 1322.92,4 -4,4"/>
<!-- node0 -->
<g id="node1" class="node"><title>node0</title>
<ellipse fill="none" stroke="black" cx="42.2463" cy="-136.132" rx="42.4939" ry="18"/>
<text text-anchor="middle" x="42.2463" y="-132.432" font-family="Times New Roman,serif" font-size="14.00">(0) Input</text>
</g>
<!-- node8 -->
<g id="node9" class="node"><title>node8</title>
<ellipse fill="none" stroke="black" cx="183.389" cy="-104.132" rx="42.7926" ry="18"/>
<text text-anchor="middle" x="183.389" y="-100.432" font-family="Times New Roman,serif" font-size="14.00">(8) XOR</text>
</g>
<!-- node0&#45;&gt;node8 -->
<g id="edge7" class="edge"><title>node0&#45;&gt;node8</title>
<path fill="none" stroke="black" d="M54.7463,-118.72C65.2606,-104.523 82.2329,-85.4991 102.493,-77.132 118.63,-70.4672 137.07,-75.8703 152.165,-83.5445"/>
<polygon fill="black" stroke="black" points="150.645,-86.7044 161.082,-88.5287 154.061,-80.5942 150.645,-86.7044"/>
<text text-anchor="middle" x="112.493" y="-80.932" font-family="Times New Roman,serif" font-size="14.00"> (0)</text>
</g>
<!-- node9 -->
<g id="node10" class="node"><title>node9</title>
<ellipse fill="none" stroke="black" cx="183.389" cy="-228.132" rx="36.2938" ry="18"/>
<text text-anchor="middle" x="183.389" y="-224.432" font-family="Times New Roman,serif" font-size="14.00">(9) OR</text>
</g>
<!-- node0&#45;&gt;node9 -->
<g id="edge10" class="edge"><title>node0&#45;&gt;node9</title>
<path fill="none" stroke="black" d="M66.3761,-151.26C72.2846,-155.128 78.6251,-159.282 84.4925,-163.132 101.394,-174.224 105.642,-176.963 122.493,-188.132 132.308,-194.638 143.007,-201.77 152.611,-208.187"/>
<polygon fill="black" stroke="black" points="150.809,-211.193 161.067,-213.842 154.7,-205.374 150.809,-211.193"/>
<text text-anchor="middle" x="112.493" y="-191.932" font-family="Times New Roman,serif" font-size="14.00"> (1)</text>
</g>
<!-- node1 -->
<g id="node2" class="node"><title>node1</title>
<ellipse fill="none" stroke="black" cx="42.2463" cy="-304.132" rx="42.4939" ry="18"/>
<text text-anchor="middle" x="42.2463" y="-300.432" font-family="Times New Roman,serif" font-size="14.00">(1) Input</text>
</g>
<!-- node5 -->
<g id="node6" class="node"><title>node5</title>
<ellipse fill="none" stroke="black" cx="183.389" cy="-171.132" rx="42.7926" ry="18"/>
<text text-anchor="middle" x="183.389" y="-167.432" font-family="Times New Roman,serif" font-size="14.00">(5) XOR</text>
</g>
<!-- node1&#45;&gt;node5 -->
<g id="edge1" class="edge"><title>node1&#45;&gt;node5</title>
<path fill="none" stroke="black" d="M63.3034,-288.418C80.2908,-274.497 104.657,-253.034 122.493,-231.132 132.311,-219.075 129.952,-212.563 140.493,-201.132 143.426,-197.951 146.747,-194.9 150.204,-192.045"/>
<polygon fill="black" stroke="black" points="152.59,-194.627 158.4,-185.767 148.333,-189.07 152.59,-194.627"/>
<text text-anchor="middle" x="112.493" y="-255.932" font-family="Times New Roman,serif" font-size="14.00"> (0)</text>
</g>
<!-- node6 -->
<g id="node7" class="node"><title>node6</title>
<ellipse fill="none" stroke="black" cx="287.181" cy="-387.132" rx="42.7926" ry="18"/>
<text text-anchor="middle" x="287.181" y="-383.432" font-family="Times New Roman,serif" font-size="14.00">(6) XOR</text>
</g>
<!-- node1&#45;&gt;node6 -->
<g id="edge3" class="edge"><title>node1&#45;&gt;node6</title>
<path fill="none" stroke="black" d="M84.2772,-302.219C122.841,-302.059 181.211,-306.129 226.285,-328.132 242.317,-335.958 256.694,-349.761 267.342,-362.049"/>
<polygon fill="black" stroke="black" points="264.707,-364.355 273.78,-369.827 270.1,-359.892 264.707,-364.355"/>
<text text-anchor="middle" x="112.493" y="-306.932" font-family="Times New Roman,serif" font-size="14.00"> (0)</text>
</g>
<!-- node7 -->
<g id="node8" class="node"><title>node7</title>
<ellipse fill="none" stroke="black" cx="183.389" cy="-465.132" rx="42.4939" ry="18"/>
<text text-anchor="middle" x="183.389" y="-461.432" font-family="Times New Roman,serif" font-size="14.00">(7) AND</text>
</g>
<!-- node1&#45;&gt;node7 -->
<g id="edge5" class="edge"><title>node1&#45;&gt;node7</title>
<path fill="none" stroke="black" d="M60.9893,-320.617C77.5584,-336.336 102.644,-360.978 122.493,-384.132 137.667,-401.834 153.28,-423.065 164.76,-439.349"/>
<polygon fill="black" stroke="black" points="162.089,-441.637 170.683,-447.833 167.829,-437.63 162.089,-441.637"/>
<text text-anchor="middle" x="112.493" y="-387.932" font-family="Times New Roman,serif" font-size="14.00"> (0)</text>
</g>
<!-- node2 -->
<g id="node3" class="node"><title>node2</title>
<ellipse fill="none" stroke="black" cx="42.2463" cy="-190.132" rx="42.4939" ry="18"/>
<text text-anchor="middle" x="42.2463" y="-186.432" font-family="Times New Roman,serif" font-size="14.00">(2) Input</text>
</g>
<!-- node2&#45;&gt;node8 -->
<g id="edge8" class="edge"><title>node2&#45;&gt;node8</title>
<path fill="none" stroke="black" d="M66.8594,-175.324C77.7026,-168.54 90.7371,-160.407 102.493,-153.132 117.961,-143.559 135.156,-133.002 149.62,-124.146"/>
<polygon fill="black" stroke="black" points="151.53,-127.081 158.233,-118.876 147.876,-121.11 151.53,-127.081"/>
<text text-anchor="middle" x="112.493" y="-156.932" font-family="Times New Roman,serif" font-size="14.00"> (1)</text>
</g>
<!-- node2&#45;&gt;node9 -->
<g id="edge9" class="edge"><title>node2&#45;&gt;node9</title>
<path fill="none" stroke="black" d="M78.3578,-199.721C97.5041,-204.95 121.309,-211.451 141.313,-216.914"/>
<polygon fill="black" stroke="black" points="140.518,-220.325 151.087,-219.583 142.362,-213.572 140.518,-220.325"/>
<text text-anchor="middle" x="112.493" y="-215.932" font-family="Times New Roman,serif" font-size="14.00"> (0)</text>
</g>
<!-- node3 -->
<g id="node4" class="node"><title>node3</title>
<ellipse fill="none" stroke="black" cx="42.2463" cy="-421.132" rx="42.4939" ry="18"/>
<text text-anchor="middle" x="42.2463" y="-417.432" font-family="Times New Roman,serif" font-size="14.00">(3) Input</text>
</g>
<!-- node3&#45;&gt;node6 -->
<g id="edge4" class="edge"><title>node3&#45;&gt;node6</title>
<path fill="none" stroke="black" d="M82.5479,-415.632C124.372,-409.778 190.661,-400.501 236.177,-394.13"/>
<polygon fill="black" stroke="black" points="236.709,-397.59 246.128,-392.738 235.739,-390.658 236.709,-397.59"/>
<text text-anchor="middle" x="112.493" y="-415.932" font-family="Times New Roman,serif" font-size="14.00"> (1)</text>
</g>
<!-- node3&#45;&gt;node7 -->
<g id="edge6" class="edge"><title>node3&#45;&gt;node7</title>
<path fill="none" stroke="black" d="M76.5743,-431.671C95.3675,-437.614 119.056,-445.105 139.253,-451.491"/>
<polygon fill="black" stroke="black" points="138.26,-454.848 148.85,-454.526 140.371,-448.174 138.26,-454.848"/>
<text text-anchor="middle" x="112.493" y="-448.932" font-family="Times New Roman,serif" font-size="14.00"> (1)</text>
</g>
<!-- node10 -->
<g id="node11" class="node"><title>node10</title>
<ellipse fill="none" stroke="black" cx="395.523" cy="-251.132" rx="47.3916" ry="18"/>
<text text-anchor="middle" x="395.523" y="-247.432" font-family="Times New Roman,serif" font-size="14.00">(10) XOR</text>
</g>
<!-- node3&#45;&gt;node10 -->
<g id="edge11" class="edge"><title>node3&#45;&gt;node10</title>
<path fill="none" stroke="black" d="M57.3927,-404.293C68.5828,-391.836 85.1624,-375.182 102.493,-364.132 181.083,-314.019 285.395,-280.345 345.723,-263.568"/>
<polygon fill="black" stroke="black" points="346.657,-266.941 355.377,-260.924 344.808,-260.19 346.657,-266.941"/>
<text text-anchor="middle" x="183.389" y="-343.932" font-family="Times New Roman,serif" font-size="14.00"> (0)</text>
</g>
<!-- node4 -->
<g id="node5" class="node"><title>node4</title>
<ellipse fill="none" stroke="black" cx="42.2463" cy="-43.132" rx="42.4939" ry="18"/>
<text text-anchor="middle" x="42.2463" y="-39.432" font-family="Times New Roman,serif" font-size="14.00">(4) Input</text>
</g>
<!-- node4&#45;&gt;node5 -->
<g id="edge2" class="edge"><title>node4&#45;&gt;node5</title>
<path fill="none" stroke="black" d="M60.8687,-59.3433C85.1996,-81.7258 129.225,-122.226 157.074,-147.844"/>
<polygon fill="black" stroke="black" points="154.741,-150.454 164.47,-154.648 159.48,-145.302 154.741,-150.454"/>
<text text-anchor="middle" x="112.493" y="-118.932" font-family="Times New Roman,serif" font-size="14.00"> (1)</text>
</g>
<!-- node11 -->
<g id="node12" class="node"><title>node11</title>
<ellipse fill="none" stroke="black" cx="395.523" cy="-114.132" rx="40.8928" ry="18"/>
<text text-anchor="middle" x="395.523" y="-110.432" font-family="Times New Roman,serif" font-size="14.00">(11) OR</text>
</g>
<!-- node4&#45;&gt;node11 -->
<g id="edge14" class="edge"><title>node4&#45;&gt;node11</title>
<path fill="none" stroke="black" d="M82.0978,-37.1575C138.918,-30.1269 246.955,-23.3068 330.077,-57.132 347.101,-64.0596 362.649,-77.4961 374.206,-89.5841"/>
<polygon fill="black" stroke="black" points="371.875,-92.222 381.2,-97.251 377.046,-87.5043 371.875,-92.222"/>
<text text-anchor="middle" x="183.389" y="-37.932" font-family="Times New Roman,serif" font-size="14.00"> (1)</text>
</g>
<!-- node14 -->
<g id="node15" class="node"><title>node14</title>
<ellipse fill="none" stroke="black" cx="395.523" cy="-26.132" rx="47.3916" ry="18"/>
<text text-anchor="middle" x="395.523" y="-22.432" font-family="Times New Roman,serif" font-size="14.00">(14) XOR</text>
</g>
<!-- node4&#45;&gt;node14 -->
<g id="edge19" class="edge"><title>node4&#45;&gt;node14</title>
<path fill="none" stroke="black" d="M70.5559,-29.668C89.632,-21.0383 115.975,-10.6386 140.493,-6.13204 210.856,6.80164 293.695,-4.5867 345.167,-14.7293"/>
<polygon fill="black" stroke="black" points="344.534,-18.172 355.031,-16.7336 345.928,-11.3122 344.534,-18.172"/>
<text text-anchor="middle" x="183.389" y="-9.93204" font-family="Times New Roman,serif" font-size="14.00"> (0)</text>
</g>
<!-- node12 -->
<g id="node13" class="node"><title>node12</title>
<ellipse fill="none" stroke="black" cx="546.415" cy="-171.132" rx="47.3916" ry="18"/>
<text text-anchor="middle" x="546.415" y="-167.432" font-family="Times New Roman,serif" font-size="14.00">(12) XOR</text>
</g>
<!-- node5&#45;&gt;node12 -->
<g id="edge16" class="edge"><title>node5&#45;&gt;node12</title>
<path fill="none" stroke="black" d="M226.51,-171.132C291.308,-171.132 415.565,-171.132 488.371,-171.132"/>
<polygon fill="black" stroke="black" points="488.726,-174.632 498.726,-171.132 488.726,-167.632 488.726,-174.632"/>
<text text-anchor="middle" x="395.523" y="-174.932" font-family="Times New Roman,serif" font-size="14.00"> (1)</text>
</g>
<!-- node15 -->
<g id="node16" class="node"><title>node15</title>
<ellipse fill="none" stroke="black" cx="847.548" cy="-348.132" rx="46.5926" ry="18"/>
<text text-anchor="middle" x="847.548" y="-344.432" font-family="Times New Roman,serif" font-size="14.00">(15) AND</text>
</g>
<!-- node6&#45;&gt;node15 -->
<g id="edge22" class="edge"><title>node6&#45;&gt;node15</title>
<path fill="none" stroke="black" d="M321.606,-376.131C357.763,-365.224 417.31,-350.132 469.969,-350.132 469.969,-350.132 469.969,-350.132 698.306,-350.132 728.775,-350.132 762.763,-349.704 790.501,-349.245"/>
<polygon fill="black" stroke="black" points="790.867,-352.739 800.805,-349.068 790.747,-345.74 790.867,-352.739"/>
<text text-anchor="middle" x="546.415" y="-353.932" font-family="Times New Roman,serif" font-size="14.00"> (1)</text>
</g>
<!-- node16 -->
<g id="node17" class="node"><title>node16</title>
<ellipse fill="none" stroke="black" cx="997.79" cy="-394.132" rx="47.3916" ry="18"/>
<text text-anchor="middle" x="997.79" y="-390.432" font-family="Times New Roman,serif" font-size="14.00">(16) XOR</text>
</g>
<!-- node6&#45;&gt;node16 -->
<g id="edge23" class="edge"><title>node6&#45;&gt;node16</title>
<path fill="none" stroke="black" d="M329.678,-389.639C366.513,-391.648 421.804,-394.132 469.969,-394.132 469.969,-394.132 469.969,-394.132 848.548,-394.132 878.672,-394.132 912.238,-394.132 939.803,-394.132"/>
<polygon fill="black" stroke="black" points="940.053,-397.632 950.053,-394.132 940.053,-390.632 940.053,-397.632"/>
<text text-anchor="middle" x="621.86" y="-397.932" font-family="Times New Roman,serif" font-size="14.00"> (0)</text>
</g>
<!-- node17 -->
<g id="node18" class="node"><title>node17</title>
<ellipse fill="none" stroke="black" cx="1148.68" cy="-421.132" rx="47.3916" ry="18"/>
<text text-anchor="middle" x="1148.68" y="-417.432" font-family="Times New Roman,serif" font-size="14.00">(17) XOR</text>
</g>
<!-- node7&#45;&gt;node17 -->
<g id="edge26" class="edge"><title>node7&#45;&gt;node17</title>
<path fill="none" stroke="black" d="M225.038,-462.05C267.346,-459.112 335.539,-455.132 394.523,-455.132 394.523,-455.132 394.523,-455.132 998.79,-455.132 1035,-455.132 1074.95,-445.457 1104.34,-436.429"/>
<polygon fill="black" stroke="black" points="1105.41,-439.763 1113.88,-433.407 1103.29,-433.089 1105.41,-439.763"/>
<text text-anchor="middle" x="697.306" y="-458.932" font-family="Times New Roman,serif" font-size="14.00"> (1)</text>
</g>
<!-- node8&#45;&gt;node11 -->
<g id="edge13" class="edge"><title>node8&#45;&gt;node11</title>
<path fill="none" stroke="black" d="M226.156,-106.12C260.144,-107.737 308.222,-110.025 344.306,-111.742"/>
<polygon fill="black" stroke="black" points="344.461,-115.254 354.616,-112.233 344.794,-108.261 344.461,-115.254"/>
<text text-anchor="middle" x="287.181" y="-114.932" font-family="Times New Roman,serif" font-size="14.00"> (0)</text>
</g>
<!-- node8&#45;&gt;node14 -->
<g id="edge20" class="edge"><title>node8&#45;&gt;node14</title>
<path fill="none" stroke="black" d="M216.304,-92.2855C252.367,-78.8992 311.256,-57.04 351.392,-42.1419"/>
<polygon fill="black" stroke="black" points="352.757,-45.3685 360.914,-38.6073 350.321,-38.8061 352.757,-45.3685"/>
<text text-anchor="middle" x="287.181" y="-84.932" font-family="Times New Roman,serif" font-size="14.00"> (1)</text>
</g>
<!-- node9&#45;&gt;node10 -->
<g id="edge12" class="edge"><title>node9&#45;&gt;node10</title>
<path fill="none" stroke="black" d="M219.088,-231.93C251.693,-235.499 301.031,-240.899 339.089,-245.065"/>
<polygon fill="black" stroke="black" points="339.179,-248.595 349.5,-246.204 339.941,-241.637 339.179,-248.595"/>
<text text-anchor="middle" x="287.181" y="-246.932" font-family="Times New Roman,serif" font-size="14.00"> (1)</text>
</g>
<!-- node13 -->
<g id="node14" class="node"><title>node13</title>
<ellipse fill="none" stroke="black" cx="697.306" cy="-251.132" rx="47.3916" ry="18"/>
<text text-anchor="middle" x="697.306" y="-247.432" font-family="Times New Roman,serif" font-size="14.00">(13) XOR</text>
</g>
<!-- node10&#45;&gt;node13 -->
<g id="edge17" class="edge"><title>node10&#45;&gt;node13</title>
<path fill="none" stroke="black" d="M443.035,-251.132C495.985,-251.132 582.492,-251.132 639.415,-251.132"/>
<polygon fill="black" stroke="black" points="639.685,-254.632 649.685,-251.132 639.685,-247.632 639.685,-254.632"/>
<text text-anchor="middle" x="546.415" y="-254.932" font-family="Times New Roman,serif" font-size="14.00"> (0)</text>
</g>
<!-- node11&#45;&gt;node12 -->
<g id="edge15" class="edge"><title>node11&#45;&gt;node12</title>
<path fill="none" stroke="black" d="M429.687,-124.259C445.37,-129.269 464.274,-135.628 480.969,-142.132 489.441,-145.433 498.409,-149.253 506.875,-153.015"/>
<polygon fill="black" stroke="black" points="505.614,-156.285 516.168,-157.207 508.492,-149.904 505.614,-156.285"/>
<text text-anchor="middle" x="470.969" y="-145.932" font-family="Times New Roman,serif" font-size="14.00"> (0)</text>
</g>
<!-- node12&#45;&gt;node13 -->
<g id="edge18" class="edge"><title>node12&#45;&gt;node13</title>
<path fill="none" stroke="black" d="M574.724,-185.805C598.755,-198.717 633.919,-217.611 660.256,-231.762"/>
<polygon fill="black" stroke="black" points="658.705,-234.902 669.17,-236.552 662.018,-228.736 658.705,-234.902"/>
<text text-anchor="middle" x="621.86" y="-219.932" font-family="Times New Roman,serif" font-size="14.00"> (1)</text>
</g>
<!-- node13&#45;&gt;node15 -->
<g id="edge21" class="edge"><title>node13&#45;&gt;node15</title>
<path fill="none" stroke="black" d="M722.124,-266.717C747.086,-283.05 786.46,-308.814 814.218,-326.977"/>
<polygon fill="black" stroke="black" points="812.505,-330.039 822.789,-332.586 816.338,-324.182 812.505,-330.039"/>
<text text-anchor="middle" x="772.752" y="-308.932" font-family="Times New Roman,serif" font-size="14.00"> (0)</text>
</g>
<!-- node19 -->
<g id="node20" class="node"><title>node19</title>
<ellipse fill="none" stroke="black" cx="1276.02" cy="-251.132" rx="42.7926" ry="18"/>
<text text-anchor="middle" x="1276.02" y="-247.432" font-family="Times New Roman,serif" font-size="14.00">Output 1</text>
</g>
<!-- node13&#45;&gt;node19 -->
<g id="edge28" class="edge"><title>node13&#45;&gt;node19</title>
<path fill="none" stroke="black" d="M745.042,-251.132C774.225,-251.132 812.576,-251.132 846.548,-251.132 846.548,-251.132 846.548,-251.132 1149.68,-251.132 1173.74,-251.132 1200.4,-251.132 1222.92,-251.132"/>
<polygon fill="black" stroke="black" points="1222.96,-254.632 1232.96,-251.132 1222.96,-247.632 1222.96,-254.632"/>
</g>
<!-- node18 -->
<g id="node19" class="node"><title>node18</title>
<ellipse fill="none" stroke="black" cx="1276.02" cy="-26.132" rx="42.7926" ry="18"/>
<text text-anchor="middle" x="1276.02" y="-22.432" font-family="Times New Roman,serif" font-size="14.00">Output 0</text>
</g>
<!-- node14&#45;&gt;node18 -->
<g id="edge27" class="edge"><title>node14&#45;&gt;node18</title>
<path fill="none" stroke="black" d="M443.131,-26.132C472.482,-26.132 511.164,-26.132 545.415,-26.132 545.415,-26.132 545.415,-26.132 1149.68,-26.132 1173.74,-26.132 1200.4,-26.132 1222.92,-26.132"/>
<polygon fill="black" stroke="black" points="1222.96,-29.6321 1232.96,-26.132 1222.96,-22.6321 1222.96,-29.6321"/>
</g>
<!-- node15&#45;&gt;node16 -->
<g id="edge24" class="edge"><title>node15&#45;&gt;node16</title>
<path fill="none" stroke="black" d="M891.22,-354.885C904.551,-357.5 919.203,-360.901 932.344,-365.132 941.349,-368.032 950.776,-371.816 959.554,-375.688"/>
<polygon fill="black" stroke="black" points="958.223,-378.927 968.774,-379.887 961.124,-372.557 958.223,-378.927"/>
<text text-anchor="middle" x="922.344" y="-368.932" font-family="Times New Roman,serif" font-size="14.00"> (1)</text>
</g>
<!-- node16&#45;&gt;node17 -->
<g id="edge25" class="edge"><title>node16&#45;&gt;node17</title>
<path fill="none" stroke="black" d="M1041.06,-401.797C1057.95,-404.86 1077.57,-408.418 1095.35,-411.642"/>
<polygon fill="black" stroke="black" points="1095.1,-415.154 1105.57,-413.495 1096.35,-408.267 1095.1,-415.154"/>
<text text-anchor="middle" x="1073.24" y="-412.932" font-family="Times New Roman,serif" font-size="14.00"> (0)</text>
</g>
<!-- node20 -->
<g id="node21" class="node"><title>node20</title>
<ellipse fill="none" stroke="black" cx="1276.02" cy="-421.132" rx="42.7926" ry="18"/>
<text text-anchor="middle" x="1276.02" y="-417.432" font-family="Times New Roman,serif" font-size="14.00">Output 2</text>
</g>
<!-- node17&#45;&gt;node20 -->
<g id="edge29" class="edge"><title>node17&#45;&gt;node20</title>
<path fill="none" stroke="black" d="M1196.35,-421.132C1204.96,-421.132 1213.99,-421.132 1222.75,-421.132"/>
<polygon fill="black" stroke="black" points="1222.86,-424.632 1232.86,-421.132 1222.86,-417.632 1222.86,-424.632"/>
</g>
</g>
</svg>
