<?xml version="1.0" encoding="UTF-8" standalone="no"?>
<!DOCTYPE svg PUBLIC "-//W3C//DTD SVG 1.1//EN"
 "http://www.w3.org/Graphics/SVG/1.1/DTD/svg11.dtd">
<!-- Generated by graphviz version 2.38.0 (20140413.2041)
 -->
<!-- Title: NeuralNetwork Pages: 1 -->
<svg width="288pt" height="129pt"
 viewBox="0.00 0.00 288.00 128.61" xmlns="http://www.w3.org/2000/svg" xmlns:xlink="http://www.w3.org/1999/xlink">
<g id="graph0" class="graph" transform="scale(0.282011 0.282011) rotate(0) translate(4 452.048)">
<title>NeuralNetwork</title>
<polygon fill="white" stroke="none" points="-4,4 -4,-452.048 1017.24,-452.048 1017.24,4 -4,4"/>
<!-- node0 -->
<g id="node1" class="node"><title>node0</title>
<ellipse fill="none" stroke="black" cx="42.2463" cy="-40.0477" rx="42.4939" ry="18"/>
<text text-anchor="middle" x="42.2463" y="-36.3477" font-family="Times New Roman,serif" font-size="14.00">(0) Input</text>
</g>
<!-- node6 -->
<g id="node7" class="node"><title>node6</title>
<ellipse fill="none" stroke="black" cx="187.938" cy="-177.048" rx="42.4939" ry="18"/>
<text text-anchor="middle" x="187.938" y="-173.348" font-family="Times New Roman,serif" font-size="14.00">(6) AND</text>
</g>
<!-- node0&#45;&gt;node6 -->
<g id="edge4" class="edge"><title>node0&#45;&gt;node6</title>
<path fill="none" stroke="black" d="M62.362,-56.0814C79.4243,-71.0029 104.434,-94.4325 122.493,-118.048 132.405,-131.01 129.036,-138.428 140.493,-150.048 143.439,-153.036 146.785,-155.809 150.299,-158.348"/>
<polygon fill="black" stroke="black" points="148.409,-161.295 158.693,-163.844 152.244,-155.438 148.409,-161.295"/>
<text text-anchor="middle" x="112.493" y="-121.848" font-family="Times New Roman,serif" font-size="14.00"> (1)</text>
</g>
<!-- node8 -->
<g id="node9" class="node"><title>node8</title>
<ellipse fill="none" stroke="black" cx="187.938" cy="-123.048" rx="36.2938" ry="18"/>
<text text-anchor="middle" x="187.938" y="-119.348" font-family="Times New Roman,serif" font-size="14.00">(8) OR</text>
</g>
<!-- node0&#45;&gt;node8 -->
<g id="edge8" class="edge"><title>node0&#45;&gt;node8</title>
<path fill="none" stroke="black" d="M80.0724,-31.8429C94.5412,-30.6978 110.517,-32.2503 122.493,-41.0477 143.221,-56.2746 124.315,-76.0524 140.493,-96.0477 143.409,-99.6527 146.945,-102.876 150.749,-105.73"/>
<polygon fill="black" stroke="black" points="149.09,-108.827 159.37,-111.391 152.933,-102.976 149.09,-108.827"/>
<text text-anchor="middle" x="112.493" y="-44.8477" font-family="Times New Roman,serif" font-size="14.00"> (1)</text>
</g>
<!-- node10 -->
<g id="node11" class="node"><title>node10</title>
<ellipse fill="none" stroke="black" cx="187.938" cy="-69.0477" rx="47.3916" ry="18"/>
<text text-anchor="middle" x="187.938" y="-65.3477" font-family="Times New Roman,serif" font-size="14.00">(10) XOR</text>
</g>
<!-- node0&#45;&gt;node10 -->
<g id="edge12" class="edge"><title>node0&#45;&gt;node10</title>
<path fill="none" stroke="black" d="M59.7776,-23.5755C75.6951,-9.80678 100.523,6.20596 122.493,-3.04767 141.863,-11.2065 158.31,-28.3463 169.74,-43.1143"/>
<polygon fill="black" stroke="black" points="167.129,-45.4702 175.875,-51.4496 172.766,-41.321 167.129,-45.4702"/>
<text text-anchor="middle" x="112.493" y="-6.84767" font-family="Times New Roman,serif" font-size="14.00"> (1)</text>
</g>
<!-- node1 -->
<g id="node2" class="node"><title>node1</title>
<ellipse fill="none" stroke="black" cx="42.2463" cy="-346.048" rx="42.4939" ry="18"/>
<text text-anchor="middle" x="42.2463" y="-342.348" font-family="Times New Roman,serif" font-size="14.00">(1) Input</text>
</g>
<!-- node5 -->
<g id="node6" class="node"><title>node5</title>
<ellipse fill="none" stroke="black" cx="296.28" cy="-349.048" rx="42.7926" ry="18"/>
<text text-anchor="middle" x="296.28" y="-345.348" font-family="Times New Roman,serif" font-size="14.00">(5) XOR</text>
</g>
<!-- node1&#45;&gt;node5 -->
<g id="edge2" class="edge"><title>node1&#45;&gt;node5</title>
<path fill="none" stroke="black" d="M78.0946,-336.396C86.0511,-334.589 94.514,-332.978 102.493,-332.048 151.817,-326.299 208.445,-332.854 247.504,-339.422"/>
<polygon fill="black" stroke="black" points="247.083,-342.902 257.536,-341.175 248.288,-336.006 247.083,-342.902"/>
<text text-anchor="middle" x="112.493" y="-335.848" font-family="Times New Roman,serif" font-size="14.00"> (1)</text>
</g>
<!-- node7 -->
<g id="node8" class="node"><title>node7</title>
<ellipse fill="none" stroke="black" cx="187.938" cy="-415.048" rx="42.4939" ry="18"/>
<text text-anchor="middle" x="187.938" y="-411.348" font-family="Times New Roman,serif" font-size="14.00">(7) AND</text>
</g>
<!-- node1&#45;&gt;node7 -->
<g id="edge6" class="edge"><title>node1&#45;&gt;node7</title>
<path fill="none" stroke="black" d="M64.1679,-361.607C75.1873,-369.333 89.1527,-378.409 102.493,-385.048 115.146,-391.345 129.453,-396.95 142.646,-401.562"/>
<polygon fill="black" stroke="black" points="141.878,-404.997 152.473,-404.89 144.124,-398.367 141.878,-404.997"/>
<text text-anchor="middle" x="112.493" y="-397.848" font-family="Times New Roman,serif" font-size="14.00"> (1)</text>
</g>
<!-- node2 -->
<g id="node3" class="node"><title>node2</title>
<ellipse fill="none" stroke="black" cx="42.2463" cy="-256.048" rx="42.4939" ry="18"/>
<text text-anchor="middle" x="42.2463" y="-252.348" font-family="Times New Roman,serif" font-size="14.00">(2) Input</text>
</g>
<!-- node9 -->
<g id="node10" class="node"><title>node9</title>
<ellipse fill="none" stroke="black" cx="404.622" cy="-259.048" rx="36.2938" ry="18"/>
<text text-anchor="middle" x="404.622" y="-255.348" font-family="Times New Roman,serif" font-size="14.00">(9) OR</text>
</g>
<!-- node2&#45;&gt;node9 -->
<g id="edge10" class="edge"><title>node2&#45;&gt;node9</title>
<path fill="none" stroke="black" d="M84.586,-256.392C152.465,-256.957 287.049,-258.077 357.765,-258.666"/>
<polygon fill="black" stroke="black" points="358.105,-262.169 368.133,-258.752 358.163,-255.169 358.105,-262.169"/>
<text text-anchor="middle" x="187.938" y="-260.848" font-family="Times New Roman,serif" font-size="14.00"> (1)</text>
</g>
<!-- node12 -->
<g id="node13" class="node"><title>node12</title>
<ellipse fill="none" stroke="black" cx="404.622" cy="-89.0477" rx="47.3916" ry="18"/>
<text text-anchor="middle" x="404.622" y="-85.3477" font-family="Times New Roman,serif" font-size="14.00">(12) XOR</text>
</g>
<!-- node2&#45;&gt;node12 -->
<g id="edge16" class="edge"><title>node2&#45;&gt;node12</title>
<path fill="none" stroke="black" d="M81.7424,-249.573C121.497,-241.993 184.7,-227.412 235.384,-204.048 289.064,-179.302 344.333,-137.875 376.255,-112.08"/>
<polygon fill="black" stroke="black" points="378.704,-114.599 384.235,-105.562 374.276,-109.177 378.704,-114.599"/>
<text text-anchor="middle" x="187.938" y="-239.848" font-family="Times New Roman,serif" font-size="14.00"> (1)</text>
</g>
<!-- node3 -->
<g id="node4" class="node"><title>node3</title>
<ellipse fill="none" stroke="black" cx="42.2463" cy="-430.048" rx="42.4939" ry="18"/>
<text text-anchor="middle" x="42.2463" y="-426.348" font-family="Times New Roman,serif" font-size="14.00">(3) Input</text>
</g>
<!-- node3&#45;&gt;node5 -->
<g id="edge1" class="edge"><title>node3&#45;&gt;node5</title>
<path fill="none" stroke="black" d="M53.9971,-412.553C64.3698,-397.389 81.5572,-376.315 102.493,-366.048 126.432,-354.307 194.787,-350.59 243.285,-349.46"/>
<polygon fill="black" stroke="black" points="243.382,-352.959 253.309,-349.257 243.24,-345.961 243.382,-352.959"/>
<text text-anchor="middle" x="112.493" y="-369.848" font-family="Times New Roman,serif" font-size="14.00"> (0)</text>
</g>
<!-- node3&#45;&gt;node7 -->
<g id="edge5" class="edge"><title>node3&#45;&gt;node7</title>
<path fill="none" stroke="black" d="M83.9951,-426.727C96.368,-425.643 109.994,-424.375 122.493,-423.048 127.285,-422.539 132.275,-421.977 137.261,-421.393"/>
<polygon fill="black" stroke="black" points="137.915,-424.84 147.429,-420.177 137.084,-417.89 137.915,-424.84"/>
<text text-anchor="middle" x="112.493" y="-427.848" font-family="Times New Roman,serif" font-size="14.00"> (0)</text>
</g>
<!-- node4 -->
<g id="node5" class="node"><title>node4</title>
<ellipse fill="none" stroke="black" cx="42.2463" cy="-154.048" rx="42.4939" ry="18"/>
<text text-anchor="middle" x="42.2463" y="-150.348" font-family="Times New Roman,serif" font-size="14.00">(4) Input</text>
</g>
<!-- node4&#45;&gt;node6 -->
<g id="edge3" class="edge"><title>node4&#45;&gt;node6</title>
<path fill="none" stroke="black" d="M77.1584,-164.336C85.3857,-166.518 94.2016,-168.597 102.493,-170.048 113.035,-171.892 124.405,-173.254 135.281,-174.258"/>
<polygon fill="black" stroke="black" points="135.257,-177.768 145.514,-175.115 135.841,-170.793 135.257,-177.768"/>
<text text-anchor="middle" x="112.493" y="-175.848" font-family="Times New Roman,serif" font-size="14.00"> (0)</text>
</g>
<!-- node4&#45;&gt;node8 -->
<g id="edge7" class="edge"><title>node4&#45;&gt;node8</title>
<path fill="none" stroke="black" d="M80.2505,-146.064C99.7417,-141.859 123.747,-136.68 144.048,-132.301"/>
<polygon fill="black" stroke="black" points="144.944,-135.688 153.981,-130.158 143.468,-128.846 144.944,-135.688"/>
<text text-anchor="middle" x="112.493" y="-143.848" font-family="Times New Roman,serif" font-size="14.00"> (0)</text>
</g>
<!-- node4&#45;&gt;node10 -->
<g id="edge11" class="edge"><title>node4&#45;&gt;node10</title>
<path fill="none" stroke="black" d="M51.8549,-136.446C61.5389,-118.719 79.0326,-92.1715 102.493,-79.0477 110.907,-74.3402 120.525,-71.3839 130.184,-69.5915"/>
<polygon fill="black" stroke="black" points="130.83,-73.0343 140.216,-68.1204 129.814,-66.1084 130.83,-73.0343"/>
<text text-anchor="middle" x="112.493" y="-82.8477" font-family="Times New Roman,serif" font-size="14.00"> (0)</text>
</g>
<!-- node13 -->
<g id="node14" class="node"><title>node13</title>
<ellipse fill="none" stroke="black" cx="705.106" cy="-368.048" rx="46.5926" ry="18"/>
<text text-anchor="middle" x="705.106" y="-364.348" font-family="Times New Roman,serif" font-size="14.00">(13) AND</text>
</g>
<!-- node5&#45;&gt;node13 -->
<g id="edge17" class="edge"><title>node5&#45;&gt;node13</title>
<path fill="none" stroke="black" d="M339.285,-351.009C413.072,-354.455 565.94,-361.595 648.432,-365.448"/>
<polygon fill="black" stroke="black" points="648.466,-368.953 658.619,-365.923 648.793,-361.96 648.466,-368.953"/>
<text text-anchor="middle" x="480.068" y="-360.848" font-family="Times New Roman,serif" font-size="14.00"> (0)</text>
</g>
<!-- node14 -->
<g id="node15" class="node"><title>node14</title>
<ellipse fill="none" stroke="black" cx="705.106" cy="-282.048" rx="47.3916" ry="18"/>
<text text-anchor="middle" x="705.106" y="-278.348" font-family="Times New Roman,serif" font-size="14.00">(14) XOR</text>
</g>
<!-- node5&#45;&gt;node14 -->
<g id="edge19" class="edge"><title>node5&#45;&gt;node14</title>
<path fill="none" stroke="black" d="M336.658,-342.563C410.261,-330.441 568.708,-304.346 651.417,-290.725"/>
<polygon fill="black" stroke="black" points="652.061,-294.166 661.359,-289.088 650.923,-287.259 652.061,-294.166"/>
<text text-anchor="middle" x="480.068" y="-323.848" font-family="Times New Roman,serif" font-size="14.00"> (0)</text>
</g>
<!-- node6&#45;&gt;node9 -->
<g id="edge9" class="edge"><title>node6&#45;&gt;node9</title>
<path fill="none" stroke="black" d="M220.155,-188.971C258.698,-203.693 324.219,-228.719 365.641,-244.54"/>
<polygon fill="black" stroke="black" points="364.522,-247.859 375.112,-248.158 367.019,-241.32 364.522,-247.859"/>
<text text-anchor="middle" x="296.28" y="-235.848" font-family="Times New Roman,serif" font-size="14.00"> (0)</text>
</g>
<!-- node15 -->
<g id="node16" class="node"><title>node15</title>
<ellipse fill="none" stroke="black" cx="849.498" cy="-399.048" rx="40.8928" ry="18"/>
<text text-anchor="middle" x="849.498" y="-395.348" font-family="Times New Roman,serif" font-size="14.00">(15) OR</text>
</g>
<!-- node7&#45;&gt;node15 -->
<g id="edge22" class="edge"><title>node7&#45;&gt;node15</title>
<path fill="none" stroke="black" d="M230.495,-414.739C273.741,-414.446 343.428,-414.048 403.622,-414.048 403.622,-414.048 403.622,-414.048 706.106,-414.048 737.735,-414.048 773.101,-410.342 800.674,-406.614"/>
<polygon fill="black" stroke="black" points="801.418,-410.044 810.837,-405.192 800.448,-403.112 801.418,-410.044"/>
<text text-anchor="middle" x="554.864" y="-417.848" font-family="Times New Roman,serif" font-size="14.00"> (1)</text>
</g>
<!-- node11 -->
<g id="node12" class="node"><title>node11</title>
<ellipse fill="none" stroke="black" cx="554.864" cy="-259.048" rx="46.5926" ry="18"/>
<text text-anchor="middle" x="554.864" y="-255.348" font-family="Times New Roman,serif" font-size="14.00">(11) AND</text>
</g>
<!-- node8&#45;&gt;node11 -->
<g id="edge14" class="edge"><title>node8&#45;&gt;node11</title>
<path fill="none" stroke="black" d="M218.311,-133.023C267.11,-149.711 367.855,-184.655 452.068,-217.048 472.429,-224.88 494.864,-234.074 513.478,-241.861"/>
<polygon fill="black" stroke="black" points="512.258,-245.144 522.833,-245.79 514.968,-238.69 512.258,-245.144"/>
<text text-anchor="middle" x="404.622" y="-220.848" font-family="Times New Roman,serif" font-size="14.00"> (1)</text>
</g>
<!-- node9&#45;&gt;node11 -->
<g id="edge13" class="edge"><title>node9&#45;&gt;node11</title>
<path fill="none" stroke="black" d="M441.13,-259.048C458.12,-259.048 478.865,-259.048 497.906,-259.048"/>
<polygon fill="black" stroke="black" points="497.976,-262.548 507.976,-259.048 497.976,-255.548 497.976,-262.548"/>
<text text-anchor="middle" x="480.068" y="-262.848" font-family="Times New Roman,serif" font-size="14.00"> (0)</text>
</g>
<!-- node10&#45;&gt;node12 -->
<g id="edge15" class="edge"><title>node10&#45;&gt;node12</title>
<path fill="none" stroke="black" d="M234.205,-73.2647C267.459,-76.3627 312.823,-80.5888 348.241,-83.8883"/>
<polygon fill="black" stroke="black" points="348.136,-87.3936 358.418,-84.8364 348.785,-80.4238 348.136,-87.3936"/>
<text text-anchor="middle" x="296.28" y="-85.8477" font-family="Times New Roman,serif" font-size="14.00"> (0)</text>
</g>
<!-- node11&#45;&gt;node13 -->
<g id="edge18" class="edge"><title>node11&#45;&gt;node13</title>
<path fill="none" stroke="black" d="M577.42,-274.897C602.89,-293.625 645.423,-324.899 674.102,-345.987"/>
<polygon fill="black" stroke="black" points="672.394,-349.075 682.524,-352.179 676.541,-343.435 672.394,-349.075"/>
<text text-anchor="middle" x="629.66" y="-323.848" font-family="Times New Roman,serif" font-size="14.00"> (1)</text>
</g>
<!-- node11&#45;&gt;node14 -->
<g id="edge20" class="edge"><title>node11&#45;&gt;node14</title>
<path fill="none" stroke="black" d="M598.742,-265.7C614.887,-268.205 633.453,-271.086 650.459,-273.724"/>
<polygon fill="black" stroke="black" points="650.392,-277.256 660.811,-275.33 651.466,-270.339 650.392,-277.256"/>
<text text-anchor="middle" x="629.66" y="-274.848" font-family="Times New Roman,serif" font-size="14.00"> (1)</text>
</g>
<!-- node16 -->
<g id="node17" class="node"><title>node16</title>
<ellipse fill="none" stroke="black" cx="970.34" cy="-89.0477" rx="42.7926" ry="18"/>
<text text-anchor="middle" x="970.34" y="-85.3477" font-family="Times New Roman,serif" font-size="14.00">Output 0</text>
</g>
<!-- node12&#45;&gt;node16 -->
<g id="edge23" class="edge"><title>node12&#45;&gt;node16</title>
<path fill="none" stroke="black" d="M452.358,-89.0477C481.541,-89.0477 519.892,-89.0477 553.864,-89.0477 553.864,-89.0477 553.864,-89.0477 850.498,-89.0477 872.296,-89.0477 896.343,-89.0477 917.07,-89.0477"/>
<polygon fill="black" stroke="black" points="917.265,-92.5478 927.265,-89.0477 917.265,-85.5478 917.265,-92.5478"/>
</g>
<!-- node13&#45;&gt;node15 -->
<g id="edge21" class="edge"><title>node13&#45;&gt;node15</title>
<path fill="none" stroke="black" d="M747.406,-376.032C761.155,-378.778 776.534,-381.945 790.551,-385.048 794.701,-385.966 799.01,-386.95 803.321,-387.955"/>
<polygon fill="black" stroke="black" points="802.771,-391.422 813.308,-390.317 804.382,-384.61 802.771,-391.422"/>
<text text-anchor="middle" x="780.551" y="-388.848" font-family="Times New Roman,serif" font-size="14.00"> (0)</text>
</g>
<!-- node17 -->
<g id="node18" class="node"><title>node17</title>
<ellipse fill="none" stroke="black" cx="970.34" cy="-282.048" rx="42.7926" ry="18"/>
<text text-anchor="middle" x="970.34" y="-278.348" font-family="Times New Roman,serif" font-size="14.00">Output 1</text>
</g>
<!-- node14&#45;&gt;node17 -->
<g id="edge24" class="edge"><title>node14&#45;&gt;node17</title>
<path fill="none" stroke="black" d="M752.561,-282.048C798.626,-282.048 869.081,-282.048 917.075,-282.048"/>
<polygon fill="black" stroke="black" points="917.258,-285.548 927.258,-282.048 917.258,-278.548 917.258,-285.548"/>
</g>
<!-- node18 -->
<g id="node19" class="node"><title>node18</title>
<ellipse fill="none" stroke="black" cx="970.34" cy="-399.048" rx="42.7926" ry="18"/>
<text text-anchor="middle" x="970.34" y="-395.348" font-family="Times New Roman,serif" font-size="14.00">Output 2</text>
</g>
<!-- node15&#45;&gt;node18 -->
<g id="edge25" class="edge"><title>node15&#45;&gt;node18</title>
<path fill="none" stroke="black" d="M890.732,-399.048C899.154,-399.048 908.151,-399.048 916.941,-399.048"/>
<polygon fill="black" stroke="black" points="917.117,-402.548 927.117,-399.048 917.117,-395.548 917.117,-402.548"/>
</g>
</g>
</svg>
