<?xml version="1.0" encoding="UTF-8" standalone="no"?>
<!DOCTYPE svg PUBLIC "-//W3C//DTD SVG 1.1//EN"
 "http://www.w3.org/Graphics/SVG/1.1/DTD/svg11.dtd">
<!-- Generated by graphviz version 2.38.0 (20140413.2041)
 -->
<!-- Title: NeuralNetwork Pages: 1 -->
<svg width="288pt" height="121pt"
 viewBox="0.00 0.00 288.00 120.54" xmlns="http://www.w3.org/2000/svg" xmlns:xlink="http://www.w3.org/1999/xlink">
<g id="graph0" class="graph" transform="scale(0.167413 0.167413) rotate(0) translate(4 716)">
<title>NeuralNetwork</title>
<polygon fill="white" stroke="none" points="-4,4 -4,-716 1716.3,-716 1716.3,4 -4,4"/>
<!-- node0 -->
<g id="node1" class="node"><title>node0</title>
<ellipse fill="none" stroke="black" cx="42.2463" cy="-648" rx="42.4939" ry="18"/>
<text text-anchor="middle" x="42.2463" y="-644.3" font-family="Times New Roman,serif" font-size="14.00">(0) Input</text>
</g>
<!-- node7 -->
<g id="node8" class="node"><title>node7</title>
<ellipse fill="none" stroke="black" cx="187.288" cy="-675" rx="42.4939" ry="18"/>
<text text-anchor="middle" x="187.288" y="-671.3" font-family="Times New Roman,serif" font-size="14.00">(7) AND</text>
</g>
<!-- node0&#45;&gt;node7 -->
<g id="edge3" class="edge"><title>node0&#45;&gt;node7</title>
<path fill="none" stroke="black" d="M77.5242,-658.088C85.6597,-660.251 94.3431,-662.372 102.493,-664 113.288,-666.156 124.954,-667.994 136.053,-669.514"/>
<polygon fill="black" stroke="black" points="135.675,-672.994 146.044,-670.82 136.583,-666.053 135.675,-672.994"/>
<text text-anchor="middle" x="112.493" y="-670.8" font-family="Times New Roman,serif" font-size="14.00"> (0)</text>
</g>
<!-- node11 -->
<g id="node12" class="node"><title>node11</title>
<ellipse fill="none" stroke="black" cx="337.53" cy="-259" rx="47.3916" ry="18"/>
<text text-anchor="middle" x="337.53" y="-255.3" font-family="Times New Roman,serif" font-size="14.00">(11) XOR</text>
</g>
<!-- node0&#45;&gt;node11 -->
<g id="edge11" class="edge"><title>node0&#45;&gt;node11</title>
<path fill="none" stroke="black" d="M60.9223,-631.652C82.0035,-611.734 115.306,-578.793 122.493,-563 154.509,-492.638 99.4402,-455.503 140.493,-390 166.48,-348.534 193.338,-359.102 234.084,-332 258.905,-315.49 286.383,-295.832 306.627,-281.077"/>
<polygon fill="black" stroke="black" points="308.826,-283.805 314.832,-275.077 304.694,-278.155 308.826,-283.805"/>
<text text-anchor="middle" x="187.288" y="-393.8" font-family="Times New Roman,serif" font-size="14.00"> (0)</text>
</g>
<!-- node12 -->
<g id="node13" class="node"><title>node12</title>
<ellipse fill="none" stroke="black" cx="187.288" cy="-610" rx="46.5926" ry="18"/>
<text text-anchor="middle" x="187.288" y="-606.3" font-family="Times New Roman,serif" font-size="14.00">(12) AND</text>
</g>
<!-- node0&#45;&gt;node12 -->
<g id="edge13" class="edge"><title>node0&#45;&gt;node12</title>
<path fill="none" stroke="black" d="M78.605,-638.607C96.7233,-633.793 119.043,-627.864 138.656,-622.654"/>
<polygon fill="black" stroke="black" points="139.565,-626.034 148.331,-620.084 137.768,-619.268 139.565,-626.034"/>
<text text-anchor="middle" x="112.493" y="-634.8" font-family="Times New Roman,serif" font-size="14.00"> (0)</text>
</g>
<!-- node1 -->
<g id="node2" class="node"><title>node1</title>
<ellipse fill="none" stroke="black" cx="42.2463" cy="-387" rx="42.4939" ry="18"/>
<text text-anchor="middle" x="42.2463" y="-383.3" font-family="Times New Roman,serif" font-size="14.00">(1) Input</text>
</g>
<!-- node6 -->
<g id="node7" class="node"><title>node6</title>
<ellipse fill="none" stroke="black" cx="187.288" cy="-114" rx="42.7926" ry="18"/>
<text text-anchor="middle" x="187.288" y="-110.3" font-family="Times New Roman,serif" font-size="14.00">(6) XOR</text>
</g>
<!-- node1&#45;&gt;node6 -->
<g id="edge2" class="edge"><title>node1&#45;&gt;node6</title>
<path fill="none" stroke="black" d="M45.958,-368.919C51.7883,-334.284 67.8916,-257.13 102.493,-202 109.01,-191.615 115.489,-193.064 122.493,-183 134.093,-166.33 127.079,-156.248 140.493,-141 143.093,-138.044 146.098,-135.323 149.301,-132.842"/>
<polygon fill="black" stroke="black" points="151.296,-135.718 157.553,-127.168 147.33,-129.95 151.296,-135.718"/>
<text text-anchor="middle" x="112.493" y="-205.8" font-family="Times New Roman,serif" font-size="14.00"> (1)</text>
</g>
<!-- node10 -->
<g id="node11" class="node"><title>node10</title>
<ellipse fill="none" stroke="black" cx="187.288" cy="-509" rx="46.5926" ry="18"/>
<text text-anchor="middle" x="187.288" y="-505.3" font-family="Times New Roman,serif" font-size="14.00">(10) AND</text>
</g>
<!-- node1&#45;&gt;node10 -->
<g id="edge10" class="edge"><title>node1&#45;&gt;node10</title>
<path fill="none" stroke="black" d="M69.2895,-401.105C74.7363,-404.823 80.1398,-409.166 84.4925,-414 96.1978,-426.998 91.0613,-435.76 102.493,-449 116.107,-464.77 134.672,-478.607 150.868,-489.007"/>
<polygon fill="black" stroke="black" points="149.235,-492.113 159.575,-494.421 152.932,-486.168 149.235,-492.113"/>
<text text-anchor="middle" x="112.493" y="-472.8" font-family="Times New Roman,serif" font-size="14.00"> (1)</text>
</g>
<!-- node14 -->
<g id="node15" class="node"><title>node14</title>
<ellipse fill="none" stroke="black" cx="187.288" cy="-432" rx="46.5926" ry="18"/>
<text text-anchor="middle" x="187.288" y="-428.3" font-family="Times New Roman,serif" font-size="14.00">(14) AND</text>
</g>
<!-- node1&#45;&gt;node14 -->
<g id="edge18" class="edge"><title>node1&#45;&gt;node14</title>
<path fill="none" stroke="black" d="M76.7833,-397.551C95.888,-403.561 120.087,-411.173 140.875,-417.713"/>
<polygon fill="black" stroke="black" points="139.872,-421.067 150.461,-420.729 141.972,-414.389 139.872,-421.067"/>
<text text-anchor="middle" x="112.493" y="-414.8" font-family="Times New Roman,serif" font-size="14.00"> (1)</text>
</g>
<!-- node2 -->
<g id="node3" class="node"><title>node2</title>
<ellipse fill="none" stroke="black" cx="42.2463" cy="-205" rx="42.4939" ry="18"/>
<text text-anchor="middle" x="42.2463" y="-201.3" font-family="Times New Roman,serif" font-size="14.00">(2) Input</text>
</g>
<!-- node2&#45;&gt;node6 -->
<g id="edge1" class="edge"><title>node2&#45;&gt;node6</title>
<path fill="none" stroke="black" d="M46.6884,-186.929C52.7741,-160.646 68.1858,-112.749 102.493,-92 118.092,-82.565 137.706,-86.9966 154.034,-94.2789"/>
<polygon fill="black" stroke="black" points="152.698,-97.5223 163.214,-98.8127 155.798,-91.2461 152.698,-97.5223"/>
<text text-anchor="middle" x="112.493" y="-95.8" font-family="Times New Roman,serif" font-size="14.00"> (0)</text>
</g>
<!-- node8 -->
<g id="node9" class="node"><title>node8</title>
<ellipse fill="none" stroke="black" cx="187.288" cy="-168" rx="42.7926" ry="18"/>
<text text-anchor="middle" x="187.288" y="-164.3" font-family="Times New Roman,serif" font-size="14.00">(8) XOR</text>
</g>
<!-- node2&#45;&gt;node8 -->
<g id="edge6" class="edge"><title>node2&#45;&gt;node8</title>
<path fill="none" stroke="black" d="M62.4634,-189.131C73.4537,-181.096 87.9206,-172.176 102.493,-168 112.878,-165.023 124.291,-163.774 135.259,-163.5"/>
<polygon fill="black" stroke="black" points="135.588,-167 145.592,-163.511 135.596,-160 135.588,-167"/>
<text text-anchor="middle" x="112.493" y="-171.8" font-family="Times New Roman,serif" font-size="14.00"> (1)</text>
</g>
<!-- node9 -->
<g id="node10" class="node"><title>node9</title>
<ellipse fill="none" stroke="black" cx="187.288" cy="-222" rx="42.4939" ry="18"/>
<text text-anchor="middle" x="187.288" y="-218.3" font-family="Times New Roman,serif" font-size="14.00">(9) AND</text>
</g>
<!-- node2&#45;&gt;node9 -->
<g id="edge7" class="edge"><title>node2&#45;&gt;node9</title>
<path fill="none" stroke="black" d="M76.78,-215.628C85.0982,-217.827 94.0499,-219.829 102.493,-221 112.867,-222.439 124.034,-223.148 134.726,-223.424"/>
<polygon fill="black" stroke="black" points="134.743,-226.924 144.791,-223.565 134.841,-219.925 134.743,-226.924"/>
<text text-anchor="middle" x="112.493" y="-226.8" font-family="Times New Roman,serif" font-size="14.00"> (0)</text>
</g>
<!-- node13 -->
<g id="node14" class="node"><title>node13</title>
<ellipse fill="none" stroke="black" cx="187.288" cy="-305" rx="46.5926" ry="18"/>
<text text-anchor="middle" x="187.288" y="-301.3" font-family="Times New Roman,serif" font-size="14.00">(13) AND</text>
</g>
<!-- node2&#45;&gt;node13 -->
<g id="edge15" class="edge"><title>node2&#45;&gt;node13</title>
<path fill="none" stroke="black" d="M64.9713,-220.188C89.0902,-237.049 128.208,-264.396 155.482,-283.463"/>
<polygon fill="black" stroke="black" points="153.685,-286.478 163.886,-289.339 157.696,-280.741 153.685,-286.478"/>
<text text-anchor="middle" x="112.493" y="-261.8" font-family="Times New Roman,serif" font-size="14.00"> (0)</text>
</g>
<!-- node3 -->
<g id="node4" class="node"><title>node3</title>
<ellipse fill="none" stroke="black" cx="42.2463" cy="-509" rx="42.4939" ry="18"/>
<text text-anchor="middle" x="42.2463" y="-505.3" font-family="Times New Roman,serif" font-size="14.00">(3) Input</text>
</g>
<!-- node3&#45;&gt;node7 -->
<g id="edge4" class="edge"><title>node3&#45;&gt;node7</title>
<path fill="none" stroke="black" d="M57.9219,-526.039C74.3405,-545.389 101.399,-578.156 122.493,-608 131.248,-620.388 130.526,-625.564 140.493,-637 145.439,-642.676 151.28,-648.2 157.106,-653.198"/>
<polygon fill="black" stroke="black" points="155.009,-656.005 164.956,-659.653 159.455,-650.598 155.009,-656.005"/>
<text text-anchor="middle" x="112.493" y="-611.8" font-family="Times New Roman,serif" font-size="14.00"> (1)</text>
</g>
<!-- node3&#45;&gt;node10 -->
<g id="edge9" class="edge"><title>node3&#45;&gt;node10</title>
<path fill="none" stroke="black" d="M84.62,-509C98.7655,-509 114.837,-509 129.958,-509"/>
<polygon fill="black" stroke="black" points="130.24,-512.5 140.24,-509 130.24,-505.5 130.24,-512.5"/>
<text text-anchor="middle" x="112.493" y="-512.8" font-family="Times New Roman,serif" font-size="14.00"> (0)</text>
</g>
<!-- node3&#45;&gt;node13 -->
<g id="edge16" class="edge"><title>node3&#45;&gt;node13</title>
<path fill="none" stroke="black" d="M63.3752,-493.304C71.0532,-486.332 79.2182,-477.544 84.4925,-468 102.12,-436.102 85.3235,-420.147 102.493,-388 114.044,-366.37 123.103,-365.288 140.493,-348 146.941,-341.589 154.047,-334.793 160.698,-328.543"/>
<polygon fill="black" stroke="black" points="163.308,-330.894 168.229,-321.512 158.531,-325.777 163.308,-330.894"/>
<text text-anchor="middle" x="112.493" y="-391.8" font-family="Times New Roman,serif" font-size="14.00"> (1)</text>
</g>
<!-- node4 -->
<g id="node5" class="node"><title>node4</title>
<ellipse fill="none" stroke="black" cx="42.2463" cy="-441" rx="42.4939" ry="18"/>
<text text-anchor="middle" x="42.2463" y="-437.3" font-family="Times New Roman,serif" font-size="14.00">(4) Input</text>
</g>
<!-- node4&#45;&gt;node8 -->
<g id="edge5" class="edge"><title>node4&#45;&gt;node8</title>
<path fill="none" stroke="black" d="M70.541,-427.262C75.7904,-423.569 80.7962,-419.143 84.4925,-414 102.989,-388.265 94.0201,-375.54 102.493,-345 110.914,-314.644 114.666,-307.515 122.493,-277 131.762,-240.858 118.598,-225.213 140.493,-195 142.679,-191.983 145.315,-189.245 148.204,-186.775"/>
<polygon fill="black" stroke="black" points="150.302,-189.577 156.309,-180.85 146.171,-183.926 150.302,-189.577"/>
<text text-anchor="middle" x="112.493" y="-348.8" font-family="Times New Roman,serif" font-size="14.00"> (0)</text>
</g>
<!-- node4&#45;&gt;node12 -->
<g id="edge14" class="edge"><title>node4&#45;&gt;node12</title>
<path fill="none" stroke="black" d="M62.5585,-457.195C70.1115,-464.243 78.4038,-472.954 84.4925,-482 96.0607,-499.188 91.0114,-507.754 102.493,-525 118.127,-548.485 140.833,-571.031 158.666,-586.995"/>
<polygon fill="black" stroke="black" points="156.649,-589.882 166.474,-593.846 161.266,-584.62 156.649,-589.882"/>
<text text-anchor="middle" x="112.493" y="-554.8" font-family="Times New Roman,serif" font-size="14.00"> (1)</text>
</g>
<!-- node4&#45;&gt;node14 -->
<g id="edge17" class="edge"><title>node4&#45;&gt;node14</title>
<path fill="none" stroke="black" d="M82.7149,-435.815C89.3091,-435.098 96.087,-434.454 102.493,-434 111.352,-433.372 120.749,-432.93 129.925,-432.621"/>
<polygon fill="black" stroke="black" points="130.256,-436.113 140.15,-432.325 130.053,-429.116 130.256,-436.113"/>
<text text-anchor="middle" x="112.493" y="-437.8" font-family="Times New Roman,serif" font-size="14.00"> (0)</text>
</g>
<!-- node5 -->
<g id="node6" class="node"><title>node5</title>
<ellipse fill="none" stroke="black" cx="42.2463" cy="-58" rx="42.4939" ry="18"/>
<text text-anchor="middle" x="42.2463" y="-54.3" font-family="Times New Roman,serif" font-size="14.00">(5) Input</text>
</g>
<!-- node5&#45;&gt;node9 -->
<g id="edge8" class="edge"><title>node5&#45;&gt;node9</title>
<path fill="none" stroke="black" d="M61.4865,-74.2705C79.1315,-90.8385 105.613,-118.005 122.493,-146 134.472,-165.869 125.634,-177.182 140.493,-195 142.942,-197.937 145.798,-200.631 148.865,-203.083"/>
<polygon fill="black" stroke="black" points="147.142,-206.149 157.343,-209.011 151.154,-200.412 147.142,-206.149"/>
<text text-anchor="middle" x="112.493" y="-151.8" font-family="Times New Roman,serif" font-size="14.00"> (1)</text>
</g>
<!-- node15 -->
<g id="node16" class="node"><title>node15</title>
<ellipse fill="none" stroke="black" cx="487.772" cy="-259" rx="46.5926" ry="18"/>
<text text-anchor="middle" x="487.772" y="-255.3" font-family="Times New Roman,serif" font-size="14.00">(15) AND</text>
</g>
<!-- node5&#45;&gt;node15 -->
<g id="edge20" class="edge"><title>node5&#45;&gt;node15</title>
<path fill="none" stroke="black" d="M84.4431,-59.0068C124.044,-61.1755 184.956,-67.7057 234.084,-87 326.156,-123.16 418.113,-197.849 461.31,-235.79"/>
<polygon fill="black" stroke="black" points="458.994,-238.413 468.798,-242.429 463.638,-233.176 458.994,-238.413"/>
<text text-anchor="middle" x="262.084" y="-107.8" font-family="Times New Roman,serif" font-size="14.00"> (1)</text>
</g>
<!-- node18 -->
<g id="node19" class="node"><title>node18</title>
<ellipse fill="none" stroke="black" cx="337.53" cy="-50" rx="46.5926" ry="18"/>
<text text-anchor="middle" x="337.53" y="-46.3" font-family="Times New Roman,serif" font-size="14.00">(18) AND</text>
</g>
<!-- node5&#45;&gt;node18 -->
<g id="edge25" class="edge"><title>node5&#45;&gt;node18</title>
<path fill="none" stroke="black" d="M78.8387,-48.973C86.6039,-47.1764 94.7998,-45.4113 102.493,-44 163.76,-32.7602 235.547,-37.1282 283.301,-42.4448"/>
<polygon fill="black" stroke="black" points="283.073,-45.9418 293.411,-43.6247 283.885,-38.989 283.073,-45.9418"/>
<text text-anchor="middle" x="187.288" y="-42.8" font-family="Times New Roman,serif" font-size="14.00"> (0)</text>
</g>
<!-- node35 -->
<g id="node36" class="node"><title>node35</title>
<ellipse fill="none" stroke="black" cx="1542.06" cy="-116" rx="47.3916" ry="18"/>
<text text-anchor="middle" x="1542.06" y="-112.3" font-family="Times New Roman,serif" font-size="14.00">(35) XOR</text>
</g>
<!-- node6&#45;&gt;node35 -->
<g id="edge60" class="edge"><title>node6&#45;&gt;node35</title>
<path fill="none" stroke="black" d="M201.732,-96.7589C213.859,-81.9111 232.719,-60.4903 252.084,-45 285.294,-18.4351 294.002,-0 336.53,-0 336.53,-0 336.53,-0 789.905,-0 894.09,-0 910.057,-68 1014.24,-68 1014.24,-68 1014.24,-68 1392.17,-68 1432,-68 1475.05,-83.7475 1504.56,-97.2029"/>
<polygon fill="black" stroke="black" points="1503.11,-100.387 1513.65,-101.468 1506.08,-94.0505 1503.11,-100.387"/>
<text text-anchor="middle" x="864.351" y="-22.8" font-family="Times New Roman,serif" font-size="14.00"> (1)</text>
</g>
<!-- node20 -->
<g id="node21" class="node"><title>node20</title>
<ellipse fill="none" stroke="black" cx="337.53" cy="-520" rx="47.3916" ry="18"/>
<text text-anchor="middle" x="337.53" y="-516.3" font-family="Times New Roman,serif" font-size="14.00">(20) XOR</text>
</g>
<!-- node7&#45;&gt;node20 -->
<g id="edge30" class="edge"><title>node7&#45;&gt;node20</title>
<path fill="none" stroke="black" d="M212.319,-660.182C220.444,-653.995 228.79,-646.111 234.084,-637 257.213,-597.199 219.552,-567.569 252.084,-535 259.66,-527.416 269.653,-522.911 280.105,-520.353"/>
<polygon fill="black" stroke="black" points="281.018,-523.743 290.202,-518.461 279.729,-516.863 281.018,-523.743"/>
<text text-anchor="middle" x="262.084" y="-538.8" font-family="Times New Roman,serif" font-size="14.00"> (1)</text>
</g>
<!-- node36 -->
<g id="node37" class="node"><title>node36</title>
<ellipse fill="none" stroke="black" cx="1669.4" cy="-694" rx="42.7926" ry="18"/>
<text text-anchor="middle" x="1669.4" y="-690.3" font-family="Times New Roman,serif" font-size="14.00">Output 0</text>
</g>
<!-- node7&#45;&gt;node36 -->
<g id="edge61" class="edge"><title>node7&#45;&gt;node36</title>
<path fill="none" stroke="black" d="M225.894,-682.509C255.758,-687.82 298.647,-694 336.53,-694 336.53,-694 336.53,-694 1543.06,-694 1567.12,-694 1593.78,-694 1616.3,-694"/>
<polygon fill="black" stroke="black" points="1616.34,-697.5 1626.34,-694 1616.34,-690.5 1616.34,-697.5"/>
</g>
<!-- node8&#45;&gt;node18 -->
<g id="edge26" class="edge"><title>node8&#45;&gt;node18</title>
<path fill="none" stroke="black" d="M218.267,-155.15C224.26,-151.367 229.968,-146.68 234.084,-141 255.978,-110.787 224.291,-83.8947 252.084,-59 260.408,-51.5438 271.206,-47.714 282.283,-46.0166"/>
<polygon fill="black" stroke="black" points="282.862,-49.4767 292.471,-45.0146 282.177,-42.5103 282.862,-49.4767"/>
<text text-anchor="middle" x="262.084" y="-62.8" font-family="Times New Roman,serif" font-size="14.00"> (1)</text>
</g>
<!-- node9&#45;&gt;node11 -->
<g id="edge12" class="edge"><title>node9&#45;&gt;node11</title>
<path fill="none" stroke="black" d="M224.174,-230.957C243.172,-235.699 266.786,-241.593 287.456,-246.751"/>
<polygon fill="black" stroke="black" points="286.783,-250.191 297.333,-249.217 288.478,-243.399 286.783,-250.191"/>
<text text-anchor="middle" x="262.084" y="-246.8" font-family="Times New Roman,serif" font-size="14.00"> (1)</text>
</g>
<!-- node24 -->
<g id="node25" class="node"><title>node24</title>
<ellipse fill="none" stroke="black" cx="1090.04" cy="-354" rx="46.5926" ry="18"/>
<text text-anchor="middle" x="1090.04" y="-350.3" font-family="Times New Roman,serif" font-size="14.00">(24) AND</text>
</g>
<!-- node9&#45;&gt;node24 -->
<g id="edge37" class="edge"><title>node9&#45;&gt;node24</title>
<path fill="none" stroke="black" d="M213.157,-207.675C219.986,-203.65 227.361,-199.219 234.084,-195 242.229,-189.89 243.414,-187.156 252.084,-183 314.966,-152.861 394.245,-125 486.772,-125 486.772,-125 486.772,-125 789.905,-125 884.051,-125 913.822,-143.069 987.242,-202 1029.85,-236.198 1061.16,-293.068 1077.12,-326.7"/>
<polygon fill="black" stroke="black" points="1074.01,-328.33 1081.39,-335.936 1080.37,-325.391 1074.01,-328.33"/>
<text text-anchor="middle" x="638.013" y="-128.8" font-family="Times New Roman,serif" font-size="14.00"> (0)</text>
</g>
<!-- node28 -->
<g id="node29" class="node"><title>node28</title>
<ellipse fill="none" stroke="black" cx="939.796" cy="-305" rx="40.8928" ry="18"/>
<text text-anchor="middle" x="939.796" y="-301.3" font-family="Times New Roman,serif" font-size="14.00">(28) OR</text>
</g>
<!-- node9&#45;&gt;node28 -->
<g id="edge45" class="edge"><title>node9&#45;&gt;node28</title>
<path fill="none" stroke="black" d="M214.808,-208.153C243.867,-194.289 292.252,-175 336.53,-175 336.53,-175 336.53,-175 714.459,-175 769.287,-175 788.114,-167.935 836.351,-194 869.018,-211.652 867.132,-228.746 892.351,-256 899.873,-264.13 908.171,-272.935 915.647,-280.808"/>
<polygon fill="black" stroke="black" points="913.359,-283.482 922.789,-288.312 918.43,-278.656 913.359,-283.482"/>
<text text-anchor="middle" x="562.567" y="-178.8" font-family="Times New Roman,serif" font-size="14.00"> (0)</text>
</g>
<!-- node29 -->
<g id="node30" class="node"><title>node29</title>
<ellipse fill="none" stroke="black" cx="638.013" cy="-221" rx="47.3916" ry="18"/>
<text text-anchor="middle" x="638.013" y="-217.3" font-family="Times New Roman,serif" font-size="14.00">(29) XOR</text>
</g>
<!-- node9&#45;&gt;node29 -->
<g id="edge47" class="edge"><title>node9&#45;&gt;node29</title>
<path fill="none" stroke="black" d="M229.699,-221.908C310.339,-221.728 488.545,-221.331 580.17,-221.127"/>
<polygon fill="black" stroke="black" points="580.375,-224.626 590.367,-221.104 580.359,-217.626 580.375,-224.626"/>
<text text-anchor="middle" x="412.976" y="-225.8" font-family="Times New Roman,serif" font-size="14.00"> (0)</text>
</g>
<!-- node31 -->
<g id="node32" class="node"><title>node31</title>
<ellipse fill="none" stroke="black" cx="337.53" cy="-359" rx="40.8928" ry="18"/>
<text text-anchor="middle" x="337.53" y="-355.3" font-family="Times New Roman,serif" font-size="14.00">(31) OR</text>
</g>
<!-- node9&#45;&gt;node31 -->
<g id="edge51" class="edge"><title>node9&#45;&gt;node31</title>
<path fill="none" stroke="black" d="M205.876,-238.254C232.066,-262.458 281.44,-308.088 311.423,-335.797"/>
<polygon fill="black" stroke="black" points="309.246,-338.551 318.965,-342.767 313.997,-333.41 309.246,-338.551"/>
<text text-anchor="middle" x="262.084" y="-302.8" font-family="Times New Roman,serif" font-size="14.00"> (0)</text>
</g>
<!-- node17 -->
<g id="node18" class="node"><title>node17</title>
<ellipse fill="none" stroke="black" cx="337.53" cy="-610" rx="47.3916" ry="18"/>
<text text-anchor="middle" x="337.53" y="-606.3" font-family="Times New Roman,serif" font-size="14.00">(17) XOR</text>
</g>
<!-- node10&#45;&gt;node17 -->
<g id="edge23" class="edge"><title>node10&#45;&gt;node17</title>
<path fill="none" stroke="black" d="M211.126,-524.56C236.298,-541.71 276.948,-569.406 305.113,-588.595"/>
<polygon fill="black" stroke="black" points="303.187,-591.518 313.422,-594.256 307.128,-585.733 303.187,-591.518"/>
<text text-anchor="middle" x="262.084" y="-569.8" font-family="Times New Roman,serif" font-size="14.00"> (0)</text>
</g>
<!-- node11&#45;&gt;node15 -->
<g id="edge19" class="edge"><title>node11&#45;&gt;node15</title>
<path fill="none" stroke="black" d="M385.028,-259C399.516,-259 415.647,-259 430.717,-259"/>
<polygon fill="black" stroke="black" points="430.947,-262.5 440.947,-259 430.947,-255.5 430.947,-262.5"/>
<text text-anchor="middle" x="412.976" y="-262.8" font-family="Times New Roman,serif" font-size="14.00"> (0)</text>
</g>
<!-- node12&#45;&gt;node17 -->
<g id="edge24" class="edge"><title>node12&#45;&gt;node17</title>
<path fill="none" stroke="black" d="M234.38,-610C248.744,-610 264.755,-610 279.761,-610"/>
<polygon fill="black" stroke="black" points="279.956,-613.5 289.956,-610 279.956,-606.5 279.956,-613.5"/>
<text text-anchor="middle" x="262.084" y="-613.8" font-family="Times New Roman,serif" font-size="14.00"> (1)</text>
</g>
<!-- node16 -->
<g id="node17" class="node"><title>node16</title>
<ellipse fill="none" stroke="black" cx="638.013" cy="-286" rx="47.3916" ry="18"/>
<text text-anchor="middle" x="638.013" y="-282.3" font-family="Times New Roman,serif" font-size="14.00">(16) XOR</text>
</g>
<!-- node13&#45;&gt;node16 -->
<g id="edge21" class="edge"><title>node13&#45;&gt;node16</title>
<path fill="none" stroke="black" d="M234.16,-303.937C306.245,-302.129 450.429,-297.96 572.567,-291 575.456,-290.835 578.416,-290.653 581.405,-290.459"/>
<polygon fill="black" stroke="black" points="581.873,-293.935 591.61,-289.757 581.393,-286.951 581.873,-293.935"/>
<text text-anchor="middle" x="412.976" y="-302.8" font-family="Times New Roman,serif" font-size="14.00"> (0)</text>
</g>
<!-- node19 -->
<g id="node20" class="node"><title>node19</title>
<ellipse fill="none" stroke="black" cx="788.905" cy="-313" rx="46.5926" ry="18"/>
<text text-anchor="middle" x="788.905" y="-309.3" font-family="Times New Roman,serif" font-size="14.00">(19) AND</text>
</g>
<!-- node14&#45;&gt;node19 -->
<g id="edge27" class="edge"><title>node14&#45;&gt;node19</title>
<path fill="none" stroke="black" d="M233.65,-435.151C273.548,-437.391 333.176,-439.447 384.976,-436 539.423,-425.721 583.538,-420.194 723.459,-354 735.072,-348.506 747.124,-341.299 757.62,-334.462"/>
<polygon fill="black" stroke="black" points="759.652,-337.314 766.028,-328.852 755.767,-331.491 759.652,-337.314"/>
<text text-anchor="middle" x="487.772" y="-435.8" font-family="Times New Roman,serif" font-size="14.00"> (0)</text>
</g>
<!-- node14&#45;&gt;node20 -->
<g id="edge29" class="edge"><title>node14&#45;&gt;node20</title>
<path fill="none" stroke="black" d="M213.428,-446.995C225.169,-453.993 239.337,-462.43 252.084,-470 268.616,-479.818 286.983,-490.696 302.354,-499.792"/>
<polygon fill="black" stroke="black" points="300.633,-502.841 311.022,-504.92 304.197,-496.816 300.633,-502.841"/>
<text text-anchor="middle" x="262.084" y="-484.8" font-family="Times New Roman,serif" font-size="14.00"> (0)</text>
</g>
<!-- node25 -->
<g id="node26" class="node"><title>node25</title>
<ellipse fill="none" stroke="black" cx="487.772" cy="-389" rx="46.5926" ry="18"/>
<text text-anchor="middle" x="487.772" y="-385.3" font-family="Times New Roman,serif" font-size="14.00">(25) AND</text>
</g>
<!-- node14&#45;&gt;node25 -->
<g id="edge39" class="edge"><title>node14&#45;&gt;node25</title>
<path fill="none" stroke="black" d="M231.372,-425.793C284.829,-418.092 375.962,-404.963 433.681,-396.648"/>
<polygon fill="black" stroke="black" points="434.303,-400.095 443.701,-395.205 433.305,-393.167 434.303,-400.095"/>
<text text-anchor="middle" x="337.53" y="-420.8" font-family="Times New Roman,serif" font-size="14.00"> (0)</text>
</g>
<!-- node14&#45;&gt;node31 -->
<g id="edge52" class="edge"><title>node14&#45;&gt;node31</title>
<path fill="none" stroke="black" d="M216.871,-417.925C240.7,-406.191 274.78,-389.408 300.48,-376.753"/>
<polygon fill="black" stroke="black" points="302.109,-379.852 309.534,-372.294 299.017,-373.572 302.109,-379.852"/>
<text text-anchor="middle" x="262.084" y="-403.8" font-family="Times New Roman,serif" font-size="14.00"> (1)</text>
</g>
<!-- node15&#45;&gt;node16 -->
<g id="edge22" class="edge"><title>node15&#45;&gt;node16</title>
<path fill="none" stroke="black" d="M530.46,-266.593C547.283,-269.657 566.882,-273.227 584.651,-276.463"/>
<polygon fill="black" stroke="black" points="584.402,-279.975 594.867,-278.324 585.656,-273.088 584.402,-279.975"/>
<text text-anchor="middle" x="562.567" y="-278.8" font-family="Times New Roman,serif" font-size="14.00"> (1)</text>
</g>
<!-- node16&#45;&gt;node19 -->
<g id="edge28" class="edge"><title>node16&#45;&gt;node19</title>
<path fill="none" stroke="black" d="M681.281,-293.665C698.394,-296.768 718.315,-300.381 736.276,-303.638"/>
<polygon fill="black" stroke="black" points="735.839,-307.115 746.303,-305.456 737.088,-300.228 735.839,-307.115"/>
<text text-anchor="middle" x="713.459" y="-305.8" font-family="Times New Roman,serif" font-size="14.00"> (1)</text>
</g>
<!-- node34 -->
<g id="node35" class="node"><title>node34</title>
<ellipse fill="none" stroke="black" cx="788.905" cy="-221" rx="47.3916" ry="18"/>
<text text-anchor="middle" x="788.905" y="-217.3" font-family="Times New Roman,serif" font-size="14.00">(34) XOR</text>
</g>
<!-- node16&#45;&gt;node34 -->
<g id="edge58" class="edge"><title>node16&#45;&gt;node34</title>
<path fill="none" stroke="black" d="M669.864,-272.532C692.423,-262.684 723.228,-249.235 747.712,-238.547"/>
<polygon fill="black" stroke="black" points="749.33,-241.659 757.094,-234.451 746.529,-235.244 749.33,-241.659"/>
<text text-anchor="middle" x="713.459" y="-261.8" font-family="Times New Roman,serif" font-size="14.00"> (1)</text>
</g>
<!-- node22 -->
<g id="node23" class="node"><title>node22</title>
<ellipse fill="none" stroke="black" cx="487.772" cy="-532" rx="46.5926" ry="18"/>
<text text-anchor="middle" x="487.772" y="-528.3" font-family="Times New Roman,serif" font-size="14.00">(22) AND</text>
</g>
<!-- node17&#45;&gt;node22 -->
<g id="edge33" class="edge"><title>node17&#45;&gt;node22</title>
<path fill="none" stroke="black" d="M366.066,-595.512C389.78,-583.034 424.193,-564.927 450.212,-551.236"/>
<polygon fill="black" stroke="black" points="452.163,-554.165 459.383,-546.411 448.904,-547.97 452.163,-554.165"/>
<text text-anchor="middle" x="412.976" y="-579.8" font-family="Times New Roman,serif" font-size="14.00"> (0)</text>
</g>
<!-- node37 -->
<g id="node38" class="node"><title>node37</title>
<ellipse fill="none" stroke="black" cx="1669.4" cy="-640" rx="42.7926" ry="18"/>
<text text-anchor="middle" x="1669.4" y="-636.3" font-family="Times New Roman,serif" font-size="14.00">Output 1</text>
</g>
<!-- node17&#45;&gt;node37 -->
<g id="edge62" class="edge"><title>node17&#45;&gt;node37</title>
<path fill="none" stroke="black" d="M374.369,-621.427C404.141,-629.905 447.778,-640 486.772,-640 486.772,-640 486.772,-640 1543.06,-640 1567.12,-640 1593.78,-640 1616.3,-640"/>
<polygon fill="black" stroke="black" points="1616.34,-643.5 1626.34,-640 1616.34,-636.5 1616.34,-643.5"/>
</g>
<!-- node21 -->
<g id="node22" class="node"><title>node21</title>
<ellipse fill="none" stroke="black" cx="939.796" cy="-229" rx="47.3916" ry="18"/>
<text text-anchor="middle" x="939.796" y="-225.3" font-family="Times New Roman,serif" font-size="14.00">(21) XOR</text>
</g>
<!-- node18&#45;&gt;node21 -->
<g id="edge32" class="edge"><title>node18&#45;&gt;node21</title>
<path fill="none" stroke="black" d="M384.421,-48.864C482.732,-48.6078 717.468,-59.8416 874.351,-164 890.905,-174.991 906.664,-190.754 918.454,-204.004"/>
<polygon fill="black" stroke="black" points="916.065,-206.591 925.254,-211.864 921.359,-202.011 916.065,-206.591"/>
<text text-anchor="middle" x="638.013" y="-88.8" font-family="Times New Roman,serif" font-size="14.00"> (1)</text>
</g>
<!-- node19&#45;&gt;node21 -->
<g id="edge31" class="edge"><title>node19&#45;&gt;node21</title>
<path fill="none" stroke="black" d="M816.181,-298.176C840.452,-284.483 876.693,-264.037 903.485,-248.921"/>
<polygon fill="black" stroke="black" points="905.543,-251.779 912.533,-243.817 902.104,-245.682 905.543,-251.779"/>
<text text-anchor="middle" x="864.351" y="-280.8" font-family="Times New Roman,serif" font-size="14.00"> (0)</text>
</g>
<!-- node23 -->
<g id="node24" class="node"><title>node23</title>
<ellipse fill="none" stroke="black" cx="939.796" cy="-381" rx="47.3916" ry="18"/>
<text text-anchor="middle" x="939.796" y="-377.3" font-family="Times New Roman,serif" font-size="14.00">(23) XOR</text>
</g>
<!-- node19&#45;&gt;node23 -->
<g id="edge35" class="edge"><title>node19&#45;&gt;node23</title>
<path fill="none" stroke="black" d="M819.677,-326.597C842.629,-337.079 874.57,-351.667 899.599,-363.098"/>
<polygon fill="black" stroke="black" points="898.27,-366.339 908.821,-367.31 901.178,-359.972 898.27,-366.339"/>
<text text-anchor="middle" x="864.351" y="-355.8" font-family="Times New Roman,serif" font-size="14.00"> (0)</text>
</g>
<!-- node19&#45;&gt;node28 -->
<g id="edge46" class="edge"><title>node19&#45;&gt;node28</title>
<path fill="none" stroke="black" d="M835.386,-310.556C852.242,-309.651 871.444,-308.619 888.689,-307.692"/>
<polygon fill="black" stroke="black" points="889.337,-311.163 899.135,-307.131 888.961,-304.173 889.337,-311.163"/>
<text text-anchor="middle" x="864.351" y="-313.8" font-family="Times New Roman,serif" font-size="14.00"> (1)</text>
</g>
<!-- node20&#45;&gt;node22 -->
<g id="edge34" class="edge"><title>node20&#45;&gt;node22</title>
<path fill="none" stroke="black" d="M384.217,-523.698C399.221,-524.913 416.057,-526.276 431.683,-527.541"/>
<polygon fill="black" stroke="black" points="431.495,-531.037 441.745,-528.355 432.06,-524.06 431.495,-531.037"/>
<text text-anchor="middle" x="412.976" y="-530.8" font-family="Times New Roman,serif" font-size="14.00"> (1)</text>
</g>
<!-- node20&#45;&gt;node25 -->
<g id="edge40" class="edge"><title>node20&#45;&gt;node25</title>
<path fill="none" stroke="black" d="M354.459,-503.04C373.995,-482.619 408.523,-447.735 440.976,-421 445.28,-417.454 449.962,-413.886 454.633,-410.486"/>
<polygon fill="black" stroke="black" points="456.818,-413.228 462.948,-404.586 452.767,-407.519 456.818,-413.228"/>
<text text-anchor="middle" x="412.976" y="-456.8" font-family="Times New Roman,serif" font-size="14.00"> (1)</text>
</g>
<!-- node26 -->
<g id="node27" class="node"><title>node26</title>
<ellipse fill="none" stroke="black" cx="1240.28" cy="-393" rx="46.5926" ry="18"/>
<text text-anchor="middle" x="1240.28" y="-389.3" font-family="Times New Roman,serif" font-size="14.00">(26) AND</text>
</g>
<!-- node20&#45;&gt;node26 -->
<g id="edge41" class="edge"><title>node20&#45;&gt;node26</title>
<path fill="none" stroke="black" d="M370.193,-533.169C380.591,-537.388 392.235,-541.999 402.976,-546 470.359,-571.098 489.662,-578 561.567,-578 561.567,-578 561.567,-578 1091.04,-578 1170.55,-578 1214.48,-472.643 1231.25,-420.944"/>
<polygon fill="black" stroke="black" points="1234.69,-421.664 1234.33,-411.075 1228.01,-419.578 1234.69,-421.664"/>
<text text-anchor="middle" x="788.905" y="-581.8" font-family="Times New Roman,serif" font-size="14.00"> (0)</text>
</g>
<!-- node27 -->
<g id="node28" class="node"><title>node27</title>
<ellipse fill="none" stroke="black" cx="1090.04" cy="-414" rx="40.8928" ry="18"/>
<text text-anchor="middle" x="1090.04" y="-410.3" font-family="Times New Roman,serif" font-size="14.00">(27) OR</text>
</g>
<!-- node20&#45;&gt;node27 -->
<g id="edge44" class="edge"><title>node20&#45;&gt;node27</title>
<path fill="none" stroke="black" d="M377.738,-510.348C422.069,-500.296 496.547,-486 561.567,-486 561.567,-486 561.567,-486 940.796,-486 986.95,-486 1033.8,-457.412 1062.14,-436.264"/>
<polygon fill="black" stroke="black" points="1064.52,-438.847 1070.32,-429.979 1060.26,-433.296 1064.52,-438.847"/>
<text text-anchor="middle" x="713.459" y="-489.8" font-family="Times New Roman,serif" font-size="14.00"> (1)</text>
</g>
<!-- node30 -->
<g id="node31" class="node"><title>node30</title>
<ellipse fill="none" stroke="black" cx="1240.28" cy="-229" rx="47.3916" ry="18"/>
<text text-anchor="middle" x="1240.28" y="-225.3" font-family="Times New Roman,serif" font-size="14.00">(30) XOR</text>
</g>
<!-- node21&#45;&gt;node30 -->
<g id="edge49" class="edge"><title>node21&#45;&gt;node30</title>
<path fill="none" stroke="black" d="M987.434,-229C1040.07,-229 1125.71,-229 1182.27,-229"/>
<polygon fill="black" stroke="black" points="1182.48,-232.5 1192.48,-229 1182.48,-225.5 1182.48,-232.5"/>
<text text-anchor="middle" x="1090.04" y="-232.8" font-family="Times New Roman,serif" font-size="14.00"> (0)</text>
</g>
<!-- node22&#45;&gt;node23 -->
<g id="edge36" class="edge"><title>node22&#45;&gt;node23</title>
<path fill="none" stroke="black" d="M534.908,-531.291C583.084,-529.364 660.285,-522.903 723.459,-502 794.576,-478.469 868.902,-430.712 908.944,-402.747"/>
<polygon fill="black" stroke="black" points="911.038,-405.554 917.19,-396.929 907.002,-399.835 911.038,-405.554"/>
<text text-anchor="middle" x="713.459" y="-511.8" font-family="Times New Roman,serif" font-size="14.00"> (1)</text>
</g>
<!-- node23&#45;&gt;node24 -->
<g id="edge38" class="edge"><title>node23&#45;&gt;node24</title>
<path fill="none" stroke="black" d="M979.148,-370.725C987.698,-368.646 996.747,-366.607 1005.24,-365 1014.66,-363.219 1024.72,-361.631 1034.5,-360.253"/>
<polygon fill="black" stroke="black" points="1035.09,-363.704 1044.53,-358.894 1034.15,-356.767 1035.09,-363.704"/>
<text text-anchor="middle" x="1015.24" y="-368.8" font-family="Times New Roman,serif" font-size="14.00"> (1)</text>
</g>
<!-- node23&#45;&gt;node27 -->
<g id="edge43" class="edge"><title>node23&#45;&gt;node27</title>
<path fill="none" stroke="black" d="M981.304,-390.017C1000.43,-394.275 1023.34,-399.376 1043.11,-403.777"/>
<polygon fill="black" stroke="black" points="1042.61,-407.25 1053.13,-406.006 1044.13,-400.417 1042.61,-407.25"/>
<text text-anchor="middle" x="1015.24" y="-403.8" font-family="Times New Roman,serif" font-size="14.00"> (0)</text>
</g>
<!-- node24&#45;&gt;node26 -->
<g id="edge42" class="edge"><title>node24&#45;&gt;node26</title>
<path fill="none" stroke="black" d="M1129.21,-364.043C1148.15,-369.025 1171.21,-375.092 1191.33,-380.384"/>
<polygon fill="black" stroke="black" points="1190.67,-383.831 1201.23,-382.991 1192.45,-377.061 1190.67,-383.831"/>
<text text-anchor="middle" x="1164.83" y="-379.8" font-family="Times New Roman,serif" font-size="14.00"> (1)</text>
</g>
<!-- node41 -->
<g id="node42" class="node"><title>node41</title>
<ellipse fill="none" stroke="black" cx="1669.4" cy="-343" rx="42.7926" ry="18"/>
<text text-anchor="middle" x="1669.4" y="-339.3" font-family="Times New Roman,serif" font-size="14.00">Output 5</text>
</g>
<!-- node24&#45;&gt;node41 -->
<g id="edge66" class="edge"><title>node24&#45;&gt;node41</title>
<path fill="none" stroke="black" d="M1135.08,-349.015C1164.54,-346.104 1204.18,-343 1239.28,-343 1239.28,-343 1239.28,-343 1543.06,-343 1567.12,-343 1593.78,-343 1616.3,-343"/>
<polygon fill="black" stroke="black" points="1616.34,-346.5 1626.34,-343 1616.34,-339.5 1616.34,-346.5"/>
</g>
<!-- node25&#45;&gt;node29 -->
<g id="edge48" class="edge"><title>node25&#45;&gt;node29</title>
<path fill="none" stroke="black" d="M505.912,-372.219C523.913,-354.026 552.359,-323.608 572.567,-294 582.429,-279.552 579.568,-272.601 590.567,-259 595.057,-253.448 600.472,-248.146 605.994,-243.357"/>
<polygon fill="black" stroke="black" points="608.552,-245.786 614.067,-236.739 604.114,-240.372 608.552,-245.786"/>
<text text-anchor="middle" x="562.567" y="-323.8" font-family="Times New Roman,serif" font-size="14.00"> (1)</text>
</g>
<!-- node33 -->
<g id="node34" class="node"><title>node33</title>
<ellipse fill="none" stroke="black" cx="1391.17" cy="-393" rx="47.3916" ry="18"/>
<text text-anchor="middle" x="1391.17" y="-389.3" font-family="Times New Roman,serif" font-size="14.00">(33) XOR</text>
</g>
<!-- node26&#45;&gt;node33 -->
<g id="edge56" class="edge"><title>node26&#45;&gt;node33</title>
<path fill="none" stroke="black" d="M1287.17,-393C1301.75,-393 1318.05,-393 1333.3,-393"/>
<polygon fill="black" stroke="black" points="1333.67,-396.5 1343.67,-393 1333.67,-389.5 1333.67,-396.5"/>
<text text-anchor="middle" x="1315.73" y="-396.8" font-family="Times New Roman,serif" font-size="14.00"> (1)</text>
</g>
<!-- node27&#45;&gt;node30 -->
<g id="edge50" class="edge"><title>node27&#45;&gt;node30</title>
<path fill="none" stroke="black" d="M1130.92,-411.17C1146.18,-408.274 1162.79,-402.679 1174.83,-392 1195.66,-373.526 1219.64,-298.177 1231.63,-256.702"/>
<polygon fill="black" stroke="black" points="1235.03,-257.519 1234.41,-246.943 1228.3,-255.602 1235.03,-257.519"/>
<text text-anchor="middle" x="1164.83" y="-408.8" font-family="Times New Roman,serif" font-size="14.00"> (1)</text>
</g>
<!-- node28&#45;&gt;node33 -->
<g id="edge55" class="edge"><title>node28&#45;&gt;node33</title>
<path fill="none" stroke="black" d="M980.573,-302.782C1027.49,-301.024 1107.62,-300.722 1174.83,-314 1238.98,-326.672 1309.44,-355.592 1351.71,-374.701"/>
<polygon fill="black" stroke="black" points="1350.51,-378.001 1361.06,-378.976 1353.42,-371.635 1350.51,-378.001"/>
<text text-anchor="middle" x="1164.83" y="-317.8" font-family="Times New Roman,serif" font-size="14.00"> (0)</text>
</g>
<!-- node29&#45;&gt;node34 -->
<g id="edge57" class="edge"><title>node29&#45;&gt;node34</title>
<path fill="none" stroke="black" d="M685.715,-221C700.128,-221 716.16,-221 731.171,-221"/>
<polygon fill="black" stroke="black" points="731.369,-224.5 741.369,-221 731.369,-217.5 731.369,-224.5"/>
<text text-anchor="middle" x="713.459" y="-224.8" font-family="Times New Roman,serif" font-size="14.00"> (0)</text>
</g>
<!-- node32 -->
<g id="node33" class="node"><title>node32</title>
<ellipse fill="none" stroke="black" cx="1391.17" cy="-183" rx="46.5926" ry="18"/>
<text text-anchor="middle" x="1391.17" y="-179.3" font-family="Times New Roman,serif" font-size="14.00">(32) AND</text>
</g>
<!-- node30&#45;&gt;node32 -->
<g id="edge53" class="edge"><title>node30&#45;&gt;node32</title>
<path fill="none" stroke="black" d="M1277.7,-217.747C1297.86,-211.519 1323.1,-203.721 1344.56,-197.091"/>
<polygon fill="black" stroke="black" points="1345.6,-200.433 1354.12,-194.137 1343.54,-193.745 1345.6,-200.433"/>
<text text-anchor="middle" x="1315.73" y="-212.8" font-family="Times New Roman,serif" font-size="14.00"> (0)</text>
</g>
<!-- node31&#45;&gt;node32 -->
<g id="edge54" class="edge"><title>node31&#45;&gt;node32</title>
<path fill="none" stroke="black" d="M378.735,-359.771C465.747,-360.696 668.134,-358.614 723.459,-321 737.925,-311.165 728.522,-297.773 741.459,-286 775.058,-255.423 797.252,-271.134 836.351,-248 882.758,-220.541 884.873,-183 938.796,-183 938.796,-183 938.796,-183 1241.28,-183 1271.88,-183 1306.02,-183 1333.88,-183"/>
<polygon fill="black" stroke="black" points="1334.23,-186.5 1344.23,-183 1334.23,-179.5 1334.23,-186.5"/>
<text text-anchor="middle" x="864.351" y="-238.8" font-family="Times New Roman,serif" font-size="14.00"> (1)</text>
</g>
<!-- node32&#45;&gt;node35 -->
<g id="edge59" class="edge"><title>node32&#45;&gt;node35</title>
<path fill="none" stroke="black" d="M1422.3,-169.442C1445.13,-159.168 1476.7,-144.961 1501.56,-133.777"/>
<polygon fill="black" stroke="black" points="1503.04,-136.948 1510.72,-129.653 1500.17,-130.565 1503.04,-136.948"/>
<text text-anchor="middle" x="1466.62" y="-157.8" font-family="Times New Roman,serif" font-size="14.00"> (0)</text>
</g>
<!-- node40 -->
<g id="node41" class="node"><title>node40</title>
<ellipse fill="none" stroke="black" cx="1669.4" cy="-397" rx="42.7926" ry="18"/>
<text text-anchor="middle" x="1669.4" y="-393.3" font-family="Times New Roman,serif" font-size="14.00">Output 4</text>
</g>
<!-- node33&#45;&gt;node40 -->
<g id="edge65" class="edge"><title>node33&#45;&gt;node40</title>
<path fill="none" stroke="black" d="M1438.72,-393.674C1487.77,-394.384 1564.87,-395.501 1616.02,-396.241"/>
<polygon fill="black" stroke="black" points="1616.15,-399.744 1626.2,-396.389 1616.25,-392.744 1616.15,-399.744"/>
</g>
<!-- node38 -->
<g id="node39" class="node"><title>node38</title>
<ellipse fill="none" stroke="black" cx="1669.4" cy="-30" rx="42.7926" ry="18"/>
<text text-anchor="middle" x="1669.4" y="-26.3" font-family="Times New Roman,serif" font-size="14.00">Output 2</text>
</g>
<!-- node34&#45;&gt;node38 -->
<g id="edge63" class="edge"><title>node34&#45;&gt;node38</title>
<path fill="none" stroke="black" d="M794.518,-203.031C807.92,-155.484 851.554,-30 938.796,-30 938.796,-30 938.796,-30 1543.06,-30 1567.12,-30 1593.78,-30 1616.3,-30"/>
<polygon fill="black" stroke="black" points="1616.34,-33.5001 1626.34,-30 1616.34,-26.5001 1616.34,-33.5001"/>
</g>
<!-- node39 -->
<g id="node40" class="node"><title>node39</title>
<ellipse fill="none" stroke="black" cx="1669.4" cy="-116" rx="42.7926" ry="18"/>
<text text-anchor="middle" x="1669.4" y="-112.3" font-family="Times New Roman,serif" font-size="14.00">Output 3</text>
</g>
<!-- node35&#45;&gt;node39 -->
<g id="edge64" class="edge"><title>node35&#45;&gt;node39</title>
<path fill="none" stroke="black" d="M1589.74,-116C1598.34,-116 1607.38,-116 1616.13,-116"/>
<polygon fill="black" stroke="black" points="1616.24,-119.5 1626.24,-116 1616.24,-112.5 1616.24,-119.5"/>
</g>
</g>
</svg>
