<?xml version="1.0" encoding="UTF-8" standalone="no"?>
<!DOCTYPE svg PUBLIC "-//W3C//DTD SVG 1.1//EN"
 "http://www.w3.org/Graphics/SVG/1.1/DTD/svg11.dtd">
<!-- Generated by graphviz version 2.38.0 (20140413.2041)
 -->
<!-- Title: NeuralNetwork Pages: 1 -->
<svg width="288pt" height="100pt"
 viewBox="0.00 0.00 288.00 99.70" xmlns="http://www.w3.org/2000/svg" xmlns:xlink="http://www.w3.org/1999/xlink">
<g id="graph0" class="graph" transform="scale(0.257595 0.257595) rotate(0) translate(4 383.032)">
<title>NeuralNetwork</title>
<polygon fill="white" stroke="none" points="-4,4 -4,-383.032 1114.03,-383.032 1114.03,4 -4,4"/>
<!-- node0 -->
<g id="node1" class="node"><title>node0</title>
<ellipse fill="none" stroke="black" cx="42.2463" cy="-286.032" rx="42.4939" ry="18"/>
<text text-anchor="middle" x="42.2463" y="-282.332" font-family="Times New Roman,serif" font-size="14.00">(0) Input</text>
</g>
<!-- node5 -->
<g id="node6" class="node"><title>node5</title>
<ellipse fill="none" stroke="black" cx="187.288" cy="-274.032" rx="42.7926" ry="18"/>
<text text-anchor="middle" x="187.288" y="-270.332" font-family="Times New Roman,serif" font-size="14.00">(5) XOR</text>
</g>
<!-- node0&#45;&gt;node5 -->
<g id="edge1" class="edge"><title>node0&#45;&gt;node5</title>
<path fill="none" stroke="black" d="M84.8365,-285.258C96.9908,-284.815 110.288,-284.121 122.493,-283.032 127.189,-282.613 132.069,-282.087 136.944,-281.503"/>
<polygon fill="black" stroke="black" points="137.409,-284.972 146.885,-280.233 136.522,-278.028 137.409,-284.972"/>
<text text-anchor="middle" x="112.493" y="-287.832" font-family="Times New Roman,serif" font-size="14.00"> (0)</text>
</g>
<!-- node11 -->
<g id="node12" class="node"><title>node11</title>
<ellipse fill="none" stroke="black" cx="187.288" cy="-151.032" rx="46.5926" ry="18"/>
<text text-anchor="middle" x="187.288" y="-147.332" font-family="Times New Roman,serif" font-size="14.00">(11) AND</text>
</g>
<!-- node0&#45;&gt;node11 -->
<g id="edge14" class="edge"><title>node0&#45;&gt;node11</title>
<path fill="none" stroke="black" d="M74.4224,-274.233C90.005,-267.315 108.475,-257.475 122.493,-245.032 143.884,-226.042 161.513,-198.399 172.778,-178.002"/>
<polygon fill="black" stroke="black" points="176.006,-179.388 177.64,-168.92 169.834,-176.084 176.006,-179.388"/>
<text text-anchor="middle" x="112.493" y="-262.832" font-family="Times New Roman,serif" font-size="14.00"> (1)</text>
</g>
<!-- node1 -->
<g id="node2" class="node"><title>node1</title>
<ellipse fill="none" stroke="black" cx="42.2463" cy="-41.0316" rx="42.4939" ry="18"/>
<text text-anchor="middle" x="42.2463" y="-37.3316" font-family="Times New Roman,serif" font-size="14.00">(1) Input</text>
</g>
<!-- node8 -->
<g id="node9" class="node"><title>node8</title>
<ellipse fill="none" stroke="black" cx="487.122" cy="-122.032" rx="42.7926" ry="18"/>
<text text-anchor="middle" x="487.122" y="-118.332" font-family="Times New Roman,serif" font-size="14.00">(8) XOR</text>
</g>
<!-- node1&#45;&gt;node8 -->
<g id="edge8" class="edge"><title>node1&#45;&gt;node8</title>
<path fill="none" stroke="black" d="M84.4292,-38.7832C155.508,-36.2822 304.822,-37.1385 421.676,-79.0316 434.963,-83.7953 448.187,-91.8796 459.166,-99.7614"/>
<polygon fill="black" stroke="black" points="457.348,-102.773 467.448,-105.972 461.547,-97.1723 457.348,-102.773"/>
<text text-anchor="middle" x="262.084" y="-49.8316" font-family="Times New Roman,serif" font-size="14.00"> (1)</text>
</g>
<!-- node9 -->
<g id="node10" class="node"><title>node9</title>
<ellipse fill="none" stroke="black" cx="187.288" cy="-97.0316" rx="42.7926" ry="18"/>
<text text-anchor="middle" x="187.288" y="-93.3316" font-family="Times New Roman,serif" font-size="14.00">(9) XOR</text>
</g>
<!-- node1&#45;&gt;node9 -->
<g id="edge9" class="edge"><title>node1&#45;&gt;node9</title>
<path fill="none" stroke="black" d="M73.9324,-53.045C94.9066,-61.2563 122.927,-72.226 145.738,-81.1564"/>
<polygon fill="black" stroke="black" points="144.572,-84.4584 155.159,-84.8448 147.124,-77.9401 144.572,-84.4584"/>
<text text-anchor="middle" x="112.493" y="-73.8316" font-family="Times New Roman,serif" font-size="14.00"> (0)</text>
</g>
<!-- node2 -->
<g id="node3" class="node"><title>node2</title>
<ellipse fill="none" stroke="black" cx="42.2463" cy="-360.032" rx="42.4939" ry="18"/>
<text text-anchor="middle" x="42.2463" y="-356.332" font-family="Times New Roman,serif" font-size="14.00">(2) Input</text>
</g>
<!-- node6 -->
<g id="node7" class="node"><title>node6</title>
<ellipse fill="none" stroke="black" cx="336.88" cy="-322.032" rx="42.7926" ry="18"/>
<text text-anchor="middle" x="336.88" y="-318.332" font-family="Times New Roman,serif" font-size="14.00">(6) XOR</text>
</g>
<!-- node2&#45;&gt;node6 -->
<g id="edge4" class="edge"><title>node2&#45;&gt;node6</title>
<path fill="none" stroke="black" d="M84.1675,-363.312C130.602,-365.839 208.181,-366.415 272.084,-349.032 280.938,-346.623 290.18,-343.253 298.793,-339.707"/>
<polygon fill="black" stroke="black" points="300.387,-342.832 308.196,-335.671 297.626,-336.399 300.387,-342.832"/>
<text text-anchor="middle" x="187.288" y="-367.832" font-family="Times New Roman,serif" font-size="14.00"> (1)</text>
</g>
<!-- node7 -->
<g id="node8" class="node"><title>node7</title>
<ellipse fill="none" stroke="black" cx="336.88" cy="-267.032" rx="42.4939" ry="18"/>
<text text-anchor="middle" x="336.88" y="-263.332" font-family="Times New Roman,serif" font-size="14.00">(7) AND</text>
</g>
<!-- node2&#45;&gt;node7 -->
<g id="edge6" class="edge"><title>node2&#45;&gt;node7</title>
<path fill="none" stroke="black" d="M79.1284,-351.201C97.4234,-346.881 120.068,-341.81 140.493,-338.032 198.598,-327.282 221.26,-349.177 272.084,-319.032 283.552,-312.23 280.22,-304.003 290.084,-295.032 293.432,-291.987 297.158,-289.089 300.998,-286.393"/>
<polygon fill="black" stroke="black" points="303.037,-289.242 309.483,-280.833 299.2,-283.387 303.037,-289.242"/>
<text text-anchor="middle" x="187.288" y="-341.832" font-family="Times New Roman,serif" font-size="14.00"> (1)</text>
</g>
<!-- node3 -->
<g id="node4" class="node"><title>node3</title>
<ellipse fill="none" stroke="black" cx="42.2463" cy="-122.032" rx="42.4939" ry="18"/>
<text text-anchor="middle" x="42.2463" y="-118.332" font-family="Times New Roman,serif" font-size="14.00">(3) Input</text>
</g>
<!-- node3&#45;&gt;node9 -->
<g id="edge10" class="edge"><title>node3&#45;&gt;node9</title>
<path fill="none" stroke="black" d="M81.5789,-115.332C98.7558,-112.33 119.214,-108.754 137.471,-105.564"/>
<polygon fill="black" stroke="black" points="138.104,-109.006 147.352,-103.837 136.899,-102.111 138.104,-109.006"/>
<text text-anchor="middle" x="112.493" y="-113.832" font-family="Times New Roman,serif" font-size="14.00"> (1)</text>
</g>
<!-- node10 -->
<g id="node11" class="node"><title>node10</title>
<ellipse fill="none" stroke="black" cx="487.122" cy="-228.032" rx="47.3916" ry="18"/>
<text text-anchor="middle" x="487.122" y="-224.332" font-family="Times New Roman,serif" font-size="14.00">(10) XOR</text>
</g>
<!-- node3&#45;&gt;node10 -->
<g id="edge12" class="edge"><title>node3&#45;&gt;node10</title>
<path fill="none" stroke="black" d="M64.4982,-137.455C83.4711,-150.423 112.507,-168.35 140.493,-178.032 238.32,-211.876 359.395,-222.817 429.194,-226.35"/>
<polygon fill="black" stroke="black" points="429.374,-229.862 439.528,-226.838 429.704,-222.87 429.374,-229.862"/>
<text text-anchor="middle" x="262.084" y="-213.832" font-family="Times New Roman,serif" font-size="14.00"> (1)</text>
</g>
<!-- node17 -->
<g id="node18" class="node"><title>node17</title>
<ellipse fill="none" stroke="black" cx="788.905" cy="-38.0316" rx="47.3916" ry="18"/>
<text text-anchor="middle" x="788.905" y="-34.3316" font-family="Times New Roman,serif" font-size="14.00">(17) XOR</text>
</g>
<!-- node3&#45;&gt;node17 -->
<g id="edge25" class="edge"><title>node3&#45;&gt;node17</title>
<path fill="none" stroke="black" d="M56.4612,-104.905C67.3956,-91.9515 84.076,-74.7832 102.493,-65.0316 226.204,0.474097 270.692,-0.0316065 410.676,-0.0316065 410.676,-0.0316065 410.676,-0.0316065 639.013,-0.0316065 676.164,-0.0316065 716.955,-11.2762 746.433,-21.5318"/>
<polygon fill="black" stroke="black" points="745.38,-24.8723 755.974,-24.9542 747.743,-18.2833 745.38,-24.8723"/>
<text text-anchor="middle" x="411.676" y="-3.83161" font-family="Times New Roman,serif" font-size="14.00"> (0)</text>
</g>
<!-- node4 -->
<g id="node5" class="node"><title>node4</title>
<ellipse fill="none" stroke="black" cx="42.2463" cy="-210.032" rx="42.4939" ry="18"/>
<text text-anchor="middle" x="42.2463" y="-206.332" font-family="Times New Roman,serif" font-size="14.00">(4) Input</text>
</g>
<!-- node4&#45;&gt;node5 -->
<g id="edge2" class="edge"><title>node4&#45;&gt;node5</title>
<path fill="none" stroke="black" d="M81.6676,-216.829C94.9473,-219.928 109.698,-224.233 122.493,-230.032 135.16,-235.772 147.999,-244.051 158.805,-251.881"/>
<polygon fill="black" stroke="black" points="156.891,-254.82 166.994,-258.009 161.084,-249.215 156.891,-254.82"/>
<text text-anchor="middle" x="112.493" y="-233.832" font-family="Times New Roman,serif" font-size="14.00"> (1)</text>
</g>
<!-- node4&#45;&gt;node11 -->
<g id="edge13" class="edge"><title>node4&#45;&gt;node11</title>
<path fill="none" stroke="black" d="M73.2326,-197.663C94.0922,-189.059 122.165,-177.48 145.118,-168.013"/>
<polygon fill="black" stroke="black" points="146.696,-171.148 154.606,-164.1 144.027,-164.677 146.696,-171.148"/>
<text text-anchor="middle" x="112.493" y="-187.832" font-family="Times New Roman,serif" font-size="14.00"> (0)</text>
</g>
<!-- node5&#45;&gt;node6 -->
<g id="edge3" class="edge"><title>node5&#45;&gt;node6</title>
<path fill="none" stroke="black" d="M221.779,-284.924C242.82,-291.766 270.166,-300.66 292.812,-308.025"/>
<polygon fill="black" stroke="black" points="291.93,-311.418 302.522,-311.183 294.095,-304.762 291.93,-311.418"/>
<text text-anchor="middle" x="262.084" y="-303.832" font-family="Times New Roman,serif" font-size="14.00"> (0)</text>
</g>
<!-- node5&#45;&gt;node7 -->
<g id="edge5" class="edge"><title>node5&#45;&gt;node7</title>
<path fill="none" stroke="black" d="M229.091,-269.693C236.724,-269.024 244.641,-268.425 252.084,-268.032 262.544,-267.478 273.747,-267.157 284.449,-266.981"/>
<polygon fill="black" stroke="black" points="284.561,-270.48 294.516,-266.854 284.472,-263.481 284.561,-270.48"/>
<text text-anchor="middle" x="262.084" y="-271.832" font-family="Times New Roman,serif" font-size="14.00"> (0)</text>
</g>
<!-- node18 -->
<g id="node19" class="node"><title>node18</title>
<ellipse fill="none" stroke="black" cx="1067.14" cy="-322.032" rx="42.7926" ry="18"/>
<text text-anchor="middle" x="1067.14" y="-318.332" font-family="Times New Roman,serif" font-size="14.00">Output 0</text>
</g>
<!-- node6&#45;&gt;node18 -->
<g id="edge27" class="edge"><title>node6&#45;&gt;node18</title>
<path fill="none" stroke="black" d="M380.053,-322.032C409.719,-322.032 450.348,-322.032 486.122,-322.032 486.122,-322.032 486.122,-322.032 940.796,-322.032 964.857,-322.032 991.514,-322.032 1014.04,-322.032"/>
<polygon fill="black" stroke="black" points="1014.07,-325.532 1024.07,-322.032 1014.07,-318.532 1014.07,-325.532"/>
</g>
<!-- node7&#45;&gt;node8 -->
<g id="edge7" class="edge"><title>node7&#45;&gt;node8</title>
<path fill="none" stroke="black" d="M354.597,-250.68C380.844,-225.007 431.834,-175.132 462.036,-145.591"/>
<polygon fill="black" stroke="black" points="464.537,-148.04 469.238,-138.546 459.642,-143.036 464.537,-148.04"/>
<text text-anchor="middle" x="411.676" y="-206.832" font-family="Times New Roman,serif" font-size="14.00"> (0)</text>
</g>
<!-- node7&#45;&gt;node10 -->
<g id="edge11" class="edge"><title>node7&#45;&gt;node10</title>
<path fill="none" stroke="black" d="M369.096,-255.336C379.381,-251.733 390.936,-247.951 401.676,-245.032 411.956,-242.238 423.054,-239.682 433.718,-237.449"/>
<polygon fill="black" stroke="black" points="434.664,-240.829 443.768,-235.41 433.272,-233.968 434.664,-240.829"/>
<text text-anchor="middle" x="411.676" y="-248.832" font-family="Times New Roman,serif" font-size="14.00"> (0)</text>
</g>
<!-- node15 -->
<g id="node16" class="node"><title>node15</title>
<ellipse fill="none" stroke="black" cx="939.796" cy="-250.032" rx="47.3916" ry="18"/>
<text text-anchor="middle" x="939.796" y="-246.332" font-family="Times New Roman,serif" font-size="14.00">(15) XOR</text>
</g>
<!-- node7&#45;&gt;node15 -->
<g id="edge22" class="edge"><title>node7&#45;&gt;node15</title>
<path fill="none" stroke="black" d="M378.755,-270C408.512,-271.908 449.793,-274.032 486.122,-274.032 486.122,-274.032 486.122,-274.032 789.905,-274.032 823.632,-274.032 861.115,-267.955 890.034,-261.917"/>
<polygon fill="black" stroke="black" points="890.849,-265.322 899.886,-259.793 889.373,-258.48 890.849,-265.322"/>
<text text-anchor="middle" x="638.013" y="-277.832" font-family="Times New Roman,serif" font-size="14.00"> (1)</text>
</g>
<!-- node13 -->
<g id="node14" class="node"><title>node13</title>
<ellipse fill="none" stroke="black" cx="638.013" cy="-217.032" rx="46.5926" ry="18"/>
<text text-anchor="middle" x="638.013" y="-213.332" font-family="Times New Roman,serif" font-size="14.00">(13) AND</text>
</g>
<!-- node8&#45;&gt;node13 -->
<g id="edge17" class="edge"><title>node8&#45;&gt;node13</title>
<path fill="none" stroke="black" d="M502.274,-138.936C514.448,-152.605 533.083,-171.562 552.567,-184.032 564.189,-191.469 577.752,-197.682 590.565,-202.637"/>
<polygon fill="black" stroke="black" points="589.58,-206.004 600.173,-206.181 592.002,-199.437 589.58,-206.004"/>
<text text-anchor="middle" x="562.567" y="-197.832" font-family="Times New Roman,serif" font-size="14.00"> (0)</text>
</g>
<!-- node16 -->
<g id="node17" class="node"><title>node16</title>
<ellipse fill="none" stroke="black" cx="638.013" cy="-76.0316" rx="47.3916" ry="18"/>
<text text-anchor="middle" x="638.013" y="-72.3316" font-family="Times New Roman,serif" font-size="14.00">(16) XOR</text>
</g>
<!-- node8&#45;&gt;node16 -->
<g id="edge23" class="edge"><title>node8&#45;&gt;node16</title>
<path fill="none" stroke="black" d="M522.28,-111.478C542.698,-105.17 568.9,-97.0752 591.109,-90.2138"/>
<polygon fill="black" stroke="black" points="592.153,-93.5544 600.674,-87.2585 590.087,-86.8664 592.153,-93.5544"/>
<text text-anchor="middle" x="562.567" y="-104.832" font-family="Times New Roman,serif" font-size="14.00"> (0)</text>
</g>
<!-- node12 -->
<g id="node13" class="node"><title>node12</title>
<ellipse fill="none" stroke="black" cx="336.88" cy="-151.032" rx="46.5926" ry="18"/>
<text text-anchor="middle" x="336.88" y="-147.332" font-family="Times New Roman,serif" font-size="14.00">(12) AND</text>
</g>
<!-- node9&#45;&gt;node12 -->
<g id="edge15" class="edge"><title>node9&#45;&gt;node12</title>
<path fill="none" stroke="black" d="M220.314,-108.749C241.53,-116.511 269.615,-126.787 292.786,-135.264"/>
<polygon fill="black" stroke="black" points="291.787,-138.626 302.381,-138.775 294.192,-132.052 291.787,-138.626"/>
<text text-anchor="middle" x="262.084" y="-130.832" font-family="Times New Roman,serif" font-size="14.00"> (0)</text>
</g>
<!-- node10&#45;&gt;node13 -->
<g id="edge18" class="edge"><title>node10&#45;&gt;node13</title>
<path fill="none" stroke="black" d="M534.144,-224.816C546.614,-223.93 560.109,-222.958 572.567,-222.032 575.603,-221.806 578.719,-221.572 581.864,-221.334"/>
<polygon fill="black" stroke="black" points="582.24,-224.816 591.945,-220.566 581.708,-217.836 582.24,-224.816"/>
<text text-anchor="middle" x="562.567" y="-226.832" font-family="Times New Roman,serif" font-size="14.00"> (1)</text>
</g>
<!-- node11&#45;&gt;node12 -->
<g id="edge16" class="edge"><title>node11&#45;&gt;node12</title>
<path fill="none" stroke="black" d="M234.178,-151.032C248.617,-151.032 264.727,-151.032 279.79,-151.032"/>
<polygon fill="black" stroke="black" points="280.019,-154.532 290.019,-151.032 280.018,-147.532 280.019,-154.532"/>
<text text-anchor="middle" x="262.084" y="-154.832" font-family="Times New Roman,serif" font-size="14.00"> (1)</text>
</g>
<!-- node11&#45;&gt;node16 -->
<g id="edge24" class="edge"><title>node11&#45;&gt;node16</title>
<path fill="none" stroke="black" d="M213.423,-135.933C227.675,-127.636 244.196,-118.529 252.084,-116.032 364.496,-80.4398 503.682,-74.8484 580.106,-74.8515"/>
<polygon fill="black" stroke="black" points="580.452,-78.3526 590.463,-74.8866 580.475,-71.3527 580.452,-78.3526"/>
<text text-anchor="middle" x="411.676" y="-87.8316" font-family="Times New Roman,serif" font-size="14.00"> (1)</text>
</g>
<!-- node14 -->
<g id="node15" class="node"><title>node14</title>
<ellipse fill="none" stroke="black" cx="788.905" cy="-217.032" rx="47.3916" ry="18"/>
<text text-anchor="middle" x="788.905" y="-213.332" font-family="Times New Roman,serif" font-size="14.00">(14) XOR</text>
</g>
<!-- node12&#45;&gt;node14 -->
<g id="edge19" class="edge"><title>node12&#45;&gt;node14</title>
<path fill="none" stroke="black" d="M383.367,-153.356C446.344,-156.634 554.427,-162.498 572.567,-165.032 623.463,-172.14 635.516,-177.925 685.459,-190.032 703.39,-194.378 722.999,-199.464 740.217,-204.042"/>
<polygon fill="black" stroke="black" points="739.483,-207.469 750.048,-206.67 741.291,-200.706 739.483,-207.469"/>
<text text-anchor="middle" x="562.567" y="-168.832" font-family="Times New Roman,serif" font-size="14.00"> (0)</text>
</g>
<!-- node13&#45;&gt;node14 -->
<g id="edge20" class="edge"><title>node13&#45;&gt;node14</title>
<path fill="none" stroke="black" d="M684.901,-217.032C699.48,-217.032 715.781,-217.032 731.038,-217.032"/>
<polygon fill="black" stroke="black" points="731.399,-220.532 741.399,-217.032 731.399,-213.532 731.399,-220.532"/>
<text text-anchor="middle" x="713.459" y="-220.832" font-family="Times New Roman,serif" font-size="14.00"> (1)</text>
</g>
<!-- node14&#45;&gt;node15 -->
<g id="edge21" class="edge"><title>node14&#45;&gt;node15</title>
<path fill="none" stroke="black" d="M830.197,-225.962C848.156,-229.942 869.5,-234.673 888.493,-238.882"/>
<polygon fill="black" stroke="black" points="887.952,-242.347 898.472,-241.094 889.466,-235.513 887.952,-242.347"/>
<text text-anchor="middle" x="864.351" y="-238.832" font-family="Times New Roman,serif" font-size="14.00"> (0)</text>
</g>
<!-- node20 -->
<g id="node21" class="node"><title>node20</title>
<ellipse fill="none" stroke="black" cx="1067.14" cy="-250.032" rx="42.7926" ry="18"/>
<text text-anchor="middle" x="1067.14" y="-246.332" font-family="Times New Roman,serif" font-size="14.00">Output 2</text>
</g>
<!-- node15&#45;&gt;node20 -->
<g id="edge29" class="edge"><title>node15&#45;&gt;node20</title>
<path fill="none" stroke="black" d="M987.469,-250.032C996.074,-250.032 1005.11,-250.032 1013.87,-250.032"/>
<polygon fill="black" stroke="black" points="1013.98,-253.532 1023.98,-250.032 1013.98,-246.532 1013.98,-253.532"/>
</g>
<!-- node16&#45;&gt;node17 -->
<g id="edge26" class="edge"><title>node16&#45;&gt;node17</title>
<path fill="none" stroke="black" d="M677.744,-66.1468C696.54,-61.3496 719.317,-55.5365 739.271,-50.444"/>
<polygon fill="black" stroke="black" points="740.286,-53.7972 749.11,-47.9329 738.555,-47.0146 740.286,-53.7972"/>
<text text-anchor="middle" x="713.459" y="-62.8316" font-family="Times New Roman,serif" font-size="14.00"> (1)</text>
</g>
<!-- node19 -->
<g id="node20" class="node"><title>node19</title>
<ellipse fill="none" stroke="black" cx="1067.14" cy="-38.0316" rx="42.7926" ry="18"/>
<text text-anchor="middle" x="1067.14" y="-34.3316" font-family="Times New Roman,serif" font-size="14.00">Output 1</text>
</g>
<!-- node17&#45;&gt;node19 -->
<g id="edge28" class="edge"><title>node17&#45;&gt;node19</title>
<path fill="none" stroke="black" d="M836.452,-38.0316C885.504,-38.0316 962.602,-38.0316 1013.75,-38.0316"/>
<polygon fill="black" stroke="black" points="1013.94,-41.5317 1023.94,-38.0316 1013.94,-34.5317 1013.94,-41.5317"/>
</g>
</g>
</svg>
