<?xml version="1.0" encoding="UTF-8" standalone="no"?>
<!DOCTYPE svg PUBLIC "-//W3C//DTD SVG 1.1//EN"
 "http://www.w3.org/Graphics/SVG/1.1/DTD/svg11.dtd">
<!-- Generated by graphviz version 2.38.0 (20140413.2041)
 -->
<!-- Title: NeuralNetwork Pages: 1 -->
<svg width="288pt" height="98pt"
 viewBox="0.00 0.00 288.00 98.09" xmlns="http://www.w3.org/2000/svg" xmlns:xlink="http://www.w3.org/1999/xlink">
<g id="graph0" class="graph" transform="scale(0.247077 0.247077) rotate(0) translate(4 393)">
<title>NeuralNetwork</title>
<polygon fill="white" stroke="none" points="-4,4 -4,-393 1161.63,-393 1161.63,4 -4,4"/>
<!-- node0 -->
<g id="node1" class="node"><title>node0</title>
<ellipse fill="none" stroke="black" cx="42.2463" cy="-102" rx="42.4939" ry="18"/>
<text text-anchor="middle" x="42.2463" y="-98.3" font-family="Times New Roman,serif" font-size="14.00">(0) Input</text>
</g>
<!-- node5 -->
<g id="node6" class="node"><title>node5</title>
<ellipse fill="none" stroke="black" cx="182.739" cy="-88" rx="36.2938" ry="18"/>
<text text-anchor="middle" x="182.739" y="-84.3" font-family="Times New Roman,serif" font-size="14.00">(5) OR</text>
</g>
<!-- node0&#45;&gt;node5 -->
<g id="edge1" class="edge"><title>node0&#45;&gt;node5</title>
<path fill="none" stroke="black" d="M83.295,-106.269C95.8877,-106.875 109.813,-106.783 122.493,-105 129.029,-104.081 135.856,-102.617 142.453,-100.926"/>
<polygon fill="black" stroke="black" points="143.855,-104.169 152.557,-98.1242 141.985,-97.4233 143.855,-104.169"/>
<text text-anchor="middle" x="112.493" y="-109.8" font-family="Times New Roman,serif" font-size="14.00"> (0)</text>
</g>
<!-- node7 -->
<g id="node8" class="node"><title>node7</title>
<ellipse fill="none" stroke="black" cx="182.739" cy="-20" rx="42.4939" ry="18"/>
<text text-anchor="middle" x="182.739" y="-16.3" font-family="Times New Roman,serif" font-size="14.00">(7) AND</text>
</g>
<!-- node0&#45;&gt;node7 -->
<g id="edge5" class="edge"><title>node0&#45;&gt;node7</title>
<path fill="none" stroke="black" d="M74.6417,-90.2951C89.5818,-84.189 107.429,-76.0965 122.493,-67 133.995,-60.0539 145.769,-51.1499 155.76,-42.9636"/>
<polygon fill="black" stroke="black" points="158.275,-45.4225 163.688,-36.3146 153.777,-40.0592 158.275,-45.4225"/>
<text text-anchor="middle" x="112.493" y="-80.8" font-family="Times New Roman,serif" font-size="14.00"> (0)</text>
</g>
<!-- node1 -->
<g id="node2" class="node"><title>node1</title>
<ellipse fill="none" stroke="black" cx="42.2463" cy="-252" rx="42.4939" ry="18"/>
<text text-anchor="middle" x="42.2463" y="-248.3" font-family="Times New Roman,serif" font-size="14.00">(1) Input</text>
</g>
<!-- node6 -->
<g id="node7" class="node"><title>node6</title>
<ellipse fill="none" stroke="black" cx="285.881" cy="-267" rx="42.7926" ry="18"/>
<text text-anchor="middle" x="285.881" y="-263.3" font-family="Times New Roman,serif" font-size="14.00">(6) XOR</text>
</g>
<!-- node1&#45;&gt;node6 -->
<g id="edge3" class="edge"><title>node1&#45;&gt;node6</title>
<path fill="none" stroke="black" d="M84.8035,-251.951C96.9571,-252.092 110.262,-252.396 122.493,-253 159.981,-254.85 202.218,-258.542 234.217,-261.669"/>
<polygon fill="black" stroke="black" points="233.932,-265.158 244.228,-262.662 234.622,-258.192 233.932,-265.158"/>
<text text-anchor="middle" x="112.493" y="-256.8" font-family="Times New Roman,serif" font-size="14.00"> (0)</text>
</g>
<!-- node2 -->
<g id="node3" class="node"><title>node2</title>
<ellipse fill="none" stroke="black" cx="42.2463" cy="-37" rx="42.4939" ry="18"/>
<text text-anchor="middle" x="42.2463" y="-33.3" font-family="Times New Roman,serif" font-size="14.00">(2) Input</text>
</g>
<!-- node2&#45;&gt;node5 -->
<g id="edge2" class="edge"><title>node2&#45;&gt;node5</title>
<path fill="none" stroke="black" d="M83.1174,-41.6793C95.9592,-43.9379 110.074,-47.2326 122.493,-52 132.966,-56.0207 143.667,-61.886 153.041,-67.7198"/>
<polygon fill="black" stroke="black" points="151.275,-70.7459 161.572,-73.242 155.079,-64.8696 151.275,-70.7459"/>
<text text-anchor="middle" x="112.493" y="-55.8" font-family="Times New Roman,serif" font-size="14.00"> (1)</text>
</g>
<!-- node2&#45;&gt;node7 -->
<g id="edge6" class="edge"><title>node2&#45;&gt;node7</title>
<path fill="none" stroke="black" d="M71.2463,-23.6841C80.919,-19.7496 91.9727,-15.9703 102.493,-14 112.46,-12.1331 123.237,-11.8328 133.536,-12.3534"/>
<polygon fill="black" stroke="black" points="133.392,-15.8524 143.628,-13.12 133.922,-8.87255 133.392,-15.8524"/>
<text text-anchor="middle" x="112.493" y="-17.8" font-family="Times New Roman,serif" font-size="14.00"> (1)</text>
</g>
<!-- node3 -->
<g id="node4" class="node"><title>node3</title>
<ellipse fill="none" stroke="black" cx="42.2463" cy="-328" rx="42.4939" ry="18"/>
<text text-anchor="middle" x="42.2463" y="-324.3" font-family="Times New Roman,serif" font-size="14.00">(3) Input</text>
</g>
<!-- node3&#45;&gt;node6 -->
<g id="edge4" class="edge"><title>node3&#45;&gt;node6</title>
<path fill="none" stroke="black" d="M68.5416,-313.665C78.8069,-308.372 90.9487,-302.754 102.493,-299 145.667,-284.958 196.712,-276.671 233.804,-272.062"/>
<polygon fill="black" stroke="black" points="234.364,-275.52 243.878,-270.858 233.533,-268.569 234.364,-275.52"/>
<text text-anchor="middle" x="112.493" y="-302.8" font-family="Times New Roman,serif" font-size="14.00"> (1)</text>
</g>
<!-- node13 -->
<g id="node14" class="node"><title>node13</title>
<ellipse fill="none" stroke="black" cx="686.907" cy="-236" rx="47.3916" ry="18"/>
<text text-anchor="middle" x="686.907" y="-232.3" font-family="Times New Roman,serif" font-size="14.00">(13) XOR</text>
</g>
<!-- node3&#45;&gt;node13 -->
<g id="edge17" class="edge"><title>node3&#45;&gt;node13</title>
<path fill="none" stroke="black" d="M84.7584,-328C112.269,-328 149.159,-328 181.739,-328 181.739,-328 181.739,-328 537.016,-328 588.398,-328 636.865,-287.858 663.848,-260.605"/>
<polygon fill="black" stroke="black" points="666.462,-262.937 670.874,-253.304 661.418,-258.083 666.462,-262.937"/>
<text text-anchor="middle" x="389.674" y="-331.8" font-family="Times New Roman,serif" font-size="14.00"> (0)</text>
</g>
<!-- node15 -->
<g id="node16" class="node"><title>node15</title>
<ellipse fill="none" stroke="black" cx="987.39" cy="-351" rx="47.3916" ry="18"/>
<text text-anchor="middle" x="987.39" y="-347.3" font-family="Times New Roman,serif" font-size="14.00">(15) XOR</text>
</g>
<!-- node3&#45;&gt;node15 -->
<g id="edge21" class="edge"><title>node3&#45;&gt;node15</title>
<path fill="none" stroke="black" d="M68.9499,-342.051C96.138,-355.579 140.695,-374 181.739,-374 181.739,-374 181.739,-374 838.149,-374 871.319,-374 908.175,-368.307 936.84,-362.586"/>
<polygon fill="black" stroke="black" points="937.922,-365.937 947.008,-360.488 936.507,-359.081 937.922,-365.937"/>
<text text-anchor="middle" x="536.016" y="-377.8" font-family="Times New Roman,serif" font-size="14.00"> (0)</text>
</g>
<!-- node4 -->
<g id="node5" class="node"><title>node4</title>
<ellipse fill="none" stroke="black" cx="42.2463" cy="-178" rx="42.4939" ry="18"/>
<text text-anchor="middle" x="42.2463" y="-174.3" font-family="Times New Roman,serif" font-size="14.00">(4) Input</text>
</g>
<!-- node8 -->
<g id="node9" class="node"><title>node8</title>
<ellipse fill="none" stroke="black" cx="389.674" cy="-52" rx="42.7926" ry="18"/>
<text text-anchor="middle" x="389.674" y="-48.3" font-family="Times New Roman,serif" font-size="14.00">(8) XOR</text>
</g>
<!-- node4&#45;&gt;node8 -->
<g id="edge7" class="edge"><title>node4&#45;&gt;node8</title>
<path fill="none" stroke="black" d="M79.5351,-169.38C97.7364,-165.353 120.178,-160.832 140.493,-158 182.047,-152.206 294.524,-168.23 328.777,-144 345.024,-132.507 336.364,-119.959 346.777,-103 352.354,-93.9189 359.408,-84.7051 366.13,-76.6536"/>
<polygon fill="black" stroke="black" points="368.812,-78.903 372.674,-69.0374 363.502,-74.3409 368.812,-78.903"/>
<text text-anchor="middle" x="182.739" y="-161.8" font-family="Times New Roman,serif" font-size="14.00"> (0)</text>
</g>
<!-- node9 -->
<g id="node10" class="node"><title>node9</title>
<ellipse fill="none" stroke="black" cx="389.674" cy="-168" rx="36.2938" ry="18"/>
<text text-anchor="middle" x="389.674" y="-164.3" font-family="Times New Roman,serif" font-size="14.00">(9) OR</text>
</g>
<!-- node4&#45;&gt;node9 -->
<g id="edge10" class="edge"><title>node4&#45;&gt;node9</title>
<path fill="none" stroke="black" d="M84.7581,-178.275C121.599,-178.398 176.885,-178.29 224.985,-177 271.152,-175.762 282.67,-174.65 328.777,-172 333.534,-171.727 338.502,-171.423 343.455,-171.109"/>
<polygon fill="black" stroke="black" points="343.772,-174.596 353.525,-170.457 343.319,-167.611 343.772,-174.596"/>
<text text-anchor="middle" x="182.739" y="-181.8" font-family="Times New Roman,serif" font-size="14.00"> (1)</text>
</g>
<!-- node5&#45;&gt;node8 -->
<g id="edge8" class="edge"><title>node5&#45;&gt;node8</title>
<path fill="none" stroke="black" d="M210.717,-76.2983C220.684,-72.4272 232.184,-68.4797 242.985,-66 273.644,-58.9612 308.72,-55.4561 336.772,-53.7131"/>
<polygon fill="black" stroke="black" points="336.981,-57.207 346.767,-53.1474 336.586,-50.2182 336.981,-57.207"/>
<text text-anchor="middle" x="285.881" y="-69.8" font-family="Times New Roman,serif" font-size="14.00"> (1)</text>
</g>
<!-- node10 -->
<g id="node11" class="node"><title>node10</title>
<ellipse fill="none" stroke="black" cx="536.016" cy="-168" rx="46.5926" ry="18"/>
<text text-anchor="middle" x="536.016" y="-164.3" font-family="Times New Roman,serif" font-size="14.00">(10) AND</text>
</g>
<!-- node5&#45;&gt;node10 -->
<g id="edge11" class="edge"><title>node5&#45;&gt;node10</title>
<path fill="none" stroke="black" d="M218.939,-90.607C267.681,-94.8382 358.141,-104.943 432.57,-126 454.406,-132.178 477.888,-141.589 496.856,-149.939"/>
<polygon fill="black" stroke="black" points="495.496,-153.165 506.053,-154.059 498.357,-146.776 495.496,-153.165"/>
<text text-anchor="middle" x="389.674" y="-129.8" font-family="Times New Roman,serif" font-size="14.00"> (0)</text>
</g>
<!-- node12 -->
<g id="node13" class="node"><title>node12</title>
<ellipse fill="none" stroke="black" cx="686.907" cy="-175" rx="47.3916" ry="18"/>
<text text-anchor="middle" x="686.907" y="-171.3" font-family="Times New Roman,serif" font-size="14.00">(12) XOR</text>
</g>
<!-- node6&#45;&gt;node12 -->
<g id="edge16" class="edge"><title>node6&#45;&gt;node12</title>
<path fill="none" stroke="black" d="M328.462,-263.972C405.886,-257.913 569.046,-243.051 621.461,-222 621.991,-221.787 639.107,-209.299 655.564,-197.251"/>
<polygon fill="black" stroke="black" points="658.02,-199.791 664.019,-191.058 653.884,-194.144 658.02,-199.791"/>
<text text-anchor="middle" x="460.57" y="-255.8" font-family="Times New Roman,serif" font-size="14.00"> (1)</text>
</g>
<!-- node14 -->
<g id="node15" class="node"><title>node14</title>
<ellipse fill="none" stroke="black" cx="837.149" cy="-282" rx="46.5926" ry="18"/>
<text text-anchor="middle" x="837.149" y="-278.3" font-family="Times New Roman,serif" font-size="14.00">(14) AND</text>
</g>
<!-- node6&#45;&gt;node14 -->
<g id="edge19" class="edge"><title>node6&#45;&gt;node14</title>
<path fill="none" stroke="black" d="M326.923,-272.458C361.869,-276.747 413.978,-282 459.57,-282 459.57,-282 459.57,-282 687.907,-282 718.259,-282 752.106,-282 779.787,-282"/>
<polygon fill="black" stroke="black" points="780.074,-285.5 790.074,-282 780.074,-278.5 780.074,-285.5"/>
<text text-anchor="middle" x="536.016" y="-285.8" font-family="Times New Roman,serif" font-size="14.00"> (0)</text>
</g>
<!-- node7&#45;&gt;node9 -->
<g id="edge9" class="edge"><title>node7&#45;&gt;node9</title>
<path fill="none" stroke="black" d="M201.163,-36.2252C208.74,-43.554 217.563,-52.4682 224.985,-61 233.736,-71.0596 232.984,-76.1825 242.985,-85 276.032,-114.135 320.923,-137.83 352.105,-152.335"/>
<polygon fill="black" stroke="black" points="350.763,-155.569 361.313,-156.537 353.669,-149.201 350.763,-155.569"/>
<text text-anchor="middle" x="285.881" y="-144.8" font-family="Times New Roman,serif" font-size="14.00"> (0)</text>
</g>
<!-- node11 -->
<g id="node12" class="node"><title>node11</title>
<ellipse fill="none" stroke="black" cx="536.016" cy="-18" rx="47.3916" ry="18"/>
<text text-anchor="middle" x="536.016" y="-14.3" font-family="Times New Roman,serif" font-size="14.00">(11) XOR</text>
</g>
<!-- node7&#45;&gt;node11 -->
<g id="edge14" class="edge"><title>node7&#45;&gt;node11</title>
<path fill="none" stroke="black" d="M224.251,-16.4032C273.496,-12.4861 359.127,-7.13677 432.57,-10 447.85,-10.5957 464.384,-11.6894 479.618,-12.8809"/>
<polygon fill="black" stroke="black" points="479.675,-16.3969 489.925,-13.7164 480.241,-9.41981 479.675,-16.3969"/>
<text text-anchor="middle" x="389.674" y="-13.8" font-family="Times New Roman,serif" font-size="14.00"> (1)</text>
</g>
<!-- node8&#45;&gt;node11 -->
<g id="edge13" class="edge"><title>node8&#45;&gt;node11</title>
<path fill="none" stroke="black" d="M427.471,-43.3324C445.029,-39.1964 466.299,-34.1863 485.273,-29.717"/>
<polygon fill="black" stroke="black" points="486.314,-33.0676 495.245,-27.368 484.709,-26.2541 486.314,-33.0676"/>
<text text-anchor="middle" x="460.57" y="-40.8" font-family="Times New Roman,serif" font-size="14.00"> (0)</text>
</g>
<!-- node9&#45;&gt;node10 -->
<g id="edge12" class="edge"><title>node9&#45;&gt;node10</title>
<path fill="none" stroke="black" d="M426.354,-168C442.195,-168 461.22,-168 478.893,-168"/>
<polygon fill="black" stroke="black" points="479.108,-171.5 489.108,-168 479.108,-164.5 479.108,-171.5"/>
<text text-anchor="middle" x="460.57" y="-171.8" font-family="Times New Roman,serif" font-size="14.00"> (1)</text>
</g>
<!-- node10&#45;&gt;node12 -->
<g id="edge15" class="edge"><title>node10&#45;&gt;node12</title>
<path fill="none" stroke="black" d="M583.056,-167.87C595.525,-168.019 609.016,-168.348 621.461,-169 624.505,-169.159 627.628,-169.352 630.778,-169.57"/>
<polygon fill="black" stroke="black" points="630.633,-173.069 640.87,-170.338 631.165,-166.089 630.633,-173.069"/>
<text text-anchor="middle" x="611.461" y="-172.8" font-family="Times New Roman,serif" font-size="14.00"> (0)</text>
</g>
<!-- node10&#45;&gt;node13 -->
<g id="edge18" class="edge"><title>node10&#45;&gt;node13</title>
<path fill="none" stroke="black" d="M566.788,-181.597C589.74,-192.079 621.68,-206.667 646.71,-218.098"/>
<polygon fill="black" stroke="black" points="645.381,-221.339 655.931,-222.31 648.289,-214.972 645.381,-221.339"/>
<text text-anchor="middle" x="611.461" y="-209.8" font-family="Times New Roman,serif" font-size="14.00"> (1)</text>
</g>
<!-- node16 -->
<g id="node17" class="node"><title>node16</title>
<ellipse fill="none" stroke="black" cx="1114.73" cy="-18" rx="42.7926" ry="18"/>
<text text-anchor="middle" x="1114.73" y="-14.3" font-family="Times New Roman,serif" font-size="14.00">Output 0</text>
</g>
<!-- node11&#45;&gt;node16 -->
<g id="edge23" class="edge"><title>node11&#45;&gt;node16</title>
<path fill="none" stroke="black" d="M583.624,-18C612.975,-18 651.657,-18 685.907,-18 685.907,-18 685.907,-18 988.39,-18 1012.45,-18 1039.11,-18 1061.63,-18"/>
<polygon fill="black" stroke="black" points="1061.67,-21.5001 1071.67,-18 1061.67,-14.5001 1061.67,-21.5001"/>
</g>
<!-- node17 -->
<g id="node18" class="node"><title>node17</title>
<ellipse fill="none" stroke="black" cx="1114.73" cy="-175" rx="42.7926" ry="18"/>
<text text-anchor="middle" x="1114.73" y="-171.3" font-family="Times New Roman,serif" font-size="14.00">Output 1</text>
</g>
<!-- node12&#45;&gt;node17 -->
<g id="edge24" class="edge"><title>node12&#45;&gt;node17</title>
<path fill="none" stroke="black" d="M734.696,-175C814.856,-175 977.882,-175 1061.58,-175"/>
<polygon fill="black" stroke="black" points="1061.63,-178.5 1071.63,-175 1061.63,-171.5 1061.63,-178.5"/>
</g>
<!-- node13&#45;&gt;node14 -->
<g id="edge20" class="edge"><title>node13&#45;&gt;node14</title>
<path fill="none" stroke="black" d="M731.355,-242.781C744.673,-245.382 759.261,-248.768 772.353,-253 781.279,-255.886 790.617,-259.664 799.307,-263.535"/>
<polygon fill="black" stroke="black" points="797.886,-266.734 808.433,-267.735 800.812,-260.375 797.886,-266.734"/>
<text text-anchor="middle" x="762.353" y="-256.8" font-family="Times New Roman,serif" font-size="14.00"> (1)</text>
</g>
<!-- node14&#45;&gt;node15 -->
<g id="edge22" class="edge"><title>node14&#45;&gt;node15</title>
<path fill="none" stroke="black" d="M867.791,-295.797C890.718,-306.468 922.653,-321.333 947.609,-332.949"/>
<polygon fill="black" stroke="black" points="946.256,-336.18 956.799,-337.227 949.21,-329.834 946.256,-336.18"/>
<text text-anchor="middle" x="911.945" y="-323.8" font-family="Times New Roman,serif" font-size="14.00"> (1)</text>
</g>
<!-- node18 -->
<g id="node19" class="node"><title>node18</title>
<ellipse fill="none" stroke="black" cx="1114.73" cy="-351" rx="42.7926" ry="18"/>
<text text-anchor="middle" x="1114.73" y="-347.3" font-family="Times New Roman,serif" font-size="14.00">Output 2</text>
</g>
<!-- node15&#45;&gt;node18 -->
<g id="edge25" class="edge"><title>node15&#45;&gt;node18</title>
<path fill="none" stroke="black" d="M1035.06,-351C1043.67,-351 1052.7,-351 1061.46,-351"/>
<polygon fill="black" stroke="black" points="1061.57,-354.5 1071.57,-351 1061.57,-347.5 1061.57,-354.5"/>
</g>
</g>
</svg>
