<?xml version="1.0" encoding="UTF-8" standalone="no"?>
<!DOCTYPE svg PUBLIC "-//W3C//DTD SVG 1.1//EN"
 "http://www.w3.org/Graphics/SVG/1.1/DTD/svg11.dtd">
<!-- Generated by graphviz version 2.38.0 (20140413.2041)
 -->
<!-- Title: NeuralNetwork Pages: 1 -->
<svg width="288pt" height="105pt"
 viewBox="0.00 0.00 288.00 104.77" xmlns="http://www.w3.org/2000/svg" xmlns:xlink="http://www.w3.org/1999/xlink">
<g id="graph0" class="graph" transform="scale(0.300205 0.300205) rotate(0) translate(4 345)">
<title>NeuralNetwork</title>
<polygon fill="white" stroke="none" points="-4,4 -4,-345 955.344,-345 955.344,4 -4,4"/>
<!-- node0 -->
<g id="node1" class="node"><title>node0</title>
<ellipse fill="none" stroke="black" cx="42.2463" cy="-194" rx="42.4939" ry="18"/>
<text text-anchor="middle" x="42.2463" y="-190.3" font-family="Times New Roman,serif" font-size="14.00">(0) Input</text>
</g>
<!-- node5 -->
<g id="node6" class="node"><title>node5</title>
<ellipse fill="none" stroke="black" cx="183.389" cy="-107" rx="42.7926" ry="18"/>
<text text-anchor="middle" x="183.389" y="-103.3" font-family="Times New Roman,serif" font-size="14.00">(5) XOR</text>
</g>
<!-- node0&#45;&gt;node5 -->
<g id="edge1" class="edge"><title>node0&#45;&gt;node5</title>
<path fill="none" stroke="black" d="M66.8499,-179.242C89.7379,-164.931 124.64,-143.108 150.095,-127.192"/>
<polygon fill="black" stroke="black" points="152.046,-130.1 158.669,-121.831 148.335,-124.165 152.046,-130.1"/>
<text text-anchor="middle" x="112.493" y="-158.8" font-family="Times New Roman,serif" font-size="14.00"> (0)</text>
</g>
<!-- node1 -->
<g id="node2" class="node"><title>node1</title>
<ellipse fill="none" stroke="black" cx="42.2463" cy="-317" rx="42.4939" ry="18"/>
<text text-anchor="middle" x="42.2463" y="-313.3" font-family="Times New Roman,serif" font-size="14.00">(1) Input</text>
</g>
<!-- node7 -->
<g id="node8" class="node"><title>node7</title>
<ellipse fill="none" stroke="black" cx="183.389" cy="-286" rx="36.2938" ry="18"/>
<text text-anchor="middle" x="183.389" y="-282.3" font-family="Times New Roman,serif" font-size="14.00">(7) OR</text>
</g>
<!-- node1&#45;&gt;node7 -->
<g id="edge6" class="edge"><title>node1&#45;&gt;node7</title>
<path fill="none" stroke="black" d="M79.294,-325.71C93.0334,-327.602 108.699,-328.007 122.493,-324 134.292,-320.573 145.992,-314.045 155.878,-307.354"/>
<polygon fill="black" stroke="black" points="157.957,-310.17 164.055,-301.506 153.885,-304.476 157.957,-310.17"/>
<text text-anchor="middle" x="112.493" y="-329.8" font-family="Times New Roman,serif" font-size="14.00"> (1)</text>
</g>
<!-- node8 -->
<g id="node9" class="node"><title>node8</title>
<ellipse fill="none" stroke="black" cx="183.389" cy="-232" rx="42.7926" ry="18"/>
<text text-anchor="middle" x="183.389" y="-228.3" font-family="Times New Roman,serif" font-size="14.00">(8) XOR</text>
</g>
<!-- node1&#45;&gt;node8 -->
<g id="edge7" class="edge"><title>node1&#45;&gt;node8</title>
<path fill="none" stroke="black" d="M79.2196,-308.063C93.7212,-303.217 109.95,-296.098 122.493,-286 133.726,-276.956 130.216,-269.118 140.493,-259 142.972,-256.558 145.707,-254.217 148.556,-252.006"/>
<polygon fill="black" stroke="black" points="150.664,-254.801 156.766,-246.14 146.595,-249.105 150.664,-254.801"/>
<text text-anchor="middle" x="112.493" y="-301.8" font-family="Times New Roman,serif" font-size="14.00"> (0)</text>
</g>
<!-- node2 -->
<g id="node3" class="node"><title>node2</title>
<ellipse fill="none" stroke="black" cx="42.2463" cy="-110" rx="42.4939" ry="18"/>
<text text-anchor="middle" x="42.2463" y="-106.3" font-family="Times New Roman,serif" font-size="14.00">(2) Input</text>
</g>
<!-- node2&#45;&gt;node5 -->
<g id="edge2" class="edge"><title>node2&#45;&gt;node5</title>
<path fill="none" stroke="black" d="M84.6168,-109.108C98.9362,-108.799 115.174,-108.449 130.246,-108.124"/>
<polygon fill="black" stroke="black" points="130.533,-111.619 140.456,-107.904 130.382,-104.621 130.533,-111.619"/>
<text text-anchor="middle" x="112.493" y="-112.8" font-family="Times New Roman,serif" font-size="14.00"> (1)</text>
</g>
<!-- node6 -->
<g id="node7" class="node"><title>node6</title>
<ellipse fill="none" stroke="black" cx="183.389" cy="-52" rx="42.7926" ry="18"/>
<text text-anchor="middle" x="183.389" y="-48.3" font-family="Times New Roman,serif" font-size="14.00">(6) XOR</text>
</g>
<!-- node2&#45;&gt;node6 -->
<g id="edge4" class="edge"><title>node2&#45;&gt;node6</title>
<path fill="none" stroke="black" d="M73.0958,-97.5575C93.4071,-89.091 120.511,-77.7929 142.646,-68.5662"/>
<polygon fill="black" stroke="black" points="144.225,-71.7002 152.108,-64.622 141.532,-65.239 144.225,-71.7002"/>
<text text-anchor="middle" x="112.493" y="-88.8" font-family="Times New Roman,serif" font-size="14.00"> (1)</text>
</g>
<!-- node10 -->
<g id="node11" class="node"><title>node10</title>
<ellipse fill="none" stroke="black" cx="329.731" cy="-179" rx="47.3916" ry="18"/>
<text text-anchor="middle" x="329.731" y="-175.3" font-family="Times New Roman,serif" font-size="14.00">(10) XOR</text>
</g>
<!-- node2&#45;&gt;node10 -->
<g id="edge12" class="edge"><title>node2&#45;&gt;node10</title>
<path fill="none" stroke="black" d="M76.6499,-120.616C85.0514,-123.157 94.0739,-125.775 102.493,-128 162.206,-143.779 231.589,-158.96 277.614,-168.594"/>
<polygon fill="black" stroke="black" points="277.137,-172.07 287.641,-170.682 278.565,-165.217 277.137,-172.07"/>
<text text-anchor="middle" x="183.389" y="-160.8" font-family="Times New Roman,serif" font-size="14.00"> (1)</text>
</g>
<!-- node3 -->
<g id="node4" class="node"><title>node3</title>
<ellipse fill="none" stroke="black" cx="42.2463" cy="-260" rx="42.4939" ry="18"/>
<text text-anchor="middle" x="42.2463" y="-256.3" font-family="Times New Roman,serif" font-size="14.00">(3) Input</text>
</g>
<!-- node3&#45;&gt;node7 -->
<g id="edge5" class="edge"><title>node3&#45;&gt;node7</title>
<path fill="none" stroke="black" d="M83.2928,-264.707C95.8855,-266.415 109.811,-268.539 122.493,-271 128.639,-272.193 135.098,-273.622 141.408,-275.118"/>
<polygon fill="black" stroke="black" points="140.589,-278.52 151.134,-277.498 142.253,-271.721 140.589,-278.52"/>
<text text-anchor="middle" x="112.493" y="-274.8" font-family="Times New Roman,serif" font-size="14.00"> (0)</text>
</g>
<!-- node3&#45;&gt;node8 -->
<g id="edge8" class="edge"><title>node3&#45;&gt;node8</title>
<path fill="none" stroke="black" d="M80.8538,-252.37C88.0371,-250.916 95.4966,-249.409 102.493,-248 112.792,-245.926 123.839,-243.708 134.334,-241.606"/>
<polygon fill="black" stroke="black" points="135.066,-245.029 144.184,-239.633 133.692,-238.165 135.066,-245.029"/>
<text text-anchor="middle" x="112.493" y="-251.8" font-family="Times New Roman,serif" font-size="14.00"> (1)</text>
</g>
<!-- node4 -->
<g id="node5" class="node"><title>node4</title>
<ellipse fill="none" stroke="black" cx="42.2463" cy="-18" rx="42.4939" ry="18"/>
<text text-anchor="middle" x="42.2463" y="-14.3" font-family="Times New Roman,serif" font-size="14.00">(4) Input</text>
</g>
<!-- node4&#45;&gt;node6 -->
<g id="edge3" class="edge"><title>node4&#45;&gt;node6</title>
<path fill="none" stroke="black" d="M80.8518,-25.5429C94.0605,-28.3309 108.975,-31.6355 122.493,-35 127.542,-36.2568 132.811,-37.6421 138.037,-39.0631"/>
<polygon fill="black" stroke="black" points="137.396,-42.5173 147.968,-41.8154 139.266,-35.7716 137.396,-42.5173"/>
<text text-anchor="middle" x="112.493" y="-38.8" font-family="Times New Roman,serif" font-size="14.00"> (0)</text>
</g>
<!-- node14 -->
<g id="node15" class="node"><title>node14</title>
<ellipse fill="none" stroke="black" cx="329.731" cy="-35" rx="47.3916" ry="18"/>
<text text-anchor="middle" x="329.731" y="-31.3" font-family="Times New Roman,serif" font-size="14.00">(14) XOR</text>
</g>
<!-- node4&#45;&gt;node14 -->
<g id="edge19" class="edge"><title>node4&#45;&gt;node14</title>
<path fill="none" stroke="black" d="M82.6629,-12.5797C119.827,-8.3424 177.02,-4.07577 226.285,-10 244.822,-12.2291 264.848,-16.6498 282.235,-21.1621"/>
<polygon fill="black" stroke="black" points="281.571,-24.6075 292.136,-23.8136 283.382,-17.8458 281.571,-24.6075"/>
<text text-anchor="middle" x="183.389" y="-13.8" font-family="Times New Roman,serif" font-size="14.00"> (0)</text>
</g>
<!-- node9 -->
<g id="node10" class="node"><title>node9</title>
<ellipse fill="none" stroke="black" cx="329.731" cy="-125" rx="42.4939" ry="18"/>
<text text-anchor="middle" x="329.731" y="-121.3" font-family="Times New Roman,serif" font-size="14.00">(9) AND</text>
</g>
<!-- node5&#45;&gt;node9 -->
<g id="edge10" class="edge"><title>node5&#45;&gt;node9</title>
<path fill="none" stroke="black" d="M224.596,-112.014C241.332,-114.101 260.941,-116.546 278.602,-118.749"/>
<polygon fill="black" stroke="black" points="278.383,-122.248 288.739,-120.013 279.249,-115.302 278.383,-122.248"/>
<text text-anchor="middle" x="254.285" y="-120.8" font-family="Times New Roman,serif" font-size="14.00"> (1)</text>
</g>
<!-- node5&#45;&gt;node14 -->
<g id="edge20" class="edge"><title>node5&#45;&gt;node14</title>
<path fill="none" stroke="black" d="M212.185,-93.5933C227.575,-86.1296 247.028,-76.6291 264.285,-68 273.213,-63.5355 282.804,-58.6652 291.787,-54.0706"/>
<polygon fill="black" stroke="black" points="293.573,-57.088 300.875,-49.4108 290.379,-50.859 293.573,-57.088"/>
<text text-anchor="middle" x="254.285" y="-81.8" font-family="Times New Roman,serif" font-size="14.00"> (1)</text>
</g>
<!-- node6&#45;&gt;node9 -->
<g id="edge9" class="edge"><title>node6&#45;&gt;node9</title>
<path fill="none" stroke="black" d="M221.587,-43.6666C235.544,-42.2906 251.186,-42.9331 264.285,-49 276.097,-54.471 296.294,-79.7761 310.935,-99.7038"/>
<polygon fill="black" stroke="black" points="308.128,-101.796 316.829,-107.842 313.798,-97.6895 308.128,-101.796"/>
<text text-anchor="middle" x="254.285" y="-52.8" font-family="Times New Roman,serif" font-size="14.00"> (0)</text>
</g>
<!-- node13 -->
<g id="node14" class="node"><title>node13</title>
<ellipse fill="none" stroke="black" cx="781.106" cy="-261" rx="47.3916" ry="18"/>
<text text-anchor="middle" x="781.106" y="-257.3" font-family="Times New Roman,serif" font-size="14.00">(13) XOR</text>
</g>
<!-- node7&#45;&gt;node13 -->
<g id="edge18" class="edge"><title>node7&#45;&gt;node13</title>
<path fill="none" stroke="black" d="M219.978,-285.232C249.192,-284.668 291.639,-284 328.731,-284 328.731,-284 328.731,-284 631.864,-284 665.034,-284 701.89,-278.307 730.555,-272.586"/>
<polygon fill="black" stroke="black" points="731.637,-275.937 740.724,-270.488 730.223,-269.081 731.637,-275.937"/>
<text text-anchor="middle" x="480.622" y="-287.8" font-family="Times New Roman,serif" font-size="14.00"> (1)</text>
</g>
<!-- node8&#45;&gt;node10 -->
<g id="edge11" class="edge"><title>node8&#45;&gt;node10</title>
<path fill="none" stroke="black" d="M212.119,-218.63C222.14,-214.031 233.614,-209.03 244.285,-205 256.057,-200.554 268.955,-196.288 281.05,-192.543"/>
<polygon fill="black" stroke="black" points="282.426,-195.783 290.977,-189.527 280.392,-189.085 282.426,-195.783"/>
<text text-anchor="middle" x="254.285" y="-208.8" font-family="Times New Roman,serif" font-size="14.00"> (0)</text>
</g>
<!-- node12 -->
<g id="node13" class="node"><title>node12</title>
<ellipse fill="none" stroke="black" cx="630.864" cy="-234" rx="46.5926" ry="18"/>
<text text-anchor="middle" x="630.864" y="-230.3" font-family="Times New Roman,serif" font-size="14.00">(12) AND</text>
</g>
<!-- node8&#45;&gt;node12 -->
<g id="edge16" class="edge"><title>node8&#45;&gt;node12</title>
<path fill="none" stroke="black" d="M226.298,-232.188C306.8,-232.55 483.093,-233.341 573.679,-233.748"/>
<polygon fill="black" stroke="black" points="573.745,-237.248 583.761,-233.793 573.777,-230.248 573.745,-237.248"/>
<text text-anchor="middle" x="405.176" y="-236.8" font-family="Times New Roman,serif" font-size="14.00"> (1)</text>
</g>
<!-- node11 -->
<g id="node12" class="node"><title>node11</title>
<ellipse fill="none" stroke="black" cx="480.622" cy="-172" rx="47.3916" ry="18"/>
<text text-anchor="middle" x="480.622" y="-168.3" font-family="Times New Roman,serif" font-size="14.00">(11) XOR</text>
</g>
<!-- node9&#45;&gt;node11 -->
<g id="edge13" class="edge"><title>node9&#45;&gt;node11</title>
<path fill="none" stroke="black" d="M364.145,-135.548C384.758,-142.055 411.475,-150.488 434.019,-157.605"/>
<polygon fill="black" stroke="black" points="433.129,-160.994 443.719,-160.667 435.237,-154.319 433.129,-160.994"/>
<text text-anchor="middle" x="405.176" y="-154.8" font-family="Times New Roman,serif" font-size="14.00"> (0)</text>
</g>
<!-- node10&#45;&gt;node11 -->
<g id="edge14" class="edge"><title>node10&#45;&gt;node11</title>
<path fill="none" stroke="black" d="M377.025,-176.824C391.59,-176.139 407.842,-175.375 423.039,-174.66"/>
<polygon fill="black" stroke="black" points="423.532,-178.141 433.357,-174.175 423.203,-171.149 423.532,-178.141"/>
<text text-anchor="middle" x="405.176" y="-178.8" font-family="Times New Roman,serif" font-size="14.00"> (1)</text>
</g>
<!-- node11&#45;&gt;node12 -->
<g id="edge15" class="edge"><title>node11&#45;&gt;node12</title>
<path fill="none" stroke="black" d="M515.079,-184.596C530.658,-190.583 549.393,-197.958 566.068,-205 574.293,-208.473 583.044,-212.338 591.345,-216.085"/>
<polygon fill="black" stroke="black" points="589.921,-219.282 600.472,-220.238 592.819,-212.911 589.921,-219.282"/>
<text text-anchor="middle" x="556.068" y="-208.8" font-family="Times New Roman,serif" font-size="14.00"> (0)</text>
</g>
<!-- node16 -->
<g id="node17" class="node"><title>node16</title>
<ellipse fill="none" stroke="black" cx="908.448" cy="-171" rx="42.7926" ry="18"/>
<text text-anchor="middle" x="908.448" y="-167.3" font-family="Times New Roman,serif" font-size="14.00">Output 1</text>
</g>
<!-- node11&#45;&gt;node16 -->
<g id="edge22" class="edge"><title>node11&#45;&gt;node16</title>
<path fill="none" stroke="black" d="M528.411,-171.89C608.571,-171.702 771.597,-171.319 855.296,-171.122"/>
<polygon fill="black" stroke="black" points="855.351,-174.622 865.343,-171.099 855.335,-167.622 855.351,-174.622"/>
</g>
<!-- node12&#45;&gt;node13 -->
<g id="edge17" class="edge"><title>node12&#45;&gt;node13</title>
<path fill="none" stroke="black" d="M673.552,-241.593C690.375,-244.657 709.975,-248.227 727.744,-251.463"/>
<polygon fill="black" stroke="black" points="727.494,-254.975 737.959,-253.324 728.748,-248.088 727.494,-254.975"/>
<text text-anchor="middle" x="705.66" y="-252.8" font-family="Times New Roman,serif" font-size="14.00"> (0)</text>
</g>
<!-- node17 -->
<g id="node18" class="node"><title>node17</title>
<ellipse fill="none" stroke="black" cx="908.448" cy="-261" rx="42.7926" ry="18"/>
<text text-anchor="middle" x="908.448" y="-257.3" font-family="Times New Roman,serif" font-size="14.00">Output 2</text>
</g>
<!-- node13&#45;&gt;node17 -->
<g id="edge23" class="edge"><title>node13&#45;&gt;node17</title>
<path fill="none" stroke="black" d="M828.778,-261C837.383,-261 846.419,-261 855.176,-261"/>
<polygon fill="black" stroke="black" points="855.285,-264.5 865.285,-261 855.285,-257.5 855.285,-264.5"/>
</g>
<!-- node15 -->
<g id="node16" class="node"><title>node15</title>
<ellipse fill="none" stroke="black" cx="908.448" cy="-35" rx="42.7926" ry="18"/>
<text text-anchor="middle" x="908.448" y="-31.3" font-family="Times New Roman,serif" font-size="14.00">Output 0</text>
</g>
<!-- node14&#45;&gt;node15 -->
<g id="edge21" class="edge"><title>node14&#45;&gt;node15</title>
<path fill="none" stroke="black" d="M377.339,-35C406.69,-35 445.372,-35 479.622,-35 479.622,-35 479.622,-35 782.106,-35 806.166,-35 832.824,-35 855.347,-35"/>
<polygon fill="black" stroke="black" points="855.381,-38.5001 865.381,-35 855.381,-31.5001 855.381,-38.5001"/>
</g>
</g>
</svg>
