<?xml version="1.0" encoding="UTF-8" standalone="no"?>
<!DOCTYPE svg PUBLIC "-//W3C//DTD SVG 1.1//EN"
 "http://www.w3.org/Graphics/SVG/1.1/DTD/svg11.dtd">
<!-- Generated by graphviz version 2.38.0 (20140413.2041)
 -->
<!-- Title: NeuralNetwork Pages: 1 -->
<svg width="288pt" height="101pt"
 viewBox="0.00 0.00 288.00 101.43" xmlns="http://www.w3.org/2000/svg" xmlns:xlink="http://www.w3.org/1999/xlink">
<g id="graph0" class="graph" transform="scale(0.259404 0.259404) rotate(0) translate(4 387)">
<title>NeuralNetwork</title>
<polygon fill="white" stroke="none" points="-4,4 -4,-387 1106.24,-387 1106.24,4 -4,4"/>
<!-- node0 -->
<g id="node1" class="node"><title>node0</title>
<ellipse fill="none" stroke="black" cx="42.2463" cy="-18" rx="42.4939" ry="18"/>
<text text-anchor="middle" x="42.2463" y="-14.3" font-family="Times New Roman,serif" font-size="14.00">(0) Input</text>
</g>
<!-- node6 -->
<g id="node7" class="node"><title>node6</title>
<ellipse fill="none" stroke="black" cx="329.731" cy="-23" rx="42.7926" ry="18"/>
<text text-anchor="middle" x="329.731" y="-19.3" font-family="Times New Roman,serif" font-size="14.00">(6) XOR</text>
</g>
<!-- node0&#45;&gt;node6 -->
<g id="edge3" class="edge"><title>node0&#45;&gt;node6</title>
<path fill="none" stroke="black" d="M84.7581,-18.727C135.462,-19.6151 221.274,-21.118 276.437,-22.0841"/>
<polygon fill="black" stroke="black" points="276.644,-25.5882 286.704,-22.2639 276.766,-18.5893 276.644,-25.5882"/>
<text text-anchor="middle" x="183.389" y="-24.8" font-family="Times New Roman,serif" font-size="14.00"> (0)</text>
</g>
<!-- node1 -->
<g id="node2" class="node"><title>node1</title>
<ellipse fill="none" stroke="black" cx="42.2463" cy="-281" rx="42.4939" ry="18"/>
<text text-anchor="middle" x="42.2463" y="-277.3" font-family="Times New Roman,serif" font-size="14.00">(1) Input</text>
</g>
<!-- node9 -->
<g id="node10" class="node"><title>node9</title>
<ellipse fill="none" stroke="black" cx="183.389" cy="-322" rx="42.4939" ry="18"/>
<text text-anchor="middle" x="183.389" y="-318.3" font-family="Times New Roman,serif" font-size="14.00">(9) NEG</text>
</g>
<!-- node1&#45;&gt;node9 -->
<g id="edge9" class="edge"><title>node1&#45;&gt;node9</title>
<path fill="none" stroke="black" d="M77.641,-291.135C95.9539,-296.531 118.679,-303.227 138.278,-309.002"/>
<polygon fill="black" stroke="black" points="137.326,-312.37 147.907,-311.84 139.304,-305.656 137.326,-312.37"/>
<text text-anchor="middle" x="112.493" y="-306.8" font-family="Times New Roman,serif" font-size="14.00"> (0)</text>
</g>
<!-- node15 -->
<g id="node16" class="node"><title>node15</title>
<ellipse fill="none" stroke="black" cx="781.106" cy="-238" rx="47.3916" ry="18"/>
<text text-anchor="middle" x="781.106" y="-234.3" font-family="Times New Roman,serif" font-size="14.00">(15) XOR</text>
</g>
<!-- node1&#45;&gt;node15 -->
<g id="edge20" class="edge"><title>node1&#45;&gt;node15</title>
<path fill="none" stroke="black" d="M84.3289,-278.749C112.026,-277.422 149.394,-276 182.389,-276 182.389,-276 182.389,-276 631.214,-276 669.258,-276 678.899,-271.795 715.66,-262 723.285,-259.968 731.268,-257.386 738.917,-254.673"/>
<polygon fill="black" stroke="black" points="740.195,-257.932 748.374,-251.198 737.78,-251.362 740.195,-257.932"/>
<text text-anchor="middle" x="405.176" y="-279.8" font-family="Times New Roman,serif" font-size="14.00"> (0)</text>
</g>
<!-- node2 -->
<g id="node3" class="node"><title>node2</title>
<ellipse fill="none" stroke="black" cx="42.2463" cy="-76" rx="42.4939" ry="18"/>
<text text-anchor="middle" x="42.2463" y="-72.3" font-family="Times New Roman,serif" font-size="14.00">(2) Input</text>
</g>
<!-- node5 -->
<g id="node6" class="node"><title>node5</title>
<ellipse fill="none" stroke="black" cx="183.389" cy="-81" rx="42.7926" ry="18"/>
<text text-anchor="middle" x="183.389" y="-77.3" font-family="Times New Roman,serif" font-size="14.00">(5) XOR</text>
</g>
<!-- node2&#45;&gt;node5 -->
<g id="edge1" class="edge"><title>node2&#45;&gt;node5</title>
<path fill="none" stroke="black" d="M84.7968,-76.1017C96.9503,-76.2458 110.257,-76.5146 122.493,-77 125.182,-77.1067 127.939,-77.2326 130.721,-77.3727"/>
<polygon fill="black" stroke="black" points="130.66,-80.8746 140.839,-77.9335 131.048,-73.8853 130.66,-80.8746"/>
<text text-anchor="middle" x="112.493" y="-80.8" font-family="Times New Roman,serif" font-size="14.00"> (0)</text>
</g>
<!-- node3 -->
<g id="node4" class="node"><title>node3</title>
<ellipse fill="none" stroke="black" cx="42.2463" cy="-209" rx="42.4939" ry="18"/>
<text text-anchor="middle" x="42.2463" y="-205.3" font-family="Times New Roman,serif" font-size="14.00">(3) Input</text>
</g>
<!-- node8 -->
<g id="node9" class="node"><title>node8</title>
<ellipse fill="none" stroke="black" cx="479.972" cy="-187" rx="42.7926" ry="18"/>
<text text-anchor="middle" x="479.972" y="-183.3" font-family="Times New Roman,serif" font-size="14.00">(8) XOR</text>
</g>
<!-- node3&#45;&gt;node8 -->
<g id="edge7" class="edge"><title>node3&#45;&gt;node8</title>
<path fill="none" stroke="black" d="M84.2383,-206.93C163.837,-202.911 339.183,-194.058 426.884,-189.63"/>
<polygon fill="black" stroke="black" points="427.322,-193.112 437.133,-189.112 426.969,-186.121 427.322,-193.112"/>
<text text-anchor="middle" x="254.285" y="-201.8" font-family="Times New Roman,serif" font-size="14.00"> (0)</text>
</g>
<!-- node12 -->
<g id="node13" class="node"><title>node12</title>
<ellipse fill="none" stroke="black" cx="329.731" cy="-322" rx="47.3916" ry="18"/>
<text text-anchor="middle" x="329.731" y="-318.3" font-family="Times New Roman,serif" font-size="14.00">(12) XOR</text>
</g>
<!-- node3&#45;&gt;node12 -->
<g id="edge15" class="edge"><title>node3&#45;&gt;node12</title>
<path fill="none" stroke="black" d="M74.4081,-220.88C110.891,-234.837 173.098,-258.784 226.285,-280 246.506,-288.066 268.887,-297.216 287.558,-304.911"/>
<polygon fill="black" stroke="black" points="286.374,-308.209 296.953,-308.79 289.045,-301.739 286.374,-308.209"/>
<text text-anchor="middle" x="183.389" y="-283.8" font-family="Times New Roman,serif" font-size="14.00"> (1)</text>
</g>
<!-- node4 -->
<g id="node5" class="node"><title>node4</title>
<ellipse fill="none" stroke="black" cx="42.2463" cy="-137" rx="42.4939" ry="18"/>
<text text-anchor="middle" x="42.2463" y="-133.3" font-family="Times New Roman,serif" font-size="14.00">(4) Input</text>
</g>
<!-- node4&#45;&gt;node5 -->
<g id="edge2" class="edge"><title>node4&#45;&gt;node5</title>
<path fill="none" stroke="black" d="M73.4381,-124.849C93.6292,-116.723 120.419,-105.941 142.38,-97.1022"/>
<polygon fill="black" stroke="black" points="143.805,-100.301 151.775,-93.3208 141.192,-93.8076 143.805,-100.301"/>
<text text-anchor="middle" x="112.493" y="-115.8" font-family="Times New Roman,serif" font-size="14.00"> (1)</text>
</g>
<!-- node7 -->
<g id="node8" class="node"><title>node7</title>
<ellipse fill="none" stroke="black" cx="329.731" cy="-141" rx="36.2938" ry="18"/>
<text text-anchor="middle" x="329.731" y="-137.3" font-family="Times New Roman,serif" font-size="14.00">(7) OR</text>
</g>
<!-- node4&#45;&gt;node7 -->
<g id="edge6" class="edge"><title>node4&#45;&gt;node7</title>
<path fill="none" stroke="black" d="M84.7581,-137.582C137.496,-138.321 228.215,-139.592 282.924,-140.358"/>
<polygon fill="black" stroke="black" points="282.985,-143.859 293.033,-140.5 283.083,-136.86 282.985,-143.859"/>
<text text-anchor="middle" x="183.389" y="-142.8" font-family="Times New Roman,serif" font-size="14.00"> (1)</text>
</g>
<!-- node5&#45;&gt;node6 -->
<g id="edge4" class="edge"><title>node5&#45;&gt;node6</title>
<path fill="none" stroke="black" d="M211.209,-67.1641C221.437,-62.1136 233.282,-56.5336 244.285,-52 257.305,-46.6352 271.718,-41.4261 284.896,-36.9377"/>
<polygon fill="black" stroke="black" points="286.32,-40.1519 294.689,-33.6553 284.095,-33.5148 286.32,-40.1519"/>
<text text-anchor="middle" x="254.285" y="-55.8" font-family="Times New Roman,serif" font-size="14.00"> (1)</text>
</g>
<!-- node5&#45;&gt;node7 -->
<g id="edge5" class="edge"><title>node5&#45;&gt;node7</title>
<path fill="none" stroke="black" d="M214.648,-93.578C237.171,-102.941 268.029,-115.768 291.973,-125.721"/>
<polygon fill="black" stroke="black" points="290.859,-129.048 301.437,-129.654 293.546,-122.584 290.859,-129.048"/>
<text text-anchor="middle" x="254.285" y="-117.8" font-family="Times New Roman,serif" font-size="14.00"> (0)</text>
</g>
<!-- node10 -->
<g id="node11" class="node"><title>node10</title>
<ellipse fill="none" stroke="black" cx="479.972" cy="-81" rx="46.5926" ry="18"/>
<text text-anchor="middle" x="479.972" y="-77.3" font-family="Times New Roman,serif" font-size="14.00">(10) AND</text>
</g>
<!-- node5&#45;&gt;node10 -->
<g id="edge11" class="edge"><title>node5&#45;&gt;node10</title>
<path fill="none" stroke="black" d="M226.595,-81C278.116,-81 365.43,-81 422.646,-81"/>
<polygon fill="black" stroke="black" points="422.964,-84.5001 432.964,-81 422.964,-77.5001 422.964,-84.5001"/>
<text text-anchor="middle" x="329.731" y="-84.8" font-family="Times New Roman,serif" font-size="14.00"> (1)</text>
</g>
<!-- node6&#45;&gt;node10 -->
<g id="edge10" class="edge"><title>node6&#45;&gt;node10</title>
<path fill="none" stroke="black" d="M364.29,-33.703C379.89,-38.8874 398.613,-45.409 415.176,-52 423.554,-55.3337 432.427,-59.1675 440.808,-62.9326"/>
<polygon fill="black" stroke="black" points="439.456,-66.1628 450.007,-67.124 442.358,-59.7928 439.456,-66.1628"/>
<text text-anchor="middle" x="405.176" y="-55.8" font-family="Times New Roman,serif" font-size="14.00"> (0)</text>
</g>
<!-- node16 -->
<g id="node17" class="node"><title>node16</title>
<ellipse fill="none" stroke="black" cx="1059.34" cy="-18" rx="42.7926" ry="18"/>
<text text-anchor="middle" x="1059.34" y="-14.3" font-family="Times New Roman,serif" font-size="14.00">Output 0</text>
</g>
<!-- node6&#45;&gt;node16 -->
<g id="edge22" class="edge"><title>node6&#45;&gt;node16</title>
<path fill="none" stroke="black" d="M372.571,-20.836C402.258,-19.4847 443.05,-18 478.972,-18 478.972,-18 478.972,-18 932.997,-18 957.057,-18 983.715,-18 1006.24,-18"/>
<polygon fill="black" stroke="black" points="1006.27,-21.5001 1016.27,-18 1006.27,-14.5001 1006.27,-21.5001"/>
</g>
<!-- node7&#45;&gt;node8 -->
<g id="edge8" class="edge"><title>node7&#45;&gt;node8</title>
<path fill="none" stroke="black" d="M364.88,-146.049C380.434,-148.811 398.954,-152.756 415.176,-158 424.358,-160.968 433.974,-164.881 442.874,-168.867"/>
<polygon fill="black" stroke="black" points="441.65,-172.158 452.195,-173.182 444.59,-165.805 441.65,-172.158"/>
<text text-anchor="middle" x="405.176" y="-161.8" font-family="Times New Roman,serif" font-size="14.00"> (1)</text>
</g>
<!-- node11 -->
<g id="node12" class="node"><title>node11</title>
<ellipse fill="none" stroke="black" cx="630.214" cy="-190" rx="47.3916" ry="18"/>
<text text-anchor="middle" x="630.214" y="-186.3" font-family="Times New Roman,serif" font-size="14.00">(11) XOR</text>
</g>
<!-- node8&#45;&gt;node11 -->
<g id="edge12" class="edge"><title>node8&#45;&gt;node11</title>
<path fill="none" stroke="black" d="M523.056,-187.852C538.438,-188.163 556.1,-188.52 572.547,-188.853"/>
<polygon fill="black" stroke="black" points="572.53,-192.353 582.599,-189.057 572.672,-185.355 572.53,-192.353"/>
<text text-anchor="middle" x="554.768" y="-191.8" font-family="Times New Roman,serif" font-size="14.00"> (0)</text>
</g>
<!-- node9&#45;&gt;node12 -->
<g id="edge14" class="edge"><title>node9&#45;&gt;node12</title>
<path fill="none" stroke="black" d="M225.751,-322C240.033,-322 256.296,-322 271.613,-322"/>
<polygon fill="black" stroke="black" points="272.03,-325.5 282.03,-322 272.03,-318.5 272.03,-325.5"/>
<text text-anchor="middle" x="254.285" y="-325.8" font-family="Times New Roman,serif" font-size="14.00"> (0)</text>
</g>
<!-- node14 -->
<g id="node15" class="node"><title>node14</title>
<ellipse fill="none" stroke="black" cx="931.997" cy="-345" rx="47.3916" ry="18"/>
<text text-anchor="middle" x="931.997" y="-341.3" font-family="Times New Roman,serif" font-size="14.00">(14) XOR</text>
</g>
<!-- node9&#45;&gt;node14 -->
<g id="edge19" class="edge"><title>node9&#45;&gt;node14</title>
<path fill="none" stroke="black" d="M210.723,-335.802C239.065,-349.351 285.86,-368 328.731,-368 328.731,-368 328.731,-368 782.106,-368 815.564,-368 852.76,-362.257 881.605,-356.511"/>
<polygon fill="black" stroke="black" points="882.351,-359.931 891.44,-354.488 880.94,-353.075 882.351,-359.931"/>
<text text-anchor="middle" x="554.768" y="-371.8" font-family="Times New Roman,serif" font-size="14.00"> (1)</text>
</g>
<!-- node10&#45;&gt;node11 -->
<g id="edge13" class="edge"><title>node10&#45;&gt;node11</title>
<path fill="none" stroke="black" d="M502.528,-96.8495C527.999,-115.578 570.531,-146.852 599.211,-167.939"/>
<polygon fill="black" stroke="black" points="597.502,-171.027 607.632,-174.131 601.649,-165.388 597.502,-171.027"/>
<text text-anchor="middle" x="554.768" y="-145.8" font-family="Times New Roman,serif" font-size="14.00"> (1)</text>
</g>
<!-- node13 -->
<g id="node14" class="node"><title>node13</title>
<ellipse fill="none" stroke="black" cx="781.106" cy="-322" rx="40.8928" ry="18"/>
<text text-anchor="middle" x="781.106" y="-318.3" font-family="Times New Roman,serif" font-size="14.00">(13) OR</text>
</g>
<!-- node11&#45;&gt;node13 -->
<g id="edge16" class="edge"><title>node11&#45;&gt;node13</title>
<path fill="none" stroke="black" d="M649.77,-206.451C676.104,-229.798 724.426,-272.638 754.258,-299.085"/>
<polygon fill="black" stroke="black" points="751.979,-301.741 761.783,-305.756 756.622,-296.503 751.979,-301.741"/>
<text text-anchor="middle" x="705.66" y="-266.8" font-family="Times New Roman,serif" font-size="14.00"> (0)</text>
</g>
<!-- node11&#45;&gt;node15 -->
<g id="edge21" class="edge"><title>node11&#45;&gt;node15</title>
<path fill="none" stroke="black" d="M676.135,-194.711C689.1,-196.8 703.125,-199.778 715.66,-204 726.107,-207.519 736.91,-212.582 746.616,-217.731"/>
<polygon fill="black" stroke="black" points="745.09,-220.886 755.538,-222.645 748.467,-214.754 745.09,-220.886"/>
<text text-anchor="middle" x="705.66" y="-207.8" font-family="Times New Roman,serif" font-size="14.00"> (1)</text>
</g>
<!-- node12&#45;&gt;node13 -->
<g id="edge17" class="edge"><title>node12&#45;&gt;node13</title>
<path fill="none" stroke="black" d="M377.55,-322C462.66,-322 642.022,-322 729.703,-322"/>
<polygon fill="black" stroke="black" points="729.929,-325.5 739.929,-322 729.928,-318.5 729.929,-325.5"/>
<text text-anchor="middle" x="554.768" y="-325.8" font-family="Times New Roman,serif" font-size="14.00"> (1)</text>
</g>
<!-- node13&#45;&gt;node14 -->
<g id="edge18" class="edge"><title>node13&#45;&gt;node14</title>
<path fill="none" stroke="black" d="M820.062,-327.863C837.59,-330.571 858.703,-333.832 877.785,-336.78"/>
<polygon fill="black" stroke="black" points="877.427,-340.266 887.844,-338.334 878.496,-333.348 877.427,-340.266"/>
<text text-anchor="middle" x="856.551" y="-337.8" font-family="Times New Roman,serif" font-size="14.00"> (0)</text>
</g>
<!-- node18 -->
<g id="node19" class="node"><title>node18</title>
<ellipse fill="none" stroke="black" cx="1059.34" cy="-345" rx="42.7926" ry="18"/>
<text text-anchor="middle" x="1059.34" y="-341.3" font-family="Times New Roman,serif" font-size="14.00">Output 2</text>
</g>
<!-- node14&#45;&gt;node18 -->
<g id="edge24" class="edge"><title>node14&#45;&gt;node18</title>
<path fill="none" stroke="black" d="M979.67,-345C988.274,-345 997.31,-345 1006.07,-345"/>
<polygon fill="black" stroke="black" points="1006.18,-348.5 1016.18,-345 1006.18,-341.5 1006.18,-348.5"/>
</g>
<!-- node17 -->
<g id="node18" class="node"><title>node17</title>
<ellipse fill="none" stroke="black" cx="1059.34" cy="-238" rx="42.7926" ry="18"/>
<text text-anchor="middle" x="1059.34" y="-234.3" font-family="Times New Roman,serif" font-size="14.00">Output 1</text>
</g>
<!-- node15&#45;&gt;node17 -->
<g id="edge23" class="edge"><title>node15&#45;&gt;node17</title>
<path fill="none" stroke="black" d="M828.652,-238C877.705,-238 954.803,-238 1005.95,-238"/>
<polygon fill="black" stroke="black" points="1006.14,-241.5 1016.14,-238 1006.14,-234.5 1006.14,-241.5"/>
</g>
</g>
</svg>
