<?xml version="1.0" encoding="UTF-8" standalone="no"?>
<!DOCTYPE svg PUBLIC "-//W3C//DTD SVG 1.1//EN"
 "http://www.w3.org/Graphics/SVG/1.1/DTD/svg11.dtd">
<!-- Generated by graphviz version 2.38.0 (20140413.2041)
 -->
<!-- Title: NeuralNetwork Pages: 1 -->
<svg width="288pt" height="132pt"
 viewBox="0.00 0.00 288.00 132.35" xmlns="http://www.w3.org/2000/svg" xmlns:xlink="http://www.w3.org/1999/xlink">
<g id="graph0" class="graph" transform="scale(0.260013 0.260013) rotate(0) translate(4 505)">
<title>NeuralNetwork</title>
<polygon fill="white" stroke="none" points="-4,4 -4,-505 1103.64,-505 1103.64,4 -4,4"/>
<!-- node0 -->
<g id="node1" class="node"><title>node0</title>
<ellipse fill="none" stroke="black" cx="42.2463" cy="-211" rx="42.4939" ry="18"/>
<text text-anchor="middle" x="42.2463" y="-207.3" font-family="Times New Roman,serif" font-size="14.00">(0) Input</text>
</g>
<!-- node5 -->
<g id="node6" class="node"><title>node5</title>
<ellipse fill="none" stroke="black" cx="187.938" cy="-266" rx="36.2938" ry="18"/>
<text text-anchor="middle" x="187.938" y="-262.3" font-family="Times New Roman,serif" font-size="14.00">(5) OR</text>
</g>
<!-- node0&#45;&gt;node5 -->
<g id="edge1" class="edge"><title>node0&#45;&gt;node5</title>
<path fill="none" stroke="black" d="M56.1914,-228.215C66.977,-241.033 83.5889,-257.549 102.493,-265 114.87,-269.879 129.083,-271.425 142.275,-271.387"/>
<polygon fill="black" stroke="black" points="142.7,-274.875 152.581,-271.051 142.472,-267.879 142.7,-274.875"/>
<text text-anchor="middle" x="112.493" y="-273.8" font-family="Times New Roman,serif" font-size="14.00"> (0)</text>
</g>
<!-- node6 -->
<g id="node7" class="node"><title>node6</title>
<ellipse fill="none" stroke="black" cx="187.938" cy="-190" rx="42.4939" ry="18"/>
<text text-anchor="middle" x="187.938" y="-186.3" font-family="Times New Roman,serif" font-size="14.00">(6) AND</text>
</g>
<!-- node0&#45;&gt;node6 -->
<g id="edge3" class="edge"><title>node0&#45;&gt;node6</title>
<path fill="none" stroke="black" d="M82.5107,-205.262C99.5387,-202.773 119.664,-199.832 137.681,-197.199"/>
<polygon fill="black" stroke="black" points="138.333,-200.641 147.721,-195.731 137.32,-193.714 138.333,-200.641"/>
<text text-anchor="middle" x="112.493" y="-204.8" font-family="Times New Roman,serif" font-size="14.00"> (0)</text>
</g>
<!-- node10 -->
<g id="node11" class="node"><title>node10</title>
<ellipse fill="none" stroke="black" cx="187.938" cy="-115" rx="47.3916" ry="18"/>
<text text-anchor="middle" x="187.938" y="-111.3" font-family="Times New Roman,serif" font-size="14.00">(10) XOR</text>
</g>
<!-- node0&#45;&gt;node10 -->
<g id="edge12" class="edge"><title>node0&#45;&gt;node10</title>
<path fill="none" stroke="black" d="M65.6981,-196C89.7719,-179.916 128.186,-154.252 155.313,-136.128"/>
<polygon fill="black" stroke="black" points="157.321,-138.996 163.692,-130.531 153.433,-133.176 157.321,-138.996"/>
<text text-anchor="middle" x="112.493" y="-171.8" font-family="Times New Roman,serif" font-size="14.00"> (1)</text>
</g>
<!-- node1 -->
<g id="node2" class="node"><title>node1</title>
<ellipse fill="none" stroke="black" cx="42.2463" cy="-348" rx="42.4939" ry="18"/>
<text text-anchor="middle" x="42.2463" y="-344.3" font-family="Times New Roman,serif" font-size="14.00">(1) Input</text>
</g>
<!-- node9 -->
<g id="node10" class="node"><title>node9</title>
<ellipse fill="none" stroke="black" cx="629.564" cy="-374" rx="42.7926" ry="18"/>
<text text-anchor="middle" x="629.564" y="-370.3" font-family="Times New Roman,serif" font-size="14.00">(9) XOR</text>
</g>
<!-- node1&#45;&gt;node9 -->
<g id="edge10" class="edge"><title>node1&#45;&gt;node9</title>
<path fill="none" stroke="black" d="M75.3211,-359.372C104.147,-368.57 147.835,-380 186.938,-380 186.938,-380 186.938,-380 485.522,-380 515.827,-380 549.711,-378.639 576.892,-377.213"/>
<polygon fill="black" stroke="black" points="577.164,-380.704 586.959,-376.667 576.784,-373.714 577.164,-380.704"/>
<text text-anchor="middle" x="338.83" y="-383.8" font-family="Times New Roman,serif" font-size="14.00"> (1)</text>
</g>
<!-- node11 -->
<g id="node12" class="node"><title>node11</title>
<ellipse fill="none" stroke="black" cx="629.564" cy="-317" rx="46.5926" ry="18"/>
<text text-anchor="middle" x="629.564" y="-313.3" font-family="Times New Roman,serif" font-size="14.00">(11) AND</text>
</g>
<!-- node1&#45;&gt;node11 -->
<g id="edge13" class="edge"><title>node1&#45;&gt;node11</title>
<path fill="none" stroke="black" d="M75.632,-336.896C104.478,-328.001 148.02,-317 186.938,-317 186.938,-317 186.938,-317 485.522,-317 514.132,-317 545.961,-317 572.318,-317"/>
<polygon fill="black" stroke="black" points="572.504,-320.5 582.504,-317 572.504,-313.5 572.504,-320.5"/>
<text text-anchor="middle" x="338.83" y="-320.8" font-family="Times New Roman,serif" font-size="14.00"> (0)</text>
</g>
<!-- node2 -->
<g id="node3" class="node"><title>node2</title>
<ellipse fill="none" stroke="black" cx="42.2463" cy="-135" rx="42.4939" ry="18"/>
<text text-anchor="middle" x="42.2463" y="-131.3" font-family="Times New Roman,serif" font-size="14.00">(2) Input</text>
</g>
<!-- node2&#45;&gt;node5 -->
<g id="edge2" class="edge"><title>node2&#45;&gt;node5</title>
<path fill="none" stroke="black" d="M59.192,-151.905C67.3222,-161.005 77.0391,-172.665 84.4925,-184 94.3208,-198.947 90.0676,-207.131 102.493,-220 115.264,-233.228 132.677,-243.589 148.374,-251.101"/>
<polygon fill="black" stroke="black" points="147.316,-254.464 157.869,-255.41 150.209,-248.09 147.316,-254.464"/>
<text text-anchor="middle" x="112.493" y="-238.8" font-family="Times New Roman,serif" font-size="14.00"> (1)</text>
</g>
<!-- node2&#45;&gt;node6 -->
<g id="edge4" class="edge"><title>node2&#45;&gt;node6</title>
<path fill="none" stroke="black" d="M83.3103,-130.298C96.1637,-130.147 110.236,-131.456 122.493,-136 138.997,-142.119 154.252,-154.455 165.773,-165.793"/>
<polygon fill="black" stroke="black" points="163.307,-168.278 172.78,-173.024 168.334,-163.407 163.307,-168.278"/>
<text text-anchor="middle" x="112.493" y="-139.8" font-family="Times New Roman,serif" font-size="14.00"> (1)</text>
</g>
<!-- node2&#45;&gt;node10 -->
<g id="edge11" class="edge"><title>node2&#45;&gt;node10</title>
<path fill="none" stroke="black" d="M62.4634,-119.131C73.4537,-111.096 87.9206,-102.176 102.493,-98 116.49,-93.9882 132.056,-95.4873 145.972,-98.8856"/>
<polygon fill="black" stroke="black" points="145.193,-102.302 155.767,-101.644 147.091,-95.5644 145.193,-102.302"/>
<text text-anchor="middle" x="112.493" y="-101.8" font-family="Times New Roman,serif" font-size="14.00"> (0)</text>
</g>
<!-- node3 -->
<g id="node4" class="node"><title>node3</title>
<ellipse fill="none" stroke="black" cx="42.2463" cy="-454" rx="42.4939" ry="18"/>
<text text-anchor="middle" x="42.2463" y="-450.3" font-family="Times New Roman,serif" font-size="14.00">(3) Input</text>
</g>
<!-- node13 -->
<g id="node14" class="node"><title>node13</title>
<ellipse fill="none" stroke="black" cx="779.806" cy="-405" rx="40.8928" ry="18"/>
<text text-anchor="middle" x="779.806" y="-401.3" font-family="Times New Roman,serif" font-size="14.00">(13) OR</text>
</g>
<!-- node3&#45;&gt;node13 -->
<g id="edge17" class="edge"><title>node3&#45;&gt;node13</title>
<path fill="none" stroke="black" d="M75.632,-442.896C104.478,-434.001 148.02,-423 186.938,-423 186.938,-423 186.938,-423 630.564,-423 664.655,-423 702.836,-418.251 731.911,-413.631"/>
<polygon fill="black" stroke="black" points="732.492,-417.083 741.794,-412.011 731.36,-410.175 732.492,-417.083"/>
<text text-anchor="middle" x="414.276" y="-426.8" font-family="Times New Roman,serif" font-size="14.00"> (0)</text>
</g>
<!-- node14 -->
<g id="node15" class="node"><title>node14</title>
<ellipse fill="none" stroke="black" cx="779.806" cy="-459" rx="47.3916" ry="18"/>
<text text-anchor="middle" x="779.806" y="-455.3" font-family="Times New Roman,serif" font-size="14.00">(14) XOR</text>
</g>
<!-- node3&#45;&gt;node14 -->
<g id="edge20" class="edge"><title>node3&#45;&gt;node14</title>
<path fill="none" stroke="black" d="M75.3211,-465.372C104.147,-474.57 147.835,-486 186.938,-486 186.938,-486 186.938,-486 630.564,-486 664.729,-486 702.617,-478.973 731.537,-472.088"/>
<polygon fill="black" stroke="black" points="732.496,-475.457 741.372,-469.671 730.825,-468.659 732.496,-475.457"/>
<text text-anchor="middle" x="414.276" y="-489.8" font-family="Times New Roman,serif" font-size="14.00"> (1)</text>
</g>
<!-- node4 -->
<g id="node5" class="node"><title>node4</title>
<ellipse fill="none" stroke="black" cx="42.2463" cy="-33" rx="42.4939" ry="18"/>
<text text-anchor="middle" x="42.2463" y="-29.3" font-family="Times New Roman,serif" font-size="14.00">(4) Input</text>
</g>
<!-- node7 -->
<g id="node8" class="node"><title>node7</title>
<ellipse fill="none" stroke="black" cx="338.83" cy="-190" rx="36.2938" ry="18"/>
<text text-anchor="middle" x="338.83" y="-186.3" font-family="Times New Roman,serif" font-size="14.00">(7) OR</text>
</g>
<!-- node4&#45;&gt;node7 -->
<g id="edge6" class="edge"><title>node4&#45;&gt;node7</title>
<path fill="none" stroke="black" d="M81.8015,-39.6704C134.02,-48.9113 222.253,-65.334 235.384,-73 273.509,-95.2583 304.727,-136.816 322.306,-163.938"/>
<polygon fill="black" stroke="black" points="319.436,-165.948 327.736,-172.534 325.355,-162.21 319.436,-165.948"/>
<text text-anchor="middle" x="187.938" y="-76.8" font-family="Times New Roman,serif" font-size="14.00"> (1)</text>
</g>
<!-- node12 -->
<g id="node13" class="node"><title>node12</title>
<ellipse fill="none" stroke="black" cx="338.83" cy="-18" rx="47.3916" ry="18"/>
<text text-anchor="middle" x="338.83" y="-14.3" font-family="Times New Roman,serif" font-size="14.00">(12) XOR</text>
</g>
<!-- node4&#45;&gt;node12 -->
<g id="edge16" class="edge"><title>node4&#45;&gt;node12</title>
<path fill="none" stroke="black" d="M84.4043,-30.314C101.719,-29.2221 122.081,-27.9877 140.493,-27 187.962,-24.4533 241.881,-22.0258 281.348,-20.3352"/>
<polygon fill="black" stroke="black" points="281.725,-23.8224 291.567,-19.9 281.428,-16.8287 281.725,-23.8224"/>
<text text-anchor="middle" x="187.938" y="-30.8" font-family="Times New Roman,serif" font-size="14.00"> (1)</text>
</g>
<!-- node8 -->
<g id="node9" class="node"><title>node8</title>
<ellipse fill="none" stroke="black" cx="484.522" cy="-268" rx="42.4939" ry="18"/>
<text text-anchor="middle" x="484.522" y="-264.3" font-family="Times New Roman,serif" font-size="14.00">(8) AND</text>
</g>
<!-- node5&#45;&gt;node8 -->
<g id="edge8" class="edge"><title>node5&#45;&gt;node8</title>
<path fill="none" stroke="black" d="M224.472,-266.241C276.153,-266.592 372.365,-267.245 431.876,-267.649"/>
<polygon fill="black" stroke="black" points="432.157,-271.151 442.181,-267.719 432.205,-264.151 432.157,-271.151"/>
<text text-anchor="middle" x="338.83" y="-270.8" font-family="Times New Roman,serif" font-size="14.00"> (1)</text>
</g>
<!-- node6&#45;&gt;node7 -->
<g id="edge5" class="edge"><title>node6&#45;&gt;node7</title>
<path fill="none" stroke="black" d="M230.413,-190C249.523,-190 272.265,-190 291.892,-190"/>
<polygon fill="black" stroke="black" points="292.134,-193.5 302.134,-190 292.134,-186.5 292.134,-193.5"/>
<text text-anchor="middle" x="263.384" y="-193.8" font-family="Times New Roman,serif" font-size="14.00"> (0)</text>
</g>
<!-- node7&#45;&gt;node8 -->
<g id="edge7" class="edge"><title>node7&#45;&gt;node8</title>
<path fill="none" stroke="black" d="M364.205,-203.232C387.412,-215.829 422.579,-234.918 448.729,-249.113"/>
<polygon fill="black" stroke="black" points="447.11,-252.217 457.568,-253.911 450.449,-246.065 447.11,-252.217"/>
<text text-anchor="middle" x="414.276" y="-238.8" font-family="Times New Roman,serif" font-size="14.00"> (0)</text>
</g>
<!-- node8&#45;&gt;node9 -->
<g id="edge9" class="edge"><title>node8&#45;&gt;node9</title>
<path fill="none" stroke="black" d="M504.898,-283.919C524.267,-299.646 555.073,-324.159 582.768,-344 587.1,-347.103 591.731,-350.286 596.322,-353.365"/>
<polygon fill="black" stroke="black" points="594.74,-356.515 605.013,-359.109 598.6,-350.675 594.74,-356.515"/>
<text text-anchor="middle" x="554.768" y="-333.8" font-family="Times New Roman,serif" font-size="14.00"> (0)</text>
</g>
<!-- node8&#45;&gt;node11 -->
<g id="edge14" class="edge"><title>node8&#45;&gt;node11</title>
<path fill="none" stroke="black" d="M522.621,-275.907C536.055,-279.15 551.243,-283.262 564.768,-288 573.444,-291.039 582.557,-294.811 591.092,-298.618"/>
<polygon fill="black" stroke="black" points="589.88,-301.912 600.429,-302.894 592.795,-295.548 589.88,-301.912"/>
<text text-anchor="middle" x="554.768" y="-291.8" font-family="Times New Roman,serif" font-size="14.00"> (1)</text>
</g>
<!-- node9&#45;&gt;node14 -->
<g id="edge19" class="edge"><title>node9&#45;&gt;node14</title>
<path fill="none" stroke="black" d="M654.701,-388.603C666.594,-395.741 681.178,-404.408 694.36,-412 710.253,-421.154 727.971,-431.06 743.057,-439.406"/>
<polygon fill="black" stroke="black" points="741.624,-442.613 752.07,-444.381 745.006,-436.485 741.624,-442.613"/>
<text text-anchor="middle" x="704.36" y="-425.8" font-family="Times New Roman,serif" font-size="14.00"> (0)</text>
</g>
<!-- node15 -->
<g id="node16" class="node"><title>node15</title>
<ellipse fill="none" stroke="black" cx="779.806" cy="-351" rx="47.3916" ry="18"/>
<text text-anchor="middle" x="779.806" y="-347.3" font-family="Times New Roman,serif" font-size="14.00">(15) XOR</text>
</g>
<!-- node9&#45;&gt;node15 -->
<g id="edge22" class="edge"><title>node9&#45;&gt;node15</title>
<path fill="none" stroke="black" d="M664.025,-363.094C673.715,-360.337 684.374,-357.684 694.36,-356 703.293,-354.493 712.825,-353.423 722.147,-352.665"/>
<polygon fill="black" stroke="black" points="722.414,-356.155 732.143,-351.96 721.922,-349.172 722.414,-356.155"/>
<text text-anchor="middle" x="704.36" y="-359.8" font-family="Times New Roman,serif" font-size="14.00"> (1)</text>
</g>
<!-- node10&#45;&gt;node12 -->
<g id="edge15" class="edge"><title>node10&#45;&gt;node12</title>
<path fill="none" stroke="black" d="M212.86,-99.4153C237.932,-83.0817 277.478,-57.3178 305.358,-39.1546"/>
<polygon fill="black" stroke="black" points="307.499,-41.9373 313.967,-33.5461 303.678,-36.0721 307.499,-41.9373"/>
<text text-anchor="middle" x="263.384" y="-75.8" font-family="Times New Roman,serif" font-size="14.00"> (0)</text>
</g>
<!-- node11&#45;&gt;node13 -->
<g id="edge18" class="edge"><title>node11&#45;&gt;node13</title>
<path fill="none" stroke="black" d="M656.919,-332.031C663.606,-336.429 670.538,-341.537 676.36,-347 686.083,-356.124 683.786,-362.878 694.36,-371 706.16,-380.064 720.702,-387.06 734.374,-392.283"/>
<polygon fill="black" stroke="black" points="733.528,-395.698 744.123,-395.777 735.89,-389.108 733.528,-395.698"/>
<text text-anchor="middle" x="704.36" y="-385.8" font-family="Times New Roman,serif" font-size="14.00"> (1)</text>
</g>
<!-- node11&#45;&gt;node15 -->
<g id="edge21" class="edge"><title>node11&#45;&gt;node15</title>
<path fill="none" stroke="black" d="M672.01,-324.915C685.546,-327.632 700.626,-330.798 714.36,-334 719.713,-335.248 725.298,-336.618 730.845,-338.022"/>
<polygon fill="black" stroke="black" points="730.173,-341.463 740.73,-340.567 731.918,-334.684 730.173,-341.463"/>
<text text-anchor="middle" x="704.36" y="-337.8" font-family="Times New Roman,serif" font-size="14.00"> (0)</text>
</g>
<!-- node17 -->
<g id="node18" class="node"><title>node17</title>
<ellipse fill="none" stroke="black" cx="1056.74" cy="-18" rx="42.7926" ry="18"/>
<text text-anchor="middle" x="1056.74" y="-14.3" font-family="Times New Roman,serif" font-size="14.00">Output 0</text>
</g>
<!-- node12&#45;&gt;node17 -->
<g id="edge25" class="edge"><title>node12&#45;&gt;node17</title>
<path fill="none" stroke="black" d="M386.423,-18C414.544,-18 451.091,-18 483.522,-18 483.522,-18 483.522,-18 931.047,-18 954.781,-18 981.057,-18 1003.34,-18"/>
<polygon fill="black" stroke="black" points="1003.61,-21.5001 1013.61,-18 1003.61,-14.5001 1003.61,-21.5001"/>
</g>
<!-- node16 -->
<g id="node17" class="node"><title>node16</title>
<ellipse fill="none" stroke="black" cx="930.047" cy="-382" rx="46.5926" ry="18"/>
<text text-anchor="middle" x="930.047" y="-378.3" font-family="Times New Roman,serif" font-size="14.00">(16) AND</text>
</g>
<!-- node13&#45;&gt;node16 -->
<g id="edge23" class="edge"><title>node13&#45;&gt;node16</title>
<path fill="none" stroke="black" d="M818.597,-399.137C836.121,-396.418 857.244,-393.14 876.305,-390.183"/>
<polygon fill="black" stroke="black" points="877.004,-393.617 886.349,-388.625 875.931,-386.699 877.004,-393.617"/>
<text text-anchor="middle" x="855.251" y="-397.8" font-family="Times New Roman,serif" font-size="14.00"> (0)</text>
</g>
<!-- node18 -->
<g id="node19" class="node"><title>node18</title>
<ellipse fill="none" stroke="black" cx="1056.74" cy="-459" rx="42.7926" ry="18"/>
<text text-anchor="middle" x="1056.74" y="-455.3" font-family="Times New Roman,serif" font-size="14.00">Output 1</text>
</g>
<!-- node14&#45;&gt;node18 -->
<g id="edge26" class="edge"><title>node14&#45;&gt;node18</title>
<path fill="none" stroke="black" d="M827.444,-459C876.319,-459 952.921,-459 1003.72,-459"/>
<polygon fill="black" stroke="black" points="1003.84,-462.5 1013.84,-459 1003.84,-455.5 1003.84,-462.5"/>
</g>
<!-- node15&#45;&gt;node16 -->
<g id="edge24" class="edge"><title>node15&#45;&gt;node16</title>
<path fill="none" stroke="black" d="M821.706,-359.553C839.277,-363.227 859.989,-367.559 878.508,-371.431"/>
<polygon fill="black" stroke="black" points="878.033,-374.908 888.537,-373.529 879.465,-368.056 878.033,-374.908"/>
<text text-anchor="middle" x="855.251" y="-371.8" font-family="Times New Roman,serif" font-size="14.00"> (1)</text>
</g>
<!-- node19 -->
<g id="node20" class="node"><title>node19</title>
<ellipse fill="none" stroke="black" cx="1056.74" cy="-382" rx="42.7926" ry="18"/>
<text text-anchor="middle" x="1056.74" y="-378.3" font-family="Times New Roman,serif" font-size="14.00">Output 2</text>
</g>
<!-- node16&#45;&gt;node19 -->
<g id="edge27" class="edge"><title>node16&#45;&gt;node19</title>
<path fill="none" stroke="black" d="M977.124,-382C985.7,-382 994.718,-382 1003.46,-382"/>
<polygon fill="black" stroke="black" points="1003.57,-385.5 1013.57,-382 1003.57,-378.5 1003.57,-385.5"/>
</g>
</g>
</svg>
