<?xml version="1.0" encoding="UTF-8" standalone="no"?>
<!DOCTYPE svg PUBLIC "-//W3C//DTD SVG 1.1//EN"
 "http://www.w3.org/Graphics/SVG/1.1/DTD/svg11.dtd">
<!-- Generated by graphviz version 2.38.0 (20140413.2041)
 -->
<!-- Title: NeuralNetwork Pages: 1 -->
<svg width="288pt" height="176pt"
 viewBox="0.00 0.00 288.00 175.51" xmlns="http://www.w3.org/2000/svg" xmlns:xlink="http://www.w3.org/1999/xlink">
<g id="graph0" class="graph" transform="scale(0.203374 0.203374) rotate(0) translate(4 859)">
<title>NeuralNetwork</title>
<polygon fill="white" stroke="none" points="-4,4 -4,-859 1412.11,-859 1412.11,4 -4,4"/>
<!-- node0 -->
<g id="node1" class="node"><title>node0</title>
<ellipse fill="none" stroke="black" cx="42.2463" cy="-113" rx="42.4939" ry="18"/>
<text text-anchor="middle" x="42.2463" y="-109.3" font-family="Times New Roman,serif" font-size="14.00">(0) Input</text>
</g>
<!-- node9 -->
<g id="node10" class="node"><title>node9</title>
<ellipse fill="none" stroke="black" cx="298.88" cy="-67" rx="42.4939" ry="18"/>
<text text-anchor="middle" x="298.88" y="-63.3" font-family="Times New Roman,serif" font-size="14.00">(9) AND</text>
</g>
<!-- node0&#45;&gt;node9 -->
<g id="edge8" class="edge"><title>node0&#45;&gt;node9</title>
<path fill="none" stroke="black" d="M71.3454,-99.7899C81.0254,-95.7346 92.0584,-91.6477 102.493,-89 150.432,-76.8354 206.693,-71.3933 246.501,-68.9609"/>
<polygon fill="black" stroke="black" points="246.721,-72.4541 256.506,-68.3916 246.323,-65.4654 246.721,-72.4541"/>
<text text-anchor="middle" x="112.493" y="-92.8" font-family="Times New Roman,serif" font-size="14.00"> (1)</text>
</g>
<!-- node12 -->
<g id="node13" class="node"><title>node12</title>
<ellipse fill="none" stroke="black" cx="187.288" cy="-197" rx="46.5926" ry="18"/>
<text text-anchor="middle" x="187.288" y="-193.3" font-family="Times New Roman,serif" font-size="14.00">(12) AND</text>
</g>
<!-- node0&#45;&gt;node12 -->
<g id="edge14" class="edge"><title>node0&#45;&gt;node12</title>
<path fill="none" stroke="black" d="M81.9564,-106.801C95.4049,-106.342 110.188,-107.842 122.493,-114 145.957,-125.744 163.246,-150.64 173.862,-170.119"/>
<polygon fill="black" stroke="black" points="170.835,-171.886 178.535,-179.164 177.054,-168.673 170.835,-171.886"/>
<text text-anchor="middle" x="112.493" y="-117.8" font-family="Times New Roman,serif" font-size="14.00"> (1)</text>
</g>
<!-- node15 -->
<g id="node16" class="node"><title>node15</title>
<ellipse fill="none" stroke="black" cx="411.122" cy="-306" rx="40.8928" ry="18"/>
<text text-anchor="middle" x="411.122" y="-302.3" font-family="Times New Roman,serif" font-size="14.00">(15) OR</text>
</g>
<!-- node0&#45;&gt;node15 -->
<g id="edge19" class="edge"><title>node0&#45;&gt;node15</title>
<path fill="none" stroke="black" d="M46.5673,-131.014C52.6163,-158.504 68.1231,-210.61 102.493,-238 177.507,-297.781 294.107,-307.569 360.117,-307.803"/>
<polygon fill="black" stroke="black" points="360.275,-311.303 370.262,-307.765 360.249,-304.303 360.275,-311.303"/>
<text text-anchor="middle" x="187.288" y="-297.8" font-family="Times New Roman,serif" font-size="14.00"> (0)</text>
</g>
<!-- node1 -->
<g id="node2" class="node"><title>node1</title>
<ellipse fill="none" stroke="black" cx="42.2463" cy="-566" rx="42.4939" ry="18"/>
<text text-anchor="middle" x="42.2463" y="-562.3" font-family="Times New Roman,serif" font-size="14.00">(1) Input</text>
</g>
<!-- node7 -->
<g id="node8" class="node"><title>node7</title>
<ellipse fill="none" stroke="black" cx="187.288" cy="-671" rx="42.4939" ry="18"/>
<text text-anchor="middle" x="187.288" y="-667.3" font-family="Times New Roman,serif" font-size="14.00">(7) AND</text>
</g>
<!-- node1&#45;&gt;node7 -->
<g id="edge3" class="edge"><title>node1&#45;&gt;node7</title>
<path fill="none" stroke="black" d="M60.1914,-582.604C71.6853,-593.497 87.4671,-607.752 102.493,-619 118.189,-630.751 136.612,-642.395 152.18,-651.676"/>
<polygon fill="black" stroke="black" points="150.581,-654.795 160.974,-656.85 154.131,-648.762 150.581,-654.795"/>
<text text-anchor="middle" x="112.493" y="-635.8" font-family="Times New Roman,serif" font-size="14.00"> (0)</text>
</g>
<!-- node13 -->
<g id="node14" class="node"><title>node13</title>
<ellipse fill="none" stroke="black" cx="785.197" cy="-447" rx="46.5926" ry="18"/>
<text text-anchor="middle" x="785.197" y="-443.3" font-family="Times New Roman,serif" font-size="14.00">(13) AND</text>
</g>
<!-- node1&#45;&gt;node13 -->
<g id="edge16" class="edge"><title>node1&#45;&gt;node13</title>
<path fill="none" stroke="black" d="M61.4399,-549.926C72.9204,-540.044 88.2264,-527.34 102.493,-517 159.973,-475.338 182.023,-472.452 252.084,-461 342.679,-446.192 377.632,-412.685 458.567,-456 471.283,-462.805 463.852,-476.195 476.567,-483 512.733,-502.355 527.968,-486.232 568.859,-483 625.879,-478.494 690.499,-466.791 733.947,-457.942"/>
<polygon fill="black" stroke="black" points="734.887,-461.322 743.973,-455.874 733.473,-454.466 734.887,-461.322"/>
<text text-anchor="middle" x="411.122" y="-459.8" font-family="Times New Roman,serif" font-size="14.00"> (1)</text>
</g>
<!-- node14 -->
<g id="node15" class="node"><title>node14</title>
<ellipse fill="none" stroke="black" cx="187.288" cy="-341" rx="46.5926" ry="18"/>
<text text-anchor="middle" x="187.288" y="-337.3" font-family="Times New Roman,serif" font-size="14.00">(14) AND</text>
</g>
<!-- node1&#45;&gt;node14 -->
<g id="edge17" class="edge"><title>node1&#45;&gt;node14</title>
<path fill="none" stroke="black" d="M64.7299,-550.272C72.2152,-543.64 79.8862,-535.295 84.4925,-526 114.306,-465.837 62.0026,-429.563 102.493,-376 110.675,-365.176 122.826,-357.674 135.353,-352.484"/>
<polygon fill="black" stroke="black" points="136.773,-355.691 144.946,-348.949 134.352,-349.122 136.773,-355.691"/>
<text text-anchor="middle" x="112.493" y="-379.8" font-family="Times New Roman,serif" font-size="14.00"> (0)</text>
</g>
<!-- node20 -->
<g id="node21" class="node"><title>node20</title>
<ellipse fill="none" stroke="black" cx="634.305" cy="-652" rx="47.3916" ry="18"/>
<text text-anchor="middle" x="634.305" y="-648.3" font-family="Times New Roman,serif" font-size="14.00">(20) XOR</text>
</g>
<!-- node1&#45;&gt;node20 -->
<g id="edge28" class="edge"><title>node1&#45;&gt;node20</title>
<path fill="none" stroke="black" d="M74.2692,-577.791C83.2667,-580.85 93.1782,-583.876 102.493,-586 155.581,-598.103 296.407,-592.818 345.676,-616 355.633,-620.685 353.6,-628.578 363.676,-633 433.254,-663.538 522.684,-663.046 579.017,-658.561"/>
<polygon fill="black" stroke="black" points="579.478,-662.034 589.139,-657.683 578.874,-655.06 579.478,-662.034"/>
<text text-anchor="middle" x="298.88" y="-619.8" font-family="Times New Roman,serif" font-size="14.00"> (0)</text>
</g>
<!-- node2 -->
<g id="node3" class="node"><title>node2</title>
<ellipse fill="none" stroke="black" cx="42.2463" cy="-633" rx="42.4939" ry="18"/>
<text text-anchor="middle" x="42.2463" y="-629.3" font-family="Times New Roman,serif" font-size="14.00">(2) Input</text>
</g>
<!-- node6 -->
<g id="node7" class="node"><title>node6</title>
<ellipse fill="none" stroke="black" cx="187.288" cy="-550" rx="42.4939" ry="18"/>
<text text-anchor="middle" x="187.288" y="-546.3" font-family="Times New Roman,serif" font-size="14.00">(6) AND</text>
</g>
<!-- node2&#45;&gt;node6 -->
<g id="edge2" class="edge"><title>node2&#45;&gt;node6</title>
<path fill="none" stroke="black" d="M69.0965,-619.003C84.6594,-610.488 104.819,-599.303 122.493,-589 132.901,-582.932 144.148,-576.138 154.257,-569.942"/>
<polygon fill="black" stroke="black" points="156.118,-572.906 162.798,-564.683 152.448,-566.945 156.118,-572.906"/>
<text text-anchor="middle" x="112.493" y="-603.8" font-family="Times New Roman,serif" font-size="14.00"> (1)</text>
</g>
<!-- node8 -->
<g id="node9" class="node"><title>node8</title>
<ellipse fill="none" stroke="black" cx="187.288" cy="-401" rx="42.4939" ry="18"/>
<text text-anchor="middle" x="187.288" y="-397.3" font-family="Times New Roman,serif" font-size="14.00">(8) AND</text>
</g>
<!-- node2&#45;&gt;node8 -->
<g id="edge5" class="edge"><title>node2&#45;&gt;node8</title>
<path fill="none" stroke="black" d="M61.0318,-616.77C68.5086,-609.692 77.1557,-601.159 84.4925,-593 93.1719,-583.348 94.438,-580.179 102.493,-570 111.322,-558.842 116.089,-557.707 122.493,-545 136.561,-517.081 128.302,-505.789 140.493,-477 147.954,-459.379 158.957,-440.964 168.308,-426.675"/>
<polygon fill="black" stroke="black" points="171.222,-428.614 173.87,-418.355 165.402,-424.723 171.222,-428.614"/>
<text text-anchor="middle" x="112.493" y="-573.8" font-family="Times New Roman,serif" font-size="14.00"> (0)</text>
</g>
<!-- node29 -->
<g id="node30" class="node"><title>node29</title>
<ellipse fill="none" stroke="black" cx="298.88" cy="-763" rx="46.5926" ry="18"/>
<text text-anchor="middle" x="298.88" y="-759.3" font-family="Times New Roman,serif" font-size="14.00">(29) AND</text>
</g>
<!-- node2&#45;&gt;node29 -->
<g id="edge47" class="edge"><title>node2&#45;&gt;node29</title>
<path fill="none" stroke="black" d="M51.1863,-650.946C60.859,-671.119 78.8755,-703.816 102.493,-725 140.359,-758.966 199.278,-766.435 242.521,-766.648"/>
<polygon fill="black" stroke="black" points="242.627,-770.148 252.599,-766.57 242.572,-763.148 242.627,-770.148"/>
<text text-anchor="middle" x="112.493" y="-741.8" font-family="Times New Roman,serif" font-size="14.00"> (1)</text>
</g>
<!-- node3 -->
<g id="node4" class="node"><title>node3</title>
<ellipse fill="none" stroke="black" cx="42.2463" cy="-341" rx="42.4939" ry="18"/>
<text text-anchor="middle" x="42.2463" y="-337.3" font-family="Times New Roman,serif" font-size="14.00">(3) Input</text>
</g>
<!-- node3&#45;&gt;node8 -->
<g id="edge6" class="edge"><title>node3&#45;&gt;node8</title>
<path fill="none" stroke="black" d="M56.543,-358.165C67.4033,-370.776 83.9474,-387.043 102.493,-395 112.652,-399.359 124.141,-401.663 135.282,-402.746"/>
<polygon fill="black" stroke="black" points="135.156,-406.245 145.368,-403.422 135.624,-399.261 135.156,-406.245"/>
<text text-anchor="middle" x="112.493" y="-403.8" font-family="Times New Roman,serif" font-size="14.00"> (1)</text>
</g>
<!-- node3&#45;&gt;node9 -->
<g id="edge7" class="edge"><title>node3&#45;&gt;node9</title>
<path fill="none" stroke="black" d="M50.239,-323.086C63.8067,-289.981 96.2992,-218.211 140.493,-170 174.882,-132.484 225.73,-102.473 260.252,-84.7329"/>
<polygon fill="black" stroke="black" points="262.173,-87.684 269.529,-80.0586 259.024,-81.4327 262.173,-87.684"/>
<text text-anchor="middle" x="112.493" y="-222.8" font-family="Times New Roman,serif" font-size="14.00"> (0)</text>
</g>
<!-- node3&#45;&gt;node14 -->
<g id="edge18" class="edge"><title>node3&#45;&gt;node14</title>
<path fill="none" stroke="black" d="M84.62,-341C98.7655,-341 114.837,-341 129.958,-341"/>
<polygon fill="black" stroke="black" points="130.24,-344.5 140.24,-341 130.24,-337.5 130.24,-344.5"/>
<text text-anchor="middle" x="112.493" y="-344.8" font-family="Times New Roman,serif" font-size="14.00"> (1)</text>
</g>
<!-- node4 -->
<g id="node5" class="node"><title>node4</title>
<ellipse fill="none" stroke="black" cx="42.2463" cy="-499" rx="42.4939" ry="18"/>
<text text-anchor="middle" x="42.2463" y="-495.3" font-family="Times New Roman,serif" font-size="14.00">(4) Input</text>
</g>
<!-- node4&#45;&gt;node6 -->
<g id="edge1" class="edge"><title>node4&#45;&gt;node6</title>
<path fill="none" stroke="black" d="M75.3477,-510.445C95.8688,-517.762 122.686,-527.323 144.814,-535.213"/>
<polygon fill="black" stroke="black" points="143.699,-538.531 154.294,-538.593 146.05,-531.938 143.699,-538.531"/>
<text text-anchor="middle" x="112.493" y="-529.8" font-family="Times New Roman,serif" font-size="14.00"> (0)</text>
</g>
<!-- node10 -->
<g id="node11" class="node"><title>node10</title>
<ellipse fill="none" stroke="black" cx="411.122" cy="-552" rx="46.5926" ry="18"/>
<text text-anchor="middle" x="411.122" y="-548.3" font-family="Times New Roman,serif" font-size="14.00">(10) AND</text>
</g>
<!-- node4&#45;&gt;node10 -->
<g id="edge9" class="edge"><title>node4&#45;&gt;node10</title>
<path fill="none" stroke="black" d="M84.7391,-497.437C143.859,-496.322 255.197,-498.36 345.676,-524 354.544,-526.513 363.792,-529.982 372.423,-533.624"/>
<polygon fill="black" stroke="black" points="371.289,-536.948 381.852,-537.767 374.105,-530.54 371.289,-536.948"/>
<text text-anchor="middle" x="187.288" y="-506.8" font-family="Times New Roman,serif" font-size="14.00"> (0)</text>
</g>
<!-- node4&#45;&gt;node12 -->
<g id="edge13" class="edge"><title>node4&#45;&gt;node12</title>
<path fill="none" stroke="black" d="M48.2634,-481.086C57.5324,-448.756 78.5899,-378.74 102.493,-322 116.846,-287.928 119.524,-278.45 140.493,-248 146.769,-238.885 154.529,-229.662 161.867,-221.612"/>
<polygon fill="black" stroke="black" points="164.713,-223.693 168.993,-214.001 159.603,-218.909 164.713,-223.693"/>
<text text-anchor="middle" x="112.493" y="-325.8" font-family="Times New Roman,serif" font-size="14.00"> (0)</text>
</g>
<!-- node5 -->
<g id="node6" class="node"><title>node5</title>
<ellipse fill="none" stroke="black" cx="42.2463" cy="-793" rx="42.4939" ry="18"/>
<text text-anchor="middle" x="42.2463" y="-789.3" font-family="Times New Roman,serif" font-size="14.00">(5) Input</text>
</g>
<!-- node5&#45;&gt;node7 -->
<g id="edge4" class="edge"><title>node5&#45;&gt;node7</title>
<path fill="none" stroke="black" d="M52.2338,-775.398C62.3459,-757.048 80.2955,-728.441 102.493,-710 114.527,-700.002 129.549,-691.963 143.538,-685.84"/>
<polygon fill="black" stroke="black" points="145.115,-688.975 153.008,-681.907 142.43,-682.511 145.115,-688.975"/>
<text text-anchor="middle" x="112.493" y="-713.8" font-family="Times New Roman,serif" font-size="14.00"> (1)</text>
</g>
<!-- node18 -->
<g id="node19" class="node"><title>node18</title>
<ellipse fill="none" stroke="black" cx="522.713" cy="-837" rx="46.2923" ry="18"/>
<text text-anchor="middle" x="522.713" y="-833.3" font-family="Times New Roman,serif" font-size="14.00">(18) NEG</text>
</g>
<!-- node5&#45;&gt;node18 -->
<g id="edge25" class="edge"><title>node5&#45;&gt;node18</title>
<path fill="none" stroke="black" d="M74.5386,-804.649C83.4538,-807.524 93.2552,-810.272 102.493,-812 231.095,-836.06 385.386,-838.673 466.166,-838.085"/>
<polygon fill="black" stroke="black" points="466.626,-841.581 476.593,-837.988 466.561,-834.581 466.626,-841.581"/>
<text text-anchor="middle" x="187.288" y="-832.8" font-family="Times New Roman,serif" font-size="14.00"> (0)</text>
</g>
<!-- node22 -->
<g id="node23" class="node"><title>node22</title>
<ellipse fill="none" stroke="black" cx="411.122" cy="-498" rx="46.5926" ry="18"/>
<text text-anchor="middle" x="411.122" y="-494.3" font-family="Times New Roman,serif" font-size="14.00">(22) AND</text>
</g>
<!-- node5&#45;&gt;node22 -->
<g id="edge33" class="edge"><title>node5&#45;&gt;node22</title>
<path fill="none" stroke="black" d="M76.9628,-782.465C95.6603,-776.656 119.341,-769.355 140.493,-763 163.241,-756.165 330.491,-721.266 345.676,-703 371.091,-672.427 342.138,-558.418 363.676,-525 365.495,-522.178 367.721,-519.615 370.203,-517.295"/>
<polygon fill="black" stroke="black" points="372.508,-519.937 378.269,-511.046 368.221,-514.404 372.508,-519.937"/>
<text text-anchor="middle" x="187.288" y="-766.8" font-family="Times New Roman,serif" font-size="14.00"> (1)</text>
</g>
<!-- node5&#45;&gt;node29 -->
<g id="edge46" class="edge"><title>node5&#45;&gt;node29</title>
<path fill="none" stroke="black" d="M84.5122,-793.367C123.38,-793.068 183.091,-790.938 234.084,-782 240.434,-780.887 247.045,-779.357 253.503,-777.645"/>
<polygon fill="black" stroke="black" points="254.789,-780.919 263.464,-774.837 252.89,-774.181 254.789,-780.919"/>
<text text-anchor="middle" x="112.493" y="-796.8" font-family="Times New Roman,serif" font-size="14.00"> (0)</text>
</g>
<!-- node6&#45;&gt;node15 -->
<g id="edge20" class="edge"><title>node6&#45;&gt;node15</title>
<path fill="none" stroke="black" d="M212.221,-535.389C219.614,-530.336 227.53,-524.338 234.084,-518 243.669,-508.732 243.791,-504.44 252.084,-494 299.47,-434.344 357.696,-366.38 388.546,-330.766"/>
<polygon fill="black" stroke="black" points="391.509,-332.693 395.419,-322.846 386.222,-328.105 391.509,-332.693"/>
<text text-anchor="middle" x="298.88" y="-497.8" font-family="Times New Roman,serif" font-size="14.00"> (1)</text>
</g>
<!-- node21 -->
<g id="node22" class="node"><title>node21</title>
<ellipse fill="none" stroke="black" cx="411.122" cy="-606" rx="47.3916" ry="18"/>
<text text-anchor="middle" x="411.122" y="-602.3" font-family="Times New Roman,serif" font-size="14.00">(21) XOR</text>
</g>
<!-- node6&#45;&gt;node21 -->
<g id="edge31" class="edge"><title>node6&#45;&gt;node21</title>
<path fill="none" stroke="black" d="M227.179,-556.166C259.282,-561.671 305.865,-570.615 345.676,-582 353.099,-584.123 360.883,-586.704 368.374,-589.378"/>
<polygon fill="black" stroke="black" points="367.402,-592.749 377.996,-592.914 369.817,-586.179 367.402,-592.749"/>
<text text-anchor="middle" x="298.88" y="-585.8" font-family="Times New Roman,serif" font-size="14.00"> (1)</text>
</g>
<!-- node6&#45;&gt;node22 -->
<g id="edge32" class="edge"><title>node6&#45;&gt;node22</title>
<path fill="none" stroke="black" d="M224.92,-541.413C262.095,-532.699 319.876,-519.155 361.005,-509.514"/>
<polygon fill="black" stroke="black" points="361.88,-512.903 370.818,-507.213 360.283,-506.088 361.88,-512.903"/>
<text text-anchor="middle" x="298.88" y="-537.8" font-family="Times New Roman,serif" font-size="14.00"> (0)</text>
</g>
<!-- node7&#45;&gt;node10 -->
<g id="edge10" class="edge"><title>node7&#45;&gt;node10</title>
<path fill="none" stroke="black" d="M223.291,-661.267C232.619,-658.784 242.71,-656.198 252.084,-654 293.408,-644.309 314.048,-663.307 345.676,-635 365.156,-617.565 347.286,-599.367 363.676,-579 365.907,-576.227 368.505,-573.682 371.311,-571.356"/>
<polygon fill="black" stroke="black" points="373.551,-574.056 379.636,-565.383 369.471,-568.369 373.551,-574.056"/>
<text text-anchor="middle" x="298.88" y="-657.8" font-family="Times New Roman,serif" font-size="14.00"> (1)</text>
</g>
<!-- node7&#45;&gt;node21 -->
<g id="edge30" class="edge"><title>node7&#45;&gt;node21</title>
<path fill="none" stroke="black" d="M224.573,-679.492C257.546,-685.383 306.829,-689.535 345.676,-673 365.29,-664.651 381.819,-647.083 393.226,-632.031"/>
<polygon fill="black" stroke="black" points="396.332,-633.708 399.335,-623.548 390.651,-629.617 396.332,-633.708"/>
<text text-anchor="middle" x="298.88" y="-687.8" font-family="Times New Roman,serif" font-size="14.00"> (0)</text>
</g>
<!-- node11 -->
<g id="node12" class="node"><title>node11</title>
<ellipse fill="none" stroke="black" cx="634.305" cy="-429" rx="40.8928" ry="18"/>
<text text-anchor="middle" x="634.305" y="-425.3" font-family="Times New Roman,serif" font-size="14.00">(11) OR</text>
</g>
<!-- node8&#45;&gt;node11 -->
<g id="edge12" class="edge"><title>node8&#45;&gt;node11</title>
<path fill="none" stroke="black" d="M229.154,-398.475C299.186,-394.923 446.43,-390.848 568.859,-410 576.472,-411.191 584.446,-413.032 592.09,-415.109"/>
<polygon fill="black" stroke="black" points="591.309,-418.527 601.888,-417.94 593.252,-411.802 591.309,-418.527"/>
<text text-anchor="middle" x="411.122" y="-401.8" font-family="Times New Roman,serif" font-size="14.00"> (1)</text>
</g>
<!-- node24 -->
<g id="node25" class="node"><title>node24</title>
<ellipse fill="none" stroke="black" cx="634.305" cy="-224" rx="46.5926" ry="18"/>
<text text-anchor="middle" x="634.305" y="-220.3" font-family="Times New Roman,serif" font-size="14.00">(24) AND</text>
</g>
<!-- node9&#45;&gt;node24 -->
<g id="edge36" class="edge"><title>node9&#45;&gt;node24</title>
<path fill="none" stroke="black" d="M340.867,-69.1923C398.837,-74.4224 504.832,-92.1218 568.859,-152 583.098,-165.316 574.372,-177.029 586.859,-192 590.223,-196.032 594.215,-199.78 598.425,-203.184"/>
<polygon fill="black" stroke="black" points="596.561,-206.159 606.682,-209.294 600.725,-200.532 596.561,-206.159"/>
<text text-anchor="middle" x="411.122" y="-93.8" font-family="Times New Roman,serif" font-size="14.00"> (0)</text>
</g>
<!-- node39 -->
<g id="node40" class="node"><title>node39</title>
<ellipse fill="none" stroke="black" cx="1365.21" cy="-18" rx="42.7926" ry="18"/>
<text text-anchor="middle" x="1365.21" y="-14.3" font-family="Times New Roman,serif" font-size="14.00">Output 0</text>
</g>
<!-- node9&#45;&gt;node39 -->
<g id="edge66" class="edge"><title>node9&#45;&gt;node39</title>
<path fill="none" stroke="black" d="M331.722,-55.3877C374.373,-40.8977 452.691,-18 521.713,-18 521.713,-18 521.713,-18 1238.87,-18 1262.93,-18 1289.59,-18 1312.11,-18"/>
<polygon fill="black" stroke="black" points="1312.15,-21.5001 1322.15,-18 1312.15,-14.5001 1312.15,-21.5001"/>
</g>
<!-- node10&#45;&gt;node11 -->
<g id="edge11" class="edge"><title>node10&#45;&gt;node11</title>
<path fill="none" stroke="black" d="M443.601,-538.702C449.318,-535.016 454.689,-530.482 458.567,-525 483.387,-489.919 443.561,-457.518 476.567,-430 507.956,-403.831 556.455,-408.021 591.189,-415.956"/>
<polygon fill="black" stroke="black" points="590.495,-419.39 601.043,-418.39 592.174,-412.594 590.495,-419.39"/>
<text text-anchor="middle" x="522.713" y="-433.8" font-family="Times New Roman,serif" font-size="14.00"> (0)</text>
</g>
<!-- node11&#45;&gt;node13 -->
<g id="edge15" class="edge"><title>node11&#45;&gt;node13</title>
<path fill="none" stroke="black" d="M673.445,-434.536C682.088,-435.732 691.229,-436.951 699.751,-438 709.308,-439.176 719.486,-440.338 729.344,-441.417"/>
<polygon fill="black" stroke="black" points="729.146,-444.915 739.463,-442.507 729.896,-437.956 729.146,-444.915"/>
<text text-anchor="middle" x="709.751" y="-443.8" font-family="Times New Roman,serif" font-size="14.00"> (0)</text>
</g>
<!-- node19 -->
<g id="node20" class="node"><title>node19</title>
<ellipse fill="none" stroke="black" cx="785.197" cy="-191" rx="40.8928" ry="18"/>
<text text-anchor="middle" x="785.197" y="-187.3" font-family="Times New Roman,serif" font-size="14.00">(19) OR</text>
</g>
<!-- node11&#45;&gt;node19 -->
<g id="edge26" class="edge"><title>node11&#45;&gt;node19</title>
<path fill="none" stroke="black" d="M674.302,-424.46C690.63,-420.566 708.412,-413.351 719.751,-400 750.685,-363.578 723.816,-339.709 737.751,-294 745.948,-267.111 759.522,-238.05 769.885,-217.675"/>
<polygon fill="black" stroke="black" points="773.046,-219.181 774.532,-208.691 766.829,-215.965 773.046,-219.181"/>
<text text-anchor="middle" x="709.751" y="-417.8" font-family="Times New Roman,serif" font-size="14.00"> (0)</text>
</g>
<!-- node28 -->
<g id="node29" class="node"><title>node28</title>
<ellipse fill="none" stroke="black" cx="936.088" cy="-489" rx="47.3916" ry="18"/>
<text text-anchor="middle" x="936.088" y="-485.3" font-family="Times New Roman,serif" font-size="14.00">(28) XOR</text>
</g>
<!-- node11&#45;&gt;node28 -->
<g id="edge45" class="edge"><title>node11&#45;&gt;node28</title>
<path fill="none" stroke="black" d="M662.74,-442.211C674.121,-447.577 687.505,-453.738 699.751,-459 716.433,-466.168 720.055,-469.933 737.751,-474 784.419,-484.726 838.761,-488.219 878.59,-489.176"/>
<polygon fill="black" stroke="black" points="878.58,-492.676 888.647,-489.371 878.716,-485.677 878.58,-492.676"/>
<text text-anchor="middle" x="785.197" y="-490.8" font-family="Times New Roman,serif" font-size="14.00"> (1)</text>
</g>
<!-- node16 -->
<g id="node17" class="node"><title>node16</title>
<ellipse fill="none" stroke="black" cx="411.122" cy="-153" rx="47.3916" ry="18"/>
<text text-anchor="middle" x="411.122" y="-149.3" font-family="Times New Roman,serif" font-size="14.00">(16) XOR</text>
</g>
<!-- node12&#45;&gt;node16 -->
<g id="edge21" class="edge"><title>node12&#45;&gt;node16</title>
<path fill="none" stroke="black" d="M223.833,-185.506C232.976,-182.8 242.843,-180.097 252.084,-178 286.157,-170.267 324.9,-164.098 355.497,-159.822"/>
<polygon fill="black" stroke="black" points="356.111,-163.271 365.543,-158.446 355.16,-156.336 356.111,-163.271"/>
<text text-anchor="middle" x="298.88" y="-181.8" font-family="Times New Roman,serif" font-size="14.00"> (0)</text>
</g>
<!-- node12&#45;&gt;node19 -->
<g id="edge27" class="edge"><title>node12&#45;&gt;node19</title>
<path fill="none" stroke="black" d="M210.221,-181.26C222.172,-173.203 237.471,-163.707 252.084,-157 273.914,-146.98 439.446,-107.536 458.567,-93 470.345,-84.0467 463.583,-72.0891 476.567,-65 512.57,-45.3444 529.369,-53.9082 568.859,-65 653.505,-88.7746 660.75,-125.562 737.751,-168 740.839,-169.702 744.07,-171.422 747.328,-173.114"/>
<polygon fill="black" stroke="black" points="745.984,-176.357 756.484,-177.773 749.159,-170.119 745.984,-176.357"/>
<text text-anchor="middle" x="522.713" y="-68.8" font-family="Times New Roman,serif" font-size="14.00"> (1)</text>
</g>
<!-- node25 -->
<g id="node26" class="node"><title>node25</title>
<ellipse fill="none" stroke="black" cx="634.305" cy="-337" rx="47.3916" ry="18"/>
<text text-anchor="middle" x="634.305" y="-333.3" font-family="Times New Roman,serif" font-size="14.00">(25) XOR</text>
</g>
<!-- node12&#45;&gt;node25 -->
<g id="edge38" class="edge"><title>node12&#45;&gt;node25</title>
<path fill="none" stroke="black" d="M234.135,-197.448C329.181,-198.726 541.188,-203.522 568.859,-221 570.996,-222.349 600.491,-276.366 618.829,-310.203"/>
<polygon fill="black" stroke="black" points="615.835,-312.024 623.674,-319.152 621.991,-308.691 615.835,-312.024"/>
<text text-anchor="middle" x="411.122" y="-207.8" font-family="Times New Roman,serif" font-size="14.00"> (0)</text>
</g>
<!-- node26 -->
<g id="node27" class="node"><title>node26</title>
<ellipse fill="none" stroke="black" cx="936.088" cy="-357" rx="46.5926" ry="18"/>
<text text-anchor="middle" x="936.088" y="-353.3" font-family="Times New Roman,serif" font-size="14.00">(26) AND</text>
</g>
<!-- node13&#45;&gt;node26 -->
<g id="edge40" class="edge"><title>node13&#45;&gt;node26</title>
<path fill="none" stroke="black" d="M811.118,-431.936C835.811,-417.01 873.808,-394.042 901.227,-377.468"/>
<polygon fill="black" stroke="black" points="903.338,-380.282 910.086,-372.113 899.717,-374.291 903.338,-380.282"/>
<text text-anchor="middle" x="860.642" y="-410.8" font-family="Times New Roman,serif" font-size="14.00"> (0)</text>
</g>
<!-- node14&#45;&gt;node16 -->
<g id="edge22" class="edge"><title>node14&#45;&gt;node16</title>
<path fill="none" stroke="black" d="M205.587,-324.304C236.358,-294.91 303.074,-232.533 363.676,-185 368.106,-181.525 372.889,-177.997 377.644,-174.614"/>
<polygon fill="black" stroke="black" points="379.886,-177.318 386.087,-168.727 375.883,-171.576 379.886,-177.318"/>
<text text-anchor="middle" x="298.88" y="-282.8" font-family="Times New Roman,serif" font-size="14.00"> (1)</text>
</g>
<!-- node17 -->
<g id="node18" class="node"><title>node17</title>
<ellipse fill="none" stroke="black" cx="634.305" cy="-165" rx="47.3916" ry="18"/>
<text text-anchor="middle" x="634.305" y="-161.3" font-family="Times New Roman,serif" font-size="14.00">(17) XOR</text>
</g>
<!-- node15&#45;&gt;node17 -->
<g id="edge24" class="edge"><title>node15&#45;&gt;node17</title>
<path fill="none" stroke="black" d="M425.901,-289.208C438.132,-275.061 457.046,-254.954 476.567,-241 512.171,-215.551 557.608,-194.588 590.384,-181.172"/>
<polygon fill="black" stroke="black" points="591.729,-184.403 599.698,-177.422 589.115,-177.91 591.729,-184.403"/>
<text text-anchor="middle" x="522.713" y="-244.8" font-family="Times New Roman,serif" font-size="14.00"> (1)</text>
</g>
<!-- node15&#45;&gt;node20 -->
<g id="edge29" class="edge"><title>node15&#45;&gt;node20</title>
<path fill="none" stroke="black" d="M426.152,-322.882C436.465,-336.064 450.102,-355.234 458.567,-374 471.954,-403.674 462.461,-415.661 476.567,-445 511.707,-518.083 574.858,-590.671 609.301,-627.371"/>
<polygon fill="black" stroke="black" points="607.178,-630.218 616.599,-635.067 612.257,-625.402 607.178,-630.218"/>
<text text-anchor="middle" x="522.713" y="-580.8" font-family="Times New Roman,serif" font-size="14.00"> (1)</text>
</g>
<!-- node15&#45;&gt;node26 -->
<g id="edge41" class="edge"><title>node15&#45;&gt;node26</title>
<path fill="none" stroke="black" d="M441.842,-294.068C452.613,-290.223 464.981,-286.352 476.567,-284 582.718,-262.453 612.129,-255.767 719.751,-268 770.909,-273.815 784.999,-274.48 832.642,-294 858.729,-304.688 885.796,-321.627 905.553,-335.25"/>
<polygon fill="black" stroke="black" points="903.62,-338.169 913.817,-341.049 907.641,-332.439 903.62,-338.169"/>
<text text-anchor="middle" x="709.751" y="-271.8" font-family="Times New Roman,serif" font-size="14.00"> (1)</text>
</g>
<!-- node31 -->
<g id="node32" class="node"><title>node31</title>
<ellipse fill="none" stroke="black" cx="936.088" cy="-640" rx="47.3916" ry="18"/>
<text text-anchor="middle" x="936.088" y="-636.3" font-family="Times New Roman,serif" font-size="14.00">(31) XOR</text>
</g>
<!-- node15&#45;&gt;node31 -->
<g id="edge50" class="edge"><title>node15&#45;&gt;node31</title>
<path fill="none" stroke="black" d="M427.648,-322.571C439.757,-334.34 457.649,-349.358 476.567,-357 625.582,-417.195 719.621,-305.742 832.642,-420 887.992,-475.955 849.167,-519.91 888.642,-588 894.347,-597.84 902.122,-607.463 909.678,-615.702"/>
<polygon fill="black" stroke="black" points="907.344,-618.325 916.782,-623.139 912.406,-613.49 907.344,-618.325"/>
<text text-anchor="middle" x="709.751" y="-369.8" font-family="Times New Roman,serif" font-size="14.00"> (0)</text>
</g>
<!-- node16&#45;&gt;node17 -->
<g id="edge23" class="edge"><title>node16&#45;&gt;node17</title>
<path fill="none" stroke="black" d="M458.22,-155.501C492.822,-157.378 540.372,-159.958 577.187,-161.955"/>
<polygon fill="black" stroke="black" points="577.091,-165.455 587.266,-162.502 577.471,-158.466 577.091,-165.455"/>
<text text-anchor="middle" x="522.713" y="-164.8" font-family="Times New Roman,serif" font-size="14.00"> (0)</text>
</g>
<!-- node40 -->
<g id="node41" class="node"><title>node40</title>
<ellipse fill="none" stroke="black" cx="1365.21" cy="-94" rx="42.7926" ry="18"/>
<text text-anchor="middle" x="1365.21" y="-90.3" font-family="Times New Roman,serif" font-size="14.00">Output 1</text>
</g>
<!-- node16&#45;&gt;node40 -->
<g id="edge67" class="edge"><title>node16&#45;&gt;node40</title>
<path fill="none" stroke="black" d="M442.571,-139.464C484.6,-122.045 563.159,-94 633.305,-94 633.305,-94 633.305,-94 1238.87,-94 1262.93,-94 1289.59,-94 1312.11,-94"/>
<polygon fill="black" stroke="black" points="1312.15,-97.5001 1322.15,-94 1312.15,-90.5001 1312.15,-97.5001"/>
</g>
<!-- node27 -->
<g id="node28" class="node"><title>node27</title>
<ellipse fill="none" stroke="black" cx="785.197" cy="-321" rx="46.5926" ry="18"/>
<text text-anchor="middle" x="785.197" y="-317.3" font-family="Times New Roman,serif" font-size="14.00">(27) AND</text>
</g>
<!-- node17&#45;&gt;node27 -->
<g id="edge43" class="edge"><title>node17&#45;&gt;node27</title>
<path fill="none" stroke="black" d="M659.448,-180.591C666.783,-185.602 674.751,-191.33 681.751,-197 699.828,-211.644 704.371,-215.544 719.751,-233 737.179,-252.781 754.711,-277.072 767.08,-295.119"/>
<polygon fill="black" stroke="black" points="764.205,-297.116 772.714,-303.429 769.999,-293.188 764.205,-297.116"/>
<text text-anchor="middle" x="709.751" y="-236.8" font-family="Times New Roman,serif" font-size="14.00"> (1)</text>
</g>
<!-- node30 -->
<g id="node31" class="node"><title>node30</title>
<ellipse fill="none" stroke="black" cx="936.088" cy="-191" rx="46.5926" ry="18"/>
<text text-anchor="middle" x="936.088" y="-187.3" font-family="Times New Roman,serif" font-size="14.00">(30) AND</text>
</g>
<!-- node17&#45;&gt;node30 -->
<g id="edge49" class="edge"><title>node17&#45;&gt;node30</title>
<path fill="none" stroke="black" d="M674.98,-155.452C715.089,-147.276 778.684,-138.369 832.642,-149 855.391,-153.482 879.446,-163.065 898.526,-171.947"/>
<polygon fill="black" stroke="black" points="897.21,-175.197 907.741,-176.36 900.234,-168.884 897.21,-175.197"/>
<text text-anchor="middle" x="785.197" y="-152.8" font-family="Times New Roman,serif" font-size="14.00"> (1)</text>
</g>
<!-- node23 -->
<g id="node24" class="node"><title>node23</title>
<ellipse fill="none" stroke="black" cx="785.197" cy="-657" rx="46.5926" ry="18"/>
<text text-anchor="middle" x="785.197" y="-653.3" font-family="Times New Roman,serif" font-size="14.00">(23) AND</text>
</g>
<!-- node18&#45;&gt;node23 -->
<g id="edge34" class="edge"><title>node18&#45;&gt;node23</title>
<path fill="none" stroke="black" d="M549.527,-822.104C587.749,-799.705 661.184,-755.338 719.751,-712 733.008,-702.19 747.016,-690.422 758.572,-680.294"/>
<polygon fill="black" stroke="black" points="760.978,-682.839 766.143,-673.588 756.336,-677.599 760.978,-682.839"/>
<text text-anchor="middle" x="634.305" y="-802.8" font-family="Times New Roman,serif" font-size="14.00"> (0)</text>
</g>
<!-- node19&#45;&gt;node30 -->
<g id="edge48" class="edge"><title>node19&#45;&gt;node30</title>
<path fill="none" stroke="black" d="M826.489,-191C842.687,-191 861.64,-191 879.138,-191"/>
<polygon fill="black" stroke="black" points="879.24,-194.5 889.24,-191 879.24,-187.5 879.24,-194.5"/>
<text text-anchor="middle" x="860.642" y="-194.8" font-family="Times New Roman,serif" font-size="14.00"> (0)</text>
</g>
<!-- node20&#45;&gt;node23 -->
<g id="edge35" class="edge"><title>node20&#45;&gt;node23</title>
<path fill="none" stroke="black" d="M681.599,-653.555C696.303,-654.048 712.726,-654.6 728.047,-655.114"/>
<polygon fill="black" stroke="black" points="728.331,-658.626 738.443,-655.464 728.566,-651.63 728.331,-658.626"/>
<text text-anchor="middle" x="709.751" y="-657.8" font-family="Times New Roman,serif" font-size="14.00"> (1)</text>
</g>
<!-- node35 -->
<g id="node36" class="node"><title>node35</title>
<ellipse fill="none" stroke="black" cx="1086.98" cy="-303" rx="40.8928" ry="18"/>
<text text-anchor="middle" x="1086.98" y="-299.3" font-family="Times New Roman,serif" font-size="14.00">(35) OR</text>
</g>
<!-- node21&#45;&gt;node35 -->
<g id="edge59" class="edge"><title>node21&#45;&gt;node35</title>
<path fill="none" stroke="black" d="M458.585,-607.974C536.888,-610.206 699.613,-610.122 832.642,-579 850.333,-574.861 971.366,-529.492 983.534,-516 1012.44,-483.945 1012.78,-363.879 1039.53,-330 1042.06,-326.797 1045.08,-323.901 1048.35,-321.299"/>
<polygon fill="black" stroke="black" points="1050.62,-323.991 1056.86,-315.434 1046.64,-318.228 1050.62,-323.991"/>
<text text-anchor="middle" x="785.197" y="-598.8" font-family="Times New Roman,serif" font-size="14.00"> (1)</text>
</g>
<!-- node22&#45;&gt;node24 -->
<g id="edge37" class="edge"><title>node22&#45;&gt;node24</title>
<path fill="none" stroke="black" d="M440.568,-483.921C447.506,-479.162 454.186,-473.191 458.567,-466 491.44,-412.051 442.867,-378.436 476.567,-325 484.161,-312.96 555.305,-269.789 599.091,-243.947"/>
<polygon fill="black" stroke="black" points="600.878,-246.957 607.721,-238.869 597.328,-240.924 600.878,-246.957"/>
<text text-anchor="middle" x="522.713" y="-328.8" font-family="Times New Roman,serif" font-size="14.00"> (1)</text>
</g>
<!-- node22&#45;&gt;node25 -->
<g id="edge39" class="edge"><title>node22&#45;&gt;node25</title>
<path fill="none" stroke="black" d="M440.074,-483.602C447.01,-478.842 453.812,-472.95 458.567,-466 478.168,-437.351 453.196,-415.666 476.567,-390 502.332,-361.706 543.726,-348.507 577.506,-342.355"/>
<polygon fill="black" stroke="black" points="578.426,-345.75 587.72,-340.663 577.282,-338.844 578.426,-345.75"/>
<text text-anchor="middle" x="522.713" y="-393.8" font-family="Times New Roman,serif" font-size="14.00"> (1)</text>
</g>
<!-- node23&#45;&gt;node31 -->
<g id="edge51" class="edge"><title>node23&#45;&gt;node31</title>
<path fill="none" stroke="black" d="M830.466,-651.945C846.154,-650.154 863.995,-648.117 880.444,-646.239"/>
<polygon fill="black" stroke="black" points="880.937,-649.706 890.475,-645.094 880.142,-642.751 880.937,-649.706"/>
<text text-anchor="middle" x="860.642" y="-652.8" font-family="Times New Roman,serif" font-size="14.00"> (1)</text>
</g>
<!-- node32 -->
<g id="node33" class="node"><title>node32</title>
<ellipse fill="none" stroke="black" cx="785.197" cy="-552" rx="47.3916" ry="18"/>
<text text-anchor="middle" x="785.197" y="-548.3" font-family="Times New Roman,serif" font-size="14.00">(32) XOR</text>
</g>
<!-- node24&#45;&gt;node32 -->
<g id="edge53" class="edge"><title>node24&#45;&gt;node32</title>
<path fill="none" stroke="black" d="M652.963,-240.525C676.555,-262.787 715.862,-300.6 719.751,-309 759.295,-394.408 690.471,-438.619 737.751,-520 740.204,-524.223 743.465,-528.015 747.124,-531.384"/>
<polygon fill="black" stroke="black" points="745.063,-534.217 755.067,-537.707 749.423,-528.74 745.063,-534.217"/>
<text text-anchor="middle" x="709.751" y="-312.8" font-family="Times New Roman,serif" font-size="14.00"> (1)</text>
</g>
<!-- node33 -->
<g id="node34" class="node"><title>node33</title>
<ellipse fill="none" stroke="black" cx="1086.98" cy="-357" rx="40.8928" ry="18"/>
<text text-anchor="middle" x="1086.98" y="-353.3" font-family="Times New Roman,serif" font-size="14.00">(33) OR</text>
</g>
<!-- node24&#45;&gt;node33 -->
<g id="edge54" class="edge"><title>node24&#45;&gt;node33</title>
<path fill="none" stroke="black" d="M677.285,-231.231C717.512,-238.56 779.75,-250.946 832.642,-266 909.968,-288.008 997.771,-321.531 1047.05,-341.155"/>
<polygon fill="black" stroke="black" points="1045.79,-344.422 1056.38,-344.887 1048.39,-337.922 1045.79,-344.422"/>
<text text-anchor="middle" x="860.642" y="-280.8" font-family="Times New Roman,serif" font-size="14.00"> (0)</text>
</g>
<!-- node25&#45;&gt;node27 -->
<g id="edge42" class="edge"><title>node25&#45;&gt;node27</title>
<path fill="none" stroke="black" d="M680.382,-332.156C696.046,-330.473 713.777,-328.567 730.095,-326.814"/>
<polygon fill="black" stroke="black" points="730.473,-330.293 740.041,-325.745 729.725,-323.334 730.473,-330.293"/>
<text text-anchor="middle" x="709.751" y="-332.8" font-family="Times New Roman,serif" font-size="14.00"> (0)</text>
</g>
<!-- node26&#45;&gt;node33 -->
<g id="edge55" class="edge"><title>node26&#45;&gt;node33</title>
<path fill="none" stroke="black" d="M982.976,-357C999.533,-357 1018.31,-357 1035.26,-357"/>
<polygon fill="black" stroke="black" points="1035.54,-360.5 1045.54,-357 1035.54,-353.5 1035.54,-360.5"/>
<text text-anchor="middle" x="1011.53" y="-360.8" font-family="Times New Roman,serif" font-size="14.00"> (1)</text>
</g>
<!-- node38 -->
<g id="node39" class="node"><title>node38</title>
<ellipse fill="none" stroke="black" cx="1086.98" cy="-554" rx="47.3916" ry="18"/>
<text text-anchor="middle" x="1086.98" y="-550.3" font-family="Times New Roman,serif" font-size="14.00">(38) XOR</text>
</g>
<!-- node26&#45;&gt;node38 -->
<g id="edge65" class="edge"><title>node26&#45;&gt;node38</title>
<path fill="none" stroke="black" d="M950.301,-374.482C976.68,-409.384 1035.97,-487.828 1066.69,-528.484"/>
<polygon fill="black" stroke="black" points="1063.97,-530.689 1072.8,-536.557 1069.56,-526.469 1063.97,-530.689"/>
<text text-anchor="middle" x="1011.53" y="-470.8" font-family="Times New Roman,serif" font-size="14.00"> (1)</text>
</g>
<!-- node27&#45;&gt;node28 -->
<g id="edge44" class="edge"><title>node27&#45;&gt;node28</title>
<path fill="none" stroke="black" d="M814.462,-335.322C832.13,-345.274 854.511,-359.812 870.642,-377 894.255,-402.16 912.758,-437.517 923.767,-461.735"/>
<polygon fill="black" stroke="black" points="920.642,-463.322 927.884,-471.055 927.045,-460.494 920.642,-463.322"/>
<text text-anchor="middle" x="860.642" y="-380.8" font-family="Times New Roman,serif" font-size="14.00"> (0)</text>
</g>
<!-- node37 -->
<g id="node38" class="node"><title>node37</title>
<ellipse fill="none" stroke="black" cx="1086.98" cy="-640" rx="47.3916" ry="18"/>
<text text-anchor="middle" x="1086.98" y="-636.3" font-family="Times New Roman,serif" font-size="14.00">(37) XOR</text>
</g>
<!-- node28&#45;&gt;node37 -->
<g id="edge62" class="edge"><title>node28&#45;&gt;node37</title>
<path fill="none" stroke="black" d="M953.591,-505.737C979.975,-532.494 1031.77,-585.023 1062.17,-615.848"/>
<polygon fill="black" stroke="black" points="1059.89,-618.525 1069.4,-623.188 1064.87,-613.61 1059.89,-618.525"/>
<text text-anchor="middle" x="1011.53" y="-576.8" font-family="Times New Roman,serif" font-size="14.00"> (0)</text>
</g>
<!-- node29&#45;&gt;node32 -->
<g id="edge52" class="edge"><title>node29&#45;&gt;node32</title>
<path fill="none" stroke="black" d="M323.493,-747.486C340.707,-736.231 361.406,-722.836 363.676,-722 368.361,-720.275 716.146,-676.453 719.751,-673 748.893,-645.083 715.515,-617.678 737.751,-584 740.578,-579.718 744.194,-575.847 748.158,-572.4"/>
<polygon fill="black" stroke="black" points="750.301,-575.167 756.092,-566.295 746.032,-569.62 750.301,-575.167"/>
<text text-anchor="middle" x="522.713" y="-709.8" font-family="Times New Roman,serif" font-size="14.00"> (0)</text>
</g>
<!-- node34 -->
<g id="node35" class="node"><title>node34</title>
<ellipse fill="none" stroke="black" cx="1237.87" cy="-411" rx="46.5926" ry="18"/>
<text text-anchor="middle" x="1237.87" y="-407.3" font-family="Times New Roman,serif" font-size="14.00">(34) AND</text>
</g>
<!-- node29&#45;&gt;node34 -->
<g id="edge57" class="edge"><title>node29&#45;&gt;node34</title>
<path fill="none" stroke="black" d="M340.992,-754.972C385.387,-747.013 458.28,-736 521.713,-736 521.713,-736 521.713,-736 1087.98,-736 1217.79,-736 1234.87,-519.045 1236.78,-439.657"/>
<polygon fill="black" stroke="black" points="1240.28,-439.464 1236.96,-429.405 1233.28,-439.342 1240.28,-439.464"/>
<text text-anchor="middle" x="785.197" y="-739.8" font-family="Times New Roman,serif" font-size="14.00"> (1)</text>
</g>
<!-- node30&#45;&gt;node35 -->
<g id="edge58" class="edge"><title>node30&#45;&gt;node35</title>
<path fill="none" stroke="black" d="M982.547,-193.614C995.948,-196.045 1010.08,-200.383 1021.53,-208 1046.4,-224.531 1064.24,-254.253 1074.75,-276.063"/>
<polygon fill="black" stroke="black" points="1071.58,-277.537 1078.94,-285.157 1077.94,-274.61 1071.58,-277.537"/>
<text text-anchor="middle" x="1011.53" y="-211.8" font-family="Times New Roman,serif" font-size="14.00"> (0)</text>
</g>
<!-- node31&#45;&gt;node37 -->
<g id="edge63" class="edge"><title>node31&#45;&gt;node37</title>
<path fill="none" stroke="black" d="M983.79,-640C998.203,-640 1014.23,-640 1029.25,-640"/>
<polygon fill="black" stroke="black" points="1029.44,-643.5 1039.44,-640 1029.44,-636.5 1029.44,-643.5"/>
<text text-anchor="middle" x="1011.53" y="-643.8" font-family="Times New Roman,serif" font-size="14.00"> (1)</text>
</g>
<!-- node32&#45;&gt;node38 -->
<g id="edge64" class="edge"><title>node32&#45;&gt;node38</title>
<path fill="none" stroke="black" d="M829.216,-558.943C876.458,-565.59 954.521,-573.692 1021.53,-567 1026.32,-566.522 1031.28,-565.849 1036.22,-565.058"/>
<polygon fill="black" stroke="black" points="1037.04,-568.467 1046.29,-563.293 1035.84,-561.573 1037.04,-568.467"/>
<text text-anchor="middle" x="936.088" y="-572.8" font-family="Times New Roman,serif" font-size="14.00"> (0)</text>
</g>
<!-- node33&#45;&gt;node34 -->
<g id="edge56" class="edge"><title>node33&#45;&gt;node34</title>
<path fill="none" stroke="black" d="M1119.19,-368.32C1140.78,-376.149 1169.78,-386.668 1193.59,-395.304"/>
<polygon fill="black" stroke="black" points="1192.51,-398.636 1203.11,-398.755 1194.9,-392.055 1192.51,-398.636"/>
<text text-anchor="middle" x="1162.43" y="-390.8" font-family="Times New Roman,serif" font-size="14.00"> (0)</text>
</g>
<!-- node36 -->
<g id="node37" class="node"><title>node36</title>
<ellipse fill="none" stroke="black" cx="1237.87" cy="-346" rx="47.3916" ry="18"/>
<text text-anchor="middle" x="1237.87" y="-342.3" font-family="Times New Roman,serif" font-size="14.00">(36) XOR</text>
</g>
<!-- node33&#45;&gt;node36 -->
<g id="edge60" class="edge"><title>node33&#45;&gt;node36</title>
<path fill="none" stroke="black" d="M1127.49,-354.081C1143.84,-352.873 1163.09,-351.451 1180.85,-350.139"/>
<polygon fill="black" stroke="black" points="1181.39,-353.609 1191.11,-349.381 1180.87,-346.628 1181.39,-353.609"/>
<text text-anchor="middle" x="1162.43" y="-355.8" font-family="Times New Roman,serif" font-size="14.00"> (0)</text>
</g>
<!-- node44 -->
<g id="node45" class="node"><title>node44</title>
<ellipse fill="none" stroke="black" cx="1365.21" cy="-411" rx="42.7926" ry="18"/>
<text text-anchor="middle" x="1365.21" y="-407.3" font-family="Times New Roman,serif" font-size="14.00">Output 5</text>
</g>
<!-- node34&#45;&gt;node44 -->
<g id="edge71" class="edge"><title>node34&#45;&gt;node44</title>
<path fill="none" stroke="black" d="M1284.83,-411C1293.67,-411 1302.98,-411 1311.99,-411"/>
<polygon fill="black" stroke="black" points="1312,-414.5 1322,-411 1312,-407.5 1312,-414.5"/>
</g>
<!-- node35&#45;&gt;node36 -->
<g id="edge61" class="edge"><title>node35&#45;&gt;node36</title>
<path fill="none" stroke="black" d="M1121.77,-312.757C1141.85,-318.559 1167.64,-326.007 1189.71,-332.381"/>
<polygon fill="black" stroke="black" points="1188.98,-335.813 1199.56,-335.225 1190.92,-329.087 1188.98,-335.813"/>
<text text-anchor="middle" x="1162.43" y="-330.8" font-family="Times New Roman,serif" font-size="14.00"> (1)</text>
</g>
<!-- node42 -->
<g id="node43" class="node"><title>node42</title>
<ellipse fill="none" stroke="black" cx="1365.21" cy="-346" rx="42.7926" ry="18"/>
<text text-anchor="middle" x="1365.21" y="-342.3" font-family="Times New Roman,serif" font-size="14.00">Output 3</text>
</g>
<!-- node36&#45;&gt;node42 -->
<g id="edge69" class="edge"><title>node36&#45;&gt;node42</title>
<path fill="none" stroke="black" d="M1285.54,-346C1294.15,-346 1303.18,-346 1311.94,-346"/>
<polygon fill="black" stroke="black" points="1312.05,-349.5 1322.05,-346 1312.05,-342.5 1312.05,-349.5"/>
</g>
<!-- node41 -->
<g id="node42" class="node"><title>node41</title>
<ellipse fill="none" stroke="black" cx="1365.21" cy="-761" rx="42.7926" ry="18"/>
<text text-anchor="middle" x="1365.21" y="-757.3" font-family="Times New Roman,serif" font-size="14.00">Output 2</text>
</g>
<!-- node37&#45;&gt;node41 -->
<g id="edge68" class="edge"><title>node37&#45;&gt;node41</title>
<path fill="none" stroke="black" d="M1118.86,-653.528C1169.46,-675.693 1269.93,-719.7 1325.31,-743.961"/>
<polygon fill="black" stroke="black" points="1324.22,-747.302 1334.78,-748.108 1327.03,-740.89 1324.22,-747.302"/>
</g>
<!-- node43 -->
<g id="node44" class="node"><title>node43</title>
<ellipse fill="none" stroke="black" cx="1365.21" cy="-554" rx="42.7926" ry="18"/>
<text text-anchor="middle" x="1365.21" y="-550.3" font-family="Times New Roman,serif" font-size="14.00">Output 4</text>
</g>
<!-- node38&#45;&gt;node43 -->
<g id="edge70" class="edge"><title>node38&#45;&gt;node43</title>
<path fill="none" stroke="black" d="M1134.53,-554C1183.58,-554 1260.68,-554 1311.83,-554"/>
<polygon fill="black" stroke="black" points="1312.01,-557.5 1322.01,-554 1312.01,-550.5 1312.01,-557.5"/>
</g>
</g>
</svg>
