<?xml version="1.0" encoding="UTF-8" standalone="no"?>
<!DOCTYPE svg PUBLIC "-//W3C//DTD SVG 1.1//EN"
 "http://www.w3.org/Graphics/SVG/1.1/DTD/svg11.dtd">
<!-- Generated by graphviz version 2.38.0 (20140413.2041)
 -->
<!-- Title: NeuralNetwork Pages: 1 -->
<svg width="288pt" height="114pt"
 viewBox="0.00 0.00 288.00 114.03" xmlns="http://www.w3.org/2000/svg" xmlns:xlink="http://www.w3.org/1999/xlink">
<g id="graph0" class="graph" transform="scale(0.261548 0.261548) rotate(0) translate(4 432)">
<title>NeuralNetwork</title>
<polygon fill="white" stroke="none" points="-4,4 -4,-432 1097.14,-432 1097.14,4 -4,4"/>
<!-- node0 -->
<g id="node1" class="node"><title>node0</title>
<ellipse fill="none" stroke="black" cx="42.2463" cy="-223" rx="42.4939" ry="18"/>
<text text-anchor="middle" x="42.2463" y="-219.3" font-family="Times New Roman,serif" font-size="14.00">(0) Input</text>
</g>
<!-- node6 -->
<g id="node7" class="node"><title>node6</title>
<ellipse fill="none" stroke="black" cx="329.731" cy="-213" rx="36.2938" ry="18"/>
<text text-anchor="middle" x="329.731" y="-209.3" font-family="Times New Roman,serif" font-size="14.00">(6) OR</text>
</g>
<!-- node0&#45;&gt;node6 -->
<g id="edge4" class="edge"><title>node0&#45;&gt;node6</title>
<path fill="none" stroke="black" d="M84.6797,-223.788C90.6564,-223.876 96.7318,-223.951 102.493,-224 165.239,-224.53 237.664,-220.125 283.322,-216.732"/>
<polygon fill="black" stroke="black" points="283.781,-220.207 293.487,-215.96 283.251,-213.227 283.781,-220.207"/>
<text text-anchor="middle" x="183.389" y="-226.8" font-family="Times New Roman,serif" font-size="14.00"> (1)</text>
</g>
<!-- node7 -->
<g id="node8" class="node"><title>node7</title>
<ellipse fill="none" stroke="black" cx="183.389" cy="-184" rx="42.7926" ry="18"/>
<text text-anchor="middle" x="183.389" y="-180.3" font-family="Times New Roman,serif" font-size="14.00">(7) XOR</text>
</g>
<!-- node0&#45;&gt;node7 -->
<g id="edge5" class="edge"><title>node0&#45;&gt;node7</title>
<path fill="none" stroke="black" d="M77.9988,-213.259C95.9578,-208.226 118.087,-202.023 137.343,-196.626"/>
<polygon fill="black" stroke="black" points="138.428,-199.956 147.113,-193.887 136.539,-193.216 138.428,-199.956"/>
<text text-anchor="middle" x="112.493" y="-208.8" font-family="Times New Roman,serif" font-size="14.00"> (0)</text>
</g>
<!-- node1 -->
<g id="node2" class="node"><title>node1</title>
<ellipse fill="none" stroke="black" cx="42.2463" cy="-306" rx="42.4939" ry="18"/>
<text text-anchor="middle" x="42.2463" y="-302.3" font-family="Times New Roman,serif" font-size="14.00">(1) Input</text>
</g>
<!-- node11 -->
<g id="node12" class="node"><title>node11</title>
<ellipse fill="none" stroke="black" cx="621.115" cy="-290" rx="47.3916" ry="18"/>
<text text-anchor="middle" x="621.115" y="-286.3" font-family="Times New Roman,serif" font-size="14.00">(11) XOR</text>
</g>
<!-- node1&#45;&gt;node11 -->
<g id="edge14" class="edge"><title>node1&#45;&gt;node11</title>
<path fill="none" stroke="black" d="M77.8186,-296.263C105.786,-289.243 146.31,-281 182.389,-281 182.389,-281 182.389,-281 476.423,-281 505.55,-281 537.934,-282.865 564.574,-284.897"/>
<polygon fill="black" stroke="black" points="564.613,-288.411 574.858,-285.711 565.166,-281.433 564.613,-288.411"/>
<text text-anchor="middle" x="329.731" y="-284.8" font-family="Times New Roman,serif" font-size="14.00"> (1)</text>
</g>
<!-- node12 -->
<g id="node13" class="node"><title>node12</title>
<ellipse fill="none" stroke="black" cx="621.115" cy="-236" rx="46.5926" ry="18"/>
<text text-anchor="middle" x="621.115" y="-232.3" font-family="Times New Roman,serif" font-size="14.00">(12) AND</text>
</g>
<!-- node1&#45;&gt;node12 -->
<g id="edge16" class="edge"><title>node1&#45;&gt;node12</title>
<path fill="none" stroke="black" d="M77.5087,-316.052C105.471,-323.369 146.141,-332 182.389,-332 182.389,-332 182.389,-332 476.423,-332 529.418,-332 529.105,-291.68 573.669,-263 577.287,-260.672 581.108,-258.306 584.943,-255.992"/>
<polygon fill="black" stroke="black" points="587.007,-258.837 593.826,-250.728 583.438,-252.815 587.007,-258.837"/>
<text text-anchor="middle" x="329.731" y="-335.8" font-family="Times New Roman,serif" font-size="14.00"> (1)</text>
</g>
<!-- node2 -->
<g id="node3" class="node"><title>node2</title>
<ellipse fill="none" stroke="black" cx="42.2463" cy="-132" rx="42.4939" ry="18"/>
<text text-anchor="middle" x="42.2463" y="-128.3" font-family="Times New Roman,serif" font-size="14.00">(2) Input</text>
</g>
<!-- node5 -->
<g id="node6" class="node"><title>node5</title>
<ellipse fill="none" stroke="black" cx="183.389" cy="-130" rx="42.4939" ry="18"/>
<text text-anchor="middle" x="183.389" y="-126.3" font-family="Times New Roman,serif" font-size="14.00">(5) AND</text>
</g>
<!-- node2&#45;&gt;node5 -->
<g id="edge1" class="edge"><title>node2&#45;&gt;node5</title>
<path fill="none" stroke="black" d="M84.6168,-131.405C99.0664,-131.198 115.47,-130.962 130.656,-130.744"/>
<polygon fill="black" stroke="black" points="130.989,-134.239 140.937,-130.596 130.888,-127.24 130.989,-134.239"/>
<text text-anchor="middle" x="112.493" y="-134.8" font-family="Times New Roman,serif" font-size="14.00"> (0)</text>
</g>
<!-- node2&#45;&gt;node7 -->
<g id="edge6" class="edge"><title>node2&#45;&gt;node7</title>
<path fill="none" stroke="black" d="M74.4725,-143.67C94.2057,-151.044 119.924,-160.656 141.304,-168.646"/>
<polygon fill="black" stroke="black" points="140.193,-171.967 150.785,-172.189 142.643,-165.41 140.193,-171.967"/>
<text text-anchor="middle" x="112.493" y="-164.8" font-family="Times New Roman,serif" font-size="14.00"> (1)</text>
</g>
<!-- node8 -->
<g id="node9" class="node"><title>node8</title>
<ellipse fill="none" stroke="black" cx="183.389" cy="-76" rx="36.2938" ry="18"/>
<text text-anchor="middle" x="183.389" y="-72.3" font-family="Times New Roman,serif" font-size="14.00">(8) OR</text>
</g>
<!-- node2&#45;&gt;node8 -->
<g id="edge7" class="edge"><title>node2&#45;&gt;node8</title>
<path fill="none" stroke="black" d="M73.4381,-119.849C94.4647,-111.386 122.647,-100.044 145.08,-91.0153"/>
<polygon fill="black" stroke="black" points="146.65,-94.1564 154.62,-87.1758 144.037,-87.6626 146.65,-94.1564"/>
<text text-anchor="middle" x="112.493" y="-110.8" font-family="Times New Roman,serif" font-size="14.00"> (0)</text>
</g>
<!-- node3 -->
<g id="node4" class="node"><title>node3</title>
<ellipse fill="none" stroke="black" cx="42.2463" cy="-394" rx="42.4939" ry="18"/>
<text text-anchor="middle" x="42.2463" y="-390.3" font-family="Times New Roman,serif" font-size="14.00">(3) Input</text>
</g>
<!-- node13 -->
<g id="node14" class="node"><title>node13</title>
<ellipse fill="none" stroke="black" cx="772.006" cy="-344" rx="47.3916" ry="18"/>
<text text-anchor="middle" x="772.006" y="-340.3" font-family="Times New Roman,serif" font-size="14.00">(13) XOR</text>
</g>
<!-- node3&#45;&gt;node13 -->
<g id="edge18" class="edge"><title>node3&#45;&gt;node13</title>
<path fill="none" stroke="black" d="M80.5585,-401.893C108.469,-407.113 147.646,-413 182.389,-413 182.389,-413 182.389,-413 622.115,-413 661.133,-413 671.313,-405.733 706.561,-389 719.206,-382.997 732.065,-374.579 742.935,-366.646"/>
<polygon fill="black" stroke="black" points="745.296,-369.251 751.185,-360.444 741.089,-363.656 745.296,-369.251"/>
<text text-anchor="middle" x="405.176" y="-416.8" font-family="Times New Roman,serif" font-size="14.00"> (1)</text>
</g>
<!-- node14 -->
<g id="node15" class="node"><title>node14</title>
<ellipse fill="none" stroke="black" cx="772.006" cy="-290" rx="46.5926" ry="18"/>
<text text-anchor="middle" x="772.006" y="-286.3" font-family="Times New Roman,serif" font-size="14.00">(14) AND</text>
</g>
<!-- node3&#45;&gt;node14 -->
<g id="edge20" class="edge"><title>node3&#45;&gt;node14</title>
<path fill="none" stroke="black" d="M80.5585,-386.107C108.469,-380.887 147.646,-375 182.389,-375 182.389,-375 182.389,-375 622.115,-375 662.914,-375 673.934,-363.497 706.561,-339 716.663,-331.415 714.945,-325.195 724.561,-317 727.589,-314.419 730.897,-311.949 734.308,-309.624"/>
<polygon fill="black" stroke="black" points="736.337,-312.482 742.899,-304.163 732.582,-306.574 736.337,-312.482"/>
<text text-anchor="middle" x="405.176" y="-378.8" font-family="Times New Roman,serif" font-size="14.00"> (1)</text>
</g>
<!-- node4 -->
<g id="node5" class="node"><title>node4</title>
<ellipse fill="none" stroke="black" cx="42.2463" cy="-18" rx="42.4939" ry="18"/>
<text text-anchor="middle" x="42.2463" y="-14.3" font-family="Times New Roman,serif" font-size="14.00">(4) Input</text>
</g>
<!-- node4&#45;&gt;node5 -->
<g id="edge2" class="edge"><title>node4&#45;&gt;node5</title>
<path fill="none" stroke="black" d="M65.1304,-33.4205C81.6495,-45.5175 104.471,-63.2298 122.493,-81 131.488,-89.8702 131.068,-94.5867 140.493,-103 143.089,-105.318 145.903,-107.573 148.803,-109.73"/>
<polygon fill="black" stroke="black" points="146.889,-112.662 157.093,-115.511 150.893,-106.92 146.889,-112.662"/>
<text text-anchor="middle" x="112.493" y="-84.8" font-family="Times New Roman,serif" font-size="14.00"> (1)</text>
</g>
<!-- node4&#45;&gt;node8 -->
<g id="edge8" class="edge"><title>node4&#45;&gt;node8</title>
<path fill="none" stroke="black" d="M83.082,-12.847C96.0563,-12.6337 110.259,-14.0195 122.493,-19 138.852,-25.6601 153.322,-39.0863 163.941,-51.2357"/>
<polygon fill="black" stroke="black" points="161.264,-53.4907 170.343,-58.9512 166.651,-49.0206 161.264,-53.4907"/>
<text text-anchor="middle" x="112.493" y="-22.8" font-family="Times New Roman,serif" font-size="14.00"> (1)</text>
</g>
<!-- node10 -->
<g id="node11" class="node"><title>node10</title>
<ellipse fill="none" stroke="black" cx="329.731" cy="-143" rx="47.3916" ry="18"/>
<text text-anchor="middle" x="329.731" y="-139.3" font-family="Times New Roman,serif" font-size="14.00">(10) XOR</text>
</g>
<!-- node4&#45;&gt;node10 -->
<g id="edge11" class="edge"><title>node4&#45;&gt;node10</title>
<path fill="none" stroke="black" d="M82.3698,-11.9627C89.0672,-11.1457 95.9684,-10.4385 102.493,-10 158.41,-6.24182 178.746,-4.31936 226.285,-34 259.787,-54.9169 254.768,-74.6676 282.285,-103 287.915,-108.797 294.292,-114.674 300.477,-120.075"/>
<polygon fill="black" stroke="black" points="298.261,-122.785 308.138,-126.617 302.807,-117.462 298.261,-122.785"/>
<text text-anchor="middle" x="183.389" y="-37.8" font-family="Times New Roman,serif" font-size="14.00"> (0)</text>
</g>
<!-- node5&#45;&gt;node6 -->
<g id="edge3" class="edge"><title>node5&#45;&gt;node6</title>
<path fill="none" stroke="black" d="M225.712,-130.328C238.87,-132.043 252.942,-135.697 264.285,-143 276.411,-150.808 272.928,-159.025 282.285,-170 288.331,-177.092 295.469,-184.205 302.312,-190.546"/>
<polygon fill="black" stroke="black" points="300.354,-193.493 310.125,-197.588 305.04,-188.293 300.354,-193.493"/>
<text text-anchor="middle" x="254.285" y="-146.8" font-family="Times New Roman,serif" font-size="14.00"> (0)</text>
</g>
<!-- node9 -->
<g id="node10" class="node"><title>node9</title>
<ellipse fill="none" stroke="black" cx="475.423" cy="-213" rx="42.4939" ry="18"/>
<text text-anchor="middle" x="475.423" y="-209.3" font-family="Times New Roman,serif" font-size="14.00">(9) AND</text>
</g>
<!-- node6&#45;&gt;node9 -->
<g id="edge9" class="edge"><title>node6&#45;&gt;node9</title>
<path fill="none" stroke="black" d="M366.25,-213C383.29,-213 404.029,-213 422.772,-213"/>
<polygon fill="black" stroke="black" points="422.944,-216.5 432.944,-213 422.944,-209.5 422.944,-216.5"/>
<text text-anchor="middle" x="405.176" y="-216.8" font-family="Times New Roman,serif" font-size="14.00"> (0)</text>
</g>
<!-- node7&#45;&gt;node10 -->
<g id="edge12" class="edge"><title>node7&#45;&gt;node10</title>
<path fill="none" stroke="black" d="M219.33,-174.075C238.044,-168.759 261.357,-162.137 281.648,-156.374"/>
<polygon fill="black" stroke="black" points="282.67,-159.722 291.333,-153.623 280.757,-152.988 282.67,-159.722"/>
<text text-anchor="middle" x="254.285" y="-168.8" font-family="Times New Roman,serif" font-size="14.00"> (1)</text>
</g>
<!-- node8&#45;&gt;node9 -->
<g id="edge10" class="edge"><title>node8&#45;&gt;node9</title>
<path fill="none" stroke="black" d="M219.718,-73.3163C260.2,-71.8205 327.36,-74.2763 377.176,-101 413.918,-120.709 443.083,-160.289 459.559,-186.72"/>
<polygon fill="black" stroke="black" points="456.679,-188.722 464.849,-195.467 462.669,-185.099 456.679,-188.722"/>
<text text-anchor="middle" x="329.731" y="-104.8" font-family="Times New Roman,serif" font-size="14.00"> (1)</text>
</g>
<!-- node9&#45;&gt;node11 -->
<g id="edge13" class="edge"><title>node9&#45;&gt;node11</title>
<path fill="none" stroke="black" d="M504.615,-226.104C519.896,-233.399 539.01,-242.835 555.669,-252 563.884,-256.519 565.616,-258.199 573.669,-263 577.364,-265.203 581.236,-267.488 585.1,-269.755"/>
<polygon fill="black" stroke="black" points="583.617,-272.942 594.017,-274.963 587.147,-266.898 583.617,-272.942"/>
<text text-anchor="middle" x="545.669" y="-255.8" font-family="Times New Roman,serif" font-size="14.00"> (0)</text>
</g>
<!-- node9&#45;&gt;node12 -->
<g id="edge15" class="edge"><title>node9&#45;&gt;node12</title>
<path fill="none" stroke="black" d="M517.779,-211.061C530.049,-211.147 543.466,-211.895 555.669,-214 563.284,-215.313 571.211,-217.39 578.795,-219.755"/>
<polygon fill="black" stroke="black" points="577.918,-223.152 588.512,-222.989 580.129,-216.51 577.918,-223.152"/>
<text text-anchor="middle" x="545.669" y="-217.8" font-family="Times New Roman,serif" font-size="14.00"> (0)</text>
</g>
<!-- node16 -->
<g id="node17" class="node"><title>node16</title>
<ellipse fill="none" stroke="black" cx="1050.24" cy="-143" rx="42.7926" ry="18"/>
<text text-anchor="middle" x="1050.24" y="-139.3" font-family="Times New Roman,serif" font-size="14.00">Output 0</text>
</g>
<!-- node10&#45;&gt;node16 -->
<g id="edge23" class="edge"><title>node10&#45;&gt;node16</title>
<path fill="none" stroke="black" d="M377.324,-143C405.445,-143 441.992,-143 474.423,-143 474.423,-143 474.423,-143 923.898,-143 947.958,-143 974.616,-143 997.14,-143"/>
<polygon fill="black" stroke="black" points="997.173,-146.5 1007.17,-143 997.173,-139.5 997.173,-146.5"/>
</g>
<!-- node11&#45;&gt;node13 -->
<g id="edge17" class="edge"><title>node11&#45;&gt;node13</title>
<path fill="none" stroke="black" d="M655.901,-302.253C677.147,-309.959 704.766,-319.976 727.624,-328.266"/>
<polygon fill="black" stroke="black" points="726.503,-331.582 737.097,-331.702 728.889,-325.002 726.503,-331.582"/>
<text text-anchor="middle" x="696.561" y="-323.8" font-family="Times New Roman,serif" font-size="14.00"> (0)</text>
</g>
<!-- node11&#45;&gt;node14 -->
<g id="edge19" class="edge"><title>node11&#45;&gt;node14</title>
<path fill="none" stroke="black" d="M668.816,-290C683.368,-290 699.57,-290 714.706,-290"/>
<polygon fill="black" stroke="black" points="714.981,-293.5 724.981,-290 714.981,-286.5 714.981,-293.5"/>
<text text-anchor="middle" x="696.561" y="-293.8" font-family="Times New Roman,serif" font-size="14.00"> (0)</text>
</g>
<!-- node15 -->
<g id="node16" class="node"><title>node15</title>
<ellipse fill="none" stroke="black" cx="922.898" cy="-263" rx="47.3916" ry="18"/>
<text text-anchor="middle" x="922.898" y="-259.3" font-family="Times New Roman,serif" font-size="14.00">(15) XOR</text>
</g>
<!-- node12&#45;&gt;node15 -->
<g id="edge21" class="edge"><title>node12&#45;&gt;node15</title>
<path fill="none" stroke="black" d="M668.06,-237.692C708.112,-239.43 767.728,-242.65 819.452,-248 835.586,-249.669 853.074,-252.025 868.957,-254.376"/>
<polygon fill="black" stroke="black" points="868.722,-257.88 879.133,-255.913 869.768,-250.959 868.722,-257.88"/>
<text text-anchor="middle" x="772.006" y="-251.8" font-family="Times New Roman,serif" font-size="14.00"> (0)</text>
</g>
<!-- node17 -->
<g id="node18" class="node"><title>node17</title>
<ellipse fill="none" stroke="black" cx="1050.24" cy="-344" rx="42.7926" ry="18"/>
<text text-anchor="middle" x="1050.24" y="-340.3" font-family="Times New Roman,serif" font-size="14.00">Output 1</text>
</g>
<!-- node13&#45;&gt;node17 -->
<g id="edge24" class="edge"><title>node13&#45;&gt;node17</title>
<path fill="none" stroke="black" d="M819.553,-344C868.606,-344 945.703,-344 996.853,-344"/>
<polygon fill="black" stroke="black" points="997.038,-347.5 1007.04,-344 997.038,-340.5 997.038,-347.5"/>
</g>
<!-- node14&#45;&gt;node15 -->
<g id="edge22" class="edge"><title>node14&#45;&gt;node15</title>
<path fill="none" stroke="black" d="M814.877,-282.407C831.925,-279.316 851.812,-275.709 869.785,-272.45"/>
<polygon fill="black" stroke="black" points="870.61,-275.858 879.825,-270.629 869.361,-268.97 870.61,-275.858"/>
<text text-anchor="middle" x="847.452" y="-281.8" font-family="Times New Roman,serif" font-size="14.00"> (1)</text>
</g>
<!-- node18 -->
<g id="node19" class="node"><title>node18</title>
<ellipse fill="none" stroke="black" cx="1050.24" cy="-263" rx="42.7926" ry="18"/>
<text text-anchor="middle" x="1050.24" y="-259.3" font-family="Times New Roman,serif" font-size="14.00">Output 2</text>
</g>
<!-- node15&#45;&gt;node18 -->
<g id="edge25" class="edge"><title>node15&#45;&gt;node18</title>
<path fill="none" stroke="black" d="M970.571,-263C979.175,-263 988.211,-263 996.968,-263"/>
<polygon fill="black" stroke="black" points="997.078,-266.5 1007.08,-263 997.078,-259.5 997.078,-266.5"/>
</g>
</g>
</svg>
