<?xml version="1.0" encoding="UTF-8" standalone="no"?>
<!DOCTYPE svg PUBLIC "-//W3C//DTD SVG 1.1//EN"
 "http://www.w3.org/Graphics/SVG/1.1/DTD/svg11.dtd">
<!-- Generated by graphviz version 2.38.0 (20140413.2041)
 -->
<!-- Title: NeuralNetwork Pages: 1 -->
<svg width="288pt" height="139pt"
 viewBox="0.00 0.00 288.00 139.07" xmlns="http://www.w3.org/2000/svg" xmlns:xlink="http://www.w3.org/1999/xlink">
<g id="graph0" class="graph" transform="scale(0.17515 0.17515) rotate(0) translate(4 790)">
<title>NeuralNetwork</title>
<polygon fill="white" stroke="none" points="-4,4 -4,-790 1640.3,-790 1640.3,4 -4,4"/>
<!-- node0 -->
<g id="node1" class="node"><title>node0</title>
<ellipse fill="none" stroke="black" cx="42.2463" cy="-711" rx="42.4939" ry="18"/>
<text text-anchor="middle" x="42.2463" y="-707.3" font-family="Times New Roman,serif" font-size="14.00">(0) Input</text>
</g>
<!-- node7 -->
<g id="node8" class="node"><title>node7</title>
<ellipse fill="none" stroke="black" cx="187.938" cy="-193" rx="42.4939" ry="18"/>
<text text-anchor="middle" x="187.938" y="-189.3" font-family="Times New Roman,serif" font-size="14.00">(7) AND</text>
</g>
<!-- node0&#45;&gt;node7 -->
<g id="edge3" class="edge"><title>node0&#45;&gt;node7</title>
<path fill="none" stroke="black" d="M51.1892,-693.222C60.4157,-671.929 75.5156,-634.995 84.4925,-602 87.7774,-589.926 120.732,-392.388 122.493,-380 127.494,-344.795 121.289,-250.927 140.493,-221 142.781,-217.434 145.7,-214.257 148.957,-211.441"/>
<polygon fill="black" stroke="black" points="151.04,-214.254 157.033,-205.517 146.9,-208.61 151.04,-214.254"/>
<text text-anchor="middle" x="112.493" y="-500.8" font-family="Times New Roman,serif" font-size="14.00"> (0)</text>
</g>
<!-- node14 -->
<g id="node15" class="node"><title>node14</title>
<ellipse fill="none" stroke="black" cx="187.938" cy="-521" rx="46.5926" ry="18"/>
<text text-anchor="middle" x="187.938" y="-517.3" font-family="Times New Roman,serif" font-size="14.00">(14) AND</text>
</g>
<!-- node0&#45;&gt;node14 -->
<g id="edge18" class="edge"><title>node0&#45;&gt;node14</title>
<path fill="none" stroke="black" d="M56.2514,-693.804C81.6209,-660.258 137.828,-585.937 167.586,-546.589"/>
<polygon fill="black" stroke="black" points="170.619,-548.382 173.859,-538.294 165.035,-544.159 170.619,-548.382"/>
<text text-anchor="middle" x="112.493" y="-630.8" font-family="Times New Roman,serif" font-size="14.00"> (1)</text>
</g>
<!-- node27 -->
<g id="node28" class="node"><title>node27</title>
<ellipse fill="none" stroke="black" cx="187.938" cy="-768" rx="47.3916" ry="18"/>
<text text-anchor="middle" x="187.938" y="-764.3" font-family="Times New Roman,serif" font-size="14.00">(27) XOR</text>
</g>
<!-- node0&#45;&gt;node27 -->
<g id="edge43" class="edge"><title>node0&#45;&gt;node27</title>
<path fill="none" stroke="black" d="M56.2409,-728.091C67.054,-740.841 83.6784,-757.326 102.493,-765 111.465,-768.66 121.429,-770.631 131.276,-771.541"/>
<polygon fill="black" stroke="black" points="131.263,-775.046 141.449,-772.131 131.669,-768.058 131.263,-775.046"/>
<text text-anchor="middle" x="112.493" y="-773.8" font-family="Times New Roman,serif" font-size="14.00"> (0)</text>
</g>
<!-- node1 -->
<g id="node2" class="node"><title>node1</title>
<ellipse fill="none" stroke="black" cx="42.2463" cy="-224" rx="42.4939" ry="18"/>
<text text-anchor="middle" x="42.2463" y="-220.3" font-family="Times New Roman,serif" font-size="14.00">(1) Input</text>
</g>
<!-- node6 -->
<g id="node7" class="node"><title>node6</title>
<ellipse fill="none" stroke="black" cx="187.938" cy="-248" rx="42.4939" ry="18"/>
<text text-anchor="middle" x="187.938" y="-244.3" font-family="Times New Roman,serif" font-size="14.00">(6) AND</text>
</g>
<!-- node1&#45;&gt;node6 -->
<g id="edge2" class="edge"><title>node1&#45;&gt;node6</title>
<path fill="none" stroke="black" d="M82.3862,-229.659C95.1841,-231.581 109.458,-233.8 122.493,-236 127.893,-236.911 133.541,-237.904 139.152,-238.916"/>
<polygon fill="black" stroke="black" points="138.684,-242.388 149.15,-240.743 139.942,-235.502 138.684,-242.388"/>
<text text-anchor="middle" x="112.493" y="-239.8" font-family="Times New Roman,serif" font-size="14.00"> (1)</text>
</g>
<!-- node10 -->
<g id="node11" class="node"><title>node10</title>
<ellipse fill="none" stroke="black" cx="187.938" cy="-139" rx="46.5926" ry="18"/>
<text text-anchor="middle" x="187.938" y="-135.3" font-family="Times New Roman,serif" font-size="14.00">(10) AND</text>
</g>
<!-- node1&#45;&gt;node10 -->
<g id="edge10" class="edge"><title>node1&#45;&gt;node10</title>
<path fill="none" stroke="black" d="M64.0452,-208.234C71.2715,-201.944 78.9461,-194.238 84.4925,-186 97.217,-167.1 83.7657,-150.978 102.493,-138 112.857,-130.817 125.789,-128.574 138.394,-128.761"/>
<polygon fill="black" stroke="black" points="138.178,-132.255 148.377,-129.385 138.614,-125.268 138.178,-132.255"/>
<text text-anchor="middle" x="112.493" y="-141.8" font-family="Times New Roman,serif" font-size="14.00"> (1)</text>
</g>
<!-- node11 -->
<g id="node12" class="node"><title>node11</title>
<ellipse fill="none" stroke="black" cx="187.938" cy="-361" rx="46.5926" ry="18"/>
<text text-anchor="middle" x="187.938" y="-357.3" font-family="Times New Roman,serif" font-size="14.00">(11) AND</text>
</g>
<!-- node1&#45;&gt;node11 -->
<g id="edge11" class="edge"><title>node1&#45;&gt;node11</title>
<path fill="none" stroke="black" d="M49.0887,-241.931C59.8596,-273.831 83.4833,-338.379 102.493,-352 111.03,-358.117 121.354,-361.527 131.811,-363.262"/>
<polygon fill="black" stroke="black" points="131.48,-366.748 141.822,-364.447 132.302,-359.796 131.48,-366.748"/>
<text text-anchor="middle" x="112.493" y="-364.8" font-family="Times New Roman,serif" font-size="14.00"> (0)</text>
</g>
<!-- node20 -->
<g id="node21" class="node"><title>node20</title>
<ellipse fill="none" stroke="black" cx="338.83" cy="-169" rx="40.8928" ry="18"/>
<text text-anchor="middle" x="338.83" y="-165.3" font-family="Times New Roman,serif" font-size="14.00">(20) OR</text>
</g>
<!-- node1&#45;&gt;node20 -->
<g id="edge30" class="edge"><title>node1&#45;&gt;node20</title>
<path fill="none" stroke="black" d="M64.3495,-208.432C71.6088,-202.163 79.2264,-194.42 84.4925,-186 99.2552,-162.395 86.6533,-148.896 102.493,-126 114.579,-108.528 120.366,-103.803 140.493,-97 180.446,-83.4961 195.173,-84.2829 235.384,-97 265.625,-106.564 294.671,-128.612 314.062,-145.809"/>
<polygon fill="black" stroke="black" points="311.757,-148.444 321.505,-152.595 316.473,-143.271 311.757,-148.444"/>
<text text-anchor="middle" x="187.938" y="-100.8" font-family="Times New Roman,serif" font-size="14.00"> (1)</text>
</g>
<!-- node2 -->
<g id="node3" class="node"><title>node2</title>
<ellipse fill="none" stroke="black" cx="42.2463" cy="-575" rx="42.4939" ry="18"/>
<text text-anchor="middle" x="42.2463" y="-571.3" font-family="Times New Roman,serif" font-size="14.00">(2) Input</text>
</g>
<!-- node13 -->
<g id="node14" class="node"><title>node13</title>
<ellipse fill="none" stroke="black" cx="562.663" cy="-315" rx="40.8928" ry="18"/>
<text text-anchor="middle" x="562.663" y="-311.3" font-family="Times New Roman,serif" font-size="14.00">(13) OR</text>
</g>
<!-- node2&#45;&gt;node13 -->
<g id="edge15" class="edge"><title>node2&#45;&gt;node13</title>
<path fill="none" stroke="black" d="M77.0425,-564.503C92.5295,-558.279 110.144,-549.014 122.493,-536 136.471,-521.268 125.667,-507.879 140.493,-494 231.242,-409.045 286.076,-439.493 404.276,-401 445.56,-387.556 463.382,-399.38 497.867,-373 509.916,-363.783 505.189,-354.775 515.867,-344 519.25,-340.587 523.105,-337.381 527.11,-334.437"/>
<polygon fill="black" stroke="black" points="529.135,-337.293 535.436,-328.776 525.199,-331.504 529.135,-337.293"/>
<text text-anchor="middle" x="263.384" y="-434.8" font-family="Times New Roman,serif" font-size="14.00"> (0)</text>
</g>
<!-- node21 -->
<g id="node22" class="node"><title>node21</title>
<ellipse fill="none" stroke="black" cx="712.905" cy="-420" rx="46.5926" ry="18"/>
<text text-anchor="middle" x="712.905" y="-416.3" font-family="Times New Roman,serif" font-size="14.00">(21) AND</text>
</g>
<!-- node2&#45;&gt;node21 -->
<g id="edge32" class="edge"><title>node2&#45;&gt;node21</title>
<path fill="none" stroke="black" d="M83.3251,-579.659C163.984,-587.618 350.761,-598.856 497.867,-553 507.828,-549.895 621.829,-477.543 679.258,-440.887"/>
<polygon fill="black" stroke="black" points="681.421,-443.658 687.965,-435.326 677.653,-437.759 681.421,-443.658"/>
<text text-anchor="middle" x="338.83" y="-588.8" font-family="Times New Roman,serif" font-size="14.00"> (1)</text>
</g>
<!-- node2&#45;&gt;node27 -->
<g id="edge44" class="edge"><title>node2&#45;&gt;node27</title>
<path fill="none" stroke="black" d="M55.2514,-592.253C73.3469,-618.122 108.863,-668.371 140.493,-710 148.785,-720.914 158.194,-732.759 166.365,-742.883"/>
<polygon fill="black" stroke="black" points="163.869,-745.361 172.886,-750.924 169.306,-740.952 163.869,-745.361"/>
<text text-anchor="middle" x="112.493" y="-687.8" font-family="Times New Roman,serif" font-size="14.00"> (1)</text>
</g>
<!-- node3 -->
<g id="node4" class="node"><title>node3</title>
<ellipse fill="none" stroke="black" cx="42.2463" cy="-520" rx="42.4939" ry="18"/>
<text text-anchor="middle" x="42.2463" y="-516.3" font-family="Times New Roman,serif" font-size="14.00">(3) Input</text>
</g>
<!-- node3&#45;&gt;node10 -->
<g id="edge9" class="edge"><title>node3&#45;&gt;node10</title>
<path fill="none" stroke="black" d="M49.8109,-502.102C59.0403,-476.199 75.7044,-426.585 84.4925,-383 99.5097,-308.521 73.417,-283.194 102.493,-213 112.772,-188.183 120.099,-183.484 140.493,-166 143.513,-163.41 146.816,-160.934 150.225,-158.606"/>
<polygon fill="black" stroke="black" points="152.254,-161.462 158.811,-153.14 148.496,-155.557 152.254,-161.462"/>
<text text-anchor="middle" x="112.493" y="-216.8" font-family="Times New Roman,serif" font-size="14.00"> (0)</text>
</g>
<!-- node3&#45;&gt;node14 -->
<g id="edge17" class="edge"><title>node3&#45;&gt;node14</title>
<path fill="none" stroke="black" d="M84.8079,-520.289C99.0851,-520.389 115.315,-520.502 130.568,-520.608"/>
<polygon fill="black" stroke="black" points="130.912,-524.11 140.936,-520.68 130.961,-517.11 130.912,-524.11"/>
<text text-anchor="middle" x="112.493" y="-523.8" font-family="Times New Roman,serif" font-size="14.00"> (0)</text>
</g>
<!-- node26 -->
<g id="node27" class="node"><title>node26</title>
<ellipse fill="none" stroke="black" cx="712.905" cy="-647" rx="47.3916" ry="18"/>
<text text-anchor="middle" x="712.905" y="-643.3" font-family="Times New Roman,serif" font-size="14.00">(26) XOR</text>
</g>
<!-- node3&#45;&gt;node26 -->
<g id="edge42" class="edge"><title>node3&#45;&gt;node26</title>
<path fill="none" stroke="black" d="M65.5751,-535.016C71.7255,-539.191 78.3845,-543.746 84.4925,-548 109.592,-565.48 113.647,-573.342 140.493,-588 187.899,-613.885 201.879,-616.732 253.384,-633 404.899,-680.856 450.689,-671.258 609.459,-665 626.387,-664.333 630.717,-664.594 647.459,-662 652.578,-661.207 657.893,-660.228 663.177,-659.153"/>
<polygon fill="black" stroke="black" points="664.197,-662.513 673.238,-656.991 662.726,-655.67 664.197,-662.513"/>
<text text-anchor="middle" x="338.83" y="-668.8" font-family="Times New Roman,serif" font-size="14.00"> (1)</text>
</g>
<!-- node4 -->
<g id="node5" class="node"><title>node4</title>
<ellipse fill="none" stroke="black" cx="42.2463" cy="-159" rx="42.4939" ry="18"/>
<text text-anchor="middle" x="42.2463" y="-155.3" font-family="Times New Roman,serif" font-size="14.00">(4) Input</text>
</g>
<!-- node4&#45;&gt;node7 -->
<g id="edge4" class="edge"><title>node4&#45;&gt;node7</title>
<path fill="none" stroke="black" d="M84.0172,-155.956C96.5155,-155.969 110.206,-156.955 122.493,-160 133.702,-162.778 145.166,-167.812 155.259,-173.126"/>
<polygon fill="black" stroke="black" points="153.652,-176.237 164.095,-178.027 157.048,-170.116 153.652,-176.237"/>
<text text-anchor="middle" x="112.493" y="-163.8" font-family="Times New Roman,serif" font-size="14.00"> (1)</text>
</g>
<!-- node4&#45;&gt;node11 -->
<g id="edge12" class="edge"><title>node4&#45;&gt;node11</title>
<path fill="none" stroke="black" d="M64.8423,-174.278C72.1549,-180.515 79.6803,-188.312 84.4925,-197 105.527,-234.974 80.2071,-255.747 102.493,-293 114.26,-312.671 133.94,-329.014 151.342,-340.744"/>
<polygon fill="black" stroke="black" points="149.881,-343.967 160.18,-346.451 153.678,-338.086 149.881,-343.967"/>
<text text-anchor="middle" x="112.493" y="-321.8" font-family="Times New Roman,serif" font-size="14.00"> (1)</text>
</g>
<!-- node22 -->
<g id="node23" class="node"><title>node22</title>
<ellipse fill="none" stroke="black" cx="863.146" cy="-261" rx="46.5926" ry="18"/>
<text text-anchor="middle" x="863.146" y="-257.3" font-family="Times New Roman,serif" font-size="14.00">(22) AND</text>
</g>
<!-- node4&#45;&gt;node22 -->
<g id="edge33" class="edge"><title>node4&#45;&gt;node22</title>
<path fill="none" stroke="black" d="M49.5785,-141.07C65.5383,-99.4872 111.595,-0 186.938,-0 186.938,-0 186.938,-0 638.459,-0 760.5,-0 830.303,-166.554 853.448,-233.564"/>
<polygon fill="black" stroke="black" points="850.138,-234.699 856.645,-243.06 856.772,-232.466 850.138,-234.699"/>
<text text-anchor="middle" x="451.072" y="-3.8" font-family="Times New Roman,serif" font-size="14.00"> (0)</text>
</g>
<!-- node5 -->
<g id="node6" class="node"><title>node5</title>
<ellipse fill="none" stroke="black" cx="42.2463" cy="-356" rx="42.4939" ry="18"/>
<text text-anchor="middle" x="42.2463" y="-352.3" font-family="Times New Roman,serif" font-size="14.00">(5) Input</text>
</g>
<!-- node5&#45;&gt;node6 -->
<g id="edge1" class="edge"><title>node5&#45;&gt;node6</title>
<path fill="none" stroke="black" d="M51.6311,-338.342C61.3513,-319.714 79.0817,-290.78 102.493,-274 113.117,-266.384 126.026,-260.958 138.521,-257.107"/>
<polygon fill="black" stroke="black" points="139.713,-260.408 148.401,-254.345 137.828,-253.666 139.713,-260.408"/>
<text text-anchor="middle" x="112.493" y="-277.8" font-family="Times New Roman,serif" font-size="14.00"> (0)</text>
</g>
<!-- node9 -->
<g id="node10" class="node"><title>node9</title>
<ellipse fill="none" stroke="black" cx="562.663" cy="-638" rx="42.7926" ry="18"/>
<text text-anchor="middle" x="562.663" y="-634.3" font-family="Times New Roman,serif" font-size="14.00">(9) XOR</text>
</g>
<!-- node5&#45;&gt;node9 -->
<g id="edge8" class="edge"><title>node5&#45;&gt;node9</title>
<path fill="none" stroke="black" d="M51.9955,-373.727C75.1974,-420.677 136.783,-544.882 140.493,-548 247.755,-638.138 423.644,-644.54 510.227,-641.496"/>
<polygon fill="black" stroke="black" points="510.484,-644.989 520.333,-641.083 510.198,-637.994 510.484,-644.989"/>
<text text-anchor="middle" x="263.384" y="-617.8" font-family="Times New Roman,serif" font-size="14.00"> (1)</text>
</g>
<!-- node12 -->
<g id="node13" class="node"><title>node12</title>
<ellipse fill="none" stroke="black" cx="338.83" cy="-261" rx="40.8928" ry="18"/>
<text text-anchor="middle" x="338.83" y="-257.3" font-family="Times New Roman,serif" font-size="14.00">(12) OR</text>
</g>
<!-- node5&#45;&gt;node12 -->
<g id="edge13" class="edge"><title>node5&#45;&gt;node12</title>
<path fill="none" stroke="black" d="M63.3457,-340.223C74.3684,-332.246 88.5885,-323.008 102.493,-317 164.219,-290.326 240.791,-275.113 289.492,-267.458"/>
<polygon fill="black" stroke="black" points="290.089,-270.907 299.446,-265.938 289.032,-263.987 290.089,-270.907"/>
<text text-anchor="middle" x="187.938" y="-304.8" font-family="Times New Roman,serif" font-size="14.00"> (0)</text>
</g>
<!-- node23 -->
<g id="node24" class="node"><title>node23</title>
<ellipse fill="none" stroke="black" cx="863.146" cy="-453" rx="46.5926" ry="18"/>
<text text-anchor="middle" x="863.146" y="-449.3" font-family="Times New Roman,serif" font-size="14.00">(23) AND</text>
</g>
<!-- node5&#45;&gt;node23 -->
<g id="edge35" class="edge"><title>node5&#45;&gt;node23</title>
<path fill="none" stroke="black" d="M72.4925,-368.745C81.9655,-372.631 92.5851,-376.734 102.493,-380 176.978,-404.555 201.254,-393.204 273.384,-424 327.679,-447.181 341.451,-455.58 386.276,-494 395.609,-502 393.108,-509.863 404.276,-515 470.204,-545.323 616.683,-533.832 798.351,-483 807.886,-480.332 817.765,-476.354 826.819,-472.161"/>
<polygon fill="black" stroke="black" points="828.433,-475.269 835.907,-467.759 825.381,-468.969 828.433,-475.269"/>
<text text-anchor="middle" x="451.072" y="-534.8" font-family="Times New Roman,serif" font-size="14.00"> (0)</text>
</g>
<!-- node8 -->
<g id="node9" class="node"><title>node8</title>
<ellipse fill="none" stroke="black" cx="338.83" cy="-315" rx="42.4939" ry="18"/>
<text text-anchor="middle" x="338.83" y="-311.3" font-family="Times New Roman,serif" font-size="14.00">(8) AND</text>
</g>
<!-- node6&#45;&gt;node8 -->
<g id="edge5" class="edge"><title>node6&#45;&gt;node8</title>
<path fill="none" stroke="black" d="M217.646,-260.918C241.025,-271.438 274.229,-286.38 299.814,-297.893"/>
<polygon fill="black" stroke="black" points="298.655,-301.209 309.21,-302.121 301.527,-294.826 298.655,-301.209"/>
<text text-anchor="middle" x="263.384" y="-288.8" font-family="Times New Roman,serif" font-size="14.00"> (0)</text>
</g>
<!-- node32 -->
<g id="node33" class="node"><title>node32</title>
<ellipse fill="none" stroke="black" cx="1013.39" cy="-261" rx="47.3916" ry="18"/>
<text text-anchor="middle" x="1013.39" y="-257.3" font-family="Times New Roman,serif" font-size="14.00">(32) XOR</text>
</g>
<!-- node6&#45;&gt;node32 -->
<g id="edge53" class="edge"><title>node6&#45;&gt;node32</title>
<path fill="none" stroke="black" d="M226.373,-240.263C276.909,-230.509 369.875,-215 450.072,-215 450.072,-215 450.072,-215 864.146,-215 903.125,-215 945.383,-229.686 974.77,-242.462"/>
<polygon fill="black" stroke="black" points="973.663,-245.801 984.22,-246.697 976.526,-239.413 973.663,-245.801"/>
<text text-anchor="middle" x="637.459" y="-218.8" font-family="Times New Roman,serif" font-size="14.00"> (0)</text>
</g>
<!-- node7&#45;&gt;node8 -->
<g id="edge6" class="edge"><title>node7&#45;&gt;node8</title>
<path fill="none" stroke="black" d="M214.701,-207.098C221.629,-211.27 228.974,-216.053 235.384,-221 254.045,-235.402 258.754,-239.517 273.384,-258 283.035,-270.192 280.313,-277.081 291.384,-288 294.372,-290.947 297.745,-293.693 301.275,-296.216"/>
<polygon fill="black" stroke="black" points="299.399,-299.171 309.689,-301.692 303.217,-293.304 299.399,-299.171"/>
<text text-anchor="middle" x="263.384" y="-261.8" font-family="Times New Roman,serif" font-size="14.00"> (1)</text>
</g>
<!-- node15 -->
<g id="node16" class="node"><title>node15</title>
<ellipse fill="none" stroke="black" cx="338.83" cy="-46" rx="47.3916" ry="18"/>
<text text-anchor="middle" x="338.83" y="-42.3" font-family="Times New Roman,serif" font-size="14.00">(15) XOR</text>
</g>
<!-- node7&#45;&gt;node15 -->
<g id="edge19" class="edge"><title>node7&#45;&gt;node15</title>
<path fill="none" stroke="black" d="M218.083,-179.893C224.367,-176.082 230.562,-171.448 235.384,-166 248.845,-150.793 241.667,-140.588 253.384,-124 268.425,-102.706 290.103,-82.8351 307.728,-68.4786"/>
<polygon fill="black" stroke="black" points="310.361,-70.8563 316.008,-61.8918 306.004,-65.3781 310.361,-70.8563"/>
<text text-anchor="middle" x="263.384" y="-127.8" font-family="Times New Roman,serif" font-size="14.00"> (0)</text>
</g>
<!-- node7&#45;&gt;node20 -->
<g id="edge29" class="edge"><title>node7&#45;&gt;node20</title>
<path fill="none" stroke="black" d="M220.669,-181.401C230.969,-178.111 242.539,-174.908 253.384,-173 264.341,-171.073 276.212,-169.936 287.496,-169.291"/>
<polygon fill="black" stroke="black" points="287.82,-172.78 297.651,-168.828 287.502,-165.787 287.82,-172.78"/>
<text text-anchor="middle" x="263.384" y="-176.8" font-family="Times New Roman,serif" font-size="14.00"> (0)</text>
</g>
<!-- node8&#45;&gt;node9 -->
<g id="edge7" class="edge"><title>node8&#45;&gt;node9</title>
<path fill="none" stroke="black" d="M343.913,-332.979C351.123,-360.395 368.82,-412.276 404.276,-439 438.171,-464.548 465.824,-430.165 497.867,-458 521.262,-478.323 544.508,-564.947 555.348,-610.206"/>
<polygon fill="black" stroke="black" points="551.95,-611.047 557.649,-619.978 558.763,-609.442 551.95,-611.047"/>
<text text-anchor="middle" x="451.072" y="-461.8" font-family="Times New Roman,serif" font-size="14.00"> (0)</text>
</g>
<!-- node8&#45;&gt;node13 -->
<g id="edge16" class="edge"><title>node8&#45;&gt;node13</title>
<path fill="none" stroke="black" d="M381.295,-315C418.132,-315 472.071,-315 511.363,-315"/>
<polygon fill="black" stroke="black" points="511.523,-318.5 521.523,-315 511.523,-311.5 511.523,-318.5"/>
<text text-anchor="middle" x="451.072" y="-318.8" font-family="Times New Roman,serif" font-size="14.00"> (1)</text>
</g>
<!-- node9&#45;&gt;node26 -->
<g id="edge41" class="edge"><title>node9&#45;&gt;node26</title>
<path fill="none" stroke="black" d="M605.351,-640.531C620.953,-641.478 638.943,-642.57 655.647,-643.584"/>
<polygon fill="black" stroke="black" points="655.654,-647.091 665.848,-644.204 656.078,-640.104 655.654,-647.091"/>
<text text-anchor="middle" x="637.459" y="-646.8" font-family="Times New Roman,serif" font-size="14.00"> (0)</text>
</g>
<!-- node10&#45;&gt;node12 -->
<g id="edge14" class="edge"><title>node10&#45;&gt;node12</title>
<path fill="none" stroke="black" d="M234.872,-137.712C248.444,-139.408 262.551,-143.459 273.384,-152 289.976,-165.081 281.174,-177.502 291.384,-196 299.043,-209.875 309.118,-224.313 317.926,-236.048"/>
<polygon fill="black" stroke="black" points="315.207,-238.254 324.064,-244.068 320.766,-234 315.207,-238.254"/>
<text text-anchor="middle" x="263.384" y="-155.8" font-family="Times New Roman,serif" font-size="14.00"> (1)</text>
</g>
<!-- node10&#45;&gt;node15 -->
<g id="edge20" class="edge"><title>node10&#45;&gt;node15</title>
<path fill="none" stroke="black" d="M216.848,-124.573C223.785,-119.813 230.597,-113.928 235.384,-107 254.38,-79.5081 227.078,-54.6072 253.384,-34 266.102,-24.037 283.318,-24.7456 298.887,-28.8393"/>
<polygon fill="black" stroke="black" points="298.228,-32.3002 308.817,-31.9401 300.315,-25.6184 298.228,-32.3002"/>
<text text-anchor="middle" x="263.384" y="-37.8" font-family="Times New Roman,serif" font-size="14.00"> (1)</text>
</g>
<!-- node16 -->
<g id="node17" class="node"><title>node16</title>
<ellipse fill="none" stroke="black" cx="338.83" cy="-521" rx="40.8928" ry="18"/>
<text text-anchor="middle" x="338.83" y="-517.3" font-family="Times New Roman,serif" font-size="14.00">(16) OR</text>
</g>
<!-- node11&#45;&gt;node16 -->
<g id="edge22" class="edge"><title>node11&#45;&gt;node16</title>
<path fill="none" stroke="black" d="M222.664,-373.162C239.402,-380.453 259.052,-391.046 273.384,-405 299.323,-430.254 317.7,-468.212 328.025,-493.762"/>
<polygon fill="black" stroke="black" points="324.819,-495.175 331.71,-503.223 331.342,-492.634 324.819,-495.175"/>
<text text-anchor="middle" x="263.384" y="-408.8" font-family="Times New Roman,serif" font-size="14.00"> (1)</text>
</g>
<!-- node18 -->
<g id="node19" class="node"><title>node18</title>
<ellipse fill="none" stroke="black" cx="451.072" cy="-420" rx="46.5926" ry="18"/>
<text text-anchor="middle" x="451.072" y="-416.3" font-family="Times New Roman,serif" font-size="14.00">(18) AND</text>
</g>
<!-- node11&#45;&gt;node18 -->
<g id="edge25" class="edge"><title>node11&#45;&gt;node18</title>
<path fill="none" stroke="black" d="M235.029,-360.599C275.957,-361.63 336.777,-366.612 386.276,-385 395.289,-388.348 395.964,-392.167 404.276,-397 406.727,-398.426 409.278,-399.853 411.866,-401.259"/>
<polygon fill="black" stroke="black" points="410.237,-404.357 420.714,-405.927 413.503,-398.165 410.237,-404.357"/>
<text text-anchor="middle" x="263.384" y="-365.8" font-family="Times New Roman,serif" font-size="14.00"> (0)</text>
</g>
<!-- node17 -->
<g id="node18" class="node"><title>node17</title>
<ellipse fill="none" stroke="black" cx="562.663" cy="-420" rx="46.5926" ry="18"/>
<text text-anchor="middle" x="562.663" y="-416.3" font-family="Times New Roman,serif" font-size="14.00">(17) AND</text>
</g>
<!-- node12&#45;&gt;node17 -->
<g id="edge24" class="edge"><title>node12&#45;&gt;node17</title>
<path fill="none" stroke="black" d="M368.588,-273.73C375.034,-277.599 381.399,-282.353 386.276,-288 400.355,-304.302 389.568,-317.262 404.276,-333 435.789,-366.722 457.704,-355.259 497.867,-378 508.956,-384.278 520.709,-391.761 531.065,-398.659"/>
<polygon fill="black" stroke="black" points="529.143,-401.585 539.39,-404.277 533.058,-395.783 529.143,-401.585"/>
<text text-anchor="middle" x="451.072" y="-381.8" font-family="Times New Roman,serif" font-size="14.00"> (1)</text>
</g>
<!-- node19 -->
<g id="node20" class="node"><title>node19</title>
<ellipse fill="none" stroke="black" cx="712.905" cy="-322" rx="40.8928" ry="18"/>
<text text-anchor="middle" x="712.905" y="-318.3" font-family="Times New Roman,serif" font-size="14.00">(19) OR</text>
</g>
<!-- node13&#45;&gt;node19 -->
<g id="edge27" class="edge"><title>node13&#45;&gt;node19</title>
<path fill="none" stroke="black" d="M603.389,-316.876C621.418,-317.727 642.936,-318.743 662.038,-319.645"/>
<polygon fill="black" stroke="black" points="661.915,-323.143 672.069,-320.119 662.245,-316.151 661.915,-323.143"/>
<text text-anchor="middle" x="637.459" y="-321.8" font-family="Times New Roman,serif" font-size="14.00"> (0)</text>
</g>
<!-- node14&#45;&gt;node16 -->
<g id="edge21" class="edge"><title>node14&#45;&gt;node16</title>
<path fill="none" stroke="black" d="M234.826,-521C251.383,-521 270.162,-521 287.11,-521"/>
<polygon fill="black" stroke="black" points="287.389,-524.5 297.389,-521 287.389,-517.5 287.389,-524.5"/>
<text text-anchor="middle" x="263.384" y="-524.8" font-family="Times New Roman,serif" font-size="14.00"> (0)</text>
</g>
<!-- node14&#45;&gt;node18 -->
<g id="edge26" class="edge"><title>node14&#45;&gt;node18</title>
<path fill="none" stroke="black" d="M224.732,-509.771C264.659,-496.909 330.916,-474.553 386.276,-451 394.506,-447.498 396.244,-445.937 404.276,-442 406.716,-440.804 409.232,-439.577 411.771,-438.344"/>
<polygon fill="black" stroke="black" points="413.488,-441.402 420.966,-433.897 410.44,-435.1 413.488,-441.402"/>
<text text-anchor="middle" x="263.384" y="-502.8" font-family="Times New Roman,serif" font-size="14.00"> (1)</text>
</g>
<!-- node38 -->
<g id="node39" class="node"><title>node38</title>
<ellipse fill="none" stroke="black" cx="1593.4" cy="-734" rx="42.7926" ry="18"/>
<text text-anchor="middle" x="1593.4" y="-730.3" font-family="Times New Roman,serif" font-size="14.00">Output 0</text>
</g>
<!-- node14&#45;&gt;node38 -->
<g id="edge65" class="edge"><title>node14&#45;&gt;node38</title>
<path fill="none" stroke="black" d="M219.842,-534.343C225.225,-537.208 230.62,-540.454 235.384,-544 264.646,-565.779 260.476,-584.629 291.384,-604 312.104,-616.986 687.452,-734 711.905,-734 711.905,-734 711.905,-734 1467.06,-734 1491.12,-734 1517.78,-734 1540.3,-734"/>
<polygon fill="black" stroke="black" points="1540.34,-737.5 1550.34,-734 1540.34,-730.5 1540.34,-737.5"/>
</g>
<!-- node39 -->
<g id="node40" class="node"><title>node39</title>
<ellipse fill="none" stroke="black" cx="1593.4" cy="-38" rx="42.7926" ry="18"/>
<text text-anchor="middle" x="1593.4" y="-34.3" font-family="Times New Roman,serif" font-size="14.00">Output 1</text>
</g>
<!-- node15&#45;&gt;node39 -->
<g id="edge66" class="edge"><title>node15&#45;&gt;node39</title>
<path fill="none" stroke="black" d="M386.124,-43.3583C430.988,-41.0281 500.966,-38 561.663,-38 561.663,-38 561.663,-38 1467.06,-38 1491.12,-38 1517.78,-38 1540.3,-38"/>
<polygon fill="black" stroke="black" points="1540.34,-41.5001 1550.34,-38 1540.34,-34.5001 1540.34,-41.5001"/>
</g>
<!-- node16&#45;&gt;node17 -->
<g id="edge23" class="edge"><title>node16&#45;&gt;node17</title>
<path fill="none" stroke="black" d="M371.811,-510.062C382.124,-506.673 393.639,-503.036 404.276,-500 445.465,-488.245 459.975,-496.973 497.867,-477 513.496,-468.762 528.374,-455.874 539.824,-444.436"/>
<polygon fill="black" stroke="black" points="542.394,-446.814 546.828,-437.192 537.361,-441.949 542.394,-446.814"/>
<text text-anchor="middle" x="451.072" y="-503.8" font-family="Times New Roman,serif" font-size="14.00"> (0)</text>
</g>
<!-- node25 -->
<g id="node26" class="node"><title>node25</title>
<ellipse fill="none" stroke="black" cx="1013.39" cy="-585" rx="47.3916" ry="18"/>
<text text-anchor="middle" x="1013.39" y="-581.3" font-family="Times New Roman,serif" font-size="14.00">(25) XOR</text>
</g>
<!-- node16&#45;&gt;node25 -->
<g id="edge39" class="edge"><title>node16&#45;&gt;node25</title>
<path fill="none" stroke="black" d="M362.968,-535.567C374.929,-542.573 389.983,-550.601 404.276,-556 471.402,-581.358 489.907,-592 561.663,-592 561.663,-592 561.663,-592 864.146,-592 894.646,-592 928.637,-590.503 956.368,-588.894"/>
<polygon fill="black" stroke="black" points="956.898,-592.369 966.67,-588.275 956.478,-585.381 956.898,-592.369"/>
<text text-anchor="middle" x="712.905" y="-595.8" font-family="Times New Roman,serif" font-size="14.00"> (0)</text>
</g>
<!-- node17&#45;&gt;node21 -->
<g id="edge31" class="edge"><title>node17&#45;&gt;node21</title>
<path fill="none" stroke="black" d="M609.755,-420C624.326,-420 640.592,-420 655.784,-420"/>
<polygon fill="black" stroke="black" points="656.096,-423.5 666.096,-420 656.096,-416.5 656.096,-423.5"/>
<text text-anchor="middle" x="637.459" y="-423.8" font-family="Times New Roman,serif" font-size="14.00"> (0)</text>
</g>
<!-- node18&#45;&gt;node19 -->
<g id="edge28" class="edge"><title>node18&#45;&gt;node19</title>
<path fill="none" stroke="black" d="M483.569,-406.895C488.547,-404.26 493.49,-401.279 497.867,-398 507.439,-390.83 505.723,-384.333 515.867,-378 528.807,-369.921 613.216,-347.329 666.971,-333.433"/>
<polygon fill="black" stroke="black" points="668.145,-336.745 676.956,-330.861 666.399,-329.967 668.145,-336.745"/>
<text text-anchor="middle" x="562.663" y="-381.8" font-family="Times New Roman,serif" font-size="14.00"> (1)</text>
</g>
<!-- node35 -->
<g id="node36" class="node"><title>node35</title>
<ellipse fill="none" stroke="black" cx="863.146" cy="-507" rx="46.5926" ry="18"/>
<text text-anchor="middle" x="863.146" y="-503.3" font-family="Times New Roman,serif" font-size="14.00">(35) AND</text>
</g>
<!-- node18&#45;&gt;node35 -->
<g id="edge59" class="edge"><title>node18&#45;&gt;node35</title>
<path fill="none" stroke="black" d="M481.096,-433.94C491.825,-438.648 504.214,-443.574 515.867,-447 616.644,-476.631 738.485,-493.544 807.481,-501.444"/>
<polygon fill="black" stroke="black" points="807.35,-504.951 817.678,-502.589 808.132,-497.995 807.35,-504.951"/>
<text text-anchor="middle" x="637.459" y="-480.8" font-family="Times New Roman,serif" font-size="14.00"> (0)</text>
</g>
<!-- node19&#45;&gt;node22 -->
<g id="edge34" class="edge"><title>node19&#45;&gt;node22</title>
<path fill="none" stroke="black" d="M737.15,-307.382C749.138,-300.269 764.184,-291.984 778.351,-286 789.495,-281.292 801.821,-277.093 813.512,-273.542"/>
<polygon fill="black" stroke="black" points="814.535,-276.89 823.145,-270.715 812.564,-270.173 814.535,-276.89"/>
<text text-anchor="middle" x="788.351" y="-289.8" font-family="Times New Roman,serif" font-size="14.00"> (1)</text>
</g>
<!-- node19&#45;&gt;node23 -->
<g id="edge36" class="edge"><title>node19&#45;&gt;node23</title>
<path fill="none" stroke="black" d="M754.122,-321.993C769.153,-323.732 785.643,-327.892 798.351,-337 802.421,-339.917 830.521,-392.633 848.043,-425.985"/>
<polygon fill="black" stroke="black" points="845.146,-427.998 852.889,-435.23 851.346,-424.748 845.146,-427.998"/>
<text text-anchor="middle" x="788.351" y="-340.8" font-family="Times New Roman,serif" font-size="14.00"> (1)</text>
</g>
<!-- node24 -->
<g id="node25" class="node"><title>node24</title>
<ellipse fill="none" stroke="black" cx="863.146" cy="-338" rx="46.5926" ry="18"/>
<text text-anchor="middle" x="863.146" y="-334.3" font-family="Times New Roman,serif" font-size="14.00">(24) AND</text>
</g>
<!-- node20&#45;&gt;node24 -->
<g id="edge37" class="edge"><title>node20&#45;&gt;node24</title>
<path fill="none" stroke="black" d="M377.594,-163.004C436.951,-155.126 554.859,-145.779 647.459,-178 689.272,-192.549 787.72,-274.028 835.373,-314.782"/>
<polygon fill="black" stroke="black" points="833.245,-317.568 843.113,-321.426 837.805,-312.256 833.245,-317.568"/>
<text text-anchor="middle" x="637.459" y="-181.8" font-family="Times New Roman,serif" font-size="14.00"> (0)</text>
</g>
<!-- node21&#45;&gt;node24 -->
<g id="edge38" class="edge"><title>node21&#45;&gt;node24</title>
<path fill="none" stroke="black" d="M730.361,-403.181C742.662,-391.408 760.388,-376.047 778.351,-366 789.228,-359.917 801.641,-354.874 813.52,-350.825"/>
<polygon fill="black" stroke="black" points="814.888,-354.061 823.327,-347.656 812.736,-347.4 814.888,-354.061"/>
<text text-anchor="middle" x="788.351" y="-369.8" font-family="Times New Roman,serif" font-size="14.00"> (1)</text>
</g>
<!-- node21&#45;&gt;node35 -->
<g id="edge60" class="edge"><title>node21&#45;&gt;node35</title>
<path fill="none" stroke="black" d="M744.246,-433.561C760.804,-441.507 781.336,-452.273 798.351,-464 807.164,-470.075 807.7,-473.697 816.351,-480 819.614,-482.378 823.1,-484.732 826.636,-487"/>
<polygon fill="black" stroke="black" points="825.086,-490.156 835.434,-492.428 828.761,-484.198 825.086,-490.156"/>
<text text-anchor="middle" x="788.351" y="-467.8" font-family="Times New Roman,serif" font-size="14.00"> (1)</text>
</g>
<!-- node36 -->
<g id="node37" class="node"><title>node36</title>
<ellipse fill="none" stroke="black" cx="1466.06" cy="-380" rx="47.3916" ry="18"/>
<text text-anchor="middle" x="1466.06" y="-376.3" font-family="Times New Roman,serif" font-size="14.00">(36) XOR</text>
</g>
<!-- node21&#45;&gt;node36 -->
<g id="edge61" class="edge"><title>node21&#45;&gt;node36</title>
<path fill="none" stroke="black" d="M752.001,-409.976C781.77,-403.02 824.302,-395 862.146,-395 862.146,-395 862.146,-395 1316.17,-395 1347.99,-395 1383.43,-391.568 1411.76,-387.987"/>
<polygon fill="black" stroke="black" points="1412.39,-391.434 1421.85,-386.667 1411.48,-384.493 1412.39,-391.434"/>
<text text-anchor="middle" x="1088.83" y="-398.8" font-family="Times New Roman,serif" font-size="14.00"> (0)</text>
</g>
<!-- node22&#45;&gt;node32 -->
<g id="edge54" class="edge"><title>node22&#45;&gt;node32</title>
<path fill="none" stroke="black" d="M910.238,-261C924.602,-261 940.613,-261 955.619,-261"/>
<polygon fill="black" stroke="black" points="955.814,-264.5 965.814,-261 955.814,-257.5 955.814,-264.5"/>
<text text-anchor="middle" x="937.942" y="-264.8" font-family="Times New Roman,serif" font-size="14.00"> (1)</text>
</g>
<!-- node23&#45;&gt;node25 -->
<g id="edge40" class="edge"><title>node23&#45;&gt;node25</title>
<path fill="none" stroke="black" d="M892.44,-467.378C898.52,-471.082 904.69,-475.351 909.942,-480 940.561,-507.103 936.299,-524.833 965.942,-553 969.935,-556.794 974.416,-560.466 978.977,-563.886"/>
<polygon fill="black" stroke="black" points="977.013,-566.784 987.186,-569.742 981.078,-561.085 977.013,-566.784"/>
<text text-anchor="middle" x="937.942" y="-534.8" font-family="Times New Roman,serif" font-size="14.00"> (1)</text>
</g>
<!-- node29 -->
<g id="node30" class="node"><title>node29</title>
<ellipse fill="none" stroke="black" cx="1013.39" cy="-333" rx="46.5926" ry="18"/>
<text text-anchor="middle" x="1013.39" y="-329.3" font-family="Times New Roman,serif" font-size="14.00">(29) AND</text>
</g>
<!-- node23&#45;&gt;node29 -->
<g id="edge48" class="edge"><title>node23&#45;&gt;node29</title>
<path fill="none" stroke="black" d="M884.139,-436.816C910.001,-415.882 955.192,-379.299 984.441,-355.623"/>
<polygon fill="black" stroke="black" points="986.668,-358.323 992.239,-349.311 982.264,-352.882 986.668,-358.323"/>
<text text-anchor="middle" x="937.942" y="-403.8" font-family="Times New Roman,serif" font-size="14.00"> (1)</text>
</g>
<!-- node30 -->
<g id="node31" class="node"><title>node30</title>
<ellipse fill="none" stroke="black" cx="1013.39" cy="-466" rx="47.3916" ry="18"/>
<text text-anchor="middle" x="1013.39" y="-462.3" font-family="Times New Roman,serif" font-size="14.00">(30) XOR</text>
</g>
<!-- node23&#45;&gt;node30 -->
<g id="edge49" class="edge"><title>node23&#45;&gt;node30</title>
<path fill="none" stroke="black" d="M909.026,-456.936C924.056,-458.254 940.996,-459.739 956.746,-461.121"/>
<polygon fill="black" stroke="black" points="956.625,-464.623 966.893,-462.01 957.237,-457.65 956.625,-464.623"/>
<text text-anchor="middle" x="937.942" y="-463.8" font-family="Times New Roman,serif" font-size="14.00"> (0)</text>
</g>
<!-- node24&#45;&gt;node29 -->
<g id="edge47" class="edge"><title>node24&#45;&gt;node29</title>
<path fill="none" stroke="black" d="M905.903,-330.503C913.225,-329.461 920.789,-328.557 927.942,-328 937.614,-327.247 947.917,-327.215 957.881,-327.583"/>
<polygon fill="black" stroke="black" points="957.939,-331.09 968.102,-328.097 958.29,-324.099 957.939,-331.09"/>
<text text-anchor="middle" x="937.942" y="-331.8" font-family="Times New Roman,serif" font-size="14.00"> (0)</text>
</g>
<!-- node24&#45;&gt;node30 -->
<g id="edge50" class="edge"><title>node24&#45;&gt;node30</title>
<path fill="none" stroke="black" d="M905.649,-345.912C920.084,-350.134 935.708,-356.497 947.942,-366 972.524,-385.094 990.497,-416.361 1001.12,-438.852"/>
<polygon fill="black" stroke="black" points="998.041,-440.529 1005.36,-448.193 1004.42,-437.64 998.041,-440.529"/>
<text text-anchor="middle" x="937.942" y="-369.8" font-family="Times New Roman,serif" font-size="14.00"> (1)</text>
</g>
<!-- node34 -->
<g id="node35" class="node"><title>node34</title>
<ellipse fill="none" stroke="black" cx="1164.28" cy="-646" rx="47.3916" ry="18"/>
<text text-anchor="middle" x="1164.28" y="-642.3" font-family="Times New Roman,serif" font-size="14.00">(34) XOR</text>
</g>
<!-- node25&#45;&gt;node34 -->
<g id="edge58" class="edge"><title>node25&#45;&gt;node34</title>
<path fill="none" stroke="black" d="M1046.33,-598.086C1068.41,-607.132 1097.99,-619.251 1121.88,-629.038"/>
<polygon fill="black" stroke="black" points="1120.81,-632.383 1131.39,-632.936 1123.46,-625.906 1120.81,-632.383"/>
<text text-anchor="middle" x="1088.83" y="-622.8" font-family="Times New Roman,serif" font-size="14.00"> (1)</text>
</g>
<!-- node28 -->
<g id="node29" class="node"><title>node28</title>
<ellipse fill="none" stroke="black" cx="863.146" cy="-677" rx="46.5926" ry="18"/>
<text text-anchor="middle" x="863.146" y="-673.3" font-family="Times New Roman,serif" font-size="14.00">(28) AND</text>
</g>
<!-- node26&#45;&gt;node28 -->
<g id="edge45" class="edge"><title>node26&#45;&gt;node28</title>
<path fill="none" stroke="black" d="M755.198,-655.357C772.619,-658.882 793.071,-663.021 811.4,-666.73"/>
<polygon fill="black" stroke="black" points="810.835,-670.187 821.331,-668.74 812.224,-663.326 810.835,-670.187"/>
<text text-anchor="middle" x="788.351" y="-666.8" font-family="Times New Roman,serif" font-size="14.00"> (0)</text>
</g>
<!-- node31 -->
<g id="node32" class="node"><title>node31</title>
<ellipse fill="none" stroke="black" cx="1164.28" cy="-349" rx="46.5926" ry="18"/>
<text text-anchor="middle" x="1164.28" y="-345.3" font-family="Times New Roman,serif" font-size="14.00">(31) AND</text>
</g>
<!-- node26&#45;&gt;node31 -->
<g id="edge51" class="edge"><title>node26&#45;&gt;node31</title>
<path fill="none" stroke="black" d="M760.33,-645.454C849.885,-642.026 1039.58,-632.417 1060.83,-612 1081.39,-592.254 1069.11,-511.793 1078.83,-485 1094,-443.221 1123.17,-400.567 1142.93,-374.436"/>
<polygon fill="black" stroke="black" points="1145.92,-376.293 1149.24,-366.232 1140.37,-372.027 1145.92,-376.293"/>
<text text-anchor="middle" x="937.942" y="-638.8" font-family="Times New Roman,serif" font-size="14.00"> (0)</text>
</g>
<!-- node27&#45;&gt;node28 -->
<g id="edge46" class="edge"><title>node27&#45;&gt;node28</title>
<path fill="none" stroke="black" d="M232.85,-762.064C351.665,-746.004 679.204,-701.729 808.574,-684.242"/>
<polygon fill="black" stroke="black" points="809.2,-687.689 818.641,-682.881 808.262,-680.752 809.2,-687.689"/>
<text text-anchor="middle" x="562.663" y="-726.8" font-family="Times New Roman,serif" font-size="14.00"> (1)</text>
</g>
<!-- node28&#45;&gt;node34 -->
<g id="edge57" class="edge"><title>node28&#45;&gt;node34</title>
<path fill="none" stroke="black" d="M908.607,-672.392C961.73,-666.887 1050.62,-657.675 1108.09,-651.72"/>
<polygon fill="black" stroke="black" points="1108.5,-655.196 1118.09,-650.684 1107.78,-648.233 1108.5,-655.196"/>
<text text-anchor="middle" x="1013.39" y="-669.8" font-family="Times New Roman,serif" font-size="14.00"> (0)</text>
</g>
<!-- node29&#45;&gt;node31 -->
<g id="edge52" class="edge"><title>node29&#45;&gt;node31</title>
<path fill="none" stroke="black" d="M1058.66,-337.757C1074.42,-339.451 1092.35,-341.378 1108.86,-343.152"/>
<polygon fill="black" stroke="black" points="1108.61,-346.645 1118.92,-344.233 1109.36,-339.685 1108.61,-346.645"/>
<text text-anchor="middle" x="1088.83" y="-344.8" font-family="Times New Roman,serif" font-size="14.00"> (1)</text>
</g>
<!-- node43 -->
<g id="node44" class="node"><title>node43</title>
<ellipse fill="none" stroke="black" cx="1593.4" cy="-252" rx="42.7926" ry="18"/>
<text text-anchor="middle" x="1593.4" y="-248.3" font-family="Times New Roman,serif" font-size="14.00">Output 5</text>
</g>
<!-- node29&#45;&gt;node43 -->
<g id="edge70" class="edge"><title>node29&#45;&gt;node43</title>
<path fill="none" stroke="black" d="M1031.52,-316.217C1057.64,-292.491 1110.02,-252 1163.28,-252 1163.28,-252 1163.28,-252 1467.06,-252 1491.12,-252 1517.78,-252 1540.3,-252"/>
<polygon fill="black" stroke="black" points="1540.34,-255.5 1550.34,-252 1540.34,-248.5 1540.34,-255.5"/>
</g>
<!-- node37 -->
<g id="node38" class="node"><title>node37</title>
<ellipse fill="none" stroke="black" cx="1164.28" cy="-519" rx="40.8928" ry="18"/>
<text text-anchor="middle" x="1164.28" y="-515.3" font-family="Times New Roman,serif" font-size="14.00">(37) OR</text>
</g>
<!-- node30&#45;&gt;node37 -->
<g id="edge64" class="edge"><title>node30&#45;&gt;node37</title>
<path fill="none" stroke="black" d="M1048.55,-478.159C1070.48,-485.968 1099.1,-496.153 1122.26,-504.399"/>
<polygon fill="black" stroke="black" points="1121.23,-507.745 1131.82,-507.802 1123.57,-501.151 1121.23,-507.745"/>
<text text-anchor="middle" x="1088.83" y="-498.8" font-family="Times New Roman,serif" font-size="14.00"> (1)</text>
</g>
<!-- node33 -->
<g id="node34" class="node"><title>node33</title>
<ellipse fill="none" stroke="black" cx="1315.17" cy="-349" rx="47.3916" ry="18"/>
<text text-anchor="middle" x="1315.17" y="-345.3" font-family="Times New Roman,serif" font-size="14.00">(33) XOR</text>
</g>
<!-- node31&#45;&gt;node33 -->
<g id="edge55" class="edge"><title>node31&#45;&gt;node33</title>
<path fill="none" stroke="black" d="M1211.17,-349C1225.75,-349 1242.05,-349 1257.3,-349"/>
<polygon fill="black" stroke="black" points="1257.67,-352.5 1267.67,-349 1257.67,-345.5 1257.67,-352.5"/>
<text text-anchor="middle" x="1239.73" y="-352.8" font-family="Times New Roman,serif" font-size="14.00"> (0)</text>
</g>
<!-- node32&#45;&gt;node33 -->
<g id="edge56" class="edge"><title>node32&#45;&gt;node33</title>
<path fill="none" stroke="black" d="M1056.49,-268.781C1096.81,-276.706 1159.11,-290.202 1211.73,-307 1233.03,-313.802 1256.13,-323.096 1274.99,-331.212"/>
<polygon fill="black" stroke="black" points="1273.59,-334.421 1284.16,-335.207 1276.39,-328.004 1273.59,-334.421"/>
<text text-anchor="middle" x="1164.28" y="-310.8" font-family="Times New Roman,serif" font-size="14.00"> (1)</text>
</g>
<!-- node33&#45;&gt;node36 -->
<g id="edge62" class="edge"><title>node33&#45;&gt;node36</title>
<path fill="none" stroke="black" d="M1357.86,-357.261C1371.5,-359.999 1386.71,-363.09 1400.62,-366 1405.09,-366.935 1409.73,-367.919 1414.38,-368.914"/>
<polygon fill="black" stroke="black" points="1414,-372.413 1424.52,-371.093 1415.48,-365.569 1414,-372.413"/>
<text text-anchor="middle" x="1390.62" y="-369.8" font-family="Times New Roman,serif" font-size="14.00"> (1)</text>
</g>
<!-- node40 -->
<g id="node41" class="node"><title>node40</title>
<ellipse fill="none" stroke="black" cx="1593.4" cy="-646" rx="42.7926" ry="18"/>
<text text-anchor="middle" x="1593.4" y="-642.3" font-family="Times New Roman,serif" font-size="14.00">Output 2</text>
</g>
<!-- node34&#45;&gt;node40 -->
<g id="edge67" class="edge"><title>node34&#45;&gt;node40</title>
<path fill="none" stroke="black" d="M1211.8,-646C1292.13,-646 1456.27,-646 1540.3,-646"/>
<polygon fill="black" stroke="black" points="1540.39,-649.5 1550.39,-646 1540.39,-642.5 1540.39,-649.5"/>
</g>
<!-- node35&#45;&gt;node37 -->
<g id="edge63" class="edge"><title>node35&#45;&gt;node37</title>
<path fill="none" stroke="black" d="M903.433,-516.293C911.495,-517.836 919.958,-519.195 927.942,-520 991.757,-526.436 1065.8,-524.603 1113.53,-522.222"/>
<polygon fill="black" stroke="black" points="1113.8,-525.713 1123.6,-521.692 1113.43,-518.722 1113.8,-525.713"/>
<text text-anchor="middle" x="1013.39" y="-527.8" font-family="Times New Roman,serif" font-size="14.00"> (0)</text>
</g>
<!-- node41 -->
<g id="node42" class="node"><title>node41</title>
<ellipse fill="none" stroke="black" cx="1593.4" cy="-380" rx="42.7926" ry="18"/>
<text text-anchor="middle" x="1593.4" y="-376.3" font-family="Times New Roman,serif" font-size="14.00">Output 3</text>
</g>
<!-- node36&#45;&gt;node41 -->
<g id="edge68" class="edge"><title>node36&#45;&gt;node41</title>
<path fill="none" stroke="black" d="M1513.74,-380C1522.34,-380 1531.38,-380 1540.13,-380"/>
<polygon fill="black" stroke="black" points="1540.24,-383.5 1550.24,-380 1540.24,-376.5 1540.24,-383.5"/>
</g>
<!-- node42 -->
<g id="node43" class="node"><title>node42</title>
<ellipse fill="none" stroke="black" cx="1593.4" cy="-519" rx="42.7926" ry="18"/>
<text text-anchor="middle" x="1593.4" y="-515.3" font-family="Times New Roman,serif" font-size="14.00">Output 4</text>
</g>
<!-- node37&#45;&gt;node42 -->
<g id="edge69" class="edge"><title>node37&#45;&gt;node42</title>
<path fill="none" stroke="black" d="M1205.46,-519C1283.19,-519 1454.06,-519 1540.35,-519"/>
<polygon fill="black" stroke="black" points="1540.44,-522.5 1550.44,-519 1540.44,-515.5 1540.44,-522.5"/>
</g>
</g>
</svg>
