<?xml version="1.0" encoding="UTF-8" standalone="no"?>
<!DOCTYPE svg PUBLIC "-//W3C//DTD SVG 1.1//EN"
 "http://www.w3.org/Graphics/SVG/1.1/DTD/svg11.dtd">
<!-- Generated by graphviz version 2.38.0 (20140413.2041)
 -->
<!-- Title: NeuralNetwork Pages: 1 -->
<svg width="288pt" height="107pt"
 viewBox="0.00 0.00 288.00 106.62" xmlns="http://www.w3.org/2000/svg" xmlns:xlink="http://www.w3.org/1999/xlink">
<g id="graph0" class="graph" transform="scale(0.287874 0.287874) rotate(0) translate(4 366.376)">
<title>NeuralNetwork</title>
<polygon fill="white" stroke="none" points="-4,4 -4,-366.376 996.438,-366.376 996.438,4 -4,4"/>
<!-- node0 -->
<g id="node1" class="node"><title>node0</title>
<ellipse fill="none" stroke="black" cx="42.2463" cy="-167.376" rx="42.4939" ry="18"/>
<text text-anchor="middle" x="42.2463" y="-163.676" font-family="Times New Roman,serif" font-size="14.00">(0) Input</text>
</g>
<!-- node7 -->
<g id="node8" class="node"><title>node7</title>
<ellipse fill="none" stroke="black" cx="183.389" cy="-169.376" rx="42.4939" ry="18"/>
<text text-anchor="middle" x="183.389" y="-165.676" font-family="Times New Roman,serif" font-size="14.00">(7) AND</text>
</g>
<!-- node0&#45;&gt;node7 -->
<g id="edge6" class="edge"><title>node0&#45;&gt;node7</title>
<path fill="none" stroke="black" d="M84.6168,-167.971C99.0664,-168.178 115.47,-168.414 130.656,-168.632"/>
<polygon fill="black" stroke="black" points="130.888,-172.136 140.937,-168.78 130.989,-165.137 130.888,-172.136"/>
<text text-anchor="middle" x="112.493" y="-172.176" font-family="Times New Roman,serif" font-size="14.00"> (1)</text>
</g>
<!-- node8 -->
<g id="node9" class="node"><title>node8</title>
<ellipse fill="none" stroke="black" cx="183.389" cy="-105.376" rx="42.7926" ry="18"/>
<text text-anchor="middle" x="183.389" y="-101.676" font-family="Times New Roman,serif" font-size="14.00">(8) XOR</text>
</g>
<!-- node0&#45;&gt;node8 -->
<g id="edge7" class="edge"><title>node0&#45;&gt;node8</title>
<path fill="none" stroke="black" d="M72.0767,-154.529C92.8326,-145.281 121.058,-132.704 143.762,-122.587"/>
<polygon fill="black" stroke="black" points="145.407,-125.686 153.117,-118.419 142.558,-119.292 145.407,-125.686"/>
<text text-anchor="middle" x="112.493" y="-143.176" font-family="Times New Roman,serif" font-size="14.00"> (0)</text>
</g>
<!-- node1 -->
<g id="node2" class="node"><title>node1</title>
<ellipse fill="none" stroke="black" cx="42.2463" cy="-243.376" rx="42.4939" ry="18"/>
<text text-anchor="middle" x="42.2463" y="-239.676" font-family="Times New Roman,serif" font-size="14.00">(1) Input</text>
</g>
<!-- node5 -->
<g id="node6" class="node"><title>node5</title>
<ellipse fill="none" stroke="black" cx="183.389" cy="-344.376" rx="42.4939" ry="18"/>
<text text-anchor="middle" x="183.389" y="-340.676" font-family="Times New Roman,serif" font-size="14.00">(5) AND</text>
</g>
<!-- node1&#45;&gt;node5 -->
<g id="edge1" class="edge"><title>node1&#45;&gt;node5</title>
<path fill="none" stroke="black" d="M83.3457,-247.978C96.6226,-250.886 110.943,-255.632 122.493,-263.376 142.78,-276.978 158.758,-299.846 169.091,-317.821"/>
<polygon fill="black" stroke="black" points="166.087,-319.624 173.972,-326.7 172.221,-316.251 166.087,-319.624"/>
<text text-anchor="middle" x="112.493" y="-267.176" font-family="Times New Roman,serif" font-size="14.00"> (0)</text>
</g>
<!-- node6 -->
<g id="node7" class="node"><title>node6</title>
<ellipse fill="none" stroke="black" cx="287.181" cy="-256.376" rx="42.7926" ry="18"/>
<text text-anchor="middle" x="287.181" y="-252.676" font-family="Times New Roman,serif" font-size="14.00">(6) XOR</text>
</g>
<!-- node1&#45;&gt;node6 -->
<g id="edge3" class="edge"><title>node1&#45;&gt;node6</title>
<path fill="none" stroke="black" d="M81.7125,-236.672C88.6108,-235.716 95.7492,-234.885 102.493,-234.376 149.186,-230.85 202.272,-238.475 239.325,-245.694"/>
<polygon fill="black" stroke="black" points="238.837,-249.166 249.332,-247.71 240.22,-242.304 238.837,-249.166"/>
<text text-anchor="middle" x="112.493" y="-238.176" font-family="Times New Roman,serif" font-size="14.00"> (0)</text>
</g>
<!-- node2 -->
<g id="node3" class="node"><title>node2</title>
<ellipse fill="none" stroke="black" cx="42.2463" cy="-90.3759" rx="42.4939" ry="18"/>
<text text-anchor="middle" x="42.2463" y="-86.6759" font-family="Times New Roman,serif" font-size="14.00">(2) Input</text>
</g>
<!-- node2&#45;&gt;node7 -->
<g id="edge5" class="edge"><title>node2&#45;&gt;node7</title>
<path fill="none" stroke="black" d="M81.6333,-97.1779C95.1969,-100.676 110.138,-105.845 122.493,-113.376 132.425,-119.431 132.125,-124.296 140.493,-132.376 145.257,-136.976 150.459,-141.754 155.526,-146.287"/>
<polygon fill="black" stroke="black" points="153.484,-149.153 163.296,-153.148 158.117,-143.905 153.484,-149.153"/>
<text text-anchor="middle" x="112.493" y="-117.176" font-family="Times New Roman,serif" font-size="14.00"> (0)</text>
</g>
<!-- node2&#45;&gt;node8 -->
<g id="edge8" class="edge"><title>node2&#45;&gt;node8</title>
<path fill="none" stroke="black" d="M72.3375,-77.7293C87.3692,-72.8122 105.976,-69.2405 122.493,-73.3759 132.339,-75.8412 142.337,-80.2675 151.27,-85.057"/>
<polygon fill="black" stroke="black" points="149.723,-88.2036 160.144,-90.1127 153.188,-82.1214 149.723,-88.2036"/>
<text text-anchor="middle" x="112.493" y="-77.1759" font-family="Times New Roman,serif" font-size="14.00"> (1)</text>
</g>
<!-- node3 -->
<g id="node4" class="node"><title>node3</title>
<ellipse fill="none" stroke="black" cx="42.2463" cy="-321.376" rx="42.4939" ry="18"/>
<text text-anchor="middle" x="42.2463" y="-317.676" font-family="Times New Roman,serif" font-size="14.00">(3) Input</text>
</g>
<!-- node3&#45;&gt;node5 -->
<g id="edge2" class="edge"><title>node3&#45;&gt;node5</title>
<path fill="none" stroke="black" d="M82.0052,-327.783C97.9871,-330.424 116.688,-333.516 133.588,-336.309"/>
<polygon fill="black" stroke="black" points="133.401,-339.826 143.838,-338.003 134.542,-332.919 133.401,-339.826"/>
<text text-anchor="middle" x="112.493" y="-337.176" font-family="Times New Roman,serif" font-size="14.00"> (1)</text>
</g>
<!-- node3&#45;&gt;node6 -->
<g id="edge4" class="edge"><title>node3&#45;&gt;node6</title>
<path fill="none" stroke="black" d="M78.3116,-311.994C121.035,-300.563 193.326,-281.22 240.401,-268.625"/>
<polygon fill="black" stroke="black" points="241.579,-271.933 250.335,-265.967 239.77,-265.171 241.579,-271.933"/>
<text text-anchor="middle" x="112.493" y="-308.176" font-family="Times New Roman,serif" font-size="14.00"> (1)</text>
</g>
<!-- node4 -->
<g id="node5" class="node"><title>node4</title>
<ellipse fill="none" stroke="black" cx="42.2463" cy="-21.3759" rx="42.4939" ry="18"/>
<text text-anchor="middle" x="42.2463" y="-17.6759" font-family="Times New Roman,serif" font-size="14.00">(4) Input</text>
</g>
<!-- node9 -->
<g id="node10" class="node"><title>node9</title>
<ellipse fill="none" stroke="black" cx="395.523" cy="-110.376" rx="42.4939" ry="18"/>
<text text-anchor="middle" x="395.523" y="-106.676" font-family="Times New Roman,serif" font-size="14.00">(9) AND</text>
</g>
<!-- node4&#45;&gt;node9 -->
<g id="edge10" class="edge"><title>node4&#45;&gt;node9</title>
<path fill="none" stroke="black" d="M84.369,-22.9184C152.874,-25.9914 287.083,-34.2977 330.077,-53.3759 346.653,-60.7311 362.001,-73.9297 373.558,-85.775"/>
<polygon fill="black" stroke="black" points="371.195,-88.3723 380.58,-93.2887 376.309,-83.5928 371.195,-88.3723"/>
<text text-anchor="middle" x="183.389" y="-36.1759" font-family="Times New Roman,serif" font-size="14.00"> (1)</text>
</g>
<!-- node10 -->
<g id="node11" class="node"><title>node10</title>
<ellipse fill="none" stroke="black" cx="395.523" cy="-22.3759" rx="47.3916" ry="18"/>
<text text-anchor="middle" x="395.523" y="-18.6759" font-family="Times New Roman,serif" font-size="14.00">(10) XOR</text>
</g>
<!-- node4&#45;&gt;node10 -->
<g id="edge12" class="edge"><title>node4&#45;&gt;node10</title>
<path fill="none" stroke="black" d="M79.483,-12.5697C97.6714,-8.59186 120.117,-4.3477 140.493,-2.37586 210.318,4.38155 291.11,-4.90656 342.491,-12.9547"/>
<polygon fill="black" stroke="black" points="342.249,-16.4608 352.678,-14.5948 343.362,-9.54975 342.249,-16.4608"/>
<text text-anchor="middle" x="183.389" y="-6.17586" font-family="Times New Roman,serif" font-size="14.00"> (1)</text>
</g>
<!-- node14 -->
<g id="node15" class="node"><title>node14</title>
<ellipse fill="none" stroke="black" cx="828.7" cy="-304.376" rx="40.8928" ry="18"/>
<text text-anchor="middle" x="828.7" y="-300.676" font-family="Times New Roman,serif" font-size="14.00">(14) OR</text>
</g>
<!-- node5&#45;&gt;node14 -->
<g id="edge19" class="edge"><title>node5&#45;&gt;node14</title>
<path fill="none" stroke="black" d="M225.026,-340.678C267.324,-337.152 335.509,-332.376 394.523,-332.376 394.523,-332.376 394.523,-332.376 685.307,-332.376 719.19,-332.376 756.769,-324.649 784.811,-317.313"/>
<polygon fill="black" stroke="black" points="785.946,-320.632 794.686,-314.643 784.119,-313.874 785.946,-320.632"/>
<text text-anchor="middle" x="539.915" y="-336.176" font-family="Times New Roman,serif" font-size="14.00"> (0)</text>
</g>
<!-- node12 -->
<g id="node13" class="node"><title>node12</title>
<ellipse fill="none" stroke="black" cx="684.307" cy="-195.376" rx="47.3916" ry="18"/>
<text text-anchor="middle" x="684.307" y="-191.676" font-family="Times New Roman,serif" font-size="14.00">(12) XOR</text>
</g>
<!-- node6&#45;&gt;node12 -->
<g id="edge15" class="edge"><title>node6&#45;&gt;node12</title>
<path fill="none" stroke="black" d="M329.8,-253.836C406.053,-248.915 565.261,-237.329 618.862,-223.376 627.965,-221.006 637.431,-217.524 646.216,-213.814"/>
<polygon fill="black" stroke="black" points="647.699,-216.985 655.431,-209.741 644.869,-210.582 647.699,-216.985"/>
<text text-anchor="middle" x="470.969" y="-247.176" font-family="Times New Roman,serif" font-size="14.00"> (0)</text>
</g>
<!-- node13 -->
<g id="node14" class="node"><title>node13</title>
<ellipse fill="none" stroke="black" cx="684.307" cy="-275.376" rx="46.5926" ry="18"/>
<text text-anchor="middle" x="684.307" y="-271.676" font-family="Times New Roman,serif" font-size="14.00">(13) AND</text>
</g>
<!-- node6&#45;&gt;node13 -->
<g id="edge17" class="edge"><title>node6&#45;&gt;node13</title>
<path fill="none" stroke="black" d="M330.092,-258.391C401.563,-261.828 547.044,-268.824 627.2,-272.678"/>
<polygon fill="black" stroke="black" points="627.433,-276.193 637.589,-273.177 627.769,-269.201 627.433,-276.193"/>
<text text-anchor="middle" x="470.969" y="-269.176" font-family="Times New Roman,serif" font-size="14.00"> (0)</text>
</g>
<!-- node11 -->
<g id="node12" class="node"><title>node11</title>
<ellipse fill="none" stroke="black" cx="539.915" cy="-169.376" rx="40.8928" ry="18"/>
<text text-anchor="middle" x="539.915" y="-165.676" font-family="Times New Roman,serif" font-size="14.00">(11) OR</text>
</g>
<!-- node7&#45;&gt;node11 -->
<g id="edge14" class="edge"><title>node7&#45;&gt;node11</title>
<path fill="none" stroke="black" d="M225.751,-169.376C291.077,-169.376 417.941,-169.376 488.498,-169.376"/>
<polygon fill="black" stroke="black" points="488.904,-172.876 498.903,-169.376 488.903,-165.876 488.904,-172.876"/>
<text text-anchor="middle" x="395.523" y="-173.176" font-family="Times New Roman,serif" font-size="14.00"> (1)</text>
</g>
<!-- node8&#45;&gt;node9 -->
<g id="edge9" class="edge"><title>node8&#45;&gt;node9</title>
<path fill="none" stroke="black" d="M226.407,-106.376C259.983,-107.175 307.188,-108.298 343.034,-109.151"/>
<polygon fill="black" stroke="black" points="343.213,-112.656 353.293,-109.395 343.379,-105.658 343.213,-112.656"/>
<text text-anchor="middle" x="287.181" y="-112.176" font-family="Times New Roman,serif" font-size="14.00"> (0)</text>
</g>
<!-- node8&#45;&gt;node10 -->
<g id="edge11" class="edge"><title>node8&#45;&gt;node10</title>
<path fill="none" stroke="black" d="M215.395,-93.1289C251.753,-78.7681 312.185,-54.8983 352.675,-38.9051"/>
<polygon fill="black" stroke="black" points="353.991,-42.1485 362.006,-35.2195 351.42,-35.6379 353.991,-42.1485"/>
<text text-anchor="middle" x="287.181" y="-84.1759" font-family="Times New Roman,serif" font-size="14.00"> (0)</text>
</g>
<!-- node9&#45;&gt;node11 -->
<g id="edge13" class="edge"><title>node9&#45;&gt;node11</title>
<path fill="none" stroke="black" d="M429.769,-121.133C445.469,-126.48 464.365,-133.303 480.969,-140.376 488.621,-143.635 496.687,-147.431 504.289,-151.182"/>
<polygon fill="black" stroke="black" points="502.766,-154.333 513.273,-155.695 505.908,-148.078 502.766,-154.333"/>
<text text-anchor="middle" x="470.969" y="-144.176" font-family="Times New Roman,serif" font-size="14.00"> (0)</text>
</g>
<!-- node15 -->
<g id="node16" class="node"><title>node15</title>
<ellipse fill="none" stroke="black" cx="949.542" cy="-22.3759" rx="42.7926" ry="18"/>
<text text-anchor="middle" x="949.542" y="-18.6759" font-family="Times New Roman,serif" font-size="14.00">Output 0</text>
</g>
<!-- node10&#45;&gt;node15 -->
<g id="edge21" class="edge"><title>node10&#45;&gt;node15</title>
<path fill="none" stroke="black" d="M443.017,-22.3759C470.84,-22.3759 506.902,-22.3759 538.915,-22.3759 538.915,-22.3759 538.915,-22.3759 829.7,-22.3759 851.498,-22.3759 875.545,-22.3759 896.272,-22.3759"/>
<polygon fill="black" stroke="black" points="896.467,-25.876 906.467,-22.3759 896.467,-18.876 896.467,-25.876"/>
</g>
<!-- node11&#45;&gt;node12 -->
<g id="edge16" class="edge"><title>node11&#45;&gt;node12</title>
<path fill="none" stroke="black" d="M580.847,-167.164C593.134,-167.211 606.638,-168.007 618.862,-170.376 627.33,-172.017 636.123,-174.707 644.391,-177.728"/>
<polygon fill="black" stroke="black" points="643.216,-181.027 653.805,-181.384 645.75,-174.501 643.216,-181.027"/>
<text text-anchor="middle" x="608.862" y="-174.176" font-family="Times New Roman,serif" font-size="14.00"> (1)</text>
</g>
<!-- node11&#45;&gt;node13 -->
<g id="edge18" class="edge"><title>node11&#45;&gt;node13</title>
<path fill="none" stroke="black" d="M561.62,-184.789C585.806,-202.794 626.009,-232.721 653.538,-253.215"/>
<polygon fill="black" stroke="black" points="651.532,-256.085 661.644,-259.249 655.712,-250.47 651.532,-256.085"/>
<text text-anchor="middle" x="608.862" y="-229.176" font-family="Times New Roman,serif" font-size="14.00"> (1)</text>
</g>
<!-- node16 -->
<g id="node17" class="node"><title>node16</title>
<ellipse fill="none" stroke="black" cx="949.542" cy="-195.376" rx="42.7926" ry="18"/>
<text text-anchor="middle" x="949.542" y="-191.676" font-family="Times New Roman,serif" font-size="14.00">Output 1</text>
</g>
<!-- node12&#45;&gt;node16 -->
<g id="edge22" class="edge"><title>node12&#45;&gt;node16</title>
<path fill="none" stroke="black" d="M731.763,-195.376C777.827,-195.376 848.283,-195.376 896.276,-195.376"/>
<polygon fill="black" stroke="black" points="896.46,-198.876 906.46,-195.376 896.46,-191.876 896.46,-198.876"/>
</g>
<!-- node13&#45;&gt;node14 -->
<g id="edge20" class="edge"><title>node13&#45;&gt;node14</title>
<path fill="none" stroke="black" d="M726.111,-283.686C743.286,-287.184 763.365,-291.273 781.116,-294.889"/>
<polygon fill="black" stroke="black" points="780.762,-298.388 791.26,-296.954 782.159,-291.529 780.762,-298.388"/>
<text text-anchor="middle" x="759.753" y="-296.176" font-family="Times New Roman,serif" font-size="14.00"> (1)</text>
</g>
<!-- node17 -->
<g id="node18" class="node"><title>node17</title>
<ellipse fill="none" stroke="black" cx="949.542" cy="-304.376" rx="42.7926" ry="18"/>
<text text-anchor="middle" x="949.542" y="-300.676" font-family="Times New Roman,serif" font-size="14.00">Output 2</text>
</g>
<!-- node14&#45;&gt;node17 -->
<g id="edge23" class="edge"><title>node14&#45;&gt;node17</title>
<path fill="none" stroke="black" d="M869.934,-304.376C878.356,-304.376 887.353,-304.376 896.143,-304.376"/>
<polygon fill="black" stroke="black" points="896.319,-307.876 906.319,-304.376 896.318,-300.876 896.319,-307.876"/>
</g>
</g>
</svg>
