<?xml version="1.0" encoding="UTF-8" standalone="no"?>
<!DOCTYPE svg PUBLIC "-//W3C//DTD SVG 1.1//EN"
 "http://www.w3.org/Graphics/SVG/1.1/DTD/svg11.dtd">
<!-- Generated by graphviz version 2.38.0 (20140413.2041)
 -->
<!-- Title: NeuralNetwork Pages: 1 -->
<svg width="288pt" height="84pt"
 viewBox="0.00 0.00 288.00 83.82" xmlns="http://www.w3.org/2000/svg" xmlns:xlink="http://www.w3.org/1999/xlink">
<g id="graph0" class="graph" transform="scale(0.246527 0.246527) rotate(0) translate(4 336)">
<title>NeuralNetwork</title>
<polygon fill="white" stroke="none" points="-4,4 -4,-336 1164.23,-336 1164.23,4 -4,4"/>
<!-- node0 -->
<g id="node1" class="node"><title>node0</title>
<ellipse fill="none" stroke="black" cx="42.2463" cy="-18" rx="42.4939" ry="18"/>
<text text-anchor="middle" x="42.2463" y="-14.3" font-family="Times New Roman,serif" font-size="14.00">(0) Input</text>
</g>
<!-- node7 -->
<g id="node8" class="node"><title>node7</title>
<ellipse fill="none" stroke="black" cx="183.389" cy="-101" rx="42.7926" ry="18"/>
<text text-anchor="middle" x="183.389" y="-97.3" font-family="Times New Roman,serif" font-size="14.00">(7) XOR</text>
</g>
<!-- node0&#45;&gt;node7 -->
<g id="edge5" class="edge"><title>node0&#45;&gt;node7</title>
<path fill="none" stroke="black" d="M67.483,-32.4575C90.0897,-45.9426 124.008,-66.1752 149.139,-81.1661"/>
<polygon fill="black" stroke="black" points="147.582,-84.3126 157.963,-86.4297 151.168,-78.3009 147.582,-84.3126"/>
<text text-anchor="middle" x="112.493" y="-67.8" font-family="Times New Roman,serif" font-size="14.00"> (0)</text>
</g>
<!-- node1 -->
<g id="node2" class="node"><title>node1</title>
<ellipse fill="none" stroke="black" cx="42.2463" cy="-253" rx="42.4939" ry="18"/>
<text text-anchor="middle" x="42.2463" y="-249.3" font-family="Times New Roman,serif" font-size="14.00">(1) Input</text>
</g>
<!-- node5 -->
<g id="node6" class="node"><title>node5</title>
<ellipse fill="none" stroke="black" cx="183.389" cy="-260" rx="42.7926" ry="18"/>
<text text-anchor="middle" x="183.389" y="-256.3" font-family="Times New Roman,serif" font-size="14.00">(5) XOR</text>
</g>
<!-- node1&#45;&gt;node5 -->
<g id="edge2" class="edge"><title>node1&#45;&gt;node5</title>
<path fill="none" stroke="black" d="M84.8093,-252.843C96.963,-252.981 110.266,-253.312 122.493,-254 125.525,-254.171 128.641,-254.38 131.782,-254.617"/>
<polygon fill="black" stroke="black" points="131.574,-258.112 141.83,-255.454 132.155,-251.136 131.574,-258.112"/>
<text text-anchor="middle" x="112.493" y="-257.8" font-family="Times New Roman,serif" font-size="14.00"> (1)</text>
</g>
<!-- node2 -->
<g id="node3" class="node"><title>node2</title>
<ellipse fill="none" stroke="black" cx="42.2463" cy="-77" rx="42.4939" ry="18"/>
<text text-anchor="middle" x="42.2463" y="-73.3" font-family="Times New Roman,serif" font-size="14.00">(2) Input</text>
</g>
<!-- node6 -->
<g id="node7" class="node"><title>node6</title>
<ellipse fill="none" stroke="black" cx="183.389" cy="-156" rx="42.7926" ry="18"/>
<text text-anchor="middle" x="183.389" y="-152.3" font-family="Times New Roman,serif" font-size="14.00">(6) XOR</text>
</g>
<!-- node2&#45;&gt;node6 -->
<g id="edge4" class="edge"><title>node2&#45;&gt;node6</title>
<path fill="none" stroke="black" d="M79.5479,-85.8066C93.7752,-90.3619 109.716,-96.9181 122.493,-106 132.79,-113.319 131.138,-119.508 140.493,-128 143.397,-130.637 146.57,-133.209 149.828,-135.659"/>
<polygon fill="black" stroke="black" points="147.816,-138.523 157.996,-141.461 151.87,-132.816 147.816,-138.523"/>
<text text-anchor="middle" x="112.493" y="-109.8" font-family="Times New Roman,serif" font-size="14.00"> (1)</text>
</g>
<!-- node8 -->
<g id="node9" class="node"><title>node8</title>
<ellipse fill="none" stroke="black" cx="329.081" cy="-65" rx="42.7926" ry="18"/>
<text text-anchor="middle" x="329.081" y="-61.3" font-family="Times New Roman,serif" font-size="14.00">(8) XOR</text>
</g>
<!-- node2&#45;&gt;node8 -->
<g id="edge7" class="edge"><title>node2&#45;&gt;node8</title>
<path fill="none" stroke="black" d="M79.9674,-68.5615C98.0794,-64.8205 120.317,-60.8515 140.493,-59 186.464,-54.7812 239.008,-57.0698 276.768,-59.9552"/>
<polygon fill="black" stroke="black" points="276.76,-63.4658 287.009,-60.7799 277.322,-56.4884 276.76,-63.4658"/>
<text text-anchor="middle" x="183.389" y="-62.8" font-family="Times New Roman,serif" font-size="14.00"> (0)</text>
</g>
<!-- node3 -->
<g id="node4" class="node"><title>node3</title>
<ellipse fill="none" stroke="black" cx="42.2463" cy="-314" rx="42.4939" ry="18"/>
<text text-anchor="middle" x="42.2463" y="-310.3" font-family="Times New Roman,serif" font-size="14.00">(3) Input</text>
</g>
<!-- node3&#45;&gt;node5 -->
<g id="edge1" class="edge"><title>node3&#45;&gt;node5</title>
<path fill="none" stroke="black" d="M74.1265,-302.016C93.9835,-294.309 120.006,-284.21 141.562,-275.844"/>
<polygon fill="black" stroke="black" points="143.057,-279.019 151.114,-272.138 140.525,-272.493 143.057,-279.019"/>
<text text-anchor="middle" x="112.493" y="-293.8" font-family="Times New Roman,serif" font-size="14.00"> (0)</text>
</g>
<!-- node13 -->
<g id="node14" class="node"><title>node13</title>
<ellipse fill="none" stroke="black" cx="329.081" cy="-311" rx="40.8928" ry="18"/>
<text text-anchor="middle" x="329.081" y="-307.3" font-family="Times New Roman,serif" font-size="14.00">(13) OR</text>
</g>
<!-- node3&#45;&gt;node13 -->
<g id="edge16" class="edge"><title>node3&#45;&gt;node13</title>
<path fill="none" stroke="black" d="M84.6636,-313.564C135.831,-313.025 222.836,-312.108 277.787,-311.53"/>
<polygon fill="black" stroke="black" points="278.031,-315.027 287.994,-311.422 277.957,-308.028 278.031,-315.027"/>
<text text-anchor="middle" x="183.389" y="-315.8" font-family="Times New Roman,serif" font-size="14.00"> (0)</text>
</g>
<!-- node4 -->
<g id="node5" class="node"><title>node4</title>
<ellipse fill="none" stroke="black" cx="42.2463" cy="-157" rx="42.4939" ry="18"/>
<text text-anchor="middle" x="42.2463" y="-153.3" font-family="Times New Roman,serif" font-size="14.00">(4) Input</text>
</g>
<!-- node4&#45;&gt;node6 -->
<g id="edge3" class="edge"><title>node4&#45;&gt;node6</title>
<path fill="none" stroke="black" d="M84.6168,-156.703C98.9362,-156.6 115.174,-156.483 130.246,-156.375"/>
<polygon fill="black" stroke="black" points="130.481,-159.873 140.456,-156.301 130.431,-152.873 130.481,-159.873"/>
<text text-anchor="middle" x="112.493" y="-159.8" font-family="Times New Roman,serif" font-size="14.00"> (0)</text>
</g>
<!-- node4&#45;&gt;node7 -->
<g id="edge6" class="edge"><title>node4&#45;&gt;node7</title>
<path fill="none" stroke="black" d="M73.4381,-144.849C93.6292,-136.723 120.419,-125.941 142.38,-117.102"/>
<polygon fill="black" stroke="black" points="143.805,-120.301 151.775,-113.321 141.192,-113.808 143.805,-120.301"/>
<text text-anchor="middle" x="112.493" y="-135.8" font-family="Times New Roman,serif" font-size="14.00"> (1)</text>
</g>
<!-- node10 -->
<g id="node11" class="node"><title>node10</title>
<ellipse fill="none" stroke="black" cx="479.322" cy="-204" rx="47.3916" ry="18"/>
<text text-anchor="middle" x="479.322" y="-200.3" font-family="Times New Roman,serif" font-size="14.00">(10) XOR</text>
</g>
<!-- node4&#45;&gt;node10 -->
<g id="edge11" class="edge"><title>node4&#45;&gt;node10</title>
<path fill="none" stroke="black" d="M76.1284,-168.015C94.7737,-173.696 118.672,-180.041 140.493,-183 238.604,-196.305 353.906,-201.193 421.273,-202.98"/>
<polygon fill="black" stroke="black" points="421.578,-206.489 431.663,-203.241 421.754,-199.491 421.578,-206.489"/>
<text text-anchor="middle" x="254.285" y="-198.8" font-family="Times New Roman,serif" font-size="14.00"> (1)</text>
</g>
<!-- node9 -->
<g id="node10" class="node"><title>node9</title>
<ellipse fill="none" stroke="black" cx="329.081" cy="-253" rx="42.4939" ry="18"/>
<text text-anchor="middle" x="329.081" y="-249.3" font-family="Times New Roman,serif" font-size="14.00">(9) NEG</text>
</g>
<!-- node5&#45;&gt;node9 -->
<g id="edge9" class="edge"><title>node5&#45;&gt;node9</title>
<path fill="none" stroke="black" d="M224.947,-255.45C231.408,-254.866 238.024,-254.35 244.285,-254 254.743,-253.415 265.945,-253.08 276.647,-252.9"/>
<polygon fill="black" stroke="black" points="276.759,-256.399 286.714,-252.773 276.67,-249.4 276.759,-256.399"/>
<text text-anchor="middle" x="254.285" y="-257.8" font-family="Times New Roman,serif" font-size="14.00"> (0)</text>
</g>
<!-- node5&#45;&gt;node13 -->
<g id="edge17" class="edge"><title>node5&#45;&gt;node13</title>
<path fill="none" stroke="black" d="M216.636,-271.445C237.395,-278.813 264.567,-288.457 286.884,-296.378"/>
<polygon fill="black" stroke="black" points="285.841,-299.722 296.436,-299.768 288.182,-293.125 285.841,-299.722"/>
<text text-anchor="middle" x="254.285" y="-291.8" font-family="Times New Roman,serif" font-size="14.00"> (1)</text>
</g>
<!-- node11 -->
<g id="node12" class="node"><title>node11</title>
<ellipse fill="none" stroke="black" cx="329.081" cy="-153" rx="46.5926" ry="18"/>
<text text-anchor="middle" x="329.081" y="-149.3" font-family="Times New Roman,serif" font-size="14.00">(11) AND</text>
</g>
<!-- node6&#45;&gt;node11 -->
<g id="edge12" class="edge"><title>node6&#45;&gt;node11</title>
<path fill="none" stroke="black" d="M226.337,-155.124C240.605,-154.826 256.789,-154.488 271.984,-154.171"/>
<polygon fill="black" stroke="black" points="272.385,-157.664 282.31,-153.956 272.239,-150.665 272.385,-157.664"/>
<text text-anchor="middle" x="254.285" y="-157.8" font-family="Times New Roman,serif" font-size="14.00"> (0)</text>
</g>
<!-- node7&#45;&gt;node8 -->
<g id="edge8" class="edge"><title>node7&#45;&gt;node8</title>
<path fill="none" stroke="black" d="M217.471,-89.8098C226.142,-87.0684 235.52,-84.2723 244.285,-82 255.51,-79.09 267.687,-76.3729 279.19,-74.0021"/>
<polygon fill="black" stroke="black" points="279.97,-77.4153 289.084,-72.0117 278.59,-70.5527 279.97,-77.4153"/>
<text text-anchor="middle" x="254.285" y="-85.8" font-family="Times New Roman,serif" font-size="14.00"> (1)</text>
</g>
<!-- node7&#45;&gt;node11 -->
<g id="edge13" class="edge"><title>node7&#45;&gt;node11</title>
<path fill="none" stroke="black" d="M216.636,-112.67C236.818,-119.973 263.062,-129.471 285.013,-137.414"/>
<polygon fill="black" stroke="black" points="283.848,-140.715 294.442,-140.827 286.23,-134.133 283.848,-140.715"/>
<text text-anchor="middle" x="254.285" y="-133.8" font-family="Times New Roman,serif" font-size="14.00"> (1)</text>
</g>
<!-- node17 -->
<g id="node18" class="node"><title>node17</title>
<ellipse fill="none" stroke="black" cx="1117.33" cy="-65" rx="42.7926" ry="18"/>
<text text-anchor="middle" x="1117.33" y="-61.3" font-family="Times New Roman,serif" font-size="14.00">Output 0</text>
</g>
<!-- node8&#45;&gt;node17 -->
<g id="edge23" class="edge"><title>node8&#45;&gt;node17</title>
<path fill="none" stroke="black" d="M372.254,-65C401.919,-65 442.549,-65 478.322,-65 478.322,-65 478.322,-65 991.64,-65 1015.37,-65 1041.65,-65 1063.94,-65"/>
<polygon fill="black" stroke="black" points="1064.2,-68.5001 1074.2,-65 1064.2,-61.5001 1064.2,-68.5001"/>
</g>
<!-- node9&#45;&gt;node10 -->
<g id="edge10" class="edge"><title>node9&#45;&gt;node10</title>
<path fill="none" stroke="black" d="M362.98,-242.125C383.637,-235.298 410.556,-226.4 433.193,-218.917"/>
<polygon fill="black" stroke="black" points="434.53,-222.161 442.927,-215.7 432.333,-215.515 434.53,-222.161"/>
<text text-anchor="middle" x="403.877" y="-234.8" font-family="Times New Roman,serif" font-size="14.00"> (0)</text>
</g>
<!-- node14 -->
<g id="node15" class="node"><title>node14</title>
<ellipse fill="none" stroke="black" cx="774.606" cy="-265" rx="40.8928" ry="18"/>
<text text-anchor="middle" x="774.606" y="-261.3" font-family="Times New Roman,serif" font-size="14.00">(14) OR</text>
</g>
<!-- node9&#45;&gt;node14 -->
<g id="edge19" class="edge"><title>node9&#45;&gt;node14</title>
<path fill="none" stroke="black" d="M371.408,-254.118C453.118,-256.329 635.05,-261.251 723.456,-263.643"/>
<polygon fill="black" stroke="black" points="723.414,-267.143 733.505,-263.915 723.603,-260.146 723.414,-267.143"/>
<text text-anchor="middle" x="554.768" y="-262.8" font-family="Times New Roman,serif" font-size="14.00"> (1)</text>
</g>
<!-- node12 -->
<g id="node13" class="node"><title>node12</title>
<ellipse fill="none" stroke="black" cx="630.214" cy="-199" rx="47.3916" ry="18"/>
<text text-anchor="middle" x="630.214" y="-195.3" font-family="Times New Roman,serif" font-size="14.00">(12) XOR</text>
</g>
<!-- node10&#45;&gt;node12 -->
<g id="edge14" class="edge"><title>node10&#45;&gt;node12</title>
<path fill="none" stroke="black" d="M526.616,-202.445C541.113,-201.959 557.279,-201.416 572.413,-200.907"/>
<polygon fill="black" stroke="black" points="572.815,-204.396 582.692,-200.562 572.58,-197.4 572.815,-204.396"/>
<text text-anchor="middle" x="554.768" y="-204.8" font-family="Times New Roman,serif" font-size="14.00"> (0)</text>
</g>
<!-- node11&#45;&gt;node12 -->
<g id="edge15" class="edge"><title>node11&#45;&gt;node12</title>
<path fill="none" stroke="black" d="M375.857,-151.235C416.022,-150.599 475.807,-151.873 526.768,-162 548.091,-166.237 570.922,-174.13 589.607,-181.541"/>
<polygon fill="black" stroke="black" points="588.389,-184.824 598.97,-185.351 591.027,-178.34 588.389,-184.824"/>
<text text-anchor="middle" x="479.322" y="-165.8" font-family="Times New Roman,serif" font-size="14.00"> (1)</text>
</g>
<!-- node12&#45;&gt;node14 -->
<g id="edge18" class="edge"><title>node12&#45;&gt;node14</title>
<path fill="none" stroke="black" d="M662.666,-212.328C678.628,-219.206 698.269,-227.845 715.66,-236 722.965,-239.425 730.724,-243.208 738.111,-246.878"/>
<polygon fill="black" stroke="black" points="736.697,-250.084 747.205,-251.432 739.831,-243.825 736.697,-250.084"/>
<text text-anchor="middle" x="705.66" y="-239.8" font-family="Times New Roman,serif" font-size="14.00"> (0)</text>
</g>
<!-- node15 -->
<g id="node16" class="node"><title>node15</title>
<ellipse fill="none" stroke="black" cx="879.698" cy="-197" rx="46.2923" ry="18"/>
<text text-anchor="middle" x="879.698" y="-193.3" font-family="Times New Roman,serif" font-size="14.00">(15) NEG</text>
</g>
<!-- node12&#45;&gt;node15 -->
<g id="edge20" class="edge"><title>node12&#45;&gt;node15</title>
<path fill="none" stroke="black" d="M677.764,-198.624C718.986,-198.291 779.236,-197.804 823.003,-197.45"/>
<polygon fill="black" stroke="black" points="823.222,-200.949 833.193,-197.368 823.165,-193.949 823.222,-200.949"/>
<text text-anchor="middle" x="705.66" y="-201.8" font-family="Times New Roman,serif" font-size="14.00"> (0)</text>
</g>
<!-- node16 -->
<g id="node17" class="node"><title>node16</title>
<ellipse fill="none" stroke="black" cx="990.64" cy="-296" rx="46.5926" ry="18"/>
<text text-anchor="middle" x="990.64" y="-292.3" font-family="Times New Roman,serif" font-size="14.00">(16) AND</text>
</g>
<!-- node13&#45;&gt;node16 -->
<g id="edge22" class="edge"><title>node13&#45;&gt;node16</title>
<path fill="none" stroke="black" d="M370.034,-311C399.87,-311 441.648,-311 478.322,-311 478.322,-311 478.322,-311 775.606,-311 830.093,-311 892.191,-306.103 935.414,-301.905"/>
<polygon fill="black" stroke="black" points="935.826,-305.381 945.432,-300.912 935.135,-298.415 935.826,-305.381"/>
<text text-anchor="middle" x="630.214" y="-314.8" font-family="Times New Roman,serif" font-size="14.00"> (1)</text>
</g>
<!-- node14&#45;&gt;node16 -->
<g id="edge21" class="edge"><title>node14&#45;&gt;node16</title>
<path fill="none" stroke="black" d="M814.985,-268.334C845.382,-271.178 888.425,-275.794 925.844,-282 930.56,-282.782 935.453,-283.686 940.336,-284.651"/>
<polygon fill="black" stroke="black" points="939.787,-288.111 950.287,-286.697 941.197,-281.255 939.787,-288.111"/>
<text text-anchor="middle" x="879.698" y="-285.8" font-family="Times New Roman,serif" font-size="14.00"> (0)</text>
</g>
<!-- node18 -->
<g id="node19" class="node"><title>node18</title>
<ellipse fill="none" stroke="black" cx="1117.33" cy="-197" rx="42.7926" ry="18"/>
<text text-anchor="middle" x="1117.33" y="-193.3" font-family="Times New Roman,serif" font-size="14.00">Output 1</text>
</g>
<!-- node15&#45;&gt;node18 -->
<g id="edge24" class="edge"><title>node15&#45;&gt;node18</title>
<path fill="none" stroke="black" d="M925.852,-197C965.274,-197 1022.5,-197 1063.93,-197"/>
<polygon fill="black" stroke="black" points="1064.1,-200.5 1074.1,-197 1064.1,-193.5 1064.1,-200.5"/>
</g>
<!-- node19 -->
<g id="node20" class="node"><title>node19</title>
<ellipse fill="none" stroke="black" cx="1117.33" cy="-296" rx="42.7926" ry="18"/>
<text text-anchor="middle" x="1117.33" y="-292.3" font-family="Times New Roman,serif" font-size="14.00">Output 2</text>
</g>
<!-- node16&#45;&gt;node19 -->
<g id="edge25" class="edge"><title>node16&#45;&gt;node19</title>
<path fill="none" stroke="black" d="M1037.72,-296C1046.29,-296 1055.31,-296 1064.06,-296"/>
<polygon fill="black" stroke="black" points="1064.16,-299.5 1074.16,-296 1064.16,-292.5 1064.16,-299.5"/>
</g>
</g>
</svg>
