<?xml version="1.0" encoding="UTF-8" standalone="no"?>
<!DOCTYPE svg PUBLIC "-//W3C//DTD SVG 1.1//EN"
 "http://www.w3.org/Graphics/SVG/1.1/DTD/svg11.dtd">
<!-- Generated by graphviz version 2.38.0 (20140413.2041)
 -->
<!-- Title: NeuralNetwork Pages: 1 -->
<svg width="288pt" height="94pt"
 viewBox="0.00 0.00 288.00 94.46" xmlns="http://www.w3.org/2000/svg" xmlns:xlink="http://www.w3.org/1999/xlink">
<g id="graph0" class="graph" transform="scale(0.262121 0.262121) rotate(0) translate(4 356.357)">
<title>NeuralNetwork</title>
<polygon fill="white" stroke="none" points="-4,4 -4,-356.357 1094.73,-356.357 1094.73,4 -4,4"/>
<!-- node0 -->
<g id="node1" class="node"><title>node0</title>
<ellipse fill="none" stroke="black" cx="42.2463" cy="-163.357" rx="42.4939" ry="18"/>
<text text-anchor="middle" x="42.2463" y="-159.657" font-family="Times New Roman,serif" font-size="14.00">(0) Input</text>
</g>
<!-- node5 -->
<g id="node6" class="node"><title>node5</title>
<ellipse fill="none" stroke="black" cx="183.389" cy="-163.357" rx="42.4939" ry="18"/>
<text text-anchor="middle" x="183.389" y="-159.657" font-family="Times New Roman,serif" font-size="14.00">(5) AND</text>
</g>
<!-- node0&#45;&gt;node5 -->
<g id="edge2" class="edge"><title>node0&#45;&gt;node5</title>
<path fill="none" stroke="black" d="M84.6797,-164.146C90.6564,-164.234 96.7318,-164.309 102.493,-164.357 111.661,-164.435 121.42,-164.405 130.855,-164.319"/>
<polygon fill="black" stroke="black" points="130.962,-167.819 140.922,-164.206 130.883,-160.819 130.962,-167.819"/>
<text text-anchor="middle" x="112.493" y="-168.157" font-family="Times New Roman,serif" font-size="14.00"> (1)</text>
</g>
<!-- node6 -->
<g id="node7" class="node"><title>node6</title>
<ellipse fill="none" stroke="black" cx="183.389" cy="-100.357" rx="42.7926" ry="18"/>
<text text-anchor="middle" x="183.389" y="-96.6573" font-family="Times New Roman,serif" font-size="14.00">(6) XOR</text>
</g>
<!-- node0&#45;&gt;node6 -->
<g id="edge4" class="edge"><title>node0&#45;&gt;node6</title>
<path fill="none" stroke="black" d="M71.7396,-150.456C92.7035,-140.964 121.42,-127.962 144.345,-117.582"/>
<polygon fill="black" stroke="black" points="145.789,-120.771 153.455,-113.458 142.902,-114.394 145.789,-120.771"/>
<text text-anchor="middle" x="112.493" y="-139.157" font-family="Times New Roman,serif" font-size="14.00"> (1)</text>
</g>
<!-- node1 -->
<g id="node2" class="node"><title>node1</title>
<ellipse fill="none" stroke="black" cx="42.2463" cy="-311.357" rx="42.4939" ry="18"/>
<text text-anchor="middle" x="42.2463" y="-307.657" font-family="Times New Roman,serif" font-size="14.00">(1) Input</text>
</g>
<!-- node7 -->
<g id="node8" class="node"><title>node7</title>
<ellipse fill="none" stroke="black" cx="286.531" cy="-282.357" rx="42.4939" ry="18"/>
<text text-anchor="middle" x="286.531" y="-278.657" font-family="Times New Roman,serif" font-size="14.00">(7) NEG</text>
</g>
<!-- node1&#45;&gt;node7 -->
<g id="edge5" class="edge"><title>node1&#45;&gt;node7</title>
<path fill="none" stroke="black" d="M82.0937,-305.218C88.886,-304.213 95.8901,-303.219 102.493,-302.357 147.257,-296.514 198.335,-291.031 235.138,-287.29"/>
<polygon fill="black" stroke="black" points="235.525,-290.768 245.122,-286.282 234.821,-283.804 235.525,-290.768"/>
<text text-anchor="middle" x="112.493" y="-306.157" font-family="Times New Roman,serif" font-size="14.00"> (0)</text>
</g>
<!-- node9 -->
<g id="node10" class="node"><title>node9</title>
<ellipse fill="none" stroke="black" cx="183.389" cy="-334.357" rx="36.2938" ry="18"/>
<text text-anchor="middle" x="183.389" y="-330.657" font-family="Times New Roman,serif" font-size="14.00">(9) OR</text>
</g>
<!-- node1&#45;&gt;node9 -->
<g id="edge8" class="edge"><title>node1&#45;&gt;node9</title>
<path fill="none" stroke="black" d="M82.0052,-317.764C99.564,-320.667 120.404,-324.111 138.533,-327.108"/>
<polygon fill="black" stroke="black" points="138.13,-330.589 148.567,-328.767 139.272,-323.683 138.13,-330.589"/>
<text text-anchor="middle" x="112.493" y="-327.157" font-family="Times New Roman,serif" font-size="14.00"> (0)</text>
</g>
<!-- node2 -->
<g id="node3" class="node"><title>node2</title>
<ellipse fill="none" stroke="black" cx="42.2463" cy="-21.3573" rx="42.4939" ry="18"/>
<text text-anchor="middle" x="42.2463" y="-17.6573" font-family="Times New Roman,serif" font-size="14.00">(2) Input</text>
</g>
<!-- node8 -->
<g id="node9" class="node"><title>node8</title>
<ellipse fill="none" stroke="black" cx="394.223" cy="-109.357" rx="42.4939" ry="18"/>
<text text-anchor="middle" x="394.223" y="-105.657" font-family="Times New Roman,serif" font-size="14.00">(8) AND</text>
</g>
<!-- node2&#45;&gt;node8 -->
<g id="edge7" class="edge"><title>node2&#45;&gt;node8</title>
<path fill="none" stroke="black" d="M84.4381,-22.9685C152.69,-26.1353 285.955,-34.5668 328.777,-53.3573 345.145,-60.5393 360.392,-73.3804 371.943,-84.9558"/>
<polygon fill="black" stroke="black" points="369.533,-87.4999 378.974,-92.3076 374.591,-82.6616 369.533,-87.4999"/>
<text text-anchor="middle" x="183.389" y="-36.1573" font-family="Times New Roman,serif" font-size="14.00"> (1)</text>
</g>
<!-- node13 -->
<g id="node14" class="node"><title>node13</title>
<ellipse fill="none" stroke="black" cx="394.223" cy="-22.3573" rx="47.3916" ry="18"/>
<text text-anchor="middle" x="394.223" y="-18.6573" font-family="Times New Roman,serif" font-size="14.00">(13) XOR</text>
</g>
<!-- node2&#45;&gt;node13 -->
<g id="edge16" class="edge"><title>node2&#45;&gt;node13</title>
<path fill="none" stroke="black" d="M79.483,-12.5512C97.6714,-8.57332 120.117,-4.32916 140.493,-2.35732 209.758,4.3459 289.867,-4.85956 341.005,-12.8799"/>
<polygon fill="black" stroke="black" points="340.719,-16.379 351.149,-14.5151 341.833,-9.46817 340.719,-16.379"/>
<text text-anchor="middle" x="183.389" y="-6.15732" font-family="Times New Roman,serif" font-size="14.00"> (0)</text>
</g>
<!-- node3 -->
<g id="node4" class="node"><title>node3</title>
<ellipse fill="none" stroke="black" cx="42.2463" cy="-233.357" rx="42.4939" ry="18"/>
<text text-anchor="middle" x="42.2463" y="-229.657" font-family="Times New Roman,serif" font-size="14.00">(3) Input</text>
</g>
<!-- node3&#45;&gt;node9 -->
<g id="edge9" class="edge"><title>node3&#45;&gt;node9</title>
<path fill="none" stroke="black" d="M83.7742,-236.824C96.9379,-239.393 111.079,-243.806 122.493,-251.357 143.538,-265.282 159.665,-289.298 169.855,-307.925"/>
<polygon fill="black" stroke="black" points="166.775,-309.587 174.507,-316.83 172.979,-306.346 166.775,-309.587"/>
<text text-anchor="middle" x="112.493" y="-255.157" font-family="Times New Roman,serif" font-size="14.00"> (1)</text>
</g>
<!-- node10 -->
<g id="node11" class="node"><title>node10</title>
<ellipse fill="none" stroke="black" cx="507.115" cy="-250.357" rx="47.3916" ry="18"/>
<text text-anchor="middle" x="507.115" y="-246.657" font-family="Times New Roman,serif" font-size="14.00">(10) XOR</text>
</g>
<!-- node3&#45;&gt;node10 -->
<g id="edge11" class="edge"><title>node3&#45;&gt;node10</title>
<path fill="none" stroke="black" d="M84.7301,-234.881C167.929,-237.937 355.254,-244.817 449.581,-248.281"/>
<polygon fill="black" stroke="black" points="449.665,-251.786 459.787,-248.656 449.922,-244.791 449.665,-251.786"/>
<text text-anchor="middle" x="183.389" y="-243.157" font-family="Times New Roman,serif" font-size="14.00"> (1)</text>
</g>
<!-- node4 -->
<g id="node5" class="node"><title>node4</title>
<ellipse fill="none" stroke="black" cx="42.2463" cy="-90.3573" rx="42.4939" ry="18"/>
<text text-anchor="middle" x="42.2463" y="-86.6573" font-family="Times New Roman,serif" font-size="14.00">(4) Input</text>
</g>
<!-- node4&#45;&gt;node5 -->
<g id="edge1" class="edge"><title>node4&#45;&gt;node5</title>
<path fill="none" stroke="black" d="M83.6278,-94.8047C96.6384,-97.4449 110.724,-101.652 122.493,-108.357 132.599,-114.116 132.07,-119.334 140.493,-127.357 145.14,-131.785 150.222,-136.359 155.193,-140.699"/>
<polygon fill="black" stroke="black" points="152.971,-143.405 162.835,-147.273 157.537,-138.098 152.971,-143.405"/>
<text text-anchor="middle" x="112.493" y="-112.157" font-family="Times New Roman,serif" font-size="14.00"> (0)</text>
</g>
<!-- node4&#45;&gt;node6 -->
<g id="edge3" class="edge"><title>node4&#45;&gt;node6</title>
<path fill="none" stroke="black" d="M72.9763,-77.9387C87.8474,-73.264 106.122,-69.8381 122.493,-73.3573 130.989,-75.1838 139.733,-78.3145 147.825,-81.8114"/>
<polygon fill="black" stroke="black" points="146.424,-85.0195 156.971,-86.0284 149.355,-78.6627 146.424,-85.0195"/>
<text text-anchor="middle" x="112.493" y="-77.1573" font-family="Times New Roman,serif" font-size="14.00"> (0)</text>
</g>
<!-- node11 -->
<g id="node12" class="node"><title>node11</title>
<ellipse fill="none" stroke="black" cx="620.006" cy="-163.357" rx="47.3916" ry="18"/>
<text text-anchor="middle" x="620.006" y="-159.657" font-family="Times New Roman,serif" font-size="14.00">(11) XOR</text>
</g>
<!-- node5&#45;&gt;node11 -->
<g id="edge13" class="edge"><title>node5&#45;&gt;node11</title>
<path fill="none" stroke="black" d="M225.668,-163.357C303.833,-163.357 473.551,-163.357 562.318,-163.357"/>
<polygon fill="black" stroke="black" points="562.47,-166.857 572.47,-163.357 562.47,-159.857 562.47,-166.857"/>
<text text-anchor="middle" x="394.223" y="-167.157" font-family="Times New Roman,serif" font-size="14.00"> (1)</text>
</g>
<!-- node6&#45;&gt;node8 -->
<g id="edge6" class="edge"><title>node6&#45;&gt;node8</title>
<path fill="none" stroke="black" d="M226.148,-102.157C259.407,-103.59 306.124,-105.604 341.705,-107.137"/>
<polygon fill="black" stroke="black" points="341.752,-110.642 351.893,-107.576 342.053,-103.649 341.752,-110.642"/>
<text text-anchor="middle" x="286.531" y="-110.157" font-family="Times New Roman,serif" font-size="14.00"> (0)</text>
</g>
<!-- node6&#45;&gt;node13 -->
<g id="edge17" class="edge"><title>node6&#45;&gt;node13</title>
<path fill="none" stroke="black" d="M216.106,-88.5108C251.946,-75.1245 310.471,-53.2653 350.359,-38.3671"/>
<polygon fill="black" stroke="black" points="351.679,-41.6104 359.822,-34.8326 349.23,-35.0528 351.679,-41.6104"/>
<text text-anchor="middle" x="286.531" y="-80.1573" font-family="Times New Roman,serif" font-size="14.00"> (1)</text>
</g>
<!-- node7&#45;&gt;node10 -->
<g id="edge10" class="edge"><title>node7&#45;&gt;node10</title>
<path fill="none" stroke="black" d="M326.61,-276.636C361.667,-271.504 413.439,-263.925 452.386,-258.223"/>
<polygon fill="black" stroke="black" points="453.111,-261.654 462.499,-256.743 452.097,-254.728 453.111,-261.654"/>
<text text-anchor="middle" x="394.223" y="-276.157" font-family="Times New Roman,serif" font-size="14.00"> (0)</text>
</g>
<!-- node8&#45;&gt;node11 -->
<g id="edge12" class="edge"><title>node8&#45;&gt;node11</title>
<path fill="none" stroke="black" d="M435.827,-112.709C468.427,-116.117 515.109,-122.617 554.561,-134.357 563.715,-137.081 573.26,-140.83 582.113,-144.729"/>
<polygon fill="black" stroke="black" points="580.847,-147.998 591.396,-148.976 583.759,-141.633 580.847,-147.998"/>
<text text-anchor="middle" x="507.115" y="-138.157" font-family="Times New Roman,serif" font-size="14.00"> (0)</text>
</g>
<!-- node16 -->
<g id="node17" class="node"><title>node16</title>
<ellipse fill="none" stroke="black" cx="921.14" cy="-282.357" rx="46.5926" ry="18"/>
<text text-anchor="middle" x="921.14" y="-278.657" font-family="Times New Roman,serif" font-size="14.00">(16) AND</text>
</g>
<!-- node9&#45;&gt;node16 -->
<g id="edge21" class="edge"><title>node9&#45;&gt;node16</title>
<path fill="none" stroke="black" d="M219.861,-334.084C261.41,-333.788 332.312,-333.357 393.223,-333.357 393.223,-333.357 393.223,-333.357 771.898,-333.357 812.42,-333.357 855.95,-316.107 885.282,-301.671"/>
<polygon fill="black" stroke="black" points="886.948,-304.751 894.285,-297.109 883.783,-298.507 886.948,-304.751"/>
<text text-anchor="middle" x="620.006" y="-337.157" font-family="Times New Roman,serif" font-size="14.00"> (0)</text>
</g>
<!-- node12 -->
<g id="node13" class="node"><title>node12</title>
<ellipse fill="none" stroke="black" cx="770.898" cy="-282.357" rx="40.8928" ry="18"/>
<text text-anchor="middle" x="770.898" y="-278.657" font-family="Times New Roman,serif" font-size="14.00">(12) OR</text>
</g>
<!-- node10&#45;&gt;node12 -->
<g id="edge15" class="edge"><title>node10&#45;&gt;node12</title>
<path fill="none" stroke="black" d="M552.523,-255.786C599.273,-261.5 672.667,-270.472 721.032,-276.384"/>
<polygon fill="black" stroke="black" points="720.903,-279.894 731.253,-277.633 721.752,-272.946 720.903,-279.894"/>
<text text-anchor="middle" x="620.006" y="-273.157" font-family="Times New Roman,serif" font-size="14.00"> (1)</text>
</g>
<!-- node14 -->
<g id="node15" class="node"><title>node14</title>
<ellipse fill="none" stroke="black" cx="770.898" cy="-196.357" rx="47.3916" ry="18"/>
<text text-anchor="middle" x="770.898" y="-192.657" font-family="Times New Roman,serif" font-size="14.00">(14) XOR</text>
</g>
<!-- node10&#45;&gt;node14 -->
<g id="edge18" class="edge"><title>node10&#45;&gt;node14</title>
<path fill="none" stroke="black" d="M550.749,-243.049C558.025,-241.811 565.509,-240.543 572.561,-239.357 631.599,-229.432 647.295,-231.561 705.452,-217.357 712.134,-215.725 719.125,-213.744 725.935,-211.657"/>
<polygon fill="black" stroke="black" points="727.25,-214.912 735.725,-208.554 725.135,-208.239 727.25,-214.912"/>
<text text-anchor="middle" x="620.006" y="-243.157" font-family="Times New Roman,serif" font-size="14.00"> (0)</text>
</g>
<!-- node11&#45;&gt;node12 -->
<g id="edge14" class="edge"><title>node11&#45;&gt;node12</title>
<path fill="none" stroke="black" d="M641.397,-179.654C667.493,-200.511 712.815,-236.734 742.068,-260.114"/>
<polygon fill="black" stroke="black" points="740.23,-263.126 750.227,-266.636 744.601,-257.658 740.23,-263.126"/>
<text text-anchor="middle" x="695.452" y="-233.157" font-family="Times New Roman,serif" font-size="14.00"> (0)</text>
</g>
<!-- node11&#45;&gt;node14 -->
<g id="edge19" class="edge"><title>node11&#45;&gt;node14</title>
<path fill="none" stroke="black" d="M667.048,-160.188C679.641,-160.323 693.194,-161.405 705.452,-164.357 716.036,-166.907 726.882,-171.429 736.586,-176.285"/>
<polygon fill="black" stroke="black" points="735.016,-179.414 745.493,-180.99 738.286,-173.224 735.016,-179.414"/>
<text text-anchor="middle" x="695.452" y="-168.157" font-family="Times New Roman,serif" font-size="14.00"> (1)</text>
</g>
<!-- node12&#45;&gt;node16 -->
<g id="edge22" class="edge"><title>node12&#45;&gt;node16</title>
<path fill="none" stroke="black" d="M812.014,-282.357C828.07,-282.357 846.844,-282.357 864.201,-282.357"/>
<polygon fill="black" stroke="black" points="864.225,-285.857 874.225,-282.357 864.225,-278.857 864.225,-285.857"/>
<text text-anchor="middle" x="846.344" y="-286.157" font-family="Times New Roman,serif" font-size="14.00"> (1)</text>
</g>
<!-- node17 -->
<g id="node18" class="node"><title>node17</title>
<ellipse fill="none" stroke="black" cx="1047.83" cy="-22.3573" rx="42.7926" ry="18"/>
<text text-anchor="middle" x="1047.83" y="-18.6573" font-family="Times New Roman,serif" font-size="14.00">Output 0</text>
</g>
<!-- node13&#45;&gt;node17 -->
<g id="edge23" class="edge"><title>node13&#45;&gt;node17</title>
<path fill="none" stroke="black" d="M441.941,-22.3573C487.213,-22.3573 557.816,-22.3573 619.006,-22.3573 619.006,-22.3573 619.006,-22.3573 922.14,-22.3573 945.874,-22.3573 972.149,-22.3573 994.435,-22.3573"/>
<polygon fill="black" stroke="black" points="994.698,-25.8574 1004.7,-22.3573 994.698,-18.8574 994.698,-25.8574"/>
</g>
<!-- node15 -->
<g id="node16" class="node"><title>node15</title>
<ellipse fill="none" stroke="black" cx="921.14" cy="-196.357" rx="46.2923" ry="18"/>
<text text-anchor="middle" x="921.14" y="-192.657" font-family="Times New Roman,serif" font-size="14.00">(15) NEG</text>
</g>
<!-- node14&#45;&gt;node15 -->
<g id="edge20" class="edge"><title>node14&#45;&gt;node15</title>
<path fill="none" stroke="black" d="M818.396,-196.357C833.022,-196.357 849.322,-196.357 864.515,-196.357"/>
<polygon fill="black" stroke="black" points="864.822,-199.857 874.822,-196.357 864.822,-192.857 864.822,-199.857"/>
<text text-anchor="middle" x="846.344" y="-200.157" font-family="Times New Roman,serif" font-size="14.00"> (0)</text>
</g>
<!-- node18 -->
<g id="node19" class="node"><title>node18</title>
<ellipse fill="none" stroke="black" cx="1047.83" cy="-196.357" rx="42.7926" ry="18"/>
<text text-anchor="middle" x="1047.83" y="-192.657" font-family="Times New Roman,serif" font-size="14.00">Output 1</text>
</g>
<!-- node15&#45;&gt;node18 -->
<g id="edge24" class="edge"><title>node15&#45;&gt;node18</title>
<path fill="none" stroke="black" d="M967.509,-196.357C976.312,-196.357 985.604,-196.357 994.607,-196.357"/>
<polygon fill="black" stroke="black" points="994.607,-199.857 1004.61,-196.357 994.607,-192.857 994.607,-199.857"/>
</g>
<!-- node19 -->
<g id="node20" class="node"><title>node19</title>
<ellipse fill="none" stroke="black" cx="1047.83" cy="-282.357" rx="42.7926" ry="18"/>
<text text-anchor="middle" x="1047.83" y="-278.657" font-family="Times New Roman,serif" font-size="14.00">Output 2</text>
</g>
<!-- node16&#45;&gt;node19 -->
<g id="edge25" class="edge"><title>node16&#45;&gt;node19</title>
<path fill="none" stroke="black" d="M968.216,-282.357C976.793,-282.357 985.811,-282.357 994.557,-282.357"/>
<polygon fill="black" stroke="black" points="994.657,-285.857 1004.66,-282.357 994.657,-278.857 994.657,-285.857"/>
</g>
</g>
</svg>
