<?xml version="1.0" encoding="UTF-8" standalone="no"?>
<!DOCTYPE svg PUBLIC "-//W3C//DTD SVG 1.1//EN"
 "http://www.w3.org/Graphics/SVG/1.1/DTD/svg11.dtd">
<!-- Generated by graphviz version 2.38.0 (20140413.2041)
 -->
<!-- Title: NeuralNetwork Pages: 1 -->
<svg width="288pt" height="114pt"
 viewBox="0.00 0.00 288.00 113.98" xmlns="http://www.w3.org/2000/svg" xmlns:xlink="http://www.w3.org/1999/xlink">
<g id="graph0" class="graph" transform="scale(0.308138 0.308138) rotate(0) translate(4 365.908)">
<title>NeuralNetwork</title>
<polygon fill="white" stroke="none" points="-4,4 -4,-365.908 930.646,-365.908 930.646,4 -4,4"/>
<!-- node0 -->
<g id="node1" class="node"><title>node0</title>
<ellipse fill="none" stroke="black" cx="42.2463" cy="-343.908" rx="42.4939" ry="18"/>
<text text-anchor="middle" x="42.2463" y="-340.208" font-family="Times New Roman,serif" font-size="14.00">(0) Input</text>
</g>
<!-- node8 -->
<g id="node9" class="node"><title>node8</title>
<ellipse fill="none" stroke="black" cx="329.731" cy="-338.908" rx="42.7926" ry="18"/>
<text text-anchor="middle" x="329.731" y="-335.208" font-family="Times New Roman,serif" font-size="14.00">(8) XOR</text>
</g>
<!-- node0&#45;&gt;node8 -->
<g id="edge8" class="edge"><title>node0&#45;&gt;node8</title>
<path fill="none" stroke="black" d="M84.7581,-343.181C135.462,-342.293 221.274,-340.79 276.437,-339.824"/>
<polygon fill="black" stroke="black" points="276.766,-343.319 286.704,-339.644 276.644,-336.32 276.766,-343.319"/>
<text text-anchor="middle" x="183.389" y="-345.708" font-family="Times New Roman,serif" font-size="14.00"> (1)</text>
</g>
<!-- node9 -->
<g id="node10" class="node"><title>node9</title>
<ellipse fill="none" stroke="black" cx="329.731" cy="-253.908" rx="42.4939" ry="18"/>
<text text-anchor="middle" x="329.731" y="-250.208" font-family="Times New Roman,serif" font-size="14.00">(9) AND</text>
</g>
<!-- node0&#45;&gt;node9 -->
<g id="edge10" class="edge"><title>node0&#45;&gt;node9</title>
<path fill="none" stroke="black" d="M78.6251,-334.608C96.9865,-330.018 119.841,-324.674 140.493,-320.908 195.069,-310.955 213.166,-326.46 264.285,-304.908 279.454,-298.513 294.04,-287.523 305.487,-277.379"/>
<polygon fill="black" stroke="black" points="307.904,-279.912 312.88,-270.558 303.157,-274.767 307.904,-279.912"/>
<text text-anchor="middle" x="183.389" y="-324.708" font-family="Times New Roman,serif" font-size="14.00"> (1)</text>
</g>
<!-- node1 -->
<g id="node2" class="node"><title>node1</title>
<ellipse fill="none" stroke="black" cx="42.2463" cy="-89.9079" rx="42.4939" ry="18"/>
<text text-anchor="middle" x="42.2463" y="-86.2079" font-family="Times New Roman,serif" font-size="14.00">(1) Input</text>
</g>
<!-- node5 -->
<g id="node6" class="node"><title>node5</title>
<ellipse fill="none" stroke="black" cx="183.389" cy="-106.908" rx="42.7926" ry="18"/>
<text text-anchor="middle" x="183.389" y="-103.208" font-family="Times New Roman,serif" font-size="14.00">(5) XOR</text>
</g>
<!-- node1&#45;&gt;node5 -->
<g id="edge2" class="edge"><title>node1&#45;&gt;node5</title>
<path fill="none" stroke="black" d="M83.1189,-94.7795C98.2702,-96.6306 115.735,-98.7644 131.751,-100.721"/>
<polygon fill="black" stroke="black" points="131.677,-104.238 142.028,-101.977 132.526,-97.2897 131.677,-104.238"/>
<text text-anchor="middle" x="112.493" y="-103.708" font-family="Times New Roman,serif" font-size="14.00"> (1)</text>
</g>
<!-- node11 -->
<g id="node12" class="node"><title>node11</title>
<ellipse fill="none" stroke="black" cx="183.389" cy="-38.9079" rx="40.8928" ry="18"/>
<text text-anchor="middle" x="183.389" y="-35.2079" font-family="Times New Roman,serif" font-size="14.00">(11) OR</text>
</g>
<!-- node1&#45;&gt;node11 -->
<g id="edge13" class="edge"><title>node1&#45;&gt;node11</title>
<path fill="none" stroke="black" d="M74.8198,-78.3353C94.7061,-71.0463 120.567,-61.5674 141.948,-53.7306"/>
<polygon fill="black" stroke="black" points="143.235,-56.9869 151.419,-50.2592 140.826,-50.4144 143.235,-56.9869"/>
<text text-anchor="middle" x="112.493" y="-71.7079" font-family="Times New Roman,serif" font-size="14.00"> (0)</text>
</g>
<!-- node2 -->
<g id="node3" class="node"><title>node2</title>
<ellipse fill="none" stroke="black" cx="42.2463" cy="-262.908" rx="42.4939" ry="18"/>
<text text-anchor="middle" x="42.2463" y="-259.208" font-family="Times New Roman,serif" font-size="14.00">(2) Input</text>
</g>
<!-- node6 -->
<g id="node7" class="node"><title>node6</title>
<ellipse fill="none" stroke="black" cx="183.389" cy="-202.908" rx="42.4939" ry="18"/>
<text text-anchor="middle" x="183.389" y="-199.208" font-family="Times New Roman,serif" font-size="14.00">(6) AND</text>
</g>
<!-- node2&#45;&gt;node6 -->
<g id="edge3" class="edge"><title>node2&#45;&gt;node6</title>
<path fill="none" stroke="black" d="M72.7548,-250.183C93.4161,-241.274 121.229,-229.281 143.67,-219.604"/>
<polygon fill="black" stroke="black" points="145.126,-222.788 152.923,-215.614 142.354,-216.36 145.126,-222.788"/>
<text text-anchor="middle" x="112.493" y="-239.708" font-family="Times New Roman,serif" font-size="14.00"> (0)</text>
</g>
<!-- node7 -->
<g id="node8" class="node"><title>node7</title>
<ellipse fill="none" stroke="black" cx="183.389" cy="-259.908" rx="42.7926" ry="18"/>
<text text-anchor="middle" x="183.389" y="-256.208" font-family="Times New Roman,serif" font-size="14.00">(7) XOR</text>
</g>
<!-- node2&#45;&gt;node7 -->
<g id="edge5" class="edge"><title>node2&#45;&gt;node7</title>
<path fill="none" stroke="black" d="M84.6168,-262.016C98.9362,-261.707 115.174,-261.357 130.246,-261.032"/>
<polygon fill="black" stroke="black" points="130.533,-264.527 140.456,-260.812 130.382,-257.529 130.533,-264.527"/>
<text text-anchor="middle" x="112.493" y="-264.708" font-family="Times New Roman,serif" font-size="14.00"> (0)</text>
</g>
<!-- node3 -->
<g id="node4" class="node"><title>node3</title>
<ellipse fill="none" stroke="black" cx="42.2463" cy="-24.9079" rx="42.4939" ry="18"/>
<text text-anchor="middle" x="42.2463" y="-21.2079" font-family="Times New Roman,serif" font-size="14.00">(3) Input</text>
</g>
<!-- node3&#45;&gt;node5 -->
<g id="edge1" class="edge"><title>node3&#45;&gt;node5</title>
<path fill="none" stroke="black" d="M83.6065,-28.6332C96.7579,-31.2211 110.934,-35.5801 122.493,-42.9079 133.455,-49.8585 131.835,-56.2363 140.493,-65.9079 145.719,-71.7467 151.592,-77.7823 157.249,-83.3682"/>
<polygon fill="black" stroke="black" points="155.135,-86.1939 164.75,-90.6457 160.01,-81.1701 155.135,-86.1939"/>
<text text-anchor="middle" x="112.493" y="-46.7079" font-family="Times New Roman,serif" font-size="14.00"> (0)</text>
</g>
<!-- node3&#45;&gt;node11 -->
<g id="edge14" class="edge"><title>node3&#45;&gt;node11</title>
<path fill="none" stroke="black" d="M67.8554,-10.4769C83.4902,-3.11459 104.164,3.2967 122.493,-1.90794 133.835,-5.12883 145.135,-11.1763 154.813,-17.4627"/>
<polygon fill="black" stroke="black" points="152.977,-20.4477 163.2,-23.2289 156.942,-14.6794 152.977,-20.4477"/>
<text text-anchor="middle" x="112.493" y="-5.70794" font-family="Times New Roman,serif" font-size="14.00"> (1)</text>
</g>
<!-- node4 -->
<g id="node5" class="node"><title>node4</title>
<ellipse fill="none" stroke="black" cx="42.2463" cy="-186.908" rx="42.4939" ry="18"/>
<text text-anchor="middle" x="42.2463" y="-183.208" font-family="Times New Roman,serif" font-size="14.00">(4) Input</text>
</g>
<!-- node4&#45;&gt;node6 -->
<g id="edge4" class="edge"><title>node4&#45;&gt;node6</title>
<path fill="none" stroke="black" d="M71.6037,-173.794C86.7647,-168.46 105.714,-164.478 122.493,-168.908 132.897,-171.655 143.389,-176.673 152.621,-182.025"/>
<polygon fill="black" stroke="black" points="151.032,-185.157 161.383,-187.418 154.701,-179.196 151.032,-185.157"/>
<text text-anchor="middle" x="112.493" y="-172.708" font-family="Times New Roman,serif" font-size="14.00"> (1)</text>
</g>
<!-- node4&#45;&gt;node7 -->
<g id="edge6" class="edge"><title>node4&#45;&gt;node7</title>
<path fill="none" stroke="black" d="M81.7402,-193.537C95.3147,-197.018 110.235,-202.219 122.493,-209.908 132.623,-216.263 131.579,-221.936 140.493,-229.908 143.885,-232.942 147.584,-235.955 151.333,-238.835"/>
<polygon fill="black" stroke="black" points="149.4,-241.759 159.522,-244.886 153.559,-236.129 149.4,-241.759"/>
<text text-anchor="middle" x="112.493" y="-213.708" font-family="Times New Roman,serif" font-size="14.00"> (1)</text>
</g>
<!-- node12 -->
<g id="node13" class="node"><title>node12</title>
<ellipse fill="none" stroke="black" cx="618.515" cy="-106.908" rx="46.5926" ry="18"/>
<text text-anchor="middle" x="618.515" y="-103.208" font-family="Times New Roman,serif" font-size="14.00">(12) AND</text>
</g>
<!-- node5&#45;&gt;node12 -->
<g id="edge16" class="edge"><title>node5&#45;&gt;node12</title>
<path fill="none" stroke="black" d="M226.312,-106.908C304.731,-106.908 473.611,-106.908 561.613,-106.908"/>
<polygon fill="black" stroke="black" points="561.675,-110.408 571.675,-106.908 561.675,-103.408 561.675,-110.408"/>
<text text-anchor="middle" x="405.176" y="-110.708" font-family="Times New Roman,serif" font-size="14.00"> (1)</text>
</g>
<!-- node13 -->
<g id="node14" class="node"><title>node13</title>
<ellipse fill="none" stroke="black" cx="618.515" cy="-188.908" rx="47.3916" ry="18"/>
<text text-anchor="middle" x="618.515" y="-185.208" font-family="Times New Roman,serif" font-size="14.00">(13) XOR</text>
</g>
<!-- node5&#45;&gt;node13 -->
<g id="edge18" class="edge"><title>node5&#45;&gt;node13</title>
<path fill="none" stroke="black" d="M220.685,-116.049C228.441,-117.818 236.61,-119.543 244.285,-120.908 380.421,-145.123 420.146,-120.82 553.069,-158.908 562.579,-161.633 572.452,-165.592 581.528,-169.747"/>
<polygon fill="black" stroke="black" points="580.117,-172.951 590.649,-174.102 583.133,-166.635 580.117,-172.951"/>
<text text-anchor="middle" x="405.176" y="-138.708" font-family="Times New Roman,serif" font-size="14.00"> (1)</text>
</g>
<!-- node14 -->
<g id="node15" class="node"><title>node14</title>
<ellipse fill="none" stroke="black" cx="329.731" cy="-60.9079" rx="47.3916" ry="18"/>
<text text-anchor="middle" x="329.731" y="-57.2079" font-family="Times New Roman,serif" font-size="14.00">(14) XOR</text>
</g>
<!-- node5&#45;&gt;node14 -->
<g id="edge20" class="edge"><title>node5&#45;&gt;node14</title>
<path fill="none" stroke="black" d="M210.028,-92.7315C220.415,-87.4595 232.679,-81.8158 244.285,-77.9079 254.166,-74.5809 264.929,-71.8051 275.359,-69.5272"/>
<polygon fill="black" stroke="black" points="276.132,-72.9416 285.219,-67.4939 274.718,-66.0859 276.132,-72.9416"/>
<text text-anchor="middle" x="254.285" y="-81.7079" font-family="Times New Roman,serif" font-size="14.00"> (1)</text>
</g>
<!-- node10 -->
<g id="node11" class="node"><title>node10</title>
<ellipse fill="none" stroke="black" cx="474.123" cy="-209.908" rx="40.8928" ry="18"/>
<text text-anchor="middle" x="474.123" y="-206.208" font-family="Times New Roman,serif" font-size="14.00">(10) OR</text>
</g>
<!-- node6&#45;&gt;node10 -->
<g id="edge11" class="edge"><title>node6&#45;&gt;node10</title>
<path fill="none" stroke="black" d="M225.757,-203.911C277.87,-205.174 367.344,-207.343 423.202,-208.698"/>
<polygon fill="black" stroke="black" points="423.142,-212.197 433.224,-208.941 423.312,-205.199 423.142,-212.197"/>
<text text-anchor="middle" x="329.731" y="-210.708" font-family="Times New Roman,serif" font-size="14.00"> (0)</text>
</g>
<!-- node7&#45;&gt;node8 -->
<g id="edge7" class="edge"><title>node7&#45;&gt;node8</title>
<path fill="none" stroke="black" d="M210.194,-274.032C233.449,-286.759 267.842,-305.583 293.6,-319.68"/>
<polygon fill="black" stroke="black" points="292.209,-322.909 302.662,-324.64 295.57,-316.769 292.209,-322.909"/>
<text text-anchor="middle" x="254.285" y="-304.708" font-family="Times New Roman,serif" font-size="14.00"> (0)</text>
</g>
<!-- node7&#45;&gt;node9 -->
<g id="edge9" class="edge"><title>node7&#45;&gt;node9</title>
<path fill="none" stroke="black" d="M223.943,-253.871C230.714,-253.054 237.69,-252.346 244.285,-251.908 254.93,-251.2 266.345,-251.056 277.232,-251.213"/>
<polygon fill="black" stroke="black" points="277.388,-254.717 287.466,-251.446 277.548,-247.719 277.388,-254.717"/>
<text text-anchor="middle" x="254.285" y="-255.708" font-family="Times New Roman,serif" font-size="14.00"> (0)</text>
</g>
<!-- node16 -->
<g id="node17" class="node"><title>node16</title>
<ellipse fill="none" stroke="black" cx="883.75" cy="-338.908" rx="42.7926" ry="18"/>
<text text-anchor="middle" x="883.75" y="-335.208" font-family="Times New Roman,serif" font-size="14.00">Output 0</text>
</g>
<!-- node8&#45;&gt;node16 -->
<g id="edge23" class="edge"><title>node8&#45;&gt;node16</title>
<path fill="none" stroke="black" d="M372.787,-338.908C401.137,-338.908 439.379,-338.908 473.123,-338.908 473.123,-338.908 473.123,-338.908 763.907,-338.908 785.705,-338.908 809.753,-338.908 830.48,-338.908"/>
<polygon fill="black" stroke="black" points="830.674,-342.408 840.674,-338.908 830.674,-335.408 830.674,-342.408"/>
</g>
<!-- node9&#45;&gt;node10 -->
<g id="edge12" class="edge"><title>node9&#45;&gt;node10</title>
<path fill="none" stroke="black" d="M364.476,-243.481C384.213,-237.382 409.318,-229.624 430.423,-223.103"/>
<polygon fill="black" stroke="black" points="431.59,-226.405 440.111,-220.109 429.524,-219.717 431.59,-226.405"/>
<text text-anchor="middle" x="405.176" y="-236.708" font-family="Times New Roman,serif" font-size="14.00"> (1)</text>
</g>
<!-- node10&#45;&gt;node12 -->
<g id="edge15" class="edge"><title>node10&#45;&gt;node12</title>
<path fill="none" stroke="black" d="M496.133,-194.71C520.147,-177.34 559.657,-148.759 587.049,-128.946"/>
<polygon fill="black" stroke="black" points="589.43,-131.543 595.481,-122.846 585.327,-125.871 589.43,-131.543"/>
<text text-anchor="middle" x="543.069" y="-170.708" font-family="Times New Roman,serif" font-size="14.00"> (0)</text>
</g>
<!-- node10&#45;&gt;node13 -->
<g id="edge17" class="edge"><title>node10&#45;&gt;node13</title>
<path fill="none" stroke="black" d="M513.281,-204.28C528.767,-201.996 546.933,-199.317 563.723,-196.841"/>
<polygon fill="black" stroke="black" points="564.581,-200.253 573.963,-195.331 563.559,-193.328 564.581,-200.253"/>
<text text-anchor="middle" x="543.069" y="-204.708" font-family="Times New Roman,serif" font-size="14.00"> (0)</text>
</g>
<!-- node11&#45;&gt;node14 -->
<g id="edge19" class="edge"><title>node11&#45;&gt;node14</title>
<path fill="none" stroke="black" d="M224.424,-37.0486C237.23,-37.0826 251.42,-37.7821 264.285,-39.9079 271.548,-41.1082 279.111,-42.976 286.392,-45.1134"/>
<polygon fill="black" stroke="black" points="285.503,-48.5026 296.092,-48.1577 287.599,-41.8238 285.503,-48.5026"/>
<text text-anchor="middle" x="254.285" y="-43.7079" font-family="Times New Roman,serif" font-size="14.00"> (0)</text>
</g>
<!-- node15 -->
<g id="node16" class="node"><title>node15</title>
<ellipse fill="none" stroke="black" cx="762.907" cy="-77.9079" rx="40.8928" ry="18"/>
<text text-anchor="middle" x="762.907" y="-74.2079" font-family="Times New Roman,serif" font-size="14.00">(15) OR</text>
</g>
<!-- node12&#45;&gt;node15 -->
<g id="edge22" class="edge"><title>node12&#45;&gt;node15</title>
<path fill="none" stroke="black" d="M660.319,-98.5977C677.493,-95.0999 697.573,-91.0105 715.324,-87.3952"/>
<polygon fill="black" stroke="black" points="716.367,-90.7547 725.467,-85.3294 714.97,-83.8955 716.367,-90.7547"/>
<text text-anchor="middle" x="693.961" y="-97.7079" font-family="Times New Roman,serif" font-size="14.00"> (1)</text>
</g>
<!-- node17 -->
<g id="node18" class="node"><title>node17</title>
<ellipse fill="none" stroke="black" cx="883.75" cy="-188.908" rx="42.7926" ry="18"/>
<text text-anchor="middle" x="883.75" y="-185.208" font-family="Times New Roman,serif" font-size="14.00">Output 1</text>
</g>
<!-- node13&#45;&gt;node17 -->
<g id="edge24" class="edge"><title>node13&#45;&gt;node17</title>
<path fill="none" stroke="black" d="M665.97,-188.908C712.035,-188.908 782.49,-188.908 830.484,-188.908"/>
<polygon fill="black" stroke="black" points="830.667,-192.408 840.667,-188.908 830.667,-185.408 830.667,-192.408"/>
</g>
<!-- node14&#45;&gt;node15 -->
<g id="edge21" class="edge"><title>node14&#45;&gt;node15</title>
<path fill="none" stroke="black" d="M377.284,-62.7434C459.019,-65.9659 627.622,-72.6135 711.802,-75.9324"/>
<polygon fill="black" stroke="black" points="711.752,-79.4331 721.882,-76.3299 712.028,-72.4385 711.752,-79.4331"/>
<text text-anchor="middle" x="543.069" y="-73.7079" font-family="Times New Roman,serif" font-size="14.00"> (0)</text>
</g>
<!-- node18 -->
<g id="node19" class="node"><title>node18</title>
<ellipse fill="none" stroke="black" cx="883.75" cy="-77.9079" rx="42.7926" ry="18"/>
<text text-anchor="middle" x="883.75" y="-74.2079" font-family="Times New Roman,serif" font-size="14.00">Output 2</text>
</g>
<!-- node15&#45;&gt;node18 -->
<g id="edge25" class="edge"><title>node15&#45;&gt;node18</title>
<path fill="none" stroke="black" d="M804.142,-77.9079C812.563,-77.9079 821.561,-77.9079 830.35,-77.9079"/>
<polygon fill="black" stroke="black" points="830.526,-81.408 840.526,-77.9079 830.526,-74.408 830.526,-81.408"/>
</g>
</g>
</svg>
