<?xml version="1.0" encoding="UTF-8" standalone="no"?>
<!DOCTYPE svg PUBLIC "-//W3C//DTD SVG 1.1//EN"
 "http://www.w3.org/Graphics/SVG/1.1/DTD/svg11.dtd">
<!-- Generated by graphviz version 2.38.0 (20140413.2041)
 -->
<!-- Title: NeuralNetwork Pages: 1 -->
<svg width="288pt" height="163pt"
 viewBox="0.00 0.00 288.00 163.01" xmlns="http://www.w3.org/2000/svg" xmlns:xlink="http://www.w3.org/1999/xlink">
<g id="graph0" class="graph" transform="scale(0.19268 0.19268) rotate(0) translate(4 842)">
<title>NeuralNetwork</title>
<polygon fill="white" stroke="none" points="-4,4 -4,-842 1490.71,-842 1490.71,4 -4,4"/>
<!-- node0 -->
<g id="node1" class="node"><title>node0</title>
<ellipse fill="none" stroke="black" cx="42.2463" cy="-67" rx="42.4939" ry="18"/>
<text text-anchor="middle" x="42.2463" y="-63.3" font-family="Times New Roman,serif" font-size="14.00">(0) Input</text>
</g>
<!-- node6 -->
<g id="node7" class="node"><title>node6</title>
<ellipse fill="none" stroke="black" cx="187.288" cy="-109" rx="42.4939" ry="18"/>
<text text-anchor="middle" x="187.288" y="-105.3" font-family="Times New Roman,serif" font-size="14.00">(6) AND</text>
</g>
<!-- node0&#45;&gt;node6 -->
<g id="edge1" class="edge"><title>node0&#45;&gt;node6</title>
<path fill="none" stroke="black" d="M81.4549,-73.8912C94.5803,-76.6022 109.288,-80.0251 122.493,-84 130.68,-86.4646 139.298,-89.5159 147.461,-92.6302"/>
<polygon fill="black" stroke="black" points="146.193,-95.8924 156.78,-96.2838 148.748,-89.3753 146.193,-95.8924"/>
<text text-anchor="middle" x="112.493" y="-87.8" font-family="Times New Roman,serif" font-size="14.00"> (0)</text>
</g>
<!-- node9 -->
<g id="node10" class="node"><title>node9</title>
<ellipse fill="none" stroke="black" cx="187.288" cy="-193" rx="42.4939" ry="18"/>
<text text-anchor="middle" x="187.288" y="-189.3" font-family="Times New Roman,serif" font-size="14.00">(9) AND</text>
</g>
<!-- node0&#45;&gt;node9 -->
<g id="edge7" class="edge"><title>node0&#45;&gt;node9</title>
<path fill="none" stroke="black" d="M55.697,-84.2922C66.9375,-99.2278 84.4391,-120.884 102.493,-137 117.66,-150.54 136.321,-163.325 152.181,-173.252"/>
<polygon fill="black" stroke="black" points="150.793,-176.506 161.148,-178.75 154.452,-170.539 150.793,-176.506"/>
<text text-anchor="middle" x="112.493" y="-155.8" font-family="Times New Roman,serif" font-size="14.00"> (0)</text>
</g>
<!-- node27 -->
<g id="node28" class="node"><title>node27</title>
<ellipse fill="none" stroke="black" cx="562.013" cy="-206" rx="47.3916" ry="18"/>
<text text-anchor="middle" x="562.013" y="-202.3" font-family="Times New Roman,serif" font-size="14.00">(27) XOR</text>
</g>
<!-- node0&#45;&gt;node27 -->
<g id="edge44" class="edge"><title>node0&#45;&gt;node27</title>
<path fill="none" stroke="black" d="M84.2789,-69.3596C122.982,-71.79 182.581,-76.0608 234.084,-82 283.922,-87.7472 297.801,-84.0034 345.676,-99 416.954,-121.328 429.791,-139.532 496.567,-173 505.492,-177.473 515.081,-182.346 524.064,-186.941"/>
<polygon fill="black" stroke="black" points="522.656,-190.153 533.152,-191.6 525.85,-183.924 522.656,-190.153"/>
<text text-anchor="middle" x="298.88" y="-102.8" font-family="Times New Roman,serif" font-size="14.00"> (1)</text>
</g>
<!-- node28 -->
<g id="node29" class="node"><title>node28</title>
<ellipse fill="none" stroke="black" cx="562.013" cy="-110" rx="47.3916" ry="18"/>
<text text-anchor="middle" x="562.013" y="-106.3" font-family="Times New Roman,serif" font-size="14.00">(28) XOR</text>
</g>
<!-- node0&#45;&gt;node28 -->
<g id="edge45" class="edge"><title>node0&#45;&gt;node28</title>
<path fill="none" stroke="black" d="M66.9535,-52.2998C77.4856,-46.3826 90.2501,-40.0205 102.493,-36 205.637,-2.12661 237.66,-2.10852 345.676,-13 396.622,-18.137 411.674,-15.4358 458.567,-36 487.177,-48.546 515.653,-70.0274 535.293,-86.6237"/>
<polygon fill="black" stroke="black" points="533.026,-89.2904 542.886,-93.1692 537.597,-83.9887 533.026,-89.2904"/>
<text text-anchor="middle" x="298.88" y="-16.8" font-family="Times New Roman,serif" font-size="14.00"> (0)</text>
</g>
<!-- node1 -->
<g id="node2" class="node"><title>node1</title>
<ellipse fill="none" stroke="black" cx="42.2463" cy="-425" rx="42.4939" ry="18"/>
<text text-anchor="middle" x="42.2463" y="-421.3" font-family="Times New Roman,serif" font-size="14.00">(1) Input</text>
</g>
<!-- node7 -->
<g id="node8" class="node"><title>node7</title>
<ellipse fill="none" stroke="black" cx="187.288" cy="-269" rx="42.4939" ry="18"/>
<text text-anchor="middle" x="187.288" y="-265.3" font-family="Times New Roman,serif" font-size="14.00">(7) AND</text>
</g>
<!-- node1&#45;&gt;node7 -->
<g id="edge4" class="edge"><title>node1&#45;&gt;node7</title>
<path fill="none" stroke="black" d="M66.258,-410.075C86.8667,-396.279 114.967,-376.264 122.493,-365 140.098,-338.647 121.397,-321.295 140.493,-296 142.797,-292.948 145.555,-290.176 148.56,-287.674"/>
<polygon fill="black" stroke="black" points="150.85,-290.339 156.947,-281.674 146.777,-284.646 150.85,-290.339"/>
<text text-anchor="middle" x="112.493" y="-385.8" font-family="Times New Roman,serif" font-size="14.00"> (1)</text>
</g>
<!-- node11 -->
<g id="node12" class="node"><title>node11</title>
<ellipse fill="none" stroke="black" cx="187.288" cy="-540" rx="46.5926" ry="18"/>
<text text-anchor="middle" x="187.288" y="-536.3" font-family="Times New Roman,serif" font-size="14.00">(11) AND</text>
</g>
<!-- node1&#45;&gt;node11 -->
<g id="edge11" class="edge"><title>node1&#45;&gt;node11</title>
<path fill="none" stroke="black" d="M52.7051,-442.513C62.9586,-460.088 80.7989,-486.935 102.493,-504 113.708,-512.823 127.413,-519.895 140.463,-525.356"/>
<polygon fill="black" stroke="black" points="139.219,-528.628 149.806,-529.05 141.793,-522.118 139.219,-528.628"/>
<text text-anchor="middle" x="112.493" y="-519.8" font-family="Times New Roman,serif" font-size="14.00"> (0)</text>
</g>
<!-- node12 -->
<g id="node13" class="node"><title>node12</title>
<ellipse fill="none" stroke="black" cx="187.288" cy="-386" rx="46.5926" ry="18"/>
<text text-anchor="middle" x="187.288" y="-382.3" font-family="Times New Roman,serif" font-size="14.00">(12) AND</text>
</g>
<!-- node1&#45;&gt;node12 -->
<g id="edge14" class="edge"><title>node1&#45;&gt;node12</title>
<path fill="none" stroke="black" d="M78.2383,-415.46C96.4932,-410.482 119.088,-404.322 138.889,-398.923"/>
<polygon fill="black" stroke="black" points="139.925,-402.269 148.652,-396.262 138.083,-395.515 139.925,-402.269"/>
<text text-anchor="middle" x="112.493" y="-410.8" font-family="Times New Roman,serif" font-size="14.00"> (1)</text>
</g>
<!-- node2 -->
<g id="node3" class="node"><title>node2</title>
<ellipse fill="none" stroke="black" cx="42.2463" cy="-722" rx="42.4939" ry="18"/>
<text text-anchor="middle" x="42.2463" y="-718.3" font-family="Times New Roman,serif" font-size="14.00">(2) Input</text>
</g>
<!-- node8 -->
<g id="node9" class="node"><title>node8</title>
<ellipse fill="none" stroke="black" cx="187.288" cy="-323" rx="42.4939" ry="18"/>
<text text-anchor="middle" x="187.288" y="-319.3" font-family="Times New Roman,serif" font-size="14.00">(8) AND</text>
</g>
<!-- node2&#45;&gt;node8 -->
<g id="edge5" class="edge"><title>node2&#45;&gt;node8</title>
<path fill="none" stroke="black" d="M49.7793,-703.995C58.6691,-678.945 74.5993,-632.027 84.4925,-591 95.6942,-544.546 90.7852,-531.329 102.493,-485 109.276,-458.156 114.452,-452.495 122.493,-426 131.447,-396.495 123.504,-384.732 140.493,-359 144.076,-353.572 148.749,-348.6 153.739,-344.196"/>
<polygon fill="black" stroke="black" points="156.136,-346.759 161.728,-337.761 151.745,-341.308 156.136,-346.759"/>
<text text-anchor="middle" x="112.493" y="-488.8" font-family="Times New Roman,serif" font-size="14.00"> (0)</text>
</g>
<!-- node13 -->
<g id="node14" class="node"><title>node13</title>
<ellipse fill="none" stroke="black" cx="298.88" cy="-670" rx="46.5926" ry="18"/>
<text text-anchor="middle" x="298.88" y="-666.3" font-family="Times New Roman,serif" font-size="14.00">(13) AND</text>
</g>
<!-- node2&#45;&gt;node13 -->
<g id="edge16" class="edge"><title>node2&#45;&gt;node13</title>
<path fill="none" stroke="black" d="M80.5449,-714.383C124.522,-705.402 197.836,-690.43 247.003,-680.39"/>
<polygon fill="black" stroke="black" points="248.011,-683.756 257.108,-678.326 246.61,-676.898 248.011,-683.756"/>
<text text-anchor="middle" x="112.493" y="-712.8" font-family="Times New Roman,serif" font-size="14.00"> (1)</text>
</g>
<!-- node15 -->
<g id="node16" class="node"><title>node15</title>
<ellipse fill="none" stroke="black" cx="411.122" cy="-775" rx="46.5926" ry="18"/>
<text text-anchor="middle" x="411.122" y="-771.3" font-family="Times New Roman,serif" font-size="14.00">(15) AND</text>
</g>
<!-- node2&#45;&gt;node15 -->
<g id="edge20" class="edge"><title>node2&#45;&gt;node15</title>
<path fill="none" stroke="black" d="M82.5083,-727.672C148.625,-737.223 282.249,-756.527 356.793,-767.296"/>
<polygon fill="black" stroke="black" points="356.509,-770.791 366.907,-768.757 357.51,-763.863 356.509,-770.791"/>
<text text-anchor="middle" x="187.288" y="-752.8" font-family="Times New Roman,serif" font-size="14.00"> (1)</text>
</g>
<!-- node33 -->
<g id="node34" class="node"><title>node33</title>
<ellipse fill="none" stroke="black" cx="1165.58" cy="-700" rx="46.5926" ry="18"/>
<text text-anchor="middle" x="1165.58" y="-696.3" font-family="Times New Roman,serif" font-size="14.00">(33) AND</text>
</g>
<!-- node2&#45;&gt;node33 -->
<g id="edge55" class="edge"><title>node2&#45;&gt;node33</title>
<path fill="none" stroke="black" d="M55.7046,-739.133C78.247,-767.949 128.832,-823 186.288,-823 186.288,-823 186.288,-823 1015.69,-823 1075.96,-823 1125,-762.349 1148.87,-726.226"/>
<polygon fill="black" stroke="black" points="1151.93,-727.93 1154.38,-717.623 1146.04,-724.152 1151.93,-727.93"/>
<text text-anchor="middle" x="637.459" y="-826.8" font-family="Times New Roman,serif" font-size="14.00"> (0)</text>
</g>
<!-- node3 -->
<g id="node4" class="node"><title>node3</title>
<ellipse fill="none" stroke="black" cx="42.2463" cy="-197" rx="42.4939" ry="18"/>
<text text-anchor="middle" x="42.2463" y="-193.3" font-family="Times New Roman,serif" font-size="14.00">(3) Input</text>
</g>
<!-- node3&#45;&gt;node6 -->
<g id="edge2" class="edge"><title>node3&#45;&gt;node6</title>
<path fill="none" stroke="black" d="M52.1338,-179.242C61.9323,-161.655 79.4162,-135.461 102.493,-122 112.229,-116.321 123.636,-112.876 134.845,-110.837"/>
<polygon fill="black" stroke="black" points="135.646,-114.256 145.028,-109.335 134.625,-107.331 135.646,-114.256"/>
<text text-anchor="middle" x="112.493" y="-125.8" font-family="Times New Roman,serif" font-size="14.00"> (1)</text>
</g>
<!-- node3&#45;&gt;node7 -->
<g id="edge3" class="edge"><title>node3&#45;&gt;node7</title>
<path fill="none" stroke="black" d="M82.2573,-190.998C95.5883,-190.601 110.22,-192.089 122.493,-198 133.875,-203.482 132.175,-210.491 140.493,-220 147.737,-228.282 155.873,-237.127 163.256,-244.99"/>
<polygon fill="black" stroke="black" points="160.913,-247.607 170.327,-252.469 166,-242.798 160.913,-247.607"/>
<text text-anchor="middle" x="112.493" y="-201.8" font-family="Times New Roman,serif" font-size="14.00"> (0)</text>
</g>
<!-- node3&#45;&gt;node8 -->
<g id="edge6" class="edge"><title>node3&#45;&gt;node8</title>
<path fill="none" stroke="black" d="M57.555,-214.103C75.5495,-234.978 108.036,-270.626 140.493,-296 143.846,-298.622 147.478,-301.176 151.179,-303.6"/>
<polygon fill="black" stroke="black" points="149.503,-306.68 159.842,-308.996 153.204,-300.738 149.503,-306.68"/>
<text text-anchor="middle" x="112.493" y="-281.8" font-family="Times New Roman,serif" font-size="14.00"> (1)</text>
</g>
<!-- node4 -->
<g id="node5" class="node"><title>node4</title>
<ellipse fill="none" stroke="black" cx="42.2463" cy="-311" rx="42.4939" ry="18"/>
<text text-anchor="middle" x="42.2463" y="-307.3" font-family="Times New Roman,serif" font-size="14.00">(4) Input</text>
</g>
<!-- node4&#45;&gt;node9 -->
<g id="edge8" class="edge"><title>node4&#45;&gt;node9</title>
<path fill="none" stroke="black" d="M53.9463,-293.449C64.6456,-277.006 82.3699,-252.546 102.493,-236 115.443,-225.351 131.463,-216.334 146.016,-209.35"/>
<polygon fill="black" stroke="black" points="147.706,-212.425 155.32,-205.058 144.774,-206.069 147.706,-212.425"/>
<text text-anchor="middle" x="112.493" y="-239.8" font-family="Times New Roman,serif" font-size="14.00"> (1)</text>
</g>
<!-- node4&#45;&gt;node12 -->
<g id="edge13" class="edge"><title>node4&#45;&gt;node12</title>
<path fill="none" stroke="black" d="M80.7432,-303.49C94.8173,-302.627 110.334,-304.198 122.493,-312 138.221,-322.093 128.837,-335.393 140.493,-350 144.549,-355.084 149.458,-359.885 154.534,-364.226"/>
<polygon fill="black" stroke="black" points="152.557,-367.126 162.552,-370.641 156.93,-361.66 152.557,-367.126"/>
<text text-anchor="middle" x="112.493" y="-315.8" font-family="Times New Roman,serif" font-size="14.00"> (0)</text>
</g>
<!-- node4&#45;&gt;node13 -->
<g id="edge15" class="edge"><title>node4&#45;&gt;node13</title>
<path fill="none" stroke="black" d="M80.5354,-319.072C95.7988,-324.258 112.248,-332.629 122.493,-346 154.49,-387.763 110.078,-420.07 140.493,-463 167.756,-501.481 202.527,-477.954 234.084,-513 238.673,-518.096 270.426,-599.071 287.335,-642.678"/>
<polygon fill="black" stroke="black" points="284.122,-644.072 290.996,-652.134 290.65,-641.545 284.122,-644.072"/>
<text text-anchor="middle" x="112.493" y="-349.8" font-family="Times New Roman,serif" font-size="14.00"> (0)</text>
</g>
<!-- node5 -->
<g id="node6" class="node"><title>node5</title>
<ellipse fill="none" stroke="black" cx="42.2463" cy="-564" rx="42.4939" ry="18"/>
<text text-anchor="middle" x="42.2463" y="-560.3" font-family="Times New Roman,serif" font-size="14.00">(5) Input</text>
</g>
<!-- node10 -->
<g id="node11" class="node"><title>node10</title>
<ellipse fill="none" stroke="black" cx="411.122" cy="-439" rx="46.5926" ry="18"/>
<text text-anchor="middle" x="411.122" y="-435.3" font-family="Times New Roman,serif" font-size="14.00">(10) AND</text>
</g>
<!-- node5&#45;&gt;node10 -->
<g id="edge10" class="edge"><title>node5&#45;&gt;node10</title>
<path fill="none" stroke="black" d="M48.8798,-546.106C56.906,-523.878 73.9163,-486.725 102.493,-469 180.948,-420.337 292.893,-423.532 357.88,-430.862"/>
<polygon fill="black" stroke="black" points="357.548,-434.347 367.894,-432.067 358.384,-427.397 357.548,-434.347"/>
<text text-anchor="middle" x="187.288" y="-451.8" font-family="Times New Roman,serif" font-size="14.00"> (1)</text>
</g>
<!-- node5&#45;&gt;node11 -->
<g id="edge12" class="edge"><title>node5&#45;&gt;node11</title>
<path fill="none" stroke="black" d="M81.9555,-557.505C98.0018,-554.813 116.861,-551.649 134.101,-548.756"/>
<polygon fill="black" stroke="black" points="134.747,-552.197 144.03,-547.09 133.589,-545.293 134.747,-552.197"/>
<text text-anchor="middle" x="112.493" y="-556.8" font-family="Times New Roman,serif" font-size="14.00"> (1)</text>
</g>
<!-- node18 -->
<g id="node19" class="node"><title>node18</title>
<ellipse fill="none" stroke="black" cx="411.122" cy="-566" rx="47.3916" ry="18"/>
<text text-anchor="middle" x="411.122" y="-562.3" font-family="Times New Roman,serif" font-size="14.00">(18) XOR</text>
</g>
<!-- node5&#45;&gt;node18 -->
<g id="edge25" class="edge"><title>node5&#45;&gt;node18</title>
<path fill="none" stroke="black" d="M82.3698,-570.037C89.0672,-570.854 95.9684,-571.562 102.493,-572 111.361,-572.596 113.604,-572.093 122.493,-572 202.588,-571.165 295.209,-569.021 353.229,-567.537"/>
<polygon fill="black" stroke="black" points="353.39,-571.034 363.296,-567.277 353.209,-564.036 353.39,-571.034"/>
<text text-anchor="middle" x="187.288" y="-574.8" font-family="Times New Roman,serif" font-size="14.00"> (0)</text>
</g>
<!-- node6&#45;&gt;node10 -->
<g id="edge9" class="edge"><title>node6&#45;&gt;node10</title>
<path fill="none" stroke="black" d="M228.762,-113.061C265.636,-119.087 318.376,-134.025 345.676,-171 376.785,-213.135 337.891,-360.412 363.676,-406 366.287,-410.617 369.843,-414.748 373.832,-418.393"/>
<polygon fill="black" stroke="black" points="371.897,-421.326 381.904,-424.806 376.251,-415.845 371.897,-421.326"/>
<text text-anchor="middle" x="298.88" y="-174.8" font-family="Times New Roman,serif" font-size="14.00"> (0)</text>
</g>
<!-- node39 -->
<g id="node40" class="node"><title>node39</title>
<ellipse fill="none" stroke="black" cx="1443.81" cy="-18" rx="42.7926" ry="18"/>
<text text-anchor="middle" x="1443.81" y="-14.3" font-family="Times New Roman,serif" font-size="14.00">Output 0</text>
</g>
<!-- node6&#45;&gt;node39 -->
<g id="edge67" class="edge"><title>node6&#45;&gt;node39</title>
<path fill="none" stroke="black" d="M225.669,-101.266C325.815,-80.6613 595.361,-26 636.459,-26 636.459,-26 636.459,-26 1317.47,-26 1341.96,-26 1369.08,-24.4605 1391.82,-22.7322"/>
<polygon fill="black" stroke="black" points="1392.24,-26.21 1401.93,-21.9297 1391.68,-19.2319 1392.24,-26.21"/>
</g>
<!-- node16 -->
<g id="node17" class="node"><title>node16</title>
<ellipse fill="none" stroke="black" cx="411.122" cy="-206" rx="47.3916" ry="18"/>
<text text-anchor="middle" x="411.122" y="-202.3" font-family="Times New Roman,serif" font-size="14.00">(16) XOR</text>
</g>
<!-- node7&#45;&gt;node16 -->
<g id="edge21" class="edge"><title>node7&#45;&gt;node16</title>
<path fill="none" stroke="black" d="M229.554,-268.013C261.999,-266.115 307.875,-260.916 345.676,-247 358.12,-242.419 370.676,-235.16 381.357,-228.016"/>
<polygon fill="black" stroke="black" points="383.641,-230.69 389.845,-222.102 379.64,-224.947 383.641,-230.69"/>
<text text-anchor="middle" x="298.88" y="-269.8" font-family="Times New Roman,serif" font-size="14.00"> (0)</text>
</g>
<!-- node7&#45;&gt;node18 -->
<g id="edge26" class="edge"><title>node7&#45;&gt;node18</title>
<path fill="none" stroke="black" d="M215.858,-282.542C222.237,-286.385 228.721,-290.925 234.084,-296 244.56,-305.912 240.113,-314.958 252.084,-323 287.317,-346.669 317.345,-310.394 345.676,-342 375.018,-374.734 340.04,-501.935 363.676,-539 365.481,-541.831 367.697,-544.4 370.173,-546.724"/>
<polygon fill="black" stroke="black" points="368.183,-549.61 378.227,-552.981 372.477,-544.082 368.183,-549.61"/>
<text text-anchor="middle" x="298.88" y="-345.8" font-family="Times New Roman,serif" font-size="14.00"> (1)</text>
</g>
<!-- node23 -->
<g id="node24" class="node"><title>node23</title>
<ellipse fill="none" stroke="black" cx="411.122" cy="-307" rx="47.3916" ry="18"/>
<text text-anchor="middle" x="411.122" y="-303.3" font-family="Times New Roman,serif" font-size="14.00">(23) XOR</text>
</g>
<!-- node8&#45;&gt;node23 -->
<g id="edge36" class="edge"><title>node8&#45;&gt;node23</title>
<path fill="none" stroke="black" d="M223.134,-313.317C232.463,-311.135 242.594,-309.131 252.084,-308 285.595,-304.006 323.386,-303.619 353.609,-304.295"/>
<polygon fill="black" stroke="black" points="353.873,-307.803 363.964,-304.574 354.062,-300.806 353.873,-307.803"/>
<text text-anchor="middle" x="298.88" y="-311.8" font-family="Times New Roman,serif" font-size="14.00"> (1)</text>
</g>
<!-- node14 -->
<g id="node15" class="node"><title>node14</title>
<ellipse fill="none" stroke="black" cx="411.122" cy="-512" rx="46.5926" ry="18"/>
<text text-anchor="middle" x="411.122" y="-508.3" font-family="Times New Roman,serif" font-size="14.00">(14) AND</text>
</g>
<!-- node9&#45;&gt;node14 -->
<g id="edge18" class="edge"><title>node9&#45;&gt;node14</title>
<path fill="none" stroke="black" d="M223.651,-202.173C232.886,-204.485 242.841,-206.904 252.084,-209 293.478,-218.387 317.593,-196.174 345.676,-228 380.769,-267.771 341.428,-417.852 363.676,-466 367.661,-474.625 374.007,-482.528 380.744,-489.259"/>
<polygon fill="black" stroke="black" points="378.397,-491.857 388.113,-496.082 383.153,-486.72 378.397,-491.857"/>
<text text-anchor="middle" x="298.88" y="-231.8" font-family="Times New Roman,serif" font-size="14.00"> (1)</text>
</g>
<!-- node9&#45;&gt;node16 -->
<g id="edge22" class="edge"><title>node9&#45;&gt;node16</title>
<path fill="none" stroke="black" d="M229.481,-191.267C261.292,-190.411 306.37,-190.246 345.676,-194 350.13,-194.425 354.735,-195.003 359.341,-195.676"/>
<polygon fill="black" stroke="black" points="358.938,-199.156 369.366,-197.281 360.045,-192.244 358.938,-199.156"/>
<text text-anchor="middle" x="298.88" y="-197.8" font-family="Times New Roman,serif" font-size="14.00"> (1)</text>
</g>
<!-- node30 -->
<g id="node31" class="node"><title>node30</title>
<ellipse fill="none" stroke="black" cx="712.905" cy="-180" rx="46.5926" ry="18"/>
<text text-anchor="middle" x="712.905" y="-176.3" font-family="Times New Roman,serif" font-size="14.00">(30) AND</text>
</g>
<!-- node9&#45;&gt;node30 -->
<g id="edge50" class="edge"><title>node9&#45;&gt;node30</title>
<path fill="none" stroke="black" d="M228.418,-188.308C236.259,-187.473 244.425,-186.66 252.084,-186 410.361,-172.36 450.597,-178.225 609.459,-179 624.489,-179.073 640.758,-179.207 655.811,-179.354"/>
<polygon fill="black" stroke="black" points="655.973,-182.855 666.008,-179.457 656.044,-175.856 655.973,-182.855"/>
<text text-anchor="middle" x="486.567" y="-180.8" font-family="Times New Roman,serif" font-size="14.00"> (1)</text>
</g>
<!-- node17 -->
<g id="node18" class="node"><title>node17</title>
<ellipse fill="none" stroke="black" cx="562.013" cy="-502" rx="47.3916" ry="18"/>
<text text-anchor="middle" x="562.013" y="-498.3" font-family="Times New Roman,serif" font-size="14.00">(17) XOR</text>
</g>
<!-- node10&#45;&gt;node17 -->
<g id="edge23" class="edge"><title>node10&#45;&gt;node17</title>
<path fill="none" stroke="black" d="M457.211,-435.463C470.314,-435.924 484.372,-437.925 496.567,-443 513.964,-450.239 529.652,-464.344 541.193,-476.948"/>
<polygon fill="black" stroke="black" points="538.603,-479.304 547.821,-484.527 543.872,-474.695 538.603,-479.304"/>
<text text-anchor="middle" x="486.567" y="-446.8" font-family="Times New Roman,serif" font-size="14.00"> (0)</text>
</g>
<!-- node20 -->
<g id="node21" class="node"><title>node20</title>
<ellipse fill="none" stroke="black" cx="712.905" cy="-445" rx="40.8928" ry="18"/>
<text text-anchor="middle" x="712.905" y="-441.3" font-family="Times New Roman,serif" font-size="14.00">(20) OR</text>
</g>
<!-- node10&#45;&gt;node20 -->
<g id="edge29" class="edge"><title>node10&#45;&gt;node20</title>
<path fill="none" stroke="black" d="M456.459,-434.327C463.189,-433.776 470.057,-433.302 476.567,-433 540.91,-430.011 615.126,-435.238 662.733,-439.705"/>
<polygon fill="black" stroke="black" points="662.478,-443.197 672.768,-440.673 663.15,-436.229 662.478,-443.197"/>
<text text-anchor="middle" x="562.013" y="-438.8" font-family="Times New Roman,serif" font-size="14.00"> (0)</text>
</g>
<!-- node11&#45;&gt;node14 -->
<g id="edge17" class="edge"><title>node11&#45;&gt;node14</title>
<path fill="none" stroke="black" d="M231.851,-534.502C267.526,-529.999 318.163,-523.607 356.358,-518.786"/>
<polygon fill="black" stroke="black" points="356.797,-522.259 366.28,-517.534 355.92,-515.314 356.797,-522.259"/>
<text text-anchor="middle" x="298.88" y="-534.8" font-family="Times New Roman,serif" font-size="14.00"> (0)</text>
</g>
<!-- node11&#45;&gt;node15 -->
<g id="edge19" class="edge"><title>node11&#45;&gt;node15</title>
<path fill="none" stroke="black" d="M216.265,-554.196C223.107,-558.955 229.71,-564.897 234.084,-572 263.516,-619.793 217.084,-653.121 252.084,-697 279.875,-731.841 305.989,-712.721 345.676,-733 357.289,-738.934 369.421,-746.453 379.985,-753.483"/>
<polygon fill="black" stroke="black" points="378.205,-756.506 388.444,-759.229 382.138,-750.715 378.205,-756.506"/>
<text text-anchor="middle" x="298.88" y="-736.8" font-family="Times New Roman,serif" font-size="14.00"> (0)</text>
</g>
<!-- node19 -->
<g id="node20" class="node"><title>node19</title>
<ellipse fill="none" stroke="black" cx="712.905" cy="-573" rx="47.3916" ry="18"/>
<text text-anchor="middle" x="712.905" y="-569.3" font-family="Times New Roman,serif" font-size="14.00">(19) XOR</text>
</g>
<!-- node11&#45;&gt;node19 -->
<g id="edge28" class="edge"><title>node11&#45;&gt;node19</title>
<path fill="none" stroke="black" d="M220.284,-552.78C254.955,-565.886 312.227,-585.396 363.676,-593 468.092,-608.432 591.754,-593.578 660.048,-582.526"/>
<polygon fill="black" stroke="black" points="660.824,-585.945 670.118,-580.858 659.68,-579.039 660.824,-585.945"/>
<text text-anchor="middle" x="486.567" y="-602.8" font-family="Times New Roman,serif" font-size="14.00"> (1)</text>
</g>
<!-- node12&#45;&gt;node23 -->
<g id="edge35" class="edge"><title>node12&#45;&gt;node23</title>
<path fill="none" stroke="black" d="M234.237,-385.144C266.662,-383.029 310.428,-377.058 345.676,-361 361.218,-353.92 376.014,-342.032 387.501,-331.21"/>
<polygon fill="black" stroke="black" points="390.204,-333.461 394.893,-323.96 385.303,-328.463 390.204,-333.461"/>
<text text-anchor="middle" x="298.88" y="-386.8" font-family="Times New Roman,serif" font-size="14.00"> (0)</text>
</g>
<!-- node26 -->
<g id="node27" class="node"><title>node26</title>
<ellipse fill="none" stroke="black" cx="562.013" cy="-355" rx="40.8928" ry="18"/>
<text text-anchor="middle" x="562.013" y="-351.3" font-family="Times New Roman,serif" font-size="14.00">(26) OR</text>
</g>
<!-- node12&#45;&gt;node26 -->
<g id="edge41" class="edge"><title>node12&#45;&gt;node26</title>
<path fill="none" stroke="black" d="M227.575,-395.293C235.636,-396.836 244.099,-398.195 252.084,-399 293.471,-403.174 304.291,-403.185 345.676,-399 405.6,-392.94 473.494,-377.626 516.748,-366.772"/>
<polygon fill="black" stroke="black" points="517.828,-370.109 526.659,-364.255 516.105,-363.325 517.828,-370.109"/>
<text text-anchor="middle" x="411.122" y="-399.8" font-family="Times New Roman,serif" font-size="14.00"> (0)</text>
</g>
<!-- node22 -->
<g id="node23" class="node"><title>node22</title>
<ellipse fill="none" stroke="black" cx="863.796" cy="-722" rx="46.5926" ry="18"/>
<text text-anchor="middle" x="863.796" y="-718.3" font-family="Times New Roman,serif" font-size="14.00">(22) AND</text>
</g>
<!-- node13&#45;&gt;node22 -->
<g id="edge33" class="edge"><title>node13&#45;&gt;node22</title>
<path fill="none" stroke="black" d="M344.37,-674.525C407.364,-680.892 526.168,-692.749 627.459,-702 689.089,-707.629 759.848,-713.572 807.55,-717.503"/>
<polygon fill="black" stroke="black" points="807.413,-721.003 817.666,-718.334 807.986,-714.027 807.413,-721.003"/>
<text text-anchor="middle" x="562.013" y="-703.8" font-family="Times New Roman,serif" font-size="14.00"> (0)</text>
</g>
<!-- node32 -->
<g id="node33" class="node"><title>node32</title>
<ellipse fill="none" stroke="black" cx="863.796" cy="-445" rx="47.3916" ry="18"/>
<text text-anchor="middle" x="863.796" y="-441.3" font-family="Times New Roman,serif" font-size="14.00">(32) XOR</text>
</g>
<!-- node13&#45;&gt;node32 -->
<g id="edge54" class="edge"><title>node13&#45;&gt;node32</title>
<path fill="none" stroke="black" d="M344.529,-665.41C453.401,-653.91 726.145,-623.126 760.351,-600 800.953,-572.548 788.851,-545.57 816.351,-505 824.341,-493.213 833.865,-480.681 842.202,-470.136"/>
<polygon fill="black" stroke="black" points="845.071,-472.153 848.583,-462.157 839.604,-467.782 845.071,-472.153"/>
<text text-anchor="middle" x="562.013" y="-648.8" font-family="Times New Roman,serif" font-size="14.00"> (1)</text>
</g>
<!-- node14&#45;&gt;node17 -->
<g id="edge24" class="edge"><title>node14&#45;&gt;node17</title>
<path fill="none" stroke="black" d="M457.603,-508.945C472.546,-507.942 489.333,-506.814 504.965,-505.764"/>
<polygon fill="black" stroke="black" points="505.297,-509.25 515.04,-505.088 504.828,-502.266 505.297,-509.25"/>
<text text-anchor="middle" x="486.567" y="-510.8" font-family="Times New Roman,serif" font-size="14.00"> (1)</text>
</g>
<!-- node36 -->
<g id="node37" class="node"><title>node36</title>
<ellipse fill="none" stroke="black" cx="1316.47" cy="-614" rx="47.3916" ry="18"/>
<text text-anchor="middle" x="1316.47" y="-610.3" font-family="Times New Roman,serif" font-size="14.00">(36) XOR</text>
</g>
<!-- node14&#45;&gt;node36 -->
<g id="edge61" class="edge"><title>node14&#45;&gt;node36</title>
<path fill="none" stroke="black" d="M451.159,-521.366C459.505,-523.119 468.299,-524.781 476.567,-526 493.328,-528.471 497.639,-528.333 514.567,-529 557.074,-530.675 760.961,-527 787.351,-527 787.351,-527 787.351,-527 1166.58,-527 1216.44,-527 1264.45,-563.828 1291.91,-589.561"/>
<polygon fill="black" stroke="black" points="1289.79,-592.386 1299.42,-596.812 1294.65,-587.349 1289.79,-592.386"/>
<text text-anchor="middle" x="863.796" y="-530.8" font-family="Times New Roman,serif" font-size="14.00"> (0)</text>
</g>
<!-- node24 -->
<g id="node25" class="node"><title>node24</title>
<ellipse fill="none" stroke="black" cx="712.905" cy="-776" rx="46.5926" ry="18"/>
<text text-anchor="middle" x="712.905" y="-772.3" font-family="Times New Roman,serif" font-size="14.00">(24) AND</text>
</g>
<!-- node15&#45;&gt;node24 -->
<g id="edge38" class="edge"><title>node15&#45;&gt;node24</title>
<path fill="none" stroke="black" d="M457.979,-775.153C511.095,-775.33 598.606,-775.622 655.751,-775.813"/>
<polygon fill="black" stroke="black" points="656.041,-779.314 666.053,-775.847 656.065,-772.314 656.041,-779.314"/>
<text text-anchor="middle" x="562.013" y="-778.8" font-family="Times New Roman,serif" font-size="14.00"> (1)</text>
</g>
<!-- node40 -->
<g id="node41" class="node"><title>node40</title>
<ellipse fill="none" stroke="black" cx="1443.81" cy="-72" rx="42.7926" ry="18"/>
<text text-anchor="middle" x="1443.81" y="-68.3" font-family="Times New Roman,serif" font-size="14.00">Output 1</text>
</g>
<!-- node16&#45;&gt;node40 -->
<g id="edge68" class="edge"><title>node16&#45;&gt;node40</title>
<path fill="none" stroke="black" d="M420.264,-188.303C439.135,-150.237 489.751,-64 561.013,-64 561.013,-64 561.013,-64 1317.47,-64 1341.96,-64 1369.08,-65.5395 1391.82,-67.2678"/>
<polygon fill="black" stroke="black" points="1391.68,-70.7681 1401.93,-68.0703 1392.24,-63.79 1391.68,-70.7681"/>
</g>
<!-- node17&#45;&gt;node19 -->
<g id="edge27" class="edge"><title>node17&#45;&gt;node19</title>
<path fill="none" stroke="black" d="M592.429,-516.027C615.575,-527.065 648.023,-542.538 673.263,-554.574"/>
<polygon fill="black" stroke="black" points="672.017,-557.857 682.55,-559.002 675.03,-551.538 672.017,-557.857"/>
<text text-anchor="middle" x="637.459" y="-544.8" font-family="Times New Roman,serif" font-size="14.00"> (0)</text>
</g>
<!-- node17&#45;&gt;node20 -->
<g id="edge30" class="edge"><title>node17&#45;&gt;node20</title>
<path fill="none" stroke="black" d="M596.057,-489.35C618.496,-480.76 648.293,-469.352 672.049,-460.258"/>
<polygon fill="black" stroke="black" points="673.401,-463.488 681.488,-456.644 670.898,-456.951 673.401,-463.488"/>
<text text-anchor="middle" x="637.459" y="-479.8" font-family="Times New Roman,serif" font-size="14.00"> (1)</text>
</g>
<!-- node17&#45;&gt;node24 -->
<g id="edge37" class="edge"><title>node17&#45;&gt;node24</title>
<path fill="none" stroke="black" d="M573.051,-519.581C589.032,-547.656 621.144,-604.4 647.459,-653 665.294,-685.939 685.22,-724.204 698.128,-749.196"/>
<polygon fill="black" stroke="black" points="695.182,-751.12 702.876,-758.403 701.404,-747.911 695.182,-751.12"/>
<text text-anchor="middle" x="637.459" y="-656.8" font-family="Times New Roman,serif" font-size="14.00"> (0)</text>
</g>
<!-- node21 -->
<g id="node22" class="node"><title>node21</title>
<ellipse fill="none" stroke="black" cx="863.796" cy="-668" rx="40.8928" ry="18"/>
<text text-anchor="middle" x="863.796" y="-664.3" font-family="Times New Roman,serif" font-size="14.00">(21) OR</text>
</g>
<!-- node18&#45;&gt;node21 -->
<g id="edge31" class="edge"><title>node18&#45;&gt;node21</title>
<path fill="none" stroke="black" d="M455.68,-572.505C470.402,-576.706 485.815,-583.62 496.567,-595 516.861,-616.477 491.743,-640.235 514.567,-659 558.908,-695.454 728.969,-682.793 813.918,-673.813"/>
<polygon fill="black" stroke="black" points="814.523,-677.268 824.088,-672.712 813.769,-670.309 814.523,-677.268"/>
<text text-anchor="middle" x="637.459" y="-686.8" font-family="Times New Roman,serif" font-size="14.00"> (0)</text>
</g>
<!-- node18&#45;&gt;node27 -->
<g id="edge43" class="edge"><title>node18&#45;&gt;node27</title>
<path fill="none" stroke="black" d="M442.998,-552.241C448.758,-548.589 454.299,-544.185 458.567,-539 474.111,-520.118 465.524,-508.821 476.567,-487 483.637,-473.03 490.896,-472.593 496.567,-458 517.696,-403.632 500.099,-384.506 514.567,-328 523.165,-294.424 538.065,-257.426 548.67,-233.076"/>
<polygon fill="black" stroke="black" points="551.94,-234.336 552.781,-223.774 545.537,-231.506 551.94,-234.336"/>
<text text-anchor="middle" x="486.567" y="-490.8" font-family="Times New Roman,serif" font-size="14.00"> (0)</text>
</g>
<!-- node19&#45;&gt;node21 -->
<g id="edge32" class="edge"><title>node19&#45;&gt;node21</title>
<path fill="none" stroke="black" d="M738.158,-588.475C763.439,-604.605 803.175,-629.959 830.965,-647.69"/>
<polygon fill="black" stroke="black" points="829.222,-650.73 839.535,-653.158 832.987,-644.828 829.222,-650.73"/>
<text text-anchor="middle" x="788.351" y="-629.8" font-family="Times New Roman,serif" font-size="14.00"> (1)</text>
</g>
<!-- node19&#45;&gt;node22 -->
<g id="edge34" class="edge"><title>node19&#45;&gt;node22</title>
<path fill="none" stroke="black" d="M725.559,-590.399C743.084,-615.655 778.256,-662.95 816.351,-695 819.395,-697.561 822.714,-700.019 826.133,-702.336"/>
<polygon fill="black" stroke="black" points="824.412,-705.389 834.733,-707.785 828.159,-699.476 824.412,-705.389"/>
<text text-anchor="middle" x="788.351" y="-680.8" font-family="Times New Roman,serif" font-size="14.00"> (1)</text>
</g>
<!-- node31 -->
<g id="node32" class="node"><title>node31</title>
<ellipse fill="none" stroke="black" cx="863.796" cy="-374" rx="47.3916" ry="18"/>
<text text-anchor="middle" x="863.796" y="-370.3" font-family="Times New Roman,serif" font-size="14.00">(31) XOR</text>
</g>
<!-- node19&#45;&gt;node31 -->
<g id="edge52" class="edge"><title>node19&#45;&gt;node31</title>
<path fill="none" stroke="black" d="M722.442,-555.26C732.008,-535.198 747.815,-501.484 760.351,-472 768.94,-451.796 764.276,-442.849 778.351,-426 790.161,-411.861 806.851,-400.457 822.279,-391.972"/>
<polygon fill="black" stroke="black" points="823.936,-395.055 831.17,-387.315 820.688,-388.855 823.936,-395.055"/>
<text text-anchor="middle" x="788.351" y="-429.8" font-family="Times New Roman,serif" font-size="14.00"> (1)</text>
</g>
<!-- node20&#45;&gt;node32 -->
<g id="edge53" class="edge"><title>node20&#45;&gt;node32</title>
<path fill="none" stroke="black" d="M754.197,-445C770.03,-445 788.495,-445 805.66,-445"/>
<polygon fill="black" stroke="black" points="806.144,-448.5 816.144,-445 806.144,-441.5 806.144,-448.5"/>
<text text-anchor="middle" x="788.351" y="-448.8" font-family="Times New Roman,serif" font-size="14.00"> (0)</text>
</g>
<!-- node25 -->
<g id="node26" class="node"><title>node25</title>
<ellipse fill="none" stroke="black" cx="1014.69" cy="-700" rx="47.3916" ry="18"/>
<text text-anchor="middle" x="1014.69" y="-696.3" font-family="Times New Roman,serif" font-size="14.00">(25) XOR</text>
</g>
<!-- node21&#45;&gt;node25 -->
<g id="edge40" class="edge"><title>node21&#45;&gt;node25</title>
<path fill="none" stroke="black" d="M900.839,-675.746C919.551,-679.768 942.721,-684.748 963.188,-689.147"/>
<polygon fill="black" stroke="black" points="962.475,-692.573 972.987,-691.253 963.946,-685.729 962.475,-692.573"/>
<text text-anchor="middle" x="939.242" y="-688.8" font-family="Times New Roman,serif" font-size="14.00"> (1)</text>
</g>
<!-- node22&#45;&gt;node25 -->
<g id="edge39" class="edge"><title>node22&#45;&gt;node25</title>
<path fill="none" stroke="black" d="M904.916,-713.308C912.949,-711.737 921.345,-710.215 929.242,-709 938.652,-707.553 948.687,-706.263 958.433,-705.143"/>
<polygon fill="black" stroke="black" points="958.892,-708.614 968.448,-704.039 958.124,-701.656 958.892,-708.614"/>
<text text-anchor="middle" x="939.242" y="-712.8" font-family="Times New Roman,serif" font-size="14.00"> (0)</text>
</g>
<!-- node29 -->
<g id="node30" class="node"><title>node29</title>
<ellipse fill="none" stroke="black" cx="1014.69" cy="-754" rx="47.3916" ry="18"/>
<text text-anchor="middle" x="1014.69" y="-750.3" font-family="Times New Roman,serif" font-size="14.00">(29) XOR</text>
</g>
<!-- node22&#45;&gt;node29 -->
<g id="edge47" class="edge"><title>node22&#45;&gt;node29</title>
<path fill="none" stroke="black" d="M905.089,-730.66C922.974,-734.504 944.218,-739.069 963.153,-743.139"/>
<polygon fill="black" stroke="black" points="962.593,-746.598 973.105,-745.278 964.064,-739.755 962.593,-746.598"/>
<text text-anchor="middle" x="939.242" y="-742.8" font-family="Times New Roman,serif" font-size="14.00"> (0)</text>
</g>
<!-- node23&#45;&gt;node26 -->
<g id="edge42" class="edge"><title>node23&#45;&gt;node26</title>
<path fill="none" stroke="black" d="M447.785,-318.497C469.143,-325.383 496.411,-334.173 518.835,-341.402"/>
<polygon fill="black" stroke="black" points="517.845,-344.761 528.437,-344.498 519.993,-338.098 517.845,-344.761"/>
<text text-anchor="middle" x="486.567" y="-336.8" font-family="Times New Roman,serif" font-size="14.00"> (1)</text>
</g>
<!-- node23&#45;&gt;node28 -->
<g id="edge46" class="edge"><title>node23&#45;&gt;node28</title>
<path fill="none" stroke="black" d="M425.708,-289.813C436.348,-275.451 450.631,-253.999 458.567,-233 476.081,-186.66 441.373,-157.863 476.567,-123 484.313,-115.327 494.572,-110.989 505.263,-108.702"/>
<polygon fill="black" stroke="black" points="505.81,-112.159 515.142,-107.143 504.719,-105.245 505.81,-112.159"/>
<text text-anchor="middle" x="486.567" y="-126.8" font-family="Times New Roman,serif" font-size="14.00"> (1)</text>
</g>
<!-- node35 -->
<g id="node36" class="node"><title>node35</title>
<ellipse fill="none" stroke="black" cx="1014.69" cy="-307" rx="46.5926" ry="18"/>
<text text-anchor="middle" x="1014.69" y="-303.3" font-family="Times New Roman,serif" font-size="14.00">(35) AND</text>
</g>
<!-- node23&#45;&gt;node35 -->
<g id="edge60" class="edge"><title>node23&#45;&gt;node35</title>
<path fill="none" stroke="black" d="M458.73,-307C488.081,-307 526.763,-307 561.013,-307 561.013,-307 561.013,-307 864.796,-307 895.396,-307 929.533,-307 957.393,-307"/>
<polygon fill="black" stroke="black" points="957.743,-310.5 967.743,-307 957.743,-303.5 957.743,-310.5"/>
<text text-anchor="middle" x="712.905" y="-310.8" font-family="Times New Roman,serif" font-size="14.00"> (1)</text>
</g>
<!-- node24&#45;&gt;node29 -->
<g id="edge48" class="edge"><title>node24&#45;&gt;node29</title>
<path fill="none" stroke="black" d="M759.11,-772.683C812.191,-768.787 900.255,-762.324 957.633,-758.114"/>
<polygon fill="black" stroke="black" points="957.905,-761.603 967.622,-757.381 957.392,-754.622 957.905,-761.603"/>
<text text-anchor="middle" x="863.796" y="-771.8" font-family="Times New Roman,serif" font-size="14.00"> (1)</text>
</g>
<!-- node25&#45;&gt;node33 -->
<g id="edge56" class="edge"><title>node25&#45;&gt;node33</title>
<path fill="none" stroke="black" d="M1062.39,-700C1076.94,-700 1093.14,-700 1108.28,-700"/>
<polygon fill="black" stroke="black" points="1108.55,-703.5 1118.55,-700 1108.55,-696.5 1108.55,-703.5"/>
<text text-anchor="middle" x="1090.13" y="-703.8" font-family="Times New Roman,serif" font-size="14.00"> (1)</text>
</g>
<!-- node26&#45;&gt;node31 -->
<g id="edge51" class="edge"><title>node26&#45;&gt;node31</title>
<path fill="none" stroke="black" d="M602.822,-357.523C655.109,-360.837 747.226,-366.675 806.599,-370.438"/>
<polygon fill="black" stroke="black" points="806.723,-373.953 816.924,-371.093 807.166,-366.967 806.723,-373.953"/>
<text text-anchor="middle" x="712.905" y="-370.8" font-family="Times New Roman,serif" font-size="14.00"> (0)</text>
</g>
<!-- node27&#45;&gt;node30 -->
<g id="edge49" class="edge"><title>node27&#45;&gt;node30</title>
<path fill="none" stroke="black" d="M605.68,-198.549C622.561,-195.602 642.125,-192.185 659.829,-189.094"/>
<polygon fill="black" stroke="black" points="660.755,-192.485 670.004,-187.317 659.551,-185.589 660.755,-192.485"/>
<text text-anchor="middle" x="637.459" y="-197.8" font-family="Times New Roman,serif" font-size="14.00"> (0)</text>
</g>
<!-- node34 -->
<g id="node35" class="node"><title>node34</title>
<ellipse fill="none" stroke="black" cx="863.796" cy="-180" rx="47.3916" ry="18"/>
<text text-anchor="middle" x="863.796" y="-176.3" font-family="Times New Roman,serif" font-size="14.00">(34) XOR</text>
</g>
<!-- node28&#45;&gt;node34 -->
<g id="edge58" class="edge"><title>node28&#45;&gt;node34</title>
<path fill="none" stroke="black" d="M608.726,-113.252C649.143,-116.888 709.423,-124.179 760.351,-138 782.251,-143.944 805.739,-153.337 824.693,-161.735"/>
<polygon fill="black" stroke="black" points="823.327,-164.959 833.882,-165.884 826.208,-158.579 823.327,-164.959"/>
<text text-anchor="middle" x="712.905" y="-141.8" font-family="Times New Roman,serif" font-size="14.00"> (1)</text>
</g>
<!-- node44 -->
<g id="node45" class="node"><title>node44</title>
<ellipse fill="none" stroke="black" cx="1443.81" cy="-754" rx="42.7926" ry="18"/>
<text text-anchor="middle" x="1443.81" y="-750.3" font-family="Times New Roman,serif" font-size="14.00">Output 5</text>
</g>
<!-- node29&#45;&gt;node44 -->
<g id="edge72" class="edge"><title>node29&#45;&gt;node44</title>
<path fill="none" stroke="black" d="M1062.21,-754C1142.54,-754 1306.68,-754 1390.71,-754"/>
<polygon fill="black" stroke="black" points="1390.8,-757.5 1400.8,-754 1390.8,-750.5 1390.8,-757.5"/>
</g>
<!-- node30&#45;&gt;node34 -->
<g id="edge57" class="edge"><title>node30&#45;&gt;node34</title>
<path fill="none" stroke="black" d="M759.792,-180C774.371,-180 790.673,-180 805.929,-180"/>
<polygon fill="black" stroke="black" points="806.291,-183.5 816.291,-180 806.291,-176.5 806.291,-183.5"/>
<text text-anchor="middle" x="788.351" y="-183.8" font-family="Times New Roman,serif" font-size="14.00"> (0)</text>
</g>
<!-- node37 -->
<g id="node38" class="node"><title>node37</title>
<ellipse fill="none" stroke="black" cx="1165.58" cy="-374" rx="47.3916" ry="18"/>
<text text-anchor="middle" x="1165.58" y="-370.3" font-family="Times New Roman,serif" font-size="14.00">(37) XOR</text>
</g>
<!-- node31&#45;&gt;node37 -->
<g id="edge64" class="edge"><title>node31&#45;&gt;node37</title>
<path fill="none" stroke="black" d="M911.309,-374C964.258,-374 1050.77,-374 1107.69,-374"/>
<polygon fill="black" stroke="black" points="1107.96,-377.5 1117.96,-374 1107.96,-370.5 1107.96,-377.5"/>
<text text-anchor="middle" x="1014.69" y="-377.8" font-family="Times New Roman,serif" font-size="14.00"> (1)</text>
</g>
<!-- node38 -->
<g id="node39" class="node"><title>node38</title>
<ellipse fill="none" stroke="black" cx="1316.47" cy="-401" rx="47.3916" ry="18"/>
<text text-anchor="middle" x="1316.47" y="-397.3" font-family="Times New Roman,serif" font-size="14.00">(38) XOR</text>
</g>
<!-- node32&#45;&gt;node38 -->
<g id="edge66" class="edge"><title>node32&#45;&gt;node38</title>
<path fill="none" stroke="black" d="M910.005,-440.857C982.142,-434.203 1127.72,-420.602 1251.03,-408 1254.22,-407.674 1257.5,-407.334 1260.8,-406.986"/>
<polygon fill="black" stroke="black" points="1261.18,-410.466 1270.76,-405.931 1260.44,-403.505 1261.18,-410.466"/>
<text text-anchor="middle" x="1090.13" y="-427.8" font-family="Times New Roman,serif" font-size="14.00"> (1)</text>
</g>
<!-- node33&#45;&gt;node36 -->
<g id="edge62" class="edge"><title>node33&#45;&gt;node36</title>
<path fill="none" stroke="black" d="M1192.51,-685.02C1216.99,-670.882 1253.86,-649.585 1280.84,-634"/>
<polygon fill="black" stroke="black" points="1282.68,-636.985 1289.58,-628.952 1279.17,-630.923 1282.68,-636.985"/>
<text text-anchor="middle" x="1241.03" y="-665.8" font-family="Times New Roman,serif" font-size="14.00"> (1)</text>
</g>
<!-- node34&#45;&gt;node35 -->
<g id="edge59" class="edge"><title>node34&#45;&gt;node35</title>
<path fill="none" stroke="black" d="M883.957,-196.343C910.089,-218.633 957.042,-258.683 986.72,-283.997"/>
<polygon fill="black" stroke="black" points="984.722,-286.893 994.601,-290.72 989.264,-281.567 984.722,-286.893"/>
<text text-anchor="middle" x="939.242" y="-254.8" font-family="Times New Roman,serif" font-size="14.00"> (0)</text>
</g>
<!-- node41 -->
<g id="node42" class="node"><title>node41</title>
<ellipse fill="none" stroke="black" cx="1443.81" cy="-180" rx="42.7926" ry="18"/>
<text text-anchor="middle" x="1443.81" y="-176.3" font-family="Times New Roman,serif" font-size="14.00">Output 2</text>
</g>
<!-- node34&#45;&gt;node41 -->
<g id="edge69" class="edge"><title>node34&#45;&gt;node41</title>
<path fill="none" stroke="black" d="M911.405,-180C940.756,-180 979.438,-180 1013.69,-180 1013.69,-180 1013.69,-180 1317.47,-180 1341.53,-180 1368.19,-180 1390.71,-180"/>
<polygon fill="black" stroke="black" points="1390.75,-183.5 1400.75,-180 1390.75,-176.5 1390.75,-183.5"/>
</g>
<!-- node35&#45;&gt;node37 -->
<g id="edge63" class="edge"><title>node35&#45;&gt;node37</title>
<path fill="none" stroke="black" d="M1045.82,-320.558C1068.65,-330.832 1100.22,-345.039 1125.07,-356.223"/>
<polygon fill="black" stroke="black" points="1123.68,-359.435 1134.24,-360.347 1126.56,-353.052 1123.68,-359.435"/>
<text text-anchor="middle" x="1090.13" y="-347.8" font-family="Times New Roman,serif" font-size="14.00"> (0)</text>
</g>
<!-- node43 -->
<g id="node44" class="node"><title>node43</title>
<ellipse fill="none" stroke="black" cx="1443.81" cy="-614" rx="42.7926" ry="18"/>
<text text-anchor="middle" x="1443.81" y="-610.3" font-family="Times New Roman,serif" font-size="14.00">Output 4</text>
</g>
<!-- node36&#45;&gt;node43 -->
<g id="edge71" class="edge"><title>node36&#45;&gt;node43</title>
<path fill="none" stroke="black" d="M1364.14,-614C1372.75,-614 1381.78,-614 1390.54,-614"/>
<polygon fill="black" stroke="black" points="1390.65,-617.5 1400.65,-614 1390.65,-610.5 1390.65,-617.5"/>
</g>
<!-- node37&#45;&gt;node38 -->
<g id="edge65" class="edge"><title>node37&#45;&gt;node38</title>
<path fill="none" stroke="black" d="M1208.85,-381.665C1225.74,-384.728 1245.36,-388.286 1263.14,-391.51"/>
<polygon fill="black" stroke="black" points="1262.89,-395.022 1273.36,-393.363 1264.14,-388.134 1262.89,-395.022"/>
<text text-anchor="middle" x="1241.03" y="-392.8" font-family="Times New Roman,serif" font-size="14.00"> (0)</text>
</g>
<!-- node42 -->
<g id="node43" class="node"><title>node42</title>
<ellipse fill="none" stroke="black" cx="1443.81" cy="-401" rx="42.7926" ry="18"/>
<text text-anchor="middle" x="1443.81" y="-397.3" font-family="Times New Roman,serif" font-size="14.00">Output 3</text>
</g>
<!-- node38&#45;&gt;node42 -->
<g id="edge70" class="edge"><title>node38&#45;&gt;node42</title>
<path fill="none" stroke="black" d="M1364.14,-401C1372.75,-401 1381.78,-401 1390.54,-401"/>
<polygon fill="black" stroke="black" points="1390.65,-404.5 1400.65,-401 1390.65,-397.5 1390.65,-404.5"/>
</g>
</g>
</svg>
