<?xml version="1.0" encoding="UTF-8" standalone="no"?>
<!DOCTYPE svg PUBLIC "-//W3C//DTD SVG 1.1//EN"
 "http://www.w3.org/Graphics/SVG/1.1/DTD/svg11.dtd">
<!-- Generated by graphviz version 2.38.0 (20140413.2041)
 -->
<!-- Title: NeuralNetwork Pages: 1 -->
<svg width="288pt" height="84pt"
 viewBox="0.00 0.00 288.00 84.34" xmlns="http://www.w3.org/2000/svg" xmlns:xlink="http://www.w3.org/1999/xlink">
<g id="graph0" class="graph" transform="scale(0.231711 0.231711) rotate(0) translate(4 360)">
<title>NeuralNetwork</title>
<polygon fill="white" stroke="none" points="-4,4 -4,-360 1238.93,-360 1238.93,4 -4,4"/>
<!-- node0 -->
<g id="node1" class="node"><title>node0</title>
<ellipse fill="none" stroke="black" cx="42.2463" cy="-179" rx="42.4939" ry="18"/>
<text text-anchor="middle" x="42.2463" y="-175.3" font-family="Times New Roman,serif" font-size="14.00">(0) Input</text>
</g>
<!-- node5 -->
<g id="node6" class="node"><title>node5</title>
<ellipse fill="none" stroke="black" cx="183.389" cy="-172" rx="42.7926" ry="18"/>
<text text-anchor="middle" x="183.389" y="-168.3" font-family="Times New Roman,serif" font-size="14.00">(5) XOR</text>
</g>
<!-- node0&#45;&gt;node5 -->
<g id="edge1" class="edge"><title>node0&#45;&gt;node5</title>
<path fill="none" stroke="black" d="M70.2997,-165.49C80.1766,-161.249 91.5997,-157.123 102.493,-155 115.343,-152.496 129.316,-154.009 141.93,-156.967"/>
<polygon fill="black" stroke="black" points="141.142,-160.379 151.708,-159.6 142.962,-153.62 141.142,-160.379"/>
<text text-anchor="middle" x="112.493" y="-158.8" font-family="Times New Roman,serif" font-size="14.00"> (0)</text>
</g>
<!-- node7 -->
<g id="node8" class="node"><title>node7</title>
<ellipse fill="none" stroke="black" cx="183.389" cy="-239" rx="42.4939" ry="18"/>
<text text-anchor="middle" x="183.389" y="-235.3" font-family="Times New Roman,serif" font-size="14.00">(7) AND</text>
</g>
<!-- node0&#45;&gt;node7 -->
<g id="edge5" class="edge"><title>node0&#45;&gt;node7</title>
<path fill="none" stroke="black" d="M69.8589,-192.625C79.986,-197.651 91.6872,-203.269 102.493,-208 114.86,-213.415 128.499,-218.886 140.953,-223.693"/>
<polygon fill="black" stroke="black" points="140.049,-227.094 150.64,-227.392 142.547,-220.555 140.049,-227.094"/>
<text text-anchor="middle" x="112.493" y="-219.8" font-family="Times New Roman,serif" font-size="14.00"> (0)</text>
</g>
<!-- node1 -->
<g id="node2" class="node"><title>node1</title>
<ellipse fill="none" stroke="black" cx="42.2463" cy="-314" rx="42.4939" ry="18"/>
<text text-anchor="middle" x="42.2463" y="-310.3" font-family="Times New Roman,serif" font-size="14.00">(1) Input</text>
</g>
<!-- node10 -->
<g id="node11" class="node"><title>node10</title>
<ellipse fill="none" stroke="black" cx="613.315" cy="-258" rx="47.3916" ry="18"/>
<text text-anchor="middle" x="613.315" y="-254.3" font-family="Times New Roman,serif" font-size="14.00">(10) XOR</text>
</g>
<!-- node1&#45;&gt;node10 -->
<g id="edge12" class="edge"><title>node1&#45;&gt;node10</title>
<path fill="none" stroke="black" d="M81.4991,-307.215C109.375,-302.854 148.103,-298 182.389,-298 182.389,-298 182.389,-298 467.973,-298 504.261,-298 543.877,-286.114 572.411,-275.301"/>
<polygon fill="black" stroke="black" points="573.98,-278.445 582.017,-271.542 571.43,-271.927 573.98,-278.445"/>
<text text-anchor="middle" x="325.181" y="-301.8" font-family="Times New Roman,serif" font-size="14.00"> (1)</text>
</g>
<!-- node12 -->
<g id="node13" class="node"><title>node12</title>
<ellipse fill="none" stroke="black" cx="764.207" cy="-310" rx="40.8928" ry="18"/>
<text text-anchor="middle" x="764.207" y="-306.3" font-family="Times New Roman,serif" font-size="14.00">(12) OR</text>
</g>
<!-- node1&#45;&gt;node12 -->
<g id="edge16" class="edge"><title>node1&#45;&gt;node12</title>
<path fill="none" stroke="black" d="M77.1991,-324.362C105.155,-331.976 145.97,-341 182.389,-341 182.389,-341 182.389,-341 614.315,-341 650.925,-341 691.554,-331.906 721.11,-323.57"/>
<polygon fill="black" stroke="black" points="722.454,-326.824 731.078,-320.668 720.498,-320.103 722.454,-326.824"/>
<text text-anchor="middle" x="396.077" y="-344.8" font-family="Times New Roman,serif" font-size="14.00"> (1)</text>
</g>
<!-- node2 -->
<g id="node3" class="node"><title>node2</title>
<ellipse fill="none" stroke="black" cx="42.2463" cy="-251" rx="42.4939" ry="18"/>
<text text-anchor="middle" x="42.2463" y="-247.3" font-family="Times New Roman,serif" font-size="14.00">(2) Input</text>
</g>
<!-- node2&#45;&gt;node5 -->
<g id="edge2" class="edge"><title>node2&#45;&gt;node5</title>
<path fill="none" stroke="black" d="M58.3497,-234.201C74.0675,-216.883 97.1293,-191.992 102.493,-189 111.316,-184.077 121.418,-180.578 131.401,-178.091"/>
<polygon fill="black" stroke="black" points="132.274,-181.483 141.294,-175.926 130.777,-174.645 132.274,-181.483"/>
<text text-anchor="middle" x="112.493" y="-192.8" font-family="Times New Roman,serif" font-size="14.00"> (1)</text>
</g>
<!-- node2&#45;&gt;node7 -->
<g id="edge6" class="edge"><title>node2&#45;&gt;node7</title>
<path fill="none" stroke="black" d="M84.4084,-248.821C96.6725,-248.059 110.136,-247.111 122.493,-246 125.725,-245.709 129.053,-245.386 132.406,-245.043"/>
<polygon fill="black" stroke="black" points="132.898,-248.511 142.468,-243.966 132.153,-241.551 132.898,-248.511"/>
<text text-anchor="middle" x="112.493" y="-250.8" font-family="Times New Roman,serif" font-size="14.00"> (1)</text>
</g>
<!-- node3 -->
<g id="node4" class="node"><title>node3</title>
<ellipse fill="none" stroke="black" cx="42.2463" cy="-18" rx="42.4939" ry="18"/>
<text text-anchor="middle" x="42.2463" y="-14.3" font-family="Times New Roman,serif" font-size="14.00">(3) Input</text>
</g>
<!-- node11 -->
<g id="node12" class="node"><title>node11</title>
<ellipse fill="none" stroke="black" cx="764.207" cy="-199" rx="47.3916" ry="18"/>
<text text-anchor="middle" x="764.207" y="-195.3" font-family="Times New Roman,serif" font-size="14.00">(11) XOR</text>
</g>
<!-- node3&#45;&gt;node11 -->
<g id="edge13" class="edge"><title>node3&#45;&gt;node11</title>
<path fill="none" stroke="black" d="M84.6476,-18C112.319,-18 149.536,-18 182.389,-18 182.389,-18 182.389,-18 538.87,-18 636.154,-18 715.052,-122.374 747.389,-172.604"/>
<polygon fill="black" stroke="black" points="744.586,-174.721 752.879,-181.315 750.508,-170.989 744.586,-174.721"/>
<text text-anchor="middle" x="396.077" y="-21.8" font-family="Times New Roman,serif" font-size="14.00"> (0)</text>
</g>
<!-- node4 -->
<g id="node5" class="node"><title>node4</title>
<ellipse fill="none" stroke="black" cx="42.2463" cy="-97" rx="42.4939" ry="18"/>
<text text-anchor="middle" x="42.2463" y="-93.3" font-family="Times New Roman,serif" font-size="14.00">(4) Input</text>
</g>
<!-- node6 -->
<g id="node7" class="node"><title>node6</title>
<ellipse fill="none" stroke="black" cx="325.181" cy="-64" rx="42.7926" ry="18"/>
<text text-anchor="middle" x="325.181" y="-60.3" font-family="Times New Roman,serif" font-size="14.00">(6) XOR</text>
</g>
<!-- node4&#45;&gt;node6 -->
<g id="edge4" class="edge"><title>node4&#45;&gt;node6</title>
<path fill="none" stroke="black" d="M82.962,-91.4675C100.573,-89.0719 121.554,-86.2965 140.493,-84 185.32,-78.5641 236.388,-73.0592 273.28,-69.2047"/>
<polygon fill="black" stroke="black" points="273.708,-72.6791 283.292,-68.1627 272.984,-65.7167 273.708,-72.6791"/>
<text text-anchor="middle" x="183.389" y="-87.8" font-family="Times New Roman,serif" font-size="14.00"> (1)</text>
</g>
<!-- node8 -->
<g id="node9" class="node"><title>node8</title>
<ellipse fill="none" stroke="black" cx="325.181" cy="-172" rx="42.4939" ry="18"/>
<text text-anchor="middle" x="325.181" y="-168.3" font-family="Times New Roman,serif" font-size="14.00">(8) AND</text>
</g>
<!-- node4&#45;&gt;node8 -->
<g id="edge7" class="edge"><title>node4&#45;&gt;node8</title>
<path fill="none" stroke="black" d="M83.1311,-101.538C120.626,-106.424 178.042,-115.508 226.285,-130 247.25,-136.298 269.757,-145.751 287.898,-154.095"/>
<polygon fill="black" stroke="black" points="286.414,-157.265 296.955,-158.335 289.382,-150.925 286.414,-157.265"/>
<text text-anchor="middle" x="183.389" y="-133.8" font-family="Times New Roman,serif" font-size="14.00"> (0)</text>
</g>
<!-- node5&#45;&gt;node6 -->
<g id="edge3" class="edge"><title>node5&#45;&gt;node6</title>
<path fill="none" stroke="black" d="M204.87,-156.407C211.691,-151.201 219.323,-145.361 226.285,-140 249.853,-121.851 276.517,-101.14 296.059,-85.9265"/>
<polygon fill="black" stroke="black" points="298.229,-88.6725 303.968,-79.7666 293.928,-83.1498 298.229,-88.6725"/>
<text text-anchor="middle" x="254.285" y="-128.8" font-family="Times New Roman,serif" font-size="14.00"> (0)</text>
</g>
<!-- node5&#45;&gt;node8 -->
<g id="edge8" class="edge"><title>node5&#45;&gt;node8</title>
<path fill="none" stroke="black" d="M226.331,-172C240.837,-172 257.267,-172 272.464,-172"/>
<polygon fill="black" stroke="black" points="272.75,-175.5 282.75,-172 272.75,-168.5 272.75,-175.5"/>
<text text-anchor="middle" x="254.285" y="-175.8" font-family="Times New Roman,serif" font-size="14.00"> (1)</text>
</g>
<!-- node15 -->
<g id="node16" class="node"><title>node15</title>
<ellipse fill="none" stroke="black" cx="1192.03" cy="-56" rx="42.7926" ry="18"/>
<text text-anchor="middle" x="1192.03" y="-52.3" font-family="Times New Roman,serif" font-size="14.00">Output 0</text>
</g>
<!-- node6&#45;&gt;node15 -->
<g id="edge21" class="edge"><title>node6&#45;&gt;node15</title>
<path fill="none" stroke="black" d="M367.434,-60.3979C395.251,-58.2744 432.791,-56 465.973,-56 465.973,-56 465.973,-56 1065.69,-56 1089.75,-56 1116.41,-56 1138.93,-56"/>
<polygon fill="black" stroke="black" points="1138.97,-59.5001 1148.97,-56 1138.97,-52.5001 1138.97,-59.5001"/>
</g>
<!-- node9 -->
<g id="node10" class="node"><title>node9</title>
<ellipse fill="none" stroke="black" cx="466.973" cy="-239" rx="42.7926" ry="18"/>
<text text-anchor="middle" x="466.973" y="-235.3" font-family="Times New Roman,serif" font-size="14.00">(9) XOR</text>
</g>
<!-- node7&#45;&gt;node9 -->
<g id="edge9" class="edge"><title>node7&#45;&gt;node9</title>
<path fill="none" stroke="black" d="M225.635,-239C275.433,-239 359.248,-239 413.576,-239"/>
<polygon fill="black" stroke="black" points="413.695,-242.5 423.695,-239 413.695,-235.5 413.695,-242.5"/>
<text text-anchor="middle" x="325.181" y="-242.8" font-family="Times New Roman,serif" font-size="14.00"> (0)</text>
</g>
<!-- node8&#45;&gt;node9 -->
<g id="edge10" class="edge"><title>node8&#45;&gt;node9</title>
<path fill="none" stroke="black" d="M354.305,-185.318C369.624,-192.587 388.906,-201.76 406.077,-210 413.557,-213.589 421.552,-217.446 429.186,-221.139"/>
<polygon fill="black" stroke="black" points="427.734,-224.325 438.26,-225.532 430.785,-218.024 427.734,-224.325"/>
<text text-anchor="middle" x="396.077" y="-213.8" font-family="Times New Roman,serif" font-size="14.00"> (1)</text>
</g>
<!-- node9&#45;&gt;node10 -->
<g id="edge11" class="edge"><title>node9&#45;&gt;node10</title>
<path fill="none" stroke="black" d="M508.181,-244.293C523.655,-246.329 541.585,-248.69 558.161,-250.872"/>
<polygon fill="black" stroke="black" points="557.902,-254.368 568.273,-252.203 558.815,-247.427 557.902,-254.368"/>
<text text-anchor="middle" x="537.87" y="-252.8" font-family="Times New Roman,serif" font-size="14.00"> (0)</text>
</g>
<!-- node10&#45;&gt;node11 -->
<g id="edge14" class="edge"><title>node10&#45;&gt;node11</title>
<path fill="none" stroke="black" d="M643.937,-244.062C654.806,-239.109 667.263,-233.621 678.761,-229 691.531,-223.869 705.557,-218.702 718.448,-214.136"/>
<polygon fill="black" stroke="black" points="719.765,-217.384 728.045,-210.773 717.45,-210.778 719.765,-217.384"/>
<text text-anchor="middle" x="688.761" y="-232.8" font-family="Times New Roman,serif" font-size="14.00"> (1)</text>
</g>
<!-- node10&#45;&gt;node12 -->
<g id="edge15" class="edge"><title>node10&#45;&gt;node12</title>
<path fill="none" stroke="black" d="M648.848,-270.061C670.722,-277.7 699.123,-287.619 722.149,-295.661"/>
<polygon fill="black" stroke="black" points="721.059,-298.987 731.654,-298.98 723.367,-292.379 721.059,-298.987"/>
<text text-anchor="middle" x="688.761" y="-290.8" font-family="Times New Roman,serif" font-size="14.00"> (0)</text>
</g>
<!-- node13 -->
<g id="node14" class="node"><title>node13</title>
<ellipse fill="none" stroke="black" cx="914.449" cy="-256" rx="46.5926" ry="18"/>
<text text-anchor="middle" x="914.449" y="-252.3" font-family="Times New Roman,serif" font-size="14.00">(13) AND</text>
</g>
<!-- node10&#45;&gt;node13 -->
<g id="edge18" class="edge"><title>node10&#45;&gt;node13</title>
<path fill="none" stroke="black" d="M661.055,-257.688C714.114,-257.333 800.635,-256.754 857.308,-256.375"/>
<polygon fill="black" stroke="black" points="857.552,-259.874 867.528,-256.307 857.505,-252.874 857.552,-259.874"/>
<text text-anchor="middle" x="764.207" y="-260.8" font-family="Times New Roman,serif" font-size="14.00"> (1)</text>
</g>
<!-- node11&#45;&gt;node13 -->
<g id="edge17" class="edge"><title>node11&#45;&gt;node13</title>
<path fill="none" stroke="black" d="M800.301,-210.947C815.543,-216.27 833.557,-222.741 849.653,-229 857.383,-232.006 865.577,-235.351 873.426,-238.636"/>
<polygon fill="black" stroke="black" points="872.198,-241.917 882.772,-242.584 874.923,-235.469 872.198,-241.917"/>
<text text-anchor="middle" x="839.653" y="-232.8" font-family="Times New Roman,serif" font-size="14.00"> (0)</text>
</g>
<!-- node16 -->
<g id="node17" class="node"><title>node16</title>
<ellipse fill="none" stroke="black" cx="1192.03" cy="-195" rx="42.7926" ry="18"/>
<text text-anchor="middle" x="1192.03" y="-191.3" font-family="Times New Roman,serif" font-size="14.00">Output 1</text>
</g>
<!-- node11&#45;&gt;node16 -->
<g id="edge22" class="edge"><title>node11&#45;&gt;node16</title>
<path fill="none" stroke="black" d="M811.996,-198.56C892.156,-197.808 1055.18,-196.276 1138.88,-195.49"/>
<polygon fill="black" stroke="black" points="1138.96,-198.989 1148.93,-195.396 1138.9,-191.99 1138.96,-198.989"/>
</g>
<!-- node14 -->
<g id="node15" class="node"><title>node14</title>
<ellipse fill="none" stroke="black" cx="1064.69" cy="-295" rx="47.3916" ry="18"/>
<text text-anchor="middle" x="1064.69" y="-291.3" font-family="Times New Roman,serif" font-size="14.00">(14) XOR</text>
</g>
<!-- node12&#45;&gt;node14 -->
<g id="edge20" class="edge"><title>node12&#45;&gt;node14</title>
<path fill="none" stroke="black" d="M805.152,-307.993C857.153,-305.379 948.342,-300.797 1007.35,-297.831"/>
<polygon fill="black" stroke="black" points="1007.81,-301.313 1017.62,-297.315 1007.46,-294.322 1007.81,-301.313"/>
<text text-anchor="middle" x="914.449" y="-307.8" font-family="Times New Roman,serif" font-size="14.00"> (1)</text>
</g>
<!-- node13&#45;&gt;node14 -->
<g id="edge19" class="edge"><title>node13&#45;&gt;node14</title>
<path fill="none" stroke="black" d="M953.625,-266.043C972.412,-270.986 995.265,-276.998 1015.27,-282.261"/>
<polygon fill="black" stroke="black" points="1014.57,-285.696 1025.13,-284.855 1016.35,-278.926 1014.57,-285.696"/>
<text text-anchor="middle" x="989.245" y="-280.8" font-family="Times New Roman,serif" font-size="14.00"> (0)</text>
</g>
<!-- node17 -->
<g id="node18" class="node"><title>node17</title>
<ellipse fill="none" stroke="black" cx="1192.03" cy="-295" rx="42.7926" ry="18"/>
<text text-anchor="middle" x="1192.03" y="-291.3" font-family="Times New Roman,serif" font-size="14.00">Output 2</text>
</g>
<!-- node14&#45;&gt;node17 -->
<g id="edge23" class="edge"><title>node14&#45;&gt;node17</title>
<path fill="none" stroke="black" d="M1112.36,-295C1120.97,-295 1130,-295 1138.76,-295"/>
<polygon fill="black" stroke="black" points="1138.87,-298.5 1148.87,-295 1138.87,-291.5 1138.87,-298.5"/>
</g>
</g>
</svg>
