<?xml version="1.0" encoding="UTF-8" standalone="no"?>
<!DOCTYPE svg PUBLIC "-//W3C//DTD SVG 1.1//EN"
 "http://www.w3.org/Graphics/SVG/1.1/DTD/svg11.dtd">
<!-- Generated by graphviz version 2.38.0 (20140413.2041)
 -->
<!-- Title: NeuralNetwork Pages: 1 -->
<svg width="288pt" height="121pt"
 viewBox="0.00 0.00 288.00 120.52" xmlns="http://www.w3.org/2000/svg" xmlns:xlink="http://www.w3.org/1999/xlink">
<g id="graph0" class="graph" transform="scale(0.299799 0.299799) rotate(0) translate(4 398)">
<title>NeuralNetwork</title>
<polygon fill="white" stroke="none" points="-4,4 -4,-398 956.644,-398 956.644,4 -4,4"/>
<!-- node0 -->
<g id="node1" class="node"><title>node0</title>
<ellipse fill="none" stroke="black" cx="42.2463" cy="-77" rx="42.4939" ry="18"/>
<text text-anchor="middle" x="42.2463" y="-73.3" font-family="Times New Roman,serif" font-size="14.00">(0) Input</text>
</g>
<!-- node8 -->
<g id="node9" class="node"><title>node8</title>
<ellipse fill="none" stroke="black" cx="183.389" cy="-156" rx="42.7926" ry="18"/>
<text text-anchor="middle" x="183.389" y="-152.3" font-family="Times New Roman,serif" font-size="14.00">(8) XOR</text>
</g>
<!-- node0&#45;&gt;node8 -->
<g id="edge8" class="edge"><title>node0&#45;&gt;node8</title>
<path fill="none" stroke="black" d="M79.4431,-85.9558C93.6551,-90.5328 109.612,-97.065 122.493,-106 132.593,-113.007 131.364,-118.767 140.493,-127 143.597,-129.799 146.982,-132.553 150.439,-135.183"/>
<polygon fill="black" stroke="black" points="148.388,-138.019 158.538,-141.057 152.498,-132.353 148.388,-138.019"/>
<text text-anchor="middle" x="112.493" y="-109.8" font-family="Times New Roman,serif" font-size="14.00"> (1)</text>
</g>
<!-- node14 -->
<g id="node15" class="node"><title>node14</title>
<ellipse fill="none" stroke="black" cx="329.731" cy="-65" rx="47.3916" ry="18"/>
<text text-anchor="middle" x="329.731" y="-61.3" font-family="Times New Roman,serif" font-size="14.00">(14) XOR</text>
</g>
<!-- node0&#45;&gt;node14 -->
<g id="edge20" class="edge"><title>node0&#45;&gt;node14</title>
<path fill="none" stroke="black" d="M79.483,-68.1939C97.6714,-64.216 120.117,-59.9718 140.493,-58 185.271,-53.6665 236.281,-56.0117 273.895,-59.1092"/>
<polygon fill="black" stroke="black" points="273.867,-62.6198 284.133,-59.9978 274.473,-55.6461 273.867,-62.6198"/>
<text text-anchor="middle" x="183.389" y="-61.8" font-family="Times New Roman,serif" font-size="14.00"> (1)</text>
</g>
<!-- node1 -->
<g id="node2" class="node"><title>node1</title>
<ellipse fill="none" stroke="black" cx="42.2463" cy="-255" rx="42.4939" ry="18"/>
<text text-anchor="middle" x="42.2463" y="-251.3" font-family="Times New Roman,serif" font-size="14.00">(1) Input</text>
</g>
<!-- node5 -->
<g id="node6" class="node"><title>node5</title>
<ellipse fill="none" stroke="black" cx="183.389" cy="-329" rx="42.7926" ry="18"/>
<text text-anchor="middle" x="183.389" y="-325.3" font-family="Times New Roman,serif" font-size="14.00">(5) XOR</text>
</g>
<!-- node1&#45;&gt;node5 -->
<g id="edge2" class="edge"><title>node1&#45;&gt;node5</title>
<path fill="none" stroke="black" d="M67.8611,-269.543C78.4431,-275.686 90.9982,-282.831 102.493,-289 116.374,-296.45 131.816,-304.285 145.396,-311.026"/>
<polygon fill="black" stroke="black" points="143.942,-314.211 154.458,-315.5 147.041,-307.935 143.942,-314.211"/>
<text text-anchor="middle" x="112.493" y="-302.8" font-family="Times New Roman,serif" font-size="14.00"> (1)</text>
</g>
<!-- node12 -->
<g id="node13" class="node"><title>node12</title>
<ellipse fill="none" stroke="black" cx="631.514" cy="-221" rx="47.3916" ry="18"/>
<text text-anchor="middle" x="631.514" y="-217.3" font-family="Times New Roman,serif" font-size="14.00">(12) XOR</text>
</g>
<!-- node1&#45;&gt;node12 -->
<g id="edge16" class="edge"><title>node1&#45;&gt;node12</title>
<path fill="none" stroke="black" d="M62.9372,-239.079C73.9559,-230.959 88.2997,-221.633 102.493,-216 136,-202.701 146.338,-202 182.389,-202 182.389,-202 182.389,-202 481.622,-202 514.114,-202 550.276,-206.507 578.826,-211.131"/>
<polygon fill="black" stroke="black" points="578.537,-214.632 588.978,-212.832 579.694,-207.728 578.537,-214.632"/>
<text text-anchor="middle" x="329.731" y="-205.8" font-family="Times New Roman,serif" font-size="14.00"> (1)</text>
</g>
<!-- node2 -->
<g id="node3" class="node"><title>node2</title>
<ellipse fill="none" stroke="black" cx="42.2463" cy="-157" rx="42.4939" ry="18"/>
<text text-anchor="middle" x="42.2463" y="-153.3" font-family="Times New Roman,serif" font-size="14.00">(2) Input</text>
</g>
<!-- node6 -->
<g id="node7" class="node"><title>node6</title>
<ellipse fill="none" stroke="black" cx="183.389" cy="-100" rx="42.7926" ry="18"/>
<text text-anchor="middle" x="183.389" y="-96.3" font-family="Times New Roman,serif" font-size="14.00">(6) XOR</text>
</g>
<!-- node2&#45;&gt;node6 -->
<g id="edge4" class="edge"><title>node2&#45;&gt;node6</title>
<path fill="none" stroke="black" d="M73.4381,-144.632C93.6292,-136.361 120.419,-125.386 142.38,-116.39"/>
<polygon fill="black" stroke="black" points="143.848,-119.57 151.775,-112.541 141.195,-113.093 143.848,-119.57"/>
<text text-anchor="middle" x="112.493" y="-134.8" font-family="Times New Roman,serif" font-size="14.00"> (1)</text>
</g>
<!-- node7 -->
<g id="node8" class="node"><title>node7</title>
<ellipse fill="none" stroke="black" cx="183.389" cy="-265" rx="42.7926" ry="18"/>
<text text-anchor="middle" x="183.389" y="-261.3" font-family="Times New Roman,serif" font-size="14.00">(7) XOR</text>
</g>
<!-- node2&#45;&gt;node7 -->
<g id="edge6" class="edge"><title>node2&#45;&gt;node7</title>
<path fill="none" stroke="black" d="M63.4788,-172.704C87.386,-191.261 127.308,-222.247 154.227,-243.142"/>
<polygon fill="black" stroke="black" points="152.086,-245.91 162.132,-249.277 156.378,-240.38 152.086,-245.91"/>
<text text-anchor="middle" x="112.493" y="-220.8" font-family="Times New Roman,serif" font-size="14.00"> (1)</text>
</g>
<!-- node2&#45;&gt;node8 -->
<g id="edge7" class="edge"><title>node2&#45;&gt;node8</title>
<path fill="none" stroke="black" d="M84.6168,-156.703C98.9362,-156.6 115.174,-156.483 130.246,-156.375"/>
<polygon fill="black" stroke="black" points="130.481,-159.873 140.456,-156.301 130.431,-152.873 130.481,-159.873"/>
<text text-anchor="middle" x="112.493" y="-159.8" font-family="Times New Roman,serif" font-size="14.00"> (0)</text>
</g>
<!-- node3 -->
<g id="node4" class="node"><title>node3</title>
<ellipse fill="none" stroke="black" cx="42.2463" cy="-349" rx="42.4939" ry="18"/>
<text text-anchor="middle" x="42.2463" y="-345.3" font-family="Times New Roman,serif" font-size="14.00">(3) Input</text>
</g>
<!-- node3&#45;&gt;node5 -->
<g id="edge1" class="edge"><title>node3&#45;&gt;node5</title>
<path fill="none" stroke="black" d="M82.7467,-343.322C98.183,-341.104 116.065,-338.533 132.384,-336.188"/>
<polygon fill="black" stroke="black" points="132.906,-339.649 142.306,-334.761 131.91,-332.72 132.906,-339.649"/>
<text text-anchor="middle" x="112.493" y="-343.8" font-family="Times New Roman,serif" font-size="14.00"> (0)</text>
</g>
<!-- node3&#45;&gt;node7 -->
<g id="edge5" class="edge"><title>node3&#45;&gt;node7</title>
<path fill="none" stroke="black" d="M50.9464,-331.243C60.1831,-312.37 77.5996,-283.435 102.493,-270 111.298,-265.247 121.471,-262.773 131.545,-261.67"/>
<polygon fill="black" stroke="black" points="131.792,-265.162 141.531,-260.992 131.317,-258.178 131.792,-265.162"/>
<text text-anchor="middle" x="112.493" y="-273.8" font-family="Times New Roman,serif" font-size="14.00"> (0)</text>
</g>
<!-- node13 -->
<g id="node14" class="node"><title>node13</title>
<ellipse fill="none" stroke="black" cx="782.405" cy="-364" rx="47.3916" ry="18"/>
<text text-anchor="middle" x="782.405" y="-360.3" font-family="Times New Roman,serif" font-size="14.00">(13) XOR</text>
</g>
<!-- node3&#45;&gt;node13 -->
<g id="edge17" class="edge"><title>node3&#45;&gt;node13</title>
<path fill="none" stroke="black" d="M75.7134,-360.086C103.645,-368.632 145.197,-379 182.389,-379 182.389,-379 182.389,-379 632.514,-379 664.329,-379 699.777,-375.568 728.102,-371.987"/>
<polygon fill="black" stroke="black" points="728.733,-375.434 738.195,-370.667 727.825,-368.493 728.733,-375.434"/>
<text text-anchor="middle" x="405.176" y="-382.8" font-family="Times New Roman,serif" font-size="14.00"> (0)</text>
</g>
<!-- node4 -->
<g id="node5" class="node"><title>node4</title>
<ellipse fill="none" stroke="black" cx="42.2463" cy="-18" rx="42.4939" ry="18"/>
<text text-anchor="middle" x="42.2463" y="-14.3" font-family="Times New Roman,serif" font-size="14.00">(4) Input</text>
</g>
<!-- node4&#45;&gt;node6 -->
<g id="edge3" class="edge"><title>node4&#45;&gt;node6</title>
<path fill="none" stroke="black" d="M67.8018,-32.4712C90.3148,-45.7386 123.849,-65.5011 148.83,-80.2232"/>
<polygon fill="black" stroke="black" points="147.218,-83.3358 157.611,-85.3976 150.772,-77.3051 147.218,-83.3358"/>
<text text-anchor="middle" x="112.493" y="-66.8" font-family="Times New Roman,serif" font-size="14.00"> (0)</text>
</g>
<!-- node11 -->
<g id="node12" class="node"><title>node11</title>
<ellipse fill="none" stroke="black" cx="631.514" cy="-329" rx="46.5926" ry="18"/>
<text text-anchor="middle" x="631.514" y="-325.3" font-family="Times New Roman,serif" font-size="14.00">(11) AND</text>
</g>
<!-- node5&#45;&gt;node11 -->
<g id="edge13" class="edge"><title>node5&#45;&gt;node11</title>
<path fill="none" stroke="black" d="M226.359,-329C307.083,-329 483.986,-329 574.6,-329"/>
<polygon fill="black" stroke="black" points="574.681,-332.5 584.681,-329 574.681,-325.5 574.681,-332.5"/>
<text text-anchor="middle" x="405.176" y="-332.8" font-family="Times New Roman,serif" font-size="14.00"> (0)</text>
</g>
<!-- node9 -->
<g id="node10" class="node"><title>node9</title>
<ellipse fill="none" stroke="black" cx="329.731" cy="-148" rx="42.4939" ry="18"/>
<text text-anchor="middle" x="329.731" y="-144.3" font-family="Times New Roman,serif" font-size="14.00">(9) AND</text>
</g>
<!-- node6&#45;&gt;node9 -->
<g id="edge9" class="edge"><title>node6&#45;&gt;node9</title>
<path fill="none" stroke="black" d="M217.504,-111.012C237.858,-117.781 264.143,-126.522 286.05,-133.807"/>
<polygon fill="black" stroke="black" points="285.176,-137.205 295.77,-137.039 287.385,-130.562 285.176,-137.205"/>
<text text-anchor="middle" x="254.285" y="-128.8" font-family="Times New Roman,serif" font-size="14.00"> (0)</text>
</g>
<!-- node6&#45;&gt;node14 -->
<g id="edge19" class="edge"><title>node6&#45;&gt;node14</title>
<path fill="none" stroke="black" d="M218.13,-89.2599C226.624,-86.7221 235.753,-84.1358 244.285,-82 254.619,-79.413 265.74,-76.9494 276.411,-74.7409"/>
<polygon fill="black" stroke="black" points="277.356,-78.1206 286.463,-72.7059 275.967,-71.2598 277.356,-78.1206"/>
<text text-anchor="middle" x="254.285" y="-85.8" font-family="Times New Roman,serif" font-size="14.00"> (0)</text>
</g>
<!-- node10 -->
<g id="node11" class="node"><title>node10</title>
<ellipse fill="none" stroke="black" cx="480.622" cy="-265" rx="47.3916" ry="18"/>
<text text-anchor="middle" x="480.622" y="-261.3" font-family="Times New Roman,serif" font-size="14.00">(10) XOR</text>
</g>
<!-- node7&#45;&gt;node10 -->
<g id="edge12" class="edge"><title>node7&#45;&gt;node10</title>
<path fill="none" stroke="black" d="M226.375,-265C277.887,-265 365.436,-265 422.899,-265"/>
<polygon fill="black" stroke="black" points="422.91,-268.5 432.91,-265 422.91,-261.5 422.91,-268.5"/>
<text text-anchor="middle" x="329.731" y="-268.8" font-family="Times New Roman,serif" font-size="14.00"> (1)</text>
</g>
<!-- node8&#45;&gt;node9 -->
<g id="edge10" class="edge"><title>node8&#45;&gt;node9</title>
<path fill="none" stroke="black" d="M226.138,-153.686C242.135,-152.799 260.572,-151.778 277.366,-150.847"/>
<polygon fill="black" stroke="black" points="277.782,-154.329 287.573,-150.281 277.395,-147.34 277.782,-154.329"/>
<text text-anchor="middle" x="254.285" y="-155.8" font-family="Times New Roman,serif" font-size="14.00"> (1)</text>
</g>
<!-- node9&#45;&gt;node10 -->
<g id="edge11" class="edge"><title>node9&#45;&gt;node10</title>
<path fill="none" stroke="black" d="M353.697,-163.226C361.276,-168.408 369.681,-174.326 377.176,-180 403.692,-200.071 432.768,-224.435 453.147,-241.924"/>
<polygon fill="black" stroke="black" points="450.917,-244.622 460.777,-248.499 455.486,-239.319 450.917,-244.622"/>
<text text-anchor="middle" x="405.176" y="-212.8" font-family="Times New Roman,serif" font-size="14.00"> (0)</text>
</g>
<!-- node10&#45;&gt;node11 -->
<g id="edge14" class="edge"><title>node10&#45;&gt;node11</title>
<path fill="none" stroke="black" d="M513.797,-278.071C529.593,-284.555 548.878,-292.572 566.068,-300 574.333,-303.571 583.155,-307.478 591.536,-311.235"/>
<polygon fill="black" stroke="black" points="590.201,-314.472 600.757,-315.386 593.075,-308.089 590.201,-314.472"/>
<text text-anchor="middle" x="556.068" y="-303.8" font-family="Times New Roman,serif" font-size="14.00"> (1)</text>
</g>
<!-- node10&#45;&gt;node12 -->
<g id="edge15" class="edge"><title>node10&#45;&gt;node12</title>
<path fill="none" stroke="black" d="M518.81,-254.01C538.515,-248.187 562.912,-240.978 583.874,-234.783"/>
<polygon fill="black" stroke="black" points="584.944,-238.116 593.543,-231.926 582.961,-231.403 584.944,-238.116"/>
<text text-anchor="middle" x="556.068" y="-248.8" font-family="Times New Roman,serif" font-size="14.00"> (0)</text>
</g>
<!-- node11&#45;&gt;node13 -->
<g id="edge18" class="edge"><title>node11&#45;&gt;node13</title>
<path fill="none" stroke="black" d="M672.023,-338.287C690.364,-342.599 712.364,-347.77 731.809,-352.341"/>
<polygon fill="black" stroke="black" points="731.176,-355.788 741.711,-354.669 732.778,-348.974 731.176,-355.788"/>
<text text-anchor="middle" x="706.96" y="-351.8" font-family="Times New Roman,serif" font-size="14.00"> (1)</text>
</g>
<!-- node16 -->
<g id="node17" class="node"><title>node16</title>
<ellipse fill="none" stroke="black" cx="909.747" cy="-221" rx="42.7926" ry="18"/>
<text text-anchor="middle" x="909.747" y="-217.3" font-family="Times New Roman,serif" font-size="14.00">Output 1</text>
</g>
<!-- node12&#45;&gt;node16 -->
<g id="edge22" class="edge"><title>node12&#45;&gt;node16</title>
<path fill="none" stroke="black" d="M679.061,-221C728.113,-221 805.211,-221 856.361,-221"/>
<polygon fill="black" stroke="black" points="856.545,-224.5 866.545,-221 856.545,-217.5 856.545,-224.5"/>
</g>
<!-- node17 -->
<g id="node18" class="node"><title>node17</title>
<ellipse fill="none" stroke="black" cx="909.747" cy="-364" rx="42.7926" ry="18"/>
<text text-anchor="middle" x="909.747" y="-360.3" font-family="Times New Roman,serif" font-size="14.00">Output 2</text>
</g>
<!-- node13&#45;&gt;node17 -->
<g id="edge23" class="edge"><title>node13&#45;&gt;node17</title>
<path fill="none" stroke="black" d="M830.078,-364C838.683,-364 847.719,-364 856.476,-364"/>
<polygon fill="black" stroke="black" points="856.585,-367.5 866.585,-364 856.585,-360.5 856.585,-367.5"/>
</g>
<!-- node15 -->
<g id="node16" class="node"><title>node15</title>
<ellipse fill="none" stroke="black" cx="909.747" cy="-65" rx="42.7926" ry="18"/>
<text text-anchor="middle" x="909.747" y="-61.3" font-family="Times New Roman,serif" font-size="14.00">Output 0</text>
</g>
<!-- node14&#45;&gt;node15 -->
<g id="edge21" class="edge"><title>node14&#45;&gt;node15</title>
<path fill="none" stroke="black" d="M377.339,-65C406.69,-65 445.372,-65 479.622,-65 479.622,-65 479.622,-65 783.405,-65 807.466,-65 834.123,-65 856.647,-65"/>
<polygon fill="black" stroke="black" points="856.681,-68.5001 866.681,-65 856.681,-61.5001 856.681,-68.5001"/>
</g>
</g>
</svg>
