<?xml version="1.0" encoding="UTF-8" standalone="no"?>
<!DOCTYPE svg PUBLIC "-//W3C//DTD SVG 1.1//EN"
 "http://www.w3.org/Graphics/SVG/1.1/DTD/svg11.dtd">
<!-- Generated by graphviz version 2.38.0 (20140413.2041)
 -->
<!-- Title: NeuralNetwork Pages: 1 -->
<svg width="288pt" height="182pt"
 viewBox="0.00 0.00 288.00 181.73" xmlns="http://www.w3.org/2000/svg" xmlns:xlink="http://www.w3.org/1999/xlink">
<g id="graph0" class="graph" transform="scale(0.226731 0.226731) rotate(0) translate(4 797.502)">
<title>NeuralNetwork</title>
<polygon fill="white" stroke="none" points="-4,4 -4,-797.502 1266.23,-797.502 1266.23,4 -4,4"/>
<!-- node0 -->
<g id="node1" class="node"><title>node0</title>
<ellipse fill="none" stroke="black" cx="42.2463" cy="-342.502" rx="42.4939" ry="18"/>
<text text-anchor="middle" x="42.2463" y="-338.802" font-family="Times New Roman,serif" font-size="14.00">(0) Input</text>
</g>
<!-- node6 -->
<g id="node7" class="node"><title>node6</title>
<ellipse fill="none" stroke="black" cx="187.288" cy="-498.502" rx="42.4939" ry="18"/>
<text text-anchor="middle" x="187.288" y="-494.802" font-family="Times New Roman,serif" font-size="14.00">(6) AND</text>
</g>
<!-- node0&#45;&gt;node6 -->
<g id="edge1" class="edge"><title>node0&#45;&gt;node6</title>
<path fill="none" stroke="black" d="M76.2304,-353.437C92.2906,-360.312 110.643,-370.727 122.493,-385.502 140.712,-408.219 126.279,-423.086 140.493,-448.502 145.75,-457.902 153.099,-466.971 160.374,-474.743"/>
<polygon fill="black" stroke="black" points="158.041,-477.362 167.543,-482.048 163.037,-472.459 158.041,-477.362"/>
<text text-anchor="middle" x="112.493" y="-389.302" font-family="Times New Roman,serif" font-size="14.00"> (0)</text>
</g>
<!-- node11 -->
<g id="node12" class="node"><title>node11</title>
<ellipse fill="none" stroke="black" cx="187.288" cy="-81.5018" rx="46.5926" ry="18"/>
<text text-anchor="middle" x="187.288" y="-77.8018" font-family="Times New Roman,serif" font-size="14.00">(11) AND</text>
</g>
<!-- node0&#45;&gt;node11 -->
<g id="edge11" class="edge"><title>node0&#45;&gt;node11</title>
<path fill="none" stroke="black" d="M49.8565,-324.612C58.5505,-300.671 73.956,-256.781 84.4925,-218.502 94.3945,-182.528 81.3314,-167.233 102.493,-136.502 113.3,-120.807 130.194,-108.475 145.991,-99.5016"/>
<polygon fill="black" stroke="black" points="147.955,-102.42 155.11,-94.606 144.644,-96.2521 147.955,-102.42"/>
<text text-anchor="middle" x="112.493" y="-140.302" font-family="Times New Roman,serif" font-size="14.00"> (0)</text>
</g>
<!-- node18 -->
<g id="node19" class="node"><title>node18</title>
<ellipse fill="none" stroke="black" cx="187.288" cy="-558.502" rx="46.5926" ry="18"/>
<text text-anchor="middle" x="187.288" y="-554.802" font-family="Times New Roman,serif" font-size="14.00">(18) AND</text>
</g>
<!-- node0&#45;&gt;node18 -->
<g id="edge25" class="edge"><title>node0&#45;&gt;node18</title>
<path fill="none" stroke="black" d="M58.389,-359.256C66.2995,-368.134 76.0622,-379.287 84.4925,-389.502 102.034,-410.757 110.958,-413.473 122.493,-438.502 139.018,-474.363 119.012,-492.37 140.493,-525.502 143.351,-529.911 147.022,-533.922 151.039,-537.506"/>
<polygon fill="black" stroke="black" points="149.056,-540.401 159.068,-543.868 153.404,-534.914 149.056,-540.401"/>
<text text-anchor="middle" x="112.493" y="-442.302" font-family="Times New Roman,serif" font-size="14.00"> (1)</text>
</g>
<!-- node22 -->
<g id="node23" class="node"><title>node22</title>
<ellipse fill="none" stroke="black" cx="337.53" cy="-261.502" rx="40.8928" ry="18"/>
<text text-anchor="middle" x="337.53" y="-257.802" font-family="Times New Roman,serif" font-size="14.00">(22) OR</text>
</g>
<!-- node0&#45;&gt;node22 -->
<g id="edge32" class="edge"><title>node0&#45;&gt;node22</title>
<path fill="none" stroke="black" d="M78.0415,-332.892C131.543,-318.116 233.948,-289.833 292.526,-273.655"/>
<polygon fill="black" stroke="black" points="293.527,-277.01 302.234,-270.974 291.663,-270.262 293.527,-277.01"/>
<text text-anchor="middle" x="187.288" y="-319.302" font-family="Times New Roman,serif" font-size="14.00"> (0)</text>
</g>
<!-- node1 -->
<g id="node2" class="node"><title>node1</title>
<ellipse fill="none" stroke="black" cx="42.2463" cy="-191.502" rx="42.4939" ry="18"/>
<text text-anchor="middle" x="42.2463" y="-187.802" font-family="Times New Roman,serif" font-size="14.00">(1) Input</text>
</g>
<!-- node7 -->
<g id="node8" class="node"><title>node7</title>
<ellipse fill="none" stroke="black" cx="187.288" cy="-156.502" rx="42.4939" ry="18"/>
<text text-anchor="middle" x="187.288" y="-152.802" font-family="Times New Roman,serif" font-size="14.00">(7) AND</text>
</g>
<!-- node1&#45;&gt;node7 -->
<g id="edge4" class="edge"><title>node1&#45;&gt;node7</title>
<path fill="none" stroke="black" d="M64.9237,-176.083C75.6844,-169.328 89.2018,-162.123 102.493,-158.502 112.813,-155.69 124.116,-154.327 134.985,-153.815"/>
<polygon fill="black" stroke="black" points="135.317,-157.308 145.228,-153.563 135.145,-150.31 135.317,-157.308"/>
<text text-anchor="middle" x="112.493" y="-162.302" font-family="Times New Roman,serif" font-size="14.00"> (1)</text>
</g>
<!-- node10 -->
<g id="node11" class="node"><title>node10</title>
<ellipse fill="none" stroke="black" cx="187.288" cy="-421.502" rx="46.5926" ry="18"/>
<text text-anchor="middle" x="187.288" y="-417.802" font-family="Times New Roman,serif" font-size="14.00">(10) AND</text>
</g>
<!-- node1&#45;&gt;node10 -->
<g id="edge10" class="edge"><title>node1&#45;&gt;node10</title>
<path fill="none" stroke="black" d="M64.3989,-207.18C85.2125,-223.023 114.941,-246.908 122.493,-259.502 141.458,-291.13 127.273,-306.074 140.493,-340.502 147.899,-359.79 159.336,-380.023 168.927,-395.443"/>
<polygon fill="black" stroke="black" points="165.998,-397.36 174.316,-403.922 171.906,-393.605 165.998,-397.36"/>
<text text-anchor="middle" x="112.493" y="-263.302" font-family="Times New Roman,serif" font-size="14.00"> (1)</text>
</g>
<!-- node12 -->
<g id="node13" class="node"><title>node12</title>
<ellipse fill="none" stroke="black" cx="337.53" cy="-353.502" rx="47.3916" ry="18"/>
<text text-anchor="middle" x="337.53" y="-349.802" font-family="Times New Roman,serif" font-size="14.00">(12) XOR</text>
</g>
<!-- node1&#45;&gt;node12 -->
<g id="edge14" class="edge"><title>node1&#45;&gt;node12</title>
<path fill="none" stroke="black" d="M70.1871,-205.077C89.5389,-214.623 116.36,-227.437 140.493,-237.502 181.338,-254.538 195.497,-249.83 234.084,-271.502 262.89,-287.68 291.935,-311.843 311.704,-329.752"/>
<polygon fill="black" stroke="black" points="309.593,-332.566 319.322,-336.762 314.333,-327.415 309.593,-332.566"/>
<text text-anchor="middle" x="187.288" y="-275.302" font-family="Times New Roman,serif" font-size="14.00"> (1)</text>
</g>
<!-- node16 -->
<g id="node17" class="node"><title>node16</title>
<ellipse fill="none" stroke="black" cx="639.313" cy="-254.502" rx="46.5926" ry="18"/>
<text text-anchor="middle" x="639.313" y="-250.802" font-family="Times New Roman,serif" font-size="14.00">(16) AND</text>
</g>
<!-- node1&#45;&gt;node16 -->
<g id="edge21" class="edge"><title>node1&#45;&gt;node16</title>
<path fill="none" stroke="black" d="M53.7065,-173.935C73.7418,-140.811 117.572,-70.964 140.493,-54.5018 196.883,-14.0003 221.396,-19.6095 290.084,-9.50185 331.809,-3.36195 343.423,-2.29046 384.976,-9.50185 455.155,-21.6812 481.901,-17.0149 535.867,-63.5018 587.643,-108.102 617.516,-185.546 630.505,-226.789"/>
<polygon fill="black" stroke="black" points="627.186,-227.905 633.446,-236.452 633.883,-225.866 627.186,-227.905"/>
<text text-anchor="middle" x="337.53" y="-13.3018" font-family="Times New Roman,serif" font-size="14.00"> (1)</text>
</g>
<!-- node2 -->
<g id="node3" class="node"><title>node2</title>
<ellipse fill="none" stroke="black" cx="42.2463" cy="-416.502" rx="42.4939" ry="18"/>
<text text-anchor="middle" x="42.2463" y="-412.802" font-family="Times New Roman,serif" font-size="14.00">(2) Input</text>
</g>
<!-- node8 -->
<g id="node9" class="node"><title>node8</title>
<ellipse fill="none" stroke="black" cx="187.288" cy="-688.502" rx="42.4939" ry="18"/>
<text text-anchor="middle" x="187.288" y="-684.802" font-family="Times New Roman,serif" font-size="14.00">(8) AND</text>
</g>
<!-- node2&#45;&gt;node8 -->
<g id="edge5" class="edge"><title>node2&#45;&gt;node8</title>
<path fill="none" stroke="black" d="M59.5824,-433.376C68.4649,-443.584 78.7765,-457.334 84.4925,-471.502 108.79,-531.724 71.8024,-559.272 102.493,-616.502 114.022,-638.001 134.779,-655.909 152.748,-668.489"/>
<polygon fill="black" stroke="black" points="151.041,-671.558 161.293,-674.228 154.944,-665.747 151.041,-671.558"/>
<text text-anchor="middle" x="112.493" y="-646.302" font-family="Times New Roman,serif" font-size="14.00"> (0)</text>
</g>
<!-- node9 -->
<g id="node10" class="node"><title>node9</title>
<ellipse fill="none" stroke="black" cx="187.288" cy="-612.502" rx="42.4939" ry="18"/>
<text text-anchor="middle" x="187.288" y="-608.802" font-family="Times New Roman,serif" font-size="14.00">(9) AND</text>
</g>
<!-- node2&#45;&gt;node9 -->
<g id="edge7" class="edge"><title>node2&#45;&gt;node9</title>
<path fill="none" stroke="black" d="M57.7837,-433.571C66.2677,-444.064 76.7836,-458.036 84.4925,-471.502 94.7859,-489.482 92.971,-496.101 102.493,-514.502 110.2,-529.397 114.518,-531.747 122.493,-546.502 131.57,-563.296 127.687,-571.343 140.493,-585.502 143.133,-588.422 146.166,-591.118 149.385,-593.585"/>
<polygon fill="black" stroke="black" points="147.429,-596.487 157.66,-599.238 151.377,-590.707 147.429,-596.487"/>
<text text-anchor="middle" x="112.493" y="-550.302" font-family="Times New Roman,serif" font-size="14.00"> (0)</text>
</g>
<!-- node20 -->
<g id="node21" class="node"><title>node20</title>
<ellipse fill="none" stroke="black" cx="187.288" cy="-210.502" rx="46.5926" ry="18"/>
<text text-anchor="middle" x="187.288" y="-206.802" font-family="Times New Roman,serif" font-size="14.00">(20) AND</text>
</g>
<!-- node2&#45;&gt;node20 -->
<g id="edge29" class="edge"><title>node2&#45;&gt;node20</title>
<path fill="none" stroke="black" d="M61.7208,-400.448C70.0892,-392.095 79.2612,-381.195 84.4925,-369.502 98.022,-339.259 79.1767,-245.04 102.493,-221.502 110.24,-213.68 120.644,-209.499 131.483,-207.495"/>
<polygon fill="black" stroke="black" points="132.014,-210.956 141.494,-206.226 131.133,-204.012 132.014,-210.956"/>
<text text-anchor="middle" x="112.493" y="-225.302" font-family="Times New Roman,serif" font-size="14.00"> (1)</text>
</g>
<!-- node26 -->
<g id="node27" class="node"><title>node26</title>
<ellipse fill="none" stroke="black" cx="488.422" cy="-90.5018" rx="40.8928" ry="18"/>
<text text-anchor="middle" x="488.422" y="-86.8018" font-family="Times New Roman,serif" font-size="14.00">(26) OR</text>
</g>
<!-- node2&#45;&gt;node26 -->
<g id="edge41" class="edge"><title>node2&#45;&gt;node26</title>
<path fill="none" stroke="black" d="M71.5787,-403.426C111.389,-385.316 186.377,-352.159 252.084,-328.502 310.118,-307.608 340.279,-331.007 384.976,-288.502 438.66,-237.449 399.445,-192.85 440.976,-131.502 445.639,-124.613 451.724,-118.144 457.947,-112.471"/>
<polygon fill="black" stroke="black" points="460.488,-114.902 465.804,-105.738 455.933,-109.587 460.488,-114.902"/>
<text text-anchor="middle" x="262.084" y="-332.302" font-family="Times New Roman,serif" font-size="14.00"> (1)</text>
</g>
<!-- node3 -->
<g id="node4" class="node"><title>node3</title>
<ellipse fill="none" stroke="black" cx="42.2463" cy="-498.502" rx="42.4939" ry="18"/>
<text text-anchor="middle" x="42.2463" y="-494.802" font-family="Times New Roman,serif" font-size="14.00">(3) Input</text>
</g>
<!-- node3&#45;&gt;node6 -->
<g id="edge2" class="edge"><title>node3&#45;&gt;node6</title>
<path fill="none" stroke="black" d="M84.62,-498.502C100.336,-498.502 118.429,-498.502 134.955,-498.502"/>
<polygon fill="black" stroke="black" points="135.008,-502.002 145.008,-498.502 135.008,-495.002 135.008,-502.002"/>
<text text-anchor="middle" x="112.493" y="-502.302" font-family="Times New Roman,serif" font-size="14.00"> (1)</text>
</g>
<!-- node3&#45;&gt;node9 -->
<g id="edge8" class="edge"><title>node3&#45;&gt;node9</title>
<path fill="none" stroke="black" d="M59.2914,-515.342C67.4489,-524.425 77.1601,-536.088 84.4925,-547.502 94.5933,-563.225 88.4437,-573.178 102.493,-585.502 112.284,-594.091 124.843,-599.954 137.241,-603.953"/>
<polygon fill="black" stroke="black" points="136.516,-607.387 147.093,-606.778 138.445,-600.658 136.516,-607.387"/>
<text text-anchor="middle" x="112.493" y="-601.302" font-family="Times New Roman,serif" font-size="14.00"> (1)</text>
</g>
<!-- node3&#45;&gt;node10 -->
<g id="edge9" class="edge"><title>node3&#45;&gt;node10</title>
<path fill="none" stroke="black" d="M69.1501,-484.558C91.8085,-472.361 124.95,-454.52 150.204,-440.926"/>
<polygon fill="black" stroke="black" points="151.971,-443.95 159.118,-436.128 148.653,-437.786 151.971,-443.95"/>
<text text-anchor="middle" x="112.493" y="-468.302" font-family="Times New Roman,serif" font-size="14.00"> (0)</text>
</g>
<!-- node4 -->
<g id="node5" class="node"><title>node4</title>
<ellipse fill="none" stroke="black" cx="42.2463" cy="-18.5018" rx="42.4939" ry="18"/>
<text text-anchor="middle" x="42.2463" y="-14.8018" font-family="Times New Roman,serif" font-size="14.00">(4) Input</text>
</g>
<!-- node4&#45;&gt;node11 -->
<g id="edge12" class="edge"><title>node4&#45;&gt;node11</title>
<path fill="none" stroke="black" d="M82.7077,-13.2811C95.7932,-13.0266 110.158,-14.4046 122.493,-19.5018 140.696,-27.0243 156.595,-42.4385 167.968,-56.0148"/>
<polygon fill="black" stroke="black" points="165.476,-58.5034 174.445,-64.1434 170.95,-54.1413 165.476,-58.5034"/>
<text text-anchor="middle" x="112.493" y="-23.3018" font-family="Times New Roman,serif" font-size="14.00"> (1)</text>
</g>
<!-- node14 -->
<g id="node15" class="node"><title>node14</title>
<ellipse fill="none" stroke="black" cx="488.422" cy="-266.502" rx="46.5926" ry="18"/>
<text text-anchor="middle" x="488.422" y="-262.802" font-family="Times New Roman,serif" font-size="14.00">(14) AND</text>
</g>
<!-- node4&#45;&gt;node14 -->
<g id="edge17" class="edge"><title>node4&#45;&gt;node14</title>
<path fill="none" stroke="black" d="M82.7496,-13.0055C163.135,-2.77699 341.793,14.7748 384.976,-24.5018 405.574,-43.2371 392.579,-122.671 402.976,-148.502 417.385,-184.301 444.787,-219.509 464.473,-242.014"/>
<polygon fill="black" stroke="black" points="462.069,-244.577 471.338,-249.709 467.292,-239.917 462.069,-244.577"/>
<text text-anchor="middle" x="262.084" y="-4.30185" font-family="Times New Roman,serif" font-size="14.00"> (1)</text>
</g>
<!-- node4&#45;&gt;node20 -->
<g id="edge28" class="edge"><title>node4&#45;&gt;node20</title>
<path fill="none" stroke="black" d="M69.1718,-32.6489C87.0518,-43.802 109.803,-61.037 122.493,-82.5018 145.696,-121.752 114.476,-146.057 140.493,-183.502 142.388,-186.231 144.657,-188.726 147.155,-190.999"/>
<polygon fill="black" stroke="black" points="145.133,-193.859 155.199,-197.166 149.392,-188.304 145.133,-193.859"/>
<text text-anchor="middle" x="112.493" y="-86.3018" font-family="Times New Roman,serif" font-size="14.00"> (0)</text>
</g>
<!-- node5 -->
<g id="node6" class="node"><title>node5</title>
<ellipse fill="none" stroke="black" cx="42.2463" cy="-574.502" rx="42.4939" ry="18"/>
<text text-anchor="middle" x="42.2463" y="-570.802" font-family="Times New Roman,serif" font-size="14.00">(5) Input</text>
</g>
<!-- node5&#45;&gt;node7 -->
<g id="edge3" class="edge"><title>node5&#45;&gt;node7</title>
<path fill="none" stroke="black" d="M61.3924,-558.11C69.8981,-549.322 79.2864,-537.788 84.4925,-525.502 115.171,-453.103 88.3179,-426.844 102.493,-349.502 108.711,-315.569 114.697,-308.108 122.493,-274.502 131.809,-234.34 116.649,-217.136 140.493,-183.502 142.704,-180.382 145.4,-177.564 148.365,-175.033"/>
<polygon fill="black" stroke="black" points="150.655,-177.696 156.695,-168.992 146.545,-172.03 150.655,-177.696"/>
<text text-anchor="middle" x="112.493" y="-353.302" font-family="Times New Roman,serif" font-size="14.00"> (0)</text>
</g>
<!-- node5&#45;&gt;node8 -->
<g id="edge6" class="edge"><title>node5&#45;&gt;node8</title>
<path fill="none" stroke="black" d="M49.9626,-592.252C58.8036,-613.188 76.3529,-647.535 102.493,-666.502 112.384,-673.679 124.437,-678.516 136.284,-681.776"/>
<polygon fill="black" stroke="black" points="135.592,-685.21 146.135,-684.16 137.239,-678.406 135.592,-685.21"/>
<text text-anchor="middle" x="112.493" y="-680.302" font-family="Times New Roman,serif" font-size="14.00"> (1)</text>
</g>
<!-- node5&#45;&gt;node18 -->
<g id="edge24" class="edge"><title>node5&#45;&gt;node18</title>
<path fill="none" stroke="black" d="M83.4721,-570.002C98.4526,-568.327 115.715,-566.396 131.765,-564.601"/>
<polygon fill="black" stroke="black" points="132.552,-568.034 142.101,-563.444 131.774,-561.078 132.552,-568.034"/>
<text text-anchor="middle" x="112.493" y="-570.302" font-family="Times New Roman,serif" font-size="14.00"> (0)</text>
</g>
<!-- node6&#45;&gt;node12 -->
<g id="edge13" class="edge"><title>node6&#45;&gt;node12</title>
<path fill="none" stroke="black" d="M228.411,-494.298C243.708,-490.863 260.283,-484.664 272.084,-473.502 289.243,-457.272 279.479,-444.605 290.084,-423.502 297.8,-408.149 308.251,-392.102 317.285,-379.251"/>
<polygon fill="black" stroke="black" points="320.281,-381.079 323.262,-370.913 314.591,-377.001 320.281,-381.079"/>
<text text-anchor="middle" x="262.084" y="-489.302" font-family="Times New Roman,serif" font-size="14.00"> (0)</text>
</g>
<!-- node23 -->
<g id="node24" class="node"><title>node23</title>
<ellipse fill="none" stroke="black" cx="337.53" cy="-710.502" rx="46.5926" ry="18"/>
<text text-anchor="middle" x="337.53" y="-706.802" font-family="Times New Roman,serif" font-size="14.00">(23) AND</text>
</g>
<!-- node6&#45;&gt;node23 -->
<g id="edge34" class="edge"><title>node6&#45;&gt;node23</title>
<path fill="none" stroke="black" d="M214.916,-512.24C222.264,-517.312 229.475,-523.754 234.084,-531.502 266.385,-585.795 214.485,-621.734 252.084,-672.502 260.707,-684.145 273.725,-692.3 286.975,-697.98"/>
<polygon fill="black" stroke="black" points="286.014,-701.361 296.604,-701.693 288.532,-694.83 286.014,-701.361"/>
<text text-anchor="middle" x="262.084" y="-692.302" font-family="Times New Roman,serif" font-size="14.00"> (0)</text>
</g>
<!-- node39 -->
<g id="node40" class="node"><title>node39</title>
<ellipse fill="none" stroke="black" cx="1219.33" cy="-459.502" rx="42.7926" ry="18"/>
<text text-anchor="middle" x="1219.33" y="-455.802" font-family="Times New Roman,serif" font-size="14.00">Output 0</text>
</g>
<!-- node6&#45;&gt;node39 -->
<g id="edge66" class="edge"><title>node6&#45;&gt;node39</title>
<path fill="none" stroke="black" d="M221.843,-508.903C241.51,-514.454 266.959,-520.704 290.084,-523.502 331.953,-528.568 345.194,-537.505 384.976,-523.502 415.093,-512.9 411.767,-491.398 440.976,-478.502 491.133,-456.357 508.039,-459.502 562.867,-459.502 562.867,-459.502 562.867,-459.502 1092.99,-459.502 1117.05,-459.502 1143.71,-459.502 1166.23,-459.502"/>
<polygon fill="black" stroke="black" points="1166.26,-463.002 1176.26,-459.502 1166.26,-456.002 1166.26,-463.002"/>
</g>
<!-- node21 -->
<g id="node22" class="node"><title>node21</title>
<ellipse fill="none" stroke="black" cx="337.53" cy="-105.502" rx="46.5926" ry="18"/>
<text text-anchor="middle" x="337.53" y="-101.802" font-family="Times New Roman,serif" font-size="14.00">(21) AND</text>
</g>
<!-- node7&#45;&gt;node21 -->
<g id="edge31" class="edge"><title>node7&#45;&gt;node21</title>
<path fill="none" stroke="black" d="M217.593,-143.848C228.351,-139.391 240.686,-134.501 252.084,-130.502 263.919,-126.35 276.84,-122.292 288.936,-118.694"/>
<polygon fill="black" stroke="black" points="290.247,-121.957 298.861,-115.788 288.28,-115.239 290.247,-121.957"/>
<text text-anchor="middle" x="262.084" y="-134.302" font-family="Times New Roman,serif" font-size="14.00"> (1)</text>
</g>
<!-- node31 -->
<g id="node32" class="node"><title>node31</title>
<ellipse fill="none" stroke="black" cx="488.422" cy="-158.502" rx="47.3916" ry="18"/>
<text text-anchor="middle" x="488.422" y="-154.802" font-family="Times New Roman,serif" font-size="14.00">(31) XOR</text>
</g>
<!-- node7&#45;&gt;node31 -->
<g id="edge50" class="edge"><title>node7&#45;&gt;node31</title>
<path fill="none" stroke="black" d="M229.567,-156.778C281.806,-157.127 372.028,-157.73 430.706,-158.123"/>
<polygon fill="black" stroke="black" points="430.896,-161.624 440.919,-158.191 430.943,-154.624 430.896,-161.624"/>
<text text-anchor="middle" x="337.53" y="-162.302" font-family="Times New Roman,serif" font-size="14.00"> (0)</text>
</g>
<!-- node13 -->
<g id="node14" class="node"><title>node13</title>
<ellipse fill="none" stroke="black" cx="337.53" cy="-596.502" rx="46.2923" ry="18"/>
<text text-anchor="middle" x="337.53" y="-592.802" font-family="Times New Roman,serif" font-size="14.00">(13) NEG</text>
</g>
<!-- node8&#45;&gt;node13 -->
<g id="edge15" class="edge"><title>node8&#45;&gt;node13</title>
<path fill="none" stroke="black" d="M206.413,-672.059C215.555,-663.084 226.32,-651.398 234.084,-639.502 245.184,-622.495 235.196,-608.782 252.084,-597.502 262.086,-590.822 274.348,-588.32 286.396,-588.005"/>
<polygon fill="black" stroke="black" points="286.341,-591.504 296.411,-588.21 286.485,-584.506 286.341,-591.504"/>
<text text-anchor="middle" x="262.084" y="-601.302" font-family="Times New Roman,serif" font-size="14.00"> (0)</text>
</g>
<!-- node8&#45;&gt;node23 -->
<g id="edge35" class="edge"><title>node8&#45;&gt;node23</title>
<path fill="none" stroke="black" d="M208.254,-704.217C220.226,-712.623 236.175,-722.123 252.084,-726.502 265.86,-730.294 281.146,-729.01 294.884,-725.918"/>
<polygon fill="black" stroke="black" points="295.776,-729.302 304.57,-723.393 294.011,-722.529 295.776,-729.302"/>
<text text-anchor="middle" x="262.084" y="-732.302" font-family="Times New Roman,serif" font-size="14.00"> (1)</text>
</g>
<!-- node30 -->
<g id="node31" class="node"><title>node30</title>
<ellipse fill="none" stroke="black" cx="941.096" cy="-750.502" rx="46.5926" ry="18"/>
<text text-anchor="middle" x="941.096" y="-746.802" font-family="Times New Roman,serif" font-size="14.00">(30) AND</text>
</g>
<!-- node8&#45;&gt;node30 -->
<g id="edge49" class="edge"><title>node8&#45;&gt;node30</title>
<path fill="none" stroke="black" d="M203.318,-705.43C228.217,-731.501 280.83,-778.502 336.53,-778.502 336.53,-778.502 336.53,-778.502 791.205,-778.502 825.909,-778.502 864.391,-771.064 893.539,-763.855"/>
<polygon fill="black" stroke="black" points="894.615,-767.193 903.438,-761.327 892.883,-760.41 894.615,-767.193"/>
<text text-anchor="middle" x="563.867" y="-782.302" font-family="Times New Roman,serif" font-size="14.00"> (1)</text>
</g>
<!-- node19 -->
<g id="node20" class="node"><title>node19</title>
<ellipse fill="none" stroke="black" cx="337.53" cy="-653.502" rx="47.3916" ry="18"/>
<text text-anchor="middle" x="337.53" y="-649.802" font-family="Times New Roman,serif" font-size="14.00">(19) XOR</text>
</g>
<!-- node9&#45;&gt;node19 -->
<g id="edge26" class="edge"><title>node9&#45;&gt;node19</title>
<path fill="none" stroke="black" d="M208.596,-628.202C220.555,-636.489 236.379,-645.877 252.084,-650.502 260.972,-653.119 270.614,-654.627 280.097,-655.415"/>
<polygon fill="black" stroke="black" points="280.096,-658.92 290.282,-656.005 280.501,-651.932 280.096,-658.92"/>
<text text-anchor="middle" x="262.084" y="-657.302" font-family="Times New Roman,serif" font-size="14.00"> (0)</text>
</g>
<!-- node15 -->
<g id="node16" class="node"><title>node15</title>
<ellipse fill="none" stroke="black" cx="488.422" cy="-505.502" rx="46.5926" ry="18"/>
<text text-anchor="middle" x="488.422" y="-501.802" font-family="Times New Roman,serif" font-size="14.00">(15) AND</text>
</g>
<!-- node10&#45;&gt;node15 -->
<g id="edge18" class="edge"><title>node10&#45;&gt;node15</title>
<path fill="none" stroke="black" d="M233.322,-425.24C273.782,-429.489 334.427,-438.083 384.976,-454.502 408.792,-462.238 433.99,-474.719 453.435,-485.397"/>
<polygon fill="black" stroke="black" points="451.777,-488.48 462.213,-490.309 455.196,-482.371 451.777,-488.48"/>
<text text-anchor="middle" x="337.53" y="-458.302" font-family="Times New Roman,serif" font-size="14.00"> (0)</text>
</g>
<!-- node24 -->
<g id="node25" class="node"><title>node24</title>
<ellipse fill="none" stroke="black" cx="337.53" cy="-496.502" rx="46.5926" ry="18"/>
<text text-anchor="middle" x="337.53" y="-492.802" font-family="Times New Roman,serif" font-size="14.00">(24) AND</text>
</g>
<!-- node10&#45;&gt;node24 -->
<g id="edge37" class="edge"><title>node10&#45;&gt;node24</title>
<path fill="none" stroke="black" d="M220.133,-434.524C235.958,-441.256 255.249,-449.859 272.084,-458.502 282.435,-463.816 293.433,-470.063 303.357,-475.941"/>
<polygon fill="black" stroke="black" points="301.745,-479.055 312.121,-481.197 305.345,-473.052 301.745,-479.055"/>
<text text-anchor="middle" x="262.084" y="-462.302" font-family="Times New Roman,serif" font-size="14.00"> (1)</text>
</g>
<!-- node32 -->
<g id="node33" class="node"><title>node32</title>
<ellipse fill="none" stroke="black" cx="337.53" cy="-51.5018" rx="47.3916" ry="18"/>
<text text-anchor="middle" x="337.53" y="-47.8018" font-family="Times New Roman,serif" font-size="14.00">(32) XOR</text>
</g>
<!-- node10&#45;&gt;node32 -->
<g id="edge52" class="edge"><title>node10&#45;&gt;node32</title>
<path fill="none" stroke="black" d="M208.244,-405.247C231.84,-385.821 268.401,-354.991 272.084,-347.502 298.526,-293.741 258.488,-129.404 290.084,-78.5018 291.855,-75.649 294.046,-73.0647 296.505,-70.7296"/>
<polygon fill="black" stroke="black" points="298.808,-73.3714 304.528,-64.4534 294.495,-67.8578 298.808,-73.3714"/>
<text text-anchor="middle" x="262.084" y="-371.302" font-family="Times New Roman,serif" font-size="14.00"> (0)</text>
</g>
<!-- node35 -->
<g id="node36" class="node"><title>node35</title>
<ellipse fill="none" stroke="black" cx="639.313" cy="-346.502" rx="47.3916" ry="18"/>
<text text-anchor="middle" x="639.313" y="-342.802" font-family="Times New Roman,serif" font-size="14.00">(35) XOR</text>
</g>
<!-- node10&#45;&gt;node35 -->
<g id="edge58" class="edge"><title>node10&#45;&gt;node35</title>
<path fill="none" stroke="black" d="M231.792,-415.617C275.105,-409.951 343.524,-401.524 402.976,-396.502 478.763,-390.1 501.427,-410.676 573.867,-387.502 586.724,-383.389 599.545,-376.065 610.326,-368.733"/>
<polygon fill="black" stroke="black" points="612.383,-371.566 618.497,-362.913 608.322,-365.864 612.383,-371.566"/>
<text text-anchor="middle" x="412.976" y="-400.302" font-family="Times New Roman,serif" font-size="14.00"> (0)</text>
</g>
<!-- node11&#45;&gt;node21 -->
<g id="edge30" class="edge"><title>node11&#45;&gt;node21</title>
<path fill="none" stroke="black" d="M232.759,-86.0112C245.494,-87.5183 259.369,-89.367 272.084,-91.5018 276.911,-92.3123 281.923,-93.2425 286.924,-94.2298"/>
<polygon fill="black" stroke="black" points="286.611,-97.7382 297.11,-96.3166 288.016,-90.8807 286.611,-97.7382"/>
<text text-anchor="middle" x="262.084" y="-95.3018" font-family="Times New Roman,serif" font-size="14.00"> (0)</text>
</g>
<!-- node11&#45;&gt;node32 -->
<g id="edge53" class="edge"><title>node11&#45;&gt;node32</title>
<path fill="none" stroke="black" d="M229.188,-73.2248C246.543,-69.7128 266.961,-65.5808 285.304,-61.8686"/>
<polygon fill="black" stroke="black" points="286.142,-65.2701 295.249,-59.856 284.753,-58.4092 286.142,-65.2701"/>
<text text-anchor="middle" x="262.084" y="-72.3018" font-family="Times New Roman,serif" font-size="14.00"> (1)</text>
</g>
<!-- node12&#45;&gt;node14 -->
<g id="edge16" class="edge"><title>node12&#45;&gt;node14</title>
<path fill="none" stroke="black" d="M364.125,-338.546C388.627,-324.229 425.769,-302.527 452.884,-286.683"/>
<polygon fill="black" stroke="black" points="454.794,-289.621 461.662,-281.554 451.262,-283.577 454.794,-289.621"/>
<text text-anchor="middle" x="412.976" y="-319.302" font-family="Times New Roman,serif" font-size="14.00"> (0)</text>
</g>
<!-- node13&#45;&gt;node15 -->
<g id="edge19" class="edge"><title>node13&#45;&gt;node15</title>
<path fill="none" stroke="black" d="M363.116,-581.475C387.86,-566.352 426.205,-542.916 453.763,-526.073"/>
<polygon fill="black" stroke="black" points="455.594,-529.057 462.301,-520.855 451.943,-523.084 455.594,-529.057"/>
<text text-anchor="middle" x="412.976" y="-559.302" font-family="Times New Roman,serif" font-size="14.00"> (1)</text>
</g>
<!-- node17 -->
<g id="node18" class="node"><title>node17</title>
<ellipse fill="none" stroke="black" cx="639.313" cy="-514.502" rx="40.8928" ry="18"/>
<text text-anchor="middle" x="639.313" y="-510.802" font-family="Times New Roman,serif" font-size="14.00">(17) OR</text>
</g>
<!-- node13&#45;&gt;node17 -->
<g id="edge22" class="edge"><title>node13&#45;&gt;node17</title>
<path fill="none" stroke="black" d="M376.194,-606.404C419.348,-615.351 490.001,-622.373 535.867,-587.502 556.342,-571.935 534.74,-549.697 553.867,-532.502 563.367,-523.962 575.9,-519.112 588.394,-516.444"/>
<polygon fill="black" stroke="black" points="589.08,-519.877 598.347,-514.742 587.9,-512.977 589.08,-519.877"/>
<text text-anchor="middle" x="488.422" y="-617.302" font-family="Times New Roman,serif" font-size="14.00"> (0)</text>
</g>
<!-- node14&#45;&gt;node16 -->
<g id="edge20" class="edge"><title>node14&#45;&gt;node16</title>
<path fill="none" stroke="black" d="M534.498,-262.869C549.804,-261.635 567.083,-260.243 583.089,-258.953"/>
<polygon fill="black" stroke="black" points="583.703,-262.415 593.39,-258.122 583.141,-255.437 583.703,-262.415"/>
<text text-anchor="middle" x="563.867" y="-265.302" font-family="Times New Roman,serif" font-size="14.00"> (0)</text>
</g>
<!-- node14&#45;&gt;node17 -->
<g id="edge23" class="edge"><title>node14&#45;&gt;node17</title>
<path fill="none" stroke="black" d="M515.374,-281.443C522.783,-286.701 530.337,-293.158 535.867,-300.502 549.824,-319.035 544.565,-328.248 553.867,-349.502 575.826,-399.676 605.913,-456.067 623.614,-488.23"/>
<polygon fill="black" stroke="black" points="620.571,-489.961 628.474,-497.018 626.697,-486.573 620.571,-489.961"/>
<text text-anchor="middle" x="563.867" y="-394.302" font-family="Times New Roman,serif" font-size="14.00"> (1)</text>
</g>
<!-- node27 -->
<g id="node28" class="node"><title>node27</title>
<ellipse fill="none" stroke="black" cx="639.313" cy="-577.502" rx="40.8928" ry="18"/>
<text text-anchor="middle" x="639.313" y="-573.802" font-family="Times New Roman,serif" font-size="14.00">(27) OR</text>
</g>
<!-- node15&#45;&gt;node27 -->
<g id="edge42" class="edge"><title>node15&#45;&gt;node27</title>
<path fill="none" stroke="black" d="M518.483,-519.555C542.301,-531.073 576.141,-547.437 601.789,-559.84"/>
<polygon fill="black" stroke="black" points="600.307,-563.011 610.833,-564.213 603.354,-556.709 600.307,-563.011"/>
<text text-anchor="middle" x="563.867" y="-549.302" font-family="Times New Roman,serif" font-size="14.00"> (0)</text>
</g>
<!-- node29 -->
<g id="node30" class="node"><title>node29</title>
<ellipse fill="none" stroke="black" cx="790.205" cy="-348.502" rx="47.3916" ry="18"/>
<text text-anchor="middle" x="790.205" y="-344.802" font-family="Times New Roman,serif" font-size="14.00">(29) XOR</text>
</g>
<!-- node16&#45;&gt;node29 -->
<g id="edge46" class="edge"><title>node16&#45;&gt;node29</title>
<path fill="none" stroke="black" d="M686.212,-252.715C699.338,-253.927 713.205,-256.976 724.759,-263.502 748.039,-276.65 765.558,-302.003 776.41,-321.612"/>
<polygon fill="black" stroke="black" points="773.44,-323.483 781.198,-330.699 779.633,-320.22 773.44,-323.483"/>
<text text-anchor="middle" x="714.759" y="-267.302" font-family="Times New Roman,serif" font-size="14.00"> (0)</text>
</g>
<!-- node28 -->
<g id="node29" class="node"><title>node28</title>
<ellipse fill="none" stroke="black" cx="790.205" cy="-540.502" rx="47.3916" ry="18"/>
<text text-anchor="middle" x="790.205" y="-536.802" font-family="Times New Roman,serif" font-size="14.00">(28) XOR</text>
</g>
<!-- node17&#45;&gt;node28 -->
<g id="edge44" class="edge"><title>node17&#45;&gt;node28</title>
<path fill="none" stroke="black" d="M677.885,-521.063C695.785,-524.189 717.49,-527.979 736.964,-531.379"/>
<polygon fill="black" stroke="black" points="736.459,-534.844 746.912,-533.116 737.663,-527.948 736.459,-534.844"/>
<text text-anchor="middle" x="714.759" y="-532.302" font-family="Times New Roman,serif" font-size="14.00"> (0)</text>
</g>
<!-- node18&#45;&gt;node19 -->
<g id="edge27" class="edge"><title>node18&#45;&gt;node19</title>
<path fill="none" stroke="black" d="M216.815,-572.626C222.883,-576.343 228.989,-580.681 234.084,-585.502 244.56,-595.414 241.217,-603.02 252.084,-612.502 263.758,-622.687 278.407,-630.962 292.211,-637.34"/>
<polygon fill="black" stroke="black" points="291.022,-640.64 301.585,-641.453 293.834,-634.23 291.022,-640.64"/>
<text text-anchor="middle" x="262.084" y="-629.302" font-family="Times New Roman,serif" font-size="14.00"> (1)</text>
</g>
<!-- node18&#45;&gt;node24 -->
<g id="edge36" class="edge"><title>node18&#45;&gt;node24</title>
<path fill="none" stroke="black" d="M219.727,-545.353C241.837,-536.106 271.635,-523.643 295.599,-513.621"/>
<polygon fill="black" stroke="black" points="297.262,-516.719 305.137,-509.631 294.561,-510.261 297.262,-516.719"/>
<text text-anchor="middle" x="262.084" y="-534.302" font-family="Times New Roman,serif" font-size="14.00"> (0)</text>
</g>
<!-- node19&#45;&gt;node29 -->
<g id="edge47" class="edge"><title>node19&#45;&gt;node29</title>
<path fill="none" stroke="black" d="M383.132,-658.709C453.74,-664.605 592.86,-666.443 686.759,-604.502 726.623,-578.205 766.577,-437.397 782.267,-376.546"/>
<polygon fill="black" stroke="black" points="785.751,-377.046 784.825,-366.492 778.967,-375.32 785.751,-377.046"/>
<text text-anchor="middle" x="563.867" y="-656.302" font-family="Times New Roman,serif" font-size="14.00"> (1)</text>
</g>
<!-- node20&#45;&gt;node22 -->
<g id="edge33" class="edge"><title>node20&#45;&gt;node22</title>
<path fill="none" stroke="black" d="M222.671,-222.33C244.277,-229.764 272.28,-239.398 295.108,-247.251"/>
<polygon fill="black" stroke="black" points="294.27,-250.664 304.865,-250.608 296.547,-244.045 294.27,-250.664"/>
<text text-anchor="middle" x="262.084" y="-243.302" font-family="Times New Roman,serif" font-size="14.00"> (1)</text>
</g>
<!-- node25 -->
<g id="node26" class="node"><title>node25</title>
<ellipse fill="none" stroke="black" cx="488.422" cy="-327.502" rx="47.3916" ry="18"/>
<text text-anchor="middle" x="488.422" y="-323.802" font-family="Times New Roman,serif" font-size="14.00">(25) XOR</text>
</g>
<!-- node20&#45;&gt;node25 -->
<g id="edge39" class="edge"><title>node20&#45;&gt;node25</title>
<path fill="none" stroke="black" d="M229.449,-202.475C271.263,-196.494 336.58,-193.298 384.976,-219.502 397.016,-226.021 394.779,-233.535 402.976,-244.502 419.474,-266.577 421.22,-274.287 440.976,-293.502 445.381,-297.787 450.351,-301.975 455.359,-305.866"/>
<polygon fill="black" stroke="black" points="453.619,-308.935 463.73,-312.098 457.799,-303.319 453.619,-308.935"/>
<text text-anchor="middle" x="337.53" y="-223.302" font-family="Times New Roman,serif" font-size="14.00"> (1)</text>
</g>
<!-- node21&#45;&gt;node26 -->
<g id="edge40" class="edge"><title>node21&#45;&gt;node26</title>
<path fill="none" stroke="black" d="M377.169,-95.782C385.621,-94.0286 394.557,-92.4562 402.976,-91.5018 414.018,-90.2501 425.925,-89.6519 437.215,-89.43"/>
<polygon fill="black" stroke="black" points="437.406,-92.9283 447.369,-89.3241 437.333,-85.9287 437.406,-92.9283"/>
<text text-anchor="middle" x="412.976" y="-95.3018" font-family="Times New Roman,serif" font-size="14.00"> (0)</text>
</g>
<!-- node21&#45;&gt;node31 -->
<g id="edge51" class="edge"><title>node21&#45;&gt;node31</title>
<path fill="none" stroke="black" d="M377.162,-115.206C391.678,-119.185 408.228,-124.121 422.976,-129.502 431.601,-132.649 440.691,-136.435 449.237,-140.216"/>
<polygon fill="black" stroke="black" points="448.046,-143.519 458.6,-144.45 450.93,-137.141 448.046,-143.519"/>
<text text-anchor="middle" x="412.976" y="-133.302" font-family="Times New Roman,serif" font-size="14.00"> (1)</text>
</g>
<!-- node36 -->
<g id="node37" class="node"><title>node36</title>
<ellipse fill="none" stroke="black" cx="790.205" cy="-231.502" rx="46.5926" ry="18"/>
<text text-anchor="middle" x="790.205" y="-227.802" font-family="Times New Roman,serif" font-size="14.00">(36) AND</text>
</g>
<!-- node22&#45;&gt;node36 -->
<g id="edge60" class="edge"><title>node22&#45;&gt;node36</title>
<path fill="none" stroke="black" d="M373.408,-252.814C393.125,-248.205 418.297,-242.824 440.976,-239.502 549.188,-223.651 577.413,-225.368 686.759,-227.502 701.869,-227.797 718.225,-228.336 733.339,-228.925"/>
<polygon fill="black" stroke="black" points="733.44,-232.432 743.573,-229.339 733.722,-225.438 733.44,-232.432"/>
<text text-anchor="middle" x="563.867" y="-231.302" font-family="Times New Roman,serif" font-size="14.00"> (0)</text>
</g>
<!-- node38 -->
<g id="node39" class="node"><title>node38</title>
<ellipse fill="none" stroke="black" cx="1091.99" cy="-404.502" rx="47.3916" ry="18"/>
<text text-anchor="middle" x="1091.99" y="-400.802" font-family="Times New Roman,serif" font-size="14.00">(38) XOR</text>
</g>
<!-- node23&#45;&gt;node38 -->
<g id="edge64" class="edge"><title>node23&#45;&gt;node38</title>
<path fill="none" stroke="black" d="M382.21,-704.865C429.691,-698.366 507.649,-686.609 573.867,-671.502 624.832,-659.874 637.875,-657.019 686.759,-638.502 836.984,-581.597 996.776,-472.634 1061.37,-426.261"/>
<polygon fill="black" stroke="black" points="1063.42,-429.094 1069.48,-420.404 1059.32,-423.418 1063.42,-429.094"/>
<text text-anchor="middle" x="714.759" y="-634.302" font-family="Times New Roman,serif" font-size="14.00"> (0)</text>
</g>
<!-- node24&#45;&gt;node25 -->
<g id="edge38" class="edge"><title>node24&#45;&gt;node25</title>
<path fill="none" stroke="black" d="M363.921,-481.438C371.145,-476.529 378.737,-470.726 384.976,-464.502 394.925,-454.575 394.352,-449.599 402.976,-438.502 411.288,-427.806 414.522,-426.087 422.976,-415.502 439.326,-395.029 456.828,-370.981 469.46,-353.202"/>
<polygon fill="black" stroke="black" points="472.329,-355.207 475.244,-345.021 466.613,-351.166 472.329,-355.207"/>
<text text-anchor="middle" x="412.976" y="-442.302" font-family="Times New Roman,serif" font-size="14.00"> (0)</text>
</g>
<!-- node24&#45;&gt;node27 -->
<g id="edge43" class="edge"><title>node24&#45;&gt;node27</title>
<path fill="none" stroke="black" d="M355.298,-513.167C367.477,-524.223 384.925,-538.027 402.976,-545.502 435.59,-559.008 529.851,-568.762 588.707,-573.741"/>
<polygon fill="black" stroke="black" points="588.65,-577.248 598.905,-574.586 589.228,-570.272 588.65,-577.248"/>
<text text-anchor="middle" x="488.422" y="-572.302" font-family="Times New Roman,serif" font-size="14.00"> (1)</text>
</g>
<!-- node33 -->
<g id="node34" class="node"><title>node33</title>
<ellipse fill="none" stroke="black" cx="941.096" cy="-300.502" rx="46.5926" ry="18"/>
<text text-anchor="middle" x="941.096" y="-296.802" font-family="Times New Roman,serif" font-size="14.00">(33) AND</text>
</g>
<!-- node25&#45;&gt;node33 -->
<g id="edge55" class="edge"><title>node25&#45;&gt;node33</title>
<path fill="none" stroke="black" d="M532.58,-320.481C575.949,-313.807 644.78,-304.247 704.759,-300.502 766.113,-296.67 836.64,-297.343 884.364,-298.548"/>
<polygon fill="black" stroke="black" points="884.398,-302.05 894.489,-298.821 884.586,-295.053 884.398,-302.05"/>
<text text-anchor="middle" x="714.759" y="-304.302" font-family="Times New Roman,serif" font-size="14.00"> (1)</text>
</g>
<!-- node25&#45;&gt;node35 -->
<g id="edge59" class="edge"><title>node25&#45;&gt;node35</title>
<path fill="none" stroke="black" d="M535.532,-330.473C548.001,-331.508 561.474,-332.839 573.867,-334.502 578.236,-335.088 582.759,-335.772 587.288,-336.51"/>
<polygon fill="black" stroke="black" points="586.711,-339.962 597.157,-338.196 587.89,-333.062 586.711,-339.962"/>
<text text-anchor="middle" x="563.867" y="-338.302" font-family="Times New Roman,serif" font-size="14.00"> (1)</text>
</g>
<!-- node34 -->
<g id="node35" class="node"><title>node34</title>
<ellipse fill="none" stroke="black" cx="1091.99" cy="-284.502" rx="47.3916" ry="18"/>
<text text-anchor="middle" x="1091.99" y="-280.802" font-family="Times New Roman,serif" font-size="14.00">(34) XOR</text>
</g>
<!-- node26&#45;&gt;node34 -->
<g id="edge57" class="edge"><title>node26&#45;&gt;node34</title>
<path fill="none" stroke="black" d="M525.005,-82.2473C555.033,-76.0047 599.249,-68.5018 638.313,-68.5018 638.313,-68.5018 638.313,-68.5018 942.096,-68.5018 1032.35,-68.5018 1072.09,-197.931 1085.44,-256.411"/>
<polygon fill="black" stroke="black" points="1082.08,-257.433 1087.64,-266.457 1088.92,-255.941 1082.08,-257.433"/>
<text text-anchor="middle" x="790.205" y="-72.3018" font-family="Times New Roman,serif" font-size="14.00"> (1)</text>
</g>
<!-- node27&#45;&gt;node28 -->
<g id="edge45" class="edge"><title>node27&#45;&gt;node28</title>
<path fill="none" stroke="black" d="M675.222,-568.827C694.588,-564.014 718.984,-557.952 740.231,-552.672"/>
<polygon fill="black" stroke="black" points="741.196,-556.039 750.057,-550.23 739.508,-549.245 741.196,-556.039"/>
<text text-anchor="middle" x="714.759" y="-564.302" font-family="Times New Roman,serif" font-size="14.00"> (1)</text>
</g>
<!-- node28&#45;&gt;node30 -->
<g id="edge48" class="edge"><title>node28&#45;&gt;node30</title>
<path fill="none" stroke="black" d="M803.643,-558.045C829.929,-595.119 891.223,-681.57 921.913,-724.855"/>
<polygon fill="black" stroke="black" points="919.159,-727.023 927.798,-733.156 924.869,-722.974 919.159,-727.023"/>
<text text-anchor="middle" x="865.651" y="-661.302" font-family="Times New Roman,serif" font-size="14.00"> (0)</text>
</g>
<!-- node28&#45;&gt;node33 -->
<g id="edge54" class="edge"><title>node28&#45;&gt;node33</title>
<path fill="none" stroke="black" d="M802.153,-522.854C828.074,-481.071 893.307,-375.921 923.85,-326.69"/>
<polygon fill="black" stroke="black" points="926.834,-328.518 929.132,-318.175 920.886,-324.828 926.834,-328.518"/>
<text text-anchor="middle" x="865.651" y="-438.302" font-family="Times New Roman,serif" font-size="14.00"> (0)</text>
</g>
<!-- node41 -->
<g id="node42" class="node"><title>node41</title>
<ellipse fill="none" stroke="black" cx="1219.33" cy="-348.502" rx="42.7926" ry="18"/>
<text text-anchor="middle" x="1219.33" y="-344.802" font-family="Times New Roman,serif" font-size="14.00">Output 2</text>
</g>
<!-- node29&#45;&gt;node41 -->
<g id="edge68" class="edge"><title>node29&#45;&gt;node41</title>
<path fill="none" stroke="black" d="M837.728,-348.502C918.052,-348.502 1082.19,-348.502 1166.23,-348.502"/>
<polygon fill="black" stroke="black" points="1166.31,-352.002 1176.31,-348.502 1166.31,-345.002 1166.31,-352.002"/>
</g>
<!-- node44 -->
<g id="node45" class="node"><title>node44</title>
<ellipse fill="none" stroke="black" cx="1219.33" cy="-750.502" rx="42.7926" ry="18"/>
<text text-anchor="middle" x="1219.33" y="-746.802" font-family="Times New Roman,serif" font-size="14.00">Output 5</text>
</g>
<!-- node30&#45;&gt;node44 -->
<g id="edge71" class="edge"><title>node30&#45;&gt;node44</title>
<path fill="none" stroke="black" d="M988.021,-750.502C1037.11,-750.502 1114.78,-750.502 1166.15,-750.502"/>
<polygon fill="black" stroke="black" points="1166.37,-754.002 1176.37,-750.502 1166.37,-747.002 1166.37,-754.002"/>
</g>
<!-- node37 -->
<g id="node38" class="node"><title>node37</title>
<ellipse fill="none" stroke="black" cx="941.096" cy="-231.502" rx="47.3916" ry="18"/>
<text text-anchor="middle" x="941.096" y="-227.802" font-family="Times New Roman,serif" font-size="14.00">(37) XOR</text>
</g>
<!-- node31&#45;&gt;node37 -->
<g id="edge62" class="edge"><title>node31&#45;&gt;node37</title>
<path fill="none" stroke="black" d="M534.796,-162.647C601.546,-169.163 729.954,-183.285 837.651,-204.502 855.904,-208.098 875.726,-213.067 893.028,-217.763"/>
<polygon fill="black" stroke="black" points="892.322,-221.199 902.893,-220.484 894.183,-214.451 892.322,-221.199"/>
<text text-anchor="middle" x="714.759" y="-189.302" font-family="Times New Roman,serif" font-size="14.00"> (0)</text>
</g>
<!-- node40 -->
<g id="node41" class="node"><title>node40</title>
<ellipse fill="none" stroke="black" cx="1219.33" cy="-22.5018" rx="42.7926" ry="18"/>
<text text-anchor="middle" x="1219.33" y="-18.8018" font-family="Times New Roman,serif" font-size="14.00">Output 1</text>
</g>
<!-- node32&#45;&gt;node40 -->
<g id="edge67" class="edge"><title>node32&#45;&gt;node40</title>
<path fill="none" stroke="black" d="M374.859,-40.3726C404.772,-32.1945 448.446,-22.5018 487.422,-22.5018 487.422,-22.5018 487.422,-22.5018 1092.99,-22.5018 1117.05,-22.5018 1143.71,-22.5018 1166.23,-22.5018"/>
<polygon fill="black" stroke="black" points="1166.26,-26.0019 1176.26,-22.5018 1166.26,-19.0019 1166.26,-26.0019"/>
</g>
<!-- node33&#45;&gt;node34 -->
<g id="edge56" class="edge"><title>node33&#45;&gt;node34</title>
<path fill="none" stroke="black" d="M986.366,-295.745C1001.98,-294.066 1019.73,-292.159 1036.12,-290.398"/>
<polygon fill="black" stroke="black" points="1036.55,-293.872 1046.12,-289.324 1035.8,-286.912 1036.55,-293.872"/>
<text text-anchor="middle" x="1016.54" y="-297.302" font-family="Times New Roman,serif" font-size="14.00"> (0)</text>
</g>
<!-- node43 -->
<g id="node44" class="node"><title>node43</title>
<ellipse fill="none" stroke="black" cx="1219.33" cy="-284.502" rx="42.7926" ry="18"/>
<text text-anchor="middle" x="1219.33" y="-280.802" font-family="Times New Roman,serif" font-size="14.00">Output 4</text>
</g>
<!-- node34&#45;&gt;node43 -->
<g id="edge70" class="edge"><title>node34&#45;&gt;node43</title>
<path fill="none" stroke="black" d="M1139.66,-284.502C1148.27,-284.502 1157.3,-284.502 1166.06,-284.502"/>
<polygon fill="black" stroke="black" points="1166.17,-288.002 1176.17,-284.502 1166.17,-281.002 1166.17,-288.002"/>
</g>
<!-- node35&#45;&gt;node36 -->
<g id="edge61" class="edge"><title>node35&#45;&gt;node36</title>
<path fill="none" stroke="black" d="M682.255,-338.662C696.651,-334.583 712.268,-328.496 724.759,-319.502 746.913,-303.549 764.554,-277.655 775.738,-258.077"/>
<polygon fill="black" stroke="black" points="778.805,-259.763 780.558,-249.314 772.672,-256.389 778.805,-259.763"/>
<text text-anchor="middle" x="714.759" y="-334.302" font-family="Times New Roman,serif" font-size="14.00"> (1)</text>
</g>
<!-- node36&#45;&gt;node37 -->
<g id="edge63" class="edge"><title>node36&#45;&gt;node37</title>
<path fill="none" stroke="black" d="M837.092,-231.502C851.671,-231.502 867.972,-231.502 883.229,-231.502"/>
<polygon fill="black" stroke="black" points="883.591,-235.002 893.591,-231.502 883.591,-228.002 883.591,-235.002"/>
<text text-anchor="middle" x="865.651" y="-235.302" font-family="Times New Roman,serif" font-size="14.00"> (1)</text>
</g>
<!-- node37&#45;&gt;node38 -->
<g id="edge65" class="edge"><title>node37&#45;&gt;node38</title>
<path fill="none" stroke="black" d="M977.883,-243.107C994.334,-249.878 1013.13,-259.826 1026.54,-273.502 1039.63,-286.842 1036.37,-294.697 1044.54,-311.502 1055.43,-333.89 1068.07,-359.156 1077.42,-377.696"/>
<polygon fill="black" stroke="black" points="1074.34,-379.377 1081.97,-386.728 1080.59,-376.223 1074.34,-379.377"/>
<text text-anchor="middle" x="1016.54" y="-277.302" font-family="Times New Roman,serif" font-size="14.00"> (1)</text>
</g>
<!-- node42 -->
<g id="node43" class="node"><title>node42</title>
<ellipse fill="none" stroke="black" cx="1219.33" cy="-404.502" rx="42.7926" ry="18"/>
<text text-anchor="middle" x="1219.33" y="-400.802" font-family="Times New Roman,serif" font-size="14.00">Output 3</text>
</g>
<!-- node38&#45;&gt;node42 -->
<g id="edge69" class="edge"><title>node38&#45;&gt;node42</title>
<path fill="none" stroke="black" d="M1139.66,-404.502C1148.27,-404.502 1157.3,-404.502 1166.06,-404.502"/>
<polygon fill="black" stroke="black" points="1166.17,-408.002 1176.17,-404.502 1166.17,-401.002 1166.17,-408.002"/>
</g>
</g>
</svg>
