<?xml version="1.0" encoding="UTF-8" standalone="no"?>
<!DOCTYPE svg PUBLIC "-//W3C//DTD SVG 1.1//EN"
 "http://www.w3.org/Graphics/SVG/1.1/DTD/svg11.dtd">
<!-- Generated by graphviz version 2.38.0 (20140413.2041)
 -->
<!-- Title: NeuralNetwork Pages: 1 -->
<svg width="288pt" height="111pt"
 viewBox="0.00 0.00 288.00 111.06" xmlns="http://www.w3.org/2000/svg" xmlns:xlink="http://www.w3.org/1999/xlink">
<g id="graph0" class="graph" transform="scale(0.14907 0.14907) rotate(0) translate(4 741)">
<title>NeuralNetwork</title>
<polygon fill="white" stroke="none" points="-4,4 -4,-741 1927.98,-741 1927.98,4 -4,4"/>
<!-- node0 -->
<g id="node1" class="node"><title>node0</title>
<ellipse fill="none" stroke="black" cx="42.2463" cy="-409" rx="42.4939" ry="18"/>
<text text-anchor="middle" x="42.2463" y="-405.3" font-family="Times New Roman,serif" font-size="14.00">(0) Input</text>
</g>
<!-- node6 -->
<g id="node7" class="node"><title>node6</title>
<ellipse fill="none" stroke="black" cx="187.288" cy="-437" rx="42.4939" ry="18"/>
<text text-anchor="middle" x="187.288" y="-433.3" font-family="Times New Roman,serif" font-size="14.00">(6) AND</text>
</g>
<!-- node0&#45;&gt;node6 -->
<g id="edge1" class="edge"><title>node0&#45;&gt;node6</title>
<path fill="none" stroke="black" d="M84.2985,-406.511C96.6819,-406.564 110.238,-407.433 122.493,-410 131.915,-411.974 141.682,-415.353 150.658,-419.066"/>
<polygon fill="black" stroke="black" points="149.468,-422.366 160.032,-423.175 152.278,-415.955 149.468,-422.366"/>
<text text-anchor="middle" x="112.493" y="-413.8" font-family="Times New Roman,serif" font-size="14.00"> (0)</text>
</g>
<!-- node8 -->
<g id="node9" class="node"><title>node8</title>
<ellipse fill="none" stroke="black" cx="187.288" cy="-553" rx="42.4939" ry="18"/>
<text text-anchor="middle" x="187.288" y="-549.3" font-family="Times New Roman,serif" font-size="14.00">(8) AND</text>
</g>
<!-- node0&#45;&gt;node8 -->
<g id="edge6" class="edge"><title>node0&#45;&gt;node8</title>
<path fill="none" stroke="black" d="M77.9325,-418.97C92.8856,-424.539 109.812,-432.684 122.493,-444 136.015,-456.067 158.676,-498.002 173.034,-526.198"/>
<polygon fill="black" stroke="black" points="169.931,-527.819 177.56,-535.171 176.181,-524.666 169.931,-527.819"/>
<text text-anchor="middle" x="112.493" y="-447.8" font-family="Times New Roman,serif" font-size="14.00"> (1)</text>
</g>
<!-- node13 -->
<g id="node14" class="node"><title>node13</title>
<ellipse fill="none" stroke="black" cx="187.288" cy="-18" rx="46.5926" ry="18"/>
<text text-anchor="middle" x="187.288" y="-14.3" font-family="Times New Roman,serif" font-size="14.00">(13) AND</text>
</g>
<!-- node0&#45;&gt;node13 -->
<g id="edge15" class="edge"><title>node0&#45;&gt;node13</title>
<path fill="none" stroke="black" d="M47.325,-391.058C54.7694,-360.868 72.6069,-298.822 102.493,-254 109.294,-243.799 117.115,-246.018 122.493,-235 158.723,-160.758 98.805,-121.321 140.493,-50 142.934,-45.8236 146.162,-42.0599 149.778,-38.7066"/>
<polygon fill="black" stroke="black" points="152.02,-41.3951 157.617,-32.3993 147.631,-35.9413 152.02,-41.3951"/>
<text text-anchor="middle" x="112.493" y="-257.8" font-family="Times New Roman,serif" font-size="14.00"> (0)</text>
</g>
<!-- node1 -->
<g id="node2" class="node"><title>node1</title>
<ellipse fill="none" stroke="black" cx="42.2463" cy="-219" rx="42.4939" ry="18"/>
<text text-anchor="middle" x="42.2463" y="-215.3" font-family="Times New Roman,serif" font-size="14.00">(1) Input</text>
</g>
<!-- node7 -->
<g id="node8" class="node"><title>node7</title>
<ellipse fill="none" stroke="black" cx="187.288" cy="-219" rx="42.4939" ry="18"/>
<text text-anchor="middle" x="187.288" y="-215.3" font-family="Times New Roman,serif" font-size="14.00">(7) AND</text>
</g>
<!-- node1&#45;&gt;node7 -->
<g id="edge4" class="edge"><title>node1&#45;&gt;node7</title>
<path fill="none" stroke="black" d="M84.62,-219C100.336,-219 118.429,-219 134.955,-219"/>
<polygon fill="black" stroke="black" points="135.008,-222.5 145.008,-219 135.008,-215.5 135.008,-222.5"/>
<text text-anchor="middle" x="112.493" y="-222.8" font-family="Times New Roman,serif" font-size="14.00"> (1)</text>
</g>
<!-- node10 -->
<g id="node11" class="node"><title>node10</title>
<ellipse fill="none" stroke="black" cx="187.288" cy="-143" rx="46.5926" ry="18"/>
<text text-anchor="middle" x="187.288" y="-139.3" font-family="Times New Roman,serif" font-size="14.00">(10) AND</text>
</g>
<!-- node1&#45;&gt;node10 -->
<g id="edge9" class="edge"><title>node1&#45;&gt;node10</title>
<path fill="none" stroke="black" d="M51.4128,-201.223C60.8392,-183.078 78.2218,-155.937 102.493,-144 111.891,-139.378 122.631,-137.276 133.214,-136.643"/>
<polygon fill="black" stroke="black" points="133.332,-140.141 143.263,-136.451 133.198,-133.142 133.332,-140.141"/>
<text text-anchor="middle" x="112.493" y="-147.8" font-family="Times New Roman,serif" font-size="14.00"> (0)</text>
</g>
<!-- node12 -->
<g id="node13" class="node"><title>node12</title>
<ellipse fill="none" stroke="black" cx="187.288" cy="-301" rx="46.5926" ry="18"/>
<text text-anchor="middle" x="187.288" y="-297.3" font-family="Times New Roman,serif" font-size="14.00">(12) AND</text>
</g>
<!-- node1&#45;&gt;node12 -->
<g id="edge13" class="edge"><title>node1&#45;&gt;node12</title>
<path fill="none" stroke="black" d="M48.931,-237.162C56.9224,-259.202 73.8062,-295.353 102.493,-311 114.913,-317.774 129.885,-318.015 143.718,-315.688"/>
<polygon fill="black" stroke="black" points="144.485,-319.103 153.536,-313.596 143.026,-312.257 144.485,-319.103"/>
<text text-anchor="middle" x="112.493" y="-320.8" font-family="Times New Roman,serif" font-size="14.00"> (0)</text>
</g>
<!-- node2 -->
<g id="node3" class="node"><title>node2</title>
<ellipse fill="none" stroke="black" cx="42.2463" cy="-675" rx="42.4939" ry="18"/>
<text text-anchor="middle" x="42.2463" y="-671.3" font-family="Times New Roman,serif" font-size="14.00">(2) Input</text>
</g>
<!-- node9 -->
<g id="node10" class="node"><title>node9</title>
<ellipse fill="none" stroke="black" cx="187.288" cy="-719" rx="42.4939" ry="18"/>
<text text-anchor="middle" x="187.288" y="-715.3" font-family="Times New Roman,serif" font-size="14.00">(9) AND</text>
</g>
<!-- node2&#45;&gt;node9 -->
<g id="edge8" class="edge"><title>node2&#45;&gt;node9</title>
<path fill="none" stroke="black" d="M77.1452,-685.427C96.8298,-691.482 121.83,-699.172 142.935,-705.664"/>
<polygon fill="black" stroke="black" points="142.046,-709.053 152.633,-708.647 144.104,-702.362 142.046,-709.053"/>
<text text-anchor="middle" x="112.493" y="-701.8" font-family="Times New Roman,serif" font-size="14.00"> (1)</text>
</g>
<!-- node11 -->
<g id="node12" class="node"><title>node11</title>
<ellipse fill="none" stroke="black" cx="187.288" cy="-355" rx="46.5926" ry="18"/>
<text text-anchor="middle" x="187.288" y="-351.3" font-family="Times New Roman,serif" font-size="14.00">(11) AND</text>
</g>
<!-- node2&#45;&gt;node11 -->
<g id="edge12" class="edge"><title>node2&#45;&gt;node11</title>
<path fill="none" stroke="black" d="M67.0935,-660.079C87.9763,-646.483 115.978,-626.779 122.493,-615 166.755,-534.962 105.639,-494.56 140.493,-410 145.18,-398.627 153.091,-387.825 161.031,-378.853"/>
<polygon fill="black" stroke="black" points="163.661,-381.166 167.936,-371.472 158.549,-376.384 163.661,-381.166"/>
<text text-anchor="middle" x="112.493" y="-637.8" font-family="Times New Roman,serif" font-size="14.00"> (1)</text>
</g>
<!-- node18 -->
<g id="node19" class="node"><title>node18</title>
<ellipse fill="none" stroke="black" cx="298.88" cy="-666" rx="46.5926" ry="18"/>
<text text-anchor="middle" x="298.88" y="-662.3" font-family="Times New Roman,serif" font-size="14.00">(18) AND</text>
</g>
<!-- node2&#45;&gt;node18 -->
<g id="edge25" class="edge"><title>node2&#45;&gt;node18</title>
<path fill="none" stroke="black" d="M84.4406,-673.544C127.19,-672.033 194.327,-669.66 241.876,-667.979"/>
<polygon fill="black" stroke="black" points="242.138,-671.472 252.008,-667.621 241.891,-664.477 242.138,-671.472"/>
<text text-anchor="middle" x="112.493" y="-675.8" font-family="Times New Roman,serif" font-size="14.00"> (0)</text>
</g>
<!-- node3 -->
<g id="node4" class="node"><title>node3</title>
<ellipse fill="none" stroke="black" cx="42.2463" cy="-485" rx="42.4939" ry="18"/>
<text text-anchor="middle" x="42.2463" y="-481.3" font-family="Times New Roman,serif" font-size="14.00">(3) Input</text>
</g>
<!-- node3&#45;&gt;node6 -->
<g id="edge2" class="edge"><title>node3&#45;&gt;node6</title>
<path fill="none" stroke="black" d="M79.0195,-476.015C92.7252,-472.327 108.439,-467.796 122.493,-463 130.709,-460.196 139.396,-456.891 147.626,-453.595"/>
<polygon fill="black" stroke="black" points="149.084,-456.78 157.02,-449.761 146.439,-450.299 149.084,-456.78"/>
<text text-anchor="middle" x="112.493" y="-473.8" font-family="Times New Roman,serif" font-size="14.00"> (1)</text>
</g>
<!-- node3&#45;&gt;node9 -->
<g id="edge7" class="edge"><title>node3&#45;&gt;node9</title>
<path fill="none" stroke="black" d="M71.9793,-497.94C88.7743,-506.8 109.214,-520.018 122.493,-537 127.426,-543.31 160.639,-641.907 177.091,-691.276"/>
<polygon fill="black" stroke="black" points="173.852,-692.63 180.331,-701.013 180.494,-690.419 173.852,-692.63"/>
<text text-anchor="middle" x="112.493" y="-540.8" font-family="Times New Roman,serif" font-size="14.00"> (0)</text>
</g>
<!-- node3&#45;&gt;node10 -->
<g id="edge10" class="edge"><title>node3&#45;&gt;node10</title>
<path fill="none" stroke="black" d="M61.276,-468.558C69.752,-459.758 79.1489,-448.227 84.4925,-436 110.322,-376.9 73.4149,-349.572 102.493,-292 108.02,-281.056 116.455,-283.671 122.493,-273 140.652,-240.902 123.295,-224.623 140.493,-192 145.379,-182.73 152.49,-173.921 159.658,-166.396"/>
<polygon fill="black" stroke="black" points="162.141,-168.862 166.763,-159.329 157.205,-163.899 162.141,-168.862"/>
<text text-anchor="middle" x="112.493" y="-295.8" font-family="Times New Roman,serif" font-size="14.00"> (1)</text>
</g>
<!-- node4 -->
<g id="node5" class="node"><title>node4</title>
<ellipse fill="none" stroke="black" cx="42.2463" cy="-88" rx="42.4939" ry="18"/>
<text text-anchor="middle" x="42.2463" y="-84.3" font-family="Times New Roman,serif" font-size="14.00">(4) Input</text>
</g>
<!-- node4&#45;&gt;node7 -->
<g id="edge3" class="edge"><title>node4&#45;&gt;node7</title>
<path fill="none" stroke="black" d="M80.9598,-95.6026C95.5645,-100.221 111.402,-107.53 122.493,-119 139.201,-136.28 128.022,-149.451 140.493,-170 146.02,-179.108 153.447,-187.965 160.709,-195.587"/>
<polygon fill="black" stroke="black" points="158.307,-198.136 167.839,-202.761 163.272,-193.201 158.307,-198.136"/>
<text text-anchor="middle" x="112.493" y="-122.8" font-family="Times New Roman,serif" font-size="14.00"> (0)</text>
</g>
<!-- node4&#45;&gt;node11 -->
<g id="edge11" class="edge"><title>node4&#45;&gt;node11</title>
<path fill="none" stroke="black" d="M59.0109,-104.684C77.5122,-125.322 107.558,-162.362 122.493,-200 143.681,-253.398 108.583,-280.228 140.493,-328 142.338,-330.763 144.57,-333.283 147.044,-335.573"/>
<polygon fill="black" stroke="black" points="144.994,-338.413 155.043,-341.77 149.281,-332.879 144.994,-338.413"/>
<text text-anchor="middle" x="112.493" y="-203.8" font-family="Times New Roman,serif" font-size="14.00"> (0)</text>
</g>
<!-- node4&#45;&gt;node13 -->
<g id="edge16" class="edge"><title>node4&#45;&gt;node13</title>
<path fill="none" stroke="black" d="M61.0366,-71.7693C72.2445,-62.2634 87.4049,-50.6594 102.493,-43 113.067,-37.6316 124.991,-33.2116 136.456,-29.6612"/>
<polygon fill="black" stroke="black" points="137.751,-32.9289 146.367,-26.7629 135.786,-26.2103 137.751,-32.9289"/>
<text text-anchor="middle" x="112.493" y="-46.8" font-family="Times New Roman,serif" font-size="14.00"> (1)</text>
</g>
<!-- node15 -->
<g id="node16" class="node"><title>node15</title>
<ellipse fill="none" stroke="black" cx="411.122" cy="-143" rx="40.8928" ry="18"/>
<text text-anchor="middle" x="411.122" y="-139.3" font-family="Times New Roman,serif" font-size="14.00">(15) OR</text>
</g>
<!-- node4&#45;&gt;node15 -->
<g id="edge19" class="edge"><title>node4&#45;&gt;node15</title>
<path fill="none" stroke="black" d="M79.6422,-79.5887C137.985,-67.8707 255.083,-51.685 345.676,-86 362.864,-92.5104 378.417,-105.931 389.937,-118.115"/>
<polygon fill="black" stroke="black" points="387.612,-120.763 396.901,-125.857 392.816,-116.082 387.612,-120.763"/>
<text text-anchor="middle" x="187.288" y="-73.8" font-family="Times New Roman,serif" font-size="14.00"> (0)</text>
</g>
<!-- node5 -->
<g id="node6" class="node"><title>node5</title>
<ellipse fill="none" stroke="black" cx="42.2463" cy="-561" rx="42.4939" ry="18"/>
<text text-anchor="middle" x="42.2463" y="-557.3" font-family="Times New Roman,serif" font-size="14.00">(5) Input</text>
</g>
<!-- node5&#45;&gt;node8 -->
<g id="edge5" class="edge"><title>node5&#45;&gt;node8</title>
<path fill="none" stroke="black" d="M84.2364,-558.708C100.097,-557.82 118.425,-556.795 135.134,-555.861"/>
<polygon fill="black" stroke="black" points="135.503,-559.346 145.292,-555.293 135.112,-552.357 135.503,-559.346"/>
<text text-anchor="middle" x="112.493" y="-560.8" font-family="Times New Roman,serif" font-size="14.00"> (0)</text>
</g>
<!-- node5&#45;&gt;node12 -->
<g id="edge14" class="edge"><title>node5&#45;&gt;node12</title>
<path fill="none" stroke="black" d="M61.1678,-544.51C69.6162,-535.697 79.0211,-524.17 84.4925,-512 107.147,-461.609 83.4846,-440.876 102.493,-389 113.482,-359.009 117.633,-350.309 140.493,-328 143.159,-325.397 146.124,-322.944 149.227,-320.658"/>
<polygon fill="black" stroke="black" points="151.295,-323.485 157.65,-315.008 147.396,-317.671 151.295,-323.485"/>
<text text-anchor="middle" x="112.493" y="-392.8" font-family="Times New Roman,serif" font-size="14.00"> (1)</text>
</g>
<!-- node5&#45;&gt;node18 -->
<g id="edge26" class="edge"><title>node5&#45;&gt;node18</title>
<path fill="none" stroke="black" d="M73.2048,-573.354C118.655,-592.095 205.164,-627.768 256.561,-648.962"/>
<polygon fill="black" stroke="black" points="255.462,-652.294 266.041,-652.871 258.13,-645.823 255.462,-652.294"/>
<text text-anchor="middle" x="112.493" y="-596.8" font-family="Times New Roman,serif" font-size="14.00"> (1)</text>
</g>
<!-- node14 -->
<g id="node15" class="node"><title>node14</title>
<ellipse fill="none" stroke="black" cx="411.122" cy="-219" rx="46.5926" ry="18"/>
<text text-anchor="middle" x="411.122" y="-215.3" font-family="Times New Roman,serif" font-size="14.00">(14) AND</text>
</g>
<!-- node6&#45;&gt;node14 -->
<g id="edge17" class="edge"><title>node6&#45;&gt;node14</title>
<path fill="none" stroke="black" d="M210.566,-421.807C222.489,-414.179 237.654,-405.255 252.084,-399 291.805,-381.781 317.168,-404.582 345.676,-372 381.478,-331.082 334.907,-297.134 363.676,-251 366.322,-246.757 369.76,-242.934 373.569,-239.532"/>
<polygon fill="black" stroke="black" points="376.037,-242.046 381.774,-233.139 371.734,-236.524 376.037,-242.046"/>
<text text-anchor="middle" x="298.88" y="-402.8" font-family="Times New Roman,serif" font-size="14.00"> (0)</text>
</g>
<!-- node17 -->
<g id="node18" class="node"><title>node17</title>
<ellipse fill="none" stroke="black" cx="411.122" cy="-409" rx="40.8928" ry="18"/>
<text text-anchor="middle" x="411.122" y="-405.3" font-family="Times New Roman,serif" font-size="14.00">(17) OR</text>
</g>
<!-- node6&#45;&gt;node17 -->
<g id="edge23" class="edge"><title>node6&#45;&gt;node17</title>
<path fill="none" stroke="black" d="M227.948,-431.994C265.322,-427.277 321.414,-420.197 361.474,-415.14"/>
<polygon fill="black" stroke="black" points="362.066,-418.594 371.549,-413.869 361.189,-411.649 362.066,-418.594"/>
<text text-anchor="middle" x="298.88" y="-432.8" font-family="Times New Roman,serif" font-size="14.00"> (0)</text>
</g>
<!-- node21 -->
<g id="node22" class="node"><title>node21</title>
<ellipse fill="none" stroke="black" cx="636.905" cy="-426" rx="47.3916" ry="18"/>
<text text-anchor="middle" x="636.905" y="-422.3" font-family="Times New Roman,serif" font-size="14.00">(21) XOR</text>
</g>
<!-- node6&#45;&gt;node21 -->
<g id="edge32" class="edge"><title>node6&#45;&gt;node21</title>
<path fill="none" stroke="black" d="M225.932,-444.587C234.494,-446.006 243.574,-447.272 252.084,-448 325.408,-454.275 547.454,-443.008 571.459,-440 576.316,-439.391 581.347,-438.596 586.36,-437.692"/>
<polygon fill="black" stroke="black" points="587.412,-441.054 596.562,-435.712 586.078,-434.182 587.412,-441.054"/>
<text text-anchor="middle" x="411.122" y="-453.8" font-family="Times New Roman,serif" font-size="14.00"> (1)</text>
</g>
<!-- node34 -->
<g id="node35" class="node"><title>node34</title>
<ellipse fill="none" stroke="black" cx="1881.08" cy="-633" rx="42.7926" ry="18"/>
<text text-anchor="middle" x="1881.08" y="-629.3" font-family="Times New Roman,serif" font-size="14.00">Output 0</text>
</g>
<!-- node6&#45;&gt;node34 -->
<g id="edge57" class="edge"><title>node6&#45;&gt;node34</title>
<path fill="none" stroke="black" d="M198.58,-454.614C208.587,-472.249 223.75,-500.376 234.084,-526 244.497,-551.82 232.374,-566.337 252.084,-586 303.962,-637.754 336.842,-633 410.122,-633 410.122,-633 410.122,-633 1754.74,-633 1778.8,-633 1805.46,-633 1827.98,-633"/>
<polygon fill="black" stroke="black" points="1828.01,-636.5 1838.01,-633 1828.01,-629.5 1828.01,-636.5"/>
</g>
<!-- node7&#45;&gt;node14 -->
<g id="edge18" class="edge"><title>node7&#45;&gt;node14</title>
<path fill="none" stroke="black" d="M229.753,-219C264.864,-219 315.511,-219 354.203,-219"/>
<polygon fill="black" stroke="black" points="354.27,-222.5 364.27,-219 354.27,-215.5 354.27,-222.5"/>
<text text-anchor="middle" x="298.88" y="-222.8" font-family="Times New Roman,serif" font-size="14.00"> (1)</text>
</g>
<!-- node7&#45;&gt;node17 -->
<g id="edge24" class="edge"><title>node7&#45;&gt;node17</title>
<path fill="none" stroke="black" d="M207.202,-235.199C246.837,-269.147 338.675,-347.806 383.941,-386.576"/>
<polygon fill="black" stroke="black" points="381.697,-389.263 391.569,-393.11 386.251,-383.946 381.697,-389.263"/>
<text text-anchor="middle" x="298.88" y="-356.8" font-family="Times New Roman,serif" font-size="14.00"> (1)</text>
</g>
<!-- node20 -->
<g id="node21" class="node"><title>node20</title>
<ellipse fill="none" stroke="black" cx="524.013" cy="-584" rx="47.3916" ry="18"/>
<text text-anchor="middle" x="524.013" y="-580.3" font-family="Times New Roman,serif" font-size="14.00">(20) XOR</text>
</g>
<!-- node8&#45;&gt;node20 -->
<g id="edge30" class="edge"><title>node8&#45;&gt;node20</title>
<path fill="none" stroke="black" d="M228.664,-556.739C288.37,-562.269 400.382,-572.643 467.688,-578.876"/>
<polygon fill="black" stroke="black" points="467.407,-582.365 477.687,-579.802 468.053,-575.395 467.407,-582.365"/>
<text text-anchor="middle" x="298.88" y="-570.8" font-family="Times New Roman,serif" font-size="14.00"> (1)</text>
</g>
<!-- node9&#45;&gt;node20 -->
<g id="edge29" class="edge"><title>node9&#45;&gt;node20</title>
<path fill="none" stroke="black" d="M228.44,-714.863C260.87,-710.637 307.267,-702.564 345.676,-688 400.819,-667.09 458.657,-629.846 492.739,-606.065"/>
<polygon fill="black" stroke="black" points="495.135,-608.658 501.288,-600.033 491.099,-602.938 495.135,-608.658"/>
<text text-anchor="middle" x="298.88" y="-714.8" font-family="Times New Roman,serif" font-size="14.00"> (0)</text>
</g>
<!-- node10&#45;&gt;node15 -->
<g id="edge20" class="edge"><title>node10&#45;&gt;node15</title>
<path fill="none" stroke="black" d="M234.252,-143C270.909,-143 322.178,-143 359.907,-143"/>
<polygon fill="black" stroke="black" points="360.166,-146.5 370.166,-143 360.166,-139.5 360.166,-146.5"/>
<text text-anchor="middle" x="298.88" y="-146.8" font-family="Times New Roman,serif" font-size="14.00"> (1)</text>
</g>
<!-- node16 -->
<g id="node17" class="node"><title>node16</title>
<ellipse fill="none" stroke="black" cx="411.122" cy="-66" rx="47.3916" ry="18"/>
<text text-anchor="middle" x="411.122" y="-62.3" font-family="Times New Roman,serif" font-size="14.00">(16) XOR</text>
</g>
<!-- node10&#45;&gt;node16 -->
<g id="edge22" class="edge"><title>node10&#45;&gt;node16</title>
<path fill="none" stroke="black" d="M222.95,-130.969C261.419,-117.616 323.607,-96.0297 365.64,-81.4398"/>
<polygon fill="black" stroke="black" points="367.039,-84.6593 375.338,-78.0736 364.743,-78.0463 367.039,-84.6593"/>
<text text-anchor="middle" x="298.88" y="-124.8" font-family="Times New Roman,serif" font-size="14.00"> (1)</text>
</g>
<!-- node19 -->
<g id="node20" class="node"><title>node19</title>
<ellipse fill="none" stroke="black" cx="749.796" cy="-275" rx="47.3916" ry="18"/>
<text text-anchor="middle" x="749.796" y="-271.3" font-family="Times New Roman,serif" font-size="14.00">(19) XOR</text>
</g>
<!-- node11&#45;&gt;node19 -->
<g id="edge27" class="edge"><title>node11&#45;&gt;node19</title>
<path fill="none" stroke="black" d="M224.839,-344.224C233.697,-341.9 243.181,-339.65 252.084,-338 442.054,-302.799 494.337,-326.962 684.351,-292 690.037,-290.954 695.959,-289.668 701.808,-288.277"/>
<polygon fill="black" stroke="black" points="702.669,-291.669 711.528,-285.858 700.978,-284.876 702.669,-291.669"/>
<text text-anchor="middle" x="411.122" y="-325.8" font-family="Times New Roman,serif" font-size="14.00"> (0)</text>
</g>
<!-- node12&#45;&gt;node19 -->
<g id="edge28" class="edge"><title>node12&#45;&gt;node19</title>
<path fill="none" stroke="black" d="M232.942,-296.835C268.363,-293.676 319.147,-289.469 363.676,-287 480.253,-280.535 616.889,-277.307 692.041,-275.908"/>
<polygon fill="black" stroke="black" points="692.294,-279.404 702.229,-275.723 692.166,-272.405 692.294,-279.404"/>
<text text-anchor="middle" x="411.122" y="-290.8" font-family="Times New Roman,serif" font-size="14.00"> (1)</text>
</g>
<!-- node13&#45;&gt;node16 -->
<g id="edge21" class="edge"><title>node13&#45;&gt;node16</title>
<path fill="none" stroke="black" d="M232.492,-22.7982C264.285,-26.7863 308.014,-33.3768 345.676,-43 352.956,-44.8602 360.573,-47.2051 367.915,-49.6818"/>
<polygon fill="black" stroke="black" points="367.106,-53.1067 377.701,-53.1076 369.419,-46.4999 367.106,-53.1067"/>
<text text-anchor="middle" x="298.88" y="-46.8" font-family="Times New Roman,serif" font-size="14.00"> (0)</text>
</g>
<!-- node26 -->
<g id="node27" class="node"><title>node26</title>
<ellipse fill="none" stroke="black" cx="1156.67" cy="-333" rx="40.8928" ry="18"/>
<text text-anchor="middle" x="1156.67" y="-329.3" font-family="Times New Roman,serif" font-size="14.00">(26) OR</text>
</g>
<!-- node14&#45;&gt;node26 -->
<g id="edge42" class="edge"><title>node14&#45;&gt;node26</title>
<path fill="none" stroke="black" d="M457.961,-217.674C546.355,-216.014 746.128,-216.625 910.134,-249 986.014,-263.979 1070.54,-296.643 1118,-316.537"/>
<polygon fill="black" stroke="black" points="1116.69,-319.784 1127.26,-320.457 1119.42,-313.337 1116.69,-319.784"/>
<text text-anchor="middle" x="862.688" y="-252.8" font-family="Times New Roman,serif" font-size="14.00"> (1)</text>
</g>
<!-- node29 -->
<g id="node30" class="node"><title>node29</title>
<ellipse fill="none" stroke="black" cx="862.688" cy="-143" rx="46.5926" ry="18"/>
<text text-anchor="middle" x="862.688" y="-139.3" font-family="Times New Roman,serif" font-size="14.00">(29) AND</text>
</g>
<!-- node15&#45;&gt;node29 -->
<g id="edge48" class="edge"><title>node15&#45;&gt;node29</title>
<path fill="none" stroke="black" d="M452.413,-143C532.828,-143 713.395,-143 805.435,-143"/>
<polygon fill="black" stroke="black" points="805.672,-146.5 815.672,-143 805.672,-139.5 805.672,-146.5"/>
<text text-anchor="middle" x="636.905" y="-146.8" font-family="Times New Roman,serif" font-size="14.00"> (1)</text>
</g>
<!-- node35 -->
<g id="node36" class="node"><title>node35</title>
<ellipse fill="none" stroke="black" cx="1881.08" cy="-66" rx="42.7926" ry="18"/>
<text text-anchor="middle" x="1881.08" y="-62.3" font-family="Times New Roman,serif" font-size="14.00">Output 1</text>
</g>
<!-- node16&#45;&gt;node35 -->
<g id="edge58" class="edge"><title>node16&#45;&gt;node35</title>
<path fill="none" stroke="black" d="M458.84,-66C504.112,-66 574.714,-66 635.905,-66 635.905,-66 635.905,-66 1754.74,-66 1778.8,-66 1805.46,-66 1827.98,-66"/>
<polygon fill="black" stroke="black" points="1828.01,-69.5001 1838.01,-66 1828.01,-62.5001 1828.01,-69.5001"/>
</g>
<!-- node17&#45;&gt;node21 -->
<g id="edge31" class="edge"><title>node17&#45;&gt;node21</title>
<path fill="none" stroke="black" d="M451.614,-412C487.282,-414.71 540.149,-418.726 580.125,-421.763"/>
<polygon fill="black" stroke="black" points="580.015,-425.264 590.251,-422.532 580.545,-418.284 580.015,-425.264"/>
<text text-anchor="middle" x="524.013" y="-424.8" font-family="Times New Roman,serif" font-size="14.00"> (0)</text>
</g>
<!-- node22 -->
<g id="node23" class="node"><title>node22</title>
<ellipse fill="none" stroke="black" cx="636.905" cy="-372" rx="46.5926" ry="18"/>
<text text-anchor="middle" x="636.905" y="-368.3" font-family="Times New Roman,serif" font-size="14.00">(22) AND</text>
</g>
<!-- node17&#45;&gt;node22 -->
<g id="edge34" class="edge"><title>node17&#45;&gt;node22</title>
<path fill="none" stroke="black" d="M448.53,-401.328C457.667,-399.493 467.462,-397.603 476.567,-396 511.717,-389.812 551.405,-383.831 582.378,-379.387"/>
<polygon fill="black" stroke="black" points="583.123,-382.817 592.529,-377.941 582.135,-375.887 583.123,-382.817"/>
<text text-anchor="middle" x="524.013" y="-399.8" font-family="Times New Roman,serif" font-size="14.00"> (1)</text>
</g>
<!-- node18&#45;&gt;node22 -->
<g id="edge33" class="edge"><title>node18&#45;&gt;node22</title>
<path fill="none" stroke="black" d="M308.38,-648.225C319.149,-626.964 339.275,-591.103 363.676,-566 441.465,-485.974 492.176,-503.546 571.459,-425 581.443,-415.108 579.136,-408.538 589.459,-399 592.225,-396.444 595.274,-394.023 598.447,-391.758"/>
<polygon fill="black" stroke="black" points="600.581,-394.544 607.031,-386.139 596.747,-388.688 600.581,-394.544"/>
<text text-anchor="middle" x="411.122" y="-569.8" font-family="Times New Roman,serif" font-size="14.00"> (0)</text>
</g>
<!-- node25 -->
<g id="node26" class="node"><title>node25</title>
<ellipse fill="none" stroke="black" cx="862.688" cy="-517" rx="40.8928" ry="18"/>
<text text-anchor="middle" x="862.688" y="-513.3" font-family="Times New Roman,serif" font-size="14.00">(25) OR</text>
</g>
<!-- node18&#45;&gt;node25 -->
<g id="edge39" class="edge"><title>node18&#45;&gt;node25</title>
<path fill="none" stroke="black" d="M322.45,-650.42C334.452,-642.413 349.601,-632.739 363.676,-625 404.412,-602.603 425.725,-613.901 458.567,-581 472.054,-567.489 460.829,-552.805 476.567,-542 483.385,-537.32 708.83,-524.985 811.566,-519.589"/>
<polygon fill="black" stroke="black" points="811.899,-523.077 821.702,-519.058 811.533,-516.086 811.899,-523.077"/>
<text text-anchor="middle" x="524.013" y="-545.8" font-family="Times New Roman,serif" font-size="14.00"> (0)</text>
</g>
<!-- node30 -->
<g id="node31" class="node"><title>node30</title>
<ellipse fill="none" stroke="black" cx="1451.96" cy="-333" rx="46.5926" ry="18"/>
<text text-anchor="middle" x="1451.96" y="-329.3" font-family="Times New Roman,serif" font-size="14.00">(30) AND</text>
</g>
<!-- node19&#45;&gt;node30 -->
<g id="edge49" class="edge"><title>node19&#45;&gt;node30</title>
<path fill="none" stroke="black" d="M797.506,-276.168C835.192,-277.011 889.573,-278 937.134,-278 937.134,-278 937.134,-278 1302.06,-278 1343.71,-278 1388.08,-297.172 1417.44,-312.877"/>
<polygon fill="black" stroke="black" points="1415.98,-316.066 1426.42,-317.825 1419.36,-309.934 1415.98,-316.066"/>
<text text-anchor="middle" x="1087.73" y="-281.8" font-family="Times New Roman,serif" font-size="14.00"> (0)</text>
</g>
<!-- node31 -->
<g id="node32" class="node"><title>node31</title>
<ellipse fill="none" stroke="black" cx="1451.96" cy="-194" rx="47.3916" ry="18"/>
<text text-anchor="middle" x="1451.96" y="-190.3" font-family="Times New Roman,serif" font-size="14.00">(31) XOR</text>
</g>
<!-- node19&#45;&gt;node31 -->
<g id="edge51" class="edge"><title>node19&#45;&gt;node31</title>
<path fill="none" stroke="black" d="M782.314,-261.56C787.521,-258.74 792.696,-255.535 797.242,-252 806.946,-244.454 805.076,-237.911 815.242,-231 862.631,-198.788 879.834,-189 937.134,-189 937.134,-189 937.134,-189 1302.06,-189 1332.57,-189 1366.56,-190.061 1394.36,-191.206"/>
<polygon fill="black" stroke="black" points="1394.55,-194.717 1404.69,-191.646 1394.85,-187.723 1394.55,-194.717"/>
<text text-anchor="middle" x="1087.73" y="-192.8" font-family="Times New Roman,serif" font-size="14.00"> (0)</text>
</g>
<!-- node23 -->
<g id="node24" class="node"><title>node23</title>
<ellipse fill="none" stroke="black" cx="862.688" cy="-375" rx="47.3916" ry="18"/>
<text text-anchor="middle" x="862.688" y="-371.3" font-family="Times New Roman,serif" font-size="14.00">(23) XOR</text>
</g>
<!-- node20&#45;&gt;node23 -->
<g id="edge36" class="edge"><title>node20&#45;&gt;node23</title>
<path fill="none" stroke="black" d="M554.258,-570.13C560.02,-567.227 565.977,-564.102 571.459,-561 584.54,-553.599 755.842,-443.257 828.966,-396.107"/>
<polygon fill="black" stroke="black" points="831.283,-398.778 837.79,-390.417 827.489,-392.895 831.283,-398.778"/>
<text text-anchor="middle" x="636.905" y="-552.8" font-family="Times New Roman,serif" font-size="14.00"> (1)</text>
</g>
<!-- node28 -->
<g id="node29" class="node"><title>node28</title>
<ellipse fill="none" stroke="black" cx="862.688" cy="-575" rx="47.3916" ry="18"/>
<text text-anchor="middle" x="862.688" y="-571.3" font-family="Times New Roman,serif" font-size="14.00">(28) XOR</text>
</g>
<!-- node20&#45;&gt;node28 -->
<g id="edge46" class="edge"><title>node20&#45;&gt;node28</title>
<path fill="none" stroke="black" d="M571.757,-583.761C626,-583.339 718.129,-582.18 797.242,-579 800.077,-578.886 802.982,-578.755 805.915,-578.613"/>
<polygon fill="black" stroke="black" points="806.13,-582.106 815.933,-578.087 805.763,-575.116 806.13,-582.106"/>
<text text-anchor="middle" x="636.905" y="-586.8" font-family="Times New Roman,serif" font-size="14.00"> (1)</text>
</g>
<!-- node24 -->
<g id="node25" class="node"><title>node24</title>
<ellipse fill="none" stroke="black" cx="1012.93" cy="-341" rx="46.5926" ry="18"/>
<text text-anchor="middle" x="1012.93" y="-337.3" font-family="Times New Roman,serif" font-size="14.00">(24) AND</text>
</g>
<!-- node21&#45;&gt;node24 -->
<g id="edge38" class="edge"><title>node21&#45;&gt;node24</title>
<path fill="none" stroke="black" d="M667.5,-411.813C673.483,-408.147 679.437,-403.847 684.351,-399 695.421,-388.081 690.158,-378.65 702.351,-369 743.645,-336.316 763.205,-341.096 815.242,-333 863.548,-325.484 919.282,-328.866 959.06,-333.313"/>
<polygon fill="black" stroke="black" points="958.729,-336.798 969.07,-334.492 959.548,-329.846 958.729,-336.798"/>
<text text-anchor="middle" x="862.688" y="-336.8" font-family="Times New Roman,serif" font-size="14.00"> (1)</text>
</g>
<!-- node21&#45;&gt;node25 -->
<g id="edge40" class="edge"><title>node21&#45;&gt;node25</title>
<path fill="none" stroke="black" d="M663.148,-441.215C670.368,-446.127 677.995,-451.895 684.351,-458 693.966,-467.237 691.138,-474.785 702.351,-482 707.181,-485.108 769.878,-498.332 815.16,-507.603"/>
<polygon fill="black" stroke="black" points="814.604,-511.062 825.102,-509.633 816.004,-504.204 814.604,-511.062"/>
<text text-anchor="middle" x="749.796" y="-507.8" font-family="Times New Roman,serif" font-size="14.00"> (1)</text>
</g>
<!-- node21&#45;&gt;node28 -->
<g id="edge45" class="edge"><title>node21&#45;&gt;node28</title>
<path fill="none" stroke="black" d="M665.685,-440.518C672.621,-445.278 679.466,-451.14 684.351,-458 701.739,-482.417 681.64,-501.329 702.351,-523 717.534,-538.887 770.27,-554.13 810.959,-563.957"/>
<polygon fill="black" stroke="black" points="810.213,-567.377 820.75,-566.275 811.825,-560.565 810.213,-567.377"/>
<text text-anchor="middle" x="749.796" y="-563.8" font-family="Times New Roman,serif" font-size="14.00"> (0)</text>
</g>
<!-- node33 -->
<g id="node34" class="node"><title>node33</title>
<ellipse fill="none" stroke="black" cx="1753.74" cy="-491" rx="47.3916" ry="18"/>
<text text-anchor="middle" x="1753.74" y="-487.3" font-family="Times New Roman,serif" font-size="14.00">(33) XOR</text>
</g>
<!-- node21&#45;&gt;node33 -->
<g id="edge55" class="edge"><title>node21&#45;&gt;node33</title>
<path fill="none" stroke="black" d="M673.507,-437.706C717.29,-451.039 794.121,-471 861.688,-471 861.688,-471 861.688,-471 1603.85,-471 1636.6,-471 1673.05,-475.813 1701.68,-480.716"/>
<polygon fill="black" stroke="black" points="1701.4,-484.221 1711.86,-482.518 1702.62,-477.328 1701.4,-484.221"/>
<text text-anchor="middle" x="1225.62" y="-474.8" font-family="Times New Roman,serif" font-size="14.00"> (0)</text>
</g>
<!-- node22&#45;&gt;node23 -->
<g id="edge35" class="edge"><title>node22&#45;&gt;node23</title>
<path fill="none" stroke="black" d="M683.731,-372.614C718.796,-373.084 767.347,-373.735 804.881,-374.238"/>
<polygon fill="black" stroke="black" points="805.108,-377.742 815.154,-374.376 805.202,-370.742 805.108,-377.742"/>
<text text-anchor="middle" x="749.796" y="-378.8" font-family="Times New Roman,serif" font-size="14.00"> (0)</text>
</g>
<!-- node27 -->
<g id="node28" class="node"><title>node27</title>
<ellipse fill="none" stroke="black" cx="1301.06" cy="-333" rx="47.3916" ry="18"/>
<text text-anchor="middle" x="1301.06" y="-329.3" font-family="Times New Roman,serif" font-size="14.00">(27) XOR</text>
</g>
<!-- node22&#45;&gt;node27 -->
<g id="edge43" class="edge"><title>node22&#45;&gt;node27</title>
<path fill="none" stroke="black" d="M671.046,-384.455C681.01,-387.888 692.037,-391.384 702.351,-394 771.972,-411.66 789.862,-421 861.688,-421 861.688,-421 861.688,-421 1157.67,-421 1206.08,-421 1251.77,-383.749 1277.79,-357.72"/>
<polygon fill="black" stroke="black" points="1280.45,-360.001 1284.91,-350.386 1275.43,-355.126 1280.45,-360.001"/>
<text text-anchor="middle" x="1012.93" y="-424.8" font-family="Times New Roman,serif" font-size="14.00"> (0)</text>
</g>
<!-- node22&#45;&gt;node29 -->
<g id="edge47" class="edge"><title>node22&#45;&gt;node29</title>
<path fill="none" stroke="black" d="M642.453,-353.734C650.385,-325.038 669.155,-268.965 702.351,-233 734.358,-198.323 782.864,-173.588 817.948,-158.932"/>
<polygon fill="black" stroke="black" points="819.516,-162.073 827.462,-155.065 816.88,-155.587 819.516,-162.073"/>
<text text-anchor="middle" x="749.796" y="-236.8" font-family="Times New Roman,serif" font-size="14.00"> (0)</text>
</g>
<!-- node23&#45;&gt;node24 -->
<g id="edge37" class="edge"><title>node23&#45;&gt;node24</title>
<path fill="none" stroke="black" d="M903.804,-365.799C921.83,-361.665 943.281,-356.745 962.306,-352.381"/>
<polygon fill="black" stroke="black" points="963.33,-355.737 972.295,-350.09 961.766,-348.915 963.33,-355.737"/>
<text text-anchor="middle" x="938.134" y="-364.8" font-family="Times New Roman,serif" font-size="14.00"> (0)</text>
</g>
<!-- node24&#45;&gt;node26 -->
<g id="edge41" class="edge"><title>node24&#45;&gt;node26</title>
<path fill="none" stroke="black" d="M1059.56,-338.425C1074.29,-337.593 1090.69,-336.668 1105.71,-335.82"/>
<polygon fill="black" stroke="black" points="1106.07,-339.305 1115.86,-335.247 1105.68,-332.316 1106.07,-339.305"/>
<text text-anchor="middle" x="1087.73" y="-341.8" font-family="Times New Roman,serif" font-size="14.00"> (0)</text>
</g>
<!-- node32 -->
<g id="node33" class="node"><title>node32</title>
<ellipse fill="none" stroke="black" cx="1602.85" cy="-517" rx="47.3916" ry="18"/>
<text text-anchor="middle" x="1602.85" y="-513.3" font-family="Times New Roman,serif" font-size="14.00">(32) XOR</text>
</g>
<!-- node25&#45;&gt;node32 -->
<g id="edge54" class="edge"><title>node25&#45;&gt;node32</title>
<path fill="none" stroke="black" d="M903.641,-517C933.477,-517 975.255,-517 1011.93,-517 1011.93,-517 1011.93,-517 1452.96,-517 1483.33,-517 1517.18,-517 1544.92,-517"/>
<polygon fill="black" stroke="black" points="1545.24,-520.5 1555.24,-517 1545.24,-513.5 1545.24,-520.5"/>
<text text-anchor="middle" x="1225.62" y="-520.8" font-family="Times New Roman,serif" font-size="14.00"> (1)</text>
</g>
<!-- node26&#45;&gt;node27 -->
<g id="edge44" class="edge"><title>node26&#45;&gt;node27</title>
<path fill="none" stroke="black" d="M1197.71,-333C1211.82,-333 1227.95,-333 1243.17,-333"/>
<polygon fill="black" stroke="black" points="1243.53,-336.5 1253.53,-333 1243.53,-329.5 1243.53,-336.5"/>
<text text-anchor="middle" x="1225.62" y="-336.8" font-family="Times New Roman,serif" font-size="14.00"> (1)</text>
</g>
<!-- node27&#45;&gt;node30 -->
<g id="edge50" class="edge"><title>node27&#45;&gt;node30</title>
<path fill="none" stroke="black" d="M1348.77,-333C1363.32,-333 1379.52,-333 1394.65,-333"/>
<polygon fill="black" stroke="black" points="1394.93,-336.5 1404.93,-333 1394.93,-329.5 1394.93,-336.5"/>
<text text-anchor="middle" x="1376.51" y="-336.8" font-family="Times New Roman,serif" font-size="14.00"> (1)</text>
</g>
<!-- node27&#45;&gt;node31 -->
<g id="edge52" class="edge"><title>node27&#45;&gt;node31</title>
<path fill="none" stroke="black" d="M1320.02,-316.233C1346.29,-291.709 1395.33,-245.931 1425.36,-217.891"/>
<polygon fill="black" stroke="black" points="1428.01,-220.209 1432.93,-210.826 1423.23,-215.092 1428.01,-220.209"/>
<text text-anchor="middle" x="1376.51" y="-275.8" font-family="Times New Roman,serif" font-size="14.00"> (1)</text>
</g>
<!-- node36 -->
<g id="node37" class="node"><title>node36</title>
<ellipse fill="none" stroke="black" cx="1881.08" cy="-575" rx="42.7926" ry="18"/>
<text text-anchor="middle" x="1881.08" y="-571.3" font-family="Times New Roman,serif" font-size="14.00">Output 2</text>
</g>
<!-- node28&#45;&gt;node36 -->
<g id="edge59" class="edge"><title>node28&#45;&gt;node36</title>
<path fill="none" stroke="black" d="M910.424,-575C939.606,-575 977.958,-575 1011.93,-575 1011.93,-575 1011.93,-575 1754.74,-575 1778.8,-575 1805.46,-575 1827.98,-575"/>
<polygon fill="black" stroke="black" points="1828.01,-578.5 1838.01,-575 1828.01,-571.5 1828.01,-578.5"/>
</g>
<!-- node39 -->
<g id="node40" class="node"><title>node39</title>
<ellipse fill="none" stroke="black" cx="1881.08" cy="-252" rx="42.7926" ry="18"/>
<text text-anchor="middle" x="1881.08" y="-248.3" font-family="Times New Roman,serif" font-size="14.00">Output 5</text>
</g>
<!-- node29&#45;&gt;node39 -->
<g id="edge62" class="edge"><title>node29&#45;&gt;node39</title>
<path fill="none" stroke="black" d="M897.309,-155.245C939.06,-169.974 1012.72,-194.411 1077.73,-208 1241.22,-242.18 1283.93,-252 1450.96,-252 1450.96,-252 1450.96,-252 1754.74,-252 1778.8,-252 1805.46,-252 1827.98,-252"/>
<polygon fill="black" stroke="black" points="1828.01,-255.5 1838.01,-252 1828.01,-248.5 1828.01,-255.5"/>
</g>
<!-- node30&#45;&gt;node32 -->
<g id="edge53" class="edge"><title>node30&#45;&gt;node32</title>
<path fill="none" stroke="black" d="M1466.96,-350.31C1493.41,-382.997 1550.8,-453.917 1581.5,-491.858"/>
<polygon fill="black" stroke="black" points="1578.97,-494.298 1587.99,-499.87 1584.42,-489.894 1578.97,-494.298"/>
<text text-anchor="middle" x="1527.4" y="-440.8" font-family="Times New Roman,serif" font-size="14.00"> (0)</text>
</g>
<!-- node37 -->
<g id="node38" class="node"><title>node37</title>
<ellipse fill="none" stroke="black" cx="1881.08" cy="-194" rx="42.7926" ry="18"/>
<text text-anchor="middle" x="1881.08" y="-190.3" font-family="Times New Roman,serif" font-size="14.00">Output 3</text>
</g>
<!-- node31&#45;&gt;node37 -->
<g id="edge60" class="edge"><title>node31&#45;&gt;node37</title>
<path fill="none" stroke="black" d="M1499.48,-194C1579.8,-194 1743.94,-194 1827.98,-194"/>
<polygon fill="black" stroke="black" points="1828.06,-197.5 1838.06,-194 1828.06,-190.5 1828.06,-197.5"/>
</g>
<!-- node32&#45;&gt;node33 -->
<g id="edge56" class="edge"><title>node32&#45;&gt;node33</title>
<path fill="none" stroke="black" d="M1646.51,-509.549C1663.25,-506.627 1682.63,-503.243 1700.21,-500.173"/>
<polygon fill="black" stroke="black" points="1701.07,-503.575 1710.32,-498.407 1699.87,-496.679 1701.07,-503.575"/>
<text text-anchor="middle" x="1678.29" y="-509.8" font-family="Times New Roman,serif" font-size="14.00"> (1)</text>
</g>
<!-- node38 -->
<g id="node39" class="node"><title>node38</title>
<ellipse fill="none" stroke="black" cx="1881.08" cy="-491" rx="42.7926" ry="18"/>
<text text-anchor="middle" x="1881.08" y="-487.3" font-family="Times New Roman,serif" font-size="14.00">Output 4</text>
</g>
<!-- node33&#45;&gt;node38 -->
<g id="edge61" class="edge"><title>node33&#45;&gt;node38</title>
<path fill="none" stroke="black" d="M1801.41,-491C1810.02,-491 1819.05,-491 1827.81,-491"/>
<polygon fill="black" stroke="black" points="1827.92,-494.5 1837.92,-491 1827.92,-487.5 1827.92,-494.5"/>
</g>
</g>
</svg>
