<?xml version="1.0" encoding="UTF-8" standalone="no"?>
<!DOCTYPE svg PUBLIC "-//W3C//DTD SVG 1.1//EN"
 "http://www.w3.org/Graphics/SVG/1.1/DTD/svg11.dtd">
<!-- Generated by graphviz version 2.38.0 (20140413.2041)
 -->
<!-- Title: NeuralNetwork Pages: 1 -->
<svg width="288pt" height="143pt"
 viewBox="0.00 0.00 288.00 142.53" xmlns="http://www.w3.org/2000/svg" xmlns:xlink="http://www.w3.org/1999/xlink">
<g id="graph0" class="graph" transform="scale(0.162888 0.162888) rotate(0) translate(4 871)">
<title>NeuralNetwork</title>
<polygon fill="white" stroke="none" points="-4,4 -4,-871 1764.09,-871 1764.09,4 -4,4"/>
<!-- node0 -->
<g id="node1" class="node"><title>node0</title>
<ellipse fill="none" stroke="black" cx="42.2463" cy="-126" rx="42.4939" ry="18"/>
<text text-anchor="middle" x="42.2463" y="-122.3" font-family="Times New Roman,serif" font-size="14.00">(0) Input</text>
</g>
<!-- node6 -->
<g id="node7" class="node"><title>node6</title>
<ellipse fill="none" stroke="black" cx="187.288" cy="-272" rx="42.4939" ry="18"/>
<text text-anchor="middle" x="187.288" y="-268.3" font-family="Times New Roman,serif" font-size="14.00">(6) AND</text>
</g>
<!-- node0&#45;&gt;node6 -->
<g id="edge1" class="edge"><title>node0&#45;&gt;node6</title>
<path fill="none" stroke="black" d="M62.4525,-141.906C79.8121,-157.027 105.22,-181.103 122.493,-206 133.375,-221.685 127.687,-230.841 140.493,-245 143.133,-247.92 146.166,-250.616 149.385,-253.083"/>
<polygon fill="black" stroke="black" points="147.429,-255.985 157.66,-258.736 151.377,-250.205 147.429,-255.985"/>
<text text-anchor="middle" x="112.493" y="-209.8" font-family="Times New Roman,serif" font-size="14.00"> (0)</text>
</g>
<!-- node14 -->
<g id="node15" class="node"><title>node14</title>
<ellipse fill="none" stroke="black" cx="298.88" cy="-63" rx="46.5926" ry="18"/>
<text text-anchor="middle" x="298.88" y="-59.3" font-family="Times New Roman,serif" font-size="14.00">(14) AND</text>
</g>
<!-- node0&#45;&gt;node14 -->
<g id="edge18" class="edge"><title>node0&#45;&gt;node14</title>
<path fill="none" stroke="black" d="M68.2489,-111.807C78.5747,-106.468 90.8371,-100.782 102.493,-97 148.739,-81.995 203.414,-73.1986 243.15,-68.3269"/>
<polygon fill="black" stroke="black" points="243.651,-71.7921 253.171,-67.1424 242.83,-64.8405 243.651,-71.7921"/>
<text text-anchor="middle" x="112.493" y="-100.8" font-family="Times New Roman,serif" font-size="14.00"> (1)</text>
</g>
<!-- node28 -->
<g id="node29" class="node"><title>node28</title>
<ellipse fill="none" stroke="black" cx="411.122" cy="-218" rx="47.3916" ry="18"/>
<text text-anchor="middle" x="411.122" y="-214.3" font-family="Times New Roman,serif" font-size="14.00">(28) XOR</text>
</g>
<!-- node0&#45;&gt;node28 -->
<g id="edge42" class="edge"><title>node0&#45;&gt;node28</title>
<path fill="none" stroke="black" d="M79.175,-134.943C92.759,-138.357 108.35,-142.315 122.493,-146 172.19,-158.951 185.282,-160.003 234.084,-176 242.241,-178.674 243.87,-180.509 252.084,-183 286.756,-193.514 326.588,-202.315 357.589,-208.461"/>
<polygon fill="black" stroke="black" points="357.259,-211.963 367.744,-210.443 358.599,-205.092 357.259,-211.963"/>
<text text-anchor="middle" x="187.288" y="-179.8" font-family="Times New Roman,serif" font-size="14.00"> (1)</text>
</g>
<!-- node1 -->
<g id="node2" class="node"><title>node1</title>
<ellipse fill="none" stroke="black" cx="42.2463" cy="-330" rx="42.4939" ry="18"/>
<text text-anchor="middle" x="42.2463" y="-326.3" font-family="Times New Roman,serif" font-size="14.00">(1) Input</text>
</g>
<!-- node8 -->
<g id="node9" class="node"><title>node8</title>
<ellipse fill="none" stroke="black" cx="612.857" cy="-535" rx="36.2938" ry="18"/>
<text text-anchor="middle" x="612.857" y="-531.3" font-family="Times New Roman,serif" font-size="14.00">(8) OR</text>
</g>
<!-- node1&#45;&gt;node8 -->
<g id="edge6" class="edge"><title>node1&#45;&gt;node8</title>
<path fill="none" stroke="black" d="M45.0337,-348.135C49.1259,-378.76 62.1824,-440.111 102.493,-468 191.466,-529.557 255.583,-419.093 345.676,-479 361.237,-489.348 348.257,-506.442 363.676,-517 424.996,-558.988 515.976,-552.673 569.062,-544.013"/>
<polygon fill="black" stroke="black" points="569.899,-547.42 579.154,-542.263 568.703,-540.523 569.899,-547.42"/>
<text text-anchor="middle" x="298.88" y="-482.8" font-family="Times New Roman,serif" font-size="14.00"> (1)</text>
</g>
<!-- node9 -->
<g id="node10" class="node"><title>node9</title>
<ellipse fill="none" stroke="black" cx="187.288" cy="-218" rx="42.4939" ry="18"/>
<text text-anchor="middle" x="187.288" y="-214.3" font-family="Times New Roman,serif" font-size="14.00">(9) AND</text>
</g>
<!-- node1&#45;&gt;node9 -->
<g id="edge7" class="edge"><title>node1&#45;&gt;node9</title>
<path fill="none" stroke="black" d="M60.0042,-313.626C78.771,-295.712 110.499,-266.663 140.493,-245 144.126,-242.376 148.029,-239.775 151.968,-237.284"/>
<polygon fill="black" stroke="black" points="153.849,-240.237 160.56,-232.039 150.201,-234.263 153.849,-240.237"/>
<text text-anchor="middle" x="112.493" y="-276.8" font-family="Times New Roman,serif" font-size="14.00"> (0)</text>
</g>
<!-- node20 -->
<g id="node21" class="node"><title>node20</title>
<ellipse fill="none" stroke="black" cx="986.282" cy="-228" rx="46.5926" ry="18"/>
<text text-anchor="middle" x="986.282" y="-224.3" font-family="Times New Roman,serif" font-size="14.00">(20) AND</text>
</g>
<!-- node1&#45;&gt;node20 -->
<g id="edge26" class="edge"><title>node1&#45;&gt;node20</title>
<path fill="none" stroke="black" d="M84.4196,-328.093C142.694,-325.178 252.515,-318.888 345.676,-309 539.071,-288.473 585.693,-269.697 778.845,-247 829.922,-240.998 888.295,-235.777 929.907,-232.335"/>
<polygon fill="black" stroke="black" points="930.43,-235.804 940.11,-231.499 929.858,-228.827 930.43,-235.804"/>
<text text-anchor="middle" x="517.514" y="-295.8" font-family="Times New Roman,serif" font-size="14.00"> (1)</text>
</g>
<!-- node27 -->
<g id="node28" class="node"><title>node27</title>
<ellipse fill="none" stroke="black" cx="714.05" cy="-321" rx="46.5926" ry="18"/>
<text text-anchor="middle" x="714.05" y="-317.3" font-family="Times New Roman,serif" font-size="14.00">(27) AND</text>
</g>
<!-- node1&#45;&gt;node27 -->
<g id="edge40" class="edge"><title>node1&#45;&gt;node27</title>
<path fill="none" stroke="black" d="M84.3462,-331.928C171.685,-335.687 382.198,-342.965 558.46,-335 591.813,-333.493 629.09,-330.165 658.682,-327.133"/>
<polygon fill="black" stroke="black" points="659.226,-330.595 668.809,-326.076 658.499,-323.633 659.226,-330.595"/>
<text text-anchor="middle" x="298.88" y="-341.8" font-family="Times New Roman,serif" font-size="14.00"> (1)</text>
</g>
<!-- node2 -->
<g id="node3" class="node"><title>node2</title>
<ellipse fill="none" stroke="black" cx="42.2463" cy="-687" rx="42.4939" ry="18"/>
<text text-anchor="middle" x="42.2463" y="-683.3" font-family="Times New Roman,serif" font-size="14.00">(2) Input</text>
</g>
<!-- node10 -->
<g id="node11" class="node"><title>node10</title>
<ellipse fill="none" stroke="black" cx="187.288" cy="-419" rx="46.5926" ry="18"/>
<text text-anchor="middle" x="187.288" y="-415.3" font-family="Times New Roman,serif" font-size="14.00">(10) AND</text>
</g>
<!-- node2&#45;&gt;node10 -->
<g id="edge9" class="edge"><title>node2&#45;&gt;node10</title>
<path fill="none" stroke="black" d="M52.6316,-669.416C77.082,-623.606 142.861,-500.365 172.028,-445.719"/>
<polygon fill="black" stroke="black" points="175.247,-447.119 176.868,-436.649 169.072,-443.823 175.247,-447.119"/>
<text text-anchor="middle" x="112.493" y="-572.8" font-family="Times New Roman,serif" font-size="14.00"> (0)</text>
</g>
<!-- node15 -->
<g id="node16" class="node"><title>node15</title>
<ellipse fill="none" stroke="black" cx="986.282" cy="-624" rx="47.3916" ry="18"/>
<text text-anchor="middle" x="986.282" y="-620.3" font-family="Times New Roman,serif" font-size="14.00">(15) XOR</text>
</g>
<!-- node2&#45;&gt;node15 -->
<g id="edge19" class="edge"><title>node2&#45;&gt;node15</title>
<path fill="none" stroke="black" d="M83.0349,-691.837C234.643,-709.52 774.931,-765.491 920.836,-684 934.08,-676.603 928.288,-665.902 938.836,-655 942.278,-651.442 946.195,-648.07 950.26,-644.952"/>
<polygon fill="black" stroke="black" points="952.598,-647.583 958.709,-638.928 948.534,-641.884 952.598,-647.583"/>
<text text-anchor="middle" x="517.514" y="-729.8" font-family="Times New Roman,serif" font-size="14.00"> (0)</text>
</g>
<!-- node16 -->
<g id="node17" class="node"><title>node16</title>
<ellipse fill="none" stroke="black" cx="298.88" cy="-792" rx="46.5926" ry="18"/>
<text text-anchor="middle" x="298.88" y="-788.3" font-family="Times New Roman,serif" font-size="14.00">(16) AND</text>
</g>
<!-- node2&#45;&gt;node16 -->
<g id="edge22" class="edge"><title>node2&#45;&gt;node16</title>
<path fill="none" stroke="black" d="M79.5746,-695.567C118.854,-705.561 182.73,-723.965 234.084,-749 245.996,-754.807 258.258,-762.572 268.808,-769.905"/>
<polygon fill="black" stroke="black" points="267.05,-772.95 277.223,-775.91 271.117,-767.252 267.05,-772.95"/>
<text text-anchor="middle" x="112.493" y="-710.8" font-family="Times New Roman,serif" font-size="14.00"> (1)</text>
</g>
<!-- node3 -->
<g id="node4" class="node"><title>node3</title>
<ellipse fill="none" stroke="black" cx="42.2463" cy="-235" rx="42.4939" ry="18"/>
<text text-anchor="middle" x="42.2463" y="-231.3" font-family="Times New Roman,serif" font-size="14.00">(3) Input</text>
</g>
<!-- node3&#45;&gt;node9 -->
<g id="edge8" class="edge"><title>node3&#45;&gt;node9</title>
<path fill="none" stroke="black" d="M83.0915,-230.265C99.5381,-228.31 118.785,-226.022 136.173,-223.956"/>
<polygon fill="black" stroke="black" points="136.644,-227.425 146.161,-222.769 135.818,-220.474 136.644,-227.425"/>
<text text-anchor="middle" x="112.493" y="-230.8" font-family="Times New Roman,serif" font-size="14.00"> (1)</text>
</g>
<!-- node3&#45;&gt;node10 -->
<g id="edge10" class="edge"><title>node3&#45;&gt;node10</title>
<path fill="none" stroke="black" d="M56.4469,-251.98C81.7167,-284.486 137.041,-355.651 166.657,-393.748"/>
<polygon fill="black" stroke="black" points="164.011,-396.046 172.912,-401.793 169.537,-391.75 164.011,-396.046"/>
<text text-anchor="middle" x="112.493" y="-335.8" font-family="Times New Roman,serif" font-size="14.00"> (1)</text>
</g>
<!-- node3&#45;&gt;node14 -->
<g id="edge17" class="edge"><title>node3&#45;&gt;node14</title>
<path fill="none" stroke="black" d="M54.2571,-217.635C65.0515,-201.65 82.7285,-178.054 102.493,-162 115.753,-151.228 206.682,-106.793 259.699,-81.2661"/>
<polygon fill="black" stroke="black" points="261.318,-84.3714 268.814,-76.8839 258.284,-78.0626 261.318,-84.3714"/>
<text text-anchor="middle" x="112.493" y="-165.8" font-family="Times New Roman,serif" font-size="14.00"> (0)</text>
</g>
<!-- node4 -->
<g id="node5" class="node"><title>node4</title>
<ellipse fill="none" stroke="black" cx="42.2463" cy="-571" rx="42.4939" ry="18"/>
<text text-anchor="middle" x="42.2463" y="-567.3" font-family="Times New Roman,serif" font-size="14.00">(4) Input</text>
</g>
<!-- node4&#45;&gt;node6 -->
<g id="edge2" class="edge"><title>node4&#45;&gt;node6</title>
<path fill="none" stroke="black" d="M51.7658,-553.192C75.8656,-502.816 144.635,-359.067 173.397,-298.948"/>
<polygon fill="black" stroke="black" points="176.655,-300.246 177.813,-289.715 170.34,-297.225 176.655,-300.246"/>
<text text-anchor="middle" x="112.493" y="-442.8" font-family="Times New Roman,serif" font-size="14.00"> (1)</text>
</g>
<!-- node12 -->
<g id="node13" class="node"><title>node12</title>
<ellipse fill="none" stroke="black" cx="411.122" cy="-644" rx="46.5926" ry="18"/>
<text text-anchor="middle" x="411.122" y="-640.3" font-family="Times New Roman,serif" font-size="14.00">(12) AND</text>
</g>
<!-- node4&#45;&gt;node12 -->
<g id="edge13" class="edge"><title>node4&#45;&gt;node12</title>
<path fill="none" stroke="black" d="M63.814,-586.505C74.74,-593.939 88.7285,-602.242 102.493,-607 186.891,-636.178 291.192,-643.073 354.092,-644.315"/>
<polygon fill="black" stroke="black" points="354.149,-647.816 364.202,-644.473 354.258,-640.817 354.149,-647.816"/>
<text text-anchor="middle" x="187.288" y="-638.8" font-family="Times New Roman,serif" font-size="14.00"> (0)</text>
</g>
<!-- node24 -->
<g id="node25" class="node"><title>node24</title>
<ellipse fill="none" stroke="black" cx="517.514" cy="-409" rx="40.8928" ry="18"/>
<text text-anchor="middle" x="517.514" y="-405.3" font-family="Times New Roman,serif" font-size="14.00">(24) OR</text>
</g>
<!-- node4&#45;&gt;node24 -->
<g id="edge33" class="edge"><title>node4&#45;&gt;node24</title>
<path fill="none" stroke="black" d="M84.0036,-567.517C164.281,-560.488 335.971,-544.549 345.676,-536 370.751,-513.912 341.231,-487.756 363.676,-463 390.142,-433.808 433.377,-420.395 467.121,-414.233"/>
<polygon fill="black" stroke="black" points="467.971,-417.64 477.26,-412.544 466.821,-410.735 467.971,-417.64"/>
<text text-anchor="middle" x="187.288" y="-565.8" font-family="Times New Roman,serif" font-size="14.00"> (0)</text>
</g>
<!-- node31 -->
<g id="node32" class="node"><title>node31</title>
<ellipse fill="none" stroke="black" cx="1137.17" cy="-218" rx="46.5926" ry="18"/>
<text text-anchor="middle" x="1137.17" y="-214.3" font-family="Times New Roman,serif" font-size="14.00">(31) AND</text>
</g>
<!-- node4&#45;&gt;node31 -->
<g id="edge47" class="edge"><title>node4&#45;&gt;node31</title>
<path fill="none" stroke="black" d="M79.4615,-579.695C108.238,-585.844 149.605,-593 186.288,-593 186.288,-593 186.288,-593 715.05,-593 789.881,-593 816.707,-614.024 882.836,-579 894.705,-572.714 915.078,-544.134 920.836,-532 937.579,-496.721 923.412,-481.875 938.836,-446 968.092,-377.954 996.33,-372.934 1033.73,-309 1042.96,-293.215 1039.57,-285.66 1051.73,-272 1064.49,-257.657 1081.94,-245.646 1097.67,-236.621"/>
<polygon fill="black" stroke="black" points="1099.61,-239.549 1106.68,-231.658 1096.23,-233.417 1099.61,-239.549"/>
<text text-anchor="middle" x="612.857" y="-596.8" font-family="Times New Roman,serif" font-size="14.00"> (0)</text>
</g>
<!-- node5 -->
<g id="node6" class="node"><title>node5</title>
<ellipse fill="none" stroke="black" cx="42.2463" cy="-814" rx="42.4939" ry="18"/>
<text text-anchor="middle" x="42.2463" y="-810.3" font-family="Times New Roman,serif" font-size="14.00">(5) Input</text>
</g>
<!-- node7 -->
<g id="node8" class="node"><title>node7</title>
<ellipse fill="none" stroke="black" cx="411.122" cy="-490" rx="42.4939" ry="18"/>
<text text-anchor="middle" x="411.122" y="-486.3" font-family="Times New Roman,serif" font-size="14.00">(7) AND</text>
</g>
<!-- node5&#45;&gt;node7 -->
<g id="edge4" class="edge"><title>node5&#45;&gt;node7</title>
<path fill="none" stroke="black" d="M64.4071,-798.423C115.153,-760.669 246.886,-660.281 345.676,-564 361.529,-548.55 377.892,-529.719 390.163,-514.92"/>
<polygon fill="black" stroke="black" points="392.892,-517.112 396.53,-507.161 387.481,-512.671 392.892,-517.112"/>
<text text-anchor="middle" x="187.288" y="-740.8" font-family="Times New Roman,serif" font-size="14.00"> (1)</text>
</g>
<!-- node5&#45;&gt;node16 -->
<g id="edge21" class="edge"><title>node5&#45;&gt;node16</title>
<path fill="none" stroke="black" d="M83.8753,-810.49C126.912,-806.771 195.117,-800.879 242.932,-796.747"/>
<polygon fill="black" stroke="black" points="243.448,-800.216 253.11,-795.868 242.846,-793.242 243.448,-800.216"/>
<text text-anchor="middle" x="112.493" y="-811.8" font-family="Times New Roman,serif" font-size="14.00"> (0)</text>
</g>
<!-- node26 -->
<g id="node27" class="node"><title>node26</title>
<ellipse fill="none" stroke="black" cx="986.282" cy="-527" rx="46.5926" ry="18"/>
<text text-anchor="middle" x="986.282" y="-523.3" font-family="Times New Roman,serif" font-size="14.00">(26) AND</text>
</g>
<!-- node5&#45;&gt;node26 -->
<g id="edge37" class="edge"><title>node5&#45;&gt;node26</title>
<path fill="none" stroke="black" d="M72.7779,-826.653C101.287,-837.708 145.947,-852 186.288,-852 186.288,-852 186.288,-852 518.514,-852 591.771,-852 869.261,-747.257 920.836,-684 945.788,-653.397 923.645,-633.446 938.836,-597 945.447,-581.14 955.81,-565.053 965.071,-552.306"/>
<polygon fill="black" stroke="black" points="968.054,-554.161 971.247,-544.059 962.451,-549.965 968.054,-554.161"/>
<text text-anchor="middle" x="517.514" y="-855.8" font-family="Times New Roman,serif" font-size="14.00"> (0)</text>
</g>
<!-- node6&#45;&gt;node7 -->
<g id="edge3" class="edge"><title>node6&#45;&gt;node7</title>
<path fill="none" stroke="black" d="M229.41,-274.335C264.429,-278.417 313.969,-289.445 345.676,-319 386.547,-357.098 401.684,-423.707 407.152,-461.568"/>
<polygon fill="black" stroke="black" points="403.734,-462.424 408.503,-471.884 410.674,-461.514 403.734,-462.424"/>
<text text-anchor="middle" x="298.88" y="-322.8" font-family="Times New Roman,serif" font-size="14.00"> (0)</text>
</g>
<!-- node11 -->
<g id="node12" class="node"><title>node11</title>
<ellipse fill="none" stroke="black" cx="411.122" cy="-115" rx="47.3916" ry="18"/>
<text text-anchor="middle" x="411.122" y="-111.3" font-family="Times New Roman,serif" font-size="14.00">(11) XOR</text>
</g>
<!-- node6&#45;&gt;node11 -->
<g id="edge12" class="edge"><title>node6&#45;&gt;node11</title>
<path fill="none" stroke="black" d="M217.309,-259.074C223.494,-255.255 229.526,-250.572 234.084,-245 249.57,-226.071 235.907,-211.342 252.084,-193 281.036,-160.175 326.979,-139.679 361.884,-127.983"/>
<polygon fill="black" stroke="black" points="362.967,-131.312 371.412,-124.915 360.821,-124.648 362.967,-131.312"/>
<text text-anchor="middle" x="298.88" y="-196.8" font-family="Times New Roman,serif" font-size="14.00"> (1)</text>
</g>
<!-- node21 -->
<g id="node22" class="node"><title>node21</title>
<ellipse fill="none" stroke="black" cx="830.841" cy="-496" rx="47.3916" ry="18"/>
<text text-anchor="middle" x="830.841" y="-492.3" font-family="Times New Roman,serif" font-size="14.00">(21) XOR</text>
</g>
<!-- node6&#45;&gt;node21 -->
<g id="edge27" class="edge"><title>node6&#45;&gt;node21</title>
<path fill="none" stroke="black" d="M212.719,-257.422C228.836,-247.944 247.748,-237.139 252.084,-236 292.316,-225.432 305.653,-224.668 345.676,-236 359.033,-239.782 547.319,-358.718 558.46,-367 567.05,-373.386 567.467,-377.196 576.46,-383 613.339,-406.798 726.128,-453.983 788.052,-479.194"/>
<polygon fill="black" stroke="black" points="786.953,-482.525 797.535,-483.045 789.587,-476.039 786.953,-482.525"/>
<text text-anchor="middle" x="517.514" y="-370.8" font-family="Times New Roman,serif" font-size="14.00"> (0)</text>
</g>
<!-- node7&#45;&gt;node8 -->
<g id="edge5" class="edge"><title>node7&#45;&gt;node8</title>
<path fill="none" stroke="black" d="M453.638,-490.788C483.397,-492.318 524.122,-496.404 558.46,-507 565.818,-509.27 573.356,-512.548 580.364,-516.067"/>
<polygon fill="black" stroke="black" points="579.052,-519.333 589.524,-520.942 582.341,-513.154 579.052,-519.333"/>
<text text-anchor="middle" x="517.514" y="-510.8" font-family="Times New Roman,serif" font-size="14.00"> (0)</text>
</g>
<!-- node7&#45;&gt;node20 -->
<g id="edge25" class="edge"><title>node7&#45;&gt;node20</title>
<path fill="none" stroke="black" d="M444.073,-478.657C520.899,-451.064 721.56,-377.096 882.836,-301 900.097,-292.856 906.549,-293.654 920.836,-281 931.357,-271.681 928.514,-264.538 938.836,-255 941.602,-252.444 944.651,-250.023 947.824,-247.758"/>
<polygon fill="black" stroke="black" points="949.958,-250.544 956.408,-242.139 946.124,-244.688 949.958,-250.544"/>
<text text-anchor="middle" x="714.05" y="-395.8" font-family="Times New Roman,serif" font-size="14.00"> (0)</text>
</g>
<!-- node13 -->
<g id="node14" class="node"><title>node13</title>
<ellipse fill="none" stroke="black" cx="830.841" cy="-644" rx="46.5926" ry="18"/>
<text text-anchor="middle" x="830.841" y="-640.3" font-family="Times New Roman,serif" font-size="14.00">(13) AND</text>
</g>
<!-- node8&#45;&gt;node13 -->
<g id="edge16" class="edge"><title>node8&#45;&gt;node13</title>
<path fill="none" stroke="black" d="M639.056,-547.717C676.896,-566.814 748.629,-603.015 792.543,-625.177"/>
<polygon fill="black" stroke="black" points="791.231,-628.435 801.735,-629.816 794.385,-622.186 791.231,-628.435"/>
<text text-anchor="middle" x="714.05" y="-611.8" font-family="Times New Roman,serif" font-size="14.00"> (1)</text>
</g>
<!-- node8&#45;&gt;node21 -->
<g id="edge28" class="edge"><title>node8&#45;&gt;node21</title>
<path fill="none" stroke="black" d="M647.175,-528.714C653.824,-527.473 660.759,-526.187 667.254,-525 704.03,-518.277 745.522,-510.879 777.385,-505.238"/>
<polygon fill="black" stroke="black" points="778.136,-508.66 787.374,-503.471 776.917,-501.767 778.136,-508.66"/>
<text text-anchor="middle" x="714.05" y="-528.8" font-family="Times New Roman,serif" font-size="14.00"> (1)</text>
</g>
<!-- node9&#45;&gt;node11 -->
<g id="edge11" class="edge"><title>node9&#45;&gt;node11</title>
<path fill="none" stroke="black" d="M214.959,-204.235C222.127,-199.363 229.229,-193.255 234.084,-186 254.595,-155.352 223.318,-128.076 252.084,-105 284.582,-78.9312 333.984,-87.2298 368.889,-98.3425"/>
<polygon fill="black" stroke="black" points="368.177,-101.797 378.771,-101.685 370.42,-95.1657 368.177,-101.797"/>
<text text-anchor="middle" x="298.88" y="-108.8" font-family="Times New Roman,serif" font-size="14.00"> (0)</text>
</g>
<!-- node30 -->
<g id="node31" class="node"><title>node30</title>
<ellipse fill="none" stroke="black" cx="986.282" cy="-174" rx="40.8928" ry="18"/>
<text text-anchor="middle" x="986.282" y="-170.3" font-family="Times New Roman,serif" font-size="14.00">(30) OR</text>
</g>
<!-- node9&#45;&gt;node30 -->
<g id="edge46" class="edge"><title>node9&#45;&gt;node30</title>
<path fill="none" stroke="black" d="M226.096,-210.775C261.503,-204.344 315.964,-195.308 363.676,-191 575.429,-171.881 829.262,-172.118 935.108,-173.244"/>
<polygon fill="black" stroke="black" points="935.144,-176.745 945.183,-173.359 935.223,-169.745 935.144,-176.745"/>
<text text-anchor="middle" x="612.857" y="-180.8" font-family="Times New Roman,serif" font-size="14.00"> (1)</text>
</g>
<!-- node10&#45;&gt;node12 -->
<g id="edge14" class="edge"><title>node10&#45;&gt;node12</title>
<path fill="none" stroke="black" d="M201.048,-436.238C213.464,-452.655 233.175,-477.789 252.084,-498 295.373,-544.267 350.68,-593.321 383.073,-621.155"/>
<polygon fill="black" stroke="black" points="380.919,-623.919 390.794,-627.76 385.47,-618.599 380.919,-623.919"/>
<text text-anchor="middle" x="298.88" y="-589.8" font-family="Times New Roman,serif" font-size="14.00"> (1)</text>
</g>
<!-- node10&#45;&gt;node28 -->
<g id="edge41" class="edge"><title>node10&#45;&gt;node28</title>
<path fill="none" stroke="black" d="M195.103,-400.95C210.955,-359.046 249.185,-258.527 252.084,-256 279.846,-231.805 320.372,-222.403 353.434,-218.999"/>
<polygon fill="black" stroke="black" points="353.775,-222.483 363.432,-218.125 353.166,-215.509 353.775,-222.483"/>
<text text-anchor="middle" x="298.88" y="-259.8" font-family="Times New Roman,serif" font-size="14.00"> (0)</text>
</g>
<!-- node43 -->
<g id="node44" class="node"><title>node43</title>
<ellipse fill="none" stroke="black" cx="1717.19" cy="-73" rx="42.7926" ry="18"/>
<text text-anchor="middle" x="1717.19" y="-69.3" font-family="Times New Roman,serif" font-size="14.00">Output 1</text>
</g>
<!-- node11&#45;&gt;node43 -->
<g id="edge70" class="edge"><title>node11&#45;&gt;node43</title>
<path fill="none" stroke="black" d="M447.013,-103.077C486.515,-90.6598 553.036,-73 611.857,-73 611.857,-73 611.857,-73 1590.85,-73 1614.91,-73 1641.57,-73 1664.09,-73"/>
<polygon fill="black" stroke="black" points="1664.12,-76.5001 1674.12,-73 1664.12,-69.5001 1664.12,-76.5001"/>
</g>
<!-- node12&#45;&gt;node13 -->
<g id="edge15" class="edge"><title>node12&#45;&gt;node13</title>
<path fill="none" stroke="black" d="M458.02,-644C535.128,-644 690.401,-644 773.815,-644"/>
<polygon fill="black" stroke="black" points="773.867,-647.5 783.867,-644 773.867,-640.5 773.867,-647.5"/>
<text text-anchor="middle" x="612.857" y="-647.8" font-family="Times New Roman,serif" font-size="14.00"> (0)</text>
</g>
<!-- node13&#45;&gt;node15 -->
<g id="edge20" class="edge"><title>node13&#45;&gt;node15</title>
<path fill="none" stroke="black" d="M875.4,-638.322C892.744,-636.062 912.888,-633.436 931.155,-631.055"/>
<polygon fill="black" stroke="black" points="931.617,-634.525 941.081,-629.761 930.712,-627.583 931.617,-634.525"/>
<text text-anchor="middle" x="910.836" y="-637.8" font-family="Times New Roman,serif" font-size="14.00"> (1)</text>
</g>
<!-- node23 -->
<g id="node24" class="node"><title>node23</title>
<ellipse fill="none" stroke="black" cx="986.282" cy="-473" rx="46.5926" ry="18"/>
<text text-anchor="middle" x="986.282" y="-469.3" font-family="Times New Roman,serif" font-size="14.00">(23) AND</text>
</g>
<!-- node13&#45;&gt;node23 -->
<g id="edge31" class="edge"><title>node13&#45;&gt;node23</title>
<path fill="none" stroke="black" d="M855.611,-628.546C864.523,-622.301 874.502,-614.743 882.836,-607 902.015,-589.183 908.473,-585.073 920.836,-562 934.388,-536.709 921.167,-522.608 938.836,-500 941.028,-497.196 943.598,-494.628 946.385,-492.288"/>
<polygon fill="black" stroke="black" points="948.627,-494.986 954.68,-486.29 944.525,-489.313 948.627,-494.986"/>
<text text-anchor="middle" x="910.836" y="-593.8" font-family="Times New Roman,serif" font-size="14.00"> (0)</text>
</g>
<!-- node25 -->
<g id="node26" class="node"><title>node25</title>
<ellipse fill="none" stroke="black" cx="986.282" cy="-682" rx="47.3916" ry="18"/>
<text text-anchor="middle" x="986.282" y="-678.3" font-family="Times New Roman,serif" font-size="14.00">(25) XOR</text>
</g>
<!-- node13&#45;&gt;node25 -->
<g id="edge36" class="edge"><title>node13&#45;&gt;node25</title>
<path fill="none" stroke="black" d="M870.561,-653.589C890.488,-658.524 914.991,-664.592 936.228,-669.852"/>
<polygon fill="black" stroke="black" points="935.493,-673.275 946.041,-672.282 937.176,-666.481 935.493,-673.275"/>
<text text-anchor="middle" x="910.836" y="-668.8" font-family="Times New Roman,serif" font-size="14.00"> (1)</text>
</g>
<!-- node14&#45;&gt;node24 -->
<g id="edge34" class="edge"><title>node14&#45;&gt;node24</title>
<path fill="none" stroke="black" d="M337.897,-52.8253C374.098,-45.6735 427.534,-42.1577 458.567,-73 479.107,-93.413 468.662,-305.142 476.567,-333 481.575,-350.645 490.997,-368.885 499.434,-383.073"/>
<polygon fill="black" stroke="black" points="496.559,-385.079 504.779,-391.764 502.521,-381.412 496.559,-385.079"/>
<text text-anchor="middle" x="411.122" y="-76.8" font-family="Times New Roman,serif" font-size="14.00"> (1)</text>
</g>
<!-- node42 -->
<g id="node43" class="node"><title>node42</title>
<ellipse fill="none" stroke="black" cx="1717.19" cy="-18" rx="42.7926" ry="18"/>
<text text-anchor="middle" x="1717.19" y="-14.3" font-family="Times New Roman,serif" font-size="14.00">Output 0</text>
</g>
<!-- node14&#45;&gt;node42 -->
<g id="edge69" class="edge"><title>node14&#45;&gt;node42</title>
<path fill="none" stroke="black" d="M334.689,-51.1768C377.108,-37.8441 451.212,-18 516.514,-18 516.514,-18 516.514,-18 1590.85,-18 1614.91,-18 1641.57,-18 1664.09,-18"/>
<polygon fill="black" stroke="black" points="1664.12,-21.5001 1674.12,-18 1664.12,-14.5001 1664.12,-21.5001"/>
</g>
<!-- node29 -->
<g id="node30" class="node"><title>node29</title>
<ellipse fill="none" stroke="black" cx="1137.17" cy="-587" rx="46.5926" ry="18"/>
<text text-anchor="middle" x="1137.17" y="-583.3" font-family="Times New Roman,serif" font-size="14.00">(29) AND</text>
</g>
<!-- node15&#45;&gt;node29 -->
<g id="edge43" class="edge"><title>node15&#45;&gt;node29</title>
<path fill="none" stroke="black" d="M1025.41,-613.772C1034.05,-611.501 1043.2,-609.135 1051.73,-607 1063.03,-604.171 1075.21,-601.226 1086.71,-598.493"/>
<polygon fill="black" stroke="black" points="1087.67,-601.862 1096.6,-596.154 1086.06,-595.05 1087.67,-601.862"/>
<text text-anchor="middle" x="1061.73" y="-610.8" font-family="Times New Roman,serif" font-size="14.00"> (0)</text>
</g>
<!-- node32 -->
<g id="node33" class="node"><title>node32</title>
<ellipse fill="none" stroke="black" cx="1137.17" cy="-378" rx="47.3916" ry="18"/>
<text text-anchor="middle" x="1137.17" y="-374.3" font-family="Times New Roman,serif" font-size="14.00">(32) XOR</text>
</g>
<!-- node15&#45;&gt;node32 -->
<g id="edge50" class="edge"><title>node15&#45;&gt;node32</title>
<path fill="none" stroke="black" d="M1001.68,-606.719C1012.18,-593.201 1025.9,-573.488 1033.73,-554 1050.56,-512.096 1029.76,-493.455 1051.73,-454 1064.01,-431.934 1085.14,-412.928 1103.18,-399.442"/>
<polygon fill="black" stroke="black" points="1105.67,-401.961 1111.74,-393.275 1101.58,-396.281 1105.67,-401.961"/>
<text text-anchor="middle" x="1061.73" y="-457.8" font-family="Times New Roman,serif" font-size="14.00"> (1)</text>
</g>
<!-- node16&#45;&gt;node25 -->
<g id="edge35" class="edge"><title>node16&#45;&gt;node25</title>
<path fill="none" stroke="black" d="M345.922,-790.908C480.894,-787.436 869.34,-775.415 920.836,-751 940.581,-741.639 957.239,-723.316 968.669,-707.903"/>
<polygon fill="black" stroke="black" points="971.545,-709.899 974.468,-699.715 965.832,-705.853 971.545,-709.899"/>
<text text-anchor="middle" x="612.857" y="-785.8" font-family="Times New Roman,serif" font-size="14.00"> (0)</text>
</g>
<!-- node40 -->
<g id="node41" class="node"><title>node40</title>
<ellipse fill="none" stroke="black" cx="1288.07" cy="-768" rx="46.5926" ry="18"/>
<text text-anchor="middle" x="1288.07" y="-764.3" font-family="Times New Roman,serif" font-size="14.00">(40) AND</text>
</g>
<!-- node16&#45;&gt;node40 -->
<g id="edge65" class="edge"><title>node16&#45;&gt;node40</title>
<path fill="none" stroke="black" d="M343.414,-797.929C350.188,-798.716 357.114,-799.442 363.676,-800 570.324,-817.583 622.446,-821 829.841,-821 829.841,-821 829.841,-821 1138.17,-821 1179.27,-821 1223.25,-802.855 1252.67,-787.799"/>
<polygon fill="black" stroke="black" points="1254.47,-790.805 1261.69,-783.046 1251.21,-784.613 1254.47,-790.805"/>
<text text-anchor="middle" x="830.841" y="-824.8" font-family="Times New Roman,serif" font-size="14.00"> (0)</text>
</g>
<!-- node17 -->
<g id="node18" class="node"><title>node17</title>
<ellipse fill="none" stroke="black" cx="830.841" cy="-274" rx="51.9908" ry="18"/>
<text text-anchor="middle" x="830.841" y="-270.3" font-family="Times New Roman,serif" font-size="14.00">(17) ONES</text>
</g>
<!-- node19 -->
<g id="node20" class="node"><title>node19</title>
<ellipse fill="none" stroke="black" cx="986.282" cy="-282" rx="40.8928" ry="18"/>
<text text-anchor="middle" x="986.282" y="-278.3" font-family="Times New Roman,serif" font-size="14.00">(19) OR</text>
</g>
<!-- node17&#45;&gt;node19 -->
<g id="edge23" class="edge"><title>node17&#45;&gt;node19</title>
<path fill="none" stroke="black" d="M882.508,-276.642C899.424,-277.524 918.257,-278.506 935.133,-279.385"/>
<polygon fill="black" stroke="black" points="935.185,-282.893 945.354,-279.918 935.549,-275.902 935.185,-282.893"/>
<text text-anchor="middle" x="910.836" y="-281.8" font-family="Times New Roman,serif" font-size="14.00"> (0)</text>
</g>
<!-- node39 -->
<g id="node40" class="node"><title>node39</title>
<ellipse fill="none" stroke="black" cx="986.282" cy="-120" rx="46.5926" ry="18"/>
<text text-anchor="middle" x="986.282" y="-116.3" font-family="Times New Roman,serif" font-size="14.00">(39) AND</text>
</g>
<!-- node17&#45;&gt;node39 -->
<g id="edge63" class="edge"><title>node17&#45;&gt;node39</title>
<path fill="none" stroke="black" d="M843.721,-256.328C861.937,-230.152 898.878,-180.562 938.836,-147 941.883,-144.441 945.203,-141.985 948.623,-139.669"/>
<polygon fill="black" stroke="black" points="950.649,-142.529 957.224,-134.221 946.903,-136.616 950.649,-142.529"/>
<text text-anchor="middle" x="910.836" y="-184.8" font-family="Times New Roman,serif" font-size="14.00"> (0)</text>
</g>
<!-- node18 -->
<g id="node19" class="node"><title>node18</title>
<ellipse fill="none" stroke="black" cx="830.841" cy="-442" rx="51.9908" ry="18"/>
<text text-anchor="middle" x="830.841" y="-438.3" font-family="Times New Roman,serif" font-size="14.00">(18) ONES</text>
</g>
<!-- node18&#45;&gt;node19 -->
<g id="edge24" class="edge"><title>node18&#45;&gt;node19</title>
<path fill="none" stroke="black" d="M882.814,-439.591C896.888,-436.462 910.982,-430.614 920.836,-420 953.35,-384.981 913.136,-354.286 938.836,-314 941.864,-309.253 945.875,-305.024 950.275,-301.32"/>
<polygon fill="black" stroke="black" points="952.545,-303.994 958.486,-295.221 948.371,-298.375 952.545,-303.994"/>
<text text-anchor="middle" x="910.836" y="-436.8" font-family="Times New Roman,serif" font-size="14.00"> (1)</text>
</g>
<!-- node18&#45;&gt;node23 -->
<g id="edge32" class="edge"><title>node18&#45;&gt;node23</title>
<path fill="none" stroke="black" d="M874.091,-452.164C882.91,-454.183 892.163,-456.225 900.836,-458 911.228,-460.126 922.375,-462.231 933.052,-464.161"/>
<polygon fill="black" stroke="black" points="932.646,-467.644 943.105,-465.953 933.875,-460.752 932.646,-467.644"/>
<text text-anchor="middle" x="910.836" y="-464.8" font-family="Times New Roman,serif" font-size="14.00"> (1)</text>
</g>
<!-- node22 -->
<g id="node23" class="node"><title>node22</title>
<ellipse fill="none" stroke="black" cx="1137.17" cy="-324" rx="46.5926" ry="18"/>
<text text-anchor="middle" x="1137.17" y="-320.3" font-family="Times New Roman,serif" font-size="14.00">(22) AND</text>
</g>
<!-- node19&#45;&gt;node22 -->
<g id="edge29" class="edge"><title>node19&#45;&gt;node22</title>
<path fill="none" stroke="black" d="M1011.26,-296.369C1023.05,-302.787 1037.72,-309.829 1051.73,-314 1060.86,-316.72 1070.76,-318.704 1080.46,-320.151"/>
<polygon fill="black" stroke="black" points="1080.08,-323.631 1090.45,-321.472 1081,-316.691 1080.08,-323.631"/>
<text text-anchor="middle" x="1061.73" y="-321.8" font-family="Times New Roman,serif" font-size="14.00"> (0)</text>
</g>
<!-- node20&#45;&gt;node22 -->
<g id="edge30" class="edge"><title>node20&#45;&gt;node22</title>
<path fill="none" stroke="black" d="M1015.31,-242.256C1021.64,-246.02 1028.14,-250.345 1033.73,-255 1043.17,-262.866 1042.24,-268.18 1051.73,-276 1065.52,-287.372 1082.37,-297.556 1097.38,-305.586"/>
<polygon fill="black" stroke="black" points="1095.95,-308.791 1106.44,-310.299 1099.18,-302.58 1095.95,-308.791"/>
<text text-anchor="middle" x="1061.73" y="-293.8" font-family="Times New Roman,serif" font-size="14.00"> (1)</text>
</g>
<!-- node35 -->
<g id="node36" class="node"><title>node35</title>
<ellipse fill="none" stroke="black" cx="1288.07" cy="-167" rx="47.3916" ry="18"/>
<text text-anchor="middle" x="1288.07" y="-163.3" font-family="Times New Roman,serif" font-size="14.00">(35) XOR</text>
</g>
<!-- node20&#45;&gt;node35 -->
<g id="edge56" class="edge"><title>node20&#45;&gt;node35</title>
<path fill="none" stroke="black" d="M1013.49,-213.142C1020.14,-209.269 1027.24,-205.045 1033.73,-201 1041.89,-195.915 1043.11,-193.258 1051.73,-189 1108.57,-160.92 1182.53,-158.721 1232.23,-161.391"/>
<polygon fill="black" stroke="black" points="1232.26,-164.9 1242.46,-162.028 1232.69,-157.913 1232.26,-164.9"/>
<text text-anchor="middle" x="1137.17" y="-176.8" font-family="Times New Roman,serif" font-size="14.00"> (1)</text>
</g>
<!-- node38 -->
<g id="node39" class="node"><title>node38</title>
<ellipse fill="none" stroke="black" cx="1589.85" cy="-299" rx="47.3916" ry="18"/>
<text text-anchor="middle" x="1589.85" y="-295.3" font-family="Times New Roman,serif" font-size="14.00">(38) XOR</text>
</g>
<!-- node20&#45;&gt;node38 -->
<g id="edge61" class="edge"><title>node20&#45;&gt;node38</title>
<path fill="none" stroke="black" d="M1019.53,-240.837C1049.31,-251.523 1095.02,-265 1136.17,-265 1136.17,-265 1136.17,-265 1439.96,-265 1476.17,-265 1516.11,-274.675 1545.51,-283.703"/>
<polygon fill="black" stroke="black" points="1544.46,-287.043 1555.05,-286.725 1546.57,-280.37 1544.46,-287.043"/>
<text text-anchor="middle" x="1288.07" y="-268.8" font-family="Times New Roman,serif" font-size="14.00"> (0)</text>
</g>
<!-- node21&#45;&gt;node26 -->
<g id="edge38" class="edge"><title>node21&#45;&gt;node26</title>
<path fill="none" stroke="black" d="M872.96,-504.307C891.946,-508.143 914.668,-512.734 934.693,-516.779"/>
<polygon fill="black" stroke="black" points="934.086,-520.227 944.581,-518.777 935.472,-513.366 934.086,-520.227"/>
<text text-anchor="middle" x="910.836" y="-516.8" font-family="Times New Roman,serif" font-size="14.00"> (1)</text>
</g>
<!-- node21&#45;&gt;node30 -->
<g id="edge45" class="edge"><title>node21&#45;&gt;node30</title>
<path fill="none" stroke="black" d="M865.261,-483.417C871.851,-479.636 878.163,-474.883 882.836,-469 902.282,-444.521 884.9,-427.896 900.836,-401 907.086,-390.452 915.447,-393.013 920.836,-382 956.369,-309.386 895.098,-268.987 938.836,-201 941.044,-197.568 943.854,-194.521 946.995,-191.827"/>
<polygon fill="black" stroke="black" points="949.251,-194.515 955.333,-185.84 945.169,-188.829 949.251,-194.515"/>
<text text-anchor="middle" x="910.836" y="-404.8" font-family="Times New Roman,serif" font-size="14.00"> (0)</text>
</g>
<!-- node33 -->
<g id="node34" class="node"><title>node33</title>
<ellipse fill="none" stroke="black" cx="1288.07" cy="-352" rx="47.3916" ry="18"/>
<text text-anchor="middle" x="1288.07" y="-348.3" font-family="Times New Roman,serif" font-size="14.00">(33) XOR</text>
</g>
<!-- node22&#45;&gt;node33 -->
<g id="edge52" class="edge"><title>node22&#45;&gt;node33</title>
<path fill="none" stroke="black" d="M1179.65,-331.8C1196.93,-335.049 1217.18,-338.857 1235.41,-342.285"/>
<polygon fill="black" stroke="black" points="1234.82,-345.737 1245.3,-344.145 1236.12,-338.857 1234.82,-345.737"/>
<text text-anchor="middle" x="1212.62" y="-342.8" font-family="Times New Roman,serif" font-size="14.00"> (1)</text>
</g>
<!-- node34 -->
<g id="node35" class="node"><title>node34</title>
<ellipse fill="none" stroke="black" cx="1137.17" cy="-473" rx="40.8928" ry="18"/>
<text text-anchor="middle" x="1137.17" y="-469.3" font-family="Times New Roman,serif" font-size="14.00">(34) OR</text>
</g>
<!-- node23&#45;&gt;node34 -->
<g id="edge53" class="edge"><title>node23&#45;&gt;node34</title>
<path fill="none" stroke="black" d="M1033.17,-473C1049.73,-473 1068.51,-473 1085.45,-473"/>
<polygon fill="black" stroke="black" points="1085.73,-476.5 1095.73,-473 1085.73,-469.5 1085.73,-476.5"/>
<text text-anchor="middle" x="1061.73" y="-476.8" font-family="Times New Roman,serif" font-size="14.00"> (0)</text>
</g>
<!-- node24&#45;&gt;node27 -->
<g id="edge39" class="edge"><title>node24&#45;&gt;node27</title>
<path fill="none" stroke="black" d="M546.801,-396.204C580.316,-381.043 636.344,-355.699 673.982,-338.672"/>
<polygon fill="black" stroke="black" points="675.462,-341.845 683.13,-334.534 672.577,-335.467 675.462,-341.845"/>
<text text-anchor="middle" x="612.857" y="-383.8" font-family="Times New Roman,serif" font-size="14.00"> (0)</text>
</g>
<!-- node24&#45;&gt;node29 -->
<g id="edge44" class="edge"><title>node24&#45;&gt;node29</title>
<path fill="none" stroke="black" d="M536.15,-425.447C562.488,-448.988 614.654,-491.786 667.254,-513 808.379,-569.917 989.855,-583.226 1080.07,-586.224"/>
<polygon fill="black" stroke="black" points="1079.98,-589.723 1090.08,-586.526 1080.2,-582.726 1079.98,-589.723"/>
<text text-anchor="middle" x="830.841" y="-570.8" font-family="Times New Roman,serif" font-size="14.00"> (1)</text>
</g>
<!-- node37 -->
<g id="node38" class="node"><title>node37</title>
<ellipse fill="none" stroke="black" cx="1438.96" cy="-352" rx="46.5926" ry="18"/>
<text text-anchor="middle" x="1438.96" y="-348.3" font-family="Times New Roman,serif" font-size="14.00">(37) AND</text>
</g>
<!-- node25&#45;&gt;node37 -->
<g id="edge59" class="edge"><title>node25&#45;&gt;node37</title>
<path fill="none" stroke="black" d="M1032.59,-686.059C1105.12,-690.013 1248.02,-687.016 1335.51,-614 1408.13,-553.398 1429.5,-434.553 1435.61,-380.263"/>
<polygon fill="black" stroke="black" points="1439.12,-380.308 1436.66,-370.002 1432.16,-379.591 1439.12,-380.308"/>
<text text-anchor="middle" x="1212.62" y="-677.8" font-family="Times New Roman,serif" font-size="14.00"> (0)</text>
</g>
<!-- node36 -->
<g id="node37" class="node"><title>node36</title>
<ellipse fill="none" stroke="black" cx="1288.07" cy="-587" rx="47.3916" ry="18"/>
<text text-anchor="middle" x="1288.07" y="-583.3" font-family="Times New Roman,serif" font-size="14.00">(36) XOR</text>
</g>
<!-- node26&#45;&gt;node36 -->
<g id="edge58" class="edge"><title>node26&#45;&gt;node36</title>
<path fill="none" stroke="black" d="M1033.38,-527.344C1073.78,-528.554 1133.83,-532.569 1184.62,-545 1206.82,-550.434 1230.5,-559.881 1249.5,-568.441"/>
<polygon fill="black" stroke="black" points="1248.15,-571.673 1258.69,-572.681 1251.08,-565.316 1248.15,-571.673"/>
<text text-anchor="middle" x="1137.17" y="-548.8" font-family="Times New Roman,serif" font-size="14.00"> (1)</text>
</g>
<!-- node27&#45;&gt;node32 -->
<g id="edge49" class="edge"><title>node27&#45;&gt;node32</title>
<path fill="none" stroke="black" d="M761.026,-320.365C802.868,-320.361 866.249,-321.791 920.836,-329 979.55,-336.754 1045.81,-352.99 1089.13,-364.65"/>
<polygon fill="black" stroke="black" points="1088.26,-368.039 1098.82,-367.285 1090.09,-361.284 1088.26,-368.039"/>
<text text-anchor="middle" x="910.836" y="-332.8" font-family="Times New Roman,serif" font-size="14.00"> (0)</text>
</g>
<!-- node27&#45;&gt;node34 -->
<g id="edge54" class="edge"><title>node27&#45;&gt;node34</title>
<path fill="none" stroke="black" d="M754.126,-330.468C762.28,-332.365 770.832,-334.297 778.845,-336 841.68,-349.355 860.066,-342.179 920.836,-363 989.326,-386.466 1063.26,-428.236 1104.22,-452.999"/>
<polygon fill="black" stroke="black" points="1102.58,-456.093 1112.94,-458.31 1106.22,-450.116 1102.58,-456.093"/>
<text text-anchor="middle" x="910.836" y="-366.8" font-family="Times New Roman,serif" font-size="14.00"> (1)</text>
</g>
<!-- node28&#45;&gt;node39 -->
<g id="edge64" class="edge"><title>node28&#45;&gt;node39</title>
<path fill="none" stroke="black" d="M439.42,-203.516C471.312,-187.36 526.136,-161.931 576.46,-150 699.891,-120.736 849.636,-117.68 929.211,-118.523"/>
<polygon fill="black" stroke="black" points="929.451,-122.026 939.496,-118.658 929.543,-115.027 929.451,-122.026"/>
<text text-anchor="middle" x="714.05" y="-135.8" font-family="Times New Roman,serif" font-size="14.00"> (1)</text>
</g>
<!-- node29&#45;&gt;node36 -->
<g id="edge57" class="edge"><title>node29&#45;&gt;node36</title>
<path fill="none" stroke="black" d="M1184.06,-587C1198.64,-587 1214.94,-587 1230.2,-587"/>
<polygon fill="black" stroke="black" points="1230.56,-590.5 1240.56,-587 1230.56,-583.5 1230.56,-590.5"/>
<text text-anchor="middle" x="1212.62" y="-590.8" font-family="Times New Roman,serif" font-size="14.00"> (0)</text>
</g>
<!-- node30&#45;&gt;node31 -->
<g id="edge48" class="edge"><title>node30&#45;&gt;node31</title>
<path fill="none" stroke="black" d="M1020.7,-183.874C1041.09,-189.9 1067.45,-197.69 1089.83,-204.306"/>
<polygon fill="black" stroke="black" points="1088.9,-207.678 1099.48,-207.156 1090.88,-200.965 1088.9,-207.678"/>
<text text-anchor="middle" x="1061.73" y="-201.8" font-family="Times New Roman,serif" font-size="14.00"> (1)</text>
</g>
<!-- node31&#45;&gt;node35 -->
<g id="edge55" class="edge"><title>node31&#45;&gt;node35</title>
<path fill="none" stroke="black" d="M1172.71,-206.171C1193.51,-199.046 1220.22,-189.898 1242.59,-182.234"/>
<polygon fill="black" stroke="black" points="1243.88,-185.493 1252.2,-178.941 1241.61,-178.871 1243.88,-185.493"/>
<text text-anchor="middle" x="1212.62" y="-198.8" font-family="Times New Roman,serif" font-size="14.00"> (0)</text>
</g>
<!-- node32&#45;&gt;node33 -->
<g id="edge51" class="edge"><title>node32&#45;&gt;node33</title>
<path fill="none" stroke="black" d="M1180.84,-370.549C1197.58,-367.627 1216.95,-364.243 1234.54,-361.173"/>
<polygon fill="black" stroke="black" points="1235.4,-364.575 1244.65,-359.407 1234.2,-357.679 1235.4,-364.575"/>
<text text-anchor="middle" x="1212.62" y="-369.8" font-family="Times New Roman,serif" font-size="14.00"> (0)</text>
</g>
<!-- node33&#45;&gt;node37 -->
<g id="edge60" class="edge"><title>node33&#45;&gt;node37</title>
<path fill="none" stroke="black" d="M1335.77,-352C1350.32,-352 1366.52,-352 1381.66,-352"/>
<polygon fill="black" stroke="black" points="1381.93,-355.5 1391.93,-352 1381.93,-348.5 1381.93,-355.5"/>
<text text-anchor="middle" x="1363.51" y="-355.8" font-family="Times New Roman,serif" font-size="14.00"> (1)</text>
</g>
<!-- node34&#45;&gt;node40 -->
<g id="edge66" class="edge"><title>node34&#45;&gt;node40</title>
<path fill="none" stroke="black" d="M1161.27,-487.881C1169.19,-493.612 1177.78,-500.577 1184.62,-508 1206.01,-531.207 1209.23,-539.417 1222.62,-568 1237.22,-599.172 1265.32,-693.08 1279.08,-740.283"/>
<polygon fill="black" stroke="black" points="1275.79,-741.517 1281.94,-750.144 1282.51,-739.564 1275.79,-741.517"/>
<text text-anchor="middle" x="1212.62" y="-571.8" font-family="Times New Roman,serif" font-size="14.00"> (1)</text>
</g>
<!-- node41 -->
<g id="node42" class="node"><title>node41</title>
<ellipse fill="none" stroke="black" cx="1438.96" cy="-144" rx="47.3916" ry="18"/>
<text text-anchor="middle" x="1438.96" y="-140.3" font-family="Times New Roman,serif" font-size="14.00">(41) XOR</text>
</g>
<!-- node35&#45;&gt;node41 -->
<g id="edge68" class="edge"><title>node35&#45;&gt;node41</title>
<path fill="none" stroke="black" d="M1332.53,-160.286C1348.74,-157.782 1367.33,-154.91 1384.34,-152.282"/>
<polygon fill="black" stroke="black" points="1385.35,-155.669 1394.69,-150.683 1384.28,-148.751 1385.35,-155.669"/>
<text text-anchor="middle" x="1363.51" y="-159.8" font-family="Times New Roman,serif" font-size="14.00"> (1)</text>
</g>
<!-- node45 -->
<g id="node46" class="node"><title>node45</title>
<ellipse fill="none" stroke="black" cx="1717.19" cy="-661" rx="42.7926" ry="18"/>
<text text-anchor="middle" x="1717.19" y="-657.3" font-family="Times New Roman,serif" font-size="14.00">Output 3</text>
</g>
<!-- node36&#45;&gt;node45 -->
<g id="edge72" class="edge"><title>node36&#45;&gt;node45</title>
<path fill="none" stroke="black" d="M1331.58,-594.366C1411.29,-608.175 1582.73,-637.879 1667.17,-652.506"/>
<polygon fill="black" stroke="black" points="1666.81,-655.997 1677.26,-654.256 1668.01,-649.1 1666.81,-655.997"/>
</g>
<!-- node37&#45;&gt;node38 -->
<g id="edge62" class="edge"><title>node37&#45;&gt;node38</title>
<path fill="none" stroke="black" d="M1474.12,-339.841C1495.13,-332.36 1522.28,-322.697 1544.89,-314.649"/>
<polygon fill="black" stroke="black" points="1546.34,-317.845 1554.59,-311.194 1544,-311.251 1546.34,-317.845"/>
<text text-anchor="middle" x="1514.4" y="-331.8" font-family="Times New Roman,serif" font-size="14.00"> (1)</text>
</g>
<!-- node46 -->
<g id="node47" class="node"><title>node46</title>
<ellipse fill="none" stroke="black" cx="1717.19" cy="-299" rx="42.7926" ry="18"/>
<text text-anchor="middle" x="1717.19" y="-295.3" font-family="Times New Roman,serif" font-size="14.00">Output 4</text>
</g>
<!-- node38&#45;&gt;node46 -->
<g id="edge73" class="edge"><title>node38&#45;&gt;node46</title>
<path fill="none" stroke="black" d="M1637.52,-299C1646.13,-299 1655.16,-299 1663.92,-299"/>
<polygon fill="black" stroke="black" points="1664.03,-302.5 1674.03,-299 1664.03,-295.5 1664.03,-302.5"/>
</g>
<!-- node39&#45;&gt;node41 -->
<g id="edge67" class="edge"><title>node39&#45;&gt;node41</title>
<path fill="none" stroke="black" d="M1032.98,-122.433C1116.04,-126.857 1291.52,-136.202 1381.76,-141.007"/>
<polygon fill="black" stroke="black" points="1381.63,-144.505 1391.81,-141.542 1382.01,-137.515 1381.63,-144.505"/>
<text text-anchor="middle" x="1212.62" y="-135.8" font-family="Times New Roman,serif" font-size="14.00"> (0)</text>
</g>
<!-- node47 -->
<g id="node48" class="node"><title>node47</title>
<ellipse fill="none" stroke="black" cx="1717.19" cy="-768" rx="42.7926" ry="18"/>
<text text-anchor="middle" x="1717.19" y="-764.3" font-family="Times New Roman,serif" font-size="14.00">Output 5</text>
</g>
<!-- node40&#45;&gt;node47 -->
<g id="edge74" class="edge"><title>node40&#45;&gt;node47</title>
<path fill="none" stroke="black" d="M1335.18,-768C1415.32,-768 1579.76,-768 1663.97,-768"/>
<polygon fill="black" stroke="black" points="1664.08,-771.5 1674.08,-768 1664.08,-764.5 1664.08,-771.5"/>
</g>
<!-- node44 -->
<g id="node45" class="node"><title>node44</title>
<ellipse fill="none" stroke="black" cx="1717.19" cy="-144" rx="42.7926" ry="18"/>
<text text-anchor="middle" x="1717.19" y="-140.3" font-family="Times New Roman,serif" font-size="14.00">Output 2</text>
</g>
<!-- node41&#45;&gt;node44 -->
<g id="edge71" class="edge"><title>node41&#45;&gt;node44</title>
<path fill="none" stroke="black" d="M1486.5,-144C1535.56,-144 1612.65,-144 1663.8,-144"/>
<polygon fill="black" stroke="black" points="1663.99,-147.5 1673.99,-144 1663.99,-140.5 1663.99,-147.5"/>
</g>
</g>
</svg>
