<?xml version="1.0" encoding="UTF-8" standalone="no"?>
<!DOCTYPE svg PUBLIC "-//W3C//DTD SVG 1.1//EN"
 "http://www.w3.org/Graphics/SVG/1.1/DTD/svg11.dtd">
<!-- Generated by graphviz version 2.38.0 (20140413.2041)
 -->
<!-- Title: NeuralNetwork Pages: 1 -->
<svg width="288pt" height="109pt"
 viewBox="0.00 0.00 288.00 109.33" xmlns="http://www.w3.org/2000/svg" xmlns:xlink="http://www.w3.org/1999/xlink">
<g id="graph0" class="graph" transform="scale(0.261548 0.261548) rotate(0) translate(4 414)">
<title>NeuralNetwork</title>
<polygon fill="white" stroke="none" points="-4,4 -4,-414 1097.14,-414 1097.14,4 -4,4"/>
<!-- node0 -->
<g id="node1" class="node"><title>node0</title>
<ellipse fill="none" stroke="black" cx="42.2463" cy="-182" rx="42.4939" ry="18"/>
<text text-anchor="middle" x="42.2463" y="-178.3" font-family="Times New Roman,serif" font-size="14.00">(0) Input</text>
</g>
<!-- node6 -->
<g id="node7" class="node"><title>node6</title>
<ellipse fill="none" stroke="black" cx="183.389" cy="-122" rx="42.7926" ry="18"/>
<text text-anchor="middle" x="183.389" y="-118.3" font-family="Times New Roman,serif" font-size="14.00">(6) XOR</text>
</g>
<!-- node0&#45;&gt;node6 -->
<g id="edge4" class="edge"><title>node0&#45;&gt;node6</title>
<path fill="none" stroke="black" d="M72.7548,-169.276C93.4161,-160.366 121.229,-148.373 143.67,-138.696"/>
<polygon fill="black" stroke="black" points="145.126,-141.88 152.923,-134.706 142.354,-135.452 145.126,-141.88"/>
<text text-anchor="middle" x="112.493" y="-158.8" font-family="Times New Roman,serif" font-size="14.00"> (1)</text>
</g>
<!-- node7 -->
<g id="node8" class="node"><title>node7</title>
<ellipse fill="none" stroke="black" cx="329.731" cy="-177" rx="36.2938" ry="18"/>
<text text-anchor="middle" x="329.731" y="-173.3" font-family="Times New Roman,serif" font-size="14.00">(7) OR</text>
</g>
<!-- node0&#45;&gt;node7 -->
<g id="edge6" class="edge"><title>node0&#45;&gt;node7</title>
<path fill="none" stroke="black" d="M84.7581,-181.273C137.496,-180.349 228.215,-178.76 282.924,-177.802"/>
<polygon fill="black" stroke="black" points="283.096,-181.3 293.033,-177.625 282.973,-174.301 283.096,-181.3"/>
<text text-anchor="middle" x="183.389" y="-183.8" font-family="Times New Roman,serif" font-size="14.00"> (1)</text>
</g>
<!-- node1 -->
<g id="node2" class="node"><title>node1</title>
<ellipse fill="none" stroke="black" cx="42.2463" cy="-365" rx="42.4939" ry="18"/>
<text text-anchor="middle" x="42.2463" y="-361.3" font-family="Times New Roman,serif" font-size="14.00">(1) Input</text>
</g>
<!-- node5 -->
<g id="node6" class="node"><title>node5</title>
<ellipse fill="none" stroke="black" cx="183.389" cy="-340" rx="42.7926" ry="18"/>
<text text-anchor="middle" x="183.389" y="-336.3" font-family="Times New Roman,serif" font-size="14.00">(5) XOR</text>
</g>
<!-- node1&#45;&gt;node5 -->
<g id="edge1" class="edge"><title>node1&#45;&gt;node5</title>
<path fill="none" stroke="black" d="M81.6359,-358.102C97.6233,-355.23 116.381,-351.86 133.349,-348.811"/>
<polygon fill="black" stroke="black" points="134.418,-352.175 143.641,-346.962 133.18,-345.285 134.418,-352.175"/>
<text text-anchor="middle" x="112.493" y="-356.8" font-family="Times New Roman,serif" font-size="14.00"> (0)</text>
</g>
<!-- node9 -->
<g id="node10" class="node"><title>node9</title>
<ellipse fill="none" stroke="black" cx="476.073" cy="-283" rx="42.7926" ry="18"/>
<text text-anchor="middle" x="476.073" y="-279.3" font-family="Times New Roman,serif" font-size="14.00">(9) XOR</text>
</g>
<!-- node1&#45;&gt;node9 -->
<g id="edge8" class="edge"><title>node1&#45;&gt;node9</title>
<path fill="none" stroke="black" d="M55.6683,-347.689C66.391,-334.262 83.1744,-316.547 102.493,-308 209.793,-260.527 351.599,-267.684 425.489,-275.954"/>
<polygon fill="black" stroke="black" points="425.114,-279.434 435.454,-277.122 425.93,-272.481 425.114,-279.434"/>
<text text-anchor="middle" x="254.285" y="-276.8" font-family="Times New Roman,serif" font-size="14.00"> (0)</text>
</g>
<!-- node12 -->
<g id="node13" class="node"><title>node12</title>
<ellipse fill="none" stroke="black" cx="773.306" cy="-322" rx="47.3916" ry="18"/>
<text text-anchor="middle" x="773.306" y="-318.3" font-family="Times New Roman,serif" font-size="14.00">(12) XOR</text>
</g>
<!-- node1&#45;&gt;node12 -->
<g id="edge15" class="edge"><title>node1&#45;&gt;node12</title>
<path fill="none" stroke="black" d="M75.7134,-376.086C103.645,-384.632 145.197,-395 182.389,-395 182.389,-395 182.389,-395 623.415,-395 669.594,-395 716.359,-366.339 744.845,-344.935"/>
<polygon fill="black" stroke="black" points="747.311,-347.452 753.078,-338.565 743.027,-341.916 747.311,-347.452"/>
<text text-anchor="middle" x="405.176" y="-398.8" font-family="Times New Roman,serif" font-size="14.00"> (1)</text>
</g>
<!-- node2 -->
<g id="node3" class="node"><title>node2</title>
<ellipse fill="none" stroke="black" cx="42.2463" cy="-120" rx="42.4939" ry="18"/>
<text text-anchor="middle" x="42.2463" y="-116.3" font-family="Times New Roman,serif" font-size="14.00">(2) Input</text>
</g>
<!-- node2&#45;&gt;node6 -->
<g id="edge3" class="edge"><title>node2&#45;&gt;node6</title>
<path fill="none" stroke="black" d="M84.7862,-120.492C96.9394,-120.645 110.248,-120.821 122.493,-121 125.04,-121.037 127.649,-121.077 130.284,-121.117"/>
<polygon fill="black" stroke="black" points="130.446,-124.62 140.5,-121.279 130.557,-117.621 130.446,-124.62"/>
<text text-anchor="middle" x="112.493" y="-124.8" font-family="Times New Roman,serif" font-size="14.00"> (0)</text>
</g>
<!-- node3 -->
<g id="node4" class="node"><title>node3</title>
<ellipse fill="none" stroke="black" cx="42.2463" cy="-237" rx="42.4939" ry="18"/>
<text text-anchor="middle" x="42.2463" y="-233.3" font-family="Times New Roman,serif" font-size="14.00">(3) Input</text>
</g>
<!-- node3&#45;&gt;node5 -->
<g id="edge2" class="edge"><title>node3&#45;&gt;node5</title>
<path fill="none" stroke="black" d="M64.0773,-252.42C87.7468,-269.941 126.543,-298.66 153.216,-318.405"/>
<polygon fill="black" stroke="black" points="151.295,-321.338 161.415,-324.474 155.46,-315.712 151.295,-321.338"/>
<text text-anchor="middle" x="112.493" y="-297.8" font-family="Times New Roman,serif" font-size="14.00"> (1)</text>
</g>
<!-- node11 -->
<g id="node12" class="node"><title>node11</title>
<ellipse fill="none" stroke="black" cx="622.415" cy="-241" rx="47.3916" ry="18"/>
<text text-anchor="middle" x="622.415" y="-237.3" font-family="Times New Roman,serif" font-size="14.00">(11) XOR</text>
</g>
<!-- node3&#45;&gt;node11 -->
<g id="edge13" class="edge"><title>node3&#45;&gt;node11</title>
<path fill="none" stroke="black" d="M84.3227,-234.298C112.017,-232.706 149.384,-231 182.389,-231 182.389,-231 182.389,-231 477.073,-231 506.697,-231 539.66,-233.122 566.598,-235.411"/>
<polygon fill="black" stroke="black" points="566.339,-238.902 576.608,-236.293 566.953,-231.929 566.339,-238.902"/>
<text text-anchor="middle" x="329.731" y="-234.8" font-family="Times New Roman,serif" font-size="14.00"> (1)</text>
</g>
<!-- node4 -->
<g id="node5" class="node"><title>node4</title>
<ellipse fill="none" stroke="black" cx="42.2463" cy="-35" rx="42.4939" ry="18"/>
<text text-anchor="middle" x="42.2463" y="-31.3" font-family="Times New Roman,serif" font-size="14.00">(4) Input</text>
</g>
<!-- node13 -->
<g id="node14" class="node"><title>node13</title>
<ellipse fill="none" stroke="black" cx="476.073" cy="-122" rx="40.8928" ry="18"/>
<text text-anchor="middle" x="476.073" y="-118.3" font-family="Times New Roman,serif" font-size="14.00">(13) OR</text>
</g>
<!-- node4&#45;&gt;node13 -->
<g id="edge17" class="edge"><title>node4&#45;&gt;node13</title>
<path fill="none" stroke="black" d="M81.596,-41.687C163.137,-55.9346 348.637,-88.5146 377.176,-95 395.285,-99.1149 415.064,-104.414 432.074,-109.227"/>
<polygon fill="black" stroke="black" points="431.159,-112.606 441.736,-111.992 433.084,-105.876 431.159,-112.606"/>
<text text-anchor="middle" x="254.285" y="-77.8" font-family="Times New Roman,serif" font-size="14.00"> (1)</text>
</g>
<!-- node17 -->
<g id="node18" class="node"><title>node17</title>
<ellipse fill="none" stroke="black" cx="329.731" cy="-18" rx="47.3916" ry="18"/>
<text text-anchor="middle" x="329.731" y="-14.3" font-family="Times New Roman,serif" font-size="14.00">(17) XOR</text>
</g>
<!-- node4&#45;&gt;node17 -->
<g id="edge23" class="edge"><title>node4&#45;&gt;node17</title>
<path fill="none" stroke="black" d="M84.1492,-32.5643C133.643,-29.617 217.222,-24.6401 272.687,-21.3373"/>
<polygon fill="black" stroke="black" points="272.927,-24.8293 282.702,-20.7409 272.511,-17.8416 272.927,-24.8293"/>
<text text-anchor="middle" x="183.389" y="-33.8" font-family="Times New Roman,serif" font-size="14.00"> (0)</text>
</g>
<!-- node10 -->
<g id="node11" class="node"><title>node10</title>
<ellipse fill="none" stroke="black" cx="622.415" cy="-322" rx="46.5926" ry="18"/>
<text text-anchor="middle" x="622.415" y="-318.3" font-family="Times New Roman,serif" font-size="14.00">(10) AND</text>
</g>
<!-- node5&#45;&gt;node10 -->
<g id="edge10" class="edge"><title>node5&#45;&gt;node10</title>
<path fill="none" stroke="black" d="M226.293,-338.274C305.412,-335.015 476.796,-327.956 565.579,-324.3"/>
<polygon fill="black" stroke="black" points="565.877,-327.791 575.725,-323.882 565.589,-320.796 565.877,-327.791"/>
<text text-anchor="middle" x="405.176" y="-334.8" font-family="Times New Roman,serif" font-size="14.00"> (0)</text>
</g>
<!-- node6&#45;&gt;node7 -->
<g id="edge5" class="edge"><title>node6&#45;&gt;node7</title>
<path fill="none" stroke="black" d="M215.709,-133.934C237.764,-142.338 267.408,-153.634 290.804,-162.548"/>
<polygon fill="black" stroke="black" points="289.816,-165.917 300.407,-166.208 292.309,-159.376 289.816,-165.917"/>
<text text-anchor="middle" x="254.285" y="-154.8" font-family="Times New Roman,serif" font-size="14.00"> (0)</text>
</g>
<!-- node8 -->
<g id="node9" class="node"><title>node8</title>
<ellipse fill="none" stroke="black" cx="329.731" cy="-122" rx="42.4939" ry="18"/>
<text text-anchor="middle" x="329.731" y="-118.3" font-family="Times New Roman,serif" font-size="14.00">(8) NEG</text>
</g>
<!-- node6&#45;&gt;node8 -->
<g id="edge7" class="edge"><title>node6&#45;&gt;node8</title>
<path fill="none" stroke="black" d="M226.277,-121.212C232.319,-121.124 238.461,-121.049 244.285,-121 254.951,-120.911 266.375,-120.953 277.264,-121.06"/>
<polygon fill="black" stroke="black" points="277.458,-124.562 287.498,-121.179 277.539,-117.562 277.458,-124.562"/>
<text text-anchor="middle" x="254.285" y="-124.8" font-family="Times New Roman,serif" font-size="14.00"> (0)</text>
</g>
<!-- node6&#45;&gt;node17 -->
<g id="edge24" class="edge"><title>node6&#45;&gt;node17</title>
<path fill="none" stroke="black" d="M192.507,-104.22C202.137,-85.1588 219.999,-55.4274 244.285,-39 253.104,-33.0347 263.467,-28.7624 273.856,-25.7029"/>
<polygon fill="black" stroke="black" points="274.977,-29.028 283.775,-23.1255 273.216,-22.253 274.977,-29.028"/>
<text text-anchor="middle" x="254.285" y="-42.8" font-family="Times New Roman,serif" font-size="14.00"> (1)</text>
</g>
<!-- node7&#45;&gt;node9 -->
<g id="edge9" class="edge"><title>node7&#45;&gt;node9</title>
<path fill="none" stroke="black" d="M352.14,-191.461C360.06,-196.886 369.078,-203.154 377.176,-209 400.801,-226.055 427.123,-246.007 446.518,-260.893"/>
<polygon fill="black" stroke="black" points="444.582,-263.82 454.642,-267.143 448.851,-258.271 444.582,-263.82"/>
<text text-anchor="middle" x="405.176" y="-240.8" font-family="Times New Roman,serif" font-size="14.00"> (1)</text>
</g>
<!-- node8&#45;&gt;node13 -->
<g id="edge16" class="edge"><title>node8&#45;&gt;node13</title>
<path fill="none" stroke="black" d="M372.093,-122C388.374,-122 407.231,-122 424.324,-122"/>
<polygon fill="black" stroke="black" points="424.7,-125.5 434.7,-122 424.7,-118.5 424.7,-125.5"/>
<text text-anchor="middle" x="405.176" y="-125.8" font-family="Times New Roman,serif" font-size="14.00"> (0)</text>
</g>
<!-- node9&#45;&gt;node10 -->
<g id="edge11" class="edge"><title>node9&#45;&gt;node10</title>
<path fill="none" stroke="black" d="M512.753,-292.64C531.179,-297.619 553.911,-303.761 573.813,-309.138"/>
<polygon fill="black" stroke="black" points="573.056,-312.559 583.623,-311.789 574.882,-305.802 573.056,-312.559"/>
<text text-anchor="middle" x="546.969" y="-306.8" font-family="Times New Roman,serif" font-size="14.00"> (1)</text>
</g>
<!-- node9&#45;&gt;node11 -->
<g id="edge12" class="edge"><title>node9&#45;&gt;node11</title>
<path fill="none" stroke="black" d="M511.646,-272.94C530.497,-267.455 554.095,-260.588 574.575,-254.629"/>
<polygon fill="black" stroke="black" points="575.721,-257.941 584.345,-251.786 573.765,-251.22 575.721,-257.941"/>
<text text-anchor="middle" x="546.969" y="-267.8" font-family="Times New Roman,serif" font-size="14.00"> (0)</text>
</g>
<!-- node10&#45;&gt;node12 -->
<g id="edge14" class="edge"><title>node10&#45;&gt;node12</title>
<path fill="none" stroke="black" d="M669.302,-322C683.881,-322 700.182,-322 715.439,-322"/>
<polygon fill="black" stroke="black" points="715.801,-325.5 725.8,-322 715.8,-318.5 715.801,-325.5"/>
<text text-anchor="middle" x="697.86" y="-325.8" font-family="Times New Roman,serif" font-size="14.00"> (0)</text>
</g>
<!-- node15 -->
<g id="node16" class="node"><title>node15</title>
<ellipse fill="none" stroke="black" cx="773.306" cy="-241" rx="40.8928" ry="18"/>
<text text-anchor="middle" x="773.306" y="-237.3" font-family="Times New Roman,serif" font-size="14.00">(15) OR</text>
</g>
<!-- node11&#45;&gt;node15 -->
<g id="edge19" class="edge"><title>node11&#45;&gt;node15</title>
<path fill="none" stroke="black" d="M670.116,-241C686.643,-241 705.298,-241 722.102,-241"/>
<polygon fill="black" stroke="black" points="722.291,-244.5 732.291,-241 722.291,-237.5 722.291,-244.5"/>
<text text-anchor="middle" x="697.86" y="-244.8" font-family="Times New Roman,serif" font-size="14.00"> (0)</text>
</g>
<!-- node18 -->
<g id="node19" class="node"><title>node18</title>
<ellipse fill="none" stroke="black" cx="773.306" cy="-141" rx="47.3916" ry="18"/>
<text text-anchor="middle" x="773.306" y="-137.3" font-family="Times New Roman,serif" font-size="14.00">(18) XOR</text>
</g>
<!-- node11&#45;&gt;node18 -->
<g id="edge25" class="edge"><title>node11&#45;&gt;node18</title>
<path fill="none" stroke="black" d="M646.679,-225.375C672.028,-208.35 712.723,-181.018 740.895,-162.097"/>
<polygon fill="black" stroke="black" points="742.855,-164.996 749.205,-156.515 738.952,-159.185 742.855,-164.996"/>
<text text-anchor="middle" x="697.86" y="-199.8" font-family="Times New Roman,serif" font-size="14.00"> (0)</text>
</g>
<!-- node16 -->
<g id="node17" class="node"><title>node16</title>
<ellipse fill="none" stroke="black" cx="923.548" cy="-270" rx="46.5926" ry="18"/>
<text text-anchor="middle" x="923.548" y="-266.3" font-family="Times New Roman,serif" font-size="14.00">(16) AND</text>
</g>
<!-- node12&#45;&gt;node16 -->
<g id="edge21" class="edge"><title>node12&#45;&gt;node16</title>
<path fill="none" stroke="black" d="M808.688,-309.939C829.55,-302.622 856.375,-293.212 878.746,-285.365"/>
<polygon fill="black" stroke="black" points="880.074,-288.608 888.352,-281.995 877.757,-282.003 880.074,-288.608"/>
<text text-anchor="middle" x="848.752" y="-302.8" font-family="Times New Roman,serif" font-size="14.00"> (0)</text>
</g>
<!-- node14 -->
<g id="node15" class="node"><title>node14</title>
<ellipse fill="none" stroke="black" cx="622.415" cy="-122" rx="46.2923" ry="18"/>
<text text-anchor="middle" x="622.415" y="-118.3" font-family="Times New Roman,serif" font-size="14.00">(14) NEG</text>
</g>
<!-- node13&#45;&gt;node14 -->
<g id="edge18" class="edge"><title>node13&#45;&gt;node14</title>
<path fill="none" stroke="black" d="M517.28,-122C532.266,-122 549.556,-122 565.688,-122"/>
<polygon fill="black" stroke="black" points="566.086,-125.5 576.086,-122 566.086,-118.5 566.086,-125.5"/>
<text text-anchor="middle" x="546.969" y="-125.8" font-family="Times New Roman,serif" font-size="14.00"> (0)</text>
</g>
<!-- node13&#45;&gt;node15 -->
<g id="edge20" class="edge"><title>node13&#45;&gt;node15</title>
<path fill="none" stroke="black" d="M507.161,-133.919C545.122,-148.98 612.397,-175.746 669.86,-199 690.896,-207.513 714.317,-217.106 733.449,-224.973"/>
<polygon fill="black" stroke="black" points="732.167,-228.23 742.747,-228.799 734.831,-221.757 732.167,-228.23"/>
<text text-anchor="middle" x="622.415" y="-202.8" font-family="Times New Roman,serif" font-size="14.00"> (1)</text>
</g>
<!-- node14&#45;&gt;node18 -->
<g id="edge26" class="edge"><title>node14&#45;&gt;node18</title>
<path fill="none" stroke="black" d="M668.722,-120.37C681.436,-120.499 695.233,-121.193 707.86,-123 714.124,-123.896 720.64,-125.226 727.017,-126.764"/>
<polygon fill="black" stroke="black" points="726.309,-130.196 736.867,-129.32 728.067,-123.421 726.309,-130.196"/>
<text text-anchor="middle" x="697.86" y="-126.8" font-family="Times New Roman,serif" font-size="14.00"> (1)</text>
</g>
<!-- node15&#45;&gt;node16 -->
<g id="edge22" class="edge"><title>node15&#45;&gt;node16</title>
<path fill="none" stroke="black" d="M810.95,-248.169C829.287,-251.756 851.777,-256.155 871.75,-260.063"/>
<polygon fill="black" stroke="black" points="871.14,-263.51 881.626,-261.995 872.484,-256.64 871.14,-263.51"/>
<text text-anchor="middle" x="848.752" y="-260.8" font-family="Times New Roman,serif" font-size="14.00"> (1)</text>
</g>
<!-- node21 -->
<g id="node22" class="node"><title>node21</title>
<ellipse fill="none" stroke="black" cx="1050.24" cy="-270" rx="42.7926" ry="18"/>
<text text-anchor="middle" x="1050.24" y="-266.3" font-family="Times New Roman,serif" font-size="14.00">Output 2</text>
</g>
<!-- node16&#45;&gt;node21 -->
<g id="edge29" class="edge"><title>node16&#45;&gt;node21</title>
<path fill="none" stroke="black" d="M970.624,-270C979.201,-270 988.219,-270 996.965,-270"/>
<polygon fill="black" stroke="black" points="997.066,-273.5 1007.07,-270 997.066,-266.5 997.066,-273.5"/>
</g>
<!-- node19 -->
<g id="node20" class="node"><title>node19</title>
<ellipse fill="none" stroke="black" cx="1050.24" cy="-18" rx="42.7926" ry="18"/>
<text text-anchor="middle" x="1050.24" y="-14.3" font-family="Times New Roman,serif" font-size="14.00">Output 0</text>
</g>
<!-- node17&#45;&gt;node19 -->
<g id="edge27" class="edge"><title>node17&#45;&gt;node19</title>
<path fill="none" stroke="black" d="M377.209,-18C405.5,-18 442.37,-18 475.073,-18 475.073,-18 475.073,-18 924.548,-18 948.282,-18 974.557,-18 996.844,-18"/>
<polygon fill="black" stroke="black" points="997.106,-21.5001 1007.11,-18 997.106,-14.5001 997.106,-21.5001"/>
</g>
<!-- node20 -->
<g id="node21" class="node"><title>node20</title>
<ellipse fill="none" stroke="black" cx="1050.24" cy="-141" rx="42.7926" ry="18"/>
<text text-anchor="middle" x="1050.24" y="-137.3" font-family="Times New Roman,serif" font-size="14.00">Output 1</text>
</g>
<!-- node18&#45;&gt;node20 -->
<g id="edge28" class="edge"><title>node18&#45;&gt;node20</title>
<path fill="none" stroke="black" d="M820.945,-141C869.82,-141 946.421,-141 997.222,-141"/>
<polygon fill="black" stroke="black" points="997.336,-144.5 1007.34,-141 997.336,-137.5 997.336,-144.5"/>
</g>
</g>
</svg>
