<?xml version="1.0" encoding="UTF-8" standalone="no"?>
<!DOCTYPE svg PUBLIC "-//W3C//DTD SVG 1.1//EN"
 "http://www.w3.org/Graphics/SVG/1.1/DTD/svg11.dtd">
<!-- Generated by graphviz version 2.38.0 (20140413.2041)
 -->
<!-- Title: NeuralNetwork Pages: 1 -->
<svg width="288pt" height="110pt"
 viewBox="0.00 0.00 288.00 109.97" xmlns="http://www.w3.org/2000/svg" xmlns:xlink="http://www.w3.org/1999/xlink">
<g id="graph0" class="graph" transform="scale(0.264357 0.264357) rotate(0) translate(4 412)">
<title>NeuralNetwork</title>
<polygon fill="white" stroke="none" points="-4,4 -4,-412 1085.44,-412 1085.44,4 -4,4"/>
<!-- node0 -->
<g id="node1" class="node"><title>node0</title>
<ellipse fill="none" stroke="black" cx="42.2463" cy="-217" rx="42.4939" ry="18"/>
<text text-anchor="middle" x="42.2463" y="-213.3" font-family="Times New Roman,serif" font-size="14.00">(0) Input</text>
</g>
<!-- node5 -->
<g id="node6" class="node"><title>node5</title>
<ellipse fill="none" stroke="black" cx="187.938" cy="-288" rx="42.7926" ry="18"/>
<text text-anchor="middle" x="187.938" y="-284.3" font-family="Times New Roman,serif" font-size="14.00">(5) XOR</text>
</g>
<!-- node0&#45;&gt;node5 -->
<g id="edge1" class="edge"><title>node0&#45;&gt;node5</title>
<path fill="none" stroke="black" d="M66.7764,-231.858C77.491,-238.373 90.4462,-245.907 102.493,-252 116.59,-259.131 132.431,-266.137 146.552,-272.045"/>
<polygon fill="black" stroke="black" points="145.431,-275.369 156.01,-275.949 148.102,-268.899 145.431,-275.369"/>
<text text-anchor="middle" x="112.493" y="-264.8" font-family="Times New Roman,serif" font-size="14.00"> (0)</text>
</g>
<!-- node6 -->
<g id="node7" class="node"><title>node6</title>
<ellipse fill="none" stroke="black" cx="187.938" cy="-223" rx="42.4939" ry="18"/>
<text text-anchor="middle" x="187.938" y="-219.3" font-family="Times New Roman,serif" font-size="14.00">(6) AND</text>
</g>
<!-- node0&#45;&gt;node6 -->
<g id="edge3" class="edge"><title>node0&#45;&gt;node6</title>
<path fill="none" stroke="black" d="M72.8453,-204.495C87.6841,-199.703 105.969,-196.023 122.493,-199 131.371,-200.6 140.623,-203.346 149.255,-206.422"/>
<polygon fill="black" stroke="black" points="148.092,-209.725 158.683,-209.993 150.571,-203.178 148.092,-209.725"/>
<text text-anchor="middle" x="112.493" y="-202.8" font-family="Times New Roman,serif" font-size="14.00"> (0)</text>
</g>
<!-- node1 -->
<g id="node2" class="node"><title>node1</title>
<ellipse fill="none" stroke="black" cx="42.2463" cy="-135" rx="42.4939" ry="18"/>
<text text-anchor="middle" x="42.2463" y="-131.3" font-family="Times New Roman,serif" font-size="14.00">(1) Input</text>
</g>
<!-- node10 -->
<g id="node11" class="node"><title>node10</title>
<ellipse fill="none" stroke="black" cx="760.307" cy="-150" rx="47.3916" ry="18"/>
<text text-anchor="middle" x="760.307" y="-146.3" font-family="Times New Roman,serif" font-size="14.00">(10) XOR</text>
</g>
<!-- node1&#45;&gt;node10 -->
<g id="edge11" class="edge"><title>node1&#45;&gt;node10</title>
<path fill="none" stroke="black" d="M76.2287,-145.916C105.093,-154.493 148.329,-165 186.938,-165 186.938,-165 186.938,-165 614.965,-165 645.236,-165 678.888,-161.696 706.079,-158.189"/>
<polygon fill="black" stroke="black" points="706.715,-161.635 716.163,-156.842 705.788,-154.697 706.715,-161.635"/>
<text text-anchor="middle" x="414.276" y="-168.8" font-family="Times New Roman,serif" font-size="14.00"> (0)</text>
</g>
<!-- node11 -->
<g id="node12" class="node"><title>node11</title>
<ellipse fill="none" stroke="black" cx="187.938" cy="-54" rx="47.3916" ry="18"/>
<text text-anchor="middle" x="187.938" y="-50.3" font-family="Times New Roman,serif" font-size="14.00">(11) XOR</text>
</g>
<!-- node1&#45;&gt;node11 -->
<g id="edge13" class="edge"><title>node1&#45;&gt;node11</title>
<path fill="none" stroke="black" d="M68.6047,-120.705C91.6675,-107.705 125.93,-88.3906 151.661,-73.8862"/>
<polygon fill="black" stroke="black" points="153.381,-76.9343 160.374,-68.9747 149.944,-70.8364 153.381,-76.9343"/>
<text text-anchor="middle" x="112.493" y="-103.8" font-family="Times New Roman,serif" font-size="14.00"> (0)</text>
</g>
<!-- node2 -->
<g id="node3" class="node"><title>node2</title>
<ellipse fill="none" stroke="black" cx="42.2463" cy="-363" rx="42.4939" ry="18"/>
<text text-anchor="middle" x="42.2463" y="-359.3" font-family="Times New Roman,serif" font-size="14.00">(2) Input</text>
</g>
<!-- node7 -->
<g id="node8" class="node"><title>node7</title>
<ellipse fill="none" stroke="black" cx="338.83" cy="-288" rx="42.4939" ry="18"/>
<text text-anchor="middle" x="338.83" y="-284.3" font-family="Times New Roman,serif" font-size="14.00">(7) AND</text>
</g>
<!-- node2&#45;&gt;node7 -->
<g id="edge5" class="edge"><title>node2&#45;&gt;node7</title>
<path fill="none" stroke="black" d="M80.0545,-354.618C125.609,-344.112 205.481,-325.26 273.384,-307 280.044,-305.209 287.066,-303.232 293.926,-301.25"/>
<polygon fill="black" stroke="black" points="295.185,-304.529 303.801,-298.364 293.221,-297.81 295.185,-304.529"/>
<text text-anchor="middle" x="187.938" y="-343.8" font-family="Times New Roman,serif" font-size="14.00"> (0)</text>
</g>
<!-- node14 -->
<g id="node15" class="node"><title>node14</title>
<ellipse fill="none" stroke="black" cx="338.83" cy="-390" rx="47.3916" ry="18"/>
<text text-anchor="middle" x="338.83" y="-386.3" font-family="Times New Roman,serif" font-size="14.00">(14) XOR</text>
</g>
<!-- node2&#45;&gt;node14 -->
<g id="edge19" class="edge"><title>node2&#45;&gt;node14</title>
<path fill="none" stroke="black" d="M83.8976,-366.726C135.416,-371.448 224.449,-379.608 282.227,-384.904"/>
<polygon fill="black" stroke="black" points="282.004,-388.398 292.282,-385.825 282.643,-381.427 282.004,-388.398"/>
<text text-anchor="middle" x="187.938" y="-383.8" font-family="Times New Roman,serif" font-size="14.00"> (0)</text>
</g>
<!-- node3 -->
<g id="node4" class="node"><title>node3</title>
<ellipse fill="none" stroke="black" cx="42.2463" cy="-34" rx="42.4939" ry="18"/>
<text text-anchor="middle" x="42.2463" y="-30.3" font-family="Times New Roman,serif" font-size="14.00">(3) Input</text>
</g>
<!-- node9 -->
<g id="node10" class="node"><title>node9</title>
<ellipse fill="none" stroke="black" cx="613.965" cy="-111" rx="42.7926" ry="18"/>
<text text-anchor="middle" x="613.965" y="-107.3" font-family="Times New Roman,serif" font-size="14.00">(9) XOR</text>
</g>
<!-- node3&#45;&gt;node9 -->
<g id="edge10" class="edge"><title>node3&#45;&gt;node9</title>
<path fill="none" stroke="black" d="M56.9903,-50.9408C67.9697,-63.2598 84.4617,-79.2523 102.493,-88 136.721,-104.606 148.895,-102 186.938,-102 186.938,-102 186.938,-102 479.672,-102 506.867,-102 537.112,-103.888 561.909,-105.934"/>
<polygon fill="black" stroke="black" points="561.914,-109.448 572.177,-106.816 562.513,-102.473 561.914,-109.448"/>
<text text-anchor="middle" x="338.83" y="-105.8" font-family="Times New Roman,serif" font-size="14.00"> (1)</text>
</g>
<!-- node3&#45;&gt;node11 -->
<g id="edge14" class="edge"><title>node3&#45;&gt;node11</title>
<path fill="none" stroke="black" d="M84.5499,-32.3871C96.818,-32.4819 110.248,-33.1537 122.493,-35 129.157,-36.0049 136.096,-37.5242 142.847,-39.2743"/>
<polygon fill="black" stroke="black" points="141.976,-42.6648 152.548,-41.9708 143.85,-35.9205 141.976,-42.6648"/>
<text text-anchor="middle" x="112.493" y="-38.8" font-family="Times New Roman,serif" font-size="14.00"> (1)</text>
</g>
<!-- node13 -->
<g id="node14" class="node"><title>node13</title>
<ellipse fill="none" stroke="black" cx="911.199" cy="-18" rx="47.3916" ry="18"/>
<text text-anchor="middle" x="911.199" y="-14.3" font-family="Times New Roman,serif" font-size="14.00">(13) XOR</text>
</g>
<!-- node3&#45;&gt;node13 -->
<g id="edge18" class="edge"><title>node3&#45;&gt;node13</title>
<path fill="none" stroke="black" d="M74.7298,-22.4582C103.528,-12.942 147.521,-1 186.938,-1 186.938,-1 186.938,-1 761.307,-1 793.4,-1 829.134,-4.94692 857.549,-9.03718"/>
<polygon fill="black" stroke="black" points="857.26,-12.5326 867.666,-10.5436 858.291,-5.60895 857.26,-12.5326"/>
<text text-anchor="middle" x="478.672" y="-4.8" font-family="Times New Roman,serif" font-size="14.00"> (1)</text>
</g>
<!-- node4 -->
<g id="node5" class="node"><title>node4</title>
<ellipse fill="none" stroke="black" cx="42.2463" cy="-291" rx="42.4939" ry="18"/>
<text text-anchor="middle" x="42.2463" y="-287.3" font-family="Times New Roman,serif" font-size="14.00">(4) Input</text>
</g>
<!-- node4&#45;&gt;node5 -->
<g id="edge2" class="edge"><title>node4&#45;&gt;node5</title>
<path fill="none" stroke="black" d="M84.7883,-290.62C96.9415,-290.469 110.25,-290.267 122.493,-290 126.471,-289.913 130.587,-289.812 134.725,-289.702"/>
<polygon fill="black" stroke="black" points="135.097,-293.193 144.995,-289.414 134.9,-286.196 135.097,-293.193"/>
<text text-anchor="middle" x="112.493" y="-293.8" font-family="Times New Roman,serif" font-size="14.00"> (1)</text>
</g>
<!-- node4&#45;&gt;node6 -->
<g id="edge4" class="edge"><title>node4&#45;&gt;node6</title>
<path fill="none" stroke="black" d="M56.9903,-274.059C67.9697,-261.74 84.4617,-245.748 102.493,-237 112.627,-232.083 124.163,-228.851 135.382,-226.736"/>
<polygon fill="black" stroke="black" points="136.234,-230.144 145.547,-225.092 135.117,-223.234 136.234,-230.144"/>
<text text-anchor="middle" x="112.493" y="-240.8" font-family="Times New Roman,serif" font-size="14.00"> (1)</text>
</g>
<!-- node5&#45;&gt;node7 -->
<g id="edge6" class="edge"><title>node5&#45;&gt;node7</title>
<path fill="none" stroke="black" d="M231.206,-288C248.391,-288 268.409,-288 286.428,-288"/>
<polygon fill="black" stroke="black" points="286.485,-291.5 296.485,-288 286.485,-284.5 286.485,-291.5"/>
<text text-anchor="middle" x="263.384" y="-291.8" font-family="Times New Roman,serif" font-size="14.00"> (1)</text>
</g>
<!-- node5&#45;&gt;node14 -->
<g id="edge20" class="edge"><title>node5&#45;&gt;node14</title>
<path fill="none" stroke="black" d="M211.229,-303.27C236.519,-320.596 277.948,-348.977 306.486,-368.528"/>
<polygon fill="black" stroke="black" points="304.669,-371.525 314.897,-374.29 308.625,-365.75 304.669,-371.525"/>
<text text-anchor="middle" x="263.384" y="-348.8" font-family="Times New Roman,serif" font-size="14.00"> (1)</text>
</g>
<!-- node8 -->
<g id="node9" class="node"><title>node8</title>
<ellipse fill="none" stroke="black" cx="478.672" cy="-223" rx="36.2938" ry="18"/>
<text text-anchor="middle" x="478.672" y="-219.3" font-family="Times New Roman,serif" font-size="14.00">(8) OR</text>
</g>
<!-- node6&#45;&gt;node8 -->
<g id="edge7" class="edge"><title>node6&#45;&gt;node8</title>
<path fill="none" stroke="black" d="M230.307,-223C283.63,-223 376.07,-223 431.588,-223"/>
<polygon fill="black" stroke="black" points="431.842,-226.5 441.842,-223 431.842,-219.5 431.842,-226.5"/>
<text text-anchor="middle" x="338.83" y="-226.8" font-family="Times New Roman,serif" font-size="14.00"> (0)</text>
</g>
<!-- node7&#45;&gt;node8 -->
<g id="edge8" class="edge"><title>node7&#45;&gt;node8</title>
<path fill="none" stroke="black" d="M367.724,-274.846C389.297,-264.674 419.3,-250.526 442.515,-239.578"/>
<polygon fill="black" stroke="black" points="444.133,-242.685 451.685,-235.255 441.147,-236.354 444.133,-242.685"/>
<text text-anchor="middle" x="414.276" y="-260.8" font-family="Times New Roman,serif" font-size="14.00"> (1)</text>
</g>
<!-- node8&#45;&gt;node9 -->
<g id="edge9" class="edge"><title>node8&#45;&gt;node9</title>
<path fill="none" stroke="black" d="M497.927,-207.662C520.671,-188.55 559.731,-155.731 585.946,-133.703"/>
<polygon fill="black" stroke="black" points="588.232,-136.354 593.637,-127.241 583.729,-130.994 588.232,-136.354"/>
<text text-anchor="middle" x="543.069" y="-181.8" font-family="Times New Roman,serif" font-size="14.00"> (0)</text>
</g>
<!-- node9&#45;&gt;node10 -->
<g id="edge12" class="edge"><title>node9&#45;&gt;node10</title>
<path fill="none" stroke="black" d="M650.645,-120.64C669,-125.6 691.627,-131.713 711.474,-137.076"/>
<polygon fill="black" stroke="black" points="710.694,-140.491 721.261,-139.72 712.52,-133.733 710.694,-140.491"/>
<text text-anchor="middle" x="684.862" y="-135.8" font-family="Times New Roman,serif" font-size="14.00"> (1)</text>
</g>
<!-- node12 -->
<g id="node13" class="node"><title>node12</title>
<ellipse fill="none" stroke="black" cx="760.307" cy="-54" rx="46.5926" ry="18"/>
<text text-anchor="middle" x="760.307" y="-50.3" font-family="Times New Roman,serif" font-size="14.00">(12) AND</text>
</g>
<!-- node9&#45;&gt;node12 -->
<g id="edge15" class="edge"><title>node9&#45;&gt;node12</title>
<path fill="none" stroke="black" d="M645.93,-98.7721C666.878,-90.5001 694.79,-79.4777 717.677,-70.4395"/>
<polygon fill="black" stroke="black" points="719.128,-73.6297 727.144,-66.7013 716.557,-67.1189 719.128,-73.6297"/>
<text text-anchor="middle" x="684.862" y="-89.8" font-family="Times New Roman,serif" font-size="14.00"> (0)</text>
</g>
<!-- node16 -->
<g id="node17" class="node"><title>node16</title>
<ellipse fill="none" stroke="black" cx="1038.54" cy="-150" rx="42.7926" ry="18"/>
<text text-anchor="middle" x="1038.54" y="-146.3" font-family="Times New Roman,serif" font-size="14.00">Output 1</text>
</g>
<!-- node10&#45;&gt;node16 -->
<g id="edge22" class="edge"><title>node10&#45;&gt;node16</title>
<path fill="none" stroke="black" d="M807.854,-150C856.907,-150 934.004,-150 985.154,-150"/>
<polygon fill="black" stroke="black" points="985.339,-153.5 995.339,-150 985.339,-146.5 985.339,-153.5"/>
</g>
<!-- node11&#45;&gt;node12 -->
<g id="edge16" class="edge"><title>node11&#45;&gt;node12</title>
<path fill="none" stroke="black" d="M235.547,-54C264.898,-54 303.58,-54 337.83,-54 337.83,-54 337.83,-54 614.965,-54 644.057,-54 676.446,-54 703.16,-54"/>
<polygon fill="black" stroke="black" points="703.478,-57.5001 713.477,-54 703.477,-50.5001 703.478,-57.5001"/>
<text text-anchor="middle" x="478.672" y="-57.8" font-family="Times New Roman,serif" font-size="14.00"> (1)</text>
</g>
<!-- node12&#45;&gt;node13 -->
<g id="edge17" class="edge"><title>node12&#45;&gt;node13</title>
<path fill="none" stroke="black" d="M800.427,-44.5414C819.001,-40.0504 841.395,-34.6359 861.099,-29.8718"/>
<polygon fill="black" stroke="black" points="861.926,-33.2726 870.824,-27.5204 860.281,-26.4686 861.926,-33.2726"/>
<text text-anchor="middle" x="835.753" y="-42.8" font-family="Times New Roman,serif" font-size="14.00"> (0)</text>
</g>
<!-- node17 -->
<g id="node18" class="node"><title>node17</title>
<ellipse fill="none" stroke="black" cx="1038.54" cy="-18" rx="42.7926" ry="18"/>
<text text-anchor="middle" x="1038.54" y="-14.3" font-family="Times New Roman,serif" font-size="14.00">Output 2</text>
</g>
<!-- node13&#45;&gt;node17 -->
<g id="edge23" class="edge"><title>node13&#45;&gt;node17</title>
<path fill="none" stroke="black" d="M958.872,-18C967.476,-18 976.512,-18 985.269,-18"/>
<polygon fill="black" stroke="black" points="985.379,-21.5001 995.379,-18 985.379,-14.5001 985.379,-21.5001"/>
</g>
<!-- node15 -->
<g id="node16" class="node"><title>node15</title>
<ellipse fill="none" stroke="black" cx="1038.54" cy="-390" rx="42.7926" ry="18"/>
<text text-anchor="middle" x="1038.54" y="-386.3" font-family="Times New Roman,serif" font-size="14.00">Output 0</text>
</g>
<!-- node14&#45;&gt;node15 -->
<g id="edge21" class="edge"><title>node14&#45;&gt;node15</title>
<path fill="none" stroke="black" d="M386.407,-390C413.118,-390 447.28,-390 477.672,-390 477.672,-390 477.672,-390 912.199,-390 936.259,-390 962.917,-390 985.441,-390"/>
<polygon fill="black" stroke="black" points="985.474,-393.5 995.474,-390 985.474,-386.5 985.474,-393.5"/>
</g>
</g>
</svg>
