<?xml version="1.0" encoding="UTF-8" standalone="no"?>
<!DOCTYPE svg PUBLIC "-//W3C//DTD SVG 1.1//EN"
 "http://www.w3.org/Graphics/SVG/1.1/DTD/svg11.dtd">
<!-- Generated by graphviz version 2.38.0 (20140413.2041)
 -->
<!-- Title: NeuralNetwork Pages: 1 -->
<svg width="288pt" height="101pt"
 viewBox="0.00 0.00 288.00 101.18" xmlns="http://www.w3.org/2000/svg" xmlns:xlink="http://www.w3.org/1999/xlink">
<g id="graph0" class="graph" transform="scale(0.288248 0.288248) rotate(0) translate(4 347)">
<title>NeuralNetwork</title>
<polygon fill="white" stroke="none" points="-4,4 -4,-347 995.138,-347 995.138,4 -4,4"/>
<!-- node0 -->
<g id="node1" class="node"><title>node0</title>
<ellipse fill="none" stroke="black" cx="42.2463" cy="-248" rx="42.4939" ry="18"/>
<text text-anchor="middle" x="42.2463" y="-244.3" font-family="Times New Roman,serif" font-size="14.00">(0) Input</text>
</g>
<!-- node6 -->
<g id="node7" class="node"><title>node6</title>
<ellipse fill="none" stroke="black" cx="187.288" cy="-244" rx="42.7926" ry="18"/>
<text text-anchor="middle" x="187.288" y="-240.3" font-family="Times New Roman,serif" font-size="14.00">(6) XOR</text>
</g>
<!-- node0&#45;&gt;node6 -->
<g id="edge4" class="edge"><title>node0&#45;&gt;node6</title>
<path fill="none" stroke="black" d="M84.62,-246.843C99.9168,-246.415 117.466,-245.925 133.63,-245.473"/>
<polygon fill="black" stroke="black" points="134.117,-248.96 144.015,-245.182 133.921,-241.963 134.117,-248.96"/>
<text text-anchor="middle" x="112.493" y="-249.8" font-family="Times New Roman,serif" font-size="14.00"> (1)</text>
</g>
<!-- node7 -->
<g id="node8" class="node"><title>node7</title>
<ellipse fill="none" stroke="black" cx="187.288" cy="-187" rx="42.4939" ry="18"/>
<text text-anchor="middle" x="187.288" y="-183.3" font-family="Times New Roman,serif" font-size="14.00">(7) AND</text>
</g>
<!-- node0&#45;&gt;node7 -->
<g id="edge5" class="edge"><title>node0&#45;&gt;node7</title>
<path fill="none" stroke="black" d="M72.8847,-235.361C94.4614,-226.159 123.89,-213.609 147.362,-203.6"/>
<polygon fill="black" stroke="black" points="148.862,-206.765 156.688,-199.623 146.116,-200.326 148.862,-206.765"/>
<text text-anchor="middle" x="112.493" y="-224.8" font-family="Times New Roman,serif" font-size="14.00"> (0)</text>
</g>
<!-- node1 -->
<g id="node2" class="node"><title>node1</title>
<ellipse fill="none" stroke="black" cx="42.2463" cy="-83" rx="42.4939" ry="18"/>
<text text-anchor="middle" x="42.2463" y="-79.3" font-family="Times New Roman,serif" font-size="14.00">(1) Input</text>
</g>
<!-- node5 -->
<g id="node6" class="node"><title>node5</title>
<ellipse fill="none" stroke="black" cx="294.98" cy="-104" rx="42.7926" ry="18"/>
<text text-anchor="middle" x="294.98" y="-100.3" font-family="Times New Roman,serif" font-size="14.00">(5) XOR</text>
</g>
<!-- node1&#45;&gt;node5 -->
<g id="edge1" class="edge"><title>node1&#45;&gt;node5</title>
<path fill="none" stroke="black" d="M83.8097,-86.3974C127.067,-90.0203 195.682,-95.7671 242.666,-99.7022"/>
<polygon fill="black" stroke="black" points="242.384,-103.191 252.641,-100.538 242.968,-96.2152 242.384,-103.191"/>
<text text-anchor="middle" x="112.493" y="-93.8" font-family="Times New Roman,serif" font-size="14.00"> (0)</text>
</g>
<!-- node13 -->
<g id="node14" class="node"><title>node13</title>
<ellipse fill="none" stroke="black" cx="187.288" cy="-52" rx="46.5926" ry="18"/>
<text text-anchor="middle" x="187.288" y="-48.3" font-family="Times New Roman,serif" font-size="14.00">(13) AND</text>
</g>
<!-- node1&#45;&gt;node13 -->
<g id="edge17" class="edge"><title>node1&#45;&gt;node13</title>
<path fill="none" stroke="black" d="M80.4555,-74.936C97.4975,-71.2427 117.946,-66.8111 136.306,-62.8322"/>
<polygon fill="black" stroke="black" points="137.224,-66.2145 146.256,-60.6758 135.741,-59.3733 137.224,-66.2145"/>
<text text-anchor="middle" x="112.493" y="-73.8" font-family="Times New Roman,serif" font-size="14.00"> (0)</text>
</g>
<!-- node2 -->
<g id="node3" class="node"><title>node2</title>
<ellipse fill="none" stroke="black" cx="42.2463" cy="-325" rx="42.4939" ry="18"/>
<text text-anchor="middle" x="42.2463" y="-321.3" font-family="Times New Roman,serif" font-size="14.00">(2) Input</text>
</g>
<!-- node8 -->
<g id="node9" class="node"><title>node8</title>
<ellipse fill="none" stroke="black" cx="398.773" cy="-319" rx="42.7926" ry="18"/>
<text text-anchor="middle" x="398.773" y="-315.3" font-family="Times New Roman,serif" font-size="14.00">(8) XOR</text>
</g>
<!-- node2&#45;&gt;node8 -->
<g id="edge7" class="edge"><title>node2&#45;&gt;node8</title>
<path fill="none" stroke="black" d="M84.6088,-324.3C149.459,-323.202 274.956,-321.079 345.807,-319.879"/>
<polygon fill="black" stroke="black" points="345.911,-323.378 355.851,-319.709 345.793,-316.379 345.911,-323.378"/>
<text text-anchor="middle" x="187.288" y="-326.8" font-family="Times New Roman,serif" font-size="14.00"> (0)</text>
</g>
<!-- node9 -->
<g id="node10" class="node"><title>node9</title>
<ellipse fill="none" stroke="black" cx="398.773" cy="-238" rx="42.4939" ry="18"/>
<text text-anchor="middle" x="398.773" y="-234.3" font-family="Times New Roman,serif" font-size="14.00">(9) AND</text>
</g>
<!-- node2&#45;&gt;node9 -->
<g id="edge10" class="edge"><title>node2&#45;&gt;node9</title>
<path fill="none" stroke="black" d="M78.1012,-315.405C96.5201,-310.679 119.586,-305.3 140.493,-302 227.43,-288.276 256.084,-318.502 337.877,-286 351.495,-280.588 364.466,-270.969 374.833,-261.755"/>
<polygon fill="black" stroke="black" points="377.294,-264.245 382.22,-254.865 372.52,-259.126 377.294,-264.245"/>
<text text-anchor="middle" x="187.288" y="-305.8" font-family="Times New Roman,serif" font-size="14.00"> (1)</text>
</g>
<!-- node3 -->
<g id="node4" class="node"><title>node3</title>
<ellipse fill="none" stroke="black" cx="42.2463" cy="-18" rx="42.4939" ry="18"/>
<text text-anchor="middle" x="42.2463" y="-14.3" font-family="Times New Roman,serif" font-size="14.00">(3) Input</text>
</g>
<!-- node3&#45;&gt;node5 -->
<g id="edge2" class="edge"><title>node3&#45;&gt;node5</title>
<path fill="none" stroke="black" d="M80.3482,-9.89839C120.867,-3.10062 186.346,1.71323 234.084,-25 255.06,-36.7379 270.976,-59.1798 281.109,-77.1537"/>
<polygon fill="black" stroke="black" points="278.074,-78.8994 285.877,-86.0653 284.246,-75.5969 278.074,-78.8994"/>
<text text-anchor="middle" x="112.493" y="-10.8" font-family="Times New Roman,serif" font-size="14.00"> (1)</text>
</g>
<!-- node3&#45;&gt;node13 -->
<g id="edge18" class="edge"><title>node3&#45;&gt;node13</title>
<path fill="none" stroke="black" d="M79.7119,-26.6676C97.1825,-30.8202 118.361,-35.8541 137.221,-40.337"/>
<polygon fill="black" stroke="black" points="136.591,-43.7849 147.13,-42.6923 138.21,-36.9746 136.591,-43.7849"/>
<text text-anchor="middle" x="112.493" y="-40.8" font-family="Times New Roman,serif" font-size="14.00"> (1)</text>
</g>
<!-- node4 -->
<g id="node5" class="node"><title>node4</title>
<ellipse fill="none" stroke="black" cx="42.2463" cy="-172" rx="42.4939" ry="18"/>
<text text-anchor="middle" x="42.2463" y="-168.3" font-family="Times New Roman,serif" font-size="14.00">(4) Input</text>
</g>
<!-- node4&#45;&gt;node6 -->
<g id="edge3" class="edge"><title>node4&#45;&gt;node6</title>
<path fill="none" stroke="black" d="M81.1206,-179.425C94.7787,-183.124 109.914,-188.465 122.493,-196 132.198,-201.814 131.714,-206.863 140.493,-214 144.537,-217.289 148.95,-220.545 153.389,-223.632"/>
<polygon fill="black" stroke="black" points="151.612,-226.655 161.865,-229.324 155.515,-220.843 151.612,-226.655"/>
<text text-anchor="middle" x="112.493" y="-199.8" font-family="Times New Roman,serif" font-size="14.00"> (0)</text>
</g>
<!-- node4&#45;&gt;node7 -->
<g id="edge6" class="edge"><title>node4&#45;&gt;node7</title>
<path fill="none" stroke="black" d="M71.9066,-159.023C86.9864,-153.828 105.768,-149.931 122.493,-154 133.624,-156.709 144.983,-161.723 154.972,-167.04"/>
<polygon fill="black" stroke="black" points="153.281,-170.105 163.714,-171.951 156.709,-164.002 153.281,-170.105"/>
<text text-anchor="middle" x="112.493" y="-157.8" font-family="Times New Roman,serif" font-size="14.00"> (1)</text>
</g>
<!-- node11 -->
<g id="node12" class="node"><title>node11</title>
<ellipse fill="none" stroke="black" cx="683.007" cy="-179" rx="47.3916" ry="18"/>
<text text-anchor="middle" x="683.007" y="-175.3" font-family="Times New Roman,serif" font-size="14.00">(11) XOR</text>
</g>
<!-- node5&#45;&gt;node11 -->
<g id="edge14" class="edge"><title>node5&#45;&gt;node11</title>
<path fill="none" stroke="black" d="M334.933,-110.714C341.9,-111.854 349.098,-112.994 355.877,-114 471.888,-131.215 505.136,-114.6 617.562,-148 627.278,-150.887 637.352,-155.085 646.566,-159.465"/>
<polygon fill="black" stroke="black" points="645.293,-162.74 655.807,-164.047 648.403,-156.469 645.293,-162.74"/>
<text text-anchor="middle" x="469.669" y="-128.8" font-family="Times New Roman,serif" font-size="14.00"> (1)</text>
</g>
<!-- node12 -->
<g id="node13" class="node"><title>node12</title>
<ellipse fill="none" stroke="black" cx="683.007" cy="-98" rx="46.5926" ry="18"/>
<text text-anchor="middle" x="683.007" y="-94.3" font-family="Times New Roman,serif" font-size="14.00">(12) AND</text>
</g>
<!-- node5&#45;&gt;node12 -->
<g id="edge15" class="edge"><title>node5&#45;&gt;node12</title>
<path fill="none" stroke="black" d="M337.677,-101.725C370.748,-100.039 418.15,-97.8874 459.669,-97 516.238,-95.791 580.92,-96.2944 625.879,-96.9455"/>
<polygon fill="black" stroke="black" points="625.96,-100.447 636.013,-97.0996 626.067,-93.4479 625.96,-100.447"/>
<text text-anchor="middle" x="469.669" y="-100.8" font-family="Times New Roman,serif" font-size="14.00"> (0)</text>
</g>
<!-- node6&#45;&gt;node8 -->
<g id="edge8" class="edge"><title>node6&#45;&gt;node8</title>
<path fill="none" stroke="black" d="M220.561,-255.554C256.929,-268.575 316.158,-289.78 356.021,-304.052"/>
<polygon fill="black" stroke="black" points="354.869,-307.357 365.463,-307.432 357.228,-300.767 354.869,-307.357"/>
<text text-anchor="middle" x="294.98" y="-299.8" font-family="Times New Roman,serif" font-size="14.00"> (1)</text>
</g>
<!-- node6&#45;&gt;node9 -->
<g id="edge9" class="edge"><title>node6&#45;&gt;node9</title>
<path fill="none" stroke="black" d="M226.27,-236.357C234.732,-234.961 243.686,-233.719 252.084,-233 290.075,-229.749 299.78,-231.413 337.877,-233 340.907,-233.126 344.021,-233.288 347.16,-233.476"/>
<polygon fill="black" stroke="black" points="346.993,-236.973 357.205,-234.154 347.464,-229.989 346.993,-236.973"/>
<text text-anchor="middle" x="294.98" y="-236.8" font-family="Times New Roman,serif" font-size="14.00"> (0)</text>
</g>
<!-- node10 -->
<g id="node11" class="node"><title>node10</title>
<ellipse fill="none" stroke="black" cx="538.615" cy="-196" rx="40.8928" ry="18"/>
<text text-anchor="middle" x="538.615" y="-192.3" font-family="Times New Roman,serif" font-size="14.00">(10) OR</text>
</g>
<!-- node7&#45;&gt;node10 -->
<g id="edge12" class="edge"><title>node7&#45;&gt;node10</title>
<path fill="none" stroke="black" d="M229.733,-188.068C294.111,-189.726 417.937,-192.917 487.33,-194.704"/>
<polygon fill="black" stroke="black" points="487.484,-198.209 497.571,-194.968 487.665,-191.212 487.484,-198.209"/>
<text text-anchor="middle" x="398.773" y="-196.8" font-family="Times New Roman,serif" font-size="14.00"> (1)</text>
</g>
<!-- node15 -->
<g id="node16" class="node"><title>node15</title>
<ellipse fill="none" stroke="black" cx="948.242" cy="-319" rx="42.7926" ry="18"/>
<text text-anchor="middle" x="948.242" y="-315.3" font-family="Times New Roman,serif" font-size="14.00">Output 0</text>
</g>
<!-- node8&#45;&gt;node15 -->
<g id="edge21" class="edge"><title>node8&#45;&gt;node15</title>
<path fill="none" stroke="black" d="M441.698,-319C469.013,-319 505.428,-319 537.615,-319 537.615,-319 537.615,-319 828.4,-319 850.198,-319 874.245,-319 894.972,-319"/>
<polygon fill="black" stroke="black" points="895.167,-322.5 905.167,-319 895.167,-315.5 895.167,-322.5"/>
</g>
<!-- node9&#45;&gt;node10 -->
<g id="edge11" class="edge"><title>node9&#45;&gt;node10</title>
<path fill="none" stroke="black" d="M433.493,-227.726C451.902,-222.116 474.892,-215.111 494.583,-209.112"/>
<polygon fill="black" stroke="black" points="495.698,-212.431 504.243,-206.168 493.657,-205.735 495.698,-212.431"/>
<text text-anchor="middle" x="469.669" y="-222.8" font-family="Times New Roman,serif" font-size="14.00"> (0)</text>
</g>
<!-- node10&#45;&gt;node11 -->
<g id="edge13" class="edge"><title>node10&#45;&gt;node11</title>
<path fill="none" stroke="black" d="M578.525,-191.355C593.663,-189.547 611.272,-187.445 627.626,-185.493"/>
<polygon fill="black" stroke="black" points="628.098,-188.961 637.613,-184.3 627.268,-182.01 628.098,-188.961"/>
<text text-anchor="middle" x="607.562" y="-192.8" font-family="Times New Roman,serif" font-size="14.00"> (0)</text>
</g>
<!-- node10&#45;&gt;node12 -->
<g id="edge16" class="edge"><title>node10&#45;&gt;node12</title>
<path fill="none" stroke="black" d="M561.552,-180.902C585.486,-164.43 623.987,-137.932 651.004,-119.338"/>
<polygon fill="black" stroke="black" points="653.086,-122.154 659.339,-113.601 649.117,-116.387 653.086,-122.154"/>
<text text-anchor="middle" x="607.562" y="-159.8" font-family="Times New Roman,serif" font-size="14.00"> (1)</text>
</g>
<!-- node16 -->
<g id="node17" class="node"><title>node16</title>
<ellipse fill="none" stroke="black" cx="948.242" cy="-179" rx="42.7926" ry="18"/>
<text text-anchor="middle" x="948.242" y="-175.3" font-family="Times New Roman,serif" font-size="14.00">Output 1</text>
</g>
<!-- node11&#45;&gt;node16 -->
<g id="edge22" class="edge"><title>node11&#45;&gt;node16</title>
<path fill="none" stroke="black" d="M730.463,-179C776.527,-179 846.983,-179 894.977,-179"/>
<polygon fill="black" stroke="black" points="895.16,-182.5 905.16,-179 895.16,-175.5 895.16,-182.5"/>
</g>
<!-- node14 -->
<g id="node15" class="node"><title>node14</title>
<ellipse fill="none" stroke="black" cx="827.4" cy="-69" rx="40.8928" ry="18"/>
<text text-anchor="middle" x="827.4" y="-65.3" font-family="Times New Roman,serif" font-size="14.00">(14) OR</text>
</g>
<!-- node12&#45;&gt;node14 -->
<g id="edge20" class="edge"><title>node12&#45;&gt;node14</title>
<path fill="none" stroke="black" d="M724.811,-89.6898C741.986,-86.192 762.065,-82.1025 779.817,-78.4872"/>
<polygon fill="black" stroke="black" points="780.859,-81.8468 789.96,-76.4215 779.462,-74.9876 780.859,-81.8468"/>
<text text-anchor="middle" x="758.453" y="-88.8" font-family="Times New Roman,serif" font-size="14.00"> (1)</text>
</g>
<!-- node13&#45;&gt;node14 -->
<g id="edge19" class="edge"><title>node13&#45;&gt;node14</title>
<path fill="none" stroke="black" d="M234.469,-52C276.915,-52 341.583,-52 397.773,-52 397.773,-52 397.773,-52 684.007,-52 715.907,-52 751.546,-56.2587 779.189,-60.513"/>
<polygon fill="black" stroke="black" points="778.941,-64.0177 789.367,-62.1345 780.043,-57.1048 778.941,-64.0177"/>
<text text-anchor="middle" x="538.615" y="-55.8" font-family="Times New Roman,serif" font-size="14.00"> (0)</text>
</g>
<!-- node17 -->
<g id="node18" class="node"><title>node17</title>
<ellipse fill="none" stroke="black" cx="948.242" cy="-69" rx="42.7926" ry="18"/>
<text text-anchor="middle" x="948.242" y="-65.3" font-family="Times New Roman,serif" font-size="14.00">Output 2</text>
</g>
<!-- node14&#45;&gt;node17 -->
<g id="edge23" class="edge"><title>node14&#45;&gt;node17</title>
<path fill="none" stroke="black" d="M868.634,-69C877.056,-69 886.053,-69 894.843,-69"/>
<polygon fill="black" stroke="black" points="895.019,-72.5001 905.019,-69 895.019,-65.5001 895.019,-72.5001"/>
</g>
</g>
</svg>
