<?xml version="1.0" encoding="UTF-8" standalone="no"?>
<!DOCTYPE svg PUBLIC "-//W3C//DTD SVG 1.1//EN"
 "http://www.w3.org/Graphics/SVG/1.1/DTD/svg11.dtd">
<!-- Generated by graphviz version 2.38.0 (20140413.2041)
 -->
<!-- Title: NeuralNetwork Pages: 1 -->
<svg width="288pt" height="109pt"
 viewBox="0.00 0.00 288.00 108.99" xmlns="http://www.w3.org/2000/svg" xmlns:xlink="http://www.w3.org/1999/xlink">
<g id="graph0" class="graph" transform="scale(0.243279 0.243279) rotate(0) translate(4 444)">
<title>NeuralNetwork</title>
<polygon fill="white" stroke="none" points="-4,4 -4,-444 1179.83,-444 1179.83,4 -4,4"/>
<!-- node0 -->
<g id="node1" class="node"><title>node0</title>
<ellipse fill="none" stroke="black" cx="42.2463" cy="-245" rx="42.4939" ry="18"/>
<text text-anchor="middle" x="42.2463" y="-241.3" font-family="Times New Roman,serif" font-size="14.00">(0) Input</text>
</g>
<!-- node6 -->
<g id="node7" class="node"><title>node6</title>
<ellipse fill="none" stroke="black" cx="404.622" cy="-190" rx="36.2938" ry="18"/>
<text text-anchor="middle" x="404.622" y="-186.3" font-family="Times New Roman,serif" font-size="14.00">(6) OR</text>
</g>
<!-- node0&#45;&gt;node6 -->
<g id="edge3" class="edge"><title>node0&#45;&gt;node6</title>
<path fill="none" stroke="black" d="M84.401,-246.611C96.6649,-246.797 110.13,-246.709 122.493,-246 172.915,-243.106 185.717,-242.163 235.384,-233 279.581,-224.846 329.355,-211.607 363.223,-201.97"/>
<polygon fill="black" stroke="black" points="364.554,-205.229 373.199,-199.105 362.622,-198.501 364.554,-205.229"/>
<text text-anchor="middle" x="187.938" y="-247.8" font-family="Times New Roman,serif" font-size="14.00"> (0)</text>
</g>
<!-- node15 -->
<g id="node16" class="node"><title>node15</title>
<ellipse fill="none" stroke="black" cx="187.938" cy="-206" rx="47.3916" ry="18"/>
<text text-anchor="middle" x="187.938" y="-202.3" font-family="Times New Roman,serif" font-size="14.00">(15) XOR</text>
</g>
<!-- node0&#45;&gt;node15 -->
<g id="edge21" class="edge"><title>node0&#45;&gt;node15</title>
<path fill="none" stroke="black" d="M78.3973,-235.46C96.6641,-230.502 119.257,-224.37 139.092,-218.986"/>
<polygon fill="black" stroke="black" points="140.142,-222.328 148.876,-216.331 138.308,-215.572 140.142,-222.328"/>
<text text-anchor="middle" x="112.493" y="-230.8" font-family="Times New Roman,serif" font-size="14.00"> (1)</text>
</g>
<!-- node1 -->
<g id="node2" class="node"><title>node1</title>
<ellipse fill="none" stroke="black" cx="42.2463" cy="-325" rx="42.4939" ry="18"/>
<text text-anchor="middle" x="42.2463" y="-321.3" font-family="Times New Roman,serif" font-size="14.00">(1) Input</text>
</g>
<!-- node8 -->
<g id="node9" class="node"><title>node8</title>
<ellipse fill="none" stroke="black" cx="705.106" cy="-364" rx="42.7926" ry="18"/>
<text text-anchor="middle" x="705.106" y="-360.3" font-family="Times New Roman,serif" font-size="14.00">(8) XOR</text>
</g>
<!-- node1&#45;&gt;node8 -->
<g id="edge7" class="edge"><title>node1&#45;&gt;node8</title>
<path fill="none" stroke="black" d="M75.3989,-336.452C122.853,-352.303 214.732,-379 295.28,-379 295.28,-379 295.28,-379 555.864,-379 588.809,-379 625.664,-375.287 654.385,-371.556"/>
<polygon fill="black" stroke="black" points="655.131,-374.988 664.576,-370.188 654.199,-368.05 655.131,-374.988"/>
<text text-anchor="middle" x="404.622" y="-382.8" font-family="Times New Roman,serif" font-size="14.00"> (1)</text>
</g>
<!-- node9 -->
<g id="node10" class="node"><title>node9</title>
<ellipse fill="none" stroke="black" cx="296.28" cy="-298" rx="42.7926" ry="18"/>
<text text-anchor="middle" x="296.28" y="-294.3" font-family="Times New Roman,serif" font-size="14.00">(9) XOR</text>
</g>
<!-- node1&#45;&gt;node9 -->
<g id="edge9" class="edge"><title>node1&#45;&gt;node9</title>
<path fill="none" stroke="black" d="M83.0736,-320.216C89.5623,-319.459 96.213,-318.697 102.493,-318 150.54,-312.67 205.374,-307.023 244.247,-303.094"/>
<polygon fill="black" stroke="black" points="244.671,-306.57 254.269,-302.084 243.968,-299.605 244.671,-306.57"/>
<text text-anchor="middle" x="112.493" y="-321.8" font-family="Times New Roman,serif" font-size="14.00"> (1)</text>
</g>
<!-- node2 -->
<g id="node3" class="node"><title>node2</title>
<ellipse fill="none" stroke="black" cx="42.2463" cy="-154" rx="42.4939" ry="18"/>
<text text-anchor="middle" x="42.2463" y="-150.3" font-family="Times New Roman,serif" font-size="14.00">(2) Input</text>
</g>
<!-- node5 -->
<g id="node6" class="node"><title>node5</title>
<ellipse fill="none" stroke="black" cx="187.938" cy="-152" rx="42.4939" ry="18"/>
<text text-anchor="middle" x="187.938" y="-148.3" font-family="Times New Roman,serif" font-size="14.00">(5) AND</text>
</g>
<!-- node2&#45;&gt;node5 -->
<g id="edge1" class="edge"><title>node2&#45;&gt;node5</title>
<path fill="none" stroke="black" d="M84.8079,-153.422C100.595,-153.202 118.77,-152.949 135.372,-152.718"/>
<polygon fill="black" stroke="black" points="135.52,-156.216 145.47,-152.577 135.422,-149.217 135.52,-156.216"/>
<text text-anchor="middle" x="112.493" y="-157.8" font-family="Times New Roman,serif" font-size="14.00"> (0)</text>
</g>
<!-- node12 -->
<g id="node13" class="node"><title>node12</title>
<ellipse fill="none" stroke="black" cx="187.938" cy="-98" rx="40.8928" ry="18"/>
<text text-anchor="middle" x="187.938" y="-94.3" font-family="Times New Roman,serif" font-size="14.00">(12) OR</text>
</g>
<!-- node2&#45;&gt;node12 -->
<g id="edge15" class="edge"><title>node2&#45;&gt;node12</title>
<path fill="none" stroke="black" d="M74.0718,-141.987C95.4299,-133.663 124.061,-122.505 147.142,-113.509"/>
<polygon fill="black" stroke="black" points="148.61,-116.694 156.657,-109.801 146.069,-110.171 148.61,-116.694"/>
<text text-anchor="middle" x="112.493" y="-133.8" font-family="Times New Roman,serif" font-size="14.00"> (1)</text>
</g>
<!-- node2&#45;&gt;node15 -->
<g id="edge20" class="edge"><title>node2&#45;&gt;node15</title>
<path fill="none" stroke="black" d="M75.1362,-165.54C95.2306,-172.812 121.439,-182.297 143.43,-190.255"/>
<polygon fill="black" stroke="black" points="142.288,-193.564 152.882,-193.676 144.67,-186.982 142.288,-193.564"/>
<text text-anchor="middle" x="112.493" y="-185.8" font-family="Times New Roman,serif" font-size="14.00"> (0)</text>
</g>
<!-- node3 -->
<g id="node4" class="node"><title>node3</title>
<ellipse fill="none" stroke="black" cx="42.2463" cy="-402" rx="42.4939" ry="18"/>
<text text-anchor="middle" x="42.2463" y="-398.3" font-family="Times New Roman,serif" font-size="14.00">(3) Input</text>
</g>
<!-- node3&#45;&gt;node9 -->
<g id="edge8" class="edge"><title>node3&#45;&gt;node9</title>
<path fill="none" stroke="black" d="M73.1476,-389.661C118.594,-370.908 205.103,-335.211 255.709,-314.329"/>
<polygon fill="black" stroke="black" points="257.117,-317.534 265.026,-310.484 254.447,-311.063 257.117,-317.534"/>
<text text-anchor="middle" x="112.493" y="-378.8" font-family="Times New Roman,serif" font-size="14.00"> (0)</text>
</g>
<!-- node11 -->
<g id="node12" class="node"><title>node11</title>
<ellipse fill="none" stroke="black" cx="1005.59" cy="-409" rx="47.3916" ry="18"/>
<text text-anchor="middle" x="1005.59" y="-405.3" font-family="Times New Roman,serif" font-size="14.00">(11) XOR</text>
</g>
<!-- node3&#45;&gt;node11 -->
<g id="edge12" class="edge"><title>node3&#45;&gt;node11</title>
<path fill="none" stroke="black" d="M79.0145,-410.958C107.934,-417.416 149.8,-425 186.938,-425 186.938,-425 186.938,-425 856.347,-425 888.163,-425 923.598,-421.312 951.844,-417.477"/>
<polygon fill="black" stroke="black" points="952.489,-420.921 961.906,-416.064 951.516,-413.989 952.489,-420.921"/>
<text text-anchor="middle" x="554.864" y="-428.8" font-family="Times New Roman,serif" font-size="14.00"> (0)</text>
</g>
<!-- node4 -->
<g id="node5" class="node"><title>node4</title>
<ellipse fill="none" stroke="black" cx="42.2463" cy="-40" rx="42.4939" ry="18"/>
<text text-anchor="middle" x="42.2463" y="-36.3" font-family="Times New Roman,serif" font-size="14.00">(4) Input</text>
</g>
<!-- node4&#45;&gt;node5 -->
<g id="edge2" class="edge"><title>node4&#45;&gt;node5</title>
<path fill="none" stroke="black" d="M63.339,-55.6488C79.6992,-68.6444 103.166,-87.8708 122.493,-106 130.976,-113.958 131.371,-117.781 140.493,-125 143.866,-127.67 147.531,-130.254 151.274,-132.697"/>
<polygon fill="black" stroke="black" points="149.7,-135.838 160.047,-138.114 153.378,-129.882 149.7,-135.838"/>
<text text-anchor="middle" x="112.493" y="-109.8" font-family="Times New Roman,serif" font-size="14.00"> (1)</text>
</g>
<!-- node4&#45;&gt;node12 -->
<g id="edge14" class="edge"><title>node4&#45;&gt;node12</title>
<path fill="none" stroke="black" d="M82.978,-35.1094C95.9453,-34.9135 110.17,-36.2433 122.493,-41 139.639,-47.6187 155.191,-61.0433 166.72,-73.2022"/>
<polygon fill="black" stroke="black" points="164.393,-75.8476 173.692,-80.9253 169.589,-71.1571 164.393,-75.8476"/>
<text text-anchor="middle" x="112.493" y="-44.8" font-family="Times New Roman,serif" font-size="14.00"> (0)</text>
</g>
<!-- node16 -->
<g id="node17" class="node"><title>node16</title>
<ellipse fill="none" stroke="black" cx="404.622" cy="-18" rx="47.3916" ry="18"/>
<text text-anchor="middle" x="404.622" y="-14.3" font-family="Times New Roman,serif" font-size="14.00">(16) XOR</text>
</g>
<!-- node4&#45;&gt;node16 -->
<g id="edge23" class="edge"><title>node4&#45;&gt;node16</title>
<path fill="none" stroke="black" d="M83.0451,-34.9222C89.5373,-34.202 96.1966,-33.5281 102.493,-33 187.55,-25.865 286.429,-21.7336 347.01,-19.6742"/>
<polygon fill="black" stroke="black" points="347.251,-23.1682 357.129,-19.3375 347.018,-16.1721 347.251,-23.1682"/>
<text text-anchor="middle" x="187.938" y="-33.8" font-family="Times New Roman,serif" font-size="14.00"> (1)</text>
</g>
<!-- node5&#45;&gt;node6 -->
<g id="edge4" class="edge"><title>node5&#45;&gt;node6</title>
<path fill="none" stroke="black" d="M227.319,-158.794C264.63,-165.398 321.216,-175.414 360.165,-182.308"/>
<polygon fill="black" stroke="black" points="359.7,-185.78 370.157,-184.077 360.92,-178.887 359.7,-185.78"/>
<text text-anchor="middle" x="296.28" y="-181.8" font-family="Times New Roman,serif" font-size="14.00"> (1)</text>
</g>
<!-- node7 -->
<g id="node8" class="node"><title>node7</title>
<ellipse fill="none" stroke="black" cx="554.864" cy="-333" rx="42.4939" ry="18"/>
<text text-anchor="middle" x="554.864" y="-329.3" font-family="Times New Roman,serif" font-size="14.00">(7) NEG</text>
</g>
<!-- node6&#45;&gt;node7 -->
<g id="edge5" class="edge"><title>node6&#45;&gt;node7</title>
<path fill="none" stroke="black" d="M419.196,-206.852C437.915,-229.565 473.298,-270.648 508.068,-301 512.361,-304.747 517.095,-308.46 521.842,-311.957"/>
<polygon fill="black" stroke="black" points="520.131,-315.034 530.309,-317.978 524.188,-309.33 520.131,-315.034"/>
<text text-anchor="middle" x="480.068" y="-287.8" font-family="Times New Roman,serif" font-size="14.00"> (0)</text>
</g>
<!-- node13 -->
<g id="node14" class="node"><title>node13</title>
<ellipse fill="none" stroke="black" cx="554.864" cy="-190" rx="46.5926" ry="18"/>
<text text-anchor="middle" x="554.864" y="-186.3" font-family="Times New Roman,serif" font-size="14.00">(13) AND</text>
</g>
<!-- node6&#45;&gt;node13 -->
<g id="edge17" class="edge"><title>node6&#45;&gt;node13</title>
<path fill="none" stroke="black" d="M441.13,-190C458.12,-190 478.865,-190 497.906,-190"/>
<polygon fill="black" stroke="black" points="497.976,-193.5 507.976,-190 497.976,-186.5 497.976,-193.5"/>
<text text-anchor="middle" x="480.068" y="-193.8" font-family="Times New Roman,serif" font-size="14.00"> (1)</text>
</g>
<!-- node7&#45;&gt;node8 -->
<g id="edge6" class="edge"><title>node7&#45;&gt;node8</title>
<path fill="none" stroke="black" d="M593.429,-340.506C607.889,-343.426 624.551,-346.827 639.66,-350 645.122,-351.147 650.841,-352.365 656.521,-353.586"/>
<polygon fill="black" stroke="black" points="656.125,-357.081 666.638,-355.77 657.602,-350.238 656.125,-357.081"/>
<text text-anchor="middle" x="629.66" y="-353.8" font-family="Times New Roman,serif" font-size="14.00"> (0)</text>
</g>
<!-- node10 -->
<g id="node11" class="node"><title>node10</title>
<ellipse fill="none" stroke="black" cx="855.347" cy="-364" rx="46.5926" ry="18"/>
<text text-anchor="middle" x="855.347" y="-360.3" font-family="Times New Roman,serif" font-size="14.00">(10) AND</text>
</g>
<!-- node8&#45;&gt;node10 -->
<g id="edge11" class="edge"><title>node8&#45;&gt;node10</title>
<path fill="none" stroke="black" d="M748.189,-364C763.784,-364 781.722,-364 798.361,-364"/>
<polygon fill="black" stroke="black" points="798.521,-367.5 808.521,-364 798.521,-360.5 798.521,-367.5"/>
<text text-anchor="middle" x="780.551" y="-367.8" font-family="Times New Roman,serif" font-size="14.00"> (1)</text>
</g>
<!-- node9&#45;&gt;node10 -->
<g id="edge10" class="edge"><title>node9&#45;&gt;node10</title>
<path fill="none" stroke="black" d="M337.266,-292.449C374.04,-287.828 430.119,-282 479.068,-282 479.068,-282 479.068,-282 706.106,-282 754.557,-282 802.038,-315.957 829.734,-340.167"/>
<polygon fill="black" stroke="black" points="827.564,-342.923 837.339,-347.01 832.246,-337.719 827.564,-342.923"/>
<text text-anchor="middle" x="554.864" y="-285.8" font-family="Times New Roman,serif" font-size="14.00"> (0)</text>
</g>
<!-- node14 -->
<g id="node15" class="node"><title>node14</title>
<ellipse fill="none" stroke="black" cx="705.106" cy="-213" rx="47.3916" ry="18"/>
<text text-anchor="middle" x="705.106" y="-209.3" font-family="Times New Roman,serif" font-size="14.00">(14) XOR</text>
</g>
<!-- node9&#45;&gt;node14 -->
<g id="edge18" class="edge"><title>node9&#45;&gt;node14</title>
<path fill="none" stroke="black" d="M321.909,-283.519C332.457,-277.891 345.107,-271.877 357.176,-268 384.536,-259.212 559.677,-233.55 650.153,-220.625"/>
<polygon fill="black" stroke="black" points="650.817,-224.066 660.223,-219.189 649.829,-217.136 650.817,-224.066"/>
<text text-anchor="middle" x="480.068" y="-249.8" font-family="Times New Roman,serif" font-size="14.00"> (0)</text>
</g>
<!-- node10&#45;&gt;node11 -->
<g id="edge13" class="edge"><title>node10&#45;&gt;node11</title>
<path fill="none" stroke="black" d="M892.611,-375.008C912.368,-381.006 937.031,-388.492 958.178,-394.912"/>
<polygon fill="black" stroke="black" points="957.342,-398.316 967.928,-397.871 959.376,-391.617 957.342,-398.316"/>
<text text-anchor="middle" x="930.143" y="-392.8" font-family="Times New Roman,serif" font-size="14.00"> (1)</text>
</g>
<!-- node19 -->
<g id="node20" class="node"><title>node19</title>
<ellipse fill="none" stroke="black" cx="1132.93" cy="-409" rx="42.7926" ry="18"/>
<text text-anchor="middle" x="1132.93" y="-405.3" font-family="Times New Roman,serif" font-size="14.00">Output 2</text>
</g>
<!-- node11&#45;&gt;node19 -->
<g id="edge26" class="edge"><title>node11&#45;&gt;node19</title>
<path fill="none" stroke="black" d="M1053.26,-409C1061.87,-409 1070.9,-409 1079.66,-409"/>
<polygon fill="black" stroke="black" points="1079.77,-412.5 1089.77,-409 1079.77,-405.5 1079.77,-412.5"/>
</g>
<!-- node12&#45;&gt;node13 -->
<g id="edge16" class="edge"><title>node12&#45;&gt;node13</title>
<path fill="none" stroke="black" d="M228.767,-100.634C259.216,-103.098 302.12,-107.545 339.176,-115 390.423,-125.31 402.749,-130.673 452.068,-148 472.804,-155.285 495.444,-164.497 514.097,-172.436"/>
<polygon fill="black" stroke="black" points="512.887,-175.725 523.457,-176.454 515.649,-169.293 512.887,-175.725"/>
<text text-anchor="middle" x="404.622" y="-151.8" font-family="Times New Roman,serif" font-size="14.00"> (0)</text>
</g>
<!-- node13&#45;&gt;node14 -->
<g id="edge19" class="edge"><title>node13&#45;&gt;node14</title>
<path fill="none" stroke="black" d="M598.742,-196.653C614.887,-199.158 633.453,-202.038 650.459,-204.677"/>
<polygon fill="black" stroke="black" points="650.392,-208.208 660.811,-206.283 651.466,-201.291 650.392,-208.208"/>
<text text-anchor="middle" x="629.66" y="-206.8" font-family="Times New Roman,serif" font-size="14.00"> (1)</text>
</g>
<!-- node18 -->
<g id="node19" class="node"><title>node18</title>
<ellipse fill="none" stroke="black" cx="1132.93" cy="-213" rx="42.7926" ry="18"/>
<text text-anchor="middle" x="1132.93" y="-209.3" font-family="Times New Roman,serif" font-size="14.00">Output 1</text>
</g>
<!-- node14&#45;&gt;node18 -->
<g id="edge25" class="edge"><title>node14&#45;&gt;node18</title>
<path fill="none" stroke="black" d="M752.894,-213C833.054,-213 996.08,-213 1079.78,-213"/>
<polygon fill="black" stroke="black" points="1079.83,-216.5 1089.83,-213 1079.83,-209.5 1079.83,-216.5"/>
</g>
<!-- node15&#45;&gt;node16 -->
<g id="edge22" class="edge"><title>node15&#45;&gt;node16</title>
<path fill="none" stroke="black" d="M218.686,-191.964C224.659,-188.289 230.571,-183.946 235.384,-179 247.036,-167.027 242.85,-158.967 253.384,-146 288.49,-102.787 339.554,-62.8655 372.177,-39.4647"/>
<polygon fill="black" stroke="black" points="374.322,-42.2345 380.456,-33.5965 370.274,-36.5235 374.322,-42.2345"/>
<text text-anchor="middle" x="296.28" y="-149.8" font-family="Times New Roman,serif" font-size="14.00"> (0)</text>
</g>
<!-- node17 -->
<g id="node18" class="node"><title>node17</title>
<ellipse fill="none" stroke="black" cx="1132.93" cy="-18" rx="42.7926" ry="18"/>
<text text-anchor="middle" x="1132.93" y="-14.3" font-family="Times New Roman,serif" font-size="14.00">Output 0</text>
</g>
<!-- node16&#45;&gt;node17 -->
<g id="edge24" class="edge"><title>node16&#45;&gt;node17</title>
<path fill="none" stroke="black" d="M452.358,-18C481.541,-18 519.892,-18 553.864,-18 553.864,-18 553.864,-18 1006.59,-18 1030.65,-18 1057.31,-18 1079.83,-18"/>
<polygon fill="black" stroke="black" points="1079.86,-21.5001 1089.86,-18 1079.86,-14.5001 1079.86,-21.5001"/>
</g>
</g>
</svg>
