<?xml version="1.0" encoding="UTF-8" standalone="no"?>
<!DOCTYPE svg PUBLIC "-//W3C//DTD SVG 1.1//EN"
 "http://www.w3.org/Graphics/SVG/1.1/DTD/svg11.dtd">
<!-- Generated by graphviz version 2.38.0 (20140413.2041)
 -->
<!-- Title: NeuralNetwork Pages: 1 -->
<svg width="288pt" height="123pt"
 viewBox="0.00 0.00 288.00 122.53" xmlns="http://www.w3.org/2000/svg" xmlns:xlink="http://www.w3.org/1999/xlink">
<g id="graph0" class="graph" transform="scale(0.264672 0.264672) rotate(0) translate(4 458.952)">
<title>NeuralNetwork</title>
<polygon fill="white" stroke="none" points="-4,4 -4,-458.952 1084.14,-458.952 1084.14,4 -4,4"/>
<!-- node0 -->
<g id="node1" class="node"><title>node0</title>
<ellipse fill="none" stroke="black" cx="42.2463" cy="-341.952" rx="42.4939" ry="18"/>
<text text-anchor="middle" x="42.2463" y="-338.252" font-family="Times New Roman,serif" font-size="14.00">(0) Input</text>
</g>
<!-- node5 -->
<g id="node6" class="node"><title>node5</title>
<ellipse fill="none" stroke="black" cx="187.938" cy="-334.952" rx="42.7926" ry="18"/>
<text text-anchor="middle" x="187.938" y="-331.252" font-family="Times New Roman,serif" font-size="14.00">(5) XOR</text>
</g>
<!-- node0&#45;&gt;node5 -->
<g id="edge1" class="edge"><title>node0&#45;&gt;node5</title>
<path fill="none" stroke="black" d="M84.4226,-339.946C100.218,-339.177 118.449,-338.289 135.117,-337.477"/>
<polygon fill="black" stroke="black" points="135.44,-340.965 145.258,-336.983 135.099,-333.974 135.44,-340.965"/>
<text text-anchor="middle" x="112.493" y="-341.752" font-family="Times New Roman,serif" font-size="14.00"> (0)</text>
</g>
<!-- node8 -->
<g id="node9" class="node"><title>node8</title>
<ellipse fill="none" stroke="black" cx="187.938" cy="-262.952" rx="42.4939" ry="18"/>
<text text-anchor="middle" x="187.938" y="-259.252" font-family="Times New Roman,serif" font-size="14.00">(8) AND</text>
</g>
<!-- node0&#45;&gt;node8 -->
<g id="edge7" class="edge"><title>node0&#45;&gt;node8</title>
<path fill="none" stroke="black" d="M58.3435,-325.142C74.0558,-307.815 97.1129,-282.915 102.493,-279.952 112.726,-274.317 124.577,-270.538 136.105,-268.007"/>
<polygon fill="black" stroke="black" points="136.943,-271.41 146.105,-266.089 135.625,-264.535 136.943,-271.41"/>
<text text-anchor="middle" x="112.493" y="-283.752" font-family="Times New Roman,serif" font-size="14.00"> (0)</text>
</g>
<!-- node1 -->
<g id="node2" class="node"><title>node1</title>
<ellipse fill="none" stroke="black" cx="42.2463" cy="-114.952" rx="42.4939" ry="18"/>
<text text-anchor="middle" x="42.2463" y="-111.252" font-family="Times New Roman,serif" font-size="14.00">(1) Input</text>
</g>
<!-- node10 -->
<g id="node11" class="node"><title>node10</title>
<ellipse fill="none" stroke="black" cx="622.415" cy="-218.952" rx="40.8928" ry="18"/>
<text text-anchor="middle" x="622.415" y="-215.252" font-family="Times New Roman,serif" font-size="14.00">(10) OR</text>
</g>
<!-- node1&#45;&gt;node10 -->
<g id="edge12" class="edge"><title>node1&#45;&gt;node10</title>
<path fill="none" stroke="black" d="M56.6688,-132.294C79.9257,-160.195 130.654,-211.952 186.938,-211.952 186.938,-211.952 186.938,-211.952 406.176,-211.952 462.768,-211.952 527.685,-214.4 571.298,-216.4"/>
<polygon fill="black" stroke="black" points="571.209,-219.9 581.361,-216.871 571.536,-212.907 571.209,-219.9"/>
<text text-anchor="middle" x="334.28" y="-215.752" font-family="Times New Roman,serif" font-size="14.00"> (1)</text>
</g>
<!-- node11 -->
<g id="node12" class="node"><title>node11</title>
<ellipse fill="none" stroke="black" cx="622.415" cy="-164.952" rx="46.5926" ry="18"/>
<text text-anchor="middle" x="622.415" y="-161.252" font-family="Times New Roman,serif" font-size="14.00">(11) AND</text>
</g>
<!-- node1&#45;&gt;node11 -->
<g id="edge13" class="edge"><title>node1&#45;&gt;node11</title>
<path fill="none" stroke="black" d="M84.747,-114.952C113.446,-114.952 152.512,-114.952 186.938,-114.952 186.938,-114.952 186.938,-114.952 477.073,-114.952 516.029,-114.952 557.804,-131.415 586.336,-145.448"/>
<polygon fill="black" stroke="black" points="584.98,-148.684 595.481,-150.086 588.146,-142.441 584.98,-148.684"/>
<text text-anchor="middle" x="334.28" y="-118.752" font-family="Times New Roman,serif" font-size="14.00"> (0)</text>
</g>
<!-- node13 -->
<g id="node14" class="node"><title>node13</title>
<ellipse fill="none" stroke="black" cx="187.938" cy="-22.9524" rx="47.3916" ry="18"/>
<text text-anchor="middle" x="187.938" y="-19.2524" font-family="Times New Roman,serif" font-size="14.00">(13) XOR</text>
</g>
<!-- node1&#45;&gt;node13 -->
<g id="edge18" class="edge"><title>node1&#45;&gt;node13</title>
<path fill="none" stroke="black" d="M66.6527,-99.9662C90.3735,-84.7788 127.281,-61.1486 153.959,-44.0675"/>
<polygon fill="black" stroke="black" points="156.046,-46.8873 162.581,-38.5475 152.272,-40.992 156.046,-46.8873"/>
<text text-anchor="middle" x="112.493" y="-78.7524" font-family="Times New Roman,serif" font-size="14.00"> (1)</text>
</g>
<!-- node2 -->
<g id="node3" class="node"><title>node2</title>
<ellipse fill="none" stroke="black" cx="42.2463" cy="-269.952" rx="42.4939" ry="18"/>
<text text-anchor="middle" x="42.2463" y="-266.252" font-family="Times New Roman,serif" font-size="14.00">(2) Input</text>
</g>
<!-- node2&#45;&gt;node5 -->
<g id="edge2" class="edge"><title>node2&#45;&gt;node5</title>
<path fill="none" stroke="black" d="M70.2394,-283.534C80.3074,-288.502 91.8705,-294.093 102.493,-298.952 116.976,-305.579 133.021,-312.518 147.2,-318.516"/>
<polygon fill="black" stroke="black" points="146.102,-321.851 156.677,-322.502 148.816,-315.398 146.102,-321.851"/>
<text text-anchor="middle" x="112.493" y="-310.752" font-family="Times New Roman,serif" font-size="14.00"> (1)</text>
</g>
<!-- node2&#45;&gt;node8 -->
<g id="edge8" class="edge"><title>node2&#45;&gt;node8</title>
<path fill="none" stroke="black" d="M70.2997,-256.442C80.1766,-252.201 91.5997,-248.075 102.493,-245.952 116.785,-243.167 132.421,-244.96 146.311,-248.251"/>
<polygon fill="black" stroke="black" points="145.508,-251.659 156.073,-250.868 147.321,-244.898 145.508,-251.659"/>
<text text-anchor="middle" x="112.493" y="-249.752" font-family="Times New Roman,serif" font-size="14.00"> (1)</text>
</g>
<!-- node3 -->
<g id="node4" class="node"><title>node3</title>
<ellipse fill="none" stroke="black" cx="42.2463" cy="-30.9524" rx="42.4939" ry="18"/>
<text text-anchor="middle" x="42.2463" y="-27.2524" font-family="Times New Roman,serif" font-size="14.00">(3) Input</text>
</g>
<!-- node12 -->
<g id="node13" class="node"><title>node12</title>
<ellipse fill="none" stroke="black" cx="766.807" cy="-164.952" rx="40.8928" ry="18"/>
<text text-anchor="middle" x="766.807" y="-161.252" font-family="Times New Roman,serif" font-size="14.00">(12) OR</text>
</g>
<!-- node3&#45;&gt;node12 -->
<g id="edge15" class="edge"><title>node3&#45;&gt;node12</title>
<path fill="none" stroke="black" d="M71.7294,-43.9733C81.3427,-47.9664 92.2378,-52.0636 102.493,-54.9524 139.111,-65.268 148.895,-68.9524 186.938,-68.9524 186.938,-68.9524 186.938,-68.9524 406.176,-68.9524 523.559,-68.9524 560.807,-40.5244 669.86,-83.9524 699.943,-95.932 727.417,-121.279 745.182,-140.448"/>
<polygon fill="black" stroke="black" points="742.662,-142.879 751.954,-147.968 747.864,-138.195 742.662,-142.879"/>
<text text-anchor="middle" x="405.176" y="-72.7524" font-family="Times New Roman,serif" font-size="14.00"> (0)</text>
</g>
<!-- node3&#45;&gt;node13 -->
<g id="edge17" class="edge"><title>node3&#45;&gt;node13</title>
<path fill="none" stroke="black" d="M67.1019,-16.1875C77.5558,-10.5488 90.2203,-4.79478 102.493,-1.95238 117.56,1.53737 134.081,-1.12236 148.483,-5.57127"/>
<polygon fill="black" stroke="black" points="147.477,-8.92662 158.072,-8.88355 149.763,-2.31025 147.477,-8.92662"/>
<text text-anchor="middle" x="112.493" y="-5.75238" font-family="Times New Roman,serif" font-size="14.00"> (0)</text>
</g>
<!-- node4 -->
<g id="node5" class="node"><title>node4</title>
<ellipse fill="none" stroke="black" cx="42.2463" cy="-404.952" rx="42.4939" ry="18"/>
<text text-anchor="middle" x="42.2463" y="-401.252" font-family="Times New Roman,serif" font-size="14.00">(4) Input</text>
</g>
<!-- node6 -->
<g id="node7" class="node"><title>node6</title>
<ellipse fill="none" stroke="black" cx="334.28" cy="-334.952" rx="42.4939" ry="18"/>
<text text-anchor="middle" x="334.28" y="-331.252" font-family="Times New Roman,serif" font-size="14.00">(6) AND</text>
</g>
<!-- node4&#45;&gt;node6 -->
<g id="edge4" class="edge"><title>node4&#45;&gt;node6</title>
<path fill="none" stroke="black" d="M80.966,-397.668C126.758,-388.578 206.199,-372.014 273.384,-353.952 279.053,-352.428 284.986,-350.705 290.82,-348.935"/>
<polygon fill="black" stroke="black" points="291.97,-352.243 300.483,-345.936 289.895,-345.557 291.97,-352.243"/>
<text text-anchor="middle" x="187.938" y="-388.752" font-family="Times New Roman,serif" font-size="14.00"> (1)</text>
</g>
<!-- node7 -->
<g id="node8" class="node"><title>node7</title>
<ellipse fill="none" stroke="black" cx="334.28" cy="-436.952" rx="42.7926" ry="18"/>
<text text-anchor="middle" x="334.28" y="-433.252" font-family="Times New Roman,serif" font-size="14.00">(7) XOR</text>
</g>
<!-- node4&#45;&gt;node7 -->
<g id="edge5" class="edge"><title>node4&#45;&gt;node7</title>
<path fill="none" stroke="black" d="M83.2697,-409.368C135.057,-415.082 225.349,-425.044 282.08,-431.303"/>
<polygon fill="black" stroke="black" points="281.942,-434.809 292.265,-432.427 282.709,-427.851 281.942,-434.809"/>
<text text-anchor="middle" x="187.938" y="-429.752" font-family="Times New Roman,serif" font-size="14.00"> (0)</text>
</g>
<!-- node5&#45;&gt;node6 -->
<g id="edge3" class="edge"><title>node5&#45;&gt;node6</title>
<path fill="none" stroke="black" d="M231.076,-334.952C246.925,-334.952 265.127,-334.952 281.736,-334.952"/>
<polygon fill="black" stroke="black" points="281.838,-338.452 291.838,-334.952 281.838,-331.452 281.838,-338.452"/>
<text text-anchor="middle" x="263.384" y="-338.752" font-family="Times New Roman,serif" font-size="14.00"> (0)</text>
</g>
<!-- node5&#45;&gt;node7 -->
<g id="edge6" class="edge"><title>node5&#45;&gt;node7</title>
<path fill="none" stroke="black" d="M211.2,-350.174C218.882,-355.458 227.53,-361.439 235.384,-366.952 258.474,-383.16 284.44,-401.743 303.825,-415.688"/>
<polygon fill="black" stroke="black" points="301.807,-418.548 311.968,-421.551 305.898,-412.867 301.807,-418.548"/>
<text text-anchor="middle" x="263.384" y="-396.752" font-family="Times New Roman,serif" font-size="14.00"> (1)</text>
</g>
<!-- node9 -->
<g id="node10" class="node"><title>node9</title>
<ellipse fill="none" stroke="black" cx="476.073" cy="-257.952" rx="42.7926" ry="18"/>
<text text-anchor="middle" x="476.073" y="-254.252" font-family="Times New Roman,serif" font-size="14.00">(9) XOR</text>
</g>
<!-- node6&#45;&gt;node9 -->
<g id="edge10" class="edge"><title>node6&#45;&gt;node9</title>
<path fill="none" stroke="black" d="M360.92,-320.829C383.146,-308.587 415.515,-290.758 440.112,-277.209"/>
<polygon fill="black" stroke="black" points="442.051,-280.137 449.122,-272.247 438.674,-274.006 442.051,-280.137"/>
<text text-anchor="middle" x="405.176" y="-304.752" font-family="Times New Roman,serif" font-size="14.00"> (1)</text>
</g>
<!-- node16 -->
<g id="node17" class="node"><title>node16</title>
<ellipse fill="none" stroke="black" cx="1037.24" cy="-436.952" rx="42.7926" ry="18"/>
<text text-anchor="middle" x="1037.24" y="-433.252" font-family="Times New Roman,serif" font-size="14.00">Output 0</text>
</g>
<!-- node7&#45;&gt;node16 -->
<g id="edge23" class="edge"><title>node7&#45;&gt;node16</title>
<path fill="none" stroke="black" d="M377.182,-436.952C404.951,-436.952 442.187,-436.952 475.073,-436.952 475.073,-436.952 475.073,-436.952 911.549,-436.952 935.283,-436.952 961.558,-436.952 983.845,-436.952"/>
<polygon fill="black" stroke="black" points="984.108,-440.452 994.108,-436.952 984.107,-433.452 984.108,-440.452"/>
</g>
<!-- node8&#45;&gt;node9 -->
<g id="edge9" class="edge"><title>node8&#45;&gt;node9</title>
<path fill="none" stroke="black" d="M230.239,-262.231C280.982,-261.344 367.136,-259.838 422.54,-258.87"/>
<polygon fill="black" stroke="black" points="422.915,-262.364 432.852,-258.69 422.792,-255.366 422.915,-262.364"/>
<text text-anchor="middle" x="334.28" y="-264.752" font-family="Times New Roman,serif" font-size="14.00"> (0)</text>
</g>
<!-- node9&#45;&gt;node10 -->
<g id="edge11" class="edge"><title>node9&#45;&gt;node10</title>
<path fill="none" stroke="black" d="M512.753,-248.312C532.267,-243.039 556.612,-236.462 577.309,-230.869"/>
<polygon fill="black" stroke="black" points="578.398,-234.201 587.139,-228.213 576.572,-227.443 578.398,-234.201"/>
<text text-anchor="middle" x="546.969" y="-243.752" font-family="Times New Roman,serif" font-size="14.00"> (0)</text>
</g>
<!-- node9&#45;&gt;node11 -->
<g id="edge14" class="edge"><title>node9&#45;&gt;node11</title>
<path fill="none" stroke="black" d="M498.958,-242.586C518.618,-228.93 548.396,-208.608 574.969,-191.952 578.614,-189.668 582.454,-187.33 586.299,-185.032"/>
<polygon fill="black" stroke="black" points="588.357,-187.881 595.193,-179.787 584.802,-181.852 588.357,-187.881"/>
<text text-anchor="middle" x="546.969" y="-217.752" font-family="Times New Roman,serif" font-size="14.00"> (1)</text>
</g>
<!-- node14 -->
<g id="node15" class="node"><title>node14</title>
<ellipse fill="none" stroke="black" cx="622.415" cy="-110.952" rx="47.3916" ry="18"/>
<text text-anchor="middle" x="622.415" y="-107.252" font-family="Times New Roman,serif" font-size="14.00">(14) XOR</text>
</g>
<!-- node9&#45;&gt;node14 -->
<g id="edge20" class="edge"><title>node9&#45;&gt;node14</title>
<path fill="none" stroke="black" d="M488.379,-240.394C505.086,-215.416 538.363,-169.196 574.969,-137.952 577.833,-135.508 580.949,-133.162 584.167,-130.946"/>
<polygon fill="black" stroke="black" points="586.286,-133.745 592.815,-125.401 582.508,-127.852 586.286,-133.745"/>
<text text-anchor="middle" x="546.969" y="-178.752" font-family="Times New Roman,serif" font-size="14.00"> (1)</text>
</g>
<!-- node15 -->
<g id="node16" class="node"><title>node15</title>
<ellipse fill="none" stroke="black" cx="910.549" cy="-191.952" rx="46.5926" ry="18"/>
<text text-anchor="middle" x="910.549" y="-188.252" font-family="Times New Roman,serif" font-size="14.00">(15) AND</text>
</g>
<!-- node10&#45;&gt;node15 -->
<g id="edge22" class="edge"><title>node10&#45;&gt;node15</title>
<path fill="none" stroke="black" d="M662.796,-215.644C707.254,-211.855 781.736,-205.343 845.753,-198.952 848.814,-198.647 851.957,-198.326 855.128,-197.996"/>
<polygon fill="black" stroke="black" points="855.712,-201.454 865.289,-196.922 854.977,-194.493 855.712,-201.454"/>
<text text-anchor="middle" x="766.807" y="-213.752" font-family="Times New Roman,serif" font-size="14.00"> (1)</text>
</g>
<!-- node11&#45;&gt;node12 -->
<g id="edge16" class="edge"><title>node11&#45;&gt;node12</title>
<path fill="none" stroke="black" d="M669.252,-164.952C684.049,-164.952 700.526,-164.952 715.62,-164.952"/>
<polygon fill="black" stroke="black" points="715.811,-168.452 725.811,-164.952 715.811,-161.452 715.811,-168.452"/>
<text text-anchor="middle" x="697.86" y="-168.752" font-family="Times New Roman,serif" font-size="14.00"> (1)</text>
</g>
<!-- node12&#45;&gt;node15 -->
<g id="edge21" class="edge"><title>node12&#45;&gt;node15</title>
<path fill="none" stroke="black" d="M804.678,-171.976C820.997,-175.084 840.469,-178.794 858.179,-182.167"/>
<polygon fill="black" stroke="black" points="857.887,-185.674 868.365,-184.107 859.197,-178.798 857.887,-185.674"/>
<text text-anchor="middle" x="835.753" y="-183.752" font-family="Times New Roman,serif" font-size="14.00"> (0)</text>
</g>
<!-- node13&#45;&gt;node14 -->
<g id="edge19" class="edge"><title>node13&#45;&gt;node14</title>
<path fill="none" stroke="black" d="M234.965,-20.4421C281.054,-18.939 353.764,-19.3253 415.176,-31.9524 476.37,-44.5345 543.214,-73.1031 583.727,-92.2112"/>
<polygon fill="black" stroke="black" points="582.414,-95.4627 592.946,-96.6113 585.429,-89.1453 582.414,-95.4627"/>
<text text-anchor="middle" x="405.176" y="-35.7524" font-family="Times New Roman,serif" font-size="14.00"> (0)</text>
</g>
<!-- node17 -->
<g id="node18" class="node"><title>node17</title>
<ellipse fill="none" stroke="black" cx="1037.24" cy="-39.9524" rx="42.7926" ry="18"/>
<text text-anchor="middle" x="1037.24" y="-36.2524" font-family="Times New Roman,serif" font-size="14.00">Output 1</text>
</g>
<!-- node14&#45;&gt;node17 -->
<g id="edge24" class="edge"><title>node14&#45;&gt;node17</title>
<path fill="none" stroke="black" d="M666.039,-103.622C743.186,-90.3534 905.526,-62.4335 987.165,-48.3928"/>
<polygon fill="black" stroke="black" points="987.922,-51.814 997.184,-46.6696 986.735,-44.9153 987.922,-51.814"/>
</g>
<!-- node18 -->
<g id="node19" class="node"><title>node18</title>
<ellipse fill="none" stroke="black" cx="1037.24" cy="-191.952" rx="42.7926" ry="18"/>
<text text-anchor="middle" x="1037.24" y="-188.252" font-family="Times New Roman,serif" font-size="14.00">Output 2</text>
</g>
<!-- node15&#45;&gt;node18 -->
<g id="edge25" class="edge"><title>node15&#45;&gt;node18</title>
<path fill="none" stroke="black" d="M957.625,-191.952C966.202,-191.952 975.22,-191.952 983.967,-191.952"/>
<polygon fill="black" stroke="black" points="984.067,-195.452 994.067,-191.952 984.067,-188.452 984.067,-195.452"/>
</g>
</g>
</svg>
