<?xml version="1.0" encoding="UTF-8" standalone="no"?>
<!DOCTYPE svg PUBLIC "-//W3C//DTD SVG 1.1//EN"
 "http://www.w3.org/Graphics/SVG/1.1/DTD/svg11.dtd">
<!-- Generated by graphviz version 2.38.0 (20140413.2041)
 -->
<!-- Title: NeuralNetwork Pages: 1 -->
<svg width="288pt" height="142pt"
 viewBox="0.00 0.00 288.00 141.91" xmlns="http://www.w3.org/2000/svg" xmlns:xlink="http://www.w3.org/1999/xlink">
<g id="graph0" class="graph" transform="scale(0.16854 0.16854) rotate(0) translate(4 838)">
<title>NeuralNetwork</title>
<polygon fill="white" stroke="none" points="-4,4 -4,-838 1704.79,-838 1704.79,4 -4,4"/>
<!-- node0 -->
<g id="node1" class="node"><title>node0</title>
<ellipse fill="none" stroke="black" cx="42.2463" cy="-738" rx="42.4939" ry="18"/>
<text text-anchor="middle" x="42.2463" y="-734.3" font-family="Times New Roman,serif" font-size="14.00">(0) Input</text>
</g>
<!-- node6 -->
<g id="node7" class="node"><title>node6</title>
<ellipse fill="none" stroke="black" cx="187.288" cy="-797" rx="42.4939" ry="18"/>
<text text-anchor="middle" x="187.288" y="-793.3" font-family="Times New Roman,serif" font-size="14.00">(6) AND</text>
</g>
<!-- node0&#45;&gt;node6 -->
<g id="edge2" class="edge"><title>node0&#45;&gt;node6</title>
<path fill="none" stroke="black" d="M58.6135,-755.01C69.6683,-766.072 85.5618,-779.744 102.493,-787 112.597,-791.33 123.976,-793.981 135.015,-795.565"/>
<polygon fill="black" stroke="black" points="134.672,-799.049 145.012,-796.738 135.487,-792.097 134.672,-799.049"/>
<text text-anchor="middle" x="112.493" y="-796.8" font-family="Times New Roman,serif" font-size="14.00"> (1)</text>
</g>
<!-- node16 -->
<g id="node17" class="node"><title>node16</title>
<ellipse fill="none" stroke="black" cx="187.288" cy="-641" rx="46.5926" ry="18"/>
<text text-anchor="middle" x="187.288" y="-637.3" font-family="Times New Roman,serif" font-size="14.00">(16) AND</text>
</g>
<!-- node0&#45;&gt;node16 -->
<g id="edge20" class="edge"><title>node0&#45;&gt;node16</title>
<path fill="none" stroke="black" d="M65.5966,-722.844C89.5615,-706.593 127.802,-680.661 154.807,-662.348"/>
<polygon fill="black" stroke="black" points="156.835,-665.202 163.147,-656.693 152.906,-659.408 156.835,-665.202"/>
<text text-anchor="middle" x="112.493" y="-698.8" font-family="Times New Roman,serif" font-size="14.00"> (0)</text>
</g>
<!-- node21 -->
<g id="node22" class="node"><title>node21</title>
<ellipse fill="none" stroke="black" cx="664.506" cy="-523" rx="47.3916" ry="18"/>
<text text-anchor="middle" x="664.506" y="-519.3" font-family="Times New Roman,serif" font-size="14.00">(21) XOR</text>
</g>
<!-- node0&#45;&gt;node21 -->
<g id="edge31" class="edge"><title>node0&#45;&gt;node21</title>
<path fill="none" stroke="black" d="M84.0975,-740.604C133.51,-742.825 212.738,-743.113 234.084,-724 266.75,-694.751 221.793,-658.702 252.084,-627 283.199,-594.437 405.794,-592.003 449.468,-581 506.962,-566.516 572.741,-548.468 616.03,-536.387"/>
<polygon fill="black" stroke="black" points="617.035,-539.74 625.722,-533.676 615.149,-532.999 617.035,-539.74"/>
<text text-anchor="middle" x="294.33" y="-630.8" font-family="Times New Roman,serif" font-size="14.00"> (1)</text>
</g>
<!-- node1 -->
<g id="node2" class="node"><title>node1</title>
<ellipse fill="none" stroke="black" cx="42.2463" cy="-406" rx="42.4939" ry="18"/>
<text text-anchor="middle" x="42.2463" y="-402.3" font-family="Times New Roman,serif" font-size="14.00">(1) Input</text>
</g>
<!-- node7 -->
<g id="node8" class="node"><title>node7</title>
<ellipse fill="none" stroke="black" cx="187.288" cy="-555" rx="42.4939" ry="18"/>
<text text-anchor="middle" x="187.288" y="-551.3" font-family="Times New Roman,serif" font-size="14.00">(7) AND</text>
</g>
<!-- node1&#45;&gt;node7 -->
<g id="edge4" class="edge"><title>node1&#45;&gt;node7</title>
<path fill="none" stroke="black" d="M59.164,-422.671C79.086,-443.672 111.883,-478.739 122.493,-493 131.773,-505.476 129.886,-511.63 140.493,-523 144.297,-527.078 148.702,-530.939 153.248,-534.474"/>
<polygon fill="black" stroke="black" points="151.334,-537.41 161.479,-540.462 155.451,-531.749 151.334,-537.41"/>
<text text-anchor="middle" x="112.493" y="-496.8" font-family="Times New Roman,serif" font-size="14.00"> (1)</text>
</g>
<!-- node8 -->
<g id="node9" class="node"><title>node8</title>
<ellipse fill="none" stroke="black" cx="187.288" cy="-360" rx="42.4939" ry="18"/>
<text text-anchor="middle" x="187.288" y="-356.3" font-family="Times New Roman,serif" font-size="14.00">(8) AND</text>
</g>
<!-- node1&#45;&gt;node8 -->
<g id="edge5" class="edge"><title>node1&#45;&gt;node8</title>
<path fill="none" stroke="black" d="M68.5938,-391.823C78.8663,-386.55 90.9994,-380.907 102.493,-377 113.471,-373.268 125.553,-370.231 137.041,-367.811"/>
<polygon fill="black" stroke="black" points="137.816,-371.226 146.942,-365.843 136.451,-364.36 137.816,-371.226"/>
<text text-anchor="middle" x="112.493" y="-380.8" font-family="Times New Roman,serif" font-size="14.00"> (0)</text>
</g>
<!-- node32 -->
<g id="node33" class="node"><title>node32</title>
<ellipse fill="none" stroke="black" cx="927.639" cy="-450" rx="46.5926" ry="18"/>
<text text-anchor="middle" x="927.639" y="-446.3" font-family="Times New Roman,serif" font-size="14.00">(32) AND</text>
</g>
<!-- node1&#45;&gt;node32 -->
<g id="edge51" class="edge"><title>node1&#45;&gt;node32</title>
<path fill="none" stroke="black" d="M84.1895,-403.693C200.701,-397.824 543.808,-385.385 824.843,-424 843.423,-426.553 863.5,-431.249 880.873,-435.956"/>
<polygon fill="black" stroke="black" points="880.185,-439.397 890.758,-438.712 882.065,-432.655 880.185,-439.397"/>
<text text-anchor="middle" x="477.468" y="-402.8" font-family="Times New Roman,serif" font-size="14.00"> (0)</text>
</g>
<!-- node2 -->
<g id="node3" class="node"><title>node2</title>
<ellipse fill="none" stroke="black" cx="42.2463" cy="-248" rx="42.4939" ry="18"/>
<text text-anchor="middle" x="42.2463" y="-244.3" font-family="Times New Roman,serif" font-size="14.00">(2) Input</text>
</g>
<!-- node9 -->
<g id="node10" class="node"><title>node9</title>
<ellipse fill="none" stroke="black" cx="294.33" cy="-146" rx="42.4939" ry="18"/>
<text text-anchor="middle" x="294.33" y="-142.3" font-family="Times New Roman,serif" font-size="14.00">(9) NEG</text>
</g>
<!-- node2&#45;&gt;node9 -->
<g id="edge7" class="edge"><title>node2&#45;&gt;node9</title>
<path fill="none" stroke="black" d="M55.6354,-230.839C66.4572,-217.134 83.3942,-198.537 102.493,-188 145.939,-164.029 202.037,-153.739 242.147,-149.322"/>
<polygon fill="black" stroke="black" points="242.644,-152.79 252.239,-148.297 241.937,-145.826 242.644,-152.79"/>
<text text-anchor="middle" x="112.493" y="-191.8" font-family="Times New Roman,serif" font-size="14.00"> (0)</text>
</g>
<!-- node11 -->
<g id="node12" class="node"><title>node11</title>
<ellipse fill="none" stroke="black" cx="402.022" cy="-247" rx="46.5926" ry="18"/>
<text text-anchor="middle" x="402.022" y="-243.3" font-family="Times New Roman,serif" font-size="14.00">(11) AND</text>
</g>
<!-- node2&#45;&gt;node11 -->
<g id="edge11" class="edge"><title>node2&#45;&gt;node11</title>
<path fill="none" stroke="black" d="M81.8247,-241.376C138.044,-232.716 245.689,-219.886 336.577,-231 342.368,-231.708 348.388,-232.762 354.32,-233.996"/>
<polygon fill="black" stroke="black" points="353.64,-237.431 364.165,-236.216 355.18,-230.602 353.64,-237.431"/>
<text text-anchor="middle" x="187.288" y="-237.8" font-family="Times New Roman,serif" font-size="14.00"> (1)</text>
</g>
<!-- node12 -->
<g id="node13" class="node"><title>node12</title>
<ellipse fill="none" stroke="black" cx="187.288" cy="-463" rx="46.5926" ry="18"/>
<text text-anchor="middle" x="187.288" y="-459.3" font-family="Times New Roman,serif" font-size="14.00">(12) AND</text>
</g>
<!-- node2&#45;&gt;node12 -->
<g id="edge13" class="edge"><title>node2&#45;&gt;node12</title>
<path fill="none" stroke="black" d="M57.3034,-264.856C73.8727,-285.108 101.772,-320.437 122.493,-353 131.672,-367.425 132.077,-372.116 140.493,-387 149.884,-403.61 160.909,-421.939 169.788,-436.435"/>
<polygon fill="black" stroke="black" points="167.052,-438.668 175.274,-445.351 173.014,-435 167.052,-438.668"/>
<text text-anchor="middle" x="112.493" y="-356.8" font-family="Times New Roman,serif" font-size="14.00"> (1)</text>
</g>
<!-- node13 -->
<g id="node14" class="node"><title>node13</title>
<ellipse fill="none" stroke="black" cx="552.264" cy="-604" rx="40.8928" ry="18"/>
<text text-anchor="middle" x="552.264" y="-600.3" font-family="Times New Roman,serif" font-size="14.00">(13) OR</text>
</g>
<!-- node2&#45;&gt;node13 -->
<g id="edge15" class="edge"><title>node2&#45;&gt;node13</title>
<path fill="none" stroke="black" d="M49.3203,-266.071C67.5208,-319.743 121.522,-475.395 140.493,-490 250.168,-574.435 320.944,-477.625 449.468,-529 479.028,-540.816 507.764,-563.312 527.124,-580.597"/>
<polygon fill="black" stroke="black" points="524.827,-583.24 534.57,-587.403 529.55,-578.073 524.827,-583.24"/>
<text text-anchor="middle" x="294.33" y="-529.8" font-family="Times New Roman,serif" font-size="14.00"> (1)</text>
</g>
<!-- node20 -->
<g id="node21" class="node"><title>node20</title>
<ellipse fill="none" stroke="black" cx="402.022" cy="-303" rx="47.3916" ry="18"/>
<text text-anchor="middle" x="402.022" y="-299.3" font-family="Times New Roman,serif" font-size="14.00">(20) XOR</text>
</g>
<!-- node2&#45;&gt;node20 -->
<g id="edge29" class="edge"><title>node2&#45;&gt;node20</title>
<path fill="none" stroke="black" d="M82.2157,-253.991C146.43,-263.862 274.595,-283.565 347.343,-294.748"/>
<polygon fill="black" stroke="black" points="347.245,-298.274 357.66,-296.334 348.308,-291.355 347.245,-298.274"/>
<text text-anchor="middle" x="187.288" y="-281.8" font-family="Times New Roman,serif" font-size="14.00"> (1)</text>
</g>
<!-- node22 -->
<g id="node23" class="node"><title>node22</title>
<ellipse fill="none" stroke="black" cx="927.639" cy="-38" rx="46.5926" ry="18"/>
<text text-anchor="middle" x="927.639" y="-34.3" font-family="Times New Roman,serif" font-size="14.00">(22) AND</text>
</g>
<!-- node2&#45;&gt;node22 -->
<g id="edge32" class="edge"><title>node2&#45;&gt;node22</title>
<path fill="none" stroke="black" d="M55.6415,-230.761C66.9815,-215.55 84.6612,-193.189 102.493,-176 117.788,-161.255 122.795,-158.755 140.493,-147 276.262,-56.8212 313.478,-0 476.468,-0 476.468,-0 476.468,-0 778.397,-0 815.515,-0 856.27,-11.3172 885.638,-21.5994"/>
<polygon fill="black" stroke="black" points="884.545,-24.9258 895.139,-25.0288 886.921,-18.3416 884.545,-24.9258"/>
<text text-anchor="middle" x="477.468" y="-4.8" font-family="Times New Roman,serif" font-size="14.00"> (0)</text>
</g>
<!-- node3 -->
<g id="node4" class="node"><title>node3</title>
<ellipse fill="none" stroke="black" cx="42.2463" cy="-605" rx="42.4939" ry="18"/>
<text text-anchor="middle" x="42.2463" y="-601.3" font-family="Times New Roman,serif" font-size="14.00">(3) Input</text>
</g>
<!-- node3&#45;&gt;node7 -->
<g id="edge3" class="edge"><title>node3&#45;&gt;node7</title>
<path fill="none" stroke="black" d="M79.4844,-596.106C93.1042,-592.46 108.638,-587.935 122.493,-583 131.185,-579.904 140.362,-576.166 148.963,-572.445"/>
<polygon fill="black" stroke="black" points="150.642,-575.529 158.373,-568.285 147.811,-569.127 150.642,-575.529"/>
<text text-anchor="middle" x="112.493" y="-593.8" font-family="Times New Roman,serif" font-size="14.00"> (0)</text>
</g>
<!-- node3&#45;&gt;node12 -->
<g id="edge12" class="edge"><title>node3&#45;&gt;node12</title>
<path fill="none" stroke="black" d="M55.168,-587.707C66.4653,-571.887 84.3596,-548.24 102.493,-530 118.819,-513.577 139.052,-497.303 155.546,-484.907"/>
<polygon fill="black" stroke="black" points="157.839,-487.564 163.79,-478.798 153.671,-481.94 157.839,-487.564"/>
<text text-anchor="middle" x="112.493" y="-533.8" font-family="Times New Roman,serif" font-size="14.00"> (0)</text>
</g>
<!-- node3&#45;&gt;node16 -->
<g id="edge21" class="edge"><title>node3&#45;&gt;node16</title>
<path fill="none" stroke="black" d="M78.2889,-614.647C86.2353,-616.783 94.645,-619.004 102.493,-621 113.591,-623.823 125.548,-626.746 136.855,-629.457"/>
<polygon fill="black" stroke="black" points="136.048,-632.863 146.587,-631.777 137.672,-626.054 136.048,-632.863"/>
<text text-anchor="middle" x="112.493" y="-629.8" font-family="Times New Roman,serif" font-size="14.00"> (1)</text>
</g>
<!-- node4 -->
<g id="node5" class="node"><title>node4</title>
<ellipse fill="none" stroke="black" cx="42.2463" cy="-675" rx="42.4939" ry="18"/>
<text text-anchor="middle" x="42.2463" y="-671.3" font-family="Times New Roman,serif" font-size="14.00">(4) Input</text>
</g>
<!-- node4&#45;&gt;node6 -->
<g id="edge1" class="edge"><title>node4&#45;&gt;node6</title>
<path fill="none" stroke="black" d="M61.9465,-690.949C86.8974,-712.23 131.227,-750.038 159.661,-774.29"/>
<polygon fill="black" stroke="black" points="157.704,-777.22 167.584,-781.047 162.246,-771.894 157.704,-777.22"/>
<text text-anchor="middle" x="112.493" y="-742.8" font-family="Times New Roman,serif" font-size="14.00"> (0)</text>
</g>
<!-- node4&#45;&gt;node8 -->
<g id="edge6" class="edge"><title>node4&#45;&gt;node8</title>
<path fill="none" stroke="black" d="M62.3313,-659.079C70.2157,-651.595 78.8196,-642.102 84.4925,-632 99.8002,-604.741 86.5559,-590.896 102.493,-564 108.742,-553.452 116.751,-555.833 122.493,-545 145.485,-501.616 123.518,-482.073 140.493,-436 147.108,-418.044 158.086,-399.62 167.635,-385.409"/>
<polygon fill="black" stroke="black" points="170.538,-387.364 173.344,-377.147 164.78,-383.384 170.538,-387.364"/>
<text text-anchor="middle" x="112.493" y="-567.8" font-family="Times New Roman,serif" font-size="14.00"> (1)</text>
</g>
<!-- node19 -->
<g id="node20" class="node"><title>node19</title>
<ellipse fill="none" stroke="black" cx="402.022" cy="-742" rx="40.8928" ry="18"/>
<text text-anchor="middle" x="402.022" y="-738.3" font-family="Times New Roman,serif" font-size="14.00">(19) OR</text>
</g>
<!-- node4&#45;&gt;node19 -->
<g id="edge26" class="edge"><title>node4&#45;&gt;node19</title>
<path fill="none" stroke="black" d="M82.598,-680.734C95.4086,-682.924 109.636,-685.702 122.493,-689 181.411,-704.113 192.398,-721.284 252.084,-733 284.458,-739.355 321.483,-741.614 350.518,-742.28"/>
<polygon fill="black" stroke="black" points="350.772,-745.785 360.831,-742.458 350.893,-738.786 350.772,-745.785"/>
<text text-anchor="middle" x="187.288" y="-731.8" font-family="Times New Roman,serif" font-size="14.00"> (0)</text>
</g>
<!-- node5 -->
<g id="node6" class="node"><title>node5</title>
<ellipse fill="none" stroke="black" cx="42.2463" cy="-70" rx="42.4939" ry="18"/>
<text text-anchor="middle" x="42.2463" y="-66.3" font-family="Times New Roman,serif" font-size="14.00">(5) Input</text>
</g>
<!-- node18 -->
<g id="node19" class="node"><title>node18</title>
<ellipse fill="none" stroke="black" cx="777.397" cy="-198" rx="46.5926" ry="18"/>
<text text-anchor="middle" x="777.397" y="-194.3" font-family="Times New Roman,serif" font-size="14.00">(18) AND</text>
</g>
<!-- node5&#45;&gt;node18 -->
<g id="edge24" class="edge"><title>node5&#45;&gt;node18</title>
<path fill="none" stroke="black" d="M84.3562,-68.4327C90.4364,-68.253 96.6271,-68.099 102.493,-68 146.43,-67.2586 211.325,-68.6886 234.084,-70 330.105,-75.5328 355.336,-71.2564 449.468,-91 554.882,-113.11 674.029,-157.173 735.24,-181.284"/>
<polygon fill="black" stroke="black" points="733.97,-184.545 744.556,-184.976 736.549,-178.038 733.97,-184.545"/>
<text text-anchor="middle" x="402.022" y="-94.8" font-family="Times New Roman,serif" font-size="14.00"> (0)</text>
</g>
<!-- node29 -->
<g id="node30" class="node"><title>node29</title>
<ellipse fill="none" stroke="black" cx="552.264" cy="-202" rx="40.8928" ry="18"/>
<text text-anchor="middle" x="552.264" y="-198.3" font-family="Times New Roman,serif" font-size="14.00">(29) OR</text>
</g>
<!-- node5&#45;&gt;node29 -->
<g id="edge46" class="edge"><title>node5&#45;&gt;node29</title>
<path fill="none" stroke="black" d="M84.8353,-70.7551C142.404,-72.7106 249.167,-79.638 336.577,-104 403.907,-122.766 476.84,-160.041 518.007,-182.823"/>
<polygon fill="black" stroke="black" points="516.35,-185.906 526.786,-187.729 519.764,-179.795 516.35,-185.906"/>
<text text-anchor="middle" x="294.33" y="-107.8" font-family="Times New Roman,serif" font-size="14.00"> (1)</text>
</g>
<!-- node10 -->
<g id="node11" class="node"><title>node10</title>
<ellipse fill="none" stroke="black" cx="402.022" cy="-650" rx="47.3916" ry="18"/>
<text text-anchor="middle" x="402.022" y="-646.3" font-family="Times New Roman,serif" font-size="14.00">(10) XOR</text>
</g>
<!-- node6&#45;&gt;node10 -->
<g id="edge8" class="edge"><title>node6&#45;&gt;node10</title>
<path fill="none" stroke="black" d="M208.699,-781.451C217.736,-773.559 227.734,-763.263 234.084,-752 251.132,-721.762 226.817,-699.801 252.084,-676 276.717,-652.796 314.314,-646.37 345.57,-645.707"/>
<polygon fill="black" stroke="black" points="345.905,-649.206 355.898,-645.687 345.892,-642.206 345.905,-649.206"/>
<text text-anchor="middle" x="294.33" y="-679.8" font-family="Times New Roman,serif" font-size="14.00"> (0)</text>
</g>
<!-- node33 -->
<g id="node34" class="node"><title>node33</title>
<ellipse fill="none" stroke="black" cx="1228.77" cy="-654" rx="46.5926" ry="18"/>
<text text-anchor="middle" x="1228.77" y="-650.3" font-family="Times New Roman,serif" font-size="14.00">(33) AND</text>
</g>
<!-- node6&#45;&gt;node33 -->
<g id="edge53" class="edge"><title>node6&#45;&gt;node33</title>
<path fill="none" stroke="black" d="M222.975,-806.818C264.822,-817.78 337.481,-834 401.022,-834 401.022,-834 401.022,-834 665.506,-834 719.207,-834 1061.81,-713.366 1184.3,-669.612"/>
<polygon fill="black" stroke="black" points="1185.52,-672.893 1193.76,-666.231 1183.17,-666.302 1185.52,-672.893"/>
<text text-anchor="middle" x="777.397" y="-822.8" font-family="Times New Roman,serif" font-size="14.00"> (0)</text>
</g>
<!-- node7&#45;&gt;node10 -->
<g id="edge9" class="edge"><title>node7&#45;&gt;node10</title>
<path fill="none" stroke="black" d="M229.648,-554.478C260.774,-555.736 303.568,-561.091 336.577,-579 356.083,-589.583 372.75,-608.398 384.245,-624.001"/>
<polygon fill="black" stroke="black" points="381.456,-626.118 390.084,-632.266 387.173,-622.079 381.456,-626.118"/>
<text text-anchor="middle" x="294.33" y="-582.8" font-family="Times New Roman,serif" font-size="14.00"> (1)</text>
</g>
<!-- node7&#45;&gt;node11 -->
<g id="edge10" class="edge"><title>node7&#45;&gt;node11</title>
<path fill="none" stroke="black" d="M203.503,-538.089C213.807,-525.671 226.823,-507.91 234.084,-490 253.357,-442.464 222.704,-418.047 252.084,-376 276.697,-340.776 309.049,-361.996 336.577,-329 352.513,-309.898 339.128,-295.499 354.577,-276 357.095,-272.822 360.063,-269.897 363.262,-267.231"/>
<polygon fill="black" stroke="black" points="365.575,-269.875 371.563,-261.135 361.431,-264.233 365.575,-269.875"/>
<text text-anchor="middle" x="294.33" y="-379.8" font-family="Times New Roman,serif" font-size="14.00"> (0)</text>
</g>
<!-- node27 -->
<g id="node28" class="node"><title>node27</title>
<ellipse fill="none" stroke="black" cx="1077.88" cy="-654" rx="47.3916" ry="18"/>
<text text-anchor="middle" x="1077.88" y="-650.3" font-family="Times New Roman,serif" font-size="14.00">(27) XOR</text>
</g>
<!-- node7&#45;&gt;node27 -->
<g id="edge41" class="edge"><title>node7&#45;&gt;node27</title>
<path fill="none" stroke="black" d="M203.835,-571.706C213.626,-582.957 225.915,-598.518 234.084,-614 246.285,-637.122 232.589,-652.581 252.084,-670 273.5,-689.135 476.891,-718.153 505.468,-721 546.86,-725.124 557.565,-723.895 599.06,-721 754.999,-710.12 937.493,-679.5 1024.97,-663.701"/>
<polygon fill="black" stroke="black" points="1025.69,-667.127 1034.9,-661.896 1024.44,-660.24 1025.69,-667.127"/>
<text text-anchor="middle" x="664.506" y="-722.8" font-family="Times New Roman,serif" font-size="14.00"> (0)</text>
</g>
<!-- node14 -->
<g id="node15" class="node"><title>node14</title>
<ellipse fill="none" stroke="black" cx="552.264" cy="-345" rx="40.8928" ry="18"/>
<text text-anchor="middle" x="552.264" y="-341.3" font-family="Times New Roman,serif" font-size="14.00">(14) OR</text>
</g>
<!-- node8&#45;&gt;node14 -->
<g id="edge17" class="edge"><title>node8&#45;&gt;node14</title>
<path fill="none" stroke="black" d="M228.05,-365.041C235.998,-365.858 244.296,-366.574 252.084,-367 289.58,-369.051 299.094,-369.282 336.577,-367 395.075,-363.438 409.134,-356.65 467.468,-351 478.472,-349.934 490.305,-348.974 501.513,-348.149"/>
<polygon fill="black" stroke="black" points="501.862,-351.633 511.588,-347.431 501.364,-344.651 501.862,-351.633"/>
<text text-anchor="middle" x="402.022" y="-369.8" font-family="Times New Roman,serif" font-size="14.00"> (1)</text>
</g>
<!-- node15 -->
<g id="node16" class="node"><title>node15</title>
<ellipse fill="none" stroke="black" cx="402.022" cy="-469" rx="47.3916" ry="18"/>
<text text-anchor="middle" x="402.022" y="-465.3" font-family="Times New Roman,serif" font-size="14.00">(15) XOR</text>
</g>
<!-- node8&#45;&gt;node15 -->
<g id="edge18" class="edge"><title>node8&#45;&gt;node15</title>
<path fill="none" stroke="black" d="M213.617,-374.204C225.273,-380.661 239.32,-388.331 252.084,-395 289.377,-414.484 332.475,-435.765 362.684,-450.483"/>
<polygon fill="black" stroke="black" points="361.492,-453.795 372.016,-455.021 364.553,-447.5 361.492,-453.795"/>
<text text-anchor="middle" x="294.33" y="-441.8" font-family="Times New Roman,serif" font-size="14.00"> (0)</text>
</g>
<!-- node17 -->
<g id="node18" class="node"><title>node17</title>
<ellipse fill="none" stroke="black" cx="402.022" cy="-193" rx="40.8928" ry="18"/>
<text text-anchor="middle" x="402.022" y="-189.3" font-family="Times New Roman,serif" font-size="14.00">(17) OR</text>
</g>
<!-- node8&#45;&gt;node17 -->
<g id="edge22" class="edge"><title>node8&#45;&gt;node17</title>
<path fill="none" stroke="black" d="M203.924,-343.425C214.012,-331.835 226.601,-315.527 234.084,-299 250.191,-263.426 223.484,-239.589 252.084,-213 278.722,-188.235 320.517,-184.511 353.061,-186.257"/>
<polygon fill="black" stroke="black" points="353.045,-189.764 363.271,-186.996 353.55,-182.783 353.045,-189.764"/>
<text text-anchor="middle" x="294.33" y="-216.8" font-family="Times New Roman,serif" font-size="14.00"> (0)</text>
</g>
<!-- node8&#45;&gt;node20 -->
<g id="edge28" class="edge"><title>node8&#45;&gt;node20</title>
<path fill="none" stroke="black" d="M205.433,-343.571C217.472,-333.125 234.507,-320.401 252.084,-314 281.485,-303.294 316.264,-300.237 344.817,-299.997"/>
<polygon fill="black" stroke="black" points="345.023,-303.498 355.033,-300.027 345.044,-296.498 345.023,-303.498"/>
<text text-anchor="middle" x="294.33" y="-317.8" font-family="Times New Roman,serif" font-size="14.00"> (0)</text>
</g>
<!-- node28 -->
<g id="node29" class="node"><title>node28</title>
<ellipse fill="none" stroke="black" cx="1228.77" cy="-297" rx="47.3916" ry="18"/>
<text text-anchor="middle" x="1228.77" y="-293.3" font-family="Times New Roman,serif" font-size="14.00">(28) XOR</text>
</g>
<!-- node9&#45;&gt;node28 -->
<g id="edge43" class="edge"><title>node9&#45;&gt;node28</title>
<path fill="none" stroke="black" d="M336.697,-146.358C373.411,-146.645 428.51,-147 476.468,-147 476.468,-147 476.468,-147 1078.88,-147 1147.45,-147 1195.25,-226.924 1216.06,-270.091"/>
<polygon fill="black" stroke="black" points="1212.92,-271.625 1220.32,-279.204 1219.26,-268.662 1212.92,-271.625"/>
<text text-anchor="middle" x="777.397" y="-150.8" font-family="Times New Roman,serif" font-size="14.00"> (0)</text>
</g>
<!-- node10&#45;&gt;node13 -->
<g id="edge14" class="edge"><title>node10&#45;&gt;node13</title>
<path fill="none" stroke="black" d="M431.038,-635.755C442.161,-630.536 455.206,-624.948 467.468,-621 478.834,-617.34 491.33,-614.302 503.124,-611.856"/>
<polygon fill="black" stroke="black" points="504.128,-615.226 513.262,-609.858 502.774,-608.358 504.128,-615.226"/>
<text text-anchor="middle" x="477.468" y="-624.8" font-family="Times New Roman,serif" font-size="14.00"> (0)</text>
</g>
<!-- node10&#45;&gt;node14 -->
<g id="edge16" class="edge"><title>node10&#45;&gt;node14</title>
<path fill="none" stroke="black" d="M417.944,-632.916C428.723,-619.501 442.554,-599.831 449.468,-580 464.96,-535.564 437.569,-405.34 467.468,-369 475.973,-358.664 488.604,-352.605 501.496,-349.102"/>
<polygon fill="black" stroke="black" points="502.349,-352.497 511.34,-346.892 500.816,-345.667 502.349,-352.497"/>
<text text-anchor="middle" x="477.468" y="-372.8" font-family="Times New Roman,serif" font-size="14.00"> (0)</text>
</g>
<!-- node41 -->
<g id="node42" class="node"><title>node41</title>
<ellipse fill="none" stroke="black" cx="1657.9" cy="-737" rx="42.7926" ry="18"/>
<text text-anchor="middle" x="1657.9" y="-733.3" font-family="Times New Roman,serif" font-size="14.00">Output 1</text>
</g>
<!-- node10&#45;&gt;node41 -->
<g id="edge68" class="edge"><title>node10&#45;&gt;node41</title>
<path fill="none" stroke="black" d="M449.117,-652.389C488.937,-654.78 547.96,-659.108 599.06,-666 779.422,-690.325 819.44,-742 1001.43,-742 1001.43,-742 1001.43,-742 1531.56,-742 1555.73,-742 1582.5,-741.06 1605.08,-739.995"/>
<polygon fill="black" stroke="black" points="1605.32,-743.488 1615.13,-739.5 1604.97,-736.496 1605.32,-743.488"/>
</g>
<!-- node11&#45;&gt;node29 -->
<g id="edge45" class="edge"><title>node11&#45;&gt;node29</title>
<path fill="none" stroke="black" d="M431.014,-232.681C442.134,-227.453 455.183,-221.878 467.468,-218 478.72,-214.448 491.083,-211.558 502.777,-209.261"/>
<polygon fill="black" stroke="black" points="503.643,-212.66 512.836,-207.393 502.365,-205.777 503.643,-212.66"/>
<text text-anchor="middle" x="477.468" y="-221.8" font-family="Times New Roman,serif" font-size="14.00"> (0)</text>
</g>
<!-- node36 -->
<g id="node37" class="node"><title>node36</title>
<ellipse fill="none" stroke="black" cx="927.639" cy="-231" rx="40.8928" ry="18"/>
<text text-anchor="middle" x="927.639" y="-227.3" font-family="Times New Roman,serif" font-size="14.00">(36) OR</text>
</g>
<!-- node11&#45;&gt;node36 -->
<g id="edge60" class="edge"><title>node11&#45;&gt;node36</title>
<path fill="none" stroke="black" d="M432.27,-261.023C452.347,-269.849 479.888,-280.409 505.468,-285 544.552,-292.015 825.559,-298.661 862.843,-285 879.273,-278.98 894.379,-266.65 905.764,-255.29"/>
<polygon fill="black" stroke="black" points="908.31,-257.691 912.684,-248.041 903.247,-252.858 908.31,-257.691"/>
<text text-anchor="middle" x="664.506" y="-296.8" font-family="Times New Roman,serif" font-size="14.00"> (1)</text>
</g>
<!-- node12&#45;&gt;node15 -->
<g id="edge19" class="edge"><title>node12&#45;&gt;node15</title>
<path fill="none" stroke="black" d="M234.187,-464.295C266.398,-465.203 309.689,-466.424 344.1,-467.395"/>
<polygon fill="black" stroke="black" points="344.377,-470.904 354.472,-467.687 344.575,-463.906 344.377,-470.904"/>
<text text-anchor="middle" x="294.33" y="-471.8" font-family="Times New Roman,serif" font-size="14.00"> (1)</text>
</g>
<!-- node23 -->
<g id="node24" class="node"><title>node23</title>
<ellipse fill="none" stroke="black" cx="777.397" cy="-604" rx="46.5926" ry="18"/>
<text text-anchor="middle" x="777.397" y="-600.3" font-family="Times New Roman,serif" font-size="14.00">(23) AND</text>
</g>
<!-- node13&#45;&gt;node23 -->
<g id="edge34" class="edge"><title>node13&#45;&gt;node23</title>
<path fill="none" stroke="black" d="M593.414,-604C628.849,-604 680.866,-604 720.391,-604"/>
<polygon fill="black" stroke="black" points="720.41,-607.5 730.41,-604 720.41,-600.5 720.41,-607.5"/>
<text text-anchor="middle" x="664.506" y="-607.8" font-family="Times New Roman,serif" font-size="14.00"> (0)</text>
</g>
<!-- node14&#45;&gt;node18 -->
<g id="edge25" class="edge"><title>node14&#45;&gt;node18</title>
<path fill="none" stroke="black" d="M591.7,-340.009C635.887,-333.922 703.456,-323.406 711.952,-315 740.948,-286.308 706.223,-258.181 729.952,-225 731.905,-222.269 734.227,-219.772 736.776,-217.497"/>
<polygon fill="black" stroke="black" points="739.082,-220.142 744.961,-211.328 734.868,-214.552 739.082,-220.142"/>
<text text-anchor="middle" x="664.506" y="-340.8" font-family="Times New Roman,serif" font-size="14.00"> (1)</text>
</g>
<!-- node15&#45;&gt;node21 -->
<g id="edge30" class="edge"><title>node15&#45;&gt;node21</title>
<path fill="none" stroke="black" d="M444.01,-477.497C489.583,-486.945 563.248,-502.216 612.511,-512.428"/>
<polygon fill="black" stroke="black" points="611.826,-515.861 622.328,-514.464 613.247,-509.006 611.826,-515.861"/>
<text text-anchor="middle" x="477.468" y="-489.8" font-family="Times New Roman,serif" font-size="14.00"> (0)</text>
</g>
<!-- node16&#45;&gt;node17 -->
<g id="edge23" class="edge"><title>node16&#45;&gt;node17</title>
<path fill="none" stroke="black" d="M205.869,-624.157C216.068,-613.204 228.055,-598.019 234.084,-582 257.611,-519.495 217.555,-339.168 252.084,-282 255.51,-276.328 324.608,-236.396 367.47,-211.988"/>
<polygon fill="black" stroke="black" points="369.221,-215.018 376.184,-207.033 365.761,-208.933 369.221,-215.018"/>
<text text-anchor="middle" x="294.33" y="-285.8" font-family="Times New Roman,serif" font-size="14.00"> (1)</text>
</g>
<!-- node16&#45;&gt;node19 -->
<g id="edge27" class="edge"><title>node16&#45;&gt;node19</title>
<path fill="none" stroke="black" d="M213.008,-656.43C220.121,-661.349 227.682,-667.066 234.084,-673 243.35,-681.588 241.485,-688.125 252.084,-695 284.736,-716.179 299.527,-706.085 336.577,-718 344.746,-720.627 353.408,-723.671 361.642,-726.69"/>
<polygon fill="black" stroke="black" points="360.464,-729.986 371.057,-730.197 362.908,-723.427 360.464,-729.986"/>
<text text-anchor="middle" x="294.33" y="-721.8" font-family="Times New Roman,serif" font-size="14.00"> (1)</text>
</g>
<!-- node25 -->
<g id="node26" class="node"><title>node25</title>
<ellipse fill="none" stroke="black" cx="552.264" cy="-451" rx="46.5926" ry="18"/>
<text text-anchor="middle" x="552.264" y="-447.3" font-family="Times New Roman,serif" font-size="14.00">(25) AND</text>
</g>
<!-- node16&#45;&gt;node25 -->
<g id="edge38" class="edge"><title>node16&#45;&gt;node25</title>
<path fill="none" stroke="black" d="M208.623,-624.756C220.718,-615.675 236.667,-604.675 252.084,-597 287.499,-579.37 299.56,-582.957 336.577,-569 404.738,-543.299 425.434,-543.187 487.468,-505 501.525,-496.347 515.685,-484.723 527.082,-474.475"/>
<polygon fill="black" stroke="black" points="529.506,-477.001 534.495,-467.655 524.766,-471.85 529.506,-477.001"/>
<text text-anchor="middle" x="402.022" y="-565.8" font-family="Times New Roman,serif" font-size="14.00"> (1)</text>
</g>
<!-- node40 -->
<g id="node41" class="node"><title>node40</title>
<ellipse fill="none" stroke="black" cx="1657.9" cy="-791" rx="42.7926" ry="18"/>
<text text-anchor="middle" x="1657.9" y="-787.3" font-family="Times New Roman,serif" font-size="14.00">Output 0</text>
</g>
<!-- node16&#45;&gt;node40 -->
<g id="edge67" class="edge"><title>node16&#45;&gt;node40</title>
<path fill="none" stroke="black" d="M207.059,-657.762C216.152,-666.645 226.678,-678.152 234.084,-690 245.941,-708.967 235.986,-721.469 252.084,-737 302.438,-785.58 331.054,-788 401.022,-788 401.022,-788 401.022,-788 1531.56,-788 1555.72,-788 1582.49,-788.564 1605.07,-789.203"/>
<polygon fill="black" stroke="black" points="1605.02,-792.703 1615.12,-789.5 1605.23,-785.706 1605.02,-792.703"/>
</g>
<!-- node39 -->
<g id="node40" class="node"><title>node39</title>
<ellipse fill="none" stroke="black" cx="1077.88" cy="-51" rx="46.5926" ry="18"/>
<text text-anchor="middle" x="1077.88" y="-47.3" font-family="Times New Roman,serif" font-size="14.00">(39) AND</text>
</g>
<!-- node17&#45;&gt;node39 -->
<g id="edge66" class="edge"><title>node17&#45;&gt;node39</title>
<path fill="none" stroke="black" d="M415.04,-175.487C437.761,-144.675 490.25,-84 551.264,-84 551.264,-84 551.264,-84 928.639,-84 964.371,-84 1003.82,-74.7519 1033.03,-66.0473"/>
<polygon fill="black" stroke="black" points="1034.38,-69.2927 1042.91,-63.0071 1032.32,-62.6021 1034.38,-69.2927"/>
<text text-anchor="middle" x="777.397" y="-87.8" font-family="Times New Roman,serif" font-size="14.00"> (1)</text>
</g>
<!-- node18&#45;&gt;node22 -->
<g id="edge33" class="edge"><title>node18&#45;&gt;node22</title>
<path fill="none" stroke="black" d="M803.532,-182.671C810.749,-177.755 818.402,-172.014 824.843,-166 858.591,-134.49 890.54,-91.3626 909.357,-64.0917"/>
<polygon fill="black" stroke="black" points="912.479,-65.7254 915.219,-55.4909 906.695,-61.7831 912.479,-65.7254"/>
<text text-anchor="middle" x="852.843" y="-151.8" font-family="Times New Roman,serif" font-size="14.00"> (1)</text>
</g>
<!-- node24 -->
<g id="node25" class="node"><title>node24</title>
<ellipse fill="none" stroke="black" cx="927.639" cy="-372" rx="46.2923" ry="18"/>
<text text-anchor="middle" x="927.639" y="-368.3" font-family="Times New Roman,serif" font-size="14.00">(24) NEG</text>
</g>
<!-- node18&#45;&gt;node24 -->
<g id="edge36" class="edge"><title>node18&#45;&gt;node24</title>
<path fill="none" stroke="black" d="M807.271,-212.14C813.428,-215.856 819.637,-220.19 824.843,-225 835.336,-234.694 883.372,-306.452 909.534,-346.007"/>
<polygon fill="black" stroke="black" points="906.638,-347.972 915.069,-354.388 912.479,-344.115 906.638,-347.972"/>
<text text-anchor="middle" x="852.843" y="-278.8" font-family="Times New Roman,serif" font-size="14.00"> (0)</text>
</g>
<!-- node19&#45;&gt;node23 -->
<g id="edge35" class="edge"><title>node19&#45;&gt;node23</title>
<path fill="none" stroke="black" d="M433.895,-730.589C500.361,-706.023 657.14,-648.078 733.332,-619.917"/>
<polygon fill="black" stroke="black" points="734.925,-623.06 743.091,-616.31 732.498,-616.494 734.925,-623.06"/>
<text text-anchor="middle" x="552.264" y="-705.8" font-family="Times New Roman,serif" font-size="14.00"> (1)</text>
</g>
<!-- node20&#45;&gt;node25 -->
<g id="edge37" class="edge"><title>node20&#45;&gt;node25</title>
<path fill="none" stroke="black" d="M446.156,-309.936C460.664,-314.053 476.048,-320.601 487.468,-331 502.183,-344.399 496.464,-354.253 505.468,-372 514.557,-389.913 525.867,-409.446 534.973,-424.608"/>
<polygon fill="black" stroke="black" points="532.143,-426.691 540.319,-433.43 538.13,-423.064 532.143,-426.691"/>
<text text-anchor="middle" x="477.468" y="-334.8" font-family="Times New Roman,serif" font-size="14.00"> (0)</text>
</g>
<!-- node30 -->
<g id="node31" class="node"><title>node30</title>
<ellipse fill="none" stroke="black" cx="777.397" cy="-252" rx="46.5926" ry="18"/>
<text text-anchor="middle" x="777.397" y="-248.3" font-family="Times New Roman,serif" font-size="14.00">(30) AND</text>
</g>
<!-- node20&#45;&gt;node30 -->
<g id="edge47" class="edge"><title>node20&#45;&gt;node30</title>
<path fill="none" stroke="black" d="M446.951,-297C515.717,-287.607 648.582,-269.459 722.847,-259.315"/>
<polygon fill="black" stroke="black" points="723.49,-262.759 732.924,-257.938 722.542,-255.824 723.49,-262.759"/>
<text text-anchor="middle" x="552.264" y="-292.8" font-family="Times New Roman,serif" font-size="14.00"> (0)</text>
</g>
<!-- node26 -->
<g id="node27" class="node"><title>node26</title>
<ellipse fill="none" stroke="black" cx="1077.88" cy="-372" rx="40.8928" ry="18"/>
<text text-anchor="middle" x="1077.88" y="-368.3" font-family="Times New Roman,serif" font-size="14.00">(26) OR</text>
</g>
<!-- node21&#45;&gt;node26 -->
<g id="edge39" class="edge"><title>node21&#45;&gt;node26</title>
<path fill="none" stroke="black" d="M711.728,-525.055C774.664,-525.933 889.226,-520.58 974.435,-477 1010.54,-458.535 1041.36,-422.419 1059.51,-397.753"/>
<polygon fill="black" stroke="black" points="1062.4,-399.721 1065.39,-389.554 1056.71,-395.643 1062.4,-399.721"/>
<text text-anchor="middle" x="852.843" y="-520.8" font-family="Times New Roman,serif" font-size="14.00"> (0)</text>
</g>
<!-- node35 -->
<g id="node36" class="node"><title>node35</title>
<ellipse fill="none" stroke="black" cx="1379.66" cy="-621" rx="47.3916" ry="18"/>
<text text-anchor="middle" x="1379.66" y="-617.3" font-family="Times New Roman,serif" font-size="14.00">(35) XOR</text>
</g>
<!-- node21&#45;&gt;node35 -->
<g id="edge58" class="edge"><title>node21&#45;&gt;node35</title>
<path fill="none" stroke="black" d="M708.474,-529.784C715.643,-530.883 723.005,-531.99 729.952,-533 950.268,-565.034 1213.24,-599.568 1324.6,-614.021"/>
<polygon fill="black" stroke="black" points="1324.21,-617.5 1334.58,-615.315 1325.11,-610.558 1324.21,-617.5"/>
<text text-anchor="middle" x="1002.43" y="-576.8" font-family="Times New Roman,serif" font-size="14.00"> (1)</text>
</g>
<!-- node22&#45;&gt;node39 -->
<g id="edge65" class="edge"><title>node22&#45;&gt;node39</title>
<path fill="none" stroke="black" d="M973.519,-41.9357C988.758,-43.2721 1005.96,-44.7807 1021.9,-46.1783"/>
<polygon fill="black" stroke="black" points="1021.89,-49.6906 1032.15,-47.0777 1022.5,-42.7174 1021.89,-49.6906"/>
<text text-anchor="middle" x="1002.43" y="-49.8" font-family="Times New Roman,serif" font-size="14.00"> (0)</text>
</g>
<!-- node34 -->
<g id="node35" class="node"><title>node34</title>
<ellipse fill="none" stroke="black" cx="1379.66" cy="-496" rx="46.5926" ry="18"/>
<text text-anchor="middle" x="1379.66" y="-492.3" font-family="Times New Roman,serif" font-size="14.00">(34) AND</text>
</g>
<!-- node23&#45;&gt;node34 -->
<g id="edge56" class="edge"><title>node23&#45;&gt;node34</title>
<path fill="none" stroke="black" d="M812.419,-592.027C854.267,-577.758 927.722,-554.194 992.435,-541 1108.83,-517.268 1247.71,-504.9 1323.16,-499.486"/>
<polygon fill="black" stroke="black" points="1323.64,-502.96 1333.37,-498.768 1323.15,-495.978 1323.64,-502.96"/>
<text text-anchor="middle" x="1077.88" y="-537.8" font-family="Times New Roman,serif" font-size="14.00"> (1)</text>
</g>
<!-- node24&#45;&gt;node26 -->
<g id="edge40" class="edge"><title>node24&#45;&gt;node26</title>
<path fill="none" stroke="black" d="M973.922,-372C990.563,-372 1009.5,-372 1026.56,-372"/>
<polygon fill="black" stroke="black" points="1026.9,-375.5 1036.9,-372 1026.9,-368.5 1026.9,-375.5"/>
<text text-anchor="middle" x="1002.43" y="-375.8" font-family="Times New Roman,serif" font-size="14.00"> (1)</text>
</g>
<!-- node24&#45;&gt;node27 -->
<g id="edge42" class="edge"><title>node24&#45;&gt;node27</title>
<path fill="none" stroke="black" d="M946.214,-388.815C955.42,-398.261 966.416,-410.613 974.435,-423 980.379,-432.182 1039.25,-567.288 1064.97,-626.518"/>
<polygon fill="black" stroke="black" points="1061.89,-628.217 1069.08,-635.997 1068.31,-625.43 1061.89,-628.217"/>
<text text-anchor="middle" x="1002.43" y="-506.8" font-family="Times New Roman,serif" font-size="14.00"> (1)</text>
</g>
<!-- node31 -->
<g id="node32" class="node"><title>node31</title>
<ellipse fill="none" stroke="black" cx="777.397" cy="-451" rx="47.3916" ry="18"/>
<text text-anchor="middle" x="777.397" y="-447.3" font-family="Times New Roman,serif" font-size="14.00">(31) XOR</text>
</g>
<!-- node25&#45;&gt;node31 -->
<g id="edge49" class="edge"><title>node25&#45;&gt;node31</title>
<path fill="none" stroke="black" d="M599.227,-451C634.094,-451 682.22,-451 719.515,-451"/>
<polygon fill="black" stroke="black" points="719.727,-454.5 729.727,-451 719.727,-447.5 719.727,-454.5"/>
<text text-anchor="middle" x="664.506" y="-454.8" font-family="Times New Roman,serif" font-size="14.00"> (0)</text>
</g>
<!-- node26&#45;&gt;node28 -->
<g id="edge44" class="edge"><title>node26&#45;&gt;node28</title>
<path fill="none" stroke="black" d="M1105.5,-358.592C1129.14,-346.681 1163.95,-329.149 1190.39,-315.832"/>
<polygon fill="black" stroke="black" points="1192,-318.938 1199.36,-311.314 1188.85,-312.687 1192,-318.938"/>
<text text-anchor="middle" x="1153.33" y="-342.8" font-family="Times New Roman,serif" font-size="14.00"> (1)</text>
</g>
<!-- node27&#45;&gt;node33 -->
<g id="edge54" class="edge"><title>node27&#45;&gt;node33</title>
<path fill="none" stroke="black" d="M1125.58,-654C1140.13,-654 1156.34,-654 1171.47,-654"/>
<polygon fill="black" stroke="black" points="1171.75,-657.5 1181.75,-654 1171.75,-650.5 1171.75,-657.5"/>
<text text-anchor="middle" x="1153.33" y="-657.8" font-family="Times New Roman,serif" font-size="14.00"> (1)</text>
</g>
<!-- node28&#45;&gt;node34 -->
<g id="edge55" class="edge"><title>node28&#45;&gt;node34</title>
<path fill="none" stroke="black" d="M1242.72,-314.312C1269.01,-349.448 1328.74,-429.276 1359.53,-470.423"/>
<polygon fill="black" stroke="black" points="1356.84,-472.676 1365.64,-478.586 1362.45,-468.483 1356.84,-472.676"/>
<text text-anchor="middle" x="1304.22" y="-412.8" font-family="Times New Roman,serif" font-size="14.00"> (0)</text>
</g>
<!-- node37 -->
<g id="node38" class="node"><title>node37</title>
<ellipse fill="none" stroke="black" cx="1379.66" cy="-121" rx="46.5926" ry="18"/>
<text text-anchor="middle" x="1379.66" y="-117.3" font-family="Times New Roman,serif" font-size="14.00">(37) AND</text>
</g>
<!-- node28&#45;&gt;node37 -->
<g id="edge62" class="edge"><title>node28&#45;&gt;node37</title>
<path fill="none" stroke="black" d="M1244.32,-279.804C1270.85,-248.442 1327.18,-181.86 1357.79,-145.668"/>
<polygon fill="black" stroke="black" points="1360.49,-147.902 1364.28,-138.007 1355.15,-143.381 1360.49,-147.902"/>
<text text-anchor="middle" x="1304.22" y="-223.8" font-family="Times New Roman,serif" font-size="14.00"> (1)</text>
</g>
<!-- node29&#45;&gt;node30 -->
<g id="edge48" class="edge"><title>node29&#45;&gt;node30</title>
<path fill="none" stroke="black" d="M592.555,-205.824C624.969,-209.54 671.961,-216.226 711.952,-227 719.943,-229.153 728.305,-231.96 736.259,-234.913"/>
<polygon fill="black" stroke="black" points="735.115,-238.223 745.705,-238.552 737.632,-231.691 735.115,-238.223"/>
<text text-anchor="middle" x="664.506" y="-230.8" font-family="Times New Roman,serif" font-size="14.00"> (1)</text>
</g>
<!-- node29&#45;&gt;node31 -->
<g id="edge50" class="edge"><title>node29&#45;&gt;node31</title>
<path fill="none" stroke="black" d="M580.252,-215.56C587.429,-220.426 594.456,-226.583 599.06,-234 627.27,-279.447 587.534,-308.397 617.06,-353 644.048,-393.768 694.398,-420.478 731.299,-435.566"/>
<polygon fill="black" stroke="black" points="730.257,-438.917 740.844,-439.334 732.828,-432.406 730.257,-438.917"/>
<text text-anchor="middle" x="664.506" y="-430.8" font-family="Times New Roman,serif" font-size="14.00"> (1)</text>
</g>
<!-- node30&#45;&gt;node36 -->
<g id="edge59" class="edge"><title>node30&#45;&gt;node36</title>
<path fill="none" stroke="black" d="M811.743,-239.645C821.617,-236.536 832.544,-233.624 842.843,-232 853.736,-230.282 865.525,-229.494 876.723,-229.235"/>
<polygon fill="black" stroke="black" points="876.835,-232.734 886.8,-229.135 876.765,-225.735 876.835,-232.734"/>
<text text-anchor="middle" x="852.843" y="-235.8" font-family="Times New Roman,serif" font-size="14.00"> (0)</text>
</g>
<!-- node31&#45;&gt;node32 -->
<g id="edge52" class="edge"><title>node31&#45;&gt;node32</title>
<path fill="none" stroke="black" d="M824.895,-450.686C839.383,-450.589 855.514,-450.48 870.584,-450.378"/>
<polygon fill="black" stroke="black" points="870.838,-453.877 880.814,-450.309 870.791,-446.877 870.838,-453.877"/>
<text text-anchor="middle" x="852.843" y="-454.8" font-family="Times New Roman,serif" font-size="14.00"> (1)</text>
</g>
<!-- node38 -->
<g id="node39" class="node"><title>node38</title>
<ellipse fill="none" stroke="black" cx="1530.56" cy="-470" rx="47.3916" ry="18"/>
<text text-anchor="middle" x="1530.56" y="-466.3" font-family="Times New Roman,serif" font-size="14.00">(38) XOR</text>
</g>
<!-- node32&#45;&gt;node38 -->
<g id="edge63" class="edge"><title>node32&#45;&gt;node38</title>
<path fill="none" stroke="black" d="M974.713,-450C1003.98,-450 1042.65,-450 1076.88,-450 1076.88,-450 1076.88,-450 1380.66,-450 1413.42,-450 1449.86,-454.813 1478.5,-459.716"/>
<polygon fill="black" stroke="black" points="1478.22,-463.221 1488.68,-461.518 1479.44,-456.328 1478.22,-463.221"/>
<text text-anchor="middle" x="1228.77" y="-453.8" font-family="Times New Roman,serif" font-size="14.00"> (0)</text>
</g>
<!-- node33&#45;&gt;node35 -->
<g id="edge57" class="edge"><title>node33&#45;&gt;node35</title>
<path fill="none" stroke="black" d="M1269.67,-645.157C1287.79,-641.141 1309.42,-636.348 1328.61,-632.094"/>
<polygon fill="black" stroke="black" points="1329.39,-635.506 1338.39,-629.925 1327.87,-628.672 1329.39,-635.506"/>
<text text-anchor="middle" x="1304.22" y="-642.8" font-family="Times New Roman,serif" font-size="14.00"> (0)</text>
</g>
<!-- node34&#45;&gt;node38 -->
<g id="edge64" class="edge"><title>node34&#45;&gt;node38</title>
<path fill="none" stroke="black" d="M1422.53,-488.688C1439.51,-485.724 1459.3,-482.268 1477.21,-479.14"/>
<polygon fill="black" stroke="black" points="1477.98,-482.56 1487.22,-477.392 1476.77,-475.664 1477.98,-482.56"/>
<text text-anchor="middle" x="1455.11" y="-488.8" font-family="Times New Roman,serif" font-size="14.00"> (1)</text>
</g>
<!-- node42 -->
<g id="node43" class="node"><title>node42</title>
<ellipse fill="none" stroke="black" cx="1657.9" cy="-621" rx="42.7926" ry="18"/>
<text text-anchor="middle" x="1657.9" y="-617.3" font-family="Times New Roman,serif" font-size="14.00">Output 2</text>
</g>
<!-- node35&#45;&gt;node42 -->
<g id="edge69" class="edge"><title>node35&#45;&gt;node42</title>
<path fill="none" stroke="black" d="M1427.21,-621C1476.26,-621 1553.36,-621 1604.51,-621"/>
<polygon fill="black" stroke="black" points="1604.7,-624.5 1614.7,-621 1604.7,-617.5 1604.7,-624.5"/>
</g>
<!-- node36&#45;&gt;node37 -->
<g id="edge61" class="edge"><title>node36&#45;&gt;node37</title>
<path fill="none" stroke="black" d="M949.469,-215.547C986.281,-189.31 1066.25,-137.046 1143.33,-118 1204.67,-102.841 1277.79,-107.092 1326.06,-112.834"/>
<polygon fill="black" stroke="black" points="1325.91,-116.343 1336.27,-114.115 1326.78,-109.398 1325.91,-116.343"/>
<text text-anchor="middle" x="1153.33" y="-121.8" font-family="Times New Roman,serif" font-size="14.00"> (0)</text>
</g>
<!-- node44 -->
<g id="node45" class="node"><title>node44</title>
<ellipse fill="none" stroke="black" cx="1657.9" cy="-121" rx="42.7926" ry="18"/>
<text text-anchor="middle" x="1657.9" y="-117.3" font-family="Times New Roman,serif" font-size="14.00">Output 4</text>
</g>
<!-- node37&#45;&gt;node44 -->
<g id="edge71" class="edge"><title>node37&#45;&gt;node44</title>
<path fill="none" stroke="black" d="M1426.59,-121C1475.67,-121 1553.35,-121 1604.72,-121"/>
<polygon fill="black" stroke="black" points="1604.94,-124.5 1614.94,-121 1604.94,-117.5 1604.94,-124.5"/>
</g>
<!-- node43 -->
<g id="node44" class="node"><title>node43</title>
<ellipse fill="none" stroke="black" cx="1657.9" cy="-470" rx="42.7926" ry="18"/>
<text text-anchor="middle" x="1657.9" y="-466.3" font-family="Times New Roman,serif" font-size="14.00">Output 3</text>
</g>
<!-- node38&#45;&gt;node43 -->
<g id="edge70" class="edge"><title>node38&#45;&gt;node43</title>
<path fill="none" stroke="black" d="M1578.23,-470C1586.83,-470 1595.87,-470 1604.63,-470"/>
<polygon fill="black" stroke="black" points="1604.74,-473.5 1614.74,-470 1604.74,-466.5 1604.74,-473.5"/>
</g>
<!-- node45 -->
<g id="node46" class="node"><title>node45</title>
<ellipse fill="none" stroke="black" cx="1657.9" cy="-51" rx="42.7926" ry="18"/>
<text text-anchor="middle" x="1657.9" y="-47.3" font-family="Times New Roman,serif" font-size="14.00">Output 5</text>
</g>
<!-- node39&#45;&gt;node45 -->
<g id="edge72" class="edge"><title>node39&#45;&gt;node45</title>
<path fill="none" stroke="black" d="M1124.83,-51C1154.26,-51 1193.26,-51 1227.77,-51 1227.77,-51 1227.77,-51 1531.56,-51 1555.62,-51 1582.27,-51 1604.8,-51"/>
<polygon fill="black" stroke="black" points="1604.83,-54.5001 1614.83,-51 1604.83,-47.5001 1604.83,-54.5001"/>
</g>
</g>
</svg>
