<?xml version="1.0" encoding="UTF-8" standalone="no"?>
<!DOCTYPE svg PUBLIC "-//W3C//DTD SVG 1.1//EN"
 "http://www.w3.org/Graphics/SVG/1.1/DTD/svg11.dtd">
<!-- Generated by graphviz version 2.38.0 (20140413.2041)
 -->
<!-- Title: NeuralNetwork Pages: 1 -->
<svg width="288pt" height="105pt"
 viewBox="0.00 0.00 288.00 105.07" xmlns="http://www.w3.org/2000/svg" xmlns:xlink="http://www.w3.org/1999/xlink">
<g id="graph0" class="graph" transform="scale(0.280938 0.280938) rotate(0) translate(4 370)">
<title>NeuralNetwork</title>
<polygon fill="white" stroke="none" points="-4,4 -4,-370 1021.14,-370 1021.14,4 -4,4"/>
<!-- node0 -->
<g id="node1" class="node"><title>node0</title>
<ellipse fill="none" stroke="black" cx="42.2463" cy="-188" rx="42.4939" ry="18"/>
<text text-anchor="middle" x="42.2463" y="-184.3" font-family="Times New Roman,serif" font-size="14.00">(0) Input</text>
</g>
<!-- node6 -->
<g id="node7" class="node"><title>node6</title>
<ellipse fill="none" stroke="black" cx="183.389" cy="-175" rx="42.4939" ry="18"/>
<text text-anchor="middle" x="183.389" y="-171.3" font-family="Times New Roman,serif" font-size="14.00">(6) AND</text>
</g>
<!-- node0&#45;&gt;node6 -->
<g id="edge4" class="edge"><title>node0&#45;&gt;node6</title>
<path fill="none" stroke="black" d="M84.4782,-190.506C96.7442,-190.716 110.191,-190.419 122.493,-189 127.343,-188.441 132.371,-187.635 137.359,-186.688"/>
<polygon fill="black" stroke="black" points="138.395,-190.047 147.47,-184.581 136.966,-183.194 138.395,-190.047"/>
<text text-anchor="middle" x="112.493" y="-193.8" font-family="Times New Roman,serif" font-size="14.00"> (1)</text>
</g>
<!-- node7 -->
<g id="node8" class="node"><title>node7</title>
<ellipse fill="none" stroke="black" cx="183.389" cy="-115" rx="42.7926" ry="18"/>
<text text-anchor="middle" x="183.389" y="-111.3" font-family="Times New Roman,serif" font-size="14.00">(7) XOR</text>
</g>
<!-- node0&#45;&gt;node7 -->
<g id="edge6" class="edge"><title>node0&#45;&gt;node7</title>
<path fill="none" stroke="black" d="M56.7542,-170.926C67.7281,-158.238 84.3219,-141.539 102.493,-132 111.439,-127.303 121.594,-123.904 131.593,-121.444"/>
<polygon fill="black" stroke="black" points="132.465,-124.836 141.488,-119.284 130.972,-117.997 132.465,-124.836"/>
<text text-anchor="middle" x="112.493" y="-135.8" font-family="Times New Roman,serif" font-size="14.00"> (1)</text>
</g>
<!-- node1 -->
<g id="node2" class="node"><title>node1</title>
<ellipse fill="none" stroke="black" cx="42.2463" cy="-264" rx="42.4939" ry="18"/>
<text text-anchor="middle" x="42.2463" y="-260.3" font-family="Times New Roman,serif" font-size="14.00">(1) Input</text>
</g>
<!-- node5 -->
<g id="node6" class="node"><title>node5</title>
<ellipse fill="none" stroke="black" cx="183.389" cy="-333" rx="42.4939" ry="18"/>
<text text-anchor="middle" x="183.389" y="-329.3" font-family="Times New Roman,serif" font-size="14.00">(5) AND</text>
</g>
<!-- node1&#45;&gt;node5 -->
<g id="edge1" class="edge"><title>node1&#45;&gt;node5</title>
<path fill="none" stroke="black" d="M64.2178,-279.461C75.2504,-287.161 89.2125,-296.243 102.493,-303 114.163,-308.938 127.297,-314.352 139.494,-318.895"/>
<polygon fill="black" stroke="black" points="138.434,-322.234 149.028,-322.345 140.816,-315.651 138.434,-322.234"/>
<text text-anchor="middle" x="112.493" y="-314.8" font-family="Times New Roman,serif" font-size="14.00"> (0)</text>
</g>
<!-- node8 -->
<g id="node9" class="node"><title>node8</title>
<ellipse fill="none" stroke="black" cx="287.181" cy="-265" rx="42.7926" ry="18"/>
<text text-anchor="middle" x="287.181" y="-261.3" font-family="Times New Roman,serif" font-size="14.00">(8) XOR</text>
</g>
<!-- node1&#45;&gt;node8 -->
<g id="edge8" class="edge"><title>node1&#45;&gt;node8</title>
<path fill="none" stroke="black" d="M78.0946,-254.348C86.0511,-252.542 94.514,-250.93 102.493,-250 148.392,-244.651 200.964,-250.111 238.073,-255.887"/>
<polygon fill="black" stroke="black" points="237.679,-259.369 248.111,-257.516 238.8,-252.459 237.679,-259.369"/>
<text text-anchor="middle" x="112.493" y="-253.8" font-family="Times New Roman,serif" font-size="14.00"> (1)</text>
</g>
<!-- node2 -->
<g id="node3" class="node"><title>node2</title>
<ellipse fill="none" stroke="black" cx="42.2463" cy="-40" rx="42.4939" ry="18"/>
<text text-anchor="middle" x="42.2463" y="-36.3" font-family="Times New Roman,serif" font-size="14.00">(2) Input</text>
</g>
<!-- node9 -->
<g id="node10" class="node"><title>node9</title>
<ellipse fill="none" stroke="black" cx="394.873" cy="-18" rx="42.7926" ry="18"/>
<text text-anchor="middle" x="394.873" y="-14.3" font-family="Times New Roman,serif" font-size="14.00">(9) XOR</text>
</g>
<!-- node2&#45;&gt;node9 -->
<g id="edge10" class="edge"><title>node2&#45;&gt;node9</title>
<path fill="none" stroke="black" d="M82.4239,-33.8779C100.118,-31.3413 121.313,-28.6187 140.493,-27 209.841,-21.1471 290.178,-19.0908 341.479,-18.3741"/>
<polygon fill="black" stroke="black" points="341.701,-21.8716 351.655,-18.2442 341.611,-14.8722 341.701,-21.8716"/>
<text text-anchor="middle" x="183.389" y="-30.8" font-family="Times New Roman,serif" font-size="14.00"> (1)</text>
</g>
<!-- node10 -->
<g id="node11" class="node"><title>node10</title>
<ellipse fill="none" stroke="black" cx="394.873" cy="-115" rx="46.5926" ry="18"/>
<text text-anchor="middle" x="394.873" y="-111.3" font-family="Times New Roman,serif" font-size="14.00">(10) AND</text>
</g>
<!-- node2&#45;&gt;node10 -->
<g id="edge11" class="edge"><title>node2&#45;&gt;node10</title>
<path fill="none" stroke="black" d="M81.9599,-46.2035C119.11,-52.3393 176.724,-62.3347 226.285,-73 266.944,-81.7497 312.722,-93.3424 346.147,-102.132"/>
<polygon fill="black" stroke="black" points="345.542,-105.592 356.104,-104.763 347.33,-98.824 345.542,-105.592"/>
<text text-anchor="middle" x="183.389" y="-76.8" font-family="Times New Roman,serif" font-size="14.00"> (0)</text>
</g>
<!-- node3 -->
<g id="node4" class="node"><title>node3</title>
<ellipse fill="none" stroke="black" cx="42.2463" cy="-348" rx="42.4939" ry="18"/>
<text text-anchor="middle" x="42.2463" y="-344.3" font-family="Times New Roman,serif" font-size="14.00">(3) Input</text>
</g>
<!-- node3&#45;&gt;node5 -->
<g id="edge2" class="edge"><title>node3&#45;&gt;node5</title>
<path fill="none" stroke="black" d="M84.0029,-344.751C96.3762,-343.67 110.001,-342.385 122.493,-341 125.933,-340.618 129.483,-340.202 133.055,-339.767"/>
<polygon fill="black" stroke="black" points="133.628,-343.222 143.113,-338.501 132.754,-336.277 133.628,-343.222"/>
<text text-anchor="middle" x="112.493" y="-346.8" font-family="Times New Roman,serif" font-size="14.00"> (1)</text>
</g>
<!-- node3&#45;&gt;node8 -->
<g id="edge7" class="edge"><title>node3&#45;&gt;node8</title>
<path fill="none" stroke="black" d="M54.0344,-330.581C64.4321,-315.468 81.6354,-294.425 102.493,-284 124.821,-272.839 187.954,-268.226 233.986,-266.325"/>
<polygon fill="black" stroke="black" points="234.253,-269.817 244.112,-265.938 233.986,-262.822 234.253,-269.817"/>
<text text-anchor="middle" x="112.493" y="-287.8" font-family="Times New Roman,serif" font-size="14.00"> (0)</text>
</g>
<!-- node4 -->
<g id="node5" class="node"><title>node4</title>
<ellipse fill="none" stroke="black" cx="42.2463" cy="-115" rx="42.4939" ry="18"/>
<text text-anchor="middle" x="42.2463" y="-111.3" font-family="Times New Roman,serif" font-size="14.00">(4) Input</text>
</g>
<!-- node4&#45;&gt;node6 -->
<g id="edge3" class="edge"><title>node4&#45;&gt;node6</title>
<path fill="none" stroke="black" d="M65.3009,-130.248C76.1475,-137.26 89.6283,-145.272 102.493,-151 113.237,-155.784 125.205,-159.948 136.539,-163.404"/>
<polygon fill="black" stroke="black" points="135.709,-166.808 146.289,-166.257 137.674,-160.09 135.709,-166.808"/>
<text text-anchor="middle" x="112.493" y="-161.8" font-family="Times New Roman,serif" font-size="14.00"> (0)</text>
</g>
<!-- node4&#45;&gt;node7 -->
<g id="edge5" class="edge"><title>node4&#45;&gt;node7</title>
<path fill="none" stroke="black" d="M75.7976,-103.897C84.3774,-101.459 93.6973,-99.2369 102.493,-98 115.109,-96.2257 128.711,-97.7906 141.052,-100.569"/>
<polygon fill="black" stroke="black" points="140.517,-104.045 151.073,-103.143 142.258,-97.2654 140.517,-104.045"/>
<text text-anchor="middle" x="112.493" y="-101.8" font-family="Times New Roman,serif" font-size="14.00"> (0)</text>
</g>
<!-- node13 -->
<g id="node14" class="node"><title>node13</title>
<ellipse fill="none" stroke="black" cx="846.898" cy="-315" rx="47.3916" ry="18"/>
<text text-anchor="middle" x="846.898" y="-311.3" font-family="Times New Roman,serif" font-size="14.00">(13) XOR</text>
</g>
<!-- node5&#45;&gt;node13 -->
<g id="edge18" class="edge"><title>node5&#45;&gt;node13</title>
<path fill="none" stroke="black" d="M225.725,-332.373C267.978,-331.786 335.499,-331 393.873,-331 393.873,-331 393.873,-331 697.006,-331 728.96,-331 764.55,-327.312 792.921,-323.477"/>
<polygon fill="black" stroke="black" points="793.607,-326.915 803.026,-322.064 792.638,-319.983 793.607,-326.915"/>
<text text-anchor="middle" x="545.115" y="-334.8" font-family="Times New Roman,serif" font-size="14.00"> (1)</text>
</g>
<!-- node11 -->
<g id="node12" class="node"><title>node11</title>
<ellipse fill="none" stroke="black" cx="545.115" cy="-175" rx="47.3916" ry="18"/>
<text text-anchor="middle" x="545.115" y="-171.3" font-family="Times New Roman,serif" font-size="14.00">(11) XOR</text>
</g>
<!-- node6&#45;&gt;node11 -->
<g id="edge13" class="edge"><title>node6&#45;&gt;node11</title>
<path fill="none" stroke="black" d="M225.654,-175C289.944,-175 414.179,-175 487.022,-175"/>
<polygon fill="black" stroke="black" points="487.384,-178.5 497.384,-175 487.384,-171.5 487.384,-178.5"/>
<text text-anchor="middle" x="394.873" y="-178.8" font-family="Times New Roman,serif" font-size="14.00"> (0)</text>
</g>
<!-- node7&#45;&gt;node9 -->
<g id="edge9" class="edge"><title>node7&#45;&gt;node9</title>
<path fill="none" stroke="black" d="M213.077,-101.716C250.19,-84.5311 314.942,-54.5483 356.045,-35.5159"/>
<polygon fill="black" stroke="black" points="357.592,-38.6568 365.196,-31.2789 354.651,-32.3047 357.592,-38.6568"/>
<text text-anchor="middle" x="287.181" y="-89.8" font-family="Times New Roman,serif" font-size="14.00"> (0)</text>
</g>
<!-- node7&#45;&gt;node10 -->
<g id="edge12" class="edge"><title>node7&#45;&gt;node10</title>
<path fill="none" stroke="black" d="M226.529,-115C258.5,-115 302.761,-115 337.734,-115"/>
<polygon fill="black" stroke="black" points="337.799,-118.5 347.799,-115 337.799,-111.5 337.799,-118.5"/>
<text text-anchor="middle" x="287.181" y="-118.8" font-family="Times New Roman,serif" font-size="14.00"> (1)</text>
</g>
<!-- node12 -->
<g id="node13" class="node"><title>node12</title>
<ellipse fill="none" stroke="black" cx="696.006" cy="-284" rx="46.5926" ry="18"/>
<text text-anchor="middle" x="696.006" y="-280.3" font-family="Times New Roman,serif" font-size="14.00">(12) AND</text>
</g>
<!-- node8&#45;&gt;node12 -->
<g id="edge16" class="edge"><title>node8&#45;&gt;node12</title>
<path fill="none" stroke="black" d="M330.186,-266.962C403.973,-270.408 556.841,-277.547 639.333,-281.4"/>
<polygon fill="black" stroke="black" points="639.367,-284.905 649.519,-281.876 639.694,-277.913 639.367,-284.905"/>
<text text-anchor="middle" x="469.669" y="-276.8" font-family="Times New Roman,serif" font-size="14.00"> (1)</text>
</g>
<!-- node14 -->
<g id="node15" class="node"><title>node14</title>
<ellipse fill="none" stroke="black" cx="696.006" cy="-198" rx="47.3916" ry="18"/>
<text text-anchor="middle" x="696.006" y="-194.3" font-family="Times New Roman,serif" font-size="14.00">(14) XOR</text>
</g>
<!-- node8&#45;&gt;node14 -->
<g id="edge19" class="edge"><title>node8&#45;&gt;node14</title>
<path fill="none" stroke="black" d="M327.559,-258.515C401.162,-246.393 559.608,-220.299 642.318,-206.677"/>
<polygon fill="black" stroke="black" points="642.962,-210.118 652.26,-205.04 641.824,-203.212 642.962,-210.118"/>
<text text-anchor="middle" x="469.669" y="-239.8" font-family="Times New Roman,serif" font-size="14.00"> (0)</text>
</g>
<!-- node15 -->
<g id="node16" class="node"><title>node15</title>
<ellipse fill="none" stroke="black" cx="974.24" cy="-18" rx="42.7926" ry="18"/>
<text text-anchor="middle" x="974.24" y="-14.3" font-family="Times New Roman,serif" font-size="14.00">Output 0</text>
</g>
<!-- node9&#45;&gt;node15 -->
<g id="edge21" class="edge"><title>node9&#45;&gt;node15</title>
<path fill="none" stroke="black" d="M438.046,-18C467.712,-18 508.341,-18 544.115,-18 544.115,-18 544.115,-18 847.898,-18 871.958,-18 898.616,-18 921.14,-18"/>
<polygon fill="black" stroke="black" points="921.173,-21.5001 931.173,-18 921.173,-14.5001 921.173,-21.5001"/>
</g>
<!-- node10&#45;&gt;node11 -->
<g id="edge14" class="edge"><title>node10&#45;&gt;node11</title>
<path fill="none" stroke="black" d="M429.918,-126.996C445.22,-132.541 463.448,-139.359 479.669,-146 488.001,-149.411 496.852,-153.25 505.239,-156.99"/>
<polygon fill="black" stroke="black" points="503.905,-160.228 514.46,-161.144 506.78,-153.845 503.905,-160.228"/>
<text text-anchor="middle" x="469.669" y="-149.8" font-family="Times New Roman,serif" font-size="14.00"> (1)</text>
</g>
<!-- node11&#45;&gt;node12 -->
<g id="edge15" class="edge"><title>node11&#45;&gt;node12</title>
<path fill="none" stroke="black" d="M567.765,-190.85C593.458,-209.659 636.435,-241.121 665.243,-262.211"/>
<polygon fill="black" stroke="black" points="663.194,-265.048 673.33,-268.131 667.329,-259.4 663.194,-265.048"/>
<text text-anchor="middle" x="620.561" y="-239.8" font-family="Times New Roman,serif" font-size="14.00"> (0)</text>
</g>
<!-- node11&#45;&gt;node14 -->
<g id="edge20" class="edge"><title>node11&#45;&gt;node14</title>
<path fill="none" stroke="black" d="M589.581,-181.714C605.787,-184.218 624.378,-187.09 641.391,-189.718"/>
<polygon fill="black" stroke="black" points="641.327,-193.249 651.744,-191.317 642.395,-186.331 641.327,-193.249"/>
<text text-anchor="middle" x="620.561" y="-190.8" font-family="Times New Roman,serif" font-size="14.00"> (1)</text>
</g>
<!-- node12&#45;&gt;node13 -->
<g id="edge17" class="edge"><title>node12&#45;&gt;node13</title>
<path fill="none" stroke="black" d="M737.692,-292.471C755.427,-296.163 776.405,-300.531 795.147,-304.433"/>
<polygon fill="black" stroke="black" points="794.5,-307.874 805.003,-306.486 795.927,-301.021 794.5,-307.874"/>
<text text-anchor="middle" x="771.452" y="-304.8" font-family="Times New Roman,serif" font-size="14.00"> (0)</text>
</g>
<!-- node17 -->
<g id="node18" class="node"><title>node17</title>
<ellipse fill="none" stroke="black" cx="974.24" cy="-315" rx="42.7926" ry="18"/>
<text text-anchor="middle" x="974.24" y="-311.3" font-family="Times New Roman,serif" font-size="14.00">Output 2</text>
</g>
<!-- node13&#45;&gt;node17 -->
<g id="edge23" class="edge"><title>node13&#45;&gt;node17</title>
<path fill="none" stroke="black" d="M894.571,-315C903.175,-315 912.211,-315 920.968,-315"/>
<polygon fill="black" stroke="black" points="921.078,-318.5 931.078,-315 921.078,-311.5 921.078,-318.5"/>
</g>
<!-- node16 -->
<g id="node17" class="node"><title>node16</title>
<ellipse fill="none" stroke="black" cx="974.24" cy="-198" rx="42.7926" ry="18"/>
<text text-anchor="middle" x="974.24" y="-194.3" font-family="Times New Roman,serif" font-size="14.00">Output 1</text>
</g>
<!-- node14&#45;&gt;node16 -->
<g id="edge22" class="edge"><title>node14&#45;&gt;node16</title>
<path fill="none" stroke="black" d="M743.553,-198C792.606,-198 869.703,-198 920.853,-198"/>
<polygon fill="black" stroke="black" points="921.038,-201.5 931.038,-198 921.038,-194.5 921.038,-201.5"/>
</g>
</g>
</svg>
