<?xml version="1.0" encoding="UTF-8" standalone="no"?>
<!DOCTYPE svg PUBLIC "-//W3C//DTD SVG 1.1//EN"
 "http://www.w3.org/Graphics/SVG/1.1/DTD/svg11.dtd">
<!-- Generated by graphviz version 2.38.0 (20140413.2041)
 -->
<!-- Title: NeuralNetwork Pages: 1 -->
<svg width="288pt" height="121pt"
 viewBox="0.00 0.00 288.00 120.87" xmlns="http://www.w3.org/2000/svg" xmlns:xlink="http://www.w3.org/1999/xlink">
<g id="graph0" class="graph" transform="scale(0.245163 0.245163) rotate(0) translate(4 489)">
<title>NeuralNetwork</title>
<polygon fill="white" stroke="none" points="-4,4 -4,-489 1170.73,-489 1170.73,4 -4,4"/>
<!-- node0 -->
<g id="node1" class="node"><title>node0</title>
<ellipse fill="none" stroke="black" cx="42.2463" cy="-247" rx="42.4939" ry="18"/>
<text text-anchor="middle" x="42.2463" y="-243.3" font-family="Times New Roman,serif" font-size="14.00">(0) Input</text>
</g>
<!-- node5 -->
<g id="node6" class="node"><title>node5</title>
<ellipse fill="none" stroke="black" cx="183.389" cy="-193" rx="42.4939" ry="18"/>
<text text-anchor="middle" x="183.389" y="-189.3" font-family="Times New Roman,serif" font-size="14.00">(5) AND</text>
</g>
<!-- node0&#45;&gt;node5 -->
<g id="edge2" class="edge"><title>node0&#45;&gt;node5</title>
<path fill="none" stroke="black" d="M80.0972,-238.57C93.6445,-235.004 108.971,-230.412 122.493,-225 131.415,-221.429 140.728,-216.887 149.278,-212.356"/>
<polygon fill="black" stroke="black" points="151.099,-215.349 158.203,-207.488 147.748,-209.204 151.099,-215.349"/>
<text text-anchor="middle" x="112.493" y="-234.8" font-family="Times New Roman,serif" font-size="14.00"> (1)</text>
</g>
<!-- node7 -->
<g id="node8" class="node"><title>node7</title>
<ellipse fill="none" stroke="black" cx="183.389" cy="-52" rx="42.7926" ry="18"/>
<text text-anchor="middle" x="183.389" y="-48.3" font-family="Times New Roman,serif" font-size="14.00">(7) XOR</text>
</g>
<!-- node0&#45;&gt;node7 -->
<g id="edge5" class="edge"><title>node0&#45;&gt;node7</title>
<path fill="none" stroke="black" d="M54.9462,-229.715C66.3693,-213.264 84.5985,-188.106 102.493,-168 110.644,-158.841 116.183,-159.512 122.493,-149 137.92,-123.298 123.707,-108.836 140.493,-84 143.1,-80.1421 146.326,-76.5538 149.821,-73.2802"/>
<polygon fill="black" stroke="black" points="152.342,-75.7344 157.768,-66.6342 147.851,-70.3646 152.342,-75.7344"/>
<text text-anchor="middle" x="112.493" y="-171.8" font-family="Times New Roman,serif" font-size="14.00"> (0)</text>
</g>
<!-- node9 -->
<g id="node10" class="node"><title>node9</title>
<ellipse fill="none" stroke="black" cx="183.389" cy="-258" rx="36.2938" ry="18"/>
<text text-anchor="middle" x="183.389" y="-254.3" font-family="Times New Roman,serif" font-size="14.00">(9) OR</text>
</g>
<!-- node0&#45;&gt;node9 -->
<g id="edge8" class="edge"><title>node0&#45;&gt;node9</title>
<path fill="none" stroke="black" d="M76.4587,-257.617C84.8649,-259.847 93.9375,-261.865 102.493,-263 113.885,-264.511 126.253,-264.525 137.778,-263.85"/>
<polygon fill="black" stroke="black" points="138.37,-267.315 148.073,-263.06 137.835,-260.335 138.37,-267.315"/>
<text text-anchor="middle" x="112.493" y="-267.8" font-family="Times New Roman,serif" font-size="14.00"> (0)</text>
</g>
<!-- node1 -->
<g id="node2" class="node"><title>node1</title>
<ellipse fill="none" stroke="black" cx="42.2463" cy="-447" rx="42.4939" ry="18"/>
<text text-anchor="middle" x="42.2463" y="-443.3" font-family="Times New Roman,serif" font-size="14.00">(1) Input</text>
</g>
<!-- node8 -->
<g id="node9" class="node"><title>node8</title>
<ellipse fill="none" stroke="black" cx="286.531" cy="-425" rx="42.4939" ry="18"/>
<text text-anchor="middle" x="286.531" y="-421.3" font-family="Times New Roman,serif" font-size="14.00">(8) NEG</text>
</g>
<!-- node1&#45;&gt;node8 -->
<g id="edge7" class="edge"><title>node1&#45;&gt;node8</title>
<path fill="none" stroke="black" d="M82.0681,-440.649C88.8632,-439.667 95.8749,-438.736 102.493,-438 146.727,-433.077 197.195,-429.656 233.919,-427.563"/>
<polygon fill="black" stroke="black" points="234.582,-431.032 244.373,-426.982 234.194,-424.043 234.582,-431.032"/>
<text text-anchor="middle" x="112.493" y="-441.8" font-family="Times New Roman,serif" font-size="14.00"> (0)</text>
</g>
<!-- node14 -->
<g id="node15" class="node"><title>node14</title>
<ellipse fill="none" stroke="black" cx="694.706" cy="-467" rx="47.3916" ry="18"/>
<text text-anchor="middle" x="694.706" y="-463.3" font-family="Times New Roman,serif" font-size="14.00">(14) XOR</text>
</g>
<!-- node1&#45;&gt;node14 -->
<g id="edge18" class="edge"><title>node1&#45;&gt;node14</title>
<path fill="none" stroke="black" d="M79.9526,-455.192C107.888,-460.716 147.368,-467 182.389,-467 182.389,-467 182.389,-467 545.465,-467 575.588,-467 609.155,-467 636.72,-467"/>
<polygon fill="black" stroke="black" points="636.97,-470.5 646.97,-467 636.97,-463.5 636.97,-470.5"/>
<text text-anchor="middle" x="394.223" y="-470.8" font-family="Times New Roman,serif" font-size="14.00"> (0)</text>
</g>
<!-- node2 -->
<g id="node3" class="node"><title>node2</title>
<ellipse fill="none" stroke="black" cx="42.2463" cy="-40" rx="42.4939" ry="18"/>
<text text-anchor="middle" x="42.2463" y="-36.3" font-family="Times New Roman,serif" font-size="14.00">(2) Input</text>
</g>
<!-- node6 -->
<g id="node7" class="node"><title>node6</title>
<ellipse fill="none" stroke="black" cx="394.223" cy="-193" rx="36.2938" ry="18"/>
<text text-anchor="middle" x="394.223" y="-189.3" font-family="Times New Roman,serif" font-size="14.00">(6) OR</text>
</g>
<!-- node2&#45;&gt;node6 -->
<g id="edge4" class="edge"><title>node2&#45;&gt;node6</title>
<path fill="none" stroke="black" d="M61.1581,-56.2731C72.4103,-65.874 87.5747,-77.7255 102.493,-86 186.129,-132.391 293.851,-165.961 351.844,-182.138"/>
<polygon fill="black" stroke="black" points="351.166,-185.581 361.736,-184.863 353.025,-178.833 351.166,-185.581"/>
<text text-anchor="middle" x="183.389" y="-143.8" font-family="Times New Roman,serif" font-size="14.00"> (1)</text>
</g>
<!-- node17 -->
<g id="node18" class="node"><title>node17</title>
<ellipse fill="none" stroke="black" cx="394.223" cy="-18" rx="47.3916" ry="18"/>
<text text-anchor="middle" x="394.223" y="-14.3" font-family="Times New Roman,serif" font-size="14.00">(17) XOR</text>
</g>
<!-- node2&#45;&gt;node17 -->
<g id="edge25" class="edge"><title>node2&#45;&gt;node17</title>
<path fill="none" stroke="black" d="M73.7904,-27.9949C92.6777,-21.2248 117.606,-13.45 140.493,-10 208.515,0.253926 287.959,-5.04311 339.353,-10.6949"/>
<polygon fill="black" stroke="black" points="339.23,-14.2036 349.563,-11.8632 340.026,-7.24898 339.23,-14.2036"/>
<text text-anchor="middle" x="183.389" y="-13.8" font-family="Times New Roman,serif" font-size="14.00"> (1)</text>
</g>
<!-- node3 -->
<g id="node4" class="node"><title>node3</title>
<ellipse fill="none" stroke="black" cx="42.2463" cy="-336" rx="42.4939" ry="18"/>
<text text-anchor="middle" x="42.2463" y="-332.3" font-family="Times New Roman,serif" font-size="14.00">(3) Input</text>
</g>
<!-- node11 -->
<g id="node12" class="node"><title>node11</title>
<ellipse fill="none" stroke="black" cx="694.706" cy="-308" rx="47.3916" ry="18"/>
<text text-anchor="middle" x="694.706" y="-304.3" font-family="Times New Roman,serif" font-size="14.00">(11) XOR</text>
</g>
<!-- node3&#45;&gt;node11 -->
<g id="edge12" class="edge"><title>node3&#45;&gt;node11</title>
<path fill="none" stroke="black" d="M79.64,-327.458C107.581,-321.645 147.209,-315 182.389,-315 182.389,-315 182.389,-315 545.465,-315 575.965,-315 609.955,-313.503 637.686,-311.894"/>
<polygon fill="black" stroke="black" points="638.216,-315.369 647.988,-311.275 637.796,-308.381 638.216,-315.369"/>
<text text-anchor="middle" x="394.223" y="-318.8" font-family="Times New Roman,serif" font-size="14.00"> (0)</text>
</g>
<!-- node15 -->
<g id="node16" class="node"><title>node15</title>
<ellipse fill="none" stroke="black" cx="845.598" cy="-388" rx="47.3916" ry="18"/>
<text text-anchor="middle" x="845.598" y="-384.3" font-family="Times New Roman,serif" font-size="14.00">(15) XOR</text>
</g>
<!-- node3&#45;&gt;node15 -->
<g id="edge20" class="edge"><title>node3&#45;&gt;node15</title>
<path fill="none" stroke="black" d="M79.3276,-344.885C107.272,-350.991 147.049,-358 182.389,-358 182.389,-358 182.389,-358 695.706,-358 730.734,-358 769.5,-366.078 798.693,-373.85"/>
<polygon fill="black" stroke="black" points="798.028,-377.297 808.598,-376.573 799.884,-370.547 798.028,-377.297"/>
<text text-anchor="middle" x="469.669" y="-361.8" font-family="Times New Roman,serif" font-size="14.00"> (0)</text>
</g>
<!-- node4 -->
<g id="node5" class="node"><title>node4</title>
<ellipse fill="none" stroke="black" cx="42.2463" cy="-133" rx="42.4939" ry="18"/>
<text text-anchor="middle" x="42.2463" y="-129.3" font-family="Times New Roman,serif" font-size="14.00">(4) Input</text>
</g>
<!-- node4&#45;&gt;node5 -->
<g id="edge1" class="edge"><title>node4&#45;&gt;node5</title>
<path fill="none" stroke="black" d="M82.7277,-127.731C95.8146,-127.473 110.175,-128.861 122.493,-134 139.179,-140.961 153.74,-154.999 164.326,-167.635"/>
<polygon fill="black" stroke="black" points="161.731,-169.995 170.692,-175.648 167.212,-165.641 161.731,-169.995"/>
<text text-anchor="middle" x="112.493" y="-137.8" font-family="Times New Roman,serif" font-size="14.00"> (0)</text>
</g>
<!-- node4&#45;&gt;node7 -->
<g id="edge6" class="edge"><title>node4&#45;&gt;node7</title>
<path fill="none" stroke="black" d="M68.1221,-118.519C90.5394,-105.469 123.693,-86.1688 148.523,-71.7144"/>
<polygon fill="black" stroke="black" points="150.378,-74.6848 157.259,-66.6289 146.856,-68.6351 150.378,-74.6848"/>
<text text-anchor="middle" x="112.493" y="-100.8" font-family="Times New Roman,serif" font-size="14.00"> (1)</text>
</g>
<!-- node4&#45;&gt;node9 -->
<g id="edge9" class="edge"><title>node4&#45;&gt;node9</title>
<path fill="none" stroke="black" d="M61.0821,-149.364C72.8151,-160.102 88.5272,-174.431 102.493,-187 120.581,-203.279 141.103,-221.511 156.819,-235.424"/>
<polygon fill="black" stroke="black" points="154.752,-238.268 164.561,-242.272 159.39,-233.025 154.752,-238.268"/>
<text text-anchor="middle" x="112.493" y="-207.8" font-family="Times New Roman,serif" font-size="14.00"> (1)</text>
</g>
<!-- node5&#45;&gt;node6 -->
<g id="edge3" class="edge"><title>node5&#45;&gt;node6</title>
<path fill="none" stroke="black" d="M225.648,-193C260.701,-193 310.965,-193 347.291,-193"/>
<polygon fill="black" stroke="black" points="347.612,-196.5 357.612,-193 347.612,-189.5 347.612,-196.5"/>
<text text-anchor="middle" x="286.531" y="-196.8" font-family="Times New Roman,serif" font-size="14.00"> (0)</text>
</g>
<!-- node10 -->
<g id="node11" class="node"><title>node10</title>
<ellipse fill="none" stroke="black" cx="544.465" cy="-258" rx="46.5926" ry="18"/>
<text text-anchor="middle" x="544.465" y="-254.3" font-family="Times New Roman,serif" font-size="14.00">(10) AND</text>
</g>
<!-- node6&#45;&gt;node10 -->
<g id="edge11" class="edge"><title>node6&#45;&gt;node10</title>
<path fill="none" stroke="black" d="M422.676,-204.51C439.227,-211.497 460.708,-220.65 479.669,-229 487.672,-232.524 496.21,-236.356 504.351,-240.044"/>
<polygon fill="black" stroke="black" points="503.119,-243.328 513.671,-244.28 506.016,-236.956 503.119,-243.328"/>
<text text-anchor="middle" x="469.669" y="-232.8" font-family="Times New Roman,serif" font-size="14.00"> (1)</text>
</g>
<!-- node7&#45;&gt;node17 -->
<g id="edge24" class="edge"><title>node7&#45;&gt;node17</title>
<path fill="none" stroke="black" d="M223.669,-45.6049C256.609,-40.242 303.948,-32.5348 340.239,-26.6263"/>
<polygon fill="black" stroke="black" points="340.853,-30.0725 350.16,-25.011 339.728,-23.1635 340.853,-30.0725"/>
<text text-anchor="middle" x="286.531" y="-44.8" font-family="Times New Roman,serif" font-size="14.00"> (0)</text>
</g>
<!-- node12 -->
<g id="node13" class="node"><title>node12</title>
<ellipse fill="none" stroke="black" cx="845.598" cy="-334" rx="46.5926" ry="18"/>
<text text-anchor="middle" x="845.598" y="-330.3" font-family="Times New Roman,serif" font-size="14.00">(12) AND</text>
</g>
<!-- node8&#45;&gt;node12 -->
<g id="edge15" class="edge"><title>node8&#45;&gt;node12</title>
<path fill="none" stroke="black" d="M328.892,-423.567C365.602,-422.419 420.7,-421 468.669,-421 468.669,-421 468.669,-421 695.706,-421 748.472,-421 752.578,-387.593 798.152,-361 802.064,-358.717 806.164,-356.329 810.238,-353.957"/>
<polygon fill="black" stroke="black" points="812.152,-356.893 819.037,-348.84 808.633,-350.842 812.152,-356.893"/>
<text text-anchor="middle" x="544.465" y="-424.8" font-family="Times New Roman,serif" font-size="14.00"> (1)</text>
</g>
<!-- node9&#45;&gt;node10 -->
<g id="edge10" class="edge"><title>node9&#45;&gt;node10</title>
<path fill="none" stroke="black" d="M219.801,-258C282.241,-258 412.372,-258 487.217,-258"/>
<polygon fill="black" stroke="black" points="487.398,-261.5 497.398,-258 487.398,-254.5 487.398,-261.5"/>
<text text-anchor="middle" x="394.223" y="-261.8" font-family="Times New Roman,serif" font-size="14.00"> (0)</text>
</g>
<!-- node10&#45;&gt;node11 -->
<g id="edge13" class="edge"><title>node10&#45;&gt;node11</title>
<path fill="none" stroke="black" d="M580.544,-269.665C595.556,-274.672 613.275,-280.601 629.261,-286 635.733,-288.186 642.566,-290.506 649.268,-292.788"/>
<polygon fill="black" stroke="black" points="648.342,-296.17 658.937,-296.084 650.601,-289.544 648.342,-296.17"/>
<text text-anchor="middle" x="619.261" y="-289.8" font-family="Times New Roman,serif" font-size="14.00"> (1)</text>
</g>
<!-- node13 -->
<g id="node14" class="node"><title>node13</title>
<ellipse fill="none" stroke="black" cx="845.598" cy="-280" rx="40.8928" ry="18"/>
<text text-anchor="middle" x="845.598" y="-276.3" font-family="Times New Roman,serif" font-size="14.00">(13) OR</text>
</g>
<!-- node10&#45;&gt;node13 -->
<g id="edge16" class="edge"><title>node10&#45;&gt;node13</title>
<path fill="none" stroke="black" d="M591.248,-258.63C631.162,-259.473 690.578,-261.438 742.152,-266 759.922,-267.572 779.333,-270.033 796.433,-272.456"/>
<polygon fill="black" stroke="black" points="796.348,-275.98 806.747,-273.952 797.353,-269.053 796.348,-275.98"/>
<text text-anchor="middle" x="694.706" y="-269.8" font-family="Times New Roman,serif" font-size="14.00"> (0)</text>
</g>
<!-- node10&#45;&gt;node14 -->
<g id="edge19" class="edge"><title>node10&#45;&gt;node14</title>
<path fill="none" stroke="black" d="M557.849,-275.46C583.955,-312.265 644.743,-397.969 675.373,-441.153"/>
<polygon fill="black" stroke="black" points="672.613,-443.311 681.253,-449.443 678.323,-439.261 672.613,-443.311"/>
<text text-anchor="middle" x="619.261" y="-378.8" font-family="Times New Roman,serif" font-size="14.00"> (1)</text>
</g>
<!-- node11&#45;&gt;node12 -->
<g id="edge14" class="edge"><title>node11&#45;&gt;node12</title>
<path fill="none" stroke="black" d="M738.373,-315.451C755.254,-318.398 774.818,-321.815 792.522,-324.906"/>
<polygon fill="black" stroke="black" points="792.244,-328.411 802.697,-326.683 793.448,-321.515 792.244,-328.411"/>
<text text-anchor="middle" x="770.152" y="-325.8" font-family="Times New Roman,serif" font-size="14.00"> (0)</text>
</g>
<!-- node11&#45;&gt;node13 -->
<g id="edge17" class="edge"><title>node11&#45;&gt;node13</title>
<path fill="none" stroke="black" d="M737.577,-300.126C756.242,-296.616 778.31,-292.466 797.543,-288.849"/>
<polygon fill="black" stroke="black" points="798.421,-292.245 807.602,-286.957 797.127,-285.366 798.421,-292.245"/>
<text text-anchor="middle" x="770.152" y="-298.8" font-family="Times New Roman,serif" font-size="14.00"> (1)</text>
</g>
<!-- node16 -->
<g id="node17" class="node"><title>node16</title>
<ellipse fill="none" stroke="black" cx="996.49" cy="-311" rx="47.3916" ry="18"/>
<text text-anchor="middle" x="996.49" y="-307.3" font-family="Times New Roman,serif" font-size="14.00">(16) XOR</text>
</g>
<!-- node12&#45;&gt;node16 -->
<g id="edge23" class="edge"><title>node12&#45;&gt;node16</title>
<path fill="none" stroke="black" d="M889.264,-327.409C905.786,-324.857 924.879,-321.908 942.282,-319.219"/>
<polygon fill="black" stroke="black" points="942.952,-322.657 952.301,-317.672 941.883,-315.739 942.952,-322.657"/>
<text text-anchor="middle" x="921.044" y="-326.8" font-family="Times New Roman,serif" font-size="14.00"> (1)</text>
</g>
<!-- node13&#45;&gt;node16 -->
<g id="edge22" class="edge"><title>node13&#45;&gt;node16</title>
<path fill="none" stroke="black" d="M883.021,-287.583C901.507,-291.432 924.269,-296.171 944.468,-300.377"/>
<polygon fill="black" stroke="black" points="943.951,-303.844 954.454,-302.456 945.378,-296.991 943.951,-303.844"/>
<text text-anchor="middle" x="921.044" y="-300.8" font-family="Times New Roman,serif" font-size="14.00"> (0)</text>
</g>
<!-- node14&#45;&gt;node15 -->
<g id="edge21" class="edge"><title>node14&#45;&gt;node15</title>
<path fill="none" stroke="black" d="M731.978,-455.658C747.262,-450.273 764.986,-443.21 780.152,-435 792.962,-428.066 806.125,-418.895 817.189,-410.496"/>
<polygon fill="black" stroke="black" points="819.449,-413.172 825.2,-404.274 815.155,-407.644 819.449,-413.172"/>
<text text-anchor="middle" x="770.152" y="-446.8" font-family="Times New Roman,serif" font-size="14.00"> (1)</text>
</g>
<!-- node19 -->
<g id="node20" class="node"><title>node19</title>
<ellipse fill="none" stroke="black" cx="1123.83" cy="-388" rx="42.7926" ry="18"/>
<text text-anchor="middle" x="1123.83" y="-384.3" font-family="Times New Roman,serif" font-size="14.00">Output 1</text>
</g>
<!-- node15&#45;&gt;node19 -->
<g id="edge27" class="edge"><title>node15&#45;&gt;node19</title>
<path fill="none" stroke="black" d="M893.145,-388C942.197,-388 1019.3,-388 1070.44,-388"/>
<polygon fill="black" stroke="black" points="1070.63,-391.5 1080.63,-388 1070.63,-384.5 1070.63,-391.5"/>
</g>
<!-- node20 -->
<g id="node21" class="node"><title>node20</title>
<ellipse fill="none" stroke="black" cx="1123.83" cy="-311" rx="42.7926" ry="18"/>
<text text-anchor="middle" x="1123.83" y="-307.3" font-family="Times New Roman,serif" font-size="14.00">Output 2</text>
</g>
<!-- node16&#45;&gt;node20 -->
<g id="edge28" class="edge"><title>node16&#45;&gt;node20</title>
<path fill="none" stroke="black" d="M1044.16,-311C1052.77,-311 1061.8,-311 1070.56,-311"/>
<polygon fill="black" stroke="black" points="1070.67,-314.5 1080.67,-311 1070.67,-307.5 1070.67,-314.5"/>
</g>
<!-- node18 -->
<g id="node19" class="node"><title>node18</title>
<ellipse fill="none" stroke="black" cx="1123.83" cy="-18" rx="42.7926" ry="18"/>
<text text-anchor="middle" x="1123.83" y="-14.3" font-family="Times New Roman,serif" font-size="14.00">Output 0</text>
</g>
<!-- node17&#45;&gt;node18 -->
<g id="edge26" class="edge"><title>node17&#45;&gt;node18</title>
<path fill="none" stroke="black" d="M441.959,-18C471.142,-18 509.493,-18 543.465,-18 543.465,-18 543.465,-18 997.49,-18 1021.55,-18 1048.21,-18 1070.73,-18"/>
<polygon fill="black" stroke="black" points="1070.77,-21.5001 1080.77,-18 1070.76,-14.5001 1070.77,-21.5001"/>
</g>
</g>
</svg>
