<?xml version="1.0" encoding="UTF-8" standalone="no"?>
<!DOCTYPE svg PUBLIC "-//W3C//DTD SVG 1.1//EN"
 "http://www.w3.org/Graphics/SVG/1.1/DTD/svg11.dtd">
<!-- Generated by graphviz version 2.38.0 (20140413.2041)
 -->
<!-- Title: NeuralNetwork Pages: 1 -->
<svg width="288pt" height="94pt"
 viewBox="0.00 0.00 288.00 93.56" xmlns="http://www.w3.org/2000/svg" xmlns:xlink="http://www.w3.org/1999/xlink">
<g id="graph0" class="graph" transform="scale(0.300205 0.300205) rotate(0) translate(4 307.659)">
<title>NeuralNetwork</title>
<polygon fill="white" stroke="none" points="-4,4 -4,-307.659 955.344,-307.659 955.344,4 -4,4"/>
<!-- node0 -->
<g id="node1" class="node"><title>node0</title>
<ellipse fill="none" stroke="black" cx="42.2463" cy="-88.6589" rx="42.4939" ry="18"/>
<text text-anchor="middle" x="42.2463" y="-84.9589" font-family="Times New Roman,serif" font-size="14.00">(0) Input</text>
</g>
<!-- node6 -->
<g id="node7" class="node"><title>node6</title>
<ellipse fill="none" stroke="black" cx="183.389" cy="-159.659" rx="42.4939" ry="18"/>
<text text-anchor="middle" x="183.389" y="-155.959" font-family="Times New Roman,serif" font-size="14.00">(6) AND</text>
</g>
<!-- node0&#45;&gt;node6 -->
<g id="edge3" class="edge"><title>node0&#45;&gt;node6</title>
<path fill="none" stroke="black" d="M83.0149,-93.9832C96.1229,-96.817 110.423,-101.127 122.493,-107.659 132.17,-112.896 132.266,-117.35 140.493,-124.659 145.122,-128.772 150.118,-133.066 154.992,-137.18"/>
<polygon fill="black" stroke="black" points="153.075,-140.14 162.992,-143.871 157.566,-134.771 153.075,-140.14"/>
<text text-anchor="middle" x="112.493" y="-111.459" font-family="Times New Roman,serif" font-size="14.00"> (0)</text>
</g>
<!-- node8 -->
<g id="node9" class="node"><title>node8</title>
<ellipse fill="none" stroke="black" cx="183.389" cy="-97.6589" rx="42.7926" ry="18"/>
<text text-anchor="middle" x="183.389" y="-93.9589" font-family="Times New Roman,serif" font-size="14.00">(8) XOR</text>
</g>
<!-- node0&#45;&gt;node8 -->
<g id="edge8" class="edge"><title>node0&#45;&gt;node8</title>
<path fill="none" stroke="black" d="M74.8767,-77.1427C89.3897,-73.2794 106.819,-70.6355 122.493,-73.6589 130.141,-75.1341 138.053,-77.5785 145.521,-80.3567"/>
<polygon fill="black" stroke="black" points="144.439,-83.6932 155.024,-84.1478 147.033,-77.1915 144.439,-83.6932"/>
<text text-anchor="middle" x="112.493" y="-77.4589" font-family="Times New Roman,serif" font-size="14.00"> (1)</text>
</g>
<!-- node1 -->
<g id="node2" class="node"><title>node1</title>
<ellipse fill="none" stroke="black" cx="42.2463" cy="-285.659" rx="42.4939" ry="18"/>
<text text-anchor="middle" x="42.2463" y="-281.959" font-family="Times New Roman,serif" font-size="14.00">(1) Input</text>
</g>
<!-- node5 -->
<g id="node6" class="node"><title>node5</title>
<ellipse fill="none" stroke="black" cx="183.389" cy="-227.659" rx="42.7926" ry="18"/>
<text text-anchor="middle" x="183.389" y="-223.959" font-family="Times New Roman,serif" font-size="14.00">(5) XOR</text>
</g>
<!-- node1&#45;&gt;node5 -->
<g id="edge1" class="edge"><title>node1&#45;&gt;node5</title>
<path fill="none" stroke="black" d="M73.0958,-273.216C93.4071,-264.75 120.511,-253.452 142.646,-244.225"/>
<polygon fill="black" stroke="black" points="144.225,-247.359 152.108,-240.281 141.532,-240.898 144.225,-247.359"/>
<text text-anchor="middle" x="112.493" y="-263.459" font-family="Times New Roman,serif" font-size="14.00"> (0)</text>
</g>
<!-- node7 -->
<g id="node8" class="node"><title>node7</title>
<ellipse fill="none" stroke="black" cx="329.731" cy="-273.659" rx="36.2938" ry="18"/>
<text text-anchor="middle" x="329.731" y="-269.959" font-family="Times New Roman,serif" font-size="14.00">(7) OR</text>
</g>
<!-- node1&#45;&gt;node7 -->
<g id="edge6" class="edge"><title>node1&#45;&gt;node7</title>
<path fill="none" stroke="black" d="M84.4532,-283.927C137.256,-281.707 228.493,-277.872 283.27,-275.57"/>
<polygon fill="black" stroke="black" points="283.543,-279.061 293.387,-275.144 283.249,-272.068 283.543,-279.061"/>
<text text-anchor="middle" x="183.389" y="-284.459" font-family="Times New Roman,serif" font-size="14.00"> (1)</text>
</g>
<!-- node2 -->
<g id="node3" class="node"><title>node2</title>
<ellipse fill="none" stroke="black" cx="42.2463" cy="-19.6589" rx="42.4939" ry="18"/>
<text text-anchor="middle" x="42.2463" y="-15.9589" font-family="Times New Roman,serif" font-size="14.00">(2) Input</text>
</g>
<!-- node9 -->
<g id="node10" class="node"><title>node9</title>
<ellipse fill="none" stroke="black" cx="329.731" cy="-110.659" rx="42.4939" ry="18"/>
<text text-anchor="middle" x="329.731" y="-106.959" font-family="Times New Roman,serif" font-size="14.00">(9) AND</text>
</g>
<!-- node2&#45;&gt;node9 -->
<g id="edge10" class="edge"><title>node2&#45;&gt;node9</title>
<path fill="none" stroke="black" d="M84.774,-19.1755C130.768,-20.1637 206.104,-26.3826 264.285,-53.6589 280.704,-61.3566 296.044,-74.5728 307.636,-86.342"/>
<polygon fill="black" stroke="black" points="305.271,-88.9351 314.686,-93.7946 310.356,-84.1247 305.271,-88.9351"/>
<text text-anchor="middle" x="183.389" y="-41.4589" font-family="Times New Roman,serif" font-size="14.00"> (1)</text>
</g>
<!-- node14 -->
<g id="node15" class="node"><title>node14</title>
<ellipse fill="none" stroke="black" cx="329.731" cy="-22.6589" rx="47.3916" ry="18"/>
<text text-anchor="middle" x="329.731" y="-18.9589" font-family="Times New Roman,serif" font-size="14.00">(14) XOR</text>
</g>
<!-- node2&#45;&gt;node14 -->
<g id="edge19" class="edge"><title>node2&#45;&gt;node14</title>
<path fill="none" stroke="black" d="M80.4526,-11.5986C98.4854,-8.09176 120.515,-4.39191 140.493,-2.65886 178.48,0.636504 188.332,1.01118 226.285,-2.65886 243.612,-4.33439 262.361,-7.56862 279.024,-10.9558"/>
<polygon fill="black" stroke="black" points="278.592,-14.4415 289.098,-13.0721 280.032,-7.59102 278.592,-14.4415"/>
<text text-anchor="middle" x="183.389" y="-6.45886" font-family="Times New Roman,serif" font-size="14.00"> (0)</text>
</g>
<!-- node3 -->
<g id="node4" class="node"><title>node3</title>
<ellipse fill="none" stroke="black" cx="42.2463" cy="-224.659" rx="42.4939" ry="18"/>
<text text-anchor="middle" x="42.2463" y="-220.959" font-family="Times New Roman,serif" font-size="14.00">(3) Input</text>
</g>
<!-- node3&#45;&gt;node5 -->
<g id="edge2" class="edge"><title>node3&#45;&gt;node5</title>
<path fill="none" stroke="black" d="M84.7887,-225.021C96.9419,-225.171 110.25,-225.377 122.493,-225.659 125.041,-225.717 127.65,-225.783 130.285,-225.854"/>
<polygon fill="black" stroke="black" points="130.406,-229.359 140.503,-226.149 130.608,-222.362 130.406,-229.359"/>
<text text-anchor="middle" x="112.493" y="-229.459" font-family="Times New Roman,serif" font-size="14.00"> (1)</text>
</g>
<!-- node4 -->
<g id="node5" class="node"><title>node4</title>
<ellipse fill="none" stroke="black" cx="42.2463" cy="-159.659" rx="42.4939" ry="18"/>
<text text-anchor="middle" x="42.2463" y="-155.959" font-family="Times New Roman,serif" font-size="14.00">(4) Input</text>
</g>
<!-- node4&#45;&gt;node6 -->
<g id="edge4" class="edge"><title>node4&#45;&gt;node6</title>
<path fill="none" stroke="black" d="M83.6924,-163.529C89.9807,-163.999 96.4077,-164.403 102.493,-164.659 112.077,-165.063 122.301,-164.885 132.123,-164.411"/>
<polygon fill="black" stroke="black" points="132.393,-167.901 142.17,-163.82 131.982,-160.913 132.393,-167.901"/>
<text text-anchor="middle" x="112.493" y="-168.459" font-family="Times New Roman,serif" font-size="14.00"> (1)</text>
</g>
<!-- node4&#45;&gt;node8 -->
<g id="edge7" class="edge"><title>node4&#45;&gt;node8</title>
<path fill="none" stroke="black" d="M73.5222,-147.519C88.3649,-141.449 106.455,-133.874 122.493,-126.659 130.133,-123.222 138.251,-119.405 145.963,-115.699"/>
<polygon fill="black" stroke="black" points="147.636,-118.778 155.109,-111.267 144.583,-112.478 147.636,-118.778"/>
<text text-anchor="middle" x="112.493" y="-138.459" font-family="Times New Roman,serif" font-size="14.00"> (0)</text>
</g>
<!-- node5&#45;&gt;node7 -->
<g id="edge5" class="edge"><title>node5&#45;&gt;node7</title>
<path fill="none" stroke="black" d="M218.23,-238.444C239.33,-245.168 266.588,-253.855 288.751,-260.918"/>
<polygon fill="black" stroke="black" points="287.944,-264.334 298.535,-264.036 290.07,-257.665 287.944,-264.334"/>
<text text-anchor="middle" x="254.285" y="-255.459" font-family="Times New Roman,serif" font-size="14.00"> (0)</text>
</g>
<!-- node10 -->
<g id="node11" class="node"><title>node10</title>
<ellipse fill="none" stroke="black" cx="329.731" cy="-164.659" rx="47.3916" ry="18"/>
<text text-anchor="middle" x="329.731" y="-160.959" font-family="Times New Roman,serif" font-size="14.00">(10) XOR</text>
</g>
<!-- node5&#45;&gt;node10 -->
<g id="edge12" class="edge"><title>node5&#45;&gt;node10</title>
<path fill="none" stroke="black" d="M211.638,-213.981C221.812,-209.003 233.51,-203.43 244.285,-198.659 257.774,-192.686 272.654,-186.549 286.116,-181.161"/>
<polygon fill="black" stroke="black" points="287.626,-184.327 295.628,-177.383 285.042,-177.821 287.626,-184.327"/>
<text text-anchor="middle" x="254.285" y="-202.459" font-family="Times New Roman,serif" font-size="14.00"> (1)</text>
</g>
<!-- node12 -->
<g id="node13" class="node"><title>node12</title>
<ellipse fill="none" stroke="black" cx="630.864" cy="-227.659" rx="46.5926" ry="18"/>
<text text-anchor="middle" x="630.864" y="-223.959" font-family="Times New Roman,serif" font-size="14.00">(12) AND</text>
</g>
<!-- node5&#45;&gt;node12 -->
<g id="edge15" class="edge"><title>node5&#45;&gt;node12</title>
<path fill="none" stroke="black" d="M226.298,-227.659C306.8,-227.659 483.093,-227.659 573.679,-227.659"/>
<polygon fill="black" stroke="black" points="573.761,-231.159 583.761,-227.659 573.761,-224.159 573.761,-231.159"/>
<text text-anchor="middle" x="405.176" y="-231.459" font-family="Times New Roman,serif" font-size="14.00"> (0)</text>
</g>
<!-- node6&#45;&gt;node10 -->
<g id="edge11" class="edge"><title>node6&#45;&gt;node10</title>
<path fill="none" stroke="black" d="M225.866,-159.788C238.23,-159.932 251.809,-160.194 264.285,-160.659 267.12,-160.765 270.025,-160.888 272.958,-161.026"/>
<polygon fill="black" stroke="black" points="272.811,-164.523 282.977,-161.539 273.169,-157.532 272.811,-164.523"/>
<text text-anchor="middle" x="254.285" y="-164.459" font-family="Times New Roman,serif" font-size="14.00"> (0)</text>
</g>
<!-- node13 -->
<g id="node14" class="node"><title>node13</title>
<ellipse fill="none" stroke="black" cx="781.106" cy="-258.659" rx="47.3916" ry="18"/>
<text text-anchor="middle" x="781.106" y="-254.959" font-family="Times New Roman,serif" font-size="14.00">(13) XOR</text>
</g>
<!-- node7&#45;&gt;node13 -->
<g id="edge18" class="edge"><title>node7&#45;&gt;node13</title>
<path fill="none" stroke="black" d="M366.368,-272.469C444.103,-269.875 629.442,-263.688 723.407,-260.551"/>
<polygon fill="black" stroke="black" points="723.701,-264.044 733.579,-260.212 723.467,-257.048 723.701,-264.044"/>
<text text-anchor="middle" x="556.068" y="-269.459" font-family="Times New Roman,serif" font-size="14.00"> (1)</text>
</g>
<!-- node8&#45;&gt;node9 -->
<g id="edge9" class="edge"><title>node8&#45;&gt;node9</title>
<path fill="none" stroke="black" d="M225.751,-101.384C241.894,-102.838 260.569,-104.52 277.547,-106.049"/>
<polygon fill="black" stroke="black" points="277.587,-109.567 287.861,-106.978 278.215,-102.595 277.587,-109.567"/>
<text text-anchor="middle" x="254.285" y="-107.459" font-family="Times New Roman,serif" font-size="14.00"> (0)</text>
</g>
<!-- node8&#45;&gt;node14 -->
<g id="edge20" class="edge"><title>node8&#45;&gt;node14</title>
<path fill="none" stroke="black" d="M211.2,-83.7277C234,-71.8809 266.957,-54.7564 292.173,-41.654"/>
<polygon fill="black" stroke="black" points="293.82,-44.7426 301.08,-37.026 290.593,-38.531 293.82,-44.7426"/>
<text text-anchor="middle" x="254.285" y="-67.4589" font-family="Times New Roman,serif" font-size="14.00"> (1)</text>
</g>
<!-- node11 -->
<g id="node12" class="node"><title>node11</title>
<ellipse fill="none" stroke="black" cx="480.622" cy="-164.659" rx="47.3916" ry="18"/>
<text text-anchor="middle" x="480.622" y="-160.959" font-family="Times New Roman,serif" font-size="14.00">(11) XOR</text>
</g>
<!-- node9&#45;&gt;node11 -->
<g id="edge14" class="edge"><title>node9&#45;&gt;node11</title>
<path fill="none" stroke="black" d="M362.672,-122.243C384.15,-130.033 412.728,-140.398 436.257,-148.931"/>
<polygon fill="black" stroke="black" points="435.069,-152.223 445.663,-152.343 437.456,-145.643 435.069,-152.223"/>
<text text-anchor="middle" x="405.176" y="-144.459" font-family="Times New Roman,serif" font-size="14.00"> (1)</text>
</g>
<!-- node10&#45;&gt;node11 -->
<g id="edge13" class="edge"><title>node10&#45;&gt;node11</title>
<path fill="none" stroke="black" d="M377.432,-164.659C391.845,-164.659 407.877,-164.659 422.889,-164.659"/>
<polygon fill="black" stroke="black" points="423.086,-168.159 433.086,-164.659 423.086,-161.159 423.086,-168.159"/>
<text text-anchor="middle" x="405.176" y="-168.459" font-family="Times New Roman,serif" font-size="14.00"> (0)</text>
</g>
<!-- node11&#45;&gt;node12 -->
<g id="edge16" class="edge"><title>node11&#45;&gt;node12</title>
<path fill="none" stroke="black" d="M514.241,-177.405C529.971,-183.65 549.071,-191.378 566.068,-198.659 574.275,-202.174 583.019,-206.057 591.317,-209.808"/>
<polygon fill="black" stroke="black" points="589.894,-213.005 600.445,-213.96 592.792,-206.634 589.894,-213.005"/>
<text text-anchor="middle" x="556.068" y="-202.459" font-family="Times New Roman,serif" font-size="14.00"> (1)</text>
</g>
<!-- node16 -->
<g id="node17" class="node"><title>node16</title>
<ellipse fill="none" stroke="black" cx="908.448" cy="-164.659" rx="42.7926" ry="18"/>
<text text-anchor="middle" x="908.448" y="-160.959" font-family="Times New Roman,serif" font-size="14.00">Output 1</text>
</g>
<!-- node11&#45;&gt;node16 -->
<g id="edge22" class="edge"><title>node11&#45;&gt;node16</title>
<path fill="none" stroke="black" d="M528.411,-164.659C608.571,-164.659 771.597,-164.659 855.296,-164.659"/>
<polygon fill="black" stroke="black" points="855.343,-168.159 865.343,-164.659 855.343,-161.159 855.343,-168.159"/>
</g>
<!-- node12&#45;&gt;node13 -->
<g id="edge17" class="edge"><title>node12&#45;&gt;node13</title>
<path fill="none" stroke="black" d="M672.803,-235.847C686.443,-238.607 701.714,-241.73 715.66,-244.659 720.129,-245.598 724.771,-246.584 729.422,-247.58"/>
<polygon fill="black" stroke="black" points="729.045,-251.079 739.557,-249.761 730.518,-244.235 729.045,-251.079"/>
<text text-anchor="middle" x="705.66" y="-248.459" font-family="Times New Roman,serif" font-size="14.00"> (0)</text>
</g>
<!-- node17 -->
<g id="node18" class="node"><title>node17</title>
<ellipse fill="none" stroke="black" cx="908.448" cy="-258.659" rx="42.7926" ry="18"/>
<text text-anchor="middle" x="908.448" y="-254.959" font-family="Times New Roman,serif" font-size="14.00">Output 2</text>
</g>
<!-- node13&#45;&gt;node17 -->
<g id="edge23" class="edge"><title>node13&#45;&gt;node17</title>
<path fill="none" stroke="black" d="M828.778,-258.659C837.383,-258.659 846.419,-258.659 855.176,-258.659"/>
<polygon fill="black" stroke="black" points="855.285,-262.159 865.285,-258.659 855.285,-255.159 855.285,-262.159"/>
</g>
<!-- node15 -->
<g id="node16" class="node"><title>node15</title>
<ellipse fill="none" stroke="black" cx="908.448" cy="-22.6589" rx="42.7926" ry="18"/>
<text text-anchor="middle" x="908.448" y="-18.9589" font-family="Times New Roman,serif" font-size="14.00">Output 0</text>
</g>
<!-- node14&#45;&gt;node15 -->
<g id="edge21" class="edge"><title>node14&#45;&gt;node15</title>
<path fill="none" stroke="black" d="M377.339,-22.6589C406.69,-22.6589 445.372,-22.6589 479.622,-22.6589 479.622,-22.6589 479.622,-22.6589 782.106,-22.6589 806.166,-22.6589 832.824,-22.6589 855.347,-22.6589"/>
<polygon fill="black" stroke="black" points="855.381,-26.159 865.381,-22.6589 855.381,-19.159 855.381,-26.159"/>
</g>
</g>
</svg>
