<?xml version="1.0" encoding="UTF-8" standalone="no"?>
<!DOCTYPE svg PUBLIC "-//W3C//DTD SVG 1.1//EN"
 "http://www.w3.org/Graphics/SVG/1.1/DTD/svg11.dtd">
<!-- Generated by graphviz version 2.38.0 (20140413.2041)
 -->
<!-- Title: NeuralNetwork Pages: 1 -->
<svg width="288pt" height="88pt"
 viewBox="0.00 0.00 288.00 88.41" xmlns="http://www.w3.org/2000/svg" xmlns:xlink="http://www.w3.org/1999/xlink">
<g id="graph0" class="graph" transform="scale(0.17897 0.17897) rotate(0) translate(4 490)">
<title>NeuralNetwork</title>
<polygon fill="white" stroke="none" points="-4,4 -4,-490 1605.2,-490 1605.2,4 -4,4"/>
<!-- node0 -->
<g id="node1" class="node"><title>node0</title>
<ellipse fill="none" stroke="black" cx="42.2463" cy="-224" rx="42.4939" ry="18"/>
<text text-anchor="middle" x="42.2463" y="-220.3" font-family="Times New Roman,serif" font-size="14.00">(0) Input</text>
</g>
<!-- node8 -->
<g id="node9" class="node"><title>node8</title>
<ellipse fill="none" stroke="black" cx="428.973" cy="-293" rx="42.7926" ry="18"/>
<text text-anchor="middle" x="428.973" y="-289.3" font-family="Times New Roman,serif" font-size="14.00">(8) XOR</text>
</g>
<!-- node0&#45;&gt;node8 -->
<g id="edge7" class="edge"><title>node0&#45;&gt;node8</title>
<path fill="none" stroke="black" d="M81.5426,-230.74C94.5426,-233.034 109.151,-235.621 122.493,-238 213.263,-254.189 319.16,-273.307 379.415,-284.207"/>
<polygon fill="black" stroke="black" points="378.939,-287.677 389.402,-286.014 380.185,-280.789 378.939,-287.677"/>
<text text-anchor="middle" x="183.389" y="-259.8" font-family="Times New Roman,serif" font-size="14.00"> (0)</text>
</g>
<!-- node12 -->
<g id="node13" class="node"><title>node12</title>
<ellipse fill="none" stroke="black" cx="829.999" cy="-48" rx="47.3916" ry="18"/>
<text text-anchor="middle" x="829.999" y="-44.3" font-family="Times New Roman,serif" font-size="14.00">(12) XOR</text>
</g>
<!-- node0&#45;&gt;node12 -->
<g id="edge15" class="edge"><title>node0&#45;&gt;node12</title>
<path fill="none" stroke="black" d="M57.8535,-207.202C65.7877,-198.028 75.7385,-186.44 84.4925,-176 92.6099,-166.319 92.1613,-161.271 102.493,-154 150.242,-120.393 184.199,-150.476 226.285,-110 241.811,-95.0683 227.109,-77.9991 244.285,-65 326.381,-2.86886 645.228,-28.4926 774.3,-41.838"/>
<polygon fill="black" stroke="black" points="774.05,-45.3309 784.361,-42.8933 774.78,-38.3691 774.05,-45.3309"/>
<text text-anchor="middle" x="428.973" y="-32.8" font-family="Times New Roman,serif" font-size="14.00"> (0)</text>
</g>
<!-- node13 -->
<g id="node14" class="node"><title>node13</title>
<ellipse fill="none" stroke="black" cx="183.389" cy="-335" rx="40.8928" ry="18"/>
<text text-anchor="middle" x="183.389" y="-331.3" font-family="Times New Roman,serif" font-size="14.00">(13) OR</text>
</g>
<!-- node0&#45;&gt;node13 -->
<g id="edge18" class="edge"><title>node0&#45;&gt;node13</title>
<path fill="none" stroke="black" d="M52.2504,-241.841C62.2568,-260.032 80.0102,-287.936 102.493,-305 112.829,-312.846 125.445,-318.835 137.571,-323.319"/>
<polygon fill="black" stroke="black" points="136.543,-326.666 147.137,-326.599 138.813,-320.045 136.543,-326.666"/>
<text text-anchor="middle" x="112.493" y="-319.8" font-family="Times New Roman,serif" font-size="14.00"> (1)</text>
</g>
<!-- node1 -->
<g id="node2" class="node"><title>node1</title>
<ellipse fill="none" stroke="black" cx="42.2463" cy="-441" rx="42.4939" ry="18"/>
<text text-anchor="middle" x="42.2463" y="-437.3" font-family="Times New Roman,serif" font-size="14.00">(1) Input</text>
</g>
<!-- node5 -->
<g id="node6" class="node"><title>node5</title>
<ellipse fill="none" stroke="black" cx="183.389" cy="-170" rx="42.7926" ry="18"/>
<text text-anchor="middle" x="183.389" y="-166.3" font-family="Times New Roman,serif" font-size="14.00">(5) XOR</text>
</g>
<!-- node1&#45;&gt;node5 -->
<g id="edge2" class="edge"><title>node1&#45;&gt;node5</title>
<path fill="none" stroke="black" d="M61.0501,-424.457C69.4686,-415.63 78.8821,-404.107 84.4925,-392 104.584,-348.644 88.5299,-331.7 102.493,-286 114.465,-246.812 114.993,-234.075 140.493,-202 143.536,-198.171 147.135,-194.547 150.924,-191.208"/>
<polygon fill="black" stroke="black" points="153.287,-193.798 158.852,-184.782 148.88,-188.36 153.287,-193.798"/>
<text text-anchor="middle" x="112.493" y="-289.8" font-family="Times New Roman,serif" font-size="14.00"> (1)</text>
</g>
<!-- node7 -->
<g id="node8" class="node"><title>node7</title>
<ellipse fill="none" stroke="black" cx="183.389" cy="-403" rx="42.7926" ry="18"/>
<text text-anchor="middle" x="183.389" y="-399.3" font-family="Times New Roman,serif" font-size="14.00">(7) XOR</text>
</g>
<!-- node1&#45;&gt;node7 -->
<g id="edge5" class="edge"><title>node1&#45;&gt;node7</title>
<path fill="none" stroke="black" d="M78.3578,-431.411C96.1826,-426.543 118.045,-420.572 137.12,-415.363"/>
<polygon fill="black" stroke="black" points="138.08,-418.729 146.804,-412.718 136.236,-411.976 138.08,-418.729"/>
<text text-anchor="middle" x="112.493" y="-427.8" font-family="Times New Roman,serif" font-size="14.00"> (0)</text>
</g>
<!-- node17 -->
<g id="node18" class="node"><title>node17</title>
<ellipse fill="none" stroke="black" cx="1430.97" cy="-431" rx="47.3916" ry="18"/>
<text text-anchor="middle" x="1430.97" y="-427.3" font-family="Times New Roman,serif" font-size="14.00">(17) XOR</text>
</g>
<!-- node1&#45;&gt;node17 -->
<g id="edge25" class="edge"><title>node1&#45;&gt;node17</title>
<path fill="none" stroke="black" d="M75.7134,-452.086C103.645,-460.632 145.197,-471 182.389,-471 182.389,-471 182.389,-471 1281.72,-471 1319.21,-471 1360.23,-458.933 1389.61,-448.055"/>
<polygon fill="black" stroke="black" points="1391,-451.268 1399.1,-444.431 1388.51,-444.728 1391,-451.268"/>
<text text-anchor="middle" x="754.554" y="-474.8" font-family="Times New Roman,serif" font-size="14.00"> (0)</text>
</g>
<!-- node2 -->
<g id="node3" class="node"><title>node2</title>
<ellipse fill="none" stroke="black" cx="42.2463" cy="-81" rx="42.4939" ry="18"/>
<text text-anchor="middle" x="42.2463" y="-77.3" font-family="Times New Roman,serif" font-size="14.00">(2) Input</text>
</g>
<!-- node6 -->
<g id="node7" class="node"><title>node6</title>
<ellipse fill="none" stroke="black" cx="325.181" cy="-114" rx="42.7926" ry="18"/>
<text text-anchor="middle" x="325.181" y="-110.3" font-family="Times New Roman,serif" font-size="14.00">(6) XOR</text>
</g>
<!-- node2&#45;&gt;node6 -->
<g id="edge3" class="edge"><title>node2&#45;&gt;node6</title>
<path fill="none" stroke="black" d="M83.199,-85.693C133.151,-91.5607 218.717,-101.612 273.304,-108.024"/>
<polygon fill="black" stroke="black" points="273.114,-111.525 283.454,-109.216 273.931,-104.573 273.114,-111.525"/>
<text text-anchor="middle" x="183.389" y="-106.8" font-family="Times New Roman,serif" font-size="14.00"> (0)</text>
</g>
<!-- node3 -->
<g id="node4" class="node"><title>node3</title>
<ellipse fill="none" stroke="black" cx="42.2463" cy="-149" rx="42.4939" ry="18"/>
<text text-anchor="middle" x="42.2463" y="-145.3" font-family="Times New Roman,serif" font-size="14.00">(3) Input</text>
</g>
<!-- node3&#45;&gt;node5 -->
<g id="edge1" class="edge"><title>node3&#45;&gt;node5</title>
<path fill="none" stroke="black" d="M82.3755,-154.906C97.9517,-157.256 116.064,-159.99 132.561,-162.48"/>
<polygon fill="black" stroke="black" points="132.177,-165.961 142.587,-163.993 133.222,-159.04 132.177,-165.961"/>
<text text-anchor="middle" x="112.493" y="-163.8" font-family="Times New Roman,serif" font-size="14.00"> (0)</text>
</g>
<!-- node9 -->
<g id="node10" class="node"><title>node9</title>
<ellipse fill="none" stroke="black" cx="532.766" cy="-86" rx="42.7926" ry="18"/>
<text text-anchor="middle" x="532.766" y="-82.3" font-family="Times New Roman,serif" font-size="14.00">(9) XOR</text>
</g>
<!-- node3&#45;&gt;node9 -->
<g id="edge9" class="edge"><title>node3&#45;&gt;node9</title>
<path fill="none" stroke="black" d="M62.2412,-133.028C80.8395,-118.475 110.655,-97.9317 140.493,-89 259.208,-53.4629 407.411,-67.0484 482.798,-77.7937"/>
<polygon fill="black" stroke="black" points="482.538,-81.2931 492.941,-79.2857 483.557,-74.3676 482.538,-81.2931"/>
<text text-anchor="middle" x="254.285" y="-73.8" font-family="Times New Roman,serif" font-size="14.00"> (0)</text>
</g>
<!-- node4 -->
<g id="node5" class="node"><title>node4</title>
<ellipse fill="none" stroke="black" cx="42.2463" cy="-365" rx="42.4939" ry="18"/>
<text text-anchor="middle" x="42.2463" y="-361.3" font-family="Times New Roman,serif" font-size="14.00">(4) Input</text>
</g>
<!-- node4&#45;&gt;node7 -->
<g id="edge6" class="edge"><title>node4&#45;&gt;node7</title>
<path fill="none" stroke="black" d="M78.3578,-374.589C96.1826,-379.457 118.045,-385.428 137.12,-390.637"/>
<polygon fill="black" stroke="black" points="136.236,-394.024 146.804,-393.282 138.08,-387.271 136.236,-394.024"/>
<text text-anchor="middle" x="112.493" y="-389.8" font-family="Times New Roman,serif" font-size="14.00"> (1)</text>
</g>
<!-- node4&#45;&gt;node13 -->
<g id="edge17" class="edge"><title>node4&#45;&gt;node13</title>
<path fill="none" stroke="black" d="M80.1686,-357.039C97.4231,-353.319 118.143,-348.852 136.403,-344.915"/>
<polygon fill="black" stroke="black" points="137.22,-348.319 146.258,-342.79 135.745,-341.476 137.22,-348.319"/>
<text text-anchor="middle" x="112.493" y="-354.8" font-family="Times New Roman,serif" font-size="14.00"> (0)</text>
</g>
<!-- node18 -->
<g id="node19" class="node"><title>node18</title>
<ellipse fill="none" stroke="black" cx="829.999" cy="-102" rx="47.3916" ry="18"/>
<text text-anchor="middle" x="829.999" y="-98.3" font-family="Times New Roman,serif" font-size="14.00">(18) XOR</text>
</g>
<!-- node4&#45;&gt;node18 -->
<g id="edge27" class="edge"><title>node4&#45;&gt;node18</title>
<path fill="none" stroke="black" d="M49.1334,-346.899C57.3337,-324.813 74.4329,-288.177 102.493,-270 149.103,-239.806 172.194,-265.582 226.285,-253 393.858,-214.02 425.823,-168.817 593.662,-131 654.086,-117.385 724.776,-109.757 772.793,-105.781"/>
<polygon fill="black" stroke="black" points="773.295,-109.252 782.984,-104.964 772.736,-102.274 773.295,-109.252"/>
<text text-anchor="middle" x="428.973" y="-204.8" font-family="Times New Roman,serif" font-size="14.00"> (0)</text>
</g>
<!-- node5&#45;&gt;node6 -->
<g id="edge4" class="edge"><title>node5&#45;&gt;node6</title>
<path fill="none" stroke="black" d="M215.067,-157.711C235.37,-149.577 262.201,-138.829 284.175,-130.026"/>
<polygon fill="black" stroke="black" points="285.593,-133.228 293.575,-126.261 282.99,-126.73 285.593,-133.228"/>
<text text-anchor="middle" x="254.285" y="-148.8" font-family="Times New Roman,serif" font-size="14.00"> (1)</text>
</g>
<!-- node16 -->
<g id="node17" class="node"><title>node16</title>
<ellipse fill="none" stroke="black" cx="1280.72" cy="-342" rx="46.5926" ry="18"/>
<text text-anchor="middle" x="1280.72" y="-338.3" font-family="Times New Roman,serif" font-size="14.00">(16) AND</text>
</g>
<!-- node5&#45;&gt;node16 -->
<g id="edge24" class="edge"><title>node5&#45;&gt;node16</title>
<path fill="none" stroke="black" d="M220.806,-179.105C261.183,-189.183 328.255,-205.869 386.077,-220 432.17,-231.264 442.983,-237.715 489.87,-245 605.973,-263.04 636.057,-264 753.554,-264 753.554,-264 753.554,-264 1131.48,-264 1179.13,-264 1226.5,-295.944 1254.44,-318.947"/>
<polygon fill="black" stroke="black" points="1252.23,-321.665 1262.13,-325.458 1256.76,-316.324 1252.23,-321.665"/>
<text text-anchor="middle" x="754.554" y="-267.8" font-family="Times New Roman,serif" font-size="14.00"> (1)</text>
</g>
<!-- node6&#45;&gt;node9 -->
<g id="edge10" class="edge"><title>node6&#45;&gt;node9</title>
<path fill="none" stroke="black" d="M366.308,-108.535C399.278,-104.044 446.156,-97.6597 481.602,-92.8322"/>
<polygon fill="black" stroke="black" points="482.304,-96.2689 491.74,-91.4514 481.359,-89.333 482.304,-96.2689"/>
<text text-anchor="middle" x="428.973" y="-109.8" font-family="Times New Roman,serif" font-size="14.00"> (1)</text>
</g>
<!-- node11 -->
<g id="node12" class="node"><title>node11</title>
<ellipse fill="none" stroke="black" cx="829.999" cy="-218" rx="40.8928" ry="18"/>
<text text-anchor="middle" x="829.999" y="-214.3" font-family="Times New Roman,serif" font-size="14.00">(11) OR</text>
</g>
<!-- node6&#45;&gt;node11 -->
<g id="edge14" class="edge"><title>node6&#45;&gt;node11</title>
<path fill="none" stroke="black" d="M359.896,-124.576C430.42,-146.117 599.045,-194.597 744.554,-213 755.597,-214.397 767.504,-215.405 778.795,-216.132"/>
<polygon fill="black" stroke="black" points="778.762,-219.636 788.949,-216.723 779.169,-212.647 778.762,-219.636"/>
<text text-anchor="middle" x="603.662" y="-192.8" font-family="Times New Roman,serif" font-size="14.00"> (1)</text>
</g>
<!-- node20 -->
<g id="node21" class="node"><title>node20</title>
<ellipse fill="none" stroke="black" cx="1130.48" cy="-18" rx="47.3916" ry="18"/>
<text text-anchor="middle" x="1130.48" y="-14.3" font-family="Times New Roman,serif" font-size="14.00">(20) XOR</text>
</g>
<!-- node6&#45;&gt;node20 -->
<g id="edge31" class="edge"><title>node6&#45;&gt;node20</title>
<path fill="none" stroke="black" d="M352.639,-100.144C411.225,-69.9697 550.808,-1 602.662,-1 602.662,-1 602.662,-1 981.241,-1 1013.2,-1 1048.77,-4.94692 1077.06,-9.03718"/>
<polygon fill="black" stroke="black" points="1076.73,-12.526 1087.14,-10.5436 1077.76,-5.60294 1076.73,-12.526"/>
<text text-anchor="middle" x="754.554" y="-4.8" font-family="Times New Roman,serif" font-size="14.00"> (0)</text>
</g>
<!-- node7&#45;&gt;node8 -->
<g id="edge8" class="edge"><title>node7&#45;&gt;node8</title>
<path fill="none" stroke="black" d="M213.288,-389.95C257.238,-370.102 340.922,-332.311 389.819,-310.23"/>
<polygon fill="black" stroke="black" points="391.439,-313.339 399.112,-306.033 388.558,-306.959 391.439,-313.339"/>
<text text-anchor="middle" x="254.285" y="-378.8" font-family="Times New Roman,serif" font-size="14.00"> (1)</text>
</g>
<!-- node10 -->
<g id="node11" class="node"><title>node10</title>
<ellipse fill="none" stroke="black" cx="679.108" cy="-164" rx="47.3916" ry="18"/>
<text text-anchor="middle" x="679.108" y="-160.3" font-family="Times New Roman,serif" font-size="14.00">(10) XOR</text>
</g>
<!-- node8&#45;&gt;node10 -->
<g id="edge12" class="edge"><title>node8&#45;&gt;node10</title>
<path fill="none" stroke="black" d="M456.285,-279.044C488.581,-261.945 545.048,-232.147 593.662,-207 609.005,-199.063 625.969,-190.403 640.642,-182.949"/>
<polygon fill="black" stroke="black" points="642.58,-185.89 649.913,-178.244 639.412,-179.648 642.58,-185.89"/>
<text text-anchor="middle" x="532.766" y="-264.8" font-family="Times New Roman,serif" font-size="14.00"> (1)</text>
</g>
<!-- node15 -->
<g id="node16" class="node"><title>node15</title>
<ellipse fill="none" stroke="black" cx="1130.48" cy="-342" rx="47.3916" ry="18"/>
<text text-anchor="middle" x="1130.48" y="-338.3" font-family="Times New Roman,serif" font-size="14.00">(15) XOR</text>
</g>
<!-- node8&#45;&gt;node15 -->
<g id="edge22" class="edge"><title>node8&#45;&gt;node15</title>
<path fill="none" stroke="black" d="M472.072,-294.261C509.641,-296.114 565.931,-300.692 613.662,-312 678.358,-327.327 687.067,-365 753.554,-365 753.554,-365 753.554,-365 981.241,-365 1014.41,-365 1051.27,-359.307 1079.93,-353.586"/>
<polygon fill="black" stroke="black" points="1081.01,-356.937 1090.1,-351.488 1079.6,-350.081 1081.01,-356.937"/>
<text text-anchor="middle" x="754.554" y="-368.8" font-family="Times New Roman,serif" font-size="14.00"> (1)</text>
</g>
<!-- node9&#45;&gt;node10 -->
<g id="edge11" class="edge"><title>node9&#45;&gt;node10</title>
<path fill="none" stroke="black" d="M559.905,-100.125C582.769,-112.481 616.213,-130.553 641.696,-144.324"/>
<polygon fill="black" stroke="black" points="640.229,-147.509 650.69,-149.184 643.557,-141.351 640.229,-147.509"/>
<text text-anchor="middle" x="603.662" y="-131.8" font-family="Times New Roman,serif" font-size="14.00"> (0)</text>
</g>
<!-- node10&#45;&gt;node11 -->
<g id="edge13" class="edge"><title>node10&#45;&gt;node11</title>
<path fill="none" stroke="black" d="M713.894,-176.253C735.966,-184.258 764.916,-194.758 788.261,-203.225"/>
<polygon fill="black" stroke="black" points="787.292,-206.597 797.886,-206.716 789.679,-200.016 787.292,-206.597"/>
<text text-anchor="middle" x="754.554" y="-197.8" font-family="Times New Roman,serif" font-size="14.00"> (0)</text>
</g>
<!-- node10&#45;&gt;node12 -->
<g id="edge16" class="edge"><title>node10&#45;&gt;node12</title>
<path fill="none" stroke="black" d="M697.396,-147.171C717.112,-128.421 750.744,-97.7536 782.554,-75 785.967,-72.5581 789.616,-70.1405 793.312,-67.814"/>
<polygon fill="black" stroke="black" points="795.199,-70.7629 801.931,-62.5823 791.567,-64.7788 795.199,-70.7629"/>
<text text-anchor="middle" x="754.554" y="-106.8" font-family="Times New Roman,serif" font-size="14.00"> (1)</text>
</g>
<!-- node10&#45;&gt;node18 -->
<g id="edge28" class="edge"><title>node10&#45;&gt;node18</title>
<path fill="none" stroke="black" d="M710.849,-150.442C721.496,-145.8 733.525,-140.615 744.554,-136 758.28,-130.256 773.332,-124.138 786.877,-118.699"/>
<polygon fill="black" stroke="black" points="788.451,-121.839 796.434,-114.873 785.849,-115.34 788.451,-121.839"/>
<text text-anchor="middle" x="754.554" y="-139.8" font-family="Times New Roman,serif" font-size="14.00"> (1)</text>
</g>
<!-- node21 -->
<g id="node22" class="node"><title>node21</title>
<ellipse fill="none" stroke="black" cx="1558.31" cy="-165" rx="42.7926" ry="18"/>
<text text-anchor="middle" x="1558.31" y="-161.3" font-family="Times New Roman,serif" font-size="14.00">Output 0</text>
</g>
<!-- node10&#45;&gt;node21 -->
<g id="edge33" class="edge"><title>node10&#45;&gt;node21</title>
<path fill="none" stroke="black" d="M726.716,-164.474C756.066,-164.732 794.748,-165 828.999,-165 828.999,-165 828.999,-165 1431.97,-165 1456.03,-165 1482.68,-165 1505.21,-165"/>
<polygon fill="black" stroke="black" points="1505.24,-168.5 1515.24,-165 1505.24,-161.5 1505.24,-168.5"/>
</g>
<!-- node14 -->
<g id="node15" class="node"><title>node14</title>
<ellipse fill="none" stroke="black" cx="980.241" cy="-319" rx="46.5926" ry="18"/>
<text text-anchor="middle" x="980.241" y="-315.3" font-family="Times New Roman,serif" font-size="14.00">(14) AND</text>
</g>
<!-- node11&#45;&gt;node14 -->
<g id="edge19" class="edge"><title>node11&#45;&gt;node14</title>
<path fill="none" stroke="black" d="M853.193,-233.121C878.373,-250.276 919.621,-278.38 948.034,-297.738"/>
<polygon fill="black" stroke="black" points="946.173,-300.705 956.408,-303.444 950.115,-294.92 946.173,-300.705"/>
<text text-anchor="middle" x="905.445" y="-277.8" font-family="Times New Roman,serif" font-size="14.00"> (0)</text>
</g>
<!-- node19 -->
<g id="node20" class="node"><title>node19</title>
<ellipse fill="none" stroke="black" cx="980.241" cy="-48" rx="46.5926" ry="18"/>
<text text-anchor="middle" x="980.241" y="-44.3" font-family="Times New Roman,serif" font-size="14.00">(19) AND</text>
</g>
<!-- node12&#45;&gt;node19 -->
<g id="edge29" class="edge"><title>node12&#45;&gt;node19</title>
<path fill="none" stroke="black" d="M877.497,-48C891.985,-48 908.116,-48 923.186,-48"/>
<polygon fill="black" stroke="black" points="923.417,-51.5001 933.417,-48 923.417,-44.5001 923.417,-51.5001"/>
<text text-anchor="middle" x="905.445" y="-51.8" font-family="Times New Roman,serif" font-size="14.00"> (0)</text>
</g>
<!-- node13&#45;&gt;node14 -->
<g id="edge20" class="edge"><title>node13&#45;&gt;node14</title>
<path fill="none" stroke="black" d="M224.35,-334.196C355.293,-331.56 771.692,-323.178 923.326,-320.126"/>
<polygon fill="black" stroke="black" points="923.424,-323.624 933.352,-319.924 923.283,-316.626 923.424,-323.624"/>
<text text-anchor="middle" x="603.662" y="-329.8" font-family="Times New Roman,serif" font-size="14.00"> (1)</text>
</g>
<!-- node14&#45;&gt;node15 -->
<g id="edge21" class="edge"><title>node14&#45;&gt;node15</title>
<path fill="none" stroke="black" d="M1024.12,-325.653C1040.26,-328.158 1058.83,-331.038 1075.84,-333.677"/>
<polygon fill="black" stroke="black" points="1075.77,-337.208 1086.19,-335.283 1076.84,-330.291 1075.77,-337.208"/>
<text text-anchor="middle" x="1055.04" y="-334.8" font-family="Times New Roman,serif" font-size="14.00"> (0)</text>
</g>
<!-- node15&#45;&gt;node16 -->
<g id="edge23" class="edge"><title>node15&#45;&gt;node16</title>
<path fill="none" stroke="black" d="M1177.98,-342C1192.47,-342 1208.6,-342 1223.67,-342"/>
<polygon fill="black" stroke="black" points="1223.9,-345.5 1233.9,-342 1223.9,-338.5 1223.9,-345.5"/>
<text text-anchor="middle" x="1205.93" y="-345.8" font-family="Times New Roman,serif" font-size="14.00"> (0)</text>
</g>
<!-- node16&#45;&gt;node17 -->
<g id="edge26" class="edge"><title>node16&#45;&gt;node17</title>
<path fill="none" stroke="black" d="M1306.87,-357.098C1331.36,-371.801 1368.77,-394.257 1395.92,-410.557"/>
<polygon fill="black" stroke="black" points="1394.32,-413.682 1404.7,-415.828 1397.92,-407.68 1394.32,-413.682"/>
<text text-anchor="middle" x="1355.52" y="-394.8" font-family="Times New Roman,serif" font-size="14.00"> (1)</text>
</g>
<!-- node23 -->
<g id="node24" class="node"><title>node23</title>
<ellipse fill="none" stroke="black" cx="1558.31" cy="-431" rx="42.7926" ry="18"/>
<text text-anchor="middle" x="1558.31" y="-427.3" font-family="Times New Roman,serif" font-size="14.00">Output 2</text>
</g>
<!-- node17&#45;&gt;node23 -->
<g id="edge35" class="edge"><title>node17&#45;&gt;node23</title>
<path fill="none" stroke="black" d="M1478.64,-431C1487.24,-431 1496.28,-431 1505.04,-431"/>
<polygon fill="black" stroke="black" points="1505.15,-434.5 1515.15,-431 1505.15,-427.5 1505.15,-434.5"/>
</g>
<!-- node18&#45;&gt;node19 -->
<g id="edge30" class="edge"><title>node18&#45;&gt;node19</title>
<path fill="none" stroke="black" d="M865.009,-89.6113C886.082,-81.9352 913.344,-72.0043 935.95,-63.7695"/>
<polygon fill="black" stroke="black" points="937.447,-66.9492 945.645,-60.2379 935.051,-60.372 937.447,-66.9492"/>
<text text-anchor="middle" x="905.445" y="-82.8" font-family="Times New Roman,serif" font-size="14.00"> (1)</text>
</g>
<!-- node19&#45;&gt;node20 -->
<g id="edge32" class="edge"><title>node19&#45;&gt;node20</title>
<path fill="none" stroke="black" d="M1022.14,-39.723C1039.5,-36.2109 1059.91,-32.0789 1078.26,-28.3667"/>
<polygon fill="black" stroke="black" points="1079.09,-31.7682 1088.2,-26.3542 1077.71,-24.9073 1079.09,-31.7682"/>
<text text-anchor="middle" x="1055.04" y="-38.8" font-family="Times New Roman,serif" font-size="14.00"> (1)</text>
</g>
<!-- node22 -->
<g id="node23" class="node"><title>node22</title>
<ellipse fill="none" stroke="black" cx="1558.31" cy="-18" rx="42.7926" ry="18"/>
<text text-anchor="middle" x="1558.31" y="-14.3" font-family="Times New Roman,serif" font-size="14.00">Output 1</text>
</g>
<!-- node20&#45;&gt;node22 -->
<g id="edge34" class="edge"><title>node20&#45;&gt;node22</title>
<path fill="none" stroke="black" d="M1178.27,-18C1258.43,-18 1421.46,-18 1505.16,-18"/>
<polygon fill="black" stroke="black" points="1505.2,-21.5001 1515.2,-18 1505.2,-14.5001 1505.2,-21.5001"/>
</g>
</g>
</svg>
