<?xml version="1.0" encoding="UTF-8" standalone="no"?>
<!DOCTYPE svg PUBLIC "-//W3C//DTD SVG 1.1//EN"
 "http://www.w3.org/Graphics/SVG/1.1/DTD/svg11.dtd">
<!-- Generated by graphviz version 2.38.0 (20140413.2041)
 -->
<!-- Title: NeuralNetwork Pages: 1 -->
<svg width="288pt" height="104pt"
 viewBox="0.00 0.00 288.00 103.63" xmlns="http://www.w3.org/2000/svg" xmlns:xlink="http://www.w3.org/1999/xlink">
<g id="graph0" class="graph" transform="scale(0.2168 0.2168) rotate(0) translate(4 474)">
<title>NeuralNetwork</title>
<polygon fill="white" stroke="none" points="-4,4 -4,-474 1324.41,-474 1324.41,4 -4,4"/>
<!-- node0 -->
<g id="node1" class="node"><title>node0</title>
<ellipse fill="none" stroke="black" cx="42.2463" cy="-269" rx="42.4939" ry="18"/>
<text text-anchor="middle" x="42.2463" y="-265.3" font-family="Times New Roman,serif" font-size="14.00">(0) Input</text>
</g>
<!-- node6 -->
<g id="node7" class="node"><title>node6</title>
<ellipse fill="none" stroke="black" cx="475.614" cy="-208" rx="42.4939" ry="18"/>
<text text-anchor="middle" x="475.614" y="-204.3" font-family="Times New Roman,serif" font-size="14.00">(6) AND</text>
</g>
<!-- node0&#45;&gt;node6 -->
<g id="edge3" class="edge"><title>node0&#45;&gt;node6</title>
<path fill="none" stroke="black" d="M82.6708,-263.425C161.516,-252.275 338.472,-227.252 425.03,-215.012"/>
<polygon fill="black" stroke="black" points="425.714,-218.45 435.126,-213.584 424.734,-211.519 425.714,-218.45"/>
<text text-anchor="middle" x="267.379" y="-245.8" font-family="Times New Roman,serif" font-size="14.00"> (0)</text>
</g>
<!-- node12 -->
<g id="node13" class="node"><title>node12</title>
<ellipse fill="none" stroke="black" cx="588.506" cy="-393" rx="47.3916" ry="18"/>
<text text-anchor="middle" x="588.506" y="-389.3" font-family="Times New Roman,serif" font-size="14.00">(12) XOR</text>
</g>
<!-- node0&#45;&gt;node12 -->
<g id="edge15" class="edge"><title>node0&#45;&gt;node12</title>
<path fill="none" stroke="black" d="M44.948,-287.201C48.9107,-317.903 61.7773,-379.248 102.493,-406 241.593,-497.396 454.911,-439.96 545.008,-408.994"/>
<polygon fill="black" stroke="black" points="546.329,-412.24 554.61,-405.632 544.016,-405.633 546.329,-412.24"/>
<text text-anchor="middle" x="267.379" y="-458.8" font-family="Times New Roman,serif" font-size="14.00"> (1)</text>
</g>
<!-- node18 -->
<g id="node19" class="node"><title>node18</title>
<ellipse fill="none" stroke="black" cx="369.222" cy="-271" rx="40.8928" ry="18"/>
<text text-anchor="middle" x="369.222" y="-267.3" font-family="Times New Roman,serif" font-size="14.00">(18) OR</text>
</g>
<!-- node0&#45;&gt;node18 -->
<g id="edge22" class="edge"><title>node0&#45;&gt;node18</title>
<path fill="none" stroke="black" d="M84.3562,-267.433C90.4364,-267.253 96.6271,-267.099 102.493,-267 177.53,-265.734 264.489,-267.691 317.927,-269.287"/>
<polygon fill="black" stroke="black" points="318.052,-272.793 328.155,-269.601 318.267,-265.796 318.052,-272.793"/>
<text text-anchor="middle" x="154.488" y="-270.8" font-family="Times New Roman,serif" font-size="14.00"> (0)</text>
</g>
<!-- node1 -->
<g id="node2" class="node"><title>node1</title>
<ellipse fill="none" stroke="black" cx="42.2463" cy="-18" rx="42.4939" ry="18"/>
<text text-anchor="middle" x="42.2463" y="-14.3" font-family="Times New Roman,serif" font-size="14.00">(1) Input</text>
</g>
<!-- node8 -->
<g id="node9" class="node"><title>node8</title>
<ellipse fill="none" stroke="black" cx="267.379" cy="-45" rx="36.2938" ry="18"/>
<text text-anchor="middle" x="267.379" y="-41.3" font-family="Times New Roman,serif" font-size="14.00">(8) OR</text>
</g>
<!-- node1&#45;&gt;node8 -->
<g id="edge8" class="edge"><title>node1&#45;&gt;node8</title>
<path fill="none" stroke="black" d="M79.0063,-9.0759C112.579,-2.26091 163.875,4.09917 206.483,-8 218.006,-11.272 229.484,-17.4611 239.263,-23.8543"/>
<polygon fill="black" stroke="black" points="237.504,-26.8932 247.719,-29.7052 241.487,-21.1369 237.504,-26.8932"/>
<text text-anchor="middle" x="154.488" y="-11.8" font-family="Times New Roman,serif" font-size="14.00"> (1)</text>
</g>
<!-- node9 -->
<g id="node10" class="node"><title>node9</title>
<ellipse fill="none" stroke="black" cx="267.379" cy="-118" rx="42.7926" ry="18"/>
<text text-anchor="middle" x="267.379" y="-114.3" font-family="Times New Roman,serif" font-size="14.00">(9) XOR</text>
</g>
<!-- node1&#45;&gt;node9 -->
<g id="edge9" class="edge"><title>node1&#45;&gt;node9</title>
<path fill="none" stroke="black" d="M61.1577,-34.2218C72.2913,-43.4447 87.3325,-54.4306 102.493,-61 145.677,-79.7137 162.632,-63.9068 206.483,-81 216.926,-85.0704 227.572,-90.9719 236.936,-96.8705"/>
<polygon fill="black" stroke="black" points="235.191,-99.9111 245.473,-102.465 239.028,-94.0564 235.191,-99.9111"/>
<text text-anchor="middle" x="154.488" y="-84.8" font-family="Times New Roman,serif" font-size="14.00"> (0)</text>
</g>
<!-- node2 -->
<g id="node3" class="node"><title>node2</title>
<ellipse fill="none" stroke="black" cx="42.2463" cy="-159" rx="42.4939" ry="18"/>
<text text-anchor="middle" x="42.2463" y="-155.3" font-family="Times New Roman,serif" font-size="14.00">(2) Input</text>
</g>
<!-- node5 -->
<g id="node6" class="node"><title>node5</title>
<ellipse fill="none" stroke="black" cx="267.379" cy="-172" rx="36.2938" ry="18"/>
<text text-anchor="middle" x="267.379" y="-168.3" font-family="Times New Roman,serif" font-size="14.00">(5) OR</text>
</g>
<!-- node2&#45;&gt;node5 -->
<g id="edge2" class="edge"><title>node2&#45;&gt;node5</title>
<path fill="none" stroke="black" d="M84.2853,-157.084C117.367,-156.061 165.039,-155.761 206.483,-160 212.296,-160.595 218.381,-161.489 224.351,-162.527"/>
<polygon fill="black" stroke="black" points="223.749,-165.975 234.224,-164.381 225.041,-159.095 223.749,-165.975"/>
<text text-anchor="middle" x="154.488" y="-163.8" font-family="Times New Roman,serif" font-size="14.00"> (1)</text>
</g>
<!-- node7 -->
<g id="node8" class="node"><title>node7</title>
<ellipse fill="none" stroke="black" cx="267.379" cy="-366" rx="42.7926" ry="18"/>
<text text-anchor="middle" x="267.379" y="-362.3" font-family="Times New Roman,serif" font-size="14.00">(7) XOR</text>
</g>
<!-- node2&#45;&gt;node7 -->
<g id="edge5" class="edge"><title>node2&#45;&gt;node7</title>
<path fill="none" stroke="black" d="M70.6403,-172.748C76.017,-176.65 81.0505,-181.395 84.4925,-187 117.551,-240.836 59.0372,-282.144 102.493,-328 134.81,-362.103 160.891,-335.652 206.483,-347 212.18,-348.418 218.128,-350.079 223.971,-351.819"/>
<polygon fill="black" stroke="black" points="223.053,-355.199 233.64,-354.792 225.11,-348.508 223.053,-355.199"/>
<text text-anchor="middle" x="154.488" y="-350.8" font-family="Times New Roman,serif" font-size="14.00"> (0)</text>
</g>
<!-- node3 -->
<g id="node4" class="node"><title>node3</title>
<ellipse fill="none" stroke="black" cx="42.2463" cy="-94" rx="42.4939" ry="18"/>
<text text-anchor="middle" x="42.2463" y="-90.3" font-family="Times New Roman,serif" font-size="14.00">(3) Input</text>
</g>
<!-- node3&#45;&gt;node8 -->
<g id="edge7" class="edge"><title>node3&#45;&gt;node8</title>
<path fill="none" stroke="black" d="M57.967,-77.2099C68.9592,-66.0121 85.0422,-52.2418 102.493,-46 141.461,-32.0615 189.054,-33.6392 222.891,-37.601"/>
<polygon fill="black" stroke="black" points="222.561,-41.0873 232.926,-38.8925 223.455,-34.1445 222.561,-41.0873"/>
<text text-anchor="middle" x="154.488" y="-49.8" font-family="Times New Roman,serif" font-size="14.00"> (0)</text>
</g>
<!-- node3&#45;&gt;node9 -->
<g id="edge10" class="edge"><title>node3&#45;&gt;node9</title>
<path fill="none" stroke="black" d="M83.3957,-98.3184C120.331,-102.291 175.283,-108.202 215.325,-112.509"/>
<polygon fill="black" stroke="black" points="215.104,-116.005 225.421,-113.595 215.853,-109.045 215.104,-116.005"/>
<text text-anchor="middle" x="154.488" y="-114.8" font-family="Times New Roman,serif" font-size="14.00"> (1)</text>
</g>
<!-- node4 -->
<g id="node5" class="node"><title>node4</title>
<ellipse fill="none" stroke="black" cx="42.2463" cy="-214" rx="42.4939" ry="18"/>
<text text-anchor="middle" x="42.2463" y="-210.3" font-family="Times New Roman,serif" font-size="14.00">(4) Input</text>
</g>
<!-- node4&#45;&gt;node5 -->
<g id="edge1" class="edge"><title>node4&#45;&gt;node5</title>
<path fill="none" stroke="black" d="M77.5569,-204.07C85.691,-201.901 94.3657,-199.737 102.493,-198 142.531,-189.443 188.623,-182.374 221.709,-177.778"/>
<polygon fill="black" stroke="black" points="222.536,-181.197 231.969,-176.374 221.587,-174.262 222.536,-181.197"/>
<text text-anchor="middle" x="154.488" y="-201.8" font-family="Times New Roman,serif" font-size="14.00"> (0)</text>
</g>
<!-- node4&#45;&gt;node7 -->
<g id="edge6" class="edge"><title>node4&#45;&gt;node7</title>
<path fill="none" stroke="black" d="M70.569,-227.793C75.9495,-231.692 81.0025,-236.424 84.4925,-242 114.04,-289.204 60.3811,-329.56 102.493,-366 135.336,-394.42 187.282,-388.947 223.872,-379.896"/>
<polygon fill="black" stroke="black" points="224.988,-383.221 233.756,-377.274 223.193,-376.455 224.988,-383.221"/>
<text text-anchor="middle" x="154.488" y="-390.8" font-family="Times New Roman,serif" font-size="14.00"> (1)</text>
</g>
<!-- node5&#45;&gt;node6 -->
<g id="edge4" class="edge"><title>node5&#45;&gt;node6</title>
<path fill="none" stroke="black" d="M301.974,-177.864C335.711,-183.753 388.035,-192.887 426.239,-199.556"/>
<polygon fill="black" stroke="black" points="425.667,-203.009 436.12,-201.28 426.871,-196.113 425.667,-203.009"/>
<text text-anchor="middle" x="369.222" y="-199.8" font-family="Times New Roman,serif" font-size="14.00"> (1)</text>
</g>
<!-- node10 -->
<g id="node11" class="node"><title>node10</title>
<ellipse fill="none" stroke="black" cx="475.614" cy="-154" rx="47.3916" ry="18"/>
<text text-anchor="middle" x="475.614" y="-150.3" font-family="Times New Roman,serif" font-size="14.00">(10) XOR</text>
</g>
<!-- node5&#45;&gt;node10 -->
<g id="edge11" class="edge"><title>node5&#45;&gt;node10</title>
<path fill="none" stroke="black" d="M300.214,-163.98C309.229,-162.012 319.089,-160.144 328.276,-159 357.69,-155.336 390.669,-153.972 417.863,-153.574"/>
<polygon fill="black" stroke="black" points="418.02,-157.072 427.982,-153.465 417.945,-150.073 418.02,-157.072"/>
<text text-anchor="middle" x="369.222" y="-162.8" font-family="Times New Roman,serif" font-size="14.00"> (0)</text>
</g>
<!-- node14 -->
<g id="node15" class="node"><title>node14</title>
<ellipse fill="none" stroke="black" cx="849.689" cy="-170" rx="40.8928" ry="18"/>
<text text-anchor="middle" x="849.689" y="-166.3" font-family="Times New Roman,serif" font-size="14.00">(14) OR</text>
</g>
<!-- node6&#45;&gt;node14 -->
<g id="edge17" class="edge"><title>node6&#45;&gt;node14</title>
<path fill="none" stroke="black" d="M517.533,-205.474C576.585,-201.587 689.065,-193.279 784.243,-181 789.802,-180.283 795.613,-179.433 801.373,-178.529"/>
<polygon fill="black" stroke="black" points="802.314,-181.922 811.621,-176.859 801.188,-175.013 802.314,-181.922"/>
<text text-anchor="middle" x="700.097" y="-197.8" font-family="Times New Roman,serif" font-size="14.00"> (0)</text>
</g>
<!-- node7&#45;&gt;node12 -->
<g id="edge14" class="edge"><title>node7&#45;&gt;node12</title>
<path fill="none" stroke="black" d="M309.772,-369.502C366.485,-374.3 468.509,-382.932 531.859,-388.292"/>
<polygon fill="black" stroke="black" points="531.806,-391.8 542.065,-389.155 532.396,-384.825 531.806,-391.8"/>
<text text-anchor="middle" x="369.222" y="-380.8" font-family="Times New Roman,serif" font-size="14.00"> (0)</text>
</g>
<!-- node13 -->
<g id="node14" class="node"><title>node13</title>
<ellipse fill="none" stroke="black" cx="475.614" cy="-319" rx="46.2923" ry="18"/>
<text text-anchor="middle" x="475.614" y="-315.3" font-family="Times New Roman,serif" font-size="14.00">(13) NEG</text>
</g>
<!-- node7&#45;&gt;node13 -->
<g id="edge16" class="edge"><title>node7&#45;&gt;node13</title>
<path fill="none" stroke="black" d="M288.491,-350.139C299.576,-342.319 313.962,-333.598 328.276,-329 357.535,-319.602 391.728,-316.842 419.701,-316.551"/>
<polygon fill="black" stroke="black" points="419.706,-320.051 429.705,-316.547 419.704,-313.051 419.706,-320.051"/>
<text text-anchor="middle" x="369.222" y="-332.8" font-family="Times New Roman,serif" font-size="14.00"> (0)</text>
</g>
<!-- node22 -->
<g id="node23" class="node"><title>node22</title>
<ellipse fill="none" stroke="black" cx="1150.82" cy="-93" rx="46.5926" ry="18"/>
<text text-anchor="middle" x="1150.82" y="-89.3" font-family="Times New Roman,serif" font-size="14.00">(22) AND</text>
</g>
<!-- node8&#45;&gt;node22 -->
<g id="edge30" class="edge"><title>node8&#45;&gt;node22</title>
<path fill="none" stroke="black" d="M302.201,-50.8378C342.958,-57.3554 413.581,-67 474.614,-67 474.614,-67 474.614,-67 1001.58,-67 1035.71,-67 1073.59,-73.7669 1102.53,-80.3963"/>
<polygon fill="black" stroke="black" points="1101.83,-83.8276 1112.36,-82.7241 1103.44,-77.0156 1101.83,-83.8276"/>
<text text-anchor="middle" x="774.243" y="-70.8" font-family="Times New Roman,serif" font-size="14.00"> (0)</text>
</g>
<!-- node9&#45;&gt;node10 -->
<g id="edge12" class="edge"><title>node9&#45;&gt;node10</title>
<path fill="none" stroke="black" d="M309.967,-120.619C338.401,-122.914 376.831,-127.011 410.168,-134 416.793,-135.389 423.711,-137.17 430.451,-139.095"/>
<polygon fill="black" stroke="black" points="429.562,-142.482 440.146,-141.989 431.565,-135.774 429.562,-142.482"/>
<text text-anchor="middle" x="369.222" y="-137.8" font-family="Times New Roman,serif" font-size="14.00"> (1)</text>
</g>
<!-- node11 -->
<g id="node12" class="node"><title>node11</title>
<ellipse fill="none" stroke="black" cx="700.097" cy="-154" rx="46.2923" ry="18"/>
<text text-anchor="middle" x="700.097" y="-150.3" font-family="Times New Roman,serif" font-size="14.00">(11) NEG</text>
</g>
<!-- node10&#45;&gt;node11 -->
<g id="edge13" class="edge"><title>node10&#45;&gt;node11</title>
<path fill="none" stroke="black" d="M523.254,-154C558.311,-154 606.469,-154 643.524,-154"/>
<polygon fill="black" stroke="black" points="643.661,-157.5 653.661,-154 643.661,-150.5 643.661,-157.5"/>
<text text-anchor="middle" x="588.506" y="-157.8" font-family="Times New Roman,serif" font-size="14.00"> (0)</text>
</g>
<!-- node11&#45;&gt;node14 -->
<g id="edge18" class="edge"><title>node11&#45;&gt;node14</title>
<path fill="none" stroke="black" d="M744.98,-158.757C762.17,-160.621 781.966,-162.767 799.626,-164.681"/>
<polygon fill="black" stroke="black" points="799.422,-168.179 809.741,-165.778 800.176,-161.22 799.422,-168.179"/>
<text text-anchor="middle" x="774.243" y="-165.8" font-family="Times New Roman,serif" font-size="14.00"> (1)</text>
</g>
<!-- node19 -->
<g id="node20" class="node"><title>node19</title>
<ellipse fill="none" stroke="black" cx="849.689" cy="-264" rx="47.3916" ry="18"/>
<text text-anchor="middle" x="849.689" y="-260.3" font-family="Times New Roman,serif" font-size="14.00">(19) XOR</text>
</g>
<!-- node11&#45;&gt;node19 -->
<g id="edge24" class="edge"><title>node11&#45;&gt;node19</title>
<path fill="none" stroke="black" d="M723.71,-169.801C730.946,-174.918 738.966,-180.653 746.243,-186 771.418,-204.497 799.635,-226.043 820.072,-241.797"/>
<polygon fill="black" stroke="black" points="817.993,-244.614 828.047,-247.956 822.272,-239.073 817.993,-244.614"/>
<text text-anchor="middle" x="774.243" y="-216.8" font-family="Times New Roman,serif" font-size="14.00"> (0)</text>
</g>
<!-- node16 -->
<g id="node17" class="node"><title>node16</title>
<ellipse fill="none" stroke="black" cx="849.689" cy="-318" rx="46.5926" ry="18"/>
<text text-anchor="middle" x="849.689" y="-314.3" font-family="Times New Roman,serif" font-size="14.00">(16) AND</text>
</g>
<!-- node12&#45;&gt;node16 -->
<g id="edge20" class="edge"><title>node12&#45;&gt;node16</title>
<path fill="none" stroke="black" d="M626.86,-382.338C666.078,-371.126 729.526,-352.933 784.243,-337 790.197,-335.266 796.456,-333.434 802.638,-331.618"/>
<polygon fill="black" stroke="black" points="803.628,-334.975 812.234,-328.794 801.652,-328.259 803.628,-334.975"/>
<text text-anchor="middle" x="700.097" y="-377.8" font-family="Times New Roman,serif" font-size="14.00"> (0)</text>
</g>
<!-- node23 -->
<g id="node24" class="node"><title>node23</title>
<ellipse fill="none" stroke="black" cx="1277.51" cy="-415" rx="42.7926" ry="18"/>
<text text-anchor="middle" x="1277.51" y="-411.3" font-family="Times New Roman,serif" font-size="14.00">Output 0</text>
</g>
<!-- node12&#45;&gt;node23 -->
<g id="edge32" class="edge"><title>node12&#45;&gt;node23</title>
<path fill="none" stroke="black" d="M631.296,-400.88C668.426,-407.193 724.25,-415 773.243,-415 773.243,-415 773.243,-415 1151.82,-415 1175.56,-415 1201.83,-415 1224.12,-415"/>
<polygon fill="black" stroke="black" points="1224.38,-418.5 1234.38,-415 1224.38,-411.5 1224.38,-418.5"/>
</g>
<!-- node15 -->
<g id="node16" class="node"><title>node15</title>
<ellipse fill="none" stroke="black" cx="700.097" cy="-318" rx="46.2923" ry="18"/>
<text text-anchor="middle" x="700.097" y="-314.3" font-family="Times New Roman,serif" font-size="14.00">(15) NEG</text>
</g>
<!-- node13&#45;&gt;node15 -->
<g id="edge19" class="edge"><title>node13&#45;&gt;node15</title>
<path fill="none" stroke="black" d="M521.905,-318.796C557.094,-318.638 606.062,-318.418 643.605,-318.249"/>
<polygon fill="black" stroke="black" points="643.886,-321.748 653.87,-318.203 643.854,-314.748 643.886,-321.748"/>
<text text-anchor="middle" x="588.506" y="-321.8" font-family="Times New Roman,serif" font-size="14.00"> (0)</text>
</g>
<!-- node20 -->
<g id="node21" class="node"><title>node20</title>
<ellipse fill="none" stroke="black" cx="1000.58" cy="-170" rx="47.3916" ry="18"/>
<text text-anchor="middle" x="1000.58" y="-166.3" font-family="Times New Roman,serif" font-size="14.00">(20) XOR</text>
</g>
<!-- node14&#45;&gt;node20 -->
<g id="edge27" class="edge"><title>node14&#45;&gt;node20</title>
<path fill="none" stroke="black" d="M890.981,-170C906.815,-170 925.279,-170 942.444,-170"/>
<polygon fill="black" stroke="black" points="942.928,-173.5 952.928,-170 942.928,-166.5 942.928,-173.5"/>
<text text-anchor="middle" x="925.135" y="-173.8" font-family="Times New Roman,serif" font-size="14.00"> (1)</text>
</g>
<!-- node15&#45;&gt;node16 -->
<g id="edge21" class="edge"><title>node15&#45;&gt;node16</title>
<path fill="none" stroke="black" d="M746.584,-318C761.105,-318 777.349,-318 792.534,-318"/>
<polygon fill="black" stroke="black" points="792.844,-321.5 802.844,-318 792.844,-314.5 792.844,-321.5"/>
<text text-anchor="middle" x="774.243" y="-321.8" font-family="Times New Roman,serif" font-size="14.00"> (1)</text>
</g>
<!-- node16&#45;&gt;node20 -->
<g id="edge26" class="edge"><title>node16&#45;&gt;node20</title>
<path fill="none" stroke="black" d="M880.729,-304.238C886.684,-300.546 892.514,-296.127 897.135,-291 910.187,-276.519 903.895,-266.928 915.135,-251 930.777,-228.834 953.08,-207.751 970.838,-192.654"/>
<polygon fill="black" stroke="black" points="973.194,-195.247 978.637,-186.156 968.713,-189.869 973.194,-195.247"/>
<text text-anchor="middle" x="925.135" y="-254.8" font-family="Times New Roman,serif" font-size="14.00"> (0)</text>
</g>
<!-- node21 -->
<g id="node22" class="node"><title>node21</title>
<ellipse fill="none" stroke="black" cx="1000.58" cy="-289" rx="47.3916" ry="18"/>
<text text-anchor="middle" x="1000.58" y="-285.3" font-family="Times New Roman,serif" font-size="14.00">(21) XOR</text>
</g>
<!-- node16&#45;&gt;node21 -->
<g id="edge28" class="edge"><title>node16&#45;&gt;node21</title>
<path fill="none" stroke="black" d="M891.769,-309.999C909.199,-306.604 929.706,-302.61 948.13,-299.021"/>
<polygon fill="black" stroke="black" points="948.972,-302.423 958.118,-297.076 947.634,-295.552 948.972,-302.423"/>
<text text-anchor="middle" x="925.135" y="-308.8" font-family="Times New Roman,serif" font-size="14.00"> (0)</text>
</g>
<!-- node17 -->
<g id="node18" class="node"><title>node17</title>
<ellipse fill="none" stroke="black" cx="154.488" cy="-309" rx="51.9908" ry="18"/>
<text text-anchor="middle" x="154.488" y="-305.3" font-family="Times New Roman,serif" font-size="14.00">(17) ONES</text>
</g>
<!-- node17&#45;&gt;node18 -->
<g id="edge23" class="edge"><title>node17&#45;&gt;node18</title>
<path fill="none" stroke="black" d="M202.307,-301.608C233.051,-296.638 274.119,-289.778 310.276,-283 314.141,-282.275 318.146,-281.499 322.163,-280.703"/>
<polygon fill="black" stroke="black" points="322.987,-284.107 332.098,-278.701 321.604,-277.245 322.987,-284.107"/>
<text text-anchor="middle" x="267.379" y="-300.8" font-family="Times New Roman,serif" font-size="14.00"> (1)</text>
</g>
<!-- node18&#45;&gt;node19 -->
<g id="edge25" class="edge"><title>node18&#45;&gt;node19</title>
<path fill="none" stroke="black" d="M410.193,-270.415C495.226,-269.171 694.271,-266.259 792.218,-264.826"/>
<polygon fill="black" stroke="black" points="792.279,-268.326 802.227,-264.68 792.177,-261.326 792.279,-268.326"/>
<text text-anchor="middle" x="588.506" y="-271.8" font-family="Times New Roman,serif" font-size="14.00"> (1)</text>
</g>
<!-- node19&#45;&gt;node21 -->
<g id="edge29" class="edge"><title>node19&#45;&gt;node21</title>
<path fill="none" stroke="black" d="M896.429,-267.719C909.021,-269.056 922.648,-270.795 935.135,-273 940.527,-273.952 946.137,-275.102 951.699,-276.343"/>
<polygon fill="black" stroke="black" points="951.065,-279.789 961.599,-278.653 952.656,-272.972 951.065,-279.789"/>
<text text-anchor="middle" x="925.135" y="-276.8" font-family="Times New Roman,serif" font-size="14.00"> (1)</text>
</g>
<!-- node20&#45;&gt;node22 -->
<g id="edge31" class="edge"><title>node20&#45;&gt;node22</title>
<path fill="none" stroke="black" d="M1029.46,-155.517C1053.14,-143.217 1087.3,-125.473 1113.19,-112.029"/>
<polygon fill="black" stroke="black" points="1115.05,-115.003 1122.32,-107.288 1111.83,-108.791 1115.05,-115.003"/>
<text text-anchor="middle" x="1076.03" y="-139.8" font-family="Times New Roman,serif" font-size="14.00"> (1)</text>
</g>
<!-- node24 -->
<g id="node25" class="node"><title>node24</title>
<ellipse fill="none" stroke="black" cx="1277.51" cy="-289" rx="42.7926" ry="18"/>
<text text-anchor="middle" x="1277.51" y="-285.3" font-family="Times New Roman,serif" font-size="14.00">Output 1</text>
</g>
<!-- node21&#45;&gt;node24 -->
<g id="edge33" class="edge"><title>node21&#45;&gt;node24</title>
<path fill="none" stroke="black" d="M1048.22,-289C1097.09,-289 1173.7,-289 1224.5,-289"/>
<polygon fill="black" stroke="black" points="1224.61,-292.5 1234.61,-289 1224.61,-285.5 1224.61,-292.5"/>
</g>
<!-- node25 -->
<g id="node26" class="node"><title>node25</title>
<ellipse fill="none" stroke="black" cx="1277.51" cy="-93" rx="42.7926" ry="18"/>
<text text-anchor="middle" x="1277.51" y="-89.3" font-family="Times New Roman,serif" font-size="14.00">Output 2</text>
</g>
<!-- node22&#45;&gt;node25 -->
<g id="edge34" class="edge"><title>node22&#45;&gt;node25</title>
<path fill="none" stroke="black" d="M1197.9,-93C1206.48,-93 1215.49,-93 1224.24,-93"/>
<polygon fill="black" stroke="black" points="1224.34,-96.5001 1234.34,-93 1224.34,-89.5001 1224.34,-96.5001"/>
</g>
</g>
</svg>
