<?xml version="1.0" encoding="UTF-8" standalone="no"?>
<!DOCTYPE svg PUBLIC "-//W3C//DTD SVG 1.1//EN"
 "http://www.w3.org/Graphics/SVG/1.1/DTD/svg11.dtd">
<!-- Generated by graphviz version 2.38.0 (20140413.2041)
 -->
<!-- Title: NeuralNetwork Pages: 1 -->
<svg width="288pt" height="115pt"
 viewBox="0.00 0.00 288.00 114.60" xmlns="http://www.w3.org/2000/svg" xmlns:xlink="http://www.w3.org/1999/xlink">
<g id="graph0" class="graph" transform="scale(0.144631 0.144631) rotate(0) translate(4 788.386)">
<title>NeuralNetwork</title>
<polygon fill="white" stroke="none" points="-4,4 -4,-788.386 1987.27,-788.386 1987.27,4 -4,4"/>
<!-- node0 -->
<g id="node1" class="node"><title>node0</title>
<ellipse fill="none" stroke="black" cx="42.2463" cy="-25.3859" rx="42.4939" ry="18"/>
<text text-anchor="middle" x="42.2463" y="-21.6859" font-family="Times New Roman,serif" font-size="14.00">(0) Input</text>
</g>
<!-- node10 -->
<g id="node11" class="node"><title>node10</title>
<ellipse fill="none" stroke="black" cx="187.938" cy="-103.386" rx="47.3916" ry="18"/>
<text text-anchor="middle" x="187.938" y="-99.6859" font-family="Times New Roman,serif" font-size="14.00">(10) XOR</text>
</g>
<!-- node0&#45;&gt;node10 -->
<g id="edge3" class="edge"><title>node0&#45;&gt;node10</title>
<path fill="none" stroke="black" d="M81.9932,-31.5056C95.7457,-35.063 110.718,-40.6479 122.493,-49.3859 134.074,-57.9807 129.986,-66.5059 140.493,-76.3859 143.236,-78.9657 146.269,-81.4034 149.433,-83.6795"/>
<polygon fill="black" stroke="black" points="147.723,-86.7441 158.001,-89.3142 151.569,-80.8954 147.723,-86.7441"/>
<text text-anchor="middle" x="112.493" y="-54.1859" font-family="Times New Roman,serif" font-size="14.00"> (0)</text>
</g>
<!-- node13 -->
<g id="node14" class="node"><title>node13</title>
<ellipse fill="none" stroke="black" cx="187.938" cy="-49.3859" rx="46.5926" ry="18"/>
<text text-anchor="middle" x="187.938" y="-45.6859" font-family="Times New Roman,serif" font-size="14.00">(13) AND</text>
</g>
<!-- node0&#45;&gt;node13 -->
<g id="edge9" class="edge"><title>node0&#45;&gt;node13</title>
<path fill="none" stroke="black" d="M67.2985,-10.8119C83.0725,-3.11692 104.105,3.60692 122.493,-2.38595 137.219,-7.18558 151.38,-16.7634 162.658,-26.0277"/>
<polygon fill="black" stroke="black" points="160.469,-28.7624 170.327,-32.6454 165.042,-23.4626 160.469,-28.7624"/>
<text text-anchor="middle" x="112.493" y="-6.18595" font-family="Times New Roman,serif" font-size="14.00"> (0)</text>
</g>
<!-- node1 -->
<g id="node2" class="node"><title>node1</title>
<ellipse fill="none" stroke="black" cx="42.2463" cy="-363.386" rx="42.4939" ry="18"/>
<text text-anchor="middle" x="42.2463" y="-359.686" font-family="Times New Roman,serif" font-size="14.00">(1) Input</text>
</g>
<!-- node9 -->
<g id="node10" class="node"><title>node9</title>
<ellipse fill="none" stroke="black" cx="300.83" cy="-261.386" rx="42.7926" ry="18"/>
<text text-anchor="middle" x="300.83" y="-257.686" font-family="Times New Roman,serif" font-size="14.00">(9) XOR</text>
</g>
<!-- node1&#45;&gt;node9 -->
<g id="edge2" class="edge"><title>node1&#45;&gt;node9</title>
<path fill="none" stroke="black" d="M68.3126,-349.092C87.647,-338.415 115.263,-323.91 140.493,-313.386 178.217,-297.65 222.515,-283.527 254.815,-273.984"/>
<polygon fill="black" stroke="black" points="255.817,-277.338 264.433,-271.173 253.853,-270.619 255.817,-277.338"/>
<text text-anchor="middle" x="112.493" y="-334.186" font-family="Times New Roman,serif" font-size="14.00"> (1)</text>
</g>
<!-- node25 -->
<g id="node26" class="node"><title>node25</title>
<ellipse fill="none" stroke="black" cx="525.963" cy="-356.386" rx="46.5926" ry="18"/>
<text text-anchor="middle" x="525.963" y="-352.686" font-family="Times New Roman,serif" font-size="14.00">(25) AND</text>
</g>
<!-- node1&#45;&gt;node25 -->
<g id="edge32" class="edge"><title>node1&#45;&gt;node25</title>
<path fill="none" stroke="black" d="M84.7341,-362.783C171.16,-361.527 370.578,-358.629 468.556,-357.206"/>
<polygon fill="black" stroke="black" points="468.904,-360.701 478.852,-357.056 468.802,-353.702 468.904,-360.701"/>
<text text-anchor="middle" x="187.938" y="-365.186" font-family="Times New Roman,serif" font-size="14.00"> (0)</text>
</g>
<!-- node2 -->
<g id="node3" class="node"><title>node2</title>
<ellipse fill="none" stroke="black" cx="42.2463" cy="-532.386" rx="42.4939" ry="18"/>
<text text-anchor="middle" x="42.2463" y="-528.686" font-family="Times New Roman,serif" font-size="14.00">(2) Input</text>
</g>
<!-- node12 -->
<g id="node13" class="node"><title>node12</title>
<ellipse fill="none" stroke="black" cx="300.83" cy="-448.386" rx="47.3916" ry="18"/>
<text text-anchor="middle" x="300.83" y="-444.686" font-family="Times New Roman,serif" font-size="14.00">(12) XOR</text>
</g>
<!-- node2&#45;&gt;node12 -->
<g id="edge7" class="edge"><title>node2&#45;&gt;node12</title>
<path fill="none" stroke="black" d="M76.2648,-521.576C121.692,-506.705 203.629,-479.88 254.69,-463.164"/>
<polygon fill="black" stroke="black" points="256.056,-466.399 264.471,-459.962 253.878,-459.747 256.056,-466.399"/>
<text text-anchor="middle" x="112.493" y="-516.186" font-family="Times New Roman,serif" font-size="14.00"> (0)</text>
</g>
<!-- node24 -->
<g id="node25" class="node"><title>node24</title>
<ellipse fill="none" stroke="black" cx="1301.06" cy="-552.386" rx="47.3916" ry="18"/>
<text text-anchor="middle" x="1301.06" y="-548.686" font-family="Times New Roman,serif" font-size="14.00">(24) XOR</text>
</g>
<!-- node2&#45;&gt;node24 -->
<g id="edge31" class="edge"><title>node2&#45;&gt;node24</title>
<path fill="none" stroke="black" d="M68.3223,-546.559C96.3275,-561.03 143.449,-581.386 186.938,-581.386 186.938,-581.386 186.938,-581.386 1151.17,-581.386 1186.04,-581.386 1224.66,-573.63 1253.83,-566.14"/>
<polygon fill="black" stroke="black" points="1254.97,-569.461 1263.74,-563.515 1253.17,-562.695 1254.97,-569.461"/>
<text text-anchor="middle" x="736.798" y="-585.186" font-family="Times New Roman,serif" font-size="14.00"> (1)</text>
</g>
<!-- node3 -->
<g id="node4" class="node"><title>node3</title>
<ellipse fill="none" stroke="black" cx="42.2463" cy="-685.386" rx="42.4939" ry="18"/>
<text text-anchor="middle" x="42.2463" y="-681.686" font-family="Times New Roman,serif" font-size="14.00">(3) Input</text>
</g>
<!-- node17 -->
<g id="node18" class="node"><title>node17</title>
<ellipse fill="none" stroke="black" cx="999.281" cy="-698.386" rx="47.3916" ry="18"/>
<text text-anchor="middle" x="999.281" y="-694.686" font-family="Times New Roman,serif" font-size="14.00">(17) XOR</text>
</g>
<!-- node3&#45;&gt;node17 -->
<g id="edge16" class="edge"><title>node3&#45;&gt;node17</title>
<path fill="none" stroke="black" d="M84.747,-685.386C113.446,-685.386 152.512,-685.386 186.938,-685.386 186.938,-685.386 186.938,-685.386 849.389,-685.386 880.934,-685.386 916.096,-688.318 944.325,-691.397"/>
<polygon fill="black" stroke="black" points="944.063,-694.889 954.393,-692.532 944.848,-687.933 944.063,-694.889"/>
<text text-anchor="middle" x="525.963" y="-689.186" font-family="Times New Roman,serif" font-size="14.00"> (0)</text>
</g>
<!-- node4 -->
<g id="node5" class="node"><title>node4</title>
<ellipse fill="none" stroke="black" cx="42.2463" cy="-182.386" rx="42.4939" ry="18"/>
<text text-anchor="middle" x="42.2463" y="-178.686" font-family="Times New Roman,serif" font-size="14.00">(4) Input</text>
</g>
<!-- node11 -->
<g id="node12" class="node"><title>node11</title>
<ellipse fill="none" stroke="black" cx="413.721" cy="-165.386" rx="46.5926" ry="18"/>
<text text-anchor="middle" x="413.721" y="-161.686" font-family="Times New Roman,serif" font-size="14.00">(11) AND</text>
</g>
<!-- node4&#45;&gt;node11 -->
<g id="edge6" class="edge"><title>node4&#45;&gt;node11</title>
<path fill="none" stroke="black" d="M84.7343,-181.744C143.463,-180.641 254.173,-177.847 348.276,-171.386 351.371,-171.173 354.548,-170.937 357.753,-170.684"/>
<polygon fill="black" stroke="black" points="358.346,-174.147 368.021,-169.831 357.766,-167.171 358.346,-174.147"/>
<text text-anchor="middle" x="187.938" y="-184.186" font-family="Times New Roman,serif" font-size="14.00"> (1)</text>
</g>
<!-- node18 -->
<g id="node19" class="node"><title>node18</title>
<ellipse fill="none" stroke="black" cx="413.721" cy="-109.386" rx="47.3916" ry="18"/>
<text text-anchor="middle" x="413.721" y="-105.686" font-family="Times New Roman,serif" font-size="14.00">(18) XOR</text>
</g>
<!-- node4&#45;&gt;node18 -->
<g id="edge18" class="edge"><title>node4&#45;&gt;node18</title>
<path fill="none" stroke="black" d="M77.6103,-172.391C96.0919,-167.402 119.366,-161.731 140.493,-158.386 231.942,-143.908 259.262,-168.863 348.276,-143.386 359.059,-140.3 370.103,-135.273 379.934,-130.02"/>
<polygon fill="black" stroke="black" points="381.929,-132.914 388.94,-124.97 378.506,-126.808 381.929,-132.914"/>
<text text-anchor="middle" x="187.938" y="-162.186" font-family="Times New Roman,serif" font-size="14.00"> (0)</text>
</g>
<!-- node5 -->
<g id="node6" class="node"><title>node5</title>
<ellipse fill="none" stroke="black" cx="42.2463" cy="-280.386" rx="42.4939" ry="18"/>
<text text-anchor="middle" x="42.2463" y="-276.686" font-family="Times New Roman,serif" font-size="14.00">(5) Input</text>
</g>
<!-- node5&#45;&gt;node9 -->
<g id="edge1" class="edge"><title>node5&#45;&gt;node9</title>
<path fill="none" stroke="black" d="M67.735,-265.829C78.0861,-260.48 90.5039,-255.076 102.493,-252.386 152.516,-241.161 211.407,-246.114 251.752,-252.179"/>
<polygon fill="black" stroke="black" points="251.424,-255.67 261.848,-253.778 252.519,-248.757 251.424,-255.67"/>
<text text-anchor="middle" x="112.493" y="-256.186" font-family="Times New Roman,serif" font-size="14.00"> (0)</text>
</g>
<!-- node5&#45;&gt;node25 -->
<g id="edge33" class="edge"><title>node5&#45;&gt;node25</title>
<path fill="none" stroke="black" d="M61.3066,-296.628C72.3766,-305.576 87.3018,-315.944 102.493,-321.386 119.482,-327.473 358.513,-344.783 469.309,-352.542"/>
<polygon fill="black" stroke="black" points="469.4,-356.057 479.619,-353.262 469.888,-349.074 469.4,-356.057"/>
<text text-anchor="middle" x="187.938" y="-338.186" font-family="Times New Roman,serif" font-size="14.00"> (1)</text>
</g>
<!-- node6 -->
<g id="node7" class="node"><title>node6</title>
<ellipse fill="none" stroke="black" cx="42.2463" cy="-452.386" rx="42.4939" ry="18"/>
<text text-anchor="middle" x="42.2463" y="-448.686" font-family="Times New Roman,serif" font-size="14.00">(6) Input</text>
</g>
<!-- node6&#45;&gt;node12 -->
<g id="edge8" class="edge"><title>node6&#45;&gt;node12</title>
<path fill="none" stroke="black" d="M71.8982,-439.413C81.4296,-435.734 92.2333,-432.229 102.493,-430.386 152.486,-421.404 210.454,-428.77 250.568,-436.614"/>
<polygon fill="black" stroke="black" points="250.124,-440.096 260.621,-438.663 251.522,-433.237 250.124,-440.096"/>
<text text-anchor="middle" x="112.493" y="-434.186" font-family="Times New Roman,serif" font-size="14.00"> (1)</text>
</g>
<!-- node21 -->
<g id="node22" class="node"><title>node21</title>
<ellipse fill="none" stroke="black" cx="999.281" cy="-497.386" rx="47.3916" ry="18"/>
<text text-anchor="middle" x="999.281" y="-493.686" font-family="Times New Roman,serif" font-size="14.00">(21) XOR</text>
</g>
<!-- node6&#45;&gt;node21 -->
<g id="edge24" class="edge"><title>node6&#45;&gt;node21</title>
<path fill="none" stroke="black" d="M62.651,-468.162C73.698,-476.343 88.1594,-485.773 102.493,-491.386 137.917,-505.258 148.895,-505.386 186.938,-505.386 186.938,-505.386 186.938,-505.386 849.389,-505.386 880.283,-505.386 914.731,-503.647 942.705,-501.791"/>
<polygon fill="black" stroke="black" points="942.963,-505.282 952.7,-501.105 942.484,-498.298 942.963,-505.282"/>
<text text-anchor="middle" x="525.963" y="-509.186" font-family="Times New Roman,serif" font-size="14.00"> (0)</text>
</g>
<!-- node7 -->
<g id="node8" class="node"><title>node7</title>
<ellipse fill="none" stroke="black" cx="42.2463" cy="-754.386" rx="42.4939" ry="18"/>
<text text-anchor="middle" x="42.2463" y="-750.686" font-family="Times New Roman,serif" font-size="14.00">(7) Input</text>
</g>
<!-- node7&#45;&gt;node17 -->
<g id="edge17" class="edge"><title>node7&#45;&gt;node17</title>
<path fill="none" stroke="black" d="M75.632,-743.282C104.478,-734.387 148.02,-723.386 186.938,-723.386 186.938,-723.386 186.938,-723.386 849.389,-723.386 883.27,-723.386 920.895,-717.012 949.847,-710.701"/>
<polygon fill="black" stroke="black" points="950.718,-714.093 959.705,-708.482 949.18,-707.264 950.718,-714.093"/>
<text text-anchor="middle" x="525.963" y="-727.186" font-family="Times New Roman,serif" font-size="14.00"> (1)</text>
</g>
<!-- node19 -->
<g id="node20" class="node"><title>node19</title>
<ellipse fill="none" stroke="black" cx="1150.17" cy="-698.386" rx="40.8928" ry="18"/>
<text text-anchor="middle" x="1150.17" y="-694.686" font-family="Times New Roman,serif" font-size="14.00">(19) OR</text>
</g>
<!-- node7&#45;&gt;node19 -->
<g id="edge21" class="edge"><title>node7&#45;&gt;node19</title>
<path fill="none" stroke="black" d="M82.1634,-760.66C111.006,-764.771 151.322,-769.386 186.938,-769.386 186.938,-769.386 186.938,-769.386 1000.28,-769.386 1046.48,-769.386 1093.57,-741.195 1122.09,-720.34"/>
<polygon fill="black" stroke="black" points="1124.44,-722.954 1130.33,-714.143 1120.23,-717.361 1124.44,-722.954"/>
<text text-anchor="middle" x="631.705" y="-773.186" font-family="Times New Roman,serif" font-size="14.00"> (1)</text>
</g>
<!-- node8 -->
<g id="node9" class="node"><title>node8</title>
<ellipse fill="none" stroke="black" cx="42.2463" cy="-90.3859" rx="42.4939" ry="18"/>
<text text-anchor="middle" x="42.2463" y="-86.6859" font-family="Times New Roman,serif" font-size="14.00">(8) Input</text>
</g>
<!-- node8&#45;&gt;node10 -->
<g id="edge4" class="edge"><title>node8&#45;&gt;node10</title>
<path fill="none" stroke="black" d="M83.6549,-94.0418C98.4311,-95.3786 115.417,-96.9153 131.291,-98.3514"/>
<polygon fill="black" stroke="black" points="131.252,-101.862 141.526,-99.2775 131.882,-94.8906 131.252,-101.862"/>
<text text-anchor="middle" x="112.493" y="-100.186" font-family="Times New Roman,serif" font-size="14.00"> (1)</text>
</g>
<!-- node8&#45;&gt;node13 -->
<g id="edge10" class="edge"><title>node8&#45;&gt;node13</title>
<path fill="none" stroke="black" d="M77.6641,-80.5654C96.3582,-75.2314 119.743,-68.559 140.077,-62.7569"/>
<polygon fill="black" stroke="black" points="141.125,-66.0978 149.781,-59.9882 139.204,-59.3664 141.125,-66.0978"/>
<text text-anchor="middle" x="112.493" y="-75.1859" font-family="Times New Roman,serif" font-size="14.00"> (1)</text>
</g>
<!-- node16 -->
<g id="node17" class="node"><title>node16</title>
<ellipse fill="none" stroke="black" cx="848.389" cy="-271.386" rx="46.5926" ry="18"/>
<text text-anchor="middle" x="848.389" y="-267.686" font-family="Times New Roman,serif" font-size="14.00">(16) AND</text>
</g>
<!-- node9&#45;&gt;node16 -->
<g id="edge15" class="edge"><title>node9&#45;&gt;node16</title>
<path fill="none" stroke="black" d="M343.733,-262.154C440.902,-263.935 681.64,-268.348 791.328,-270.358"/>
<polygon fill="black" stroke="black" points="791.462,-273.861 801.525,-270.545 791.591,-266.862 791.462,-273.861"/>
<text text-anchor="middle" x="525.963" y="-269.186" font-family="Times New Roman,serif" font-size="14.00"> (1)</text>
</g>
<!-- node22 -->
<g id="node23" class="node"><title>node22</title>
<ellipse fill="none" stroke="black" cx="848.389" cy="-191.386" rx="47.3916" ry="18"/>
<text text-anchor="middle" x="848.389" y="-187.686" font-family="Times New Roman,serif" font-size="14.00">(22) XOR</text>
</g>
<!-- node9&#45;&gt;node22 -->
<g id="edge27" class="edge"><title>node9&#45;&gt;node22</title>
<path fill="none" stroke="black" d="M343.033,-257.614C378.972,-254.338 432.514,-249.487 479.167,-245.386 614.152,-233.52 651.571,-252.598 782.943,-219.386 792.063,-217.08 801.536,-213.623 810.322,-209.918"/>
<polygon fill="black" stroke="black" points="811.807,-213.088 819.536,-205.842 808.975,-206.686 811.807,-213.088"/>
<text text-anchor="middle" x="525.963" y="-249.186" font-family="Times New Roman,serif" font-size="14.00"> (1)</text>
</g>
<!-- node10&#45;&gt;node11 -->
<g id="edge5" class="edge"><title>node10&#45;&gt;node11</title>
<path fill="none" stroke="black" d="M226.647,-113.833C264.852,-124.418 324.058,-140.821 365.393,-152.273"/>
<polygon fill="black" stroke="black" points="364.66,-155.702 375.232,-154.999 366.529,-148.956 364.66,-155.702"/>
<text text-anchor="middle" x="300.83" y="-150.186" font-family="Times New Roman,serif" font-size="14.00"> (0)</text>
</g>
<!-- node10&#45;&gt;node18 -->
<g id="edge19" class="edge"><title>node10&#45;&gt;node18</title>
<path fill="none" stroke="black" d="M228.629,-94.0927C236.772,-92.5497 245.32,-91.1911 253.384,-90.3859 295.349,-86.1955 306.534,-84.361 348.276,-90.3859 354.946,-91.3488 361.889,-92.845 368.641,-94.5846"/>
<polygon fill="black" stroke="black" points="367.771,-97.9755 378.343,-97.2739 369.641,-91.2298 367.771,-97.9755"/>
<text text-anchor="middle" x="300.83" y="-94.1859" font-family="Times New Roman,serif" font-size="14.00"> (1)</text>
</g>
<!-- node15 -->
<g id="node16" class="node"><title>node15</title>
<ellipse fill="none" stroke="black" cx="631.705" cy="-165.386" rx="40.8928" ry="18"/>
<text text-anchor="middle" x="631.705" y="-161.686" font-family="Times New Roman,serif" font-size="14.00">(15) OR</text>
</g>
<!-- node11&#45;&gt;node15 -->
<g id="edge13" class="edge"><title>node11&#45;&gt;node15</title>
<path fill="none" stroke="black" d="M460.526,-165.386C495.577,-165.386 543.886,-165.386 580.081,-165.386"/>
<polygon fill="black" stroke="black" points="580.421,-168.886 590.421,-165.386 580.421,-161.886 580.421,-168.886"/>
<text text-anchor="middle" x="525.963" y="-169.186" font-family="Times New Roman,serif" font-size="14.00"> (1)</text>
</g>
<!-- node14 -->
<g id="node15" class="node"><title>node14</title>
<ellipse fill="none" stroke="black" cx="736.798" cy="-470.386" rx="46.2923" ry="18"/>
<text text-anchor="middle" x="736.798" y="-466.686" font-family="Times New Roman,serif" font-size="14.00">(14) NEG</text>
</g>
<!-- node12&#45;&gt;node14 -->
<g id="edge11" class="edge"><title>node12&#45;&gt;node14</title>
<path fill="none" stroke="black" d="M348.272,-450.74C428.956,-454.831 594.627,-463.229 680.877,-467.602"/>
<polygon fill="black" stroke="black" points="680.826,-471.104 690.99,-468.114 681.18,-464.113 680.826,-471.104"/>
<text text-anchor="middle" x="525.963" y="-465.186" font-family="Times New Roman,serif" font-size="14.00"> (0)</text>
</g>
<!-- node20 -->
<g id="node21" class="node"><title>node20</title>
<ellipse fill="none" stroke="black" cx="999.281" cy="-380.386" rx="47.3916" ry="18"/>
<text text-anchor="middle" x="999.281" y="-376.686" font-family="Times New Roman,serif" font-size="14.00">(20) XOR</text>
</g>
<!-- node12&#45;&gt;node20 -->
<g id="edge23" class="edge"><title>node12&#45;&gt;node20</title>
<path fill="none" stroke="black" d="M348.193,-445.907C448.418,-440.236 692.625,-424.736 895.835,-398.386 912.445,-396.232 930.467,-393.276 946.697,-390.382"/>
<polygon fill="black" stroke="black" points="947.328,-393.825 956.542,-388.596 946.078,-386.937 947.328,-393.825"/>
<text text-anchor="middle" x="631.705" y="-432.186" font-family="Times New Roman,serif" font-size="14.00"> (1)</text>
</g>
<!-- node13&#45;&gt;node15 -->
<g id="edge12" class="edge"><title>node13&#45;&gt;node15</title>
<path fill="none" stroke="black" d="M234.38,-46.1874C289.358,-43.7157 384.126,-43.9699 461.167,-67.3859 515.213,-83.8129 570.521,-120.198 602.686,-143.715"/>
<polygon fill="black" stroke="black" points="600.62,-146.541 610.737,-149.688 604.791,-140.919 600.62,-146.541"/>
<text text-anchor="middle" x="413.721" y="-71.1859" font-family="Times New Roman,serif" font-size="14.00"> (0)</text>
</g>
<!-- node23 -->
<g id="node24" class="node"><title>node23</title>
<ellipse fill="none" stroke="black" cx="1150.17" cy="-513.386" rx="40.8928" ry="18"/>
<text text-anchor="middle" x="1150.17" y="-509.686" font-family="Times New Roman,serif" font-size="14.00">(23) OR</text>
</g>
<!-- node14&#45;&gt;node23 -->
<g id="edge29" class="edge"><title>node14&#45;&gt;node23</title>
<path fill="none" stroke="black" d="M772.514,-481.973C814.44,-495.302 887.372,-516.38 951.835,-524.386 1010.45,-531.666 1025.87,-529.373 1084.73,-524.386 1090.52,-523.895 1096.58,-523.159 1102.56,-522.297"/>
<polygon fill="black" stroke="black" points="1103.16,-525.747 1112.5,-520.748 1102.08,-518.83 1103.16,-525.747"/>
<text text-anchor="middle" x="923.835" y="-525.186" font-family="Times New Roman,serif" font-size="14.00"> (1)</text>
</g>
<!-- node15&#45;&gt;node16 -->
<g id="edge14" class="edge"><title>node15&#45;&gt;node16</title>
<path fill="none" stroke="black" d="M659.895,-178.811C697.842,-197.547 766.838,-231.614 809.718,-252.786"/>
<polygon fill="black" stroke="black" points="808.197,-255.938 818.713,-257.227 811.296,-249.661 808.197,-255.938"/>
<text text-anchor="middle" x="736.798" y="-240.186" font-family="Times New Roman,serif" font-size="14.00"> (0)</text>
</g>
<!-- node15&#45;&gt;node22 -->
<g id="edge26" class="edge"><title>node15&#45;&gt;node22</title>
<path fill="none" stroke="black" d="M671.993,-161.793C702.527,-159.924 745.791,-159.304 782.943,-166.386 791.501,-168.017 800.388,-170.734 808.728,-173.789"/>
<polygon fill="black" stroke="black" points="807.628,-177.116 818.217,-177.486 810.17,-170.594 807.628,-177.116"/>
<text text-anchor="middle" x="736.798" y="-170.186" font-family="Times New Roman,serif" font-size="14.00"> (0)</text>
</g>
<!-- node16&#45;&gt;node20 -->
<g id="edge22" class="edge"><title>node16&#45;&gt;node20</title>
<path fill="none" stroke="black" d="M872.673,-287.151C880.118,-292.266 888.365,-298.009 895.835,-303.386 920.911,-321.437 948.927,-342.561 969.315,-358.114"/>
<polygon fill="black" stroke="black" points="967.209,-360.91 977.28,-364.202 971.46,-355.349 967.209,-360.91"/>
<text text-anchor="middle" x="923.835" y="-334.186" font-family="Times New Roman,serif" font-size="14.00"> (0)</text>
</g>
<!-- node16&#45;&gt;node21 -->
<g id="edge25" class="edge"><title>node16&#45;&gt;node21</title>
<path fill="none" stroke="black" d="M876.228,-285.917C883.321,-290.742 890.482,-296.633 895.835,-303.386 909.472,-320.591 904.37,-329.577 913.835,-349.386 934.781,-393.222 963.605,-441.722 981.58,-470.863"/>
<polygon fill="black" stroke="black" points="978.763,-472.963 987.011,-479.614 984.711,-469.271 978.763,-472.963"/>
<text text-anchor="middle" x="923.835" y="-390.186" font-family="Times New Roman,serif" font-size="14.00"> (1)</text>
</g>
<!-- node17&#45;&gt;node19 -->
<g id="edge20" class="edge"><title>node17&#45;&gt;node19</title>
<path fill="none" stroke="black" d="M1046.98,-698.386C1063.51,-698.386 1082.16,-698.386 1098.97,-698.386"/>
<polygon fill="black" stroke="black" points="1099.16,-701.886 1109.16,-698.386 1099.16,-694.886 1099.16,-701.886"/>
<text text-anchor="middle" x="1074.73" y="-702.186" font-family="Times New Roman,serif" font-size="14.00"> (0)</text>
</g>
<!-- node26 -->
<g id="node27" class="node"><title>node26</title>
<ellipse fill="none" stroke="black" cx="1524.25" cy="-552.386" rx="47.3916" ry="18"/>
<text text-anchor="middle" x="1524.25" y="-548.686" font-family="Times New Roman,serif" font-size="14.00">(26) XOR</text>
</g>
<!-- node17&#45;&gt;node26 -->
<g id="edge35" class="edge"><title>node17&#45;&gt;node26</title>
<path fill="none" stroke="black" d="M1037.52,-687.569C1056.86,-682.209 1080.94,-675.928 1102.73,-671.386 1210.93,-648.826 1242.71,-665.388 1348.51,-633.386 1398.97,-618.122 1453.56,-590.932 1488.05,-572.299"/>
<polygon fill="black" stroke="black" points="1490.13,-575.153 1497.23,-567.287 1486.77,-569.009 1490.13,-575.153"/>
<text text-anchor="middle" x="1225.62" y="-660.186" font-family="Times New Roman,serif" font-size="14.00"> (1)</text>
</g>
<!-- node28 -->
<g id="node29" class="node"><title>node28</title>
<ellipse fill="none" stroke="black" cx="1524.25" cy="-736.386" rx="46.5926" ry="18"/>
<text text-anchor="middle" x="1524.25" y="-732.686" font-family="Times New Roman,serif" font-size="14.00">(28) AND</text>
</g>
<!-- node17&#45;&gt;node28 -->
<g id="edge39" class="edge"><title>node17&#45;&gt;node28</title>
<path fill="none" stroke="black" d="M1035.37,-710.255C1054.93,-716.206 1079.89,-722.706 1102.73,-725.386 1232.36,-740.6 1385.96,-739.932 1466.87,-738.143"/>
<polygon fill="black" stroke="black" points="1467.4,-741.631 1477.32,-737.896 1467.24,-734.633 1467.4,-741.631"/>
<text text-anchor="middle" x="1225.62" y="-739.186" font-family="Times New Roman,serif" font-size="14.00"> (1)</text>
</g>
<!-- node35 -->
<g id="node36" class="node"><title>node35</title>
<ellipse fill="none" stroke="black" cx="1940.37" cy="-109.386" rx="42.7926" ry="18"/>
<text text-anchor="middle" x="1940.37" y="-105.686" font-family="Times New Roman,serif" font-size="14.00">Output 0</text>
</g>
<!-- node18&#45;&gt;node35 -->
<g id="edge51" class="edge"><title>node18&#45;&gt;node35</title>
<path fill="none" stroke="black" d="M461.488,-109.386C505.235,-109.386 572.397,-109.386 630.705,-109.386 630.705,-109.386 630.705,-109.386 1820.53,-109.386 1842.33,-109.386 1866.38,-109.386 1887.1,-109.386"/>
<polygon fill="black" stroke="black" points="1887.3,-112.886 1897.3,-109.386 1887.3,-105.886 1887.3,-112.886"/>
</g>
<!-- node29 -->
<g id="node30" class="node"><title>node29</title>
<ellipse fill="none" stroke="black" cx="1675.14" cy="-736.386" rx="47.3916" ry="18"/>
<text text-anchor="middle" x="1675.14" y="-732.686" font-family="Times New Roman,serif" font-size="14.00">(29) XOR</text>
</g>
<!-- node19&#45;&gt;node29 -->
<g id="edge40" class="edge"><title>node19&#45;&gt;node29</title>
<path fill="none" stroke="black" d="M1183.21,-709.049C1253.34,-731.128 1425.84,-778.572 1571.69,-763.386 1590.96,-761.38 1611.72,-756.454 1629.47,-751.35"/>
<polygon fill="black" stroke="black" points="1630.97,-754.558 1639.55,-748.346 1628.96,-747.85 1630.97,-754.558"/>
<text text-anchor="middle" x="1412.66" y="-767.186" font-family="Times New Roman,serif" font-size="14.00"> (0)</text>
</g>
<!-- node31 -->
<g id="node32" class="node"><title>node31</title>
<ellipse fill="none" stroke="black" cx="1301.06" cy="-606.386" rx="46.5926" ry="18"/>
<text text-anchor="middle" x="1301.06" y="-602.686" font-family="Times New Roman,serif" font-size="14.00">(31) AND</text>
</g>
<!-- node19&#45;&gt;node31 -->
<g id="edge44" class="edge"><title>node19&#45;&gt;node31</title>
<path fill="none" stroke="black" d="M1159.47,-680.643C1169.69,-661.018 1189,-630.216 1215.62,-615.386 1224.31,-610.542 1234.29,-607.626 1244.28,-605.959"/>
<polygon fill="black" stroke="black" points="1244.74,-609.429 1254.21,-604.684 1243.85,-602.486 1244.74,-609.429"/>
<text text-anchor="middle" x="1225.62" y="-619.186" font-family="Times New Roman,serif" font-size="14.00"> (1)</text>
</g>
<!-- node27 -->
<g id="node28" class="node"><title>node27</title>
<ellipse fill="none" stroke="black" cx="1150.17" cy="-455.386" rx="46.5926" ry="18"/>
<text text-anchor="middle" x="1150.17" y="-451.686" font-family="Times New Roman,serif" font-size="14.00">(27) AND</text>
</g>
<!-- node20&#45;&gt;node27 -->
<g id="edge36" class="edge"><title>node20&#45;&gt;node27</title>
<path fill="none" stroke="black" d="M1028.86,-394.495C1045.23,-402.607 1066.16,-413.017 1084.73,-422.386 1093.64,-426.884 1103.22,-431.766 1112.2,-436.363"/>
<polygon fill="black" stroke="black" points="1110.8,-439.574 1121.29,-441.02 1113.99,-433.345 1110.8,-439.574"/>
<text text-anchor="middle" x="1074.73" y="-426.186" font-family="Times New Roman,serif" font-size="14.00"> (0)</text>
</g>
<!-- node33 -->
<g id="node34" class="node"><title>node33</title>
<ellipse fill="none" stroke="black" cx="1150.17" cy="-345.386" rx="47.3916" ry="18"/>
<text text-anchor="middle" x="1150.17" y="-341.686" font-family="Times New Roman,serif" font-size="14.00">(33) XOR</text>
</g>
<!-- node20&#45;&gt;node33 -->
<g id="edge47" class="edge"><title>node20&#45;&gt;node33</title>
<path fill="none" stroke="black" d="M1040.18,-371.007C1058.45,-366.713 1080.28,-361.582 1099.58,-357.042"/>
<polygon fill="black" stroke="black" points="1100.49,-360.426 1109.42,-354.73 1098.88,-353.612 1100.49,-360.426"/>
<text text-anchor="middle" x="1074.73" y="-368.186" font-family="Times New Roman,serif" font-size="14.00"> (0)</text>
</g>
<!-- node21&#45;&gt;node23 -->
<g id="edge28" class="edge"><title>node21&#45;&gt;node23</title>
<path fill="none" stroke="black" d="M1045.36,-502.23C1062.67,-504.091 1082.51,-506.222 1100.18,-508.121"/>
<polygon fill="black" stroke="black" points="1099.97,-511.619 1110.29,-509.208 1100.72,-504.659 1099.97,-511.619"/>
<text text-anchor="middle" x="1074.73" y="-509.186" font-family="Times New Roman,serif" font-size="14.00"> (0)</text>
</g>
<!-- node36 -->
<g id="node37" class="node"><title>node36</title>
<ellipse fill="none" stroke="black" cx="1940.37" cy="-191.386" rx="42.7926" ry="18"/>
<text text-anchor="middle" x="1940.37" y="-187.686" font-family="Times New Roman,serif" font-size="14.00">Output 1</text>
</g>
<!-- node22&#45;&gt;node36 -->
<g id="edge52" class="edge"><title>node22&#45;&gt;node36</title>
<path fill="none" stroke="black" d="M895.998,-191.386C925.349,-191.386 964.031,-191.386 998.281,-191.386 998.281,-191.386 998.281,-191.386 1820.53,-191.386 1842.33,-191.386 1866.38,-191.386 1887.1,-191.386"/>
<polygon fill="black" stroke="black" points="1887.3,-194.886 1897.3,-191.386 1887.3,-187.886 1887.3,-194.886"/>
</g>
<!-- node23&#45;&gt;node24 -->
<g id="edge30" class="edge"><title>node23&#45;&gt;node24</title>
<path fill="none" stroke="black" d="M1190.45,-509.67C1204.88,-509.388 1221.21,-510.364 1235.62,-514.386 1247.93,-517.825 1260.31,-524.237 1270.87,-530.829"/>
<polygon fill="black" stroke="black" points="1269,-533.786 1279.28,-536.346 1272.84,-527.934 1269,-533.786"/>
<text text-anchor="middle" x="1225.62" y="-518.186" font-family="Times New Roman,serif" font-size="14.00"> (0)</text>
</g>
<!-- node24&#45;&gt;node26 -->
<g id="edge34" class="edge"><title>node24&#45;&gt;node26</title>
<path fill="none" stroke="black" d="M1348.7,-552.386C1383.11,-552.386 1430.1,-552.386 1466.66,-552.386"/>
<polygon fill="black" stroke="black" points="1466.67,-555.886 1476.67,-552.386 1466.67,-548.886 1466.67,-555.886"/>
<text text-anchor="middle" x="1412.66" y="-556.186" font-family="Times New Roman,serif" font-size="14.00"> (0)</text>
</g>
<!-- node24&#45;&gt;node28 -->
<g id="edge38" class="edge"><title>node24&#45;&gt;node28</title>
<path fill="none" stroke="black" d="M1329.18,-566.897C1335.68,-570.711 1342.48,-574.994 1348.51,-579.386 1406.51,-621.607 1467.3,-679.929 1499.66,-712.293"/>
<polygon fill="black" stroke="black" points="1497.35,-714.931 1506.88,-719.555 1502.32,-709.995 1497.35,-714.931"/>
<text text-anchor="middle" x="1412.66" y="-672.186" font-family="Times New Roman,serif" font-size="14.00"> (0)</text>
</g>
<!-- node25&#45;&gt;node27 -->
<g id="edge37" class="edge"><title>node25&#45;&gt;node27</title>
<path fill="none" stroke="black" d="M569.73,-363.191C680.312,-380.785 975.48,-427.75 1096.4,-446.989"/>
<polygon fill="black" stroke="black" points="1096.09,-450.484 1106.52,-448.599 1097.19,-443.571 1096.09,-450.484"/>
<text text-anchor="middle" x="848.389" y="-418.186" font-family="Times New Roman,serif" font-size="14.00"> (1)</text>
</g>
<!-- node25&#45;&gt;node33 -->
<g id="edge48" class="edge"><title>node25&#45;&gt;node33</title>
<path fill="none" stroke="black" d="M566.351,-347.001C608.145,-337.877 676.236,-325.386 735.798,-325.386 735.798,-325.386 735.798,-325.386 1000.28,-325.386 1033.03,-325.386 1069.48,-330.199 1098.12,-335.102"/>
<polygon fill="black" stroke="black" points="1097.84,-338.607 1108.29,-336.904 1099.06,-331.714 1097.84,-338.607"/>
<text text-anchor="middle" x="848.389" y="-329.186" font-family="Times New Roman,serif" font-size="14.00"> (1)</text>
</g>
<!-- node32 -->
<g id="node33" class="node"><title>node32</title>
<ellipse fill="none" stroke="black" cx="1675.14" cy="-507.386" rx="47.3916" ry="18"/>
<text text-anchor="middle" x="1675.14" y="-503.686" font-family="Times New Roman,serif" font-size="14.00">(32) XOR</text>
</g>
<!-- node26&#45;&gt;node32 -->
<g id="edge46" class="edge"><title>node26&#45;&gt;node32</title>
<path fill="none" stroke="black" d="M1562.05,-541.262C1581.9,-535.263 1606.6,-527.8 1627.75,-521.406"/>
<polygon fill="black" stroke="black" points="1628.94,-524.703 1637.5,-518.459 1626.91,-518.002 1628.94,-524.703"/>
<text text-anchor="middle" x="1599.69" y="-536.186" font-family="Times New Roman,serif" font-size="14.00"> (1)</text>
</g>
<!-- node30 -->
<g id="node31" class="node"><title>node30</title>
<ellipse fill="none" stroke="black" cx="1412.66" cy="-484.386" rx="46.2923" ry="18"/>
<text text-anchor="middle" x="1412.66" y="-480.686" font-family="Times New Roman,serif" font-size="14.00">(30) NEG</text>
</g>
<!-- node27&#45;&gt;node30 -->
<g id="edge42" class="edge"><title>node27&#45;&gt;node30</title>
<path fill="none" stroke="black" d="M1195.36,-460.305C1240.26,-465.304 1309.84,-473.051 1357.91,-478.402"/>
<polygon fill="black" stroke="black" points="1357.79,-481.911 1368.12,-479.539 1358.57,-474.954 1357.79,-481.911"/>
<text text-anchor="middle" x="1225.62" y="-468.186" font-family="Times New Roman,serif" font-size="14.00"> (0)</text>
</g>
<!-- node27&#45;&gt;node31 -->
<g id="edge43" class="edge"><title>node27&#45;&gt;node31</title>
<path fill="none" stroke="black" d="M1178.88,-470.053C1185.66,-474.604 1192.44,-480.102 1197.62,-486.386 1210.8,-502.373 1205.27,-511.439 1215.62,-529.386 1229.56,-553.564 1232.7,-560.903 1253.62,-579.386 1256.44,-581.88 1259.53,-584.258 1262.73,-586.496"/>
<polygon fill="black" stroke="black" points="1261.05,-589.58 1271.35,-592.074 1264.85,-583.703 1261.05,-589.58"/>
<text text-anchor="middle" x="1225.62" y="-565.186" font-family="Times New Roman,serif" font-size="14.00"> (0)</text>
</g>
<!-- node28&#45;&gt;node29 -->
<g id="edge41" class="edge"><title>node28&#45;&gt;node29</title>
<path fill="none" stroke="black" d="M1571.13,-736.386C1585.71,-736.386 1602.02,-736.386 1617.27,-736.386"/>
<polygon fill="black" stroke="black" points="1617.63,-739.886 1627.63,-736.386 1617.63,-732.886 1617.63,-739.886"/>
<text text-anchor="middle" x="1599.69" y="-740.186" font-family="Times New Roman,serif" font-size="14.00"> (1)</text>
</g>
<!-- node34 -->
<g id="node35" class="node"><title>node34</title>
<ellipse fill="none" stroke="black" cx="1819.53" cy="-706.386" rx="40.8928" ry="18"/>
<text text-anchor="middle" x="1819.53" y="-702.686" font-family="Times New Roman,serif" font-size="14.00">(34) OR</text>
</g>
<!-- node29&#45;&gt;node34 -->
<g id="edge50" class="edge"><title>node29&#45;&gt;node34</title>
<path fill="none" stroke="black" d="M1716.94,-727.789C1734.12,-724.171 1754.2,-719.94 1771.95,-716.2"/>
<polygon fill="black" stroke="black" points="1773.03,-719.55 1782.09,-714.063 1771.58,-712.7 1773.03,-719.55"/>
<text text-anchor="middle" x="1750.58" y="-725.186" font-family="Times New Roman,serif" font-size="14.00"> (1)</text>
</g>
<!-- node30&#45;&gt;node32 -->
<g id="edge45" class="edge"><title>node30&#45;&gt;node32</title>
<path fill="none" stroke="black" d="M1457.84,-488.288C1502.2,-492.204 1570.65,-498.249 1618.64,-502.486"/>
<polygon fill="black" stroke="black" points="1618.59,-505.995 1628.86,-503.388 1619.21,-499.022 1618.59,-505.995"/>
<text text-anchor="middle" x="1524.25" y="-501.186" font-family="Times New Roman,serif" font-size="14.00"> (0)</text>
</g>
<!-- node31&#45;&gt;node34 -->
<g id="edge49" class="edge"><title>node31&#45;&gt;node34</title>
<path fill="none" stroke="black" d="M1312.61,-624.035C1323.7,-640.789 1342.82,-665.045 1366.51,-676.386 1436.29,-709.793 1665.8,-709.571 1768.3,-707.678"/>
<polygon fill="black" stroke="black" points="1768.47,-711.175 1778.4,-707.478 1768.34,-704.176 1768.47,-711.175"/>
<text text-anchor="middle" x="1599.69" y="-710.186" font-family="Times New Roman,serif" font-size="14.00"> (0)</text>
</g>
<!-- node38 -->
<g id="node39" class="node"><title>node38</title>
<ellipse fill="none" stroke="black" cx="1940.37" cy="-507.386" rx="42.7926" ry="18"/>
<text text-anchor="middle" x="1940.37" y="-503.686" font-family="Times New Roman,serif" font-size="14.00">Output 3</text>
</g>
<!-- node32&#45;&gt;node38 -->
<g id="edge54" class="edge"><title>node32&#45;&gt;node38</title>
<path fill="none" stroke="black" d="M1722.59,-507.386C1768.66,-507.386 1839.11,-507.386 1887.11,-507.386"/>
<polygon fill="black" stroke="black" points="1887.29,-510.886 1897.29,-507.386 1887.29,-503.886 1887.29,-510.886"/>
</g>
<!-- node37 -->
<g id="node38" class="node"><title>node37</title>
<ellipse fill="none" stroke="black" cx="1940.37" cy="-345.386" rx="42.7926" ry="18"/>
<text text-anchor="middle" x="1940.37" y="-341.686" font-family="Times New Roman,serif" font-size="14.00">Output 2</text>
</g>
<!-- node33&#45;&gt;node37 -->
<g id="edge53" class="edge"><title>node33&#45;&gt;node37</title>
<path fill="none" stroke="black" d="M1197.78,-345.386C1227.13,-345.386 1265.81,-345.386 1300.06,-345.386 1300.06,-345.386 1300.06,-345.386 1820.53,-345.386 1842.33,-345.386 1866.38,-345.386 1887.1,-345.386"/>
<polygon fill="black" stroke="black" points="1887.3,-348.886 1897.3,-345.386 1887.3,-341.886 1887.3,-348.886"/>
</g>
<!-- node39 -->
<g id="node40" class="node"><title>node39</title>
<ellipse fill="none" stroke="black" cx="1940.37" cy="-706.386" rx="42.7926" ry="18"/>
<text text-anchor="middle" x="1940.37" y="-702.686" font-family="Times New Roman,serif" font-size="14.00">Output 4</text>
</g>
<!-- node34&#45;&gt;node39 -->
<g id="edge55" class="edge"><title>node34&#45;&gt;node39</title>
<path fill="none" stroke="black" d="M1860.77,-706.386C1869.19,-706.386 1878.18,-706.386 1886.97,-706.386"/>
<polygon fill="black" stroke="black" points="1887.15,-709.886 1897.15,-706.386 1887.15,-702.886 1887.15,-709.886"/>
</g>
</g>
</svg>
