<?xml version="1.0" encoding="UTF-8" standalone="no"?>
<!DOCTYPE svg PUBLIC "-//W3C//DTD SVG 1.1//EN"
 "http://www.w3.org/Graphics/SVG/1.1/DTD/svg11.dtd">
<!-- Generated by graphviz version 2.38.0 (20140413.2041)
 -->
<!-- Title: NeuralNetwork Pages: 1 -->
<svg width="288pt" height="63pt"
 viewBox="0.00 0.00 288.00 63.30" xmlns="http://www.w3.org/2000/svg" xmlns:xlink="http://www.w3.org/1999/xlink">
<g id="graph0" class="graph" transform="scale(0.173421 0.173421) rotate(0) translate(4 361)">
<title>NeuralNetwork</title>
<polygon fill="white" stroke="none" points="-4,4 -4,-361 1656.7,-361 1656.7,4 -4,4"/>
<!-- node0 -->
<g id="node1" class="node"><title>node0</title>
<ellipse fill="none" stroke="black" cx="42.2463" cy="-131" rx="42.4939" ry="18"/>
<text text-anchor="middle" x="42.2463" y="-127.3" font-family="Times New Roman,serif" font-size="14.00">(0) Input</text>
</g>
<!-- node5 -->
<g id="node6" class="node"><title>node5</title>
<ellipse fill="none" stroke="black" cx="183.389" cy="-141" rx="36.2938" ry="18"/>
<text text-anchor="middle" x="183.389" y="-137.3" font-family="Times New Roman,serif" font-size="14.00">(5) OR</text>
</g>
<!-- node0&#45;&gt;node5 -->
<g id="edge2" class="edge"><title>node0&#45;&gt;node5</title>
<path fill="none" stroke="black" d="M78.4275,-121.479C92.2,-118.963 108.115,-117.553 122.493,-120 130.197,-121.311 138.229,-123.508 145.817,-125.999"/>
<polygon fill="black" stroke="black" points="144.876,-129.378 155.47,-129.392 147.197,-122.774 144.876,-129.378"/>
<text text-anchor="middle" x="112.493" y="-123.8" font-family="Times New Roman,serif" font-size="14.00"> (1)</text>
</g>
<!-- node9 -->
<g id="node10" class="node"><title>node9</title>
<ellipse fill="none" stroke="black" cx="539.265" cy="-220" rx="42.7926" ry="18"/>
<text text-anchor="middle" x="539.265" y="-216.3" font-family="Times New Roman,serif" font-size="14.00">(9) XOR</text>
</g>
<!-- node0&#45;&gt;node9 -->
<g id="edge8" class="edge"><title>node0&#45;&gt;node9</title>
<path fill="none" stroke="black" d="M61.0144,-147.345C72.0973,-156.531 87.1354,-167.272 102.493,-173 243.86,-225.731 290.567,-187.982 440.369,-206 456.17,-207.9 473.363,-210.26 488.869,-212.497"/>
<polygon fill="black" stroke="black" points="488.383,-215.963 498.783,-213.944 489.393,-209.037 488.383,-215.963"/>
<text text-anchor="middle" x="290.431" y="-205.8" font-family="Times New Roman,serif" font-size="14.00"> (0)</text>
</g>
<!-- node1 -->
<g id="node2" class="node"><title>node1</title>
<ellipse fill="none" stroke="black" cx="42.2463" cy="-65" rx="42.4939" ry="18"/>
<text text-anchor="middle" x="42.2463" y="-61.3" font-family="Times New Roman,serif" font-size="14.00">(1) Input</text>
</g>
<!-- node7 -->
<g id="node8" class="node"><title>node7</title>
<ellipse fill="none" stroke="black" cx="183.389" cy="-87" rx="42.7926" ry="18"/>
<text text-anchor="middle" x="183.389" y="-83.3" font-family="Times New Roman,serif" font-size="14.00">(7) XOR</text>
</g>
<!-- node1&#45;&gt;node7 -->
<g id="edge4" class="edge"><title>node1&#45;&gt;node7</title>
<path fill="none" stroke="black" d="M82.0052,-71.1282C97.7208,-73.613 116.065,-76.5135 132.741,-79.1502"/>
<polygon fill="black" stroke="black" points="132.447,-82.647 142.871,-80.7518 133.54,-75.7329 132.447,-82.647"/>
<text text-anchor="middle" x="112.493" y="-80.8" font-family="Times New Roman,serif" font-size="14.00"> (0)</text>
</g>
<!-- node14 -->
<g id="node15" class="node"><title>node14</title>
<ellipse fill="none" stroke="black" cx="290.431" cy="-42" rx="46.2923" ry="18"/>
<text text-anchor="middle" x="290.431" y="-38.3" font-family="Times New Roman,serif" font-size="14.00">(14) NEG</text>
</g>
<!-- node1&#45;&gt;node14 -->
<g id="edge17" class="edge"><title>node1&#45;&gt;node14</title>
<path fill="none" stroke="black" d="M81.4117,-57.9943C88.4066,-56.871 95.656,-55.8127 102.493,-55 146.639,-49.7521 196.921,-46.4026 234.209,-44.4201"/>
<polygon fill="black" stroke="black" points="234.559,-47.9068 244.366,-43.8968 234.199,-40.9161 234.559,-47.9068"/>
<text text-anchor="middle" x="112.493" y="-58.8" font-family="Times New Roman,serif" font-size="14.00"> (0)</text>
</g>
<!-- node2 -->
<g id="node3" class="node"><title>node2</title>
<ellipse fill="none" stroke="black" cx="42.2463" cy="-198" rx="42.4939" ry="18"/>
<text text-anchor="middle" x="42.2463" y="-194.3" font-family="Times New Roman,serif" font-size="14.00">(2) Input</text>
</g>
<!-- node2&#45;&gt;node5 -->
<g id="edge1" class="edge"><title>node2&#45;&gt;node5</title>
<path fill="none" stroke="black" d="M73.4381,-185.632C94.4647,-177.018 122.647,-165.473 145.08,-156.283"/>
<polygon fill="black" stroke="black" points="146.693,-159.405 154.62,-152.375 144.04,-152.927 146.693,-159.405"/>
<text text-anchor="middle" x="112.493" y="-175.8" font-family="Times New Roman,serif" font-size="14.00"> (0)</text>
</g>
<!-- node6 -->
<g id="node7" class="node"><title>node6</title>
<ellipse fill="none" stroke="black" cx="183.389" cy="-238" rx="42.4939" ry="18"/>
<text text-anchor="middle" x="183.389" y="-234.3" font-family="Times New Roman,serif" font-size="14.00">(6) NEG</text>
</g>
<!-- node2&#45;&gt;node6 -->
<g id="edge3" class="edge"><title>node2&#45;&gt;node6</title>
<path fill="none" stroke="black" d="M62.1761,-213.952C73.1904,-222.208 87.7728,-231.484 102.493,-236 111.648,-238.809 121.675,-240.248 131.438,-240.853"/>
<polygon fill="black" stroke="black" points="131.352,-244.352 141.468,-241.203 131.596,-237.356 131.352,-244.352"/>
<text text-anchor="middle" x="112.493" y="-242.8" font-family="Times New Roman,serif" font-size="14.00"> (0)</text>
</g>
<!-- node3 -->
<g id="node4" class="node"><title>node3</title>
<ellipse fill="none" stroke="black" cx="42.2463" cy="-274" rx="42.4939" ry="18"/>
<text text-anchor="middle" x="42.2463" y="-270.3" font-family="Times New Roman,serif" font-size="14.00">(3) Input</text>
</g>
<!-- node3&#45;&gt;node7 -->
<g id="edge5" class="edge"><title>node3&#45;&gt;node7</title>
<path fill="none" stroke="black" d="M60.9732,-257.58C81.7513,-237.982 114.386,-205.982 122.493,-191 139.217,-160.09 120.244,-142.726 140.493,-114 142.222,-111.547 144.252,-109.262 146.469,-107.147"/>
<polygon fill="black" stroke="black" points="148.99,-109.609 154.565,-100.6 144.588,-104.166 148.99,-109.609"/>
<text text-anchor="middle" x="112.493" y="-217.8" font-family="Times New Roman,serif" font-size="14.00"> (1)</text>
</g>
<!-- node16 -->
<g id="node17" class="node"><title>node16</title>
<ellipse fill="none" stroke="black" cx="1045.38" cy="-158" rx="46.5926" ry="18"/>
<text text-anchor="middle" x="1045.38" y="-154.3" font-family="Times New Roman,serif" font-size="14.00">(16) AND</text>
</g>
<!-- node3&#45;&gt;node16 -->
<g id="edge21" class="edge"><title>node3&#45;&gt;node16</title>
<path fill="none" stroke="black" d="M81.8853,-280.424C171.655,-295.133 392.355,-330 467.369,-330 467.369,-330 467.369,-330 785.2,-330 890.109,-330 985.047,-230.957 1024.74,-183.186"/>
<polygon fill="black" stroke="black" points="1027.45,-185.399 1031.06,-175.439 1022.03,-180.972 1027.45,-185.399"/>
<text text-anchor="middle" x="539.265" y="-333.8" font-family="Times New Roman,serif" font-size="14.00"> (1)</text>
</g>
<!-- node4 -->
<g id="node5" class="node"><title>node4</title>
<ellipse fill="none" stroke="black" cx="42.2463" cy="-339" rx="42.4939" ry="18"/>
<text text-anchor="middle" x="42.2463" y="-335.3" font-family="Times New Roman,serif" font-size="14.00">(4) Input</text>
</g>
<!-- node8 -->
<g id="node9" class="node"><title>node8</title>
<ellipse fill="none" stroke="black" cx="397.473" cy="-233" rx="42.7926" ry="18"/>
<text text-anchor="middle" x="397.473" y="-229.3" font-family="Times New Roman,serif" font-size="14.00">(8) XOR</text>
</g>
<!-- node4&#45;&gt;node8 -->
<g id="edge7" class="edge"><title>node4&#45;&gt;node8</title>
<path fill="none" stroke="black" d="M83.8289,-342.59C96.3195,-342.873 110.053,-342.343 122.493,-340 212.252,-323.094 310.334,-277.577 361.289,-251.683"/>
<polygon fill="black" stroke="black" points="362.944,-254.768 370.243,-247.088 359.748,-248.54 362.944,-254.768"/>
<text text-anchor="middle" x="183.389" y="-338.8" font-family="Times New Roman,serif" font-size="14.00"> (1)</text>
</g>
<!-- node10 -->
<g id="node11" class="node"><title>node10</title>
<ellipse fill="none" stroke="black" cx="679.108" cy="-208" rx="40.8928" ry="18"/>
<text text-anchor="middle" x="679.108" y="-204.3" font-family="Times New Roman,serif" font-size="14.00">(10) OR</text>
</g>
<!-- node4&#45;&gt;node10 -->
<g id="edge10" class="edge"><title>node4&#45;&gt;node10</title>
<path fill="none" stroke="black" d="M84.2343,-335.872C199.291,-326.646 523.17,-297.505 620.161,-255 632.893,-249.421 645.133,-240.26 655.056,-231.501"/>
<polygon fill="black" stroke="black" points="657.514,-233.996 662.483,-224.639 652.763,-228.855 657.514,-233.996"/>
<text text-anchor="middle" x="397.473" y="-311.8" font-family="Times New Roman,serif" font-size="14.00"> (0)</text>
</g>
<!-- node11 -->
<g id="node12" class="node"><title>node11</title>
<ellipse fill="none" stroke="black" cx="895.142" cy="-152" rx="46.5926" ry="18"/>
<text text-anchor="middle" x="895.142" y="-148.3" font-family="Times New Roman,serif" font-size="14.00">(11) AND</text>
</g>
<!-- node5&#45;&gt;node11 -->
<g id="edge12" class="edge"><title>node5&#45;&gt;node11</title>
<path fill="none" stroke="black" d="M220.034,-142.082C262.172,-143.267 334.42,-145 396.473,-145 396.473,-145 396.473,-145 680.108,-145 733.974,-145 795.425,-147.242 838.621,-149.189"/>
<polygon fill="black" stroke="black" points="838.495,-152.686 848.645,-149.65 838.817,-145.694 838.495,-152.686"/>
<text text-anchor="middle" x="539.265" y="-148.8" font-family="Times New Roman,serif" font-size="14.00"> (0)</text>
</g>
<!-- node6&#45;&gt;node8 -->
<g id="edge6" class="edge"><title>node6&#45;&gt;node8</title>
<path fill="none" stroke="black" d="M225.784,-237.024C259.577,-236.227 307.534,-235.097 344.014,-234.237"/>
<polygon fill="black" stroke="black" points="344.542,-237.725 354.457,-233.991 344.377,-230.727 344.542,-237.725"/>
<text text-anchor="middle" x="290.431" y="-239.8" font-family="Times New Roman,serif" font-size="14.00"> (0)</text>
</g>
<!-- node12 -->
<g id="node13" class="node"><title>node12</title>
<ellipse fill="none" stroke="black" cx="1045.38" cy="-89" rx="47.3916" ry="18"/>
<text text-anchor="middle" x="1045.38" y="-85.3" font-family="Times New Roman,serif" font-size="14.00">(12) XOR</text>
</g>
<!-- node7&#45;&gt;node12 -->
<g id="edge14" class="edge"><title>node7&#45;&gt;node12</title>
<path fill="none" stroke="black" d="M226.64,-87C269.443,-87 337.561,-87 396.473,-87 396.473,-87 396.473,-87 896.142,-87 926.382,-87 960.09,-87.4213 987.712,-87.8771"/>
<polygon fill="black" stroke="black" points="987.922,-91.3811 997.981,-88.0527 988.042,-84.3822 987.922,-91.3811"/>
<text text-anchor="middle" x="610.161" y="-90.8" font-family="Times New Roman,serif" font-size="14.00"> (0)</text>
</g>
<!-- node8&#45;&gt;node9 -->
<g id="edge9" class="edge"><title>node8&#45;&gt;node9</title>
<path fill="none" stroke="black" d="M439.659,-229.17C454.458,-227.794 471.335,-226.224 486.893,-224.777"/>
<polygon fill="black" stroke="black" points="487.257,-228.259 496.89,-223.848 486.609,-221.289 487.257,-228.259"/>
<text text-anchor="middle" x="468.369" y="-230.8" font-family="Times New Roman,serif" font-size="14.00"> (1)</text>
</g>
<!-- node9&#45;&gt;node10 -->
<g id="edge11" class="edge"><title>node9&#45;&gt;node10</title>
<path fill="none" stroke="black" d="M581.623,-216.4C596.313,-215.121 613.004,-213.668 628.325,-212.334"/>
<polygon fill="black" stroke="black" points="629.012,-215.787 638.671,-211.433 628.405,-208.814 629.012,-215.787"/>
<text text-anchor="middle" x="610.161" y="-217.8" font-family="Times New Roman,serif" font-size="14.00"> (1)</text>
</g>
<!-- node13 -->
<g id="node14" class="node"><title>node13</title>
<ellipse fill="none" stroke="black" cx="784.2" cy="-273" rx="46.2923" ry="18"/>
<text text-anchor="middle" x="784.2" y="-269.3" font-family="Times New Roman,serif" font-size="14.00">(13) NEG</text>
</g>
<!-- node9&#45;&gt;node13 -->
<g id="edge16" class="edge"><title>node9&#45;&gt;node13</title>
<path fill="none" stroke="black" d="M577.691,-228.165C619.479,-237.282 687.294,-252.077 733.503,-262.158"/>
<polygon fill="black" stroke="black" points="732.79,-265.585 743.307,-264.297 734.282,-258.745 732.79,-265.585"/>
<text text-anchor="middle" x="610.161" y="-239.8" font-family="Times New Roman,serif" font-size="14.00"> (0)</text>
</g>
<!-- node10&#45;&gt;node11 -->
<g id="edge13" class="edge"><title>node10&#45;&gt;node11</title>
<path fill="none" stroke="black" d="M714.972,-198.878C750.681,-189.535 806.451,-174.943 846.281,-164.522"/>
<polygon fill="black" stroke="black" points="847.253,-167.886 856.042,-161.969 845.481,-161.114 847.253,-167.886"/>
<text text-anchor="middle" x="784.2" y="-194.8" font-family="Times New Roman,serif" font-size="14.00"> (1)</text>
</g>
<!-- node11&#45;&gt;node12 -->
<g id="edge15" class="edge"><title>node11&#45;&gt;node12</title>
<path fill="none" stroke="black" d="M927.218,-138.793C949.479,-129.333 979.666,-116.504 1003.82,-106.237"/>
<polygon fill="black" stroke="black" points="1005.26,-109.43 1013.09,-102.298 1002.52,-102.988 1005.26,-109.43"/>
<text text-anchor="middle" x="969.938" y="-127.8" font-family="Times New Roman,serif" font-size="14.00"> (1)</text>
</g>
<!-- node11&#45;&gt;node16 -->
<g id="edge20" class="edge"><title>node11&#45;&gt;node16</title>
<path fill="none" stroke="black" d="M941.829,-153.849C956.483,-154.442 972.884,-155.106 988.198,-155.726"/>
<polygon fill="black" stroke="black" points="988.459,-159.239 998.592,-156.147 988.742,-152.245 988.459,-159.239"/>
<text text-anchor="middle" x="969.938" y="-158.8" font-family="Times New Roman,serif" font-size="14.00"> (0)</text>
</g>
<!-- node15 -->
<g id="node16" class="node"><title>node15</title>
<ellipse fill="none" stroke="black" cx="1189.78" cy="-89" rx="40.8928" ry="18"/>
<text text-anchor="middle" x="1189.78" y="-85.3" font-family="Times New Roman,serif" font-size="14.00">(15) OR</text>
</g>
<!-- node12&#45;&gt;node15 -->
<g id="edge19" class="edge"><title>node12&#45;&gt;node15</title>
<path fill="none" stroke="black" d="M1093.01,-89C1107.64,-89 1123.85,-89 1138.7,-89"/>
<polygon fill="black" stroke="black" points="1138.74,-92.5001 1148.74,-89 1138.74,-85.5001 1138.74,-92.5001"/>
<text text-anchor="middle" x="1120.83" y="-92.8" font-family="Times New Roman,serif" font-size="14.00"> (1)</text>
</g>
<!-- node20 -->
<g id="node21" class="node"><title>node20</title>
<ellipse fill="none" stroke="black" cx="1609.8" cy="-18" rx="42.7926" ry="18"/>
<text text-anchor="middle" x="1609.8" y="-14.3" font-family="Times New Roman,serif" font-size="14.00">Output 1</text>
</g>
<!-- node12&#45;&gt;node20 -->
<g id="edge26" class="edge"><title>node12&#45;&gt;node20</title>
<path fill="none" stroke="black" d="M1065.17,-72.5327C1091.09,-51.5586 1140.16,-18 1188.78,-18 1188.78,-18 1188.78,-18 1483.46,-18 1507.52,-18 1534.18,-18 1556.7,-18"/>
<polygon fill="black" stroke="black" points="1556.74,-21.5001 1566.74,-18 1556.73,-14.5001 1556.74,-21.5001"/>
</g>
<!-- node19 -->
<g id="node20" class="node"><title>node19</title>
<ellipse fill="none" stroke="black" cx="1609.8" cy="-292" rx="42.7926" ry="18"/>
<text text-anchor="middle" x="1609.8" y="-288.3" font-family="Times New Roman,serif" font-size="14.00">Output 0</text>
</g>
<!-- node13&#45;&gt;node19 -->
<g id="edge25" class="edge"><title>node13&#45;&gt;node19</title>
<path fill="none" stroke="black" d="M827.033,-279.806C864.192,-285.258 920.033,-292 968.938,-292 968.938,-292 968.938,-292 1483.46,-292 1507.52,-292 1534.18,-292 1556.7,-292"/>
<polygon fill="black" stroke="black" points="1556.74,-295.5 1566.74,-292 1556.73,-288.5 1556.74,-295.5"/>
</g>
<!-- node14&#45;&gt;node15 -->
<g id="edge18" class="edge"><title>node14&#45;&gt;node15</title>
<path fill="none" stroke="black" d="M336.631,-42.3981C372.168,-42.677 422.926,-43 467.369,-43 467.369,-43 467.369,-43 1046.38,-43 1084.54,-43 1125.8,-58.1457 1154.02,-71.0557"/>
<polygon fill="black" stroke="black" points="1152.54,-74.2242 1163.08,-75.323 1155.52,-67.8926 1152.54,-74.2242"/>
<text text-anchor="middle" x="679.108" y="-46.8" font-family="Times New Roman,serif" font-size="14.00"> (0)</text>
</g>
<!-- node17 -->
<g id="node18" class="node"><title>node17</title>
<ellipse fill="none" stroke="black" cx="1332.87" cy="-97" rx="46.2923" ry="18"/>
<text text-anchor="middle" x="1332.87" y="-93.3" font-family="Times New Roman,serif" font-size="14.00">(17) NEG</text>
</g>
<!-- node15&#45;&gt;node17 -->
<g id="edge22" class="edge"><title>node15&#45;&gt;node17</title>
<path fill="none" stroke="black" d="M1230.45,-91.2497C1244.9,-92.0686 1261.49,-93.0094 1277.01,-93.8896"/>
<polygon fill="black" stroke="black" points="1276.84,-97.3856 1287.03,-94.4574 1277.24,-90.3968 1276.84,-97.3856"/>
<text text-anchor="middle" x="1258.72" y="-96.8" font-family="Times New Roman,serif" font-size="14.00"> (0)</text>
</g>
<!-- node18 -->
<g id="node19" class="node"><title>node18</title>
<ellipse fill="none" stroke="black" cx="1482.46" cy="-123" rx="47.3916" ry="18"/>
<text text-anchor="middle" x="1482.46" y="-119.3" font-family="Times New Roman,serif" font-size="14.00">(18) XOR</text>
</g>
<!-- node16&#45;&gt;node18 -->
<g id="edge23" class="edge"><title>node16&#45;&gt;node18</title>
<path fill="none" stroke="black" d="M1091.78,-155.052C1161.7,-150.403 1299.91,-140.781 1417.01,-130 1420.21,-129.706 1423.49,-129.391 1426.8,-129.062"/>
<polygon fill="black" stroke="black" points="1427.16,-132.544 1436.76,-128.047 1426.45,-125.58 1427.16,-132.544"/>
<text text-anchor="middle" x="1258.72" y="-146.8" font-family="Times New Roman,serif" font-size="14.00"> (0)</text>
</g>
<!-- node17&#45;&gt;node18 -->
<g id="edge24" class="edge"><title>node17&#45;&gt;node18</title>
<path fill="none" stroke="black" d="M1375.37,-104.312C1392.05,-107.25 1411.47,-110.671 1429.1,-113.776"/>
<polygon fill="black" stroke="black" points="1428.79,-117.275 1439.24,-115.563 1430,-110.381 1428.79,-117.275"/>
<text text-anchor="middle" x="1407.01" y="-114.8" font-family="Times New Roman,serif" font-size="14.00"> (1)</text>
</g>
<!-- node21 -->
<g id="node22" class="node"><title>node21</title>
<ellipse fill="none" stroke="black" cx="1609.8" cy="-123" rx="42.7926" ry="18"/>
<text text-anchor="middle" x="1609.8" y="-119.3" font-family="Times New Roman,serif" font-size="14.00">Output 2</text>
</g>
<!-- node18&#45;&gt;node21 -->
<g id="edge27" class="edge"><title>node18&#45;&gt;node21</title>
<path fill="none" stroke="black" d="M1530.13,-123C1538.74,-123 1547.77,-123 1556.53,-123"/>
<polygon fill="black" stroke="black" points="1556.64,-126.5 1566.64,-123 1556.64,-119.5 1556.64,-126.5"/>
</g>
</g>
</svg>
