<?xml version="1.0" encoding="UTF-8" standalone="no"?>
<!DOCTYPE svg PUBLIC "-//W3C//DTD SVG 1.1//EN"
 "http://www.w3.org/Graphics/SVG/1.1/DTD/svg11.dtd">
<!-- Generated by graphviz version 2.38.0 (20140413.2041)
 -->
<!-- Title: NeuralNetwork Pages: 1 -->
<svg width="288pt" height="115pt"
 viewBox="0.00 0.00 288.00 115.18" xmlns="http://www.w3.org/2000/svg" xmlns:xlink="http://www.w3.org/1999/xlink">
<g id="graph0" class="graph" transform="scale(0.280938 0.280938) rotate(0) translate(4 406)">
<title>NeuralNetwork</title>
<polygon fill="white" stroke="none" points="-4,4 -4,-406 1021.14,-406 1021.14,4 -4,4"/>
<!-- node0 -->
<g id="node1" class="node"><title>node0</title>
<ellipse fill="none" stroke="black" cx="42.2463" cy="-357" rx="42.4939" ry="18"/>
<text text-anchor="middle" x="42.2463" y="-353.3" font-family="Times New Roman,serif" font-size="14.00">(0) Input</text>
</g>
<!-- node9 -->
<g id="node10" class="node"><title>node9</title>
<ellipse fill="none" stroke="black" cx="325.181" cy="-384" rx="42.7926" ry="18"/>
<text text-anchor="middle" x="325.181" y="-380.3" font-family="Times New Roman,serif" font-size="14.00">(9) XOR</text>
</g>
<!-- node0&#45;&gt;node9 -->
<g id="edge9" class="edge"><title>node0&#45;&gt;node9</title>
<path fill="none" stroke="black" d="M83.7966,-360.897C133.76,-365.699 218.691,-373.862 273.07,-379.088"/>
<polygon fill="black" stroke="black" points="272.897,-382.587 283.186,-380.06 273.567,-375.619 272.897,-382.587"/>
<text text-anchor="middle" x="183.389" y="-377.8" font-family="Times New Roman,serif" font-size="14.00"> (0)</text>
</g>
<!-- node12 -->
<g id="node13" class="node"><title>node12</title>
<ellipse fill="none" stroke="black" cx="432.873" cy="-268" rx="46.5926" ry="18"/>
<text text-anchor="middle" x="432.873" y="-264.3" font-family="Times New Roman,serif" font-size="14.00">(12) AND</text>
</g>
<!-- node0&#45;&gt;node12 -->
<g id="edge15" class="edge"><title>node0&#45;&gt;node12</title>
<path fill="none" stroke="black" d="M83.5428,-352.52C128.131,-347.124 201.93,-336.888 264.285,-322 307.448,-311.694 355.549,-295.712 389.108,-283.805"/>
<polygon fill="black" stroke="black" points="390.366,-287.072 398.602,-280.408 388.007,-280.482 390.366,-287.072"/>
<text text-anchor="middle" x="183.389" y="-347.8" font-family="Times New Roman,serif" font-size="14.00"> (0)</text>
</g>
<!-- node1 -->
<g id="node2" class="node"><title>node1</title>
<ellipse fill="none" stroke="black" cx="42.2463" cy="-99" rx="42.4939" ry="18"/>
<text text-anchor="middle" x="42.2463" y="-95.3" font-family="Times New Roman,serif" font-size="14.00">(1) Input</text>
</g>
<!-- node10 -->
<g id="node11" class="node"><title>node10</title>
<ellipse fill="none" stroke="black" cx="545.115" cy="-92" rx="46.5926" ry="18"/>
<text text-anchor="middle" x="545.115" y="-88.3" font-family="Times New Roman,serif" font-size="14.00">(10) AND</text>
</g>
<!-- node1&#45;&gt;node10 -->
<g id="edge12" class="edge"><title>node1&#45;&gt;node10</title>
<path fill="none" stroke="black" d="M84.6605,-98.4212C174.393,-97.1671 386.829,-94.1982 488.29,-92.7802"/>
<polygon fill="black" stroke="black" points="488.392,-96.2792 498.342,-92.6397 488.294,-89.2799 488.392,-96.2792"/>
<text text-anchor="middle" x="254.285" y="-99.8" font-family="Times New Roman,serif" font-size="14.00"> (1)</text>
</g>
<!-- node11 -->
<g id="node12" class="node"><title>node11</title>
<ellipse fill="none" stroke="black" cx="545.115" cy="-155" rx="47.3916" ry="18"/>
<text text-anchor="middle" x="545.115" y="-151.3" font-family="Times New Roman,serif" font-size="14.00">(11) XOR</text>
</g>
<!-- node1&#45;&gt;node11 -->
<g id="edge14" class="edge"><title>node1&#45;&gt;node11</title>
<path fill="none" stroke="black" d="M75.9305,-109.923C115.384,-122.683 183.958,-143.506 244.285,-155 260.967,-158.178 265.373,-157.458 282.285,-159 328.361,-163.2 339.845,-165.221 386.077,-167 427.643,-168.6 438.249,-170.823 479.669,-167 484.124,-166.589 488.731,-166.021 493.337,-165.354"/>
<polygon fill="black" stroke="black" points="494.037,-168.787 503.363,-163.759 492.937,-161.874 494.037,-168.787"/>
<text text-anchor="middle" x="254.285" y="-160.8" font-family="Times New Roman,serif" font-size="14.00"> (1)</text>
</g>
<!-- node2 -->
<g id="node3" class="node"><title>node2</title>
<ellipse fill="none" stroke="black" cx="42.2463" cy="-285" rx="42.4939" ry="18"/>
<text text-anchor="middle" x="42.2463" y="-281.3" font-family="Times New Roman,serif" font-size="14.00">(2) Input</text>
</g>
<!-- node5 -->
<g id="node6" class="node"><title>node5</title>
<ellipse fill="none" stroke="black" cx="183.389" cy="-205" rx="42.4939" ry="18"/>
<text text-anchor="middle" x="183.389" y="-201.3" font-family="Times New Roman,serif" font-size="14.00">(5) AND</text>
</g>
<!-- node2&#45;&gt;node5 -->
<g id="edge1" class="edge"><title>node2&#45;&gt;node5</title>
<path fill="none" stroke="black" d="M56.5703,-267.878C67.5649,-254.866 84.273,-237.474 102.493,-227 112.138,-221.455 123.246,-217.253 134.053,-214.088"/>
<polygon fill="black" stroke="black" points="135.09,-217.434 143.843,-211.464 133.278,-210.672 135.09,-217.434"/>
<text text-anchor="middle" x="112.493" y="-230.8" font-family="Times New Roman,serif" font-size="14.00"> (0)</text>
</g>
<!-- node8 -->
<g id="node9" class="node"><title>node8</title>
<ellipse fill="none" stroke="black" cx="183.389" cy="-275" rx="42.7926" ry="18"/>
<text text-anchor="middle" x="183.389" y="-271.3" font-family="Times New Roman,serif" font-size="14.00">(8) XOR</text>
</g>
<!-- node2&#45;&gt;node8 -->
<g id="edge7" class="edge"><title>node2&#45;&gt;node8</title>
<path fill="none" stroke="black" d="M84.8357,-285.542C96.9899,-285.412 110.287,-284.989 122.493,-284 126.005,-283.715 129.625,-283.351 133.263,-282.932"/>
<polygon fill="black" stroke="black" points="134.014,-286.365 143.493,-281.632 133.131,-279.421 134.014,-286.365"/>
<text text-anchor="middle" x="112.493" y="-288.8" font-family="Times New Roman,serif" font-size="14.00"> (0)</text>
</g>
<!-- node3 -->
<g id="node4" class="node"><title>node3</title>
<ellipse fill="none" stroke="black" cx="42.2463" cy="-18" rx="42.4939" ry="18"/>
<text text-anchor="middle" x="42.2463" y="-14.3" font-family="Times New Roman,serif" font-size="14.00">(3) Input</text>
</g>
<!-- node6 -->
<g id="node7" class="node"><title>node6</title>
<ellipse fill="none" stroke="black" cx="325.181" cy="-132" rx="42.7926" ry="18"/>
<text text-anchor="middle" x="325.181" y="-128.3" font-family="Times New Roman,serif" font-size="14.00">(6) XOR</text>
</g>
<!-- node3&#45;&gt;node6 -->
<g id="edge3" class="edge"><title>node3&#45;&gt;node6</title>
<path fill="none" stroke="black" d="M81.1789,-25.3164C140.095,-36.8689 248.498,-58.9507 264.285,-68 280.904,-77.5261 295.661,-93.1575 306.369,-106.587"/>
<polygon fill="black" stroke="black" points="303.636,-108.776 312.493,-114.59 309.195,-104.521 303.636,-108.776"/>
<text text-anchor="middle" x="183.389" y="-59.8" font-family="Times New Roman,serif" font-size="14.00"> (0)</text>
</g>
<!-- node7 -->
<g id="node8" class="node"><title>node7</title>
<ellipse fill="none" stroke="black" cx="325.181" cy="-24" rx="42.4939" ry="18"/>
<text text-anchor="middle" x="325.181" y="-20.3" font-family="Times New Roman,serif" font-size="14.00">(7) AND</text>
</g>
<!-- node3&#45;&gt;node7 -->
<g id="edge5" class="edge"><title>node3&#45;&gt;node7</title>
<path fill="none" stroke="black" d="M84.3442,-15.3959C121.457,-13.4504 177.558,-11.5178 226.285,-14 241.811,-14.791 258.67,-16.2832 273.951,-17.8782"/>
<polygon fill="black" stroke="black" points="273.924,-21.3956 284.242,-18.9914 274.677,-14.4362 273.924,-21.3956"/>
<text text-anchor="middle" x="183.389" y="-17.8" font-family="Times New Roman,serif" font-size="14.00"> (0)</text>
</g>
<!-- node4 -->
<g id="node5" class="node"><title>node4</title>
<ellipse fill="none" stroke="black" cx="42.2463" cy="-211" rx="42.4939" ry="18"/>
<text text-anchor="middle" x="42.2463" y="-207.3" font-family="Times New Roman,serif" font-size="14.00">(4) Input</text>
</g>
<!-- node4&#45;&gt;node5 -->
<g id="edge2" class="edge"><title>node4&#45;&gt;node5</title>
<path fill="none" stroke="black" d="M74.8284,-199.526C83.661,-196.836 93.3478,-194.358 102.493,-193 113.974,-191.294 126.382,-191.945 137.918,-193.608"/>
<polygon fill="black" stroke="black" points="137.338,-197.06 147.785,-195.295 138.518,-190.16 137.338,-197.06"/>
<text text-anchor="middle" x="112.493" y="-196.8" font-family="Times New Roman,serif" font-size="14.00"> (1)</text>
</g>
<!-- node4&#45;&gt;node8 -->
<g id="edge8" class="edge"><title>node4&#45;&gt;node8</title>
<path fill="none" stroke="black" d="M66.3413,-225.995C77.0799,-232.612 90.1758,-240.188 102.493,-246 114.181,-251.515 127.224,-256.651 139.326,-261.022"/>
<polygon fill="black" stroke="black" points="138.191,-264.333 148.786,-264.356 140.518,-257.731 138.191,-264.333"/>
<text text-anchor="middle" x="112.493" y="-257.8" font-family="Times New Roman,serif" font-size="14.00"> (1)</text>
</g>
<!-- node5&#45;&gt;node6 -->
<g id="edge4" class="edge"><title>node5&#45;&gt;node6</title>
<path fill="none" stroke="black" d="M195.064,-187.592C205.536,-172.211 223.004,-150.624 244.285,-140 252.894,-135.702 262.669,-133.141 272.355,-131.691"/>
<polygon fill="black" stroke="black" points="272.822,-135.161 282.364,-130.557 272.033,-128.205 272.822,-135.161"/>
<text text-anchor="middle" x="254.285" y="-143.8" font-family="Times New Roman,serif" font-size="14.00"> (1)</text>
</g>
<!-- node5&#45;&gt;node7 -->
<g id="edge6" class="edge"><title>node5&#45;&gt;node7</title>
<path fill="none" stroke="black" d="M186.538,-186.988C191.252,-155.333 205.379,-89.5278 244.285,-52 253.045,-43.5498 264.499,-37.6367 275.986,-33.5034"/>
<polygon fill="black" stroke="black" points="277.126,-36.8134 285.585,-30.4334 274.994,-30.1461 277.126,-36.8134"/>
<text text-anchor="middle" x="254.285" y="-55.8" font-family="Times New Roman,serif" font-size="14.00"> (1)</text>
</g>
<!-- node6&#45;&gt;node10 -->
<g id="edge11" class="edge"><title>node6&#45;&gt;node10</title>
<path fill="none" stroke="black" d="M363.511,-123.629C370.973,-122.032 378.765,-120.417 386.077,-119 421.062,-112.218 460.581,-105.467 491.349,-100.412"/>
<polygon fill="black" stroke="black" points="492.124,-103.832 501.428,-98.7647 490.995,-96.9232 492.124,-103.832"/>
<text text-anchor="middle" x="432.873" y="-122.8" font-family="Times New Roman,serif" font-size="14.00"> (0)</text>
</g>
<!-- node6&#45;&gt;node11 -->
<g id="edge13" class="edge"><title>node6&#45;&gt;node11</title>
<path fill="none" stroke="black" d="M366.917,-136.299C401.264,-139.924 450.744,-145.146 488.693,-149.151"/>
<polygon fill="black" stroke="black" points="488.757,-152.677 499.069,-150.246 489.491,-145.716 488.757,-152.677"/>
<text text-anchor="middle" x="432.873" y="-151.8" font-family="Times New Roman,serif" font-size="14.00"> (0)</text>
</g>
<!-- node14 -->
<g id="node15" class="node"><title>node14</title>
<ellipse fill="none" stroke="black" cx="696.006" cy="-92" rx="47.3916" ry="18"/>
<text text-anchor="middle" x="696.006" y="-88.3" font-family="Times New Roman,serif" font-size="14.00">(14) XOR</text>
</g>
<!-- node7&#45;&gt;node14 -->
<g id="edge19" class="edge"><title>node7&#45;&gt;node14</title>
<path fill="none" stroke="black" d="M367.423,-24.3228C420.318,-25.5747 514.539,-30.6433 592.561,-50 614.745,-55.504 638.424,-64.9565 657.422,-73.5019"/>
<polygon fill="black" stroke="black" points="656.073,-76.7338 666.621,-77.732 658.998,-70.374 656.073,-76.7338"/>
<text text-anchor="middle" x="545.115" y="-53.8" font-family="Times New Roman,serif" font-size="14.00"> (0)</text>
</g>
<!-- node8&#45;&gt;node9 -->
<g id="edge10" class="edge"><title>node8&#45;&gt;node9</title>
<path fill="none" stroke="black" d="M204.716,-290.85C228.735,-309.578 268.843,-340.852 295.888,-361.939"/>
<polygon fill="black" stroke="black" points="293.791,-364.742 303.83,-368.131 298.096,-359.222 293.791,-364.742"/>
<text text-anchor="middle" x="254.285" y="-339.8" font-family="Times New Roman,serif" font-size="14.00"> (1)</text>
</g>
<!-- node8&#45;&gt;node12 -->
<g id="edge16" class="edge"><title>node8&#45;&gt;node12</title>
<path fill="none" stroke="black" d="M226.371,-273.813C267.44,-272.651 330.258,-270.874 375.63,-269.591"/>
<polygon fill="black" stroke="black" points="375.999,-273.082 385.896,-269.3 375.801,-266.085 375.999,-273.082"/>
<text text-anchor="middle" x="254.285" y="-276.8" font-family="Times New Roman,serif" font-size="14.00"> (1)</text>
</g>
<!-- node17 -->
<g id="node18" class="node"><title>node17</title>
<ellipse fill="none" stroke="black" cx="974.24" cy="-384" rx="42.7926" ry="18"/>
<text text-anchor="middle" x="974.24" y="-380.3" font-family="Times New Roman,serif" font-size="14.00">Output 0</text>
</g>
<!-- node9&#45;&gt;node17 -->
<g id="edge25" class="edge"><title>node9&#45;&gt;node17</title>
<path fill="none" stroke="black" d="M368.367,-384C412.268,-384 483.01,-384 544.115,-384 544.115,-384 544.115,-384 847.898,-384 871.958,-384 898.616,-384 921.14,-384"/>
<polygon fill="black" stroke="black" points="921.173,-387.5 931.173,-384 921.173,-380.5 921.173,-387.5"/>
</g>
<!-- node10&#45;&gt;node14 -->
<g id="edge20" class="edge"><title>node10&#45;&gt;node14</title>
<path fill="none" stroke="black" d="M592.002,-92C606.581,-92 622.883,-92 638.139,-92"/>
<polygon fill="black" stroke="black" points="638.501,-95.5001 648.501,-92 638.501,-88.5001 638.501,-95.5001"/>
<text text-anchor="middle" x="620.561" y="-95.8" font-family="Times New Roman,serif" font-size="14.00"> (1)</text>
</g>
<!-- node13 -->
<g id="node14" class="node"><title>node13</title>
<ellipse fill="none" stroke="black" cx="696.006" cy="-149" rx="46.5926" ry="18"/>
<text text-anchor="middle" x="696.006" y="-145.3" font-family="Times New Roman,serif" font-size="14.00">(13) AND</text>
</g>
<!-- node11&#45;&gt;node13 -->
<g id="edge18" class="edge"><title>node11&#45;&gt;node13</title>
<path fill="none" stroke="black" d="M591.511,-151.103C597.903,-150.663 604.395,-150.275 610.561,-150 619.704,-149.592 629.409,-149.323 638.858,-149.15"/>
<polygon fill="black" stroke="black" points="639.026,-152.648 648.972,-148.998 638.921,-145.649 639.026,-152.648"/>
<text text-anchor="middle" x="620.561" y="-153.8" font-family="Times New Roman,serif" font-size="14.00"> (1)</text>
</g>
<!-- node16 -->
<g id="node17" class="node"><title>node16</title>
<ellipse fill="none" stroke="black" cx="696.006" cy="-236" rx="47.3916" ry="18"/>
<text text-anchor="middle" x="696.006" y="-232.3" font-family="Times New Roman,serif" font-size="14.00">(16) XOR</text>
</g>
<!-- node11&#45;&gt;node16 -->
<g id="edge24" class="edge"><title>node11&#45;&gt;node16</title>
<path fill="none" stroke="black" d="M573.078,-169.668C597.066,-182.719 632.343,-201.91 658.788,-216.297"/>
<polygon fill="black" stroke="black" points="657.284,-219.463 667.741,-221.167 660.629,-213.314 657.284,-219.463"/>
<text text-anchor="middle" x="620.561" y="-203.8" font-family="Times New Roman,serif" font-size="14.00"> (1)</text>
</g>
<!-- node12&#45;&gt;node13 -->
<g id="edge17" class="edge"><title>node12&#45;&gt;node13</title>
<path fill="none" stroke="black" d="M455.589,-252.045C467.479,-244.017 482.788,-234.788 497.669,-229 553.758,-207.183 576.247,-228.924 630.561,-203 645.866,-195.695 660.554,-183.897 672.031,-173.19"/>
<polygon fill="black" stroke="black" points="674.686,-175.492 679.433,-166.02 669.815,-170.464 674.686,-175.492"/>
<text text-anchor="middle" x="545.115" y="-232.8" font-family="Times New Roman,serif" font-size="14.00"> (0)</text>
</g>
<!-- node12&#45;&gt;node16 -->
<g id="edge23" class="edge"><title>node12&#45;&gt;node16</title>
<path fill="none" stroke="black" d="M477.581,-262.644C522.448,-257.146 592.359,-248.579 640.739,-242.65"/>
<polygon fill="black" stroke="black" points="641.219,-246.118 650.719,-241.427 640.368,-239.169 641.219,-246.118"/>
<text text-anchor="middle" x="545.115" y="-262.8" font-family="Times New Roman,serif" font-size="14.00"> (0)</text>
</g>
<!-- node15 -->
<g id="node16" class="node"><title>node15</title>
<ellipse fill="none" stroke="black" cx="846.898" cy="-121" rx="47.3916" ry="18"/>
<text text-anchor="middle" x="846.898" y="-117.3" font-family="Times New Roman,serif" font-size="14.00">(15) XOR</text>
</g>
<!-- node13&#45;&gt;node15 -->
<g id="edge21" class="edge"><title>node13&#45;&gt;node15</title>
<path fill="none" stroke="black" d="M738.481,-141.2C755.76,-137.951 776.009,-134.143 794.24,-130.715"/>
<polygon fill="black" stroke="black" points="794.948,-134.143 804.129,-128.855 793.655,-127.263 794.948,-134.143"/>
<text text-anchor="middle" x="771.452" y="-139.8" font-family="Times New Roman,serif" font-size="14.00"> (0)</text>
</g>
<!-- node14&#45;&gt;node15 -->
<g id="edge22" class="edge"><title>node14&#45;&gt;node15</title>
<path fill="none" stroke="black" d="M738.481,-100.078C755.833,-103.458 776.179,-107.421 794.47,-110.983"/>
<polygon fill="black" stroke="black" points="793.903,-114.439 804.388,-112.915 795.241,-107.568 793.903,-114.439"/>
<text text-anchor="middle" x="771.452" y="-111.8" font-family="Times New Roman,serif" font-size="14.00"> (1)</text>
</g>
<!-- node19 -->
<g id="node20" class="node"><title>node19</title>
<ellipse fill="none" stroke="black" cx="974.24" cy="-121" rx="42.7926" ry="18"/>
<text text-anchor="middle" x="974.24" y="-117.3" font-family="Times New Roman,serif" font-size="14.00">Output 2</text>
</g>
<!-- node15&#45;&gt;node19 -->
<g id="edge27" class="edge"><title>node15&#45;&gt;node19</title>
<path fill="none" stroke="black" d="M894.571,-121C903.175,-121 912.211,-121 920.968,-121"/>
<polygon fill="black" stroke="black" points="921.078,-124.5 931.078,-121 921.078,-117.5 921.078,-124.5"/>
</g>
<!-- node18 -->
<g id="node19" class="node"><title>node18</title>
<ellipse fill="none" stroke="black" cx="974.24" cy="-236" rx="42.7926" ry="18"/>
<text text-anchor="middle" x="974.24" y="-232.3" font-family="Times New Roman,serif" font-size="14.00">Output 1</text>
</g>
<!-- node16&#45;&gt;node18 -->
<g id="edge26" class="edge"><title>node16&#45;&gt;node18</title>
<path fill="none" stroke="black" d="M743.553,-236C792.606,-236 869.703,-236 920.853,-236"/>
<polygon fill="black" stroke="black" points="921.038,-239.5 931.038,-236 921.038,-232.5 921.038,-239.5"/>
</g>
</g>
</svg>
