<?xml version="1.0" encoding="UTF-8" standalone="no"?>
<!DOCTYPE svg PUBLIC "-//W3C//DTD SVG 1.1//EN"
 "http://www.w3.org/Graphics/SVG/1.1/DTD/svg11.dtd">
<!-- Generated by graphviz version 2.38.0 (20140413.2041)
 -->
<!-- Title: NeuralNetwork Pages: 1 -->
<svg width="288pt" height="98pt"
 viewBox="0.00 0.00 288.00 97.68" xmlns="http://www.w3.org/2000/svg" xmlns:xlink="http://www.w3.org/1999/xlink">
<g id="graph0" class="graph" transform="scale(0.247906 0.247906) rotate(0) translate(4 390)">
<title>NeuralNetwork</title>
<polygon fill="white" stroke="none" points="-4,4 -4,-390 1157.73,-390 1157.73,4 -4,4"/>
<!-- node0 -->
<g id="node1" class="node"><title>node0</title>
<ellipse fill="none" stroke="black" cx="42.2463" cy="-355" rx="42.4939" ry="18"/>
<text text-anchor="middle" x="42.2463" y="-351.3" font-family="Times New Roman,serif" font-size="14.00">(0) Input</text>
</g>
<!-- node10 -->
<g id="node11" class="node"><title>node10</title>
<ellipse fill="none" stroke="black" cx="394.223" cy="-368" rx="47.3916" ry="18"/>
<text text-anchor="middle" x="394.223" y="-364.3" font-family="Times New Roman,serif" font-size="14.00">(10) XOR</text>
</g>
<!-- node0&#45;&gt;node10 -->
<g id="edge12" class="edge"><title>node0&#45;&gt;node10</title>
<path fill="none" stroke="black" d="M84.4222,-356.529C147.024,-358.855 266.302,-363.285 336.888,-365.907"/>
<polygon fill="black" stroke="black" points="336.813,-369.407 346.936,-366.281 337.073,-362.412 336.813,-369.407"/>
<text text-anchor="middle" x="183.389" y="-364.8" font-family="Times New Roman,serif" font-size="14.00"> (1)</text>
</g>
<!-- node11 -->
<g id="node12" class="node"><title>node11</title>
<ellipse fill="none" stroke="black" cx="394.223" cy="-294" rx="46.5926" ry="18"/>
<text text-anchor="middle" x="394.223" y="-290.3" font-family="Times New Roman,serif" font-size="14.00">(11) AND</text>
</g>
<!-- node0&#45;&gt;node11 -->
<g id="edge14" class="edge"><title>node0&#45;&gt;node11</title>
<path fill="none" stroke="black" d="M81.5252,-348.325C99.4127,-345.303 121.015,-341.791 140.493,-339 223.944,-327.043 246.603,-334.83 328.777,-316 335.987,-314.348 343.522,-312.189 350.792,-309.871"/>
<polygon fill="black" stroke="black" points="352.105,-313.122 360.487,-306.642 349.893,-306.481 352.105,-313.122"/>
<text text-anchor="middle" x="183.389" y="-342.8" font-family="Times New Roman,serif" font-size="14.00"> (1)</text>
</g>
<!-- node1 -->
<g id="node2" class="node"><title>node1</title>
<ellipse fill="none" stroke="black" cx="42.2463" cy="-85" rx="42.4939" ry="18"/>
<text text-anchor="middle" x="42.2463" y="-81.3" font-family="Times New Roman,serif" font-size="14.00">(1) Input</text>
</g>
<!-- node5 -->
<g id="node6" class="node"><title>node5</title>
<ellipse fill="none" stroke="black" cx="183.389" cy="-77" rx="42.7926" ry="18"/>
<text text-anchor="middle" x="183.389" y="-73.3" font-family="Times New Roman,serif" font-size="14.00">(5) XOR</text>
</g>
<!-- node1&#45;&gt;node5 -->
<g id="edge2" class="edge"><title>node1&#45;&gt;node5</title>
<path fill="none" stroke="black" d="M84.241,-82.643C98.7004,-81.8117 115.153,-80.8657 130.4,-79.9891"/>
<polygon fill="black" stroke="black" points="130.941,-83.4638 140.724,-79.3955 130.539,-76.4754 130.941,-83.4638"/>
<text text-anchor="middle" x="112.493" y="-85.8" font-family="Times New Roman,serif" font-size="14.00"> (1)</text>
</g>
<!-- node2 -->
<g id="node3" class="node"><title>node2</title>
<ellipse fill="none" stroke="black" cx="42.2463" cy="-171" rx="42.4939" ry="18"/>
<text text-anchor="middle" x="42.2463" y="-167.3" font-family="Times New Roman,serif" font-size="14.00">(2) Input</text>
</g>
<!-- node7 -->
<g id="node8" class="node"><title>node7</title>
<ellipse fill="none" stroke="black" cx="183.389" cy="-269" rx="42.7926" ry="18"/>
<text text-anchor="middle" x="183.389" y="-265.3" font-family="Times New Roman,serif" font-size="14.00">(7) XOR</text>
</g>
<!-- node2&#45;&gt;node7 -->
<g id="edge6" class="edge"><title>node2&#45;&gt;node7</title>
<path fill="none" stroke="black" d="M84.5336,-172.867C97.4605,-174.956 111.267,-178.862 122.493,-186 143.787,-199.541 159.887,-223.599 170.004,-242.339"/>
<polygon fill="black" stroke="black" points="166.929,-244.014 174.615,-251.306 173.154,-240.813 166.929,-244.014"/>
<text text-anchor="middle" x="112.493" y="-189.8" font-family="Times New Roman,serif" font-size="14.00"> (1)</text>
</g>
<!-- node8 -->
<g id="node9" class="node"><title>node8</title>
<ellipse fill="none" stroke="black" cx="286.531" cy="-202" rx="42.4939" ry="18"/>
<text text-anchor="middle" x="286.531" y="-198.3" font-family="Times New Roman,serif" font-size="14.00">(8) AND</text>
</g>
<!-- node2&#45;&gt;node8 -->
<g id="edge8" class="edge"><title>node2&#45;&gt;node8</title>
<path fill="none" stroke="black" d="M78.7561,-161.904C86.5265,-160.281 94.7453,-158.84 102.493,-158 153.795,-152.438 211.441,-170.474 248.091,-185.115"/>
<polygon fill="black" stroke="black" points="246.814,-188.374 257.394,-188.94 249.476,-181.9 246.814,-188.374"/>
<text text-anchor="middle" x="112.493" y="-161.8" font-family="Times New Roman,serif" font-size="14.00"> (1)</text>
</g>
<!-- node3 -->
<g id="node4" class="node"><title>node3</title>
<ellipse fill="none" stroke="black" cx="42.2463" cy="-22" rx="42.4939" ry="18"/>
<text text-anchor="middle" x="42.2463" y="-18.3" font-family="Times New Roman,serif" font-size="14.00">(3) Input</text>
</g>
<!-- node3&#45;&gt;node5 -->
<g id="edge1" class="edge"><title>node3&#45;&gt;node5</title>
<path fill="none" stroke="black" d="M73.7817,-34.07C93.8511,-42.003 120.328,-52.4689 142.115,-61.0809"/>
<polygon fill="black" stroke="black" points="140.857,-64.347 151.444,-64.7681 143.43,-57.8371 140.857,-64.347"/>
<text text-anchor="middle" x="112.493" y="-56.8" font-family="Times New Roman,serif" font-size="14.00"> (0)</text>
</g>
<!-- node6 -->
<g id="node7" class="node"><title>node6</title>
<ellipse fill="none" stroke="black" cx="394.223" cy="-18" rx="36.2938" ry="18"/>
<text text-anchor="middle" x="394.223" y="-14.3" font-family="Times New Roman,serif" font-size="14.00">(6) OR</text>
</g>
<!-- node3&#45;&gt;node6 -->
<g id="edge4" class="edge"><title>node3&#45;&gt;node6</title>
<path fill="none" stroke="black" d="M84.7675,-21.5254C150.815,-20.7706 279.319,-19.3018 347.76,-18.5196"/>
<polygon fill="black" stroke="black" points="347.85,-22.0189 357.809,-18.4048 347.77,-15.0194 347.85,-22.0189"/>
<text text-anchor="middle" x="183.389" y="-24.8" font-family="Times New Roman,serif" font-size="14.00"> (1)</text>
</g>
<!-- node4 -->
<g id="node5" class="node"><title>node4</title>
<ellipse fill="none" stroke="black" cx="42.2463" cy="-236" rx="42.4939" ry="18"/>
<text text-anchor="middle" x="42.2463" y="-232.3" font-family="Times New Roman,serif" font-size="14.00">(4) Input</text>
</g>
<!-- node4&#45;&gt;node7 -->
<g id="edge5" class="edge"><title>node4&#45;&gt;node7</title>
<path fill="none" stroke="black" d="M79.4411,-244.584C96.5621,-248.645 117.217,-253.543 135.519,-257.884"/>
<polygon fill="black" stroke="black" points="134.869,-261.327 145.407,-260.229 136.484,-254.516 134.869,-261.327"/>
<text text-anchor="middle" x="112.493" y="-257.8" font-family="Times New Roman,serif" font-size="14.00"> (0)</text>
</g>
<!-- node4&#45;&gt;node8 -->
<g id="edge7" class="edge"><title>node4&#45;&gt;node8</title>
<path fill="none" stroke="black" d="M82.7127,-230.462C124.511,-224.596 190.592,-215.323 235.895,-208.966"/>
<polygon fill="black" stroke="black" points="236.665,-212.392 246.082,-207.536 235.692,-205.46 236.665,-212.392"/>
<text text-anchor="middle" x="112.493" y="-230.8" font-family="Times New Roman,serif" font-size="14.00"> (0)</text>
</g>
<!-- node5&#45;&gt;node6 -->
<g id="edge3" class="edge"><title>node5&#45;&gt;node6</title>
<path fill="none" stroke="black" d="M210.028,-62.8242C220.415,-57.5523 232.679,-51.9085 244.285,-48 278.497,-36.4786 318.698,-28.7018 348.705,-23.9587"/>
<polygon fill="black" stroke="black" points="349.511,-27.3763 358.868,-22.4064 348.454,-20.4566 349.511,-27.3763"/>
<text text-anchor="middle" x="286.531" y="-51.8" font-family="Times New Roman,serif" font-size="14.00"> (0)</text>
</g>
<!-- node9 -->
<g id="node10" class="node"><title>node9</title>
<ellipse fill="none" stroke="black" cx="545.115" cy="-64" rx="42.7926" ry="18"/>
<text text-anchor="middle" x="545.115" y="-60.3" font-family="Times New Roman,serif" font-size="14.00">(9) XOR</text>
</g>
<!-- node5&#45;&gt;node9 -->
<g id="edge9" class="edge"><title>node5&#45;&gt;node9</title>
<path fill="none" stroke="black" d="M226.358,-75.4833C292.336,-73.0989 420.181,-68.4788 491.965,-65.8846"/>
<polygon fill="black" stroke="black" points="492.268,-69.376 502.135,-65.5171 492.015,-62.3806 492.268,-69.376"/>
<text text-anchor="middle" x="394.223" y="-74.8" font-family="Times New Roman,serif" font-size="14.00"> (0)</text>
</g>
<!-- node15 -->
<g id="node16" class="node"><title>node15</title>
<ellipse fill="none" stroke="black" cx="545.115" cy="-202" rx="47.3916" ry="18"/>
<text text-anchor="middle" x="545.115" y="-198.3" font-family="Times New Roman,serif" font-size="14.00">(15) XOR</text>
</g>
<!-- node5&#45;&gt;node15 -->
<g id="edge22" class="edge"><title>node5&#45;&gt;node15</title>
<path fill="none" stroke="black" d="M216.946,-88.3134C281.614,-110.785 426.319,-161.068 499.67,-186.556"/>
<polygon fill="black" stroke="black" points="498.935,-190.006 509.53,-189.982 501.233,-183.394 498.935,-190.006"/>
<text text-anchor="middle" x="394.223" y="-168.8" font-family="Times New Roman,serif" font-size="14.00"> (1)</text>
</g>
<!-- node6&#45;&gt;node9 -->
<g id="edge10" class="edge"><title>node6&#45;&gt;node9</title>
<path fill="none" stroke="black" d="M425.713,-27.4198C447.248,-34.0732 476.43,-43.0887 500.433,-50.5045"/>
<polygon fill="black" stroke="black" points="499.438,-53.8604 510.026,-53.4683 501.505,-47.1724 499.438,-53.8604"/>
<text text-anchor="middle" x="469.669" y="-47.8" font-family="Times New Roman,serif" font-size="14.00"> (1)</text>
</g>
<!-- node14 -->
<g id="node15" class="node"><title>node14</title>
<ellipse fill="none" stroke="black" cx="984.141" cy="-33" rx="46.5926" ry="18"/>
<text text-anchor="middle" x="984.141" y="-29.3" font-family="Times New Roman,serif" font-size="14.00">(14) AND</text>
</g>
<!-- node6&#45;&gt;node14 -->
<g id="edge19" class="edge"><title>node6&#45;&gt;node14</title>
<path fill="none" stroke="black" d="M430.715,-16.5105C460.876,-15.3733 505.327,-14 544.115,-14 544.115,-14 544.115,-14 841.399,-14 871.78,-14 905.502,-18.3411 932.43,-22.8733"/>
<polygon fill="black" stroke="black" points="931.944,-26.3413 942.397,-24.611 933.147,-19.4453 931.944,-26.3413"/>
<text text-anchor="middle" x="696.006" y="-17.8" font-family="Times New Roman,serif" font-size="14.00"> (0)</text>
</g>
<!-- node7&#45;&gt;node10 -->
<g id="edge11" class="edge"><title>node7&#45;&gt;node10</title>
<path fill="none" stroke="black" d="M212.553,-282.352C249.22,-299.734 313.472,-330.193 354.648,-349.713"/>
<polygon fill="black" stroke="black" points="353.291,-352.943 363.826,-354.064 356.289,-346.618 353.291,-352.943"/>
<text text-anchor="middle" x="286.531" y="-338.8" font-family="Times New Roman,serif" font-size="14.00"> (0)</text>
</g>
<!-- node7&#45;&gt;node11 -->
<g id="edge13" class="edge"><title>node7&#45;&gt;node11</title>
<path fill="none" stroke="black" d="M222.891,-261.948C252.271,-257.871 293.553,-254.969 328.777,-263 339.127,-265.36 349.752,-269.601 359.314,-274.204"/>
<polygon fill="black" stroke="black" points="357.973,-277.449 368.472,-278.871 361.152,-271.212 357.973,-277.449"/>
<text text-anchor="middle" x="286.531" y="-266.8" font-family="Times New Roman,serif" font-size="14.00"> (0)</text>
</g>
<!-- node12 -->
<g id="node13" class="node"><title>node12</title>
<ellipse fill="none" stroke="black" cx="696.006" cy="-87" rx="40.8928" ry="18"/>
<text text-anchor="middle" x="696.006" y="-83.3" font-family="Times New Roman,serif" font-size="14.00">(12) OR</text>
</g>
<!-- node8&#45;&gt;node12 -->
<g id="edge15" class="edge"><title>node8&#45;&gt;node12</title>
<path fill="none" stroke="black" d="M328.536,-199.661C361.691,-195.994 408.196,-186.66 441.669,-163 453.446,-154.675 447.717,-144.072 459.669,-136 475.098,-125.579 583.373,-105.876 647.553,-94.8959"/>
<polygon fill="black" stroke="black" points="648.183,-98.3392 657.454,-93.2113 647.009,-91.4383 648.183,-98.3392"/>
<text text-anchor="middle" x="469.669" y="-139.8" font-family="Times New Roman,serif" font-size="14.00"> (0)</text>
</g>
<!-- node16 -->
<g id="node17" class="node"><title>node16</title>
<ellipse fill="none" stroke="black" cx="696.006" cy="-233" rx="47.3916" ry="18"/>
<text text-anchor="middle" x="696.006" y="-229.3" font-family="Times New Roman,serif" font-size="14.00">(16) XOR</text>
</g>
<!-- node8&#45;&gt;node16 -->
<g id="edge24" class="edge"><title>node8&#45;&gt;node16</title>
<path fill="none" stroke="black" d="M326.543,-208.004C368.654,-214.253 437.753,-223.833 497.669,-229 547.706,-233.315 560.35,-232.889 610.561,-234 619.603,-234.2 629.191,-234.246 638.536,-234.2"/>
<polygon fill="black" stroke="black" points="638.574,-237.7 648.544,-234.117 638.516,-230.7 638.574,-237.7"/>
<text text-anchor="middle" x="469.669" y="-230.8" font-family="Times New Roman,serif" font-size="14.00"> (1)</text>
</g>
<!-- node9&#45;&gt;node12 -->
<g id="edge16" class="edge"><title>node9&#45;&gt;node12</title>
<path fill="none" stroke="black" d="M585.624,-70.1032C604.479,-73.0157 627.2,-76.5256 647.037,-79.5899"/>
<polygon fill="black" stroke="black" points="646.695,-83.0785 657.112,-81.1463 647.764,-76.1606 646.695,-83.0785"/>
<text text-anchor="middle" x="620.561" y="-80.8" font-family="Times New Roman,serif" font-size="14.00"> (1)</text>
</g>
<!-- node17 -->
<g id="node18" class="node"><title>node17</title>
<ellipse fill="none" stroke="black" cx="1110.83" cy="-368" rx="42.7926" ry="18"/>
<text text-anchor="middle" x="1110.83" y="-364.3" font-family="Times New Roman,serif" font-size="14.00">Output 0</text>
</g>
<!-- node10&#45;&gt;node17 -->
<g id="edge25" class="edge"><title>node10&#45;&gt;node17</title>
<path fill="none" stroke="black" d="M441.831,-368C471.183,-368 509.865,-368 544.115,-368 544.115,-368 544.115,-368 985.141,-368 1008.87,-368 1035.15,-368 1057.44,-368"/>
<polygon fill="black" stroke="black" points="1057.7,-371.5 1067.7,-368 1057.7,-364.5 1057.7,-371.5"/>
</g>
<!-- node13 -->
<g id="node14" class="node"><title>node13</title>
<ellipse fill="none" stroke="black" cx="840.399" cy="-87" rx="40.8928" ry="18"/>
<text text-anchor="middle" x="840.399" y="-83.3" font-family="Times New Roman,serif" font-size="14.00">(13) OR</text>
</g>
<!-- node11&#45;&gt;node13 -->
<g id="edge18" class="edge"><title>node11&#45;&gt;node13</title>
<path fill="none" stroke="black" d="M405.347,-276.411C421.425,-250.121 455.352,-200.902 497.669,-175 608.377,-107.236 656.624,-141.581 781.452,-106 786.797,-104.476 792.387,-102.779 797.897,-101.042"/>
<polygon fill="black" stroke="black" points="799.208,-104.297 807.657,-97.9041 797.065,-97.6331 799.208,-104.297"/>
<text text-anchor="middle" x="620.561" y="-134.8" font-family="Times New Roman,serif" font-size="14.00"> (1)</text>
</g>
<!-- node11&#45;&gt;node15 -->
<g id="edge21" class="edge"><title>node11&#45;&gt;node15</title>
<path fill="none" stroke="black" d="M435.6,-285.346C450.156,-281.152 466.281,-275.2 479.669,-267 496.726,-256.552 512.591,-240.664 524.311,-227.211"/>
<polygon fill="black" stroke="black" points="527.278,-229.122 531.047,-219.22 521.926,-224.61 527.278,-229.122"/>
<text text-anchor="middle" x="469.669" y="-279.8" font-family="Times New Roman,serif" font-size="14.00"> (0)</text>
</g>
<!-- node12&#45;&gt;node13 -->
<g id="edge17" class="edge"><title>node12&#45;&gt;node13</title>
<path fill="none" stroke="black" d="M737.049,-87C753.126,-87 771.842,-87 788.84,-87"/>
<polygon fill="black" stroke="black" points="789.163,-90.5001 799.163,-87 789.163,-83.5001 789.163,-90.5001"/>
<text text-anchor="middle" x="771.452" y="-90.8" font-family="Times New Roman,serif" font-size="14.00"> (0)</text>
</g>
<!-- node13&#45;&gt;node14 -->
<g id="edge20" class="edge"><title>node13&#45;&gt;node14</title>
<path fill="none" stroke="black" d="M871.806,-75.4156C891.93,-67.749 918.6,-57.5885 940.791,-49.134"/>
<polygon fill="black" stroke="black" points="942.215,-52.3372 950.313,-45.5064 939.722,-45.7959 942.215,-52.3372"/>
<text text-anchor="middle" x="909.345" y="-68.8" font-family="Times New Roman,serif" font-size="14.00"> (1)</text>
</g>
<!-- node19 -->
<g id="node20" class="node"><title>node19</title>
<ellipse fill="none" stroke="black" cx="1110.83" cy="-33" rx="42.7926" ry="18"/>
<text text-anchor="middle" x="1110.83" y="-29.3" font-family="Times New Roman,serif" font-size="14.00">Output 2</text>
</g>
<!-- node14&#45;&gt;node19 -->
<g id="edge27" class="edge"><title>node14&#45;&gt;node19</title>
<path fill="none" stroke="black" d="M1031.22,-33C1039.79,-33 1048.81,-33 1057.56,-33"/>
<polygon fill="black" stroke="black" points="1057.66,-36.5001 1067.66,-33 1057.66,-29.5001 1057.66,-36.5001"/>
</g>
<!-- node15&#45;&gt;node16 -->
<g id="edge23" class="edge"><title>node15&#45;&gt;node16</title>
<path fill="none" stroke="black" d="M587.804,-210.261C601.44,-212.999 616.655,-216.09 630.561,-219 635.031,-219.935 639.673,-220.919 644.325,-221.914"/>
<polygon fill="black" stroke="black" points="643.948,-225.413 654.46,-224.093 645.419,-218.569 643.948,-225.413"/>
<text text-anchor="middle" x="620.561" y="-222.8" font-family="Times New Roman,serif" font-size="14.00"> (0)</text>
</g>
<!-- node18 -->
<g id="node19" class="node"><title>node18</title>
<ellipse fill="none" stroke="black" cx="1110.83" cy="-233" rx="42.7926" ry="18"/>
<text text-anchor="middle" x="1110.83" y="-229.3" font-family="Times New Roman,serif" font-size="14.00">Output 1</text>
</g>
<!-- node16&#45;&gt;node18 -->
<g id="edge26" class="edge"><title>node16&#45;&gt;node18</title>
<path fill="none" stroke="black" d="M743.56,-233C821.054,-233 976.005,-233 1057.3,-233"/>
<polygon fill="black" stroke="black" points="1057.79,-236.5 1067.79,-233 1057.79,-229.5 1057.79,-236.5"/>
</g>
</g>
</svg>
