<?xml version="1.0" encoding="UTF-8" standalone="no"?>
<!DOCTYPE svg PUBLIC "-//W3C//DTD SVG 1.1//EN"
 "http://www.w3.org/Graphics/SVG/1.1/DTD/svg11.dtd">
<!-- Generated by graphviz version 2.38.0 (20140413.2041)
 -->
<!-- Title: NeuralNetwork Pages: 1 -->
<svg width="288pt" height="151pt"
 viewBox="0.00 0.00 288.00 150.51" xmlns="http://www.w3.org/2000/svg" xmlns:xlink="http://www.w3.org/1999/xlink">
<g id="graph0" class="graph" transform="scale(0.213489 0.213489) rotate(0) translate(4 701)">
<title>NeuralNetwork</title>
<polygon fill="white" stroke="none" points="-4,4 -4,-701 1345.02,-701 1345.02,4 -4,4"/>
<!-- node0 -->
<g id="node1" class="node"><title>node0</title>
<ellipse fill="none" stroke="black" cx="42.2463" cy="-597" rx="42.4939" ry="18"/>
<text text-anchor="middle" x="42.2463" y="-593.3" font-family="Times New Roman,serif" font-size="14.00">(0) Input</text>
</g>
<!-- node12 -->
<g id="node13" class="node"><title>node12</title>
<ellipse fill="none" stroke="black" cx="187.938" cy="-630" rx="47.3916" ry="18"/>
<text text-anchor="middle" x="187.938" y="-626.3" font-family="Times New Roman,serif" font-size="14.00">(12) XOR</text>
</g>
<!-- node0&#45;&gt;node12 -->
<g id="edge7" class="edge"><title>node0&#45;&gt;node12</title>
<path fill="none" stroke="black" d="M79.8776,-605.413C97.2162,-609.395 118.19,-614.211 136.962,-618.523"/>
<polygon fill="black" stroke="black" points="136.306,-621.963 146.836,-620.79 137.873,-615.141 136.306,-621.963"/>
<text text-anchor="middle" x="112.493" y="-617.8" font-family="Times New Roman,serif" font-size="14.00"> (0)</text>
</g>
<!-- node21 -->
<g id="node22" class="node"><title>node21</title>
<ellipse fill="none" stroke="black" cx="187.938" cy="-568" rx="47.3916" ry="18"/>
<text text-anchor="middle" x="187.938" y="-564.3" font-family="Times New Roman,serif" font-size="14.00">(21) XOR</text>
</g>
<!-- node0&#45;&gt;node21 -->
<g id="edge22" class="edge"><title>node0&#45;&gt;node21</title>
<path fill="none" stroke="black" d="M76.8799,-586.477C85.1951,-584.117 94.1204,-581.787 102.493,-580 112.159,-577.937 122.526,-576.133 132.571,-574.595"/>
<polygon fill="black" stroke="black" points="133.083,-578.057 142.47,-573.145 132.068,-571.131 133.083,-578.057"/>
<text text-anchor="middle" x="112.493" y="-583.8" font-family="Times New Roman,serif" font-size="14.00"> (0)</text>
</g>
<!-- node1 -->
<g id="node2" class="node"><title>node1</title>
<ellipse fill="none" stroke="black" cx="42.2463" cy="-312" rx="42.4939" ry="18"/>
<text text-anchor="middle" x="42.2463" y="-308.3" font-family="Times New Roman,serif" font-size="14.00">(1) Input</text>
</g>
<!-- node17 -->
<g id="node18" class="node"><title>node17</title>
<ellipse fill="none" stroke="black" cx="343.379" cy="-396" rx="47.3916" ry="18"/>
<text text-anchor="middle" x="343.379" y="-392.3" font-family="Times New Roman,serif" font-size="14.00">(17) XOR</text>
</g>
<!-- node1&#45;&gt;node17 -->
<g id="edge15" class="edge"><title>node1&#45;&gt;node17</title>
<path fill="none" stroke="black" d="M69.5761,-325.857C75.008,-329.588 80.333,-333.999 84.4925,-339 97.7411,-354.928 85.5865,-370.024 102.493,-382 130.972,-402.174 224.7,-401.958 286.218,-399.387"/>
<polygon fill="black" stroke="black" points="286.72,-402.868 296.552,-398.92 286.405,-395.875 286.72,-402.868"/>
<text text-anchor="middle" x="187.938" y="-403.8" font-family="Times New Roman,serif" font-size="14.00"> (0)</text>
</g>
<!-- node19 -->
<g id="node20" class="node"><title>node19</title>
<ellipse fill="none" stroke="black" cx="187.938" cy="-342" rx="47.3916" ry="18"/>
<text text-anchor="middle" x="187.938" y="-338.3" font-family="Times New Roman,serif" font-size="14.00">(19) XOR</text>
</g>
<!-- node1&#45;&gt;node19 -->
<g id="edge18" class="edge"><title>node1&#45;&gt;node19</title>
<path fill="none" stroke="black" d="M82.4831,-317.678C95.2868,-319.733 109.539,-322.236 122.493,-325 127.939,-326.162 133.614,-327.488 139.241,-328.875"/>
<polygon fill="black" stroke="black" points="138.703,-332.35 149.257,-331.416 140.424,-325.565 138.703,-332.35"/>
<text text-anchor="middle" x="112.493" y="-328.8" font-family="Times New Roman,serif" font-size="14.00"> (0)</text>
</g>
<!-- node2 -->
<g id="node3" class="node"><title>node2</title>
<ellipse fill="none" stroke="black" cx="42.2463" cy="-258" rx="42.4939" ry="18"/>
<text text-anchor="middle" x="42.2463" y="-254.3" font-family="Times New Roman,serif" font-size="14.00">(2) Input</text>
</g>
<!-- node9 -->
<g id="node10" class="node"><title>node9</title>
<ellipse fill="none" stroke="black" cx="187.938" cy="-237" rx="42.7926" ry="18"/>
<text text-anchor="middle" x="187.938" y="-233.3" font-family="Times New Roman,serif" font-size="14.00">(9) XOR</text>
</g>
<!-- node2&#45;&gt;node9 -->
<g id="edge2" class="edge"><title>node2&#45;&gt;node9</title>
<path fill="none" stroke="black" d="M82.5107,-252.262C99.3991,-249.793 119.335,-246.88 137.237,-244.264"/>
<polygon fill="black" stroke="black" points="137.833,-247.714 147.222,-242.804 136.821,-240.787 137.833,-247.714"/>
<text text-anchor="middle" x="112.493" y="-251.8" font-family="Times New Roman,serif" font-size="14.00"> (1)</text>
</g>
<!-- node3 -->
<g id="node4" class="node"><title>node3</title>
<ellipse fill="none" stroke="black" cx="42.2463" cy="-79" rx="42.4939" ry="18"/>
<text text-anchor="middle" x="42.2463" y="-75.3" font-family="Times New Roman,serif" font-size="14.00">(3) Input</text>
</g>
<!-- node10 -->
<g id="node11" class="node"><title>node10</title>
<ellipse fill="none" stroke="black" cx="187.938" cy="-34" rx="47.3916" ry="18"/>
<text text-anchor="middle" x="187.938" y="-30.3" font-family="Times New Roman,serif" font-size="14.00">(10) XOR</text>
</g>
<!-- node3&#45;&gt;node10 -->
<g id="edge3" class="edge"><title>node3&#45;&gt;node10</title>
<path fill="none" stroke="black" d="M74.1194,-66.94C83.2014,-63.5545 93.195,-59.9857 102.493,-57 114.021,-53.2978 126.555,-49.6719 138.351,-46.4334"/>
<polygon fill="black" stroke="black" points="139.308,-49.8003 148.048,-43.8111 137.481,-43.043 139.308,-49.8003"/>
<text text-anchor="middle" x="112.493" y="-60.8" font-family="Times New Roman,serif" font-size="14.00"> (0)</text>
</g>
<!-- node14 -->
<g id="node15" class="node"><title>node14</title>
<ellipse fill="none" stroke="black" cx="503.37" cy="-169" rx="46.5926" ry="18"/>
<text text-anchor="middle" x="503.37" y="-165.3" font-family="Times New Roman,serif" font-size="14.00">(14) AND</text>
</g>
<!-- node3&#45;&gt;node14 -->
<g id="edge11" class="edge"><title>node3&#45;&gt;node14</title>
<path fill="none" stroke="black" d="M76.1869,-90.0277C123.367,-105.454 213.135,-133.438 291.384,-150 344.94,-161.335 358.81,-162.6 413.375,-167 423.881,-167.847 435.106,-168.385 445.921,-168.718"/>
<polygon fill="black" stroke="black" points="446.042,-172.222 456.128,-168.978 446.22,-165.224 446.042,-172.222"/>
<text text-anchor="middle" x="263.384" y="-148.8" font-family="Times New Roman,serif" font-size="14.00"> (1)</text>
</g>
<!-- node4 -->
<g id="node5" class="node"><title>node4</title>
<ellipse fill="none" stroke="black" cx="42.2463" cy="-508" rx="42.4939" ry="18"/>
<text text-anchor="middle" x="42.2463" y="-504.3" font-family="Times New Roman,serif" font-size="14.00">(4) Input</text>
</g>
<!-- node4&#45;&gt;node19 -->
<g id="edge19" class="edge"><title>node4&#45;&gt;node19</title>
<path fill="none" stroke="black" d="M48.7845,-489.821C57.0913,-465.013 74.8203,-420.297 102.493,-391 114.637,-378.142 130.911,-367.626 145.93,-359.678"/>
<polygon fill="black" stroke="black" points="147.721,-362.694 155.071,-355.063 144.567,-356.445 147.721,-362.694"/>
<text text-anchor="middle" x="112.493" y="-394.8" font-family="Times New Roman,serif" font-size="14.00"> (1)</text>
</g>
<!-- node4&#45;&gt;node21 -->
<g id="edge23" class="edge"><title>node4&#45;&gt;node21</title>
<path fill="none" stroke="black" d="M73.0193,-520.432C94.1884,-529.271 122.882,-541.252 146.175,-550.979"/>
<polygon fill="black" stroke="black" points="144.885,-554.233 155.461,-554.857 147.582,-547.774 144.885,-554.233"/>
<text text-anchor="middle" x="112.493" y="-542.8" font-family="Times New Roman,serif" font-size="14.00"> (1)</text>
</g>
<!-- node33 -->
<g id="node34" class="node"><title>node33</title>
<ellipse fill="none" stroke="black" cx="731.103" cy="-508" rx="47.3916" ry="18"/>
<text text-anchor="middle" x="731.103" y="-504.3" font-family="Times New Roman,serif" font-size="14.00">(33) XOR</text>
</g>
<!-- node4&#45;&gt;node33 -->
<g id="edge41" class="edge"><title>node4&#45;&gt;node33</title>
<path fill="none" stroke="black" d="M84.747,-508C113.446,-508 152.512,-508 186.938,-508 186.938,-508 186.938,-508 504.37,-508 561.815,-508 627.484,-508 673.124,-508"/>
<polygon fill="black" stroke="black" points="673.412,-511.5 683.412,-508 673.412,-504.5 673.412,-511.5"/>
<text text-anchor="middle" x="343.379" y="-511.8" font-family="Times New Roman,serif" font-size="14.00"> (0)</text>
</g>
<!-- node5 -->
<g id="node6" class="node"><title>node5</title>
<ellipse fill="none" stroke="black" cx="42.2463" cy="-366" rx="42.4939" ry="18"/>
<text text-anchor="middle" x="42.2463" y="-362.3" font-family="Times New Roman,serif" font-size="14.00">(5) Input</text>
</g>
<!-- node11 -->
<g id="node12" class="node"><title>node11</title>
<ellipse fill="none" stroke="black" cx="187.938" cy="-182" rx="47.3916" ry="18"/>
<text text-anchor="middle" x="187.938" y="-178.3" font-family="Times New Roman,serif" font-size="14.00">(11) XOR</text>
</g>
<!-- node5&#45;&gt;node11 -->
<g id="edge6" class="edge"><title>node5&#45;&gt;node11</title>
<path fill="none" stroke="black" d="M71.113,-352.643C76.3268,-348.926 81.1734,-344.394 84.4925,-339 103.243,-308.527 75.8156,-202.844 102.493,-179 112.966,-169.639 127.42,-167.7 141.41,-168.941"/>
<polygon fill="black" stroke="black" points="141.064,-172.427 151.452,-170.347 142.034,-165.495 141.064,-172.427"/>
<text text-anchor="middle" x="112.493" y="-182.8" font-family="Times New Roman,serif" font-size="14.00"> (1)</text>
</g>
<!-- node16 -->
<g id="node17" class="node"><title>node16</title>
<ellipse fill="none" stroke="black" cx="187.938" cy="-447" rx="46.2923" ry="18"/>
<text text-anchor="middle" x="187.938" y="-443.3" font-family="Times New Roman,serif" font-size="14.00">(16) NEG</text>
</g>
<!-- node5&#45;&gt;node16 -->
<g id="edge14" class="edge"><title>node5&#45;&gt;node16</title>
<path fill="none" stroke="black" d="M62.4963,-382.036C73.7286,-390.94 88.4196,-401.832 102.493,-410 115.765,-417.703 130.94,-424.826 144.732,-430.723"/>
<polygon fill="black" stroke="black" points="143.442,-433.977 154.018,-434.602 146.14,-427.518 143.442,-433.977"/>
<text text-anchor="middle" x="112.493" y="-423.8" font-family="Times New Roman,serif" font-size="14.00"> (0)</text>
</g>
<!-- node30 -->
<g id="node31" class="node"><title>node30</title>
<ellipse fill="none" stroke="black" cx="343.379" cy="-286" rx="47.3916" ry="18"/>
<text text-anchor="middle" x="343.379" y="-282.3" font-family="Times New Roman,serif" font-size="14.00">(30) XOR</text>
</g>
<!-- node5&#45;&gt;node30 -->
<g id="edge37" class="edge"><title>node5&#45;&gt;node30</title>
<path fill="none" stroke="black" d="M66.4473,-350.979C72.3544,-347.109 78.6764,-342.928 84.4925,-339 87.6344,-336.878 136.917,-301.26 140.493,-300 187.842,-283.316 245.232,-280.895 286.701,-282.013"/>
<polygon fill="black" stroke="black" points="286.77,-285.517 296.886,-282.367 287.013,-278.521 286.77,-285.517"/>
<text text-anchor="middle" x="187.938" y="-303.8" font-family="Times New Roman,serif" font-size="14.00"> (0)</text>
</g>
<!-- node6 -->
<g id="node7" class="node"><title>node6</title>
<ellipse fill="none" stroke="black" cx="42.2463" cy="-144" rx="42.4939" ry="18"/>
<text text-anchor="middle" x="42.2463" y="-140.3" font-family="Times New Roman,serif" font-size="14.00">(6) Input</text>
</g>
<!-- node6&#45;&gt;node9 -->
<g id="edge1" class="edge"><title>node6&#45;&gt;node9</title>
<path fill="none" stroke="black" d="M58.7158,-160.578C70.0609,-172.087 86.2578,-187.227 102.493,-198 115.83,-206.851 131.5,-214.695 145.696,-220.985"/>
<polygon fill="black" stroke="black" points="144.672,-224.354 155.242,-225.084 147.434,-217.922 144.672,-224.354"/>
<text text-anchor="middle" x="112.493" y="-212.8" font-family="Times New Roman,serif" font-size="14.00"> (0)</text>
</g>
<!-- node6&#45;&gt;node11 -->
<g id="edge5" class="edge"><title>node6&#45;&gt;node11</title>
<path fill="none" stroke="black" d="M84.1114,-140.595C96.6135,-140.593 110.282,-141.661 122.493,-145 134.428,-148.263 146.465,-154.275 156.853,-160.517"/>
<polygon fill="black" stroke="black" points="155.192,-163.607 165.514,-165.998 158.936,-157.693 155.192,-163.607"/>
<text text-anchor="middle" x="112.493" y="-148.8" font-family="Times New Roman,serif" font-size="14.00"> (0)</text>
</g>
<!-- node28 -->
<g id="node29" class="node"><title>node28</title>
<ellipse fill="none" stroke="black" cx="881.995" cy="-77" rx="47.3916" ry="18"/>
<text text-anchor="middle" x="881.995" y="-73.3" font-family="Times New Roman,serif" font-size="14.00">(28) XOR</text>
</g>
<!-- node6&#45;&gt;node28 -->
<g id="edge34" class="edge"><title>node6&#45;&gt;node28</title>
<path fill="none" stroke="black" d="M77.3897,-133.824C143.394,-115.081 293.372,-77 422.375,-77 422.375,-77 422.375,-77 732.103,-77 762.474,-77 796.328,-77 824.073,-77"/>
<polygon fill="black" stroke="black" points="824.387,-80.5001 834.387,-77 824.386,-73.5001 824.387,-80.5001"/>
<text text-anchor="middle" x="423.375" y="-81.8" font-family="Times New Roman,serif" font-size="14.00"> (1)</text>
</g>
<!-- node7 -->
<g id="node8" class="node"><title>node7</title>
<ellipse fill="none" stroke="black" cx="42.2463" cy="-18" rx="42.4939" ry="18"/>
<text text-anchor="middle" x="42.2463" y="-14.3" font-family="Times New Roman,serif" font-size="14.00">(7) Input</text>
</g>
<!-- node7&#45;&gt;node10 -->
<g id="edge4" class="edge"><title>node7&#45;&gt;node10</title>
<path fill="none" stroke="black" d="M84.4889,-16.8361C96.7552,-16.9435 110.199,-17.5096 122.493,-19 127.705,-19.6319 133.11,-20.5163 138.473,-21.5428"/>
<polygon fill="black" stroke="black" points="138.169,-25.0545 148.673,-23.6631 139.594,-18.201 138.169,-25.0545"/>
<text text-anchor="middle" x="112.493" y="-22.8" font-family="Times New Roman,serif" font-size="14.00"> (1)</text>
</g>
<!-- node8 -->
<g id="node9" class="node"><title>node8</title>
<ellipse fill="none" stroke="black" cx="42.2463" cy="-670" rx="42.4939" ry="18"/>
<text text-anchor="middle" x="42.2463" y="-666.3" font-family="Times New Roman,serif" font-size="14.00">(8) Input</text>
</g>
<!-- node8&#45;&gt;node12 -->
<g id="edge8" class="edge"><title>node8&#45;&gt;node12</title>
<path fill="none" stroke="black" d="M78.0301,-660.317C96.4331,-655.194 119.304,-648.828 139.329,-643.253"/>
<polygon fill="black" stroke="black" points="140.505,-646.559 149.2,-640.505 138.627,-639.815 140.505,-646.559"/>
<text text-anchor="middle" x="112.493" y="-655.8" font-family="Times New Roman,serif" font-size="14.00"> (1)</text>
</g>
<!-- node25 -->
<g id="node26" class="node"><title>node25</title>
<ellipse fill="none" stroke="black" cx="343.379" cy="-679" rx="47.3916" ry="18"/>
<text text-anchor="middle" x="343.379" y="-675.3" font-family="Times New Roman,serif" font-size="14.00">(25) XOR</text>
</g>
<!-- node8&#45;&gt;node25 -->
<g id="edge27" class="edge"><title>node8&#45;&gt;node25</title>
<path fill="none" stroke="black" d="M84.5254,-671.242C136.763,-672.814 226.986,-675.528 285.664,-677.294"/>
<polygon fill="black" stroke="black" points="285.776,-680.798 295.877,-677.601 285.987,-673.802 285.776,-680.798"/>
<text text-anchor="middle" x="187.938" y="-678.8" font-family="Times New Roman,serif" font-size="14.00"> (0)</text>
</g>
<!-- node15 -->
<g id="node16" class="node"><title>node15</title>
<ellipse fill="none" stroke="black" cx="343.379" cy="-223" rx="46.5926" ry="18"/>
<text text-anchor="middle" x="343.379" y="-219.3" font-family="Times New Roman,serif" font-size="14.00">(15) AND</text>
</g>
<!-- node9&#45;&gt;node15 -->
<g id="edge13" class="edge"><title>node9&#45;&gt;node15</title>
<path fill="none" stroke="black" d="M225.9,-228.307C234.847,-226.547 244.417,-224.946 253.384,-224 263.981,-222.882 275.326,-222.293 286.248,-222.031"/>
<polygon fill="black" stroke="black" points="286.607,-225.526 296.552,-221.872 286.499,-218.526 286.607,-225.526"/>
<text text-anchor="middle" x="263.384" y="-227.8" font-family="Times New Roman,serif" font-size="14.00"> (1)</text>
</g>
<!-- node9&#45;&gt;node30 -->
<g id="edge38" class="edge"><title>node9&#45;&gt;node30</title>
<path fill="none" stroke="black" d="M223.974,-246.973C239.206,-251.411 257.228,-256.802 273.384,-262 281.541,-264.624 290.198,-267.535 298.523,-270.399"/>
<polygon fill="black" stroke="black" points="297.499,-273.748 308.093,-273.718 299.792,-267.134 297.499,-273.748"/>
<text text-anchor="middle" x="263.384" y="-265.8" font-family="Times New Roman,serif" font-size="14.00"> (1)</text>
</g>
<!-- node13 -->
<g id="node14" class="node"><title>node13</title>
<ellipse fill="none" stroke="black" cx="343.379" cy="-123" rx="46.2923" ry="18"/>
<text text-anchor="middle" x="343.379" y="-119.3" font-family="Times New Roman,serif" font-size="14.00">(13) NEG</text>
</g>
<!-- node10&#45;&gt;node13 -->
<g id="edge9" class="edge"><title>node10&#45;&gt;node13</title>
<path fill="none" stroke="black" d="M214.621,-48.8966C240.256,-63.7658 279.805,-86.7052 308.107,-103.121"/>
<polygon fill="black" stroke="black" points="306.463,-106.213 316.869,-108.203 309.975,-100.158 306.463,-106.213"/>
<text text-anchor="middle" x="263.384" y="-85.8" font-family="Times New Roman,serif" font-size="14.00"> (0)</text>
</g>
<!-- node39 -->
<g id="node40" class="node"><title>node39</title>
<ellipse fill="none" stroke="black" cx="1032.89" cy="-39" rx="47.3916" ry="18"/>
<text text-anchor="middle" x="1032.89" y="-35.3" font-family="Times New Roman,serif" font-size="14.00">(39) XOR</text>
</g>
<!-- node10&#45;&gt;node39 -->
<g id="edge53" class="edge"><title>node10&#45;&gt;node39</title>
<path fill="none" stroke="black" d="M233.516,-28.6667C264.1,-25.4618 305.639,-22 342.379,-22 342.379,-22 342.379,-22 882.995,-22 915.087,-22 950.821,-25.9469 979.236,-30.0372"/>
<polygon fill="black" stroke="black" points="978.947,-33.5326 989.354,-31.5436 979.978,-26.609 978.947,-33.5326"/>
<text text-anchor="middle" x="619.512" y="-25.8" font-family="Times New Roman,serif" font-size="14.00"> (0)</text>
</g>
<!-- node11&#45;&gt;node15 -->
<g id="edge12" class="edge"><title>node11&#45;&gt;node15</title>
<path fill="none" stroke="black" d="M228.543,-191.516C242.72,-195.01 258.796,-199.073 273.384,-203 280.753,-204.983 288.541,-207.161 296.126,-209.327"/>
<polygon fill="black" stroke="black" points="295.351,-212.746 305.93,-212.151 297.289,-206.02 295.351,-212.746"/>
<text text-anchor="middle" x="263.384" y="-206.8" font-family="Times New Roman,serif" font-size="14.00"> (0)</text>
</g>
<!-- node23 -->
<g id="node24" class="node"><title>node23</title>
<ellipse fill="none" stroke="black" cx="343.379" cy="-620" rx="46.2923" ry="18"/>
<text text-anchor="middle" x="343.379" y="-616.3" font-family="Times New Roman,serif" font-size="14.00">(23) NEG</text>
</g>
<!-- node12&#45;&gt;node23 -->
<g id="edge26" class="edge"><title>node12&#45;&gt;node23</title>
<path fill="none" stroke="black" d="M234.976,-627C251.424,-625.928 270.125,-624.709 287.261,-623.592"/>
<polygon fill="black" stroke="black" points="287.942,-627.055 297.693,-622.912 287.487,-620.07 287.942,-627.055"/>
<text text-anchor="middle" x="263.384" y="-628.8" font-family="Times New Roman,serif" font-size="14.00"> (0)</text>
</g>
<!-- node13&#45;&gt;node14 -->
<g id="edge10" class="edge"><title>node13&#45;&gt;node14</title>
<path fill="none" stroke="black" d="M381.023,-133.669C403.276,-140.148 431.896,-148.481 455.752,-155.427"/>
<polygon fill="black" stroke="black" points="455.073,-158.874 465.652,-158.309 457.029,-152.153 455.073,-158.874"/>
<text text-anchor="middle" x="423.375" y="-151.8" font-family="Times New Roman,serif" font-size="14.00"> (0)</text>
</g>
<!-- node18 -->
<g id="node19" class="node"><title>node18</title>
<ellipse fill="none" stroke="black" cx="619.512" cy="-119" rx="46.2923" ry="18"/>
<text text-anchor="middle" x="619.512" y="-115.3" font-family="Times New Roman,serif" font-size="14.00">(18) NEG</text>
</g>
<!-- node13&#45;&gt;node18 -->
<g id="edge17" class="edge"><title>node13&#45;&gt;node18</title>
<path fill="none" stroke="black" d="M389.647,-122.339C437.165,-121.646 511.927,-120.555 562.98,-119.81"/>
<polygon fill="black" stroke="black" points="563.229,-123.307 573.177,-119.661 563.127,-116.308 563.229,-123.307"/>
<text text-anchor="middle" x="423.375" y="-125.8" font-family="Times New Roman,serif" font-size="14.00"> (0)</text>
</g>
<!-- node31 -->
<g id="node32" class="node"><title>node31</title>
<ellipse fill="none" stroke="black" cx="1177.28" cy="-150" rx="40.8928" ry="18"/>
<text text-anchor="middle" x="1177.28" y="-146.3" font-family="Times New Roman,serif" font-size="14.00">(31) OR</text>
</g>
<!-- node14&#45;&gt;node31 -->
<g id="edge40" class="edge"><title>node14&#45;&gt;node31</title>
<path fill="none" stroke="black" d="M550.198,-169C595.804,-169 667.792,-169 730.103,-169 730.103,-169 730.103,-169 1033.89,-169 1066.06,-169 1101.97,-164.174 1129.68,-159.387"/>
<polygon fill="black" stroke="black" points="1130.65,-162.77 1139.87,-157.564 1129.41,-155.879 1130.65,-162.77"/>
<text text-anchor="middle" x="881.995" y="-172.8" font-family="Times New Roman,serif" font-size="14.00"> (1)</text>
</g>
<!-- node22 -->
<g id="node23" class="node"><title>node22</title>
<ellipse fill="none" stroke="black" cx="731.103" cy="-223" rx="46.5926" ry="18"/>
<text text-anchor="middle" x="731.103" y="-219.3" font-family="Times New Roman,serif" font-size="14.00">(22) AND</text>
</g>
<!-- node15&#45;&gt;node22 -->
<g id="edge24" class="edge"><title>node15&#45;&gt;node22</title>
<path fill="none" stroke="black" d="M390.524,-223C461.474,-223 597.167,-223 673.798,-223"/>
<polygon fill="black" stroke="black" points="674.206,-226.5 684.206,-223 674.206,-219.5 674.206,-226.5"/>
<text text-anchor="middle" x="503.37" y="-226.8" font-family="Times New Roman,serif" font-size="14.00"> (0)</text>
</g>
<!-- node16&#45;&gt;node17 -->
<g id="edge16" class="edge"><title>node16&#45;&gt;node17</title>
<path fill="none" stroke="black" d="M223.756,-435.427C245.574,-428.176 273.914,-418.756 297.422,-410.943"/>
<polygon fill="black" stroke="black" points="298.782,-414.179 307.168,-407.703 296.574,-407.536 298.782,-414.179"/>
<text text-anchor="middle" x="263.384" y="-427.8" font-family="Times New Roman,serif" font-size="14.00"> (1)</text>
</g>
<!-- node20 -->
<g id="node21" class="node"><title>node20</title>
<ellipse fill="none" stroke="black" cx="503.37" cy="-334" rx="40.8928" ry="18"/>
<text text-anchor="middle" x="503.37" y="-330.3" font-family="Times New Roman,serif" font-size="14.00">(20) OR</text>
</g>
<!-- node17&#45;&gt;node20 -->
<g id="edge21" class="edge"><title>node17&#45;&gt;node20</title>
<path fill="none" stroke="black" d="M377.115,-383.154C402.07,-373.361 436.533,-359.836 462.994,-349.452"/>
<polygon fill="black" stroke="black" points="464.318,-352.693 472.348,-345.781 461.761,-346.176 464.318,-352.693"/>
<text text-anchor="middle" x="423.375" y="-371.8" font-family="Times New Roman,serif" font-size="14.00"> (1)</text>
</g>
<!-- node34 -->
<g id="node35" class="node"><title>node34</title>
<ellipse fill="none" stroke="black" cx="503.37" cy="-444" rx="47.3916" ry="18"/>
<text text-anchor="middle" x="503.37" y="-440.3" font-family="Times New Roman,serif" font-size="14.00">(34) XOR</text>
</g>
<!-- node17&#45;&gt;node34 -->
<g id="edge43" class="edge"><title>node17&#45;&gt;node34</title>
<path fill="none" stroke="black" d="M381.023,-407.133C403.456,-413.948 432.358,-422.729 456.329,-430.012"/>
<polygon fill="black" stroke="black" points="455.34,-433.369 465.926,-432.928 457.375,-426.672 455.34,-433.369"/>
<text text-anchor="middle" x="423.375" y="-425.8" font-family="Times New Roman,serif" font-size="14.00"> (0)</text>
</g>
<!-- node29 -->
<g id="node30" class="node"><title>node29</title>
<ellipse fill="none" stroke="black" cx="1032.89" cy="-123" rx="46.5926" ry="18"/>
<text text-anchor="middle" x="1032.89" y="-119.3" font-family="Times New Roman,serif" font-size="14.00">(29) AND</text>
</g>
<!-- node18&#45;&gt;node29 -->
<g id="edge35" class="edge"><title>node18&#45;&gt;node29</title>
<path fill="none" stroke="black" d="M665.713,-119.44C741.372,-120.175 893.448,-121.654 975.809,-122.455"/>
<polygon fill="black" stroke="black" points="975.949,-125.956 985.982,-122.554 976.017,-118.956 975.949,-125.956"/>
<text text-anchor="middle" x="806.549" y="-124.8" font-family="Times New Roman,serif" font-size="14.00"> (0)</text>
</g>
<!-- node19&#45;&gt;node20 -->
<g id="edge20" class="edge"><title>node19&#45;&gt;node20</title>
<path fill="none" stroke="black" d="M235.524,-340.811C293.438,-339.333 391.927,-336.819 451.684,-335.294"/>
<polygon fill="black" stroke="black" points="452.104,-338.784 462.011,-335.03 451.925,-331.787 452.104,-338.784"/>
<text text-anchor="middle" x="343.379" y="-342.8" font-family="Times New Roman,serif" font-size="14.00"> (0)</text>
</g>
<!-- node20&#45;&gt;node22 -->
<g id="edge25" class="edge"><title>node20&#45;&gt;node22</title>
<path fill="none" stroke="black" d="M531.599,-320.611C571.667,-300.908 646.666,-264.029 692.126,-241.675"/>
<polygon fill="black" stroke="black" points="693.925,-244.69 701.355,-237.137 690.836,-238.408 693.925,-244.69"/>
<text text-anchor="middle" x="619.512" y="-301.8" font-family="Times New Roman,serif" font-size="14.00"> (1)</text>
</g>
<!-- node26 -->
<g id="node27" class="node"><title>node26</title>
<ellipse fill="none" stroke="black" cx="731.103" cy="-337" rx="47.3916" ry="18"/>
<text text-anchor="middle" x="731.103" y="-333.3" font-family="Times New Roman,serif" font-size="14.00">(26) XOR</text>
</g>
<!-- node20&#45;&gt;node26 -->
<g id="edge29" class="edge"><title>node20&#45;&gt;node26</title>
<path fill="none" stroke="black" d="M544.467,-334.533C580.247,-335.008 633.036,-335.71 673.183,-336.244"/>
<polygon fill="black" stroke="black" points="673.315,-339.745 683.361,-336.379 673.408,-332.746 673.315,-339.745"/>
<text text-anchor="middle" x="619.512" y="-339.8" font-family="Times New Roman,serif" font-size="14.00"> (0)</text>
</g>
<!-- node21&#45;&gt;node25 -->
<g id="edge28" class="edge"><title>node21&#45;&gt;node25</title>
<path fill="none" stroke="black" d="M227.481,-578.024C243.334,-583.755 260.872,-592.386 273.384,-605 287.686,-619.418 278.182,-631.567 291.384,-647 295.258,-651.528 299.936,-655.627 304.867,-659.263"/>
<polygon fill="black" stroke="black" points="303.057,-662.263 313.309,-664.938 306.963,-656.454 303.057,-662.263"/>
<text text-anchor="middle" x="263.384" y="-608.8" font-family="Times New Roman,serif" font-size="14.00"> (1)</text>
</g>
<!-- node27 -->
<g id="node28" class="node"><title>node27</title>
<ellipse fill="none" stroke="black" cx="503.37" cy="-557" rx="46.5926" ry="18"/>
<text text-anchor="middle" x="503.37" y="-553.3" font-family="Times New Roman,serif" font-size="14.00">(27) AND</text>
</g>
<!-- node21&#45;&gt;node27 -->
<g id="edge32" class="edge"><title>node21&#45;&gt;node27</title>
<path fill="none" stroke="black" d="M235.524,-566.365C291.785,-564.391 386.336,-561.072 446.473,-558.962"/>
<polygon fill="black" stroke="black" points="446.679,-562.457 456.55,-558.608 446.433,-555.461 446.679,-562.457"/>
<text text-anchor="middle" x="343.379" y="-567.8" font-family="Times New Roman,serif" font-size="14.00"> (1)</text>
</g>
<!-- node22&#45;&gt;node28 -->
<g id="edge33" class="edge"><title>node22&#45;&gt;node28</title>
<path fill="none" stroke="black" d="M749.694,-206.373C766.862,-190.087 793.666,-164.508 816.549,-142 830.153,-128.619 845.174,-113.49 857.289,-101.197"/>
<polygon fill="black" stroke="black" points="859.901,-103.533 864.419,-93.9502 854.911,-98.6242 859.901,-103.533"/>
<text text-anchor="middle" x="806.549" y="-162.8" font-family="Times New Roman,serif" font-size="14.00"> (0)</text>
</g>
<!-- node23&#45;&gt;node27 -->
<g id="edge31" class="edge"><title>node23&#45;&gt;node27</title>
<path fill="none" stroke="black" d="M376.351,-607.251C400.684,-597.548 434.375,-584.114 460.799,-573.577"/>
<polygon fill="black" stroke="black" points="462.183,-576.793 470.175,-569.838 459.59,-570.291 462.183,-576.793"/>
<text text-anchor="middle" x="423.375" y="-595.8" font-family="Times New Roman,serif" font-size="14.00"> (0)</text>
</g>
<!-- node24 -->
<g id="node25" class="node"><title>node24</title>
<ellipse fill="none" stroke="black" cx="503.37" cy="-388" rx="51.9908" ry="18"/>
<text text-anchor="middle" x="503.37" y="-384.3" font-family="Times New Roman,serif" font-size="14.00">(24) ONES</text>
</g>
<!-- node24&#45;&gt;node26 -->
<g id="edge30" class="edge"><title>node24&#45;&gt;node26</title>
<path fill="none" stroke="black" d="M549.749,-379.603C582.173,-373.387 626.763,-364.398 665.657,-355 671.372,-353.619 677.346,-352.081 683.253,-350.501"/>
<polygon fill="black" stroke="black" points="684.347,-353.831 693.074,-347.824 682.506,-347.077 684.347,-353.831"/>
<text text-anchor="middle" x="619.512" y="-377.8" font-family="Times New Roman,serif" font-size="14.00"> (1)</text>
</g>
<!-- node40 -->
<g id="node41" class="node"><title>node40</title>
<ellipse fill="none" stroke="black" cx="1298.12" cy="-679" rx="42.7926" ry="18"/>
<text text-anchor="middle" x="1298.12" y="-675.3" font-family="Times New Roman,serif" font-size="14.00">Output 0</text>
</g>
<!-- node25&#45;&gt;node40 -->
<g id="edge55" class="edge"><title>node25&#45;&gt;node40</title>
<path fill="none" stroke="black" d="M391.043,-679C422.498,-679 464.93,-679 502.37,-679 502.37,-679 502.37,-679 1178.28,-679 1200.08,-679 1224.12,-679 1244.85,-679"/>
<polygon fill="black" stroke="black" points="1245.05,-682.5 1255.05,-679 1245.05,-675.5 1245.05,-682.5"/>
</g>
<!-- node37 -->
<g id="node38" class="node"><title>node37</title>
<ellipse fill="none" stroke="black" cx="881.995" cy="-337" rx="47.3916" ry="18"/>
<text text-anchor="middle" x="881.995" y="-333.3" font-family="Times New Roman,serif" font-size="14.00">(37) XOR</text>
</g>
<!-- node26&#45;&gt;node37 -->
<g id="edge50" class="edge"><title>node26&#45;&gt;node37</title>
<path fill="none" stroke="black" d="M778.805,-337C793.218,-337 809.25,-337 824.261,-337"/>
<polygon fill="black" stroke="black" points="824.459,-340.5 834.459,-337 824.459,-333.5 824.459,-340.5"/>
<text text-anchor="middle" x="806.549" y="-340.8" font-family="Times New Roman,serif" font-size="14.00"> (1)</text>
</g>
<!-- node27&#45;&gt;node33 -->
<g id="edge42" class="edge"><title>node27&#45;&gt;node33</title>
<path fill="none" stroke="black" d="M544.471,-548.3C577.105,-541.22 624.357,-530.967 665.657,-522 670.121,-521.031 674.758,-520.024 679.406,-519.014"/>
<polygon fill="black" stroke="black" points="680.508,-522.357 689.537,-516.814 679.022,-515.516 680.508,-522.357"/>
<text text-anchor="middle" x="619.512" y="-544.8" font-family="Times New Roman,serif" font-size="14.00"> (1)</text>
</g>
<!-- node36 -->
<g id="node37" class="node"><title>node36</title>
<ellipse fill="none" stroke="black" cx="731.103" cy="-391" rx="46.5926" ry="18"/>
<text text-anchor="middle" x="731.103" y="-387.3" font-family="Times New Roman,serif" font-size="14.00">(36) AND</text>
</g>
<!-- node27&#45;&gt;node36 -->
<g id="edge47" class="edge"><title>node27&#45;&gt;node36</title>
<path fill="none" stroke="black" d="M524.748,-540.735C538.405,-529.912 556.845,-515.45 573.366,-503 621.726,-466.555 634.211,-457.959 683.657,-423 688.575,-419.523 693.81,-415.87 698.926,-412.326"/>
<polygon fill="black" stroke="black" points="701.105,-415.076 707.348,-406.515 697.13,-409.314 701.105,-415.076"/>
<text text-anchor="middle" x="619.512" y="-506.8" font-family="Times New Roman,serif" font-size="14.00"> (0)</text>
</g>
<!-- node28&#45;&gt;node29 -->
<g id="edge36" class="edge"><title>node28&#45;&gt;node29</title>
<path fill="none" stroke="black" d="M926.433,-83.8117C939.751,-86.4142 954.341,-89.793 967.441,-94 976.448,-96.8928 985.876,-100.674 994.654,-104.546"/>
<polygon fill="black" stroke="black" points="993.323,-107.785 1003.87,-108.745 996.224,-101.415 993.323,-107.785"/>
<text text-anchor="middle" x="957.441" y="-97.8" font-family="Times New Roman,serif" font-size="14.00"> (1)</text>
</g>
<!-- node28&#45;&gt;node39 -->
<g id="edge54" class="edge"><title>node28&#45;&gt;node39</title>
<path fill="none" stroke="black" d="M917.559,-64.9183C927.168,-61.7841 937.652,-58.5707 947.441,-56 957.744,-53.294 968.852,-50.7776 979.519,-48.5549"/>
<polygon fill="black" stroke="black" points="980.465,-51.9344 989.57,-46.5172 979.074,-45.0739 980.465,-51.9344"/>
<text text-anchor="middle" x="957.441" y="-59.8" font-family="Times New Roman,serif" font-size="14.00"> (1)</text>
</g>
<!-- node29&#45;&gt;node31 -->
<g id="edge39" class="edge"><title>node29&#45;&gt;node31</title>
<path fill="none" stroke="black" d="M1075.07,-130.81C1091.96,-134.012 1111.61,-137.738 1129.08,-141.05"/>
<polygon fill="black" stroke="black" points="1128.6,-144.521 1139.07,-142.945 1129.9,-137.643 1128.6,-144.521"/>
<text text-anchor="middle" x="1108.33" y="-141.8" font-family="Times New Roman,serif" font-size="14.00"> (0)</text>
</g>
<!-- node38 -->
<g id="node39" class="node"><title>node38</title>
<ellipse fill="none" stroke="black" cx="1032.89" cy="-303" rx="47.3916" ry="18"/>
<text text-anchor="middle" x="1032.89" y="-299.3" font-family="Times New Roman,serif" font-size="14.00">(38) XOR</text>
</g>
<!-- node30&#45;&gt;node38 -->
<g id="edge52" class="edge"><title>node30&#45;&gt;node38</title>
<path fill="none" stroke="black" d="M391.043,-286C422.498,-286 464.93,-286 502.37,-286 502.37,-286 502.37,-286 882.995,-286 915.087,-286 950.821,-289.947 979.236,-294.037"/>
<polygon fill="black" stroke="black" points="978.947,-297.533 989.354,-295.544 979.978,-290.609 978.947,-297.533"/>
<text text-anchor="middle" x="731.103" y="-289.8" font-family="Times New Roman,serif" font-size="14.00"> (1)</text>
</g>
<!-- node44 -->
<g id="node45" class="node"><title>node44</title>
<ellipse fill="none" stroke="black" cx="1298.12" cy="-150" rx="42.7926" ry="18"/>
<text text-anchor="middle" x="1298.12" y="-146.3" font-family="Times New Roman,serif" font-size="14.00">Output 4</text>
</g>
<!-- node31&#45;&gt;node44 -->
<g id="edge59" class="edge"><title>node31&#45;&gt;node44</title>
<path fill="none" stroke="black" d="M1218.51,-150C1226.93,-150 1235.93,-150 1244.72,-150"/>
<polygon fill="black" stroke="black" points="1244.9,-153.5 1254.9,-150 1244.9,-146.5 1244.9,-153.5"/>
</g>
<!-- node32 -->
<g id="node33" class="node"><title>node32</title>
<ellipse fill="none" stroke="black" cx="343.379" cy="-450" rx="51.9908" ry="18"/>
<text text-anchor="middle" x="343.379" y="-446.3" font-family="Times New Roman,serif" font-size="14.00">(32) ONES</text>
</g>
<!-- node32&#45;&gt;node34 -->
<g id="edge44" class="edge"><title>node32&#45;&gt;node34</title>
<path fill="none" stroke="black" d="M395.238,-448.069C411.374,-447.456 429.311,-446.775 445.822,-446.148"/>
<polygon fill="black" stroke="black" points="446.029,-449.642 455.889,-445.765 445.763,-442.647 446.029,-449.642"/>
<text text-anchor="middle" x="423.375" y="-450.8" font-family="Times New Roman,serif" font-size="14.00"> (1)</text>
</g>
<!-- node35 -->
<g id="node36" class="node"><title>node35</title>
<ellipse fill="none" stroke="black" cx="881.995" cy="-469" rx="47.3916" ry="18"/>
<text text-anchor="middle" x="881.995" y="-465.3" font-family="Times New Roman,serif" font-size="14.00">(35) XOR</text>
</g>
<!-- node33&#45;&gt;node35 -->
<g id="edge46" class="edge"><title>node33&#45;&gt;node35</title>
<path fill="none" stroke="black" d="M770.834,-497.855C789.704,-492.912 812.586,-486.919 832.595,-481.678"/>
<polygon fill="black" stroke="black" points="833.671,-485.014 842.458,-479.094 831.897,-478.242 833.671,-485.014"/>
<text text-anchor="middle" x="806.549" y="-493.8" font-family="Times New Roman,serif" font-size="14.00"> (1)</text>
</g>
<!-- node34&#45;&gt;node35 -->
<g id="edge45" class="edge"><title>node34&#45;&gt;node35</title>
<path fill="none" stroke="black" d="M550.175,-447.04C619.357,-451.633 750.336,-460.327 825.057,-465.287"/>
<polygon fill="black" stroke="black" points="825.004,-468.791 835.214,-465.961 825.468,-461.806 825.004,-468.791"/>
<text text-anchor="middle" x="731.103" y="-465.8" font-family="Times New Roman,serif" font-size="14.00"> (0)</text>
</g>
<!-- node34&#45;&gt;node36 -->
<g id="edge48" class="edge"><title>node34&#45;&gt;node36</title>
<path fill="none" stroke="black" d="M534.079,-430.216C546.068,-425.112 560.166,-419.679 573.366,-416 606.752,-406.694 645.169,-400.497 675.613,-396.601"/>
<polygon fill="black" stroke="black" points="676.117,-400.066 685.613,-395.367 675.259,-393.118 676.117,-400.066"/>
<text text-anchor="middle" x="619.512" y="-419.8" font-family="Times New Roman,serif" font-size="14.00"> (1)</text>
</g>
<!-- node41 -->
<g id="node42" class="node"><title>node41</title>
<ellipse fill="none" stroke="black" cx="1298.12" cy="-469" rx="42.7926" ry="18"/>
<text text-anchor="middle" x="1298.12" y="-465.3" font-family="Times New Roman,serif" font-size="14.00">Output 1</text>
</g>
<!-- node35&#45;&gt;node41 -->
<g id="edge56" class="edge"><title>node35&#45;&gt;node41</title>
<path fill="none" stroke="black" d="M929.695,-469C1007.59,-469 1163.51,-469 1244.92,-469"/>
<polygon fill="black" stroke="black" points="1244.94,-472.5 1254.94,-469 1244.94,-465.5 1244.94,-472.5"/>
</g>
<!-- node36&#45;&gt;node37 -->
<g id="edge49" class="edge"><title>node36&#45;&gt;node37</title>
<path fill="none" stroke="black" d="M765.889,-378.747C787.135,-371.041 814.755,-361.024 837.613,-352.734"/>
<polygon fill="black" stroke="black" points="838.878,-355.998 847.085,-349.298 836.491,-349.418 838.878,-355.998"/>
<text text-anchor="middle" x="806.549" y="-370.8" font-family="Times New Roman,serif" font-size="14.00"> (0)</text>
</g>
<!-- node37&#45;&gt;node38 -->
<g id="edge51" class="edge"><title>node37&#45;&gt;node38</title>
<path fill="none" stroke="black" d="M923.287,-327.799C941.319,-323.682 962.763,-318.785 981.814,-314.434"/>
<polygon fill="black" stroke="black" points="982.85,-317.788 991.82,-312.149 981.292,-310.963 982.85,-317.788"/>
<text text-anchor="middle" x="957.441" y="-325.8" font-family="Times New Roman,serif" font-size="14.00"> (0)</text>
</g>
<!-- node42 -->
<g id="node43" class="node"><title>node42</title>
<ellipse fill="none" stroke="black" cx="1298.12" cy="-303" rx="42.7926" ry="18"/>
<text text-anchor="middle" x="1298.12" y="-299.3" font-family="Times New Roman,serif" font-size="14.00">Output 2</text>
</g>
<!-- node38&#45;&gt;node42 -->
<g id="edge57" class="edge"><title>node38&#45;&gt;node42</title>
<path fill="none" stroke="black" d="M1080.34,-303C1126.41,-303 1196.86,-303 1244.86,-303"/>
<polygon fill="black" stroke="black" points="1245.04,-306.5 1255.04,-303 1245.04,-299.5 1245.04,-306.5"/>
</g>
<!-- node43 -->
<g id="node44" class="node"><title>node43</title>
<ellipse fill="none" stroke="black" cx="1298.12" cy="-39" rx="42.7926" ry="18"/>
<text text-anchor="middle" x="1298.12" y="-35.3" font-family="Times New Roman,serif" font-size="14.00">Output 3</text>
</g>
<!-- node39&#45;&gt;node43 -->
<g id="edge58" class="edge"><title>node39&#45;&gt;node43</title>
<path fill="none" stroke="black" d="M1080.34,-39C1126.41,-39 1196.86,-39 1244.86,-39"/>
<polygon fill="black" stroke="black" points="1245.04,-42.5001 1255.04,-39 1245.04,-35.5001 1245.04,-42.5001"/>
</g>
</g>
</svg>
