<?xml version="1.0" encoding="UTF-8" standalone="no"?>
<!DOCTYPE svg PUBLIC "-//W3C//DTD SVG 1.1//EN"
 "http://www.w3.org/Graphics/SVG/1.1/DTD/svg11.dtd">
<!-- Generated by graphviz version 2.38.0 (20140413.2041)
 -->
<!-- Title: NeuralNetwork Pages: 1 -->
<svg width="288pt" height="122pt"
 viewBox="0.00 0.00 288.00 121.79" xmlns="http://www.w3.org/2000/svg" xmlns:xlink="http://www.w3.org/1999/xlink">
<g id="graph0" class="graph" transform="scale(0.262478 0.262478) rotate(0) translate(4 460)">
<title>NeuralNetwork</title>
<polygon fill="white" stroke="none" points="-4,4 -4,-460 1093.24,-460 1093.24,4 -4,4"/>
<!-- node0 -->
<g id="node1" class="node"><title>node0</title>
<ellipse fill="none" stroke="black" cx="42.2463" cy="-192" rx="42.4939" ry="18"/>
<text text-anchor="middle" x="42.2463" y="-188.3" font-family="Times New Roman,serif" font-size="14.00">(0) Input</text>
</g>
<!-- node5 -->
<g id="node6" class="node"><title>node5</title>
<ellipse fill="none" stroke="black" cx="183.389" cy="-117" rx="42.7926" ry="18"/>
<text text-anchor="middle" x="183.389" y="-113.3" font-family="Times New Roman,serif" font-size="14.00">(5) XOR</text>
</g>
<!-- node0&#45;&gt;node5 -->
<g id="edge2" class="edge"><title>node0&#45;&gt;node5</title>
<path fill="none" stroke="black" d="M70.1599,-178.403C85.5603,-170.541 105.199,-160.378 122.493,-151 130.984,-146.396 140.08,-141.312 148.554,-136.509"/>
<polygon fill="black" stroke="black" points="150.49,-139.435 157.447,-131.445 147.026,-133.352 150.49,-139.435"/>
<text text-anchor="middle" x="112.493" y="-164.8" font-family="Times New Roman,serif" font-size="14.00"> (1)</text>
</g>
<!-- node7 -->
<g id="node8" class="node"><title>node7</title>
<ellipse fill="none" stroke="black" cx="183.389" cy="-187" rx="42.4939" ry="18"/>
<text text-anchor="middle" x="183.389" y="-183.3" font-family="Times New Roman,serif" font-size="14.00">(7) AND</text>
</g>
<!-- node0&#45;&gt;node7 -->
<g id="edge6" class="edge"><title>node0&#45;&gt;node7</title>
<path fill="none" stroke="black" d="M84.6168,-190.513C99.0664,-189.994 115.47,-189.405 130.656,-188.859"/>
<polygon fill="black" stroke="black" points="131.069,-192.346 140.937,-188.49 130.818,-185.351 131.069,-192.346"/>
<text text-anchor="middle" x="112.493" y="-192.8" font-family="Times New Roman,serif" font-size="14.00"> (1)</text>
</g>
<!-- node1 -->
<g id="node2" class="node"><title>node1</title>
<ellipse fill="none" stroke="black" cx="42.2463" cy="-422" rx="42.4939" ry="18"/>
<text text-anchor="middle" x="42.2463" y="-418.3" font-family="Times New Roman,serif" font-size="14.00">(1) Input</text>
</g>
<!-- node9 -->
<g id="node10" class="node"><title>node9</title>
<ellipse fill="none" stroke="black" cx="480.622" cy="-178" rx="42.7926" ry="18"/>
<text text-anchor="middle" x="480.622" y="-174.3" font-family="Times New Roman,serif" font-size="14.00">(9) XOR</text>
</g>
<!-- node1&#45;&gt;node9 -->
<g id="edge10" class="edge"><title>node1&#45;&gt;node9</title>
<path fill="none" stroke="black" d="M72.4313,-409.396C149.455,-375.942 353.908,-285.833 377.176,-262 390.795,-248.051 381.793,-236.175 395.176,-222 406.72,-209.773 422.423,-200.316 437.156,-193.358"/>
<polygon fill="black" stroke="black" points="438.927,-196.401 446.645,-189.142 436.085,-190.004 438.927,-196.401"/>
<text text-anchor="middle" x="254.285" y="-334.8" font-family="Times New Roman,serif" font-size="14.00"> (1)</text>
</g>
<!-- node13 -->
<g id="node14" class="node"><title>node13</title>
<ellipse fill="none" stroke="black" cx="775.906" cy="-390" rx="40.8928" ry="18"/>
<text text-anchor="middle" x="775.906" y="-386.3" font-family="Times New Roman,serif" font-size="14.00">(13) OR</text>
</g>
<!-- node1&#45;&gt;node13 -->
<g id="edge17" class="edge"><title>node1&#45;&gt;node13</title>
<path fill="none" stroke="black" d="M80.5585,-429.893C108.469,-435.113 147.646,-441 182.389,-441 182.389,-441 182.389,-441 632.514,-441 671.676,-441 713.536,-423.691 741.659,-409.24"/>
<polygon fill="black" stroke="black" points="743.448,-412.253 750.645,-404.478 740.17,-406.068 743.448,-412.253"/>
<text text-anchor="middle" x="405.176" y="-444.8" font-family="Times New Roman,serif" font-size="14.00"> (0)</text>
</g>
<!-- node2 -->
<g id="node3" class="node"><title>node2</title>
<ellipse fill="none" stroke="black" cx="42.2463" cy="-116" rx="42.4939" ry="18"/>
<text text-anchor="middle" x="42.2463" y="-112.3" font-family="Times New Roman,serif" font-size="14.00">(2) Input</text>
</g>
<!-- node2&#45;&gt;node5 -->
<g id="edge1" class="edge"><title>node2&#45;&gt;node5</title>
<path fill="none" stroke="black" d="M73.161,-103.727C87.9182,-99.0785 106.04,-95.4531 122.493,-98 128.718,-98.9638 135.183,-100.46 141.463,-102.198"/>
<polygon fill="black" stroke="black" points="140.533,-105.574 151.117,-105.089 142.541,-98.8677 140.533,-105.574"/>
<text text-anchor="middle" x="112.493" y="-101.8" font-family="Times New Roman,serif" font-size="14.00"> (0)</text>
</g>
<!-- node2&#45;&gt;node7 -->
<g id="edge5" class="edge"><title>node2&#45;&gt;node7</title>
<path fill="none" stroke="black" d="M82.0183,-122.073C95.3286,-125.109 110.008,-129.56 122.493,-136 135.84,-142.886 148.773,-153.267 159.184,-162.869"/>
<polygon fill="black" stroke="black" points="156.976,-165.601 166.619,-169.99 161.818,-160.546 156.976,-165.601"/>
<text text-anchor="middle" x="112.493" y="-139.8" font-family="Times New Roman,serif" font-size="14.00"> (0)</text>
</g>
<!-- node3 -->
<g id="node4" class="node"><title>node3</title>
<ellipse fill="none" stroke="black" cx="42.2463" cy="-327" rx="42.4939" ry="18"/>
<text text-anchor="middle" x="42.2463" y="-323.3" font-family="Times New Roman,serif" font-size="14.00">(3) Input</text>
</g>
<!-- node8 -->
<g id="node9" class="node"><title>node8</title>
<ellipse fill="none" stroke="black" cx="329.731" cy="-187" rx="42.7926" ry="18"/>
<text text-anchor="middle" x="329.731" y="-183.3" font-family="Times New Roman,serif" font-size="14.00">(8) XOR</text>
</g>
<!-- node3&#45;&gt;node8 -->
<g id="edge8" class="edge"><title>node3&#45;&gt;node8</title>
<path fill="none" stroke="black" d="M70.6197,-313.576C122.178,-288.292 233.714,-233.596 291.831,-205.096"/>
<polygon fill="black" stroke="black" points="293.583,-208.134 301.021,-200.589 290.501,-201.849 293.583,-208.134"/>
<text text-anchor="middle" x="183.389" y="-280.8" font-family="Times New Roman,serif" font-size="14.00"> (1)</text>
</g>
<!-- node11 -->
<g id="node12" class="node"><title>node11</title>
<ellipse fill="none" stroke="black" cx="631.514" cy="-390" rx="46.5926" ry="18"/>
<text text-anchor="middle" x="631.514" y="-386.3" font-family="Times New Roman,serif" font-size="14.00">(11) AND</text>
</g>
<!-- node3&#45;&gt;node11 -->
<g id="edge13" class="edge"><title>node3&#45;&gt;node11</title>
<path fill="none" stroke="black" d="M77.8252,-336.726C85.8707,-338.718 94.4394,-340.623 102.493,-342 272.981,-371.145 477.666,-383.365 574.496,-387.804"/>
<polygon fill="black" stroke="black" points="574.498,-391.308 584.644,-388.259 574.811,-384.315 574.498,-391.308"/>
<text text-anchor="middle" x="329.731" y="-378.8" font-family="Times New Roman,serif" font-size="14.00"> (0)</text>
</g>
<!-- node12 -->
<g id="node13" class="node"><title>node12</title>
<ellipse fill="none" stroke="black" cx="631.514" cy="-336" rx="40.8928" ry="18"/>
<text text-anchor="middle" x="631.514" y="-332.3" font-family="Times New Roman,serif" font-size="14.00">(12) OR</text>
</g>
<!-- node3&#45;&gt;node12 -->
<g id="edge15" class="edge"><title>node3&#45;&gt;node12</title>
<path fill="none" stroke="black" d="M84.5418,-327.633C189.485,-329.241 466.149,-333.481 580.232,-335.229"/>
<polygon fill="black" stroke="black" points="580.379,-338.732 590.431,-335.386 580.486,-331.733 580.379,-338.732"/>
<text text-anchor="middle" x="329.731" y="-335.8" font-family="Times New Roman,serif" font-size="14.00"> (0)</text>
</g>
<!-- node4 -->
<g id="node5" class="node"><title>node4</title>
<ellipse fill="none" stroke="black" cx="42.2463" cy="-41" rx="42.4939" ry="18"/>
<text text-anchor="middle" x="42.2463" y="-37.3" font-family="Times New Roman,serif" font-size="14.00">(4) Input</text>
</g>
<!-- node6 -->
<g id="node7" class="node"><title>node6</title>
<ellipse fill="none" stroke="black" cx="329.731" cy="-124" rx="42.4939" ry="18"/>
<text text-anchor="middle" x="329.731" y="-120.3" font-family="Times New Roman,serif" font-size="14.00">(6) AND</text>
</g>
<!-- node4&#45;&gt;node6 -->
<g id="edge4" class="edge"><title>node4&#45;&gt;node6</title>
<path fill="none" stroke="black" d="M83.2688,-45.3622C120.861,-50.1742 178.343,-59.3836 226.285,-75 249.805,-82.6615 274.879,-94.5833 294.333,-104.749"/>
<polygon fill="black" stroke="black" points="292.929,-107.966 303.401,-109.572 296.216,-101.786 292.929,-107.966"/>
<text text-anchor="middle" x="183.389" y="-78.8" font-family="Times New Roman,serif" font-size="14.00"> (1)</text>
</g>
<!-- node15 -->
<g id="node16" class="node"><title>node15</title>
<ellipse fill="none" stroke="black" cx="329.731" cy="-18" rx="47.3916" ry="18"/>
<text text-anchor="middle" x="329.731" y="-14.3" font-family="Times New Roman,serif" font-size="14.00">(15) XOR</text>
</g>
<!-- node4&#45;&gt;node15 -->
<g id="edge21" class="edge"><title>node4&#45;&gt;node15</title>
<path fill="none" stroke="black" d="M81.9479,-34.5655C99.7344,-31.8306 121.136,-28.8518 140.493,-27 184.552,-22.7849 234.612,-20.5114 272.026,-19.3045"/>
<polygon fill="black" stroke="black" points="272.34,-22.7966 282.228,-18.9917 272.125,-15.7999 272.34,-22.7966"/>
<text text-anchor="middle" x="183.389" y="-30.8" font-family="Times New Roman,serif" font-size="14.00"> (0)</text>
</g>
<!-- node5&#45;&gt;node6 -->
<g id="edge3" class="edge"><title>node5&#45;&gt;node6</title>
<path fill="none" stroke="black" d="M226.138,-119.025C242.135,-119.8 260.572,-120.695 277.366,-121.509"/>
<polygon fill="black" stroke="black" points="277.415,-125.015 287.573,-122.004 277.755,-118.024 277.415,-125.015"/>
<text text-anchor="middle" x="254.285" y="-123.8" font-family="Times New Roman,serif" font-size="14.00"> (0)</text>
</g>
<!-- node5&#45;&gt;node15 -->
<g id="edge22" class="edge"><title>node5&#45;&gt;node15</title>
<path fill="none" stroke="black" d="M206.626,-101.748C230.887,-85.1079 269.916,-58.3395 297.303,-39.5555"/>
<polygon fill="black" stroke="black" points="299.485,-42.3029 305.752,-33.7604 295.526,-36.5302 299.485,-42.3029"/>
<text text-anchor="middle" x="254.285" y="-76.8" font-family="Times New Roman,serif" font-size="14.00"> (1)</text>
</g>
<!-- node10 -->
<g id="node11" class="node"><title>node10</title>
<ellipse fill="none" stroke="black" cx="480.622" cy="-271" rx="47.3916" ry="18"/>
<text text-anchor="middle" x="480.622" y="-267.3" font-family="Times New Roman,serif" font-size="14.00">(10) XOR</text>
</g>
<!-- node6&#45;&gt;node10 -->
<g id="edge11" class="edge"><title>node6&#45;&gt;node10</title>
<path fill="none" stroke="black" d="M354.333,-138.953C362.301,-144.814 370.786,-152.047 377.176,-160 388.882,-174.567 383.864,-183.125 395.176,-198 410.096,-217.619 431.035,-235.763 448.33,-249.054"/>
<polygon fill="black" stroke="black" points="446.386,-251.971 456.485,-255.175 450.588,-246.373 446.386,-251.971"/>
<text text-anchor="middle" x="405.176" y="-221.8" font-family="Times New Roman,serif" font-size="14.00"> (0)</text>
</g>
<!-- node16 -->
<g id="node17" class="node"><title>node16</title>
<ellipse fill="none" stroke="black" cx="631.514" cy="-148" rx="47.3916" ry="18"/>
<text text-anchor="middle" x="631.514" y="-144.3" font-family="Times New Roman,serif" font-size="14.00">(16) XOR</text>
</g>
<!-- node6&#45;&gt;node16 -->
<g id="edge23" class="edge"><title>node6&#45;&gt;node16</title>
<path fill="none" stroke="black" d="M371.978,-125.836C411.936,-127.774 474.221,-131.213 528.068,-136 543.797,-137.398 560.846,-139.257 576.439,-141.093"/>
<polygon fill="black" stroke="black" points="576.102,-144.578 586.447,-142.292 576.934,-137.628 576.102,-144.578"/>
<text text-anchor="middle" x="480.622" y="-139.8" font-family="Times New Roman,serif" font-size="14.00"> (0)</text>
</g>
<!-- node7&#45;&gt;node8 -->
<g id="edge7" class="edge"><title>node7&#45;&gt;node8</title>
<path fill="none" stroke="black" d="M225.751,-187C241.55,-187 259.772,-187 276.457,-187"/>
<polygon fill="black" stroke="black" points="276.61,-190.5 286.61,-187 276.61,-183.5 276.61,-190.5"/>
<text text-anchor="middle" x="254.285" y="-190.8" font-family="Times New Roman,serif" font-size="14.00"> (0)</text>
</g>
<!-- node7&#45;&gt;node10 -->
<g id="edge12" class="edge"><title>node7&#45;&gt;node10</title>
<path fill="none" stroke="black" d="M217.586,-197.776C226.256,-200.523 235.604,-203.425 244.285,-206 308.781,-225.129 383.76,-245.523 431.434,-258.26"/>
<polygon fill="black" stroke="black" points="430.615,-261.664 441.179,-260.859 432.419,-254.901 430.615,-261.664"/>
<text text-anchor="middle" x="329.731" y="-246.8" font-family="Times New Roman,serif" font-size="14.00"> (1)</text>
</g>
<!-- node8&#45;&gt;node9 -->
<g id="edge9" class="edge"><title>node8&#45;&gt;node9</title>
<path fill="none" stroke="black" d="M370.542,-181.353C378.676,-180.398 387.19,-179.541 395.176,-179 405.597,-178.294 416.756,-177.903 427.437,-177.707"/>
<polygon fill="black" stroke="black" points="427.538,-181.206 437.491,-177.575 427.446,-174.207 427.538,-181.206"/>
<text text-anchor="middle" x="405.176" y="-182.8" font-family="Times New Roman,serif" font-size="14.00"> (0)</text>
</g>
<!-- node9&#45;&gt;node16 -->
<g id="edge24" class="edge"><title>node9&#45;&gt;node16</title>
<path fill="none" stroke="black" d="M519.579,-170.352C537.701,-166.701 559.656,-162.277 579.236,-158.332"/>
<polygon fill="black" stroke="black" points="580.114,-161.725 589.225,-156.319 578.731,-154.863 580.114,-161.725"/>
<text text-anchor="middle" x="556.068" y="-167.8" font-family="Times New Roman,serif" font-size="14.00"> (1)</text>
</g>
<!-- node10&#45;&gt;node11 -->
<g id="edge14" class="edge"><title>node10&#45;&gt;node11</title>
<path fill="none" stroke="black" d="M498.105,-287.762C517.625,-307.131 551.597,-339.367 584.068,-363 587.462,-365.47 591.097,-367.906 594.785,-370.243"/>
<polygon fill="black" stroke="black" points="593.034,-373.275 603.395,-375.488 596.676,-367.297 593.034,-373.275"/>
<text text-anchor="middle" x="556.068" y="-352.8" font-family="Times New Roman,serif" font-size="14.00"> (1)</text>
</g>
<!-- node10&#45;&gt;node12 -->
<g id="edge16" class="edge"><title>node10&#45;&gt;node12</title>
<path fill="none" stroke="black" d="M525.872,-265.286C539.223,-265.19 553.628,-266.786 566.068,-272 585.033,-279.949 601.399,-296.406 612.893,-310.642"/>
<polygon fill="black" stroke="black" points="610.209,-312.893 619.08,-318.685 615.758,-308.625 610.209,-312.893"/>
<text text-anchor="middle" x="556.068" y="-275.8" font-family="Times New Roman,serif" font-size="14.00"> (1)</text>
</g>
<!-- node11&#45;&gt;node13 -->
<g id="edge18" class="edge"><title>node11&#45;&gt;node13</title>
<path fill="none" stroke="black" d="M678.351,-390C693.148,-390 709.626,-390 724.719,-390"/>
<polygon fill="black" stroke="black" points="724.91,-393.5 734.91,-390 724.91,-386.5 724.91,-393.5"/>
<text text-anchor="middle" x="706.96" y="-393.8" font-family="Times New Roman,serif" font-size="14.00"> (1)</text>
</g>
<!-- node14 -->
<g id="node15" class="node"><title>node14</title>
<ellipse fill="none" stroke="black" cx="919.648" cy="-353" rx="46.5926" ry="18"/>
<text text-anchor="middle" x="919.648" y="-349.3" font-family="Times New Roman,serif" font-size="14.00">(14) AND</text>
</g>
<!-- node12&#45;&gt;node14 -->
<g id="edge19" class="edge"><title>node12&#45;&gt;node14</title>
<path fill="none" stroke="black" d="M672.3,-338.364C721.884,-341.31 806.909,-346.361 862.95,-349.691"/>
<polygon fill="black" stroke="black" points="862.872,-353.192 873.062,-350.292 863.287,-346.205 862.872,-353.192"/>
<text text-anchor="middle" x="775.906" y="-349.8" font-family="Times New Roman,serif" font-size="14.00"> (0)</text>
</g>
<!-- node13&#45;&gt;node14 -->
<g id="edge20" class="edge"><title>node13&#45;&gt;node14</title>
<path fill="none" stroke="black" d="M811.58,-380.949C829.377,-376.303 851.337,-370.571 870.728,-365.509"/>
<polygon fill="black" stroke="black" points="871.806,-368.845 880.598,-362.933 870.038,-362.072 871.806,-368.845"/>
<text text-anchor="middle" x="844.852" y="-377.8" font-family="Times New Roman,serif" font-size="14.00"> (1)</text>
</g>
<!-- node19 -->
<g id="node20" class="node"><title>node19</title>
<ellipse fill="none" stroke="black" cx="1046.34" cy="-353" rx="42.7926" ry="18"/>
<text text-anchor="middle" x="1046.34" y="-349.3" font-family="Times New Roman,serif" font-size="14.00">Output 2</text>
</g>
<!-- node14&#45;&gt;node19 -->
<g id="edge27" class="edge"><title>node14&#45;&gt;node19</title>
<path fill="none" stroke="black" d="M966.725,-353C975.301,-353 984.319,-353 993.066,-353"/>
<polygon fill="black" stroke="black" points="993.166,-356.5 1003.17,-353 993.166,-349.5 993.166,-356.5"/>
</g>
<!-- node17 -->
<g id="node18" class="node"><title>node17</title>
<ellipse fill="none" stroke="black" cx="1046.34" cy="-18" rx="42.7926" ry="18"/>
<text text-anchor="middle" x="1046.34" y="-14.3" font-family="Times New Roman,serif" font-size="14.00">Output 0</text>
</g>
<!-- node15&#45;&gt;node17 -->
<g id="edge25" class="edge"><title>node15&#45;&gt;node17</title>
<path fill="none" stroke="black" d="M377.339,-18C406.69,-18 445.372,-18 479.622,-18 479.622,-18 479.622,-18 920.648,-18 944.382,-18 970.657,-18 992.944,-18"/>
<polygon fill="black" stroke="black" points="993.207,-21.5001 1003.21,-18 993.207,-14.5001 993.207,-21.5001"/>
</g>
<!-- node18 -->
<g id="node19" class="node"><title>node18</title>
<ellipse fill="none" stroke="black" cx="1046.34" cy="-148" rx="42.7926" ry="18"/>
<text text-anchor="middle" x="1046.34" y="-144.3" font-family="Times New Roman,serif" font-size="14.00">Output 1</text>
</g>
<!-- node16&#45;&gt;node18 -->
<g id="edge26" class="edge"><title>node16&#45;&gt;node18</title>
<path fill="none" stroke="black" d="M679.068,-148C756.562,-148 911.513,-148 992.803,-148"/>
<polygon fill="black" stroke="black" points="993.293,-151.5 1003.29,-148 993.293,-144.5 993.293,-151.5"/>
</g>
</g>
</svg>
