<?xml version="1.0" encoding="UTF-8" standalone="no"?>
<!DOCTYPE svg PUBLIC "-//W3C//DTD SVG 1.1//EN"
 "http://www.w3.org/Graphics/SVG/1.1/DTD/svg11.dtd">
<!-- Generated by graphviz version 2.38.0 (20140413.2041)
 -->
<!-- Title: NeuralNetwork Pages: 1 -->
<svg width="288pt" height="90pt"
 viewBox="0.00 0.00 288.00 89.84" xmlns="http://www.w3.org/2000/svg" xmlns:xlink="http://www.w3.org/1999/xlink">
<g id="graph0" class="graph" transform="scale(0.26124 0.26124) rotate(0) translate(4 339.905)">
<title>NeuralNetwork</title>
<polygon fill="white" stroke="none" points="-4,4 -4,-339.905 1098.44,-339.905 1098.44,4 -4,4"/>
<!-- node0 -->
<g id="node1" class="node"><title>node0</title>
<ellipse fill="none" stroke="black" cx="42.2463" cy="-24.9052" rx="42.4939" ry="18"/>
<text text-anchor="middle" x="42.2463" y="-21.2052" font-family="Times New Roman,serif" font-size="14.00">(0) Input</text>
</g>
<!-- node7 -->
<g id="node8" class="node"><title>node7</title>
<ellipse fill="none" stroke="black" cx="329.731" cy="-59.9052" rx="42.4939" ry="18"/>
<text text-anchor="middle" x="329.731" y="-56.2052" font-family="Times New Roman,serif" font-size="14.00">(7) AND</text>
</g>
<!-- node0&#45;&gt;node7 -->
<g id="edge5" class="edge"><title>node0&#45;&gt;node7</title>
<path fill="none" stroke="black" d="M77.1285,-14.521C114.238,-4.72733 175.268,6.71729 226.285,-5.90524 252.349,-12.354 279.099,-26.7699 298.726,-39.0857"/>
<polygon fill="black" stroke="black" points="296.914,-42.0817 307.214,-44.5603 300.708,-36.199 296.914,-42.0817"/>
<text text-anchor="middle" x="183.389" y="-9.70524" font-family="Times New Roman,serif" font-size="14.00"> (0)</text>
</g>
<!-- node12 -->
<g id="node13" class="node"><title>node12</title>
<ellipse fill="none" stroke="black" cx="329.731" cy="-113.905" rx="47.3916" ry="18"/>
<text text-anchor="middle" x="329.731" y="-110.205" font-family="Times New Roman,serif" font-size="14.00">(12) XOR</text>
</g>
<!-- node0&#45;&gt;node12 -->
<g id="edge16" class="edge"><title>node0&#45;&gt;node12</title>
<path fill="none" stroke="black" d="M83.7636,-28.7722C129.514,-34.357 205.262,-47.3379 264.285,-75.9052 272.724,-79.9898 274.232,-82.1045 282.285,-86.9052 285.98,-89.1081 289.852,-91.3936 293.716,-93.6606"/>
<polygon fill="black" stroke="black" points="292.233,-96.8475 302.633,-98.8687 295.763,-90.803 292.233,-96.8475"/>
<text text-anchor="middle" x="183.389" y="-63.7052" font-family="Times New Roman,serif" font-size="14.00"> (1)</text>
</g>
<!-- node1 -->
<g id="node2" class="node"><title>node1</title>
<ellipse fill="none" stroke="black" cx="42.2463" cy="-305.905" rx="42.4939" ry="18"/>
<text text-anchor="middle" x="42.2463" y="-302.205" font-family="Times New Roman,serif" font-size="14.00">(1) Input</text>
</g>
<!-- node8 -->
<g id="node9" class="node"><title>node8</title>
<ellipse fill="none" stroke="black" cx="183.389" cy="-274.905" rx="42.7926" ry="18"/>
<text text-anchor="middle" x="183.389" y="-271.205" font-family="Times New Roman,serif" font-size="14.00">(8) XOR</text>
</g>
<!-- node1&#45;&gt;node8 -->
<g id="edge7" class="edge"><title>node1&#45;&gt;node8</title>
<path fill="none" stroke="black" d="M79.5621,-297.188C87.1327,-295.409 95.0676,-293.572 102.493,-291.905 112.873,-289.575 124.032,-287.15 134.62,-284.887"/>
<polygon fill="black" stroke="black" points="135.5,-288.278 144.553,-282.774 134.044,-281.431 135.5,-288.278"/>
<text text-anchor="middle" x="112.493" y="-295.705" font-family="Times New Roman,serif" font-size="14.00"> (0)</text>
</g>
<!-- node13 -->
<g id="node14" class="node"><title>node13</title>
<ellipse fill="none" stroke="black" cx="773.306" cy="-298.905" rx="47.3916" ry="18"/>
<text text-anchor="middle" x="773.306" y="-295.205" font-family="Times New Roman,serif" font-size="14.00">(13) XOR</text>
</g>
<!-- node1&#45;&gt;node13 -->
<g id="edge17" class="edge"><title>node1&#45;&gt;node13</title>
<path fill="none" stroke="black" d="M81.8125,-312.31C109.674,-316.387 148.252,-320.905 182.389,-320.905 182.389,-320.905 182.389,-320.905 623.415,-320.905 656.723,-320.905 693.776,-315.451 722.587,-309.973"/>
<polygon fill="black" stroke="black" points="723.276,-313.405 732.414,-308.044 721.927,-306.536 723.276,-313.405"/>
<text text-anchor="middle" x="405.176" y="-324.705" font-family="Times New Roman,serif" font-size="14.00"> (0)</text>
</g>
<!-- node2 -->
<g id="node3" class="node"><title>node2</title>
<ellipse fill="none" stroke="black" cx="42.2463" cy="-166.905" rx="42.4939" ry="18"/>
<text text-anchor="middle" x="42.2463" y="-163.205" font-family="Times New Roman,serif" font-size="14.00">(2) Input</text>
</g>
<!-- node5 -->
<g id="node6" class="node"><title>node5</title>
<ellipse fill="none" stroke="black" cx="183.389" cy="-167.905" rx="42.4939" ry="18"/>
<text text-anchor="middle" x="183.389" y="-164.205" font-family="Times New Roman,serif" font-size="14.00">(5) AND</text>
</g>
<!-- node2&#45;&gt;node5 -->
<g id="edge1" class="edge"><title>node2&#45;&gt;node5</title>
<path fill="none" stroke="black" d="M84.6797,-167.694C90.6564,-167.781 96.7318,-167.857 102.493,-167.905 111.66,-167.983 121.419,-168.02 130.854,-168.033"/>
<polygon fill="black" stroke="black" points="130.919,-171.533 140.92,-168.038 130.922,-164.533 130.919,-171.533"/>
<text text-anchor="middle" x="112.493" y="-171.705" font-family="Times New Roman,serif" font-size="14.00"> (0)</text>
</g>
<!-- node6 -->
<g id="node7" class="node"><title>node6</title>
<ellipse fill="none" stroke="black" cx="183.389" cy="-103.905" rx="42.7926" ry="18"/>
<text text-anchor="middle" x="183.389" y="-100.205" font-family="Times New Roman,serif" font-size="14.00">(6) XOR</text>
</g>
<!-- node2&#45;&gt;node6 -->
<g id="edge4" class="edge"><title>node2&#45;&gt;node6</title>
<path fill="none" stroke="black" d="M71.7396,-154.004C92.7035,-144.512 121.42,-131.51 144.345,-121.13"/>
<polygon fill="black" stroke="black" points="145.789,-124.319 153.455,-117.006 142.902,-117.942 145.789,-124.319"/>
<text text-anchor="middle" x="112.493" y="-142.705" font-family="Times New Roman,serif" font-size="14.00"> (1)</text>
</g>
<!-- node3 -->
<g id="node4" class="node"><title>node3</title>
<ellipse fill="none" stroke="black" cx="42.2463" cy="-235.905" rx="42.4939" ry="18"/>
<text text-anchor="middle" x="42.2463" y="-232.205" font-family="Times New Roman,serif" font-size="14.00">(3) Input</text>
</g>
<!-- node3&#45;&gt;node8 -->
<g id="edge8" class="edge"><title>node3&#45;&gt;node8</title>
<path fill="none" stroke="black" d="M77.9988,-245.646C95.9578,-250.68 118.087,-256.882 137.343,-262.279"/>
<polygon fill="black" stroke="black" points="136.539,-265.689 147.113,-265.018 138.428,-258.949 136.539,-265.689"/>
<text text-anchor="middle" x="112.493" y="-260.705" font-family="Times New Roman,serif" font-size="14.00"> (1)</text>
</g>
<!-- node10 -->
<g id="node11" class="node"><title>node10</title>
<ellipse fill="none" stroke="black" cx="622.415" cy="-214.905" rx="47.3916" ry="18"/>
<text text-anchor="middle" x="622.415" y="-211.205" font-family="Times New Roman,serif" font-size="14.00">(10) XOR</text>
</g>
<!-- node3&#45;&gt;node10 -->
<g id="edge11" class="edge"><title>node3&#45;&gt;node10</title>
<path fill="none" stroke="black" d="M81.4991,-229.12C109.375,-224.759 148.103,-219.905 182.389,-219.905 182.389,-219.905 182.389,-219.905 477.073,-219.905 506.071,-219.905 538.326,-218.885 564.978,-217.766"/>
<polygon fill="black" stroke="black" points="565.437,-221.249 575.275,-217.317 565.132,-214.256 565.437,-221.249"/>
<text text-anchor="middle" x="329.731" y="-223.705" font-family="Times New Roman,serif" font-size="14.00"> (0)</text>
</g>
<!-- node4 -->
<g id="node5" class="node"><title>node4</title>
<ellipse fill="none" stroke="black" cx="42.2463" cy="-93.9052" rx="42.4939" ry="18"/>
<text text-anchor="middle" x="42.2463" y="-90.2052" font-family="Times New Roman,serif" font-size="14.00">(4) Input</text>
</g>
<!-- node4&#45;&gt;node5 -->
<g id="edge2" class="edge"><title>node4&#45;&gt;node5</title>
<path fill="none" stroke="black" d="M83.6278,-98.3526C96.6384,-100.993 110.724,-105.2 122.493,-111.905 132.599,-117.664 132.125,-122.825 140.493,-130.905 145.257,-135.506 150.459,-140.283 155.526,-144.816"/>
<polygon fill="black" stroke="black" points="153.484,-147.682 163.296,-151.677 158.117,-142.435 153.484,-147.682"/>
<text text-anchor="middle" x="112.493" y="-115.705" font-family="Times New Roman,serif" font-size="14.00"> (1)</text>
</g>
<!-- node4&#45;&gt;node6 -->
<g id="edge3" class="edge"><title>node4&#45;&gt;node6</title>
<path fill="none" stroke="black" d="M72.9763,-81.4866C87.8474,-76.8119 106.122,-73.386 122.493,-76.9052 130.989,-78.7317 139.733,-81.8624 147.825,-85.3593"/>
<polygon fill="black" stroke="black" points="146.424,-88.5674 156.971,-89.5763 149.355,-82.2106 146.424,-88.5674"/>
<text text-anchor="middle" x="112.493" y="-80.7052" font-family="Times New Roman,serif" font-size="14.00"> (0)</text>
</g>
<!-- node9 -->
<g id="node10" class="node"><title>node9</title>
<ellipse fill="none" stroke="black" cx="476.073" cy="-167.905" rx="42.7926" ry="18"/>
<text text-anchor="middle" x="476.073" y="-164.205" font-family="Times New Roman,serif" font-size="14.00">(9) XOR</text>
</g>
<!-- node5&#45;&gt;node9 -->
<g id="edge9" class="edge"><title>node5&#45;&gt;node9</title>
<path fill="none" stroke="black" d="M225.728,-167.905C277.521,-167.905 366.317,-167.905 422.782,-167.905"/>
<polygon fill="black" stroke="black" points="422.933,-171.405 432.933,-167.905 422.933,-164.405 422.933,-171.405"/>
<text text-anchor="middle" x="329.731" y="-171.705" font-family="Times New Roman,serif" font-size="14.00"> (0)</text>
</g>
<!-- node6&#45;&gt;node7 -->
<g id="edge6" class="edge"><title>node6&#45;&gt;node7</title>
<path fill="none" stroke="black" d="M218.596,-93.4779C238.459,-87.4228 263.686,-79.7328 284.983,-73.2408"/>
<polygon fill="black" stroke="black" points="286.224,-76.5216 294.769,-70.2578 284.183,-69.8258 286.224,-76.5216"/>
<text text-anchor="middle" x="254.285" y="-87.7052" font-family="Times New Roman,serif" font-size="14.00"> (1)</text>
</g>
<!-- node6&#45;&gt;node12 -->
<g id="edge15" class="edge"><title>node6&#45;&gt;node12</title>
<path fill="none" stroke="black" d="M225.751,-106.771C240.375,-107.784 257.077,-108.941 272.713,-110.024"/>
<polygon fill="black" stroke="black" points="272.583,-113.524 282.801,-110.723 273.067,-106.54 272.583,-113.524"/>
<text text-anchor="middle" x="254.285" y="-112.705" font-family="Times New Roman,serif" font-size="14.00"> (0)</text>
</g>
<!-- node7&#45;&gt;node9 -->
<g id="edge10" class="edge"><title>node7&#45;&gt;node9</title>
<path fill="none" stroke="black" d="M356.753,-74.0234C363.54,-77.9767 370.75,-82.4241 377.176,-86.9052 402.826,-104.79 430.085,-127.703 449.307,-144.593"/>
<polygon fill="black" stroke="black" points="447.219,-147.419 457.025,-151.43 451.861,-142.179 447.219,-147.419"/>
<text text-anchor="middle" x="405.176" y="-117.705" font-family="Times New Roman,serif" font-size="14.00"> (1)</text>
</g>
<!-- node11 -->
<g id="node12" class="node"><title>node11</title>
<ellipse fill="none" stroke="black" cx="773.306" cy="-237.905" rx="40.8928" ry="18"/>
<text text-anchor="middle" x="773.306" y="-234.205" font-family="Times New Roman,serif" font-size="14.00">(11) OR</text>
</g>
<!-- node8&#45;&gt;node11 -->
<g id="edge13" class="edge"><title>node8&#45;&gt;node11</title>
<path fill="none" stroke="black" d="M226.389,-275.794C255.188,-276.328 294.271,-276.905 328.731,-276.905 328.731,-276.905 328.731,-276.905 623.415,-276.905 661.458,-276.905 671.166,-272.949 707.86,-262.905 716.523,-260.534 725.628,-257.413 734.177,-254.183"/>
<polygon fill="black" stroke="black" points="735.499,-257.424 743.539,-250.524 732.951,-250.904 735.499,-257.424"/>
<text text-anchor="middle" x="476.073" y="-280.705" font-family="Times New Roman,serif" font-size="14.00"> (0)</text>
</g>
<!-- node9&#45;&gt;node10 -->
<g id="edge12" class="edge"><title>node9&#45;&gt;node10</title>
<path fill="none" stroke="black" d="M512.648,-177.519C526.547,-181.439 542.575,-186.161 556.969,-190.905 564.063,-193.243 571.539,-195.872 578.786,-198.51"/>
<polygon fill="black" stroke="black" points="577.876,-201.905 588.469,-202.086 580.301,-195.338 577.876,-201.905"/>
<text text-anchor="middle" x="546.969" y="-194.705" font-family="Times New Roman,serif" font-size="14.00"> (1)</text>
</g>
<!-- node10&#45;&gt;node11 -->
<g id="edge14" class="edge"><title>node10&#45;&gt;node11</title>
<path fill="none" stroke="black" d="M666.26,-208.025C679.687,-207.026 694.488,-207.126 707.86,-209.905 717.983,-212.009 728.466,-215.789 737.962,-219.904"/>
<polygon fill="black" stroke="black" points="736.53,-223.098 747.079,-224.081 739.446,-216.734 736.53,-223.098"/>
<text text-anchor="middle" x="697.86" y="-213.705" font-family="Times New Roman,serif" font-size="14.00"> (1)</text>
</g>
<!-- node10&#45;&gt;node13 -->
<g id="edge18" class="edge"><title>node10&#45;&gt;node13</title>
<path fill="none" stroke="black" d="M649.691,-229.729C673.961,-243.422 710.203,-263.868 736.995,-278.984"/>
<polygon fill="black" stroke="black" points="735.613,-282.223 746.043,-284.088 739.053,-276.126 735.613,-282.223"/>
<text text-anchor="middle" x="697.86" y="-265.705" font-family="Times New Roman,serif" font-size="14.00"> (1)</text>
</g>
<!-- node14 -->
<g id="node15" class="node"><title>node14</title>
<ellipse fill="none" stroke="black" cx="924.198" cy="-244.905" rx="47.3916" ry="18"/>
<text text-anchor="middle" x="924.198" y="-241.205" font-family="Times New Roman,serif" font-size="14.00">(14) XOR</text>
</g>
<!-- node11&#45;&gt;node14 -->
<g id="edge20" class="edge"><title>node11&#45;&gt;node14</title>
<path fill="none" stroke="black" d="M814.277,-237.715C828.344,-237.824 844.257,-238.146 858.752,-238.905 861.796,-239.065 864.918,-239.258 868.068,-239.475"/>
<polygon fill="black" stroke="black" points="867.924,-242.974 878.161,-240.244 868.455,-235.995 867.924,-242.974"/>
<text text-anchor="middle" x="848.752" y="-242.705" font-family="Times New Roman,serif" font-size="14.00"> (1)</text>
</g>
<!-- node15 -->
<g id="node16" class="node"><title>node15</title>
<ellipse fill="none" stroke="black" cx="1051.54" cy="-113.905" rx="42.7926" ry="18"/>
<text text-anchor="middle" x="1051.54" y="-110.205" font-family="Times New Roman,serif" font-size="14.00">Output 0</text>
</g>
<!-- node12&#45;&gt;node15 -->
<g id="edge21" class="edge"><title>node12&#45;&gt;node15</title>
<path fill="none" stroke="black" d="M377.209,-113.905C405.5,-113.905 442.37,-113.905 475.073,-113.905 475.073,-113.905 475.073,-113.905 925.198,-113.905 949.258,-113.905 975.916,-113.905 998.44,-113.905"/>
<polygon fill="black" stroke="black" points="998.473,-117.405 1008.47,-113.905 998.473,-110.405 998.473,-117.405"/>
</g>
<!-- node13&#45;&gt;node14 -->
<g id="edge19" class="edge"><title>node13&#45;&gt;node14</title>
<path fill="none" stroke="black" d="M808.092,-286.652C829.338,-278.946 856.958,-268.929 879.816,-260.639"/>
<polygon fill="black" stroke="black" points="881.081,-263.903 889.288,-257.204 878.694,-257.323 881.081,-263.903"/>
<text text-anchor="middle" x="848.752" y="-278.705" font-family="Times New Roman,serif" font-size="14.00"> (0)</text>
</g>
<!-- node16 -->
<g id="node17" class="node"><title>node16</title>
<ellipse fill="none" stroke="black" cx="1051.54" cy="-305.905" rx="42.7926" ry="18"/>
<text text-anchor="middle" x="1051.54" y="-302.205" font-family="Times New Roman,serif" font-size="14.00">Output 1</text>
</g>
<!-- node13&#45;&gt;node16 -->
<g id="edge22" class="edge"><title>node13&#45;&gt;node16</title>
<path fill="none" stroke="black" d="M820.853,-300.085C869.905,-301.328 947.003,-303.282 998.153,-304.578"/>
<polygon fill="black" stroke="black" points="998.252,-308.081 1008.34,-304.836 998.429,-301.083 998.252,-308.081"/>
</g>
<!-- node17 -->
<g id="node18" class="node"><title>node17</title>
<ellipse fill="none" stroke="black" cx="1051.54" cy="-244.905" rx="42.7926" ry="18"/>
<text text-anchor="middle" x="1051.54" y="-241.205" font-family="Times New Roman,serif" font-size="14.00">Output 2</text>
</g>
<!-- node14&#45;&gt;node17 -->
<g id="edge23" class="edge"><title>node14&#45;&gt;node17</title>
<path fill="none" stroke="black" d="M971.871,-244.905C980.475,-244.905 989.511,-244.905 998.268,-244.905"/>
<polygon fill="black" stroke="black" points="998.378,-248.405 1008.38,-244.905 998.378,-241.405 998.378,-248.405"/>
</g>
</g>
</svg>
