<?xml version="1.0" encoding="UTF-8" standalone="no"?>
<!DOCTYPE svg PUBLIC "-//W3C//DTD SVG 1.1//EN"
 "http://www.w3.org/Graphics/SVG/1.1/DTD/svg11.dtd">
<!-- Generated by graphviz version 2.38.0 (20140413.2041)
 -->
<!-- Title: NeuralNetwork Pages: 1 -->
<svg width="288pt" height="95pt"
 viewBox="0.00 0.00 288.00 94.64" xmlns="http://www.w3.org/2000/svg" xmlns:xlink="http://www.w3.org/1999/xlink">
<g id="graph0" class="graph" transform="scale(0.266583 0.266583) rotate(0) translate(4 351)">
<title>NeuralNetwork</title>
<polygon fill="white" stroke="none" points="-4,4 -4,-351 1076.34,-351 1076.34,4 -4,4"/>
<!-- node0 -->
<g id="node1" class="node"><title>node0</title>
<ellipse fill="none" stroke="black" cx="42.2463" cy="-32" rx="42.4939" ry="18"/>
<text text-anchor="middle" x="42.2463" y="-28.3" font-family="Times New Roman,serif" font-size="14.00">(0) Input</text>
</g>
<!-- node7 -->
<g id="node8" class="node"><title>node7</title>
<ellipse fill="none" stroke="black" cx="325.181" cy="-158" rx="42.4939" ry="18"/>
<text text-anchor="middle" x="325.181" y="-154.3" font-family="Times New Roman,serif" font-size="14.00">(7) AND</text>
</g>
<!-- node0&#45;&gt;node7 -->
<g id="edge5" class="edge"><title>node0&#45;&gt;node7</title>
<path fill="none" stroke="black" d="M65.165,-47.1956C72.3312,-53.2041 79.678,-60.6717 84.4925,-69 103.819,-102.431 73.1005,-128.955 102.493,-154 151.969,-196.16 232.633,-184.44 281.812,-171.578"/>
<polygon fill="black" stroke="black" points="282.789,-174.939 291.508,-168.92 280.938,-168.188 282.789,-174.939"/>
<text text-anchor="middle" x="183.389" y="-186.8" font-family="Times New Roman,serif" font-size="14.00"> (0)</text>
</g>
<!-- node8 -->
<g id="node9" class="node"><title>node8</title>
<ellipse fill="none" stroke="black" cx="325.181" cy="-18" rx="42.7926" ry="18"/>
<text text-anchor="middle" x="325.181" y="-14.3" font-family="Times New Roman,serif" font-size="14.00">(8) XOR</text>
</g>
<!-- node0&#45;&gt;node8 -->
<g id="edge7" class="edge"><title>node0&#45;&gt;node8</title>
<path fill="none" stroke="black" d="M84.4033,-29.2953C101.718,-28.2004 122.08,-26.9689 140.493,-26 184.927,-23.6618 235.433,-21.498 272.225,-20.012"/>
<polygon fill="black" stroke="black" points="272.37,-23.5091 282.222,-19.6112 272.09,-16.5147 272.37,-23.5091"/>
<text text-anchor="middle" x="183.389" y="-29.8" font-family="Times New Roman,serif" font-size="14.00"> (0)</text>
</g>
<!-- node1 -->
<g id="node2" class="node"><title>node1</title>
<ellipse fill="none" stroke="black" cx="42.2463" cy="-312" rx="42.4939" ry="18"/>
<text text-anchor="middle" x="42.2463" y="-308.3" font-family="Times New Roman,serif" font-size="14.00">(1) Input</text>
</g>
<!-- node10 -->
<g id="node11" class="node"><title>node10</title>
<ellipse fill="none" stroke="black" cx="600.317" cy="-183" rx="47.3916" ry="18"/>
<text text-anchor="middle" x="600.317" y="-179.3" font-family="Times New Roman,serif" font-size="14.00">(10) XOR</text>
</g>
<!-- node1&#45;&gt;node10 -->
<g id="edge12" class="edge"><title>node1&#45;&gt;node10</title>
<path fill="none" stroke="black" d="M78.7266,-302.844C106.687,-296.43 146.764,-289 182.389,-289 182.389,-289 182.389,-289 461.474,-289 514.877,-289 509.548,-242.224 552.871,-211 556.492,-208.39 560.365,-205.787 564.271,-203.277"/>
<polygon fill="black" stroke="black" points="566.159,-206.225 572.795,-197.966 562.457,-200.284 566.159,-206.225"/>
<text text-anchor="middle" x="325.181" y="-292.8" font-family="Times New Roman,serif" font-size="14.00"> (1)</text>
</g>
<!-- node12 -->
<g id="node13" class="node"><title>node12</title>
<ellipse fill="none" stroke="black" cx="751.208" cy="-308" rx="47.3916" ry="18"/>
<text text-anchor="middle" x="751.208" y="-304.3" font-family="Times New Roman,serif" font-size="14.00">(12) XOR</text>
</g>
<!-- node1&#45;&gt;node12 -->
<g id="edge15" class="edge"><title>node1&#45;&gt;node12</title>
<path fill="none" stroke="black" d="M79.9526,-320.192C107.888,-325.716 147.368,-332 182.389,-332 182.389,-332 182.389,-332 601.317,-332 635.043,-332 672.526,-325.924 701.446,-319.886"/>
<polygon fill="black" stroke="black" points="702.261,-323.291 711.298,-317.762 700.785,-316.448 702.261,-323.291"/>
<text text-anchor="middle" x="396.077" y="-335.8" font-family="Times New Roman,serif" font-size="14.00"> (0)</text>
</g>
<!-- node2 -->
<g id="node3" class="node"><title>node2</title>
<ellipse fill="none" stroke="black" cx="42.2463" cy="-155" rx="42.4939" ry="18"/>
<text text-anchor="middle" x="42.2463" y="-151.3" font-family="Times New Roman,serif" font-size="14.00">(2) Input</text>
</g>
<!-- node5 -->
<g id="node6" class="node"><title>node5</title>
<ellipse fill="none" stroke="black" cx="183.389" cy="-122" rx="42.7926" ry="18"/>
<text text-anchor="middle" x="183.389" y="-118.3" font-family="Times New Roman,serif" font-size="14.00">(5) XOR</text>
</g>
<!-- node2&#45;&gt;node5 -->
<g id="edge2" class="edge"><title>node2&#45;&gt;node5</title>
<path fill="none" stroke="black" d="M77.7816,-165.06C91.8996,-167.603 108.232,-168.502 122.493,-164 129.479,-161.795 142.334,-153.046 154.349,-144.1"/>
<polygon fill="black" stroke="black" points="156.599,-146.786 162.45,-137.954 152.368,-141.21 156.599,-146.786"/>
<text text-anchor="middle" x="112.493" y="-170.8" font-family="Times New Roman,serif" font-size="14.00"> (1)</text>
</g>
<!-- node6 -->
<g id="node7" class="node"><title>node6</title>
<ellipse fill="none" stroke="black" cx="183.389" cy="-68" rx="42.4939" ry="18"/>
<text text-anchor="middle" x="183.389" y="-64.3" font-family="Times New Roman,serif" font-size="14.00">(6) AND</text>
</g>
<!-- node2&#45;&gt;node6 -->
<g id="edge3" class="edge"><title>node2&#45;&gt;node6</title>
<path fill="none" stroke="black" d="M78.9061,-145.804C93.5227,-140.781 109.922,-133.409 122.493,-123 133.887,-113.565 130.037,-105.467 140.493,-95 142.952,-92.5377 145.673,-90.1827 148.512,-87.962"/>
<polygon fill="black" stroke="black" points="150.624,-90.7548 156.709,-82.0818 146.543,-85.0669 150.624,-90.7548"/>
<text text-anchor="middle" x="112.493" y="-138.8" font-family="Times New Roman,serif" font-size="14.00"> (0)</text>
</g>
<!-- node3 -->
<g id="node4" class="node"><title>node3</title>
<ellipse fill="none" stroke="black" cx="42.2463" cy="-238" rx="42.4939" ry="18"/>
<text text-anchor="middle" x="42.2463" y="-234.3" font-family="Times New Roman,serif" font-size="14.00">(3) Input</text>
</g>
<!-- node11 -->
<g id="node12" class="node"><title>node11</title>
<ellipse fill="none" stroke="black" cx="600.317" cy="-238" rx="47.3916" ry="18"/>
<text text-anchor="middle" x="600.317" y="-234.3" font-family="Times New Roman,serif" font-size="14.00">(11) XOR</text>
</g>
<!-- node3&#45;&gt;node11 -->
<g id="edge13" class="edge"><title>node3&#45;&gt;node11</title>
<path fill="none" stroke="black" d="M84.6476,-238C112.319,-238 149.536,-238 182.389,-238 182.389,-238 182.389,-238 461.474,-238 488.186,-238 517.81,-238 542.728,-238"/>
<polygon fill="black" stroke="black" points="542.74,-241.5 552.74,-238 542.739,-234.5 542.74,-241.5"/>
<text text-anchor="middle" x="325.181" y="-241.8" font-family="Times New Roman,serif" font-size="14.00"> (0)</text>
</g>
<!-- node4 -->
<g id="node5" class="node"><title>node4</title>
<ellipse fill="none" stroke="black" cx="42.2463" cy="-96" rx="42.4939" ry="18"/>
<text text-anchor="middle" x="42.2463" y="-92.3" font-family="Times New Roman,serif" font-size="14.00">(4) Input</text>
</g>
<!-- node4&#45;&gt;node5 -->
<g id="edge1" class="edge"><title>node4&#45;&gt;node5</title>
<path fill="none" stroke="black" d="M82.8543,-101.367C95.5514,-103.256 109.648,-105.53 122.493,-108 126.918,-108.851 131.513,-109.802 136.1,-110.797"/>
<polygon fill="black" stroke="black" points="135.539,-114.257 146.062,-113.022 137.066,-107.426 135.539,-114.257"/>
<text text-anchor="middle" x="112.493" y="-111.8" font-family="Times New Roman,serif" font-size="14.00"> (0)</text>
</g>
<!-- node4&#45;&gt;node6 -->
<g id="edge4" class="edge"><title>node4&#45;&gt;node6</title>
<path fill="none" stroke="black" d="M80.9002,-88.4228C97.4509,-85.0923 117.078,-81.1426 134.641,-77.6083"/>
<polygon fill="black" stroke="black" points="135.592,-80.9873 144.705,-75.5833 134.211,-74.1249 135.592,-80.9873"/>
<text text-anchor="middle" x="112.493" y="-86.8" font-family="Times New Roman,serif" font-size="14.00"> (1)</text>
</g>
<!-- node5&#45;&gt;node7 -->
<g id="edge6" class="edge"><title>node5&#45;&gt;node7</title>
<path fill="none" stroke="black" d="M220.389,-131.271C238.081,-135.827 259.595,-141.368 278.439,-146.22"/>
<polygon fill="black" stroke="black" points="277.746,-149.656 288.303,-148.761 279.492,-142.877 277.746,-149.656"/>
<text text-anchor="middle" x="254.285" y="-145.8" font-family="Times New Roman,serif" font-size="14.00"> (1)</text>
</g>
<!-- node5&#45;&gt;node8 -->
<g id="edge8" class="edge"><title>node5&#45;&gt;node8</title>
<path fill="none" stroke="black" d="M208.166,-107.287C214.162,-103.411 220.529,-99.1499 226.285,-95 252.184,-76.3265 257.151,-69.6918 282.285,-50 286.412,-46.7666 290.789,-43.3781 295.099,-40.0657"/>
<polygon fill="black" stroke="black" points="297.405,-42.7081 303.219,-33.8506 293.151,-37.1495 297.405,-42.7081"/>
<text text-anchor="middle" x="254.285" y="-83.8" font-family="Times New Roman,serif" font-size="14.00"> (1)</text>
</g>
<!-- node9 -->
<g id="node10" class="node"><title>node9</title>
<ellipse fill="none" stroke="black" cx="460.474" cy="-158" rx="36.2938" ry="18"/>
<text text-anchor="middle" x="460.474" y="-154.3" font-family="Times New Roman,serif" font-size="14.00">(9) OR</text>
</g>
<!-- node6&#45;&gt;node9 -->
<g id="edge9" class="edge"><title>node6&#45;&gt;node9</title>
<path fill="none" stroke="black" d="M221.492,-75.8754C235.006,-78.8709 250.376,-82.4265 264.285,-86 310.793,-97.9488 323.071,-99.2615 368.077,-116 387.232,-123.124 407.975,-132.512 424.85,-140.605"/>
<polygon fill="black" stroke="black" points="423.773,-143.973 434.298,-145.194 426.832,-137.677 423.773,-143.973"/>
<text text-anchor="middle" x="325.181" y="-119.8" font-family="Times New Roman,serif" font-size="14.00"> (0)</text>
</g>
<!-- node7&#45;&gt;node9 -->
<g id="edge10" class="edge"><title>node7&#45;&gt;node9</title>
<path fill="none" stroke="black" d="M367.625,-158C382.279,-158 398.84,-158 413.823,-158"/>
<polygon fill="black" stroke="black" points="413.902,-161.5 423.902,-158 413.902,-154.5 413.902,-161.5"/>
<text text-anchor="middle" x="396.077" y="-161.8" font-family="Times New Roman,serif" font-size="14.00"> (1)</text>
</g>
<!-- node15 -->
<g id="node16" class="node"><title>node15</title>
<ellipse fill="none" stroke="black" cx="1029.44" cy="-18" rx="42.7926" ry="18"/>
<text text-anchor="middle" x="1029.44" y="-14.3" font-family="Times New Roman,serif" font-size="14.00">Output 0</text>
</g>
<!-- node8&#45;&gt;node15 -->
<g id="edge21" class="edge"><title>node8&#45;&gt;node15</title>
<path fill="none" stroke="black" d="M368.204,-18C394.444,-18 428.928,-18 459.474,-18 459.474,-18 459.474,-18 903.1,-18 927.16,-18 953.818,-18 976.342,-18"/>
<polygon fill="black" stroke="black" points="976.375,-21.5001 986.375,-18 976.375,-14.5001 976.375,-21.5001"/>
</g>
<!-- node9&#45;&gt;node10 -->
<g id="edge11" class="edge"><title>node9&#45;&gt;node10</title>
<path fill="none" stroke="black" d="M495.101,-163.892C507.594,-166.098 521.884,-168.641 534.871,-171 538.965,-171.744 543.204,-172.52 547.464,-173.304"/>
<polygon fill="black" stroke="black" points="546.91,-176.761 557.38,-175.136 548.182,-169.877 546.91,-176.761"/>
<text text-anchor="middle" x="524.871" y="-174.8" font-family="Times New Roman,serif" font-size="14.00"> (0)</text>
</g>
<!-- node9&#45;&gt;node11 -->
<g id="edge14" class="edge"><title>node9&#45;&gt;node11</title>
<path fill="none" stroke="black" d="M484.857,-171.571C506.748,-184.276 539.733,-203.42 564.679,-217.897"/>
<polygon fill="black" stroke="black" points="563.065,-221.007 573.47,-223 566.578,-214.953 563.065,-221.007"/>
<text text-anchor="middle" x="524.871" y="-203.8" font-family="Times New Roman,serif" font-size="14.00"> (1)</text>
</g>
<!-- node14 -->
<g id="node15" class="node"><title>node14</title>
<ellipse fill="none" stroke="black" cx="902.1" cy="-157" rx="47.3916" ry="18"/>
<text text-anchor="middle" x="902.1" y="-153.3" font-family="Times New Roman,serif" font-size="14.00">(14) XOR</text>
</g>
<!-- node9&#45;&gt;node14 -->
<g id="edge19" class="edge"><title>node9&#45;&gt;node14</title>
<path fill="none" stroke="black" d="M497.063,-157.04C513.97,-156.631 534.461,-156.201 552.871,-156 655.654,-154.876 775.512,-155.686 844.428,-156.357"/>
<polygon fill="black" stroke="black" points="844.594,-159.859 854.629,-156.459 844.664,-152.859 844.594,-159.859"/>
<text text-anchor="middle" x="675.762" y="-158.8" font-family="Times New Roman,serif" font-size="14.00"> (0)</text>
</g>
<!-- node13 -->
<g id="node14" class="node"><title>node13</title>
<ellipse fill="none" stroke="black" cx="751.208" cy="-183" rx="46.5926" ry="18"/>
<text text-anchor="middle" x="751.208" y="-179.3" font-family="Times New Roman,serif" font-size="14.00">(13) AND</text>
</g>
<!-- node10&#45;&gt;node13 -->
<g id="edge18" class="edge"><title>node10&#45;&gt;node13</title>
<path fill="none" stroke="black" d="M648.018,-183C662.57,-183 678.772,-183 693.908,-183"/>
<polygon fill="black" stroke="black" points="694.183,-186.5 704.183,-183 694.183,-179.5 694.183,-186.5"/>
<text text-anchor="middle" x="675.762" y="-186.8" font-family="Times New Roman,serif" font-size="14.00"> (1)</text>
</g>
<!-- node11&#45;&gt;node12 -->
<g id="edge16" class="edge"><title>node11&#45;&gt;node12</title>
<path fill="none" stroke="black" d="M630.733,-251.83C653.803,-262.676 686.116,-277.868 711.321,-289.717"/>
<polygon fill="black" stroke="black" points="710.06,-292.992 720.599,-294.079 713.038,-286.657 710.06,-292.992"/>
<text text-anchor="middle" x="675.762" y="-280.8" font-family="Times New Roman,serif" font-size="14.00"> (1)</text>
</g>
<!-- node11&#45;&gt;node13 -->
<g id="edge17" class="edge"><title>node11&#45;&gt;node13</title>
<path fill="none" stroke="black" d="M635.102,-225.52C656.499,-217.616 684.359,-207.325 707.31,-198.846"/>
<polygon fill="black" stroke="black" points="708.645,-202.084 716.813,-195.336 706.22,-195.518 708.645,-202.084"/>
<text text-anchor="middle" x="675.762" y="-216.8" font-family="Times New Roman,serif" font-size="14.00"> (0)</text>
</g>
<!-- node16 -->
<g id="node17" class="node"><title>node16</title>
<ellipse fill="none" stroke="black" cx="1029.44" cy="-308" rx="42.7926" ry="18"/>
<text text-anchor="middle" x="1029.44" y="-304.3" font-family="Times New Roman,serif" font-size="14.00">Output 1</text>
</g>
<!-- node12&#45;&gt;node16 -->
<g id="edge22" class="edge"><title>node12&#45;&gt;node16</title>
<path fill="none" stroke="black" d="M798.755,-308C847.807,-308 924.905,-308 976.055,-308"/>
<polygon fill="black" stroke="black" points="976.239,-311.5 986.239,-308 976.239,-304.5 976.239,-311.5"/>
</g>
<!-- node13&#45;&gt;node14 -->
<g id="edge20" class="edge"><title>node13&#45;&gt;node14</title>
<path fill="none" stroke="black" d="M794.079,-175.688C811.055,-172.724 830.845,-169.268 848.758,-166.14"/>
<polygon fill="black" stroke="black" points="849.52,-169.56 858.769,-164.392 848.316,-162.664 849.52,-169.56"/>
<text text-anchor="middle" x="826.654" y="-174.8" font-family="Times New Roman,serif" font-size="14.00"> (1)</text>
</g>
<!-- node17 -->
<g id="node18" class="node"><title>node17</title>
<ellipse fill="none" stroke="black" cx="1029.44" cy="-157" rx="42.7926" ry="18"/>
<text text-anchor="middle" x="1029.44" y="-153.3" font-family="Times New Roman,serif" font-size="14.00">Output 2</text>
</g>
<!-- node14&#45;&gt;node17 -->
<g id="edge23" class="edge"><title>node14&#45;&gt;node17</title>
<path fill="none" stroke="black" d="M949.772,-157C958.377,-157 967.413,-157 976.17,-157"/>
<polygon fill="black" stroke="black" points="976.28,-160.5 986.28,-157 976.28,-153.5 976.28,-160.5"/>
</g>
</g>
</svg>
