<?xml version="1.0" encoding="UTF-8" standalone="no"?>
<!DOCTYPE svg PUBLIC "-//W3C//DTD SVG 1.1//EN"
 "http://www.w3.org/Graphics/SVG/1.1/DTD/svg11.dtd">
<!-- Generated by graphviz version 2.38.0 (20140413.2041)
 -->
<!-- Title: NeuralNetwork Pages: 1 -->
<svg width="288pt" height="115pt"
 viewBox="0.00 0.00 288.00 115.25" xmlns="http://www.w3.org/2000/svg" xmlns:xlink="http://www.w3.org/1999/xlink">
<g id="graph0" class="graph" transform="scale(0.267549 0.267549) rotate(0) translate(4 426.754)">
<title>NeuralNetwork</title>
<polygon fill="white" stroke="none" points="-4,4 -4,-426.754 1072.44,-426.754 1072.44,4 -4,4"/>
<!-- node0 -->
<g id="node1" class="node"><title>node0</title>
<ellipse fill="none" stroke="black" cx="42.2463" cy="-167.754" rx="42.4939" ry="18"/>
<text text-anchor="middle" x="42.2463" y="-164.054" font-family="Times New Roman,serif" font-size="14.00">(0) Input</text>
</g>
<!-- node5 -->
<g id="node6" class="node"><title>node5</title>
<ellipse fill="none" stroke="black" cx="183.389" cy="-170.754" rx="42.4939" ry="18"/>
<text text-anchor="middle" x="183.389" y="-167.054" font-family="Times New Roman,serif" font-size="14.00">(5) AND</text>
</g>
<!-- node0&#45;&gt;node5 -->
<g id="edge2" class="edge"><title>node0&#45;&gt;node5</title>
<path fill="none" stroke="black" d="M84.6168,-168.646C99.0664,-168.957 115.47,-169.311 130.656,-169.639"/>
<polygon fill="black" stroke="black" points="130.864,-173.144 140.937,-169.86 131.015,-166.145 130.864,-173.144"/>
<text text-anchor="middle" x="112.493" y="-172.554" font-family="Times New Roman,serif" font-size="14.00"> (1)</text>
</g>
<!-- node6 -->
<g id="node7" class="node"><title>node6</title>
<ellipse fill="none" stroke="black" cx="183.389" cy="-100.754" rx="42.7926" ry="18"/>
<text text-anchor="middle" x="183.389" y="-97.0539" font-family="Times New Roman,serif" font-size="14.00">(6) XOR</text>
</g>
<!-- node0&#45;&gt;node6 -->
<g id="edge3" class="edge"><title>node0&#45;&gt;node6</title>
<path fill="none" stroke="black" d="M71.0694,-154.357C92.3987,-144.086 122.036,-129.815 145.367,-118.581"/>
<polygon fill="black" stroke="black" points="147.122,-121.62 154.614,-114.128 144.085,-115.313 147.122,-121.62"/>
<text text-anchor="middle" x="112.493" y="-141.554" font-family="Times New Roman,serif" font-size="14.00"> (0)</text>
</g>
<!-- node1 -->
<g id="node2" class="node"><title>node1</title>
<ellipse fill="none" stroke="black" cx="42.2463" cy="-349.754" rx="42.4939" ry="18"/>
<text text-anchor="middle" x="42.2463" y="-346.054" font-family="Times New Roman,serif" font-size="14.00">(1) Input</text>
</g>
<!-- node11 -->
<g id="node12" class="node"><title>node11</title>
<ellipse fill="none" stroke="black" cx="609.416" cy="-211.754" rx="47.3916" ry="18"/>
<text text-anchor="middle" x="609.416" y="-208.054" font-family="Times New Roman,serif" font-size="14.00">(11) XOR</text>
</g>
<!-- node1&#45;&gt;node11 -->
<g id="edge13" class="edge"><title>node1&#45;&gt;node11</title>
<path fill="none" stroke="black" d="M82.3711,-343.71C167.81,-330.411 364.488,-299.197 377.176,-291.754 411.244,-271.771 398.069,-240.847 433.176,-222.754 470.54,-203.499 518.494,-201.795 554.789,-204.321"/>
<polygon fill="black" stroke="black" points="554.921,-207.844 565.176,-205.181 555.498,-200.868 554.921,-207.844"/>
<text text-anchor="middle" x="329.731" y="-314.554" font-family="Times New Roman,serif" font-size="14.00"> (0)</text>
</g>
<!-- node13 -->
<g id="node14" class="node"><title>node13</title>
<ellipse fill="none" stroke="black" cx="760.307" cy="-358.754" rx="46.5926" ry="18"/>
<text text-anchor="middle" x="760.307" y="-355.054" font-family="Times New Roman,serif" font-size="14.00">(13) AND</text>
</g>
<!-- node1&#45;&gt;node13 -->
<g id="edge18" class="edge"><title>node1&#45;&gt;node13</title>
<path fill="none" stroke="black" d="M64.7412,-364.993C91.1372,-382.177 137.897,-407.754 182.389,-407.754 182.389,-407.754 182.389,-407.754 610.416,-407.754 650.564,-407.754 693.888,-391.48 723.393,-377.689"/>
<polygon fill="black" stroke="black" points="724.972,-380.813 732.465,-373.323 721.936,-374.506 724.972,-380.813"/>
<text text-anchor="middle" x="405.176" y="-411.554" font-family="Times New Roman,serif" font-size="14.00"> (1)</text>
</g>
<!-- node2 -->
<g id="node3" class="node"><title>node2</title>
<ellipse fill="none" stroke="black" cx="42.2463" cy="-21.7539" rx="42.4939" ry="18"/>
<text text-anchor="middle" x="42.2463" y="-18.0539" font-family="Times New Roman,serif" font-size="14.00">(2) Input</text>
</g>
<!-- node7 -->
<g id="node8" class="node"><title>node7</title>
<ellipse fill="none" stroke="black" cx="329.731" cy="-110.754" rx="42.4939" ry="18"/>
<text text-anchor="middle" x="329.731" y="-107.054" font-family="Times New Roman,serif" font-size="14.00">(7) AND</text>
</g>
<!-- node2&#45;&gt;node7 -->
<g id="edge5" class="edge"><title>node2&#45;&gt;node7</title>
<path fill="none" stroke="black" d="M84.7216,-21.1349C130.669,-21.9613 205.965,-27.8802 264.285,-54.7539 280.518,-62.2342 295.757,-75.0926 307.337,-86.6028"/>
<polygon fill="black" stroke="black" points="304.926,-89.144 314.392,-93.9019 309.959,-84.2792 304.926,-89.144"/>
<text text-anchor="middle" x="183.389" y="-42.5539" font-family="Times New Roman,serif" font-size="14.00"> (0)</text>
</g>
<!-- node12 -->
<g id="node13" class="node"><title>node12</title>
<ellipse fill="none" stroke="black" cx="329.731" cy="-22.7539" rx="47.3916" ry="18"/>
<text text-anchor="middle" x="329.731" y="-19.0539" font-family="Times New Roman,serif" font-size="14.00">(12) XOR</text>
</g>
<!-- node2&#45;&gt;node12 -->
<g id="edge16" class="edge"><title>node2&#45;&gt;node12</title>
<path fill="none" stroke="black" d="M79.483,-12.9478C97.6714,-8.96995 120.117,-4.72579 140.493,-2.75395 178.445,0.918928 188.332,0.916093 226.285,-2.75395 243.612,-4.42948 262.361,-7.66371 279.024,-11.0509"/>
<polygon fill="black" stroke="black" points="278.592,-14.5366 289.098,-13.1671 280.032,-7.68611 278.592,-14.5366"/>
<text text-anchor="middle" x="183.389" y="-6.55395" font-family="Times New Roman,serif" font-size="14.00"> (1)</text>
</g>
<!-- node3 -->
<g id="node4" class="node"><title>node3</title>
<ellipse fill="none" stroke="black" cx="42.2463" cy="-262.754" rx="42.4939" ry="18"/>
<text text-anchor="middle" x="42.2463" y="-259.054" font-family="Times New Roman,serif" font-size="14.00">(3) Input</text>
</g>
<!-- node9 -->
<g id="node10" class="node"><title>node9</title>
<ellipse fill="none" stroke="black" cx="609.416" cy="-301.754" rx="42.4939" ry="18"/>
<text text-anchor="middle" x="609.416" y="-298.054" font-family="Times New Roman,serif" font-size="14.00">(9) AND</text>
</g>
<!-- node3&#45;&gt;node9 -->
<g id="edge9" class="edge"><title>node3&#45;&gt;node9</title>
<path fill="none" stroke="black" d="M84.6841,-263.615C147.857,-265.126 272.011,-268.873 377.176,-276.754 439.881,-281.453 511.863,-289.686 558.634,-295.414"/>
<polygon fill="black" stroke="black" points="558.445,-298.917 568.798,-296.669 559.302,-291.97 558.445,-298.917"/>
<text text-anchor="middle" x="329.731" y="-280.554" font-family="Times New Roman,serif" font-size="14.00"> (0)</text>
</g>
<!-- node10 -->
<g id="node11" class="node"><title>node10</title>
<ellipse fill="none" stroke="black" cx="609.416" cy="-358.754" rx="40.8928" ry="18"/>
<text text-anchor="middle" x="609.416" y="-355.054" font-family="Times New Roman,serif" font-size="14.00">(10) OR</text>
</g>
<!-- node3&#45;&gt;node10 -->
<g id="edge12" class="edge"><title>node3&#45;&gt;node10</title>
<path fill="none" stroke="black" d="M74.8332,-274.27C120.108,-290.253 206.375,-318.767 282.285,-332.754 378.852,-350.547 493.72,-356.166 558.135,-357.938"/>
<polygon fill="black" stroke="black" points="558.326,-361.444 568.412,-358.2 558.505,-354.447 558.326,-361.444"/>
<text text-anchor="middle" x="329.731" y="-349.554" font-family="Times New Roman,serif" font-size="14.00"> (1)</text>
</g>
<!-- node14 -->
<g id="node15" class="node"><title>node14</title>
<ellipse fill="none" stroke="black" cx="760.307" cy="-182.754" rx="47.3916" ry="18"/>
<text text-anchor="middle" x="760.307" y="-179.054" font-family="Times New Roman,serif" font-size="14.00">(14) XOR</text>
</g>
<!-- node3&#45;&gt;node14 -->
<g id="edge19" class="edge"><title>node3&#45;&gt;node14</title>
<path fill="none" stroke="black" d="M80.4388,-254.902C165.303,-237.484 379.967,-196.242 561.97,-184.754 609.21,-181.772 662.935,-181.426 702.387,-181.74"/>
<polygon fill="black" stroke="black" points="702.573,-185.241 712.607,-181.838 702.641,-178.242 702.573,-185.241"/>
<text text-anchor="middle" x="405.176" y="-204.554" font-family="Times New Roman,serif" font-size="14.00"> (0)</text>
</g>
<!-- node4 -->
<g id="node5" class="node"><title>node4</title>
<ellipse fill="none" stroke="black" cx="42.2463" cy="-90.7539" rx="42.4939" ry="18"/>
<text text-anchor="middle" x="42.2463" y="-87.0539" font-family="Times New Roman,serif" font-size="14.00">(4) Input</text>
</g>
<!-- node4&#45;&gt;node5 -->
<g id="edge1" class="edge"><title>node4&#45;&gt;node5</title>
<path fill="none" stroke="black" d="M82.7283,-96.3544C95.9557,-99.3428 110.402,-103.884 122.493,-110.754 124.781,-112.055 143.223,-130.645 159.046,-146.792"/>
<polygon fill="black" stroke="black" points="156.57,-149.266 166.065,-153.968 161.575,-144.372 156.57,-149.266"/>
<text text-anchor="middle" x="112.493" y="-114.554" font-family="Times New Roman,serif" font-size="14.00"> (0)</text>
</g>
<!-- node4&#45;&gt;node6 -->
<g id="edge4" class="edge"><title>node4&#45;&gt;node6</title>
<path fill="none" stroke="black" d="M72.9763,-78.3353C87.8474,-73.6606 106.122,-70.2347 122.493,-73.7539 130.989,-75.5804 139.733,-78.7111 147.825,-82.208"/>
<polygon fill="black" stroke="black" points="146.424,-85.4162 156.971,-86.425 149.355,-79.0594 146.424,-85.4162"/>
<text text-anchor="middle" x="112.493" y="-77.5539" font-family="Times New Roman,serif" font-size="14.00"> (1)</text>
</g>
<!-- node8 -->
<g id="node9" class="node"><title>node8</title>
<ellipse fill="none" stroke="black" cx="469.573" cy="-249.754" rx="36.2938" ry="18"/>
<text text-anchor="middle" x="469.573" y="-246.054" font-family="Times New Roman,serif" font-size="14.00">(8) OR</text>
</g>
<!-- node5&#45;&gt;node8 -->
<g id="edge8" class="edge"><title>node5&#45;&gt;node8</title>
<path fill="none" stroke="black" d="M219.235,-180.441C271.838,-195.064 371.322,-222.719 427.417,-238.313"/>
<polygon fill="black" stroke="black" points="426.793,-241.772 437.365,-241.078 428.667,-235.028 426.793,-241.772"/>
<text text-anchor="middle" x="329.731" y="-226.554" font-family="Times New Roman,serif" font-size="14.00"> (1)</text>
</g>
<!-- node6&#45;&gt;node7 -->
<g id="edge6" class="edge"><title>node6&#45;&gt;node7</title>
<path fill="none" stroke="black" d="M225.751,-103.62C241.894,-104.738 260.569,-106.032 277.547,-107.208"/>
<polygon fill="black" stroke="black" points="277.643,-110.723 287.861,-107.923 278.127,-103.74 277.643,-110.723"/>
<text text-anchor="middle" x="254.285" y="-109.554" font-family="Times New Roman,serif" font-size="14.00"> (1)</text>
</g>
<!-- node6&#45;&gt;node12 -->
<g id="edge15" class="edge"><title>node6&#45;&gt;node12</title>
<path fill="none" stroke="black" d="M210.528,-86.6287C233.392,-74.2733 266.835,-56.2011 292.319,-42.4303"/>
<polygon fill="black" stroke="black" points="294.179,-45.4033 301.313,-37.57 290.851,-39.2449 294.179,-45.4033"/>
<text text-anchor="middle" x="254.285" y="-69.5539" font-family="Times New Roman,serif" font-size="14.00"> (0)</text>
</g>
<!-- node7&#45;&gt;node8 -->
<g id="edge7" class="edge"><title>node7&#45;&gt;node8</title>
<path fill="none" stroke="black" d="M372.329,-111.92C387.186,-114.198 403.196,-119.014 415.176,-128.754 443.771,-152.001 457.499,-193.658 463.763,-221.504"/>
<polygon fill="black" stroke="black" points="460.363,-222.348 465.813,-231.433 467.218,-220.932 460.363,-222.348"/>
<text text-anchor="middle" x="405.176" y="-132.554" font-family="Times New Roman,serif" font-size="14.00"> (0)</text>
</g>
<!-- node8&#45;&gt;node9 -->
<g id="edge10" class="edge"><title>node8&#45;&gt;node9</title>
<path fill="none" stroke="black" d="M501.564,-258.571C514.758,-262.554 530.24,-267.535 543.97,-272.754 552.982,-276.18 562.533,-280.234 571.444,-284.21"/>
<polygon fill="black" stroke="black" points="570.253,-287.513 580.805,-288.458 573.146,-281.138 570.253,-287.513"/>
<text text-anchor="middle" x="533.97" y="-276.554" font-family="Times New Roman,serif" font-size="14.00"> (1)</text>
</g>
<!-- node8&#45;&gt;node10 -->
<g id="edge11" class="edge"><title>node8&#45;&gt;node10</title>
<path fill="none" stroke="black" d="M487.494,-265.644C505.403,-282.154 534.781,-308.378 561.97,-328.754 566.387,-332.064 571.163,-335.401 575.914,-338.585"/>
<polygon fill="black" stroke="black" points="574.072,-341.563 584.355,-344.113 577.907,-335.707 574.072,-341.563"/>
<text text-anchor="middle" x="533.97" y="-317.554" font-family="Times New Roman,serif" font-size="14.00"> (0)</text>
</g>
<!-- node8&#45;&gt;node11 -->
<g id="edge14" class="edge"><title>node8&#45;&gt;node11</title>
<path fill="none" stroke="black" d="M501.621,-240.987C508.946,-238.931 516.731,-236.756 523.97,-234.754 535.754,-231.494 548.474,-228.011 560.377,-224.767"/>
<polygon fill="black" stroke="black" points="561.414,-228.112 570.144,-222.109 559.576,-221.358 561.414,-228.112"/>
<text text-anchor="middle" x="533.97" y="-238.554" font-family="Times New Roman,serif" font-size="14.00"> (1)</text>
</g>
<!-- node15 -->
<g id="node16" class="node"><title>node15</title>
<ellipse fill="none" stroke="black" cx="904.7" cy="-320.754" rx="40.8928" ry="18"/>
<text text-anchor="middle" x="904.7" y="-317.054" font-family="Times New Roman,serif" font-size="14.00">(15) OR</text>
</g>
<!-- node9&#45;&gt;node15 -->
<g id="edge22" class="edge"><title>node9&#45;&gt;node15</title>
<path fill="none" stroke="black" d="M651.504,-304.416C704.487,-307.848 796.577,-313.814 853.605,-317.509"/>
<polygon fill="black" stroke="black" points="853.623,-321.017 863.828,-318.171 854.075,-314.032 853.623,-321.017"/>
<text text-anchor="middle" x="760.307" y="-317.554" font-family="Times New Roman,serif" font-size="14.00"> (1)</text>
</g>
<!-- node10&#45;&gt;node13 -->
<g id="edge17" class="edge"><title>node10&#45;&gt;node13</title>
<path fill="none" stroke="black" d="M650.708,-358.754C666.906,-358.754 685.859,-358.754 703.357,-358.754"/>
<polygon fill="black" stroke="black" points="703.459,-362.254 713.459,-358.754 703.459,-355.254 703.459,-362.254"/>
<text text-anchor="middle" x="684.862" y="-362.554" font-family="Times New Roman,serif" font-size="14.00"> (0)</text>
</g>
<!-- node11&#45;&gt;node14 -->
<g id="edge20" class="edge"><title>node11&#45;&gt;node14</title>
<path fill="none" stroke="black" d="M651.89,-203.676C669.242,-200.296 689.589,-196.333 707.879,-192.771"/>
<polygon fill="black" stroke="black" points="708.651,-196.186 717.797,-190.839 707.313,-189.315 708.651,-196.186"/>
<text text-anchor="middle" x="684.862" y="-202.554" font-family="Times New Roman,serif" font-size="14.00"> (1)</text>
</g>
<!-- node16 -->
<g id="node17" class="node"><title>node16</title>
<ellipse fill="none" stroke="black" cx="1025.54" cy="-22.7539" rx="42.7926" ry="18"/>
<text text-anchor="middle" x="1025.54" y="-19.0539" font-family="Times New Roman,serif" font-size="14.00">Output 0</text>
</g>
<!-- node12&#45;&gt;node16 -->
<g id="edge23" class="edge"><title>node12&#45;&gt;node16</title>
<path fill="none" stroke="black" d="M377.308,-22.7539C404.019,-22.7539 438.181,-22.7539 468.573,-22.7539 468.573,-22.7539 468.573,-22.7539 905.7,-22.7539 927.498,-22.7539 951.545,-22.7539 972.272,-22.7539"/>
<polygon fill="black" stroke="black" points="972.467,-26.254 982.467,-22.7539 972.467,-19.254 972.467,-26.254"/>
</g>
<!-- node13&#45;&gt;node15 -->
<g id="edge21" class="edge"><title>node13&#45;&gt;node15</title>
<path fill="none" stroke="black" d="M799.092,-348.67C817.615,-343.727 840.039,-337.743 859.368,-332.585"/>
<polygon fill="black" stroke="black" points="860.397,-335.933 869.157,-329.972 858.592,-329.169 860.397,-335.933"/>
<text text-anchor="middle" x="835.753" y="-344.554" font-family="Times New Roman,serif" font-size="14.00"> (0)</text>
</g>
<!-- node17 -->
<g id="node18" class="node"><title>node17</title>
<ellipse fill="none" stroke="black" cx="1025.54" cy="-182.754" rx="42.7926" ry="18"/>
<text text-anchor="middle" x="1025.54" y="-179.054" font-family="Times New Roman,serif" font-size="14.00">Output 1</text>
</g>
<!-- node14&#45;&gt;node17 -->
<g id="edge24" class="edge"><title>node14&#45;&gt;node17</title>
<path fill="none" stroke="black" d="M807.763,-182.754C853.827,-182.754 924.283,-182.754 972.276,-182.754"/>
<polygon fill="black" stroke="black" points="972.46,-186.254 982.46,-182.754 972.46,-179.254 972.46,-186.254"/>
</g>
<!-- node18 -->
<g id="node19" class="node"><title>node18</title>
<ellipse fill="none" stroke="black" cx="1025.54" cy="-320.754" rx="42.7926" ry="18"/>
<text text-anchor="middle" x="1025.54" y="-317.054" font-family="Times New Roman,serif" font-size="14.00">Output 2</text>
</g>
<!-- node15&#45;&gt;node18 -->
<g id="edge25" class="edge"><title>node15&#45;&gt;node18</title>
<path fill="none" stroke="black" d="M945.934,-320.754C954.356,-320.754 963.353,-320.754 972.143,-320.754"/>
<polygon fill="black" stroke="black" points="972.319,-324.254 982.319,-320.754 972.318,-317.254 972.319,-324.254"/>
</g>
</g>
</svg>
