<?xml version="1.0" encoding="UTF-8" standalone="no"?>
<!DOCTYPE svg PUBLIC "-//W3C//DTD SVG 1.1//EN"
 "http://www.w3.org/Graphics/SVG/1.1/DTD/svg11.dtd">
<!-- Generated by graphviz version 2.38.0 (20140413.2041)
 -->
<!-- Title: NeuralNetwork Pages: 1 -->
<svg width="288pt" height="106pt"
 viewBox="0.00 0.00 288.00 105.81" xmlns="http://www.w3.org/2000/svg" xmlns:xlink="http://www.w3.org/1999/xlink">
<g id="graph0" class="graph" transform="scale(0.184665 0.184665) rotate(0) translate(4 569)">
<title>NeuralNetwork</title>
<polygon fill="white" stroke="none" points="-4,4 -4,-569 1555.58,-569 1555.58,4 -4,4"/>
<!-- node0 -->
<g id="node1" class="node"><title>node0</title>
<ellipse fill="none" stroke="black" cx="42.2463" cy="-106" rx="42.4939" ry="18"/>
<text text-anchor="middle" x="42.2463" y="-102.3" font-family="Times New Roman,serif" font-size="14.00">(0) Input</text>
</g>
<!-- node6 -->
<g id="node7" class="node"><title>node6</title>
<ellipse fill="none" stroke="black" cx="506.811" cy="-313" rx="36.2938" ry="18"/>
<text text-anchor="middle" x="506.811" y="-309.3" font-family="Times New Roman,serif" font-size="14.00">(6) OR</text>
</g>
<!-- node0&#45;&gt;node6 -->
<g id="edge3" class="edge"><title>node0&#45;&gt;node6</title>
<path fill="none" stroke="black" d="M69.0013,-119.981C79.33,-125.455 91.395,-131.683 102.493,-137 235.416,-200.68 397.053,-268.337 468.633,-297.81"/>
<polygon fill="black" stroke="black" points="467.543,-301.146 478.123,-301.711 470.205,-294.672 467.543,-301.146"/>
<text text-anchor="middle" x="276.479" y="-240.8" font-family="Times New Roman,serif" font-size="14.00"> (0)</text>
</g>
<!-- node14 -->
<g id="node15" class="node"><title>node14</title>
<ellipse fill="none" stroke="black" cx="393.92" cy="-74" rx="47.3916" ry="18"/>
<text text-anchor="middle" x="393.92" y="-70.3" font-family="Times New Roman,serif" font-size="14.00">(14) XOR</text>
</g>
<!-- node0&#45;&gt;node14 -->
<g id="edge14" class="edge"><title>node0&#45;&gt;node14</title>
<path fill="none" stroke="black" d="M62.1333,-89.9054C73.1342,-81.6043 87.7174,-72.3311 102.493,-68 183.529,-44.245 282.809,-54.1327 341.797,-63.8156"/>
<polygon fill="black" stroke="black" points="341.528,-67.3201 351.974,-65.5502 342.704,-60.4197 341.528,-67.3201"/>
<text text-anchor="middle" x="154.488" y="-71.8" font-family="Times New Roman,serif" font-size="14.00"> (1)</text>
</g>
<!-- node1 -->
<g id="node2" class="node"><title>node1</title>
<ellipse fill="none" stroke="black" cx="42.2463" cy="-524" rx="42.4939" ry="18"/>
<text text-anchor="middle" x="42.2463" y="-520.3" font-family="Times New Roman,serif" font-size="14.00">(1) Input</text>
</g>
<!-- node10 -->
<g id="node11" class="node"><title>node10</title>
<ellipse fill="none" stroke="black" cx="276.479" cy="-448" rx="47.3916" ry="18"/>
<text text-anchor="middle" x="276.479" y="-444.3" font-family="Times New Roman,serif" font-size="14.00">(10) XOR</text>
</g>
<!-- node1&#45;&gt;node10 -->
<g id="edge9" class="edge"><title>node1&#45;&gt;node10</title>
<path fill="none" stroke="black" d="M60.2398,-507.598C71.3844,-497.778 86.7612,-485.902 102.493,-479 103.906,-478.38 172.676,-466.153 223.069,-457.243"/>
<polygon fill="black" stroke="black" points="223.956,-460.641 233.194,-455.454 222.738,-453.748 223.956,-460.641"/>
<text text-anchor="middle" x="154.488" y="-482.8" font-family="Times New Roman,serif" font-size="14.00"> (0)</text>
</g>
<!-- node23 -->
<g id="node24" class="node"><title>node23</title>
<ellipse fill="none" stroke="black" cx="1381.35" cy="-534" rx="47.3916" ry="18"/>
<text text-anchor="middle" x="1381.35" y="-530.3" font-family="Times New Roman,serif" font-size="14.00">(23) XOR</text>
</g>
<!-- node1&#45;&gt;node23 -->
<g id="edge30" class="edge"><title>node1&#45;&gt;node23</title>
<path fill="none" stroke="black" d="M81.3174,-530.899C127.2,-538.602 206.712,-550 275.479,-550 275.479,-550 275.479,-550 1157.86,-550 1215.17,-550 1280.56,-544.654 1325.54,-540.143"/>
<polygon fill="black" stroke="black" points="1326.08,-543.606 1335.67,-539.106 1325.37,-536.643 1326.08,-543.606"/>
<text text-anchor="middle" x="719.596" y="-553.8" font-family="Times New Roman,serif" font-size="14.00"> (0)</text>
</g>
<!-- node2 -->
<g id="node3" class="node"><title>node2</title>
<ellipse fill="none" stroke="black" cx="42.2463" cy="-311" rx="42.4939" ry="18"/>
<text text-anchor="middle" x="42.2463" y="-307.3" font-family="Times New Roman,serif" font-size="14.00">(2) Input</text>
</g>
<!-- node5 -->
<g id="node6" class="node"><title>node5</title>
<ellipse fill="none" stroke="black" cx="276.479" cy="-313" rx="42.4939" ry="18"/>
<text text-anchor="middle" x="276.479" y="-309.3" font-family="Times New Roman,serif" font-size="14.00">(5) AND</text>
</g>
<!-- node2&#45;&gt;node5 -->
<g id="edge1" class="edge"><title>node2&#45;&gt;node5</title>
<path fill="none" stroke="black" d="M83.6924,-314.87C89.9807,-315.34 96.4077,-315.744 102.493,-316 143.288,-317.718 189.534,-316.766 223.94,-315.495"/>
<polygon fill="black" stroke="black" points="224.363,-318.981 234.218,-315.092 224.089,-311.986 224.363,-318.981"/>
<text text-anchor="middle" x="154.488" y="-319.8" font-family="Times New Roman,serif" font-size="14.00"> (0)</text>
</g>
<!-- node22 -->
<g id="node23" class="node"><title>node22</title>
<ellipse fill="none" stroke="black" cx="1268.46" cy="-246" rx="47.3916" ry="18"/>
<text text-anchor="middle" x="1268.46" y="-242.3" font-family="Times New Roman,serif" font-size="14.00">(22) XOR</text>
</g>
<!-- node2&#45;&gt;node22 -->
<g id="edge29" class="edge"><title>node2&#45;&gt;node22</title>
<path fill="none" stroke="black" d="M66.8812,-296.371C77.4005,-290.573 90.1749,-284.472 102.493,-281 176.734,-260.074 198.345,-267 275.479,-267 275.479,-267 275.479,-267 1046.27,-267 1103.71,-267 1169.16,-259.895 1213.87,-253.951"/>
<polygon fill="black" stroke="black" points="1214.49,-257.399 1223.92,-252.587 1213.54,-250.463 1214.49,-257.399"/>
<text text-anchor="middle" x="613.204" y="-270.8" font-family="Times New Roman,serif" font-size="14.00"> (1)</text>
</g>
<!-- node3 -->
<g id="node4" class="node"><title>node3</title>
<ellipse fill="none" stroke="black" cx="42.2463" cy="-444" rx="42.4939" ry="18"/>
<text text-anchor="middle" x="42.2463" y="-440.3" font-family="Times New Roman,serif" font-size="14.00">(3) Input</text>
</g>
<!-- node7 -->
<g id="node8" class="node"><title>node7</title>
<ellipse fill="none" stroke="black" cx="276.479" cy="-502" rx="42.4939" ry="18"/>
<text text-anchor="middle" x="276.479" y="-498.3" font-family="Times New Roman,serif" font-size="14.00">(7) AND</text>
</g>
<!-- node3&#45;&gt;node7 -->
<g id="edge5" class="edge"><title>node3&#45;&gt;node7</title>
<path fill="none" stroke="black" d="M56.2148,-461.156C67.0134,-473.941 83.6313,-490.442 102.493,-498 142.085,-513.865 190.972,-513.362 226.664,-509.767"/>
<polygon fill="black" stroke="black" points="227.28,-513.22 236.826,-508.625 226.498,-506.264 227.28,-513.22"/>
<text text-anchor="middle" x="154.488" y="-514.8" font-family="Times New Roman,serif" font-size="14.00"> (0)</text>
</g>
<!-- node3&#45;&gt;node7 -->
<g id="edge6" class="edge"><title>node3&#45;&gt;node7</title>
<path fill="none" stroke="black" d="M78.6055,-434.774C113.513,-427.731 167.216,-422.608 206.483,-445 219.991,-452.702 213.198,-464.303 224.483,-475 228.205,-478.528 232.477,-481.724 236.931,-484.581"/>
<polygon fill="black" stroke="black" points="235.221,-487.635 245.622,-489.653 238.75,-481.59 235.221,-487.635"/>
<text text-anchor="middle" x="154.488" y="-448.8" font-family="Times New Roman,serif" font-size="14.00"> (1)</text>
</g>
<!-- node3&#45;&gt;node10 -->
<g id="edge10" class="edge"><title>node3&#45;&gt;node10</title>
<path fill="none" stroke="black" d="M62.4634,-428.131C73.4537,-420.096 87.9206,-411.176 102.493,-407 146.922,-394.266 162.767,-392.001 206.483,-407 216.07,-410.289 215.973,-415.497 224.483,-421 228.629,-423.681 233.068,-426.33 237.535,-428.86"/>
<polygon fill="black" stroke="black" points="236.203,-432.122 246.655,-433.86 239.568,-425.984 236.203,-432.122"/>
<text text-anchor="middle" x="154.488" y="-410.8" font-family="Times New Roman,serif" font-size="14.00"> (1)</text>
</g>
<!-- node4 -->
<g id="node5" class="node"><title>node4</title>
<ellipse fill="none" stroke="black" cx="42.2463" cy="-243" rx="42.4939" ry="18"/>
<text text-anchor="middle" x="42.2463" y="-239.3" font-family="Times New Roman,serif" font-size="14.00">(4) Input</text>
</g>
<!-- node4&#45;&gt;node5 -->
<g id="edge2" class="edge"><title>node4&#45;&gt;node5</title>
<path fill="none" stroke="black" d="M77.5129,-253.329C118.45,-265.668 187.004,-286.332 231.732,-299.814"/>
<polygon fill="black" stroke="black" points="230.865,-303.208 241.45,-302.743 232.885,-296.506 230.865,-303.208"/>
<text text-anchor="middle" x="154.488" y="-293.8" font-family="Times New Roman,serif" font-size="14.00"> (1)</text>
</g>
<!-- node13 -->
<g id="node14" class="node"><title>node13</title>
<ellipse fill="none" stroke="black" cx="393.92" cy="-153" rx="46.5926" ry="18"/>
<text text-anchor="middle" x="393.92" y="-149.3" font-family="Times New Roman,serif" font-size="14.00">(13) AND</text>
</g>
<!-- node4&#45;&gt;node13 -->
<g id="edge12" class="edge"><title>node4&#45;&gt;node13</title>
<path fill="none" stroke="black" d="M83.3959,-238.867C156.628,-231.15 306.413,-214.476 328.474,-205 343.715,-198.454 358.308,-187.246 369.741,-176.908"/>
<polygon fill="black" stroke="black" points="372.241,-179.362 377.122,-169.958 367.442,-174.266 372.241,-179.362"/>
<text text-anchor="middle" x="154.488" y="-239.8" font-family="Times New Roman,serif" font-size="14.00"> (1)</text>
</g>
<!-- node5&#45;&gt;node6 -->
<g id="edge4" class="edge"><title>node5&#45;&gt;node6</title>
<path fill="none" stroke="black" d="M318.828,-313C358.754,-313 419.071,-313 460.334,-313"/>
<polygon fill="black" stroke="black" points="460.39,-316.5 470.39,-313 460.39,-309.5 460.39,-316.5"/>
<text text-anchor="middle" x="393.92" y="-316.8" font-family="Times New Roman,serif" font-size="14.00"> (1)</text>
</g>
<!-- node8 -->
<g id="node9" class="node"><title>node8</title>
<ellipse fill="none" stroke="black" cx="719.596" cy="-496" rx="42.7926" ry="18"/>
<text text-anchor="middle" x="719.596" y="-492.3" font-family="Times New Roman,serif" font-size="14.00">(8) XOR</text>
</g>
<!-- node6&#45;&gt;node8 -->
<g id="edge7" class="edge"><title>node6&#45;&gt;node8</title>
<path fill="none" stroke="black" d="M525.497,-328.909C534.182,-336.744 544.79,-346.343 554.257,-355 606.921,-403.154 616.428,-419.421 672.15,-464 676.852,-467.762 681.976,-471.563 687.047,-475.168"/>
<polygon fill="black" stroke="black" points="685.239,-478.174 695.448,-481.007 689.234,-472.426 685.239,-478.174"/>
<text text-anchor="middle" x="613.204" y="-452.8" font-family="Times New Roman,serif" font-size="14.00"> (0)</text>
</g>
<!-- node16 -->
<g id="node17" class="node"><title>node16</title>
<ellipse fill="none" stroke="black" cx="719.596" cy="-351" rx="47.3916" ry="18"/>
<text text-anchor="middle" x="719.596" y="-347.3" font-family="Times New Roman,serif" font-size="14.00">(16) XOR</text>
</g>
<!-- node6&#45;&gt;node16 -->
<g id="edge18" class="edge"><title>node6&#45;&gt;node16</title>
<path fill="none" stroke="black" d="M541.099,-306.741C571.252,-302.369 616.576,-299.061 654.15,-310 667.311,-313.832 680.351,-321.253 691.221,-328.742"/>
<polygon fill="black" stroke="black" points="689.284,-331.66 699.435,-334.694 693.392,-325.992 689.284,-331.66"/>
<text text-anchor="middle" x="613.204" y="-313.8" font-family="Times New Roman,serif" font-size="14.00"> (1)</text>
</g>
<!-- node7&#45;&gt;node8 -->
<g id="edge8" class="edge"><title>node7&#45;&gt;node8</title>
<path fill="none" stroke="black" d="M318.978,-501.436C399.746,-500.337 577.893,-497.914 666.474,-496.709"/>
<polygon fill="black" stroke="black" points="666.611,-500.208 676.563,-496.572 666.516,-493.208 666.611,-500.208"/>
<text text-anchor="middle" x="506.811" y="-502.8" font-family="Times New Roman,serif" font-size="14.00"> (1)</text>
</g>
<!-- node20 -->
<g id="node21" class="node"><title>node20</title>
<ellipse fill="none" stroke="black" cx="938.879" cy="-496" rx="40.8928" ry="18"/>
<text text-anchor="middle" x="938.879" y="-492.3" font-family="Times New Roman,serif" font-size="14.00">(20) OR</text>
</g>
<!-- node8&#45;&gt;node20 -->
<g id="edge25" class="edge"><title>node8&#45;&gt;node20</title>
<path fill="none" stroke="black" d="M762.748,-496C798.395,-496 849.559,-496 887.388,-496"/>
<polygon fill="black" stroke="black" points="887.68,-499.5 897.68,-496 887.68,-492.5 887.68,-499.5"/>
<text text-anchor="middle" x="832.487" y="-499.8" font-family="Times New Roman,serif" font-size="14.00"> (0)</text>
</g>
<!-- node9 -->
<g id="node10" class="node"><title>node9</title>
<ellipse fill="none" stroke="black" cx="393.92" cy="-18" rx="47.3916" ry="18"/>
<text text-anchor="middle" x="393.92" y="-14.3" font-family="Times New Roman,serif" font-size="14.00">(9) ONES</text>
</g>
<!-- node17 -->
<g id="node18" class="node"><title>node17</title>
<ellipse fill="none" stroke="black" cx="613.204" cy="-69" rx="40.8928" ry="18"/>
<text text-anchor="middle" x="613.204" y="-65.3" font-family="Times New Roman,serif" font-size="14.00">(17) OR</text>
</g>
<!-- node9&#45;&gt;node17 -->
<g id="edge19" class="edge"><title>node9&#45;&gt;node17</title>
<path fill="none" stroke="black" d="M437.111,-25.5821C469.378,-31.6592 514.869,-40.8292 554.257,-51 559.354,-52.3161 564.669,-53.8042 569.922,-55.347"/>
<polygon fill="black" stroke="black" points="569.291,-58.8124 579.876,-58.3505 571.313,-52.1109 569.291,-58.8124"/>
<text text-anchor="middle" x="506.811" y="-54.8" font-family="Times New Roman,serif" font-size="14.00"> (0)</text>
</g>
<!-- node15 -->
<g id="node16" class="node"><title>node15</title>
<ellipse fill="none" stroke="black" cx="506.811" cy="-445" rx="47.3916" ry="18"/>
<text text-anchor="middle" x="506.811" y="-441.3" font-family="Times New Roman,serif" font-size="14.00">(15) XOR</text>
</g>
<!-- node10&#45;&gt;node15 -->
<g id="edge15" class="edge"><title>node10&#45;&gt;node15</title>
<path fill="none" stroke="black" d="M323.96,-447.389C360.109,-446.914 410.426,-446.253 448.971,-445.747"/>
<polygon fill="black" stroke="black" points="449.05,-449.246 459.003,-445.615 448.958,-442.247 449.05,-449.246"/>
<text text-anchor="middle" x="393.92" y="-450.8" font-family="Times New Roman,serif" font-size="14.00"> (0)</text>
</g>
<!-- node10&#45;&gt;node16 -->
<g id="edge17" class="edge"><title>node10&#45;&gt;node16</title>
<path fill="none" stroke="black" d="M307.331,-434.28C314.535,-430.414 322.013,-425.909 328.474,-421 337.737,-413.963 336.099,-407.26 346.474,-402 469.414,-339.667 517.965,-384.292 654.15,-363 658.324,-362.347 662.643,-361.632 666.977,-360.885"/>
<polygon fill="black" stroke="black" points="667.819,-364.29 677.056,-359.101 666.599,-357.398 667.819,-364.29"/>
<text text-anchor="middle" x="506.811" y="-372.8" font-family="Times New Roman,serif" font-size="14.00"> (0)</text>
</g>
<!-- node11 -->
<g id="node12" class="node"><title>node11</title>
<ellipse fill="none" stroke="black" cx="154.488" cy="-110" rx="51.9908" ry="18"/>
<text text-anchor="middle" x="154.488" y="-106.3" font-family="Times New Roman,serif" font-size="14.00">(11) ONES</text>
</g>
<!-- node11&#45;&gt;node13 -->
<g id="edge11" class="edge"><title>node11&#45;&gt;node13</title>
<path fill="none" stroke="black" d="M200.986,-118.24C241.042,-125.494 299.342,-136.053 341.166,-143.627"/>
<polygon fill="black" stroke="black" points="340.692,-147.098 351.156,-145.436 341.939,-140.21 340.692,-147.098"/>
<text text-anchor="middle" x="276.479" y="-143.8" font-family="Times New Roman,serif" font-size="14.00"> (0)</text>
</g>
<!-- node11&#45;&gt;node14 -->
<g id="edge13" class="edge"><title>node11&#45;&gt;node14</title>
<path fill="none" stroke="black" d="M201.104,-101.863C208.897,-100.531 216.918,-99.1966 224.483,-98 262.689,-91.9571 305.882,-85.8165 338.963,-81.2593"/>
<polygon fill="black" stroke="black" points="339.457,-84.7245 348.888,-79.8977 338.505,-77.7894 339.457,-84.7245"/>
<text text-anchor="middle" x="276.479" y="-101.8" font-family="Times New Roman,serif" font-size="14.00"> (0)</text>
</g>
<!-- node12 -->
<g id="node13" class="node"><title>node12</title>
<ellipse fill="none" stroke="black" cx="276.479" cy="-394" rx="51.9908" ry="18"/>
<text text-anchor="middle" x="276.479" y="-390.3" font-family="Times New Roman,serif" font-size="14.00">(12) ONES</text>
</g>
<!-- node12&#45;&gt;node15 -->
<g id="edge16" class="edge"><title>node12&#45;&gt;node15</title>
<path fill="none" stroke="black" d="M323.648,-401.82C356.623,-407.695 401.941,-416.362 441.366,-426 447.389,-427.472 453.689,-429.153 459.892,-430.891"/>
<polygon fill="black" stroke="black" points="458.928,-434.255 469.505,-433.648 460.858,-427.527 458.928,-434.255"/>
<text text-anchor="middle" x="393.92" y="-429.8" font-family="Times New Roman,serif" font-size="14.00"> (1)</text>
</g>
<!-- node19 -->
<g id="node20" class="node"><title>node19</title>
<ellipse fill="none" stroke="black" cx="1045.27" cy="-158" rx="47.3916" ry="18"/>
<text text-anchor="middle" x="1045.27" y="-154.3" font-family="Times New Roman,serif" font-size="14.00">(19) XOR</text>
</g>
<!-- node13&#45;&gt;node19 -->
<g id="edge23" class="edge"><title>node13&#45;&gt;node19</title>
<path fill="none" stroke="black" d="M440.84,-153.354C556.598,-154.245 860.134,-156.582 987.123,-157.56"/>
<polygon fill="black" stroke="black" points="987.379,-161.062 997.406,-157.639 987.433,-154.062 987.379,-161.062"/>
<text text-anchor="middle" x="719.596" y="-158.8" font-family="Times New Roman,serif" font-size="14.00"> (0)</text>
</g>
<!-- node14&#45;&gt;node17 -->
<g id="edge20" class="edge"><title>node14&#45;&gt;node17</title>
<path fill="none" stroke="black" d="M441.533,-72.9274C476.943,-72.1125 525.574,-70.9935 561.869,-70.1583"/>
<polygon fill="black" stroke="black" points="562.315,-73.649 572.232,-69.9198 562.154,-66.6509 562.315,-73.649"/>
<text text-anchor="middle" x="506.811" y="-75.8" font-family="Times New Roman,serif" font-size="14.00"> (1)</text>
</g>
<!-- node18 -->
<g id="node19" class="node"><title>node18</title>
<ellipse fill="none" stroke="black" cx="832.487" cy="-112" rx="47.3916" ry="18"/>
<text text-anchor="middle" x="832.487" y="-108.3" font-family="Times New Roman,serif" font-size="14.00">(18) XOR</text>
</g>
<!-- node14&#45;&gt;node18 -->
<g id="edge21" class="edge"><title>node14&#45;&gt;node18</title>
<path fill="none" stroke="black" d="M431.794,-85.0908C440.744,-87.4029 450.337,-89.5694 459.366,-91 570.077,-108.542 701.35,-111.959 774.662,-112.335"/>
<polygon fill="black" stroke="black" points="775.037,-115.836 785.049,-112.37 775.06,-108.836 775.037,-115.836"/>
<text text-anchor="middle" x="613.204" y="-112.8" font-family="Times New Roman,serif" font-size="14.00"> (0)</text>
</g>
<!-- node15&#45;&gt;node20 -->
<g id="edge26" class="edge"><title>node15&#45;&gt;node20</title>
<path fill="none" stroke="black" d="M554.419,-443.738C606.504,-442.996 693.22,-443.756 767.042,-454 811.372,-460.152 860.927,-473.022 895.201,-482.904"/>
<polygon fill="black" stroke="black" points="894.304,-486.288 904.884,-485.733 896.267,-479.569 894.304,-486.288"/>
<text text-anchor="middle" x="719.596" y="-457.8" font-family="Times New Roman,serif" font-size="14.00"> (1)</text>
</g>
<!-- node25 -->
<g id="node26" class="node"><title>node25</title>
<ellipse fill="none" stroke="black" cx="1508.69" cy="-351" rx="42.7926" ry="18"/>
<text text-anchor="middle" x="1508.69" y="-347.3" font-family="Times New Roman,serif" font-size="14.00">Output 1</text>
</g>
<!-- node16&#45;&gt;node25 -->
<g id="edge33" class="edge"><title>node16&#45;&gt;node25</title>
<path fill="none" stroke="black" d="M767.22,-351C811.219,-351 879.032,-351 937.879,-351 937.879,-351 937.879,-351 1382.35,-351 1406.41,-351 1433.06,-351 1455.59,-351"/>
<polygon fill="black" stroke="black" points="1455.62,-354.5 1465.62,-351 1455.62,-347.5 1455.62,-354.5"/>
</g>
<!-- node17&#45;&gt;node18 -->
<g id="edge22" class="edge"><title>node17&#45;&gt;node18</title>
<path fill="none" stroke="black" d="M654.413,-69.0728C685.605,-69.9893 729.675,-73.1759 767.042,-83 776.365,-85.4514 786.037,-89.1302 794.965,-93.0519"/>
<polygon fill="black" stroke="black" points="793.762,-96.351 804.309,-97.3561 796.691,-89.9932 793.762,-96.351"/>
<text text-anchor="middle" x="719.596" y="-86.8" font-family="Times New Roman,serif" font-size="14.00"> (1)</text>
</g>
<!-- node18&#45;&gt;node19 -->
<g id="edge24" class="edge"><title>node18&#45;&gt;node19</title>
<path fill="none" stroke="black" d="M879.991,-113.758C909.104,-115.748 947.158,-119.985 979.826,-129 989.119,-131.565 998.779,-135.287 1007.71,-139.215"/>
<polygon fill="black" stroke="black" points="1006.5,-142.514 1017.05,-143.513 1009.43,-136.155 1006.5,-142.514"/>
<text text-anchor="middle" x="938.879" y="-132.8" font-family="Times New Roman,serif" font-size="14.00"> (1)</text>
</g>
<!-- node19&#45;&gt;node22 -->
<g id="edge28" class="edge"><title>node19&#45;&gt;node22</title>
<path fill="none" stroke="black" d="M1078.91,-170.985C1117.82,-186.465 1182.92,-212.365 1225.52,-229.316"/>
<polygon fill="black" stroke="black" points="1224.46,-232.661 1235.05,-233.105 1227.05,-226.156 1224.46,-232.661"/>
<text text-anchor="middle" x="1156.86" y="-222.8" font-family="Times New Roman,serif" font-size="14.00"> (0)</text>
</g>
<!-- node21 -->
<g id="node22" class="node"><title>node21</title>
<ellipse fill="none" stroke="black" cx="1156.86" cy="-502" rx="46.2923" ry="18"/>
<text text-anchor="middle" x="1156.86" y="-498.3" font-family="Times New Roman,serif" font-size="14.00">(21) NEG</text>
</g>
<!-- node20&#45;&gt;node21 -->
<g id="edge27" class="edge"><title>node20&#45;&gt;node21</title>
<path fill="none" stroke="black" d="M979.998,-497.114C1013.9,-498.056 1062.8,-499.415 1100.44,-500.46"/>
<polygon fill="black" stroke="black" points="1100.64,-503.967 1110.73,-500.746 1100.84,-496.97 1100.64,-503.967"/>
<text text-anchor="middle" x="1045.27" y="-503.8" font-family="Times New Roman,serif" font-size="14.00"> (0)</text>
</g>
<!-- node21&#45;&gt;node23 -->
<g id="edge31" class="edge"><title>node21&#45;&gt;node23</title>
<path fill="none" stroke="black" d="M1201.93,-506.351C1233.71,-509.718 1277.57,-514.839 1315.9,-521 1320.33,-521.712 1324.92,-522.512 1329.52,-523.356"/>
<polygon fill="black" stroke="black" points="1329.05,-526.829 1339.52,-525.257 1330.35,-519.952 1329.05,-526.829"/>
<text text-anchor="middle" x="1268.46" y="-524.8" font-family="Times New Roman,serif" font-size="14.00"> (1)</text>
</g>
<!-- node24 -->
<g id="node25" class="node"><title>node24</title>
<ellipse fill="none" stroke="black" cx="1508.69" cy="-246" rx="42.7926" ry="18"/>
<text text-anchor="middle" x="1508.69" y="-242.3" font-family="Times New Roman,serif" font-size="14.00">Output 0</text>
</g>
<!-- node22&#45;&gt;node24 -->
<g id="edge32" class="edge"><title>node22&#45;&gt;node24</title>
<path fill="none" stroke="black" d="M1315.95,-246C1356.03,-246 1413.83,-246 1455.48,-246"/>
<polygon fill="black" stroke="black" points="1455.7,-249.5 1465.7,-246 1455.7,-242.5 1455.7,-249.5"/>
</g>
<!-- node26 -->
<g id="node27" class="node"><title>node26</title>
<ellipse fill="none" stroke="black" cx="1508.69" cy="-534" rx="42.7926" ry="18"/>
<text text-anchor="middle" x="1508.69" y="-530.3" font-family="Times New Roman,serif" font-size="14.00">Output 2</text>
</g>
<!-- node23&#45;&gt;node26 -->
<g id="edge34" class="edge"><title>node23&#45;&gt;node26</title>
<path fill="none" stroke="black" d="M1429.02,-534C1437.62,-534 1446.66,-534 1455.42,-534"/>
<polygon fill="black" stroke="black" points="1455.53,-537.5 1465.53,-534 1455.53,-530.5 1455.53,-537.5"/>
</g>
</g>
</svg>
