<?xml version="1.0" encoding="UTF-8" standalone="no"?>
<!DOCTYPE svg PUBLIC "-//W3C//DTD SVG 1.1//EN"
 "http://www.w3.org/Graphics/SVG/1.1/DTD/svg11.dtd">
<!-- Generated by graphviz version 2.38.0 (20140413.2041)
 -->
<!-- Title: NeuralNetwork Pages: 1 -->
<svg width="288pt" height="105pt"
 viewBox="0.00 0.00 288.00 104.92" xmlns="http://www.w3.org/2000/svg" xmlns:xlink="http://www.w3.org/1999/xlink">
<g id="graph0" class="graph" transform="scale(0.264942 0.264942) rotate(0) translate(4 392)">
<title>NeuralNetwork</title>
<polygon fill="white" stroke="none" points="-4,4 -4,-392 1083.03,-392 1083.03,4 -4,4"/>
<!-- node0 -->
<g id="node1" class="node"><title>node0</title>
<ellipse fill="none" stroke="black" cx="42.2463" cy="-370" rx="42.4939" ry="18"/>
<text text-anchor="middle" x="42.2463" y="-366.3" font-family="Times New Roman,serif" font-size="14.00">(0) Input</text>
</g>
<!-- node5 -->
<g id="node6" class="node"><title>node5</title>
<ellipse fill="none" stroke="black" cx="182.739" cy="-355" rx="36.2938" ry="18"/>
<text text-anchor="middle" x="182.739" y="-351.3" font-family="Times New Roman,serif" font-size="14.00">(5) OR</text>
</g>
<!-- node0&#45;&gt;node5 -->
<g id="edge2" class="edge"><title>node0&#45;&gt;node5</title>
<path fill="none" stroke="black" d="M84.8849,-369.69C97.0403,-369.258 110.326,-368.453 122.493,-367 128.028,-366.339 133.818,-365.436 139.518,-364.419"/>
<polygon fill="black" stroke="black" points="140.439,-367.806 149.606,-362.494 139.127,-360.93 140.439,-367.806"/>
<text text-anchor="middle" x="112.493" y="-371.8" font-family="Times New Roman,serif" font-size="14.00"> (1)</text>
</g>
<!-- node8 -->
<g id="node9" class="node"><title>node8</title>
<ellipse fill="none" stroke="black" cx="182.739" cy="-285" rx="42.4939" ry="18"/>
<text text-anchor="middle" x="182.739" y="-281.3" font-family="Times New Roman,serif" font-size="14.00">(8) AND</text>
</g>
<!-- node0&#45;&gt;node8 -->
<g id="edge8" class="edge"><title>node0&#45;&gt;node8</title>
<path fill="none" stroke="black" d="M71.3595,-356.835C86.7891,-349.27 106.068,-339.254 122.493,-329 133.084,-322.388 144.197,-314.433 153.9,-307.117"/>
<polygon fill="black" stroke="black" points="156.204,-309.761 162.015,-300.902 151.948,-304.203 156.204,-309.761"/>
<text text-anchor="middle" x="112.493" y="-343.8" font-family="Times New Roman,serif" font-size="14.00"> (1)</text>
</g>
<!-- node1 -->
<g id="node2" class="node"><title>node1</title>
<ellipse fill="none" stroke="black" cx="42.2463" cy="-49" rx="42.4939" ry="18"/>
<text text-anchor="middle" x="42.2463" y="-45.3" font-family="Times New Roman,serif" font-size="14.00">(1) Input</text>
</g>
<!-- node6 -->
<g id="node7" class="node"><title>node6</title>
<ellipse fill="none" stroke="black" cx="285.881" cy="-117" rx="42.7926" ry="18"/>
<text text-anchor="middle" x="285.881" y="-113.3" font-family="Times New Roman,serif" font-size="14.00">(6) XOR</text>
</g>
<!-- node1&#45;&gt;node6 -->
<g id="edge4" class="edge"><title>node1&#45;&gt;node6</title>
<path fill="none" stroke="black" d="M83.4471,-52.9995C96.047,-54.6741 109.938,-56.9577 122.493,-60 165.388,-70.3949 212.848,-87.7722 245.323,-100.613"/>
<polygon fill="black" stroke="black" points="244.314,-103.979 254.899,-104.439 246.912,-97.4784 244.314,-103.979"/>
<text text-anchor="middle" x="112.493" y="-63.8" font-family="Times New Roman,serif" font-size="14.00"> (1)</text>
</g>
<!-- node7 -->
<g id="node8" class="node"><title>node7</title>
<ellipse fill="none" stroke="black" cx="182.739" cy="-18" rx="36.2938" ry="18"/>
<text text-anchor="middle" x="182.739" y="-14.3" font-family="Times New Roman,serif" font-size="14.00">(7) OR</text>
</g>
<!-- node1&#45;&gt;node7 -->
<g id="edge6" class="edge"><title>node1&#45;&gt;node7</title>
<path fill="none" stroke="black" d="M71.9769,-36.0528C81.5131,-32.2431 92.2997,-28.4453 102.493,-26 113.302,-23.4067 125.137,-21.6532 136.288,-20.4679"/>
<polygon fill="black" stroke="black" points="136.657,-23.9487 146.287,-19.5312 136.004,-16.9792 136.657,-23.9487"/>
<text text-anchor="middle" x="112.493" y="-29.8" font-family="Times New Roman,serif" font-size="14.00"> (1)</text>
</g>
<!-- node2 -->
<g id="node3" class="node"><title>node2</title>
<ellipse fill="none" stroke="black" cx="42.2463" cy="-200" rx="42.4939" ry="18"/>
<text text-anchor="middle" x="42.2463" y="-196.3" font-family="Times New Roman,serif" font-size="14.00">(2) Input</text>
</g>
<!-- node10 -->
<g id="node11" class="node"><title>node10</title>
<ellipse fill="none" stroke="black" cx="389.674" cy="-235" rx="40.8928" ry="18"/>
<text text-anchor="middle" x="389.674" y="-231.3" font-family="Times New Roman,serif" font-size="14.00">(10) OR</text>
</g>
<!-- node2&#45;&gt;node10 -->
<g id="edge12" class="edge"><title>node2&#45;&gt;node10</title>
<path fill="none" stroke="black" d="M83.5472,-204.083C147.196,-210.533 270.804,-223.057 339.551,-230.023"/>
<polygon fill="black" stroke="black" points="339.387,-233.524 349.689,-231.05 340.093,-226.56 339.387,-233.524"/>
<text text-anchor="middle" x="182.739" y="-221.8" font-family="Times New Roman,serif" font-size="14.00"> (1)</text>
</g>
<!-- node14 -->
<g id="node15" class="node"><title>node14</title>
<ellipse fill="none" stroke="black" cx="608.307" cy="-181" rx="47.3916" ry="18"/>
<text text-anchor="middle" x="608.307" y="-177.3" font-family="Times New Roman,serif" font-size="14.00">(14) XOR</text>
</g>
<!-- node2&#45;&gt;node14 -->
<g id="edge19" class="edge"><title>node2&#45;&gt;node14</title>
<path fill="none" stroke="black" d="M84.723,-198.603C184.274,-195.25 436.878,-186.741 550.458,-182.915"/>
<polygon fill="black" stroke="black" points="550.804,-186.405 560.68,-182.571 550.568,-179.409 550.804,-186.405"/>
<text text-anchor="middle" x="285.881" y="-196.8" font-family="Times New Roman,serif" font-size="14.00"> (1)</text>
</g>
<!-- node3 -->
<g id="node4" class="node"><title>node3</title>
<ellipse fill="none" stroke="black" cx="42.2463" cy="-115" rx="42.4939" ry="18"/>
<text text-anchor="middle" x="42.2463" y="-111.3" font-family="Times New Roman,serif" font-size="14.00">(3) Input</text>
</g>
<!-- node3&#45;&gt;node6 -->
<g id="edge3" class="edge"><title>node3&#45;&gt;node6</title>
<path fill="none" stroke="black" d="M84.5102,-115.342C125.527,-115.681 188.566,-116.203 232.961,-116.57"/>
<polygon fill="black" stroke="black" points="232.948,-120.07 242.977,-116.653 233.006,-113.07 232.948,-120.07"/>
<text text-anchor="middle" x="112.493" y="-118.8" font-family="Times New Roman,serif" font-size="14.00"> (0)</text>
</g>
<!-- node3&#45;&gt;node7 -->
<g id="edge5" class="edge"><title>node3&#45;&gt;node7</title>
<path fill="none" stroke="black" d="M75.1763,-103.684C90.2382,-97.5685 108.034,-89.1745 122.493,-79 137.151,-68.6854 151.23,-54.4347 161.984,-42.3011"/>
<polygon fill="black" stroke="black" points="164.662,-44.5546 168.543,-34.696 159.361,-39.983 164.662,-44.5546"/>
<text text-anchor="middle" x="112.493" y="-93.8" font-family="Times New Roman,serif" font-size="14.00"> (0)</text>
</g>
<!-- node4 -->
<g id="node5" class="node"><title>node4</title>
<ellipse fill="none" stroke="black" cx="42.2463" cy="-294" rx="42.4939" ry="18"/>
<text text-anchor="middle" x="42.2463" y="-290.3" font-family="Times New Roman,serif" font-size="14.00">(4) Input</text>
</g>
<!-- node4&#45;&gt;node5 -->
<g id="edge1" class="edge"><title>node4&#45;&gt;node5</title>
<path fill="none" stroke="black" d="M81.6727,-300.786C94.9529,-303.884 109.702,-308.191 122.493,-314 133.856,-319.16 145.361,-326.526 155.171,-333.594"/>
<polygon fill="black" stroke="black" points="153.202,-336.492 163.31,-339.666 157.388,-330.881 153.202,-336.492"/>
<text text-anchor="middle" x="112.493" y="-317.8" font-family="Times New Roman,serif" font-size="14.00"> (0)</text>
</g>
<!-- node4&#45;&gt;node8 -->
<g id="edge7" class="edge"><title>node4&#45;&gt;node8</title>
<path fill="none" stroke="black" d="M74.8284,-282.526C83.661,-279.836 93.3478,-277.358 102.493,-276 112.975,-274.443 124.274,-274.621 134.963,-275.637"/>
<polygon fill="black" stroke="black" points="134.632,-279.122 144.978,-276.837 135.466,-272.172 134.632,-279.122"/>
<text text-anchor="middle" x="112.493" y="-279.8" font-family="Times New Roman,serif" font-size="14.00"> (0)</text>
</g>
<!-- node9 -->
<g id="node10" class="node"><title>node9</title>
<ellipse fill="none" stroke="black" cx="389.674" cy="-294" rx="42.7926" ry="18"/>
<text text-anchor="middle" x="389.674" y="-290.3" font-family="Times New Roman,serif" font-size="14.00">(9) XOR</text>
</g>
<!-- node5&#45;&gt;node9 -->
<g id="edge9" class="edge"><title>node5&#45;&gt;node9</title>
<path fill="none" stroke="black" d="M211.878,-343.935C221.657,-340.255 232.74,-336.265 242.985,-333 244.234,-332.602 300.943,-317.437 343.23,-306.138"/>
<polygon fill="black" stroke="black" points="344.328,-309.468 353.086,-303.505 342.521,-302.705 344.328,-309.468"/>
<text text-anchor="middle" x="285.881" y="-336.8" font-family="Times New Roman,serif" font-size="14.00"> (0)</text>
</g>
<!-- node12 -->
<g id="node13" class="node"><title>node12</title>
<ellipse fill="none" stroke="black" cx="608.307" cy="-235" rx="46.5926" ry="18"/>
<text text-anchor="middle" x="608.307" y="-231.3" font-family="Times New Roman,serif" font-size="14.00">(12) AND</text>
</g>
<!-- node5&#45;&gt;node12 -->
<g id="edge14" class="edge"><title>node5&#45;&gt;node12</title>
<path fill="none" stroke="black" d="M218.338,-358.846C285.676,-364.636 437.008,-369.222 542.862,-309 562.852,-297.627 579.68,-277.67 591.123,-261.346"/>
<polygon fill="black" stroke="black" points="594.241,-262.98 596.911,-252.728 588.43,-259.077 594.241,-262.98"/>
<text text-anchor="middle" x="389.674" y="-362.8" font-family="Times New Roman,serif" font-size="14.00"> (0)</text>
</g>
<!-- node11 -->
<g id="node12" class="node"><title>node11</title>
<ellipse fill="none" stroke="black" cx="496.716" cy="-77" rx="46.2923" ry="18"/>
<text text-anchor="middle" x="496.716" y="-73.3" font-family="Times New Roman,serif" font-size="14.00">(11) NEG</text>
</g>
<!-- node6&#45;&gt;node11 -->
<g id="edge13" class="edge"><title>node6&#45;&gt;node11</title>
<path fill="none" stroke="black" d="M325.185,-109.663C358.766,-103.231 407.846,-93.8306 444.739,-86.764"/>
<polygon fill="black" stroke="black" points="445.636,-90.1559 454.799,-84.8371 444.319,-83.2809 445.636,-90.1559"/>
<text text-anchor="middle" x="389.674" y="-108.8" font-family="Times New Roman,serif" font-size="14.00"> (0)</text>
</g>
<!-- node16 -->
<g id="node17" class="node"><title>node16</title>
<ellipse fill="none" stroke="black" cx="759.199" cy="-235" rx="47.3916" ry="18"/>
<text text-anchor="middle" x="759.199" y="-231.3" font-family="Times New Roman,serif" font-size="14.00">(16) XOR</text>
</g>
<!-- node6&#45;&gt;node16 -->
<g id="edge22" class="edge"><title>node6&#45;&gt;node16</title>
<path fill="none" stroke="black" d="M328.505,-119.852C418.601,-126.215 625.997,-141.959 655.753,-154 686.926,-166.613 716.364,-191.799 735.615,-210.755"/>
<polygon fill="black" stroke="black" points="733.198,-213.29 742.722,-217.931 738.172,-208.364 733.198,-213.29"/>
<text text-anchor="middle" x="496.716" y="-140.8" font-family="Times New Roman,serif" font-size="14.00"> (0)</text>
</g>
<!-- node15 -->
<g id="node16" class="node"><title>node15</title>
<ellipse fill="none" stroke="black" cx="909.441" cy="-36" rx="46.5926" ry="18"/>
<text text-anchor="middle" x="909.441" y="-32.3" font-family="Times New Roman,serif" font-size="14.00">(15) AND</text>
</g>
<!-- node7&#45;&gt;node15 -->
<g id="edge20" class="edge"><title>node7&#45;&gt;node15</title>
<path fill="none" stroke="black" d="M219.28,-18.2786C260.149,-18.5744 329.256,-19 388.674,-19 388.674,-19 388.674,-19 760.199,-19 792.269,-19 827.988,-22.9755 856.328,-27.0815"/>
<polygon fill="black" stroke="black" points="856.006,-30.5723 866.415,-28.593 857.044,-23.6496 856.006,-30.5723"/>
<text text-anchor="middle" x="608.307" y="-22.8" font-family="Times New Roman,serif" font-size="14.00"> (0)</text>
</g>
<!-- node8&#45;&gt;node9 -->
<g id="edge10" class="edge"><title>node8&#45;&gt;node9</title>
<path fill="none" stroke="black" d="M225.21,-286.821C257.326,-288.232 302.011,-290.194 336.546,-291.711"/>
<polygon fill="black" stroke="black" points="336.768,-295.224 346.912,-292.166 337.076,-288.231 336.768,-295.224"/>
<text text-anchor="middle" x="285.881" y="-294.8" font-family="Times New Roman,serif" font-size="14.00"> (1)</text>
</g>
<!-- node8&#45;&gt;node10 -->
<g id="edge11" class="edge"><title>node8&#45;&gt;node10</title>
<path fill="none" stroke="black" d="M217.798,-274.87C226.02,-272.523 234.796,-270.1 242.985,-268 275.985,-259.535 313.481,-251.068 342.168,-244.83"/>
<polygon fill="black" stroke="black" points="343.279,-248.171 352.314,-242.637 341.8,-241.329 343.279,-248.171"/>
<text text-anchor="middle" x="285.881" y="-271.8" font-family="Times New Roman,serif" font-size="14.00"> (0)</text>
</g>
<!-- node9&#45;&gt;node14 -->
<g id="edge18" class="edge"><title>node9&#45;&gt;node14</title>
<path fill="none" stroke="black" d="M432.614,-293.034C466.204,-290.115 512.561,-280.976 542.862,-254 559.259,-239.402 546.575,-224.669 560.862,-208 563.178,-205.298 565.835,-202.801 568.681,-200.509"/>
<polygon fill="black" stroke="black" points="570.918,-203.215 577.071,-194.59 566.882,-197.495 570.918,-203.215"/>
<text text-anchor="middle" x="496.716" y="-293.8" font-family="Times New Roman,serif" font-size="14.00"> (0)</text>
</g>
<!-- node10&#45;&gt;node12 -->
<g id="edge15" class="edge"><title>node10&#45;&gt;node12</title>
<path fill="none" stroke="black" d="M430.66,-235C464.408,-235 513.115,-235 550.84,-235"/>
<polygon fill="black" stroke="black" points="551.167,-238.5 561.167,-235 551.167,-231.5 551.167,-238.5"/>
<text text-anchor="middle" x="496.716" y="-238.8" font-family="Times New Roman,serif" font-size="14.00"> (1)</text>
</g>
<!-- node13 -->
<g id="node14" class="node"><title>node13</title>
<ellipse fill="none" stroke="black" cx="759.199" cy="-72" rx="40.8928" ry="18"/>
<text text-anchor="middle" x="759.199" y="-68.3" font-family="Times New Roman,serif" font-size="14.00">(13) OR</text>
</g>
<!-- node11&#45;&gt;node13 -->
<g id="edge16" class="edge"><title>node11&#45;&gt;node13</title>
<path fill="none" stroke="black" d="M543.088,-76.1291C589.124,-75.2454 660.215,-73.8808 707.935,-72.9648"/>
<polygon fill="black" stroke="black" points="708.112,-76.4622 718.043,-72.7708 707.977,-69.4635 708.112,-76.4622"/>
<text text-anchor="middle" x="608.307" y="-78.8" font-family="Times New Roman,serif" font-size="14.00"> (0)</text>
</g>
<!-- node12&#45;&gt;node13 -->
<g id="edge17" class="edge"><title>node12&#45;&gt;node13</title>
<path fill="none" stroke="black" d="M638.04,-220.705C644.204,-216.997 650.452,-212.705 655.753,-208 692.46,-175.421 724.646,-127.895 742.734,-98.5142"/>
<polygon fill="black" stroke="black" points="745.913,-100.021 748.1,-89.6543 739.926,-96.395 745.913,-100.021"/>
<text text-anchor="middle" x="683.753" y="-191.8" font-family="Times New Roman,serif" font-size="14.00"> (1)</text>
</g>
<!-- node12&#45;&gt;node16 -->
<g id="edge23" class="edge"><title>node12&#45;&gt;node16</title>
<path fill="none" stroke="black" d="M655.195,-235C669.774,-235 686.075,-235 701.332,-235"/>
<polygon fill="black" stroke="black" points="701.693,-238.5 711.693,-235 701.693,-231.5 701.693,-238.5"/>
<text text-anchor="middle" x="683.753" y="-238.8" font-family="Times New Roman,serif" font-size="14.00"> (1)</text>
</g>
<!-- node13&#45;&gt;node15 -->
<g id="edge21" class="edge"><title>node13&#45;&gt;node15</title>
<path fill="none" stroke="black" d="M795.33,-63.4685C814.548,-58.8016 838.654,-52.9476 859.669,-47.8441"/>
<polygon fill="black" stroke="black" points="860.497,-51.2447 869.389,-45.4836 858.845,-44.4424 860.497,-51.2447"/>
<text text-anchor="middle" x="834.645" y="-60.8" font-family="Times New Roman,serif" font-size="14.00"> (1)</text>
</g>
<!-- node17 -->
<g id="node18" class="node"><title>node17</title>
<ellipse fill="none" stroke="black" cx="1036.13" cy="-181" rx="42.7926" ry="18"/>
<text text-anchor="middle" x="1036.13" y="-177.3" font-family="Times New Roman,serif" font-size="14.00">Output 0</text>
</g>
<!-- node14&#45;&gt;node17 -->
<g id="edge24" class="edge"><title>node14&#45;&gt;node17</title>
<path fill="none" stroke="black" d="M656.096,-181C736.256,-181 899.282,-181 982.981,-181"/>
<polygon fill="black" stroke="black" points="983.028,-184.5 993.028,-181 983.028,-177.5 983.028,-184.5"/>
</g>
<!-- node19 -->
<g id="node20" class="node"><title>node19</title>
<ellipse fill="none" stroke="black" cx="1036.13" cy="-36" rx="42.7926" ry="18"/>
<text text-anchor="middle" x="1036.13" y="-32.3" font-family="Times New Roman,serif" font-size="14.00">Output 2</text>
</g>
<!-- node15&#45;&gt;node19 -->
<g id="edge26" class="edge"><title>node15&#45;&gt;node19</title>
<path fill="none" stroke="black" d="M956.517,-36C965.094,-36 974.112,-36 982.858,-36"/>
<polygon fill="black" stroke="black" points="982.958,-39.5001 992.958,-36 982.958,-32.5001 982.958,-39.5001"/>
</g>
<!-- node18 -->
<g id="node19" class="node"><title>node18</title>
<ellipse fill="none" stroke="black" cx="1036.13" cy="-235" rx="42.7926" ry="18"/>
<text text-anchor="middle" x="1036.13" y="-231.3" font-family="Times New Roman,serif" font-size="14.00">Output 1</text>
</g>
<!-- node16&#45;&gt;node18 -->
<g id="edge25" class="edge"><title>node16&#45;&gt;node18</title>
<path fill="none" stroke="black" d="M806.838,-235C855.713,-235 932.314,-235 983.114,-235"/>
<polygon fill="black" stroke="black" points="983.229,-238.5 993.229,-235 983.229,-231.5 983.229,-238.5"/>
</g>
</g>
</svg>
