<?xml version="1.0" encoding="UTF-8" standalone="no"?>
<!DOCTYPE svg PUBLIC "-//W3C//DTD SVG 1.1//EN"
 "http://www.w3.org/Graphics/SVG/1.1/DTD/svg11.dtd">
<!-- Generated by graphviz version 2.38.0 (20140413.2041)
 -->
<!-- Title: NeuralNetwork Pages: 1 -->
<svg width="288pt" height="149pt"
 viewBox="0.00 0.00 288.00 149.05" xmlns="http://www.w3.org/2000/svg" xmlns:xlink="http://www.w3.org/1999/xlink">
<g id="graph0" class="graph" transform="scale(0.297784 0.297784) rotate(0) translate(4 496.521)">
<title>NeuralNetwork</title>
<polygon fill="white" stroke="none" points="-4,4 -4,-496.521 963.143,-496.521 963.143,4 -4,4"/>
<!-- node0 -->
<g id="node1" class="node"><title>node0</title>
<ellipse fill="none" stroke="black" cx="42.2463" cy="-456.521" rx="42.4939" ry="18"/>
<text text-anchor="middle" x="42.2463" y="-452.821" font-family="Times New Roman,serif" font-size="14.00">(0) Input</text>
</g>
<!-- node5 -->
<g id="node6" class="node"><title>node5</title>
<ellipse fill="none" stroke="black" cx="187.938" cy="-350.521" rx="42.4939" ry="18"/>
<text text-anchor="middle" x="187.938" y="-346.821" font-family="Times New Roman,serif" font-size="14.00">(5) AND</text>
</g>
<!-- node0&#45;&gt;node5 -->
<g id="edge1" class="edge"><title>node0&#45;&gt;node5</title>
<path fill="none" stroke="black" d="M52.1908,-438.902C62.1486,-420.981 79.8629,-393.622 102.493,-377.521 113.18,-369.917 126.11,-364.384 138.605,-360.385"/>
<polygon fill="black" stroke="black" points="139.865,-363.663 148.481,-357.497 137.901,-356.944 139.865,-363.663"/>
<text text-anchor="middle" x="112.493" y="-381.321" font-family="Times New Roman,serif" font-size="14.00"> (0)</text>
</g>
<!-- node7 -->
<g id="node8" class="node"><title>node7</title>
<ellipse fill="none" stroke="black" cx="187.938" cy="-418.521" rx="36.2938" ry="18"/>
<text text-anchor="middle" x="187.938" y="-414.821" font-family="Times New Roman,serif" font-size="14.00">(7) OR</text>
</g>
<!-- node0&#45;&gt;node7 -->
<g id="edge6" class="edge"><title>node0&#45;&gt;node7</title>
<path fill="none" stroke="black" d="M78.7656,-447.128C98.9979,-441.778 124.446,-435.048 145.575,-429.46"/>
<polygon fill="black" stroke="black" points="146.479,-432.841 155.252,-426.901 144.689,-426.074 146.479,-432.841"/>
<text text-anchor="middle" x="112.493" y="-443.321" font-family="Times New Roman,serif" font-size="14.00"> (1)</text>
</g>
<!-- node14 -->
<g id="node15" class="node"><title>node14</title>
<ellipse fill="none" stroke="black" cx="338.83" cy="-474.521" rx="47.3916" ry="18"/>
<text text-anchor="middle" x="338.83" y="-470.821" font-family="Times New Roman,serif" font-size="14.00">(14) XOR</text>
</g>
<!-- node0&#45;&gt;node14 -->
<g id="edge19" class="edge"><title>node0&#45;&gt;node14</title>
<path fill="none" stroke="black" d="M84.2068,-459.024C135.66,-462.168 224.18,-467.577 281.852,-471.101"/>
<polygon fill="black" stroke="black" points="281.697,-474.598 291.892,-471.714 282.124,-467.611 281.697,-474.598"/>
<text text-anchor="middle" x="187.938" y="-471.321" font-family="Times New Roman,serif" font-size="14.00"> (0)</text>
</g>
<!-- node1 -->
<g id="node2" class="node"><title>node1</title>
<ellipse fill="none" stroke="black" cx="42.2463" cy="-153.521" rx="42.4939" ry="18"/>
<text text-anchor="middle" x="42.2463" y="-149.821" font-family="Times New Roman,serif" font-size="14.00">(1) Input</text>
</g>
<!-- node6 -->
<g id="node7" class="node"><title>node6</title>
<ellipse fill="none" stroke="black" cx="187.938" cy="-179.521" rx="42.4939" ry="18"/>
<text text-anchor="middle" x="187.938" y="-175.821" font-family="Times New Roman,serif" font-size="14.00">(6) AND</text>
</g>
<!-- node1&#45;&gt;node6 -->
<g id="edge3" class="edge"><title>node1&#45;&gt;node6</title>
<path fill="none" stroke="black" d="M77.5095,-163.684C85.6456,-165.844 94.333,-167.945 102.493,-169.521 113.368,-171.622 125.123,-173.351 136.307,-174.744"/>
<polygon fill="black" stroke="black" points="136.035,-178.237 146.376,-175.931 136.855,-171.285 136.035,-178.237"/>
<text text-anchor="middle" x="112.493" y="-176.321" font-family="Times New Roman,serif" font-size="14.00"> (0)</text>
</g>
<!-- node8 -->
<g id="node9" class="node"><title>node8</title>
<ellipse fill="none" stroke="black" cx="187.938" cy="-109.521" rx="36.2938" ry="18"/>
<text text-anchor="middle" x="187.938" y="-105.821" font-family="Times New Roman,serif" font-size="14.00">(8) OR</text>
</g>
<!-- node1&#45;&gt;node8 -->
<g id="edge8" class="edge"><title>node1&#45;&gt;node8</title>
<path fill="none" stroke="black" d="M78.4843,-144.211C92.2642,-140.447 108.169,-135.95 122.493,-131.521 130.854,-128.936 139.769,-126.006 148.218,-123.147"/>
<polygon fill="black" stroke="black" points="149.533,-126.397 157.862,-119.848 147.267,-119.773 149.533,-126.397"/>
<text text-anchor="middle" x="112.493" y="-141.321" font-family="Times New Roman,serif" font-size="14.00"> (1)</text>
</g>
<!-- node11 -->
<g id="node12" class="node"><title>node11</title>
<ellipse fill="none" stroke="black" cx="187.938" cy="-55.5213" rx="47.3916" ry="18"/>
<text text-anchor="middle" x="187.938" y="-51.8213" font-family="Times New Roman,serif" font-size="14.00">(11) XOR</text>
</g>
<!-- node1&#45;&gt;node11 -->
<g id="edge13" class="edge"><title>node1&#45;&gt;node11</title>
<path fill="none" stroke="black" d="M63.6715,-137.647C83.0516,-122.819 113.19,-100.355 140.493,-82.5213 144.006,-80.2261 147.72,-77.9035 151.455,-75.6341"/>
<polygon fill="black" stroke="black" points="153.321,-78.5963 160.123,-70.4732 149.74,-72.5817 153.321,-78.5963"/>
<text text-anchor="middle" x="112.493" y="-111.321" font-family="Times New Roman,serif" font-size="14.00"> (0)</text>
</g>
<!-- node2 -->
<g id="node3" class="node"><title>node2</title>
<ellipse fill="none" stroke="black" cx="42.2463" cy="-342.521" rx="42.4939" ry="18"/>
<text text-anchor="middle" x="42.2463" y="-338.821" font-family="Times New Roman,serif" font-size="14.00">(2) Input</text>
</g>
<!-- node2&#45;&gt;node5 -->
<g id="edge2" class="edge"><title>node2&#45;&gt;node5</title>
<path fill="none" stroke="black" d="M84.8131,-342.299C96.9668,-342.436 110.269,-342.782 122.493,-343.521 127.228,-343.808 132.152,-344.19 137.073,-344.628"/>
<polygon fill="black" stroke="black" points="136.821,-348.12 147.11,-345.594 137.491,-341.152 136.821,-348.12"/>
<text text-anchor="middle" x="112.493" y="-347.321" font-family="Times New Roman,serif" font-size="14.00"> (1)</text>
</g>
<!-- node2&#45;&gt;node7 -->
<g id="edge5" class="edge"><title>node2&#45;&gt;node7</title>
<path fill="none" stroke="black" d="M57.6941,-359.504C68.7921,-371.515 85.1208,-387.099 102.493,-396.521 114.803,-403.198 129.233,-407.922 142.647,-411.232"/>
<polygon fill="black" stroke="black" points="142.13,-414.703 152.655,-413.497 143.675,-407.876 142.13,-414.703"/>
<text text-anchor="middle" x="112.493" y="-408.321" font-family="Times New Roman,serif" font-size="14.00"> (0)</text>
</g>
<!-- node10 -->
<g id="node11" class="node"><title>node10</title>
<ellipse fill="none" stroke="black" cx="187.938" cy="-296.521" rx="47.3916" ry="18"/>
<text text-anchor="middle" x="187.938" y="-292.821" font-family="Times New Roman,serif" font-size="14.00">(10) XOR</text>
</g>
<!-- node2&#45;&gt;node10 -->
<g id="edge11" class="edge"><title>node2&#45;&gt;node10</title>
<path fill="none" stroke="black" d="M76.4596,-331.864C84.9468,-329.143 94.057,-326.223 102.493,-323.521 115.1,-319.484 128.768,-315.112 141.361,-311.086"/>
<polygon fill="black" stroke="black" points="142.729,-314.323 151.188,-307.944 140.597,-307.655 142.729,-314.323"/>
<text text-anchor="middle" x="112.493" y="-327.321" font-family="Times New Roman,serif" font-size="14.00"> (0)</text>
</g>
<!-- node3 -->
<g id="node4" class="node"><title>node3</title>
<ellipse fill="none" stroke="black" cx="42.2463" cy="-39.5213" rx="42.4939" ry="18"/>
<text text-anchor="middle" x="42.2463" y="-35.8213" font-family="Times New Roman,serif" font-size="14.00">(3) Input</text>
</g>
<!-- node3&#45;&gt;node6 -->
<g id="edge4" class="edge"><title>node3&#45;&gt;node6</title>
<path fill="none" stroke="black" d="M78.4938,-48.8069C93.9234,-54.5021 111.075,-63.3103 122.493,-76.5213 140.697,-97.5853 125.759,-112.899 140.493,-136.521 145.174,-144.027 151.504,-151.064 157.982,-157.185"/>
<polygon fill="black" stroke="black" points="155.766,-159.898 165.566,-163.923 160.415,-154.665 155.766,-159.898"/>
<text text-anchor="middle" x="112.493" y="-80.3213" font-family="Times New Roman,serif" font-size="14.00"> (1)</text>
</g>
<!-- node3&#45;&gt;node8 -->
<g id="edge7" class="edge"><title>node3&#45;&gt;node8</title>
<path fill="none" stroke="black" d="M80.4958,-31.8007C94.6969,-30.8514 110.368,-32.4159 122.493,-40.5213 139.376,-51.8078 127.032,-67.3143 140.493,-82.5213 143.723,-86.1705 147.569,-89.4548 151.645,-92.3711"/>
<polygon fill="black" stroke="black" points="149.9,-95.4094 160.213,-97.8397 153.667,-89.509 149.9,-95.4094"/>
<text text-anchor="middle" x="112.493" y="-44.3213" font-family="Times New Roman,serif" font-size="14.00"> (0)</text>
</g>
<!-- node3&#45;&gt;node11 -->
<g id="edge14" class="edge"><title>node3&#45;&gt;node11</title>
<path fill="none" stroke="black" d="M60.1727,-23.0803C75.9598,-9.82009 100.338,5.41867 122.493,-2.52133 138.558,-8.27909 153.486,-19.9622 164.92,-30.8974"/>
<polygon fill="black" stroke="black" points="162.716,-33.6443 172.249,-38.2664 167.679,-28.708 162.716,-33.6443"/>
<text text-anchor="middle" x="112.493" y="-6.32133" font-family="Times New Roman,serif" font-size="14.00"> (1)</text>
</g>
<!-- node4 -->
<g id="node5" class="node"><title>node4</title>
<ellipse fill="none" stroke="black" cx="42.2463" cy="-249.521" rx="42.4939" ry="18"/>
<text text-anchor="middle" x="42.2463" y="-245.821" font-family="Times New Roman,serif" font-size="14.00">(4) Input</text>
</g>
<!-- node9 -->
<g id="node10" class="node"><title>node9</title>
<ellipse fill="none" stroke="black" cx="338.83" cy="-244.521" rx="36.2938" ry="18"/>
<text text-anchor="middle" x="338.83" y="-240.821" font-family="Times New Roman,serif" font-size="14.00">(9) OR</text>
</g>
<!-- node4&#45;&gt;node9 -->
<g id="edge10" class="edge"><title>node4&#45;&gt;node9</title>
<path fill="none" stroke="black" d="M84.517,-248.821C139.225,-247.892 235.446,-246.259 292.243,-245.295"/>
<polygon fill="black" stroke="black" points="292.431,-248.792 302.37,-245.123 292.312,-241.793 292.431,-248.792"/>
<text text-anchor="middle" x="187.938" y="-251.321" font-family="Times New Roman,serif" font-size="14.00"> (1)</text>
</g>
<!-- node4&#45;&gt;node10 -->
<g id="edge12" class="edge"><title>node4&#45;&gt;node10</title>
<path fill="none" stroke="black" d="M76.2121,-260.304C95.5964,-266.644 120.384,-274.752 141.59,-281.689"/>
<polygon fill="black" stroke="black" points="140.768,-285.102 151.361,-284.884 142.944,-278.449 140.768,-285.102"/>
<text text-anchor="middle" x="112.493" y="-277.321" font-family="Times New Roman,serif" font-size="14.00"> (1)</text>
</g>
<!-- node5&#45;&gt;node9 -->
<g id="edge9" class="edge"><title>node5&#45;&gt;node9</title>
<path fill="none" stroke="black" d="M214.858,-336.253C221.646,-332.301 228.882,-327.892 235.384,-323.521 262.253,-305.463 291.343,-282.695 311.634,-266.246"/>
<polygon fill="black" stroke="black" points="313.956,-268.87 319.492,-259.836 309.531,-263.446 313.956,-268.87"/>
<text text-anchor="middle" x="263.384" y="-312.321" font-family="Times New Roman,serif" font-size="14.00"> (0)</text>
</g>
<!-- node13 -->
<g id="node14" class="node"><title>node13</title>
<ellipse fill="none" stroke="black" cx="639.313" cy="-198.521" rx="40.8928" ry="18"/>
<text text-anchor="middle" x="639.313" y="-194.821" font-family="Times New Roman,serif" font-size="14.00">(13) OR</text>
</g>
<!-- node6&#45;&gt;node13 -->
<g id="edge17" class="edge"><title>node6&#45;&gt;node13</title>
<path fill="none" stroke="black" d="M230.009,-181.258C312.645,-184.752 498.737,-192.62 588.297,-196.407"/>
<polygon fill="black" stroke="black" points="588.329,-199.911 598.468,-196.837 588.625,-192.917 588.329,-199.911"/>
<text text-anchor="middle" x="414.276" y="-192.321" font-family="Times New Roman,serif" font-size="14.00"> (0)</text>
</g>
<!-- node12 -->
<g id="node13" class="node"><title>node12</title>
<ellipse fill="none" stroke="black" cx="489.072" cy="-244.521" rx="46.5926" ry="18"/>
<text text-anchor="middle" x="489.072" y="-240.821" font-family="Times New Roman,serif" font-size="14.00">(12) AND</text>
</g>
<!-- node7&#45;&gt;node12 -->
<g id="edge15" class="edge"><title>node7&#45;&gt;node12</title>
<path fill="none" stroke="black" d="M212.411,-404.868C264.813,-374.387 391.555,-300.663 453.216,-264.796"/>
<polygon fill="black" stroke="black" points="455.295,-267.636 462.179,-259.583 451.775,-261.585 455.295,-267.636"/>
<text text-anchor="middle" x="338.83" y="-360.321" font-family="Times New Roman,serif" font-size="14.00"> (0)</text>
</g>
<!-- node16 -->
<g id="node17" class="node"><title>node16</title>
<ellipse fill="none" stroke="black" cx="789.555" cy="-141.521" rx="46.5926" ry="18"/>
<text text-anchor="middle" x="789.555" y="-137.821" font-family="Times New Roman,serif" font-size="14.00">(16) AND</text>
</g>
<!-- node8&#45;&gt;node16 -->
<g id="edge23" class="edge"><title>node8&#45;&gt;node16</title>
<path fill="none" stroke="black" d="M223.906,-106.213C305.529,-99.2401 514.75,-85.6986 686.759,-111.521 706.437,-114.475 727.629,-120.276 745.555,-125.996"/>
<polygon fill="black" stroke="black" points="744.555,-129.352 755.148,-129.147 746.74,-122.701 744.555,-129.352"/>
<text text-anchor="middle" x="489.072" y="-102.321" font-family="Times New Roman,serif" font-size="14.00"> (0)</text>
</g>
<!-- node9&#45;&gt;node12 -->
<g id="edge16" class="edge"><title>node9&#45;&gt;node12</title>
<path fill="none" stroke="black" d="M375.337,-244.521C392.327,-244.521 413.073,-244.521 432.114,-244.521"/>
<polygon fill="black" stroke="black" points="432.184,-248.021 442.184,-244.521 432.184,-241.021 432.184,-248.021"/>
<text text-anchor="middle" x="414.276" y="-248.321" font-family="Times New Roman,serif" font-size="14.00"> (1)</text>
</g>
<!-- node10&#45;&gt;node14 -->
<g id="edge20" class="edge"><title>node10&#45;&gt;node14</title>
<path fill="none" stroke="black" d="M218.751,-310.495C224.72,-314.174 230.613,-318.534 235.384,-323.521 272.486,-362.308 259.016,-387.704 291.384,-430.521 296.872,-437.781 303.605,-444.902 310.224,-451.228"/>
<polygon fill="black" stroke="black" points="308.13,-454.057 317.86,-458.25 312.869,-448.905 308.13,-454.057"/>
<text text-anchor="middle" x="263.384" y="-403.321" font-family="Times New Roman,serif" font-size="14.00"> (1)</text>
</g>
<!-- node15 -->
<g id="node16" class="node"><title>node15</title>
<ellipse fill="none" stroke="black" cx="639.313" cy="-138.521" rx="47.3916" ry="18"/>
<text text-anchor="middle" x="639.313" y="-134.821" font-family="Times New Roman,serif" font-size="14.00">(15) XOR</text>
</g>
<!-- node11&#45;&gt;node15 -->
<g id="edge21" class="edge"><title>node11&#45;&gt;node15</title>
<path fill="none" stroke="black" d="M228.233,-65.2411C277.868,-77.2792 366.013,-97.8637 442.276,-111.521 489.873,-120.045 544.39,-127.358 583.831,-132.215"/>
<polygon fill="black" stroke="black" points="583.423,-135.691 593.773,-133.426 584.27,-128.742 583.423,-135.691"/>
<text text-anchor="middle" x="414.276" y="-112.321" font-family="Times New Roman,serif" font-size="14.00"> (0)</text>
</g>
<!-- node12&#45;&gt;node13 -->
<g id="edge18" class="edge"><title>node12&#45;&gt;node13</title>
<path fill="none" stroke="black" d="M525.957,-233.386C546.912,-226.884 573.481,-218.639 595.521,-211.8"/>
<polygon fill="black" stroke="black" points="596.779,-215.074 605.293,-208.768 594.705,-208.389 596.779,-215.074"/>
<text text-anchor="middle" x="563.867" y="-227.321" font-family="Times New Roman,serif" font-size="14.00"> (1)</text>
</g>
<!-- node12&#45;&gt;node15 -->
<g id="edge22" class="edge"><title>node12&#45;&gt;node15</title>
<path fill="none" stroke="black" d="M512.292,-228.544C532.901,-213.736 564.431,-191.105 591.867,-171.521 597.045,-167.825 602.553,-163.904 607.897,-160.103"/>
<polygon fill="black" stroke="black" points="609.968,-162.926 616.092,-154.28 605.913,-157.22 609.968,-162.926"/>
<text text-anchor="middle" x="563.867" y="-201.321" font-family="Times New Roman,serif" font-size="14.00"> (1)</text>
</g>
<!-- node13&#45;&gt;node16 -->
<g id="edge24" class="edge"><title>node13&#45;&gt;node16</title>
<path fill="none" stroke="black" d="M670.67,-186.849C692.484,-178.461 722.176,-167.044 746.304,-157.767"/>
<polygon fill="black" stroke="black" points="747.847,-160.924 755.924,-154.068 745.334,-154.39 747.847,-160.924"/>
<text text-anchor="middle" x="714.759" y="-176.321" font-family="Times New Roman,serif" font-size="14.00"> (1)</text>
</g>
<!-- node17 -->
<g id="node18" class="node"><title>node17</title>
<ellipse fill="none" stroke="black" cx="916.247" cy="-474.521" rx="42.7926" ry="18"/>
<text text-anchor="middle" x="916.247" y="-470.821" font-family="Times New Roman,serif" font-size="14.00">Output 0</text>
</g>
<!-- node14&#45;&gt;node17 -->
<g id="edge25" class="edge"><title>node14&#45;&gt;node17</title>
<path fill="none" stroke="black" d="M386.566,-474.521C415.748,-474.521 454.099,-474.521 488.072,-474.521 488.072,-474.521 488.072,-474.521 790.555,-474.521 814.289,-474.521 840.564,-474.521 862.851,-474.521"/>
<polygon fill="black" stroke="black" points="863.113,-478.021 873.113,-474.521 863.113,-471.021 863.113,-478.021"/>
</g>
<!-- node18 -->
<g id="node19" class="node"><title>node18</title>
<ellipse fill="none" stroke="black" cx="916.247" cy="-67.5213" rx="42.7926" ry="18"/>
<text text-anchor="middle" x="916.247" y="-63.8213" font-family="Times New Roman,serif" font-size="14.00">Output 1</text>
</g>
<!-- node15&#45;&gt;node18 -->
<g id="edge26" class="edge"><title>node15&#45;&gt;node18</title>
<path fill="none" stroke="black" d="M679.121,-128.499C729.182,-115.572 816.136,-93.1162 869.4,-79.361"/>
<polygon fill="black" stroke="black" points="870.453,-82.704 879.26,-76.8147 868.702,-75.9264 870.453,-82.704"/>
</g>
<!-- node19 -->
<g id="node20" class="node"><title>node19</title>
<ellipse fill="none" stroke="black" cx="916.247" cy="-141.521" rx="42.7926" ry="18"/>
<text text-anchor="middle" x="916.247" y="-137.821" font-family="Times New Roman,serif" font-size="14.00">Output 2</text>
</g>
<!-- node16&#45;&gt;node19 -->
<g id="edge27" class="edge"><title>node16&#45;&gt;node19</title>
<path fill="none" stroke="black" d="M836.631,-141.521C845.208,-141.521 854.226,-141.521 862.972,-141.521"/>
<polygon fill="black" stroke="black" points="863.073,-145.021 873.073,-141.521 863.073,-138.021 863.073,-145.021"/>
</g>
</g>
</svg>
