<?xml version="1.0" encoding="UTF-8" standalone="no"?>
<!DOCTYPE svg PUBLIC "-//W3C//DTD SVG 1.1//EN"
 "http://www.w3.org/Graphics/SVG/1.1/DTD/svg11.dtd">
<!-- Generated by graphviz version 2.38.0 (20140413.2041)
 -->
<!-- Title: NeuralNetwork Pages: 1 -->
<svg width="288pt" height="142pt"
 viewBox="0.00 0.00 288.00 141.57" xmlns="http://www.w3.org/2000/svg" xmlns:xlink="http://www.w3.org/1999/xlink">
<g id="graph0" class="graph" transform="scale(0.1942 0.1942) rotate(0) translate(4 725)">
<title>NeuralNetwork</title>
<polygon fill="white" stroke="none" points="-4,4 -4,-725 1479.01,-725 1479.01,4 -4,4"/>
<!-- node0 -->
<g id="node1" class="node"><title>node0</title>
<ellipse fill="none" stroke="black" cx="42.2463" cy="-472" rx="42.4939" ry="18"/>
<text text-anchor="middle" x="42.2463" y="-468.3" font-family="Times New Roman,serif" font-size="14.00">(0) Input</text>
</g>
<!-- node8 -->
<g id="node9" class="node"><title>node8</title>
<ellipse fill="none" stroke="black" cx="402.022" cy="-679" rx="42.4939" ry="18"/>
<text text-anchor="middle" x="402.022" y="-675.3" font-family="Times New Roman,serif" font-size="14.00">(8) AND</text>
</g>
<!-- node0&#45;&gt;node8 -->
<g id="edge6" class="edge"><title>node0&#45;&gt;node8</title>
<path fill="none" stroke="black" d="M46.3255,-490.069C54.0212,-528.59 78.1534,-617.739 140.493,-648 207.669,-680.608 295.646,-684.166 350.236,-682.508"/>
<polygon fill="black" stroke="black" points="350.499,-686.001 360.361,-682.129 350.237,-679.006 350.499,-686.001"/>
<text text-anchor="middle" x="187.288" y="-678.8" font-family="Times New Roman,serif" font-size="14.00"> (1)</text>
</g>
<!-- node12 -->
<g id="node13" class="node"><title>node12</title>
<ellipse fill="none" stroke="black" cx="187.288" cy="-418" rx="46.5926" ry="18"/>
<text text-anchor="middle" x="187.288" y="-414.3" font-family="Times New Roman,serif" font-size="14.00">(12) AND</text>
</g>
<!-- node0&#45;&gt;node12 -->
<g id="edge13" class="edge"><title>node0&#45;&gt;node12</title>
<path fill="none" stroke="black" d="M69.3712,-458.055C79.5417,-452.934 91.3996,-447.335 102.493,-443 113.871,-438.553 126.375,-434.432 138.174,-430.871"/>
<polygon fill="black" stroke="black" points="139.272,-434.196 147.878,-428.016 137.297,-427.48 139.272,-434.196"/>
<text text-anchor="middle" x="112.493" y="-446.8" font-family="Times New Roman,serif" font-size="14.00"> (0)</text>
</g>
<!-- node13 -->
<g id="node14" class="node"><title>node13</title>
<ellipse fill="none" stroke="black" cx="402.022" cy="-469" rx="47.3916" ry="18"/>
<text text-anchor="middle" x="402.022" y="-465.3" font-family="Times New Roman,serif" font-size="14.00">(13) XOR</text>
</g>
<!-- node0&#45;&gt;node13 -->
<g id="edge16" class="edge"><title>node0&#45;&gt;node13</title>
<path fill="none" stroke="black" d="M84.6372,-471.653C148.629,-471.116 271.729,-470.084 344.069,-469.478"/>
<polygon fill="black" stroke="black" points="344.39,-472.975 354.361,-469.391 344.332,-465.975 344.39,-472.975"/>
<text text-anchor="middle" x="187.288" y="-475.8" font-family="Times New Roman,serif" font-size="14.00"> (1)</text>
</g>
<!-- node1 -->
<g id="node2" class="node"><title>node1</title>
<ellipse fill="none" stroke="black" cx="42.2463" cy="-368" rx="42.4939" ry="18"/>
<text text-anchor="middle" x="42.2463" y="-364.3" font-family="Times New Roman,serif" font-size="14.00">(1) Input</text>
</g>
<!-- node6 -->
<g id="node7" class="node"><title>node6</title>
<ellipse fill="none" stroke="black" cx="402.022" cy="-284" rx="42.4939" ry="18"/>
<text text-anchor="middle" x="402.022" y="-280.3" font-family="Times New Roman,serif" font-size="14.00">(6) AND</text>
</g>
<!-- node1&#45;&gt;node6 -->
<g id="edge2" class="edge"><title>node1&#45;&gt;node6</title>
<path fill="none" stroke="black" d="M76.8118,-357.253C95.4636,-351.467 119.149,-344.426 140.493,-339 213.997,-320.315 300.291,-302.99 352.793,-292.956"/>
<polygon fill="black" stroke="black" points="353.658,-296.354 362.829,-291.048 352.351,-289.477 353.658,-296.354"/>
<text text-anchor="middle" x="187.288" y="-342.8" font-family="Times New Roman,serif" font-size="14.00"> (1)</text>
</g>
<!-- node7 -->
<g id="node8" class="node"><title>node7</title>
<ellipse fill="none" stroke="black" cx="187.288" cy="-574" rx="42.4939" ry="18"/>
<text text-anchor="middle" x="187.288" y="-570.3" font-family="Times New Roman,serif" font-size="14.00">(7) AND</text>
</g>
<!-- node1&#45;&gt;node7 -->
<g id="edge4" class="edge"><title>node1&#45;&gt;node7</title>
<path fill="none" stroke="black" d="M54.4549,-385.361C63.7777,-400.537 76.7337,-423.455 84.4925,-445 98.1661,-482.969 77.6699,-502.181 102.493,-534 112.16,-546.393 126.619,-555.148 140.816,-561.238"/>
<polygon fill="black" stroke="black" points="139.954,-564.659 150.542,-565.041 142.503,-558.14 139.954,-564.659"/>
<text text-anchor="middle" x="112.493" y="-554.8" font-family="Times New Roman,serif" font-size="14.00"> (1)</text>
</g>
<!-- node16 -->
<g id="node17" class="node"><title>node16</title>
<ellipse fill="none" stroke="black" cx="552.264" cy="-306" rx="40.8928" ry="18"/>
<text text-anchor="middle" x="552.264" y="-302.3" font-family="Times New Roman,serif" font-size="14.00">(16) OR</text>
</g>
<!-- node1&#45;&gt;node16 -->
<g id="edge22" class="edge"><title>node1&#45;&gt;node16</title>
<path fill="none" stroke="black" d="M84.0274,-371.102C163.432,-375.915 343.613,-380.791 487.468,-340 493.915,-338.172 506.083,-331.954 518.078,-325.325"/>
<polygon fill="black" stroke="black" points="520.117,-328.194 527.119,-320.243 516.687,-322.092 520.117,-328.194"/>
<text text-anchor="middle" x="294.33" y="-377.8" font-family="Times New Roman,serif" font-size="14.00"> (1)</text>
</g>
<!-- node2 -->
<g id="node3" class="node"><title>node2</title>
<ellipse fill="none" stroke="black" cx="42.2463" cy="-206" rx="42.4939" ry="18"/>
<text text-anchor="middle" x="42.2463" y="-202.3" font-family="Times New Roman,serif" font-size="14.00">(2) Input</text>
</g>
<!-- node9 -->
<g id="node10" class="node"><title>node9</title>
<ellipse fill="none" stroke="black" cx="294.33" cy="-47" rx="42.4939" ry="18"/>
<text text-anchor="middle" x="294.33" y="-43.3" font-family="Times New Roman,serif" font-size="14.00">(9) AND</text>
</g>
<!-- node2&#45;&gt;node9 -->
<g id="edge7" class="edge"><title>node2&#45;&gt;node9</title>
<path fill="none" stroke="black" d="M66.7736,-191.042C111.853,-162.381 210.437,-99.7024 261.404,-67.2982"/>
<polygon fill="black" stroke="black" points="263.487,-70.1217 270.048,-61.8028 259.731,-64.2145 263.487,-70.1217"/>
<text text-anchor="middle" x="112.493" y="-169.8" font-family="Times New Roman,serif" font-size="14.00"> (0)</text>
</g>
<!-- node10 -->
<g id="node11" class="node"><title>node10</title>
<ellipse fill="none" stroke="black" cx="402.022" cy="-577" rx="46.5926" ry="18"/>
<text text-anchor="middle" x="402.022" y="-573.3" font-family="Times New Roman,serif" font-size="14.00">(10) AND</text>
</g>
<!-- node2&#45;&gt;node10 -->
<g id="edge9" class="edge"><title>node2&#45;&gt;node10</title>
<path fill="none" stroke="black" d="M64.479,-221.741C72.1247,-228.602 79.973,-237.299 84.4925,-247 124.985,-333.921 56.4173,-377.905 102.493,-462 134.323,-520.097 183.325,-489.433 234.084,-532 245.135,-541.267 239.8,-551.443 252.084,-559 279.866,-576.092 316.109,-580.769 345.886,-581.087"/>
<polygon fill="black" stroke="black" points="346.144,-584.586 356.125,-581.031 346.106,-577.586 346.144,-584.586"/>
<text text-anchor="middle" x="187.288" y="-536.8" font-family="Times New Roman,serif" font-size="14.00"> (0)</text>
</g>
<!-- node26 -->
<g id="node27" class="node"><title>node26</title>
<ellipse fill="none" stroke="black" cx="187.288" cy="-214" rx="46.5926" ry="18"/>
<text text-anchor="middle" x="187.288" y="-210.3" font-family="Times New Roman,serif" font-size="14.00">(26) AND</text>
</g>
<!-- node2&#45;&gt;node26 -->
<g id="edge42" class="edge"><title>node2&#45;&gt;node26</title>
<path fill="none" stroke="black" d="M84.8136,-205.769C96.9674,-205.906 110.27,-206.254 122.493,-207 125.718,-207.197 129.031,-207.439 132.371,-207.713"/>
<polygon fill="black" stroke="black" points="132.134,-211.206 142.409,-208.622 132.765,-204.235 132.134,-211.206"/>
<text text-anchor="middle" x="112.493" y="-210.8" font-family="Times New Roman,serif" font-size="14.00"> (1)</text>
</g>
<!-- node3 -->
<g id="node4" class="node"><title>node3</title>
<ellipse fill="none" stroke="black" cx="42.2463" cy="-649" rx="42.4939" ry="18"/>
<text text-anchor="middle" x="42.2463" y="-645.3" font-family="Times New Roman,serif" font-size="14.00">(3) Input</text>
</g>
<!-- node3&#45;&gt;node7 -->
<g id="edge3" class="edge"><title>node3&#45;&gt;node7</title>
<path fill="none" stroke="black" d="M69.8161,-635.069C92.5983,-623.124 125.614,-605.813 150.681,-592.67"/>
<polygon fill="black" stroke="black" points="152.63,-595.6 159.861,-587.857 149.379,-589.4 152.63,-595.6"/>
<text text-anchor="middle" x="112.493" y="-618.8" font-family="Times New Roman,serif" font-size="14.00"> (0)</text>
</g>
<!-- node3&#45;&gt;node8 -->
<g id="edge5" class="edge"><title>node3&#45;&gt;node8</title>
<path fill="none" stroke="black" d="M65.6481,-664.111C84.6404,-675.955 113.087,-691.486 140.493,-698 214.327,-715.551 302.959,-702.037 355.492,-690.573"/>
<polygon fill="black" stroke="black" points="356.516,-693.93 365.502,-688.317 354.977,-687.101 356.516,-693.93"/>
<text text-anchor="middle" x="187.288" y="-709.8" font-family="Times New Roman,serif" font-size="14.00"> (0)</text>
</g>
<!-- node3&#45;&gt;node10 -->
<g id="edge10" class="edge"><title>node3&#45;&gt;node10</title>
<path fill="none" stroke="black" d="M81.1586,-641.942C94.2602,-639.471 109.029,-636.652 122.493,-634 202.275,-618.286 294.723,-599.191 350.493,-587.575"/>
<polygon fill="black" stroke="black" points="351.393,-590.962 360.468,-585.495 349.964,-584.11 351.393,-590.962"/>
<text text-anchor="middle" x="187.288" y="-632.8" font-family="Times New Roman,serif" font-size="14.00"> (1)</text>
</g>
<!-- node4 -->
<g id="node5" class="node"><title>node4</title>
<ellipse fill="none" stroke="black" cx="42.2463" cy="-274" rx="42.4939" ry="18"/>
<text text-anchor="middle" x="42.2463" y="-270.3" font-family="Times New Roman,serif" font-size="14.00">(4) Input</text>
</g>
<!-- node4&#45;&gt;node6 -->
<g id="edge1" class="edge"><title>node4&#45;&gt;node6</title>
<path fill="none" stroke="black" d="M84.6372,-275.157C150.294,-276.992 278.177,-280.566 349.612,-282.563"/>
<polygon fill="black" stroke="black" points="349.634,-286.065 359.728,-282.846 349.83,-279.068 349.634,-286.065"/>
<text text-anchor="middle" x="187.288" y="-283.8" font-family="Times New Roman,serif" font-size="14.00"> (0)</text>
</g>
<!-- node4&#45;&gt;node12 -->
<g id="edge14" class="edge"><title>node4&#45;&gt;node12</title>
<path fill="none" stroke="black" d="M59.655,-290.519C84.8492,-315.882 133.194,-364.55 162.314,-393.866"/>
<polygon fill="black" stroke="black" points="160.1,-396.602 169.63,-401.23 165.066,-391.669 160.1,-396.602"/>
<text text-anchor="middle" x="112.493" y="-354.8" font-family="Times New Roman,serif" font-size="14.00"> (1)</text>
</g>
<!-- node4&#45;&gt;node26 -->
<g id="edge41" class="edge"><title>node4&#45;&gt;node26</title>
<path fill="none" stroke="black" d="M69.8193,-260.284C79.9417,-255.247 91.6502,-249.645 102.493,-245 115.218,-239.548 129.255,-234.13 142.143,-229.384"/>
<polygon fill="black" stroke="black" points="143.532,-232.604 151.734,-225.897 141.14,-226.025 143.532,-232.604"/>
<text text-anchor="middle" x="112.493" y="-248.8" font-family="Times New Roman,serif" font-size="14.00"> (0)</text>
</g>
<!-- node5 -->
<g id="node6" class="node"><title>node5</title>
<ellipse fill="none" stroke="black" cx="42.2463" cy="-89" rx="42.4939" ry="18"/>
<text text-anchor="middle" x="42.2463" y="-85.3" font-family="Times New Roman,serif" font-size="14.00">(5) Input</text>
</g>
<!-- node5&#45;&gt;node9 -->
<g id="edge8" class="edge"><title>node5&#45;&gt;node9</title>
<path fill="none" stroke="black" d="M67.4893,-74.4887C77.9041,-68.965 90.4346,-63.2284 102.493,-60 148.577,-47.6612 203.037,-45.077 241.96,-45.1849"/>
<polygon fill="black" stroke="black" points="241.975,-48.6851 252.005,-45.2733 242.036,-41.6854 241.975,-48.6851"/>
<text text-anchor="middle" x="112.493" y="-63.8" font-family="Times New Roman,serif" font-size="14.00"> (1)</text>
</g>
<!-- node17 -->
<g id="node18" class="node"><title>node17</title>
<ellipse fill="none" stroke="black" cx="702.506" cy="-211" rx="46.5926" ry="18"/>
<text text-anchor="middle" x="702.506" y="-207.3" font-family="Times New Roman,serif" font-size="14.00">(17) AND</text>
</g>
<!-- node5&#45;&gt;node17 -->
<g id="edge23" class="edge"><title>node5&#45;&gt;node17</title>
<path fill="none" stroke="black" d="M84.5308,-91.1611C177.931,-96.8943 411.89,-116.013 599.06,-171 620.12,-177.187 642.924,-185.884 661.66,-193.588"/>
<polygon fill="black" stroke="black" points="660.479,-196.888 671.056,-197.508 663.174,-190.428 660.479,-196.888"/>
<text text-anchor="middle" x="402.022" y="-139.8" font-family="Times New Roman,serif" font-size="14.00"> (0)</text>
</g>
<!-- node18 -->
<g id="node19" class="node"><title>node18</title>
<ellipse fill="none" stroke="black" cx="552.264" cy="-360" rx="46.5926" ry="18"/>
<text text-anchor="middle" x="552.264" y="-356.3" font-family="Times New Roman,serif" font-size="14.00">(18) AND</text>
</g>
<!-- node5&#45;&gt;node18 -->
<g id="edge26" class="edge"><title>node5&#45;&gt;node18</title>
<path fill="none" stroke="black" d="M78.9508,-97.9273C183.234,-124.073 480.478,-199.134 487.468,-207 525.046,-249.284 473.996,-285.995 505.468,-333 507.317,-335.761 509.551,-338.279 512.026,-340.569"/>
<polygon fill="black" stroke="black" points="509.978,-343.41 520.028,-346.764 514.263,-337.874 509.978,-343.41"/>
<text text-anchor="middle" x="294.33" y="-166.8" font-family="Times New Roman,serif" font-size="14.00"> (1)</text>
</g>
<!-- node11 -->
<g id="node12" class="node"><title>node11</title>
<ellipse fill="none" stroke="black" cx="552.264" cy="-523" rx="46.5926" ry="18"/>
<text text-anchor="middle" x="552.264" y="-519.3" font-family="Times New Roman,serif" font-size="14.00">(11) AND</text>
</g>
<!-- node6&#45;&gt;node11 -->
<g id="edge11" class="edge"><title>node6&#45;&gt;node11</title>
<path fill="none" stroke="black" d="M420.787,-300.369C439.897,-318.91 469.899,-350.878 487.468,-384 501.315,-410.103 493.658,-420.915 505.468,-448 512.921,-465.093 523.697,-482.961 532.923,-496.967"/>
<polygon fill="black" stroke="black" points="530.225,-499.225 538.712,-505.566 536.032,-495.316 530.225,-499.225"/>
<text text-anchor="middle" x="477.468" y="-387.8" font-family="Times New Roman,serif" font-size="14.00"> (0)</text>
</g>
<!-- node15 -->
<g id="node16" class="node"><title>node15</title>
<ellipse fill="none" stroke="black" cx="552.264" cy="-198" rx="46.5926" ry="18"/>
<text text-anchor="middle" x="552.264" y="-194.3" font-family="Times New Roman,serif" font-size="14.00">(15) AND</text>
</g>
<!-- node6&#45;&gt;node15 -->
<g id="edge19" class="edge"><title>node6&#45;&gt;node15</title>
<path fill="none" stroke="black" d="M407.499,-265.751C414.968,-239.759 432.708,-193.013 467.468,-173 483.636,-163.692 503.59,-169.08 519.97,-177.2"/>
<polygon fill="black" stroke="black" points="518.69,-180.49 529.145,-182.207 522.043,-174.345 518.69,-180.49"/>
<text text-anchor="middle" x="477.468" y="-176.8" font-family="Times New Roman,serif" font-size="14.00"> (0)</text>
</g>
<!-- node19 -->
<g id="node20" class="node"><title>node19</title>
<ellipse fill="none" stroke="black" cx="552.264" cy="-421" rx="40.8928" ry="18"/>
<text text-anchor="middle" x="552.264" y="-417.3" font-family="Times New Roman,serif" font-size="14.00">(19) OR</text>
</g>
<!-- node6&#45;&gt;node19 -->
<g id="edge27" class="edge"><title>node6&#45;&gt;node19</title>
<path fill="none" stroke="black" d="M439.628,-275.711C456.065,-274.194 474.609,-275.855 487.468,-287 521.594,-316.576 481.667,-348.623 505.468,-387 508.678,-392.175 512.989,-396.826 517.686,-400.906"/>
<polygon fill="black" stroke="black" points="515.783,-403.86 525.83,-407.225 520.074,-398.33 515.783,-403.86"/>
<text text-anchor="middle" x="477.468" y="-290.8" font-family="Times New Roman,serif" font-size="14.00"> (0)</text>
</g>
<!-- node22 -->
<g id="node23" class="node"><title>node22</title>
<ellipse fill="none" stroke="black" cx="552.264" cy="-252" rx="40.8928" ry="18"/>
<text text-anchor="middle" x="552.264" y="-248.3" font-family="Times New Roman,serif" font-size="14.00">(22) OR</text>
</g>
<!-- node6&#45;&gt;node22 -->
<g id="edge33" class="edge"><title>node6&#45;&gt;node22</title>
<path fill="none" stroke="black" d="M424.842,-268.597C436.82,-261.086 452.29,-252.856 467.468,-249 478.817,-246.117 491.307,-245.342 503.101,-245.635"/>
<polygon fill="black" stroke="black" points="503.077,-249.138 513.239,-246.141 503.426,-242.147 503.077,-249.138"/>
<text text-anchor="middle" x="477.468" y="-252.8" font-family="Times New Roman,serif" font-size="14.00"> (0)</text>
</g>
<!-- node14 -->
<g id="node15" class="node"><title>node14</title>
<ellipse fill="none" stroke="black" cx="402.022" cy="-523" rx="47.3916" ry="18"/>
<text text-anchor="middle" x="402.022" y="-519.3" font-family="Times New Roman,serif" font-size="14.00">(14) XOR</text>
</g>
<!-- node7&#45;&gt;node14 -->
<g id="edge18" class="edge"><title>node7&#45;&gt;node14</title>
<path fill="none" stroke="black" d="M224.376,-565.349C259.307,-556.974 312.541,-544.212 351.44,-534.887"/>
<polygon fill="black" stroke="black" points="352.593,-538.21 361.502,-532.475 350.961,-531.402 352.593,-538.21"/>
<text text-anchor="middle" x="294.33" y="-561.8" font-family="Times New Roman,serif" font-size="14.00"> (1)</text>
</g>
<!-- node8&#45;&gt;node11 -->
<g id="edge12" class="edge"><title>node8&#45;&gt;node11</title>
<path fill="none" stroke="black" d="M418.887,-662.305C445.052,-634.77 497.383,-579.701 527.826,-547.665"/>
<polygon fill="black" stroke="black" points="530.713,-549.708 535.064,-540.048 525.639,-544.886 530.713,-549.708"/>
<text text-anchor="middle" x="477.468" y="-613.8" font-family="Times New Roman,serif" font-size="14.00"> (1)</text>
</g>
<!-- node8&#45;&gt;node22 -->
<g id="edge34" class="edge"><title>node8&#45;&gt;node22</title>
<path fill="none" stroke="black" d="M416.926,-662.033C427.903,-647.57 442.493,-625.728 449.468,-604 486.095,-489.912 428.47,-448.299 467.468,-335 469.916,-327.89 499.985,-284.146 505.468,-279 508.573,-276.087 512.045,-273.347 515.652,-270.812"/>
<polygon fill="black" stroke="black" points="517.704,-273.654 524.203,-265.286 513.904,-267.774 517.704,-273.654"/>
<text text-anchor="middle" x="477.468" y="-338.8" font-family="Times New Roman,serif" font-size="14.00"> (1)</text>
</g>
<!-- node40 -->
<g id="node41" class="node"><title>node40</title>
<ellipse fill="none" stroke="black" cx="1432.11" cy="-683" rx="42.7926" ry="18"/>
<text text-anchor="middle" x="1432.11" y="-679.3" font-family="Times New Roman,serif" font-size="14.00">Output 0</text>
</g>
<!-- node8&#45;&gt;node40 -->
<g id="edge68" class="edge"><title>node8&#45;&gt;node40</title>
<path fill="none" stroke="black" d="M444.231,-680.708C473.972,-681.795 515.091,-683 551.264,-683 551.264,-683 551.264,-683 1305.77,-683 1329.83,-683 1356.49,-683 1379.01,-683"/>
<polygon fill="black" stroke="black" points="1379.05,-686.5 1389.05,-683 1379.05,-679.5 1379.05,-686.5"/>
</g>
<!-- node21 -->
<g id="node22" class="node"><title>node21</title>
<ellipse fill="none" stroke="black" cx="702.506" cy="-68" rx="47.3916" ry="18"/>
<text text-anchor="middle" x="702.506" y="-64.3" font-family="Times New Roman,serif" font-size="14.00">(21) XOR</text>
</g>
<!-- node9&#45;&gt;node21 -->
<g id="edge31" class="edge"><title>node9&#45;&gt;node21</title>
<path fill="none" stroke="black" d="M336.369,-48.8785C400.537,-51.8525 528.525,-57.9323 637.06,-64 639.748,-64.1503 642.499,-64.3076 645.277,-64.4692"/>
<polygon fill="black" stroke="black" points="645.204,-67.9709 655.393,-65.0689 645.618,-60.9832 645.204,-67.9709"/>
<text text-anchor="middle" x="477.468" y="-60.8" font-family="Times New Roman,serif" font-size="14.00"> (0)</text>
</g>
<!-- node25 -->
<g id="node26" class="node"><title>node25</title>
<ellipse fill="none" stroke="black" cx="1004.29" cy="-18" rx="46.5926" ry="18"/>
<text text-anchor="middle" x="1004.29" y="-14.3" font-family="Times New Roman,serif" font-size="14.00">(25) AND</text>
</g>
<!-- node9&#45;&gt;node25 -->
<g id="edge40" class="edge"><title>node9&#45;&gt;node25</title>
<path fill="none" stroke="black" d="M326.561,-35.1889C362.263,-22.7663 422.719,-5 476.468,-5 476.468,-5 476.468,-5 854.397,-5 886.057,-5 921.361,-7.95321 949.643,-11.0445"/>
<polygon fill="black" stroke="black" points="949.396,-14.5387 959.726,-12.1844 950.182,-7.58302 949.396,-14.5387"/>
<text text-anchor="middle" x="627.06" y="-8.8" font-family="Times New Roman,serif" font-size="14.00"> (1)</text>
</g>
<!-- node10&#45;&gt;node15 -->
<g id="edge20" class="edge"><title>node10&#45;&gt;node15</title>
<path fill="none" stroke="black" d="M435.074,-564.079C440.749,-560.366 445.959,-555.725 449.468,-550 487.041,-488.711 424.154,-284.375 467.468,-227 474.86,-217.209 485.769,-210.704 497.29,-206.387"/>
<polygon fill="black" stroke="black" points="498.597,-209.643 507.047,-203.252 496.456,-202.979 498.597,-209.643"/>
<text text-anchor="middle" x="477.468" y="-230.8" font-family="Times New Roman,serif" font-size="14.00"> (1)</text>
</g>
<!-- node31 -->
<g id="node32" class="node"><title>node31</title>
<ellipse fill="none" stroke="black" cx="702.506" cy="-579" rx="47.3916" ry="18"/>
<text text-anchor="middle" x="702.506" y="-575.3" font-family="Times New Roman,serif" font-size="14.00">(31) XOR</text>
</g>
<!-- node10&#45;&gt;node31 -->
<g id="edge51" class="edge"><title>node10&#45;&gt;node31</title>
<path fill="none" stroke="black" d="M449.006,-577.308C501.656,-577.661 587.936,-578.239 644.731,-578.62"/>
<polygon fill="black" stroke="black" points="644.955,-582.121 654.978,-578.688 645.002,-575.121 644.955,-582.121"/>
<text text-anchor="middle" x="552.264" y="-581.8" font-family="Times New Roman,serif" font-size="14.00"> (1)</text>
</g>
<!-- node35 -->
<g id="node36" class="node"><title>node35</title>
<ellipse fill="none" stroke="black" cx="1154.53" cy="-478" rx="46.5926" ry="18"/>
<text text-anchor="middle" x="1154.53" y="-474.3" font-family="Times New Roman,serif" font-size="14.00">(35) AND</text>
</g>
<!-- node10&#45;&gt;node35 -->
<g id="edge58" class="edge"><title>node10&#45;&gt;node35</title>
<path fill="none" stroke="black" d="M430.253,-562.639C436.746,-558.82 443.514,-554.497 449.468,-550 477.058,-529.161 473.826,-509.937 505.468,-496 616.108,-447.27 656.056,-479 776.952,-479 776.952,-479 776.952,-479 1005.29,-479 1035.64,-479 1069.49,-478.788 1097.17,-478.559"/>
<polygon fill="black" stroke="black" points="1097.49,-482.056 1107.46,-478.471 1097.43,-475.057 1097.49,-482.056"/>
<text text-anchor="middle" x="777.952" y="-482.8" font-family="Times New Roman,serif" font-size="14.00"> (0)</text>
</g>
<!-- node20 -->
<g id="node21" class="node"><title>node20</title>
<ellipse fill="none" stroke="black" cx="702.506" cy="-525" rx="47.3916" ry="18"/>
<text text-anchor="middle" x="702.506" y="-521.3" font-family="Times New Roman,serif" font-size="14.00">(20) XOR</text>
</g>
<!-- node11&#45;&gt;node20 -->
<g id="edge29" class="edge"><title>node11&#45;&gt;node20</title>
<path fill="none" stroke="black" d="M599.356,-523.622C613.72,-523.816 629.731,-524.032 644.736,-524.234"/>
<polygon fill="black" stroke="black" points="644.885,-527.736 654.932,-524.372 644.98,-520.737 644.885,-527.736"/>
<text text-anchor="middle" x="627.06" y="-528.8" font-family="Times New Roman,serif" font-size="14.00"> (0)</text>
</g>
<!-- node30 -->
<g id="node31" class="node"><title>node30</title>
<ellipse fill="none" stroke="black" cx="1004.29" cy="-430" rx="46.5926" ry="18"/>
<text text-anchor="middle" x="1004.29" y="-426.3" font-family="Times New Roman,serif" font-size="14.00">(30) AND</text>
</g>
<!-- node11&#45;&gt;node30 -->
<g id="edge49" class="edge"><title>node11&#45;&gt;node30</title>
<path fill="none" stroke="black" d="M581.919,-508.899C622.292,-489.805 698.734,-456.454 767.952,-442 828.392,-429.379 899.364,-427.468 947.442,-428.027"/>
<polygon fill="black" stroke="black" points="947.588,-431.529 957.642,-428.186 947.698,-424.53 947.588,-431.529"/>
<text text-anchor="middle" x="777.952" y="-445.8" font-family="Times New Roman,serif" font-size="14.00"> (1)</text>
</g>
<!-- node12&#45;&gt;node13 -->
<g id="edge15" class="edge"><title>node12&#45;&gt;node13</title>
<path fill="none" stroke="black" d="M232.639,-422.925C262.399,-426.85 302.281,-433.314 336.577,-443 344.838,-445.333 353.486,-448.378 361.667,-451.559"/>
<polygon fill="black" stroke="black" points="360.422,-454.83 371.006,-455.32 363.038,-448.337 360.422,-454.83"/>
<text text-anchor="middle" x="294.33" y="-446.8" font-family="Times New Roman,serif" font-size="14.00"> (0)</text>
</g>
<!-- node12&#45;&gt;node14 -->
<g id="edge17" class="edge"><title>node12&#45;&gt;node14</title>
<path fill="none" stroke="black" d="M210.903,-433.766C228.345,-445.899 249.866,-460.799 252.084,-462 285.896,-480.307 326.392,-496.559 356.617,-507.674"/>
<polygon fill="black" stroke="black" points="355.454,-510.975 366.048,-511.099 357.843,-504.396 355.454,-510.975"/>
<text text-anchor="middle" x="294.33" y="-503.8" font-family="Times New Roman,serif" font-size="14.00"> (0)</text>
</g>
<!-- node12&#45;&gt;node18 -->
<g id="edge25" class="edge"><title>node12&#45;&gt;node18</title>
<path fill="none" stroke="black" d="M231.429,-411.562C284.506,-405.404 376.541,-400.526 449.468,-427 458.995,-430.458 457.882,-437.711 467.468,-441 475.876,-443.885 480.145,-446.038 487.468,-441 505.898,-428.323 491.95,-411.821 505.468,-394 508.909,-389.464 513.115,-385.25 517.568,-381.442"/>
<polygon fill="black" stroke="black" points="520.022,-383.966 525.74,-375.046 515.708,-378.454 520.022,-383.966"/>
<text text-anchor="middle" x="402.022" y="-431.8" font-family="Times New Roman,serif" font-size="14.00"> (0)</text>
</g>
<!-- node13&#45;&gt;node19 -->
<g id="edge28" class="edge"><title>node13&#45;&gt;node19</title>
<path fill="none" stroke="black" d="M449.025,-472.131C461.746,-471.726 475.373,-470.074 487.468,-466 495.286,-463.366 510.095,-453.062 523.478,-442.977"/>
<polygon fill="black" stroke="black" points="525.738,-445.655 531.551,-436.797 521.483,-440.097 525.738,-445.655"/>
<text text-anchor="middle" x="477.468" y="-474.8" font-family="Times New Roman,serif" font-size="14.00"> (1)</text>
</g>
<!-- node14&#45;&gt;node16 -->
<g id="edge21" class="edge"><title>node14&#45;&gt;node16</title>
<path fill="none" stroke="black" d="M433.823,-509.179C439.589,-505.531 445.152,-501.144 449.468,-496 464.381,-478.227 458.662,-468.464 467.468,-447 475.622,-427.127 480.322,-423.257 487.468,-403 498.155,-372.707 486.159,-358.672 505.468,-333 507.896,-329.773 510.831,-326.86 514.029,-324.249"/>
<polygon fill="black" stroke="black" points="516.219,-326.988 522.383,-318.371 512.191,-321.263 516.219,-326.988"/>
<text text-anchor="middle" x="477.468" y="-450.8" font-family="Times New Roman,serif" font-size="14.00"> (0)</text>
</g>
<!-- node41 -->
<g id="node42" class="node"><title>node41</title>
<ellipse fill="none" stroke="black" cx="1432.11" cy="-625" rx="42.7926" ry="18"/>
<text text-anchor="middle" x="1432.11" y="-621.3" font-family="Times New Roman,serif" font-size="14.00">Output 1</text>
</g>
<!-- node14&#45;&gt;node41 -->
<g id="edge69" class="edge"><title>node14&#45;&gt;node41</title>
<path fill="none" stroke="black" d="M439.703,-533.972C479.23,-545.942 543.895,-565.948 599.06,-585 624.185,-593.677 629.35,-599.251 655.06,-606 708.092,-619.92 722.123,-625 776.952,-625 776.952,-625 776.952,-625 1305.77,-625 1329.83,-625 1356.49,-625 1379.01,-625"/>
<polygon fill="black" stroke="black" points="1379.05,-628.5 1389.05,-625 1379.05,-621.5 1379.05,-628.5"/>
</g>
<!-- node15&#45;&gt;node21 -->
<g id="edge32" class="edge"><title>node15&#45;&gt;node21</title>
<path fill="none" stroke="black" d="M557.094,-180.044C563.947,-152.742 581.091,-101.391 617.06,-77 625.388,-71.3524 635.278,-68.0765 645.305,-66.309"/>
<polygon fill="black" stroke="black" points="645.856,-69.7669 655.324,-65.0124 644.958,-62.8248 645.856,-69.7669"/>
<text text-anchor="middle" x="627.06" y="-80.8" font-family="Times New Roman,serif" font-size="14.00"> (1)</text>
</g>
<!-- node16&#45;&gt;node17 -->
<g id="edge24" class="edge"><title>node16&#45;&gt;node17</title>
<path fill="none" stroke="black" d="M581.556,-293.152C587.914,-289.288 594.207,-284.564 599.06,-279 612.678,-263.387 601.637,-249.833 617.06,-236 625.687,-228.262 636.609,-222.915 647.71,-219.221"/>
<polygon fill="black" stroke="black" points="648.836,-222.538 657.458,-216.381 646.878,-215.817 648.836,-222.538"/>
<text text-anchor="middle" x="627.06" y="-239.8" font-family="Times New Roman,serif" font-size="14.00"> (1)</text>
</g>
<!-- node23 -->
<g id="node24" class="node"><title>node23</title>
<ellipse fill="none" stroke="black" cx="853.397" cy="-177" rx="46.5926" ry="18"/>
<text text-anchor="middle" x="853.397" y="-173.3" font-family="Times New Roman,serif" font-size="14.00">(23) AND</text>
</g>
<!-- node17&#45;&gt;node23 -->
<g id="edge36" class="edge"><title>node17&#45;&gt;node23</title>
<path fill="none" stroke="black" d="M743.015,-201.978C761.356,-197.79 783.356,-192.766 802.801,-188.326"/>
<polygon fill="black" stroke="black" points="803.734,-191.703 812.703,-186.064 802.175,-184.878 803.734,-191.703"/>
<text text-anchor="middle" x="777.952" y="-200.8" font-family="Times New Roman,serif" font-size="14.00"> (1)</text>
</g>
<!-- node24 -->
<g id="node25" class="node"><title>node24</title>
<ellipse fill="none" stroke="black" cx="853.397" cy="-231" rx="47.3916" ry="18"/>
<text text-anchor="middle" x="853.397" y="-227.3" font-family="Times New Roman,serif" font-size="14.00">(24) XOR</text>
</g>
<!-- node17&#45;&gt;node24 -->
<g id="edge38" class="edge"><title>node17&#45;&gt;node24</title>
<path fill="none" stroke="black" d="M746.972,-216.839C762.965,-218.987 781.28,-221.447 798.109,-223.708"/>
<polygon fill="black" stroke="black" points="797.985,-227.222 808.361,-225.085 798.916,-220.285 797.985,-227.222"/>
<text text-anchor="middle" x="777.952" y="-226.8" font-family="Times New Roman,serif" font-size="14.00"> (1)</text>
</g>
<!-- node18&#45;&gt;node20 -->
<g id="edge30" class="edge"><title>node18&#45;&gt;node20</title>
<path fill="none" stroke="black" d="M584.43,-346.714C601.382,-341.698 621.918,-339.44 637.06,-350 684.861,-383.336 697.303,-456.308 700.477,-496.699"/>
<polygon fill="black" stroke="black" points="697.001,-497.178 701.137,-506.932 703.986,-496.727 697.001,-497.178"/>
<text text-anchor="middle" x="627.06" y="-353.8" font-family="Times New Roman,serif" font-size="14.00"> (1)</text>
</g>
<!-- node18&#45;&gt;node24 -->
<g id="edge37" class="edge"><title>node18&#45;&gt;node24</title>
<path fill="none" stroke="black" d="M581.663,-345.739C587.738,-342.029 593.879,-337.728 599.06,-333 609.173,-323.771 607.675,-317.969 617.06,-308 632.001,-292.131 635.497,-286.611 655.06,-277 680.242,-264.628 750.657,-249.815 800.16,-240.406"/>
<polygon fill="black" stroke="black" points="800.891,-243.83 810.072,-238.541 799.597,-236.95 800.891,-243.83"/>
<text text-anchor="middle" x="702.506" y="-280.8" font-family="Times New Roman,serif" font-size="14.00"> (0)</text>
</g>
<!-- node27 -->
<g id="node28" class="node"><title>node27</title>
<ellipse fill="none" stroke="black" cx="702.506" cy="-319" rx="46.5926" ry="18"/>
<text text-anchor="middle" x="702.506" y="-315.3" font-family="Times New Roman,serif" font-size="14.00">(27) AND</text>
</g>
<!-- node18&#45;&gt;node27 -->
<g id="edge43" class="edge"><title>node18&#45;&gt;node27</title>
<path fill="none" stroke="black" d="M580.551,-345.268C586.807,-341.523 593.306,-337.327 599.06,-333 607.855,-326.386 606.835,-320.065 617.06,-316 627.393,-311.892 639.01,-310.48 650.244,-310.527"/>
<polygon fill="black" stroke="black" points="650.272,-314.031 660.407,-310.945 650.559,-307.036 650.272,-314.031"/>
<text text-anchor="middle" x="627.06" y="-319.8" font-family="Times New Roman,serif" font-size="14.00"> (0)</text>
</g>
<!-- node19&#45;&gt;node27 -->
<g id="edge44" class="edge"><title>node19&#45;&gt;node27</title>
<path fill="none" stroke="black" d="M577.898,-406.639C594.827,-396.546 617.662,-382.489 637.06,-369 649.289,-360.496 662.349,-350.539 673.493,-341.758"/>
<polygon fill="black" stroke="black" points="675.945,-344.28 681.595,-335.317 671.589,-338.801 675.945,-344.28"/>
<text text-anchor="middle" x="627.06" y="-385.8" font-family="Times New Roman,serif" font-size="14.00"> (1)</text>
</g>
<!-- node29 -->
<g id="node30" class="node"><title>node29</title>
<ellipse fill="none" stroke="black" cx="1004.29" cy="-376" rx="40.8928" ry="18"/>
<text text-anchor="middle" x="1004.29" y="-372.3" font-family="Times New Roman,serif" font-size="14.00">(29) OR</text>
</g>
<!-- node19&#45;&gt;node29 -->
<g id="edge47" class="edge"><title>node19&#45;&gt;node29</title>
<path fill="none" stroke="black" d="M592.414,-417.085C674.385,-408.889 863.919,-389.936 954.01,-380.928"/>
<polygon fill="black" stroke="black" points="954.628,-384.383 964.23,-379.906 953.932,-377.418 954.628,-384.383"/>
<text text-anchor="middle" x="777.952" y="-403.8" font-family="Times New Roman,serif" font-size="14.00"> (1)</text>
</g>
<!-- node19&#45;&gt;node31 -->
<g id="edge50" class="edge"><title>node19&#45;&gt;node31</title>
<path fill="none" stroke="black" d="M565.123,-438.364C574.975,-453.244 588.963,-475.464 599.06,-496 608.93,-516.073 601.54,-526.891 617.06,-543 626.665,-552.969 639.473,-560.318 652.206,-565.676"/>
<polygon fill="black" stroke="black" points="651.283,-569.071 661.873,-569.396 653.797,-562.538 651.283,-569.071"/>
<text text-anchor="middle" x="627.06" y="-561.8" font-family="Times New Roman,serif" font-size="14.00"> (0)</text>
</g>
<!-- node37 -->
<g id="node38" class="node"><title>node37</title>
<ellipse fill="none" stroke="black" cx="853.397" cy="-548" rx="47.3916" ry="18"/>
<text text-anchor="middle" x="853.397" y="-544.3" font-family="Times New Roman,serif" font-size="14.00">(37) XOR</text>
</g>
<!-- node20&#45;&gt;node37 -->
<g id="edge63" class="edge"><title>node20&#45;&gt;node37</title>
<path fill="none" stroke="black" d="M749.204,-528.962C761.797,-530.301 775.434,-531.979 787.952,-534 792.717,-534.769 797.66,-535.665 802.593,-536.624"/>
<polygon fill="black" stroke="black" points="802.15,-540.105 812.646,-538.663 803.542,-533.245 802.15,-540.105"/>
<text text-anchor="middle" x="777.952" y="-537.8" font-family="Times New Roman,serif" font-size="14.00"> (1)</text>
</g>
<!-- node38 -->
<g id="node39" class="node"><title>node38</title>
<ellipse fill="none" stroke="black" cx="1154.53" cy="-298" rx="46.5926" ry="18"/>
<text text-anchor="middle" x="1154.53" y="-294.3" font-family="Times New Roman,serif" font-size="14.00">(38) AND</text>
</g>
<!-- node21&#45;&gt;node38 -->
<g id="edge64" class="edge"><title>node21&#45;&gt;node38</title>
<path fill="none" stroke="black" d="M748.941,-63.7752C797.578,-60.9449 876.198,-61.3086 938.843,-85 1033.19,-120.681 1106.84,-222.768 1137.72,-271.495"/>
<polygon fill="black" stroke="black" points="1134.9,-273.58 1143.15,-280.219 1140.84,-269.88 1134.9,-273.58"/>
<text text-anchor="middle" x="928.843" y="-88.8" font-family="Times New Roman,serif" font-size="14.00"> (0)</text>
</g>
<!-- node22&#45;&gt;node23 -->
<g id="edge35" class="edge"><title>node22&#45;&gt;node23</title>
<path fill="none" stroke="black" d="M579.203,-238.243C585.893,-234.287 592.931,-229.748 599.06,-225 626.887,-203.446 622.541,-182.47 655.06,-169 703.347,-148.999 764.095,-155.653 805.345,-164.31"/>
<polygon fill="black" stroke="black" points="804.613,-167.733 815.133,-166.479 806.127,-160.899 804.613,-167.733"/>
<text text-anchor="middle" x="702.506" y="-172.8" font-family="Times New Roman,serif" font-size="14.00"> (0)</text>
</g>
<!-- node23&#45;&gt;node25 -->
<g id="edge39" class="edge"><title>node23&#45;&gt;node25</title>
<path fill="none" stroke="black" d="M857.701,-158.701C864.059,-128.945 880.874,-70.2614 918.843,-39 927.326,-32.0157 937.805,-27.3049 948.462,-24.1396"/>
<polygon fill="black" stroke="black" points="949.42,-27.5073 958.246,-21.6462 947.692,-20.7241 949.42,-27.5073"/>
<text text-anchor="middle" x="928.843" y="-42.8" font-family="Times New Roman,serif" font-size="14.00"> (0)</text>
</g>
<!-- node23&#45;&gt;node29 -->
<g id="edge46" class="edge"><title>node23&#45;&gt;node29</title>
<path fill="none" stroke="black" d="M886.09,-190.151C891.791,-193.848 897.102,-198.423 900.843,-204 933.339,-252.439 884.79,-286.644 918.843,-334 928.567,-347.522 943.895,-356.93 958.84,-363.357"/>
<polygon fill="black" stroke="black" points="957.955,-366.769 968.542,-367.164 960.511,-360.253 957.955,-366.769"/>
<text text-anchor="middle" x="928.843" y="-355.8" font-family="Times New Roman,serif" font-size="14.00"> (0)</text>
</g>
<!-- node33 -->
<g id="node34" class="node"><title>node33</title>
<ellipse fill="none" stroke="black" cx="1004.29" cy="-303" rx="47.3916" ry="18"/>
<text text-anchor="middle" x="1004.29" y="-299.3" font-family="Times New Roman,serif" font-size="14.00">(33) XOR</text>
</g>
<!-- node23&#45;&gt;node33 -->
<g id="edge54" class="edge"><title>node23&#45;&gt;node33</title>
<path fill="none" stroke="black" d="M883.612,-190.787C889.751,-194.522 895.866,-198.952 900.843,-204 912.299,-215.62 908.717,-223.204 918.843,-236 933.091,-254.005 938.9,-256.673 956.843,-271 961.243,-274.513 966.01,-278.063 970.756,-281.455"/>
<polygon fill="black" stroke="black" points="968.992,-284.492 979.195,-287.349 973.001,-278.753 968.992,-284.492"/>
<text text-anchor="middle" x="928.843" y="-260.8" font-family="Times New Roman,serif" font-size="14.00"> (0)</text>
</g>
<!-- node32 -->
<g id="node33" class="node"><title>node32</title>
<ellipse fill="none" stroke="black" cx="1004.29" cy="-198" rx="47.3916" ry="18"/>
<text text-anchor="middle" x="1004.29" y="-194.3" font-family="Times New Roman,serif" font-size="14.00">(32) XOR</text>
</g>
<!-- node24&#45;&gt;node32 -->
<g id="edge53" class="edge"><title>node24&#45;&gt;node32</title>
<path fill="none" stroke="black" d="M894.69,-222.07C912.648,-218.089 933.992,-213.359 952.985,-209.149"/>
<polygon fill="black" stroke="black" points="953.959,-212.518 962.965,-206.937 952.444,-205.684 953.959,-212.518"/>
<text text-anchor="middle" x="928.843" y="-220.8" font-family="Times New Roman,serif" font-size="14.00"> (1)</text>
</g>
<!-- node45 -->
<g id="node46" class="node"><title>node45</title>
<ellipse fill="none" stroke="black" cx="1432.11" cy="-18" rx="42.7926" ry="18"/>
<text text-anchor="middle" x="1432.11" y="-14.3" font-family="Times New Roman,serif" font-size="14.00">Output 5</text>
</g>
<!-- node25&#45;&gt;node45 -->
<g id="edge73" class="edge"><title>node25&#45;&gt;node45</title>
<path fill="none" stroke="black" d="M1051.26,-18C1131.16,-18 1295.1,-18 1379.05,-18"/>
<polygon fill="black" stroke="black" points="1379.13,-21.5001 1389.13,-18 1379.13,-14.5001 1379.13,-21.5001"/>
</g>
<!-- node26&#45;&gt;node32 -->
<g id="edge52" class="edge"><title>node26&#45;&gt;node32</title>
<path fill="none" stroke="black" d="M199.324,-196.439C210.493,-180.336 229.333,-157.327 252.084,-146 282.012,-131.101 517.832,-114 551.264,-114 551.264,-114 551.264,-114 854.397,-114 903.561,-114 951.44,-149.17 979.113,-173.996"/>
<polygon fill="black" stroke="black" points="976.978,-176.788 986.699,-181.001 981.727,-171.646 976.978,-176.788"/>
<text text-anchor="middle" x="627.06" y="-117.8" font-family="Times New Roman,serif" font-size="14.00"> (0)</text>
</g>
<!-- node28 -->
<g id="node29" class="node"><title>node28</title>
<ellipse fill="none" stroke="black" cx="853.397" cy="-323" rx="46.2923" ry="18"/>
<text text-anchor="middle" x="853.397" y="-319.3" font-family="Times New Roman,serif" font-size="14.00">(28) NEG</text>
</g>
<!-- node27&#45;&gt;node28 -->
<g id="edge45" class="edge"><title>node27&#45;&gt;node28</title>
<path fill="none" stroke="black" d="M749.393,-320.233C764.463,-320.638 781.373,-321.092 797.067,-321.514"/>
<polygon fill="black" stroke="black" points="797.083,-325.015 807.173,-321.785 797.271,-318.018 797.083,-325.015"/>
<text text-anchor="middle" x="777.952" y="-325.8" font-family="Times New Roman,serif" font-size="14.00"> (0)</text>
</g>
<!-- node39 -->
<g id="node40" class="node"><title>node39</title>
<ellipse fill="none" stroke="black" cx="1304.77" cy="-269" rx="47.3916" ry="18"/>
<text text-anchor="middle" x="1304.77" y="-265.3" font-family="Times New Roman,serif" font-size="14.00">(39) XOR</text>
</g>
<!-- node27&#45;&gt;node39 -->
<g id="edge67" class="edge"><title>node27&#45;&gt;node39</title>
<path fill="none" stroke="black" d="M740.963,-308.444C783.705,-296.712 855.846,-277.86 918.843,-266 1035.04,-244.125 1174.49,-253.92 1249.55,-262.057"/>
<polygon fill="black" stroke="black" points="1249.37,-265.56 1259.7,-263.191 1250.15,-258.603 1249.37,-265.56"/>
<text text-anchor="middle" x="1004.29" y="-263.8" font-family="Times New Roman,serif" font-size="14.00"> (1)</text>
</g>
<!-- node28&#45;&gt;node30 -->
<g id="edge48" class="edge"><title>node28&#45;&gt;node30</title>
<path fill="none" stroke="black" d="M871.457,-339.618C884.051,-351.496 901.878,-367.52 918.843,-380 934.746,-391.698 939.864,-392.928 956.843,-403 960.543,-405.195 964.418,-407.475 968.284,-409.739"/>
<polygon fill="black" stroke="black" points="966.802,-412.927 977.203,-414.944 970.33,-406.881 966.802,-412.927"/>
<text text-anchor="middle" x="928.843" y="-396.8" font-family="Times New Roman,serif" font-size="14.00"> (0)</text>
</g>
<!-- node28&#45;&gt;node33 -->
<g id="edge55" class="edge"><title>node28&#45;&gt;node33</title>
<path fill="none" stroke="black" d="M897.463,-317.215C913.537,-315.056 932,-312.576 948.958,-310.298"/>
<polygon fill="black" stroke="black" points="949.842,-313.711 959.287,-308.911 948.91,-306.773 949.842,-313.711"/>
<text text-anchor="middle" x="928.843" y="-318.8" font-family="Times New Roman,serif" font-size="14.00"> (1)</text>
</g>
<!-- node29&#45;&gt;node35 -->
<g id="edge59" class="edge"><title>node29&#45;&gt;node35</title>
<path fill="none" stroke="black" d="M1042.12,-383.027C1058.41,-387.741 1076.77,-395.471 1089.73,-408 1104.63,-422.397 1094.12,-435.387 1107.73,-451 1110.05,-453.654 1112.69,-456.117 1115.51,-458.386"/>
<polygon fill="black" stroke="black" points="1113.63,-461.34 1123.81,-464.268 1117.68,-455.63 1113.63,-461.34"/>
<text text-anchor="middle" x="1079.73" y="-411.8" font-family="Times New Roman,serif" font-size="14.00"> (1)</text>
</g>
<!-- node34 -->
<g id="node35" class="node"><title>node34</title>
<ellipse fill="none" stroke="black" cx="1154.53" cy="-424" rx="40.8928" ry="18"/>
<text text-anchor="middle" x="1154.53" y="-420.3" font-family="Times New Roman,serif" font-size="14.00">(34) OR</text>
</g>
<!-- node30&#45;&gt;node34 -->
<g id="edge56" class="edge"><title>node30&#45;&gt;node34</title>
<path fill="none" stroke="black" d="M1050.98,-428.151C1067.46,-427.484 1086.16,-426.727 1103.03,-426.044"/>
<polygon fill="black" stroke="black" points="1103.42,-429.531 1113.27,-425.63 1103.13,-422.537 1103.42,-429.531"/>
<text text-anchor="middle" x="1079.73" y="-431.8" font-family="Times New Roman,serif" font-size="14.00"> (0)</text>
</g>
<!-- node31&#45;&gt;node37 -->
<g id="edge62" class="edge"><title>node31&#45;&gt;node37</title>
<path fill="none" stroke="black" d="M744.585,-570.447C762.161,-566.788 782.865,-562.477 801.407,-558.616"/>
<polygon fill="black" stroke="black" points="802.375,-561.99 811.452,-556.525 800.948,-555.137 802.375,-561.99"/>
<text text-anchor="middle" x="777.952" y="-568.8" font-family="Times New Roman,serif" font-size="14.00"> (0)</text>
</g>
<!-- node32&#45;&gt;node34 -->
<g id="edge57" class="edge"><title>node32&#45;&gt;node34</title>
<path fill="none" stroke="black" d="M1033.4,-212.289C1040.34,-217.048 1047.1,-222.967 1051.73,-230 1074.17,-264.066 1052.44,-283.055 1069.73,-320 1084.23,-350.961 1109.82,-380.753 1128.92,-400.455"/>
<polygon fill="black" stroke="black" points="1126.62,-403.105 1136.14,-407.747 1131.59,-398.179 1126.62,-403.105"/>
<text text-anchor="middle" x="1079.73" y="-355.8" font-family="Times New Roman,serif" font-size="14.00"> (1)</text>
</g>
<!-- node33&#45;&gt;node38 -->
<g id="edge65" class="edge"><title>node33&#45;&gt;node38</title>
<path fill="none" stroke="black" d="M1051.79,-301.432C1066.27,-300.943 1082.41,-300.399 1097.48,-299.891"/>
<polygon fill="black" stroke="black" points="1097.83,-303.381 1107.71,-299.546 1097.59,-296.385 1097.83,-303.381"/>
<text text-anchor="middle" x="1079.73" y="-304.8" font-family="Times New Roman,serif" font-size="14.00"> (1)</text>
</g>
<!-- node36 -->
<g id="node37" class="node"><title>node36</title>
<ellipse fill="none" stroke="black" cx="1304.77" cy="-443" rx="47.3916" ry="18"/>
<text text-anchor="middle" x="1304.77" y="-439.3" font-family="Times New Roman,serif" font-size="14.00">(36) XOR</text>
</g>
<!-- node34&#45;&gt;node36 -->
<g id="edge61" class="edge"><title>node34&#45;&gt;node36</title>
<path fill="none" stroke="black" d="M1194.09,-428.942C1211.03,-431.113 1231.21,-433.7 1249.62,-436.06"/>
<polygon fill="black" stroke="black" points="1249.27,-439.543 1259.64,-437.343 1250.16,-432.6 1249.27,-439.543"/>
<text text-anchor="middle" x="1229.33" y="-438.8" font-family="Times New Roman,serif" font-size="14.00"> (1)</text>
</g>
<!-- node35&#45;&gt;node36 -->
<g id="edge60" class="edge"><title>node35&#45;&gt;node36</title>
<path fill="none" stroke="black" d="M1194.87,-468.713C1213.06,-464.418 1234.86,-459.271 1254.16,-454.714"/>
<polygon fill="black" stroke="black" points="1255.07,-458.096 1263.99,-452.392 1253.46,-451.283 1255.07,-458.096"/>
<text text-anchor="middle" x="1229.33" y="-466.8" font-family="Times New Roman,serif" font-size="14.00"> (0)</text>
</g>
<!-- node43 -->
<g id="node44" class="node"><title>node43</title>
<ellipse fill="none" stroke="black" cx="1432.11" cy="-443" rx="42.7926" ry="18"/>
<text text-anchor="middle" x="1432.11" y="-439.3" font-family="Times New Roman,serif" font-size="14.00">Output 3</text>
</g>
<!-- node36&#45;&gt;node43 -->
<g id="edge71" class="edge"><title>node36&#45;&gt;node43</title>
<path fill="none" stroke="black" d="M1352.44,-443C1361.05,-443 1370.09,-443 1378.84,-443"/>
<polygon fill="black" stroke="black" points="1378.95,-446.5 1388.95,-443 1378.95,-439.5 1378.95,-446.5"/>
</g>
<!-- node42 -->
<g id="node43" class="node"><title>node42</title>
<ellipse fill="none" stroke="black" cx="1432.11" cy="-548" rx="42.7926" ry="18"/>
<text text-anchor="middle" x="1432.11" y="-544.3" font-family="Times New Roman,serif" font-size="14.00">Output 2</text>
</g>
<!-- node37&#45;&gt;node42 -->
<g id="edge70" class="edge"><title>node37&#45;&gt;node42</title>
<path fill="none" stroke="black" d="M901.006,-548C930.357,-548 969.039,-548 1003.29,-548 1003.29,-548 1003.29,-548 1305.77,-548 1329.83,-548 1356.49,-548 1379.01,-548"/>
<polygon fill="black" stroke="black" points="1379.05,-551.5 1389.05,-548 1379.05,-544.5 1379.05,-551.5"/>
</g>
<!-- node38&#45;&gt;node39 -->
<g id="edge66" class="edge"><title>node38&#45;&gt;node39</title>
<path fill="none" stroke="black" d="M1196.82,-289.922C1214.03,-286.556 1234.19,-282.612 1252.34,-279.062"/>
<polygon fill="black" stroke="black" points="1253.04,-282.49 1262.19,-277.135 1251.7,-275.62 1253.04,-282.49"/>
<text text-anchor="middle" x="1229.33" y="-289.8" font-family="Times New Roman,serif" font-size="14.00"> (0)</text>
</g>
<!-- node44 -->
<g id="node45" class="node"><title>node44</title>
<ellipse fill="none" stroke="black" cx="1432.11" cy="-269" rx="42.7926" ry="18"/>
<text text-anchor="middle" x="1432.11" y="-265.3" font-family="Times New Roman,serif" font-size="14.00">Output 4</text>
</g>
<!-- node39&#45;&gt;node44 -->
<g id="edge72" class="edge"><title>node39&#45;&gt;node44</title>
<path fill="none" stroke="black" d="M1352.44,-269C1361.05,-269 1370.09,-269 1378.84,-269"/>
<polygon fill="black" stroke="black" points="1378.95,-272.5 1388.95,-269 1378.95,-265.5 1378.95,-272.5"/>
</g>
</g>
</svg>
