<?xml version="1.0" encoding="UTF-8" standalone="no"?>
<!DOCTYPE svg PUBLIC "-//W3C//DTD SVG 1.1//EN"
 "http://www.w3.org/Graphics/SVG/1.1/DTD/svg11.dtd">
<!-- Generated by graphviz version 2.38.0 (20140413.2041)
 -->
<!-- Title: NeuralNetwork Pages: 1 -->
<svg width="288pt" height="73pt"
 viewBox="0.00 0.00 288.00 73.23" xmlns="http://www.w3.org/2000/svg" xmlns:xlink="http://www.w3.org/1999/xlink">
<g id="graph0" class="graph" transform="scale(0.173946 0.173946) rotate(0) translate(4 417)">
<title>NeuralNetwork</title>
<polygon fill="white" stroke="none" points="-4,4 -4,-417 1651.69,-417 1651.69,4 -4,4"/>
<!-- node0 -->
<g id="node1" class="node"><title>node0</title>
<ellipse fill="none" stroke="black" cx="42.2463" cy="-105" rx="42.4939" ry="18"/>
<text text-anchor="middle" x="42.2463" y="-101.3" font-family="Times New Roman,serif" font-size="14.00">(0) Input</text>
</g>
<!-- node5 -->
<g id="node6" class="node"><title>node5</title>
<ellipse fill="none" stroke="black" cx="187.938" cy="-115" rx="42.7926" ry="18"/>
<text text-anchor="middle" x="187.938" y="-111.3" font-family="Times New Roman,serif" font-size="14.00">(5) XOR</text>
</g>
<!-- node0&#45;&gt;node5 -->
<g id="edge2" class="edge"><title>node0&#45;&gt;node5</title>
<path fill="none" stroke="black" d="M84.8293,-104.539C96.9834,-104.671 110.282,-105.074 122.493,-106 127.308,-106.365 132.313,-106.859 137.309,-107.429"/>
<polygon fill="black" stroke="black" points="137.134,-110.934 147.488,-108.688 137.993,-103.987 137.134,-110.934"/>
<text text-anchor="middle" x="112.493" y="-109.8" font-family="Times New Roman,serif" font-size="14.00"> (1)</text>
</g>
<!-- node1 -->
<g id="node2" class="node"><title>node1</title>
<ellipse fill="none" stroke="black" cx="42.2463" cy="-295" rx="42.4939" ry="18"/>
<text text-anchor="middle" x="42.2463" y="-291.3" font-family="Times New Roman,serif" font-size="14.00">(1) Input</text>
</g>
<!-- node7 -->
<g id="node8" class="node"><title>node7</title>
<ellipse fill="none" stroke="black" cx="187.938" cy="-379" rx="42.4939" ry="18"/>
<text text-anchor="middle" x="187.938" y="-375.3" font-family="Times New Roman,serif" font-size="14.00">(7) AND</text>
</g>
<!-- node1&#45;&gt;node7 -->
<g id="edge5" class="edge"><title>node1&#45;&gt;node7</title>
<path fill="none" stroke="black" d="M69.247,-309.144C74.696,-312.86 80.1112,-317.192 84.4925,-322 96.0095,-334.637 89.1429,-345.317 102.493,-356 112.224,-363.788 124.39,-368.947 136.431,-372.361"/>
<polygon fill="black" stroke="black" points="135.912,-375.838 146.459,-374.839 137.59,-369.042 135.912,-375.838"/>
<text text-anchor="middle" x="112.493" y="-369.8" font-family="Times New Roman,serif" font-size="14.00"> (1)</text>
</g>
<!-- node9 -->
<g id="node10" class="node"><title>node9</title>
<ellipse fill="none" stroke="black" cx="611.557" cy="-186" rx="42.7926" ry="18"/>
<text text-anchor="middle" x="611.557" y="-182.3" font-family="Times New Roman,serif" font-size="14.00">(9) XOR</text>
</g>
<!-- node1&#45;&gt;node9 -->
<g id="edge8" class="edge"><title>node1&#45;&gt;node9</title>
<path fill="none" stroke="black" d="M62.5917,-279.069C73.6208,-270.841 88.0839,-261.416 102.493,-256 185.538,-224.785 447.158,-199.751 559.015,-190.189"/>
<polygon fill="black" stroke="black" points="559.374,-193.671 569.043,-189.339 558.783,-186.696 559.374,-193.671"/>
<text text-anchor="middle" x="295.63" y="-226.8" font-family="Times New Roman,serif" font-size="14.00"> (0)</text>
</g>
<!-- node12 -->
<g id="node13" class="node"><title>node12</title>
<ellipse fill="none" stroke="black" cx="187.938" cy="-323" rx="47.3916" ry="18"/>
<text text-anchor="middle" x="187.938" y="-319.3" font-family="Times New Roman,serif" font-size="14.00">(12) XOR</text>
</g>
<!-- node1&#45;&gt;node12 -->
<g id="edge15" class="edge"><title>node1&#45;&gt;node12</title>
<path fill="none" stroke="black" d="M80.9996,-302.357C97.6202,-305.595 117.41,-309.452 135.36,-312.949"/>
<polygon fill="black" stroke="black" points="134.91,-316.427 145.395,-314.905 136.249,-309.557 134.91,-316.427"/>
<text text-anchor="middle" x="112.493" y="-312.8" font-family="Times New Roman,serif" font-size="14.00"> (1)</text>
</g>
<!-- node2 -->
<g id="node3" class="node"><title>node2</title>
<ellipse fill="none" stroke="black" cx="42.2463" cy="-26" rx="42.4939" ry="18"/>
<text text-anchor="middle" x="42.2463" y="-22.3" font-family="Times New Roman,serif" font-size="14.00">(2) Input</text>
</g>
<!-- node8 -->
<g id="node9" class="node"><title>node8</title>
<ellipse fill="none" stroke="black" cx="403.322" cy="-89" rx="42.4939" ry="18"/>
<text text-anchor="middle" x="403.322" y="-85.3" font-family="Times New Roman,serif" font-size="14.00">(8) AND</text>
</g>
<!-- node2&#45;&gt;node8 -->
<g id="edge6" class="edge"><title>node2&#45;&gt;node8</title>
<path fill="none" stroke="black" d="M80.5049,-33.732C87.7882,-35.191 95.3736,-36.6739 102.493,-38 190.636,-54.4187 293.763,-71.4947 353.217,-81.1323"/>
<polygon fill="black" stroke="black" points="353.01,-84.6443 363.441,-82.786 354.128,-77.7341 353.01,-84.6443"/>
<text text-anchor="middle" x="187.938" y="-64.8" font-family="Times New Roman,serif" font-size="14.00"> (0)</text>
</g>
<!-- node10 -->
<g id="node11" class="node"><title>node10</title>
<ellipse fill="none" stroke="black" cx="403.322" cy="-18" rx="47.3916" ry="18"/>
<text text-anchor="middle" x="403.322" y="-14.3" font-family="Times New Roman,serif" font-size="14.00">(10) XOR</text>
</g>
<!-- node2&#45;&gt;node10 -->
<g id="edge10" class="edge"><title>node2&#45;&gt;node10</title>
<path fill="none" stroke="black" d="M84.7876,-25.0745C149.099,-23.6417 272.898,-20.8835 345.46,-19.2669"/>
<polygon fill="black" stroke="black" points="345.861,-22.7589 355.781,-19.0369 345.705,-15.7606 345.861,-22.7589"/>
<text text-anchor="middle" x="187.938" y="-26.8" font-family="Times New Roman,serif" font-size="14.00"> (0)</text>
</g>
<!-- node3 -->
<g id="node4" class="node"><title>node3</title>
<ellipse fill="none" stroke="black" cx="42.2463" cy="-349" rx="42.4939" ry="18"/>
<text text-anchor="middle" x="42.2463" y="-345.3" font-family="Times New Roman,serif" font-size="14.00">(3) Input</text>
</g>
<!-- node3&#45;&gt;node7 -->
<g id="edge4" class="edge"><title>node3&#45;&gt;node7</title>
<path fill="none" stroke="black" d="M59.052,-366.063C70.0648,-376.636 85.7386,-389.26 102.493,-395 117.058,-399.991 133.602,-398.359 148.162,-394.632"/>
<polygon fill="black" stroke="black" points="149.272,-397.954 157.877,-391.773 147.296,-391.239 149.272,-397.954"/>
<text text-anchor="middle" x="112.493" y="-401.8" font-family="Times New Roman,serif" font-size="14.00"> (0)</text>
</g>
<!-- node11 -->
<g id="node12" class="node"><title>node11</title>
<ellipse fill="none" stroke="black" cx="830.191" cy="-195" rx="47.3916" ry="18"/>
<text text-anchor="middle" x="830.191" y="-191.3" font-family="Times New Roman,serif" font-size="14.00">(11) XOR</text>
</g>
<!-- node3&#45;&gt;node11 -->
<g id="edge12" class="edge"><title>node3&#45;&gt;node11</title>
<path fill="none" stroke="black" d="M67.4756,-334.487C73.2398,-330.673 79.2382,-326.39 84.4925,-322 93.4191,-314.542 92.8429,-309.496 102.493,-303 135.92,-280.498 146.643,-270 186.938,-270 186.938,-270 186.938,-270 510.715,-270 563.514,-270 707.576,-230.449 782.51,-208.79"/>
<polygon fill="black" stroke="black" points="783.542,-212.135 792.171,-205.986 781.591,-205.412 783.542,-212.135"/>
<text text-anchor="middle" x="403.322" y="-273.8" font-family="Times New Roman,serif" font-size="14.00"> (0)</text>
</g>
<!-- node3&#45;&gt;node12 -->
<g id="edge14" class="edge"><title>node3&#45;&gt;node12</title>
<path fill="none" stroke="black" d="M81.3758,-342.101C97.709,-339.145 117.049,-335.646 134.683,-332.455"/>
<polygon fill="black" stroke="black" points="135.617,-335.843 144.834,-330.618 134.37,-328.955 135.617,-335.843"/>
<text text-anchor="middle" x="112.493" y="-340.8" font-family="Times New Roman,serif" font-size="14.00"> (0)</text>
</g>
<!-- node4 -->
<g id="node5" class="node"><title>node4</title>
<ellipse fill="none" stroke="black" cx="42.2463" cy="-170" rx="42.4939" ry="18"/>
<text text-anchor="middle" x="42.2463" y="-166.3" font-family="Times New Roman,serif" font-size="14.00">(4) Input</text>
</g>
<!-- node4&#45;&gt;node5 -->
<g id="edge1" class="edge"><title>node4&#45;&gt;node5</title>
<path fill="none" stroke="black" d="M71.6744,-156.955C81.3786,-152.654 92.3427,-147.962 102.493,-144 115.725,-138.834 130.305,-133.651 143.572,-129.124"/>
<polygon fill="black" stroke="black" points="145.062,-132.316 153.418,-125.802 142.824,-125.683 145.062,-132.316"/>
<text text-anchor="middle" x="112.493" y="-147.8" font-family="Times New Roman,serif" font-size="14.00"> (0)</text>
</g>
<!-- node6 -->
<g id="node7" class="node"><title>node6</title>
<ellipse fill="none" stroke="black" cx="295.63" cy="-181" rx="42.4939" ry="18"/>
<text text-anchor="middle" x="295.63" y="-177.3" font-family="Times New Roman,serif" font-size="14.00">(6) NEG</text>
</g>
<!-- node4&#45;&gt;node6 -->
<g id="edge3" class="edge"><title>node4&#45;&gt;node6</title>
<path fill="none" stroke="black" d="M84.4757,-171.804C127.857,-173.702 196.223,-176.694 243.125,-178.746"/>
<polygon fill="black" stroke="black" points="243.235,-182.254 253.378,-179.195 243.541,-175.261 243.235,-182.254"/>
<text text-anchor="middle" x="112.493" y="-176.8" font-family="Times New Roman,serif" font-size="14.00"> (0)</text>
</g>
<!-- node5&#45;&gt;node8 -->
<g id="edge7" class="edge"><title>node5&#45;&gt;node8</title>
<path fill="none" stroke="black" d="M223.118,-104.641C232.817,-102.07 243.444,-99.5952 253.384,-98 285.503,-92.8451 321.95,-90.582 350.75,-89.6139"/>
<polygon fill="black" stroke="black" points="351.099,-93.1052 360.992,-89.3129 350.893,-86.1082 351.099,-93.1052"/>
<text text-anchor="middle" x="295.63" y="-101.8" font-family="Times New Roman,serif" font-size="14.00"> (1)</text>
</g>
<!-- node5&#45;&gt;node10 -->
<g id="edge11" class="edge"><title>node5&#45;&gt;node10</title>
<path fill="none" stroke="black" d="M211.069,-99.6927C228.8,-87.4598 251.09,-72.1668 253.384,-71 285.914,-54.4571 324.832,-40.8007 354.727,-31.4952"/>
<polygon fill="black" stroke="black" points="355.957,-34.779 364.497,-28.5083 353.911,-28.0849 355.957,-34.779"/>
<text text-anchor="middle" x="295.63" y="-74.8" font-family="Times New Roman,serif" font-size="14.00"> (1)</text>
</g>
<!-- node13 -->
<g id="node14" class="node"><title>node13</title>
<ellipse fill="none" stroke="black" cx="509.715" cy="-161" rx="40.8928" ry="18"/>
<text text-anchor="middle" x="509.715" y="-157.3" font-family="Times New Roman,serif" font-size="14.00">(13) OR</text>
</g>
<!-- node5&#45;&gt;node13 -->
<g id="edge17" class="edge"><title>node5&#45;&gt;node13</title>
<path fill="none" stroke="black" d="M228.792,-120.733C287.472,-129.174 396.987,-144.928 460.241,-154.027"/>
<polygon fill="black" stroke="black" points="459.962,-157.523 470.358,-155.482 460.958,-150.594 459.962,-157.523"/>
<text text-anchor="middle" x="295.63" y="-139.8" font-family="Times New Roman,serif" font-size="14.00"> (1)</text>
</g>
<!-- node6&#45;&gt;node13 -->
<g id="edge16" class="edge"><title>node6&#45;&gt;node13</title>
<path fill="none" stroke="black" d="M337.021,-177.191C371.845,-173.907 422.243,-169.154 459.434,-165.647"/>
<polygon fill="black" stroke="black" points="459.922,-169.117 469.549,-164.693 459.265,-162.148 459.922,-169.117"/>
<text text-anchor="middle" x="403.322" y="-178.8" font-family="Times New Roman,serif" font-size="14.00"> (0)</text>
</g>
<!-- node20 -->
<g id="node21" class="node"><title>node20</title>
<ellipse fill="none" stroke="black" cx="1483.95" cy="-360" rx="40.8928" ry="18"/>
<text text-anchor="middle" x="1483.95" y="-356.3" font-family="Times New Roman,serif" font-size="14.00">(20) OR</text>
</g>
<!-- node7&#45;&gt;node20 -->
<g id="edge28" class="edge"><title>node7&#45;&gt;node20</title>
<path fill="none" stroke="black" d="M230.237,-377.459C273.216,-375.99 342.477,-374 402.322,-374 402.322,-374 402.322,-374 1341.86,-374 1372.96,-374 1407.73,-370.589 1434.98,-367.135"/>
<polygon fill="black" stroke="black" points="1435.57,-370.587 1445.03,-365.816 1434.66,-363.647 1435.57,-370.587"/>
<text text-anchor="middle" x="905.637" y="-377.8" font-family="Times New Roman,serif" font-size="14.00"> (1)</text>
</g>
<!-- node8&#45;&gt;node9 -->
<g id="edge9" class="edge"><title>node8&#45;&gt;node9</title>
<path fill="none" stroke="black" d="M445.574,-90.5424C476.322,-93.2711 518.397,-100.451 550.661,-119 568.023,-128.982 583.033,-145.798 593.684,-160.085"/>
<polygon fill="black" stroke="black" points="591.079,-162.461 599.735,-168.571 596.778,-158.397 591.079,-162.461"/>
<text text-anchor="middle" x="509.715" y="-122.8" font-family="Times New Roman,serif" font-size="14.00"> (1)</text>
</g>
<!-- node9&#45;&gt;node11 -->
<g id="edge13" class="edge"><title>node9&#45;&gt;node11</title>
<path fill="none" stroke="black" d="M654.592,-184.958C685.177,-184.521 727.569,-184.579 764.745,-187 768.168,-187.223 771.687,-187.506 775.232,-187.831"/>
<polygon fill="black" stroke="black" points="774.926,-191.318 785.229,-188.847 775.634,-184.354 774.926,-191.318"/>
<text text-anchor="middle" x="718.599" y="-190.8" font-family="Times New Roman,serif" font-size="14.00"> (1)</text>
</g>
<!-- node21 -->
<g id="node22" class="node"><title>node21</title>
<ellipse fill="none" stroke="black" cx="1604.79" cy="-18" rx="42.7926" ry="18"/>
<text text-anchor="middle" x="1604.79" y="-14.3" font-family="Times New Roman,serif" font-size="14.00">Output 0</text>
</g>
<!-- node10&#45;&gt;node21 -->
<g id="edge29" class="edge"><title>node10&#45;&gt;node21</title>
<path fill="none" stroke="black" d="M451.01,-18C492.81,-18 555.776,-18 610.557,-18 610.557,-18 610.557,-18 1484.95,-18 1506.75,-18 1530.8,-18 1551.52,-18"/>
<polygon fill="black" stroke="black" points="1551.72,-21.5001 1561.72,-18 1551.72,-14.5001 1551.72,-21.5001"/>
</g>
<!-- node15 -->
<g id="node16" class="node"><title>node15</title>
<ellipse fill="none" stroke="black" cx="981.082" cy="-249" rx="46.5926" ry="18"/>
<text text-anchor="middle" x="981.082" y="-245.3" font-family="Times New Roman,serif" font-size="14.00">(15) AND</text>
</g>
<!-- node11&#45;&gt;node15 -->
<g id="edge19" class="edge"><title>node11&#45;&gt;node15</title>
<path fill="none" stroke="black" d="M869.805,-205.244C884.318,-209.404 900.872,-214.521 915.637,-220 924.245,-223.194 933.327,-226.999 941.871,-230.785"/>
<polygon fill="black" stroke="black" points="940.681,-234.088 951.235,-235.017 943.564,-227.709 940.681,-234.088"/>
<text text-anchor="middle" x="905.637" y="-223.8" font-family="Times New Roman,serif" font-size="14.00"> (0)</text>
</g>
<!-- node17 -->
<g id="node18" class="node"><title>node17</title>
<ellipse fill="none" stroke="black" cx="981.082" cy="-158" rx="47.3916" ry="18"/>
<text text-anchor="middle" x="981.082" y="-154.3" font-family="Times New Roman,serif" font-size="14.00">(17) XOR</text>
</g>
<!-- node11&#45;&gt;node17 -->
<g id="edge23" class="edge"><title>node11&#45;&gt;node17</title>
<path fill="none" stroke="black" d="M870.31,-185.279C888.958,-180.645 911.456,-175.054 931.217,-170.143"/>
<polygon fill="black" stroke="black" points="932.105,-173.529 940.966,-167.721 930.417,-166.736 932.105,-173.529"/>
<text text-anchor="middle" x="905.637" y="-181.8" font-family="Times New Roman,serif" font-size="14.00"> (0)</text>
</g>
<!-- node14 -->
<g id="node15" class="node"><title>node14</title>
<ellipse fill="none" stroke="black" cx="718.599" cy="-323" rx="46.2923" ry="18"/>
<text text-anchor="middle" x="718.599" y="-319.3" font-family="Times New Roman,serif" font-size="14.00">(14) NEG</text>
</g>
<!-- node12&#45;&gt;node14 -->
<g id="edge18" class="edge"><title>node12&#45;&gt;node14</title>
<path fill="none" stroke="black" d="M235.39,-323C332.682,-323 557.499,-323 662.147,-323"/>
<polygon fill="black" stroke="black" points="662.193,-326.5 672.193,-323 662.193,-319.5 662.193,-326.5"/>
<text text-anchor="middle" x="403.322" y="-326.8" font-family="Times New Roman,serif" font-size="14.00"> (0)</text>
</g>
<!-- node13&#45;&gt;node15 -->
<g id="edge20" class="edge"><title>node13&#45;&gt;node15</title>
<path fill="none" stroke="black" d="M524.253,-177.954C534.926,-189.983 550.928,-205.307 568.661,-213 687.881,-264.721 844.516,-261.25 925.826,-254.814"/>
<polygon fill="black" stroke="black" points="926.164,-258.298 935.837,-253.976 925.58,-251.322 926.164,-258.298"/>
<text text-anchor="middle" x="718.599" y="-258.8" font-family="Times New Roman,serif" font-size="14.00"> (1)</text>
</g>
<!-- node13&#45;&gt;node17 -->
<g id="edge24" class="edge"><title>node13&#45;&gt;node17</title>
<path fill="none" stroke="black" d="M550.61,-159.455C556.657,-159.269 562.824,-159.108 568.661,-159 695.273,-156.662 843.84,-157.083 923.227,-157.562"/>
<polygon fill="black" stroke="black" points="923.472,-161.064 933.494,-157.627 923.516,-154.064 923.472,-161.064"/>
<text text-anchor="middle" x="718.599" y="-160.8" font-family="Times New Roman,serif" font-size="14.00"> (1)</text>
</g>
<!-- node16 -->
<g id="node17" class="node"><title>node16</title>
<ellipse fill="none" stroke="black" cx="1125.47" cy="-323" rx="40.8928" ry="18"/>
<text text-anchor="middle" x="1125.47" y="-319.3" font-family="Times New Roman,serif" font-size="14.00">(16) OR</text>
</g>
<!-- node14&#45;&gt;node16 -->
<g id="edge21" class="edge"><title>node14&#45;&gt;node16</title>
<path fill="none" stroke="black" d="M764.865,-323C841.093,-323 994.528,-323 1074.08,-323"/>
<polygon fill="black" stroke="black" points="1074.33,-326.5 1084.33,-323 1074.33,-319.5 1074.33,-326.5"/>
<text text-anchor="middle" x="905.637" y="-326.8" font-family="Times New Roman,serif" font-size="14.00"> (0)</text>
</g>
<!-- node15&#45;&gt;node16 -->
<g id="edge22" class="edge"><title>node15&#45;&gt;node16</title>
<path fill="none" stroke="black" d="M1009.88,-263.444C1032.55,-275.229 1064.73,-291.953 1089.22,-304.679"/>
<polygon fill="black" stroke="black" points="1087.71,-307.837 1098.19,-309.342 1090.94,-301.625 1087.71,-307.837"/>
<text text-anchor="middle" x="1056.53" y="-295.8" font-family="Times New Roman,serif" font-size="14.00"> (1)</text>
</g>
<!-- node19 -->
<g id="node20" class="node"><title>node19</title>
<ellipse fill="none" stroke="black" cx="1340.86" cy="-326" rx="46.2923" ry="18"/>
<text text-anchor="middle" x="1340.86" y="-322.3" font-family="Times New Roman,serif" font-size="14.00">(19) NEG</text>
</g>
<!-- node16&#45;&gt;node19 -->
<g id="edge26" class="edge"><title>node16&#45;&gt;node19</title>
<path fill="none" stroke="black" d="M1166.61,-323.564C1199.94,-324.033 1247.69,-324.704 1284.62,-325.223"/>
<polygon fill="black" stroke="black" points="1284.68,-328.725 1294.73,-325.366 1284.78,-321.725 1284.68,-328.725"/>
<text text-anchor="middle" x="1230.57" y="-328.8" font-family="Times New Roman,serif" font-size="14.00"> (0)</text>
</g>
<!-- node18 -->
<g id="node19" class="node"><title>node18</title>
<ellipse fill="none" stroke="black" cx="1230.57" cy="-158" rx="46.2923" ry="18"/>
<text text-anchor="middle" x="1230.57" y="-154.3" font-family="Times New Roman,serif" font-size="14.00">(18) NEG</text>
</g>
<!-- node17&#45;&gt;node18 -->
<g id="edge25" class="edge"><title>node17&#45;&gt;node18</title>
<path fill="none" stroke="black" d="M1028.63,-158C1069.85,-158 1130.1,-158 1173.87,-158"/>
<polygon fill="black" stroke="black" points="1174.06,-161.5 1184.06,-158 1174.06,-154.5 1174.06,-161.5"/>
<text text-anchor="middle" x="1056.53" y="-161.8" font-family="Times New Roman,serif" font-size="14.00"> (0)</text>
</g>
<!-- node22 -->
<g id="node23" class="node"><title>node22</title>
<ellipse fill="none" stroke="black" cx="1604.79" cy="-158" rx="42.7926" ry="18"/>
<text text-anchor="middle" x="1604.79" y="-154.3" font-family="Times New Roman,serif" font-size="14.00">Output 1</text>
</g>
<!-- node18&#45;&gt;node22 -->
<g id="edge30" class="edge"><title>node18&#45;&gt;node22</title>
<path fill="none" stroke="black" d="M1276.84,-158C1346.09,-158 1477.99,-158 1551.32,-158"/>
<polygon fill="black" stroke="black" points="1551.7,-161.5 1561.7,-158 1551.7,-154.5 1551.7,-161.5"/>
</g>
<!-- node19&#45;&gt;node20 -->
<g id="edge27" class="edge"><title>node19&#45;&gt;node20</title>
<path fill="none" stroke="black" d="M1381.25,-334.758C1395.1,-337.902 1410.76,-341.53 1425,-345 1429.38,-346.067 1433.94,-347.202 1438.49,-348.353"/>
<polygon fill="black" stroke="black" points="1437.81,-351.792 1448.37,-350.875 1439.54,-345.01 1437.81,-351.792"/>
<text text-anchor="middle" x="1415" y="-348.8" font-family="Times New Roman,serif" font-size="14.00"> (0)</text>
</g>
<!-- node23 -->
<g id="node24" class="node"><title>node23</title>
<ellipse fill="none" stroke="black" cx="1604.79" cy="-360" rx="42.7926" ry="18"/>
<text text-anchor="middle" x="1604.79" y="-356.3" font-family="Times New Roman,serif" font-size="14.00">Output 2</text>
</g>
<!-- node20&#45;&gt;node23 -->
<g id="edge31" class="edge"><title>node20&#45;&gt;node23</title>
<path fill="none" stroke="black" d="M1525.19,-360C1533.61,-360 1542.6,-360 1551.39,-360"/>
<polygon fill="black" stroke="black" points="1551.57,-363.5 1561.57,-360 1551.57,-356.5 1551.57,-363.5"/>
</g>
</g>
</svg>
