<?xml version="1.0" encoding="UTF-8" standalone="no"?>
<!DOCTYPE svg PUBLIC "-//W3C//DTD SVG 1.1//EN"
 "http://www.w3.org/Graphics/SVG/1.1/DTD/svg11.dtd">
<!-- Generated by graphviz version 2.38.0 (20140413.2041)
 -->
<!-- Title: NeuralNetwork Pages: 1 -->
<svg width="288pt" height="69pt"
 viewBox="0.00 0.00 288.00 69.01" xmlns="http://www.w3.org/2000/svg" xmlns:xlink="http://www.w3.org/1999/xlink">
<g id="graph0" class="graph" transform="scale(0.199444 0.199444) rotate(0) translate(4 342)">
<title>NeuralNetwork</title>
<polygon fill="white" stroke="none" points="-4,4 -4,-342 1440.01,-342 1440.01,4 -4,4"/>
<!-- node0 -->
<g id="node1" class="node"><title>node0</title>
<ellipse fill="none" stroke="black" cx="42.2463" cy="-111" rx="42.4939" ry="18"/>
<text text-anchor="middle" x="42.2463" y="-107.3" font-family="Times New Roman,serif" font-size="14.00">(0) Input</text>
</g>
<!-- node5 -->
<g id="node6" class="node"><title>node5</title>
<ellipse fill="none" stroke="black" cx="183.389" cy="-148" rx="42.7926" ry="18"/>
<text text-anchor="middle" x="183.389" y="-144.3" font-family="Times New Roman,serif" font-size="14.00">(5) XOR</text>
</g>
<!-- node0&#45;&gt;node5 -->
<g id="edge2" class="edge"><title>node0&#45;&gt;node5</title>
<path fill="none" stroke="black" d="M78.7178,-120.432C96.3264,-125.115 117.807,-130.827 136.639,-135.834"/>
<polygon fill="black" stroke="black" points="135.934,-139.269 146.498,-138.456 137.733,-132.504 135.934,-139.269"/>
<text text-anchor="middle" x="112.493" y="-134.8" font-family="Times New Roman,serif" font-size="14.00"> (1)</text>
</g>
<!-- node11 -->
<g id="node12" class="node"><title>node11</title>
<ellipse fill="none" stroke="black" cx="285.231" cy="-18" rx="40.8928" ry="18"/>
<text text-anchor="middle" x="285.231" y="-14.3" font-family="Times New Roman,serif" font-size="14.00">(11) OR</text>
</g>
<!-- node0&#45;&gt;node11 -->
<g id="edge14" class="edge"><title>node0&#45;&gt;node11</title>
<path fill="none" stroke="black" d="M64.9063,-95.5078C71.4293,-90.5004 78.4545,-84.7504 84.4925,-79 93.3943,-70.5224 93.4863,-66.3666 102.493,-58 117.862,-43.7217 120.853,-37.3737 140.493,-30 170.35,-18.7901 206.075,-15.764 234.44,-15.5533"/>
<polygon fill="black" stroke="black" points="234.519,-19.0535 244.533,-15.5931 234.547,-12.0536 234.519,-19.0535"/>
<text text-anchor="middle" x="112.493" y="-61.8" font-family="Times New Roman,serif" font-size="14.00"> (1)</text>
</g>
<!-- node1 -->
<g id="node2" class="node"><title>node1</title>
<ellipse fill="none" stroke="black" cx="42.2463" cy="-320" rx="42.4939" ry="18"/>
<text text-anchor="middle" x="42.2463" y="-316.3" font-family="Times New Roman,serif" font-size="14.00">(1) Input</text>
</g>
<!-- node7 -->
<g id="node8" class="node"><title>node7</title>
<ellipse fill="none" stroke="black" cx="183.389" cy="-314" rx="42.7926" ry="18"/>
<text text-anchor="middle" x="183.389" y="-310.3" font-family="Times New Roman,serif" font-size="14.00">(7) XOR</text>
</g>
<!-- node1&#45;&gt;node7 -->
<g id="edge6" class="edge"><title>node1&#45;&gt;node7</title>
<path fill="none" stroke="black" d="M84.6168,-318.216C98.9362,-317.599 115.174,-316.898 130.246,-316.248"/>
<polygon fill="black" stroke="black" points="130.616,-319.736 140.456,-315.808 130.314,-312.742 130.616,-319.736"/>
<text text-anchor="middle" x="112.493" y="-320.8" font-family="Times New Roman,serif" font-size="14.00"> (1)</text>
</g>
<!-- node9 -->
<g id="node10" class="node"><title>node9</title>
<ellipse fill="none" stroke="black" cx="669.359" cy="-256" rx="42.7926" ry="18"/>
<text text-anchor="middle" x="669.359" y="-252.3" font-family="Times New Roman,serif" font-size="14.00">(9) XOR</text>
</g>
<!-- node1&#45;&gt;node9 -->
<g id="edge9" class="edge"><title>node1&#45;&gt;node9</title>
<path fill="none" stroke="black" d="M61.4387,-303.868C72.5542,-294.876 87.4808,-284.26 102.493,-278 135.766,-264.125 146.338,-264 182.389,-264 182.389,-264 182.389,-264 529.216,-264 558.374,-264 590.912,-262.227 617.188,-260.351"/>
<polygon fill="black" stroke="black" points="617.584,-263.831 627.298,-259.602 617.067,-256.85 617.584,-263.831"/>
<text text-anchor="middle" x="387.074" y="-267.8" font-family="Times New Roman,serif" font-size="14.00"> (0)</text>
</g>
<!-- node2 -->
<g id="node3" class="node"><title>node2</title>
<ellipse fill="none" stroke="black" cx="42.2463" cy="-168" rx="42.4939" ry="18"/>
<text text-anchor="middle" x="42.2463" y="-164.3" font-family="Times New Roman,serif" font-size="14.00">(2) Input</text>
</g>
<!-- node2&#45;&gt;node5 -->
<g id="edge1" class="edge"><title>node2&#45;&gt;node5</title>
<path fill="none" stroke="black" d="M82.7467,-162.322C98.183,-160.104 116.065,-157.533 132.384,-155.188"/>
<polygon fill="black" stroke="black" points="132.906,-158.649 142.306,-153.761 131.91,-151.72 132.906,-158.649"/>
<text text-anchor="middle" x="112.493" y="-162.8" font-family="Times New Roman,serif" font-size="14.00"> (0)</text>
</g>
<!-- node2&#45;&gt;node11 -->
<g id="edge13" class="edge"><title>node2&#45;&gt;node11</title>
<path fill="none" stroke="black" d="M66.8539,-153.313C73.0093,-148.846 79.3512,-143.617 84.4925,-138 94.9908,-126.53 90.2126,-117.538 102.493,-108 147.843,-72.7741 176.327,-99.3152 226.285,-71 239.517,-63.5001 252.221,-52.4716 262.344,-42.4142"/>
<polygon fill="black" stroke="black" points="265.098,-44.602 269.549,-34.9871 260.074,-39.7282 265.098,-44.602"/>
<text text-anchor="middle" x="112.493" y="-111.8" font-family="Times New Roman,serif" font-size="14.00"> (0)</text>
</g>
<!-- node3 -->
<g id="node4" class="node"><title>node3</title>
<ellipse fill="none" stroke="black" cx="42.2463" cy="-251" rx="42.4939" ry="18"/>
<text text-anchor="middle" x="42.2463" y="-247.3" font-family="Times New Roman,serif" font-size="14.00">(3) Input</text>
</g>
<!-- node3&#45;&gt;node7 -->
<g id="edge5" class="edge"><title>node3&#45;&gt;node7</title>
<path fill="none" stroke="black" d="M71.7396,-263.901C92.7035,-273.393 121.42,-286.395 144.345,-296.775"/>
<polygon fill="black" stroke="black" points="142.902,-299.963 153.455,-300.9 145.789,-293.587 142.902,-299.963"/>
<text text-anchor="middle" x="112.493" y="-289.8" font-family="Times New Roman,serif" font-size="14.00"> (0)</text>
</g>
<!-- node10 -->
<g id="node11" class="node"><title>node10</title>
<ellipse fill="none" stroke="black" cx="815.701" cy="-201" rx="47.3916" ry="18"/>
<text text-anchor="middle" x="815.701" y="-197.3" font-family="Times New Roman,serif" font-size="14.00">(10) XOR</text>
</g>
<!-- node3&#45;&gt;node10 -->
<g id="edge11" class="edge"><title>node3&#45;&gt;node10</title>
<path fill="none" stroke="black" d="M67.4368,-236.538C94.4751,-221.771 140.035,-201 182.389,-201 182.389,-201 182.389,-201 670.359,-201 699.229,-201 731.347,-201 757.943,-201"/>
<polygon fill="black" stroke="black" points="758.222,-204.5 768.222,-201 758.222,-197.5 758.222,-204.5"/>
<text text-anchor="middle" x="457.97" y="-204.8" font-family="Times New Roman,serif" font-size="14.00"> (0)</text>
</g>
<!-- node4 -->
<g id="node5" class="node"><title>node4</title>
<ellipse fill="none" stroke="black" cx="42.2463" cy="-52" rx="42.4939" ry="18"/>
<text text-anchor="middle" x="42.2463" y="-48.3" font-family="Times New Roman,serif" font-size="14.00">(4) Input</text>
</g>
<!-- node6 -->
<g id="node7" class="node"><title>node6</title>
<ellipse fill="none" stroke="black" cx="387.074" cy="-102" rx="42.7926" ry="18"/>
<text text-anchor="middle" x="387.074" y="-98.3" font-family="Times New Roman,serif" font-size="14.00">(6) XOR</text>
</g>
<!-- node4&#45;&gt;node6 -->
<g id="edge4" class="edge"><title>node4&#45;&gt;node6</title>
<path fill="none" stroke="black" d="M82.5729,-57.7356C145.223,-66.8729 267.605,-84.7218 336.279,-94.7376"/>
<polygon fill="black" stroke="black" points="336.014,-98.236 346.415,-96.2159 337.025,-91.3093 336.014,-98.236"/>
<text text-anchor="middle" x="183.389" y="-81.8" font-family="Times New Roman,serif" font-size="14.00"> (1)</text>
</g>
<!-- node5&#45;&gt;node6 -->
<g id="edge3" class="edge"><title>node5&#45;&gt;node6</title>
<path fill="none" stroke="black" d="M215.488,-136.018C224.667,-132.776 234.797,-129.482 244.285,-127 274.305,-119.147 308.552,-113.031 335.867,-108.815"/>
<polygon fill="black" stroke="black" points="336.606,-112.243 345.973,-107.292 335.563,-105.321 336.606,-112.243"/>
<text text-anchor="middle" x="285.231" y="-130.8" font-family="Times New Roman,serif" font-size="14.00"> (0)</text>
</g>
<!-- node8 -->
<g id="node9" class="node"><title>node8</title>
<ellipse fill="none" stroke="black" cx="528.216" cy="-155" rx="42.4939" ry="18"/>
<text text-anchor="middle" x="528.216" y="-151.3" font-family="Times New Roman,serif" font-size="14.00">(8) AND</text>
</g>
<!-- node5&#45;&gt;node8 -->
<g id="edge7" class="edge"><title>node5&#45;&gt;node8</title>
<path fill="none" stroke="black" d="M226.426,-148.858C289.351,-150.143 407.887,-152.563 475.853,-153.951"/>
<polygon fill="black" stroke="black" points="475.836,-157.452 485.906,-154.157 475.979,-150.453 475.836,-157.452"/>
<text text-anchor="middle" x="387.074" y="-155.8" font-family="Times New Roman,serif" font-size="14.00"> (0)</text>
</g>
<!-- node6&#45;&gt;node8 -->
<g id="edge8" class="edge"><title>node6&#45;&gt;node8</title>
<path fill="none" stroke="black" d="M423.439,-111.918C437.455,-116.145 453.62,-121.395 467.97,-127 475.654,-130.002 483.739,-133.549 491.381,-137.093"/>
<polygon fill="black" stroke="black" points="489.89,-140.26 500.426,-141.376 492.886,-133.933 489.89,-140.26"/>
<text text-anchor="middle" x="457.97" y="-130.8" font-family="Times New Roman,serif" font-size="14.00"> (1)</text>
</g>
<!-- node18 -->
<g id="node19" class="node"><title>node18</title>
<ellipse fill="none" stroke="black" cx="1393.12" cy="-93" rx="42.7926" ry="18"/>
<text text-anchor="middle" x="1393.12" y="-89.3" font-family="Times New Roman,serif" font-size="14.00">Output 0</text>
</g>
<!-- node6&#45;&gt;node18 -->
<g id="edge25" class="edge"><title>node6&#45;&gt;node18</title>
<path fill="none" stroke="black" d="M429.125,-97.9476C456.809,-95.5588 494.173,-93 527.216,-93 527.216,-93 527.216,-93 1266.78,-93 1290.84,-93 1317.49,-93 1340.02,-93"/>
<polygon fill="black" stroke="black" points="1340.05,-96.5001 1350.05,-93 1340.05,-89.5001 1340.05,-96.5001"/>
</g>
<!-- node13 -->
<g id="node14" class="node"><title>node13</title>
<ellipse fill="none" stroke="black" cx="966.592" cy="-268" rx="40.8928" ry="18"/>
<text text-anchor="middle" x="966.592" y="-264.3" font-family="Times New Roman,serif" font-size="14.00">(13) OR</text>
</g>
<!-- node7&#45;&gt;node13 -->
<g id="edge16" class="edge"><title>node7&#45;&gt;node13</title>
<path fill="none" stroke="black" d="M226.494,-314C267.295,-314 330.926,-314 386.074,-314 386.074,-314 386.074,-314 816.701,-314 856.686,-314 900.127,-298.668 929.708,-285.708"/>
<polygon fill="black" stroke="black" points="931.51,-288.734 939.183,-281.429 928.629,-282.355 931.51,-288.734"/>
<text text-anchor="middle" x="598.463" y="-317.8" font-family="Times New Roman,serif" font-size="14.00"> (0)</text>
</g>
<!-- node8&#45;&gt;node9 -->
<g id="edge10" class="edge"><title>node8&#45;&gt;node9</title>
<path fill="none" stroke="black" d="M550.349,-170.34C573.948,-187.469 612.307,-215.314 638.856,-234.585"/>
<polygon fill="black" stroke="black" points="636.878,-237.474 647.027,-240.516 640.99,-231.809 636.878,-237.474"/>
<text text-anchor="middle" x="598.463" y="-214.8" font-family="Times New Roman,serif" font-size="14.00"> (1)</text>
</g>
<!-- node9&#45;&gt;node10 -->
<g id="edge12" class="edge"><title>node9&#45;&gt;node10</title>
<path fill="none" stroke="black" d="M701.679,-244.066C722.356,-236.187 749.703,-225.767 772.317,-217.15"/>
<polygon fill="black" stroke="black" points="773.588,-220.411 781.686,-213.58 771.095,-213.87 773.588,-220.411"/>
<text text-anchor="middle" x="740.255" y="-234.8" font-family="Times New Roman,serif" font-size="14.00"> (1)</text>
</g>
<!-- node12 -->
<g id="node13" class="node"><title>node12</title>
<ellipse fill="none" stroke="black" cx="815.701" cy="-268" rx="46.2923" ry="18"/>
<text text-anchor="middle" x="815.701" y="-264.3" font-family="Times New Roman,serif" font-size="14.00">(12) NEG</text>
</g>
<!-- node9&#45;&gt;node12 -->
<g id="edge15" class="edge"><title>node9&#45;&gt;node12</title>
<path fill="none" stroke="black" d="M711.721,-259.439C726.755,-260.689 743.985,-262.121 759.995,-263.452"/>
<polygon fill="black" stroke="black" points="760.049,-266.968 770.305,-264.309 760.629,-259.993 760.049,-266.968"/>
<text text-anchor="middle" x="740.255" y="-265.8" font-family="Times New Roman,serif" font-size="14.00"> (0)</text>
</g>
<!-- node14 -->
<g id="node15" class="node"><title>node14</title>
<ellipse fill="none" stroke="black" cx="966.592" cy="-28" rx="47.3916" ry="18"/>
<text text-anchor="middle" x="966.592" y="-24.3" font-family="Times New Roman,serif" font-size="14.00">(14) XOR</text>
</g>
<!-- node10&#45;&gt;node14 -->
<g id="edge19" class="edge"><title>node10&#45;&gt;node14</title>
<path fill="none" stroke="black" d="M831.521,-183.78C857.943,-153.08 913.281,-88.7818 943.957,-53.1386"/>
<polygon fill="black" stroke="black" points="946.961,-55.0133 950.832,-45.1507 941.656,-50.4471 946.961,-55.0133"/>
<text text-anchor="middle" x="891.146" y="-127.8" font-family="Times New Roman,serif" font-size="14.00"> (1)</text>
</g>
<!-- node15 -->
<g id="node16" class="node"><title>node15</title>
<ellipse fill="none" stroke="black" cx="966.592" cy="-202" rx="46.5926" ry="18"/>
<text text-anchor="middle" x="966.592" y="-198.3" font-family="Times New Roman,serif" font-size="14.00">(15) AND</text>
</g>
<!-- node10&#45;&gt;node15 -->
<g id="edge20" class="edge"><title>node10&#45;&gt;node15</title>
<path fill="none" stroke="black" d="M863.402,-201.314C877.954,-201.411 894.156,-201.52 909.292,-201.622"/>
<polygon fill="black" stroke="black" points="909.544,-205.124 919.567,-201.691 909.591,-198.124 909.544,-205.124"/>
<text text-anchor="middle" x="891.146" y="-204.8" font-family="Times New Roman,serif" font-size="14.00"> (0)</text>
</g>
<!-- node11&#45;&gt;node14 -->
<g id="edge18" class="edge"><title>node11&#45;&gt;node14</title>
<path fill="none" stroke="black" d="M326.249,-17.6333C360.85,-17.3479 412.21,-17 456.97,-17 456.97,-17 456.97,-17 816.701,-17 847.98,-17 882.856,-19.4444 910.987,-22.0287"/>
<polygon fill="black" stroke="black" points="910.74,-25.5209 921.027,-22.9828 911.403,-18.5523 910.74,-25.5209"/>
<text text-anchor="middle" x="598.463" y="-20.8" font-family="Times New Roman,serif" font-size="14.00"> (0)</text>
</g>
<!-- node11&#45;&gt;node15 -->
<g id="edge21" class="edge"><title>node11&#45;&gt;node15</title>
<path fill="none" stroke="black" d="M321.423,-26.7222C328.921,-28.519 336.802,-30.3615 344.178,-32 590.751,-86.7797 675.061,-32.3754 901.146,-145 917.159,-152.977 932.294,-165.965 943.868,-177.531"/>
<polygon fill="black" stroke="black" points="941.473,-180.089 950.934,-184.858 946.512,-175.23 941.473,-180.089"/>
<text text-anchor="middle" x="598.463" y="-67.8" font-family="Times New Roman,serif" font-size="14.00"> (1)</text>
</g>
<!-- node12&#45;&gt;node13 -->
<g id="edge17" class="edge"><title>node12&#45;&gt;node13</title>
<path fill="none" stroke="black" d="M862.182,-268C878.896,-268 897.917,-268 915.049,-268"/>
<polygon fill="black" stroke="black" points="915.435,-271.5 925.435,-268 915.435,-264.5 915.435,-271.5"/>
<text text-anchor="middle" x="891.146" y="-271.8" font-family="Times New Roman,serif" font-size="14.00"> (1)</text>
</g>
<!-- node16 -->
<g id="node17" class="node"><title>node16</title>
<ellipse fill="none" stroke="black" cx="1116.18" cy="-259" rx="46.2923" ry="18"/>
<text text-anchor="middle" x="1116.18" y="-255.3" font-family="Times New Roman,serif" font-size="14.00">(16) NEG</text>
</g>
<!-- node13&#45;&gt;node16 -->
<g id="edge22" class="edge"><title>node13&#45;&gt;node16</title>
<path fill="none" stroke="black" d="M1007.53,-265.564C1023.8,-264.572 1042.88,-263.409 1060.41,-262.34"/>
<polygon fill="black" stroke="black" points="1060.76,-265.825 1070.53,-261.723 1060.33,-258.838 1060.76,-265.825"/>
<text text-anchor="middle" x="1042.04" y="-267.8" font-family="Times New Roman,serif" font-size="14.00"> (0)</text>
</g>
<!-- node19 -->
<g id="node20" class="node"><title>node19</title>
<ellipse fill="none" stroke="black" cx="1393.12" cy="-28" rx="42.7926" ry="18"/>
<text text-anchor="middle" x="1393.12" y="-24.3" font-family="Times New Roman,serif" font-size="14.00">Output 1</text>
</g>
<!-- node14&#45;&gt;node19 -->
<g id="edge26" class="edge"><title>node14&#45;&gt;node19</title>
<path fill="none" stroke="black" d="M1014.24,-28C1094.15,-28 1256.68,-28 1340.12,-28"/>
<polygon fill="black" stroke="black" points="1340.14,-31.5001 1350.14,-28 1340.14,-24.5001 1340.14,-31.5001"/>
</g>
<!-- node17 -->
<g id="node18" class="node"><title>node17</title>
<ellipse fill="none" stroke="black" cx="1265.78" cy="-222" rx="47.3916" ry="18"/>
<text text-anchor="middle" x="1265.78" y="-218.3" font-family="Times New Roman,serif" font-size="14.00">(17) XOR</text>
</g>
<!-- node15&#45;&gt;node17 -->
<g id="edge23" class="edge"><title>node15&#45;&gt;node17</title>
<path fill="none" stroke="black" d="M1012.73,-205.038C1065.16,-208.566 1151.71,-214.391 1208.49,-218.212"/>
<polygon fill="black" stroke="black" points="1208.51,-221.721 1218.73,-218.901 1208.98,-214.737 1208.51,-221.721"/>
<text text-anchor="middle" x="1116.18" y="-217.8" font-family="Times New Roman,serif" font-size="14.00"> (0)</text>
</g>
<!-- node16&#45;&gt;node17 -->
<g id="edge24" class="edge"><title>node16&#45;&gt;node17</title>
<path fill="none" stroke="black" d="M1155.58,-249.375C1174.06,-244.741 1196.43,-239.133 1216.1,-234.203"/>
<polygon fill="black" stroke="black" points="1216.96,-237.596 1225.81,-231.77 1215.25,-230.806 1216.96,-237.596"/>
<text text-anchor="middle" x="1190.33" y="-245.8" font-family="Times New Roman,serif" font-size="14.00"> (1)</text>
</g>
<!-- node20 -->
<g id="node21" class="node"><title>node20</title>
<ellipse fill="none" stroke="black" cx="1393.12" cy="-222" rx="42.7926" ry="18"/>
<text text-anchor="middle" x="1393.12" y="-218.3" font-family="Times New Roman,serif" font-size="14.00">Output 2</text>
</g>
<!-- node17&#45;&gt;node20 -->
<g id="edge27" class="edge"><title>node17&#45;&gt;node20</title>
<path fill="none" stroke="black" d="M1313.45,-222C1322.05,-222 1331.09,-222 1339.85,-222"/>
<polygon fill="black" stroke="black" points="1339.96,-225.5 1349.96,-222 1339.96,-218.5 1339.96,-225.5"/>
</g>
</g>
</svg>
