<?xml version="1.0" encoding="UTF-8" standalone="no"?>
<!DOCTYPE svg PUBLIC "-//W3C//DTD SVG 1.1//EN"
 "http://www.w3.org/Graphics/SVG/1.1/DTD/svg11.dtd">
<!-- Generated by graphviz version 2.38.0 (20140413.2041)
 -->
<!-- Title: NeuralNetwork Pages: 1 -->
<svg width="288pt" height="107pt"
 viewBox="0.00 0.00 288.00 106.93" xmlns="http://www.w3.org/2000/svg" xmlns:xlink="http://www.w3.org/1999/xlink">
<g id="graph0" class="graph" transform="scale(0.264672 0.264672) rotate(0) translate(4 400)">
<title>NeuralNetwork</title>
<polygon fill="white" stroke="none" points="-4,4 -4,-400 1084.14,-400 1084.14,4 -4,4"/>
<!-- node0 -->
<g id="node1" class="node"><title>node0</title>
<ellipse fill="none" stroke="black" cx="42.2463" cy="-18" rx="42.4939" ry="18"/>
<text text-anchor="middle" x="42.2463" y="-14.3" font-family="Times New Roman,serif" font-size="14.00">(0) Input</text>
</g>
<!-- node5 -->
<g id="node6" class="node"><title>node5</title>
<ellipse fill="none" stroke="black" cx="183.389" cy="-101" rx="42.7926" ry="18"/>
<text text-anchor="middle" x="183.389" y="-97.3" font-family="Times New Roman,serif" font-size="14.00">(5) XOR</text>
</g>
<!-- node0&#45;&gt;node5 -->
<g id="edge1" class="edge"><title>node0&#45;&gt;node5</title>
<path fill="none" stroke="black" d="M67.483,-32.4575C90.0897,-45.9426 124.008,-66.1752 149.139,-81.1661"/>
<polygon fill="black" stroke="black" points="147.582,-84.3126 157.963,-86.4297 151.168,-78.3009 147.582,-84.3126"/>
<text text-anchor="middle" x="112.493" y="-67.8" font-family="Times New Roman,serif" font-size="14.00"> (0)</text>
</g>
<!-- node1 -->
<g id="node2" class="node"><title>node1</title>
<ellipse fill="none" stroke="black" cx="42.2463" cy="-337" rx="42.4939" ry="18"/>
<text text-anchor="middle" x="42.2463" y="-333.3" font-family="Times New Roman,serif" font-size="14.00">(1) Input</text>
</g>
<!-- node12 -->
<g id="node13" class="node"><title>node12</title>
<ellipse fill="none" stroke="black" cx="766.807" cy="-272" rx="40.8928" ry="18"/>
<text text-anchor="middle" x="766.807" y="-268.3" font-family="Times New Roman,serif" font-size="14.00">(12) OR</text>
</g>
<!-- node1&#45;&gt;node12 -->
<g id="edge14" class="edge"><title>node1&#45;&gt;node12</title>
<path fill="none" stroke="black" d="M80.5585,-329.107C108.469,-323.887 147.646,-318 182.389,-318 182.389,-318 182.389,-318 623.415,-318 661.576,-318 702.826,-302.854 731.056,-289.944"/>
<polygon fill="black" stroke="black" points="732.554,-293.107 740.106,-285.677 729.569,-286.776 732.554,-293.107"/>
<text text-anchor="middle" x="405.176" y="-321.8" font-family="Times New Roman,serif" font-size="14.00"> (0)</text>
</g>
<!-- node14 -->
<g id="node15" class="node"><title>node14</title>
<ellipse fill="none" stroke="black" cx="622.415" cy="-372" rx="47.3916" ry="18"/>
<text text-anchor="middle" x="622.415" y="-368.3" font-family="Times New Roman,serif" font-size="14.00">(14) XOR</text>
</g>
<!-- node1&#45;&gt;node14 -->
<g id="edge19" class="edge"><title>node1&#45;&gt;node14</title>
<path fill="none" stroke="black" d="M69.9132,-350.801C97.3569,-363.705 141.725,-381 182.389,-381 182.389,-381 182.389,-381 477.073,-381 506.572,-381 539.397,-379.104 566.282,-377.053"/>
<polygon fill="black" stroke="black" points="566.583,-380.54 576.276,-376.263 566.031,-373.562 566.583,-380.54"/>
<text text-anchor="middle" x="329.731" y="-384.8" font-family="Times New Roman,serif" font-size="14.00"> (1)</text>
</g>
<!-- node2 -->
<g id="node3" class="node"><title>node2</title>
<ellipse fill="none" stroke="black" cx="42.2463" cy="-77" rx="42.4939" ry="18"/>
<text text-anchor="middle" x="42.2463" y="-73.3" font-family="Times New Roman,serif" font-size="14.00">(2) Input</text>
</g>
<!-- node6 -->
<g id="node7" class="node"><title>node6</title>
<ellipse fill="none" stroke="black" cx="183.389" cy="-156" rx="42.7926" ry="18"/>
<text text-anchor="middle" x="183.389" y="-152.3" font-family="Times New Roman,serif" font-size="14.00">(6) XOR</text>
</g>
<!-- node2&#45;&gt;node6 -->
<g id="edge3" class="edge"><title>node2&#45;&gt;node6</title>
<path fill="none" stroke="black" d="M79.5479,-85.8066C93.7752,-90.3619 109.716,-96.9181 122.493,-106 132.79,-113.319 131.138,-119.508 140.493,-128 143.397,-130.637 146.57,-133.209 149.828,-135.659"/>
<polygon fill="black" stroke="black" points="147.816,-138.523 157.996,-141.461 151.87,-132.816 147.816,-138.523"/>
<text text-anchor="middle" x="112.493" y="-109.8" font-family="Times New Roman,serif" font-size="14.00"> (0)</text>
</g>
<!-- node15 -->
<g id="node16" class="node"><title>node15</title>
<ellipse fill="none" stroke="black" cx="329.731" cy="-65" rx="47.3916" ry="18"/>
<text text-anchor="middle" x="329.731" y="-61.3" font-family="Times New Roman,serif" font-size="14.00">(15) XOR</text>
</g>
<!-- node2&#45;&gt;node15 -->
<g id="edge21" class="edge"><title>node2&#45;&gt;node15</title>
<path fill="none" stroke="black" d="M79.9674,-68.5615C98.0794,-64.8205 120.317,-60.8515 140.493,-59 185.135,-54.9032 235.954,-56.9158 273.528,-59.6689"/>
<polygon fill="black" stroke="black" points="273.518,-63.1785 283.758,-60.4605 274.058,-56.1993 273.518,-63.1785"/>
<text text-anchor="middle" x="183.389" y="-62.8" font-family="Times New Roman,serif" font-size="14.00"> (1)</text>
</g>
<!-- node3 -->
<g id="node4" class="node"><title>node3</title>
<ellipse fill="none" stroke="black" cx="42.2463" cy="-260" rx="42.4939" ry="18"/>
<text text-anchor="middle" x="42.2463" y="-256.3" font-family="Times New Roman,serif" font-size="14.00">(3) Input</text>
</g>
<!-- node7 -->
<g id="node8" class="node"><title>node7</title>
<ellipse fill="none" stroke="black" cx="183.389" cy="-271" rx="42.7926" ry="18"/>
<text text-anchor="middle" x="183.389" y="-267.3" font-family="Times New Roman,serif" font-size="14.00">(7) XOR</text>
</g>
<!-- node3&#45;&gt;node7 -->
<g id="edge6" class="edge"><title>node3&#45;&gt;node7</title>
<path fill="none" stroke="black" d="M83.8661,-263.211C98.6055,-264.376 115.455,-265.709 131.002,-266.938"/>
<polygon fill="black" stroke="black" points="130.75,-270.428 140.995,-267.728 131.302,-263.45 130.75,-270.428"/>
<text text-anchor="middle" x="112.493" y="-269.8" font-family="Times New Roman,serif" font-size="14.00"> (1)</text>
</g>
<!-- node10 -->
<g id="node11" class="node"><title>node10</title>
<ellipse fill="none" stroke="black" cx="622.415" cy="-218" rx="40.8928" ry="18"/>
<text text-anchor="middle" x="622.415" y="-214.3" font-family="Times New Roman,serif" font-size="14.00">(10) OR</text>
</g>
<!-- node3&#45;&gt;node10 -->
<g id="edge12" class="edge"><title>node3&#45;&gt;node10</title>
<path fill="none" stroke="black" d="M60.5459,-243.734C71.6899,-234.171 86.9562,-222.681 102.493,-216 135.611,-201.758 146.338,-202 182.389,-202 182.389,-202 182.389,-202 477.073,-202 509.633,-202 546.074,-206.072 574.195,-210.107"/>
<polygon fill="black" stroke="black" points="573.751,-213.579 584.156,-211.584 574.778,-206.655 573.751,-213.579"/>
<text text-anchor="middle" x="329.731" y="-205.8" font-family="Times New Roman,serif" font-size="14.00"> (1)</text>
</g>
<!-- node4 -->
<g id="node5" class="node"><title>node4</title>
<ellipse fill="none" stroke="black" cx="42.2463" cy="-157" rx="42.4939" ry="18"/>
<text text-anchor="middle" x="42.2463" y="-153.3" font-family="Times New Roman,serif" font-size="14.00">(4) Input</text>
</g>
<!-- node4&#45;&gt;node5 -->
<g id="edge2" class="edge"><title>node4&#45;&gt;node5</title>
<path fill="none" stroke="black" d="M73.4381,-144.849C93.6292,-136.723 120.419,-125.941 142.38,-117.102"/>
<polygon fill="black" stroke="black" points="143.805,-120.301 151.775,-113.321 141.192,-113.808 143.805,-120.301"/>
<text text-anchor="middle" x="112.493" y="-135.8" font-family="Times New Roman,serif" font-size="14.00"> (1)</text>
</g>
<!-- node4&#45;&gt;node6 -->
<g id="edge4" class="edge"><title>node4&#45;&gt;node6</title>
<path fill="none" stroke="black" d="M84.6168,-156.703C98.9362,-156.6 115.174,-156.483 130.246,-156.375"/>
<polygon fill="black" stroke="black" points="130.481,-159.873 140.456,-156.301 130.431,-152.873 130.481,-159.873"/>
<text text-anchor="middle" x="112.493" y="-159.8" font-family="Times New Roman,serif" font-size="14.00"> (1)</text>
</g>
<!-- node4&#45;&gt;node7 -->
<g id="edge5" class="edge"><title>node4&#45;&gt;node7</title>
<path fill="none" stroke="black" d="M62.5934,-172.851C86.5494,-192.478 127.517,-226.044 154.773,-248.374"/>
<polygon fill="black" stroke="black" points="152.804,-251.286 162.757,-254.916 157.24,-245.871 152.804,-251.286"/>
<text text-anchor="middle" x="112.493" y="-223.8" font-family="Times New Roman,serif" font-size="14.00"> (0)</text>
</g>
<!-- node8 -->
<g id="node9" class="node"><title>node8</title>
<ellipse fill="none" stroke="black" cx="329.731" cy="-148" rx="42.4939" ry="18"/>
<text text-anchor="middle" x="329.731" y="-144.3" font-family="Times New Roman,serif" font-size="14.00">(8) AND</text>
</g>
<!-- node5&#45;&gt;node8 -->
<g id="edge7" class="edge"><title>node5&#45;&gt;node8</title>
<path fill="none" stroke="black" d="M217.866,-111.901C238.088,-118.485 264.064,-126.944 285.788,-134.017"/>
<polygon fill="black" stroke="black" points="284.842,-137.39 295.434,-137.158 287.01,-130.734 284.842,-137.39"/>
<text text-anchor="middle" x="254.285" y="-128.8" font-family="Times New Roman,serif" font-size="14.00"> (0)</text>
</g>
<!-- node5&#45;&gt;node15 -->
<g id="edge20" class="edge"><title>node5&#45;&gt;node15</title>
<path fill="none" stroke="black" d="M217.468,-89.8008C226.14,-87.0595 235.518,-84.2657 244.285,-82 254.599,-79.3343 265.712,-76.8359 276.38,-74.618"/>
<polygon fill="black" stroke="black" points="277.325,-77.9975 286.431,-72.5812 275.935,-71.137 277.325,-77.9975"/>
<text text-anchor="middle" x="254.285" y="-85.8" font-family="Times New Roman,serif" font-size="14.00"> (0)</text>
</g>
<!-- node6&#45;&gt;node8 -->
<g id="edge8" class="edge"><title>node6&#45;&gt;node8</title>
<path fill="none" stroke="black" d="M226.138,-153.686C242.135,-152.799 260.572,-151.778 277.366,-150.847"/>
<polygon fill="black" stroke="black" points="277.782,-154.329 287.573,-150.281 277.395,-147.34 277.782,-154.329"/>
<text text-anchor="middle" x="254.285" y="-155.8" font-family="Times New Roman,serif" font-size="14.00"> (1)</text>
</g>
<!-- node9 -->
<g id="node10" class="node"><title>node9</title>
<ellipse fill="none" stroke="black" cx="476.073" cy="-271" rx="42.7926" ry="18"/>
<text text-anchor="middle" x="476.073" y="-267.3" font-family="Times New Roman,serif" font-size="14.00">(9) XOR</text>
</g>
<!-- node7&#45;&gt;node9 -->
<g id="edge9" class="edge"><title>node7&#45;&gt;node9</title>
<path fill="none" stroke="black" d="M226.346,-271C278.299,-271 366.791,-271 423.02,-271"/>
<polygon fill="black" stroke="black" points="423.128,-274.5 433.128,-271 423.128,-267.5 423.128,-274.5"/>
<text text-anchor="middle" x="329.731" y="-274.8" font-family="Times New Roman,serif" font-size="14.00"> (0)</text>
</g>
<!-- node8&#45;&gt;node9 -->
<g id="edge10" class="edge"><title>node8&#45;&gt;node9</title>
<path fill="none" stroke="black" d="M353.888,-162.982C361.479,-168.147 369.844,-174.118 377.176,-180 403.861,-201.407 432.279,-228.339 451.583,-247.332"/>
<polygon fill="black" stroke="black" points="449.196,-249.893 458.763,-254.444 454.122,-244.92 449.196,-249.893"/>
<text text-anchor="middle" x="405.176" y="-216.8" font-family="Times New Roman,serif" font-size="14.00"> (1)</text>
</g>
<!-- node9&#45;&gt;node10 -->
<g id="edge11" class="edge"><title>node9&#45;&gt;node10</title>
<path fill="none" stroke="black" d="M509.107,-259.238C530.233,-251.481 558.086,-241.253 580.769,-232.924"/>
<polygon fill="black" stroke="black" points="582.28,-236.098 590.461,-229.366 579.867,-229.527 582.28,-236.098"/>
<text text-anchor="middle" x="546.969" y="-250.8" font-family="Times New Roman,serif" font-size="14.00"> (0)</text>
</g>
<!-- node11 -->
<g id="node12" class="node"><title>node11</title>
<ellipse fill="none" stroke="black" cx="622.415" cy="-272" rx="46.2923" ry="18"/>
<text text-anchor="middle" x="622.415" y="-268.3" font-family="Times New Roman,serif" font-size="14.00">(11) NEG</text>
</g>
<!-- node9&#45;&gt;node11 -->
<g id="edge13" class="edge"><title>node9&#45;&gt;node11</title>
<path fill="none" stroke="black" d="M519.21,-271.292C533.886,-271.394 550.579,-271.509 566.157,-271.617"/>
<polygon fill="black" stroke="black" points="566.177,-275.117 576.201,-271.687 566.226,-268.117 566.177,-275.117"/>
<text text-anchor="middle" x="546.969" y="-274.8" font-family="Times New Roman,serif" font-size="14.00"> (0)</text>
</g>
<!-- node9&#45;&gt;node14 -->
<g id="edge18" class="edge"><title>node9&#45;&gt;node14</title>
<path fill="none" stroke="black" d="M498.995,-286.34C523.333,-303.37 562.806,-330.99 590.328,-350.248"/>
<polygon fill="black" stroke="black" points="588.609,-353.317 598.809,-356.182 592.622,-347.581 588.609,-353.317"/>
<text text-anchor="middle" x="546.969" y="-327.8" font-family="Times New Roman,serif" font-size="14.00"> (0)</text>
</g>
<!-- node13 -->
<g id="node14" class="node"><title>node13</title>
<ellipse fill="none" stroke="black" cx="910.549" cy="-237" rx="46.5926" ry="18"/>
<text text-anchor="middle" x="910.549" y="-233.3" font-family="Times New Roman,serif" font-size="14.00">(13) AND</text>
</g>
<!-- node10&#45;&gt;node13 -->
<g id="edge16" class="edge"><title>node10&#45;&gt;node13</title>
<path fill="none" stroke="black" d="M662.972,-220.533C700.302,-222.934 757.834,-226.659 807.753,-230 822.832,-231.009 839.166,-232.123 854.244,-233.16"/>
<polygon fill="black" stroke="black" points="854.234,-236.668 864.451,-233.863 854.715,-229.684 854.234,-236.668"/>
<text text-anchor="middle" x="766.807" y="-233.8" font-family="Times New Roman,serif" font-size="14.00"> (0)</text>
</g>
<!-- node11&#45;&gt;node12 -->
<g id="edge15" class="edge"><title>node11&#45;&gt;node12</title>
<path fill="none" stroke="black" d="M668.86,-272C683.673,-272 700.205,-272 715.362,-272"/>
<polygon fill="black" stroke="black" points="715.598,-275.5 725.598,-272 715.598,-268.5 715.598,-275.5"/>
<text text-anchor="middle" x="697.86" y="-275.8" font-family="Times New Roman,serif" font-size="14.00"> (1)</text>
</g>
<!-- node12&#45;&gt;node13 -->
<g id="edge17" class="edge"><title>node12&#45;&gt;node13</title>
<path fill="none" stroke="black" d="M802.844,-263.348C820.367,-259.021 841.856,-253.715 860.945,-249.002"/>
<polygon fill="black" stroke="black" points="861.806,-252.394 870.675,-246.599 860.128,-245.598 861.806,-252.394"/>
<text text-anchor="middle" x="835.753" y="-260.8" font-family="Times New Roman,serif" font-size="14.00"> (1)</text>
</g>
<!-- node18 -->
<g id="node19" class="node"><title>node18</title>
<ellipse fill="none" stroke="black" cx="1037.24" cy="-237" rx="42.7926" ry="18"/>
<text text-anchor="middle" x="1037.24" y="-233.3" font-family="Times New Roman,serif" font-size="14.00">Output 2</text>
</g>
<!-- node13&#45;&gt;node18 -->
<g id="edge24" class="edge"><title>node13&#45;&gt;node18</title>
<path fill="none" stroke="black" d="M957.625,-237C966.202,-237 975.22,-237 983.967,-237"/>
<polygon fill="black" stroke="black" points="984.067,-240.5 994.067,-237 984.067,-233.5 984.067,-240.5"/>
</g>
<!-- node17 -->
<g id="node18" class="node"><title>node17</title>
<ellipse fill="none" stroke="black" cx="1037.24" cy="-372" rx="42.7926" ry="18"/>
<text text-anchor="middle" x="1037.24" y="-368.3" font-family="Times New Roman,serif" font-size="14.00">Output 1</text>
</g>
<!-- node14&#45;&gt;node17 -->
<g id="edge23" class="edge"><title>node14&#45;&gt;node17</title>
<path fill="none" stroke="black" d="M669.969,-372C747.463,-372 902.414,-372 983.703,-372"/>
<polygon fill="black" stroke="black" points="984.194,-375.5 994.194,-372 984.193,-368.5 984.194,-375.5"/>
</g>
<!-- node16 -->
<g id="node17" class="node"><title>node16</title>
<ellipse fill="none" stroke="black" cx="1037.24" cy="-65" rx="42.7926" ry="18"/>
<text text-anchor="middle" x="1037.24" y="-61.3" font-family="Times New Roman,serif" font-size="14.00">Output 0</text>
</g>
<!-- node15&#45;&gt;node16 -->
<g id="edge22" class="edge"><title>node15&#45;&gt;node16</title>
<path fill="none" stroke="black" d="M377.209,-65C405.5,-65 442.37,-65 475.073,-65 475.073,-65 475.073,-65 911.549,-65 935.283,-65 961.558,-65 983.845,-65"/>
<polygon fill="black" stroke="black" points="984.108,-68.5001 994.108,-65 984.107,-61.5001 984.108,-68.5001"/>
</g>
</g>
</svg>
