<?xml version="1.0" encoding="UTF-8" standalone="no"?>
<!DOCTYPE svg PUBLIC "-//W3C//DTD SVG 1.1//EN"
 "http://www.w3.org/Graphics/SVG/1.1/DTD/svg11.dtd">
<!-- Generated by graphviz version 2.38.0 (20140413.2041)
 -->
<!-- Title: NeuralNetwork Pages: 1 -->
<svg width="288pt" height="151pt"
 viewBox="0.00 0.00 288.00 151.01" xmlns="http://www.w3.org/2000/svg" xmlns:xlink="http://www.w3.org/1999/xlink">
<g id="graph0" class="graph" transform="scale(0.193352 0.193352) rotate(0) translate(4 777)">
<title>NeuralNetwork</title>
<polygon fill="white" stroke="none" points="-4,4 -4,-777 1485.51,-777 1485.51,4 -4,4"/>
<!-- node0 -->
<g id="node1" class="node"><title>node0</title>
<ellipse fill="none" stroke="black" cx="42.2463" cy="-651" rx="42.4939" ry="18"/>
<text text-anchor="middle" x="42.2463" y="-647.3" font-family="Times New Roman,serif" font-size="14.00">(0) Input</text>
</g>
<!-- node6 -->
<g id="node7" class="node"><title>node6</title>
<ellipse fill="none" stroke="black" cx="187.288" cy="-499" rx="42.4939" ry="18"/>
<text text-anchor="middle" x="187.288" y="-495.3" font-family="Times New Roman,serif" font-size="14.00">(6) AND</text>
</g>
<!-- node0&#45;&gt;node6 -->
<g id="edge1" class="edge"><title>node0&#45;&gt;node6</title>
<path fill="none" stroke="black" d="M61.017,-634.441C69.427,-625.611 78.843,-614.089 84.4925,-602 103.983,-560.296 67.4037,-529.797 102.493,-500 112.832,-491.22 126.755,-488.702 140.28,-489.051"/>
<polygon fill="black" stroke="black" points="140.244,-492.558 150.479,-489.819 140.77,-485.577 140.244,-492.558"/>
<text text-anchor="middle" x="112.493" y="-503.8" font-family="Times New Roman,serif" font-size="14.00"> (0)</text>
</g>
<!-- node10 -->
<g id="node11" class="node"><title>node10</title>
<ellipse fill="none" stroke="black" cx="187.288" cy="-686" rx="46.5926" ry="18"/>
<text text-anchor="middle" x="187.288" y="-682.3" font-family="Times New Roman,serif" font-size="14.00">(10) AND</text>
</g>
<!-- node0&#45;&gt;node10 -->
<g id="edge10" class="edge"><title>node0&#45;&gt;node10</title>
<path fill="none" stroke="black" d="M79.3418,-659.832C97.0319,-664.16 118.59,-669.435 137.704,-674.112"/>
<polygon fill="black" stroke="black" points="136.898,-677.518 147.444,-676.495 138.562,-670.719 136.898,-677.518"/>
<text text-anchor="middle" x="112.493" y="-672.8" font-family="Times New Roman,serif" font-size="14.00"> (1)</text>
</g>
<!-- node15 -->
<g id="node16" class="node"><title>node15</title>
<ellipse fill="none" stroke="black" cx="187.288" cy="-632" rx="46.5926" ry="18"/>
<text text-anchor="middle" x="187.288" y="-628.3" font-family="Times New Roman,serif" font-size="14.00">(15) AND</text>
</g>
<!-- node0&#45;&gt;node15 -->
<g id="edge19" class="edge"><title>node0&#45;&gt;node15</title>
<path fill="none" stroke="black" d="M82.7118,-645.758C98.1886,-643.702 116.19,-641.311 132.803,-639.104"/>
<polygon fill="black" stroke="black" points="133.481,-642.545 142.933,-637.759 132.559,-635.606 133.481,-642.545"/>
<text text-anchor="middle" x="112.493" y="-645.8" font-family="Times New Roman,serif" font-size="14.00"> (0)</text>
</g>
<!-- node1 -->
<g id="node2" class="node"><title>node1</title>
<ellipse fill="none" stroke="black" cx="42.2463" cy="-60" rx="42.4939" ry="18"/>
<text text-anchor="middle" x="42.2463" y="-56.3" font-family="Times New Roman,serif" font-size="14.00">(1) Input</text>
</g>
<!-- node7 -->
<g id="node8" class="node"><title>node7</title>
<ellipse fill="none" stroke="black" cx="187.288" cy="-259" rx="42.4939" ry="18"/>
<text text-anchor="middle" x="187.288" y="-255.3" font-family="Times New Roman,serif" font-size="14.00">(7) AND</text>
</g>
<!-- node1&#45;&gt;node7 -->
<g id="edge4" class="edge"><title>node1&#45;&gt;node7</title>
<path fill="none" stroke="black" d="M69.8357,-73.6486C75.2542,-77.3903 80.5081,-81.8587 84.4925,-87 99.7311,-106.663 91.2159,-117.826 102.493,-140 120.14,-174.703 146.899,-210.74 165.409,-233.934"/>
<polygon fill="black" stroke="black" points="162.816,-236.293 171.824,-241.872 168.261,-231.894 162.816,-236.293"/>
<text text-anchor="middle" x="112.493" y="-177.8" font-family="Times New Roman,serif" font-size="14.00"> (1)</text>
</g>
<!-- node9 -->
<g id="node10" class="node"><title>node9</title>
<ellipse fill="none" stroke="black" cx="187.288" cy="-382" rx="42.4939" ry="18"/>
<text text-anchor="middle" x="187.288" y="-378.3" font-family="Times New Roman,serif" font-size="14.00">(9) AND</text>
</g>
<!-- node1&#45;&gt;node9 -->
<g id="edge8" class="edge"><title>node1&#45;&gt;node9</title>
<path fill="none" stroke="black" d="M70.8853,-73.5018C76.1133,-77.2099 81.0233,-81.7013 84.4925,-87 110.668,-126.979 88.4889,-147.312 102.493,-193 108.788,-213.538 116.303,-216.43 122.493,-237 137.147,-285.698 113.503,-306.897 140.493,-350 143.316,-354.509 147.031,-358.554 151.127,-362.128"/>
<polygon fill="black" stroke="black" points="149.27,-365.115 159.337,-368.417 153.527,-359.558 149.27,-365.115"/>
<text text-anchor="middle" x="112.493" y="-240.8" font-family="Times New Roman,serif" font-size="14.00"> (1)</text>
</g>
<!-- node34 -->
<g id="node35" class="node"><title>node34</title>
<ellipse fill="none" stroke="black" cx="411.122" cy="-18" rx="47.3916" ry="18"/>
<text text-anchor="middle" x="411.122" y="-14.3" font-family="Times New Roman,serif" font-size="14.00">(34) XOR</text>
</g>
<!-- node1&#45;&gt;node34 -->
<g id="edge56" class="edge"><title>node1&#45;&gt;node34</title>
<path fill="none" stroke="black" d="M74.2834,-48.2061C93.1386,-41.6027 117.862,-33.9278 140.493,-30 213.14,-17.3909 298.352,-15.749 353.234,-16.3557"/>
<polygon fill="black" stroke="black" points="353.408,-19.8584 363.456,-16.4987 353.506,-12.8591 353.408,-19.8584"/>
<text text-anchor="middle" x="187.288" y="-33.8" font-family="Times New Roman,serif" font-size="14.00"> (1)</text>
</g>
<!-- node2 -->
<g id="node3" class="node"><title>node2</title>
<ellipse fill="none" stroke="black" cx="42.2463" cy="-192" rx="42.4939" ry="18"/>
<text text-anchor="middle" x="42.2463" y="-188.3" font-family="Times New Roman,serif" font-size="14.00">(2) Input</text>
</g>
<!-- node8 -->
<g id="node9" class="node"><title>node8</title>
<ellipse fill="none" stroke="black" cx="187.288" cy="-575" rx="42.4939" ry="18"/>
<text text-anchor="middle" x="187.288" y="-571.3" font-family="Times New Roman,serif" font-size="14.00">(8) AND</text>
</g>
<!-- node2&#45;&gt;node8 -->
<g id="edge6" class="edge"><title>node2&#45;&gt;node8</title>
<path fill="none" stroke="black" d="M50.1964,-209.798C65.2077,-248.795 101.034,-344.934 122.493,-428 133.569,-470.877 120.57,-486.45 140.493,-526 145.207,-535.359 152.267,-544.194 159.44,-551.716"/>
<polygon fill="black" stroke="black" points="156.999,-554.225 166.569,-558.772 161.924,-549.25 156.999,-554.225"/>
<text text-anchor="middle" x="112.493" y="-431.8" font-family="Times New Roman,serif" font-size="14.00"> (1)</text>
</g>
<!-- node17 -->
<g id="node18" class="node"><title>node17</title>
<ellipse fill="none" stroke="black" cx="298.88" cy="-82" rx="46.5926" ry="18"/>
<text text-anchor="middle" x="298.88" y="-78.3" font-family="Times New Roman,serif" font-size="14.00">(17) AND</text>
</g>
<!-- node2&#45;&gt;node17 -->
<g id="edge23" class="edge"><title>node2&#45;&gt;node17</title>
<path fill="none" stroke="black" d="M56.9502,-175.009C73.5007,-154.574 99.508,-122.774 102.493,-121 144.845,-95.8305 200.552,-86.5957 241.643,-83.3556"/>
<polygon fill="black" stroke="black" points="242.023,-86.8377 251.758,-82.655 241.54,-79.8545 242.023,-86.8377"/>
<text text-anchor="middle" x="112.493" y="-124.8" font-family="Times New Roman,serif" font-size="14.00"> (0)</text>
</g>
<!-- node23 -->
<g id="node24" class="node"><title>node23</title>
<ellipse fill="none" stroke="black" cx="712.905" cy="-202" rx="40.8928" ry="18"/>
<text text-anchor="middle" x="712.905" y="-198.3" font-family="Times New Roman,serif" font-size="14.00">(23) OR</text>
</g>
<!-- node2&#45;&gt;node23 -->
<g id="edge35" class="edge"><title>node2&#45;&gt;node23</title>
<path fill="none" stroke="black" d="M81.3,-184.803C140.911,-175.433 258.5,-164.733 345.676,-206 356.485,-211.117 352.817,-220.99 363.676,-226 417.32,-250.75 437.604,-232.682 496.567,-229 554.532,-225.38 620.763,-216.331 664.292,-209.703"/>
<polygon fill="black" stroke="black" points="664.956,-213.141 674.307,-208.159 663.89,-206.223 664.956,-213.141"/>
<text text-anchor="middle" x="411.122" y="-241.8" font-family="Times New Roman,serif" font-size="14.00"> (0)</text>
</g>
<!-- node3 -->
<g id="node4" class="node"><title>node3</title>
<ellipse fill="none" stroke="black" cx="42.2463" cy="-575" rx="42.4939" ry="18"/>
<text text-anchor="middle" x="42.2463" y="-571.3" font-family="Times New Roman,serif" font-size="14.00">(3) Input</text>
</g>
<!-- node3&#45;&gt;node8 -->
<g id="edge5" class="edge"><title>node3&#45;&gt;node8</title>
<path fill="none" stroke="black" d="M84.62,-575C100.336,-575 118.429,-575 134.955,-575"/>
<polygon fill="black" stroke="black" points="135.008,-578.5 145.008,-575 135.008,-571.5 135.008,-578.5"/>
<text text-anchor="middle" x="112.493" y="-578.8" font-family="Times New Roman,serif" font-size="14.00"> (0)</text>
</g>
<!-- node3&#45;&gt;node9 -->
<g id="edge7" class="edge"><title>node3&#45;&gt;node9</title>
<path fill="none" stroke="black" d="M51.7032,-557.293C62.2577,-535.948 81.4938,-499.407 102.493,-471 120.105,-447.173 143.431,-422.864 160.999,-405.685"/>
<polygon fill="black" stroke="black" points="163.863,-407.785 168.625,-398.321 159,-402.75 163.863,-407.785"/>
<text text-anchor="middle" x="112.493" y="-474.8" font-family="Times New Roman,serif" font-size="14.00"> (0)</text>
</g>
<!-- node3&#45;&gt;node10 -->
<g id="edge9" class="edge"><title>node3&#45;&gt;node10</title>
<path fill="none" stroke="black" d="M73.6875,-587.311C89.8221,-595.054 109.031,-606.364 122.493,-621 135.143,-634.755 127.888,-645.202 140.493,-659 142.868,-661.6 145.552,-664.025 148.401,-666.269"/>
<polygon fill="black" stroke="black" points="146.545,-669.242 156.745,-672.11 150.56,-663.508 146.545,-669.242"/>
<text text-anchor="middle" x="112.493" y="-624.8" font-family="Times New Roman,serif" font-size="14.00"> (0)</text>
</g>
<!-- node4 -->
<g id="node5" class="node"><title>node4</title>
<ellipse fill="none" stroke="black" cx="42.2463" cy="-380" rx="42.4939" ry="18"/>
<text text-anchor="middle" x="42.2463" y="-376.3" font-family="Times New Roman,serif" font-size="14.00">(4) Input</text>
</g>
<!-- node4&#45;&gt;node7 -->
<g id="edge3" class="edge"><title>node4&#45;&gt;node7</title>
<path fill="none" stroke="black" d="M46.7012,-361.733C52.8032,-335.113 68.2353,-286.4 102.493,-264 112.594,-257.395 124.928,-254.54 136.994,-253.7"/>
<polygon fill="black" stroke="black" points="137.11,-257.199 147.012,-253.431 136.921,-250.201 137.11,-257.199"/>
<text text-anchor="middle" x="112.493" y="-267.8" font-family="Times New Roman,serif" font-size="14.00"> (0)</text>
</g>
<!-- node14 -->
<g id="node15" class="node"><title>node14</title>
<ellipse fill="none" stroke="black" cx="411.122" cy="-362" rx="40.8928" ry="18"/>
<text text-anchor="middle" x="411.122" y="-358.3" font-family="Times New Roman,serif" font-size="14.00">(14) OR</text>
</g>
<!-- node4&#45;&gt;node14 -->
<g id="edge17" class="edge"><title>node4&#45;&gt;node14</title>
<path fill="none" stroke="black" d="M69.2002,-366.058C88.3047,-356.618 115.241,-344.991 140.493,-340 218.622,-324.559 311.55,-339.227 365.391,-350.89"/>
<polygon fill="black" stroke="black" points="364.777,-354.34 375.299,-353.099 366.301,-347.507 364.777,-354.34"/>
<text text-anchor="middle" x="187.288" y="-343.8" font-family="Times New Roman,serif" font-size="14.00"> (0)</text>
</g>
<!-- node4&#45;&gt;node15 -->
<g id="edge20" class="edge"><title>node4&#45;&gt;node15</title>
<path fill="none" stroke="black" d="M50.8764,-398.01C61.9447,-423.988 83.2395,-473.426 102.493,-515 111.013,-533.398 114.347,-537.433 122.493,-556 131.312,-576.104 126.655,-584.956 140.493,-602 143.332,-605.498 146.691,-608.729 150.279,-611.673"/>
<polygon fill="black" stroke="black" points="148.26,-614.533 158.387,-617.648 152.413,-608.898 148.26,-614.533"/>
<text text-anchor="middle" x="112.493" y="-559.8" font-family="Times New Roman,serif" font-size="14.00"> (1)</text>
</g>
<!-- node19 -->
<g id="node20" class="node"><title>node19</title>
<ellipse fill="none" stroke="black" cx="562.013" cy="-416" rx="47.3916" ry="18"/>
<text text-anchor="middle" x="562.013" y="-412.3" font-family="Times New Roman,serif" font-size="14.00">(19) XOR</text>
</g>
<!-- node4&#45;&gt;node19 -->
<g id="edge27" class="edge"><title>node4&#45;&gt;node19</title>
<path fill="none" stroke="black" d="M64.0003,-395.488C74.8642,-402.635 88.7416,-410.335 102.493,-414 111.082,-416.289 113.604,-414.103 122.493,-414 180.1,-413.333 194.482,-412.052 252.084,-411 351.847,-409.179 376.79,-408.667 476.567,-408 485.456,-407.941 487.696,-407.451 496.567,-408 500.049,-408.215 503.63,-408.495 507.236,-408.821"/>
<polygon fill="black" stroke="black" points="507.101,-412.325 517.402,-409.846 507.803,-405.361 507.101,-412.325"/>
<text text-anchor="middle" x="298.88" y="-414.8" font-family="Times New Roman,serif" font-size="14.00"> (0)</text>
</g>
<!-- node5 -->
<g id="node6" class="node"><title>node5</title>
<ellipse fill="none" stroke="black" cx="42.2463" cy="-114" rx="42.4939" ry="18"/>
<text text-anchor="middle" x="42.2463" y="-110.3" font-family="Times New Roman,serif" font-size="14.00">(5) Input</text>
</g>
<!-- node5&#45;&gt;node6 -->
<g id="edge2" class="edge"><title>node5&#45;&gt;node6</title>
<path fill="none" stroke="black" d="M60.2606,-130.404C68.8999,-139.728 78.7563,-152.097 84.4925,-165 105.33,-211.871 90.8114,-229.053 102.493,-279 109.279,-308.018 114.126,-314.398 122.493,-343 131.028,-372.182 129.541,-380.636 140.493,-409 149.017,-431.079 161.287,-454.9 170.98,-472.485"/>
<polygon fill="black" stroke="black" points="168.123,-474.546 176.061,-481.563 174.231,-471.127 168.123,-474.546"/>
<text text-anchor="middle" x="112.493" y="-346.8" font-family="Times New Roman,serif" font-size="14.00"> (1)</text>
</g>
<!-- node12 -->
<g id="node13" class="node"><title>node12</title>
<ellipse fill="none" stroke="black" cx="411.122" cy="-199" rx="47.3916" ry="18"/>
<text text-anchor="middle" x="411.122" y="-195.3" font-family="Times New Roman,serif" font-size="14.00">(12) XOR</text>
</g>
<!-- node5&#45;&gt;node12 -->
<g id="edge13" class="edge"><title>node5&#45;&gt;node12</title>
<path fill="none" stroke="black" d="M82.0753,-107.549C94.9824,-106.337 109.4,-105.995 122.493,-108 213.334,-121.912 314.772,-159.504 369.605,-181.779"/>
<polygon fill="black" stroke="black" points="368.385,-185.061 378.965,-185.617 371.041,-178.585 368.385,-185.061"/>
<text text-anchor="middle" x="187.288" y="-136.8" font-family="Times New Roman,serif" font-size="14.00"> (0)</text>
</g>
<!-- node5&#45;&gt;node17 -->
<g id="edge24" class="edge"><title>node5&#45;&gt;node17</title>
<path fill="none" stroke="black" d="M68.3418,-99.6849C73.9549,-95.9235 79.6684,-91.6145 84.4925,-87 94.3865,-77.536 90.3067,-68.242 102.493,-62 151.38,-36.9581 216.106,-51.3499 257.382,-65.464"/>
<polygon fill="black" stroke="black" points="256.242,-68.7732 266.836,-68.8327 258.591,-62.1793 256.242,-68.7732"/>
<text text-anchor="middle" x="112.493" y="-65.8" font-family="Times New Roman,serif" font-size="14.00"> (1)</text>
</g>
<!-- node13 -->
<g id="node14" class="node"><title>node13</title>
<ellipse fill="none" stroke="black" cx="411.122" cy="-554" rx="47.3916" ry="18"/>
<text text-anchor="middle" x="411.122" y="-550.3" font-family="Times New Roman,serif" font-size="14.00">(13) XOR</text>
</g>
<!-- node6&#45;&gt;node13 -->
<g id="edge16" class="edge"><title>node6&#45;&gt;node13</title>
<path fill="none" stroke="black" d="M227.559,-504.455C259.682,-509.4 306.102,-517.655 345.676,-529 353.549,-531.257 361.805,-534.088 369.68,-537.026"/>
<polygon fill="black" stroke="black" points="368.455,-540.304 379.045,-540.631 370.97,-533.772 368.455,-540.304"/>
<text text-anchor="middle" x="298.88" y="-532.8" font-family="Times New Roman,serif" font-size="14.00"> (1)</text>
</g>
<!-- node11 -->
<g id="node12" class="node"><title>node11</title>
<ellipse fill="none" stroke="black" cx="411.122" cy="-490" rx="40.8928" ry="18"/>
<text text-anchor="middle" x="411.122" y="-486.3" font-family="Times New Roman,serif" font-size="14.00">(11) OR</text>
</g>
<!-- node7&#45;&gt;node11 -->
<g id="edge11" class="edge"><title>node7&#45;&gt;node11</title>
<path fill="none" stroke="black" d="M207.718,-275.1C217.217,-284.072 227.907,-296.035 234.084,-309 257.469,-358.084 214.664,-390.557 252.084,-430 281.297,-460.792 306.313,-433.121 345.676,-449 358.07,-454 370.693,-461.417 381.445,-468.574"/>
<polygon fill="black" stroke="black" points="379.77,-471.671 389.989,-474.465 383.743,-465.908 379.77,-471.671"/>
<text text-anchor="middle" x="298.88" y="-452.8" font-family="Times New Roman,serif" font-size="14.00"> (0)</text>
</g>
<!-- node22 -->
<g id="node23" class="node"><title>node22</title>
<ellipse fill="none" stroke="black" cx="562.013" cy="-175" rx="46.5926" ry="18"/>
<text text-anchor="middle" x="562.013" y="-171.3" font-family="Times New Roman,serif" font-size="14.00">(22) AND</text>
</g>
<!-- node7&#45;&gt;node22 -->
<g id="edge33" class="edge"><title>node7&#45;&gt;node22</title>
<path fill="none" stroke="black" d="M229.855,-259.307C265.159,-257.304 314.868,-248.787 345.676,-219 366.304,-199.055 340.732,-174.23 363.676,-157 409.583,-122.526 479.494,-140.646 522.608,-157.44"/>
<polygon fill="black" stroke="black" points="521.325,-160.697 531.908,-161.205 523.951,-154.208 521.325,-160.697"/>
<text text-anchor="middle" x="411.122" y="-160.8" font-family="Times New Roman,serif" font-size="14.00"> (0)</text>
</g>
<!-- node24 -->
<g id="node25" class="node"><title>node24</title>
<ellipse fill="none" stroke="black" cx="562.013" cy="-305" rx="46.5926" ry="18"/>
<text text-anchor="middle" x="562.013" y="-301.3" font-family="Times New Roman,serif" font-size="14.00">(24) AND</text>
</g>
<!-- node7&#45;&gt;node24 -->
<g id="edge37" class="edge"><title>node7&#45;&gt;node24</title>
<path fill="none" stroke="black" d="M228.176,-263.923C295.348,-272.213 431.101,-288.967 506.835,-298.314"/>
<polygon fill="black" stroke="black" points="506.756,-301.83 517.109,-299.582 507.613,-294.883 506.756,-301.83"/>
<text text-anchor="middle" x="411.122" y="-295.8" font-family="Times New Roman,serif" font-size="14.00"> (0)</text>
</g>
<!-- node7&#45;&gt;node34 -->
<g id="edge55" class="edge"><title>node7&#45;&gt;node34</title>
<path fill="none" stroke="black" d="M207.354,-242.977C238.152,-216.638 300.009,-161.828 345.676,-109 363.519,-88.3587 381.248,-62.8637 393.581,-44.1155"/>
<polygon fill="black" stroke="black" points="396.663,-45.7965 399.179,-35.5047 390.794,-41.9812 396.663,-45.7965"/>
<text text-anchor="middle" x="298.88" y="-203.8" font-family="Times New Roman,serif" font-size="14.00"> (0)</text>
</g>
<!-- node8&#45;&gt;node13 -->
<g id="edge15" class="edge"><title>node8&#45;&gt;node13</title>
<path fill="none" stroke="black" d="M226.555,-581.947C258.691,-586.536 305.641,-590.321 345.676,-582 355.061,-580.049 364.756,-576.658 373.688,-572.894"/>
<polygon fill="black" stroke="black" points="375.33,-575.994 383.028,-568.715 372.47,-569.605 375.33,-575.994"/>
<text text-anchor="middle" x="298.88" y="-589.8" font-family="Times New Roman,serif" font-size="14.00"> (0)</text>
</g>
<!-- node9&#45;&gt;node14 -->
<g id="edge18" class="edge"><title>node9&#45;&gt;node14</title>
<path fill="none" stroke="black" d="M228.718,-378.355C265.851,-375.007 320.98,-370.037 360.712,-366.455"/>
<polygon fill="black" stroke="black" points="361.07,-369.937 370.715,-365.553 360.442,-362.965 361.07,-369.937"/>
<text text-anchor="middle" x="298.88" y="-379.8" font-family="Times New Roman,serif" font-size="14.00"> (1)</text>
</g>
<!-- node16 -->
<g id="node17" class="node"><title>node16</title>
<ellipse fill="none" stroke="black" cx="411.122" cy="-617" rx="47.3916" ry="18"/>
<text text-anchor="middle" x="411.122" y="-613.3" font-family="Times New Roman,serif" font-size="14.00">(16) XOR</text>
</g>
<!-- node9&#45;&gt;node16 -->
<g id="edge22" class="edge"><title>node9&#45;&gt;node16</title>
<path fill="none" stroke="black" d="M198.634,-399.392C208.827,-417.139 224.26,-445.726 234.084,-472 245.637,-502.895 228.245,-521.203 252.084,-544 282.76,-573.335 308.282,-542.918 345.676,-563 355.643,-568.353 355.188,-573.52 363.676,-581 368.921,-585.623 374.687,-590.35 380.318,-594.795"/>
<polygon fill="black" stroke="black" points="378.349,-597.698 388.396,-601.061 382.639,-592.166 378.349,-597.698"/>
<text text-anchor="middle" x="298.88" y="-566.8" font-family="Times New Roman,serif" font-size="14.00"> (1)</text>
</g>
<!-- node10&#45;&gt;node11 -->
<g id="edge12" class="edge"><title>node10&#45;&gt;node11</title>
<path fill="none" stroke="black" d="M219.681,-672.867C225.292,-669.169 230.488,-664.588 234.084,-659 254.641,-627.054 223.843,-514.409 252.084,-489 283.18,-461.023 333.286,-466.722 368.732,-475.91"/>
<polygon fill="black" stroke="black" points="368.196,-479.393 378.768,-478.703 370.073,-472.65 368.196,-479.393"/>
<text text-anchor="middle" x="298.88" y="-492.8" font-family="Times New Roman,serif" font-size="14.00"> (1)</text>
</g>
<!-- node10&#45;&gt;node12 -->
<g id="edge14" class="edge"><title>node10&#45;&gt;node12</title>
<path fill="none" stroke="black" d="M219.889,-672.997C225.485,-669.29 230.622,-664.672 234.084,-659 270.147,-599.908 221.117,-409.914 252.084,-348 276.434,-299.316 312.471,-312.134 345.676,-269 357.075,-254.192 351.566,-245.234 363.676,-231 367.078,-227.001 371.094,-223.273 375.315,-219.878"/>
<polygon fill="black" stroke="black" points="377.614,-222.531 383.582,-213.776 373.457,-216.899 377.614,-222.531"/>
<text text-anchor="middle" x="298.88" y="-351.8" font-family="Times New Roman,serif" font-size="14.00"> (1)</text>
</g>
<!-- node26 -->
<g id="node27" class="node"><title>node26</title>
<ellipse fill="none" stroke="black" cx="562.013" cy="-601" rx="47.3916" ry="18"/>
<text text-anchor="middle" x="562.013" y="-597.3" font-family="Times New Roman,serif" font-size="14.00">(26) XOR</text>
</g>
<!-- node10&#45;&gt;node26 -->
<g id="edge41" class="edge"><title>node10&#45;&gt;node26</title>
<path fill="none" stroke="black" d="M233.482,-682.362C287.742,-677.224 381.119,-665.917 458.567,-644 480.637,-637.754 504.308,-628.033 523.33,-619.413"/>
<polygon fill="black" stroke="black" points="524.931,-622.529 532.543,-615.16 521.997,-616.174 524.931,-622.529"/>
<text text-anchor="middle" x="411.122" y="-667.8" font-family="Times New Roman,serif" font-size="14.00"> (1)</text>
</g>
<!-- node32 -->
<g id="node33" class="node"><title>node32</title>
<ellipse fill="none" stroke="black" cx="712.905" cy="-701" rx="47.3916" ry="18"/>
<text text-anchor="middle" x="712.905" y="-697.3" font-family="Times New Roman,serif" font-size="14.00">(32) XOR</text>
</g>
<!-- node10&#45;&gt;node32 -->
<g id="edge51" class="edge"><title>node10&#45;&gt;node32</title>
<path fill="none" stroke="black" d="M233.939,-687.448C240.04,-687.637 246.214,-687.825 252.084,-688 397.446,-692.333 568.668,-697.08 655.411,-699.459"/>
<polygon fill="black" stroke="black" points="655.472,-702.962 665.564,-699.737 655.663,-695.964 655.472,-702.962"/>
<text text-anchor="middle" x="486.567" y="-697.8" font-family="Times New Roman,serif" font-size="14.00"> (0)</text>
</g>
<!-- node36 -->
<g id="node37" class="node"><title>node36</title>
<ellipse fill="none" stroke="black" cx="1438.61" cy="-755" rx="42.7926" ry="18"/>
<text text-anchor="middle" x="1438.61" y="-751.3" font-family="Times New Roman,serif" font-size="14.00">Output 0</text>
</g>
<!-- node10&#45;&gt;node36 -->
<g id="edge59" class="edge"><title>node10&#45;&gt;node36</title>
<path fill="none" stroke="black" d="M215.796,-700.465C256.9,-720.698 337.321,-755 410.122,-755 410.122,-755 410.122,-755 1312.27,-755 1336.33,-755 1362.99,-755 1385.51,-755"/>
<polygon fill="black" stroke="black" points="1385.55,-758.5 1395.55,-755 1385.55,-751.5 1385.55,-758.5"/>
</g>
<!-- node18 -->
<g id="node19" class="node"><title>node18</title>
<ellipse fill="none" stroke="black" cx="562.013" cy="-362" rx="46.5926" ry="18"/>
<text text-anchor="middle" x="562.013" y="-358.3" font-family="Times New Roman,serif" font-size="14.00">(18) AND</text>
</g>
<!-- node11&#45;&gt;node18 -->
<g id="edge25" class="edge"><title>node11&#45;&gt;node18</title>
<path fill="none" stroke="black" d="M444.063,-478.899C461.747,-471.282 482.858,-459.532 496.567,-443 512.716,-423.527 498.601,-408.624 514.567,-389 516.813,-386.239 519.422,-383.702 522.234,-381.382"/>
<polygon fill="black" stroke="black" points="524.475,-384.083 530.571,-375.418 520.402,-378.39 524.475,-384.083"/>
<text text-anchor="middle" x="486.567" y="-463.8" font-family="Times New Roman,serif" font-size="14.00"> (0)</text>
</g>
<!-- node11&#45;&gt;node19 -->
<g id="edge28" class="edge"><title>node11&#45;&gt;node19</title>
<path fill="none" stroke="black" d="M452.317,-491.219C466.853,-490.265 483.012,-487.513 496.567,-481 515.126,-472.082 531.408,-455.541 542.963,-441.377"/>
<polygon fill="black" stroke="black" points="545.806,-443.424 549.202,-433.388 540.288,-439.115 545.806,-443.424"/>
<text text-anchor="middle" x="486.567" y="-490.8" font-family="Times New Roman,serif" font-size="14.00"> (1)</text>
</g>
<!-- node21 -->
<g id="node22" class="node"><title>node21</title>
<ellipse fill="none" stroke="black" cx="562.013" cy="-547" rx="47.3916" ry="18"/>
<text text-anchor="middle" x="562.013" y="-543.3" font-family="Times New Roman,serif" font-size="14.00">(21) XOR</text>
</g>
<!-- node11&#45;&gt;node21 -->
<g id="edge31" class="edge"><title>node11&#45;&gt;node21</title>
<path fill="none" stroke="black" d="M439.455,-503.048C450.822,-508.277 464.221,-514.19 476.567,-519 488.832,-523.778 502.289,-528.478 514.785,-532.622"/>
<polygon fill="black" stroke="black" points="513.967,-536.037 524.56,-535.817 516.142,-529.383 513.967,-536.037"/>
<text text-anchor="middle" x="486.567" y="-529.8" font-family="Times New Roman,serif" font-size="14.00"> (0)</text>
</g>
<!-- node12&#45;&gt;node22 -->
<g id="edge34" class="edge"><title>node12&#45;&gt;node22</title>
<path fill="none" stroke="black" d="M447.959,-187.612C457.197,-185.059 467.182,-182.627 476.567,-181 485.714,-179.414 495.487,-178.246 505.02,-177.386"/>
<polygon fill="black" stroke="black" points="505.542,-180.855 515.231,-176.567 504.983,-173.877 505.542,-180.855"/>
<text text-anchor="middle" x="486.567" y="-184.8" font-family="Times New Roman,serif" font-size="14.00"> (1)</text>
</g>
<!-- node13&#45;&gt;node21 -->
<g id="edge32" class="edge"><title>node13&#45;&gt;node21</title>
<path fill="none" stroke="black" d="M457.739,-557.495C470.331,-557.95 483.989,-557.97 496.567,-557 500.519,-556.695 504.594,-556.287 508.686,-555.809"/>
<polygon fill="black" stroke="black" points="509.361,-559.251 518.829,-554.497 508.463,-552.309 509.361,-559.251"/>
<text text-anchor="middle" x="486.567" y="-560.8" font-family="Times New Roman,serif" font-size="14.00"> (1)</text>
</g>
<!-- node13&#45;&gt;node24 -->
<g id="edge38" class="edge"><title>node13&#45;&gt;node24</title>
<path fill="none" stroke="black" d="M437.397,-539.002C445.321,-533.102 453.35,-525.652 458.567,-517 480.761,-480.201 463.027,-462.784 476.567,-422 482.956,-402.758 488.422,-399.567 496.567,-381 505.387,-360.896 500.675,-352 514.567,-335 517.447,-331.476 520.853,-328.229 524.491,-325.276"/>
<polygon fill="black" stroke="black" points="526.689,-328.006 532.714,-319.291 522.569,-322.346 526.689,-328.006"/>
<text text-anchor="middle" x="486.567" y="-425.8" font-family="Times New Roman,serif" font-size="14.00"> (1)</text>
</g>
<!-- node14&#45;&gt;node18 -->
<g id="edge26" class="edge"><title>node14&#45;&gt;node18</title>
<path fill="none" stroke="black" d="M452.414,-362C468.612,-362 487.565,-362 505.063,-362"/>
<polygon fill="black" stroke="black" points="505.165,-365.5 515.165,-362 505.165,-358.5 505.165,-365.5"/>
<text text-anchor="middle" x="486.567" y="-365.8" font-family="Times New Roman,serif" font-size="14.00"> (1)</text>
</g>
<!-- node15&#45;&gt;node16 -->
<g id="edge21" class="edge"><title>node15&#45;&gt;node16</title>
<path fill="none" stroke="black" d="M233.447,-628.946C268.301,-626.59 316.714,-623.316 354.048,-620.792"/>
<polygon fill="black" stroke="black" points="354.523,-624.268 364.264,-620.101 354.051,-617.284 354.523,-624.268"/>
<text text-anchor="middle" x="298.88" y="-630.8" font-family="Times New Roman,serif" font-size="14.00"> (0)</text>
</g>
<!-- node16&#45;&gt;node26 -->
<g id="edge40" class="edge"><title>node16&#45;&gt;node26</title>
<path fill="none" stroke="black" d="M457.198,-612.156C472.504,-610.511 489.783,-608.654 505.789,-606.934"/>
<polygon fill="black" stroke="black" points="506.521,-610.376 516.09,-605.827 505.773,-603.416 506.521,-610.376"/>
<text text-anchor="middle" x="486.567" y="-612.8" font-family="Times New Roman,serif" font-size="14.00"> (0)</text>
</g>
<!-- node37 -->
<g id="node38" class="node"><title>node37</title>
<ellipse fill="none" stroke="black" cx="1438.61" cy="-647" rx="42.7926" ry="18"/>
<text text-anchor="middle" x="1438.61" y="-643.3" font-family="Times New Roman,serif" font-size="14.00">Output 1</text>
</g>
<!-- node16&#45;&gt;node37 -->
<g id="edge60" class="edge"><title>node16&#45;&gt;node37</title>
<path fill="none" stroke="black" d="M448.121,-628.427C478.026,-636.905 521.856,-647 561.013,-647 561.013,-647 561.013,-647 1312.27,-647 1336.33,-647 1362.99,-647 1385.51,-647"/>
<polygon fill="black" stroke="black" points="1385.55,-650.5 1395.55,-647 1385.55,-643.5 1385.55,-650.5"/>
</g>
<!-- node20 -->
<g id="node21" class="node"><title>node20</title>
<ellipse fill="none" stroke="black" cx="712.905" cy="-68" rx="46.5926" ry="18"/>
<text text-anchor="middle" x="712.905" y="-64.3" font-family="Times New Roman,serif" font-size="14.00">(20) AND</text>
</g>
<!-- node17&#45;&gt;node20 -->
<g id="edge30" class="edge"><title>node17&#45;&gt;node20</title>
<path fill="none" stroke="black" d="M345.548,-80.4483C421.499,-77.8676 573.545,-72.7013 655.864,-69.9042"/>
<polygon fill="black" stroke="black" points="656.157,-73.3964 666.032,-69.5587 655.919,-66.4004 656.157,-73.3964"/>
<text text-anchor="middle" x="486.567" y="-79.8" font-family="Times New Roman,serif" font-size="14.00"> (1)</text>
</g>
<!-- node27 -->
<g id="node28" class="node"><title>node27</title>
<ellipse fill="none" stroke="black" cx="712.905" cy="-292" rx="47.3916" ry="18"/>
<text text-anchor="middle" x="712.905" y="-288.3" font-family="Times New Roman,serif" font-size="14.00">(27) XOR</text>
</g>
<!-- node17&#45;&gt;node27 -->
<g id="edge42" class="edge"><title>node17&#45;&gt;node27</title>
<path fill="none" stroke="black" d="M315.244,-98.955C327.362,-111.473 345.243,-128.152 363.676,-139 402.158,-161.648 422.514,-145.658 458.567,-172 469.333,-179.866 466.012,-187.854 476.567,-196 532.895,-239.474 611.634,-266.269 662.203,-280.148"/>
<polygon fill="black" stroke="black" points="661.361,-283.546 671.926,-282.753 663.172,-276.785 661.361,-283.546"/>
<text text-anchor="middle" x="486.567" y="-213.8" font-family="Times New Roman,serif" font-size="14.00"> (0)</text>
</g>
<!-- node18&#45;&gt;node20 -->
<g id="edge29" class="edge"><title>node18&#45;&gt;node20</title>
<path fill="none" stroke="black" d="M596.242,-349.472C614.356,-340.88 635.467,-327.63 647.459,-309 679.983,-258.472 649.342,-232.889 665.459,-175 673.372,-146.578 687.321,-115.852 697.873,-94.6489"/>
<polygon fill="black" stroke="black" points="701.05,-96.1219 702.448,-85.6197 694.806,-92.9578 701.05,-96.1219"/>
<text text-anchor="middle" x="637.459" y="-331.8" font-family="Times New Roman,serif" font-size="14.00"> (0)</text>
</g>
<!-- node25 -->
<g id="node26" class="node"><title>node25</title>
<ellipse fill="none" stroke="black" cx="712.905" cy="-369" rx="46.2923" ry="18"/>
<text text-anchor="middle" x="712.905" y="-365.3" font-family="Times New Roman,serif" font-size="14.00">(25) NEG</text>
</g>
<!-- node18&#45;&gt;node25 -->
<g id="edge39" class="edge"><title>node18&#45;&gt;node25</title>
<path fill="none" stroke="black" d="M608.495,-364.138C623.718,-364.854 640.856,-365.66 656.736,-366.406"/>
<polygon fill="black" stroke="black" points="656.805,-369.913 666.958,-366.887 657.133,-362.921 656.805,-369.913"/>
<text text-anchor="middle" x="637.459" y="-368.8" font-family="Times New Roman,serif" font-size="14.00"> (0)</text>
</g>
<!-- node31 -->
<g id="node32" class="node"><title>node31</title>
<ellipse fill="none" stroke="black" cx="1011.44" cy="-290" rx="40.8928" ry="18"/>
<text text-anchor="middle" x="1011.44" y="-286.3" font-family="Times New Roman,serif" font-size="14.00">(31) OR</text>
</g>
<!-- node19&#45;&gt;node31 -->
<g id="edge50" class="edge"><title>node19&#45;&gt;node31</title>
<path fill="none" stroke="black" d="M608.396,-419.989C676.733,-424.121 808.69,-424.714 908.642,-380 941.675,-365.223 971.672,-335.839 990.41,-314.66"/>
<polygon fill="black" stroke="black" points="993.142,-316.85 997.023,-306.992 987.841,-312.279 993.142,-316.85"/>
<text text-anchor="middle" x="788.351" y="-417.8" font-family="Times New Roman,serif" font-size="14.00"> (1)</text>
</g>
<!-- node41 -->
<g id="node42" class="node"><title>node41</title>
<ellipse fill="none" stroke="black" cx="1438.61" cy="-65" rx="42.7926" ry="18"/>
<text text-anchor="middle" x="1438.61" y="-61.3" font-family="Times New Roman,serif" font-size="14.00">Output 5</text>
</g>
<!-- node20&#45;&gt;node41 -->
<g id="edge64" class="edge"><title>node20&#45;&gt;node41</title>
<path fill="none" stroke="black" d="M759.772,-66.5878C788.905,-65.8097 827.41,-65 861.497,-65 861.497,-65 861.497,-65 1312.27,-65 1336.33,-65 1362.99,-65 1385.51,-65"/>
<polygon fill="black" stroke="black" points="1385.55,-68.5001 1395.55,-65 1385.55,-61.5001 1385.55,-68.5001"/>
</g>
<!-- node21&#45;&gt;node32 -->
<g id="edge52" class="edge"><title>node21&#45;&gt;node32</title>
<path fill="none" stroke="black" d="M591.631,-561.427C597.801,-565.128 604.08,-569.383 609.459,-574 644.415,-604.003 676.299,-647.134 694.909,-674.609"/>
<polygon fill="black" stroke="black" points="692.235,-676.908 700.696,-683.284 698.058,-673.023 692.235,-676.908"/>
<text text-anchor="middle" x="637.459" y="-615.8" font-family="Times New Roman,serif" font-size="14.00"> (1)</text>
</g>
<!-- node22&#45;&gt;node23 -->
<g id="edge36" class="edge"><title>node22&#45;&gt;node23</title>
<path fill="none" stroke="black" d="M604.884,-182.593C623.476,-185.964 645.444,-189.948 664.624,-193.426"/>
<polygon fill="black" stroke="black" points="664.196,-196.905 674.66,-195.246 665.445,-190.018 664.196,-196.905"/>
<text text-anchor="middle" x="637.459" y="-193.8" font-family="Times New Roman,serif" font-size="14.00"> (1)</text>
</g>
<!-- node33 -->
<g id="node34" class="node"><title>node33</title>
<ellipse fill="none" stroke="black" cx="1161.03" cy="-202" rx="46.5926" ry="18"/>
<text text-anchor="middle" x="1161.03" y="-198.3" font-family="Times New Roman,serif" font-size="14.00">(33) AND</text>
</g>
<!-- node23&#45;&gt;node33 -->
<g id="edge54" class="edge"><title>node23&#45;&gt;node33</title>
<path fill="none" stroke="black" d="M753.888,-202C833.585,-202 1012.41,-202 1103.85,-202"/>
<polygon fill="black" stroke="black" points="1104.03,-205.5 1114.03,-202 1104.03,-198.5 1104.03,-205.5"/>
<text text-anchor="middle" x="936.642" y="-205.8" font-family="Times New Roman,serif" font-size="14.00"> (1)</text>
</g>
<!-- node24&#45;&gt;node27 -->
<g id="edge43" class="edge"><title>node24&#45;&gt;node27</title>
<path fill="none" stroke="black" d="M604.149,-297.062C611.868,-295.834 619.89,-294.732 627.459,-294 636.463,-293.13 646.032,-292.562 655.369,-292.203"/>
<polygon fill="black" stroke="black" points="655.488,-295.701 665.373,-291.89 655.269,-288.705 655.488,-295.701"/>
<text text-anchor="middle" x="637.459" y="-297.8" font-family="Times New Roman,serif" font-size="14.00"> (1)</text>
</g>
<!-- node29 -->
<g id="node30" class="node"><title>node29</title>
<ellipse fill="none" stroke="black" cx="862.497" cy="-461" rx="40.8928" ry="18"/>
<text text-anchor="middle" x="862.497" y="-457.3" font-family="Times New Roman,serif" font-size="14.00">(29) OR</text>
</g>
<!-- node25&#45;&gt;node29 -->
<g id="edge45" class="edge"><title>node25&#45;&gt;node29</title>
<path fill="none" stroke="black" d="M758.923,-367.148C772.305,-368.304 786.534,-371.339 798.351,-378 820.987,-390.76 838.088,-415.299 848.747,-434.399"/>
<polygon fill="black" stroke="black" points="845.674,-436.076 853.458,-443.264 851.856,-432.791 845.674,-436.076"/>
<text text-anchor="middle" x="788.351" y="-381.8" font-family="Times New Roman,serif" font-size="14.00"> (0)</text>
</g>
<!-- node26&#45;&gt;node29 -->
<g id="edge46" class="edge"><title>node26&#45;&gt;node29</title>
<path fill="none" stroke="black" d="M592.724,-587.064C647.592,-561.329 764.664,-506.418 824.549,-478.33"/>
<polygon fill="black" stroke="black" points="826.083,-481.476 833.651,-474.061 823.111,-475.139 826.083,-481.476"/>
<text text-anchor="middle" x="712.905" y="-554.8" font-family="Times New Roman,serif" font-size="14.00"> (1)</text>
</g>
<!-- node28 -->
<g id="node29" class="node"><title>node28</title>
<ellipse fill="none" stroke="black" cx="862.497" cy="-290" rx="46.2923" ry="18"/>
<text text-anchor="middle" x="862.497" y="-286.3" font-family="Times New Roman,serif" font-size="14.00">(28) NEG</text>
</g>
<!-- node27&#45;&gt;node28 -->
<g id="edge44" class="edge"><title>node27&#45;&gt;node28</title>
<path fill="none" stroke="black" d="M760.604,-291.367C775.082,-291.171 791.176,-290.953 806.181,-290.75"/>
<polygon fill="black" stroke="black" points="806.41,-294.247 816.362,-290.612 806.315,-287.248 806.41,-294.247"/>
<text text-anchor="middle" x="788.351" y="-294.8" font-family="Times New Roman,serif" font-size="14.00"> (0)</text>
</g>
<!-- node30 -->
<g id="node31" class="node"><title>node30</title>
<ellipse fill="none" stroke="black" cx="1011.44" cy="-399" rx="46.5926" ry="18"/>
<text text-anchor="middle" x="1011.44" y="-395.3" font-family="Times New Roman,serif" font-size="14.00">(30) AND</text>
</g>
<!-- node27&#45;&gt;node30 -->
<g id="edge48" class="edge"><title>node27&#45;&gt;node30</title>
<path fill="none" stroke="black" d="M747.921,-304.274C802.105,-323.826 907.942,-362.016 967.346,-383.451"/>
<polygon fill="black" stroke="black" points="966.225,-386.767 976.819,-386.869 968.6,-380.182 966.225,-386.767"/>
<text text-anchor="middle" x="862.497" y="-364.8" font-family="Times New Roman,serif" font-size="14.00"> (1)</text>
</g>
<!-- node28&#45;&gt;node31 -->
<g id="edge49" class="edge"><title>node28&#45;&gt;node31</title>
<path fill="none" stroke="black" d="M908.783,-290C924.984,-290 943.34,-290 959.953,-290"/>
<polygon fill="black" stroke="black" points="960.037,-293.5 970.037,-290 960.037,-286.5 960.037,-293.5"/>
<text text-anchor="middle" x="936.642" y="-293.8" font-family="Times New Roman,serif" font-size="14.00"> (0)</text>
</g>
<!-- node29&#45;&gt;node30 -->
<g id="edge47" class="edge"><title>node29&#45;&gt;node30</title>
<path fill="none" stroke="black" d="M894.509,-449.672C910.236,-443.774 929.572,-436.287 946.642,-429 955.066,-425.404 964.017,-421.347 972.466,-417.405"/>
<polygon fill="black" stroke="black" points="974.185,-420.464 981.738,-413.035 971.2,-414.132 974.185,-420.464"/>
<text text-anchor="middle" x="936.642" y="-439.8" font-family="Times New Roman,serif" font-size="14.00"> (0)</text>
</g>
<!-- node40 -->
<g id="node41" class="node"><title>node40</title>
<ellipse fill="none" stroke="black" cx="1438.61" cy="-399" rx="42.7926" ry="18"/>
<text text-anchor="middle" x="1438.61" y="-395.3" font-family="Times New Roman,serif" font-size="14.00">Output 4</text>
</g>
<!-- node30&#45;&gt;node40 -->
<g id="edge63" class="edge"><title>node30&#45;&gt;node40</title>
<path fill="none" stroke="black" d="M1058.34,-399C1138.12,-399 1301.8,-399 1385.63,-399"/>
<polygon fill="black" stroke="black" points="1385.69,-402.5 1395.69,-399 1385.69,-395.5 1385.69,-402.5"/>
</g>
<!-- node31&#45;&gt;node33 -->
<g id="edge53" class="edge"><title>node31&#45;&gt;node33</title>
<path fill="none" stroke="black" d="M1036.48,-275.665C1060.7,-261.226 1098.3,-238.808 1125.66,-222.493"/>
<polygon fill="black" stroke="black" points="1127.72,-225.342 1134.51,-217.215 1124.13,-219.33 1127.72,-225.342"/>
<text text-anchor="middle" x="1086.23" y="-254.8" font-family="Times New Roman,serif" font-size="14.00"> (0)</text>
</g>
<!-- node38 -->
<g id="node39" class="node"><title>node38</title>
<ellipse fill="none" stroke="black" cx="1438.61" cy="-701" rx="42.7926" ry="18"/>
<text text-anchor="middle" x="1438.61" y="-697.3" font-family="Times New Roman,serif" font-size="14.00">Output 2</text>
</g>
<!-- node32&#45;&gt;node38 -->
<g id="edge61" class="edge"><title>node32&#45;&gt;node38</title>
<path fill="none" stroke="black" d="M760.436,-701C789.49,-701 827.673,-701 861.497,-701 861.497,-701 861.497,-701 1312.27,-701 1336.33,-701 1362.99,-701 1385.51,-701"/>
<polygon fill="black" stroke="black" points="1385.55,-704.5 1395.55,-701 1385.55,-697.5 1385.55,-704.5"/>
</g>
<!-- node35 -->
<g id="node36" class="node"><title>node35</title>
<ellipse fill="none" stroke="black" cx="1311.27" cy="-140" rx="47.3916" ry="18"/>
<text text-anchor="middle" x="1311.27" y="-136.3" font-family="Times New Roman,serif" font-size="14.00">(35) XOR</text>
</g>
<!-- node33&#45;&gt;node35 -->
<g id="edge57" class="edge"><title>node33&#45;&gt;node35</title>
<path fill="none" stroke="black" d="M1193.47,-188.851C1215.5,-179.635 1245.18,-167.226 1269.1,-157.22"/>
<polygon fill="black" stroke="black" points="1270.75,-160.324 1278.62,-153.236 1268.05,-153.866 1270.75,-160.324"/>
<text text-anchor="middle" x="1235.83" y="-177.8" font-family="Times New Roman,serif" font-size="14.00"> (0)</text>
</g>
<!-- node34&#45;&gt;node35 -->
<g id="edge58" class="edge"><title>node34&#45;&gt;node35</title>
<path fill="none" stroke="black" d="M458.39,-19.8829C487.777,-20.9203 526.621,-22 561.013,-22 561.013,-22 561.013,-22 789.351,-22 909.547,-22 941.025,-24.3655 1058.23,-51 1135.23,-68.4969 1221.22,-102.054 1270.23,-122.591"/>
<polygon fill="black" stroke="black" points="1268.95,-125.851 1279.53,-126.517 1271.68,-119.402 1268.95,-125.851"/>
<text text-anchor="middle" x="862.497" y="-28.8" font-family="Times New Roman,serif" font-size="14.00"> (1)</text>
</g>
<!-- node39 -->
<g id="node40" class="node"><title>node39</title>
<ellipse fill="none" stroke="black" cx="1438.61" cy="-140" rx="42.7926" ry="18"/>
<text text-anchor="middle" x="1438.61" y="-136.3" font-family="Times New Roman,serif" font-size="14.00">Output 3</text>
</g>
<!-- node35&#45;&gt;node39 -->
<g id="edge62" class="edge"><title>node35&#45;&gt;node39</title>
<path fill="none" stroke="black" d="M1358.94,-140C1367.55,-140 1376.58,-140 1385.34,-140"/>
<polygon fill="black" stroke="black" points="1385.45,-143.5 1395.45,-140 1385.45,-136.5 1385.45,-143.5"/>
</g>
</g>
</svg>
