<?xml version="1.0" encoding="UTF-8" standalone="no"?>
<!DOCTYPE svg PUBLIC "-//W3C//DTD SVG 1.1//EN"
 "http://www.w3.org/Graphics/SVG/1.1/DTD/svg11.dtd">
<!-- Generated by graphviz version 2.38.0 (20140413.2041)
 -->
<!-- Title: NeuralNetwork Pages: 1 -->
<svg width="288pt" height="116pt"
 viewBox="0.00 0.00 288.00 116.08" xmlns="http://www.w3.org/2000/svg" xmlns:xlink="http://www.w3.org/1999/xlink">
<g id="graph0" class="graph" transform="scale(0.244892 0.244892) rotate(0) translate(4 470)">
<title>NeuralNetwork</title>
<polygon fill="white" stroke="none" points="-4,4 -4,-470 1172.03,-470 1172.03,4 -4,4"/>
<!-- node0 -->
<g id="node1" class="node"><title>node0</title>
<ellipse fill="none" stroke="black" cx="42.2463" cy="-131" rx="42.4939" ry="18"/>
<text text-anchor="middle" x="42.2463" y="-127.3" font-family="Times New Roman,serif" font-size="14.00">(0) Input</text>
</g>
<!-- node5 -->
<g id="node6" class="node"><title>node5</title>
<ellipse fill="none" stroke="black" cx="183.389" cy="-115" rx="42.7926" ry="18"/>
<text text-anchor="middle" x="183.389" y="-111.3" font-family="Times New Roman,serif" font-size="14.00">(5) XOR</text>
</g>
<!-- node0&#45;&gt;node5 -->
<g id="edge2" class="edge"><title>node0&#45;&gt;node5</title>
<path fill="none" stroke="black" d="M77.4421,-120.888C85.581,-118.887 94.2865,-117.075 102.493,-116 111.387,-114.835 120.885,-114.195 130.116,-113.888"/>
<polygon fill="black" stroke="black" points="130.451,-117.382 140.376,-113.674 130.305,-110.384 130.451,-117.382"/>
<text text-anchor="middle" x="112.493" y="-119.8" font-family="Times New Roman,serif" font-size="14.00"> (1)</text>
</g>
<!-- node13 -->
<g id="node14" class="node"><title>node13</title>
<ellipse fill="none" stroke="black" cx="291.081" cy="-215" rx="46.5926" ry="18"/>
<text text-anchor="middle" x="291.081" y="-211.3" font-family="Times New Roman,serif" font-size="14.00">(13) AND</text>
</g>
<!-- node0&#45;&gt;node13 -->
<g id="edge17" class="edge"><title>node0&#45;&gt;node13</title>
<path fill="none" stroke="black" d="M80.6187,-138.87C93.9414,-141.962 108.988,-145.783 122.493,-150 166.821,-163.841 216.242,-183.555 249.856,-197.636"/>
<polygon fill="black" stroke="black" points="248.754,-200.97 259.329,-201.63 251.474,-194.52 248.754,-200.97"/>
<text text-anchor="middle" x="112.493" y="-153.8" font-family="Times New Roman,serif" font-size="14.00"> (0)</text>
</g>
<!-- node1 -->
<g id="node2" class="node"><title>node1</title>
<ellipse fill="none" stroke="black" cx="42.2463" cy="-298" rx="42.4939" ry="18"/>
<text text-anchor="middle" x="42.2463" y="-294.3" font-family="Times New Roman,serif" font-size="14.00">(1) Input</text>
</g>
<!-- node7 -->
<g id="node8" class="node"><title>node7</title>
<ellipse fill="none" stroke="black" cx="549.664" cy="-317" rx="42.7926" ry="18"/>
<text text-anchor="middle" x="549.664" y="-313.3" font-family="Times New Roman,serif" font-size="14.00">(7) XOR</text>
</g>
<!-- node1&#45;&gt;node7 -->
<g id="edge6" class="edge"><title>node1&#45;&gt;node7</title>
<path fill="none" stroke="black" d="M84.6067,-299.555C176.142,-302.996 395.707,-311.25 496.49,-315.039"/>
<polygon fill="black" stroke="black" points="496.608,-318.545 506.732,-315.424 496.871,-311.55 496.608,-318.545"/>
<text text-anchor="middle" x="291.081" y="-312.8" font-family="Times New Roman,serif" font-size="14.00"> (1)</text>
</g>
<!-- node8 -->
<g id="node9" class="node"><title>node8</title>
<ellipse fill="none" stroke="black" cx="549.664" cy="-263" rx="42.4939" ry="18"/>
<text text-anchor="middle" x="549.664" y="-259.3" font-family="Times New Roman,serif" font-size="14.00">(8) AND</text>
</g>
<!-- node1&#45;&gt;node8 -->
<g id="edge7" class="edge"><title>node1&#45;&gt;node8</title>
<path fill="none" stroke="black" d="M84.1786,-295.165C175.762,-288.823 397.027,-273.501 497.501,-266.543"/>
<polygon fill="black" stroke="black" points="497.969,-270.019 507.703,-265.837 497.485,-263.036 497.969,-270.019"/>
<text text-anchor="middle" x="291.081" y="-286.8" font-family="Times New Roman,serif" font-size="14.00"> (0)</text>
</g>
<!-- node2 -->
<g id="node3" class="node"><title>node2</title>
<ellipse fill="none" stroke="black" cx="42.2463" cy="-210" rx="42.4939" ry="18"/>
<text text-anchor="middle" x="42.2463" y="-206.3" font-family="Times New Roman,serif" font-size="14.00">(2) Input</text>
</g>
<!-- node2&#45;&gt;node5 -->
<g id="edge1" class="edge"><title>node2&#45;&gt;node5</title>
<path fill="none" stroke="black" d="M72.1299,-197.26C87.6138,-189.895 106.7,-179.934 122.493,-169 135.275,-160.15 148.239,-148.817 158.82,-138.821"/>
<polygon fill="black" stroke="black" points="161.299,-141.293 166.068,-131.832 156.44,-136.254 161.299,-141.293"/>
<text text-anchor="middle" x="112.493" y="-183.8" font-family="Times New Roman,serif" font-size="14.00"> (0)</text>
</g>
<!-- node2&#45;&gt;node13 -->
<g id="edge18" class="edge"><title>node2&#45;&gt;node13</title>
<path fill="none" stroke="black" d="M84.5608,-210.837C125.432,-211.665 188.288,-212.938 233.727,-213.858"/>
<polygon fill="black" stroke="black" points="233.94,-217.363 244.009,-214.067 234.082,-210.365 233.94,-217.363"/>
<text text-anchor="middle" x="112.493" y="-214.8" font-family="Times New Roman,serif" font-size="14.00"> (1)</text>
</g>
<!-- node3 -->
<g id="node4" class="node"><title>node3</title>
<ellipse fill="none" stroke="black" cx="42.2463" cy="-439" rx="42.4939" ry="18"/>
<text text-anchor="middle" x="42.2463" y="-435.3" font-family="Times New Roman,serif" font-size="14.00">(3) Input</text>
</g>
<!-- node9 -->
<g id="node10" class="node"><title>node9</title>
<ellipse fill="none" stroke="black" cx="696.006" cy="-389" rx="42.4939" ry="18"/>
<text text-anchor="middle" x="696.006" y="-385.3" font-family="Times New Roman,serif" font-size="14.00">(9) AND</text>
</g>
<!-- node3&#45;&gt;node9 -->
<g id="edge9" class="edge"><title>node3&#45;&gt;node9</title>
<path fill="none" stroke="black" d="M83.4166,-443.048C174.903,-451.218 405.338,-465.854 592.561,-428 615.061,-423.451 639.101,-414.53 658.236,-406.368"/>
<polygon fill="black" stroke="black" points="659.725,-409.536 667.483,-402.32 656.918,-403.124 659.725,-409.536"/>
<text text-anchor="middle" x="403.322" y="-454.8" font-family="Times New Roman,serif" font-size="14.00"> (0)</text>
</g>
<!-- node10 -->
<g id="node11" class="node"><title>node10</title>
<ellipse fill="none" stroke="black" cx="696.006" cy="-328" rx="47.3916" ry="18"/>
<text text-anchor="middle" x="696.006" y="-324.3" font-family="Times New Roman,serif" font-size="14.00">(10) XOR</text>
</g>
<!-- node3&#45;&gt;node10 -->
<g id="edge11" class="edge"><title>node3&#45;&gt;node10</title>
<path fill="none" stroke="black" d="M77.8186,-429.263C105.786,-422.243 146.31,-414 182.389,-414 182.389,-414 182.389,-414 479.768,-414 530.283,-414 550.222,-427.554 592.561,-400 605.593,-391.519 599.141,-380.553 610.561,-370 622.09,-359.346 636.828,-350.781 650.754,-344.235"/>
<polygon fill="black" stroke="black" points="652.503,-347.288 660.216,-340.025 649.657,-340.892 652.503,-347.288"/>
<text text-anchor="middle" x="403.322" y="-417.8" font-family="Times New Roman,serif" font-size="14.00"> (0)</text>
</g>
<!-- node4 -->
<g id="node5" class="node"><title>node4</title>
<ellipse fill="none" stroke="black" cx="42.2463" cy="-47" rx="42.4939" ry="18"/>
<text text-anchor="middle" x="42.2463" y="-43.3" font-family="Times New Roman,serif" font-size="14.00">(4) Input</text>
</g>
<!-- node6 -->
<g id="node7" class="node"><title>node6</title>
<ellipse fill="none" stroke="black" cx="403.322" cy="-147" rx="42.4939" ry="18"/>
<text text-anchor="middle" x="403.322" y="-143.3" font-family="Times New Roman,serif" font-size="14.00">(6) AND</text>
</g>
<!-- node4&#45;&gt;node6 -->
<g id="edge4" class="edge"><title>node4&#45;&gt;node6</title>
<path fill="none" stroke="black" d="M84.2086,-49.7935C121.713,-53.0596 178.486,-59.7959 226.285,-73 276.525,-86.8785 331.452,-111.62 366.359,-128.648"/>
<polygon fill="black" stroke="black" points="365.137,-131.948 375.654,-133.231 368.233,-125.669 365.137,-131.948"/>
<text text-anchor="middle" x="183.389" y="-76.8" font-family="Times New Roman,serif" font-size="14.00"> (1)</text>
</g>
<!-- node12 -->
<g id="node13" class="node"><title>node12</title>
<ellipse fill="none" stroke="black" cx="403.322" cy="-18" rx="47.3916" ry="18"/>
<text text-anchor="middle" x="403.322" y="-14.3" font-family="Times New Roman,serif" font-size="14.00">(12) XOR</text>
</g>
<!-- node4&#45;&gt;node12 -->
<g id="edge15" class="edge"><title>node4&#45;&gt;node12</title>
<path fill="none" stroke="black" d="M79.0324,-38.1358C97.3029,-33.9948 119.954,-29.4473 140.493,-27 210.779,-18.6249 292.37,-17.1064 345.547,-17.2032"/>
<polygon fill="black" stroke="black" points="345.778,-20.704 355.792,-17.2425 345.805,-13.7041 345.778,-20.704"/>
<text text-anchor="middle" x="183.389" y="-30.8" font-family="Times New Roman,serif" font-size="14.00"> (0)</text>
</g>
<!-- node5&#45;&gt;node6 -->
<g id="edge3" class="edge"><title>node5&#45;&gt;node6</title>
<path fill="none" stroke="black" d="M224.108,-120.832C260.398,-126.161 314.184,-134.058 353.169,-139.783"/>
<polygon fill="black" stroke="black" points="352.841,-143.272 363.243,-141.262 353.858,-136.346 352.841,-143.272"/>
<text text-anchor="middle" x="291.081" y="-140.8" font-family="Times New Roman,serif" font-size="14.00"> (0)</text>
</g>
<!-- node5&#45;&gt;node12 -->
<g id="edge16" class="edge"><title>node5&#45;&gt;node12</title>
<path fill="none" stroke="black" d="M213.78,-101.918C252.126,-84.851 319.378,-54.9175 362.337,-35.7969"/>
<polygon fill="black" stroke="black" points="363.932,-38.9183 371.645,-31.6544 361.085,-32.5231 363.932,-38.9183"/>
<text text-anchor="middle" x="291.081" y="-89.8" font-family="Times New Roman,serif" font-size="14.00"> (1)</text>
</g>
<!-- node6&#45;&gt;node7 -->
<g id="edge5" class="edge"><title>node6&#45;&gt;node7</title>
<path fill="none" stroke="black" d="M413.884,-164.443C430.188,-193.092 465.626,-250.833 506.768,-290 509.289,-292.4 512.052,-294.712 514.918,-296.904"/>
<polygon fill="black" stroke="black" points="512.974,-299.816 523.157,-302.742 517.021,-294.105 512.974,-299.816"/>
<text text-anchor="middle" x="478.768" y="-272.8" font-family="Times New Roman,serif" font-size="14.00"> (0)</text>
</g>
<!-- node6&#45;&gt;node8 -->
<g id="edge8" class="edge"><title>node6&#45;&gt;node8</title>
<path fill="none" stroke="black" d="M424.09,-162.886C449.107,-182.991 492.351,-217.744 520.734,-240.554"/>
<polygon fill="black" stroke="black" points="518.685,-243.397 528.672,-246.934 523.07,-237.941 518.685,-243.397"/>
<text text-anchor="middle" x="478.768" y="-214.8" font-family="Times New Roman,serif" font-size="14.00"> (1)</text>
</g>
<!-- node7&#45;&gt;node9 -->
<g id="edge10" class="edge"><title>node7&#45;&gt;node9</title>
<path fill="none" stroke="black" d="M578.154,-330.712C600.928,-342.072 633.489,-358.314 658.458,-370.769"/>
<polygon fill="black" stroke="black" points="657.108,-374.007 667.619,-375.339 660.233,-367.743 657.108,-374.007"/>
<text text-anchor="middle" x="620.561" y="-358.8" font-family="Times New Roman,serif" font-size="14.00"> (1)</text>
</g>
<!-- node7&#45;&gt;node10 -->
<g id="edge12" class="edge"><title>node7&#45;&gt;node10</title>
<path fill="none" stroke="black" d="M592.027,-320.152C606.719,-321.272 623.509,-322.551 639.208,-323.748"/>
<polygon fill="black" stroke="black" points="639.096,-327.249 649.333,-324.519 639.628,-320.27 639.096,-327.249"/>
<text text-anchor="middle" x="620.561" y="-325.8" font-family="Times New Roman,serif" font-size="14.00"> (1)</text>
</g>
<!-- node11 -->
<g id="node12" class="node"><title>node11</title>
<ellipse fill="none" stroke="black" cx="846.898" cy="-295" rx="40.8928" ry="18"/>
<text text-anchor="middle" x="846.898" y="-291.3" font-family="Times New Roman,serif" font-size="14.00">(11) OR</text>
</g>
<!-- node8&#45;&gt;node11 -->
<g id="edge13" class="edge"><title>node8&#45;&gt;node11</title>
<path fill="none" stroke="black" d="M590.788,-267.349C644.331,-273.152 739.084,-283.423 796.82,-289.681"/>
<polygon fill="black" stroke="black" points="796.484,-293.164 806.803,-290.763 797.238,-286.205 796.484,-293.164"/>
<text text-anchor="middle" x="696.006" y="-286.8" font-family="Times New Roman,serif" font-size="14.00"> (0)</text>
</g>
<!-- node9&#45;&gt;node11 -->
<g id="edge14" class="edge"><title>node9&#45;&gt;node11</title>
<path fill="none" stroke="black" d="M721.55,-374.386C729.234,-368.985 737.302,-362.363 743.452,-355 755.175,-340.964 747.371,-329.668 761.452,-318 771.423,-309.738 784.113,-304.428 796.607,-301.02"/>
<polygon fill="black" stroke="black" points="797.603,-304.381 806.529,-298.675 795.992,-297.569 797.603,-304.381"/>
<text text-anchor="middle" x="771.452" y="-321.8" font-family="Times New Roman,serif" font-size="14.00"> (1)</text>
</g>
<!-- node14 -->
<g id="node15" class="node"><title>node14</title>
<ellipse fill="none" stroke="black" cx="846.898" cy="-241" rx="46.5926" ry="18"/>
<text text-anchor="middle" x="846.898" y="-237.3" font-family="Times New Roman,serif" font-size="14.00">(14) AND</text>
</g>
<!-- node10&#45;&gt;node14 -->
<g id="edge20" class="edge"><title>node10&#45;&gt;node14</title>
<path fill="none" stroke="black" d="M720.001,-312.201C727.742,-306.49 736.239,-299.773 743.452,-293 752.413,-284.585 751.355,-279.012 761.452,-272 772.181,-264.549 784.914,-258.658 797.195,-254.102"/>
<polygon fill="black" stroke="black" points="798.603,-257.318 806.901,-250.731 796.307,-250.706 798.603,-257.318"/>
<text text-anchor="middle" x="771.452" y="-275.8" font-family="Times New Roman,serif" font-size="14.00"> (1)</text>
</g>
<!-- node16 -->
<g id="node17" class="node"><title>node16</title>
<ellipse fill="none" stroke="black" cx="846.898" cy="-349" rx="47.3916" ry="18"/>
<text text-anchor="middle" x="846.898" y="-345.3" font-family="Times New Roman,serif" font-size="14.00">(16) XOR</text>
</g>
<!-- node10&#45;&gt;node16 -->
<g id="edge24" class="edge"><title>node10&#45;&gt;node16</title>
<path fill="none" stroke="black" d="M740.873,-334.187C756.857,-336.441 775.116,-339.017 791.878,-341.381"/>
<polygon fill="black" stroke="black" points="791.696,-344.89 802.087,-342.821 792.674,-337.958 791.696,-344.89"/>
<text text-anchor="middle" x="771.452" y="-342.8" font-family="Times New Roman,serif" font-size="14.00"> (1)</text>
</g>
<!-- node15 -->
<g id="node16" class="node"><title>node15</title>
<ellipse fill="none" stroke="black" cx="997.79" cy="-272" rx="47.3916" ry="18"/>
<text text-anchor="middle" x="997.79" y="-268.3" font-family="Times New Roman,serif" font-size="14.00">(15) XOR</text>
</g>
<!-- node11&#45;&gt;node15 -->
<g id="edge21" class="edge"><title>node11&#45;&gt;node15</title>
<path fill="none" stroke="black" d="M885.855,-289.137C903.383,-286.429 924.496,-283.168 943.577,-280.22"/>
<polygon fill="black" stroke="black" points="944.288,-283.652 953.636,-278.666 943.219,-276.734 944.288,-283.652"/>
<text text-anchor="middle" x="922.344" y="-287.8" font-family="Times New Roman,serif" font-size="14.00"> (0)</text>
</g>
<!-- node17 -->
<g id="node18" class="node"><title>node17</title>
<ellipse fill="none" stroke="black" cx="1125.13" cy="-18" rx="42.7926" ry="18"/>
<text text-anchor="middle" x="1125.13" y="-14.3" font-family="Times New Roman,serif" font-size="14.00">Output 0</text>
</g>
<!-- node12&#45;&gt;node17 -->
<g id="edge25" class="edge"><title>node12&#45;&gt;node17</title>
<path fill="none" stroke="black" d="M450.801,-18C479.092,-18 515.962,-18 548.664,-18 548.664,-18 548.664,-18 998.79,-18 1022.85,-18 1049.51,-18 1072.03,-18"/>
<polygon fill="black" stroke="black" points="1072.06,-21.5001 1082.06,-18 1072.06,-14.5001 1072.06,-21.5001"/>
</g>
<!-- node13&#45;&gt;node14 -->
<g id="edge19" class="edge"><title>node13&#45;&gt;node14</title>
<path fill="none" stroke="black" d="M336.685,-210.873C374.272,-207.751 429.489,-204 477.768,-204 477.768,-204 477.768,-204 697.006,-204 733.979,-204 774.631,-214.878 804.103,-224.838"/>
<polygon fill="black" stroke="black" points="803.053,-228.178 813.648,-228.163 805.356,-221.568 803.053,-228.178"/>
<text text-anchor="middle" x="549.664" y="-207.8" font-family="Times New Roman,serif" font-size="14.00"> (0)</text>
</g>
<!-- node13&#45;&gt;node16 -->
<g id="edge23" class="edge"><title>node13&#45;&gt;node16</title>
<path fill="none" stroke="black" d="M311.647,-231.412C362.83,-273.071 506.566,-382.014 648.561,-416 689.576,-425.817 703.034,-428.043 743.452,-416 772.144,-407.451 800.281,-388.022 819.785,-372.276"/>
<polygon fill="black" stroke="black" points="822.133,-374.876 827.592,-365.795 817.662,-369.489 822.133,-374.876"/>
<text text-anchor="middle" x="549.664" y="-401.8" font-family="Times New Roman,serif" font-size="14.00"> (0)</text>
</g>
<!-- node14&#45;&gt;node15 -->
<g id="edge22" class="edge"><title>node14&#45;&gt;node15</title>
<path fill="none" stroke="black" d="M888.583,-249.471C906.318,-253.163 927.297,-257.531 946.039,-261.433"/>
<polygon fill="black" stroke="black" points="945.391,-264.874 955.895,-263.486 946.818,-258.021 945.391,-264.874"/>
<text text-anchor="middle" x="922.344" y="-261.8" font-family="Times New Roman,serif" font-size="14.00"> (1)</text>
</g>
<!-- node19 -->
<g id="node20" class="node"><title>node19</title>
<ellipse fill="none" stroke="black" cx="1125.13" cy="-272" rx="42.7926" ry="18"/>
<text text-anchor="middle" x="1125.13" y="-268.3" font-family="Times New Roman,serif" font-size="14.00">Output 2</text>
</g>
<!-- node15&#45;&gt;node19 -->
<g id="edge27" class="edge"><title>node15&#45;&gt;node19</title>
<path fill="none" stroke="black" d="M1045.46,-272C1054.07,-272 1063.1,-272 1071.86,-272"/>
<polygon fill="black" stroke="black" points="1071.97,-275.5 1081.97,-272 1071.97,-268.5 1071.97,-275.5"/>
</g>
<!-- node18 -->
<g id="node19" class="node"><title>node18</title>
<ellipse fill="none" stroke="black" cx="1125.13" cy="-349" rx="42.7926" ry="18"/>
<text text-anchor="middle" x="1125.13" y="-345.3" font-family="Times New Roman,serif" font-size="14.00">Output 1</text>
</g>
<!-- node16&#45;&gt;node18 -->
<g id="edge26" class="edge"><title>node16&#45;&gt;node18</title>
<path fill="none" stroke="black" d="M894.445,-349C943.497,-349 1020.6,-349 1071.74,-349"/>
<polygon fill="black" stroke="black" points="1071.93,-352.5 1081.93,-349 1071.93,-345.5 1071.93,-352.5"/>
</g>
</g>
</svg>
