<?xml version="1.0" encoding="UTF-8" standalone="no"?>
<!DOCTYPE svg PUBLIC "-//W3C//DTD SVG 1.1//EN"
 "http://www.w3.org/Graphics/SVG/1.1/DTD/svg11.dtd">
<!-- Generated by graphviz version 2.38.0 (20140413.2041)
 -->
<!-- Title: NeuralNetwork Pages: 1 -->
<svg width="288pt" height="71pt"
 viewBox="0.00 0.00 288.00 70.98" xmlns="http://www.w3.org/2000/svg" xmlns:xlink="http://www.w3.org/1999/xlink">
<g id="graph0" class="graph" transform="scale(0.216408 0.216408) rotate(0) translate(4 324)">
<title>NeuralNetwork</title>
<polygon fill="white" stroke="none" points="-4,4 -4,-324 1326.82,-324 1326.82,4 -4,4"/>
<!-- node0 -->
<g id="node1" class="node"><title>node0</title>
<ellipse fill="none" stroke="black" cx="42.2463" cy="-96" rx="42.4939" ry="18"/>
<text text-anchor="middle" x="42.2463" y="-92.3" font-family="Times New Roman,serif" font-size="14.00">(0) Input</text>
</g>
<!-- node8 -->
<g id="node9" class="node"><title>node8</title>
<ellipse fill="none" stroke="black" cx="183.389" cy="-116" rx="42.7926" ry="18"/>
<text text-anchor="middle" x="183.389" y="-112.3" font-family="Times New Roman,serif" font-size="14.00">(8) XOR</text>
</g>
<!-- node0&#45;&gt;node8 -->
<g id="edge5" class="edge"><title>node0&#45;&gt;node8</title>
<path fill="none" stroke="black" d="M84.5746,-94.2291C96.8433,-94.3195 110.267,-95.0284 122.493,-97 128.495,-97.9681 134.723,-99.4152 140.794,-101.087"/>
<polygon fill="black" stroke="black" points="140.211,-104.565 150.794,-104.067 142.21,-97.8569 140.211,-104.565"/>
<text text-anchor="middle" x="112.493" y="-100.8" font-family="Times New Roman,serif" font-size="14.00"> (0)</text>
</g>
<!-- node1 -->
<g id="node2" class="node"><title>node1</title>
<ellipse fill="none" stroke="black" cx="42.2463" cy="-287" rx="42.4939" ry="18"/>
<text text-anchor="middle" x="42.2463" y="-283.3" font-family="Times New Roman,serif" font-size="14.00">(1) Input</text>
</g>
<!-- node5 -->
<g id="node6" class="node"><title>node5</title>
<ellipse fill="none" stroke="black" cx="183.389" cy="-277" rx="42.4939" ry="18"/>
<text text-anchor="middle" x="183.389" y="-273.3" font-family="Times New Roman,serif" font-size="14.00">(5) NEG</text>
</g>
<!-- node1&#45;&gt;node5 -->
<g id="edge1" class="edge"><title>node1&#45;&gt;node5</title>
<path fill="none" stroke="black" d="M84.241,-284.054C99.1025,-282.986 116.07,-281.766 131.669,-280.645"/>
<polygon fill="black" stroke="black" points="131.964,-284.133 141.687,-279.925 131.462,-277.151 131.964,-284.133"/>
<text text-anchor="middle" x="112.493" y="-285.8" font-family="Times New Roman,serif" font-size="14.00"> (0)</text>
</g>
<!-- node9 -->
<g id="node10" class="node"><title>node9</title>
<ellipse fill="none" stroke="black" cx="479.322" cy="-295" rx="42.4939" ry="18"/>
<text text-anchor="middle" x="479.322" y="-291.3" font-family="Times New Roman,serif" font-size="14.00">(9) AND</text>
</g>
<!-- node1&#45;&gt;node9 -->
<g id="edge7" class="edge"><title>node1&#45;&gt;node9</title>
<path fill="none" stroke="black" d="M78.7869,-296.331C86.5554,-298.109 94.7656,-299.789 102.493,-301 119.23,-303.622 123.564,-303.333 140.493,-304 242.191,-308.008 361.184,-302.452 427.337,-298.453"/>
<polygon fill="black" stroke="black" points="427.724,-301.936 437.489,-297.826 427.293,-294.949 427.724,-301.936"/>
<text text-anchor="middle" x="254.285" y="-308.8" font-family="Times New Roman,serif" font-size="14.00"> (0)</text>
</g>
<!-- node2 -->
<g id="node3" class="node"><title>node2</title>
<ellipse fill="none" stroke="black" cx="42.2463" cy="-18" rx="42.4939" ry="18"/>
<text text-anchor="middle" x="42.2463" y="-14.3" font-family="Times New Roman,serif" font-size="14.00">(2) Input</text>
</g>
<!-- node10 -->
<g id="node11" class="node"><title>node10</title>
<ellipse fill="none" stroke="black" cx="329.731" cy="-116" rx="46.5926" ry="18"/>
<text text-anchor="middle" x="329.731" y="-112.3" font-family="Times New Roman,serif" font-size="14.00">(10) AND</text>
</g>
<!-- node2&#45;&gt;node10 -->
<g id="edge9" class="edge"><title>node2&#45;&gt;node10</title>
<path fill="none" stroke="black" d="M82.128,-24.0692C136.569,-32.9391 232.42,-50.0186 264.285,-65 278.831,-71.839 293.055,-82.5352 304.424,-92.3695"/>
<polygon fill="black" stroke="black" points="302.38,-95.2379 312.161,-99.3105 307.054,-90.0274 302.38,-95.2379"/>
<text text-anchor="middle" x="183.389" y="-55.8" font-family="Times New Roman,serif" font-size="14.00"> (0)</text>
</g>
<!-- node12 -->
<g id="node13" class="node"><title>node12</title>
<ellipse fill="none" stroke="black" cx="329.731" cy="-28" rx="47.3916" ry="18"/>
<text text-anchor="middle" x="329.731" y="-24.3" font-family="Times New Roman,serif" font-size="14.00">(12) XOR</text>
</g>
<!-- node2&#45;&gt;node12 -->
<g id="edge14" class="edge"><title>node2&#45;&gt;node12</title>
<path fill="none" stroke="black" d="M82.919,-12.9914C100.522,-11.0092 121.509,-8.9735 140.493,-8 178.572,-6.04724 188.332,-4.32996 226.285,-8 243.612,-9.67553 262.361,-12.9098 279.024,-16.297"/>
<polygon fill="black" stroke="black" points="278.592,-19.7827 289.098,-18.4132 280.032,-12.9322 278.592,-19.7827"/>
<text text-anchor="middle" x="183.389" y="-11.8" font-family="Times New Roman,serif" font-size="14.00"> (1)</text>
</g>
<!-- node3 -->
<g id="node4" class="node"><title>node3</title>
<ellipse fill="none" stroke="black" cx="42.2463" cy="-226" rx="42.4939" ry="18"/>
<text text-anchor="middle" x="42.2463" y="-222.3" font-family="Times New Roman,serif" font-size="14.00">(3) Input</text>
</g>
<!-- node7 -->
<g id="node8" class="node"><title>node7</title>
<ellipse fill="none" stroke="black" cx="329.731" cy="-249" rx="42.7926" ry="18"/>
<text text-anchor="middle" x="329.731" y="-245.3" font-family="Times New Roman,serif" font-size="14.00">(7) XOR</text>
</g>
<!-- node3&#45;&gt;node7 -->
<g id="edge3" class="edge"><title>node3&#45;&gt;node7</title>
<path fill="none" stroke="black" d="M84.755,-227.015C121.901,-228.168 177.814,-230.505 226.285,-235 243.603,-236.606 262.488,-239.002 279.271,-241.36"/>
<polygon fill="black" stroke="black" points="279.022,-244.859 289.417,-242.815 280.016,-237.93 279.022,-244.859"/>
<text text-anchor="middle" x="183.389" y="-238.8" font-family="Times New Roman,serif" font-size="14.00"> (0)</text>
</g>
<!-- node4 -->
<g id="node5" class="node"><title>node4</title>
<ellipse fill="none" stroke="black" cx="42.2463" cy="-161" rx="42.4939" ry="18"/>
<text text-anchor="middle" x="42.2463" y="-157.3" font-family="Times New Roman,serif" font-size="14.00">(4) Input</text>
</g>
<!-- node6 -->
<g id="node7" class="node"><title>node6</title>
<ellipse fill="none" stroke="black" cx="183.389" cy="-172" rx="42.4939" ry="18"/>
<text text-anchor="middle" x="183.389" y="-168.3" font-family="Times New Roman,serif" font-size="14.00">(6) NEG</text>
</g>
<!-- node4&#45;&gt;node6 -->
<g id="edge2" class="edge"><title>node4&#45;&gt;node6</title>
<path fill="none" stroke="black" d="M83.8661,-164.211C98.7371,-165.387 115.756,-166.732 131.418,-167.97"/>
<polygon fill="black" stroke="black" points="131.233,-171.467 141.478,-168.766 131.784,-164.488 131.233,-171.467"/>
<text text-anchor="middle" x="112.493" y="-170.8" font-family="Times New Roman,serif" font-size="14.00"> (0)</text>
</g>
<!-- node4&#45;&gt;node8 -->
<g id="edge6" class="edge"><title>node4&#45;&gt;node8</title>
<path fill="none" stroke="black" d="M76.5743,-150.221C95.3675,-144.143 119.056,-136.482 139.253,-129.951"/>
<polygon fill="black" stroke="black" points="140.413,-133.254 148.85,-126.847 138.258,-126.594 140.413,-133.254"/>
<text text-anchor="middle" x="112.493" y="-144.8" font-family="Times New Roman,serif" font-size="14.00"> (1)</text>
</g>
<!-- node5&#45;&gt;node7 -->
<g id="edge4" class="edge"><title>node5&#45;&gt;node7</title>
<path fill="none" stroke="black" d="M222.313,-269.643C240.155,-266.182 261.633,-262.016 280.607,-258.335"/>
<polygon fill="black" stroke="black" points="281.408,-261.745 290.559,-256.405 280.075,-254.873 281.408,-261.745"/>
<text text-anchor="middle" x="254.285" y="-267.8" font-family="Times New Roman,serif" font-size="14.00"> (1)</text>
</g>
<!-- node11 -->
<g id="node12" class="node"><title>node11</title>
<ellipse fill="none" stroke="black" cx="329.731" cy="-177" rx="40.8928" ry="18"/>
<text text-anchor="middle" x="329.731" y="-173.3" font-family="Times New Roman,serif" font-size="14.00">(11) OR</text>
</g>
<!-- node6&#45;&gt;node11 -->
<g id="edge11" class="edge"><title>node6&#45;&gt;node11</title>
<path fill="none" stroke="black" d="M225.751,-173.433C242.17,-174.002 261.209,-174.661 278.416,-175.257"/>
<polygon fill="black" stroke="black" points="278.739,-178.77 288.854,-175.619 278.981,-171.774 278.739,-178.77"/>
<text text-anchor="middle" x="254.285" y="-177.8" font-family="Times New Roman,serif" font-size="14.00"> (0)</text>
</g>
<!-- node7&#45;&gt;node9 -->
<g id="edge8" class="edge"><title>node7&#45;&gt;node9</title>
<path fill="none" stroke="black" d="M364.591,-259.553C385.571,-266.092 412.714,-274.552 435.222,-281.567"/>
<polygon fill="black" stroke="black" points="434.286,-284.941 444.874,-284.575 436.368,-278.258 434.286,-284.941"/>
<text text-anchor="middle" x="405.176" y="-277.8" font-family="Times New Roman,serif" font-size="14.00"> (1)</text>
</g>
<!-- node13 -->
<g id="node14" class="node"><title>node13</title>
<ellipse fill="none" stroke="black" cx="479.322" cy="-241" rx="46.2923" ry="18"/>
<text text-anchor="middle" x="479.322" y="-237.3" font-family="Times New Roman,serif" font-size="14.00">(13) NEG</text>
</g>
<!-- node7&#45;&gt;node13 -->
<g id="edge15" class="edge"><title>node7&#45;&gt;node13</title>
<path fill="none" stroke="black" d="M372.63,-246.729C388.368,-245.876 406.503,-244.893 423.259,-243.985"/>
<polygon fill="black" stroke="black" points="423.684,-247.467 433.48,-243.431 423.305,-240.477 423.684,-247.467"/>
<text text-anchor="middle" x="405.176" y="-248.8" font-family="Times New Roman,serif" font-size="14.00"> (0)</text>
</g>
<!-- node8&#45;&gt;node10 -->
<g id="edge10" class="edge"><title>node8&#45;&gt;node10</title>
<path fill="none" stroke="black" d="M226.526,-116C240.86,-116 257.116,-116 272.38,-116"/>
<polygon fill="black" stroke="black" points="272.753,-119.5 282.753,-116 272.753,-112.5 272.753,-119.5"/>
<text text-anchor="middle" x="254.285" y="-119.8" font-family="Times New Roman,serif" font-size="14.00"> (1)</text>
</g>
<!-- node8&#45;&gt;node11 -->
<g id="edge12" class="edge"><title>node8&#45;&gt;node11</title>
<path fill="none" stroke="black" d="M214.296,-128.639C236.214,-137.902 266.162,-150.558 289.923,-160.6"/>
<polygon fill="black" stroke="black" points="288.781,-163.917 299.355,-164.586 291.506,-157.469 288.781,-163.917"/>
<text text-anchor="middle" x="254.285" y="-151.8" font-family="Times New Roman,serif" font-size="14.00"> (1)</text>
</g>
<!-- node8&#45;&gt;node12 -->
<g id="edge13" class="edge"><title>node8&#45;&gt;node12</title>
<path fill="none" stroke="black" d="M208.548,-101.271C232.198,-86.8521 268.437,-64.7586 294.939,-48.6015"/>
<polygon fill="black" stroke="black" points="296.805,-51.5633 303.521,-43.3693 293.161,-45.5864 296.805,-51.5633"/>
<text text-anchor="middle" x="254.285" y="-80.8" font-family="Times New Roman,serif" font-size="14.00"> (0)</text>
</g>
<!-- node18 -->
<g id="node19" class="node"><title>node18</title>
<ellipse fill="none" stroke="black" cx="1152.58" cy="-277" rx="47.3916" ry="18"/>
<text text-anchor="middle" x="1152.58" y="-273.3" font-family="Times New Roman,serif" font-size="14.00">(18) XOR</text>
</g>
<!-- node9&#45;&gt;node18 -->
<g id="edge23" class="edge"><title>node9&#45;&gt;node18</title>
<path fill="none" stroke="black" d="M521.672,-294.14C551.261,-293.598 592.038,-293 627.914,-293 627.914,-293 627.914,-293 931.047,-293 987.673,-293 1052.26,-287.688 1096.84,-283.185"/>
<polygon fill="black" stroke="black" points="1097.29,-286.657 1106.88,-282.151 1096.57,-279.694 1097.29,-286.657"/>
<text text-anchor="middle" x="779.806" y="-296.8" font-family="Times New Roman,serif" font-size="14.00"> (0)</text>
</g>
<!-- node14 -->
<g id="node15" class="node"><title>node14</title>
<ellipse fill="none" stroke="black" cx="628.914" cy="-131" rx="47.3916" ry="18"/>
<text text-anchor="middle" x="628.914" y="-127.3" font-family="Times New Roman,serif" font-size="14.00">(14) XOR</text>
</g>
<!-- node10&#45;&gt;node14 -->
<g id="edge17" class="edge"><title>node10&#45;&gt;node14</title>
<path fill="none" stroke="black" d="M376.19,-118.295C428.54,-120.937 514.59,-125.28 571.256,-128.14"/>
<polygon fill="black" stroke="black" points="571.317,-131.648 581.48,-128.656 571.67,-124.657 571.317,-131.648"/>
<text text-anchor="middle" x="479.322" y="-128.8" font-family="Times New Roman,serif" font-size="14.00"> (1)</text>
</g>
<!-- node15 -->
<g id="node16" class="node"><title>node15</title>
<ellipse fill="none" stroke="black" cx="779.806" cy="-177" rx="47.3916" ry="18"/>
<text text-anchor="middle" x="779.806" y="-173.3" font-family="Times New Roman,serif" font-size="14.00">(15) XOR</text>
</g>
<!-- node11&#45;&gt;node15 -->
<g id="edge19" class="edge"><title>node11&#45;&gt;node15</title>
<path fill="none" stroke="black" d="M370.722,-176.268C413.479,-175.525 483.262,-174.424 543.468,-174 604.565,-173.569 674.578,-174.665 722.248,-175.651"/>
<polygon fill="black" stroke="black" points="722.296,-179.153 732.368,-175.866 722.445,-172.155 722.296,-179.153"/>
<text text-anchor="middle" x="553.468" y="-177.8" font-family="Times New Roman,serif" font-size="14.00"> (1)</text>
</g>
<!-- node19 -->
<g id="node20" class="node"><title>node19</title>
<ellipse fill="none" stroke="black" cx="1279.92" cy="-28" rx="42.7926" ry="18"/>
<text text-anchor="middle" x="1279.92" y="-24.3" font-family="Times New Roman,serif" font-size="14.00">Output 0</text>
</g>
<!-- node12&#45;&gt;node19 -->
<g id="edge25" class="edge"><title>node12&#45;&gt;node19</title>
<path fill="none" stroke="black" d="M377.262,-28C406.316,-28 444.499,-28 478.322,-28 478.322,-28 478.322,-28 1153.58,-28 1177.64,-28 1204.3,-28 1226.82,-28"/>
<polygon fill="black" stroke="black" points="1226.86,-31.5001 1236.86,-28 1226.86,-24.5001 1226.86,-31.5001"/>
</g>
<!-- node13&#45;&gt;node14 -->
<g id="edge16" class="edge"><title>node13&#45;&gt;node14</title>
<path fill="none" stroke="black" d="M508.721,-226.823C525.306,-218.011 546.284,-205.923 563.468,-193 578.329,-181.824 593.39,-167.535 605.212,-155.492"/>
<polygon fill="black" stroke="black" points="608.055,-157.585 612.478,-147.958 603.017,-152.726 608.055,-157.585"/>
<text text-anchor="middle" x="553.468" y="-209.8" font-family="Times New Roman,serif" font-size="14.00"> (0)</text>
</g>
<!-- node16 -->
<g id="node17" class="node"><title>node16</title>
<ellipse fill="none" stroke="black" cx="930.047" cy="-245" rx="46.5926" ry="18"/>
<text text-anchor="middle" x="930.047" y="-241.3" font-family="Times New Roman,serif" font-size="14.00">(16) AND</text>
</g>
<!-- node13&#45;&gt;node16 -->
<g id="edge21" class="edge"><title>node13&#45;&gt;node16</title>
<path fill="none" stroke="black" d="M525.818,-241.406C608.524,-242.143 783.249,-243.7 873.097,-244.501"/>
<polygon fill="black" stroke="black" points="873.065,-248.001 883.096,-244.59 873.128,-241.001 873.065,-248.001"/>
<text text-anchor="middle" x="704.36" y="-246.8" font-family="Times New Roman,serif" font-size="14.00"> (1)</text>
</g>
<!-- node14&#45;&gt;node15 -->
<g id="edge18" class="edge"><title>node14&#45;&gt;node15</title>
<path fill="none" stroke="black" d="M673.352,-137.812C686.67,-140.414 701.26,-143.793 714.36,-148 723.367,-150.893 732.796,-154.674 741.574,-158.546"/>
<polygon fill="black" stroke="black" points="740.242,-161.785 750.793,-162.745 743.144,-155.415 740.242,-161.785"/>
<text text-anchor="middle" x="704.36" y="-151.8" font-family="Times New Roman,serif" font-size="14.00"> (0)</text>
</g>
<!-- node15&#45;&gt;node16 -->
<g id="edge20" class="edge"><title>node15&#45;&gt;node16</title>
<path fill="none" stroke="black" d="M810.805,-190.761C833.685,-201.256 865.386,-215.798 890.204,-227.182"/>
<polygon fill="black" stroke="black" points="888.798,-230.388 899.346,-231.376 891.716,-224.025 888.798,-230.388"/>
<text text-anchor="middle" x="855.251" y="-218.8" font-family="Times New Roman,serif" font-size="14.00"> (0)</text>
</g>
<!-- node17 -->
<g id="node18" class="node"><title>node17</title>
<ellipse fill="none" stroke="black" cx="1040.99" cy="-177" rx="46.2923" ry="18"/>
<text text-anchor="middle" x="1040.99" y="-173.3" font-family="Times New Roman,serif" font-size="14.00">(17) NEG</text>
</g>
<!-- node15&#45;&gt;node17 -->
<g id="edge22" class="edge"><title>node15&#45;&gt;node17</title>
<path fill="none" stroke="black" d="M827.442,-177C871.478,-177 937.561,-177 984.334,-177"/>
<polygon fill="black" stroke="black" points="984.597,-180.5 994.597,-177 984.597,-173.5 984.597,-180.5"/>
<text text-anchor="middle" x="855.251" y="-180.8" font-family="Times New Roman,serif" font-size="14.00"> (0)</text>
</g>
<!-- node16&#45;&gt;node18 -->
<g id="edge24" class="edge"><title>node16&#45;&gt;node18</title>
<path fill="none" stroke="black" d="M975.582,-249.488C1006.88,-252.87 1049.68,-257.951 1087.13,-264 1091.56,-264.715 1096.15,-265.517 1100.75,-266.363"/>
<polygon fill="black" stroke="black" points="1100.28,-269.836 1110.76,-268.266 1101.59,-262.96 1100.28,-269.836"/>
<text text-anchor="middle" x="1040.99" y="-267.8" font-family="Times New Roman,serif" font-size="14.00"> (1)</text>
</g>
<!-- node20 -->
<g id="node21" class="node"><title>node20</title>
<ellipse fill="none" stroke="black" cx="1279.92" cy="-177" rx="42.7926" ry="18"/>
<text text-anchor="middle" x="1279.92" y="-173.3" font-family="Times New Roman,serif" font-size="14.00">Output 1</text>
</g>
<!-- node17&#45;&gt;node20 -->
<g id="edge26" class="edge"><title>node17&#45;&gt;node20</title>
<path fill="none" stroke="black" d="M1087.39,-177C1127.16,-177 1184.94,-177 1226.62,-177"/>
<polygon fill="black" stroke="black" points="1226.85,-180.5 1236.85,-177 1226.85,-173.5 1226.85,-180.5"/>
</g>
<!-- node21 -->
<g id="node22" class="node"><title>node21</title>
<ellipse fill="none" stroke="black" cx="1279.92" cy="-277" rx="42.7926" ry="18"/>
<text text-anchor="middle" x="1279.92" y="-273.3" font-family="Times New Roman,serif" font-size="14.00">Output 2</text>
</g>
<!-- node18&#45;&gt;node21 -->
<g id="edge27" class="edge"><title>node18&#45;&gt;node21</title>
<path fill="none" stroke="black" d="M1200.25,-277C1208.86,-277 1217.89,-277 1226.65,-277"/>
<polygon fill="black" stroke="black" points="1226.76,-280.5 1236.76,-277 1226.76,-273.5 1226.76,-280.5"/>
</g>
</g>
</svg>
