<?xml version="1.0" encoding="UTF-8" standalone="no"?>
<!DOCTYPE svg PUBLIC "-//W3C//DTD SVG 1.1//EN"
 "http://www.w3.org/Graphics/SVG/1.1/DTD/svg11.dtd">
<!-- Generated by graphviz version 2.38.0 (20140413.2041)
 -->
<!-- Title: NeuralNetwork Pages: 1 -->
<svg width="288pt" height="100pt"
 viewBox="0.00 0.00 288.00 100.31" xmlns="http://www.w3.org/2000/svg" xmlns:xlink="http://www.w3.org/1999/xlink">
<g id="graph0" class="graph" transform="scale(0.267501 0.267501) rotate(0) translate(4 371)">
<title>NeuralNetwork</title>
<polygon fill="white" stroke="none" points="-4,4 -4,-371 1072.63,-371 1072.63,4 -4,4"/>
<!-- node0 -->
<g id="node1" class="node"><title>node0</title>
<ellipse fill="none" stroke="black" cx="42.2463" cy="-104" rx="42.4939" ry="18"/>
<text text-anchor="middle" x="42.2463" y="-100.3" font-family="Times New Roman,serif" font-size="14.00">(0) Input</text>
</g>
<!-- node5 -->
<g id="node6" class="node"><title>node5</title>
<ellipse fill="none" stroke="black" cx="182.739" cy="-100" rx="36.2938" ry="18"/>
<text text-anchor="middle" x="182.739" y="-96.3" font-family="Times New Roman,serif" font-size="14.00">(5) OR</text>
</g>
<!-- node0&#45;&gt;node5 -->
<g id="edge1" class="edge"><title>node0&#45;&gt;node5</title>
<path fill="none" stroke="black" d="M74.1696,-92.0898C83.1655,-89.1732 93.1011,-86.469 102.493,-85 115.701,-82.9339 130.08,-84.4954 142.919,-87.2659"/>
<polygon fill="black" stroke="black" points="142.287,-90.7148 152.834,-89.7009 143.957,-83.9168 142.287,-90.7148"/>
<text text-anchor="middle" x="112.493" y="-88.8" font-family="Times New Roman,serif" font-size="14.00"> (0)</text>
</g>
<!-- node9 -->
<g id="node10" class="node"><title>node9</title>
<ellipse fill="none" stroke="black" cx="285.231" cy="-174" rx="42.4939" ry="18"/>
<text text-anchor="middle" x="285.231" y="-170.3" font-family="Times New Roman,serif" font-size="14.00">(9) AND</text>
</g>
<!-- node0&#45;&gt;node9 -->
<g id="edge10" class="edge"><title>node0&#45;&gt;node9</title>
<path fill="none" stroke="black" d="M65.4639,-119.056C76.237,-125.743 89.6093,-133.176 102.493,-138 145.308,-154.031 196.604,-163.359 233.765,-168.484"/>
<polygon fill="black" stroke="black" points="233.479,-171.977 243.852,-169.821 234.399,-165.038 233.479,-171.977"/>
<text text-anchor="middle" x="112.493" y="-146.8" font-family="Times New Roman,serif" font-size="14.00"> (1)</text>
</g>
<!-- node1 -->
<g id="node2" class="node"><title>node1</title>
<ellipse fill="none" stroke="black" cx="42.2463" cy="-349" rx="42.4939" ry="18"/>
<text text-anchor="middle" x="42.2463" y="-345.3" font-family="Times New Roman,serif" font-size="14.00">(1) Input</text>
</g>
<!-- node6 -->
<g id="node7" class="node"><title>node6</title>
<ellipse fill="none" stroke="black" cx="501.265" cy="-270" rx="42.7926" ry="18"/>
<text text-anchor="middle" x="501.265" y="-266.3" font-family="Times New Roman,serif" font-size="14.00">(6) XOR</text>
</g>
<!-- node1&#45;&gt;node6 -->
<g id="edge3" class="edge"><title>node1&#45;&gt;node6</title>
<path fill="none" stroke="black" d="M62.5788,-333.035C73.604,-324.796 88.0675,-315.372 102.493,-310 118.456,-304.055 123.562,-306.875 140.493,-305 273.497,-290.268 307.379,-292.861 440.369,-278 443.601,-277.639 446.929,-277.248 450.281,-276.839"/>
<polygon fill="black" stroke="black" points="450.858,-280.295 460.344,-275.575 449.985,-273.349 450.858,-280.295"/>
<text text-anchor="middle" x="182.739" y="-308.8" font-family="Times New Roman,serif" font-size="14.00"> (0)</text>
</g>
<!-- node8 -->
<g id="node9" class="node"><title>node8</title>
<ellipse fill="none" stroke="black" cx="182.739" cy="-347" rx="42.4939" ry="18"/>
<text text-anchor="middle" x="182.739" y="-343.3" font-family="Times New Roman,serif" font-size="14.00">(8) AND</text>
</g>
<!-- node1&#45;&gt;node8 -->
<g id="edge7" class="edge"><title>node1&#45;&gt;node8</title>
<path fill="none" stroke="black" d="M84.7986,-348.4C99.0406,-348.194 115.154,-347.962 130.096,-347.746"/>
<polygon fill="black" stroke="black" points="130.267,-351.244 140.216,-347.6 130.166,-344.245 130.267,-351.244"/>
<text text-anchor="middle" x="112.493" y="-351.8" font-family="Times New Roman,serif" font-size="14.00"> (0)</text>
</g>
<!-- node2 -->
<g id="node3" class="node"><title>node2</title>
<ellipse fill="none" stroke="black" cx="42.2463" cy="-181" rx="42.4939" ry="18"/>
<text text-anchor="middle" x="42.2463" y="-177.3" font-family="Times New Roman,serif" font-size="14.00">(2) Input</text>
</g>
<!-- node2&#45;&gt;node5 -->
<g id="edge2" class="edge"><title>node2&#45;&gt;node5</title>
<path fill="none" stroke="black" d="M56.6105,-163.948C67.6273,-150.973 84.3456,-133.599 102.493,-123 113.413,-116.622 126.226,-111.907 138.327,-108.468"/>
<polygon fill="black" stroke="black" points="139.477,-111.785 148.268,-105.87 137.707,-105.012 139.477,-111.785"/>
<text text-anchor="middle" x="112.493" y="-126.8" font-family="Times New Roman,serif" font-size="14.00"> (1)</text>
</g>
<!-- node2&#45;&gt;node9 -->
<g id="edge9" class="edge"><title>node2&#45;&gt;node9</title>
<path fill="none" stroke="black" d="M84.6731,-179.797C125.661,-178.606 188.505,-176.781 232.695,-175.497"/>
<polygon fill="black" stroke="black" points="233.048,-178.988 242.943,-175.199 232.845,-171.991 233.048,-178.988"/>
<text text-anchor="middle" x="112.493" y="-182.8" font-family="Times New Roman,serif" font-size="14.00"> (0)</text>
</g>
<!-- node3 -->
<g id="node4" class="node"><title>node3</title>
<ellipse fill="none" stroke="black" cx="42.2463" cy="-261" rx="42.4939" ry="18"/>
<text text-anchor="middle" x="42.2463" y="-257.3" font-family="Times New Roman,serif" font-size="14.00">(3) Input</text>
</g>
<!-- node3&#45;&gt;node6 -->
<g id="edge4" class="edge"><title>node3&#45;&gt;node6</title>
<path fill="none" stroke="black" d="M84.8871,-259.956C102.099,-259.573 122.256,-259.188 140.493,-259 178.043,-258.614 187.44,-258.25 224.985,-259 302.705,-260.552 392.694,-264.567 448.049,-267.292"/>
<polygon fill="black" stroke="black" points="448.146,-270.801 458.307,-267.802 448.493,-263.81 448.146,-270.801"/>
<text text-anchor="middle" x="182.739" y="-262.8" font-family="Times New Roman,serif" font-size="14.00"> (1)</text>
</g>
<!-- node3&#45;&gt;node8 -->
<g id="edge8" class="edge"><title>node3&#45;&gt;node8</title>
<path fill="none" stroke="black" d="M67.054,-275.784C89.6463,-289.813 123.792,-311.017 148.953,-326.641"/>
<polygon fill="black" stroke="black" points="147.437,-329.819 157.778,-332.121 151.129,-323.872 147.437,-329.819"/>
<text text-anchor="middle" x="112.493" y="-312.8" font-family="Times New Roman,serif" font-size="14.00"> (1)</text>
</g>
<!-- node4 -->
<g id="node5" class="node"><title>node4</title>
<ellipse fill="none" stroke="black" cx="42.2463" cy="-28" rx="42.4939" ry="18"/>
<text text-anchor="middle" x="42.2463" y="-24.3" font-family="Times New Roman,serif" font-size="14.00">(4) Input</text>
</g>
<!-- node7 -->
<g id="node8" class="node"><title>node7</title>
<ellipse fill="none" stroke="black" cx="392.923" cy="-72" rx="42.4939" ry="18"/>
<text text-anchor="middle" x="392.923" y="-68.3" font-family="Times New Roman,serif" font-size="14.00">(7) AND</text>
</g>
<!-- node4&#45;&gt;node7 -->
<g id="edge6" class="edge"><title>node4&#45;&gt;node7</title>
<path fill="none" stroke="black" d="M82.9045,-33.0045C146.741,-41.0601 272.174,-56.8886 342.004,-65.7006"/>
<polygon fill="black" stroke="black" points="341.943,-69.2205 352.302,-67.0002 342.819,-62.2756 341.943,-69.2205"/>
<text text-anchor="middle" x="182.739" y="-53.8" font-family="Times New Roman,serif" font-size="14.00"> (1)</text>
</g>
<!-- node12 -->
<g id="node13" class="node"><title>node12</title>
<ellipse fill="none" stroke="black" cx="392.923" cy="-18" rx="47.3916" ry="18"/>
<text text-anchor="middle" x="392.923" y="-14.3" font-family="Times New Roman,serif" font-size="14.00">(12) XOR</text>
</g>
<!-- node4&#45;&gt;node12 -->
<g id="edge16" class="edge"><title>node4&#45;&gt;node12</title>
<path fill="none" stroke="black" d="M80.9385,-20.3286C98.8895,-17.0532 120.711,-13.6165 140.493,-12 207.67,-6.51052 285.252,-9.82281 336.266,-13.3181"/>
<polygon fill="black" stroke="black" points="336.196,-16.8218 346.419,-14.0403 336.692,-9.83949 336.196,-16.8218"/>
<text text-anchor="middle" x="182.739" y="-15.8" font-family="Times New Roman,serif" font-size="14.00"> (1)</text>
</g>
<!-- node5&#45;&gt;node7 -->
<g id="edge5" class="edge"><title>node5&#45;&gt;node7</title>
<path fill="none" stroke="black" d="M218.116,-95.3764C252.041,-90.8136 304.25,-83.7917 342.596,-78.6344"/>
<polygon fill="black" stroke="black" points="343.076,-82.1013 352.521,-77.2995 342.143,-75.1638 343.076,-82.1013"/>
<text text-anchor="middle" x="285.231" y="-94.8" font-family="Times New Roman,serif" font-size="14.00"> (0)</text>
</g>
<!-- node5&#45;&gt;node12 -->
<g id="edge15" class="edge"><title>node5&#45;&gt;node12</title>
<path fill="none" stroke="black" d="M203.758,-85.1344C214.873,-77.4121 229.204,-68.2998 242.985,-62 274.462,-47.6106 311.819,-36.5888 341.246,-29.1753"/>
<polygon fill="black" stroke="black" points="342.426,-32.4896 351.301,-26.7039 340.755,-25.6919 342.426,-32.4896"/>
<text text-anchor="middle" x="285.231" y="-65.8" font-family="Times New Roman,serif" font-size="14.00"> (0)</text>
</g>
<!-- node11 -->
<g id="node12" class="node"><title>node11</title>
<ellipse fill="none" stroke="black" cx="760.499" cy="-212" rx="47.3916" ry="18"/>
<text text-anchor="middle" x="760.499" y="-208.3" font-family="Times New Roman,serif" font-size="14.00">(11) XOR</text>
</g>
<!-- node6&#45;&gt;node11 -->
<g id="edge13" class="edge"><title>node6&#45;&gt;node11</title>
<path fill="none" stroke="black" d="M539.395,-261.628C584.171,-251.532 659.621,-234.52 709.492,-223.275"/>
<polygon fill="black" stroke="black" points="710.431,-226.652 719.416,-221.038 708.891,-219.823 710.431,-226.652"/>
<text text-anchor="middle" x="609.607" y="-259.8" font-family="Times New Roman,serif" font-size="14.00"> (0)</text>
</g>
<!-- node14 -->
<g id="node15" class="node"><title>node14</title>
<ellipse fill="none" stroke="black" cx="760.499" cy="-296" rx="46.5926" ry="18"/>
<text text-anchor="middle" x="760.499" y="-292.3" font-family="Times New Roman,serif" font-size="14.00">(14) AND</text>
</g>
<!-- node6&#45;&gt;node14 -->
<g id="edge19" class="edge"><title>node6&#45;&gt;node14</title>
<path fill="none" stroke="black" d="M543.025,-274.12C586.802,-278.545 656.592,-285.599 705.048,-290.496"/>
<polygon fill="black" stroke="black" points="704.745,-293.984 715.047,-291.507 705.449,-287.019 704.745,-293.984"/>
<text text-anchor="middle" x="609.607" y="-288.8" font-family="Times New Roman,serif" font-size="14.00"> (0)</text>
</g>
<!-- node10 -->
<g id="node11" class="node"><title>node10</title>
<ellipse fill="none" stroke="black" cx="609.607" cy="-179" rx="40.8928" ry="18"/>
<text text-anchor="middle" x="609.607" y="-175.3" font-family="Times New Roman,serif" font-size="14.00">(10) OR</text>
</g>
<!-- node7&#45;&gt;node10 -->
<g id="edge12" class="edge"><title>node7&#45;&gt;node10</title>
<path fill="none" stroke="black" d="M421.113,-85.5516C459.505,-104.686 529.678,-139.661 572.433,-160.971"/>
<polygon fill="black" stroke="black" points="571.127,-164.23 581.638,-165.558 574.249,-157.965 571.127,-164.23"/>
<text text-anchor="middle" x="501.265" y="-147.8" font-family="Times New Roman,serif" font-size="14.00"> (1)</text>
</g>
<!-- node15 -->
<g id="node16" class="node"><title>node15</title>
<ellipse fill="none" stroke="black" cx="904.891" cy="-331" rx="40.8928" ry="18"/>
<text text-anchor="middle" x="904.891" y="-327.3" font-family="Times New Roman,serif" font-size="14.00">(15) OR</text>
</g>
<!-- node8&#45;&gt;node15 -->
<g id="edge21" class="edge"><title>node8&#45;&gt;node15</title>
<path fill="none" stroke="black" d="M225.213,-347C267.229,-347 334.094,-347 391.923,-347 391.923,-347 391.923,-347 761.499,-347 793.263,-347 828.765,-343.02 856.374,-339.029"/>
<polygon fill="black" stroke="black" points="857.172,-342.449 866.544,-337.508 856.137,-335.526 857.172,-342.449"/>
<text text-anchor="middle" x="609.607" y="-350.8" font-family="Times New Roman,serif" font-size="14.00"> (0)</text>
</g>
<!-- node9&#45;&gt;node10 -->
<g id="edge11" class="edge"><title>node9&#45;&gt;node10</title>
<path fill="none" stroke="black" d="M327.716,-174.643C386.755,-175.559 494.877,-177.236 558.374,-178.221"/>
<polygon fill="black" stroke="black" points="558.494,-181.723 568.547,-178.379 558.603,-174.724 558.494,-181.723"/>
<text text-anchor="middle" x="392.923" y="-179.8" font-family="Times New Roman,serif" font-size="14.00"> (0)</text>
</g>
<!-- node13 -->
<g id="node14" class="node"><title>node13</title>
<ellipse fill="none" stroke="black" cx="609.607" cy="-91" rx="47.3916" ry="18"/>
<text text-anchor="middle" x="609.607" y="-87.3" font-family="Times New Roman,serif" font-size="14.00">(13) XOR</text>
</g>
<!-- node9&#45;&gt;node13 -->
<g id="edge17" class="edge"><title>node9&#45;&gt;node13</title>
<path fill="none" stroke="black" d="M319.009,-163.026C327.586,-160.281 336.848,-157.43 345.478,-155 419.027,-134.291 505.244,-114.081 558.4,-102.084"/>
<polygon fill="black" stroke="black" points="559.264,-105.477 568.253,-99.8686 557.729,-98.6474 559.264,-105.477"/>
<text text-anchor="middle" x="392.923" y="-158.8" font-family="Times New Roman,serif" font-size="14.00"> (0)</text>
</g>
<!-- node10&#45;&gt;node11 -->
<g id="edge14" class="edge"><title>node10&#45;&gt;node11</title>
<path fill="none" stroke="black" d="M646.65,-186.988C665.436,-191.152 688.715,-196.312 709.242,-200.861"/>
<polygon fill="black" stroke="black" points="708.545,-204.292 719.066,-203.038 710.06,-197.457 708.545,-204.292"/>
<text text-anchor="middle" x="685.053" y="-200.8" font-family="Times New Roman,serif" font-size="14.00"> (1)</text>
</g>
<!-- node10&#45;&gt;node14 -->
<g id="edge20" class="edge"><title>node10&#45;&gt;node14</title>
<path fill="none" stroke="black" d="M633.101,-193.903C640.802,-199.161 649.402,-205.208 657.053,-211 683.569,-231.071 712.644,-255.435 733.024,-272.924"/>
<polygon fill="black" stroke="black" points="730.793,-275.622 740.653,-279.499 735.363,-270.319 730.793,-275.622"/>
<text text-anchor="middle" x="685.053" y="-243.8" font-family="Times New Roman,serif" font-size="14.00"> (1)</text>
</g>
<!-- node17 -->
<g id="node18" class="node"><title>node17</title>
<ellipse fill="none" stroke="black" cx="1025.73" cy="-212" rx="42.7926" ry="18"/>
<text text-anchor="middle" x="1025.73" y="-208.3" font-family="Times New Roman,serif" font-size="14.00">Output 1</text>
</g>
<!-- node11&#45;&gt;node17 -->
<g id="edge24" class="edge"><title>node11&#45;&gt;node17</title>
<path fill="none" stroke="black" d="M807.954,-212C854.019,-212 924.474,-212 972.468,-212"/>
<polygon fill="black" stroke="black" points="972.651,-215.5 982.651,-212 972.651,-208.5 972.651,-215.5"/>
</g>
<!-- node12&#45;&gt;node13 -->
<g id="edge18" class="edge"><title>node12&#45;&gt;node13</title>
<path fill="none" stroke="black" d="M428.894,-29.8912C465.775,-42.432 523.991,-62.2275 564.117,-75.8719"/>
<polygon fill="black" stroke="black" points="563.057,-79.2082 573.652,-79.1139 565.311,-72.5808 563.057,-79.2082"/>
<text text-anchor="middle" x="501.265" y="-70.8" font-family="Times New Roman,serif" font-size="14.00"> (1)</text>
</g>
<!-- node16 -->
<g id="node17" class="node"><title>node16</title>
<ellipse fill="none" stroke="black" cx="1025.73" cy="-91" rx="42.7926" ry="18"/>
<text text-anchor="middle" x="1025.73" y="-87.3" font-family="Times New Roman,serif" font-size="14.00">Output 0</text>
</g>
<!-- node13&#45;&gt;node16 -->
<g id="edge23" class="edge"><title>node13&#45;&gt;node16</title>
<path fill="none" stroke="black" d="M657.308,-91C735.205,-91 891.119,-91 972.529,-91"/>
<polygon fill="black" stroke="black" points="972.554,-94.5001 982.554,-91 972.554,-87.5001 972.554,-94.5001"/>
</g>
<!-- node14&#45;&gt;node15 -->
<g id="edge22" class="edge"><title>node14&#45;&gt;node15</title>
<path fill="none" stroke="black" d="M800.408,-305.564C818.416,-309.99 839.921,-315.276 858.649,-319.88"/>
<polygon fill="black" stroke="black" points="857.895,-323.298 868.441,-322.286 859.566,-316.501 857.895,-323.298"/>
<text text-anchor="middle" x="835.945" y="-319.8" font-family="Times New Roman,serif" font-size="14.00"> (1)</text>
</g>
<!-- node18 -->
<g id="node19" class="node"><title>node18</title>
<ellipse fill="none" stroke="black" cx="1025.73" cy="-331" rx="42.7926" ry="18"/>
<text text-anchor="middle" x="1025.73" y="-327.3" font-family="Times New Roman,serif" font-size="14.00">Output 2</text>
</g>
<!-- node15&#45;&gt;node18 -->
<g id="edge25" class="edge"><title>node15&#45;&gt;node18</title>
<path fill="none" stroke="black" d="M946.126,-331C954.547,-331 963.545,-331 972.334,-331"/>
<polygon fill="black" stroke="black" points="972.51,-334.5 982.51,-331 972.51,-327.5 972.51,-334.5"/>
</g>
</g>
</svg>
