<?xml version="1.0" encoding="UTF-8" standalone="no"?>
<!DOCTYPE svg PUBLIC "-//W3C//DTD SVG 1.1//EN"
 "http://www.w3.org/Graphics/SVG/1.1/DTD/svg11.dtd">
<!-- Generated by graphviz version 2.38.0 (20140413.2041)
 -->
<!-- Title: NeuralNetwork Pages: 1 -->
<svg width="288pt" height="101pt"
 viewBox="0.00 0.00 288.00 100.96" xmlns="http://www.w3.org/2000/svg" xmlns:xlink="http://www.w3.org/1999/xlink">
<g id="graph0" class="graph" transform="scale(0.261548 0.261548) rotate(0) translate(4 382)">
<title>NeuralNetwork</title>
<polygon fill="white" stroke="none" points="-4,4 -4,-382 1097.14,-382 1097.14,4 -4,4"/>
<!-- node0 -->
<g id="node1" class="node"><title>node0</title>
<ellipse fill="none" stroke="black" cx="42.2463" cy="-162" rx="42.4939" ry="18"/>
<text text-anchor="middle" x="42.2463" y="-158.3" font-family="Times New Roman,serif" font-size="14.00">(0) Input</text>
</g>
<!-- node5 -->
<g id="node6" class="node"><title>node5</title>
<ellipse fill="none" stroke="black" cx="183.389" cy="-164" rx="42.4939" ry="18"/>
<text text-anchor="middle" x="183.389" y="-160.3" font-family="Times New Roman,serif" font-size="14.00">(5) AND</text>
</g>
<!-- node0&#45;&gt;node5 -->
<g id="edge2" class="edge"><title>node0&#45;&gt;node5</title>
<path fill="none" stroke="black" d="M82.3698,-168.037C89.0672,-168.854 95.9684,-169.562 102.493,-170 112.175,-170.651 122.514,-170.501 132.432,-169.939"/>
<polygon fill="black" stroke="black" points="132.843,-173.419 142.571,-169.221 132.348,-166.436 132.843,-173.419"/>
<text text-anchor="middle" x="112.493" y="-173.8" font-family="Times New Roman,serif" font-size="14.00"> (1)</text>
</g>
<!-- node6 -->
<g id="node7" class="node"><title>node6</title>
<ellipse fill="none" stroke="black" cx="183.389" cy="-102" rx="42.7926" ry="18"/>
<text text-anchor="middle" x="183.389" y="-98.3" font-family="Times New Roman,serif" font-size="14.00">(6) XOR</text>
</g>
<!-- node0&#45;&gt;node6 -->
<g id="edge4" class="edge"><title>node0&#45;&gt;node6</title>
<path fill="none" stroke="black" d="M75.5508,-150.622C90.0432,-145.301 107.268,-138.674 122.493,-132 130.455,-128.51 138.874,-124.5 146.804,-120.572"/>
<polygon fill="black" stroke="black" points="148.47,-123.652 155.832,-116.034 145.326,-117.398 148.47,-123.652"/>
<text text-anchor="middle" x="112.493" y="-143.8" font-family="Times New Roman,serif" font-size="14.00"> (1)</text>
</g>
<!-- node1 -->
<g id="node2" class="node"><title>node1</title>
<ellipse fill="none" stroke="black" cx="42.2463" cy="-344" rx="42.4939" ry="18"/>
<text text-anchor="middle" x="42.2463" y="-340.3" font-family="Times New Roman,serif" font-size="14.00">(1) Input</text>
</g>
<!-- node10 -->
<g id="node11" class="node"><title>node10</title>
<ellipse fill="none" stroke="black" cx="772.006" cy="-266" rx="46.5926" ry="18"/>
<text text-anchor="middle" x="772.006" y="-262.3" font-family="Times New Roman,serif" font-size="14.00">(10) AND</text>
</g>
<!-- node1&#45;&gt;node10 -->
<g id="edge11" class="edge"><title>node1&#45;&gt;node10</title>
<path fill="none" stroke="black" d="M80.5585,-336.107C108.469,-330.887 147.646,-325 182.389,-325 182.389,-325 182.389,-325 622.765,-325 660.524,-325 672.99,-328.284 706.561,-311 716.619,-305.821 715.595,-299.901 724.561,-293 727.713,-290.573 731.105,-288.206 734.568,-285.945"/>
<polygon fill="black" stroke="black" points="736.577,-288.818 743.23,-280.572 732.887,-282.869 736.577,-288.818"/>
<text text-anchor="middle" x="405.176" y="-328.8" font-family="Times New Roman,serif" font-size="14.00"> (0)</text>
</g>
<!-- node13 -->
<g id="node14" class="node"><title>node13</title>
<ellipse fill="none" stroke="black" cx="772.006" cy="-320" rx="47.3916" ry="18"/>
<text text-anchor="middle" x="772.006" y="-316.3" font-family="Times New Roman,serif" font-size="14.00">(13) XOR</text>
</g>
<!-- node1&#45;&gt;node13 -->
<g id="edge18" class="edge"><title>node1&#45;&gt;node13</title>
<path fill="none" stroke="black" d="M80.5585,-351.893C108.469,-357.113 147.646,-363 182.389,-363 182.389,-363 182.389,-363 622.765,-363 661.045,-363 702.763,-349.611 732.162,-337.775"/>
<polygon fill="black" stroke="black" points="733.743,-340.908 741.637,-333.842 731.06,-334.443 733.743,-340.908"/>
<text text-anchor="middle" x="405.176" y="-366.8" font-family="Times New Roman,serif" font-size="14.00"> (1)</text>
</g>
<!-- node2 -->
<g id="node3" class="node"><title>node2</title>
<ellipse fill="none" stroke="black" cx="42.2463" cy="-107" rx="42.4939" ry="18"/>
<text text-anchor="middle" x="42.2463" y="-103.3" font-family="Times New Roman,serif" font-size="14.00">(2) Input</text>
</g>
<!-- node2&#45;&gt;node5 -->
<g id="edge1" class="edge"><title>node2&#45;&gt;node5</title>
<path fill="none" stroke="black" d="M84.6494,-108.003C97.1733,-109.412 110.719,-112.086 122.493,-117 126.367,-118.617 141.151,-130.208 155.06,-141.473"/>
<polygon fill="black" stroke="black" points="153.096,-144.387 163.06,-147.99 157.518,-138.96 153.096,-144.387"/>
<text text-anchor="middle" x="112.493" y="-120.8" font-family="Times New Roman,serif" font-size="14.00"> (0)</text>
</g>
<!-- node2&#45;&gt;node6 -->
<g id="edge3" class="edge"><title>node2&#45;&gt;node6</title>
<path fill="none" stroke="black" d="M67.735,-92.443C78.0861,-87.094 90.5039,-81.6903 102.493,-79 117.226,-75.6939 133.259,-78.9302 147.07,-83.9142"/>
<polygon fill="black" stroke="black" points="146.099,-87.2964 156.683,-87.7836 148.713,-80.8027 146.099,-87.2964"/>
<text text-anchor="middle" x="112.493" y="-82.8" font-family="Times New Roman,serif" font-size="14.00"> (0)</text>
</g>
<!-- node3 -->
<g id="node4" class="node"><title>node3</title>
<ellipse fill="none" stroke="black" cx="42.2463" cy="-255" rx="42.4939" ry="18"/>
<text text-anchor="middle" x="42.2463" y="-251.3" font-family="Times New Roman,serif" font-size="14.00">(3) Input</text>
</g>
<!-- node9 -->
<g id="node10" class="node"><title>node9</title>
<ellipse fill="none" stroke="black" cx="621.765" cy="-274" rx="42.7926" ry="18"/>
<text text-anchor="middle" x="621.765" y="-270.3" font-family="Times New Roman,serif" font-size="14.00">(9) XOR</text>
</g>
<!-- node3&#45;&gt;node9 -->
<g id="edge10" class="edge"><title>node3&#45;&gt;node9</title>
<path fill="none" stroke="black" d="M77.5087,-265.052C105.471,-272.369 146.141,-281 182.389,-281 182.389,-281 182.389,-281 477.073,-281 507.635,-281 541.811,-279.401 569.163,-277.731"/>
<polygon fill="black" stroke="black" points="569.531,-281.215 579.29,-277.091 569.089,-274.229 569.531,-281.215"/>
<text text-anchor="middle" x="329.731" y="-284.8" font-family="Times New Roman,serif" font-size="14.00"> (1)</text>
</g>
<!-- node12 -->
<g id="node13" class="node"><title>node12</title>
<ellipse fill="none" stroke="black" cx="621.765" cy="-215" rx="46.5926" ry="18"/>
<text text-anchor="middle" x="621.765" y="-211.3" font-family="Times New Roman,serif" font-size="14.00">(12) AND</text>
</g>
<!-- node3&#45;&gt;node12 -->
<g id="edge15" class="edge"><title>node3&#45;&gt;node12</title>
<path fill="none" stroke="black" d="M77.8186,-245.263C105.786,-238.243 146.31,-230 182.389,-230 182.389,-230 182.389,-230 477.073,-230 507.32,-230 540.956,-226.671 568.077,-223.15"/>
<polygon fill="black" stroke="black" points="568.687,-226.6 578.131,-221.798 567.754,-219.662 568.687,-226.6"/>
<text text-anchor="middle" x="329.731" y="-233.8" font-family="Times New Roman,serif" font-size="14.00"> (0)</text>
</g>
<!-- node4 -->
<g id="node5" class="node"><title>node4</title>
<ellipse fill="none" stroke="black" cx="42.2463" cy="-18" rx="42.4939" ry="18"/>
<text text-anchor="middle" x="42.2463" y="-14.3" font-family="Times New Roman,serif" font-size="14.00">(4) Input</text>
</g>
<!-- node7 -->
<g id="node8" class="node"><title>node7</title>
<ellipse fill="none" stroke="black" cx="329.731" cy="-110" rx="42.4939" ry="18"/>
<text text-anchor="middle" x="329.731" y="-106.3" font-family="Times New Roman,serif" font-size="14.00">(7) AND</text>
</g>
<!-- node4&#45;&gt;node7 -->
<g id="edge6" class="edge"><title>node4&#45;&gt;node7</title>
<path fill="none" stroke="black" d="M83.5282,-22.6162C138.225,-29.3073 232.782,-42.4969 264.285,-57 279.574,-64.0385 294.259,-75.6053 305.74,-86.1402"/>
<polygon fill="black" stroke="black" points="303.492,-88.8326 313.145,-93.2004 308.323,-83.7665 303.492,-88.8326"/>
<text text-anchor="middle" x="183.389" y="-48.8" font-family="Times New Roman,serif" font-size="14.00"> (1)</text>
</g>
<!-- node11 -->
<g id="node12" class="node"><title>node11</title>
<ellipse fill="none" stroke="black" cx="329.731" cy="-24" rx="47.3916" ry="18"/>
<text text-anchor="middle" x="329.731" y="-20.3" font-family="Times New Roman,serif" font-size="14.00">(11) XOR</text>
</g>
<!-- node4&#45;&gt;node11 -->
<g id="edge13" class="edge"><title>node4&#45;&gt;node11</title>
<path fill="none" stroke="black" d="M82.4173,-12.0541C100.11,-9.65558 121.306,-7.1793 140.493,-6 178.551,-3.66072 188.299,-2.68826 226.285,-6 243.269,-7.48069 261.658,-10.3172 278.107,-13.3082"/>
<polygon fill="black" stroke="black" points="277.593,-16.7729 288.068,-15.1797 278.886,-9.89327 277.593,-16.7729"/>
<text text-anchor="middle" x="183.389" y="-9.8" font-family="Times New Roman,serif" font-size="14.00"> (0)</text>
</g>
<!-- node8 -->
<g id="node9" class="node"><title>node8</title>
<ellipse fill="none" stroke="black" cx="476.073" cy="-163" rx="42.7926" ry="18"/>
<text text-anchor="middle" x="476.073" y="-159.3" font-family="Times New Roman,serif" font-size="14.00">(8) XOR</text>
</g>
<!-- node5&#45;&gt;node8 -->
<g id="edge8" class="edge"><title>node5&#45;&gt;node8</title>
<path fill="none" stroke="black" d="M225.728,-163.858C277.521,-163.68 366.317,-163.374 422.782,-163.18"/>
<polygon fill="black" stroke="black" points="422.945,-166.679 432.933,-163.145 422.921,-159.679 422.945,-166.679"/>
<text text-anchor="middle" x="329.731" y="-166.8" font-family="Times New Roman,serif" font-size="14.00"> (1)</text>
</g>
<!-- node6&#45;&gt;node7 -->
<g id="edge5" class="edge"><title>node6&#45;&gt;node7</title>
<path fill="none" stroke="black" d="M226.138,-104.314C242.135,-105.201 260.572,-106.222 277.366,-107.153"/>
<polygon fill="black" stroke="black" points="277.395,-110.66 287.573,-107.719 277.782,-103.671 277.395,-110.66"/>
<text text-anchor="middle" x="254.285" y="-109.8" font-family="Times New Roman,serif" font-size="14.00"> (0)</text>
</g>
<!-- node6&#45;&gt;node11 -->
<g id="edge14" class="edge"><title>node6&#45;&gt;node11</title>
<path fill="none" stroke="black" d="M210.528,-87.8748C233.392,-75.5193 266.835,-57.4472 292.319,-43.6763"/>
<polygon fill="black" stroke="black" points="294.179,-46.6493 301.313,-38.816 290.851,-40.491 294.179,-46.6493"/>
<text text-anchor="middle" x="254.285" y="-70.8" font-family="Times New Roman,serif" font-size="14.00"> (1)</text>
</g>
<!-- node7&#45;&gt;node8 -->
<g id="edge7" class="edge"><title>node7&#45;&gt;node8</title>
<path fill="none" stroke="black" d="M366.457,-119.299C381.648,-123.58 399.451,-129.035 415.176,-135 422.959,-137.952 431.139,-141.479 438.866,-145.017"/>
<polygon fill="black" stroke="black" points="437.47,-148.228 448.01,-149.301 440.44,-141.889 437.47,-148.228"/>
<text text-anchor="middle" x="405.176" y="-138.8" font-family="Times New Roman,serif" font-size="14.00"> (0)</text>
</g>
<!-- node8&#45;&gt;node9 -->
<g id="edge9" class="edge"><title>node8&#45;&gt;node9</title>
<path fill="none" stroke="black" d="M496.263,-179.14C515.777,-195.397 547.034,-221.008 574.969,-242 579.738,-245.584 584.858,-249.292 589.886,-252.859"/>
<polygon fill="black" stroke="black" points="587.986,-255.801 598.182,-258.68 592.007,-250.071 587.986,-255.801"/>
<text text-anchor="middle" x="546.969" y="-230.8" font-family="Times New Roman,serif" font-size="14.00"> (0)</text>
</g>
<!-- node8&#45;&gt;node12 -->
<g id="edge16" class="edge"><title>node8&#45;&gt;node12</title>
<path fill="none" stroke="black" d="M517.397,-157.757C530.351,-157.442 544.554,-158.581 556.969,-163 572.719,-168.606 587.398,-179.949 598.695,-190.615"/>
<polygon fill="black" stroke="black" points="596.384,-193.252 605.948,-197.811 601.315,-188.283 596.384,-193.252"/>
<text text-anchor="middle" x="546.969" y="-166.8" font-family="Times New Roman,serif" font-size="14.00"> (1)</text>
</g>
<!-- node9&#45;&gt;node10 -->
<g id="edge12" class="edge"><title>node9&#45;&gt;node10</title>
<path fill="none" stroke="black" d="M657.238,-263.713C666.659,-261.353 676.928,-259.19 686.561,-258 697.082,-256.701 708.365,-256.765 719.148,-257.528"/>
<polygon fill="black" stroke="black" points="719.015,-261.031 729.292,-258.453 719.651,-254.06 719.015,-261.031"/>
<text text-anchor="middle" x="696.561" y="-261.8" font-family="Times New Roman,serif" font-size="14.00"> (1)</text>
</g>
<!-- node9&#45;&gt;node13 -->
<g id="edge17" class="edge"><title>node9&#45;&gt;node13</title>
<path fill="none" stroke="black" d="M656.774,-284.553C677.011,-290.833 702.957,-298.884 725.005,-305.725"/>
<polygon fill="black" stroke="black" points="724.238,-309.152 734.826,-308.773 726.313,-302.467 724.238,-309.152"/>
<text text-anchor="middle" x="696.561" y="-302.8" font-family="Times New Roman,serif" font-size="14.00"> (0)</text>
</g>
<!-- node14 -->
<g id="node15" class="node"><title>node14</title>
<ellipse fill="none" stroke="black" cx="922.898" cy="-241" rx="47.3916" ry="18"/>
<text text-anchor="middle" x="922.898" y="-237.3" font-family="Times New Roman,serif" font-size="14.00">(14) XOR</text>
</g>
<!-- node10&#45;&gt;node14 -->
<g id="edge20" class="edge"><title>node10&#45;&gt;node14</title>
<path fill="none" stroke="black" d="M815.274,-258.903C832.02,-256.091 851.455,-252.828 869.11,-249.863"/>
<polygon fill="black" stroke="black" points="869.983,-253.266 879.266,-248.158 868.824,-246.363 869.983,-253.266"/>
<text text-anchor="middle" x="847.452" y="-257.8" font-family="Times New Roman,serif" font-size="14.00"> (1)</text>
</g>
<!-- node15 -->
<g id="node16" class="node"><title>node15</title>
<ellipse fill="none" stroke="black" cx="1050.24" cy="-24" rx="42.7926" ry="18"/>
<text text-anchor="middle" x="1050.24" y="-20.3" font-family="Times New Roman,serif" font-size="14.00">Output 0</text>
</g>
<!-- node11&#45;&gt;node15 -->
<g id="edge21" class="edge"><title>node11&#45;&gt;node15</title>
<path fill="none" stroke="black" d="M377.209,-24C405.5,-24 442.37,-24 475.073,-24 475.073,-24 475.073,-24 923.898,-24 947.958,-24 974.616,-24 997.14,-24"/>
<polygon fill="black" stroke="black" points="997.173,-27.5001 1007.17,-24 997.173,-20.5001 997.173,-27.5001"/>
</g>
<!-- node12&#45;&gt;node14 -->
<g id="edge19" class="edge"><title>node12&#45;&gt;node14</title>
<path fill="none" stroke="black" d="M668.585,-215.559C708.522,-216.413 767.951,-218.568 819.452,-224 835.925,-225.737 853.769,-228.417 869.878,-231.14"/>
<polygon fill="black" stroke="black" points="869.731,-234.666 880.182,-232.925 870.926,-227.769 869.731,-234.666"/>
<text text-anchor="middle" x="772.006" y="-227.8" font-family="Times New Roman,serif" font-size="14.00"> (0)</text>
</g>
<!-- node16 -->
<g id="node17" class="node"><title>node16</title>
<ellipse fill="none" stroke="black" cx="1050.24" cy="-320" rx="42.7926" ry="18"/>
<text text-anchor="middle" x="1050.24" y="-316.3" font-family="Times New Roman,serif" font-size="14.00">Output 1</text>
</g>
<!-- node13&#45;&gt;node16 -->
<g id="edge22" class="edge"><title>node13&#45;&gt;node16</title>
<path fill="none" stroke="black" d="M819.553,-320C868.606,-320 945.703,-320 996.853,-320"/>
<polygon fill="black" stroke="black" points="997.038,-323.5 1007.04,-320 997.038,-316.5 997.038,-323.5"/>
</g>
<!-- node17 -->
<g id="node18" class="node"><title>node17</title>
<ellipse fill="none" stroke="black" cx="1050.24" cy="-241" rx="42.7926" ry="18"/>
<text text-anchor="middle" x="1050.24" y="-237.3" font-family="Times New Roman,serif" font-size="14.00">Output 2</text>
</g>
<!-- node14&#45;&gt;node17 -->
<g id="edge23" class="edge"><title>node14&#45;&gt;node17</title>
<path fill="none" stroke="black" d="M970.571,-241C979.175,-241 988.211,-241 996.968,-241"/>
<polygon fill="black" stroke="black" points="997.078,-244.5 1007.08,-241 997.078,-237.5 997.078,-244.5"/>
</g>
</g>
</svg>
