<?xml version="1.0" encoding="UTF-8" standalone="no"?>
<!DOCTYPE svg PUBLIC "-//W3C//DTD SVG 1.1//EN"
 "http://www.w3.org/Graphics/SVG/1.1/DTD/svg11.dtd">
<!-- Generated by graphviz version 2.38.0 (20140413.2041)
 -->
<!-- Title: NeuralNetwork Pages: 1 -->
<svg width="288pt" height="93pt"
 viewBox="0.00 0.00 288.00 92.97" xmlns="http://www.w3.org/2000/svg" xmlns:xlink="http://www.w3.org/1999/xlink">
<g id="graph0" class="graph" transform="scale(0.247629 0.247629) rotate(0) translate(4 371.45)">
<title>NeuralNetwork</title>
<polygon fill="white" stroke="none" points="-4,4 -4,-371.45 1159.03,-371.45 1159.03,4 -4,4"/>
<!-- node0 -->
<g id="node1" class="node"><title>node0</title>
<ellipse fill="none" stroke="black" cx="42.2463" cy="-349.45" rx="42.4939" ry="18"/>
<text text-anchor="middle" x="42.2463" y="-345.75" font-family="Times New Roman,serif" font-size="14.00">(0) Input</text>
</g>
<!-- node5 -->
<g id="node6" class="node"><title>node5</title>
<ellipse fill="none" stroke="black" cx="183.389" cy="-326.45" rx="42.4939" ry="18"/>
<text text-anchor="middle" x="183.389" y="-322.75" font-family="Times New Roman,serif" font-size="14.00">(5) AND</text>
</g>
<!-- node0&#45;&gt;node5 -->
<g id="edge2" class="edge"><title>node0&#45;&gt;node5</title>
<path fill="none" stroke="black" d="M84.5541,-347.161C96.8223,-346.115 110.251,-344.609 122.493,-342.45 127.66,-341.539 133.031,-340.394 138.341,-339.139"/>
<polygon fill="black" stroke="black" points="139.558,-342.442 148.408,-336.619 137.858,-335.652 139.558,-342.442"/>
<text text-anchor="middle" x="112.493" y="-348.25" font-family="Times New Roman,serif" font-size="14.00"> (1)</text>
</g>
<!-- node6 -->
<g id="node7" class="node"><title>node6</title>
<ellipse fill="none" stroke="black" cx="183.389" cy="-268.45" rx="42.7926" ry="18"/>
<text text-anchor="middle" x="183.389" y="-264.75" font-family="Times New Roman,serif" font-size="14.00">(6) XOR</text>
</g>
<!-- node0&#45;&gt;node6 -->
<g id="edge3" class="edge"><title>node0&#45;&gt;node6</title>
<path fill="none" stroke="black" d="M54.7287,-331.975C65.3486,-317.252 82.4835,-296.822 102.493,-285.45 111.277,-280.458 121.361,-276.927 131.34,-274.432"/>
<polygon fill="black" stroke="black" points="132.213,-277.824 141.232,-272.266 130.715,-270.986 132.213,-277.824"/>
<text text-anchor="middle" x="112.493" y="-289.25" font-family="Times New Roman,serif" font-size="14.00"> (0)</text>
</g>
<!-- node1 -->
<g id="node2" class="node"><title>node1</title>
<ellipse fill="none" stroke="black" cx="42.2463" cy="-103.45" rx="42.4939" ry="18"/>
<text text-anchor="middle" x="42.2463" y="-99.7503" font-family="Times New Roman,serif" font-size="14.00">(1) Input</text>
</g>
<!-- node7 -->
<g id="node8" class="node"><title>node7</title>
<ellipse fill="none" stroke="black" cx="183.389" cy="-30.4503" rx="36.2938" ry="18"/>
<text text-anchor="middle" x="183.389" y="-26.7503" font-family="Times New Roman,serif" font-size="14.00">(7) OR</text>
</g>
<!-- node1&#45;&gt;node7 -->
<g id="edge5" class="edge"><title>node1&#45;&gt;node7</title>
<path fill="none" stroke="black" d="M54.0571,-86.0763C64.4701,-70.9934 81.683,-49.9701 102.493,-39.4503 112.995,-34.1412 125.244,-31.3528 136.952,-30.0006"/>
<polygon fill="black" stroke="black" points="137.37,-33.4779 147.043,-29.1548 136.785,-26.5024 137.37,-33.4779"/>
<text text-anchor="middle" x="112.493" y="-43.2503" font-family="Times New Roman,serif" font-size="14.00"> (0)</text>
</g>
<!-- node8 -->
<g id="node9" class="node"><title>node8</title>
<ellipse fill="none" stroke="black" cx="287.181" cy="-95.4503" rx="42.7926" ry="18"/>
<text text-anchor="middle" x="287.181" y="-91.7503" font-family="Times New Roman,serif" font-size="14.00">(8) XOR</text>
</g>
<!-- node1&#45;&gt;node8 -->
<g id="edge8" class="edge"><title>node1&#45;&gt;node8</title>
<path fill="none" stroke="black" d="M84.4568,-102.093C125.776,-100.733 189.521,-98.6334 234.269,-97.1598"/>
<polygon fill="black" stroke="black" points="234.481,-100.655 244.361,-96.8274 234.251,-93.6586 234.481,-100.655"/>
<text text-anchor="middle" x="112.493" y="-104.25" font-family="Times New Roman,serif" font-size="14.00"> (1)</text>
</g>
<!-- node2 -->
<g id="node3" class="node"><title>node2</title>
<ellipse fill="none" stroke="black" cx="42.2463" cy="-170.45" rx="42.4939" ry="18"/>
<text text-anchor="middle" x="42.2463" y="-166.75" font-family="Times New Roman,serif" font-size="14.00">(2) Input</text>
</g>
<!-- node9 -->
<g id="node10" class="node"><title>node9</title>
<ellipse fill="none" stroke="black" cx="395.523" cy="-176.45" rx="42.4939" ry="18"/>
<text text-anchor="middle" x="395.523" y="-172.75" font-family="Times New Roman,serif" font-size="14.00">(9) AND</text>
</g>
<!-- node2&#45;&gt;node9 -->
<g id="edge9" class="edge"><title>node2&#45;&gt;node9</title>
<path fill="none" stroke="black" d="M84.5751,-171.156C148.834,-172.254 272.586,-174.368 342.718,-175.565"/>
<polygon fill="black" stroke="black" points="343.021,-179.071 353.08,-175.742 343.141,-172.072 343.021,-179.071"/>
<text text-anchor="middle" x="183.389" y="-177.25" font-family="Times New Roman,serif" font-size="14.00"> (0)</text>
</g>
<!-- node13 -->
<g id="node14" class="node"><title>node13</title>
<ellipse fill="none" stroke="black" cx="395.523" cy="-241.45" rx="47.3916" ry="18"/>
<text text-anchor="middle" x="395.523" y="-237.75" font-family="Times New Roman,serif" font-size="14.00">(13) XOR</text>
</g>
<!-- node2&#45;&gt;node13 -->
<g id="edge18" class="edge"><title>node2&#45;&gt;node13</title>
<path fill="none" stroke="black" d="M78.5669,-179.753C86.4227,-181.721 94.7243,-183.724 102.493,-185.45 185.686,-203.942 283.026,-221.872 341.669,-232.275"/>
<polygon fill="black" stroke="black" points="341.346,-235.772 351.802,-234.066 342.564,-228.879 341.346,-235.772"/>
<text text-anchor="middle" x="183.389" y="-214.25" font-family="Times New Roman,serif" font-size="14.00"> (1)</text>
</g>
<!-- node3 -->
<g id="node4" class="node"><title>node3</title>
<ellipse fill="none" stroke="black" cx="42.2463" cy="-23.4503" rx="42.4939" ry="18"/>
<text text-anchor="middle" x="42.2463" y="-19.7503" font-family="Times New Roman,serif" font-size="14.00">(3) Input</text>
</g>
<!-- node3&#45;&gt;node7 -->
<g id="edge6" class="edge"><title>node3&#45;&gt;node7</title>
<path fill="none" stroke="black" d="M69.1499,-9.53909C84.5575,-2.95118 104.54,2.66727 122.493,-1.45027 132.188,-3.67383 142.136,-7.68171 151.071,-12.0223"/>
<polygon fill="black" stroke="black" points="149.469,-15.1345 159.962,-16.6052 152.677,-8.91241 149.469,-15.1345"/>
<text text-anchor="middle" x="112.493" y="-5.25027" font-family="Times New Roman,serif" font-size="14.00"> (1)</text>
</g>
<!-- node3&#45;&gt;node8 -->
<g id="edge7" class="edge"><title>node3&#45;&gt;node8</title>
<path fill="none" stroke="black" d="M67.6625,-38.0743C78.1052,-43.836 90.6097,-50.1015 102.493,-54.4503 146.387,-70.5147 198.582,-81.4279 236.096,-87.9308"/>
<polygon fill="black" stroke="black" points="235.825,-91.4345 246.268,-89.6486 236.99,-84.5323 235.825,-91.4345"/>
<text text-anchor="middle" x="112.493" y="-63.2503" font-family="Times New Roman,serif" font-size="14.00"> (0)</text>
</g>
<!-- node4 -->
<g id="node5" class="node"><title>node4</title>
<ellipse fill="none" stroke="black" cx="42.2463" cy="-265.45" rx="42.4939" ry="18"/>
<text text-anchor="middle" x="42.2463" y="-261.75" font-family="Times New Roman,serif" font-size="14.00">(4) Input</text>
</g>
<!-- node4&#45;&gt;node5 -->
<g id="edge1" class="edge"><title>node4&#45;&gt;node5</title>
<path fill="none" stroke="black" d="M63.4327,-281.03C74.4801,-288.952 88.6961,-298.199 102.493,-304.45 112.726,-309.087 124.152,-312.943 135.089,-316.061"/>
<polygon fill="black" stroke="black" points="134.381,-319.496 144.948,-318.72 136.204,-312.737 134.381,-319.496"/>
<text text-anchor="middle" x="112.493" y="-315.25" font-family="Times New Roman,serif" font-size="14.00"> (0)</text>
</g>
<!-- node4&#45;&gt;node6 -->
<g id="edge4" class="edge"><title>node4&#45;&gt;node6</title>
<path fill="none" stroke="black" d="M76.707,-254.827C90.804,-251.578 107.409,-249.351 122.493,-251.45 128.046,-252.223 133.809,-253.381 139.467,-254.736"/>
<polygon fill="black" stroke="black" points="138.913,-258.208 149.473,-257.347 140.681,-251.435 138.913,-258.208"/>
<text text-anchor="middle" x="112.493" y="-255.25" font-family="Times New Roman,serif" font-size="14.00"> (1)</text>
</g>
<!-- node10 -->
<g id="node11" class="node"><title>node10</title>
<ellipse fill="none" stroke="black" cx="539.915" cy="-176.45" rx="40.8928" ry="18"/>
<text text-anchor="middle" x="539.915" y="-172.75" font-family="Times New Roman,serif" font-size="14.00">(10) OR</text>
</g>
<!-- node5&#45;&gt;node10 -->
<g id="edge11" class="edge"><title>node5&#45;&gt;node10</title>
<path fill="none" stroke="black" d="M225.272,-324.061C278.323,-319.495 372.43,-306.304 442.969,-268.45 473.846,-251.881 501.849,-222.6 519.525,-201.517"/>
<polygon fill="black" stroke="black" points="522.377,-203.559 526.001,-193.603 516.959,-199.126 522.377,-203.559"/>
<text text-anchor="middle" x="395.523" y="-307.25" font-family="Times New Roman,serif" font-size="14.00"> (0)</text>
</g>
<!-- node6&#45;&gt;node9 -->
<g id="edge10" class="edge"><title>node6&#45;&gt;node9</title>
<path fill="none" stroke="black" d="M206.181,-252.985C217.255,-245.557 231.122,-236.893 244.285,-230.45 278.729,-213.591 319.826,-199.181 350.324,-189.499"/>
<polygon fill="black" stroke="black" points="351.736,-192.725 360.235,-186.4 349.647,-186.044 351.736,-192.725"/>
<text text-anchor="middle" x="287.181" y="-234.25" font-family="Times New Roman,serif" font-size="14.00"> (1)</text>
</g>
<!-- node6&#45;&gt;node13 -->
<g id="edge17" class="edge"><title>node6&#45;&gt;node13</title>
<path fill="none" stroke="black" d="M224.905,-263.244C257.578,-259.046 303.848,-253.101 339.81,-248.48"/>
<polygon fill="black" stroke="black" points="340.663,-251.9 350.136,-247.154 339.771,-244.957 340.663,-251.9"/>
<text text-anchor="middle" x="287.181" y="-264.25" font-family="Times New Roman,serif" font-size="14.00"> (0)</text>
</g>
<!-- node14 -->
<g id="node15" class="node"><title>node14</title>
<ellipse fill="none" stroke="black" cx="984.791" cy="-49.4503" rx="47.3916" ry="18"/>
<text text-anchor="middle" x="984.791" y="-45.7503" font-family="Times New Roman,serif" font-size="14.00">(14) XOR</text>
</g>
<!-- node7&#45;&gt;node14 -->
<g id="edge19" class="edge"><title>node7&#45;&gt;node14</title>
<path fill="none" stroke="black" d="M220.081,-30.9968C261.888,-31.5889 333.231,-32.4503 394.523,-32.4503 394.523,-32.4503 394.523,-32.4503 835.549,-32.4503 867.503,-32.4503 903.081,-36.3972 931.372,-40.4874"/>
<polygon fill="black" stroke="black" points="931.037,-43.9762 941.445,-41.9938 932.073,-37.0532 931.037,-43.9762"/>
<text text-anchor="middle" x="608.862" y="-36.2503" font-family="Times New Roman,serif" font-size="14.00"> (0)</text>
</g>
<!-- node11 -->
<g id="node12" class="node"><title>node11</title>
<ellipse fill="none" stroke="black" cx="684.307" cy="-138.45" rx="47.3916" ry="18"/>
<text text-anchor="middle" x="684.307" y="-134.75" font-family="Times New Roman,serif" font-size="14.00">(11) XOR</text>
</g>
<!-- node8&#45;&gt;node11 -->
<g id="edge14" class="edge"><title>node8&#45;&gt;node11</title>
<path fill="none" stroke="black" d="M328.978,-99.8901C400.308,-107.653 547.73,-123.696 628.108,-132.443"/>
<polygon fill="black" stroke="black" points="628.196,-135.973 638.516,-133.576 628.953,-129.014 628.196,-135.973"/>
<text text-anchor="middle" x="470.969" y="-119.25" font-family="Times New Roman,serif" font-size="14.00"> (1)</text>
</g>
<!-- node12 -->
<g id="node13" class="node"><title>node12</title>
<ellipse fill="none" stroke="black" cx="834.549" cy="-83.4503" rx="46.5926" ry="18"/>
<text text-anchor="middle" x="834.549" y="-79.7503" font-family="Times New Roman,serif" font-size="14.00">(12) AND</text>
</g>
<!-- node8&#45;&gt;node12 -->
<g id="edge15" class="edge"><title>node8&#45;&gt;node12</title>
<path fill="none" stroke="black" d="M328.923,-91.2195C365.732,-87.7646 421.418,-83.4503 469.969,-83.4503 469.969,-83.4503 469.969,-83.4503 685.307,-83.4503 715.659,-83.4503 749.507,-83.4503 777.188,-83.4503"/>
<polygon fill="black" stroke="black" points="777.475,-86.9504 787.475,-83.4503 777.475,-79.9504 777.475,-86.9504"/>
<text text-anchor="middle" x="539.915" y="-87.2503" font-family="Times New Roman,serif" font-size="14.00"> (0)</text>
</g>
<!-- node9&#45;&gt;node10 -->
<g id="edge12" class="edge"><title>node9&#45;&gt;node10</title>
<path fill="none" stroke="black" d="M438.092,-176.45C453.863,-176.45 471.995,-176.45 488.495,-176.45"/>
<polygon fill="black" stroke="black" points="488.522,-179.95 498.522,-176.45 488.522,-172.95 488.522,-179.95"/>
<text text-anchor="middle" x="470.969" y="-180.25" font-family="Times New Roman,serif" font-size="14.00"> (1)</text>
</g>
<!-- node10&#45;&gt;node11 -->
<g id="edge13" class="edge"><title>node10&#45;&gt;node11</title>
<path fill="none" stroke="black" d="M575.384,-167.252C593.41,-162.441 615.76,-156.477 635.438,-151.225"/>
<polygon fill="black" stroke="black" points="636.39,-154.594 645.149,-148.634 634.585,-147.83 636.39,-154.594"/>
<text text-anchor="middle" x="608.862" y="-164.25" font-family="Times New Roman,serif" font-size="14.00"> (0)</text>
</g>
<!-- node11&#45;&gt;node12 -->
<g id="edge16" class="edge"><title>node11&#45;&gt;node12</title>
<path fill="none" stroke="black" d="M718.946,-125.97C740.249,-118.066 767.987,-107.775 790.838,-99.2966"/>
<polygon fill="black" stroke="black" points="792.141,-102.546 800.299,-95.7864 789.706,-95.9835 792.141,-102.546"/>
<text text-anchor="middle" x="759.753" y="-117.25" font-family="Times New Roman,serif" font-size="14.00"> (1)</text>
</g>
<!-- node16 -->
<g id="node17" class="node"><title>node16</title>
<ellipse fill="none" stroke="black" cx="1112.13" cy="-146.45" rx="42.7926" ry="18"/>
<text text-anchor="middle" x="1112.13" y="-142.75" font-family="Times New Roman,serif" font-size="14.00">Output 1</text>
</g>
<!-- node11&#45;&gt;node16 -->
<g id="edge22" class="edge"><title>node11&#45;&gt;node16</title>
<path fill="none" stroke="black" d="M732.096,-139.329C812.256,-140.835 975.282,-143.898 1058.98,-145.47"/>
<polygon fill="black" stroke="black" points="1058.96,-148.971 1069.03,-145.659 1059.1,-141.972 1058.96,-148.971"/>
</g>
<!-- node12&#45;&gt;node14 -->
<g id="edge20" class="edge"><title>node12&#45;&gt;node14</title>
<path fill="none" stroke="black" d="M875.275,-74.3389C893.231,-70.2205 914.648,-65.3084 933.693,-60.9405"/>
<polygon fill="black" stroke="black" points="934.733,-64.2929 943.697,-58.6459 933.168,-57.4701 934.733,-64.2929"/>
<text text-anchor="middle" x="909.345" y="-72.2503" font-family="Times New Roman,serif" font-size="14.00"> (1)</text>
</g>
<!-- node15 -->
<g id="node16" class="node"><title>node15</title>
<ellipse fill="none" stroke="black" cx="1112.13" cy="-320.45" rx="42.7926" ry="18"/>
<text text-anchor="middle" x="1112.13" y="-316.75" font-family="Times New Roman,serif" font-size="14.00">Output 0</text>
</g>
<!-- node13&#45;&gt;node15 -->
<g id="edge21" class="edge"><title>node13&#45;&gt;node15</title>
<path fill="none" stroke="black" d="M425.668,-255.502C431.438,-258.39 437.423,-261.463 442.969,-264.45 486.439,-287.864 489.54,-320.45 538.915,-320.45 538.915,-320.45 538.915,-320.45 985.791,-320.45 1009.85,-320.45 1036.51,-320.45 1059.03,-320.45"/>
<polygon fill="black" stroke="black" points="1059.07,-323.95 1069.07,-320.45 1059.07,-316.95 1059.07,-323.95"/>
</g>
<!-- node17 -->
<g id="node18" class="node"><title>node17</title>
<ellipse fill="none" stroke="black" cx="1112.13" cy="-49.4503" rx="42.7926" ry="18"/>
<text text-anchor="middle" x="1112.13" y="-45.7503" font-family="Times New Roman,serif" font-size="14.00">Output 2</text>
</g>
<!-- node14&#45;&gt;node17 -->
<g id="edge23" class="edge"><title>node14&#45;&gt;node17</title>
<path fill="none" stroke="black" d="M1032.46,-49.4503C1041.07,-49.4503 1050.1,-49.4503 1058.86,-49.4503"/>
<polygon fill="black" stroke="black" points="1058.97,-52.9504 1068.97,-49.4503 1058.97,-45.9504 1058.97,-52.9504"/>
</g>
</g>
</svg>
