<?xml version="1.0" encoding="UTF-8" standalone="no"?>
<!DOCTYPE svg PUBLIC "-//W3C//DTD SVG 1.1//EN"
 "http://www.w3.org/Graphics/SVG/1.1/DTD/svg11.dtd">
<!-- Generated by graphviz version 2.38.0 (20140413.2041)
 -->
<!-- Title: NeuralNetwork Pages: 1 -->
<svg width="288pt" height="101pt"
 viewBox="0.00 0.00 288.00 100.67" xmlns="http://www.w3.org/2000/svg" xmlns:xlink="http://www.w3.org/1999/xlink">
<g id="graph0" class="graph" transform="scale(0.280583 0.280583) rotate(0) translate(4 354.777)">
<title>NeuralNetwork</title>
<polygon fill="white" stroke="none" points="-4,4 -4,-354.777 1022.44,-354.777 1022.44,4 -4,4"/>
<!-- node0 -->
<g id="node1" class="node"><title>node0</title>
<ellipse fill="none" stroke="black" cx="42.2463" cy="-254.777" rx="42.4939" ry="18"/>
<text text-anchor="middle" x="42.2463" y="-251.077" font-family="Times New Roman,serif" font-size="14.00">(0) Input</text>
</g>
<!-- node5 -->
<g id="node6" class="node"><title>node5</title>
<ellipse fill="none" stroke="black" cx="187.288" cy="-246.777" rx="42.7926" ry="18"/>
<text text-anchor="middle" x="187.288" y="-243.077" font-family="Times New Roman,serif" font-size="14.00">(5) XOR</text>
</g>
<!-- node0&#45;&gt;node5 -->
<g id="edge2" class="edge"><title>node0&#45;&gt;node5</title>
<path fill="none" stroke="black" d="M84.8009,-253.52C96.9544,-253.067 110.26,-252.487 122.493,-251.777 126.496,-251.544 130.638,-251.278 134.801,-250.992"/>
<polygon fill="black" stroke="black" points="135.401,-254.458 145.124,-250.248 134.898,-247.476 135.401,-254.458"/>
<text text-anchor="middle" x="112.493" y="-255.577" font-family="Times New Roman,serif" font-size="14.00"> (1)</text>
</g>
<!-- node10 -->
<g id="node11" class="node"><title>node10</title>
<ellipse fill="none" stroke="black" cx="187.288" cy="-173.777" rx="46.5926" ry="18"/>
<text text-anchor="middle" x="187.288" y="-170.077" font-family="Times New Roman,serif" font-size="14.00">(10) AND</text>
</g>
<!-- node0&#45;&gt;node10 -->
<g id="edge12" class="edge"><title>node0&#45;&gt;node10</title>
<path fill="none" stroke="black" d="M70.685,-241.282C86.0803,-233.537 105.542,-223.454 122.493,-213.777 132.942,-207.811 144.123,-200.965 154.161,-194.642"/>
<polygon fill="black" stroke="black" points="156.075,-197.573 162.639,-189.256 152.322,-191.664 156.075,-197.573"/>
<text text-anchor="middle" x="112.493" y="-227.577" font-family="Times New Roman,serif" font-size="14.00"> (1)</text>
</g>
<!-- node1 -->
<g id="node2" class="node"><title>node1</title>
<ellipse fill="none" stroke="black" cx="42.2463" cy="-24.7768" rx="42.4939" ry="18"/>
<text text-anchor="middle" x="42.2463" y="-21.0768" font-family="Times New Roman,serif" font-size="14.00">(1) Input</text>
</g>
<!-- node6 -->
<g id="node7" class="node"><title>node6</title>
<ellipse fill="none" stroke="black" cx="187.288" cy="-27.7768" rx="36.2938" ry="18"/>
<text text-anchor="middle" x="187.288" y="-24.0768" font-family="Times New Roman,serif" font-size="14.00">(6) OR</text>
</g>
<!-- node1&#45;&gt;node6 -->
<g id="edge4" class="edge"><title>node1&#45;&gt;node6</title>
<path fill="none" stroke="black" d="M69.0152,-10.7878C84.3765,-4.09114 104.357,1.77682 122.493,-1.77682 132.336,-3.70565 142.577,-7.16116 151.898,-10.936"/>
<polygon fill="black" stroke="black" points="150.654,-14.2107 161.224,-14.9349 153.413,-7.77716 150.654,-14.2107"/>
<text text-anchor="middle" x="112.493" y="-5.57682" font-family="Times New Roman,serif" font-size="14.00"> (1)</text>
</g>
<!-- node7 -->
<g id="node8" class="node"><title>node7</title>
<ellipse fill="none" stroke="black" cx="187.288" cy="-110.777" rx="42.7926" ry="18"/>
<text text-anchor="middle" x="187.288" y="-107.077" font-family="Times New Roman,serif" font-size="14.00">(7) XOR</text>
</g>
<!-- node1&#45;&gt;node7 -->
<g id="edge6" class="edge"><title>node1&#45;&gt;node7</title>
<path fill="none" stroke="black" d="M84.5317,-25.5116C97.3185,-27.1527 111.044,-30.4509 122.493,-36.7768 128.136,-39.8952 149.581,-65.4146 166.066,-85.6248"/>
<polygon fill="black" stroke="black" points="163.524,-88.0457 172.544,-93.6036 168.958,-83.6338 163.524,-88.0457"/>
<text text-anchor="middle" x="112.493" y="-41.5768" font-family="Times New Roman,serif" font-size="14.00"> (1)</text>
</g>
<!-- node2 -->
<g id="node3" class="node"><title>node2</title>
<ellipse fill="none" stroke="black" cx="42.2463" cy="-332.777" rx="42.4939" ry="18"/>
<text text-anchor="middle" x="42.2463" y="-329.077" font-family="Times New Roman,serif" font-size="14.00">(2) Input</text>
</g>
<!-- node8 -->
<g id="node9" class="node"><title>node8</title>
<ellipse fill="none" stroke="black" cx="337.53" cy="-244.777" rx="42.4939" ry="18"/>
<text text-anchor="middle" x="337.53" y="-241.077" font-family="Times New Roman,serif" font-size="14.00">(8) AND</text>
</g>
<!-- node2&#45;&gt;node8 -->
<g id="edge7" class="edge"><title>node2&#45;&gt;node8</title>
<path fill="none" stroke="black" d="M79.5973,-324.234C97.8138,-320.13 120.25,-315.341 140.493,-311.777 198.628,-301.539 217.555,-316.384 272.084,-293.777 286.711,-287.713 300.945,-277.497 312.299,-267.957"/>
<polygon fill="black" stroke="black" points="314.801,-270.419 320.022,-261.2 310.191,-265.151 314.801,-270.419"/>
<text text-anchor="middle" x="187.288" y="-315.577" font-family="Times New Roman,serif" font-size="14.00"> (0)</text>
</g>
<!-- node9 -->
<g id="node10" class="node"><title>node9</title>
<ellipse fill="none" stroke="black" cx="337.53" cy="-330.777" rx="42.7926" ry="18"/>
<text text-anchor="middle" x="337.53" y="-327.077" font-family="Times New Roman,serif" font-size="14.00">(9) XOR</text>
</g>
<!-- node2&#45;&gt;node9 -->
<g id="edge9" class="edge"><title>node2&#45;&gt;node9</title>
<path fill="none" stroke="black" d="M84.6446,-332.495C136.968,-332.138 227.074,-331.523 284.139,-331.134"/>
<polygon fill="black" stroke="black" points="284.417,-334.632 294.393,-331.064 284.369,-327.633 284.417,-334.632"/>
<text text-anchor="middle" x="187.288" y="-335.577" font-family="Times New Roman,serif" font-size="14.00"> (0)</text>
</g>
<!-- node3 -->
<g id="node4" class="node"><title>node3</title>
<ellipse fill="none" stroke="black" cx="42.2463" cy="-89.7768" rx="42.4939" ry="18"/>
<text text-anchor="middle" x="42.2463" y="-86.0768" font-family="Times New Roman,serif" font-size="14.00">(3) Input</text>
</g>
<!-- node3&#45;&gt;node6 -->
<g id="edge3" class="edge"><title>node3&#45;&gt;node6</title>
<path fill="none" stroke="black" d="M72.5381,-77.0806C94.9517,-67.3657 125.986,-53.9143 149.977,-43.5155"/>
<polygon fill="black" stroke="black" points="151.668,-46.5972 159.451,-39.409 148.884,-40.1746 151.668,-46.5972"/>
<text text-anchor="middle" x="112.493" y="-66.5768" font-family="Times New Roman,serif" font-size="14.00"> (0)</text>
</g>
<!-- node3&#45;&gt;node7 -->
<g id="edge5" class="edge"><title>node3&#45;&gt;node7</title>
<path fill="none" stroke="black" d="M82.3331,-95.5152C98.9286,-97.9515 118.48,-100.822 136.123,-103.412"/>
<polygon fill="black" stroke="black" points="135.851,-106.909 146.253,-104.899 136.867,-99.9837 135.851,-106.909"/>
<text text-anchor="middle" x="112.493" y="-104.577" font-family="Times New Roman,serif" font-size="14.00"> (0)</text>
</g>
<!-- node4 -->
<g id="node5" class="node"><title>node4</title>
<ellipse fill="none" stroke="black" cx="42.2463" cy="-178.777" rx="42.4939" ry="18"/>
<text text-anchor="middle" x="42.2463" y="-175.077" font-family="Times New Roman,serif" font-size="14.00">(4) Input</text>
</g>
<!-- node4&#45;&gt;node5 -->
<g id="edge1" class="edge"><title>node4&#45;&gt;node5</title>
<path fill="none" stroke="black" d="M81.8056,-185.278C95.0973,-188.351 109.82,-192.716 122.493,-198.777 136.044,-205.258 149.555,-214.854 160.631,-223.766"/>
<polygon fill="black" stroke="black" points="158.661,-226.68 168.587,-230.385 163.138,-221.299 158.661,-226.68"/>
<text text-anchor="middle" x="112.493" y="-202.577" font-family="Times New Roman,serif" font-size="14.00"> (0)</text>
</g>
<!-- node4&#45;&gt;node10 -->
<g id="edge11" class="edge"><title>node4&#45;&gt;node10</title>
<path fill="none" stroke="black" d="M74.8284,-167.303C83.661,-164.612 93.3478,-162.135 102.493,-160.777 114.319,-159.02 127.074,-159.686 138.98,-161.415"/>
<polygon fill="black" stroke="black" points="138.729,-164.923 149.178,-163.173 139.918,-158.025 138.729,-164.923"/>
<text text-anchor="middle" x="112.493" y="-164.577" font-family="Times New Roman,serif" font-size="14.00"> (0)</text>
</g>
<!-- node5&#45;&gt;node8 -->
<g id="edge8" class="edge"><title>node5&#45;&gt;node8</title>
<path fill="none" stroke="black" d="M229.088,-242.366C236.721,-241.704 244.639,-241.126 252.084,-240.777 262.861,-240.271 274.412,-240.386 285.403,-240.806"/>
<polygon fill="black" stroke="black" points="285.572,-244.318 295.726,-241.292 285.902,-237.325 285.572,-244.318"/>
<text text-anchor="middle" x="262.084" y="-244.577" font-family="Times New Roman,serif" font-size="14.00"> (1)</text>
</g>
<!-- node5&#45;&gt;node9 -->
<g id="edge10" class="edge"><title>node5&#45;&gt;node9</title>
<path fill="none" stroke="black" d="M213.772,-261.217C238.167,-275.04 275.146,-295.994 302.143,-311.292"/>
<polygon fill="black" stroke="black" points="300.457,-314.359 310.883,-316.244 303.908,-308.269 300.457,-314.359"/>
<text text-anchor="middle" x="262.084" y="-297.577" font-family="Times New Roman,serif" font-size="14.00"> (1)</text>
</g>
<!-- node16 -->
<g id="node17" class="node"><title>node16</title>
<ellipse fill="none" stroke="black" cx="848.848" cy="-51.7768" rx="46.5926" ry="18"/>
<text text-anchor="middle" x="848.848" y="-48.0768" font-family="Times New Roman,serif" font-size="14.00">(16) AND</text>
</g>
<!-- node6&#45;&gt;node16 -->
<g id="edge23" class="edge"><title>node6&#45;&gt;node16</title>
<path fill="none" stroke="black" d="M223.933,-27.7768C253.961,-27.7768 298.054,-27.7768 336.53,-27.7768 336.53,-27.7768 336.53,-27.7768 706.106,-27.7768 737.532,-27.7768 772.334,-33.5829 799.588,-39.4835"/>
<polygon fill="black" stroke="black" points="799.118,-42.9649 809.642,-41.7377 800.65,-36.1345 799.118,-42.9649"/>
<text text-anchor="middle" x="560.713" y="-31.5768" font-family="Times New Roman,serif" font-size="14.00"> (1)</text>
</g>
<!-- node11 -->
<g id="node12" class="node"><title>node11</title>
<ellipse fill="none" stroke="black" cx="337.53" cy="-129.777" rx="47.3916" ry="18"/>
<text text-anchor="middle" x="337.53" y="-126.077" font-family="Times New Roman,serif" font-size="14.00">(11) XOR</text>
</g>
<!-- node7&#45;&gt;node11 -->
<g id="edge13" class="edge"><title>node7&#45;&gt;node11</title>
<path fill="none" stroke="black" d="M230.167,-112.723C243.593,-113.628 258.499,-114.928 272.084,-116.777 276.596,-117.391 281.266,-118.129 285.936,-118.938"/>
<polygon fill="black" stroke="black" points="285.63,-122.44 296.098,-120.801 286.893,-115.555 285.63,-122.44"/>
<text text-anchor="middle" x="262.084" y="-120.577" font-family="Times New Roman,serif" font-size="14.00"> (0)</text>
</g>
<!-- node13 -->
<g id="node14" class="node"><title>node13</title>
<ellipse fill="none" stroke="black" cx="449.122" cy="-77.7768" rx="46.2923" ry="18"/>
<text text-anchor="middle" x="449.122" y="-74.0768" font-family="Times New Roman,serif" font-size="14.00">(13) NEG</text>
</g>
<!-- node7&#45;&gt;node13 -->
<g id="edge17" class="edge"><title>node7&#45;&gt;node13</title>
<path fill="none" stroke="black" d="M223.509,-100.879C232.745,-98.5768 242.737,-96.344 252.084,-94.7768 299.249,-86.869 353.452,-82.5263 392.892,-80.2142"/>
<polygon fill="black" stroke="black" points="393.308,-83.6965 403.096,-79.6419 392.916,-76.7075 393.308,-83.6965"/>
<text text-anchor="middle" x="262.084" y="-98.5768" font-family="Times New Roman,serif" font-size="14.00"> (0)</text>
</g>
<!-- node12 -->
<g id="node13" class="node"><title>node12</title>
<ellipse fill="none" stroke="black" cx="560.713" cy="-129.777" rx="47.3916" ry="18"/>
<text text-anchor="middle" x="560.713" y="-126.077" font-family="Times New Roman,serif" font-size="14.00">(12) XOR</text>
</g>
<!-- node8&#45;&gt;node12 -->
<g id="edge15" class="edge"><title>node8&#45;&gt;node12</title>
<path fill="none" stroke="black" d="M365.21,-230.905C404.577,-210.437 478.359,-172.075 522.866,-148.935"/>
<polygon fill="black" stroke="black" points="524.638,-151.959 531.895,-144.24 521.408,-145.748 524.638,-151.959"/>
<text text-anchor="middle" x="449.122" y="-214.577" font-family="Times New Roman,serif" font-size="14.00"> (0)</text>
</g>
<!-- node14 -->
<g id="node15" class="node"><title>node14</title>
<ellipse fill="none" stroke="black" cx="560.713" cy="-183.777" rx="47.3916" ry="18"/>
<text text-anchor="middle" x="560.713" y="-180.077" font-family="Times New Roman,serif" font-size="14.00">(14) XOR</text>
</g>
<!-- node8&#45;&gt;node14 -->
<g id="edge19" class="edge"><title>node8&#45;&gt;node14</title>
<path fill="none" stroke="black" d="M379.183,-247.855C411.653,-248.872 457.768,-247.031 495.268,-232.777 510.069,-227.151 524.323,-216.987 535.646,-207.369"/>
<polygon fill="black" stroke="black" points="538.187,-209.793 543.338,-200.535 533.538,-204.56 538.187,-209.793"/>
<text text-anchor="middle" x="449.122" y="-251.577" font-family="Times New Roman,serif" font-size="14.00"> (1)</text>
</g>
<!-- node17 -->
<g id="node18" class="node"><title>node17</title>
<ellipse fill="none" stroke="black" cx="975.54" cy="-330.777" rx="42.7926" ry="18"/>
<text text-anchor="middle" x="975.54" y="-327.077" font-family="Times New Roman,serif" font-size="14.00">Output 0</text>
</g>
<!-- node9&#45;&gt;node17 -->
<g id="edge24" class="edge"><title>node9&#45;&gt;node17</title>
<path fill="none" stroke="black" d="M380.521,-330.777C425.011,-330.777 497.314,-330.777 559.713,-330.777 559.713,-330.777 559.713,-330.777 849.848,-330.777 873.582,-330.777 899.857,-330.777 922.144,-330.777"/>
<polygon fill="black" stroke="black" points="922.406,-334.277 932.406,-330.777 922.406,-327.277 922.406,-334.277"/>
</g>
<!-- node10&#45;&gt;node11 -->
<g id="edge14" class="edge"><title>node10&#45;&gt;node11</title>
<path fill="none" stroke="black" d="M224.721,-162.915C233.668,-160.251 243.222,-157.408 252.084,-154.777 264.344,-151.137 277.606,-147.206 289.908,-143.564"/>
<polygon fill="black" stroke="black" points="290.935,-146.91 299.531,-140.716 288.949,-140.198 290.935,-146.91"/>
<text text-anchor="middle" x="262.084" y="-158.577" font-family="Times New Roman,serif" font-size="14.00"> (1)</text>
</g>
<!-- node10&#45;&gt;node14 -->
<g id="edge18" class="edge"><title>node10&#45;&gt;node14</title>
<path fill="none" stroke="black" d="M234.205,-175.013C302.237,-176.845 429.677,-180.276 503.299,-182.258"/>
<polygon fill="black" stroke="black" points="503.228,-185.757 513.319,-182.528 503.416,-178.76 503.228,-185.757"/>
<text text-anchor="middle" x="337.53" y="-182.577" font-family="Times New Roman,serif" font-size="14.00"> (0)</text>
</g>
<!-- node11&#45;&gt;node12 -->
<g id="edge16" class="edge"><title>node11&#45;&gt;node12</title>
<path fill="none" stroke="black" d="M385.167,-129.777C419.575,-129.777 466.567,-129.777 503.125,-129.777"/>
<polygon fill="black" stroke="black" points="503.14,-133.277 513.14,-129.777 503.14,-126.277 503.14,-133.277"/>
<text text-anchor="middle" x="449.122" y="-133.577" font-family="Times New Roman,serif" font-size="14.00"> (1)</text>
</g>
<!-- node18 -->
<g id="node19" class="node"><title>node18</title>
<ellipse fill="none" stroke="black" cx="975.54" cy="-129.777" rx="42.7926" ry="18"/>
<text text-anchor="middle" x="975.54" y="-126.077" font-family="Times New Roman,serif" font-size="14.00">Output 1</text>
</g>
<!-- node12&#45;&gt;node18 -->
<g id="edge25" class="edge"><title>node12&#45;&gt;node18</title>
<path fill="none" stroke="black" d="M608.267,-129.777C685.761,-129.777 840.712,-129.777 922.002,-129.777"/>
<polygon fill="black" stroke="black" points="922.492,-133.277 932.492,-129.777 922.492,-126.277 922.492,-133.277"/>
</g>
<!-- node15 -->
<g id="node16" class="node"><title>node15</title>
<ellipse fill="none" stroke="black" cx="705.106" cy="-78.7768" rx="40.8928" ry="18"/>
<text text-anchor="middle" x="705.106" y="-75.0768" font-family="Times New Roman,serif" font-size="14.00">(15) OR</text>
</g>
<!-- node13&#45;&gt;node15 -->
<g id="edge20" class="edge"><title>node13&#45;&gt;node15</title>
<path fill="none" stroke="black" d="M495.529,-77.9556C540.1,-78.1311 607.924,-78.3981 654.036,-78.5797"/>
<polygon fill="black" stroke="black" points="654.092,-82.0798 664.106,-78.6193 654.12,-75.0799 654.092,-82.0798"/>
<text text-anchor="middle" x="560.713" y="-81.5768" font-family="Times New Roman,serif" font-size="14.00"> (0)</text>
</g>
<!-- node14&#45;&gt;node15 -->
<g id="edge21" class="edge"><title>node14&#45;&gt;node15</title>
<path fill="none" stroke="black" d="M588.682,-169.053C595.182,-165.245 602.02,-161.018 608.159,-156.777 633.041,-139.587 659.592,-117.696 678.442,-101.483"/>
<polygon fill="black" stroke="black" points="680.758,-104.108 686.021,-94.9126 676.172,-98.8182 680.758,-104.108"/>
<text text-anchor="middle" x="636.159" y="-146.577" font-family="Times New Roman,serif" font-size="14.00"> (1)</text>
</g>
<!-- node15&#45;&gt;node16 -->
<g id="edge22" class="edge"><title>node15&#45;&gt;node16</title>
<path fill="none" stroke="black" d="M742.977,-71.7534C759.296,-68.6447 778.768,-64.9357 796.478,-61.5622"/>
<polygon fill="black" stroke="black" points="797.496,-64.9312 806.664,-59.6218 796.186,-58.0549 797.496,-64.9312"/>
<text text-anchor="middle" x="774.052" y="-71.5768" font-family="Times New Roman,serif" font-size="14.00"> (0)</text>
</g>
<!-- node19 -->
<g id="node20" class="node"><title>node19</title>
<ellipse fill="none" stroke="black" cx="975.54" cy="-51.7768" rx="42.7926" ry="18"/>
<text text-anchor="middle" x="975.54" y="-48.0768" font-family="Times New Roman,serif" font-size="14.00">Output 2</text>
</g>
<!-- node16&#45;&gt;node19 -->
<g id="edge26" class="edge"><title>node16&#45;&gt;node19</title>
<path fill="none" stroke="black" d="M895.924,-51.7768C904.501,-51.7768 913.519,-51.7768 922.265,-51.7768"/>
<polygon fill="black" stroke="black" points="922.366,-55.2769 932.366,-51.7768 922.365,-48.2769 922.366,-55.2769"/>
</g>
</g>
</svg>
