<?xml version="1.0" encoding="UTF-8" standalone="no"?>
<!DOCTYPE svg PUBLIC "-//W3C//DTD SVG 1.1//EN"
 "http://www.w3.org/Graphics/SVG/1.1/DTD/svg11.dtd">
<!-- Generated by graphviz version 2.38.0 (20140413.2041)
 -->
<!-- Title: NeuralNetwork Pages: 1 -->
<svg width="288pt" height="109pt"
 viewBox="0.00 0.00 288.00 109.44" xmlns="http://www.w3.org/2000/svg" xmlns:xlink="http://www.w3.org/1999/xlink">
<g id="graph0" class="graph" transform="scale(0.249863 0.249863) rotate(0) translate(4 434)">
<title>NeuralNetwork</title>
<polygon fill="white" stroke="none" points="-4,4 -4,-434 1148.63,-434 1148.63,4 -4,4"/>
<!-- node0 -->
<g id="node1" class="node"><title>node0</title>
<ellipse fill="none" stroke="black" cx="42.2463" cy="-279" rx="42.4939" ry="18"/>
<text text-anchor="middle" x="42.2463" y="-275.3" font-family="Times New Roman,serif" font-size="14.00">(0) Input</text>
</g>
<!-- node6 -->
<g id="node7" class="node"><title>node6</title>
<ellipse fill="none" stroke="black" cx="288.481" cy="-260" rx="36.2938" ry="18"/>
<text text-anchor="middle" x="288.481" y="-256.3" font-family="Times New Roman,serif" font-size="14.00">(6) OR</text>
</g>
<!-- node0&#45;&gt;node6 -->
<g id="edge4" class="edge"><title>node0&#45;&gt;node6</title>
<path fill="none" stroke="black" d="M83.8508,-275.841C127.517,-272.444 196.775,-267.056 242.179,-263.524"/>
<polygon fill="black" stroke="black" points="242.634,-267 252.332,-262.734 242.091,-260.021 242.634,-267"/>
<text text-anchor="middle" x="112.493" y="-277.8" font-family="Times New Roman,serif" font-size="14.00"> (1)</text>
</g>
<!-- node7 -->
<g id="node8" class="node"><title>node7</title>
<ellipse fill="none" stroke="black" cx="187.288" cy="-320" rx="42.4939" ry="18"/>
<text text-anchor="middle" x="187.288" y="-316.3" font-family="Times New Roman,serif" font-size="14.00">(7) AND</text>
</g>
<!-- node0&#45;&gt;node7 -->
<g id="edge5" class="edge"><title>node0&#45;&gt;node7</title>
<path fill="none" stroke="black" d="M77.8728,-288.925C97.0578,-294.424 121.12,-301.321 141.699,-307.219"/>
<polygon fill="black" stroke="black" points="140.908,-310.633 151.485,-310.024 142.836,-303.904 140.908,-310.633"/>
<text text-anchor="middle" x="112.493" y="-303.8" font-family="Times New Roman,serif" font-size="14.00"> (0)</text>
</g>
<!-- node1 -->
<g id="node2" class="node"><title>node1</title>
<ellipse fill="none" stroke="black" cx="42.2463" cy="-33" rx="42.4939" ry="18"/>
<text text-anchor="middle" x="42.2463" y="-29.3" font-family="Times New Roman,serif" font-size="14.00">(1) Input</text>
</g>
<!-- node5 -->
<g id="node6" class="node"><title>node5</title>
<ellipse fill="none" stroke="black" cx="187.288" cy="-76" rx="36.2938" ry="18"/>
<text text-anchor="middle" x="187.288" y="-72.3" font-family="Times New Roman,serif" font-size="14.00">(5) OR</text>
</g>
<!-- node1&#45;&gt;node5 -->
<g id="edge2" class="edge"><title>node1&#45;&gt;node5</title>
<path fill="none" stroke="black" d="M83.8364,-29.1392C96.4546,-29.0927 110.258,-30.2501 122.493,-34 136.098,-38.1702 149.507,-46.2244 160.494,-54.1736"/>
<polygon fill="black" stroke="black" points="158.665,-57.1803 168.743,-60.45 162.904,-51.6094 158.665,-57.1803"/>
<text text-anchor="middle" x="112.493" y="-37.8" font-family="Times New Roman,serif" font-size="14.00"> (1)</text>
</g>
<!-- node12 -->
<g id="node13" class="node"><title>node12</title>
<ellipse fill="none" stroke="black" cx="187.288" cy="-130" rx="46.5926" ry="18"/>
<text text-anchor="middle" x="187.288" y="-126.3" font-family="Times New Roman,serif" font-size="14.00">(12) AND</text>
</g>
<!-- node1&#45;&gt;node12 -->
<g id="edge15" class="edge"><title>node1&#45;&gt;node12</title>
<path fill="none" stroke="black" d="M63.73,-48.5789C83.1514,-63.1484 113.318,-85.2618 140.493,-103 144.057,-105.327 147.824,-107.692 151.605,-110.006"/>
<polygon fill="black" stroke="black" points="149.988,-113.117 160.362,-115.269 153.594,-107.118 149.988,-113.117"/>
<text text-anchor="middle" x="112.493" y="-94.8" font-family="Times New Roman,serif" font-size="14.00"> (0)</text>
</g>
<!-- node15 -->
<g id="node16" class="node"><title>node15</title>
<ellipse fill="none" stroke="black" cx="974.392" cy="-162" rx="47.3916" ry="18"/>
<text text-anchor="middle" x="974.392" y="-158.3" font-family="Times New Roman,serif" font-size="14.00">(15) XOR</text>
</g>
<!-- node1&#45;&gt;node15 -->
<g id="edge22" class="edge"><title>node1&#45;&gt;node15</title>
<path fill="none" stroke="black" d="M74.8628,-21.3654C103.533,-11.8645 147.167,-0 186.288,-0 186.288,-0 186.288,-0 824.5,-0 895.987,-0 876.276,-73.5723 926.946,-124 932.226,-129.255 938.179,-134.538 944.019,-139.425"/>
<polygon fill="black" stroke="black" points="941.875,-142.193 951.836,-145.803 946.3,-136.769 941.875,-142.193"/>
<text text-anchor="middle" x="527.566" y="-3.8" font-family="Times New Roman,serif" font-size="14.00"> (1)</text>
</g>
<!-- node2 -->
<g id="node3" class="node"><title>node2</title>
<ellipse fill="none" stroke="black" cx="42.2463" cy="-412" rx="42.4939" ry="18"/>
<text text-anchor="middle" x="42.2463" y="-408.3" font-family="Times New Roman,serif" font-size="14.00">(2) Input</text>
</g>
<!-- node8 -->
<g id="node9" class="node"><title>node8</title>
<ellipse fill="none" stroke="black" cx="385.774" cy="-320" rx="42.7926" ry="18"/>
<text text-anchor="middle" x="385.774" y="-316.3" font-family="Times New Roman,serif" font-size="14.00">(8) XOR</text>
</g>
<!-- node2&#45;&gt;node8 -->
<g id="edge8" class="edge"><title>node2&#45;&gt;node8</title>
<path fill="none" stroke="black" d="M80.7992,-404.612C119.47,-396.754 181.357,-383.479 234.084,-369 271.145,-358.823 312.634,-345.16 342.681,-334.848"/>
<polygon fill="black" stroke="black" points="344.099,-338.061 352.409,-331.489 341.814,-331.444 344.099,-338.061"/>
<text text-anchor="middle" x="187.288" y="-394.8" font-family="Times New Roman,serif" font-size="14.00"> (1)</text>
</g>
<!-- node3 -->
<g id="node4" class="node"><title>node3</title>
<ellipse fill="none" stroke="black" cx="42.2463" cy="-147" rx="42.4939" ry="18"/>
<text text-anchor="middle" x="42.2463" y="-143.3" font-family="Times New Roman,serif" font-size="14.00">(3) Input</text>
</g>
<!-- node3&#45;&gt;node5 -->
<g id="edge1" class="edge"><title>node3&#45;&gt;node5</title>
<path fill="none" stroke="black" d="M70.4881,-133.478C93.6324,-121.99 126.976,-105.44 151.945,-93.0464"/>
<polygon fill="black" stroke="black" points="153.665,-96.1002 161.066,-88.5191 150.553,-89.8301 153.665,-96.1002"/>
<text text-anchor="middle" x="112.493" y="-119.8" font-family="Times New Roman,serif" font-size="14.00"> (0)</text>
</g>
<!-- node3&#45;&gt;node12 -->
<g id="edge16" class="edge"><title>node3&#45;&gt;node12</title>
<path fill="none" stroke="black" d="M83.0915,-142.265C98.3575,-140.45 116.036,-138.349 132.402,-136.404"/>
<polygon fill="black" stroke="black" points="132.871,-139.873 142.388,-135.217 132.045,-132.922 132.871,-139.873"/>
<text text-anchor="middle" x="112.493" y="-143.8" font-family="Times New Roman,serif" font-size="14.00"> (1)</text>
</g>
<!-- node13 -->
<g id="node14" class="node"><title>node13</title>
<ellipse fill="none" stroke="black" cx="823.5" cy="-181" rx="47.3916" ry="18"/>
<text text-anchor="middle" x="823.5" y="-177.3" font-family="Times New Roman,serif" font-size="14.00">(13) XOR</text>
</g>
<!-- node3&#45;&gt;node13 -->
<g id="edge17" class="edge"><title>node3&#45;&gt;node13</title>
<path fill="none" stroke="black" d="M76.0758,-157.916C104.808,-166.493 147.847,-177 186.288,-177 186.288,-177 186.288,-177 674.258,-177 704.507,-177 738.215,-177.843 765.836,-178.754"/>
<polygon fill="black" stroke="black" points="765.99,-182.261 776.104,-179.105 766.229,-175.266 765.99,-182.261"/>
<text text-anchor="middle" x="456.67" y="-180.8" font-family="Times New Roman,serif" font-size="14.00"> (0)</text>
</g>
<!-- node4 -->
<g id="node5" class="node"><title>node4</title>
<ellipse fill="none" stroke="black" cx="42.2463" cy="-340" rx="42.4939" ry="18"/>
<text text-anchor="middle" x="42.2463" y="-336.3" font-family="Times New Roman,serif" font-size="14.00">(4) Input</text>
</g>
<!-- node4&#45;&gt;node6 -->
<g id="edge3" class="edge"><title>node4&#45;&gt;node6</title>
<path fill="none" stroke="black" d="M75.7903,-351.057C115.907,-362.586 184.808,-375.369 234.084,-347 247.891,-339.051 243.827,-329.625 252.084,-316 258.138,-306.012 264.958,-295.136 270.985,-285.649"/>
<polygon fill="black" stroke="black" points="274.041,-287.366 276.469,-277.052 268.14,-283.601 274.041,-287.366"/>
<text text-anchor="middle" x="112.493" y="-364.8" font-family="Times New Roman,serif" font-size="14.00"> (0)</text>
</g>
<!-- node4&#45;&gt;node7 -->
<g id="edge6" class="edge"><title>node4&#45;&gt;node7</title>
<path fill="none" stroke="black" d="M80.7842,-332.582C87.9739,-331.289 95.4536,-330.03 102.493,-329 113.135,-327.443 124.574,-326.038 135.475,-324.826"/>
<polygon fill="black" stroke="black" points="136.15,-328.274 145.719,-323.725 135.402,-321.314 136.15,-328.274"/>
<text text-anchor="middle" x="112.493" y="-332.8" font-family="Times New Roman,serif" font-size="14.00"> (1)</text>
</g>
<!-- node16 -->
<g id="node17" class="node"><title>node16</title>
<ellipse fill="none" stroke="black" cx="974.392" cy="-97" rx="46.5926" ry="18"/>
<text text-anchor="middle" x="974.392" y="-93.3" font-family="Times New Roman,serif" font-size="14.00">(16) AND</text>
</g>
<!-- node5&#45;&gt;node16 -->
<g id="edge23" class="edge"><title>node5&#45;&gt;node16</title>
<path fill="none" stroke="black" d="M223.78,-77.157C263.126,-78.3383 328.477,-80 384.774,-80 384.774,-80 384.774,-80 824.5,-80 856.824,-80 892.843,-84.0041 921.356,-88.1258"/>
<polygon fill="black" stroke="black" points="921.093,-91.6253 931.501,-89.6424 922.128,-84.7022 921.093,-91.6253"/>
<text text-anchor="middle" x="598.463" y="-83.8" font-family="Times New Roman,serif" font-size="14.00"> (0)</text>
</g>
<!-- node9 -->
<g id="node10" class="node"><title>node9</title>
<ellipse fill="none" stroke="black" cx="527.566" cy="-282" rx="42.7926" ry="18"/>
<text text-anchor="middle" x="527.566" y="-278.3" font-family="Times New Roman,serif" font-size="14.00">(9) XOR</text>
</g>
<!-- node6&#45;&gt;node9 -->
<g id="edge10" class="edge"><title>node6&#45;&gt;node9</title>
<path fill="none" stroke="black" d="M324.464,-263.246C364.341,-266.946 429.885,-273.029 475.477,-277.259"/>
<polygon fill="black" stroke="black" points="475.179,-280.747 485.46,-278.186 475.826,-273.776 475.179,-280.747"/>
<text text-anchor="middle" x="385.774" y="-275.8" font-family="Times New Roman,serif" font-size="14.00"> (1)</text>
</g>
<!-- node11 -->
<g id="node12" class="node"><title>node11</title>
<ellipse fill="none" stroke="black" cx="673.258" cy="-232" rx="46.5926" ry="18"/>
<text text-anchor="middle" x="673.258" y="-228.3" font-family="Times New Roman,serif" font-size="14.00">(11) AND</text>
</g>
<!-- node6&#45;&gt;node11 -->
<g id="edge13" class="edge"><title>node6&#45;&gt;node11</title>
<path fill="none" stroke="black" d="M324.806,-257.416C391.582,-252.531 536.786,-241.91 616.723,-236.062"/>
<polygon fill="black" stroke="black" points="617.364,-239.525 627.082,-235.305 616.853,-232.544 617.364,-239.525"/>
<text text-anchor="middle" x="456.67" y="-251.8" font-family="Times New Roman,serif" font-size="14.00"> (0)</text>
</g>
<!-- node7&#45;&gt;node8 -->
<g id="edge7" class="edge"><title>node7&#45;&gt;node8</title>
<path fill="none" stroke="black" d="M229.958,-320C259.944,-320 300.597,-320 332.721,-320"/>
<polygon fill="black" stroke="black" points="332.826,-323.5 342.826,-320 332.826,-316.5 332.826,-323.5"/>
<text text-anchor="middle" x="288.481" y="-323.8" font-family="Times New Roman,serif" font-size="14.00"> (0)</text>
</g>
<!-- node10 -->
<g id="node11" class="node"><title>node10</title>
<ellipse fill="none" stroke="black" cx="527.566" cy="-340" rx="40.8928" ry="18"/>
<text text-anchor="middle" x="527.566" y="-336.3" font-family="Times New Roman,serif" font-size="14.00">(10) OR</text>
</g>
<!-- node7&#45;&gt;node10 -->
<g id="edge11" class="edge"><title>node7&#45;&gt;node10</title>
<path fill="none" stroke="black" d="M220.758,-331.046C230.707,-334.057 241.754,-337.028 252.084,-339 345.886,-356.911 371.5,-357.89 466.67,-350 470.866,-349.652 475.211,-349.169 479.555,-348.602"/>
<polygon fill="black" stroke="black" points="480.225,-352.042 489.623,-347.15 479.226,-345.114 480.225,-352.042"/>
<text text-anchor="middle" x="385.774" y="-357.8" font-family="Times New Roman,serif" font-size="14.00"> (0)</text>
</g>
<!-- node8&#45;&gt;node9 -->
<g id="edge9" class="edge"><title>node8&#45;&gt;node9</title>
<path fill="none" stroke="black" d="M422.411,-310.313C440.321,-305.444 462.218,-299.492 481.305,-294.303"/>
<polygon fill="black" stroke="black" points="482.262,-297.67 490.994,-291.67 480.426,-290.915 482.262,-297.67"/>
<text text-anchor="middle" x="456.67" y="-306.8" font-family="Times New Roman,serif" font-size="14.00"> (0)</text>
</g>
<!-- node8&#45;&gt;node10 -->
<g id="edge12" class="edge"><title>node8&#45;&gt;node10</title>
<path fill="none" stroke="black" d="M426.833,-325.731C442.868,-328.025 461.483,-330.689 478.258,-333.088"/>
<polygon fill="black" stroke="black" points="478.03,-336.592 488.425,-334.543 479.022,-329.662 478.03,-336.592"/>
<text text-anchor="middle" x="456.67" y="-334.8" font-family="Times New Roman,serif" font-size="14.00"> (1)</text>
</g>
<!-- node17 -->
<g id="node18" class="node"><title>node17</title>
<ellipse fill="none" stroke="black" cx="1101.73" cy="-282" rx="42.7926" ry="18"/>
<text text-anchor="middle" x="1101.73" y="-278.3" font-family="Times New Roman,serif" font-size="14.00">Output 0</text>
</g>
<!-- node9&#45;&gt;node17 -->
<g id="edge25" class="edge"><title>node9&#45;&gt;node17</title>
<path fill="none" stroke="black" d="M570.693,-282C599.332,-282 638.082,-282 672.258,-282 672.258,-282 672.258,-282 975.392,-282 999.452,-282 1026.11,-282 1048.63,-282"/>
<polygon fill="black" stroke="black" points="1048.67,-285.5 1058.67,-282 1048.67,-278.5 1048.67,-285.5"/>
</g>
<!-- node10&#45;&gt;node11 -->
<g id="edge14" class="edge"><title>node10&#45;&gt;node11</title>
<path fill="none" stroke="black" d="M549.483,-324.59C556.194,-319.628 563.652,-314.095 570.463,-309 594.993,-290.648 622.716,-269.661 643.03,-254.238"/>
<polygon fill="black" stroke="black" points="645.406,-256.828 651.252,-247.992 641.171,-251.254 645.406,-256.828"/>
<text text-anchor="middle" x="598.463" y="-297.8" font-family="Times New Roman,serif" font-size="14.00"> (1)</text>
</g>
<!-- node11&#45;&gt;node13 -->
<g id="edge18" class="edge"><title>node11&#45;&gt;node13</title>
<path fill="none" stroke="black" d="M719.961,-233.149C732.585,-232.288 746.094,-230.238 758.054,-226 771.892,-221.097 785.48,-212.368 796.585,-203.895"/>
<polygon fill="black" stroke="black" points="798.923,-206.506 804.556,-197.533 794.557,-201.035 798.923,-206.506"/>
<text text-anchor="middle" x="748.054" y="-234.8" font-family="Times New Roman,serif" font-size="14.00"> (1)</text>
</g>
<!-- node14 -->
<g id="node15" class="node"><title>node14</title>
<ellipse fill="none" stroke="black" cx="823.5" cy="-127" rx="40.8928" ry="18"/>
<text text-anchor="middle" x="823.5" y="-123.3" font-family="Times New Roman,serif" font-size="14.00">(14) OR</text>
</g>
<!-- node11&#45;&gt;node14 -->
<g id="edge20" class="edge"><title>node11&#45;&gt;node14</title>
<path fill="none" stroke="black" d="M693.981,-215.684C714.093,-199.338 746.457,-173.825 776.054,-154 780.011,-151.35 784.237,-148.682 788.468,-146.11"/>
<polygon fill="black" stroke="black" points="790.262,-149.115 797.074,-141.001 786.688,-143.097 790.262,-149.115"/>
<text text-anchor="middle" x="748.054" y="-184.8" font-family="Times New Roman,serif" font-size="14.00"> (1)</text>
</g>
<!-- node12&#45;&gt;node14 -->
<g id="edge19" class="edge"><title>node12&#45;&gt;node14</title>
<path fill="none" stroke="black" d="M234.34,-129.633C274.159,-129.348 333.264,-129 384.774,-129 384.774,-129 384.774,-129 674.258,-129 706.924,-129 743.636,-128.508 772.353,-128.013"/>
<polygon fill="black" stroke="black" points="772.613,-131.509 782.549,-127.831 772.488,-124.51 772.613,-131.509"/>
<text text-anchor="middle" x="527.566" y="-132.8" font-family="Times New Roman,serif" font-size="14.00"> (0)</text>
</g>
<!-- node13&#45;&gt;node15 -->
<g id="edge21" class="edge"><title>node13&#45;&gt;node15</title>
<path fill="none" stroke="black" d="M868.769,-175.351C884.6,-173.331 902.621,-171.031 919.194,-168.916"/>
<polygon fill="black" stroke="black" points="919.816,-172.365 929.293,-167.627 918.93,-165.421 919.816,-172.365"/>
<text text-anchor="middle" x="898.946" y="-176.8" font-family="Times New Roman,serif" font-size="14.00"> (0)</text>
</g>
<!-- node14&#45;&gt;node16 -->
<g id="edge24" class="edge"><title>node14&#45;&gt;node16</title>
<path fill="none" stroke="black" d="M860.923,-119.661C879.483,-115.922 902.352,-111.314 922.612,-107.232"/>
<polygon fill="black" stroke="black" points="923.512,-110.621 932.623,-105.214 922.129,-103.759 923.512,-110.621"/>
<text text-anchor="middle" x="898.946" y="-117.8" font-family="Times New Roman,serif" font-size="14.00"> (1)</text>
</g>
<!-- node18 -->
<g id="node19" class="node"><title>node18</title>
<ellipse fill="none" stroke="black" cx="1101.73" cy="-162" rx="42.7926" ry="18"/>
<text text-anchor="middle" x="1101.73" y="-158.3" font-family="Times New Roman,serif" font-size="14.00">Output 1</text>
</g>
<!-- node15&#45;&gt;node18 -->
<g id="edge26" class="edge"><title>node15&#45;&gt;node18</title>
<path fill="none" stroke="black" d="M1022.06,-162C1030.67,-162 1039.7,-162 1048.46,-162"/>
<polygon fill="black" stroke="black" points="1048.57,-165.5 1058.57,-162 1048.57,-158.5 1048.57,-165.5"/>
</g>
<!-- node19 -->
<g id="node20" class="node"><title>node19</title>
<ellipse fill="none" stroke="black" cx="1101.73" cy="-97" rx="42.7926" ry="18"/>
<text text-anchor="middle" x="1101.73" y="-93.3" font-family="Times New Roman,serif" font-size="14.00">Output 2</text>
</g>
<!-- node16&#45;&gt;node19 -->
<g id="edge27" class="edge"><title>node16&#45;&gt;node19</title>
<path fill="none" stroke="black" d="M1021.35,-97C1030.19,-97 1039.5,-97 1048.51,-97"/>
<polygon fill="black" stroke="black" points="1048.52,-100.5 1058.52,-97 1048.52,-93.5001 1048.52,-100.5"/>
</g>
</g>
</svg>
