<?xml version="1.0" encoding="UTF-8" standalone="no"?>
<!DOCTYPE svg PUBLIC "-//W3C//DTD SVG 1.1//EN"
 "http://www.w3.org/Graphics/SVG/1.1/DTD/svg11.dtd">
<!-- Generated by graphviz version 2.38.0 (20140413.2041)
 -->
<!-- Title: NeuralNetwork Pages: 1 -->
<svg width="288pt" height="97pt"
 viewBox="0.00 0.00 288.00 96.84" xmlns="http://www.w3.org/2000/svg" xmlns:xlink="http://www.w3.org/1999/xlink">
<g id="graph0" class="graph" transform="scale(0.250428 0.250428) rotate(0) translate(4 382.717)">
<title>NeuralNetwork</title>
<polygon fill="white" stroke="none" points="-4,4 -4,-382.717 1146.03,-382.717 1146.03,4 -4,4"/>
<!-- node0 -->
<g id="node1" class="node"><title>node0</title>
<ellipse fill="none" stroke="black" cx="42.2463" cy="-360.717" rx="42.4939" ry="18"/>
<text text-anchor="middle" x="42.2463" y="-357.017" font-family="Times New Roman,serif" font-size="14.00">(0) Input</text>
</g>
<!-- node5 -->
<g id="node6" class="node"><title>node5</title>
<ellipse fill="none" stroke="black" cx="183.389" cy="-277.717" rx="42.7926" ry="18"/>
<text text-anchor="middle" x="183.389" y="-274.017" font-family="Times New Roman,serif" font-size="14.00">(5) XOR</text>
</g>
<!-- node0&#45;&gt;node5 -->
<g id="edge1" class="edge"><title>node0&#45;&gt;node5</title>
<path fill="none" stroke="black" d="M56.0371,-343.599C66.9738,-330.107 83.8651,-311.782 102.493,-300.717 111.994,-295.073 122.958,-290.748 133.661,-287.458"/>
<polygon fill="black" stroke="black" points="134.693,-290.803 143.366,-284.718 132.792,-284.066 134.693,-290.803"/>
<text text-anchor="middle" x="112.493" y="-304.517" font-family="Times New Roman,serif" font-size="14.00"> (0)</text>
</g>
<!-- node10 -->
<g id="node11" class="node"><title>node10</title>
<ellipse fill="none" stroke="black" cx="291.081" cy="-341.717" rx="46.5926" ry="18"/>
<text text-anchor="middle" x="291.081" y="-338.017" font-family="Times New Roman,serif" font-size="14.00">(10) AND</text>
</g>
<!-- node0&#45;&gt;node10 -->
<g id="edge11" class="edge"><title>node0&#45;&gt;node10</title>
<path fill="none" stroke="black" d="M84.7776,-359.933C121.939,-358.932 177.861,-356.689 226.285,-351.717 230.017,-351.334 233.864,-350.88 237.732,-350.381"/>
<polygon fill="black" stroke="black" points="238.527,-353.804 247.954,-348.969 237.569,-346.87 238.527,-353.804"/>
<text text-anchor="middle" x="112.493" y="-362.517" font-family="Times New Roman,serif" font-size="14.00"> (0)</text>
</g>
<!-- node1 -->
<g id="node2" class="node"><title>node1</title>
<ellipse fill="none" stroke="black" cx="42.2463" cy="-104.717" rx="42.4939" ry="18"/>
<text text-anchor="middle" x="42.2463" y="-101.017" font-family="Times New Roman,serif" font-size="14.00">(1) Input</text>
</g>
<!-- node7 -->
<g id="node8" class="node"><title>node7</title>
<ellipse fill="none" stroke="black" cx="183.389" cy="-25.7173" rx="42.4939" ry="18"/>
<text text-anchor="middle" x="183.389" y="-22.0173" font-family="Times New Roman,serif" font-size="14.00">(7) AND</text>
</g>
<!-- node1&#45;&gt;node7 -->
<g id="edge5" class="edge"><title>node1&#45;&gt;node7</title>
<path fill="none" stroke="black" d="M54.1536,-87.3777C64.6317,-72.265 81.8858,-51.0436 102.493,-39.7173 111.285,-34.8843 121.373,-31.6571 131.353,-29.5162"/>
<polygon fill="black" stroke="black" points="132.032,-32.9501 141.245,-27.7181 130.781,-26.0629 132.032,-32.9501"/>
<text text-anchor="middle" x="112.493" y="-43.5173" font-family="Times New Roman,serif" font-size="14.00"> (0)</text>
</g>
<!-- node8 -->
<g id="node9" class="node"><title>node8</title>
<ellipse fill="none" stroke="black" cx="291.081" cy="-95.7173" rx="42.7926" ry="18"/>
<text text-anchor="middle" x="291.081" y="-92.0173" font-family="Times New Roman,serif" font-size="14.00">(8) XOR</text>
</g>
<!-- node1&#45;&gt;node8 -->
<g id="edge7" class="edge"><title>node1&#45;&gt;node8</title>
<path fill="none" stroke="black" d="M84.5608,-103.211C126.794,-101.671 192.501,-99.2752 238.21,-97.6086"/>
<polygon fill="black" stroke="black" points="238.353,-101.106 248.218,-97.2436 238.098,-94.1104 238.353,-101.106"/>
<text text-anchor="middle" x="112.493" y="-105.517" font-family="Times New Roman,serif" font-size="14.00"> (0)</text>
</g>
<!-- node2 -->
<g id="node3" class="node"><title>node2</title>
<ellipse fill="none" stroke="black" cx="42.2463" cy="-172.717" rx="42.4939" ry="18"/>
<text text-anchor="middle" x="42.2463" y="-169.017" font-family="Times New Roman,serif" font-size="14.00">(2) Input</text>
</g>
<!-- node6 -->
<g id="node7" class="node"><title>node6</title>
<ellipse fill="none" stroke="black" cx="398.773" cy="-233.717" rx="42.7926" ry="18"/>
<text text-anchor="middle" x="398.773" y="-230.017" font-family="Times New Roman,serif" font-size="14.00">(6) XOR</text>
</g>
<!-- node2&#45;&gt;node6 -->
<g id="edge4" class="edge"><title>node2&#45;&gt;node6</title>
<path fill="none" stroke="black" d="M78.5575,-182.062C86.4138,-184.028 94.7181,-186.019 102.493,-187.717 187.605,-206.31 288.104,-220.303 347.186,-227.731"/>
<polygon fill="black" stroke="black" points="347.012,-231.236 357.368,-228.997 347.876,-224.29 347.012,-231.236"/>
<text text-anchor="middle" x="183.389" y="-213.517" font-family="Times New Roman,serif" font-size="14.00"> (1)</text>
</g>
<!-- node9 -->
<g id="node10" class="node"><title>node9</title>
<ellipse fill="none" stroke="black" cx="398.773" cy="-179.717" rx="42.4939" ry="18"/>
<text text-anchor="middle" x="398.773" y="-176.017" font-family="Times New Roman,serif" font-size="14.00">(9) AND</text>
</g>
<!-- node2&#45;&gt;node9 -->
<g id="edge9" class="edge"><title>node2&#45;&gt;node9</title>
<path fill="none" stroke="black" d="M84.6088,-173.534C149.633,-174.818 275.63,-177.306 346.377,-178.702"/>
<polygon fill="black" stroke="black" points="346.333,-182.202 356.4,-178.9 346.471,-175.204 346.333,-182.202"/>
<text text-anchor="middle" x="183.389" y="-179.517" font-family="Times New Roman,serif" font-size="14.00"> (0)</text>
</g>
<!-- node3 -->
<g id="node4" class="node"><title>node3</title>
<ellipse fill="none" stroke="black" cx="42.2463" cy="-23.7173" rx="42.4939" ry="18"/>
<text text-anchor="middle" x="42.2463" y="-20.0173" font-family="Times New Roman,serif" font-size="14.00">(3) Input</text>
</g>
<!-- node3&#45;&gt;node7 -->
<g id="edge6" class="edge"><title>node3&#45;&gt;node7</title>
<path fill="none" stroke="black" d="M69.7703,-9.97207C85.0449,-3.67031 104.687,1.71725 122.493,-1.71725 130.141,-3.19252 138.053,-5.63689 145.521,-8.41509"/>
<polygon fill="black" stroke="black" points="144.439,-11.7516 155.024,-12.2062 147.033,-5.24989 144.439,-11.7516"/>
<text text-anchor="middle" x="112.493" y="-5.51725" font-family="Times New Roman,serif" font-size="14.00"> (1)</text>
</g>
<!-- node3&#45;&gt;node8 -->
<g id="edge8" class="edge"><title>node3&#45;&gt;node8</title>
<path fill="none" stroke="black" d="M67.3662,-38.2088C77.8646,-44.0181 90.491,-50.3551 102.493,-54.7173 147.791,-71.1817 201.756,-82.1264 240.151,-88.5346"/>
<polygon fill="black" stroke="black" points="239.622,-91.9944 250.054,-90.1446 240.745,-85.0851 239.622,-91.9944"/>
<text text-anchor="middle" x="112.493" y="-64.5173" font-family="Times New Roman,serif" font-size="14.00"> (1)</text>
</g>
<!-- node4 -->
<g id="node5" class="node"><title>node4</title>
<ellipse fill="none" stroke="black" cx="42.2463" cy="-276.717" rx="42.4939" ry="18"/>
<text text-anchor="middle" x="42.2463" y="-273.017" font-family="Times New Roman,serif" font-size="14.00">(4) Input</text>
</g>
<!-- node4&#45;&gt;node5 -->
<g id="edge2" class="edge"><title>node4&#45;&gt;node5</title>
<path fill="none" stroke="black" d="M77.0649,-266.238C91.0731,-263.074 107.517,-260.871 122.493,-262.717 127.549,-263.341 132.793,-264.25 137.98,-265.317"/>
<polygon fill="black" stroke="black" points="137.297,-268.751 147.821,-267.53 138.833,-261.921 137.297,-268.751"/>
<text text-anchor="middle" x="112.493" y="-266.517" font-family="Times New Roman,serif" font-size="14.00"> (1)</text>
</g>
<!-- node4&#45;&gt;node10 -->
<g id="edge12" class="edge"><title>node4&#45;&gt;node10</title>
<path fill="none" stroke="black" d="M62.5934,-292.644C73.623,-300.87 88.0861,-310.296 102.493,-315.717 144.683,-331.595 195.49,-337.923 233.582,-340.377"/>
<polygon fill="black" stroke="black" points="233.787,-343.894 243.971,-340.97 234.187,-336.905 233.787,-343.894"/>
<text text-anchor="middle" x="112.493" y="-324.517" font-family="Times New Roman,serif" font-size="14.00"> (1)</text>
</g>
<!-- node5&#45;&gt;node6 -->
<g id="edge3" class="edge"><title>node5&#45;&gt;node6</title>
<path fill="none" stroke="black" d="M222.537,-269.851C258.191,-262.499 311.555,-251.495 350.022,-243.564"/>
<polygon fill="black" stroke="black" points="350.867,-246.963 359.954,-241.515 349.453,-240.107 350.867,-246.963"/>
<text text-anchor="middle" x="291.081" y="-267.517" font-family="Times New Roman,serif" font-size="14.00"> (0)</text>
</g>
<!-- node5&#45;&gt;node9 -->
<g id="edge10" class="edge"><title>node5&#45;&gt;node9</title>
<path fill="none" stroke="black" d="M205.709,-262.298C212.442,-257.202 219.81,-251.383 226.285,-245.717 234.799,-238.267 234.606,-233.575 244.285,-227.717 276.723,-208.085 317.938,-195.775 349.49,-188.542"/>
<polygon fill="black" stroke="black" points="350.356,-191.935 359.371,-186.369 348.853,-185.099 350.356,-191.935"/>
<text text-anchor="middle" x="291.081" y="-231.517" font-family="Times New Roman,serif" font-size="14.00"> (1)</text>
</g>
<!-- node17 -->
<g id="node18" class="node"><title>node17</title>
<ellipse fill="none" stroke="black" cx="1099.13" cy="-233.717" rx="42.7926" ry="18"/>
<text text-anchor="middle" x="1099.13" y="-230.017" font-family="Times New Roman,serif" font-size="14.00">Output 0</text>
</g>
<!-- node6&#45;&gt;node17 -->
<g id="edge25" class="edge"><title>node6&#45;&gt;node17</title>
<path fill="none" stroke="black" d="M441.775,-233.717C470.575,-233.717 509.658,-233.717 544.115,-233.717 544.115,-233.717 544.115,-233.717 979.291,-233.717 1001.09,-233.717 1025.14,-233.717 1045.86,-233.717"/>
<polygon fill="black" stroke="black" points="1046.06,-237.217 1056.06,-233.717 1046.06,-230.217 1046.06,-237.217"/>
</g>
<!-- node16 -->
<g id="node17" class="node"><title>node16</title>
<ellipse fill="none" stroke="black" cx="978.291" cy="-56.7173" rx="40.8928" ry="18"/>
<text text-anchor="middle" x="978.291" y="-53.0173" font-family="Times New Roman,serif" font-size="14.00">(16) OR</text>
</g>
<!-- node7&#45;&gt;node16 -->
<g id="edge23" class="edge"><title>node7&#45;&gt;node16</title>
<path fill="none" stroke="black" d="M225.694,-25.7173C268.679,-25.7173 337.944,-25.7173 397.773,-25.7173 397.773,-25.7173 397.773,-25.7173 841.399,-25.7173 873.906,-25.7173 909.718,-34.2537 936.414,-42.3675"/>
<polygon fill="black" stroke="black" points="935.583,-45.7754 946.173,-45.4378 937.684,-39.0981 935.583,-45.7754"/>
<text text-anchor="middle" x="620.561" y="-29.5173" font-family="Times New Roman,serif" font-size="14.00"> (0)</text>
</g>
<!-- node11 -->
<g id="node12" class="node"><title>node11</title>
<ellipse fill="none" stroke="black" cx="545.115" cy="-88.7173" rx="46.5926" ry="18"/>
<text text-anchor="middle" x="545.115" y="-85.0173" font-family="Times New Roman,serif" font-size="14.00">(11) AND</text>
</g>
<!-- node8&#45;&gt;node11 -->
<g id="edge13" class="edge"><title>node8&#45;&gt;node11</title>
<path fill="none" stroke="black" d="M333.59,-92.8329C341.008,-92.3978 348.669,-92.0005 355.877,-91.7173 400.208,-89.9752 450.449,-89.2371 487.87,-88.928"/>
<polygon fill="black" stroke="black" points="488.096,-92.4265 498.069,-88.8518 488.043,-85.4267 488.096,-92.4265"/>
<text text-anchor="middle" x="398.773" y="-95.5173" font-family="Times New Roman,serif" font-size="14.00"> (0)</text>
</g>
<!-- node12 -->
<g id="node13" class="node"><title>node12</title>
<ellipse fill="none" stroke="black" cx="545.115" cy="-179.717" rx="47.3916" ry="18"/>
<text text-anchor="middle" x="545.115" y="-176.017" font-family="Times New Roman,serif" font-size="14.00">(12) XOR</text>
</g>
<!-- node8&#45;&gt;node12 -->
<g id="edge16" class="edge"><title>node8&#45;&gt;node12</title>
<path fill="none" stroke="black" d="M328.409,-104.664C358.926,-112.477 403.536,-124.596 441.669,-137.717 462.565,-144.907 485.353,-154.109 504.119,-162.067"/>
<polygon fill="black" stroke="black" points="502.965,-165.38 513.535,-166.097 505.719,-158.944 502.965,-165.38"/>
<text text-anchor="middle" x="398.773" y="-141.517" font-family="Times New Roman,serif" font-size="14.00"> (1)</text>
</g>
<!-- node9&#45;&gt;node11 -->
<g id="edge14" class="edge"><title>node9&#45;&gt;node11</title>
<path fill="none" stroke="black" d="M423.285,-164.894C447.113,-149.872 484.187,-126.498 510.986,-109.603"/>
<polygon fill="black" stroke="black" points="513.054,-112.437 519.647,-104.143 509.321,-106.515 513.054,-112.437"/>
<text text-anchor="middle" x="469.669" y="-142.517" font-family="Times New Roman,serif" font-size="14.00"> (1)</text>
</g>
<!-- node9&#45;&gt;node12 -->
<g id="edge15" class="edge"><title>node9&#45;&gt;node12</title>
<path fill="none" stroke="black" d="M441.135,-179.717C455.417,-179.717 471.681,-179.717 486.997,-179.717"/>
<polygon fill="black" stroke="black" points="487.414,-183.217 497.414,-179.717 487.414,-176.217 487.414,-183.217"/>
<text text-anchor="middle" x="469.669" y="-183.517" font-family="Times New Roman,serif" font-size="14.00"> (0)</text>
</g>
<!-- node13 -->
<g id="node14" class="node"><title>node13</title>
<ellipse fill="none" stroke="black" cx="696.006" cy="-327.717" rx="47.3916" ry="18"/>
<text text-anchor="middle" x="696.006" y="-324.017" font-family="Times New Roman,serif" font-size="14.00">(13) XOR</text>
</g>
<!-- node10&#45;&gt;node13 -->
<g id="edge18" class="edge"><title>node10&#45;&gt;node13</title>
<path fill="none" stroke="black" d="M337.909,-340.125C411.934,-337.553 557.637,-332.49 638.161,-329.692"/>
<polygon fill="black" stroke="black" points="638.728,-333.175 648.601,-329.33 638.485,-326.179 638.728,-333.175"/>
<text text-anchor="middle" x="469.669" y="-339.517" font-family="Times New Roman,serif" font-size="14.00"> (1)</text>
</g>
<!-- node14 -->
<g id="node15" class="node"><title>node14</title>
<ellipse fill="none" stroke="black" cx="696.006" cy="-179.717" rx="46.5926" ry="18"/>
<text text-anchor="middle" x="696.006" y="-176.017" font-family="Times New Roman,serif" font-size="14.00">(14) AND</text>
</g>
<!-- node10&#45;&gt;node14 -->
<g id="edge20" class="edge"><title>node10&#45;&gt;node14</title>
<path fill="none" stroke="black" d="M324.034,-328.87C396.474,-299.745 573.128,-228.72 653.712,-196.32"/>
<polygon fill="black" stroke="black" points="655.077,-199.544 663.049,-192.566 652.466,-193.049 655.077,-199.544"/>
<text text-anchor="middle" x="469.669" y="-277.517" font-family="Times New Roman,serif" font-size="14.00"> (1)</text>
</g>
<!-- node15 -->
<g id="node16" class="node"><title>node15</title>
<ellipse fill="none" stroke="black" cx="840.399" cy="-88.7173" rx="40.8928" ry="18"/>
<text text-anchor="middle" x="840.399" y="-85.0173" font-family="Times New Roman,serif" font-size="14.00">(15) OR</text>
</g>
<!-- node11&#45;&gt;node15 -->
<g id="edge22" class="edge"><title>node11&#45;&gt;node15</title>
<path fill="none" stroke="black" d="M591.94,-88.7173C645.367,-88.7173 733.399,-88.7173 788.794,-88.7173"/>
<polygon fill="black" stroke="black" points="789.08,-92.2173 799.08,-88.7173 789.08,-85.2173 789.08,-92.2173"/>
<text text-anchor="middle" x="696.006" y="-92.5173" font-family="Times New Roman,serif" font-size="14.00"> (1)</text>
</g>
<!-- node12&#45;&gt;node13 -->
<g id="edge17" class="edge"><title>node12&#45;&gt;node13</title>
<path fill="none" stroke="black" d="M562.905,-196.407C589.267,-222.611 640.481,-273.518 670.815,-303.67"/>
<polygon fill="black" stroke="black" points="668.489,-306.294 678.049,-310.861 673.424,-301.329 668.489,-306.294"/>
<text text-anchor="middle" x="620.561" y="-265.517" font-family="Times New Roman,serif" font-size="14.00"> (0)</text>
</g>
<!-- node12&#45;&gt;node14 -->
<g id="edge19" class="edge"><title>node12&#45;&gt;node14</title>
<path fill="none" stroke="black" d="M592.816,-179.717C607.368,-179.717 623.57,-179.717 638.706,-179.717"/>
<polygon fill="black" stroke="black" points="638.981,-183.217 648.981,-179.717 638.981,-176.217 638.981,-183.217"/>
<text text-anchor="middle" x="620.561" y="-183.517" font-family="Times New Roman,serif" font-size="14.00"> (0)</text>
</g>
<!-- node18 -->
<g id="node19" class="node"><title>node18</title>
<ellipse fill="none" stroke="black" cx="1099.13" cy="-327.717" rx="42.7926" ry="18"/>
<text text-anchor="middle" x="1099.13" y="-324.017" font-family="Times New Roman,serif" font-size="14.00">Output 1</text>
</g>
<!-- node13&#45;&gt;node18 -->
<g id="edge26" class="edge"><title>node13&#45;&gt;node18</title>
<path fill="none" stroke="black" d="M743.806,-327.717C819.261,-327.717 967.282,-327.717 1046.01,-327.717"/>
<polygon fill="black" stroke="black" points="1046.18,-331.217 1056.18,-327.717 1046.18,-324.217 1046.18,-331.217"/>
</g>
<!-- node14&#45;&gt;node15 -->
<g id="edge21" class="edge"><title>node14&#45;&gt;node15</title>
<path fill="none" stroke="black" d="M721.161,-164.28C744.971,-149.064 781.486,-125.728 807.635,-109.017"/>
<polygon fill="black" stroke="black" points="809.531,-111.959 816.072,-103.625 805.761,-106.061 809.531,-111.959"/>
<text text-anchor="middle" x="771.452" y="-140.517" font-family="Times New Roman,serif" font-size="14.00"> (0)</text>
</g>
<!-- node15&#45;&gt;node16 -->
<g id="edge24" class="edge"><title>node15&#45;&gt;node16</title>
<path fill="none" stroke="black" d="M876.748,-80.3932C893.524,-76.4428 913.774,-71.6743 931.691,-67.4552"/>
<polygon fill="black" stroke="black" points="932.715,-70.8098 941.647,-65.1108 931.111,-63.9962 932.715,-70.8098"/>
<text text-anchor="middle" x="909.345" y="-78.5173" font-family="Times New Roman,serif" font-size="14.00"> (1)</text>
</g>
<!-- node19 -->
<g id="node20" class="node"><title>node19</title>
<ellipse fill="none" stroke="black" cx="1099.13" cy="-56.7173" rx="42.7926" ry="18"/>
<text text-anchor="middle" x="1099.13" y="-53.0173" font-family="Times New Roman,serif" font-size="14.00">Output 2</text>
</g>
<!-- node16&#45;&gt;node19 -->
<g id="edge27" class="edge"><title>node16&#45;&gt;node19</title>
<path fill="none" stroke="black" d="M1019.53,-56.7173C1027.95,-56.7173 1036.94,-56.7173 1045.73,-56.7173"/>
<polygon fill="black" stroke="black" points="1045.91,-60.2174 1055.91,-56.7173 1045.91,-53.2174 1045.91,-60.2174"/>
</g>
</g>
</svg>
