<?xml version="1.0" encoding="UTF-8" standalone="no"?>
<!DOCTYPE svg PUBLIC "-//W3C//DTD SVG 1.1//EN"
 "http://www.w3.org/Graphics/SVG/1.1/DTD/svg11.dtd">
<!-- Generated by graphviz version 2.38.0 (20140413.2041)
 -->
<!-- Title: NeuralNetwork Pages: 1 -->
<svg width="288pt" height="97pt"
 viewBox="0.00 0.00 288.00 97.04" xmlns="http://www.w3.org/2000/svg" xmlns:xlink="http://www.w3.org/1999/xlink">
<g id="graph0" class="graph" transform="scale(0.234407 0.234407) rotate(0) translate(4 410)">
<title>NeuralNetwork</title>
<polygon fill="white" stroke="none" points="-4,4 -4,-410 1224.63,-410 1224.63,4 -4,4"/>
<!-- node0 -->
<g id="node1" class="node"><title>node0</title>
<ellipse fill="none" stroke="black" cx="42.2463" cy="-182" rx="42.4939" ry="18"/>
<text text-anchor="middle" x="42.2463" y="-178.3" font-family="Times New Roman,serif" font-size="14.00">(0) Input</text>
</g>
<!-- node5 -->
<g id="node6" class="node"><title>node5</title>
<ellipse fill="none" stroke="black" cx="183.389" cy="-185" rx="36.2938" ry="18"/>
<text text-anchor="middle" x="183.389" y="-181.3" font-family="Times New Roman,serif" font-size="14.00">(5) OR</text>
</g>
<!-- node0&#45;&gt;node5 -->
<g id="edge2" class="edge"><title>node0&#45;&gt;node5</title>
<path fill="none" stroke="black" d="M82.3698,-188.037C89.0672,-188.854 95.9684,-189.562 102.493,-190 113.852,-190.763 126.124,-190.526 137.559,-189.851"/>
<polygon fill="black" stroke="black" points="138.051,-193.325 147.777,-189.123 137.553,-186.342 138.051,-193.325"/>
<text text-anchor="middle" x="112.493" y="-193.8" font-family="Times New Roman,serif" font-size="14.00"> (1)</text>
</g>
<!-- node6 -->
<g id="node7" class="node"><title>node6</title>
<ellipse fill="none" stroke="black" cx="183.389" cy="-119" rx="42.7926" ry="18"/>
<text text-anchor="middle" x="183.389" y="-115.3" font-family="Times New Roman,serif" font-size="14.00">(6) XOR</text>
</g>
<!-- node0&#45;&gt;node6 -->
<g id="edge4" class="edge"><title>node0&#45;&gt;node6</title>
<path fill="none" stroke="black" d="M75.6761,-170.901C90.1927,-165.633 107.401,-158.971 122.493,-152 131.199,-147.978 140.375,-143.209 148.857,-138.564"/>
<polygon fill="black" stroke="black" points="150.705,-141.541 157.734,-133.614 147.295,-135.427 150.705,-141.541"/>
<text text-anchor="middle" x="112.493" y="-163.8" font-family="Times New Roman,serif" font-size="14.00"> (1)</text>
</g>
<!-- node1 -->
<g id="node2" class="node"><title>node1</title>
<ellipse fill="none" stroke="black" cx="42.2463" cy="-267" rx="42.4939" ry="18"/>
<text text-anchor="middle" x="42.2463" y="-263.3" font-family="Times New Roman,serif" font-size="14.00">(1) Input</text>
</g>
<!-- node11 -->
<g id="node12" class="node"><title>node11</title>
<ellipse fill="none" stroke="black" cx="749.258" cy="-282" rx="46.5926" ry="18"/>
<text text-anchor="middle" x="749.258" y="-278.3" font-family="Times New Roman,serif" font-size="14.00">(11) AND</text>
</g>
<!-- node1&#45;&gt;node11 -->
<g id="edge13" class="edge"><title>node1&#45;&gt;node11</title>
<path fill="none" stroke="black" d="M80.5585,-274.893C108.469,-280.113 147.646,-286 182.389,-286 182.389,-286 182.389,-286 600.667,-286 630.897,-286 664.596,-285.151 692.154,-284.235"/>
<polygon fill="black" stroke="black" points="692.521,-287.725 702.395,-283.883 692.28,-280.729 692.521,-287.725"/>
<text text-anchor="middle" x="396.077" y="-289.8" font-family="Times New Roman,serif" font-size="14.00"> (1)</text>
</g>
<!-- node12 -->
<g id="node13" class="node"><title>node12</title>
<ellipse fill="none" stroke="black" cx="749.258" cy="-220" rx="40.8928" ry="18"/>
<text text-anchor="middle" x="749.258" y="-216.3" font-family="Times New Roman,serif" font-size="14.00">(12) OR</text>
</g>
<!-- node1&#45;&gt;node12 -->
<g id="edge15" class="edge"><title>node1&#45;&gt;node12</title>
<path fill="none" stroke="black" d="M80.5585,-259.107C108.469,-253.887 147.646,-248 182.389,-248 182.389,-248 182.389,-248 600.667,-248 636.245,-248 675.815,-240.049 705.02,-232.621"/>
<polygon fill="black" stroke="black" points="706.111,-235.954 714.895,-230.03 704.334,-229.183 706.111,-235.954"/>
<text text-anchor="middle" x="396.077" y="-251.8" font-family="Times New Roman,serif" font-size="14.00"> (1)</text>
</g>
<!-- node2 -->
<g id="node3" class="node"><title>node2</title>
<ellipse fill="none" stroke="black" cx="42.2463" cy="-41" rx="42.4939" ry="18"/>
<text text-anchor="middle" x="42.2463" y="-37.3" font-family="Times New Roman,serif" font-size="14.00">(2) Input</text>
</g>
<!-- node7 -->
<g id="node8" class="node"><title>node7</title>
<ellipse fill="none" stroke="black" cx="325.181" cy="-18" rx="42.7926" ry="18"/>
<text text-anchor="middle" x="325.181" y="-14.3" font-family="Times New Roman,serif" font-size="14.00">(7) XOR</text>
</g>
<!-- node2&#45;&gt;node7 -->
<g id="edge6" class="edge"><title>node2&#45;&gt;node7</title>
<path fill="none" stroke="black" d="M83.7966,-37.6802C133.617,-33.6014 218.206,-26.6762 272.604,-22.2226"/>
<polygon fill="black" stroke="black" points="273.047,-25.6982 282.728,-21.3938 272.475,-18.7215 273.047,-25.6982"/>
<text text-anchor="middle" x="183.389" y="-36.8" font-family="Times New Roman,serif" font-size="14.00"> (1)</text>
</g>
<!-- node9 -->
<g id="node10" class="node"><title>node9</title>
<ellipse fill="none" stroke="black" cx="460.474" cy="-139" rx="36.2938" ry="18"/>
<text text-anchor="middle" x="460.474" y="-135.3" font-family="Times New Roman,serif" font-size="14.00">(9) OR</text>
</g>
<!-- node2&#45;&gt;node9 -->
<g id="edge8" class="edge"><title>node2&#45;&gt;node9</title>
<path fill="none" stroke="black" d="M82.0662,-47.3679C88.8616,-48.3478 95.8738,-49.2735 102.493,-50 174.136,-57.8634 194.012,-44.9882 264.285,-61 323.162,-74.4154 387.479,-103.078 425.602,-121.671"/>
<polygon fill="black" stroke="black" points="424.194,-124.879 434.711,-126.166 427.292,-118.602 424.194,-124.879"/>
<text text-anchor="middle" x="254.285" y="-64.8" font-family="Times New Roman,serif" font-size="14.00"> (0)</text>
</g>
<!-- node3 -->
<g id="node4" class="node"><title>node3</title>
<ellipse fill="none" stroke="black" cx="42.2463" cy="-359" rx="42.4939" ry="18"/>
<text text-anchor="middle" x="42.2463" y="-355.3" font-family="Times New Roman,serif" font-size="14.00">(3) Input</text>
</g>
<!-- node13 -->
<g id="node14" class="node"><title>node13</title>
<ellipse fill="none" stroke="black" cx="899.5" cy="-374" rx="40.8928" ry="18"/>
<text text-anchor="middle" x="899.5" y="-370.3" font-family="Times New Roman,serif" font-size="14.00">(13) OR</text>
</g>
<!-- node3&#45;&gt;node13 -->
<g id="edge16" class="edge"><title>node3&#45;&gt;node13</title>
<path fill="none" stroke="black" d="M74.8255,-370.553C102.723,-379.719 144.712,-391 182.389,-391 182.389,-391 182.389,-391 750.258,-391 784.058,-391 821.913,-386.584 850.909,-382.253"/>
<polygon fill="black" stroke="black" points="851.818,-385.655 861.167,-380.67 850.75,-378.737 851.818,-385.655"/>
<text text-anchor="middle" x="460.474" y="-394.8" font-family="Times New Roman,serif" font-size="14.00"> (0)</text>
</g>
<!-- node16 -->
<g id="node17" class="node"><title>node16</title>
<ellipse fill="none" stroke="black" cx="1050.39" cy="-271" rx="47.3916" ry="18"/>
<text text-anchor="middle" x="1050.39" y="-267.3" font-family="Times New Roman,serif" font-size="14.00">(16) XOR</text>
</g>
<!-- node3&#45;&gt;node16 -->
<g id="edge23" class="edge"><title>node3&#45;&gt;node16</title>
<path fill="none" stroke="black" d="M75.4072,-347.633C103.323,-338.785 145.018,-328 182.389,-328 182.389,-328 182.389,-328 900.5,-328 942.584,-328 987.2,-307.893 1016.49,-291.564"/>
<polygon fill="black" stroke="black" points="1018.52,-294.439 1025.45,-286.425 1015.03,-288.369 1018.52,-294.439"/>
<text text-anchor="middle" x="524.871" y="-331.8" font-family="Times New Roman,serif" font-size="14.00"> (1)</text>
</g>
<!-- node4 -->
<g id="node5" class="node"><title>node4</title>
<ellipse fill="none" stroke="black" cx="42.2463" cy="-127" rx="42.4939" ry="18"/>
<text text-anchor="middle" x="42.2463" y="-123.3" font-family="Times New Roman,serif" font-size="14.00">(4) Input</text>
</g>
<!-- node4&#45;&gt;node5 -->
<g id="edge1" class="edge"><title>node4&#45;&gt;node5</title>
<path fill="none" stroke="black" d="M84.6806,-127.929C97.2058,-129.335 110.745,-132.025 122.493,-137 136.182,-142.797 149.315,-152.657 159.777,-161.938"/>
<polygon fill="black" stroke="black" points="157.511,-164.61 167.222,-168.846 162.272,-159.478 157.511,-164.61"/>
<text text-anchor="middle" x="112.493" y="-140.8" font-family="Times New Roman,serif" font-size="14.00"> (0)</text>
</g>
<!-- node4&#45;&gt;node6 -->
<g id="edge3" class="edge"><title>node4&#45;&gt;node6</title>
<path fill="none" stroke="black" d="M67.735,-112.443C78.0861,-107.094 90.5039,-101.69 102.493,-99 116.39,-95.8814 131.568,-98.2176 144.927,-102.236"/>
<polygon fill="black" stroke="black" points="144.142,-105.666 154.737,-105.574 146.397,-99.0391 144.142,-105.666"/>
<text text-anchor="middle" x="112.493" y="-102.8" font-family="Times New Roman,serif" font-size="14.00"> (0)</text>
</g>
<!-- node10 -->
<g id="node11" class="node"><title>node10</title>
<ellipse fill="none" stroke="black" cx="599.667" cy="-182" rx="46.5926" ry="18"/>
<text text-anchor="middle" x="599.667" y="-178.3" font-family="Times New Roman,serif" font-size="14.00">(10) AND</text>
</g>
<!-- node5&#45;&gt;node10 -->
<g id="edge11" class="edge"><title>node5&#45;&gt;node10</title>
<path fill="none" stroke="black" d="M220.068,-184.742C292.208,-184.219 455.887,-183.034 542.497,-182.407"/>
<polygon fill="black" stroke="black" points="542.692,-185.906 552.666,-182.333 542.641,-178.906 542.692,-185.906"/>
<text text-anchor="middle" x="396.077" y="-186.8" font-family="Times New Roman,serif" font-size="14.00"> (1)</text>
</g>
<!-- node6&#45;&gt;node7 -->
<g id="edge5" class="edge"><title>node6&#45;&gt;node7</title>
<path fill="none" stroke="black" d="M215.39,-106.893C230.809,-100.138 249.301,-90.8881 264.285,-80 278.885,-69.3911 293.02,-55.0202 303.889,-42.7853"/>
<polygon fill="black" stroke="black" points="306.631,-44.9653 310.532,-35.1146 301.34,-40.3827 306.631,-44.9653"/>
<text text-anchor="middle" x="254.285" y="-94.8" font-family="Times New Roman,serif" font-size="14.00"> (0)</text>
</g>
<!-- node8 -->
<g id="node9" class="node"><title>node8</title>
<ellipse fill="none" stroke="black" cx="325.181" cy="-139" rx="42.4939" ry="18"/>
<text text-anchor="middle" x="325.181" y="-135.3" font-family="Times New Roman,serif" font-size="14.00">(8) NEG</text>
</g>
<!-- node6&#45;&gt;node8 -->
<g id="edge7" class="edge"><title>node6&#45;&gt;node8</title>
<path fill="none" stroke="black" d="M224.448,-124.731C240.082,-126.968 258.168,-129.556 274.611,-131.908"/>
<polygon fill="black" stroke="black" points="274.205,-135.385 284.6,-133.337 275.196,-128.456 274.205,-135.385"/>
<text text-anchor="middle" x="254.285" y="-133.8" font-family="Times New Roman,serif" font-size="14.00"> (0)</text>
</g>
<!-- node17 -->
<g id="node18" class="node"><title>node17</title>
<ellipse fill="none" stroke="black" cx="1177.73" cy="-18" rx="42.7926" ry="18"/>
<text text-anchor="middle" x="1177.73" y="-14.3" font-family="Times New Roman,serif" font-size="14.00">Output 0</text>
</g>
<!-- node7&#45;&gt;node17 -->
<g id="edge24" class="edge"><title>node7&#45;&gt;node17</title>
<path fill="none" stroke="black" d="M368.204,-18C394.444,-18 428.928,-18 459.474,-18 459.474,-18 459.474,-18 1051.39,-18 1075.45,-18 1102.11,-18 1124.63,-18"/>
<polygon fill="black" stroke="black" points="1124.67,-21.5001 1134.67,-18 1124.67,-14.5001 1124.67,-21.5001"/>
</g>
<!-- node8&#45;&gt;node9 -->
<g id="edge9" class="edge"><title>node8&#45;&gt;node9</title>
<path fill="none" stroke="black" d="M367.625,-139C382.279,-139 398.84,-139 413.823,-139"/>
<polygon fill="black" stroke="black" points="413.902,-142.5 423.902,-139 413.902,-135.5 413.902,-142.5"/>
<text text-anchor="middle" x="396.077" y="-142.8" font-family="Times New Roman,serif" font-size="14.00"> (1)</text>
</g>
<!-- node9&#45;&gt;node10 -->
<g id="edge10" class="edge"><title>node9&#45;&gt;node10</title>
<path fill="none" stroke="black" d="M494.66,-145.511C507.361,-148.308 521.905,-151.885 534.871,-156 542.732,-158.495 550.988,-161.532 558.854,-164.639"/>
<polygon fill="black" stroke="black" points="557.622,-167.916 568.204,-168.431 560.253,-161.429 557.622,-167.916"/>
<text text-anchor="middle" x="524.871" y="-159.8" font-family="Times New Roman,serif" font-size="14.00"> (0)</text>
</g>
<!-- node10&#45;&gt;node11 -->
<g id="edge12" class="edge"><title>node10&#45;&gt;node11</title>
<path fill="none" stroke="black" d="M623.728,-197.625C648.748,-214.577 688.848,-241.747 716.76,-260.658"/>
<polygon fill="black" stroke="black" points="715.117,-263.773 725.359,-266.485 719.044,-257.978 715.117,-263.773"/>
<text text-anchor="middle" x="674.463" y="-240.8" font-family="Times New Roman,serif" font-size="14.00"> (0)</text>
</g>
<!-- node10&#45;&gt;node12 -->
<g id="edge14" class="edge"><title>node10&#45;&gt;node12</title>
<path fill="none" stroke="black" d="M644.775,-176.809C657.759,-176.523 671.858,-177.453 684.463,-181 697.154,-184.572 709.816,-191.448 720.475,-198.444"/>
<polygon fill="black" stroke="black" points="718.698,-201.471 728.914,-204.28 722.679,-195.713 718.698,-201.471"/>
<text text-anchor="middle" x="674.463" y="-184.8" font-family="Times New Roman,serif" font-size="14.00"> (0)</text>
</g>
<!-- node11&#45;&gt;node13 -->
<g id="edge17" class="edge"><title>node11&#45;&gt;node13</title>
<path fill="none" stroke="black" d="M774.737,-297.192C799.819,-312.758 838.935,-337.034 866.466,-354.119"/>
<polygon fill="black" stroke="black" points="864.622,-357.094 874.965,-359.394 868.313,-351.147 864.622,-357.094"/>
<text text-anchor="middle" x="824.054" y="-336.8" font-family="Times New Roman,serif" font-size="14.00"> (1)</text>
</g>
<!-- node14 -->
<g id="node15" class="node"><title>node14</title>
<ellipse fill="none" stroke="black" cx="899.5" cy="-214" rx="47.3916" ry="18"/>
<text text-anchor="middle" x="899.5" y="-210.3" font-family="Times New Roman,serif" font-size="14.00">(14) XOR</text>
</g>
<!-- node11&#45;&gt;node14 -->
<g id="edge18" class="edge"><title>node11&#45;&gt;node14</title>
<path fill="none" stroke="black" d="M780.257,-268.239C803.063,-257.778 834.631,-243.298 859.412,-231.93"/>
<polygon fill="black" stroke="black" points="860.916,-235.091 868.546,-227.74 857.997,-228.729 860.916,-235.091"/>
<text text-anchor="middle" x="824.054" y="-255.8" font-family="Times New Roman,serif" font-size="14.00"> (0)</text>
</g>
<!-- node12&#45;&gt;node14 -->
<g id="edge19" class="edge"><title>node12&#45;&gt;node14</title>
<path fill="none" stroke="black" d="M790.375,-218.376C806.139,-217.738 824.523,-216.994 841.613,-216.302"/>
<polygon fill="black" stroke="black" points="842.201,-219.782 852.051,-215.88 841.918,-212.787 842.201,-219.782"/>
<text text-anchor="middle" x="824.054" y="-220.8" font-family="Times New Roman,serif" font-size="14.00"> (1)</text>
</g>
<!-- node15 -->
<g id="node16" class="node"><title>node15</title>
<ellipse fill="none" stroke="black" cx="1050.39" cy="-345" rx="46.5926" ry="18"/>
<text text-anchor="middle" x="1050.39" y="-341.3" font-family="Times New Roman,serif" font-size="14.00">(15) AND</text>
</g>
<!-- node12&#45;&gt;node15 -->
<g id="edge20" class="edge"><title>node12&#45;&gt;node15</title>
<path fill="none" stroke="black" d="M779.485,-232.213C833.071,-254.605 947.154,-302.278 1008.44,-327.887"/>
<polygon fill="black" stroke="black" points="1007.23,-331.174 1017.8,-331.8 1009.93,-324.715 1007.23,-331.174"/>
<text text-anchor="middle" x="899.5" y="-304.8" font-family="Times New Roman,serif" font-size="14.00"> (0)</text>
</g>
<!-- node13&#45;&gt;node15 -->
<g id="edge21" class="edge"><title>node13&#45;&gt;node15</title>
<path fill="none" stroke="black" d="M937.305,-366.831C955.722,-363.244 978.31,-358.845 998.371,-354.937"/>
<polygon fill="black" stroke="black" points="999.144,-358.353 1008.29,-353.005 997.806,-351.482 999.144,-358.353"/>
<text text-anchor="middle" x="974.946" y="-364.8" font-family="Times New Roman,serif" font-size="14.00"> (1)</text>
</g>
<!-- node14&#45;&gt;node16 -->
<g id="edge22" class="edge"><title>node14&#45;&gt;node16</title>
<path fill="none" stroke="black" d="M939.229,-223.945C953.755,-228.07 970.288,-233.241 984.946,-239 994.352,-242.695 1004.25,-247.251 1013.39,-251.754"/>
<polygon fill="black" stroke="black" points="1012.08,-255.013 1022.58,-256.389 1015.23,-248.762 1012.08,-255.013"/>
<text text-anchor="middle" x="974.946" y="-242.8" font-family="Times New Roman,serif" font-size="14.00"> (0)</text>
</g>
<!-- node19 -->
<g id="node20" class="node"><title>node19</title>
<ellipse fill="none" stroke="black" cx="1177.73" cy="-345" rx="42.7926" ry="18"/>
<text text-anchor="middle" x="1177.73" y="-341.3" font-family="Times New Roman,serif" font-size="14.00">Output 2</text>
</g>
<!-- node15&#45;&gt;node19 -->
<g id="edge26" class="edge"><title>node15&#45;&gt;node19</title>
<path fill="none" stroke="black" d="M1097.35,-345C1106.19,-345 1115.5,-345 1124.51,-345"/>
<polygon fill="black" stroke="black" points="1124.52,-348.5 1134.52,-345 1124.52,-341.5 1124.52,-348.5"/>
</g>
<!-- node18 -->
<g id="node19" class="node"><title>node18</title>
<ellipse fill="none" stroke="black" cx="1177.73" cy="-271" rx="42.7926" ry="18"/>
<text text-anchor="middle" x="1177.73" y="-267.3" font-family="Times New Roman,serif" font-size="14.00">Output 1</text>
</g>
<!-- node16&#45;&gt;node18 -->
<g id="edge25" class="edge"><title>node16&#45;&gt;node18</title>
<path fill="none" stroke="black" d="M1098.06,-271C1106.67,-271 1115.7,-271 1124.46,-271"/>
<polygon fill="black" stroke="black" points="1124.57,-274.5 1134.57,-271 1124.57,-267.5 1124.57,-274.5"/>
</g>
</g>
</svg>
