<?xml version="1.0" encoding="UTF-8" standalone="no"?>
<!DOCTYPE svg PUBLIC "-//W3C//DTD SVG 1.1//EN"
 "http://www.w3.org/Graphics/SVG/1.1/DTD/svg11.dtd">
<!-- Generated by graphviz version 2.38.0 (20140413.2041)
 -->
<!-- Title: NeuralNetwork Pages: 1 -->
<svg width="288pt" height="99pt"
 viewBox="0.00 0.00 288.00 99.21" xmlns="http://www.w3.org/2000/svg" xmlns:xlink="http://www.w3.org/1999/xlink">
<g id="graph0" class="graph" transform="scale(0.259709 0.259709) rotate(0) translate(4 378)">
<title>NeuralNetwork</title>
<polygon fill="white" stroke="none" points="-4,4 -4,-378 1104.94,-378 1104.94,4 -4,4"/>
<!-- node0 -->
<g id="node1" class="node"><title>node0</title>
<ellipse fill="none" stroke="black" cx="42.2463" cy="-160" rx="42.4939" ry="18"/>
<text text-anchor="middle" x="42.2463" y="-156.3" font-family="Times New Roman,serif" font-size="14.00">(0) Input</text>
</g>
<!-- node6 -->
<g id="node7" class="node"><title>node6</title>
<ellipse fill="none" stroke="black" cx="183.389" cy="-196" rx="42.7926" ry="18"/>
<text text-anchor="middle" x="183.389" y="-192.3" font-family="Times New Roman,serif" font-size="14.00">(6) XOR</text>
</g>
<!-- node0&#45;&gt;node6 -->
<g id="edge3" class="edge"><title>node0&#45;&gt;node6</title>
<path fill="none" stroke="black" d="M84.4729,-160.805C96.8623,-161.802 110.378,-163.654 122.493,-167 131.231,-169.414 140.24,-173.072 148.533,-176.986"/>
<polygon fill="black" stroke="black" points="147.025,-180.145 157.538,-181.46 150.14,-173.876 147.025,-180.145"/>
<text text-anchor="middle" x="112.493" y="-170.8" font-family="Times New Roman,serif" font-size="14.00"> (0)</text>
</g>
<!-- node8 -->
<g id="node9" class="node"><title>node8</title>
<ellipse fill="none" stroke="black" cx="329.731" cy="-193" rx="36.2938" ry="18"/>
<text text-anchor="middle" x="329.731" y="-189.3" font-family="Times New Roman,serif" font-size="14.00">(8) OR</text>
</g>
<!-- node0&#45;&gt;node8 -->
<g id="edge8" class="edge"><title>node0&#45;&gt;node8</title>
<path fill="none" stroke="black" d="M82.1691,-153.951C119.47,-149.274 177.191,-144.971 226.285,-154 249.662,-158.299 274.614,-167.687 294.039,-176.174"/>
<polygon fill="black" stroke="black" points="292.822,-179.464 303.378,-180.37 295.691,-173.079 292.822,-179.464"/>
<text text-anchor="middle" x="183.389" y="-157.8" font-family="Times New Roman,serif" font-size="14.00"> (1)</text>
</g>
<!-- node1 -->
<g id="node2" class="node"><title>node1</title>
<ellipse fill="none" stroke="black" cx="42.2463" cy="-99" rx="42.4939" ry="18"/>
<text text-anchor="middle" x="42.2463" y="-95.3" font-family="Times New Roman,serif" font-size="14.00">(1) Input</text>
</g>
<!-- node9 -->
<g id="node10" class="node"><title>node9</title>
<ellipse fill="none" stroke="black" cx="183.389" cy="-79" rx="42.7926" ry="18"/>
<text text-anchor="middle" x="183.389" y="-75.3" font-family="Times New Roman,serif" font-size="14.00">(9) XOR</text>
</g>
<!-- node1&#45;&gt;node9 -->
<g id="edge9" class="edge"><title>node1&#45;&gt;node9</title>
<path fill="none" stroke="black" d="M82.7467,-93.3223C98.183,-91.1035 116.065,-88.5332 132.384,-86.1876"/>
<polygon fill="black" stroke="black" points="132.906,-89.6486 142.306,-84.7613 131.91,-82.7198 132.906,-89.6486"/>
<text text-anchor="middle" x="112.493" y="-93.8" font-family="Times New Roman,serif" font-size="14.00"> (0)</text>
</g>
<!-- node2 -->
<g id="node3" class="node"><title>node2</title>
<ellipse fill="none" stroke="black" cx="42.2463" cy="-356" rx="42.4939" ry="18"/>
<text text-anchor="middle" x="42.2463" y="-352.3" font-family="Times New Roman,serif" font-size="14.00">(2) Input</text>
</g>
<!-- node5 -->
<g id="node6" class="node"><title>node5</title>
<ellipse fill="none" stroke="black" cx="183.389" cy="-318" rx="36.2938" ry="18"/>
<text text-anchor="middle" x="183.389" y="-314.3" font-family="Times New Roman,serif" font-size="14.00">(5) OR</text>
</g>
<!-- node2&#45;&gt;node5 -->
<g id="edge2" class="edge"><title>node2&#45;&gt;node5</title>
<path fill="none" stroke="black" d="M78.3578,-346.411C97.5041,-341.182 121.309,-334.681 141.313,-329.218"/>
<polygon fill="black" stroke="black" points="142.362,-332.56 151.087,-326.549 140.518,-325.807 142.362,-332.56"/>
<text text-anchor="middle" x="112.493" y="-342.8" font-family="Times New Roman,serif" font-size="14.00"> (1)</text>
</g>
<!-- node7 -->
<g id="node8" class="node"><title>node7</title>
<ellipse fill="none" stroke="black" cx="183.389" cy="-250" rx="42.4939" ry="18"/>
<text text-anchor="middle" x="183.389" y="-246.3" font-family="Times New Roman,serif" font-size="14.00">(7) AND</text>
</g>
<!-- node2&#45;&gt;node7 -->
<g id="edge6" class="edge"><title>node2&#45;&gt;node7</title>
<path fill="none" stroke="black" d="M52.2446,-338.455C62.2463,-320.596 79.9959,-293.286 102.493,-277 112.124,-270.027 123.685,-264.762 134.982,-260.821"/>
<polygon fill="black" stroke="black" points="136.326,-264.066 144.787,-257.69 134.196,-257.398 136.326,-264.066"/>
<text text-anchor="middle" x="112.493" y="-280.8" font-family="Times New Roman,serif" font-size="14.00"> (1)</text>
</g>
<!-- node15 -->
<g id="node16" class="node"><title>node15</title>
<ellipse fill="none" stroke="black" cx="329.731" cy="-341" rx="47.3916" ry="18"/>
<text text-anchor="middle" x="329.731" y="-337.3" font-family="Times New Roman,serif" font-size="14.00">(15) XOR</text>
</g>
<!-- node2&#45;&gt;node15 -->
<g id="edge21" class="edge"><title>node2&#45;&gt;node15</title>
<path fill="none" stroke="black" d="M84.3562,-357.567C90.4364,-357.747 96.6271,-357.901 102.493,-358 161.44,-358.995 228.797,-353.015 274.579,-347.876"/>
<polygon fill="black" stroke="black" points="275.047,-351.345 284.583,-346.728 274.249,-344.391 275.047,-351.345"/>
<text text-anchor="middle" x="183.389" y="-360.8" font-family="Times New Roman,serif" font-size="14.00"> (0)</text>
</g>
<!-- node3 -->
<g id="node4" class="node"><title>node3</title>
<ellipse fill="none" stroke="black" cx="42.2463" cy="-37" rx="42.4939" ry="18"/>
<text text-anchor="middle" x="42.2463" y="-33.3" font-family="Times New Roman,serif" font-size="14.00">(3) Input</text>
</g>
<!-- node3&#45;&gt;node9 -->
<g id="edge10" class="edge"><title>node3&#45;&gt;node9</title>
<path fill="none" stroke="black" d="M77.2843,-47.2744C95.7299,-52.8421 118.731,-59.7849 138.509,-65.7549"/>
<polygon fill="black" stroke="black" points="137.635,-69.147 148.22,-68.6861 139.658,-62.4457 137.635,-69.147"/>
<text text-anchor="middle" x="112.493" y="-63.8" font-family="Times New Roman,serif" font-size="14.00"> (1)</text>
</g>
<!-- node10 -->
<g id="node11" class="node"><title>node10</title>
<ellipse fill="none" stroke="black" cx="329.731" cy="-62" rx="40.8928" ry="18"/>
<text text-anchor="middle" x="329.731" y="-58.3" font-family="Times New Roman,serif" font-size="14.00">(10) OR</text>
</g>
<!-- node3&#45;&gt;node10 -->
<g id="edge12" class="edge"><title>node3&#45;&gt;node10</title>
<path fill="none" stroke="black" d="M84.1242,-34.2174C121.329,-32.3441 177.698,-31.1573 226.285,-37 246.222,-39.3975 267.882,-44.3301 286.128,-49.1853"/>
<polygon fill="black" stroke="black" points="285.312,-52.5904 295.881,-51.858 287.162,-45.8394 285.312,-52.5904"/>
<text text-anchor="middle" x="183.389" y="-40.8" font-family="Times New Roman,serif" font-size="14.00"> (1)</text>
</g>
<!-- node4 -->
<g id="node5" class="node"><title>node4</title>
<ellipse fill="none" stroke="black" cx="42.2463" cy="-242" rx="42.4939" ry="18"/>
<text text-anchor="middle" x="42.2463" y="-238.3" font-family="Times New Roman,serif" font-size="14.00">(4) Input</text>
</g>
<!-- node4&#45;&gt;node5 -->
<g id="edge1" class="edge"><title>node4&#45;&gt;node5</title>
<path fill="none" stroke="black" d="M57.7332,-258.911C68.8505,-270.887 85.1864,-286.458 102.493,-296 113.615,-302.133 126.568,-306.652 138.765,-309.941"/>
<polygon fill="black" stroke="black" points="138.229,-313.414 148.777,-312.423 139.913,-306.62 138.229,-313.414"/>
<text text-anchor="middle" x="112.493" y="-307.8" font-family="Times New Roman,serif" font-size="14.00"> (0)</text>
</g>
<!-- node4&#45;&gt;node6 -->
<g id="edge4" class="edge"><title>node4&#45;&gt;node6</title>
<path fill="none" stroke="black" d="M76.2211,-231.099C95.1443,-224.843 119.117,-216.917 139.493,-210.181"/>
<polygon fill="black" stroke="black" points="140.772,-213.445 149.168,-206.983 138.575,-206.798 140.772,-213.445"/>
<text text-anchor="middle" x="112.493" y="-224.8" font-family="Times New Roman,serif" font-size="14.00"> (1)</text>
</g>
<!-- node4&#45;&gt;node7 -->
<g id="edge5" class="edge"><title>node4&#45;&gt;node7</title>
<path fill="none" stroke="black" d="M84.817,-241.714C96.9709,-241.85 110.272,-242.211 122.493,-243 125.784,-243.212 129.171,-243.479 132.583,-243.782"/>
<polygon fill="black" stroke="black" points="132.518,-247.293 142.813,-244.788 133.203,-240.326 132.518,-247.293"/>
<text text-anchor="middle" x="112.493" y="-246.8" font-family="Times New Roman,serif" font-size="14.00"> (0)</text>
</g>
<!-- node11 -->
<g id="node12" class="node"><title>node11</title>
<ellipse fill="none" stroke="black" cx="479.972" cy="-193" rx="46.5926" ry="18"/>
<text text-anchor="middle" x="479.972" y="-189.3" font-family="Times New Roman,serif" font-size="14.00">(11) AND</text>
</g>
<!-- node5&#45;&gt;node11 -->
<g id="edge14" class="edge"><title>node5&#45;&gt;node11</title>
<path fill="none" stroke="black" d="M205.101,-303.334C216.356,-295.762 230.713,-286.727 244.285,-280 307.349,-248.741 384.564,-222.209 432.775,-206.936"/>
<polygon fill="black" stroke="black" points="434.114,-210.185 442.607,-203.851 432.018,-203.506 434.114,-210.185"/>
<text text-anchor="middle" x="329.731" y="-263.8" font-family="Times New Roman,serif" font-size="14.00"> (1)</text>
</g>
<!-- node6&#45;&gt;node15 -->
<g id="edge22" class="edge"><title>node6&#45;&gt;node15</title>
<path fill="none" stroke="black" d="M209.589,-210.596C215.303,-214.346 221.185,-218.579 226.285,-223 228.586,-224.995 278.082,-282.27 307.419,-316.278"/>
<polygon fill="black" stroke="black" points="304.87,-318.681 314.052,-323.968 310.171,-314.109 304.87,-318.681"/>
<text text-anchor="middle" x="254.285" y="-268.8" font-family="Times New Roman,serif" font-size="14.00"> (1)</text>
</g>
<!-- node7&#45;&gt;node8 -->
<g id="edge7" class="edge"><title>node7&#45;&gt;node8</title>
<path fill="none" stroke="black" d="M215,-237.912C237.256,-229.123 267.512,-217.175 291.222,-207.812"/>
<polygon fill="black" stroke="black" points="292.596,-211.033 300.611,-204.104 290.024,-204.522 292.596,-211.033"/>
<text text-anchor="middle" x="254.285" y="-227.8" font-family="Times New Roman,serif" font-size="14.00"> (0)</text>
</g>
<!-- node8&#45;&gt;node11 -->
<g id="edge13" class="edge"><title>node8&#45;&gt;node11</title>
<path fill="none" stroke="black" d="M366.238,-193C383.228,-193 403.974,-193 423.015,-193"/>
<polygon fill="black" stroke="black" points="423.085,-196.5 433.085,-193 423.084,-189.5 423.085,-196.5"/>
<text text-anchor="middle" x="405.176" y="-196.8" font-family="Times New Roman,serif" font-size="14.00"> (0)</text>
</g>
<!-- node9&#45;&gt;node10 -->
<g id="edge11" class="edge"><title>node9&#45;&gt;node10</title>
<path fill="none" stroke="black" d="M224.98,-74.2193C242.067,-72.2068 262.097,-69.8479 279.975,-67.7422"/>
<polygon fill="black" stroke="black" points="280.412,-71.215 289.934,-66.5693 279.593,-64.2631 280.412,-71.215"/>
<text text-anchor="middle" x="254.285" y="-74.8" font-family="Times New Roman,serif" font-size="14.00"> (0)</text>
</g>
<!-- node12 -->
<g id="node13" class="node"><title>node12</title>
<ellipse fill="none" stroke="black" cx="630.214" cy="-115" rx="47.3916" ry="18"/>
<text text-anchor="middle" x="630.214" y="-111.3" font-family="Times New Roman,serif" font-size="14.00">(12) XOR</text>
</g>
<!-- node9&#45;&gt;node12 -->
<g id="edge15" class="edge"><title>node9&#45;&gt;node12</title>
<path fill="none" stroke="black" d="M222.308,-86.6541C229.58,-87.9258 237.15,-89.1162 244.285,-90 360.445,-104.389 497.417,-110.783 572.638,-113.392"/>
<polygon fill="black" stroke="black" points="572.721,-116.897 582.833,-113.736 572.957,-109.901 572.721,-116.897"/>
<text text-anchor="middle" x="405.176" y="-108.8" font-family="Times New Roman,serif" font-size="14.00"> (0)</text>
</g>
<!-- node13 -->
<g id="node14" class="node"><title>node13</title>
<ellipse fill="none" stroke="black" cx="780.456" cy="-18" rx="46.5926" ry="18"/>
<text text-anchor="middle" x="780.456" y="-14.3" font-family="Times New Roman,serif" font-size="14.00">(13) AND</text>
</g>
<!-- node9&#45;&gt;node13 -->
<g id="edge17" class="edge"><title>node9&#45;&gt;node13</title>
<path fill="none" stroke="black" d="M210.161,-64.8748C251.222,-42.3973 327.071,-1 328.731,-1 328.731,-1 328.731,-1 631.214,-1 663.284,-1 699.003,-4.97547 727.343,-9.08148"/>
<polygon fill="black" stroke="black" points="727.021,-12.5723 737.43,-10.593 728.059,-5.64958 727.021,-12.5723"/>
<text text-anchor="middle" x="479.972" y="-4.8" font-family="Times New Roman,serif" font-size="14.00"> (0)</text>
</g>
<!-- node14 -->
<g id="node15" class="node"><title>node14</title>
<ellipse fill="none" stroke="black" cx="930.697" cy="-44" rx="47.3916" ry="18"/>
<text text-anchor="middle" x="930.697" y="-40.3" font-family="Times New Roman,serif" font-size="14.00">(14) XOR</text>
</g>
<!-- node10&#45;&gt;node14 -->
<g id="edge19" class="edge"><title>node10&#45;&gt;node14</title>
<path fill="none" stroke="black" d="M370.682,-62.8308C400.517,-63.3803 442.295,-64 478.972,-64 478.972,-64 478.972,-64 781.456,-64 813.952,-64 850.099,-59.2215 878.563,-54.3359"/>
<polygon fill="black" stroke="black" points="879.447,-57.7338 888.681,-52.5398 878.223,-50.8416 879.447,-57.7338"/>
<text text-anchor="middle" x="630.214" y="-67.8" font-family="Times New Roman,serif" font-size="14.00"> (0)</text>
</g>
<!-- node11&#45;&gt;node12 -->
<g id="edge16" class="edge"><title>node11&#45;&gt;node12</title>
<path fill="none" stroke="black" d="M508.508,-178.512C532.148,-166.073 566.419,-148.041 592.409,-134.366"/>
<polygon fill="black" stroke="black" points="594.355,-137.297 601.575,-129.543 591.095,-131.102 594.355,-137.297"/>
<text text-anchor="middle" x="554.768" y="-161.8" font-family="Times New Roman,serif" font-size="14.00"> (1)</text>
</g>
<!-- node12&#45;&gt;node13 -->
<g id="edge18" class="edge"><title>node12&#45;&gt;node13</title>
<path fill="none" stroke="black" d="M655.032,-99.4153C679.994,-83.0817 719.368,-57.3178 747.126,-39.1546"/>
<polygon fill="black" stroke="black" points="749.246,-41.9502 755.697,-33.5461 745.413,-36.0927 749.246,-41.9502"/>
<text text-anchor="middle" x="705.66" y="-75.8" font-family="Times New Roman,serif" font-size="14.00"> (1)</text>
</g>
<!-- node17 -->
<g id="node18" class="node"><title>node17</title>
<ellipse fill="none" stroke="black" cx="1058.04" cy="-115" rx="42.7926" ry="18"/>
<text text-anchor="middle" x="1058.04" y="-111.3" font-family="Times New Roman,serif" font-size="14.00">Output 1</text>
</g>
<!-- node12&#45;&gt;node17 -->
<g id="edge24" class="edge"><title>node12&#45;&gt;node17</title>
<path fill="none" stroke="black" d="M678.003,-115C758.163,-115 921.189,-115 1004.89,-115"/>
<polygon fill="black" stroke="black" points="1004.93,-118.5 1014.93,-115 1004.93,-111.5 1004.93,-118.5"/>
</g>
<!-- node13&#45;&gt;node14 -->
<g id="edge20" class="edge"><title>node13&#45;&gt;node14</title>
<path fill="none" stroke="black" d="M823.539,-25.381C840.212,-28.3052 859.562,-31.699 877.14,-34.782"/>
<polygon fill="black" stroke="black" points="876.797,-38.2752 887.251,-36.5554 878.006,-31.3804 876.797,-38.2752"/>
<text text-anchor="middle" x="855.251" y="-36.8" font-family="Times New Roman,serif" font-size="14.00"> (1)</text>
</g>
<!-- node18 -->
<g id="node19" class="node"><title>node18</title>
<ellipse fill="none" stroke="black" cx="1058.04" cy="-44" rx="42.7926" ry="18"/>
<text text-anchor="middle" x="1058.04" y="-40.3" font-family="Times New Roman,serif" font-size="14.00">Output 2</text>
</g>
<!-- node14&#45;&gt;node18 -->
<g id="edge25" class="edge"><title>node14&#45;&gt;node18</title>
<path fill="none" stroke="black" d="M978.37,-44C986.975,-44 996.01,-44 1004.77,-44"/>
<polygon fill="black" stroke="black" points="1004.88,-47.5001 1014.88,-44 1004.88,-40.5001 1004.88,-47.5001"/>
</g>
<!-- node16 -->
<g id="node17" class="node"><title>node16</title>
<ellipse fill="none" stroke="black" cx="1058.04" cy="-341" rx="42.7926" ry="18"/>
<text text-anchor="middle" x="1058.04" y="-337.3" font-family="Times New Roman,serif" font-size="14.00">Output 0</text>
</g>
<!-- node15&#45;&gt;node16 -->
<g id="edge23" class="edge"><title>node15&#45;&gt;node16</title>
<path fill="none" stroke="black" d="M377.467,-341C406.649,-341 445,-341 478.972,-341 478.972,-341 478.972,-341 931.697,-341 955.757,-341 982.415,-341 1004.94,-341"/>
<polygon fill="black" stroke="black" points="1004.97,-344.5 1014.97,-341 1004.97,-337.5 1004.97,-344.5"/>
</g>
</g>
</svg>
