<?xml version="1.0" encoding="UTF-8" standalone="no"?>
<!DOCTYPE svg PUBLIC "-//W3C//DTD SVG 1.1//EN"
 "http://www.w3.org/Graphics/SVG/1.1/DTD/svg11.dtd">
<!-- Generated by graphviz version 2.38.0 (20140413.2041)
 -->
<!-- Title: NeuralNetwork Pages: 1 -->
<svg width="288pt" height="103pt"
 viewBox="0.00 0.00 288.00 102.71" xmlns="http://www.w3.org/2000/svg" xmlns:xlink="http://www.w3.org/1999/xlink">
<g id="graph0" class="graph" transform="scale(0.236661 0.236661) rotate(0) translate(4 430)">
<title>NeuralNetwork</title>
<polygon fill="white" stroke="none" points="-4,4 -4,-430 1212.93,-430 1212.93,4 -4,4"/>
<!-- node0 -->
<g id="node1" class="node"><title>node0</title>
<ellipse fill="none" stroke="black" cx="42.2463" cy="-113" rx="42.4939" ry="18"/>
<text text-anchor="middle" x="42.2463" y="-109.3" font-family="Times New Roman,serif" font-size="14.00">(0) Input</text>
</g>
<!-- node5 -->
<g id="node6" class="node"><title>node5</title>
<ellipse fill="none" stroke="black" cx="183.389" cy="-127" rx="42.7926" ry="18"/>
<text text-anchor="middle" x="183.389" y="-123.3" font-family="Times New Roman,serif" font-size="14.00">(5) XOR</text>
</g>
<!-- node0&#45;&gt;node5 -->
<g id="edge2" class="edge"><title>node0&#45;&gt;node5</title>
<path fill="none" stroke="black" d="M84.4753,-111.952C96.7412,-112.063 110.189,-112.602 122.493,-114 126.955,-114.507 131.573,-115.2 136.176,-116.005"/>
<polygon fill="black" stroke="black" points="135.678,-119.473 146.158,-117.913 136.993,-112.597 135.678,-119.473"/>
<text text-anchor="middle" x="112.493" y="-117.8" font-family="Times New Roman,serif" font-size="14.00"> (1)</text>
</g>
<!-- node1 -->
<g id="node2" class="node"><title>node1</title>
<ellipse fill="none" stroke="black" cx="42.2463" cy="-269" rx="42.4939" ry="18"/>
<text text-anchor="middle" x="42.2463" y="-265.3" font-family="Times New Roman,serif" font-size="14.00">(1) Input</text>
</g>
<!-- node10 -->
<g id="node11" class="node"><title>node10</title>
<ellipse fill="none" stroke="black" cx="749.908" cy="-302" rx="47.3916" ry="18"/>
<text text-anchor="middle" x="749.908" y="-298.3" font-family="Times New Roman,serif" font-size="14.00">(10) XOR</text>
</g>
<!-- node1&#45;&gt;node10 -->
<g id="edge10" class="edge"><title>node1&#45;&gt;node10</title>
<path fill="none" stroke="black" d="M74.5211,-280.821C102.398,-290.29 144.528,-302 182.389,-302 182.389,-302 182.389,-302 605.216,-302 633.846,-302 665.685,-302 692.102,-302"/>
<polygon fill="black" stroke="black" points="692.315,-305.5 702.315,-302 692.315,-298.5 692.315,-305.5"/>
<text text-anchor="middle" x="405.176" y="-305.8" font-family="Times New Roman,serif" font-size="14.00"> (0)</text>
</g>
<!-- node12 -->
<g id="node13" class="node"><title>node12</title>
<ellipse fill="none" stroke="black" cx="749.908" cy="-239" rx="46.5926" ry="18"/>
<text text-anchor="middle" x="749.908" y="-235.3" font-family="Times New Roman,serif" font-size="14.00">(12) AND</text>
</g>
<!-- node1&#45;&gt;node12 -->
<g id="edge14" class="edge"><title>node1&#45;&gt;node12</title>
<path fill="none" stroke="black" d="M75.7134,-257.914C103.645,-249.368 145.197,-239 182.389,-239 182.389,-239 182.389,-239 605.216,-239 634.067,-239 666.175,-239 692.71,-239"/>
<polygon fill="black" stroke="black" points="692.962,-242.5 702.962,-239 692.962,-235.5 692.962,-242.5"/>
<text text-anchor="middle" x="405.176" y="-242.8" font-family="Times New Roman,serif" font-size="14.00"> (0)</text>
</g>
<!-- node2 -->
<g id="node3" class="node"><title>node2</title>
<ellipse fill="none" stroke="black" cx="42.2463" cy="-39" rx="42.4939" ry="18"/>
<text text-anchor="middle" x="42.2463" y="-35.3" font-family="Times New Roman,serif" font-size="14.00">(2) Input</text>
</g>
<!-- node7 -->
<g id="node8" class="node"><title>node7</title>
<ellipse fill="none" stroke="black" cx="469.573" cy="-193" rx="36.2938" ry="18"/>
<text text-anchor="middle" x="469.573" y="-189.3" font-family="Times New Roman,serif" font-size="14.00">(7) OR</text>
</g>
<!-- node2&#45;&gt;node7 -->
<g id="edge5" class="edge"><title>node2&#45;&gt;node7</title>
<path fill="none" stroke="black" d="M81.7375,-45.5625C164.013,-59.7894 351.618,-93.3667 377.176,-108 409.4,-126.449 404.926,-145.903 433.176,-170 434.48,-171.112 435.84,-172.212 437.237,-173.294"/>
<polygon fill="black" stroke="black" points="435.319,-176.226 445.477,-179.239 439.414,-170.55 435.319,-176.226"/>
<text text-anchor="middle" x="254.285" y="-82.8" font-family="Times New Roman,serif" font-size="14.00"> (1)</text>
</g>
<!-- node15 -->
<g id="node16" class="node"><title>node15</title>
<ellipse fill="none" stroke="black" cx="329.731" cy="-18" rx="47.3916" ry="18"/>
<text text-anchor="middle" x="329.731" y="-14.3" font-family="Times New Roman,serif" font-size="14.00">(15) XOR</text>
</g>
<!-- node2&#45;&gt;node15 -->
<g id="edge20" class="edge"><title>node2&#45;&gt;node15</title>
<path fill="none" stroke="black" d="M84.1492,-35.9912C133.643,-32.3505 217.222,-26.2025 272.687,-22.1225"/>
<polygon fill="black" stroke="black" points="272.985,-25.6101 282.702,-21.3859 272.472,-18.629 272.985,-25.6101"/>
<text text-anchor="middle" x="183.389" y="-34.8" font-family="Times New Roman,serif" font-size="14.00"> (0)</text>
</g>
<!-- node3 -->
<g id="node4" class="node"><title>node3</title>
<ellipse fill="none" stroke="black" cx="42.2463" cy="-352" rx="42.4939" ry="18"/>
<text text-anchor="middle" x="42.2463" y="-348.3" font-family="Times New Roman,serif" font-size="14.00">(3) Input</text>
</g>
<!-- node11 -->
<g id="node12" class="node"><title>node11</title>
<ellipse fill="none" stroke="black" cx="900.8" cy="-302" rx="46.5926" ry="18"/>
<text text-anchor="middle" x="900.8" y="-298.3" font-family="Times New Roman,serif" font-size="14.00">(11) AND</text>
</g>
<!-- node3&#45;&gt;node11 -->
<g id="edge13" class="edge"><title>node3&#45;&gt;node11</title>
<path fill="none" stroke="black" d="M84.3339,-350.199C112.033,-349.137 149.401,-348 182.389,-348 182.389,-348 182.389,-348 750.908,-348 790.164,-348 832.752,-333.223 862.283,-320.419"/>
<polygon fill="black" stroke="black" points="864.073,-323.453 871.774,-316.177 861.216,-317.062 864.073,-323.453"/>
<text text-anchor="middle" x="469.573" y="-351.8" font-family="Times New Roman,serif" font-size="14.00"> (1)</text>
</g>
<!-- node14 -->
<g id="node15" class="node"><title>node14</title>
<ellipse fill="none" stroke="black" cx="900.8" cy="-396" rx="47.3916" ry="18"/>
<text text-anchor="middle" x="900.8" y="-392.3" font-family="Times New Roman,serif" font-size="14.00">(14) XOR</text>
</g>
<!-- node3&#45;&gt;node14 -->
<g id="edge19" class="edge"><title>node3&#45;&gt;node14</title>
<path fill="none" stroke="black" d="M64.7025,-367.502C91.0604,-384.982 137.783,-411 182.389,-411 182.389,-411 182.389,-411 750.908,-411 782.724,-411 818.172,-407.568 846.496,-403.987"/>
<polygon fill="black" stroke="black" points="847.128,-407.434 856.589,-402.667 846.22,-400.493 847.128,-407.434"/>
<text text-anchor="middle" x="469.573" y="-414.8" font-family="Times New Roman,serif" font-size="14.00"> (1)</text>
</g>
<!-- node4 -->
<g id="node5" class="node"><title>node4</title>
<ellipse fill="none" stroke="black" cx="42.2463" cy="-174" rx="42.4939" ry="18"/>
<text text-anchor="middle" x="42.2463" y="-170.3" font-family="Times New Roman,serif" font-size="14.00">(4) Input</text>
</g>
<!-- node4&#45;&gt;node5 -->
<g id="edge1" class="edge"><title>node4&#45;&gt;node5</title>
<path fill="none" stroke="black" d="M74.1927,-162.161C83.2763,-158.78 93.2524,-155.159 102.493,-152 114.096,-148.033 126.73,-143.965 138.455,-140.294"/>
<polygon fill="black" stroke="black" points="139.535,-143.624 148.047,-137.315 137.459,-136.939 139.535,-143.624"/>
<text text-anchor="middle" x="112.493" y="-155.8" font-family="Times New Roman,serif" font-size="14.00"> (0)</text>
</g>
<!-- node8 -->
<g id="node9" class="node"><title>node8</title>
<ellipse fill="none" stroke="black" cx="329.731" cy="-135" rx="36.2938" ry="18"/>
<text text-anchor="middle" x="329.731" y="-131.3" font-family="Times New Roman,serif" font-size="14.00">(8) OR</text>
</g>
<!-- node4&#45;&gt;node8 -->
<g id="edge6" class="edge"><title>node4&#45;&gt;node8</title>
<path fill="none" stroke="black" d="M84.2126,-171.175C128.758,-167.727 201.936,-160.96 264.285,-150 271.758,-148.686 279.666,-147.052 287.286,-145.35"/>
<polygon fill="black" stroke="black" points="288.117,-148.75 297.076,-143.094 286.546,-141.929 288.117,-148.75"/>
<text text-anchor="middle" x="183.389" y="-169.8" font-family="Times New Roman,serif" font-size="14.00"> (0)</text>
</g>
<!-- node6 -->
<g id="node7" class="node"><title>node6</title>
<ellipse fill="none" stroke="black" cx="329.731" cy="-193" rx="42.4939" ry="18"/>
<text text-anchor="middle" x="329.731" y="-189.3" font-family="Times New Roman,serif" font-size="14.00">(6) NEG</text>
</g>
<!-- node5&#45;&gt;node6 -->
<g id="edge3" class="edge"><title>node5&#45;&gt;node6</title>
<path fill="none" stroke="black" d="M213.252,-140.197C235.476,-150.36 266.396,-164.498 290.648,-175.587"/>
<polygon fill="black" stroke="black" points="289.368,-178.85 299.918,-179.825 292.279,-172.484 289.368,-178.85"/>
<text text-anchor="middle" x="254.285" y="-164.8" font-family="Times New Roman,serif" font-size="14.00"> (0)</text>
</g>
<!-- node5&#45;&gt;node8 -->
<g id="edge7" class="edge"><title>node5&#45;&gt;node8</title>
<path fill="none" stroke="black" d="M226.138,-129.314C244.04,-130.306 264.997,-131.468 283.287,-132.481"/>
<polygon fill="black" stroke="black" points="283.242,-135.984 293.421,-133.043 283.63,-128.995 283.242,-135.984"/>
<text text-anchor="middle" x="254.285" y="-134.8" font-family="Times New Roman,serif" font-size="14.00"> (1)</text>
</g>
<!-- node5&#45;&gt;node15 -->
<g id="edge21" class="edge"><title>node5&#45;&gt;node15</title>
<path fill="none" stroke="black" d="M194.716,-109.353C205.299,-92.6044 223.164,-67.7197 244.285,-52 255.297,-43.8038 268.558,-37.2553 281.274,-32.18"/>
<polygon fill="black" stroke="black" points="282.716,-35.3772 290.845,-28.5832 280.253,-28.8246 282.716,-35.3772"/>
<text text-anchor="middle" x="254.285" y="-55.8" font-family="Times New Roman,serif" font-size="14.00"> (1)</text>
</g>
<!-- node6&#45;&gt;node7 -->
<g id="edge4" class="edge"><title>node6&#45;&gt;node7</title>
<path fill="none" stroke="black" d="M372.088,-193C387.961,-193 406.169,-193 422.46,-193"/>
<polygon fill="black" stroke="black" points="422.846,-196.5 432.846,-193 422.846,-189.5 422.846,-196.5"/>
<text text-anchor="middle" x="405.176" y="-196.8" font-family="Times New Roman,serif" font-size="14.00"> (0)</text>
</g>
<!-- node9 -->
<g id="node10" class="node"><title>node9</title>
<ellipse fill="none" stroke="black" cx="604.216" cy="-193" rx="42.4939" ry="18"/>
<text text-anchor="middle" x="604.216" y="-189.3" font-family="Times New Roman,serif" font-size="14.00">(9) AND</text>
</g>
<!-- node7&#45;&gt;node9 -->
<g id="edge9" class="edge"><title>node7&#45;&gt;node9</title>
<path fill="none" stroke="black" d="M506.119,-193C520.086,-193 536.392,-193 551.61,-193"/>
<polygon fill="black" stroke="black" points="551.929,-196.5 561.929,-193 551.929,-189.5 551.929,-196.5"/>
<text text-anchor="middle" x="533.97" y="-196.8" font-family="Times New Roman,serif" font-size="14.00"> (1)</text>
</g>
<!-- node8&#45;&gt;node9 -->
<g id="edge8" class="edge"><title>node8&#45;&gt;node9</title>
<path fill="none" stroke="black" d="M366.194,-134.973C401.991,-135.702 458.602,-138.937 505.97,-151 527.368,-156.45 550.087,-166.027 568.179,-174.66"/>
<polygon fill="black" stroke="black" points="566.666,-177.816 577.188,-179.062 569.74,-171.527 566.666,-177.816"/>
<text text-anchor="middle" x="469.573" y="-154.8" font-family="Times New Roman,serif" font-size="14.00"> (0)</text>
</g>
<!-- node9&#45;&gt;node10 -->
<g id="edge11" class="edge"><title>node9&#45;&gt;node10</title>
<path fill="none" stroke="black" d="M625.804,-208.617C650.278,-227.182 691.309,-258.307 719.214,-279.475"/>
<polygon fill="black" stroke="black" points="717.338,-282.445 727.42,-285.7 721.569,-276.868 717.338,-282.445"/>
<text text-anchor="middle" x="674.463" y="-253.8" font-family="Times New Roman,serif" font-size="14.00"> (1)</text>
</g>
<!-- node9&#45;&gt;node12 -->
<g id="edge15" class="edge"><title>node9&#45;&gt;node12</title>
<path fill="none" stroke="black" d="M643.944,-199.603C656.976,-202.273 671.494,-205.744 684.463,-210 693.452,-212.95 702.872,-216.754 711.649,-220.629"/>
<polygon fill="black" stroke="black" points="710.318,-223.869 720.87,-224.826 713.218,-217.498 710.318,-223.869"/>
<text text-anchor="middle" x="674.463" y="-213.8" font-family="Times New Roman,serif" font-size="14.00"> (1)</text>
</g>
<!-- node10&#45;&gt;node11 -->
<g id="edge12" class="edge"><title>node10&#45;&gt;node11</title>
<path fill="none" stroke="black" d="M797.61,-302C812.161,-302 828.363,-302 843.499,-302"/>
<polygon fill="black" stroke="black" points="843.774,-305.5 853.774,-302 843.774,-298.5 843.774,-305.5"/>
<text text-anchor="middle" x="825.354" y="-305.8" font-family="Times New Roman,serif" font-size="14.00"> (0)</text>
</g>
<!-- node10&#45;&gt;node14 -->
<g id="edge18" class="edge"><title>node10&#45;&gt;node14</title>
<path fill="none" stroke="black" d="M775.162,-317.312C800.145,-333.085 839.245,-357.77 866.983,-375.282"/>
<polygon fill="black" stroke="black" points="865.233,-378.316 875.557,-380.695 868.97,-372.397 865.233,-378.316"/>
<text text-anchor="middle" x="825.354" y="-357.8" font-family="Times New Roman,serif" font-size="14.00"> (0)</text>
</g>
<!-- node13 -->
<g id="node14" class="node"><title>node13</title>
<ellipse fill="none" stroke="black" cx="1045.19" cy="-263" rx="40.8928" ry="18"/>
<text text-anchor="middle" x="1045.19" y="-259.3" font-family="Times New Roman,serif" font-size="14.00">(13) OR</text>
</g>
<!-- node11&#45;&gt;node13 -->
<g id="edge17" class="edge"><title>node11&#45;&gt;node13</title>
<path fill="none" stroke="black" d="M939.585,-291.651C958.247,-286.539 980.872,-280.343 1000.3,-275.022"/>
<polygon fill="black" stroke="black" points="1001.41,-278.347 1010.13,-272.329 999.56,-271.595 1001.41,-278.347"/>
<text text-anchor="middle" x="976.246" y="-286.8" font-family="Times New Roman,serif" font-size="14.00"> (1)</text>
</g>
<!-- node12&#45;&gt;node13 -->
<g id="edge16" class="edge"><title>node12&#45;&gt;node13</title>
<path fill="none" stroke="black" d="M795.771,-242.671C849.398,-247.06 938.859,-254.38 994.526,-258.936"/>
<polygon fill="black" stroke="black" points="994.258,-262.425 1004.51,-259.753 994.829,-255.449 994.258,-262.425"/>
<text text-anchor="middle" x="900.8" y="-257.8" font-family="Times New Roman,serif" font-size="14.00"> (0)</text>
</g>
<!-- node18 -->
<g id="node19" class="node"><title>node18</title>
<ellipse fill="none" stroke="black" cx="1166.03" cy="-263" rx="42.7926" ry="18"/>
<text text-anchor="middle" x="1166.03" y="-259.3" font-family="Times New Roman,serif" font-size="14.00">Output 2</text>
</g>
<!-- node13&#45;&gt;node18 -->
<g id="edge24" class="edge"><title>node13&#45;&gt;node18</title>
<path fill="none" stroke="black" d="M1086.43,-263C1094.85,-263 1103.85,-263 1112.64,-263"/>
<polygon fill="black" stroke="black" points="1112.81,-266.5 1122.81,-263 1112.81,-259.5 1112.81,-266.5"/>
</g>
<!-- node17 -->
<g id="node18" class="node"><title>node17</title>
<ellipse fill="none" stroke="black" cx="1166.03" cy="-396" rx="42.7926" ry="18"/>
<text text-anchor="middle" x="1166.03" y="-392.3" font-family="Times New Roman,serif" font-size="14.00">Output 1</text>
</g>
<!-- node14&#45;&gt;node17 -->
<g id="edge23" class="edge"><title>node14&#45;&gt;node17</title>
<path fill="none" stroke="black" d="M948.255,-396C994.32,-396 1064.78,-396 1112.77,-396"/>
<polygon fill="black" stroke="black" points="1112.95,-399.5 1122.95,-396 1112.95,-392.5 1112.95,-399.5"/>
</g>
<!-- node16 -->
<g id="node17" class="node"><title>node16</title>
<ellipse fill="none" stroke="black" cx="1166.03" cy="-18" rx="42.7926" ry="18"/>
<text text-anchor="middle" x="1166.03" y="-14.3" font-family="Times New Roman,serif" font-size="14.00">Output 0</text>
</g>
<!-- node15&#45;&gt;node16 -->
<g id="edge22" class="edge"><title>node15&#45;&gt;node16</title>
<path fill="none" stroke="black" d="M377.308,-18C404.019,-18 438.181,-18 468.573,-18 468.573,-18 468.573,-18 1046.19,-18 1067.99,-18 1092.04,-18 1112.76,-18"/>
<polygon fill="black" stroke="black" points="1112.96,-21.5001 1122.96,-18 1112.96,-14.5001 1112.96,-21.5001"/>
</g>
</g>
</svg>
