<?xml version="1.0" encoding="UTF-8" standalone="no"?>
<!DOCTYPE svg PUBLIC "-//W3C//DTD SVG 1.1//EN"
 "http://www.w3.org/Graphics/SVG/1.1/DTD/svg11.dtd">
<!-- Generated by graphviz version 2.38.0 (20140413.2041)
 -->
<!-- Title: NeuralNetwork Pages: 1 -->
<svg width="288pt" height="88pt"
 viewBox="0.00 0.00 288.00 87.71" xmlns="http://www.w3.org/2000/svg" xmlns:xlink="http://www.w3.org/1999/xlink">
<g id="graph0" class="graph" transform="scale(0.22094 0.22094) rotate(0) translate(4 393)">
<title>NeuralNetwork</title>
<polygon fill="white" stroke="none" points="-4,4 -4,-393 1299.52,-393 1299.52,4 -4,4"/>
<!-- node0 -->
<g id="node1" class="node"><title>node0</title>
<ellipse fill="none" stroke="black" cx="42.2463" cy="-42" rx="42.4939" ry="18"/>
<text text-anchor="middle" x="42.2463" y="-38.3" font-family="Times New Roman,serif" font-size="14.00">(0) Input</text>
</g>
<!-- node6 -->
<g id="node7" class="node"><title>node6</title>
<ellipse fill="none" stroke="black" cx="390.973" cy="-18" rx="42.7926" ry="18"/>
<text text-anchor="middle" x="390.973" y="-14.3" font-family="Times New Roman,serif" font-size="14.00">(6) XOR</text>
</g>
<!-- node0&#45;&gt;node6 -->
<g id="edge4" class="edge"><title>node0&#45;&gt;node6</title>
<path fill="none" stroke="black" d="M83.9344,-39.0364C101.352,-37.7767 121.919,-36.3013 140.493,-35 208.964,-30.2028 288.02,-24.8467 338.469,-21.4519"/>
<polygon fill="black" stroke="black" points="338.733,-24.9422 348.476,-20.779 338.263,-17.9579 338.733,-24.9422"/>
<text text-anchor="middle" x="183.389" y="-38.8" font-family="Times New Roman,serif" font-size="14.00"> (1)</text>
</g>
<!-- node10 -->
<g id="node11" class="node"><title>node10</title>
<ellipse fill="none" stroke="black" cx="530.816" cy="-140" rx="40.8928" ry="18"/>
<text text-anchor="middle" x="530.816" y="-136.3" font-family="Times New Roman,serif" font-size="14.00">(10) OR</text>
</g>
<!-- node0&#45;&gt;node10 -->
<g id="edge11" class="edge"><title>node0&#45;&gt;node10</title>
<path fill="none" stroke="black" d="M82.3911,-47.7689C89.0861,-48.617 95.9808,-49.4041 102.493,-50 203.338,-59.2285 231.088,-39.6458 330.077,-61 389.893,-73.9035 455.093,-102.724 494.198,-121.754"/>
<polygon fill="black" stroke="black" points="493.041,-125.086 503.558,-126.366 496.135,-118.806 493.041,-125.086"/>
<text text-anchor="middle" x="287.181" y="-64.8" font-family="Times New Roman,serif" font-size="14.00"> (1)</text>
</g>
<!-- node1 -->
<g id="node2" class="node"><title>node1</title>
<ellipse fill="none" stroke="black" cx="42.2463" cy="-276" rx="42.4939" ry="18"/>
<text text-anchor="middle" x="42.2463" y="-272.3" font-family="Times New Roman,serif" font-size="14.00">(1) Input</text>
</g>
<!-- node8 -->
<g id="node9" class="node"><title>node8</title>
<ellipse fill="none" stroke="black" cx="287.181" cy="-293" rx="42.7926" ry="18"/>
<text text-anchor="middle" x="287.181" y="-289.3" font-family="Times New Roman,serif" font-size="14.00">(8) XOR</text>
</g>
<!-- node1&#45;&gt;node8 -->
<g id="edge6" class="edge"><title>node1&#45;&gt;node8</title>
<path fill="none" stroke="black" d="M78.0946,-266.348C86.0511,-264.542 94.514,-262.93 102.493,-262 151.089,-256.336 206.394,-268.191 243.51,-278.838"/>
<polygon fill="black" stroke="black" points="242.894,-282.306 253.476,-281.794 244.884,-275.595 242.894,-282.306"/>
<text text-anchor="middle" x="112.493" y="-265.8" font-family="Times New Roman,serif" font-size="14.00"> (0)</text>
</g>
<!-- node9 -->
<g id="node10" class="node"><title>node9</title>
<ellipse fill="none" stroke="black" cx="183.389" cy="-371" rx="36.2938" ry="18"/>
<text text-anchor="middle" x="183.389" y="-367.3" font-family="Times New Roman,serif" font-size="14.00">(9) OR</text>
</g>
<!-- node1&#45;&gt;node9 -->
<g id="edge8" class="edge"><title>node1&#45;&gt;node9</title>
<path fill="none" stroke="black" d="M84.4636,-277.355C97.3862,-279.283 111.208,-283.012 122.493,-290 143.385,-302.938 159.387,-326.075 169.573,-344.317"/>
<polygon fill="black" stroke="black" points="166.58,-346.144 174.365,-353.331 172.761,-342.858 166.58,-346.144"/>
<text text-anchor="middle" x="112.493" y="-293.8" font-family="Times New Roman,serif" font-size="14.00"> (0)</text>
</g>
<!-- node2 -->
<g id="node3" class="node"><title>node2</title>
<ellipse fill="none" stroke="black" cx="42.2463" cy="-140" rx="42.4939" ry="18"/>
<text text-anchor="middle" x="42.2463" y="-136.3" font-family="Times New Roman,serif" font-size="14.00">(2) Input</text>
</g>
<!-- node5 -->
<g id="node6" class="node"><title>node5</title>
<ellipse fill="none" stroke="black" cx="183.389" cy="-140" rx="42.7926" ry="18"/>
<text text-anchor="middle" x="183.389" y="-136.3" font-family="Times New Roman,serif" font-size="14.00">(5) XOR</text>
</g>
<!-- node2&#45;&gt;node5 -->
<g id="edge1" class="edge"><title>node2&#45;&gt;node5</title>
<path fill="none" stroke="black" d="M84.6168,-140C98.9362,-140 115.174,-140 130.246,-140"/>
<polygon fill="black" stroke="black" points="130.456,-143.5 140.456,-140 130.456,-136.5 130.456,-143.5"/>
<text text-anchor="middle" x="112.493" y="-143.8" font-family="Times New Roman,serif" font-size="14.00"> (0)</text>
</g>
<!-- node3 -->
<g id="node4" class="node"><title>node3</title>
<ellipse fill="none" stroke="black" cx="42.2463" cy="-339" rx="42.4939" ry="18"/>
<text text-anchor="middle" x="42.2463" y="-335.3" font-family="Times New Roman,serif" font-size="14.00">(3) Input</text>
</g>
<!-- node3&#45;&gt;node8 -->
<g id="edge7" class="edge"><title>node3&#45;&gt;node8</title>
<path fill="none" stroke="black" d="M81.2048,-331.813C123.387,-323.825 191.611,-310.907 237.644,-302.19"/>
<polygon fill="black" stroke="black" points="238.513,-305.588 247.687,-300.289 237.211,-298.71 238.513,-305.588"/>
<text text-anchor="middle" x="112.493" y="-330.8" font-family="Times New Roman,serif" font-size="14.00"> (1)</text>
</g>
<!-- node3&#45;&gt;node9 -->
<g id="edge9" class="edge"><title>node3&#45;&gt;node9</title>
<path fill="none" stroke="black" d="M79.8043,-347.408C98.2324,-351.646 120.683,-356.809 139.879,-361.224"/>
<polygon fill="black" stroke="black" points="139.34,-364.691 149.87,-363.521 140.909,-357.869 139.34,-364.691"/>
<text text-anchor="middle" x="112.493" y="-359.8" font-family="Times New Roman,serif" font-size="14.00"> (1)</text>
</g>
<!-- node4 -->
<g id="node5" class="node"><title>node4</title>
<ellipse fill="none" stroke="black" cx="42.2463" cy="-201" rx="42.4939" ry="18"/>
<text text-anchor="middle" x="42.2463" y="-197.3" font-family="Times New Roman,serif" font-size="14.00">(4) Input</text>
</g>
<!-- node4&#45;&gt;node5 -->
<g id="edge2" class="edge"><title>node4&#45;&gt;node5</title>
<path fill="none" stroke="black" d="M72.4151,-188.212C93.0546,-179.164 120.954,-166.933 143.487,-157.054"/>
<polygon fill="black" stroke="black" points="145.026,-160.202 152.779,-152.981 142.215,-153.791 145.026,-160.202"/>
<text text-anchor="middle" x="112.493" y="-177.8" font-family="Times New Roman,serif" font-size="14.00"> (1)</text>
</g>
<!-- node11 -->
<g id="node12" class="node"><title>node11</title>
<ellipse fill="none" stroke="black" cx="390.973" cy="-201" rx="40.8928" ry="18"/>
<text text-anchor="middle" x="390.973" y="-197.3" font-family="Times New Roman,serif" font-size="14.00">(11) OR</text>
</g>
<!-- node4&#45;&gt;node11 -->
<g id="edge13" class="edge"><title>node4&#45;&gt;node11</title>
<path fill="none" stroke="black" d="M84.7253,-201C148.584,-201 270.788,-201 339.623,-201"/>
<polygon fill="black" stroke="black" points="339.787,-204.5 349.787,-201 339.787,-197.5 339.787,-204.5"/>
<text text-anchor="middle" x="183.389" y="-204.8" font-family="Times New Roman,serif" font-size="14.00"> (1)</text>
</g>
<!-- node5&#45;&gt;node6 -->
<g id="edge3" class="edge"><title>node5&#45;&gt;node6</title>
<path fill="none" stroke="black" d="M216.48,-128.54C253.25,-115.106 310.9,-93.026 330.077,-80 345.108,-69.7905 359.353,-55.3203 370.178,-42.9269"/>
<polygon fill="black" stroke="black" points="372.975,-45.0398 376.771,-35.1482 367.635,-40.5137 372.975,-45.0398"/>
<text text-anchor="middle" x="287.181" y="-120.8" font-family="Times New Roman,serif" font-size="14.00"> (0)</text>
</g>
<!-- node7 -->
<g id="node8" class="node"><title>node7</title>
<ellipse fill="none" stroke="black" cx="390.973" cy="-140" rx="42.4939" ry="18"/>
<text text-anchor="middle" x="390.973" y="-136.3" font-family="Times New Roman,serif" font-size="14.00">(7) NEG</text>
</g>
<!-- node5&#45;&gt;node7 -->
<g id="edge5" class="edge"><title>node5&#45;&gt;node7</title>
<path fill="none" stroke="black" d="M226.488,-140C258.852,-140 303.722,-140 338.268,-140"/>
<polygon fill="black" stroke="black" points="338.633,-143.5 348.633,-140 338.633,-136.5 338.633,-143.5"/>
<text text-anchor="middle" x="287.181" y="-143.8" font-family="Times New Roman,serif" font-size="14.00"> (0)</text>
</g>
<!-- node5&#45;&gt;node11 -->
<g id="edge12" class="edge"><title>node5&#45;&gt;node11</title>
<path fill="none" stroke="black" d="M219.976,-149.506C262.669,-160.912 328.728,-178.573 330.077,-179 336.605,-181.068 343.473,-183.42 350.135,-185.798"/>
<polygon fill="black" stroke="black" points="349.092,-189.143 359.686,-189.271 351.484,-182.564 349.092,-189.143"/>
<text text-anchor="middle" x="287.181" y="-182.8" font-family="Times New Roman,serif" font-size="14.00"> (0)</text>
</g>
<!-- node16 -->
<g id="node17" class="node"><title>node16</title>
<ellipse fill="none" stroke="black" cx="1252.63" cy="-18" rx="42.7926" ry="18"/>
<text text-anchor="middle" x="1252.63" y="-14.3" font-family="Times New Roman,serif" font-size="14.00">Output 0</text>
</g>
<!-- node6&#45;&gt;node16 -->
<g id="edge22" class="edge"><title>node6&#45;&gt;node16</title>
<path fill="none" stroke="black" d="M433.899,-18C461.214,-18 497.629,-18 529.816,-18 529.816,-18 529.816,-18 1126.28,-18 1150.34,-18 1177,-18 1199.52,-18"/>
<polygon fill="black" stroke="black" points="1199.56,-21.5001 1209.56,-18 1199.56,-14.5001 1199.56,-21.5001"/>
</g>
<!-- node7&#45;&gt;node10 -->
<g id="edge10" class="edge"><title>node7&#45;&gt;node10</title>
<path fill="none" stroke="black" d="M433.331,-140C447.764,-140 464.127,-140 479.225,-140"/>
<polygon fill="black" stroke="black" points="479.437,-143.5 489.437,-140 479.436,-136.5 479.437,-143.5"/>
<text text-anchor="middle" x="461.87" y="-143.8" font-family="Times New Roman,serif" font-size="14.00"> (0)</text>
</g>
<!-- node13 -->
<g id="node14" class="node"><title>node13</title>
<ellipse fill="none" stroke="black" cx="824.8" cy="-257" rx="47.3916" ry="18"/>
<text text-anchor="middle" x="824.8" y="-253.3" font-family="Times New Roman,serif" font-size="14.00">(13) XOR</text>
</g>
<!-- node8&#45;&gt;node13 -->
<g id="edge17" class="edge"><title>node8&#45;&gt;node13</title>
<path fill="none" stroke="black" d="M324.995,-284.198C359.793,-276.655 413.573,-267 460.87,-267 460.87,-267 460.87,-267 675.558,-267 706.458,-267 740.898,-264.81 768.8,-262.48"/>
<polygon fill="black" stroke="black" points="769.104,-265.967 778.765,-261.619 768.501,-258.993 769.104,-265.967"/>
<text text-anchor="middle" x="530.816" y="-270.8" font-family="Times New Roman,serif" font-size="14.00"> (1)</text>
</g>
<!-- node14 -->
<g id="node15" class="node"><title>node14</title>
<ellipse fill="none" stroke="black" cx="975.042" cy="-311" rx="46.5926" ry="18"/>
<text text-anchor="middle" x="975.042" y="-307.3" font-family="Times New Roman,serif" font-size="14.00">(14) AND</text>
</g>
<!-- node8&#45;&gt;node14 -->
<g id="edge19" class="edge"><title>node8&#45;&gt;node14</title>
<path fill="none" stroke="black" d="M327.497,-299.448C362.419,-304.612 414.901,-311 460.87,-311 460.87,-311 460.87,-311 825.8,-311 856.152,-311 889.999,-311 917.68,-311"/>
<polygon fill="black" stroke="black" points="917.967,-314.5 927.967,-311 917.967,-307.5 917.967,-314.5"/>
<text text-anchor="middle" x="599.762" y="-314.8" font-family="Times New Roman,serif" font-size="14.00"> (1)</text>
</g>
<!-- node15 -->
<g id="node16" class="node"><title>node15</title>
<ellipse fill="none" stroke="black" cx="1125.28" cy="-345" rx="47.3916" ry="18"/>
<text text-anchor="middle" x="1125.28" y="-341.3" font-family="Times New Roman,serif" font-size="14.00">(15) XOR</text>
</g>
<!-- node9&#45;&gt;node15 -->
<g id="edge20" class="edge"><title>node9&#45;&gt;node15</title>
<path fill="none" stroke="black" d="M219.663,-369.069C260.603,-366.997 330.155,-364 389.973,-364 389.973,-364 389.973,-364 976.042,-364 1008.39,-364 1044.4,-359.493 1072.82,-354.869"/>
<polygon fill="black" stroke="black" points="1073.65,-358.279 1082.93,-353.168 1072.49,-351.376 1073.65,-358.279"/>
<text text-anchor="middle" x="674.558" y="-367.8" font-family="Times New Roman,serif" font-size="14.00"> (0)</text>
</g>
<!-- node12 -->
<g id="node13" class="node"><title>node12</title>
<ellipse fill="none" stroke="black" cx="674.558" cy="-201" rx="46.5926" ry="18"/>
<text text-anchor="middle" x="674.558" y="-197.3" font-family="Times New Roman,serif" font-size="14.00">(12) AND</text>
</g>
<!-- node10&#45;&gt;node12 -->
<g id="edge14" class="edge"><title>node10&#45;&gt;node12</title>
<path fill="none" stroke="black" d="M561.906,-152.05C576.422,-157.94 594.053,-165.207 609.762,-172 617.789,-175.47 626.337,-179.278 634.481,-182.96"/>
<polygon fill="black" stroke="black" points="633.249,-186.245 643.801,-187.197 636.146,-179.872 633.249,-186.245"/>
<text text-anchor="middle" x="599.762" y="-175.8" font-family="Times New Roman,serif" font-size="14.00"> (0)</text>
</g>
<!-- node11&#45;&gt;node12 -->
<g id="edge15" class="edge"><title>node11&#45;&gt;node12</title>
<path fill="none" stroke="black" d="M432.019,-201C480.518,-201 562.51,-201 617.33,-201"/>
<polygon fill="black" stroke="black" points="617.575,-204.5 627.575,-201 617.575,-197.5 617.575,-204.5"/>
<text text-anchor="middle" x="530.816" y="-204.8" font-family="Times New Roman,serif" font-size="14.00"> (1)</text>
</g>
<!-- node12&#45;&gt;node13 -->
<g id="edge16" class="edge"><title>node12&#45;&gt;node13</title>
<path fill="none" stroke="black" d="M708.458,-213.428C729.804,-221.492 757.838,-232.082 780.923,-240.803"/>
<polygon fill="black" stroke="black" points="779.888,-244.153 790.48,-244.413 782.362,-237.605 779.888,-244.153"/>
<text text-anchor="middle" x="749.354" y="-235.8" font-family="Times New Roman,serif" font-size="14.00"> (0)</text>
</g>
<!-- node13&#45;&gt;node14 -->
<g id="edge18" class="edge"><title>node13&#45;&gt;node14</title>
<path fill="none" stroke="black" d="M864.425,-267.214C878.94,-271.37 895.492,-276.493 910.246,-282 918.776,-285.184 927.77,-288.984 936.229,-292.769"/>
<polygon fill="black" stroke="black" points="934.947,-296.032 945.498,-297.002 937.855,-289.664 934.947,-296.032"/>
<text text-anchor="middle" x="900.246" y="-285.8" font-family="Times New Roman,serif" font-size="14.00"> (0)</text>
</g>
<!-- node17 -->
<g id="node18" class="node"><title>node17</title>
<ellipse fill="none" stroke="black" cx="1252.63" cy="-248" rx="42.7926" ry="18"/>
<text text-anchor="middle" x="1252.63" y="-244.3" font-family="Times New Roman,serif" font-size="14.00">Output 1</text>
</g>
<!-- node13&#45;&gt;node17 -->
<g id="edge23" class="edge"><title>node13&#45;&gt;node17</title>
<path fill="none" stroke="black" d="M872.181,-256.02C952.261,-254.327 1115.9,-250.869 1199.68,-249.098"/>
<polygon fill="black" stroke="black" points="1199.81,-252.596 1209.74,-248.885 1199.66,-245.598 1199.81,-252.596"/>
</g>
<!-- node14&#45;&gt;node15 -->
<g id="edge21" class="edge"><title>node14&#45;&gt;node15</title>
<path fill="none" stroke="black" d="M1015.77,-320.111C1033.72,-324.23 1055.14,-329.142 1074.19,-333.51"/>
<polygon fill="black" stroke="black" points="1073.66,-336.98 1084.19,-335.804 1075.23,-330.157 1073.66,-336.98"/>
<text text-anchor="middle" x="1049.84" y="-333.8" font-family="Times New Roman,serif" font-size="14.00"> (1)</text>
</g>
<!-- node18 -->
<g id="node19" class="node"><title>node18</title>
<ellipse fill="none" stroke="black" cx="1252.63" cy="-345" rx="42.7926" ry="18"/>
<text text-anchor="middle" x="1252.63" y="-341.3" font-family="Times New Roman,serif" font-size="14.00">Output 2</text>
</g>
<!-- node15&#45;&gt;node18 -->
<g id="edge24" class="edge"><title>node15&#45;&gt;node18</title>
<path fill="none" stroke="black" d="M1172.96,-345C1181.56,-345 1190.6,-345 1199.35,-345"/>
<polygon fill="black" stroke="black" points="1199.46,-348.5 1209.46,-345 1199.46,-341.5 1199.46,-348.5"/>
</g>
</g>
</svg>
