<?xml version="1.0" encoding="UTF-8" standalone="no"?>
<!DOCTYPE svg PUBLIC "-//W3C//DTD SVG 1.1//EN"
 "http://www.w3.org/Graphics/SVG/1.1/DTD/svg11.dtd">
<!-- Generated by graphviz version 2.38.0 (20140413.2041)
 -->
<!-- Title: NeuralNetwork Pages: 1 -->
<svg width="288pt" height="127pt"
 viewBox="0.00 0.00 288.00 126.69" xmlns="http://www.w3.org/2000/svg" xmlns:xlink="http://www.w3.org/1999/xlink">
<g id="graph0" class="graph" transform="scale(0.297385 0.297385) rotate(0) translate(4 422)">
<title>NeuralNetwork</title>
<polygon fill="white" stroke="none" points="-4,4 -4,-422 964.443,-422 964.443,4 -4,4"/>
<!-- node0 -->
<g id="node1" class="node"><title>node0</title>
<ellipse fill="none" stroke="black" cx="42.2463" cy="-216" rx="42.4939" ry="18"/>
<text text-anchor="middle" x="42.2463" y="-212.3" font-family="Times New Roman,serif" font-size="14.00">(0) Input</text>
</g>
<!-- node5 -->
<g id="node6" class="node"><title>node5</title>
<ellipse fill="none" stroke="black" cx="187.288" cy="-297" rx="42.7926" ry="18"/>
<text text-anchor="middle" x="187.288" y="-293.3" font-family="Times New Roman,serif" font-size="14.00">(5) XOR</text>
</g>
<!-- node0&#45;&gt;node5 -->
<g id="edge1" class="edge"><title>node0&#45;&gt;node5</title>
<path fill="none" stroke="black" d="M74.0791,-227.855C89.0537,-234.051 107.094,-242.177 122.493,-251 134.739,-258.017 147.497,-266.867 158.357,-274.926"/>
<polygon fill="black" stroke="black" points="156.525,-277.929 166.613,-281.169 160.748,-272.346 156.525,-277.929"/>
<text text-anchor="middle" x="112.493" y="-254.8" font-family="Times New Roman,serif" font-size="14.00"> (0)</text>
</g>
<!-- node7 -->
<g id="node8" class="node"><title>node7</title>
<ellipse fill="none" stroke="black" cx="187.288" cy="-234" rx="42.7926" ry="18"/>
<text text-anchor="middle" x="187.288" y="-230.3" font-family="Times New Roman,serif" font-size="14.00">(7) XOR</text>
</g>
<!-- node0&#45;&gt;node7 -->
<g id="edge6" class="edge"><title>node0&#45;&gt;node7</title>
<path fill="none" stroke="black" d="M84.5207,-214.59C96.7879,-214.691 110.225,-215.315 122.493,-217 128.976,-217.891 135.74,-219.23 142.338,-220.773"/>
<polygon fill="black" stroke="black" points="141.953,-224.285 152.505,-223.33 143.661,-217.496 141.953,-224.285"/>
<text text-anchor="middle" x="112.493" y="-220.8" font-family="Times New Roman,serif" font-size="14.00"> (1)</text>
</g>
<!-- node8 -->
<g id="node9" class="node"><title>node8</title>
<ellipse fill="none" stroke="black" cx="337.53" cy="-120" rx="42.4939" ry="18"/>
<text text-anchor="middle" x="337.53" y="-116.3" font-family="Times New Roman,serif" font-size="14.00">(8) AND</text>
</g>
<!-- node0&#45;&gt;node8 -->
<g id="edge8" class="edge"><title>node0&#45;&gt;node8</title>
<path fill="none" stroke="black" d="M76.3195,-205.174C129.708,-187.699 234.845,-153.284 293.824,-133.979"/>
<polygon fill="black" stroke="black" points="295.163,-137.224 303.578,-130.786 292.985,-130.571 295.163,-137.224"/>
<text text-anchor="middle" x="187.288" y="-186.8" font-family="Times New Roman,serif" font-size="14.00"> (1)</text>
</g>
<!-- node1 -->
<g id="node2" class="node"><title>node1</title>
<ellipse fill="none" stroke="black" cx="42.2463" cy="-101" rx="42.4939" ry="18"/>
<text text-anchor="middle" x="42.2463" y="-97.3" font-family="Times New Roman,serif" font-size="14.00">(1) Input</text>
</g>
<!-- node6 -->
<g id="node7" class="node"><title>node6</title>
<ellipse fill="none" stroke="black" cx="187.288" cy="-120" rx="42.7926" ry="18"/>
<text text-anchor="middle" x="187.288" y="-116.3" font-family="Times New Roman,serif" font-size="14.00">(6) XOR</text>
</g>
<!-- node1&#45;&gt;node6 -->
<g id="edge3" class="edge"><title>node1&#45;&gt;node6</title>
<path fill="none" stroke="black" d="M82.7118,-106.242C99.1641,-108.427 118.47,-110.992 135.927,-113.311"/>
<polygon fill="black" stroke="black" points="135.583,-116.796 145.957,-114.643 136.505,-109.857 135.583,-116.796"/>
<text text-anchor="middle" x="112.493" y="-114.8" font-family="Times New Roman,serif" font-size="14.00"> (0)</text>
</g>
<!-- node10 -->
<g id="node11" class="node"><title>node10</title>
<ellipse fill="none" stroke="black" cx="187.288" cy="-18" rx="46.5926" ry="18"/>
<text text-anchor="middle" x="187.288" y="-14.3" font-family="Times New Roman,serif" font-size="14.00">(10) AND</text>
</g>
<!-- node1&#45;&gt;node10 -->
<g id="edge11" class="edge"><title>node1&#45;&gt;node10</title>
<path fill="none" stroke="black" d="M74.5398,-89.1239C89.4567,-82.9787 107.314,-74.9029 122.493,-66 135.068,-58.6237 148.08,-49.2052 159.047,-40.6682"/>
<polygon fill="black" stroke="black" points="161.337,-43.3189 166.993,-34.3601 156.985,-37.8363 161.337,-43.3189"/>
<text text-anchor="middle" x="112.493" y="-80.8" font-family="Times New Roman,serif" font-size="14.00"> (0)</text>
</g>
<!-- node2 -->
<g id="node3" class="node"><title>node2</title>
<ellipse fill="none" stroke="black" cx="42.2463" cy="-306" rx="42.4939" ry="18"/>
<text text-anchor="middle" x="42.2463" y="-302.3" font-family="Times New Roman,serif" font-size="14.00">(2) Input</text>
</g>
<!-- node2&#45;&gt;node7 -->
<g id="edge5" class="edge"><title>node2&#45;&gt;node7</title>
<path fill="none" stroke="black" d="M72.5168,-293.434C87.5959,-286.778 106.191,-278.282 122.493,-270 132.459,-264.936 143.104,-259.105 152.785,-253.631"/>
<polygon fill="black" stroke="black" points="154.771,-256.527 161.718,-248.528 151.299,-250.449 154.771,-256.527"/>
<text text-anchor="middle" x="112.493" y="-282.8" font-family="Times New Roman,serif" font-size="14.00"> (0)</text>
</g>
<!-- node14 -->
<g id="node15" class="node"><title>node14</title>
<ellipse fill="none" stroke="black" cx="337.53" cy="-357" rx="47.3916" ry="18"/>
<text text-anchor="middle" x="337.53" y="-353.3" font-family="Times New Roman,serif" font-size="14.00">(14) XOR</text>
</g>
<!-- node2&#45;&gt;node14 -->
<g id="edge19" class="edge"><title>node2&#45;&gt;node14</title>
<path fill="none" stroke="black" d="M61.5615,-322.248C72.6038,-330.997 87.4154,-340.997 102.493,-346 161.299,-365.514 232.983,-365.701 281.4,-362.651"/>
<polygon fill="black" stroke="black" points="281.936,-366.122 291.668,-361.934 281.448,-359.139 281.936,-366.122"/>
<text text-anchor="middle" x="187.288" y="-367.8" font-family="Times New Roman,serif" font-size="14.00"> (0)</text>
</g>
<!-- node3 -->
<g id="node4" class="node"><title>node3</title>
<ellipse fill="none" stroke="black" cx="42.2463" cy="-36" rx="42.4939" ry="18"/>
<text text-anchor="middle" x="42.2463" y="-32.3" font-family="Times New Roman,serif" font-size="14.00">(3) Input</text>
</g>
<!-- node3&#45;&gt;node6 -->
<g id="edge4" class="edge"><title>node3&#45;&gt;node6</title>
<path fill="none" stroke="black" d="M84.8928,-36.233C97.5608,-37.7304 111.127,-40.8608 122.493,-47 142.485,-57.7988 159.132,-77.5089 170.403,-93.7287"/>
<polygon fill="black" stroke="black" points="167.65,-95.9092 176.099,-102.302 173.481,-92.0356 167.65,-95.9092"/>
<text text-anchor="middle" x="112.493" y="-50.8" font-family="Times New Roman,serif" font-size="14.00"> (1)</text>
</g>
<!-- node3&#45;&gt;node10 -->
<g id="edge12" class="edge"><title>node3&#45;&gt;node10</title>
<path fill="none" stroke="black" d="M71.2463,-22.6841C80.919,-18.7496 91.9727,-14.9703 102.493,-13 112.377,-11.1488 123.02,-10.6587 133.295,-10.9305"/>
<polygon fill="black" stroke="black" points="133.245,-14.4322 143.406,-11.4341 133.593,-7.44091 133.245,-14.4322"/>
<text text-anchor="middle" x="112.493" y="-16.8" font-family="Times New Roman,serif" font-size="14.00"> (1)</text>
</g>
<!-- node4 -->
<g id="node5" class="node"><title>node4</title>
<ellipse fill="none" stroke="black" cx="42.2463" cy="-388" rx="42.4939" ry="18"/>
<text text-anchor="middle" x="42.2463" y="-384.3" font-family="Times New Roman,serif" font-size="14.00">(4) Input</text>
</g>
<!-- node4&#45;&gt;node5 -->
<g id="edge2" class="edge"><title>node4&#45;&gt;node5</title>
<path fill="none" stroke="black" d="M66.5468,-373.177C90.3026,-358.064 127.344,-334.499 153.937,-317.581"/>
<polygon fill="black" stroke="black" points="155.962,-320.441 162.521,-312.12 152.205,-314.535 155.962,-320.441"/>
<text text-anchor="middle" x="112.493" y="-350.8" font-family="Times New Roman,serif" font-size="14.00"> (1)</text>
</g>
<!-- node17 -->
<g id="node18" class="node"><title>node17</title>
<ellipse fill="none" stroke="black" cx="790.205" cy="-298" rx="47.3916" ry="18"/>
<text text-anchor="middle" x="790.205" y="-294.3" font-family="Times New Roman,serif" font-size="14.00">(17) XOR</text>
</g>
<!-- node4&#45;&gt;node17 -->
<g id="edge26" class="edge"><title>node4&#45;&gt;node17</title>
<path fill="none" stroke="black" d="M81.9863,-394.274C110.698,-398.385 150.831,-403 186.288,-403 186.288,-403 186.288,-403 413.976,-403 540.992,-403 683.545,-346.514 750.514,-316.402"/>
<polygon fill="black" stroke="black" points="752.182,-319.488 759.835,-312.161 749.283,-313.117 752.182,-319.488"/>
<text text-anchor="middle" x="412.976" y="-406.8" font-family="Times New Roman,serif" font-size="14.00"> (1)</text>
</g>
<!-- node9 -->
<g id="node10" class="node"><title>node9</title>
<ellipse fill="none" stroke="black" cx="337.53" cy="-236" rx="42.4939" ry="18"/>
<text text-anchor="middle" x="337.53" y="-232.3" font-family="Times New Roman,serif" font-size="14.00">(9) AND</text>
</g>
<!-- node5&#45;&gt;node9 -->
<g id="edge9" class="edge"><title>node5&#45;&gt;node9</title>
<path fill="none" stroke="black" d="M216.382,-283.758C227.439,-278.67 240.291,-272.909 252.084,-268 265.944,-262.231 281.251,-256.3 294.983,-251.136"/>
<polygon fill="black" stroke="black" points="296.515,-254.3 304.66,-247.525 294.067,-247.742 296.515,-254.3"/>
<text text-anchor="middle" x="262.084" y="-271.8" font-family="Times New Roman,serif" font-size="14.00"> (0)</text>
</g>
<!-- node12 -->
<g id="node13" class="node"><title>node12</title>
<ellipse fill="none" stroke="black" cx="488.422" cy="-271" rx="47.3916" ry="18"/>
<text text-anchor="middle" x="488.422" y="-267.3" font-family="Times New Roman,serif" font-size="14.00">(12) XOR</text>
</g>
<!-- node5&#45;&gt;node12 -->
<g id="edge16" class="edge"><title>node5&#45;&gt;node12</title>
<path fill="none" stroke="black" d="M229.567,-293.412C282.108,-288.845 373.074,-280.939 431.722,-275.841"/>
<polygon fill="black" stroke="black" points="432.261,-279.308 441.921,-274.955 431.655,-272.334 432.261,-279.308"/>
<text text-anchor="middle" x="337.53" y="-290.8" font-family="Times New Roman,serif" font-size="14.00"> (1)</text>
</g>
<!-- node5&#45;&gt;node14 -->
<g id="edge20" class="edge"><title>node5&#45;&gt;node14</title>
<path fill="none" stroke="black" d="M218.645,-309.287C240.705,-318.215 270.823,-330.406 295.095,-340.229"/>
<polygon fill="black" stroke="black" points="293.836,-343.496 304.419,-344.003 296.462,-337.007 293.836,-343.496"/>
<text text-anchor="middle" x="262.084" y="-333.8" font-family="Times New Roman,serif" font-size="14.00"> (1)</text>
</g>
<!-- node6&#45;&gt;node8 -->
<g id="edge7" class="edge"><title>node6&#45;&gt;node8</title>
<path fill="none" stroke="black" d="M230.372,-120C247.331,-120 267.06,-120 284.876,-120"/>
<polygon fill="black" stroke="black" points="285.11,-123.5 295.11,-120 285.11,-116.5 285.11,-123.5"/>
<text text-anchor="middle" x="262.084" y="-123.8" font-family="Times New Roman,serif" font-size="14.00"> (0)</text>
</g>
<!-- node11 -->
<g id="node12" class="node"><title>node11</title>
<ellipse fill="none" stroke="black" cx="488.422" cy="-96" rx="46.5926" ry="18"/>
<text text-anchor="middle" x="488.422" y="-92.3" font-family="Times New Roman,serif" font-size="14.00">(11) AND</text>
</g>
<!-- node6&#45;&gt;node11 -->
<g id="edge13" class="edge"><title>node6&#45;&gt;node11</title>
<path fill="none" stroke="black" d="M214.605,-105.781C234.647,-95.7972 263.267,-83.3149 290.084,-78 340.481,-68.0117 399.237,-75.8031 439.447,-84.029"/>
<polygon fill="black" stroke="black" points="438.744,-87.4577 449.254,-86.1191 440.203,-80.6115 438.744,-87.4577"/>
<text text-anchor="middle" x="337.53" y="-81.8" font-family="Times New Roman,serif" font-size="14.00"> (0)</text>
</g>
<!-- node15 -->
<g id="node16" class="node"><title>node15</title>
<ellipse fill="none" stroke="black" cx="639.313" cy="-271" rx="47.3916" ry="18"/>
<text text-anchor="middle" x="639.313" y="-267.3" font-family="Times New Roman,serif" font-size="14.00">(15) XOR</text>
</g>
<!-- node6&#45;&gt;node15 -->
<g id="edge21" class="edge"><title>node6&#45;&gt;node15</title>
<path fill="none" stroke="black" d="M222.247,-130.676C231.849,-133.541 242.339,-136.527 252.084,-139 268.813,-143.245 273.088,-143.999 290.084,-147 348.839,-157.373 365.939,-148.491 422.976,-166 490.623,-186.766 563.464,-226.306 604.717,-250.494"/>
<polygon fill="black" stroke="black" points="603.131,-253.623 613.519,-255.704 606.697,-247.599 603.131,-253.623"/>
<text text-anchor="middle" x="412.976" y="-169.8" font-family="Times New Roman,serif" font-size="14.00"> (0)</text>
</g>
<!-- node7&#45;&gt;node9 -->
<g id="edge10" class="edge"><title>node7&#45;&gt;node9</title>
<path fill="none" stroke="black" d="M229.794,-231.02C237.213,-230.595 244.874,-230.226 252.084,-230 260.969,-229.722 263.205,-229.588 272.084,-230 276.627,-230.211 281.344,-230.505 286.066,-230.851"/>
<polygon fill="black" stroke="black" points="286.1,-234.365 296.348,-231.678 286.661,-227.388 286.1,-234.365"/>
<text text-anchor="middle" x="262.084" y="-233.8" font-family="Times New Roman,serif" font-size="14.00"> (1)</text>
</g>
<!-- node13 -->
<g id="node14" class="node"><title>node13</title>
<ellipse fill="none" stroke="black" cx="488.422" cy="-42" rx="40.8928" ry="18"/>
<text text-anchor="middle" x="488.422" y="-38.3" font-family="Times New Roman,serif" font-size="14.00">(13) OR</text>
</g>
<!-- node8&#45;&gt;node13 -->
<g id="edge18" class="edge"><title>node8&#45;&gt;node13</title>
<path fill="none" stroke="black" d="M364.806,-106.235C389.151,-93.4809 425.541,-74.4173 452.358,-60.369"/>
<polygon fill="black" stroke="black" points="454.174,-63.3686 461.408,-55.6277 450.926,-57.1679 454.174,-63.3686"/>
<text text-anchor="middle" x="412.976" y="-88.8" font-family="Times New Roman,serif" font-size="14.00"> (1)</text>
</g>
<!-- node9&#45;&gt;node11 -->
<g id="edge14" class="edge"><title>node9&#45;&gt;node11</title>
<path fill="none" stroke="black" d="M366.67,-222.674C384.073,-213.585 406.211,-200.421 422.976,-185 442.884,-166.687 460.51,-141.355 472.274,-122.399"/>
<polygon fill="black" stroke="black" points="475.378,-124.031 477.563,-113.664 469.39,-120.406 475.378,-124.031"/>
<text text-anchor="middle" x="412.976" y="-203.8" font-family="Times New Roman,serif" font-size="14.00"> (1)</text>
</g>
<!-- node9&#45;&gt;node12 -->
<g id="edge15" class="edge"><title>node9&#45;&gt;node12</title>
<path fill="none" stroke="black" d="M374.953,-244.562C393.893,-249.014 417.322,-254.522 437.885,-259.355"/>
<polygon fill="black" stroke="black" points="437.181,-262.785 447.717,-261.667 438.783,-255.971 437.181,-262.785"/>
<text text-anchor="middle" x="412.976" y="-258.8" font-family="Times New Roman,serif" font-size="14.00"> (0)</text>
</g>
<!-- node10&#45;&gt;node13 -->
<g id="edge17" class="edge"><title>node10&#45;&gt;node13</title>
<path fill="none" stroke="black" d="M233.395,-21.619C288.249,-26.02 380.543,-33.4249 437.49,-37.9939"/>
<polygon fill="black" stroke="black" points="437.447,-41.5016 447.695,-38.8126 438.007,-34.524 437.447,-41.5016"/>
<text text-anchor="middle" x="337.53" y="-37.8" font-family="Times New Roman,serif" font-size="14.00"> (0)</text>
</g>
<!-- node16 -->
<g id="node17" class="node"><title>node16</title>
<ellipse fill="none" stroke="black" cx="639.313" cy="-67" rx="47.3916" ry="18"/>
<text text-anchor="middle" x="639.313" y="-63.3" font-family="Times New Roman,serif" font-size="14.00">(16) XOR</text>
</g>
<!-- node11&#45;&gt;node16 -->
<g id="edge23" class="edge"><title>node11&#45;&gt;node16</title>
<path fill="none" stroke="black" d="M530.501,-87.9989C547.931,-84.6039 568.439,-80.6096 586.863,-77.0212"/>
<polygon fill="black" stroke="black" points="587.705,-80.423 596.851,-75.0757 586.366,-73.5521 587.705,-80.423"/>
<text text-anchor="middle" x="563.867" y="-86.8" font-family="Times New Roman,serif" font-size="14.00"> (0)</text>
</g>
<!-- node12&#45;&gt;node15 -->
<g id="edge22" class="edge"><title>node12&#45;&gt;node15</title>
<path fill="none" stroke="black" d="M536.123,-271C550.536,-271 566.568,-271 581.58,-271"/>
<polygon fill="black" stroke="black" points="581.777,-274.5 591.777,-271 581.777,-267.5 581.777,-274.5"/>
<text text-anchor="middle" x="563.867" y="-274.8" font-family="Times New Roman,serif" font-size="14.00"> (1)</text>
</g>
<!-- node13&#45;&gt;node16 -->
<g id="edge24" class="edge"><title>node13&#45;&gt;node16</title>
<path fill="none" stroke="black" d="M529.103,-45.0972C543.287,-46.5024 559.348,-48.4364 573.867,-51 579.26,-51.9521 584.87,-53.1018 590.431,-54.3428"/>
<polygon fill="black" stroke="black" points="589.798,-57.7889 600.331,-56.6526 591.388,-50.972 589.798,-57.7889"/>
<text text-anchor="middle" x="563.867" y="-54.8" font-family="Times New Roman,serif" font-size="14.00"> (1)</text>
</g>
<!-- node18 -->
<g id="node19" class="node"><title>node18</title>
<ellipse fill="none" stroke="black" cx="917.547" cy="-365" rx="42.7926" ry="18"/>
<text text-anchor="middle" x="917.547" y="-361.3" font-family="Times New Roman,serif" font-size="14.00">Output 0</text>
</g>
<!-- node14&#45;&gt;node18 -->
<g id="edge27" class="edge"><title>node14&#45;&gt;node18</title>
<path fill="none" stroke="black" d="M384.111,-360.719C413.565,-362.808 452.734,-365 487.422,-365 487.422,-365 487.422,-365 791.205,-365 815.265,-365 841.923,-365 864.447,-365"/>
<polygon fill="black" stroke="black" points="864.48,-368.5 874.48,-365 864.48,-361.5 864.48,-368.5"/>
</g>
<!-- node15&#45;&gt;node17 -->
<g id="edge25" class="edge"><title>node15&#45;&gt;node17</title>
<path fill="none" stroke="black" d="M682.581,-278.665C699.47,-281.728 719.096,-285.286 736.871,-288.51"/>
<polygon fill="black" stroke="black" points="736.625,-292.022 747.089,-290.363 737.874,-285.134 736.625,-292.022"/>
<text text-anchor="middle" x="714.759" y="-289.8" font-family="Times New Roman,serif" font-size="14.00"> (0)</text>
</g>
<!-- node20 -->
<g id="node21" class="node"><title>node20</title>
<ellipse fill="none" stroke="black" cx="917.547" cy="-67" rx="42.7926" ry="18"/>
<text text-anchor="middle" x="917.547" y="-63.3" font-family="Times New Roman,serif" font-size="14.00">Output 2</text>
</g>
<!-- node16&#45;&gt;node20 -->
<g id="edge29" class="edge"><title>node16&#45;&gt;node20</title>
<path fill="none" stroke="black" d="M686.86,-67C735.912,-67 813.01,-67 864.16,-67"/>
<polygon fill="black" stroke="black" points="864.344,-70.5001 874.344,-67 864.344,-63.5001 864.344,-70.5001"/>
</g>
<!-- node19 -->
<g id="node20" class="node"><title>node19</title>
<ellipse fill="none" stroke="black" cx="917.547" cy="-298" rx="42.7926" ry="18"/>
<text text-anchor="middle" x="917.547" y="-294.3" font-family="Times New Roman,serif" font-size="14.00">Output 1</text>
</g>
<!-- node17&#45;&gt;node19 -->
<g id="edge28" class="edge"><title>node17&#45;&gt;node19</title>
<path fill="none" stroke="black" d="M837.877,-298C846.482,-298 855.518,-298 864.275,-298"/>
<polygon fill="black" stroke="black" points="864.385,-301.5 874.385,-298 864.385,-294.5 864.385,-301.5"/>
</g>
</g>
</svg>
