<?xml version="1.0" encoding="UTF-8" standalone="no"?>
<!DOCTYPE svg PUBLIC "-//W3C//DTD SVG 1.1//EN"
 "http://www.w3.org/Graphics/SVG/1.1/DTD/svg11.dtd">
<!-- Generated by graphviz version 2.38.0 (20140413.2041)
 -->
<!-- Title: NeuralNetwork Pages: 1 -->
<svg width="288pt" height="124pt"
 viewBox="0.00 0.00 288.00 124.47" xmlns="http://www.w3.org/2000/svg" xmlns:xlink="http://www.w3.org/1999/xlink">
<g id="graph0" class="graph" transform="scale(0.304329 0.304329) rotate(0) translate(4 405)">
<title>NeuralNetwork</title>
<polygon fill="white" stroke="none" points="-4,4 -4,-405 942.345,-405 942.345,4 -4,4"/>
<!-- node0 -->
<g id="node1" class="node"><title>node0</title>
<ellipse fill="none" stroke="black" cx="42.2463" cy="-72" rx="42.4939" ry="18"/>
<text text-anchor="middle" x="42.2463" y="-68.3" font-family="Times New Roman,serif" font-size="14.00">(0) Input</text>
</g>
<!-- node9 -->
<g id="node10" class="node"><title>node9</title>
<ellipse fill="none" stroke="black" cx="183.389" cy="-76" rx="42.7926" ry="18"/>
<text text-anchor="middle" x="183.389" y="-72.3" font-family="Times New Roman,serif" font-size="14.00">(9) XOR</text>
</g>
<!-- node0&#45;&gt;node9 -->
<g id="edge9" class="edge"><title>node0&#45;&gt;node9</title>
<path fill="none" stroke="black" d="M84.7945,-71.4789C96.9479,-71.4675 110.255,-71.5918 122.493,-72 125.183,-72.0897 127.94,-72.2021 130.723,-72.3315"/>
<polygon fill="black" stroke="black" points="130.671,-75.8336 140.841,-72.8656 131.04,-68.8433 130.671,-75.8336"/>
<text text-anchor="middle" x="112.493" y="-75.8" font-family="Times New Roman,serif" font-size="14.00"> (0)</text>
</g>
<!-- node1 -->
<g id="node2" class="node"><title>node1</title>
<ellipse fill="none" stroke="black" cx="42.2463" cy="-382" rx="42.4939" ry="18"/>
<text text-anchor="middle" x="42.2463" y="-378.3" font-family="Times New Roman,serif" font-size="14.00">(1) Input</text>
</g>
<!-- node5 -->
<g id="node6" class="node"><title>node5</title>
<ellipse fill="none" stroke="black" cx="183.389" cy="-326" rx="42.7926" ry="18"/>
<text text-anchor="middle" x="183.389" y="-322.3" font-family="Times New Roman,serif" font-size="14.00">(5) XOR</text>
</g>
<!-- node1&#45;&gt;node5 -->
<g id="edge2" class="edge"><title>node1&#45;&gt;node5</title>
<path fill="none" stroke="black" d="M73.4381,-369.849C93.6292,-361.723 120.419,-350.941 142.38,-342.102"/>
<polygon fill="black" stroke="black" points="143.805,-345.301 151.775,-338.321 141.192,-338.808 143.805,-345.301"/>
<text text-anchor="middle" x="112.493" y="-360.8" font-family="Times New Roman,serif" font-size="14.00"> (1)</text>
</g>
<!-- node6 -->
<g id="node7" class="node"><title>node6</title>
<ellipse fill="none" stroke="black" cx="329.731" cy="-383" rx="36.2938" ry="18"/>
<text text-anchor="middle" x="329.731" y="-379.3" font-family="Times New Roman,serif" font-size="14.00">(6) OR</text>
</g>
<!-- node1&#45;&gt;node6 -->
<g id="edge4" class="edge"><title>node1&#45;&gt;node6</title>
<path fill="none" stroke="black" d="M84.7581,-382.145C137.496,-382.33 228.215,-382.648 282.924,-382.84"/>
<polygon fill="black" stroke="black" points="283.021,-386.34 293.033,-382.875 283.045,-379.34 283.021,-386.34"/>
<text text-anchor="middle" x="183.389" y="-385.8" font-family="Times New Roman,serif" font-size="14.00"> (1)</text>
</g>
<!-- node2 -->
<g id="node3" class="node"><title>node2</title>
<ellipse fill="none" stroke="black" cx="42.2463" cy="-200" rx="42.4939" ry="18"/>
<text text-anchor="middle" x="42.2463" y="-196.3" font-family="Times New Roman,serif" font-size="14.00">(2) Input</text>
</g>
<!-- node7 -->
<g id="node8" class="node"><title>node7</title>
<ellipse fill="none" stroke="black" cx="329.731" cy="-212" rx="42.7926" ry="18"/>
<text text-anchor="middle" x="329.731" y="-208.3" font-family="Times New Roman,serif" font-size="14.00">(7) XOR</text>
</g>
<!-- node2&#45;&gt;node7 -->
<g id="edge5" class="edge"><title>node2&#45;&gt;node7</title>
<path fill="none" stroke="black" d="M84.4532,-201.732C135.08,-203.86 221.039,-207.473 276.318,-209.797"/>
<polygon fill="black" stroke="black" points="276.468,-213.306 286.606,-210.229 276.762,-206.312 276.468,-213.306"/>
<text text-anchor="middle" x="183.389" y="-210.8" font-family="Times New Roman,serif" font-size="14.00"> (0)</text>
</g>
<!-- node8 -->
<g id="node9" class="node"><title>node8</title>
<ellipse fill="none" stroke="black" cx="183.389" cy="-136" rx="42.7926" ry="18"/>
<text text-anchor="middle" x="183.389" y="-132.3" font-family="Times New Roman,serif" font-size="14.00">(8) XOR</text>
</g>
<!-- node2&#45;&gt;node8 -->
<g id="edge8" class="edge"><title>node2&#45;&gt;node8</title>
<path fill="none" stroke="black" d="M71.7396,-186.894C92.8433,-177.187 121.804,-163.867 144.803,-153.288"/>
<polygon fill="black" stroke="black" points="146.311,-156.447 153.933,-149.088 143.386,-150.087 146.311,-156.447"/>
<text text-anchor="middle" x="112.493" y="-174.8" font-family="Times New Roman,serif" font-size="14.00"> (1)</text>
</g>
<!-- node2&#45;&gt;node9 -->
<g id="edge10" class="edge"><title>node2&#45;&gt;node9</title>
<path fill="none" stroke="black" d="M60.4809,-183.539C83.9655,-161.166 124.882,-122.409 140.493,-109 144.707,-105.38 149.247,-101.644 153.729,-98.0457"/>
<polygon fill="black" stroke="black" points="155.984,-100.724 161.65,-91.7712 151.638,-95.2367 155.984,-100.724"/>
<text text-anchor="middle" x="112.493" y="-145.8" font-family="Times New Roman,serif" font-size="14.00"> (1)</text>
</g>
<!-- node12 -->
<g id="node13" class="node"><title>node12</title>
<ellipse fill="none" stroke="black" cx="480.622" cy="-258" rx="47.3916" ry="18"/>
<text text-anchor="middle" x="480.622" y="-254.3" font-family="Times New Roman,serif" font-size="14.00">(12) XOR</text>
</g>
<!-- node2&#45;&gt;node12 -->
<g id="edge16" class="edge"><title>node2&#45;&gt;node12</title>
<path fill="none" stroke="black" d="M76.6819,-210.457C95.2944,-215.893 118.984,-222.181 140.493,-226 239.077,-243.502 355.597,-251.85 423.207,-255.498"/>
<polygon fill="black" stroke="black" points="423.054,-258.994 433.224,-256.023 423.421,-252.004 423.054,-258.994"/>
<text text-anchor="middle" x="254.285" y="-245.8" font-family="Times New Roman,serif" font-size="14.00"> (1)</text>
</g>
<!-- node3 -->
<g id="node4" class="node"><title>node3</title>
<ellipse fill="none" stroke="black" cx="42.2463" cy="-321" rx="42.4939" ry="18"/>
<text text-anchor="middle" x="42.2463" y="-317.3" font-family="Times New Roman,serif" font-size="14.00">(3) Input</text>
</g>
<!-- node3&#45;&gt;node5 -->
<g id="edge1" class="edge"><title>node3&#45;&gt;node5</title>
<path fill="none" stroke="black" d="M84.7968,-321.102C96.9503,-321.246 110.257,-321.515 122.493,-322 125.182,-322.107 127.939,-322.233 130.721,-322.373"/>
<polygon fill="black" stroke="black" points="130.66,-325.875 140.839,-322.933 131.048,-318.885 130.66,-325.875"/>
<text text-anchor="middle" x="112.493" y="-325.8" font-family="Times New Roman,serif" font-size="14.00"> (0)</text>
</g>
<!-- node4 -->
<g id="node5" class="node"><title>node4</title>
<ellipse fill="none" stroke="black" cx="42.2463" cy="-18" rx="42.4939" ry="18"/>
<text text-anchor="middle" x="42.2463" y="-14.3" font-family="Times New Roman,serif" font-size="14.00">(4) Input</text>
</g>
<!-- node4&#45;&gt;node8 -->
<g id="edge7" class="edge"><title>node4&#45;&gt;node8</title>
<path fill="none" stroke="black" d="M69.5448,-31.8832C74.9783,-35.6128 80.3119,-40.0169 84.4925,-45 97.5453,-60.5586 89.2119,-71.6354 102.493,-87 113.665,-99.9259 129.114,-110.492 143.451,-118.459"/>
<polygon fill="black" stroke="black" points="142.178,-121.745 152.656,-123.318 145.446,-115.554 142.178,-121.745"/>
<text text-anchor="middle" x="112.493" y="-109.8" font-family="Times New Roman,serif" font-size="14.00"> (0)</text>
</g>
<!-- node13 -->
<g id="node14" class="node"><title>node13</title>
<ellipse fill="none" stroke="black" cx="329.731" cy="-41" rx="47.3916" ry="18"/>
<text text-anchor="middle" x="329.731" y="-37.3" font-family="Times New Roman,serif" font-size="14.00">(13) XOR</text>
</g>
<!-- node4&#45;&gt;node13 -->
<g id="edge18" class="edge"><title>node4&#45;&gt;node13</title>
<path fill="none" stroke="black" d="M83.846,-21.2709C133.409,-25.2639 217.472,-32.0365 273.048,-36.5139"/>
<polygon fill="black" stroke="black" points="272.83,-40.0076 283.079,-37.3221 273.392,-33.0303 272.83,-40.0076"/>
<text text-anchor="middle" x="183.389" y="-36.8" font-family="Times New Roman,serif" font-size="14.00"> (1)</text>
</g>
<!-- node5&#45;&gt;node6 -->
<g id="edge3" class="edge"><title>node5&#45;&gt;node6</title>
<path fill="none" stroke="black" d="M215.354,-338.228C237.632,-347.026 267.789,-358.934 291.4,-368.258"/>
<polygon fill="black" stroke="black" points="290.162,-371.533 300.749,-371.95 292.734,-365.022 290.162,-371.533"/>
<text text-anchor="middle" x="254.285" y="-359.8" font-family="Times New Roman,serif" font-size="14.00"> (0)</text>
</g>
<!-- node5&#45;&gt;node7 -->
<g id="edge6" class="edge"><title>node5&#45;&gt;node7</title>
<path fill="none" stroke="black" d="M209.34,-311.447C225.532,-301.601 246.793,-287.901 264.285,-274 278.842,-262.431 293.884,-248.117 305.77,-236.158"/>
<polygon fill="black" stroke="black" points="308.588,-238.284 313.089,-228.692 303.59,-233.383 308.588,-238.284"/>
<text text-anchor="middle" x="254.285" y="-291.8" font-family="Times New Roman,serif" font-size="14.00"> (1)</text>
</g>
<!-- node11 -->
<g id="node12" class="node"><title>node11</title>
<ellipse fill="none" stroke="black" cx="480.622" cy="-335" rx="47.3916" ry="18"/>
<text text-anchor="middle" x="480.622" y="-331.3" font-family="Times New Roman,serif" font-size="14.00">(11) XOR</text>
</g>
<!-- node5&#45;&gt;node11 -->
<g id="edge14" class="edge"><title>node5&#45;&gt;node11</title>
<path fill="none" stroke="black" d="M226.375,-327.28C277.887,-328.85 365.436,-331.519 422.899,-333.271"/>
<polygon fill="black" stroke="black" points="422.808,-336.77 432.91,-333.576 423.021,-329.773 422.808,-336.77"/>
<text text-anchor="middle" x="329.731" y="-334.8" font-family="Times New Roman,serif" font-size="14.00"> (1)</text>
</g>
<!-- node6&#45;&gt;node11 -->
<g id="edge13" class="edge"><title>node6&#45;&gt;node11</title>
<path fill="none" stroke="black" d="M359.488,-372.356C370.592,-368.346 383.431,-363.831 395.176,-360 407.1,-356.11 420.053,-352.147 432.152,-348.556"/>
<polygon fill="black" stroke="black" points="433.467,-351.817 442.072,-345.636 431.491,-345.102 433.467,-351.817"/>
<text text-anchor="middle" x="405.176" y="-363.8" font-family="Times New Roman,serif" font-size="14.00"> (0)</text>
</g>
<!-- node16 -->
<g id="node17" class="node"><title>node16</title>
<ellipse fill="none" stroke="black" cx="768.757" cy="-370" rx="46.5926" ry="18"/>
<text text-anchor="middle" x="768.757" y="-366.3" font-family="Times New Roman,serif" font-size="14.00">(16) AND</text>
</g>
<!-- node6&#45;&gt;node16 -->
<g id="edge23" class="edge"><title>node6&#45;&gt;node16</title>
<path fill="none" stroke="black" d="M366.24,-381.976C432.585,-380.057 579.878,-375.773 703.961,-372 706.621,-371.919 709.343,-371.836 712.093,-371.751"/>
<polygon fill="black" stroke="black" points="712.218,-375.249 722.105,-371.442 712.002,-368.252 712.218,-375.249"/>
<text text-anchor="middle" x="556.068" y="-379.8" font-family="Times New Roman,serif" font-size="14.00"> (0)</text>
</g>
<!-- node14 -->
<g id="node15" class="node"><title>node14</title>
<ellipse fill="none" stroke="black" cx="480.622" cy="-170" rx="47.3916" ry="18"/>
<text text-anchor="middle" x="480.622" y="-166.3" font-family="Times New Roman,serif" font-size="14.00">(14) XOR</text>
</g>
<!-- node7&#45;&gt;node14 -->
<g id="edge19" class="edge"><title>node7&#45;&gt;node14</title>
<path fill="none" stroke="black" d="M366.992,-202.943C381.954,-199.105 399.442,-194.488 415.176,-190 421.239,-188.271 427.6,-186.385 433.867,-184.484"/>
<polygon fill="black" stroke="black" points="435.045,-187.784 443.58,-181.506 432.993,-181.091 435.045,-187.784"/>
<text text-anchor="middle" x="405.176" y="-198.8" font-family="Times New Roman,serif" font-size="14.00"> (0)</text>
</g>
<!-- node10 -->
<g id="node11" class="node"><title>node10</title>
<ellipse fill="none" stroke="black" cx="329.731" cy="-136" rx="46.5926" ry="18"/>
<text text-anchor="middle" x="329.731" y="-132.3" font-family="Times New Roman,serif" font-size="14.00">(10) AND</text>
</g>
<!-- node8&#45;&gt;node10 -->
<g id="edge12" class="edge"><title>node8&#45;&gt;node10</title>
<path fill="none" stroke="black" d="M226.526,-136C240.86,-136 257.116,-136 272.38,-136"/>
<polygon fill="black" stroke="black" points="272.753,-139.5 282.753,-136 272.753,-132.5 272.753,-139.5"/>
<text text-anchor="middle" x="254.285" y="-139.8" font-family="Times New Roman,serif" font-size="14.00"> (1)</text>
</g>
<!-- node9&#45;&gt;node10 -->
<g id="edge11" class="edge"><title>node9&#45;&gt;node10</title>
<path fill="none" stroke="black" d="M214.648,-88.578C235.936,-97.4271 264.67,-109.371 287.974,-119.058"/>
<polygon fill="black" stroke="black" points="286.686,-122.313 297.264,-122.92 289.373,-115.85 286.686,-122.313"/>
<text text-anchor="middle" x="254.285" y="-111.8" font-family="Times New Roman,serif" font-size="14.00"> (0)</text>
</g>
<!-- node9&#45;&gt;node13 -->
<g id="edge17" class="edge"><title>node9&#45;&gt;node13</title>
<path fill="none" stroke="black" d="M219.801,-66.2909C227.836,-64.1576 236.342,-61.9537 244.285,-60 255.234,-57.307 267.019,-54.5605 278.209,-52.0231"/>
<polygon fill="black" stroke="black" points="279.289,-55.3677 288.278,-49.7592 277.753,-48.5382 279.289,-55.3677"/>
<text text-anchor="middle" x="254.285" y="-63.8" font-family="Times New Roman,serif" font-size="14.00"> (0)</text>
</g>
<!-- node10&#45;&gt;node12 -->
<g id="edge15" class="edge"><title>node10&#45;&gt;node12</title>
<path fill="none" stroke="black" d="M368.123,-146.317C383.772,-151.886 401.469,-159.936 415.176,-171 426.113,-179.827 424.917,-185.628 433.176,-197 441.756,-208.812 451.509,-221.7 459.856,-232.573"/>
<polygon fill="black" stroke="black" points="457.322,-235.019 466.199,-240.803 462.866,-230.746 457.322,-235.019"/>
<text text-anchor="middle" x="405.176" y="-174.8" font-family="Times New Roman,serif" font-size="14.00"> (0)</text>
</g>
<!-- node10&#45;&gt;node14 -->
<g id="edge20" class="edge"><title>node10&#45;&gt;node14</title>
<path fill="none" stroke="black" d="M375.919,-132.723C388.759,-132.815 402.652,-133.901 415.176,-137 425.995,-139.677 437.051,-144.458 446.881,-149.565"/>
<polygon fill="black" stroke="black" points="445.432,-152.762 455.883,-154.502 448.798,-146.624 445.432,-152.762"/>
<text text-anchor="middle" x="405.176" y="-140.8" font-family="Times New Roman,serif" font-size="14.00"> (1)</text>
</g>
<!-- node15 -->
<g id="node16" class="node"><title>node15</title>
<ellipse fill="none" stroke="black" cx="625.014" cy="-335" rx="40.8928" ry="18"/>
<text text-anchor="middle" x="625.014" y="-331.3" font-family="Times New Roman,serif" font-size="14.00">(15) OR</text>
</g>
<!-- node11&#45;&gt;node15 -->
<g id="edge21" class="edge"><title>node11&#45;&gt;node15</title>
<path fill="none" stroke="black" d="M528.247,-335C542.877,-335 559.084,-335 573.943,-335"/>
<polygon fill="black" stroke="black" points="573.977,-338.5 583.977,-335 573.977,-331.5 573.977,-338.5"/>
<text text-anchor="middle" x="556.068" y="-338.8" font-family="Times New Roman,serif" font-size="14.00"> (0)</text>
</g>
<!-- node12&#45;&gt;node15 -->
<g id="edge22" class="edge"><title>node12&#45;&gt;node15</title>
<path fill="none" stroke="black" d="M508.74,-272.664C531.636,-285.046 564.559,-302.849 589.363,-316.262"/>
<polygon fill="black" stroke="black" points="587.973,-319.489 598.434,-321.167 591.303,-313.332 587.973,-319.489"/>
<text text-anchor="middle" x="556.068" y="-306.8" font-family="Times New Roman,serif" font-size="14.00"> (1)</text>
</g>
<!-- node17 -->
<g id="node18" class="node"><title>node17</title>
<ellipse fill="none" stroke="black" cx="895.449" cy="-41" rx="42.7926" ry="18"/>
<text text-anchor="middle" x="895.449" y="-37.3" font-family="Times New Roman,serif" font-size="14.00">Output 0</text>
</g>
<!-- node13&#45;&gt;node17 -->
<g id="edge25" class="edge"><title>node13&#45;&gt;node17</title>
<path fill="none" stroke="black" d="M377.339,-41C406.69,-41 445.372,-41 479.622,-41 479.622,-41 479.622,-41 769.757,-41 793.491,-41 819.766,-41 842.053,-41"/>
<polygon fill="black" stroke="black" points="842.315,-44.5001 852.315,-41 842.315,-37.5001 842.315,-44.5001"/>
</g>
<!-- node18 -->
<g id="node19" class="node"><title>node18</title>
<ellipse fill="none" stroke="black" cx="895.449" cy="-170" rx="42.7926" ry="18"/>
<text text-anchor="middle" x="895.449" y="-166.3" font-family="Times New Roman,serif" font-size="14.00">Output 1</text>
</g>
<!-- node14&#45;&gt;node18 -->
<g id="edge26" class="edge"><title>node14&#45;&gt;node18</title>
<path fill="none" stroke="black" d="M528.176,-170C605.67,-170 760.621,-170 841.911,-170"/>
<polygon fill="black" stroke="black" points="842.401,-173.5 852.401,-170 842.401,-166.5 842.401,-173.5"/>
</g>
<!-- node15&#45;&gt;node16 -->
<g id="edge24" class="edge"><title>node15&#45;&gt;node16</title>
<path fill="none" stroke="black" d="M661.052,-343.652C678.574,-347.979 700.063,-353.285 719.153,-357.998"/>
<polygon fill="black" stroke="black" points="718.335,-361.402 728.883,-360.401 720.014,-354.606 718.335,-361.402"/>
<text text-anchor="middle" x="693.961" y="-356.8" font-family="Times New Roman,serif" font-size="14.00"> (1)</text>
</g>
<!-- node19 -->
<g id="node20" class="node"><title>node19</title>
<ellipse fill="none" stroke="black" cx="895.449" cy="-370" rx="42.7926" ry="18"/>
<text text-anchor="middle" x="895.449" y="-366.3" font-family="Times New Roman,serif" font-size="14.00">Output 2</text>
</g>
<!-- node16&#45;&gt;node19 -->
<g id="edge27" class="edge"><title>node16&#45;&gt;node19</title>
<path fill="none" stroke="black" d="M815.833,-370C824.41,-370 833.428,-370 842.174,-370"/>
<polygon fill="black" stroke="black" points="842.274,-373.5 852.274,-370 842.274,-366.5 842.274,-373.5"/>
</g>
</g>
</svg>
