<?xml version="1.0" encoding="UTF-8" standalone="no"?>
<!DOCTYPE svg PUBLIC "-//W3C//DTD SVG 1.1//EN"
 "http://www.w3.org/Graphics/SVG/1.1/DTD/svg11.dtd">
<!-- Generated by graphviz version 2.38.0 (20140413.2041)
 -->
<!-- Title: NeuralNetwork Pages: 1 -->
<svg width="288pt" height="129pt"
 viewBox="0.00 0.00 288.00 129.45" xmlns="http://www.w3.org/2000/svg" xmlns:xlink="http://www.w3.org/1999/xlink">
<g id="graph0" class="graph" transform="scale(0.186263 0.186263) rotate(0) translate(4 691)">
<title>NeuralNetwork</title>
<polygon fill="white" stroke="none" points="-4,4 -4,-691 1542.2,-691 1542.2,4 -4,4"/>
<!-- node0 -->
<g id="node1" class="node"><title>node0</title>
<ellipse fill="none" stroke="black" cx="42.2463" cy="-167" rx="42.4939" ry="18"/>
<text text-anchor="middle" x="42.2463" y="-163.3" font-family="Times New Roman,serif" font-size="14.00">(0) Input</text>
</g>
<!-- node6 -->
<g id="node7" class="node"><title>node6</title>
<ellipse fill="none" stroke="black" cx="187.288" cy="-86" rx="42.4939" ry="18"/>
<text text-anchor="middle" x="187.288" y="-82.3" font-family="Times New Roman,serif" font-size="14.00">(6) AND</text>
</g>
<!-- node0&#45;&gt;node6 -->
<g id="edge1" class="edge"><title>node0&#45;&gt;node6</title>
<path fill="none" stroke="black" d="M51.2017,-149.276C60.5547,-130.806 77.9733,-102.807 102.493,-90 112.777,-84.6284 124.775,-82.2126 136.425,-81.4331"/>
<polygon fill="black" stroke="black" points="136.628,-84.9288 146.52,-81.1363 136.422,-77.9318 136.628,-84.9288"/>
<text text-anchor="middle" x="112.493" y="-93.8" font-family="Times New Roman,serif" font-size="14.00"> (0)</text>
</g>
<!-- node11 -->
<g id="node12" class="node"><title>node11</title>
<ellipse fill="none" stroke="black" cx="187.288" cy="-337" rx="46.5926" ry="18"/>
<text text-anchor="middle" x="187.288" y="-333.3" font-family="Times New Roman,serif" font-size="14.00">(11) AND</text>
</g>
<!-- node0&#45;&gt;node11 -->
<g id="edge12" class="edge"><title>node0&#45;&gt;node11</title>
<path fill="none" stroke="black" d="M58.699,-183.597C81.0923,-207.702 120.163,-249.978 122.493,-254 135.593,-276.624 124.165,-289.582 140.493,-310 142.568,-312.595 144.965,-314.994 147.552,-317.201"/>
<polygon fill="black" stroke="black" points="145.629,-320.131 155.754,-323.249 149.783,-314.497 145.629,-320.131"/>
<text text-anchor="middle" x="112.493" y="-257.8" font-family="Times New Roman,serif" font-size="14.00"> (1)</text>
</g>
<!-- node19 -->
<g id="node20" class="node"><title>node19</title>
<ellipse fill="none" stroke="black" cx="187.288" cy="-283" rx="46.5926" ry="18"/>
<text text-anchor="middle" x="187.288" y="-279.3" font-family="Times New Roman,serif" font-size="14.00">(19) AND</text>
</g>
<!-- node0&#45;&gt;node19 -->
<g id="edge27" class="edge"><title>node0&#45;&gt;node19</title>
<path fill="none" stroke="black" d="M72.6308,-179.825C89.0295,-188.183 108.841,-200.433 122.493,-216 135.346,-230.657 127.485,-241.479 140.493,-256 142.842,-258.623 145.509,-261.064 148.346,-263.319"/>
<polygon fill="black" stroke="black" points="146.478,-266.284 156.67,-269.178 150.507,-260.56 146.478,-266.284"/>
<text text-anchor="middle" x="112.493" y="-219.8" font-family="Times New Roman,serif" font-size="14.00"> (0)</text>
</g>
<!-- node27 -->
<g id="node28" class="node"><title>node27</title>
<ellipse fill="none" stroke="black" cx="928.289" cy="-249" rx="46.5926" ry="18"/>
<text text-anchor="middle" x="928.289" y="-245.3" font-family="Times New Roman,serif" font-size="14.00">(27) AND</text>
</g>
<!-- node0&#45;&gt;node27 -->
<g id="edge43" class="edge"><title>node0&#45;&gt;node27</title>
<path fill="none" stroke="black" d="M74.5308,-155.309C83.4459,-152.434 93.2492,-149.696 102.493,-148 119.127,-144.948 123.586,-146.445 140.493,-146 182.074,-144.906 198.82,-123.94 234.084,-146 249.588,-155.699 237.052,-172.586 252.084,-183 306.737,-220.863 334.536,-197 401.022,-197 401.022,-197 401.022,-197 778.397,-197 819.287,-197 863.138,-214.696 892.581,-229.441"/>
<polygon fill="black" stroke="black" points="891.12,-232.626 901.612,-234.099 894.329,-226.404 891.12,-232.626"/>
<text text-anchor="middle" x="514.264" y="-200.8" font-family="Times New Roman,serif" font-size="14.00"> (0)</text>
</g>
<!-- node1 -->
<g id="node2" class="node"><title>node1</title>
<ellipse fill="none" stroke="black" cx="42.2463" cy="-633" rx="42.4939" ry="18"/>
<text text-anchor="middle" x="42.2463" y="-629.3" font-family="Times New Roman,serif" font-size="14.00">(1) Input</text>
</g>
<!-- node7 -->
<g id="node8" class="node"><title>node7</title>
<ellipse fill="none" stroke="black" cx="187.288" cy="-633" rx="42.4939" ry="18"/>
<text text-anchor="middle" x="187.288" y="-629.3" font-family="Times New Roman,serif" font-size="14.00">(7) AND</text>
</g>
<!-- node1&#45;&gt;node7 -->
<g id="edge4" class="edge"><title>node1&#45;&gt;node7</title>
<path fill="none" stroke="black" d="M76.4587,-643.617C84.8649,-645.847 93.9375,-647.865 102.493,-649 116.064,-650.8 130.76,-649.214 143.999,-646.453"/>
<polygon fill="black" stroke="black" points="144.863,-649.845 153.796,-644.149 143.261,-643.031 144.863,-649.845"/>
<text text-anchor="middle" x="112.493" y="-652.8" font-family="Times New Roman,serif" font-size="14.00"> (1)</text>
</g>
<!-- node9 -->
<g id="node10" class="node"><title>node9</title>
<ellipse fill="none" stroke="black" cx="187.288" cy="-573" rx="42.4939" ry="18"/>
<text text-anchor="middle" x="187.288" y="-569.3" font-family="Times New Roman,serif" font-size="14.00">(9) AND</text>
</g>
<!-- node1&#45;&gt;node9 -->
<g id="edge7" class="edge"><title>node1&#45;&gt;node9</title>
<path fill="none" stroke="black" d="M64.6326,-617.529C75.544,-610.195 89.2753,-601.793 102.493,-596 113.935,-590.985 126.743,-586.808 138.836,-583.451"/>
<polygon fill="black" stroke="black" points="140.006,-586.762 148.78,-580.824 138.218,-579.994 140.006,-586.762"/>
<text text-anchor="middle" x="112.493" y="-599.8" font-family="Times New Roman,serif" font-size="14.00"> (0)</text>
</g>
<!-- node12 -->
<g id="node13" class="node"><title>node12</title>
<ellipse fill="none" stroke="black" cx="187.288" cy="-229" rx="46.5926" ry="18"/>
<text text-anchor="middle" x="187.288" y="-225.3" font-family="Times New Roman,serif" font-size="14.00">(12) AND</text>
</g>
<!-- node1&#45;&gt;node12 -->
<g id="edge14" class="edge"><title>node1&#45;&gt;node12</title>
<path fill="none" stroke="black" d="M54.7014,-615.605C64.3135,-600.108 77.5533,-576.471 84.4925,-554 104.565,-489.001 72.0207,-462.821 102.493,-402 107.984,-391.038 116.875,-393.898 122.493,-383 148.611,-332.327 108.802,-303.389 140.493,-256 142.34,-253.238 144.573,-250.719 147.047,-248.429"/>
<polygon fill="black" stroke="black" points="149.284,-251.123 155.048,-242.233 144.998,-245.589 149.284,-251.123"/>
<text text-anchor="middle" x="112.493" y="-405.8" font-family="Times New Roman,serif" font-size="14.00"> (1)</text>
</g>
<!-- node18 -->
<g id="node19" class="node"><title>node18</title>
<ellipse fill="none" stroke="black" cx="626.506" cy="-643" rx="40.8928" ry="18"/>
<text text-anchor="middle" x="626.506" y="-639.3" font-family="Times New Roman,serif" font-size="14.00">(18) OR</text>
</g>
<!-- node1&#45;&gt;node18 -->
<g id="edge26" class="edge"><title>node1&#45;&gt;node18</title>
<path fill="none" stroke="black" d="M63.6639,-648.755C74.5502,-656.161 88.5486,-664.189 102.493,-668 111.067,-670.343 113.604,-668.091 122.493,-668 317.442,-666 367.794,-684.647 561.06,-659 567.894,-658.093 575.051,-656.737 582.008,-655.191"/>
<polygon fill="black" stroke="black" points="583.075,-658.535 591.996,-652.82 581.458,-651.724 583.075,-658.535"/>
<text text-anchor="middle" x="294.33" y="-675.8" font-family="Times New Roman,serif" font-size="14.00"> (1)</text>
</g>
<!-- node2 -->
<g id="node3" class="node"><title>node2</title>
<ellipse fill="none" stroke="black" cx="42.2463" cy="-329" rx="42.4939" ry="18"/>
<text text-anchor="middle" x="42.2463" y="-325.3" font-family="Times New Roman,serif" font-size="14.00">(2) Input</text>
</g>
<!-- node8 -->
<g id="node9" class="node"><title>node8</title>
<ellipse fill="none" stroke="black" cx="294.33" cy="-459" rx="42.4939" ry="18"/>
<text text-anchor="middle" x="294.33" y="-455.3" font-family="Times New Roman,serif" font-size="14.00">(8) AND</text>
</g>
<!-- node2&#45;&gt;node8 -->
<g id="edge6" class="edge"><title>node2&#45;&gt;node8</title>
<path fill="none" stroke="black" d="M82.1678,-322.999C95.7855,-322.759 110.624,-324.754 122.493,-332 136.42,-340.503 129.209,-352.212 140.493,-364 173.427,-398.408 221.337,-425.525 254.707,-441.833"/>
<polygon fill="black" stroke="black" points="253.605,-445.186 264.136,-446.343 256.625,-438.871 253.605,-445.186"/>
<text text-anchor="middle" x="112.493" y="-335.8" font-family="Times New Roman,serif" font-size="14.00"> (1)</text>
</g>
<!-- node13 -->
<g id="node14" class="node"><title>node13</title>
<ellipse fill="none" stroke="black" cx="187.288" cy="-519" rx="46.5926" ry="18"/>
<text text-anchor="middle" x="187.288" y="-515.3" font-family="Times New Roman,serif" font-size="14.00">(13) AND</text>
</g>
<!-- node2&#45;&gt;node13 -->
<g id="edge16" class="edge"><title>node2&#45;&gt;node13</title>
<path fill="none" stroke="black" d="M53.4545,-346.451C64.7339,-365.334 83.788,-396.083 102.493,-421 110.625,-431.834 113.659,-433.73 122.493,-444 136.882,-460.731 152.982,-479.66 165.408,-494.315"/>
<polygon fill="black" stroke="black" points="162.764,-496.609 171.899,-501.977 168.105,-492.084 162.764,-496.609"/>
<text text-anchor="middle" x="112.493" y="-447.8" font-family="Times New Roman,serif" font-size="14.00"> (1)</text>
</g>
<!-- node14 -->
<g id="node15" class="node"><title>node14</title>
<ellipse fill="none" stroke="black" cx="514.264" cy="-65" rx="46.5926" ry="18"/>
<text text-anchor="middle" x="514.264" y="-61.3" font-family="Times New Roman,serif" font-size="14.00">(14) AND</text>
</g>
<!-- node2&#45;&gt;node14 -->
<g id="edge17" class="edge"><title>node2&#45;&gt;node14</title>
<path fill="none" stroke="black" d="M46.453,-310.726C52.4097,-282.177 67.8682,-227.055 102.493,-196 204.767,-104.269 371.533,-76.7346 457.746,-68.4969"/>
<polygon fill="black" stroke="black" points="458.206,-71.9697 467.851,-67.5849 457.577,-64.998 458.206,-71.9697"/>
<text text-anchor="middle" x="187.288" y="-167.8" font-family="Times New Roman,serif" font-size="14.00"> (0)</text>
</g>
<!-- node3 -->
<g id="node4" class="node"><title>node3</title>
<ellipse fill="none" stroke="black" cx="42.2463" cy="-51" rx="42.4939" ry="18"/>
<text text-anchor="middle" x="42.2463" y="-47.3" font-family="Times New Roman,serif" font-size="14.00">(3) Input</text>
</g>
<!-- node3&#45;&gt;node6 -->
<g id="edge2" class="edge"><title>node3&#45;&gt;node6</title>
<path fill="none" stroke="black" d="M84.0485,-47.8324C96.548,-47.8404 110.231,-48.8543 122.493,-52 133.755,-54.8893 145.22,-60.14 155.267,-65.6646"/>
<polygon fill="black" stroke="black" points="153.642,-68.7678 164.048,-70.7553 157.152,-62.7119 153.642,-68.7678"/>
<text text-anchor="middle" x="112.493" y="-55.8" font-family="Times New Roman,serif" font-size="14.00"> (1)</text>
</g>
<!-- node3&#45;&gt;node12 -->
<g id="edge13" class="edge"><title>node3&#45;&gt;node12</title>
<path fill="none" stroke="black" d="M52.1989,-68.6945C67.4973,-97.7795 100.886,-156.501 140.493,-197 144.212,-200.803 148.439,-204.445 152.787,-207.821"/>
<polygon fill="black" stroke="black" points="151.052,-210.888 161.192,-213.957 155.179,-205.234 151.052,-210.888"/>
<text text-anchor="middle" x="112.493" y="-178.8" font-family="Times New Roman,serif" font-size="14.00"> (0)</text>
</g>
<!-- node3&#45;&gt;node14 -->
<g id="edge18" class="edge"><title>node3&#45;&gt;node14</title>
<path fill="none" stroke="black" d="M82.7063,-45.6831C89.3016,-44.9826 96.082,-44.3774 102.493,-44 230.407,-36.4696 380.823,-49.814 459.347,-58.4688"/>
<polygon fill="black" stroke="black" points="459.153,-61.9688 469.481,-59.6038 459.933,-55.0123 459.153,-61.9688"/>
<text text-anchor="middle" x="187.288" y="-45.8" font-family="Times New Roman,serif" font-size="14.00"> (1)</text>
</g>
<!-- node4 -->
<g id="node5" class="node"><title>node4</title>
<ellipse fill="none" stroke="black" cx="42.2463" cy="-527" rx="42.4939" ry="18"/>
<text text-anchor="middle" x="42.2463" y="-523.3" font-family="Times New Roman,serif" font-size="14.00">(4) Input</text>
</g>
<!-- node4&#45;&gt;node9 -->
<g id="edge8" class="edge"><title>node4&#45;&gt;node9</title>
<path fill="none" stroke="black" d="M76.4225,-537.669C96.319,-544.067 121.837,-552.273 143.271,-559.166"/>
<polygon fill="black" stroke="black" points="142.205,-562.5 152.796,-562.23 144.348,-555.836 142.205,-562.5"/>
<text text-anchor="middle" x="112.493" y="-554.8" font-family="Times New Roman,serif" font-size="14.00"> (1)</text>
</g>
<!-- node4&#45;&gt;node11 -->
<g id="edge11" class="edge"><title>node4&#45;&gt;node11</title>
<path fill="none" stroke="black" d="M71.0173,-513.583C76.237,-509.87 81.1103,-505.355 84.4925,-500 116.112,-449.94 65.4466,-414.188 102.493,-368 110.457,-358.07 121.926,-351.321 133.834,-346.734"/>
<polygon fill="black" stroke="black" points="135.064,-350.013 143.42,-343.499 132.825,-343.38 135.064,-350.013"/>
<text text-anchor="middle" x="112.493" y="-371.8" font-family="Times New Roman,serif" font-size="14.00"> (0)</text>
</g>
<!-- node4&#45;&gt;node13 -->
<g id="edge15" class="edge"><title>node4&#45;&gt;node13</title>
<path fill="none" stroke="black" d="M82.7104,-521.749C89.3052,-521.041 96.0844,-520.416 102.493,-520 111.353,-519.425 120.752,-519.068 129.928,-518.857"/>
<polygon fill="black" stroke="black" points="130.217,-522.352 140.153,-518.676 130.093,-515.353 130.217,-522.352"/>
<text text-anchor="middle" x="112.493" y="-523.8" font-family="Times New Roman,serif" font-size="14.00"> (0)</text>
</g>
<!-- node5 -->
<g id="node6" class="node"><title>node5</title>
<ellipse fill="none" stroke="black" cx="42.2463" cy="-473" rx="42.4939" ry="18"/>
<text text-anchor="middle" x="42.2463" y="-469.3" font-family="Times New Roman,serif" font-size="14.00">(5) Input</text>
</g>
<!-- node5&#45;&gt;node7 -->
<g id="edge3" class="edge"><title>node5&#45;&gt;node7</title>
<path fill="none" stroke="black" d="M70.9152,-486.482C76.1413,-490.192 81.043,-494.688 84.4925,-500 111.713,-541.914 68.889,-574.006 102.493,-611 111.031,-620.4 123.052,-625.993 135.329,-629.267"/>
<polygon fill="black" stroke="black" points="134.652,-632.701 145.169,-631.424 136.151,-625.864 134.652,-632.701"/>
<text text-anchor="middle" x="112.493" y="-627.8" font-family="Times New Roman,serif" font-size="14.00"> (0)</text>
</g>
<!-- node5&#45;&gt;node8 -->
<g id="edge5" class="edge"><title>node5&#45;&gt;node8</title>
<path fill="none" stroke="black" d="M84.2625,-470.704C127.42,-468.288 195.432,-464.48 242.091,-461.868"/>
<polygon fill="black" stroke="black" points="242.503,-465.351 252.292,-461.297 242.112,-458.362 242.503,-465.351"/>
<text text-anchor="middle" x="112.493" y="-472.8" font-family="Times New Roman,serif" font-size="14.00"> (0)</text>
</g>
<!-- node5&#45;&gt;node19 -->
<g id="edge28" class="edge"><title>node5&#45;&gt;node19</title>
<path fill="none" stroke="black" d="M49.8961,-455.281C58.3651,-432.466 73.2485,-391.523 84.4925,-356 93.4092,-327.829 79.9274,-311.076 102.493,-292 110.621,-285.128 120.897,-281.435 131.444,-279.669"/>
<polygon fill="black" stroke="black" points="132.032,-283.125 141.576,-278.525 131.247,-276.169 132.032,-283.125"/>
<text text-anchor="middle" x="112.493" y="-295.8" font-family="Times New Roman,serif" font-size="14.00"> (1)</text>
</g>
<!-- node10 -->
<g id="node11" class="node"><title>node10</title>
<ellipse fill="none" stroke="black" cx="402.022" cy="-398" rx="40.8928" ry="18"/>
<text text-anchor="middle" x="402.022" y="-394.3" font-family="Times New Roman,serif" font-size="14.00">(10) OR</text>
</g>
<!-- node6&#45;&gt;node10 -->
<g id="edge10" class="edge"><title>node6&#45;&gt;node10</title>
<path fill="none" stroke="black" d="M209.208,-101.635C242.377,-127.71 306.363,-183.522 336.577,-247 360.51,-297.283 323.4,-324.856 354.577,-371 356.861,-374.381 359.721,-377.395 362.894,-380.069"/>
<polygon fill="black" stroke="black" points="361.095,-383.085 371.272,-386.029 365.152,-377.38 361.095,-383.085"/>
<text text-anchor="middle" x="294.33" y="-250.8" font-family="Times New Roman,serif" font-size="14.00"> (1)</text>
</g>
<!-- node25 -->
<g id="node26" class="node"><title>node25</title>
<ellipse fill="none" stroke="black" cx="777.397" cy="-151" rx="47.3916" ry="18"/>
<text text-anchor="middle" x="777.397" y="-147.3" font-family="Times New Roman,serif" font-size="14.00">(25) XOR</text>
</g>
<!-- node6&#45;&gt;node25 -->
<g id="edge39" class="edge"><title>node6&#45;&gt;node25</title>
<path fill="none" stroke="black" d="M228.249,-90.4166C330.89,-101.761 603.943,-131.94 721.408,-144.922"/>
<polygon fill="black" stroke="black" points="721.286,-148.43 731.61,-146.05 722.055,-141.472 721.286,-148.43"/>
<text text-anchor="middle" x="514.264" y="-129.8" font-family="Times New Roman,serif" font-size="14.00"> (0)</text>
</g>
<!-- node35 -->
<g id="node36" class="node"><title>node35</title>
<ellipse fill="none" stroke="black" cx="1495.31" cy="-18" rx="42.7926" ry="18"/>
<text text-anchor="middle" x="1495.31" y="-14.3" font-family="Times New Roman,serif" font-size="14.00">Output 0</text>
</g>
<!-- node6&#45;&gt;node35 -->
<g id="edge59" class="edge"><title>node6&#45;&gt;node35</title>
<path fill="none" stroke="black" d="M220.57,-74.6183C278.446,-55.2604 404.034,-18 513.264,-18 513.264,-18 513.264,-18 1375.46,-18 1397.26,-18 1421.31,-18 1442.04,-18"/>
<polygon fill="black" stroke="black" points="1442.23,-21.5001 1452.23,-18 1442.23,-14.5001 1442.23,-21.5001"/>
</g>
<!-- node16 -->
<g id="node17" class="node"><title>node16</title>
<ellipse fill="none" stroke="black" cx="626.506" cy="-390" rx="46.5926" ry="18"/>
<text text-anchor="middle" x="626.506" y="-386.3" font-family="Times New Roman,serif" font-size="14.00">(16) AND</text>
</g>
<!-- node7&#45;&gt;node16 -->
<g id="edge21" class="edge"><title>node7&#45;&gt;node16</title>
<path fill="none" stroke="black" d="M218.47,-620.7C248.691,-608.167 296.357,-587.81 336.577,-568 387.928,-542.707 405.853,-543.073 449.468,-506 459.359,-497.593 457.704,-491.553 467.468,-483 503.806,-451.173 552.588,-424.403 586.297,-407.876"/>
<polygon fill="black" stroke="black" points="587.897,-410.99 595.382,-403.491 584.854,-404.686 587.897,-410.99"/>
<text text-anchor="middle" x="402.022" y="-562.8" font-family="Times New Roman,serif" font-size="14.00"> (0)</text>
</g>
<!-- node17 -->
<g id="node18" class="node"><title>node17</title>
<ellipse fill="none" stroke="black" cx="402.022" cy="-633" rx="47.3916" ry="18"/>
<text text-anchor="middle" x="402.022" y="-629.3" font-family="Times New Roman,serif" font-size="14.00">(17) XOR</text>
</g>
<!-- node7&#45;&gt;node17 -->
<g id="edge24" class="edge"><title>node7&#45;&gt;node17</title>
<path fill="none" stroke="black" d="M229.558,-633C262.11,-633 307.879,-633 343.942,-633"/>
<polygon fill="black" stroke="black" points="344.317,-636.5 354.317,-633 344.316,-629.5 344.317,-636.5"/>
<text text-anchor="middle" x="294.33" y="-636.8" font-family="Times New Roman,serif" font-size="14.00"> (1)</text>
</g>
<!-- node22 -->
<g id="node23" class="node"><title>node22</title>
<ellipse fill="none" stroke="black" cx="626.506" cy="-502" rx="46.5926" ry="18"/>
<text text-anchor="middle" x="626.506" y="-498.3" font-family="Times New Roman,serif" font-size="14.00">(22) AND</text>
</g>
<!-- node8&#45;&gt;node22 -->
<g id="edge34" class="edge"><title>node8&#45;&gt;node22</title>
<path fill="none" stroke="black" d="M332.433,-466.817C367.18,-473.867 420.63,-484.02 467.468,-490 501.162,-494.302 539.109,-497.245 569.372,-499.14"/>
<polygon fill="black" stroke="black" points="569.543,-502.656 579.736,-499.767 569.966,-495.669 569.543,-502.656"/>
<text text-anchor="middle" x="402.022" y="-490.8" font-family="Times New Roman,serif" font-size="14.00"> (1)</text>
</g>
<!-- node24 -->
<g id="node25" class="node"><title>node24</title>
<ellipse fill="none" stroke="black" cx="928.289" cy="-444" rx="47.3916" ry="18"/>
<text text-anchor="middle" x="928.289" y="-440.3" font-family="Times New Roman,serif" font-size="14.00">(24) XOR</text>
</g>
<!-- node8&#45;&gt;node24 -->
<g id="edge38" class="edge"><title>node8&#45;&gt;node24</title>
<path fill="none" stroke="black" d="M335.441,-454.581C379.12,-450.156 451.067,-444 513.264,-444 513.264,-444 513.264,-444 778.397,-444 808.768,-444 842.623,-444 870.367,-444"/>
<polygon fill="black" stroke="black" points="870.681,-447.5 880.681,-444 870.681,-440.5 870.681,-447.5"/>
<text text-anchor="middle" x="626.506" y="-447.8" font-family="Times New Roman,serif" font-size="14.00"> (1)</text>
</g>
<!-- node9&#45;&gt;node10 -->
<g id="edge9" class="edge"><title>node9&#45;&gt;node10</title>
<path fill="none" stroke="black" d="M221.656,-562.276C231.438,-559.204 242.17,-555.902 252.084,-553 289.435,-542.066 306.59,-554.809 336.577,-530 353.745,-515.796 377.504,-459.476 390.856,-425.157"/>
<polygon fill="black" stroke="black" points="394.171,-426.289 394.49,-415.699 387.636,-423.779 394.171,-426.289"/>
<text text-anchor="middle" x="294.33" y="-556.8" font-family="Times New Roman,serif" font-size="14.00"> (0)</text>
</g>
<!-- node20 -->
<g id="node21" class="node"><title>node20</title>
<ellipse fill="none" stroke="black" cx="626.506" cy="-281" rx="47.3916" ry="18"/>
<text text-anchor="middle" x="626.506" y="-277.3" font-family="Times New Roman,serif" font-size="14.00">(20) XOR</text>
</g>
<!-- node10&#45;&gt;node20 -->
<g id="edge29" class="edge"><title>node10&#45;&gt;node20</title>
<path fill="none" stroke="black" d="M430.783,-385.084C437.404,-381.174 444.099,-376.446 449.468,-371 460.925,-359.38 455.041,-349.575 467.468,-339 497.422,-313.509 539.558,-298.79 572.789,-290.563"/>
<polygon fill="black" stroke="black" points="573.858,-293.907 582.793,-288.213 572.257,-287.092 573.858,-293.907"/>
<text text-anchor="middle" x="514.264" y="-342.8" font-family="Times New Roman,serif" font-size="14.00"> (0)</text>
</g>
<!-- node10&#45;&gt;node22 -->
<g id="edge33" class="edge"><title>node10&#45;&gt;node22</title>
<path fill="none" stroke="black" d="M430.75,-410.961C470.118,-429.364 542.37,-463.138 586.941,-483.973"/>
<polygon fill="black" stroke="black" points="585.469,-487.148 596.01,-488.212 588.433,-480.807 585.469,-487.148"/>
<text text-anchor="middle" x="514.264" y="-474.8" font-family="Times New Roman,serif" font-size="14.00"> (0)</text>
</g>
<!-- node15 -->
<g id="node16" class="node"><title>node15</title>
<ellipse fill="none" stroke="black" cx="402.022" cy="-344" rx="47.3916" ry="18"/>
<text text-anchor="middle" x="402.022" y="-340.3" font-family="Times New Roman,serif" font-size="14.00">(15) XOR</text>
</g>
<!-- node11&#45;&gt;node15 -->
<g id="edge19" class="edge"><title>node11&#45;&gt;node15</title>
<path fill="none" stroke="black" d="M233.925,-338.502C266.232,-339.565 309.78,-340.998 344.32,-342.134"/>
<polygon fill="black" stroke="black" points="344.617,-345.646 354.727,-342.477 344.848,-338.65 344.617,-345.646"/>
<text text-anchor="middle" x="294.33" y="-344.8" font-family="Times New Roman,serif" font-size="14.00"> (0)</text>
</g>
<!-- node12&#45;&gt;node15 -->
<g id="edge20" class="edge"><title>node12&#45;&gt;node15</title>
<path fill="none" stroke="black" d="M215.231,-243.565C253.25,-264.117 322.722,-301.672 365.096,-324.579"/>
<polygon fill="black" stroke="black" points="363.502,-327.696 373.963,-329.372 366.831,-321.538 363.502,-327.696"/>
<text text-anchor="middle" x="294.33" y="-309.8" font-family="Times New Roman,serif" font-size="14.00"> (1)</text>
</g>
<!-- node21 -->
<g id="node22" class="node"><title>node21</title>
<ellipse fill="none" stroke="black" cx="777.397" cy="-277" rx="47.3916" ry="18"/>
<text text-anchor="middle" x="777.397" y="-273.3" font-family="Times New Roman,serif" font-size="14.00">(21) XOR</text>
</g>
<!-- node12&#45;&gt;node21 -->
<g id="edge32" class="edge"><title>node12&#45;&gt;node21</title>
<path fill="none" stroke="black" d="M234.398,-228.782C320.967,-228.945 513.558,-232.028 673.952,-254 691.917,-256.461 711.389,-260.482 728.484,-264.48"/>
<polygon fill="black" stroke="black" points="727.705,-267.892 738.246,-266.819 729.336,-261.085 727.705,-267.892"/>
<text text-anchor="middle" x="514.264" y="-244.8" font-family="Times New Roman,serif" font-size="14.00"> (1)</text>
</g>
<!-- node13&#45;&gt;node17 -->
<g id="edge23" class="edge"><title>node13&#45;&gt;node17</title>
<path fill="none" stroke="black" d="M221.715,-506.773C254.664,-497.076 304.594,-489.018 336.577,-515 366.886,-539.622 332.951,-568.485 354.577,-601 357.419,-605.273 361.043,-609.137 365.011,-612.582"/>
<polygon fill="black" stroke="black" points="362.888,-615.364 372.949,-618.684 367.154,-609.814 362.888,-615.364"/>
<text text-anchor="middle" x="294.33" y="-518.8" font-family="Times New Roman,serif" font-size="14.00"> (0)</text>
</g>
<!-- node26 -->
<g id="node27" class="node"><title>node26</title>
<ellipse fill="none" stroke="black" cx="928.289" cy="-156" rx="46.5926" ry="18"/>
<text text-anchor="middle" x="928.289" y="-152.3" font-family="Times New Roman,serif" font-size="14.00">(26) AND</text>
</g>
<!-- node14&#45;&gt;node26 -->
<g id="edge42" class="edge"><title>node14&#45;&gt;node26</title>
<path fill="none" stroke="black" d="M557.187,-72.375C629.469,-85.1935 774.623,-111.415 824.843,-124 844.211,-128.854 865.314,-135.251 883.307,-141.049"/>
<polygon fill="black" stroke="black" points="882.359,-144.421 892.952,-144.194 884.53,-137.766 882.359,-144.421"/>
<text text-anchor="middle" x="701.952" y="-103.8" font-family="Times New Roman,serif" font-size="14.00"> (1)</text>
</g>
<!-- node32 -->
<g id="node33" class="node"><title>node32</title>
<ellipse fill="none" stroke="black" cx="928.289" cy="-81" rx="47.3916" ry="18"/>
<text text-anchor="middle" x="928.289" y="-77.3" font-family="Times New Roman,serif" font-size="14.00">(32) XOR</text>
</g>
<!-- node14&#45;&gt;node32 -->
<g id="edge54" class="edge"><title>node14&#45;&gt;node32</title>
<path fill="none" stroke="black" d="M561.02,-63.6801C596.689,-62.7199 647.464,-61.5035 691.952,-61 700.84,-60.8994 703.072,-60.5885 711.952,-61 766.812,-63.5422 829.283,-69.7088 872.756,-74.528"/>
<polygon fill="black" stroke="black" points="872.504,-78.0216 882.832,-75.6585 873.284,-71.0652 872.504,-78.0216"/>
<text text-anchor="middle" x="701.952" y="-64.8" font-family="Times New Roman,serif" font-size="14.00"> (1)</text>
</g>
<!-- node15&#45;&gt;node16 -->
<g id="edge22" class="edge"><title>node15&#45;&gt;node16</title>
<path fill="none" stroke="black" d="M443.57,-352.9C451.491,-354.613 459.737,-356.378 467.468,-358 503.159,-365.49 543.451,-373.643 574.418,-379.846"/>
<polygon fill="black" stroke="black" points="574.05,-383.341 584.542,-381.871 575.423,-376.477 574.05,-383.341"/>
<text text-anchor="middle" x="514.264" y="-379.8" font-family="Times New Roman,serif" font-size="14.00"> (1)</text>
</g>
<!-- node36 -->
<g id="node37" class="node"><title>node36</title>
<ellipse fill="none" stroke="black" cx="1495.31" cy="-344" rx="42.7926" ry="18"/>
<text text-anchor="middle" x="1495.31" y="-340.3" font-family="Times New Roman,serif" font-size="14.00">Output 1</text>
</g>
<!-- node15&#45;&gt;node36 -->
<g id="edge60" class="edge"><title>node15&#45;&gt;node36</title>
<path fill="none" stroke="black" d="M449.469,-344C494.478,-344 564.67,-344 625.506,-344 625.506,-344 625.506,-344 1375.46,-344 1397.26,-344 1421.31,-344 1442.04,-344"/>
<polygon fill="black" stroke="black" points="1442.23,-347.5 1452.23,-344 1442.23,-340.5 1442.23,-347.5"/>
</g>
<!-- node16&#45;&gt;node21 -->
<g id="edge31" class="edge"><title>node16&#45;&gt;node21</title>
<path fill="none" stroke="black" d="M648.523,-374.05C674.204,-354.559 717.814,-321.461 746.861,-299.417"/>
<polygon fill="black" stroke="black" points="749.156,-302.069 755.005,-293.235 744.924,-296.493 749.156,-302.069"/>
<text text-anchor="middle" x="701.952" y="-343.8" font-family="Times New Roman,serif" font-size="14.00"> (0)</text>
</g>
<!-- node17&#45;&gt;node18 -->
<g id="edge25" class="edge"><title>node17&#45;&gt;node18</title>
<path fill="none" stroke="black" d="M449.391,-635.084C486.176,-636.738 537.507,-639.045 575.265,-640.742"/>
<polygon fill="black" stroke="black" points="575.384,-644.251 585.532,-641.203 575.699,-637.258 575.384,-644.251"/>
<text text-anchor="middle" x="514.264" y="-643.8" font-family="Times New Roman,serif" font-size="14.00"> (0)</text>
</g>
<!-- node30 -->
<g id="node31" class="node"><title>node30</title>
<ellipse fill="none" stroke="black" cx="928.289" cy="-498" rx="46.5926" ry="18"/>
<text text-anchor="middle" x="928.289" y="-494.3" font-family="Times New Roman,serif" font-size="14.00">(30) AND</text>
</g>
<!-- node17&#45;&gt;node30 -->
<g id="edge49" class="edge"><title>node17&#45;&gt;node30</title>
<path fill="none" stroke="black" d="M447.943,-628.371C549.479,-617.718 790.529,-591.284 824.843,-577 855.278,-564.332 884.49,-540.22 903.877,-521.952"/>
<polygon fill="black" stroke="black" points="906.544,-524.243 911.308,-514.779 901.682,-519.206 906.544,-524.243"/>
<text text-anchor="middle" x="701.952" y="-602.8" font-family="Times New Roman,serif" font-size="14.00"> (0)</text>
</g>
<!-- node33 -->
<g id="node34" class="node"><title>node33</title>
<ellipse fill="none" stroke="black" cx="1079.18" cy="-292" rx="47.3916" ry="18"/>
<text text-anchor="middle" x="1079.18" y="-288.3" font-family="Times New Roman,serif" font-size="14.00">(33) XOR</text>
</g>
<!-- node17&#45;&gt;node33 -->
<g id="edge56" class="edge"><title>node17&#45;&gt;node33</title>
<path fill="none" stroke="black" d="M435.902,-620.361C515.91,-589.617 715.286,-513.06 729.952,-508 788.382,-487.841 818.137,-509.683 862.843,-467 879.926,-450.69 866.068,-435.426 880.843,-417 922.442,-365.121 991.709,-328.419 1036.14,-308.735"/>
<polygon fill="black" stroke="black" points="1037.71,-311.867 1045.49,-304.677 1034.93,-305.444 1037.71,-311.867"/>
<text text-anchor="middle" x="777.397" y="-511.8" font-family="Times New Roman,serif" font-size="14.00"> (1)</text>
</g>
<!-- node23 -->
<g id="node24" class="node"><title>node23</title>
<ellipse fill="none" stroke="black" cx="777.397" cy="-550" rx="46.5926" ry="18"/>
<text text-anchor="middle" x="777.397" y="-546.3" font-family="Times New Roman,serif" font-size="14.00">(23) AND</text>
</g>
<!-- node18&#45;&gt;node23 -->
<g id="edge36" class="edge"><title>node18&#45;&gt;node23</title>
<path fill="none" stroke="black" d="M635.839,-625.313C646.082,-605.74 665.425,-574.985 691.952,-560 700.628,-555.099 710.6,-552.087 720.581,-550.309"/>
<polygon fill="black" stroke="black" points="721.099,-553.77 730.517,-548.917 720.128,-546.838 721.099,-553.77"/>
<text text-anchor="middle" x="701.952" y="-563.8" font-family="Times New Roman,serif" font-size="14.00"> (1)</text>
</g>
<!-- node19&#45;&gt;node20 -->
<g id="edge30" class="edge"><title>node19&#45;&gt;node20</title>
<path fill="none" stroke="black" d="M234.252,-282.79C314.814,-282.421 481.261,-281.66 568.823,-281.259"/>
<polygon fill="black" stroke="black" points="568.858,-284.759 578.842,-281.213 568.826,-277.759 568.858,-284.759"/>
<text text-anchor="middle" x="402.022" y="-285.8" font-family="Times New Roman,serif" font-size="14.00"> (1)</text>
</g>
<!-- node20&#45;&gt;node25 -->
<g id="edge40" class="edge"><title>node20&#45;&gt;node25</title>
<path fill="none" stroke="black" d="M646.363,-264.535C672.51,-241.706 719.912,-200.318 749.69,-174.319"/>
<polygon fill="black" stroke="black" points="751.992,-176.955 757.223,-167.742 747.388,-171.682 751.992,-176.955"/>
<text text-anchor="middle" x="701.952" y="-226.8" font-family="Times New Roman,serif" font-size="14.00"> (1)</text>
</g>
<!-- node21&#45;&gt;node27 -->
<g id="edge44" class="edge"><title>node21&#45;&gt;node27</title>
<path fill="none" stroke="black" d="M820.268,-269.126C837.613,-265.864 857.897,-262.05 876.114,-258.624"/>
<polygon fill="black" stroke="black" points="876.809,-262.055 885.99,-256.767 875.515,-255.175 876.809,-262.055"/>
<text text-anchor="middle" x="852.843" y="-267.8" font-family="Times New Roman,serif" font-size="14.00"> (1)</text>
</g>
<!-- node21&#45;&gt;node30 -->
<g id="edge50" class="edge"><title>node21&#45;&gt;node30</title>
<path fill="none" stroke="black" d="M784.122,-295.1C796.556,-332.038 829.141,-417.149 880.843,-471 883.308,-473.567 886.07,-475.969 888.985,-478.197"/>
<polygon fill="black" stroke="black" points="887.26,-481.258 897.49,-484.013 891.211,-475.479 887.26,-481.258"/>
<text text-anchor="middle" x="852.843" y="-451.8" font-family="Times New Roman,serif" font-size="14.00"> (1)</text>
</g>
<!-- node22&#45;&gt;node23 -->
<g id="edge35" class="edge"><title>node22&#45;&gt;node23</title>
<path fill="none" stroke="black" d="M668.291,-510.124C682.283,-513.315 697.942,-517.338 711.952,-522 720.53,-524.854 729.542,-528.402 738.018,-532.004"/>
<polygon fill="black" stroke="black" points="736.744,-535.266 747.309,-536.058 739.544,-528.85 736.744,-535.266"/>
<text text-anchor="middle" x="701.952" y="-525.8" font-family="Times New Roman,serif" font-size="14.00"> (0)</text>
</g>
<!-- node23&#45;&gt;node24 -->
<g id="edge37" class="edge"><title>node23&#45;&gt;node24</title>
<path fill="none" stroke="black" d="M807.017,-535.854C824.392,-526.386 846.327,-512.788 862.843,-497 873.003,-487.288 870.52,-480.538 880.843,-471 883.609,-468.444 886.658,-466.023 889.831,-463.758"/>
<polygon fill="black" stroke="black" points="891.965,-466.544 898.415,-458.139 888.131,-460.688 891.965,-466.544"/>
<text text-anchor="middle" x="852.843" y="-515.8" font-family="Times New Roman,serif" font-size="14.00"> (0)</text>
</g>
<!-- node40 -->
<g id="node41" class="node"><title>node40</title>
<ellipse fill="none" stroke="black" cx="1495.31" cy="-622" rx="42.7926" ry="18"/>
<text text-anchor="middle" x="1495.31" y="-618.3" font-family="Times New Roman,serif" font-size="14.00">Output 5</text>
</g>
<!-- node23&#45;&gt;node40 -->
<g id="edge64" class="edge"><title>node23&#45;&gt;node40</title>
<path fill="none" stroke="black" d="M797.664,-566.338C824.746,-587.581 876.467,-622 927.289,-622 927.289,-622 927.289,-622 1375.46,-622 1397.26,-622 1421.31,-622 1442.04,-622"/>
<polygon fill="black" stroke="black" points="1442.23,-625.5 1452.23,-622 1442.23,-618.5 1442.23,-625.5"/>
</g>
<!-- node29 -->
<g id="node30" class="node"><title>node29</title>
<ellipse fill="none" stroke="black" cx="1230.07" cy="-444" rx="47.3916" ry="18"/>
<text text-anchor="middle" x="1230.07" y="-440.3" font-family="Times New Roman,serif" font-size="14.00">(29) XOR</text>
</g>
<!-- node24&#45;&gt;node29 -->
<g id="edge47" class="edge"><title>node24&#45;&gt;node29</title>
<path fill="none" stroke="black" d="M975.801,-444C1028.75,-444 1115.26,-444 1172.18,-444"/>
<polygon fill="black" stroke="black" points="1172.45,-447.5 1182.45,-444 1172.45,-440.5 1172.45,-447.5"/>
<text text-anchor="middle" x="1079.18" y="-447.8" font-family="Times New Roman,serif" font-size="14.00"> (0)</text>
</g>
<!-- node25&#45;&gt;node26 -->
<g id="edge41" class="edge"><title>node25&#45;&gt;node26</title>
<path fill="none" stroke="black" d="M824.691,-152.555C839.396,-153.048 855.818,-153.6 871.139,-154.114"/>
<polygon fill="black" stroke="black" points="871.423,-157.626 881.535,-154.464 871.658,-150.63 871.423,-157.626"/>
<text text-anchor="middle" x="852.843" y="-156.8" font-family="Times New Roman,serif" font-size="14.00"> (0)</text>
</g>
<!-- node25&#45;&gt;node32 -->
<g id="edge53" class="edge"><title>node25&#45;&gt;node32</title>
<path fill="none" stroke="black" d="M807.814,-137.17C830.884,-126.324 863.197,-111.132 888.401,-99.2826"/>
<polygon fill="black" stroke="black" points="890.119,-102.343 897.679,-94.9206 887.141,-96.0079 890.119,-102.343"/>
<text text-anchor="middle" x="852.843" y="-123.8" font-family="Times New Roman,serif" font-size="14.00"> (0)</text>
</g>
<!-- node28 -->
<g id="node29" class="node"><title>node28</title>
<ellipse fill="none" stroke="black" cx="1079.18" cy="-238" rx="46.5926" ry="18"/>
<text text-anchor="middle" x="1079.18" y="-234.3" font-family="Times New Roman,serif" font-size="14.00">(28) AND</text>
</g>
<!-- node26&#45;&gt;node28 -->
<g id="edge46" class="edge"><title>node26&#45;&gt;node28</title>
<path fill="none" stroke="black" d="M955.908,-170.66C980.076,-183.97 1015.91,-203.703 1042.54,-218.371"/>
<polygon fill="black" stroke="black" points="1041.09,-221.571 1051.54,-223.329 1044.47,-215.439 1041.09,-221.571"/>
<text text-anchor="middle" x="1003.73" y="-204.8" font-family="Times New Roman,serif" font-size="14.00"> (1)</text>
</g>
<!-- node34 -->
<g id="node35" class="node"><title>node34</title>
<ellipse fill="none" stroke="black" cx="1230.07" cy="-240" rx="47.3916" ry="18"/>
<text text-anchor="middle" x="1230.07" y="-236.3" font-family="Times New Roman,serif" font-size="14.00">(34) XOR</text>
</g>
<!-- node26&#45;&gt;node34 -->
<g id="edge57" class="edge"><title>node26&#45;&gt;node34</title>
<path fill="none" stroke="black" d="M972.661,-162.159C1013.08,-168.514 1074.74,-179.789 1126.63,-196 1148.6,-202.864 1172.26,-212.845 1191.3,-221.566"/>
<polygon fill="black" stroke="black" points="1189.99,-224.813 1200.53,-225.857 1192.94,-218.466 1189.99,-224.813"/>
<text text-anchor="middle" x="1079.18" y="-199.8" font-family="Times New Roman,serif" font-size="14.00"> (0)</text>
</g>
<!-- node27&#45;&gt;node28 -->
<g id="edge45" class="edge"><title>node27&#45;&gt;node28</title>
<path fill="none" stroke="black" d="M971.132,-241.624C978.636,-240.554 986.4,-239.609 993.735,-239 1002.86,-238.242 1012.55,-237.795 1021.99,-237.551"/>
<polygon fill="black" stroke="black" points="1022.17,-241.048 1032.11,-237.361 1022.04,-234.049 1022.17,-241.048"/>
<text text-anchor="middle" x="1003.73" y="-242.8" font-family="Times New Roman,serif" font-size="14.00"> (0)</text>
</g>
<!-- node27&#45;&gt;node33 -->
<g id="edge55" class="edge"><title>node27&#45;&gt;node33</title>
<path fill="none" stroke="black" d="M966.094,-259.629C985.794,-265.319 1010.27,-272.387 1031.31,-278.465"/>
<polygon fill="black" stroke="black" points="1030.45,-281.857 1041.02,-281.269 1032.39,-275.132 1030.45,-281.857"/>
<text text-anchor="middle" x="1003.73" y="-276.8" font-family="Times New Roman,serif" font-size="14.00"> (0)</text>
</g>
<!-- node28&#45;&gt;node29 -->
<g id="edge48" class="edge"><title>node28&#45;&gt;node29</title>
<path fill="none" stroke="black" d="M1109.37,-251.815C1115.51,-255.548 1121.63,-259.971 1126.63,-265 1150.2,-288.736 1193.95,-373.196 1215.85,-417.082"/>
<polygon fill="black" stroke="black" points="1212.85,-418.899 1220.43,-426.299 1219.12,-415.786 1212.85,-418.899"/>
<text text-anchor="middle" x="1154.63" y="-321.8" font-family="Times New Roman,serif" font-size="14.00"> (1)</text>
</g>
<!-- node31 -->
<g id="node32" class="node"><title>node31</title>
<ellipse fill="none" stroke="black" cx="1374.46" cy="-475" rx="40.8928" ry="18"/>
<text text-anchor="middle" x="1374.46" y="-471.3" font-family="Times New Roman,serif" font-size="14.00">(31) OR</text>
</g>
<!-- node29&#45;&gt;node31 -->
<g id="edge51" class="edge"><title>node29&#45;&gt;node31</title>
<path fill="none" stroke="black" d="M1271.5,-452.8C1288.9,-456.589 1309.33,-461.038 1327.33,-464.955"/>
<polygon fill="black" stroke="black" points="1326.8,-468.422 1337.31,-467.13 1328.29,-461.583 1326.8,-468.422"/>
<text text-anchor="middle" x="1305.52" y="-465.8" font-family="Times New Roman,serif" font-size="14.00"> (0)</text>
</g>
<!-- node30&#45;&gt;node31 -->
<g id="edge52" class="edge"><title>node30&#45;&gt;node31</title>
<path fill="none" stroke="black" d="M975.102,-496.451C1047.46,-493.872 1192.61,-488.163 1315.52,-480 1318.35,-479.812 1321.26,-479.605 1324.2,-479.385"/>
<polygon fill="black" stroke="black" points="1324.51,-482.871 1334.21,-478.599 1323.96,-475.893 1324.51,-482.871"/>
<text text-anchor="middle" x="1154.63" y="-492.8" font-family="Times New Roman,serif" font-size="14.00"> (1)</text>
</g>
<!-- node39 -->
<g id="node40" class="node"><title>node39</title>
<ellipse fill="none" stroke="black" cx="1495.31" cy="-475" rx="42.7926" ry="18"/>
<text text-anchor="middle" x="1495.31" y="-471.3" font-family="Times New Roman,serif" font-size="14.00">Output 4</text>
</g>
<!-- node31&#45;&gt;node39 -->
<g id="edge63" class="edge"><title>node31&#45;&gt;node39</title>
<path fill="none" stroke="black" d="M1415.7,-475C1424.12,-475 1433.12,-475 1441.91,-475"/>
<polygon fill="black" stroke="black" points="1442.08,-478.5 1452.08,-475 1442.08,-471.5 1442.08,-478.5"/>
</g>
<!-- node37 -->
<g id="node38" class="node"><title>node37</title>
<ellipse fill="none" stroke="black" cx="1495.31" cy="-81" rx="42.7926" ry="18"/>
<text text-anchor="middle" x="1495.31" y="-77.3" font-family="Times New Roman,serif" font-size="14.00">Output 2</text>
</g>
<!-- node32&#45;&gt;node37 -->
<g id="edge61" class="edge"><title>node32&#45;&gt;node37</title>
<path fill="none" stroke="black" d="M975.897,-81C1005.25,-81 1043.93,-81 1078.18,-81 1078.18,-81 1078.18,-81 1375.46,-81 1397.26,-81 1421.31,-81 1442.04,-81"/>
<polygon fill="black" stroke="black" points="1442.23,-84.5001 1452.23,-81 1442.23,-77.5001 1442.23,-84.5001"/>
</g>
<!-- node33&#45;&gt;node34 -->
<g id="edge58" class="edge"><title>node33&#45;&gt;node34</title>
<path fill="none" stroke="black" d="M1114.71,-279.939C1135.59,-272.648 1162.42,-263.279 1184.84,-255.449"/>
<polygon fill="black" stroke="black" points="1186.18,-258.687 1194.47,-252.085 1183.87,-252.078 1186.18,-258.687"/>
<text text-anchor="middle" x="1154.63" y="-272.8" font-family="Times New Roman,serif" font-size="14.00"> (1)</text>
</g>
<!-- node38 -->
<g id="node39" class="node"><title>node38</title>
<ellipse fill="none" stroke="black" cx="1495.31" cy="-240" rx="42.7926" ry="18"/>
<text text-anchor="middle" x="1495.31" y="-236.3" font-family="Times New Roman,serif" font-size="14.00">Output 3</text>
</g>
<!-- node34&#45;&gt;node38 -->
<g id="edge62" class="edge"><title>node34&#45;&gt;node38</title>
<path fill="none" stroke="black" d="M1277.53,-240C1323.59,-240 1394.05,-240 1442.04,-240"/>
<polygon fill="black" stroke="black" points="1442.22,-243.5 1452.22,-240 1442.22,-236.5 1442.22,-243.5"/>
</g>
</g>
</svg>
